<?xml version="1.0" encoding="utf-8" standalone="no"?>
<!DOCTYPE svg PUBLIC "-//W3C//DTD SVG 1.1//EN"
  "http://www.w3.org/Graphics/SVG/1.1/DTD/svg11.dtd">
<svg xmlns:xlink="http://www.w3.org/1999/xlink" width="720pt" height="576pt" viewBox="0 0 720 576" xmlns="http://www.w3.org/2000/svg" version="1.1">
 <metadata>
  <rdf:RDF xmlns:dc="http://purl.org/dc/elements/1.1/" xmlns:cc="http://creativecommons.org/ns#" xmlns:rdf="http://www.w3.org/1999/02/22-rdf-syntax-ns#">
   <cc:Work>
    <dc:type rdf:resource="http://purl.org/dc/dcmitype/StillImage"/>
    <dc:date>2022-11-21T18:22:19.414019</dc:date>
    <dc:format>image/svg+xml</dc:format>
    <dc:creator>
     <cc:Agent>
      <dc:title>Matplotlib v3.6.1, https://matplotlib.org/</dc:title>
     </cc:Agent>
    </dc:creator>
   </cc:Work>
  </rdf:RDF>
 </metadata>
 <defs>
  <style type="text/css">*{stroke-linejoin: round; stroke-linecap: butt}</style>
 </defs>
 <g id="figure_1">
  <g id="patch_1">
   <path d="M 0 576 
L 720 576 
L 720 0 
L 0 0 
z
" style="fill: #ffffff"/>
  </g>
  <g id="axes_1">
   <g id="patch_2">
    <path d="M 42.495313 510.648438 
L 693.296875 510.648438 
L 693.296875 24.465325 
L 42.495313 24.465325 
z
" style="fill: #ffffff"/>
   </g>
   <g id="PolyCollection_1">
    <defs>
     <path id="mf89020bb72" d="M 423.900725 -71.19511 
L 367.896094 -71.19511 
L 367.896094 -71.779464 
L 367.896094 -72.363819 
L 367.896094 -72.948174 
L 367.896094 -73.532528 
L 367.896094 -74.116883 
L 367.896094 -74.701238 
L 367.896094 -75.285592 
L 367.896094 -75.869947 
L 367.896094 -76.454302 
L 367.896094 -77.038657 
L 367.896094 -77.623011 
L 367.896094 -78.207366 
L 367.896094 -78.791721 
L 367.896094 -79.376075 
L 367.896094 -79.96043 
L 367.896094 -80.544785 
L 367.896094 -81.129139 
L 367.896094 -81.713494 
L 367.896094 -82.297849 
L 367.896094 -82.882204 
L 367.896094 -83.466558 
L 367.896094 -84.050913 
L 367.896094 -84.635268 
L 367.896094 -85.219622 
L 367.896094 -85.803977 
L 367.896094 -86.388332 
L 367.896094 -86.972687 
L 367.896094 -87.557041 
L 367.896094 -88.141396 
L 367.896094 -88.725751 
L 367.896094 -89.310105 
L 367.896094 -89.89446 
L 367.896094 -90.478815 
L 367.896094 -91.063169 
L 367.896094 -91.647524 
L 367.896094 -92.231879 
L 367.896094 -92.816234 
L 367.896094 -93.400588 
L 367.896094 -93.984943 
L 367.896094 -94.569298 
L 367.896094 -95.153652 
L 367.896094 -95.738007 
L 367.896094 -96.322362 
L 367.896094 -96.906716 
L 367.896094 -97.491071 
L 367.896094 -98.075426 
L 367.896094 -98.659781 
L 367.896094 -99.244135 
L 367.896094 -99.82849 
L 367.896094 -100.412845 
L 367.896094 -100.997199 
L 367.896094 -101.581554 
L 367.896094 -102.165909 
L 367.896094 -102.750263 
L 367.896094 -103.334618 
L 367.896094 -103.918973 
L 367.896094 -104.503328 
L 367.896094 -105.087682 
L 367.896094 -105.672037 
L 367.896094 -106.256392 
L 367.896094 -106.840746 
L 367.896094 -107.425101 
L 367.896094 -108.009456 
L 367.896094 -108.593811 
L 367.896094 -109.178165 
L 367.896094 -109.76252 
L 367.896094 -110.346875 
L 367.896094 -110.931229 
L 367.896094 -111.515584 
L 367.896094 -112.099939 
L 367.896094 -112.684293 
L 367.896094 -113.268648 
L 367.896094 -113.853003 
L 367.896094 -114.437358 
L 367.896094 -115.021712 
L 581.001859 -115.021712 
L 581.001859 -115.021712 
L 580.711534 -114.437358 
L 580.463631 -113.853003 
L 580.445019 -113.268648 
L 580.317929 -112.684293 
L 579.820212 -112.099939 
L 579.253003 -111.515584 
L 578.960858 -110.931229 
L 578.681796 -110.346875 
L 569.768658 -109.76252 
L 569.39118 -109.178165 
L 569.24804 -108.593811 
L 569.118547 -108.009456 
L 568.8968 -107.425101 
L 568.275501 -106.840746 
L 568.057808 -106.256392 
L 567.62183 -105.672037 
L 566.474469 -105.087682 
L 565.464374 -104.503328 
L 564.757897 -103.918973 
L 563.004378 -103.334618 
L 562.940943 -102.750263 
L 562.840068 -102.165909 
L 562.500989 -101.581554 
L 562.135093 -100.997199 
L 561.290646 -100.412845 
L 561.121909 -99.82849 
L 560.562049 -99.244135 
L 560.311585 -98.659781 
L 558.851139 -98.075426 
L 557.844315 -97.491071 
L 556.005497 -96.906716 
L 553.626438 -96.322362 
L 551.277702 -95.738007 
L 548.329628 -95.153652 
L 547.366538 -94.569298 
L 545.763874 -93.984943 
L 544.776369 -93.400588 
L 544.366912 -92.816234 
L 542.379647 -92.231879 
L 540.975021 -91.647524 
L 540.729132 -91.063169 
L 538.024073 -90.478815 
L 534.965388 -89.89446 
L 534.136075 -89.310105 
L 531.893107 -88.725751 
L 531.477078 -88.141396 
L 526.141109 -87.557041 
L 524.017057 -86.972687 
L 522.560441 -86.388332 
L 521.570184 -85.803977 
L 518.258543 -85.219622 
L 517.673844 -84.635268 
L 515.939963 -84.050913 
L 515.878424 -83.466558 
L 513.157476 -82.882204 
L 501.823434 -82.297849 
L 496.415727 -81.713494 
L 495.748074 -81.129139 
L 494.925247 -80.544785 
L 494.869857 -79.96043 
L 494.75992 -79.376075 
L 492.507835 -78.791721 
L 492.123824 -78.207366 
L 491.151312 -77.623011 
L 489.585442 -77.038657 
L 486.332816 -76.454302 
L 485.264515 -75.869947 
L 483.934538 -75.285592 
L 477.40788 -74.701238 
L 466.659612 -74.116883 
L 448.662011 -73.532528 
L 448.661874 -72.948174 
L 445.517742 -72.363819 
L 432.339514 -71.779464 
L 423.900725 -71.19511 
z
" style="stroke: #000000; stroke-opacity: 0.7"/>
    </defs>
    <g clip-path="url(#peafe20e459)">
     <use xlink:href="#mf89020bb72" x="0" y="576" style="fill-opacity: 0.7; stroke: #000000; stroke-opacity: 0.7"/>
    </g>
   </g>
   <g id="PolyCollection_2">
    <defs>
     <path id="m82cf5967ae" d="M 305.587498 -121.449614 
L 367.896094 -121.449614 
L 367.896094 -122.033969 
L 367.896094 -122.618323 
L 367.896094 -123.202678 
L 367.896094 -123.787033 
L 367.896094 -124.371388 
L 367.896094 -124.955742 
L 367.896094 -125.540097 
L 367.896094 -126.124452 
L 367.896094 -126.708806 
L 367.896094 -127.293161 
L 367.896094 -127.877516 
L 367.896094 -128.46187 
L 367.896094 -129.046225 
L 367.896094 -129.63058 
L 367.896094 -130.214935 
L 367.896094 -130.799289 
L 367.896094 -131.383644 
L 367.896094 -131.967999 
L 367.896094 -132.552353 
L 367.896094 -133.136708 
L 367.896094 -133.721063 
L 367.896094 -134.305417 
L 367.896094 -134.889772 
L 367.896094 -135.474127 
L 367.896094 -136.058482 
L 367.896094 -136.642836 
L 367.896094 -137.227191 
L 367.896094 -137.811546 
L 367.896094 -138.3959 
L 367.896094 -138.980255 
L 367.896094 -139.56461 
L 367.896094 -140.148964 
L 367.896094 -140.733319 
L 367.896094 -141.317674 
L 367.896094 -141.902029 
L 367.896094 -142.486383 
L 367.896094 -143.070738 
L 367.896094 -143.655093 
L 367.896094 -144.239447 
L 367.896094 -144.823802 
L 367.896094 -145.408157 
L 367.896094 -145.992512 
L 367.896094 -146.576866 
L 367.896094 -147.161221 
L 367.896094 -147.745576 
L 367.896094 -148.32993 
L 367.896094 -148.914285 
L 367.896094 -149.49864 
L 367.896094 -150.082994 
L 367.896094 -150.667349 
L 367.896094 -151.251704 
L 367.896094 -151.836059 
L 367.896094 -152.420413 
L 367.896094 -153.004768 
L 367.896094 -153.589123 
L 367.896094 -154.173477 
L 367.896094 -154.757832 
L 367.896094 -155.342187 
L 367.896094 -155.926541 
L 367.896094 -156.510896 
L 367.896094 -157.095251 
L 367.896094 -157.679606 
L 367.896094 -158.26396 
L 367.896094 -158.848315 
L 367.896094 -159.43267 
L 367.896094 -160.017024 
L 367.896094 -160.601379 
L 367.896094 -161.185734 
L 367.896094 -161.770089 
L 367.896094 -162.354443 
L 367.896094 -162.938798 
L 367.896094 -163.523153 
L 367.896094 -164.107507 
L 367.896094 -164.691862 
L 367.896094 -165.276217 
L 367.896094 -165.860571 
L 367.896094 -166.444926 
L 367.896094 -167.029281 
L 367.896094 -167.613636 
L 367.896094 -168.19799 
L 367.896094 -168.782345 
L 367.896094 -169.3667 
L 367.896094 -169.951054 
L 367.896094 -170.535409 
L 367.896094 -171.119764 
L 367.896094 -171.704118 
L 367.896094 -172.288473 
L 367.896094 -172.872828 
L 367.896094 -173.457183 
L 367.896094 -174.041537 
L 367.896094 -174.625892 
L 367.896094 -175.210247 
L 367.896094 -175.794601 
L 367.896094 -176.378956 
L 367.896094 -176.963311 
L 367.896094 -177.547665 
L 367.896094 -178.13202 
L 367.896094 -178.716375 
L 367.896094 -179.30073 
L 367.896094 -179.885084 
L 367.896094 -180.469439 
L 367.896094 -181.053794 
L 556.109824 -181.053794 
L 556.109824 -181.053794 
L 556.052971 -180.469439 
L 555.992597 -179.885084 
L 555.595355 -179.30073 
L 555.144234 -178.716375 
L 554.339458 -178.13202 
L 553.336259 -177.547665 
L 551.255731 -176.963311 
L 551.171208 -176.378956 
L 549.682572 -175.794601 
L 549.235449 -175.210247 
L 549.212952 -174.625892 
L 548.177804 -174.041537 
L 546.976806 -173.457183 
L 544.929335 -172.872828 
L 543.678518 -172.288473 
L 543.260792 -171.704118 
L 542.456966 -171.119764 
L 541.643797 -170.535409 
L 540.82851 -169.951054 
L 540.477809 -169.3667 
L 540.391983 -168.782345 
L 539.856445 -168.19799 
L 539.798591 -167.613636 
L 539.591958 -167.029281 
L 539.062541 -166.444926 
L 538.774388 -165.860571 
L 536.825103 -165.276217 
L 536.04043 -164.691862 
L 534.677122 -164.107507 
L 532.854204 -163.523153 
L 530.585436 -162.938798 
L 530.323448 -162.354443 
L 529.785217 -161.770089 
L 528.910569 -161.185734 
L 528.796483 -160.601379 
L 527.837349 -160.017024 
L 526.822951 -159.43267 
L 525.325251 -158.848315 
L 525.076685 -158.26396 
L 524.69184 -157.679606 
L 523.683949 -157.095251 
L 523.183995 -156.510896 
L 520.644082 -155.926541 
L 519.206333 -155.342187 
L 516.143818 -154.757832 
L 515.603679 -154.173477 
L 513.99301 -153.589123 
L 513.530455 -153.004768 
L 512.717641 -152.420413 
L 512.417462 -151.836059 
L 512.373241 -151.251704 
L 511.99852 -150.667349 
L 511.878488 -150.082994 
L 505.857518 -149.49864 
L 505.373738 -148.914285 
L 501.823666 -148.32993 
L 501.019928 -147.745576 
L 499.266726 -147.161221 
L 495.863799 -146.576866 
L 492.521465 -145.992512 
L 488.410655 -145.408157 
L 487.509273 -144.823802 
L 487.075431 -144.239447 
L 481.366295 -143.655093 
L 481.127618 -143.070738 
L 476.314516 -142.486383 
L 473.799499 -141.902029 
L 473.443206 -141.317674 
L 470.88577 -140.733319 
L 466.887762 -140.148964 
L 462.830033 -139.56461 
L 461.759208 -138.980255 
L 461.734978 -138.3959 
L 460.933328 -137.811546 
L 458.900302 -137.227191 
L 456.358131 -136.642836 
L 455.018021 -136.058482 
L 453.04194 -135.474127 
L 445.979885 -134.889772 
L 444.753249 -134.305417 
L 441.794371 -133.721063 
L 440.016705 -133.136708 
L 436.370765 -132.552353 
L 435.933898 -131.967999 
L 435.176489 -131.383644 
L 434.828244 -130.799289 
L 433.988092 -130.214935 
L 426.994164 -129.63058 
L 420.816118 -129.046225 
L 417.957108 -128.46187 
L 417.350635 -127.877516 
L 414.063259 -127.293161 
L 407.964851 -126.708806 
L 407.588805 -126.124452 
L 406.509726 -125.540097 
L 403.100222 -124.955742 
L 401.032719 -124.371388 
L 373.22962 -123.787033 
L 359.654214 -123.202678 
L 355.247146 -122.618323 
L 336.854539 -122.033969 
L 305.587498 -121.449614 
z
" style="stroke: #7d008e; stroke-opacity: 0.7"/>
    </defs>
    <g clip-path="url(#peafe20e459)">
     <use xlink:href="#m82cf5967ae" x="0" y="576" style="fill: #7d008e; fill-opacity: 0.7; stroke: #7d008e; stroke-opacity: 0.7"/>
    </g>
   </g>
   <g id="PolyCollection_3">
    <defs>
     <path id="m71b65fb9c9" d="M 375.358188 -187.481695 
L 367.896094 -187.481695 
L 367.896094 -188.06605 
L 367.896094 -188.650405 
L 367.896094 -189.23476 
L 367.896094 -189.819114 
L 367.896094 -190.403469 
L 367.896094 -190.987824 
L 367.896094 -191.572178 
L 367.896094 -192.156533 
L 367.896094 -192.740888 
L 367.896094 -193.325242 
L 367.896094 -193.909597 
L 367.896094 -194.493952 
L 367.896094 -195.078307 
L 367.896094 -195.662661 
L 367.896094 -196.247016 
L 367.896094 -196.831371 
L 367.896094 -197.415725 
L 367.896094 -198.00008 
L 367.896094 -198.584435 
L 367.896094 -199.16879 
L 367.896094 -199.753144 
L 367.896094 -200.337499 
L 367.896094 -200.921854 
L 367.896094 -201.506208 
L 367.896094 -202.090563 
L 367.896094 -202.674918 
L 367.896094 -203.259272 
L 367.896094 -203.843627 
L 367.896094 -204.427982 
L 367.896094 -205.012337 
L 367.896094 -205.596691 
L 367.896094 -206.181046 
L 367.896094 -206.765401 
L 367.896094 -207.349755 
L 367.896094 -207.93411 
L 367.896094 -208.518465 
L 367.896094 -209.102819 
L 367.896094 -209.687174 
L 367.896094 -210.271529 
L 367.896094 -210.855884 
L 367.896094 -211.440238 
L 367.896094 -212.024593 
L 367.896094 -212.608948 
L 367.896094 -213.193302 
L 367.896094 -213.777657 
L 367.896094 -214.362012 
L 367.896094 -214.946366 
L 367.896094 -215.530721 
L 367.896094 -216.115076 
L 367.896094 -216.699431 
L 367.896094 -217.283785 
L 367.896094 -217.86814 
L 367.896094 -218.452495 
L 367.896094 -219.036849 
L 367.896094 -219.621204 
L 367.896094 -220.205559 
L 367.896094 -220.789914 
L 367.896094 -221.374268 
L 367.896094 -221.958623 
L 367.896094 -222.542978 
L 367.896094 -223.127332 
L 367.896094 -223.711687 
L 367.896094 -224.296042 
L 367.896094 -224.880396 
L 367.896094 -225.464751 
L 367.896094 -226.049106 
L 367.896094 -226.633461 
L 367.896094 -227.217815 
L 367.896094 -227.80217 
L 367.896094 -228.386525 
L 367.896094 -228.970879 
L 367.896094 -229.555234 
L 367.896094 -230.139589 
L 367.896094 -230.723943 
L 367.896094 -231.308298 
L 367.896094 -231.892653 
L 367.896094 -232.477008 
L 367.896094 -233.061362 
L 367.896094 -233.645717 
L 367.896094 -234.230072 
L 367.896094 -234.814426 
L 367.896094 -235.398781 
L 367.896094 -235.983136 
L 367.896094 -236.567491 
L 367.896094 -237.151845 
L 367.896094 -237.7362 
L 564.089981 -237.7362 
L 564.089981 -237.7362 
L 563.244422 -237.151845 
L 562.587263 -236.567491 
L 561.49257 -235.983136 
L 561.204169 -235.398781 
L 561.085216 -234.814426 
L 560.398438 -234.230072 
L 560.375185 -233.645717 
L 559.951069 -233.061362 
L 559.346942 -232.477008 
L 559.230066 -231.892653 
L 559.078011 -231.308298 
L 558.67854 -230.723943 
L 558.482359 -230.139589 
L 558.395511 -229.555234 
L 558.295881 -228.970879 
L 557.892446 -228.386525 
L 557.638933 -227.80217 
L 557.507884 -227.217815 
L 556.948952 -226.633461 
L 556.331083 -226.049106 
L 556.207801 -225.464751 
L 555.759892 -224.880396 
L 554.714646 -224.296042 
L 553.957946 -223.711687 
L 553.924156 -223.127332 
L 553.84117 -222.542978 
L 553.084108 -221.958623 
L 552.391271 -221.374268 
L 551.008682 -220.789914 
L 550.760895 -220.205559 
L 549.735155 -219.621204 
L 548.461474 -219.036849 
L 548.206729 -218.452495 
L 547.169122 -217.86814 
L 547.119411 -217.283785 
L 547.096979 -216.699431 
L 546.967467 -216.115076 
L 545.240016 -215.530721 
L 543.934666 -214.946366 
L 543.546267 -214.362012 
L 543.234002 -213.777657 
L 542.955056 -213.193302 
L 542.652903 -212.608948 
L 542.161398 -212.024593 
L 542.022109 -211.440238 
L 540.784931 -210.855884 
L 539.952475 -210.271529 
L 539.724741 -209.687174 
L 539.641891 -209.102819 
L 539.579323 -208.518465 
L 538.737244 -207.93411 
L 538.248729 -207.349755 
L 535.697652 -206.765401 
L 535.571259 -206.181046 
L 535.292508 -205.596691 
L 535.290629 -205.012337 
L 534.414888 -204.427982 
L 533.21359 -203.843627 
L 532.132656 -203.259272 
L 530.95513 -202.674918 
L 529.386958 -202.090563 
L 528.729759 -201.506208 
L 525.499137 -200.921854 
L 525.486499 -200.337499 
L 524.871664 -199.753144 
L 523.867416 -199.16879 
L 523.645348 -198.584435 
L 522.147329 -198.00008 
L 517.359603 -197.415725 
L 517.028205 -196.831371 
L 514.784148 -196.247016 
L 513.901258 -195.662661 
L 513.767857 -195.078307 
L 512.707016 -194.493952 
L 511.730237 -193.909597 
L 511.109898 -193.325242 
L 507.994694 -192.740888 
L 502.947298 -192.156533 
L 492.7544 -191.572178 
L 492.555885 -190.987824 
L 490.521327 -190.403469 
L 480.763177 -189.819114 
L 467.472567 -189.23476 
L 457.878107 -188.650405 
L 441.034553 -188.06605 
L 375.358188 -187.481695 
z
" style="stroke: #2d00a4; stroke-opacity: 0.7"/>
    </defs>
    <g clip-path="url(#peafe20e459)">
     <use xlink:href="#m71b65fb9c9" x="0" y="576" style="fill: #2d00a4; fill-opacity: 0.7; stroke: #2d00a4; stroke-opacity: 0.7"/>
    </g>
   </g>
   <g id="PolyCollection_4">
    <defs>
     <path id="ma4f700e893" d="M 465.05404 -244.164102 
L 367.896094 -244.164102 
L 367.896094 -244.748456 
L 367.896094 -245.332811 
L 367.896094 -245.917166 
L 367.896094 -246.50152 
L 367.896094 -247.085875 
L 367.896094 -247.67023 
L 367.896094 -248.254585 
L 367.896094 -248.838939 
L 367.896094 -249.423294 
L 367.896094 -250.007649 
L 367.896094 -250.592003 
L 367.896094 -251.176358 
L 367.896094 -251.760713 
L 534.873958 -251.760713 
L 534.873958 -251.760713 
L 534.772497 -251.176358 
L 533.351538 -250.592003 
L 532.717968 -250.007649 
L 528.506096 -249.423294 
L 525.943934 -248.838939 
L 525.669612 -248.254585 
L 523.20642 -247.67023 
L 514.937539 -247.085875 
L 503.295018 -246.50152 
L 466.243776 -245.917166 
L 465.996392 -245.332811 
L 465.730208 -244.748456 
L 465.05404 -244.164102 
z
" style="stroke: #0000dd; stroke-opacity: 0.7"/>
    </defs>
    <g clip-path="url(#peafe20e459)">
     <use xlink:href="#ma4f700e893" x="0" y="576" style="fill: #0000dd; fill-opacity: 0.7; stroke: #0000dd; stroke-opacity: 0.7"/>
    </g>
   </g>
   <g id="PolyCollection_5">
    <defs>
     <path id="m008ca4064e" d="M 381.747369 -258.188615 
L 367.896094 -258.188615 
L 367.896094 -258.772969 
L 367.896094 -259.357324 
L 367.896094 -259.941679 
L 367.896094 -260.526033 
L 367.896094 -261.110388 
L 367.896094 -261.694743 
L 367.896094 -262.279097 
L 367.896094 -262.863452 
L 367.896094 -263.447807 
L 367.896094 -264.032162 
L 367.896094 -264.616516 
L 367.896094 -265.200871 
L 367.896094 -265.785226 
L 367.896094 -266.36958 
L 367.896094 -266.953935 
L 367.896094 -267.53829 
L 367.896094 -268.122644 
L 367.896094 -268.706999 
L 367.896094 -269.291354 
L 367.896094 -269.875709 
L 483.327598 -269.875709 
L 483.327598 -269.875709 
L 481.200832 -269.291354 
L 479.601192 -268.706999 
L 477.426712 -268.122644 
L 475.991787 -267.53829 
L 473.374665 -266.953935 
L 469.069093 -266.36958 
L 466.927719 -265.785226 
L 464.164738 -265.200871 
L 456.364116 -264.616516 
L 455.584053 -264.032162 
L 452.568405 -263.447807 
L 442.79769 -262.863452 
L 436.550657 -262.279097 
L 436.069771 -261.694743 
L 434.946461 -261.110388 
L 432.142059 -260.526033 
L 421.479839 -259.941679 
L 420.752764 -259.357324 
L 418.266581 -258.772969 
L 381.747369 -258.188615 
z
" style="stroke: #0082dd; stroke-opacity: 0.7"/>
    </defs>
    <g clip-path="url(#peafe20e459)">
     <use xlink:href="#m008ca4064e" x="0" y="576" style="fill: #0082dd; fill-opacity: 0.7; stroke: #0082dd; stroke-opacity: 0.7"/>
    </g>
   </g>
   <g id="PolyCollection_6">
    <defs>
     <path id="m08e05d9356" d="M 431.143753 -276.30361 
L 367.896094 -276.30361 
L 367.896094 -276.887965 
L 367.896094 -277.47232 
L 367.896094 -278.056674 
L 367.896094 -278.641029 
L 367.896094 -279.225384 
L 367.896094 -279.809739 
L 367.896094 -280.394093 
L 367.896094 -280.978448 
L 569.443944 -280.978448 
L 569.443944 -280.978448 
L 569.297513 -280.394093 
L 568.265319 -279.809739 
L 558.870306 -279.225384 
L 529.933747 -278.641029 
L 514.489327 -278.056674 
L 509.871471 -277.47232 
L 507.853461 -276.887965 
L 431.143753 -276.30361 
z
" style="stroke: #00a4bb; stroke-opacity: 0.7"/>
    </defs>
    <g clip-path="url(#peafe20e459)">
     <use xlink:href="#m08e05d9356" x="0" y="576" style="fill: #00a4bb; fill-opacity: 0.7; stroke: #00a4bb; stroke-opacity: 0.7"/>
    </g>
   </g>
   <g id="PolyCollection_7">
    <defs>
     <path id="m28bf73837e" d="M 392.401151 -287.40635 
L 367.896094 -287.40635 
L 367.896094 -287.990704 
L 367.896094 -288.575059 
L 367.896094 -289.159414 
L 367.896094 -289.743768 
L 367.896094 -290.328123 
L 367.896094 -290.912478 
L 367.896094 -291.496833 
L 367.896094 -292.081187 
L 367.896094 -292.665542 
L 367.896094 -293.249897 
L 367.896094 -293.834251 
L 367.896094 -294.418606 
L 367.896094 -295.002961 
L 367.896094 -295.587316 
L 367.896094 -296.17167 
L 367.896094 -296.756025 
L 367.896094 -297.34038 
L 367.896094 -297.924734 
L 367.896094 -298.509089 
L 367.896094 -299.093444 
L 367.896094 -299.677798 
L 367.896094 -300.262153 
L 367.896094 -300.846508 
L 367.896094 -301.430863 
L 367.896094 -302.015217 
L 367.896094 -302.599572 
L 367.896094 -303.183927 
L 367.896094 -303.768281 
L 367.896094 -304.352636 
L 367.896094 -304.936991 
L 367.896094 -305.521345 
L 367.896094 -306.1057 
L 367.896094 -306.690055 
L 367.896094 -307.27441 
L 367.896094 -307.858764 
L 367.896094 -308.443119 
L 367.896094 -309.027474 
L 367.896094 -309.611828 
L 367.896094 -310.196183 
L 367.896094 -310.780538 
L 367.896094 -311.364893 
L 367.896094 -311.949247 
L 367.896094 -312.533602 
L 367.896094 -313.117957 
L 367.896094 -313.702311 
L 367.896094 -314.286666 
L 367.896094 -314.871021 
L 367.896094 -315.455375 
L 367.896094 -316.03973 
L 367.896094 -316.624085 
L 367.896094 -317.20844 
L 367.896094 -317.792794 
L 367.896094 -318.377149 
L 367.896094 -318.961504 
L 367.896094 -319.545858 
L 367.896094 -320.130213 
L 367.896094 -320.714568 
L 367.896094 -321.298922 
L 367.896094 -321.883277 
L 367.896094 -322.467632 
L 367.896094 -323.051987 
L 367.896094 -323.636341 
L 367.896094 -324.220696 
L 367.896094 -324.805051 
L 367.896094 -325.389405 
L 367.896094 -325.97376 
L 367.896094 -326.558115 
L 553.421978 -326.558115 
L 553.421978 -326.558115 
L 552.155395 -325.97376 
L 551.482498 -325.389405 
L 551.302395 -324.805051 
L 550.871689 -324.220696 
L 549.699625 -323.636341 
L 549.652697 -323.051987 
L 548.922211 -322.467632 
L 548.731552 -321.883277 
L 548.618399 -321.298922 
L 548.493466 -320.714568 
L 548.388933 -320.130213 
L 548.383826 -319.545858 
L 548.336944 -318.961504 
L 547.996936 -318.377149 
L 547.969328 -317.792794 
L 546.909846 -317.20844 
L 545.150131 -316.624085 
L 541.010843 -316.03973 
L 536.887159 -315.455375 
L 536.872489 -314.871021 
L 536.284794 -314.286666 
L 535.642733 -313.702311 
L 535.126187 -313.117957 
L 534.570188 -312.533602 
L 534.569759 -311.949247 
L 534.248555 -311.364893 
L 533.323167 -310.780538 
L 529.744154 -310.196183 
L 528.398202 -309.611828 
L 527.552835 -309.027474 
L 525.177148 -308.443119 
L 524.486967 -307.858764 
L 523.025485 -307.27441 
L 522.79198 -306.690055 
L 522.778064 -306.1057 
L 521.989539 -305.521345 
L 521.672439 -304.936991 
L 520.316613 -304.352636 
L 515.928325 -303.768281 
L 515.46352 -303.183927 
L 508.005769 -302.599572 
L 506.884879 -302.015217 
L 506.764988 -301.430863 
L 505.583672 -300.846508 
L 501.232925 -300.262153 
L 499.077892 -299.677798 
L 498.393186 -299.093444 
L 494.470234 -298.509089 
L 493.486805 -297.924734 
L 490.49563 -297.34038 
L 485.262185 -296.756025 
L 482.309518 -296.17167 
L 481.944019 -295.587316 
L 480.138289 -295.002961 
L 476.6597 -294.418606 
L 476.004942 -293.834251 
L 474.819847 -293.249897 
L 473.15437 -292.665542 
L 470.963877 -292.081187 
L 470.521614 -291.496833 
L 470.376241 -290.912478 
L 464.401468 -290.328123 
L 431.308933 -289.743768 
L 428.082669 -289.159414 
L 411.70606 -288.575059 
L 402.982072 -287.990704 
L 392.401151 -287.40635 
z
" style="stroke: #00aa88; stroke-opacity: 0.7"/>
    </defs>
    <g clip-path="url(#peafe20e459)">
     <use xlink:href="#m28bf73837e" x="0" y="576" style="fill: #00aa88; fill-opacity: 0.7; stroke: #00aa88; stroke-opacity: 0.7"/>
    </g>
   </g>
   <g id="PolyCollection_8">
    <defs>
     <path id="mc886877f80" d="M 576.535123 -332.986017 
L 367.896094 -332.986017 
L 367.896094 -333.570371 
L 367.896094 -334.154726 
L 367.896094 -334.739081 
L 367.896094 -335.323435 
L 367.896094 -335.90779 
L 367.896094 -336.492145 
L 367.896094 -337.076499 
L 627.94521 -337.076499 
L 627.94521 -337.076499 
L 625.845734 -336.492145 
L 615.21452 -335.90779 
L 612.445786 -335.323435 
L 608.846375 -334.739081 
L 592.360849 -334.154726 
L 588.680953 -333.570371 
L 576.535123 -332.986017 
z
" style="stroke: #00a400; stroke-opacity: 0.7"/>
    </defs>
    <g clip-path="url(#peafe20e459)">
     <use xlink:href="#mc886877f80" x="0" y="576" style="fill: #00a400; fill-opacity: 0.7; stroke: #00a400; stroke-opacity: 0.7"/>
    </g>
   </g>
   <g id="PolyCollection_9">
    <defs>
     <path id="ma17d43f756" d="M 369.035298 -343.504401 
L 367.896094 -343.504401 
L 367.896094 -344.088756 
L 367.896094 -344.673111 
L 367.896094 -345.257465 
L 367.896094 -345.84182 
L 367.896094 -346.426175 
L 367.896094 -347.010529 
L 367.896094 -347.594884 
L 367.896094 -348.179239 
L 367.896094 -348.763594 
L 367.896094 -349.347948 
L 367.896094 -349.932303 
L 367.896094 -350.516658 
L 367.896094 -351.101012 
L 367.896094 -351.685367 
L 367.896094 -352.269722 
L 367.896094 -352.854076 
L 367.896094 -353.438431 
L 367.896094 -354.022786 
L 367.896094 -354.607141 
L 524.418985 -354.607141 
L 524.418985 -354.607141 
L 517.936744 -354.022786 
L 512.516744 -353.438431 
L 510.709852 -352.854076 
L 508.900024 -352.269722 
L 504.734414 -351.685367 
L 503.41568 -351.101012 
L 500.362742 -350.516658 
L 497.977218 -349.932303 
L 490.660709 -349.347948 
L 483.342894 -348.763594 
L 481.854878 -348.179239 
L 476.313396 -347.594884 
L 474.140487 -347.010529 
L 473.936558 -346.426175 
L 472.050716 -345.84182 
L 471.946694 -345.257465 
L 471.440841 -344.673111 
L 471.147762 -344.088756 
L 369.035298 -343.504401 
z
" style="stroke: #00d200; stroke-opacity: 0.7"/>
    </defs>
    <g clip-path="url(#peafe20e459)">
     <use xlink:href="#ma17d43f756" x="0" y="576" style="fill: #00d200; fill-opacity: 0.7; stroke: #00d200; stroke-opacity: 0.7"/>
    </g>
   </g>
   <g id="PolyCollection_10">
    <defs>
     <path id="maf79fddee7" d="M 521.135528 -361.035042 
L 367.896094 -361.035042 
L 367.896094 -361.619397 
L 367.896094 -362.203752 
L 367.896094 -362.788106 
L 367.896094 -363.372461 
L 367.896094 -363.956816 
L 367.896094 -364.54117 
L 367.896094 -365.125525 
L 367.896094 -365.70988 
L 367.896094 -366.294235 
L 367.896094 -366.878589 
L 367.896094 -367.462944 
L 367.896094 -368.047299 
L 367.896094 -368.631653 
L 367.896094 -369.216008 
L 367.896094 -369.800363 
L 367.896094 -370.384718 
L 367.896094 -370.969072 
L 367.896094 -371.553427 
L 367.896094 -372.137782 
L 367.896094 -372.722136 
L 367.896094 -373.306491 
L 367.896094 -373.890846 
L 367.896094 -374.4752 
L 367.896094 -375.059555 
L 367.896094 -375.64391 
L 367.896094 -376.228265 
L 367.896094 -376.812619 
L 367.896094 -377.396974 
L 367.896094 -377.981329 
L 367.896094 -378.565683 
L 367.896094 -379.150038 
L 367.896094 -379.734393 
L 367.896094 -380.318747 
L 367.896094 -380.903102 
L 367.896094 -381.487457 
L 367.896094 -382.071812 
L 367.896094 -382.656166 
L 367.896094 -383.240521 
L 367.896094 -383.824876 
L 367.896094 -384.40923 
L 367.896094 -384.993585 
L 367.896094 -385.57794 
L 367.896094 -386.162295 
L 633.932211 -386.162295 
L 633.932211 -386.162295 
L 633.38055 -385.57794 
L 633.220142 -384.993585 
L 633.026942 -384.40923 
L 632.941182 -383.824876 
L 632.710524 -383.240521 
L 632.569466 -382.656166 
L 631.867228 -382.071812 
L 631.532271 -381.487457 
L 631.193937 -380.903102 
L 630.695095 -380.318747 
L 629.174657 -379.734393 
L 627.599654 -379.150038 
L 627.341706 -378.565683 
L 627.311777 -377.981329 
L 626.754615 -377.396974 
L 626.715555 -376.812619 
L 626.380629 -376.228265 
L 626.229176 -375.64391 
L 625.834431 -375.059555 
L 612.719797 -374.4752 
L 612.615475 -373.890846 
L 612.359999 -373.306491 
L 610.699369 -372.722136 
L 610.114563 -372.137782 
L 603.920163 -371.553427 
L 603.19262 -370.969072 
L 602.938457 -370.384718 
L 602.714109 -369.800363 
L 602.709483 -369.216008 
L 602.582131 -368.631653 
L 602.403972 -368.047299 
L 599.242075 -367.462944 
L 598.010626 -366.878589 
L 591.741401 -366.294235 
L 591.638157 -365.70988 
L 577.541574 -365.125525 
L 565.78259 -364.54117 
L 562.711941 -363.956816 
L 555.418672 -363.372461 
L 551.276316 -362.788106 
L 544.780786 -362.203752 
L 534.423133 -361.619397 
L 521.135528 -361.035042 
z
" style="stroke: #00ff00; stroke-opacity: 0.7"/>
    </defs>
    <g clip-path="url(#peafe20e459)">
     <use xlink:href="#maf79fddee7" x="0" y="576" style="fill: #00ff00; fill-opacity: 0.7; stroke: #00ff00; stroke-opacity: 0.7"/>
    </g>
   </g>
   <g id="PolyCollection_11">
    <defs>
     <path id="ma0a2811f5f" d="M 423.477045 -392.590196 
L 367.896094 -392.590196 
L 367.896094 -393.174551 
L 367.896094 -393.758906 
L 367.896094 -394.34326 
L 367.896094 -394.927615 
L 367.896094 -395.51197 
L 367.896094 -396.096324 
L 491.915868 -396.096324 
L 491.915868 -396.096324 
L 483.552017 -395.51197 
L 482.486723 -394.927615 
L 480.436389 -394.34326 
L 472.161353 -393.758906 
L 443.710565 -393.174551 
L 423.477045 -392.590196 
z
" style="stroke: #ccf900; stroke-opacity: 0.7"/>
    </defs>
    <g clip-path="url(#peafe20e459)">
     <use xlink:href="#ma0a2811f5f" x="0" y="576" style="fill: #ccf900; fill-opacity: 0.7; stroke: #ccf900; stroke-opacity: 0.7"/>
    </g>
   </g>
   <g id="PolyCollection_12">
    <defs>
     <path id="m8f36c1d788" d="M 496.795646 -402.524226 
L 367.896094 -402.524226 
L 367.896094 -403.108581 
L 367.896094 -403.692936 
L 367.896094 -404.27729 
L 367.896094 -404.861645 
L 367.896094 -405.446 
L 367.896094 -406.030354 
L 367.896094 -406.614709 
L 367.896094 -407.199064 
L 367.896094 -407.783419 
L 367.896094 -408.367773 
L 367.896094 -408.952128 
L 367.896094 -409.536483 
L 367.896094 -410.120837 
L 367.896094 -410.705192 
L 367.896094 -411.289547 
L 367.896094 -411.873901 
L 367.896094 -412.458256 
L 367.896094 -413.042611 
L 367.896094 -413.626966 
L 367.896094 -414.21132 
L 367.896094 -414.795675 
L 367.896094 -415.38003 
L 367.896094 -415.964384 
L 367.896094 -416.548739 
L 367.896094 -417.133094 
L 367.896094 -417.717448 
L 367.896094 -418.301803 
L 367.896094 -418.886158 
L 367.896094 -419.470513 
L 367.896094 -420.054867 
L 367.896094 -420.639222 
L 367.896094 -421.223577 
L 367.896094 -421.807931 
L 367.896094 -422.392286 
L 367.896094 -422.976641 
L 367.896094 -423.560996 
L 367.896094 -424.14535 
L 367.896094 -424.729705 
L 367.896094 -425.31406 
L 367.896094 -425.898414 
L 367.896094 -426.482769 
L 367.896094 -427.067124 
L 367.896094 -427.651478 
L 367.896094 -428.235833 
L 367.896094 -428.820188 
L 367.896094 -429.404543 
L 367.896094 -429.988897 
L 367.896094 -430.573252 
L 367.896094 -431.157607 
L 367.896094 -431.741961 
L 367.896094 -432.326316 
L 367.896094 -432.910671 
L 367.896094 -433.495025 
L 367.896094 -434.07938 
L 367.896094 -434.663735 
L 367.896094 -435.24809 
L 367.896094 -435.832444 
L 367.896094 -436.416799 
L 367.896094 -437.001154 
L 367.896094 -437.585508 
L 367.896094 -438.169863 
L 367.896094 -438.754218 
L 367.896094 -439.338572 
L 367.896094 -439.922927 
L 367.896094 -440.507282 
L 367.896094 -441.091637 
L 367.896094 -441.675991 
L 367.896094 -442.260346 
L 367.896094 -442.844701 
L 367.896094 -443.429055 
L 367.896094 -444.01341 
L 367.896094 -444.597765 
L 367.896094 -445.18212 
L 367.896094 -445.766474 
L 367.896094 -446.350829 
L 367.896094 -446.935184 
L 367.896094 -447.519538 
L 367.896094 -448.103893 
L 367.896094 -448.688248 
L 367.896094 -449.272602 
L 367.896094 -449.856957 
L 367.896094 -450.441312 
L 367.896094 -451.025667 
L 367.896094 -451.610021 
L 367.896094 -452.194376 
L 367.896094 -452.778731 
L 367.896094 -453.363085 
L 367.896094 -453.94744 
L 367.896094 -454.531795 
L 367.896094 -455.116149 
L 367.896094 -455.700504 
L 367.896094 -456.284859 
L 367.896094 -456.869214 
L 367.896094 -457.453568 
L 367.896094 -458.037923 
L 367.896094 -458.622278 
L 367.896094 -459.206632 
L 367.896094 -459.790987 
L 367.896094 -460.375342 
L 367.896094 -460.959696 
L 367.896094 -461.544051 
L 367.896094 -462.128406 
L 367.896094 -462.712761 
L 367.896094 -463.297115 
L 367.896094 -463.88147 
L 367.896094 -464.465825 
L 367.896094 -465.050179 
L 367.896094 -465.634534 
L 367.896094 -466.218889 
L 367.896094 -466.803244 
L 367.896094 -467.387598 
L 367.896094 -467.971953 
L 367.896094 -468.556308 
L 367.896094 -469.140662 
L 367.896094 -469.725017 
L 367.896094 -470.309372 
L 367.896094 -470.893726 
L 367.896094 -471.478081 
L 367.896094 -472.062436 
L 367.896094 -472.646791 
L 367.896094 -473.231145 
L 367.896094 -473.8155 
L 367.896094 -474.399855 
L 367.896094 -474.984209 
L 367.896094 -475.568564 
L 367.896094 -476.152919 
L 367.896094 -476.737273 
L 367.896094 -477.321628 
L 367.896094 -477.905983 
L 367.896094 -478.490338 
L 367.896094 -479.074692 
L 367.896094 -479.659047 
L 367.896094 -480.243402 
L 367.896094 -480.827756 
L 367.896094 -481.412111 
L 367.896094 -481.996466 
L 367.896094 -482.580821 
L 367.896094 -483.165175 
L 367.896094 -483.74953 
L 367.896094 -484.333885 
L 367.896094 -484.918239 
L 367.896094 -485.502594 
L 367.896094 -486.086949 
L 367.896094 -486.671303 
L 367.896094 -487.255658 
L 367.896094 -487.840013 
L 367.896094 -488.424368 
L 367.896094 -489.008722 
L 367.896094 -489.593077 
L 367.896094 -490.177432 
L 367.896094 -490.761786 
L 367.896094 -491.346141 
L 367.896094 -491.930496 
L 367.896094 -492.51485 
L 367.896094 -493.099205 
L 367.896094 -493.68356 
L 367.896094 -494.267915 
L 367.896094 -494.852269 
L 367.896094 -495.436624 
L 367.896094 -496.020979 
L 367.896094 -496.605333 
L 367.896094 -497.189688 
L 367.896094 -497.774043 
L 367.896094 -498.358397 
L 367.896094 -498.942752 
L 367.896094 -499.527107 
L 367.896094 -500.111462 
L 367.896094 -500.695816 
L 367.896094 -501.280171 
L 367.896094 -501.864526 
L 367.896094 -502.44888 
L 367.896094 -503.033235 
L 367.896094 -503.61759 
L 367.896094 -504.201945 
L 367.896094 -504.786299 
L 367.896094 -505.370654 
L 367.896094 -505.955009 
L 367.896094 -506.539363 
L 367.896094 -507.123718 
L 367.896094 -507.708073 
L 367.896094 -508.292427 
L 367.896094 -508.876782 
L 367.896094 -509.461137 
L 367.896094 -510.045492 
L 367.896094 -510.629846 
L 367.896094 -511.214201 
L 367.896094 -511.798556 
L 367.896094 -512.38291 
L 367.896094 -512.967265 
L 367.896094 -513.55162 
L 367.896094 -514.135974 
L 367.896094 -514.720329 
L 367.896094 -515.304684 
L 367.896094 -515.889039 
L 367.896094 -516.473393 
L 367.896094 -517.057748 
L 367.896094 -517.642103 
L 367.896094 -518.226457 
L 367.896094 -518.810812 
L 367.896094 -519.395167 
L 601.599454 -519.395167 
L 601.599454 -519.395167 
L 600.632282 -518.810812 
L 600.017908 -518.226457 
L 599.265073 -517.642103 
L 598.986528 -517.057748 
L 598.421745 -516.473393 
L 597.717886 -515.889039 
L 597.211626 -515.304684 
L 596.689231 -514.720329 
L 596.627541 -514.135974 
L 596.296252 -513.55162 
L 596.285431 -512.967265 
L 594.928985 -512.38291 
L 594.876625 -511.798556 
L 594.825332 -511.214201 
L 593.414412 -510.629846 
L 592.948499 -510.045492 
L 592.933398 -509.461137 
L 592.737097 -508.876782 
L 592.050088 -508.292427 
L 591.963913 -507.708073 
L 591.935516 -507.123718 
L 591.473674 -506.539363 
L 591.148817 -505.955009 
L 591.120522 -505.370654 
L 591.07149 -504.786299 
L 590.887295 -504.201945 
L 590.225379 -503.61759 
L 590.213787 -503.033235 
L 589.854043 -502.44888 
L 589.603923 -501.864526 
L 589.594759 -501.280171 
L 589.585201 -500.695816 
L 589.530301 -500.111462 
L 589.385933 -499.527107 
L 589.113182 -498.942752 
L 589.074548 -498.358397 
L 588.664413 -497.774043 
L 588.397817 -497.189688 
L 588.377142 -496.605333 
L 588.020163 -496.020979 
L 587.993242 -495.436624 
L 587.842567 -494.852269 
L 587.704382 -494.267915 
L 586.647214 -493.68356 
L 586.645744 -493.099205 
L 586.571862 -492.51485 
L 586.535689 -491.930496 
L 586.388102 -491.346141 
L 586.233869 -490.761786 
L 586.169275 -490.177432 
L 586.08995 -489.593077 
L 585.825909 -489.008722 
L 585.655006 -488.424368 
L 585.08147 -487.840013 
L 584.986667 -487.255658 
L 584.984603 -486.671303 
L 584.614261 -486.086949 
L 584.491754 -485.502594 
L 584.479102 -484.918239 
L 584.42455 -484.333885 
L 584.092659 -483.74953 
L 584.034634 -483.165175 
L 583.721798 -482.580821 
L 583.483628 -481.996466 
L 582.531163 -481.412111 
L 581.904764 -480.827756 
L 581.714562 -480.243402 
L 581.683793 -479.659047 
L 581.673204 -479.074692 
L 581.650513 -478.490338 
L 581.542783 -477.905983 
L 581.508888 -477.321628 
L 581.22254 -476.737273 
L 581.152035 -476.152919 
L 580.122063 -475.568564 
L 579.654579 -474.984209 
L 579.199206 -474.399855 
L 579.028262 -473.8155 
L 578.367036 -473.231145 
L 578.34468 -472.646791 
L 578.127119 -472.062436 
L 578.094531 -471.478081 
L 578.000439 -470.893726 
L 577.829704 -470.309372 
L 577.646229 -469.725017 
L 577.37934 -469.140662 
L 577.244396 -468.556308 
L 577.145026 -467.971953 
L 577.050885 -467.387598 
L 576.980826 -466.803244 
L 576.858038 -466.218889 
L 576.264468 -465.634534 
L 576.247799 -465.050179 
L 576.233733 -464.465825 
L 576.114641 -463.88147 
L 575.714232 -463.297115 
L 575.57805 -462.712761 
L 575.476929 -462.128406 
L 575.132388 -461.544051 
L 574.571323 -460.959696 
L 574.317005 -460.375342 
L 574.07672 -459.790987 
L 573.752383 -459.206632 
L 573.686727 -458.622278 
L 573.565509 -458.037923 
L 573.295591 -457.453568 
L 573.214761 -456.869214 
L 572.676086 -456.284859 
L 572.476146 -455.700504 
L 572.396738 -455.116149 
L 572.381734 -454.531795 
L 572.330801 -453.94744 
L 571.962047 -453.363085 
L 571.961037 -452.778731 
L 571.934532 -452.194376 
L 571.831234 -451.610021 
L 571.407228 -451.025667 
L 571.326404 -450.441312 
L 571.266139 -449.856957 
L 571.018923 -449.272602 
L 570.937483 -448.688248 
L 570.347007 -448.103893 
L 570.047192 -447.519538 
L 568.946607 -446.935184 
L 568.674707 -446.350829 
L 568.317319 -445.766474 
L 567.798079 -445.18212 
L 567.259726 -444.597765 
L 567.048744 -444.01341 
L 566.514928 -443.429055 
L 566.506317 -442.844701 
L 566.157782 -442.260346 
L 566.071224 -441.675991 
L 566.035163 -441.091637 
L 565.692303 -440.507282 
L 565.127687 -439.922927 
L 564.239644 -439.338572 
L 564.213805 -438.754218 
L 564.037879 -438.169863 
L 563.941088 -437.585508 
L 563.712036 -437.001154 
L 563.54383 -436.416799 
L 563.223645 -435.832444 
L 562.679812 -435.24809 
L 561.639254 -434.663735 
L 561.324099 -434.07938 
L 559.221858 -433.495025 
L 558.715937 -432.910671 
L 558.220624 -432.326316 
L 557.674624 -431.741961 
L 557.647915 -431.157607 
L 557.442771 -430.573252 
L 556.933783 -429.988897 
L 556.703997 -429.404543 
L 556.697202 -428.820188 
L 556.190661 -428.235833 
L 555.92266 -427.651478 
L 555.062187 -427.067124 
L 554.356374 -426.482769 
L 554.220253 -425.898414 
L 553.975883 -425.31406 
L 553.56694 -424.729705 
L 553.410316 -424.14535 
L 553.270729 -423.560996 
L 553.089947 -422.976641 
L 552.663548 -422.392286 
L 552.657833 -421.807931 
L 552.644939 -421.223577 
L 551.761303 -420.639222 
L 550.121747 -420.054867 
L 550.006053 -419.470513 
L 549.957714 -418.886158 
L 549.319212 -418.301803 
L 548.917379 -417.717448 
L 548.746845 -417.133094 
L 548.627336 -416.548739 
L 548.182154 -415.964384 
L 545.178688 -415.38003 
L 545.094522 -414.795675 
L 543.265398 -414.21132 
L 543.250199 -413.626966 
L 542.251702 -413.042611 
L 541.573007 -412.458256 
L 540.202107 -411.873901 
L 539.364975 -411.289547 
L 539.288569 -410.705192 
L 536.97335 -410.120837 
L 535.715585 -409.536483 
L 533.089671 -408.952128 
L 533.070032 -408.367773 
L 530.255973 -407.783419 
L 528.466981 -407.199064 
L 528.297174 -406.614709 
L 527.214113 -406.030354 
L 527.173477 -405.446 
L 525.62929 -404.861645 
L 520.299482 -404.27729 
L 516.241814 -403.692936 
L 509.073546 -403.108581 
L 496.795646 -402.524226 
z
" style="stroke: #f9d700; stroke-opacity: 0.7"/>
    </defs>
    <g clip-path="url(#peafe20e459)">
     <use xlink:href="#m8f36c1d788" x="0" y="576" style="fill: #f9d700; fill-opacity: 0.7; stroke: #f9d700; stroke-opacity: 0.7"/>
    </g>
   </g>
   <g id="PolyCollection_13">
    <defs>
     <path id="mbf2a8c08ac" d="M 607.171256 -525.823069 
L 367.896094 -525.823069 
L 367.896094 -526.407423 
L 367.896094 -526.991778 
L 367.896094 -527.576133 
L 367.896094 -528.160487 
L 367.896094 -528.744842 
L 367.896094 -529.329197 
L 367.896094 -529.913551 
L 367.896094 -530.497906 
L 642.342665 -530.497906 
L 642.342665 -530.497906 
L 640.844922 -529.913551 
L 637.691897 -529.329197 
L 628.176384 -528.744842 
L 623.13323 -528.160487 
L 622.656156 -527.576133 
L 616.390581 -526.991778 
L 610.762854 -526.407423 
L 607.171256 -525.823069 
z
" style="stroke: #ff9900; stroke-opacity: 0.7"/>
    </defs>
    <g clip-path="url(#peafe20e459)">
     <use xlink:href="#mbf2a8c08ac" x="0" y="576" style="fill: #ff9900; fill-opacity: 0.7; stroke: #ff9900; stroke-opacity: 0.7"/>
    </g>
   </g>
   <g id="PolyCollection_14">
    <defs>
     <path id="mdf9c6dc785" d="M 645.028532 -536.925808 
L 367.896094 -536.925808 
L 367.896094 -537.510163 
L 367.896094 -538.094517 
L 664.767603 -538.094517 
L 664.767603 -538.094517 
L 663.859167 -537.510163 
L 645.028532 -536.925808 
z
" style="stroke: #f40000; stroke-opacity: 0.7"/>
    </defs>
    <g clip-path="url(#peafe20e459)">
     <use xlink:href="#mdf9c6dc785" x="0" y="576" style="fill: #f40000; fill-opacity: 0.7; stroke: #f40000; stroke-opacity: 0.7"/>
    </g>
   </g>
   <g id="PolyCollection_15">
    <defs>
     <path id="m5ecd512b41" d="M 521.770667 -544.522419 
L 367.896094 -544.522419 
L 367.896094 -545.106774 
L 522.137807 -545.106774 
L 522.137807 -545.106774 
L 521.770667 -544.522419 
z
" style="stroke: #d20000; stroke-opacity: 0.7"/>
    </defs>
    <g clip-path="url(#peafe20e459)">
     <use xlink:href="#m5ecd512b41" x="0" y="576" style="fill: #d20000; fill-opacity: 0.7; stroke: #d20000; stroke-opacity: 0.7"/>
    </g>
   </g>
   <g id="matplotlib.axis_1">
    <g id="xtick_1">
     <g id="line2d_1">
      <defs>
       <path id="md2e861ff28" d="M 0 0 
L 0 3.5 
" style="stroke: #000000; stroke-width: 0.8"/>
      </defs>
      <g>
       <use xlink:href="#md2e861ff28" x="42.495313" y="510.648438" style="stroke: #000000; stroke-width: 0.8"/>
      </g>
     </g>
     <g id="text_1">
      <!-- −1.0 -->
      <g transform="translate(18.2125 532.845312) scale(0.2 -0.2)">
       <defs>
        <path id="DejaVuSans-2212" d="M 678 2272 
L 4684 2272 
L 4684 1741 
L 678 1741 
L 678 2272 
z
" transform="scale(0.015625)"/>
        <path id="DejaVuSans-31" d="M 794 531 
L 1825 531 
L 1825 4091 
L 703 3866 
L 703 4441 
L 1819 4666 
L 2450 4666 
L 2450 531 
L 3481 531 
L 3481 0 
L 794 0 
L 794 531 
z
" transform="scale(0.015625)"/>
        <path id="DejaVuSans-2e" d="M 684 794 
L 1344 794 
L 1344 0 
L 684 0 
L 684 794 
z
" transform="scale(0.015625)"/>
        <path id="DejaVuSans-30" d="M 2034 4250 
Q 1547 4250 1301 3770 
Q 1056 3291 1056 2328 
Q 1056 1369 1301 889 
Q 1547 409 2034 409 
Q 2525 409 2770 889 
Q 3016 1369 3016 2328 
Q 3016 3291 2770 3770 
Q 2525 4250 2034 4250 
z
M 2034 4750 
Q 2819 4750 3233 4129 
Q 3647 3509 3647 2328 
Q 3647 1150 3233 529 
Q 2819 -91 2034 -91 
Q 1250 -91 836 529 
Q 422 1150 422 2328 
Q 422 3509 836 4129 
Q 1250 4750 2034 4750 
z
" transform="scale(0.015625)"/>
       </defs>
       <use xlink:href="#DejaVuSans-2212"/>
       <use xlink:href="#DejaVuSans-31" x="83.789062"/>
       <use xlink:href="#DejaVuSans-2e" x="147.412109"/>
       <use xlink:href="#DejaVuSans-30" x="179.199219"/>
      </g>
     </g>
    </g>
    <g id="xtick_2">
     <g id="line2d_2">
      <g>
       <use xlink:href="#md2e861ff28" x="107.575469" y="510.648438" style="stroke: #000000; stroke-width: 0.8"/>
      </g>
     </g>
     <g id="text_2">
      <!-- −0.8 -->
      <g transform="translate(83.292656 532.845312) scale(0.2 -0.2)">
       <defs>
        <path id="DejaVuSans-38" d="M 2034 2216 
Q 1584 2216 1326 1975 
Q 1069 1734 1069 1313 
Q 1069 891 1326 650 
Q 1584 409 2034 409 
Q 2484 409 2743 651 
Q 3003 894 3003 1313 
Q 3003 1734 2745 1975 
Q 2488 2216 2034 2216 
z
M 1403 2484 
Q 997 2584 770 2862 
Q 544 3141 544 3541 
Q 544 4100 942 4425 
Q 1341 4750 2034 4750 
Q 2731 4750 3128 4425 
Q 3525 4100 3525 3541 
Q 3525 3141 3298 2862 
Q 3072 2584 2669 2484 
Q 3125 2378 3379 2068 
Q 3634 1759 3634 1313 
Q 3634 634 3220 271 
Q 2806 -91 2034 -91 
Q 1263 -91 848 271 
Q 434 634 434 1313 
Q 434 1759 690 2068 
Q 947 2378 1403 2484 
z
M 1172 3481 
Q 1172 3119 1398 2916 
Q 1625 2713 2034 2713 
Q 2441 2713 2670 2916 
Q 2900 3119 2900 3481 
Q 2900 3844 2670 4047 
Q 2441 4250 2034 4250 
Q 1625 4250 1398 4047 
Q 1172 3844 1172 3481 
z
" transform="scale(0.015625)"/>
       </defs>
       <use xlink:href="#DejaVuSans-2212"/>
       <use xlink:href="#DejaVuSans-30" x="83.789062"/>
       <use xlink:href="#DejaVuSans-2e" x="147.412109"/>
       <use xlink:href="#DejaVuSans-38" x="179.199219"/>
      </g>
     </g>
    </g>
    <g id="xtick_3">
     <g id="line2d_3">
      <g>
       <use xlink:href="#md2e861ff28" x="172.655625" y="510.648438" style="stroke: #000000; stroke-width: 0.8"/>
      </g>
     </g>
     <g id="text_3">
      <!-- −0.6 -->
      <g transform="translate(148.372813 532.845312) scale(0.2 -0.2)">
       <defs>
        <path id="DejaVuSans-36" d="M 2113 2584 
Q 1688 2584 1439 2293 
Q 1191 2003 1191 1497 
Q 1191 994 1439 701 
Q 1688 409 2113 409 
Q 2538 409 2786 701 
Q 3034 994 3034 1497 
Q 3034 2003 2786 2293 
Q 2538 2584 2113 2584 
z
M 3366 4563 
L 3366 3988 
Q 3128 4100 2886 4159 
Q 2644 4219 2406 4219 
Q 1781 4219 1451 3797 
Q 1122 3375 1075 2522 
Q 1259 2794 1537 2939 
Q 1816 3084 2150 3084 
Q 2853 3084 3261 2657 
Q 3669 2231 3669 1497 
Q 3669 778 3244 343 
Q 2819 -91 2113 -91 
Q 1303 -91 875 529 
Q 447 1150 447 2328 
Q 447 3434 972 4092 
Q 1497 4750 2381 4750 
Q 2619 4750 2861 4703 
Q 3103 4656 3366 4563 
z
" transform="scale(0.015625)"/>
       </defs>
       <use xlink:href="#DejaVuSans-2212"/>
       <use xlink:href="#DejaVuSans-30" x="83.789062"/>
       <use xlink:href="#DejaVuSans-2e" x="147.412109"/>
       <use xlink:href="#DejaVuSans-36" x="179.199219"/>
      </g>
     </g>
    </g>
    <g id="xtick_4">
     <g id="line2d_4">
      <g>
       <use xlink:href="#md2e861ff28" x="237.735781" y="510.648438" style="stroke: #000000; stroke-width: 0.8"/>
      </g>
     </g>
     <g id="text_4">
      <!-- −0.4 -->
      <g transform="translate(213.452969 532.845312) scale(0.2 -0.2)">
       <defs>
        <path id="DejaVuSans-34" d="M 2419 4116 
L 825 1625 
L 2419 1625 
L 2419 4116 
z
M 2253 4666 
L 3047 4666 
L 3047 1625 
L 3713 1625 
L 3713 1100 
L 3047 1100 
L 3047 0 
L 2419 0 
L 2419 1100 
L 313 1100 
L 313 1709 
L 2253 4666 
z
" transform="scale(0.015625)"/>
       </defs>
       <use xlink:href="#DejaVuSans-2212"/>
       <use xlink:href="#DejaVuSans-30" x="83.789062"/>
       <use xlink:href="#DejaVuSans-2e" x="147.412109"/>
       <use xlink:href="#DejaVuSans-34" x="179.199219"/>
      </g>
     </g>
    </g>
    <g id="xtick_5">
     <g id="line2d_5">
      <g>
       <use xlink:href="#md2e861ff28" x="302.815937" y="510.648438" style="stroke: #000000; stroke-width: 0.8"/>
      </g>
     </g>
     <g id="text_5">
      <!-- −0.2 -->
      <g transform="translate(278.533125 532.845312) scale(0.2 -0.2)">
       <defs>
        <path id="DejaVuSans-32" d="M 1228 531 
L 3431 531 
L 3431 0 
L 469 0 
L 469 531 
Q 828 903 1448 1529 
Q 2069 2156 2228 2338 
Q 2531 2678 2651 2914 
Q 2772 3150 2772 3378 
Q 2772 3750 2511 3984 
Q 2250 4219 1831 4219 
Q 1534 4219 1204 4116 
Q 875 4013 500 3803 
L 500 4441 
Q 881 4594 1212 4672 
Q 1544 4750 1819 4750 
Q 2544 4750 2975 4387 
Q 3406 4025 3406 3419 
Q 3406 3131 3298 2873 
Q 3191 2616 2906 2266 
Q 2828 2175 2409 1742 
Q 1991 1309 1228 531 
z
" transform="scale(0.015625)"/>
       </defs>
       <use xlink:href="#DejaVuSans-2212"/>
       <use xlink:href="#DejaVuSans-30" x="83.789062"/>
       <use xlink:href="#DejaVuSans-2e" x="147.412109"/>
       <use xlink:href="#DejaVuSans-32" x="179.199219"/>
      </g>
     </g>
    </g>
    <g id="xtick_6">
     <g id="line2d_6">
      <g>
       <use xlink:href="#md2e861ff28" x="367.896094" y="510.648438" style="stroke: #000000; stroke-width: 0.8"/>
      </g>
     </g>
     <g id="text_6">
      <!-- 0.0 -->
      <g transform="translate(351.992969 532.845312) scale(0.2 -0.2)">
       <use xlink:href="#DejaVuSans-30"/>
       <use xlink:href="#DejaVuSans-2e" x="63.623047"/>
       <use xlink:href="#DejaVuSans-30" x="95.410156"/>
      </g>
     </g>
    </g>
    <g id="xtick_7">
     <g id="line2d_7">
      <g>
       <use xlink:href="#md2e861ff28" x="432.97625" y="510.648438" style="stroke: #000000; stroke-width: 0.8"/>
      </g>
     </g>
     <g id="text_7">
      <!-- 0.2 -->
      <g transform="translate(417.073125 532.845312) scale(0.2 -0.2)">
       <use xlink:href="#DejaVuSans-30"/>
       <use xlink:href="#DejaVuSans-2e" x="63.623047"/>
       <use xlink:href="#DejaVuSans-32" x="95.410156"/>
      </g>
     </g>
    </g>
    <g id="xtick_8">
     <g id="line2d_8">
      <g>
       <use xlink:href="#md2e861ff28" x="498.056406" y="510.648438" style="stroke: #000000; stroke-width: 0.8"/>
      </g>
     </g>
     <g id="text_8">
      <!-- 0.4 -->
      <g transform="translate(482.153281 532.845312) scale(0.2 -0.2)">
       <use xlink:href="#DejaVuSans-30"/>
       <use xlink:href="#DejaVuSans-2e" x="63.623047"/>
       <use xlink:href="#DejaVuSans-34" x="95.410156"/>
      </g>
     </g>
    </g>
    <g id="xtick_9">
     <g id="line2d_9">
      <g>
       <use xlink:href="#md2e861ff28" x="563.136562" y="510.648438" style="stroke: #000000; stroke-width: 0.8"/>
      </g>
     </g>
     <g id="text_9">
      <!-- 0.6 -->
      <g transform="translate(547.233437 532.845312) scale(0.2 -0.2)">
       <use xlink:href="#DejaVuSans-30"/>
       <use xlink:href="#DejaVuSans-2e" x="63.623047"/>
       <use xlink:href="#DejaVuSans-36" x="95.410156"/>
      </g>
     </g>
    </g>
    <g id="xtick_10">
     <g id="line2d_10">
      <g>
       <use xlink:href="#md2e861ff28" x="628.216719" y="510.648438" style="stroke: #000000; stroke-width: 0.8"/>
      </g>
     </g>
     <g id="text_10">
      <!-- 0.8 -->
      <g transform="translate(612.313594 532.845312) scale(0.2 -0.2)">
       <use xlink:href="#DejaVuSans-30"/>
       <use xlink:href="#DejaVuSans-2e" x="63.623047"/>
       <use xlink:href="#DejaVuSans-38" x="95.410156"/>
      </g>
     </g>
    </g>
    <g id="xtick_11">
     <g id="line2d_11">
      <g>
       <use xlink:href="#md2e861ff28" x="693.296875" y="510.648438" style="stroke: #000000; stroke-width: 0.8"/>
      </g>
     </g>
     <g id="text_11">
      <!-- 1.0 -->
      <g transform="translate(677.39375 532.845312) scale(0.2 -0.2)">
       <use xlink:href="#DejaVuSans-31"/>
       <use xlink:href="#DejaVuSans-2e" x="63.623047"/>
       <use xlink:href="#DejaVuSans-30" x="95.410156"/>
      </g>
     </g>
    </g>
    <g id="text_12">
     <!-- Silhouette coefficient -->
     <g transform="translate(235.021094 560.000781) scale(0.25 -0.25)">
      <defs>
       <path id="DejaVuSans-53" d="M 3425 4513 
L 3425 3897 
Q 3066 4069 2747 4153 
Q 2428 4238 2131 4238 
Q 1616 4238 1336 4038 
Q 1056 3838 1056 3469 
Q 1056 3159 1242 3001 
Q 1428 2844 1947 2747 
L 2328 2669 
Q 3034 2534 3370 2195 
Q 3706 1856 3706 1288 
Q 3706 609 3251 259 
Q 2797 -91 1919 -91 
Q 1588 -91 1214 -16 
Q 841 59 441 206 
L 441 856 
Q 825 641 1194 531 
Q 1563 422 1919 422 
Q 2459 422 2753 634 
Q 3047 847 3047 1241 
Q 3047 1584 2836 1778 
Q 2625 1972 2144 2069 
L 1759 2144 
Q 1053 2284 737 2584 
Q 422 2884 422 3419 
Q 422 4038 858 4394 
Q 1294 4750 2059 4750 
Q 2388 4750 2728 4690 
Q 3069 4631 3425 4513 
z
" transform="scale(0.015625)"/>
       <path id="DejaVuSans-69" d="M 603 3500 
L 1178 3500 
L 1178 0 
L 603 0 
L 603 3500 
z
M 603 4863 
L 1178 4863 
L 1178 4134 
L 603 4134 
L 603 4863 
z
" transform="scale(0.015625)"/>
       <path id="DejaVuSans-6c" d="M 603 4863 
L 1178 4863 
L 1178 0 
L 603 0 
L 603 4863 
z
" transform="scale(0.015625)"/>
       <path id="DejaVuSans-68" d="M 3513 2113 
L 3513 0 
L 2938 0 
L 2938 2094 
Q 2938 2591 2744 2837 
Q 2550 3084 2163 3084 
Q 1697 3084 1428 2787 
Q 1159 2491 1159 1978 
L 1159 0 
L 581 0 
L 581 4863 
L 1159 4863 
L 1159 2956 
Q 1366 3272 1645 3428 
Q 1925 3584 2291 3584 
Q 2894 3584 3203 3211 
Q 3513 2838 3513 2113 
z
" transform="scale(0.015625)"/>
       <path id="DejaVuSans-6f" d="M 1959 3097 
Q 1497 3097 1228 2736 
Q 959 2375 959 1747 
Q 959 1119 1226 758 
Q 1494 397 1959 397 
Q 2419 397 2687 759 
Q 2956 1122 2956 1747 
Q 2956 2369 2687 2733 
Q 2419 3097 1959 3097 
z
M 1959 3584 
Q 2709 3584 3137 3096 
Q 3566 2609 3566 1747 
Q 3566 888 3137 398 
Q 2709 -91 1959 -91 
Q 1206 -91 779 398 
Q 353 888 353 1747 
Q 353 2609 779 3096 
Q 1206 3584 1959 3584 
z
" transform="scale(0.015625)"/>
       <path id="DejaVuSans-75" d="M 544 1381 
L 544 3500 
L 1119 3500 
L 1119 1403 
Q 1119 906 1312 657 
Q 1506 409 1894 409 
Q 2359 409 2629 706 
Q 2900 1003 2900 1516 
L 2900 3500 
L 3475 3500 
L 3475 0 
L 2900 0 
L 2900 538 
Q 2691 219 2414 64 
Q 2138 -91 1772 -91 
Q 1169 -91 856 284 
Q 544 659 544 1381 
z
M 1991 3584 
L 1991 3584 
z
" transform="scale(0.015625)"/>
       <path id="DejaVuSans-65" d="M 3597 1894 
L 3597 1613 
L 953 1613 
Q 991 1019 1311 708 
Q 1631 397 2203 397 
Q 2534 397 2845 478 
Q 3156 559 3463 722 
L 3463 178 
Q 3153 47 2828 -22 
Q 2503 -91 2169 -91 
Q 1331 -91 842 396 
Q 353 884 353 1716 
Q 353 2575 817 3079 
Q 1281 3584 2069 3584 
Q 2775 3584 3186 3129 
Q 3597 2675 3597 1894 
z
M 3022 2063 
Q 3016 2534 2758 2815 
Q 2500 3097 2075 3097 
Q 1594 3097 1305 2825 
Q 1016 2553 972 2059 
L 3022 2063 
z
" transform="scale(0.015625)"/>
       <path id="DejaVuSans-74" d="M 1172 4494 
L 1172 3500 
L 2356 3500 
L 2356 3053 
L 1172 3053 
L 1172 1153 
Q 1172 725 1289 603 
Q 1406 481 1766 481 
L 2356 481 
L 2356 0 
L 1766 0 
Q 1100 0 847 248 
Q 594 497 594 1153 
L 594 3053 
L 172 3053 
L 172 3500 
L 594 3500 
L 594 4494 
L 1172 4494 
z
" transform="scale(0.015625)"/>
       <path id="DejaVuSans-20" transform="scale(0.015625)"/>
       <path id="DejaVuSans-63" d="M 3122 3366 
L 3122 2828 
Q 2878 2963 2633 3030 
Q 2388 3097 2138 3097 
Q 1578 3097 1268 2742 
Q 959 2388 959 1747 
Q 959 1106 1268 751 
Q 1578 397 2138 397 
Q 2388 397 2633 464 
Q 2878 531 3122 666 
L 3122 134 
Q 2881 22 2623 -34 
Q 2366 -91 2075 -91 
Q 1284 -91 818 406 
Q 353 903 353 1747 
Q 353 2603 823 3093 
Q 1294 3584 2113 3584 
Q 2378 3584 2631 3529 
Q 2884 3475 3122 3366 
z
" transform="scale(0.015625)"/>
       <path id="DejaVuSans-66" d="M 2375 4863 
L 2375 4384 
L 1825 4384 
Q 1516 4384 1395 4259 
Q 1275 4134 1275 3809 
L 1275 3500 
L 2222 3500 
L 2222 3053 
L 1275 3053 
L 1275 0 
L 697 0 
L 697 3053 
L 147 3053 
L 147 3500 
L 697 3500 
L 697 3744 
Q 697 4328 969 4595 
Q 1241 4863 1831 4863 
L 2375 4863 
z
" transform="scale(0.015625)"/>
       <path id="DejaVuSans-6e" d="M 3513 2113 
L 3513 0 
L 2938 0 
L 2938 2094 
Q 2938 2591 2744 2837 
Q 2550 3084 2163 3084 
Q 1697 3084 1428 2787 
Q 1159 2491 1159 1978 
L 1159 0 
L 581 0 
L 581 3500 
L 1159 3500 
L 1159 2956 
Q 1366 3272 1645 3428 
Q 1925 3584 2291 3584 
Q 2894 3584 3203 3211 
Q 3513 2838 3513 2113 
z
" transform="scale(0.015625)"/>
      </defs>
      <use xlink:href="#DejaVuSans-53"/>
      <use xlink:href="#DejaVuSans-69" x="63.476562"/>
      <use xlink:href="#DejaVuSans-6c" x="91.259766"/>
      <use xlink:href="#DejaVuSans-68" x="119.042969"/>
      <use xlink:href="#DejaVuSans-6f" x="182.421875"/>
      <use xlink:href="#DejaVuSans-75" x="243.603516"/>
      <use xlink:href="#DejaVuSans-65" x="306.982422"/>
      <use xlink:href="#DejaVuSans-74" x="368.505859"/>
      <use xlink:href="#DejaVuSans-74" x="407.714844"/>
      <use xlink:href="#DejaVuSans-65" x="446.923828"/>
      <use xlink:href="#DejaVuSans-20" x="508.447266"/>
      <use xlink:href="#DejaVuSans-63" x="540.234375"/>
      <use xlink:href="#DejaVuSans-6f" x="595.214844"/>
      <use xlink:href="#DejaVuSans-65" x="656.396484"/>
      <use xlink:href="#DejaVuSans-66" x="717.919922"/>
      <use xlink:href="#DejaVuSans-66" x="753.125"/>
      <use xlink:href="#DejaVuSans-69" x="788.330078"/>
      <use xlink:href="#DejaVuSans-63" x="816.113281"/>
      <use xlink:href="#DejaVuSans-69" x="871.09375"/>
      <use xlink:href="#DejaVuSans-65" x="898.876953"/>
      <use xlink:href="#DejaVuSans-6e" x="960.400391"/>
      <use xlink:href="#DejaVuSans-74" x="1023.779297"/>
     </g>
    </g>
   </g>
   <g id="matplotlib.axis_2">
    <g id="text_13">
     <!-- Predicted label -->
     <g transform="translate(29.796094 360.43774) rotate(-90) scale(0.25 -0.25)">
      <defs>
       <path id="DejaVuSans-50" d="M 1259 4147 
L 1259 2394 
L 2053 2394 
Q 2494 2394 2734 2622 
Q 2975 2850 2975 3272 
Q 2975 3691 2734 3919 
Q 2494 4147 2053 4147 
L 1259 4147 
z
M 628 4666 
L 2053 4666 
Q 2838 4666 3239 4311 
Q 3641 3956 3641 3272 
Q 3641 2581 3239 2228 
Q 2838 1875 2053 1875 
L 1259 1875 
L 1259 0 
L 628 0 
L 628 4666 
z
" transform="scale(0.015625)"/>
       <path id="DejaVuSans-72" d="M 2631 2963 
Q 2534 3019 2420 3045 
Q 2306 3072 2169 3072 
Q 1681 3072 1420 2755 
Q 1159 2438 1159 1844 
L 1159 0 
L 581 0 
L 581 3500 
L 1159 3500 
L 1159 2956 
Q 1341 3275 1631 3429 
Q 1922 3584 2338 3584 
Q 2397 3584 2469 3576 
Q 2541 3569 2628 3553 
L 2631 2963 
z
" transform="scale(0.015625)"/>
       <path id="DejaVuSans-64" d="M 2906 2969 
L 2906 4863 
L 3481 4863 
L 3481 0 
L 2906 0 
L 2906 525 
Q 2725 213 2448 61 
Q 2172 -91 1784 -91 
Q 1150 -91 751 415 
Q 353 922 353 1747 
Q 353 2572 751 3078 
Q 1150 3584 1784 3584 
Q 2172 3584 2448 3432 
Q 2725 3281 2906 2969 
z
M 947 1747 
Q 947 1113 1208 752 
Q 1469 391 1925 391 
Q 2381 391 2643 752 
Q 2906 1113 2906 1747 
Q 2906 2381 2643 2742 
Q 2381 3103 1925 3103 
Q 1469 3103 1208 2742 
Q 947 2381 947 1747 
z
" transform="scale(0.015625)"/>
       <path id="DejaVuSans-61" d="M 2194 1759 
Q 1497 1759 1228 1600 
Q 959 1441 959 1056 
Q 959 750 1161 570 
Q 1363 391 1709 391 
Q 2188 391 2477 730 
Q 2766 1069 2766 1631 
L 2766 1759 
L 2194 1759 
z
M 3341 1997 
L 3341 0 
L 2766 0 
L 2766 531 
Q 2569 213 2275 61 
Q 1981 -91 1556 -91 
Q 1019 -91 701 211 
Q 384 513 384 1019 
Q 384 1609 779 1909 
Q 1175 2209 1959 2209 
L 2766 2209 
L 2766 2266 
Q 2766 2663 2505 2880 
Q 2244 3097 1772 3097 
Q 1472 3097 1187 3025 
Q 903 2953 641 2809 
L 641 3341 
Q 956 3463 1253 3523 
Q 1550 3584 1831 3584 
Q 2591 3584 2966 3190 
Q 3341 2797 3341 1997 
z
" transform="scale(0.015625)"/>
       <path id="DejaVuSans-62" d="M 3116 1747 
Q 3116 2381 2855 2742 
Q 2594 3103 2138 3103 
Q 1681 3103 1420 2742 
Q 1159 2381 1159 1747 
Q 1159 1113 1420 752 
Q 1681 391 2138 391 
Q 2594 391 2855 752 
Q 3116 1113 3116 1747 
z
M 1159 2969 
Q 1341 3281 1617 3432 
Q 1894 3584 2278 3584 
Q 2916 3584 3314 3078 
Q 3713 2572 3713 1747 
Q 3713 922 3314 415 
Q 2916 -91 2278 -91 
Q 1894 -91 1617 61 
Q 1341 213 1159 525 
L 1159 0 
L 581 0 
L 581 4863 
L 1159 4863 
L 1159 2969 
z
" transform="scale(0.015625)"/>
      </defs>
      <use xlink:href="#DejaVuSans-50"/>
      <use xlink:href="#DejaVuSans-72" x="58.552734"/>
      <use xlink:href="#DejaVuSans-65" x="97.416016"/>
      <use xlink:href="#DejaVuSans-64" x="158.939453"/>
      <use xlink:href="#DejaVuSans-69" x="222.416016"/>
      <use xlink:href="#DejaVuSans-63" x="250.199219"/>
      <use xlink:href="#DejaVuSans-74" x="305.179688"/>
      <use xlink:href="#DejaVuSans-65" x="344.388672"/>
      <use xlink:href="#DejaVuSans-64" x="405.912109"/>
      <use xlink:href="#DejaVuSans-20" x="469.388672"/>
      <use xlink:href="#DejaVuSans-6c" x="501.175781"/>
      <use xlink:href="#DejaVuSans-61" x="528.958984"/>
      <use xlink:href="#DejaVuSans-62" x="590.238281"/>
      <use xlink:href="#DejaVuSans-65" x="653.714844"/>
      <use xlink:href="#DejaVuSans-6c" x="715.238281"/>
     </g>
    </g>
   </g>
   <g id="line2d_12">
    <path d="M 538.425188 510.648438 
L 538.425188 24.465325 
" clip-path="url(#peafe20e459)" style="fill: none; stroke: #ff0000; stroke-width: 4; stroke-linecap: square"/>
   </g>
   <g id="patch_3">
    <path d="M 42.495313 510.648438 
L 42.495313 24.465325 
" style="fill: none; stroke: #000000; stroke-width: 0.8; stroke-linejoin: miter; stroke-linecap: square"/>
   </g>
   <g id="patch_4">
    <path d="M 693.296875 510.648438 
L 693.296875 24.465325 
" style="fill: none; stroke: #000000; stroke-width: 0.8; stroke-linejoin: miter; stroke-linecap: square"/>
   </g>
   <g id="patch_5">
    <path d="M 42.495313 510.648438 
L 693.296875 510.648438 
" style="fill: none; stroke: #000000; stroke-width: 0.8; stroke-linejoin: miter; stroke-linecap: square"/>
   </g>
   <g id="patch_6">
    <path d="M 42.495313 24.465325 
L 693.296875 24.465325 
" style="fill: none; stroke: #000000; stroke-width: 0.8; stroke-linejoin: miter; stroke-linecap: square"/>
   </g>
   <g id="text_14">
    <!-- 0 -->
    <g transform="translate(351.626055 482.599412) scale(0.25 -0.25)">
     <use xlink:href="#DejaVuSans-30"/>
    </g>
   </g>
   <g id="text_15">
    <!-- 1 -->
    <g transform="translate(351.626055 424.456119) scale(0.25 -0.25)">
     <use xlink:href="#DejaVuSans-31"/>
    </g>
   </g>
   <g id="text_16">
    <!-- 2 -->
    <g transform="translate(351.626055 363.098875) scale(0.25 -0.25)">
     <use xlink:href="#DejaVuSans-32"/>
    </g>
   </g>
   <g id="text_17">
    <!-- 3 -->
    <g transform="translate(351.626055 327.745415) scale(0.25 -0.25)">
     <defs>
      <path id="DejaVuSans-33" d="M 2597 2516 
Q 3050 2419 3304 2112 
Q 3559 1806 3559 1356 
Q 3559 666 3084 287 
Q 2609 -91 1734 -91 
Q 1441 -91 1130 -33 
Q 819 25 488 141 
L 488 750 
Q 750 597 1062 519 
Q 1375 441 1716 441 
Q 2309 441 2620 675 
Q 2931 909 2931 1356 
Q 2931 1769 2642 2001 
Q 2353 2234 1838 2234 
L 1294 2234 
L 1294 2753 
L 1863 2753 
Q 2328 2753 2575 2939 
Q 2822 3125 2822 3475 
Q 2822 3834 2567 4026 
Q 2313 4219 1838 4219 
Q 1578 4219 1281 4162 
Q 984 4106 628 3988 
L 628 4550 
Q 988 4650 1302 4700 
Q 1616 4750 1894 4750 
Q 2613 4750 3031 4423 
Q 3450 4097 3450 3541 
Q 3450 3153 3228 2886 
Q 3006 2619 2597 2516 
z
" transform="scale(0.015625)"/>
     </defs>
     <use xlink:href="#DejaVuSans-33"/>
    </g>
   </g>
   <g id="text_18">
    <!-- 4 -->
    <g transform="translate(351.626055 311.675661) scale(0.25 -0.25)">
     <use xlink:href="#DejaVuSans-34"/>
    </g>
   </g>
   <g id="text_19">
    <!-- 5 -->
    <g transform="translate(351.626055 297.066794) scale(0.25 -0.25)">
     <defs>
      <path id="DejaVuSans-35" d="M 691 4666 
L 3169 4666 
L 3169 4134 
L 1269 4134 
L 1269 2991 
Q 1406 3038 1543 3061 
Q 1681 3084 1819 3084 
Q 2600 3084 3056 2656 
Q 3513 2228 3513 1497 
Q 3513 744 3044 326 
Q 2575 -91 1722 -91 
Q 1428 -91 1123 -41 
Q 819 9 494 109 
L 494 744 
Q 775 591 1075 516 
Q 1375 441 1709 441 
Q 2250 441 2565 725 
Q 2881 1009 2881 1497 
Q 2881 1984 2565 2268 
Q 2250 2553 1709 2553 
Q 1456 2553 1204 2497 
Q 953 2441 691 2322 
L 691 4666 
z
" transform="scale(0.015625)"/>
     </defs>
     <use xlink:href="#DejaVuSans-35"/>
    </g>
   </g>
   <g id="text_20">
    <!-- 6 -->
    <g transform="translate(351.626055 268.72559) scale(0.25 -0.25)">
     <use xlink:href="#DejaVuSans-36"/>
    </g>
   </g>
   <g id="text_21">
    <!-- 7 -->
    <g transform="translate(351.626055 240.676565) scale(0.25 -0.25)">
     <defs>
      <path id="DejaVuSans-37" d="M 525 4666 
L 3525 4666 
L 3525 4397 
L 1831 0 
L 1172 0 
L 2766 4134 
L 525 4134 
L 525 4666 
z
" transform="scale(0.015625)"/>
     </defs>
     <use xlink:href="#DejaVuSans-37"/>
    </g>
   </g>
   <g id="text_22">
    <!-- 8 -->
    <g transform="translate(351.626055 226.652052) scale(0.25 -0.25)">
     <use xlink:href="#DejaVuSans-38"/>
    </g>
   </g>
   <g id="text_23">
    <!-- 9 -->
    <g transform="translate(351.626055 202.109154) scale(0.25 -0.25)">
     <defs>
      <path id="DejaVuSans-39" d="M 703 97 
L 703 672 
Q 941 559 1184 500 
Q 1428 441 1663 441 
Q 2288 441 2617 861 
Q 2947 1281 2994 2138 
Q 2813 1869 2534 1725 
Q 2256 1581 1919 1581 
Q 1219 1581 811 2004 
Q 403 2428 403 3163 
Q 403 3881 828 4315 
Q 1253 4750 1959 4750 
Q 2769 4750 3195 4129 
Q 3622 3509 3622 2328 
Q 3622 1225 3098 567 
Q 2575 -91 1691 -91 
Q 1453 -91 1209 -44 
Q 966 3 703 97 
z
M 1959 2075 
Q 2384 2075 2632 2365 
Q 2881 2656 2881 3163 
Q 2881 3666 2632 3958 
Q 2384 4250 1959 4250 
Q 1534 4250 1286 3958 
Q 1038 3666 1038 3163 
Q 1038 2656 1286 2365 
Q 1534 2075 1959 2075 
z
" transform="scale(0.015625)"/>
     </defs>
     <use xlink:href="#DejaVuSans-39"/>
    </g>
   </g>
   <g id="text_24">
    <!-- 10 -->
    <g transform="translate(351.626055 181.364562) scale(0.25 -0.25)">
     <use xlink:href="#DejaVuSans-31"/>
     <use xlink:href="#DejaVuSans-30" x="63.623047"/>
    </g>
   </g>
   <g id="text_25">
    <!-- 11 -->
    <g transform="translate(351.626055 114.748126) scale(0.25 -0.25)">
     <use xlink:href="#DejaVuSans-31"/>
     <use xlink:href="#DejaVuSans-31" x="63.623047"/>
    </g>
   </g>
   <g id="text_26">
    <!-- 12 -->
    <g transform="translate(351.626055 47.547335) scale(0.25 -0.25)">
     <use xlink:href="#DejaVuSans-31"/>
     <use xlink:href="#DejaVuSans-32" x="63.623047"/>
    </g>
   </g>
   <g id="text_27">
    <!-- 13 -->
    <g transform="translate(351.626055 38.19766) scale(0.25 -0.25)">
     <use xlink:href="#DejaVuSans-31"/>
     <use xlink:href="#DejaVuSans-33" x="63.623047"/>
    </g>
   </g>
   <g id="text_28">
    <!-- 14 -->
    <g transform="translate(351.626055 30.893226) scale(0.25 -0.25)">
     <use xlink:href="#DejaVuSans-31"/>
     <use xlink:href="#DejaVuSans-34" x="63.623047"/>
    </g>
   </g>
   <g id="text_29">
    <!-- 0.5241 -->
    <g style="fill: #ff0000" transform="translate(554.695227 30.308872) scale(0.25 -0.25)">
     <use xlink:href="#DejaVuSans-30"/>
     <use xlink:href="#DejaVuSans-2e" x="63.623047"/>
     <use xlink:href="#DejaVuSans-35" x="95.410156"/>
     <use xlink:href="#DejaVuSans-32" x="159.033203"/>
     <use xlink:href="#DejaVuSans-34" x="222.65625"/>
     <use xlink:href="#DejaVuSans-31" x="286.279297"/>
    </g>
   </g>
  </g>
 </g>
 <defs>
  <clipPath id="peafe20e459">
   <rect x="42.495313" y="24.465325" width="650.801562" height="486.183113"/>
  </clipPath>
 </defs>
</svg>
