<?xml version="1.0" encoding="utf-8" standalone="no"?>
<!DOCTYPE svg PUBLIC "-//W3C//DTD SVG 1.1//EN"
  "http://www.w3.org/Graphics/SVG/1.1/DTD/svg11.dtd">
<svg xmlns:xlink="http://www.w3.org/1999/xlink" width="720pt" height="432pt" viewBox="0 0 720 432" xmlns="http://www.w3.org/2000/svg" version="1.1">
 <metadata>
  <rdf:RDF xmlns:dc="http://purl.org/dc/elements/1.1/" xmlns:cc="http://creativecommons.org/ns#" xmlns:rdf="http://www.w3.org/1999/02/22-rdf-syntax-ns#">
   <cc:Work>
    <dc:type rdf:resource="http://purl.org/dc/dcmitype/StillImage"/>
    <dc:date>2022-11-03T14:04:20.449129</dc:date>
    <dc:format>image/svg+xml</dc:format>
    <dc:creator>
     <cc:Agent>
      <dc:title>Matplotlib v3.6.1, https://matplotlib.org/</dc:title>
     </cc:Agent>
    </dc:creator>
   </cc:Work>
  </rdf:RDF>
 </metadata>
 <defs>
  <style type="text/css">*{stroke-linejoin: round; stroke-linecap: butt}</style>
 </defs>
 <g id="figure_1">
  <g id="patch_1">
   <path d="M 0 432 
L 720 432 
L 720 0 
L 0 0 
z
" style="fill: #ffffff"/>
  </g>
  <g id="axes_1">
   <g id="patch_2">
    <path d="M 27.978125 390.84375 
L 701.248437 390.84375 
L 701.248437 14.400361 
L 27.978125 14.400361 
z
" style="fill: #ffffff"/>
   </g>
   <g id="PolyCollection_1">
    <defs>
     <path id="m40766f37d8" d="M 422.551458 -45.68081 
L 364.613281 -45.68081 
L 364.613281 -46.133266 
L 364.613281 -46.585722 
L 364.613281 -47.038178 
L 364.613281 -47.490634 
L 364.613281 -47.94309 
L 364.613281 -48.395546 
L 364.613281 -48.848002 
L 364.613281 -49.300458 
L 364.613281 -49.752914 
L 364.613281 -50.20537 
L 364.613281 -50.657826 
L 364.613281 -51.110282 
L 364.613281 -51.562738 
L 364.613281 -52.015194 
L 364.613281 -52.46765 
L 364.613281 -52.920106 
L 364.613281 -53.372562 
L 364.613281 -53.825018 
L 364.613281 -54.277474 
L 364.613281 -54.72993 
L 364.613281 -55.182386 
L 364.613281 -55.634842 
L 364.613281 -56.087298 
L 364.613281 -56.539754 
L 364.613281 -56.99221 
L 364.613281 -57.444666 
L 364.613281 -57.897122 
L 364.613281 -58.349578 
L 364.613281 -58.802034 
L 364.613281 -59.25449 
L 364.613281 -59.706946 
L 364.613281 -60.159402 
L 364.613281 -60.611858 
L 364.613281 -61.064314 
L 364.613281 -61.51677 
L 364.613281 -61.969226 
L 364.613281 -62.421682 
L 364.613281 -62.874138 
L 364.613281 -63.326594 
L 364.613281 -63.77905 
L 364.613281 -64.231506 
L 364.613281 -64.683962 
L 364.613281 -65.136418 
L 364.613281 -65.588874 
L 364.613281 -66.04133 
L 364.613281 -66.493786 
L 364.613281 -66.946242 
L 364.613281 -67.398698 
L 364.613281 -67.851154 
L 364.613281 -68.30361 
L 364.613281 -68.756066 
L 364.613281 -69.208522 
L 364.613281 -69.660978 
L 364.613281 -70.113434 
L 364.613281 -70.56589 
L 364.613281 -71.018346 
L 364.613281 -71.470802 
L 364.613281 -71.923258 
L 364.613281 -72.375714 
L 364.613281 -72.82817 
L 364.613281 -73.280626 
L 364.613281 -73.733082 
L 364.613281 -74.185538 
L 364.613281 -74.637994 
L 364.613281 -75.09045 
L 364.613281 -75.542906 
L 364.613281 -75.995362 
L 364.613281 -76.447818 
L 364.613281 -76.900274 
L 364.613281 -77.35273 
L 364.613281 -77.805186 
L 364.613281 -78.257642 
L 364.613281 -78.710098 
L 364.613281 -79.162554 
L 364.613281 -79.61501 
L 585.076466 -79.61501 
L 585.076466 -79.61501 
L 584.776118 -79.162554 
L 584.519656 -78.710098 
L 584.500401 -78.257642 
L 584.368924 -77.805186 
L 583.854023 -77.35273 
L 583.267231 -76.900274 
L 582.965 -76.447818 
L 582.676304 -75.995362 
L 573.455441 -75.542906 
L 573.064931 -75.09045 
L 572.91685 -74.637994 
L 572.782886 -74.185538 
L 572.553483 -73.733082 
L 571.910734 -73.280626 
L 571.685526 -72.82817 
L 571.234495 -72.375714 
L 570.047522 -71.923258 
L 569.002554 -71.470802 
L 568.271686 -71.018346 
L 566.457627 -70.56589 
L 566.392001 -70.113434 
L 566.287644 -69.660978 
L 565.936858 -69.208522 
L 565.55833 -68.756066 
L 564.684729 -68.30361 
L 564.510166 -67.851154 
L 563.930977 -67.398698 
L 563.671866 -66.946242 
L 562.160999 -66.493786 
L 561.119414 -66.04133 
L 559.217111 -65.588874 
L 556.755916 -65.136418 
L 554.326091 -64.683962 
L 551.276235 -64.231506 
L 550.279894 -63.77905 
L 548.621899 -63.326594 
L 547.6003 -62.874138 
L 547.176707 -62.421682 
L 545.120832 -61.969226 
L 543.667712 -61.51677 
L 543.413334 -61.064314 
L 540.614884 -60.611858 
L 537.450598 -60.159402 
L 536.592654 -59.706946 
L 534.272247 -59.25449 
L 533.841856 -58.802034 
L 528.321664 -58.349578 
L 526.124279 -57.897122 
L 524.617374 -57.444666 
L 523.592928 -56.99221 
L 520.166954 -56.539754 
L 519.562068 -56.087298 
L 517.768326 -55.634842 
L 517.704661 -55.182386 
L 514.889774 -54.72993 
L 503.164427 -54.277474 
L 497.570021 -53.825018 
L 496.879316 -53.372562 
L 496.028082 -52.920106 
L 495.97078 -52.46765 
L 495.857047 -52.015194 
L 493.527209 -51.562738 
L 493.129941 -51.110282 
L 492.123853 -50.657826 
L 490.503922 -50.20537 
L 487.139 -49.752914 
L 486.033815 -49.300458 
L 484.657922 -48.848002 
L 477.905932 -48.395546 
L 466.786584 -47.94309 
L 448.167621 -47.490634 
L 448.167478 -47.038178 
L 444.914796 -46.585722 
L 431.281593 -46.133266 
L 422.551458 -45.68081 
z
" style="stroke: #000000; stroke-opacity: 0.7"/>
    </defs>
    <g clip-path="url(#p36c61c1213)">
     <use xlink:href="#m40766f37d8" x="0" y="432" style="fill-opacity: 0.7; stroke: #000000; stroke-opacity: 0.7"/>
    </g>
   </g>
   <g id="PolyCollection_2">
    <defs>
     <path id="m33688bbc12" d="M 300.153498 -84.592026 
L 364.613281 -84.592026 
L 364.613281 -85.044482 
L 364.613281 -85.496938 
L 364.613281 -85.949394 
L 364.613281 -86.40185 
L 364.613281 -86.854306 
L 364.613281 -87.306762 
L 364.613281 -87.759218 
L 364.613281 -88.211674 
L 364.613281 -88.66413 
L 364.613281 -89.116586 
L 364.613281 -89.569042 
L 364.613281 -90.021498 
L 364.613281 -90.473954 
L 364.613281 -90.92641 
L 364.613281 -91.378866 
L 364.613281 -91.831322 
L 364.613281 -92.283778 
L 364.613281 -92.736234 
L 364.613281 -93.18869 
L 364.613281 -93.641146 
L 364.613281 -94.093602 
L 364.613281 -94.546058 
L 364.613281 -94.998514 
L 364.613281 -95.45097 
L 364.613281 -95.903426 
L 364.613281 -96.355882 
L 364.613281 -96.808338 
L 364.613281 -97.260794 
L 364.613281 -97.71325 
L 364.613281 -98.165706 
L 364.613281 -98.618162 
L 364.613281 -99.070618 
L 364.613281 -99.523074 
L 364.613281 -99.97553 
L 364.613281 -100.427986 
L 364.613281 -100.880442 
L 364.613281 -101.332898 
L 364.613281 -101.785354 
L 364.613281 -102.23781 
L 364.613281 -102.690266 
L 364.613281 -103.142722 
L 364.613281 -103.595178 
L 364.613281 -104.047634 
L 364.613281 -104.50009 
L 364.613281 -104.952546 
L 364.613281 -105.405002 
L 364.613281 -105.857458 
L 364.613281 -106.309914 
L 364.613281 -106.76237 
L 364.613281 -107.214826 
L 364.613281 -107.667282 
L 364.613281 -108.119738 
L 364.613281 -108.572194 
L 364.613281 -109.02465 
L 364.613281 -109.477106 
L 364.613281 -109.929562 
L 364.613281 -110.382018 
L 364.613281 -110.834474 
L 364.613281 -111.28693 
L 364.613281 -111.739386 
L 364.613281 -112.191842 
L 364.613281 -112.644298 
L 364.613281 -113.096754 
L 364.613281 -113.54921 
L 364.613281 -114.001666 
L 364.613281 -114.454121 
L 364.613281 -114.906577 
L 364.613281 -115.359033 
L 364.613281 -115.811489 
L 364.613281 -116.263945 
L 364.613281 -116.716401 
L 364.613281 -117.168857 
L 364.613281 -117.621313 
L 364.613281 -118.073769 
L 364.613281 -118.526225 
L 364.613281 -118.978681 
L 364.613281 -119.431137 
L 364.613281 -119.883593 
L 364.613281 -120.336049 
L 364.613281 -120.788505 
L 364.613281 -121.240961 
L 364.613281 -121.693417 
L 364.613281 -122.145873 
L 364.613281 -122.598329 
L 364.613281 -123.050785 
L 364.613281 -123.503241 
L 364.613281 -123.955697 
L 364.613281 -124.408153 
L 364.613281 -124.860609 
L 364.613281 -125.313065 
L 364.613281 -125.765521 
L 364.613281 -126.217977 
L 364.613281 -126.670433 
L 364.613281 -127.122889 
L 364.613281 -127.575345 
L 364.613281 -128.027801 
L 364.613281 -128.480257 
L 364.613281 -128.932713 
L 364.613281 -129.385169 
L 364.613281 -129.837625 
L 364.613281 -130.290081 
L 364.613281 -130.742537 
L 559.32504 -130.742537 
L 559.32504 -130.742537 
L 559.266225 -130.290081 
L 559.203767 -129.837625 
L 558.792809 -129.385169 
L 558.326114 -128.932713 
L 557.493553 -128.480257 
L 556.455719 -128.027801 
L 554.303361 -127.575345 
L 554.21592 -127.122889 
L 552.675889 -126.670433 
L 552.21333 -126.217977 
L 552.190056 -125.765521 
L 551.11917 -125.313065 
L 549.876708 -124.860609 
L 547.758547 -124.408153 
L 546.464547 -123.955697 
L 546.032399 -123.503241 
L 545.200821 -123.050785 
L 544.359577 -122.598329 
L 543.516143 -122.145873 
L 543.153334 -121.693417 
L 543.064545 -121.240961 
L 542.510517 -120.788505 
L 542.450667 -120.336049 
L 542.236899 -119.883593 
L 541.689204 -119.431137 
L 541.391103 -118.978681 
L 539.37452 -118.526225 
L 538.562756 -118.073769 
L 537.15238 -117.621313 
L 535.266526 -117.168857 
L 532.919429 -116.716401 
L 532.648396 -116.263945 
L 532.091583 -115.811489 
L 531.186738 -115.359033 
L 531.068714 -114.906577 
L 530.076465 -114.454121 
L 529.027046 -114.001666 
L 527.477638 -113.54921 
L 527.220491 -113.096754 
L 526.822358 -112.644298 
L 525.77967 -112.191842 
L 525.262456 -111.739386 
L 522.634853 -111.28693 
L 521.147466 -110.834474 
L 517.979219 -110.382018 
L 517.420431 -109.929562 
L 515.754154 -109.477106 
L 515.27563 -109.02465 
L 514.434754 -108.572194 
L 514.124211 -108.119738 
L 514.078464 -107.667282 
L 513.690806 -107.214826 
L 513.566629 -106.76237 
L 507.337787 -106.309914 
L 506.837304 -105.857458 
L 503.164667 -105.405002 
L 502.33318 -104.952546 
L 500.519449 -104.50009 
L 496.999038 -104.047634 
L 493.54131 -103.595178 
L 489.288575 -103.142722 
L 488.356074 -102.690266 
L 487.907253 -102.23781 
L 482.001011 -101.785354 
L 481.754094 -101.332898 
L 476.77482 -100.880442 
L 474.172973 -100.427986 
L 473.804379 -99.97553 
L 471.158649 -99.523074 
L 467.02261 -99.070618 
L 462.824789 -98.618162 
L 461.716995 -98.165706 
L 461.691928 -97.71325 
L 460.862601 -97.260794 
L 458.759385 -96.808338 
L 456.129447 -96.355882 
L 454.74307 -95.903426 
L 452.698765 -95.45097 
L 445.392895 -94.998514 
L 444.123909 -94.546058 
L 441.062877 -94.093602 
L 439.223838 -93.641146 
L 435.452022 -93.18869 
L 435.000072 -92.736234 
L 434.216514 -92.283778 
L 433.856246 -91.831322 
L 432.987088 -91.378866 
L 425.751697 -90.92641 
L 419.360355 -90.473954 
L 416.402639 -90.021498 
L 415.775227 -89.569042 
L 412.374356 -89.116586 
L 406.065402 -88.66413 
L 405.676373 -88.211674 
L 404.560039 -87.759218 
L 401.032822 -87.306762 
L 398.893939 -86.854306 
L 370.130946 -86.40185 
L 356.086853 -85.949394 
L 351.527632 -85.496938 
L 332.500025 -85.044482 
L 300.153498 -84.592026 
z
" style="stroke: #7d008e; stroke-opacity: 0.7"/>
    </defs>
    <g clip-path="url(#p36c61c1213)">
     <use xlink:href="#m33688bbc12" x="0" y="432" style="fill: #7d008e; fill-opacity: 0.7; stroke: #7d008e; stroke-opacity: 0.7"/>
    </g>
   </g>
   <g id="PolyCollection_3">
    <defs>
     <path id="m048d8f9e3a" d="M 372.333002 -135.719553 
L 364.613281 -135.719553 
L 364.613281 -136.172009 
L 364.613281 -136.624465 
L 364.613281 -137.076921 
L 364.613281 -137.529377 
L 364.613281 -137.981833 
L 364.613281 -138.434289 
L 364.613281 -138.886745 
L 364.613281 -139.339201 
L 364.613281 -139.791657 
L 364.613281 -140.244113 
L 364.613281 -140.696569 
L 364.613281 -141.149025 
L 364.613281 -141.601481 
L 364.613281 -142.053937 
L 364.613281 -142.506393 
L 364.613281 -142.958849 
L 364.613281 -143.411305 
L 364.613281 -143.863761 
L 364.613281 -144.316217 
L 364.613281 -144.768673 
L 364.613281 -145.221129 
L 364.613281 -145.673585 
L 364.613281 -146.126041 
L 364.613281 -146.578497 
L 364.613281 -147.030953 
L 364.613281 -147.483409 
L 364.613281 -147.935865 
L 364.613281 -148.388321 
L 364.613281 -148.840777 
L 364.613281 -149.293233 
L 364.613281 -149.745689 
L 364.613281 -150.198145 
L 364.613281 -150.650601 
L 364.613281 -151.103057 
L 364.613281 -151.555513 
L 364.613281 -152.007969 
L 364.613281 -152.460425 
L 364.613281 -152.912881 
L 364.613281 -153.365337 
L 364.613281 -153.817793 
L 364.613281 -154.270249 
L 364.613281 -154.722705 
L 364.613281 -155.175161 
L 364.613281 -155.627617 
L 364.613281 -156.080073 
L 364.613281 -156.532529 
L 364.613281 -156.984985 
L 364.613281 -157.437441 
L 364.613281 -157.889897 
L 364.613281 -158.342353 
L 364.613281 -158.794809 
L 364.613281 -159.247265 
L 364.613281 -159.699721 
L 364.613281 -160.152177 
L 364.613281 -160.604633 
L 364.613281 -161.057089 
L 364.613281 -161.509545 
L 364.613281 -161.962001 
L 364.613281 -162.414457 
L 364.613281 -162.866913 
L 364.613281 -163.319369 
L 364.613281 -163.771825 
L 364.613281 -164.224281 
L 364.613281 -164.676737 
L 364.613281 -165.129193 
L 364.613281 -165.581649 
L 364.613281 -166.034105 
L 364.613281 -166.486561 
L 364.613281 -166.939017 
L 364.613281 -167.391473 
L 364.613281 -167.843929 
L 364.613281 -168.296385 
L 364.613281 -168.748841 
L 364.613281 -169.201297 
L 364.613281 -169.653753 
L 364.613281 -170.106209 
L 364.613281 -170.558665 
L 364.613281 -171.011121 
L 364.613281 -171.463577 
L 364.613281 -171.916033 
L 364.613281 -172.368489 
L 364.613281 -172.820945 
L 364.613281 -173.273401 
L 364.613281 -173.725857 
L 364.613281 -174.178313 
L 364.613281 -174.630769 
L 567.58071 -174.630769 
L 567.58071 -174.630769 
L 566.705958 -174.178313 
L 566.026111 -173.725857 
L 564.893624 -173.273401 
L 564.595266 -172.820945 
L 564.472206 -172.368489 
L 563.761718 -171.916033 
L 563.737661 -171.463577 
L 563.298903 -171.011121 
L 562.673919 -170.558665 
L 562.553007 -170.106209 
L 562.395703 -169.653753 
L 561.982441 -169.201297 
L 561.779487 -168.748841 
L 561.68964 -168.296385 
L 561.58657 -167.843929 
L 561.169207 -167.391473 
L 560.906941 -166.939017 
L 560.771368 -166.486561 
L 560.193139 -166.034105 
L 559.553938 -165.581649 
L 559.4264 -165.129193 
L 558.963027 -164.676737 
L 557.881694 -164.224281 
L 557.098869 -163.771825 
L 557.063912 -163.319369 
L 556.978061 -162.866913 
L 556.194863 -162.414457 
L 555.478105 -161.962001 
L 554.047783 -161.509545 
L 553.79144 -161.057089 
L 552.730288 -160.604633 
L 551.412633 -160.152177 
L 551.149093 -159.699721 
L 550.075663 -159.247265 
L 550.024235 -158.794809 
L 550.001029 -158.342353 
L 549.867046 -157.889897 
L 548.079955 -157.437441 
L 546.729538 -156.984985 
L 546.327729 -156.532529 
L 546.004684 -156.080073 
L 545.716108 -155.627617 
L 545.403522 -155.175161 
L 544.895049 -154.722705 
L 544.750951 -154.270249 
L 543.471059 -153.817793 
L 542.609863 -153.365337 
L 542.374266 -152.912881 
L 542.288557 -152.460425 
L 542.223828 -152.007969 
L 541.352676 -151.555513 
L 540.847296 -151.103057 
L 538.208144 -150.650601 
L 538.077387 -150.198145 
L 537.789012 -149.745689 
L 537.787068 -149.293233 
L 536.881093 -148.840777 
L 535.63832 -148.388321 
L 534.520067 -147.935865 
L 533.301887 -147.483409 
L 531.679574 -147.030953 
L 530.999686 -146.578497 
L 527.657527 -146.126041 
L 527.644453 -145.673585 
L 527.008391 -145.221129 
L 525.969472 -144.768673 
L 525.739736 -144.316217 
L 524.189999 -143.863761 
L 519.236978 -143.411305 
L 518.894139 -142.958849 
L 516.572606 -142.506393 
L 515.659235 -142.053937 
L 515.521228 -141.601481 
L 514.423762 -141.149025 
L 513.41326 -140.696569 
L 512.771503 -140.244113 
L 509.548748 -139.791657 
L 504.327092 -139.339201 
L 493.782287 -138.886745 
L 493.576919 -138.434289 
L 491.472117 -137.981833 
L 481.377071 -137.529377 
L 467.627606 -137.076921 
L 457.7019 -136.624465 
L 440.276826 -136.172009 
L 372.333002 -135.719553 
z
" style="stroke: #2d00a4; stroke-opacity: 0.7"/>
    </defs>
    <g clip-path="url(#p36c61c1213)">
     <use xlink:href="#m048d8f9e3a" x="0" y="432" style="fill: #2d00a4; fill-opacity: 0.7; stroke: #2d00a4; stroke-opacity: 0.7"/>
    </g>
   </g>
   <g id="PolyCollection_4">
    <defs>
     <path id="m4b4ac7f2a7" d="M 465.125579 -179.607785 
L 364.613281 -179.607785 
L 364.613281 -180.060241 
L 364.613281 -180.512697 
L 364.613281 -180.965153 
L 364.613281 -181.417609 
L 364.613281 -181.870065 
L 364.613281 -182.322521 
L 364.613281 -182.774977 
L 364.613281 -183.227433 
L 364.613281 -183.679889 
L 364.613281 -184.132345 
L 364.613281 -184.584801 
L 364.613281 -185.037257 
L 364.613281 -185.489713 
L 537.356012 -185.489713 
L 537.356012 -185.489713 
L 537.251048 -185.037257 
L 535.78103 -184.584801 
L 535.125586 -184.132345 
L 530.768301 -183.679889 
L 528.117681 -183.227433 
L 527.833888 -182.774977 
L 525.285655 -182.322521 
L 516.731293 -181.870065 
L 504.686817 -181.417609 
L 466.356391 -180.965153 
L 466.100466 -180.512697 
L 465.825092 -180.060241 
L 465.125579 -179.607785 
z
" style="stroke: #0000dd; stroke-opacity: 0.7"/>
    </defs>
    <g clip-path="url(#p36c61c1213)">
     <use xlink:href="#m4b4ac7f2a7" x="0" y="432" style="fill: #0000dd; fill-opacity: 0.7; stroke: #0000dd; stroke-opacity: 0.7"/>
    </g>
   </g>
   <g id="PolyCollection_5">
    <defs>
     <path id="m6f2ac760df" d="M 378.942768 -190.466729 
L 364.613281 -190.466729 
L 364.613281 -190.919185 
L 364.613281 -191.371641 
L 364.613281 -191.824097 
L 364.613281 -192.276553 
L 364.613281 -192.729009 
L 364.613281 -193.181465 
L 364.613281 -193.633921 
L 364.613281 -194.086377 
L 364.613281 -194.538833 
L 364.613281 -194.991289 
L 364.613281 -195.443745 
L 364.613281 -195.896201 
L 364.613281 -196.348657 
L 364.613281 -196.801113 
L 364.613281 -197.253569 
L 364.613281 -197.706025 
L 364.613281 -198.158481 
L 364.613281 -198.610937 
L 364.613281 -199.063393 
L 364.613281 -199.515849 
L 484.030027 -199.515849 
L 484.030027 -199.515849 
L 481.829835 -199.063393 
L 480.174968 -198.610937 
L 477.925414 -198.158481 
L 476.44095 -197.706025 
L 473.733472 -197.253569 
L 469.279251 -196.801113 
L 467.063947 -196.348657 
L 464.205575 -195.896201 
L 456.135639 -195.443745 
L 455.328644 -194.991289 
L 452.208881 -194.538833 
L 442.100836 -194.086377 
L 435.638125 -193.633921 
L 435.140636 -193.181465 
L 433.978544 -192.729009 
L 431.077321 -192.276553 
L 420.046991 -191.824097 
L 419.294814 -191.371641 
L 416.722796 -190.919185 
L 378.942768 -190.466729 
z
" style="stroke: #0082dd; stroke-opacity: 0.7"/>
    </defs>
    <g clip-path="url(#p36c61c1213)">
     <use xlink:href="#m6f2ac760df" x="0" y="432" style="fill: #0082dd; fill-opacity: 0.7; stroke: #0082dd; stroke-opacity: 0.7"/>
    </g>
   </g>
   <g id="PolyCollection_6">
    <defs>
     <path id="m5f3f54648e" d="M 430.044549 -204.492865 
L 364.613281 -204.492865 
L 364.613281 -204.945321 
L 364.613281 -205.397777 
L 364.613281 -205.850233 
L 364.613281 -206.302689 
L 364.613281 -206.755145 
L 364.613281 -207.207601 
L 364.613281 -207.660057 
L 364.613281 -208.112513 
L 573.119517 -208.112513 
L 573.119517 -208.112513 
L 572.968031 -207.660057 
L 571.9002 -207.207601 
L 562.180827 -206.755145 
L 532.245241 -206.302689 
L 516.267606 -205.850233 
L 511.49032 -205.397777 
L 509.402639 -204.945321 
L 430.044549 -204.492865 
z
" style="stroke: #00a4bb; stroke-opacity: 0.7"/>
    </defs>
    <g clip-path="url(#p36c61c1213)">
     <use xlink:href="#m5f3f54648e" x="0" y="432" style="fill: #00a4bb; fill-opacity: 0.7; stroke: #00a4bb; stroke-opacity: 0.7"/>
    </g>
   </g>
   <g id="PolyCollection_7">
    <defs>
     <path id="m72eca109bf" d="M 389.96437 -213.089529 
L 364.613281 -213.089529 
L 364.613281 -213.541985 
L 364.613281 -213.994441 
L 364.613281 -214.446897 
L 364.613281 -214.899353 
L 364.613281 -215.351809 
L 364.613281 -215.804265 
L 364.613281 -216.256721 
L 364.613281 -216.709177 
L 364.613281 -217.161633 
L 364.613281 -217.614089 
L 364.613281 -218.066545 
L 364.613281 -218.519001 
L 364.613281 -218.971457 
L 364.613281 -219.423913 
L 364.613281 -219.876369 
L 364.613281 -220.328825 
L 364.613281 -220.781281 
L 364.613281 -221.233737 
L 364.613281 -221.686193 
L 364.613281 -222.138649 
L 364.613281 -222.591105 
L 364.613281 -223.043561 
L 364.613281 -223.496017 
L 364.613281 -223.948473 
L 364.613281 -224.400929 
L 364.613281 -224.853385 
L 364.613281 -225.305841 
L 364.613281 -225.758297 
L 364.613281 -226.210753 
L 364.613281 -226.663209 
L 364.613281 -227.115665 
L 364.613281 -227.568121 
L 364.613281 -228.020577 
L 364.613281 -228.473033 
L 364.613281 -228.925489 
L 364.613281 -229.377945 
L 364.613281 -229.830401 
L 364.613281 -230.282857 
L 364.613281 -230.735313 
L 364.613281 -231.187769 
L 364.613281 -231.640225 
L 364.613281 -232.092681 
L 364.613281 -232.545137 
L 364.613281 -232.997593 
L 364.613281 -233.450049 
L 364.613281 -233.902505 
L 364.613281 -234.354961 
L 364.613281 -234.807417 
L 364.613281 -235.259873 
L 364.613281 -235.712329 
L 364.613281 -236.164785 
L 364.613281 -236.617241 
L 364.613281 -237.069697 
L 364.613281 -237.522153 
L 364.613281 -237.974609 
L 364.613281 -238.427065 
L 364.613281 -238.879521 
L 364.613281 -239.331977 
L 364.613281 -239.784433 
L 364.613281 -240.236889 
L 364.613281 -240.689345 
L 364.613281 -241.141801 
L 364.613281 -241.594257 
L 364.613281 -242.046713 
L 364.613281 -242.499169 
L 364.613281 -242.951625 
L 364.613281 -243.404081 
L 556.544397 -243.404081 
L 556.544397 -243.404081 
L 555.234086 -242.951625 
L 554.537957 -242.499169 
L 554.351636 -242.046713 
L 553.90606 -241.594257 
L 552.693531 -241.141801 
L 552.644983 -240.689345 
L 551.889277 -240.236889 
L 551.692035 -239.784433 
L 551.574976 -239.331977 
L 551.44573 -238.879521 
L 551.337588 -238.427065 
L 551.332304 -237.974609 
L 551.283804 -237.522153 
L 550.932057 -237.069697 
L 550.903496 -236.617241 
L 549.807435 -236.164785 
L 547.986967 -235.712329 
L 543.704771 -235.259873 
L 539.438718 -234.807417 
L 539.423541 -234.354961 
L 538.815557 -233.902505 
L 538.151328 -233.450049 
L 537.616949 -232.997593 
L 537.041754 -232.545137 
L 537.04131 -232.092681 
L 536.709017 -231.640225 
L 535.75168 -231.187769 
L 532.049103 -230.735313 
L 530.656682 -230.282857 
L 529.782128 -229.830401 
L 527.324422 -229.377945 
L 526.610413 -228.925489 
L 525.098474 -228.473033 
L 524.856906 -228.020577 
L 524.842511 -227.568121 
L 524.026761 -227.115665 
L 523.698713 -226.663209 
L 522.296079 -226.210753 
L 517.756286 -225.758297 
L 517.275434 -225.305841 
L 509.560205 -224.853385 
L 508.400618 -224.400929 
L 508.276587 -223.948473 
L 507.054486 -223.496017 
L 502.553531 -223.043561 
L 500.324096 -222.591105 
L 499.615751 -222.138649 
L 495.55736 -221.686193 
L 494.539978 -221.233737 
L 491.445534 -220.781281 
L 486.031406 -220.328825 
L 482.976799 -219.876369 
L 482.598681 -219.423913 
L 480.730609 -218.971457 
L 477.131922 -218.519001 
L 476.454559 -218.066545 
L 475.228548 -217.614089 
L 473.505572 -217.161633 
L 471.239452 -216.709177 
L 470.78192 -216.256721 
L 470.631528 -215.804265 
L 464.450478 -215.351809 
L 430.215431 -214.899353 
L 426.877781 -214.446897 
L 409.935775 -213.994441 
L 400.910593 -213.541985 
L 389.96437 -213.089529 
z
" style="stroke: #00aa88; stroke-opacity: 0.7"/>
    </defs>
    <g clip-path="url(#p36c61c1213)">
     <use xlink:href="#m72eca109bf" x="0" y="432" style="fill: #00aa88; fill-opacity: 0.7; stroke: #00aa88; stroke-opacity: 0.7"/>
    </g>
   </g>
   <g id="PolyCollection_8">
    <defs>
     <path id="m5c4286f868" d="M 580.455517 -248.381097 
L 364.613281 -248.381097 
L 364.613281 -248.833553 
L 364.613281 -249.286009 
L 364.613281 -249.738465 
L 364.613281 -250.190921 
L 364.613281 -250.643377 
L 364.613281 -251.095833 
L 364.613281 -251.548289 
L 633.640524 -251.548289 
L 633.640524 -251.548289 
L 631.468564 -251.095833 
L 620.47031 -250.643377 
L 617.605987 -250.190921 
L 613.882307 -249.738465 
L 596.827622 -249.286009 
L 593.020678 -248.833553 
L 580.455517 -248.381097 
z
" style="stroke: #00a400; stroke-opacity: 0.7"/>
    </defs>
    <g clip-path="url(#p36c61c1213)">
     <use xlink:href="#m5c4286f868" x="0" y="432" style="fill: #00a400; fill-opacity: 0.7; stroke: #00a400; stroke-opacity: 0.7"/>
    </g>
   </g>
   <g id="PolyCollection_9">
    <defs>
     <path id="ma396e59217" d="M 365.791816 -256.525305 
L 364.613281 -256.525305 
L 364.613281 -256.977761 
L 364.613281 -257.430217 
L 364.613281 -257.882673 
L 364.613281 -258.335129 
L 364.613281 -258.787585 
L 364.613281 -259.240041 
L 364.613281 -259.692497 
L 364.613281 -260.144953 
L 364.613281 -260.597408 
L 364.613281 -261.049864 
L 364.613281 -261.50232 
L 364.613281 -261.954776 
L 364.613281 -262.407232 
L 364.613281 -262.859688 
L 364.613281 -263.312144 
L 364.613281 -263.7646 
L 364.613281 -264.217056 
L 364.613281 -264.669512 
L 364.613281 -265.121968 
L 526.540083 -265.121968 
L 526.540083 -265.121968 
L 519.834045 -264.669512 
L 514.226921 -264.217056 
L 512.357646 -263.7646 
L 510.485335 -263.312144 
L 506.175908 -262.859688 
L 504.811645 -262.407232 
L 501.653305 -261.954776 
L 499.185422 -261.50232 
L 491.616312 -261.049864 
L 484.045852 -260.597408 
L 482.506462 -260.144953 
L 476.773661 -259.692497 
L 474.525734 -259.240041 
L 474.314764 -258.787585 
L 472.363814 -258.335129 
L 472.256201 -257.882673 
L 471.732883 -257.430217 
L 471.429686 -256.977761 
L 365.791816 -256.525305 
z
" style="stroke: #00d200; stroke-opacity: 0.7"/>
    </defs>
    <g clip-path="url(#p36c61c1213)">
     <use xlink:href="#ma396e59217" x="0" y="432" style="fill: #00d200; fill-opacity: 0.7; stroke: #00d200; stroke-opacity: 0.7"/>
    </g>
   </g>
   <g id="PolyCollection_10">
    <defs>
     <path id="md2d8e87552" d="M 523.143266 -270.098984 
L 364.613281 -270.098984 
L 364.613281 -270.55144 
L 364.613281 -271.003896 
L 364.613281 -271.456352 
L 364.613281 -271.908808 
L 364.613281 -272.361264 
L 364.613281 -272.81372 
L 364.613281 -273.266176 
L 364.613281 -273.718632 
L 364.613281 -274.171088 
L 364.613281 -274.623544 
L 364.613281 -275.076 
L 364.613281 -275.528456 
L 364.613281 -275.980912 
L 364.613281 -276.433368 
L 364.613281 -276.885824 
L 364.613281 -277.33828 
L 364.613281 -277.790736 
L 364.613281 -278.243192 
L 364.613281 -278.695648 
L 364.613281 -279.148104 
L 364.613281 -279.60056 
L 364.613281 -280.053016 
L 364.613281 -280.505472 
L 364.613281 -280.957928 
L 364.613281 -281.410384 
L 364.613281 -281.86284 
L 364.613281 -282.315296 
L 364.613281 -282.767752 
L 364.613281 -283.220208 
L 364.613281 -283.672664 
L 364.613281 -284.12512 
L 364.613281 -284.577576 
L 364.613281 -285.030032 
L 364.613281 -285.482488 
L 364.613281 -285.934944 
L 364.613281 -286.3874 
L 364.613281 -286.839856 
L 364.613281 -287.292312 
L 364.613281 -287.744768 
L 364.613281 -288.197224 
L 364.613281 -288.64968 
L 364.613281 -289.102136 
L 364.613281 -289.554592 
L 639.834224 -289.554592 
L 639.834224 -289.554592 
L 639.263517 -289.102136 
L 639.097571 -288.64968 
L 638.897701 -288.197224 
L 638.80898 -287.744768 
L 638.570359 -287.292312 
L 638.424431 -286.839856 
L 637.697949 -286.3874 
L 637.351427 -285.934944 
L 637.001412 -285.482488 
L 636.485348 -285.030032 
L 634.912417 -284.577576 
L 633.283038 -284.12512 
L 633.016184 -283.672664 
L 632.985222 -283.220208 
L 632.408824 -282.767752 
L 632.368415 -282.315296 
L 632.021926 -281.86284 
L 631.865245 -281.410384 
L 631.456871 -280.957928 
L 617.889458 -280.505472 
L 617.781533 -280.053016 
L 617.517237 -279.60056 
L 615.799275 -279.148104 
L 615.194279 -278.695648 
L 608.786018 -278.243192 
L 608.033357 -277.790736 
L 607.770419 -277.33828 
L 607.538325 -276.885824 
L 607.53354 -276.433368 
L 607.401791 -275.980912 
L 607.217482 -275.528456 
L 603.94642 -275.076 
L 602.672456 -274.623544 
L 596.186787 -274.171088 
L 596.07998 -273.718632 
L 581.496716 -273.266176 
L 569.331756 -272.81372 
L 566.155094 -272.361264 
L 558.610026 -271.908808 
L 554.324656 -271.456352 
L 547.60487 -271.003896 
L 536.889622 -270.55144 
L 523.143266 -270.098984 
z
" style="stroke: #00ff00; stroke-opacity: 0.7"/>
    </defs>
    <g clip-path="url(#p36c61c1213)">
     <use xlink:href="#md2d8e87552" x="0" y="432" style="fill: #00ff00; fill-opacity: 0.7; stroke: #00ff00; stroke-opacity: 0.7"/>
    </g>
   </g>
   <g id="PolyCollection_11">
    <defs>
     <path id="m14480ff46f" d="M 422.11315 -294.531608 
L 364.613281 -294.531608 
L 364.613281 -294.984064 
L 364.613281 -295.43652 
L 364.613281 -295.888976 
L 364.613281 -296.341432 
L 364.613281 -296.793888 
L 364.613281 -297.246344 
L 492.914805 -297.246344 
L 492.914805 -297.246344 
L 484.262194 -296.793888 
L 483.160121 -296.341432 
L 481.039 -295.888976 
L 472.478271 -295.43652 
L 443.045227 -294.984064 
L 422.11315 -294.531608 
z
" style="stroke: #ccf900; stroke-opacity: 0.7"/>
    </defs>
    <g clip-path="url(#p36c61c1213)">
     <use xlink:href="#m14480ff46f" x="0" y="432" style="fill: #ccf900; fill-opacity: 0.7; stroke: #ccf900; stroke-opacity: 0.7"/>
    </g>
   </g>
   <g id="PolyCollection_12">
    <defs>
     <path id="m187458f583" d="M 497.963056 -302.22336 
L 364.613281 -302.22336 
L 364.613281 -302.675816 
L 364.613281 -303.128272 
L 364.613281 -303.580728 
L 364.613281 -304.033184 
L 364.613281 -304.48564 
L 364.613281 -304.938096 
L 364.613281 -305.390552 
L 364.613281 -305.843008 
L 364.613281 -306.295464 
L 364.613281 -306.74792 
L 364.613281 -307.200376 
L 364.613281 -307.652832 
L 364.613281 -308.105288 
L 364.613281 -308.557744 
L 364.613281 -309.0102 
L 364.613281 -309.462656 
L 364.613281 -309.915112 
L 364.613281 -310.367568 
L 364.613281 -310.820024 
L 364.613281 -311.27248 
L 364.613281 -311.724936 
L 364.613281 -312.177392 
L 364.613281 -312.629848 
L 364.613281 -313.082304 
L 364.613281 -313.53476 
L 364.613281 -313.987216 
L 364.613281 -314.439672 
L 364.613281 -314.892128 
L 364.613281 -315.344584 
L 364.613281 -315.79704 
L 364.613281 -316.249496 
L 364.613281 -316.701952 
L 364.613281 -317.154408 
L 364.613281 -317.606864 
L 364.613281 -318.05932 
L 364.613281 -318.511776 
L 364.613281 -318.964232 
L 364.613281 -319.416688 
L 364.613281 -319.869144 
L 364.613281 -320.3216 
L 364.613281 -320.774056 
L 364.613281 -321.226512 
L 364.613281 -321.678968 
L 364.613281 -322.131424 
L 364.613281 -322.58388 
L 364.613281 -323.036336 
L 364.613281 -323.488792 
L 364.613281 -323.941248 
L 364.613281 -324.393704 
L 364.613281 -324.84616 
L 364.613281 -325.298616 
L 364.613281 -325.751072 
L 364.613281 -326.203528 
L 364.613281 -326.655984 
L 364.613281 -327.10844 
L 364.613281 -327.560896 
L 364.613281 -328.013352 
L 364.613281 -328.465808 
L 364.613281 -328.918264 
L 364.613281 -329.37072 
L 364.613281 -329.823176 
L 364.613281 -330.275632 
L 364.613281 -330.728088 
L 364.613281 -331.180544 
L 364.613281 -331.633 
L 364.613281 -332.085456 
L 364.613281 -332.537912 
L 364.613281 -332.990368 
L 364.613281 -333.442824 
L 364.613281 -333.89528 
L 364.613281 -334.347736 
L 364.613281 -334.800192 
L 364.613281 -335.252648 
L 364.613281 -335.705104 
L 364.613281 -336.15756 
L 364.613281 -336.610016 
L 364.613281 -337.062472 
L 364.613281 -337.514928 
L 364.613281 -337.967384 
L 364.613281 -338.41984 
L 364.613281 -338.872296 
L 364.613281 -339.324752 
L 364.613281 -339.777208 
L 364.613281 -340.229664 
L 364.613281 -340.68212 
L 364.613281 -341.134576 
L 364.613281 -341.587032 
L 364.613281 -342.039488 
L 364.613281 -342.491944 
L 364.613281 -342.9444 
L 364.613281 -343.396856 
L 364.613281 -343.849312 
L 364.613281 -344.301768 
L 364.613281 -344.754224 
L 364.613281 -345.20668 
L 364.613281 -345.659136 
L 364.613281 -346.111592 
L 364.613281 -346.564048 
L 364.613281 -347.016504 
L 364.613281 -347.46896 
L 364.613281 -347.921416 
L 364.613281 -348.373872 
L 364.613281 -348.826328 
L 364.613281 -349.278784 
L 364.613281 -349.73124 
L 364.613281 -350.183696 
L 364.613281 -350.636152 
L 364.613281 -351.088608 
L 364.613281 -351.541064 
L 364.613281 -351.99352 
L 364.613281 -352.445976 
L 364.613281 -352.898432 
L 364.613281 -353.350888 
L 364.613281 -353.803344 
L 364.613281 -354.2558 
L 364.613281 -354.708256 
L 364.613281 -355.160712 
L 364.613281 -355.613168 
L 364.613281 -356.065624 
L 364.613281 -356.51808 
L 364.613281 -356.970536 
L 364.613281 -357.422992 
L 364.613281 -357.875448 
L 364.613281 -358.327904 
L 364.613281 -358.78036 
L 364.613281 -359.232816 
L 364.613281 -359.685272 
L 364.613281 -360.137728 
L 364.613281 -360.590184 
L 364.613281 -361.04264 
L 364.613281 -361.495096 
L 364.613281 -361.947552 
L 364.613281 -362.400008 
L 364.613281 -362.852464 
L 364.613281 -363.30492 
L 364.613281 -363.757376 
L 364.613281 -364.209832 
L 364.613281 -364.662288 
L 364.613281 -365.114744 
L 364.613281 -365.5672 
L 364.613281 -366.019656 
L 364.613281 -366.472112 
L 364.613281 -366.924568 
L 364.613281 -367.377024 
L 364.613281 -367.82948 
L 364.613281 -368.281936 
L 364.613281 -368.734392 
L 364.613281 -369.186848 
L 364.613281 -369.639304 
L 364.613281 -370.09176 
L 364.613281 -370.544216 
L 364.613281 -370.996672 
L 364.613281 -371.449128 
L 364.613281 -371.901584 
L 364.613281 -372.35404 
L 364.613281 -372.806496 
L 364.613281 -373.258952 
L 364.613281 -373.711408 
L 364.613281 -374.163864 
L 364.613281 -374.61632 
L 364.613281 -375.068776 
L 364.613281 -375.521232 
L 364.613281 -375.973688 
L 364.613281 -376.426144 
L 364.613281 -376.8786 
L 364.613281 -377.331056 
L 364.613281 -377.783512 
L 364.613281 -378.235968 
L 364.613281 -378.688424 
L 364.613281 -379.14088 
L 364.613281 -379.593336 
L 364.613281 -380.045792 
L 364.613281 -380.498248 
L 364.613281 -380.950704 
L 364.613281 -381.40316 
L 364.613281 -381.855616 
L 364.613281 -382.308072 
L 364.613281 -382.760528 
L 364.613281 -383.212984 
L 364.613281 -383.66544 
L 364.613281 -384.117896 
L 364.613281 -384.570352 
L 364.613281 -385.022808 
L 364.613281 -385.475264 
L 364.613281 -385.92772 
L 364.613281 -386.380176 
L 364.613281 -386.832632 
L 364.613281 -387.285088 
L 364.613281 -387.737544 
L 364.613281 -388.19 
L 364.613281 -388.642456 
L 364.613281 -389.094912 
L 364.613281 -389.547368 
L 364.613281 -389.999824 
L 364.613281 -390.45228 
L 364.613281 -390.904736 
L 364.613281 -391.357192 
L 364.613281 -391.809648 
L 364.613281 -392.262104 
L 364.613281 -392.71456 
L 606.385188 -392.71456 
L 606.385188 -392.71456 
L 605.384624 -392.262104 
L 604.749039 -391.809648 
L 603.970213 -391.357192 
L 603.682051 -390.904736 
L 603.097769 -390.45228 
L 602.36961 -389.999824 
L 601.845871 -389.547368 
L 601.305441 -389.094912 
L 601.241621 -388.642456 
L 600.898894 -388.19 
L 600.8877 -387.737544 
L 599.484422 -387.285088 
L 599.430255 -386.832632 
L 599.377191 -386.380176 
L 597.917559 -385.92772 
L 597.43556 -385.475264 
L 597.419939 -385.022808 
L 597.21686 -384.570352 
L 596.506132 -384.117896 
L 596.416982 -383.66544 
L 596.387605 -383.212984 
L 595.909818 -382.760528 
L 595.573745 -382.308072 
L 595.544473 -381.855616 
L 595.493749 -381.40316 
L 595.303194 -380.950704 
L 594.618425 -380.498248 
L 594.606433 -380.045792 
L 594.234269 -379.593336 
L 593.975514 -379.14088 
L 593.966034 -378.688424 
L 593.956146 -378.235968 
L 593.89935 -377.783512 
L 593.749998 -377.331056 
L 593.46783 -376.8786 
L 593.427862 -376.426144 
L 593.003568 -375.973688 
L 592.727768 -375.521232 
L 592.706379 -375.068776 
L 592.337076 -374.61632 
L 592.309224 -374.163864 
L 592.153348 -373.711408 
L 592.010392 -373.258952 
L 590.916726 -372.806496 
L 590.915204 -372.35404 
L 590.838772 -371.901584 
L 590.80135 -371.449128 
L 590.648668 -370.996672 
L 590.48911 -370.544216 
L 590.422286 -370.09176 
L 590.340222 -369.639304 
L 590.067066 -369.186848 
L 589.890261 -368.734392 
L 589.296925 -368.281936 
L 589.198848 -367.82948 
L 589.196713 -367.377024 
L 588.813585 -366.924568 
L 588.686849 -366.472112 
L 588.67376 -366.019656 
L 588.617325 -365.5672 
L 588.273975 -365.114744 
L 588.213946 -364.662288 
L 587.89031 -364.209832 
L 587.643917 -363.757376 
L 586.658569 -363.30492 
L 586.010544 -362.852464 
L 585.813775 -362.400008 
L 585.781944 -361.947552 
L 585.770989 -361.495096 
L 585.747514 -361.04264 
L 585.636066 -360.590184 
L 585.601 -360.137728 
L 585.304766 -359.685272 
L 585.231827 -359.232816 
L 584.166295 -358.78036 
L 583.682672 -358.327904 
L 583.211577 -357.875448 
L 583.034731 -357.422992 
L 582.350676 -356.970536 
L 582.327548 -356.51808 
L 582.102476 -356.065624 
L 582.068764 -355.613168 
L 581.971423 -355.160712 
L 581.794793 -354.708256 
L 581.604984 -354.2558 
L 581.328881 -353.803344 
L 581.189278 -353.350888 
L 581.086477 -352.898432 
L 580.989086 -352.445976 
L 580.916608 -351.99352 
L 580.789581 -351.541064 
L 580.175517 -351.088608 
L 580.158274 -350.636152 
L 580.143722 -350.183696 
L 580.020518 -349.73124 
L 579.606285 -349.278784 
L 579.465401 -348.826328 
L 579.360789 -348.373872 
L 579.004353 -347.921416 
L 578.423918 -347.46896 
L 578.160819 -347.016504 
L 577.912239 -346.564048 
L 577.576703 -346.111592 
L 577.508781 -345.659136 
L 577.383379 -345.20668 
L 577.104141 -344.754224 
L 577.02052 -344.301768 
L 576.463248 -343.849312 
L 576.256405 -343.396856 
L 576.174256 -342.9444 
L 576.158733 -342.491944 
L 576.106043 -342.039488 
L 575.724557 -341.587032 
L 575.723512 -341.134576 
L 575.696092 -340.68212 
L 575.589228 -340.229664 
L 575.150583 -339.777208 
L 575.066968 -339.324752 
L 575.004623 -338.872296 
L 574.748872 -338.41984 
L 574.66462 -337.967384 
L 574.053758 -337.514928 
L 573.743593 -337.062472 
L 572.60501 -336.610016 
L 572.323722 -336.15756 
L 571.953996 -335.705104 
L 571.416829 -335.252648 
L 570.859889 -334.800192 
L 570.641623 -334.347736 
L 570.089378 -333.89528 
L 570.080469 -333.442824 
L 569.719902 -332.990368 
L 569.630355 -332.537912 
L 569.593049 -332.085456 
L 569.238352 -331.633 
L 568.654243 -331.180544 
L 567.73554 -330.728088 
L 567.708809 -330.275632 
L 567.526809 -329.823176 
L 567.426676 -329.37072 
L 567.189717 -328.918264 
L 567.015703 -328.465808 
L 566.684464 -328.013352 
L 566.121855 -327.560896 
L 565.045372 -327.10844 
L 564.719337 -326.655984 
L 562.544516 -326.203528 
L 562.021128 -325.751072 
L 561.508715 -325.298616 
L 560.943864 -324.84616 
L 560.916233 -324.393704 
L 560.704007 -323.941248 
L 560.177446 -323.488792 
L 559.939727 -323.036336 
L 559.932697 -322.58388 
L 559.408668 -322.131424 
L 559.131414 -321.678968 
L 558.241234 -321.226512 
L 557.511053 -320.774056 
L 557.370232 -320.3216 
L 557.117426 -319.869144 
L 556.694364 -319.416688 
L 556.532332 -318.964232 
L 556.387926 -318.511776 
L 556.200903 -318.05932 
L 555.759783 -317.606864 
L 555.75387 -317.154408 
L 555.740531 -316.701952 
L 554.826388 -316.249496 
L 553.130227 -315.79704 
L 553.010538 -315.344584 
L 552.960531 -314.892128 
L 552.299984 -314.439672 
L 551.884277 -313.987216 
L 551.707857 -313.53476 
L 551.584221 -313.082304 
L 551.12367 -312.629848 
L 548.01651 -312.177392 
L 547.929438 -311.724936 
L 546.037164 -311.27248 
L 546.02144 -310.820024 
L 544.98847 -310.367568 
L 544.286343 -309.915112 
L 542.868114 -309.462656 
L 542.00208 -309.0102 
L 541.923036 -308.557744 
L 539.527885 -308.105288 
L 538.226695 -307.652832 
L 535.510122 -307.200376 
L 535.489806 -306.74792 
L 532.578592 -306.295464 
L 530.727836 -305.843008 
L 530.552166 -305.390552 
L 529.431712 -304.938096 
L 529.389674 -304.48564 
L 527.792174 -304.033184 
L 522.278356 -303.580728 
L 518.080598 -303.128272 
L 510.664847 -302.675816 
L 497.963056 -302.22336 
z
" style="stroke: #f9d700; stroke-opacity: 0.7"/>
    </defs>
    <g clip-path="url(#p36c61c1213)">
     <use xlink:href="#m187458f583" x="0" y="432" style="fill: #f9d700; fill-opacity: 0.7; stroke: #f9d700; stroke-opacity: 0.7"/>
    </g>
   </g>
   <g id="PolyCollection_13">
    <defs>
     <path id="m0c6a08d5ff" d="M 612.149354 -397.691576 
L 364.613281 -397.691576 
L 364.613281 -398.144032 
L 364.613281 -398.596488 
L 364.613281 -399.048944 
L 364.613281 -399.5014 
L 364.613281 -399.953856 
L 364.613281 -400.406312 
L 364.613281 -400.858768 
L 364.613281 -401.311224 
L 648.535047 -401.311224 
L 648.535047 -401.311224 
L 646.985595 -400.858768 
L 643.723713 -400.406312 
L 633.879678 -399.953856 
L 628.662411 -399.5014 
L 628.168867 -399.048944 
L 621.686974 -398.596488 
L 615.864952 -398.144032 
L 612.149354 -397.691576 
z
" style="stroke: #ff9900; stroke-opacity: 0.7"/>
    </defs>
    <g clip-path="url(#p36c61c1213)">
     <use xlink:href="#m0c6a08d5ff" x="0" y="432" style="fill: #ff9900; fill-opacity: 0.7; stroke: #ff9900; stroke-opacity: 0.7"/>
    </g>
   </g>
   <g id="PolyCollection_14">
    <defs>
     <path id="m0fd986cd93" d="M 651.313643 -406.28824 
L 364.613281 -406.28824 
L 364.613281 -406.740695 
L 364.613281 -407.193151 
L 671.7342 -407.193151 
L 671.7342 -407.193151 
L 670.794401 -406.740695 
L 651.313643 -406.28824 
z
" style="stroke: #f40000; stroke-opacity: 0.7"/>
    </defs>
    <g clip-path="url(#p36c61c1213)">
     <use xlink:href="#m0fd986cd93" x="0" y="432" style="fill: #f40000; fill-opacity: 0.7; stroke: #f40000; stroke-opacity: 0.7"/>
    </g>
   </g>
   <g id="PolyCollection_15">
    <defs>
     <path id="medcd616be7" d="M 523.800333 -412.170167 
L 364.613281 -412.170167 
L 364.613281 -412.622623 
L 524.180148 -412.622623 
L 524.180148 -412.622623 
L 523.800333 -412.170167 
z
" style="stroke: #d20000; stroke-opacity: 0.7"/>
    </defs>
    <g clip-path="url(#p36c61c1213)">
     <use xlink:href="#medcd616be7" x="0" y="432" style="fill: #d20000; fill-opacity: 0.7; stroke: #d20000; stroke-opacity: 0.7"/>
    </g>
   </g>
   <g id="matplotlib.axis_1">
    <g id="xtick_1">
     <g id="line2d_1">
      <defs>
       <path id="mfd98676b0a" d="M 0 0 
L 0 3.5 
" style="stroke: #000000; stroke-width: 0.8"/>
      </defs>
      <g>
       <use xlink:href="#mfd98676b0a" x="27.978125" y="390.84375" style="stroke: #000000; stroke-width: 0.8"/>
      </g>
     </g>
     <g id="text_1">
      <!-- −1.0 -->
      <g transform="translate(15.836719 405.442187) scale(0.1 -0.1)">
       <defs>
        <path id="DejaVuSans-2212" d="M 678 2272 
L 4684 2272 
L 4684 1741 
L 678 1741 
L 678 2272 
z
" transform="scale(0.015625)"/>
        <path id="DejaVuSans-31" d="M 794 531 
L 1825 531 
L 1825 4091 
L 703 3866 
L 703 4441 
L 1819 4666 
L 2450 4666 
L 2450 531 
L 3481 531 
L 3481 0 
L 794 0 
L 794 531 
z
" transform="scale(0.015625)"/>
        <path id="DejaVuSans-2e" d="M 684 794 
L 1344 794 
L 1344 0 
L 684 0 
L 684 794 
z
" transform="scale(0.015625)"/>
        <path id="DejaVuSans-30" d="M 2034 4250 
Q 1547 4250 1301 3770 
Q 1056 3291 1056 2328 
Q 1056 1369 1301 889 
Q 1547 409 2034 409 
Q 2525 409 2770 889 
Q 3016 1369 3016 2328 
Q 3016 3291 2770 3770 
Q 2525 4250 2034 4250 
z
M 2034 4750 
Q 2819 4750 3233 4129 
Q 3647 3509 3647 2328 
Q 3647 1150 3233 529 
Q 2819 -91 2034 -91 
Q 1250 -91 836 529 
Q 422 1150 422 2328 
Q 422 3509 836 4129 
Q 1250 4750 2034 4750 
z
" transform="scale(0.015625)"/>
       </defs>
       <use xlink:href="#DejaVuSans-2212"/>
       <use xlink:href="#DejaVuSans-31" x="83.789062"/>
       <use xlink:href="#DejaVuSans-2e" x="147.412109"/>
       <use xlink:href="#DejaVuSans-30" x="179.199219"/>
      </g>
     </g>
    </g>
    <g id="xtick_2">
     <g id="line2d_2">
      <g>
       <use xlink:href="#mfd98676b0a" x="95.305156" y="390.84375" style="stroke: #000000; stroke-width: 0.8"/>
      </g>
     </g>
     <g id="text_2">
      <!-- −0.8 -->
      <g transform="translate(83.16375 405.442187) scale(0.1 -0.1)">
       <defs>
        <path id="DejaVuSans-38" d="M 2034 2216 
Q 1584 2216 1326 1975 
Q 1069 1734 1069 1313 
Q 1069 891 1326 650 
Q 1584 409 2034 409 
Q 2484 409 2743 651 
Q 3003 894 3003 1313 
Q 3003 1734 2745 1975 
Q 2488 2216 2034 2216 
z
M 1403 2484 
Q 997 2584 770 2862 
Q 544 3141 544 3541 
Q 544 4100 942 4425 
Q 1341 4750 2034 4750 
Q 2731 4750 3128 4425 
Q 3525 4100 3525 3541 
Q 3525 3141 3298 2862 
Q 3072 2584 2669 2484 
Q 3125 2378 3379 2068 
Q 3634 1759 3634 1313 
Q 3634 634 3220 271 
Q 2806 -91 2034 -91 
Q 1263 -91 848 271 
Q 434 634 434 1313 
Q 434 1759 690 2068 
Q 947 2378 1403 2484 
z
M 1172 3481 
Q 1172 3119 1398 2916 
Q 1625 2713 2034 2713 
Q 2441 2713 2670 2916 
Q 2900 3119 2900 3481 
Q 2900 3844 2670 4047 
Q 2441 4250 2034 4250 
Q 1625 4250 1398 4047 
Q 1172 3844 1172 3481 
z
" transform="scale(0.015625)"/>
       </defs>
       <use xlink:href="#DejaVuSans-2212"/>
       <use xlink:href="#DejaVuSans-30" x="83.789062"/>
       <use xlink:href="#DejaVuSans-2e" x="147.412109"/>
       <use xlink:href="#DejaVuSans-38" x="179.199219"/>
      </g>
     </g>
    </g>
    <g id="xtick_3">
     <g id="line2d_3">
      <g>
       <use xlink:href="#mfd98676b0a" x="162.632188" y="390.84375" style="stroke: #000000; stroke-width: 0.8"/>
      </g>
     </g>
     <g id="text_3">
      <!-- −0.6 -->
      <g transform="translate(150.490781 405.442187) scale(0.1 -0.1)">
       <defs>
        <path id="DejaVuSans-36" d="M 2113 2584 
Q 1688 2584 1439 2293 
Q 1191 2003 1191 1497 
Q 1191 994 1439 701 
Q 1688 409 2113 409 
Q 2538 409 2786 701 
Q 3034 994 3034 1497 
Q 3034 2003 2786 2293 
Q 2538 2584 2113 2584 
z
M 3366 4563 
L 3366 3988 
Q 3128 4100 2886 4159 
Q 2644 4219 2406 4219 
Q 1781 4219 1451 3797 
Q 1122 3375 1075 2522 
Q 1259 2794 1537 2939 
Q 1816 3084 2150 3084 
Q 2853 3084 3261 2657 
Q 3669 2231 3669 1497 
Q 3669 778 3244 343 
Q 2819 -91 2113 -91 
Q 1303 -91 875 529 
Q 447 1150 447 2328 
Q 447 3434 972 4092 
Q 1497 4750 2381 4750 
Q 2619 4750 2861 4703 
Q 3103 4656 3366 4563 
z
" transform="scale(0.015625)"/>
       </defs>
       <use xlink:href="#DejaVuSans-2212"/>
       <use xlink:href="#DejaVuSans-30" x="83.789062"/>
       <use xlink:href="#DejaVuSans-2e" x="147.412109"/>
       <use xlink:href="#DejaVuSans-36" x="179.199219"/>
      </g>
     </g>
    </g>
    <g id="xtick_4">
     <g id="line2d_4">
      <g>
       <use xlink:href="#mfd98676b0a" x="229.959219" y="390.84375" style="stroke: #000000; stroke-width: 0.8"/>
      </g>
     </g>
     <g id="text_4">
      <!-- −0.4 -->
      <g transform="translate(217.817813 405.442187) scale(0.1 -0.1)">
       <defs>
        <path id="DejaVuSans-34" d="M 2419 4116 
L 825 1625 
L 2419 1625 
L 2419 4116 
z
M 2253 4666 
L 3047 4666 
L 3047 1625 
L 3713 1625 
L 3713 1100 
L 3047 1100 
L 3047 0 
L 2419 0 
L 2419 1100 
L 313 1100 
L 313 1709 
L 2253 4666 
z
" transform="scale(0.015625)"/>
       </defs>
       <use xlink:href="#DejaVuSans-2212"/>
       <use xlink:href="#DejaVuSans-30" x="83.789062"/>
       <use xlink:href="#DejaVuSans-2e" x="147.412109"/>
       <use xlink:href="#DejaVuSans-34" x="179.199219"/>
      </g>
     </g>
    </g>
    <g id="xtick_5">
     <g id="line2d_5">
      <g>
       <use xlink:href="#mfd98676b0a" x="297.28625" y="390.84375" style="stroke: #000000; stroke-width: 0.8"/>
      </g>
     </g>
     <g id="text_5">
      <!-- −0.2 -->
      <g transform="translate(285.144844 405.442187) scale(0.1 -0.1)">
       <defs>
        <path id="DejaVuSans-32" d="M 1228 531 
L 3431 531 
L 3431 0 
L 469 0 
L 469 531 
Q 828 903 1448 1529 
Q 2069 2156 2228 2338 
Q 2531 2678 2651 2914 
Q 2772 3150 2772 3378 
Q 2772 3750 2511 3984 
Q 2250 4219 1831 4219 
Q 1534 4219 1204 4116 
Q 875 4013 500 3803 
L 500 4441 
Q 881 4594 1212 4672 
Q 1544 4750 1819 4750 
Q 2544 4750 2975 4387 
Q 3406 4025 3406 3419 
Q 3406 3131 3298 2873 
Q 3191 2616 2906 2266 
Q 2828 2175 2409 1742 
Q 1991 1309 1228 531 
z
" transform="scale(0.015625)"/>
       </defs>
       <use xlink:href="#DejaVuSans-2212"/>
       <use xlink:href="#DejaVuSans-30" x="83.789062"/>
       <use xlink:href="#DejaVuSans-2e" x="147.412109"/>
       <use xlink:href="#DejaVuSans-32" x="179.199219"/>
      </g>
     </g>
    </g>
    <g id="xtick_6">
     <g id="line2d_6">
      <g>
       <use xlink:href="#mfd98676b0a" x="364.613281" y="390.84375" style="stroke: #000000; stroke-width: 0.8"/>
      </g>
     </g>
     <g id="text_6">
      <!-- 0.0 -->
      <g transform="translate(356.661719 405.442187) scale(0.1 -0.1)">
       <use xlink:href="#DejaVuSans-30"/>
       <use xlink:href="#DejaVuSans-2e" x="63.623047"/>
       <use xlink:href="#DejaVuSans-30" x="95.410156"/>
      </g>
     </g>
    </g>
    <g id="xtick_7">
     <g id="line2d_7">
      <g>
       <use xlink:href="#mfd98676b0a" x="431.940313" y="390.84375" style="stroke: #000000; stroke-width: 0.8"/>
      </g>
     </g>
     <g id="text_7">
      <!-- 0.2 -->
      <g transform="translate(423.98875 405.442187) scale(0.1 -0.1)">
       <use xlink:href="#DejaVuSans-30"/>
       <use xlink:href="#DejaVuSans-2e" x="63.623047"/>
       <use xlink:href="#DejaVuSans-32" x="95.410156"/>
      </g>
     </g>
    </g>
    <g id="xtick_8">
     <g id="line2d_8">
      <g>
       <use xlink:href="#mfd98676b0a" x="499.267344" y="390.84375" style="stroke: #000000; stroke-width: 0.8"/>
      </g>
     </g>
     <g id="text_8">
      <!-- 0.4 -->
      <g transform="translate(491.315781 405.442187) scale(0.1 -0.1)">
       <use xlink:href="#DejaVuSans-30"/>
       <use xlink:href="#DejaVuSans-2e" x="63.623047"/>
       <use xlink:href="#DejaVuSans-34" x="95.410156"/>
      </g>
     </g>
    </g>
    <g id="xtick_9">
     <g id="line2d_9">
      <g>
       <use xlink:href="#mfd98676b0a" x="566.594375" y="390.84375" style="stroke: #000000; stroke-width: 0.8"/>
      </g>
     </g>
     <g id="text_9">
      <!-- 0.6 -->
      <g transform="translate(558.642812 405.442187) scale(0.1 -0.1)">
       <use xlink:href="#DejaVuSans-30"/>
       <use xlink:href="#DejaVuSans-2e" x="63.623047"/>
       <use xlink:href="#DejaVuSans-36" x="95.410156"/>
      </g>
     </g>
    </g>
    <g id="xtick_10">
     <g id="line2d_10">
      <g>
       <use xlink:href="#mfd98676b0a" x="633.921406" y="390.84375" style="stroke: #000000; stroke-width: 0.8"/>
      </g>
     </g>
     <g id="text_10">
      <!-- 0.8 -->
      <g transform="translate(625.969844 405.442187) scale(0.1 -0.1)">
       <use xlink:href="#DejaVuSans-30"/>
       <use xlink:href="#DejaVuSans-2e" x="63.623047"/>
       <use xlink:href="#DejaVuSans-38" x="95.410156"/>
      </g>
     </g>
    </g>
    <g id="xtick_11">
     <g id="line2d_11">
      <g>
       <use xlink:href="#mfd98676b0a" x="701.248437" y="390.84375" style="stroke: #000000; stroke-width: 0.8"/>
      </g>
     </g>
     <g id="text_11">
      <!-- 1.0 -->
      <g transform="translate(693.296875 405.442187) scale(0.1 -0.1)">
       <use xlink:href="#DejaVuSans-31"/>
       <use xlink:href="#DejaVuSans-2e" x="63.623047"/>
       <use xlink:href="#DejaVuSans-30" x="95.410156"/>
      </g>
     </g>
    </g>
    <g id="text_12">
     <!-- Silhouette coefficient -->
     <g transform="translate(311.463281 419.120313) scale(0.1 -0.1)">
      <defs>
       <path id="DejaVuSans-53" d="M 3425 4513 
L 3425 3897 
Q 3066 4069 2747 4153 
Q 2428 4238 2131 4238 
Q 1616 4238 1336 4038 
Q 1056 3838 1056 3469 
Q 1056 3159 1242 3001 
Q 1428 2844 1947 2747 
L 2328 2669 
Q 3034 2534 3370 2195 
Q 3706 1856 3706 1288 
Q 3706 609 3251 259 
Q 2797 -91 1919 -91 
Q 1588 -91 1214 -16 
Q 841 59 441 206 
L 441 856 
Q 825 641 1194 531 
Q 1563 422 1919 422 
Q 2459 422 2753 634 
Q 3047 847 3047 1241 
Q 3047 1584 2836 1778 
Q 2625 1972 2144 2069 
L 1759 2144 
Q 1053 2284 737 2584 
Q 422 2884 422 3419 
Q 422 4038 858 4394 
Q 1294 4750 2059 4750 
Q 2388 4750 2728 4690 
Q 3069 4631 3425 4513 
z
" transform="scale(0.015625)"/>
       <path id="DejaVuSans-69" d="M 603 3500 
L 1178 3500 
L 1178 0 
L 603 0 
L 603 3500 
z
M 603 4863 
L 1178 4863 
L 1178 4134 
L 603 4134 
L 603 4863 
z
" transform="scale(0.015625)"/>
       <path id="DejaVuSans-6c" d="M 603 4863 
L 1178 4863 
L 1178 0 
L 603 0 
L 603 4863 
z
" transform="scale(0.015625)"/>
       <path id="DejaVuSans-68" d="M 3513 2113 
L 3513 0 
L 2938 0 
L 2938 2094 
Q 2938 2591 2744 2837 
Q 2550 3084 2163 3084 
Q 1697 3084 1428 2787 
Q 1159 2491 1159 1978 
L 1159 0 
L 581 0 
L 581 4863 
L 1159 4863 
L 1159 2956 
Q 1366 3272 1645 3428 
Q 1925 3584 2291 3584 
Q 2894 3584 3203 3211 
Q 3513 2838 3513 2113 
z
" transform="scale(0.015625)"/>
       <path id="DejaVuSans-6f" d="M 1959 3097 
Q 1497 3097 1228 2736 
Q 959 2375 959 1747 
Q 959 1119 1226 758 
Q 1494 397 1959 397 
Q 2419 397 2687 759 
Q 2956 1122 2956 1747 
Q 2956 2369 2687 2733 
Q 2419 3097 1959 3097 
z
M 1959 3584 
Q 2709 3584 3137 3096 
Q 3566 2609 3566 1747 
Q 3566 888 3137 398 
Q 2709 -91 1959 -91 
Q 1206 -91 779 398 
Q 353 888 353 1747 
Q 353 2609 779 3096 
Q 1206 3584 1959 3584 
z
" transform="scale(0.015625)"/>
       <path id="DejaVuSans-75" d="M 544 1381 
L 544 3500 
L 1119 3500 
L 1119 1403 
Q 1119 906 1312 657 
Q 1506 409 1894 409 
Q 2359 409 2629 706 
Q 2900 1003 2900 1516 
L 2900 3500 
L 3475 3500 
L 3475 0 
L 2900 0 
L 2900 538 
Q 2691 219 2414 64 
Q 2138 -91 1772 -91 
Q 1169 -91 856 284 
Q 544 659 544 1381 
z
M 1991 3584 
L 1991 3584 
z
" transform="scale(0.015625)"/>
       <path id="DejaVuSans-65" d="M 3597 1894 
L 3597 1613 
L 953 1613 
Q 991 1019 1311 708 
Q 1631 397 2203 397 
Q 2534 397 2845 478 
Q 3156 559 3463 722 
L 3463 178 
Q 3153 47 2828 -22 
Q 2503 -91 2169 -91 
Q 1331 -91 842 396 
Q 353 884 353 1716 
Q 353 2575 817 3079 
Q 1281 3584 2069 3584 
Q 2775 3584 3186 3129 
Q 3597 2675 3597 1894 
z
M 3022 2063 
Q 3016 2534 2758 2815 
Q 2500 3097 2075 3097 
Q 1594 3097 1305 2825 
Q 1016 2553 972 2059 
L 3022 2063 
z
" transform="scale(0.015625)"/>
       <path id="DejaVuSans-74" d="M 1172 4494 
L 1172 3500 
L 2356 3500 
L 2356 3053 
L 1172 3053 
L 1172 1153 
Q 1172 725 1289 603 
Q 1406 481 1766 481 
L 2356 481 
L 2356 0 
L 1766 0 
Q 1100 0 847 248 
Q 594 497 594 1153 
L 594 3053 
L 172 3053 
L 172 3500 
L 594 3500 
L 594 4494 
L 1172 4494 
z
" transform="scale(0.015625)"/>
       <path id="DejaVuSans-20" transform="scale(0.015625)"/>
       <path id="DejaVuSans-63" d="M 3122 3366 
L 3122 2828 
Q 2878 2963 2633 3030 
Q 2388 3097 2138 3097 
Q 1578 3097 1268 2742 
Q 959 2388 959 1747 
Q 959 1106 1268 751 
Q 1578 397 2138 397 
Q 2388 397 2633 464 
Q 2878 531 3122 666 
L 3122 134 
Q 2881 22 2623 -34 
Q 2366 -91 2075 -91 
Q 1284 -91 818 406 
Q 353 903 353 1747 
Q 353 2603 823 3093 
Q 1294 3584 2113 3584 
Q 2378 3584 2631 3529 
Q 2884 3475 3122 3366 
z
" transform="scale(0.015625)"/>
       <path id="DejaVuSans-66" d="M 2375 4863 
L 2375 4384 
L 1825 4384 
Q 1516 4384 1395 4259 
Q 1275 4134 1275 3809 
L 1275 3500 
L 2222 3500 
L 2222 3053 
L 1275 3053 
L 1275 0 
L 697 0 
L 697 3053 
L 147 3053 
L 147 3500 
L 697 3500 
L 697 3744 
Q 697 4328 969 4595 
Q 1241 4863 1831 4863 
L 2375 4863 
z
" transform="scale(0.015625)"/>
       <path id="DejaVuSans-6e" d="M 3513 2113 
L 3513 0 
L 2938 0 
L 2938 2094 
Q 2938 2591 2744 2837 
Q 2550 3084 2163 3084 
Q 1697 3084 1428 2787 
Q 1159 2491 1159 1978 
L 1159 0 
L 581 0 
L 581 3500 
L 1159 3500 
L 1159 2956 
Q 1366 3272 1645 3428 
Q 1925 3584 2291 3584 
Q 2894 3584 3203 3211 
Q 3513 2838 3513 2113 
z
" transform="scale(0.015625)"/>
      </defs>
      <use xlink:href="#DejaVuSans-53"/>
      <use xlink:href="#DejaVuSans-69" x="63.476562"/>
      <use xlink:href="#DejaVuSans-6c" x="91.259766"/>
      <use xlink:href="#DejaVuSans-68" x="119.042969"/>
      <use xlink:href="#DejaVuSans-6f" x="182.421875"/>
      <use xlink:href="#DejaVuSans-75" x="243.603516"/>
      <use xlink:href="#DejaVuSans-65" x="306.982422"/>
      <use xlink:href="#DejaVuSans-74" x="368.505859"/>
      <use xlink:href="#DejaVuSans-74" x="407.714844"/>
      <use xlink:href="#DejaVuSans-65" x="446.923828"/>
      <use xlink:href="#DejaVuSans-20" x="508.447266"/>
      <use xlink:href="#DejaVuSans-63" x="540.234375"/>
      <use xlink:href="#DejaVuSans-6f" x="595.214844"/>
      <use xlink:href="#DejaVuSans-65" x="656.396484"/>
      <use xlink:href="#DejaVuSans-66" x="717.919922"/>
      <use xlink:href="#DejaVuSans-66" x="753.125"/>
      <use xlink:href="#DejaVuSans-69" x="788.330078"/>
      <use xlink:href="#DejaVuSans-63" x="816.113281"/>
      <use xlink:href="#DejaVuSans-69" x="871.09375"/>
      <use xlink:href="#DejaVuSans-65" x="898.876953"/>
      <use xlink:href="#DejaVuSans-6e" x="960.400391"/>
      <use xlink:href="#DejaVuSans-74" x="1023.779297"/>
     </g>
    </g>
   </g>
   <g id="matplotlib.axis_2">
    <g id="text_13">
     <!-- Predicted label -->
     <g transform="translate(18.398438 239.774399) rotate(-90) scale(0.1 -0.1)">
      <defs>
       <path id="DejaVuSans-50" d="M 1259 4147 
L 1259 2394 
L 2053 2394 
Q 2494 2394 2734 2622 
Q 2975 2850 2975 3272 
Q 2975 3691 2734 3919 
Q 2494 4147 2053 4147 
L 1259 4147 
z
M 628 4666 
L 2053 4666 
Q 2838 4666 3239 4311 
Q 3641 3956 3641 3272 
Q 3641 2581 3239 2228 
Q 2838 1875 2053 1875 
L 1259 1875 
L 1259 0 
L 628 0 
L 628 4666 
z
" transform="scale(0.015625)"/>
       <path id="DejaVuSans-72" d="M 2631 2963 
Q 2534 3019 2420 3045 
Q 2306 3072 2169 3072 
Q 1681 3072 1420 2755 
Q 1159 2438 1159 1844 
L 1159 0 
L 581 0 
L 581 3500 
L 1159 3500 
L 1159 2956 
Q 1341 3275 1631 3429 
Q 1922 3584 2338 3584 
Q 2397 3584 2469 3576 
Q 2541 3569 2628 3553 
L 2631 2963 
z
" transform="scale(0.015625)"/>
       <path id="DejaVuSans-64" d="M 2906 2969 
L 2906 4863 
L 3481 4863 
L 3481 0 
L 2906 0 
L 2906 525 
Q 2725 213 2448 61 
Q 2172 -91 1784 -91 
Q 1150 -91 751 415 
Q 353 922 353 1747 
Q 353 2572 751 3078 
Q 1150 3584 1784 3584 
Q 2172 3584 2448 3432 
Q 2725 3281 2906 2969 
z
M 947 1747 
Q 947 1113 1208 752 
Q 1469 391 1925 391 
Q 2381 391 2643 752 
Q 2906 1113 2906 1747 
Q 2906 2381 2643 2742 
Q 2381 3103 1925 3103 
Q 1469 3103 1208 2742 
Q 947 2381 947 1747 
z
" transform="scale(0.015625)"/>
       <path id="DejaVuSans-61" d="M 2194 1759 
Q 1497 1759 1228 1600 
Q 959 1441 959 1056 
Q 959 750 1161 570 
Q 1363 391 1709 391 
Q 2188 391 2477 730 
Q 2766 1069 2766 1631 
L 2766 1759 
L 2194 1759 
z
M 3341 1997 
L 3341 0 
L 2766 0 
L 2766 531 
Q 2569 213 2275 61 
Q 1981 -91 1556 -91 
Q 1019 -91 701 211 
Q 384 513 384 1019 
Q 384 1609 779 1909 
Q 1175 2209 1959 2209 
L 2766 2209 
L 2766 2266 
Q 2766 2663 2505 2880 
Q 2244 3097 1772 3097 
Q 1472 3097 1187 3025 
Q 903 2953 641 2809 
L 641 3341 
Q 956 3463 1253 3523 
Q 1550 3584 1831 3584 
Q 2591 3584 2966 3190 
Q 3341 2797 3341 1997 
z
" transform="scale(0.015625)"/>
       <path id="DejaVuSans-62" d="M 3116 1747 
Q 3116 2381 2855 2742 
Q 2594 3103 2138 3103 
Q 1681 3103 1420 2742 
Q 1159 2381 1159 1747 
Q 1159 1113 1420 752 
Q 1681 391 2138 391 
Q 2594 391 2855 752 
Q 3116 1113 3116 1747 
z
M 1159 2969 
Q 1341 3281 1617 3432 
Q 1894 3584 2278 3584 
Q 2916 3584 3314 3078 
Q 3713 2572 3713 1747 
Q 3713 922 3314 415 
Q 2916 -91 2278 -91 
Q 1894 -91 1617 61 
Q 1341 213 1159 525 
L 1159 0 
L 581 0 
L 581 4863 
L 1159 4863 
L 1159 2969 
z
" transform="scale(0.015625)"/>
      </defs>
      <use xlink:href="#DejaVuSans-50"/>
      <use xlink:href="#DejaVuSans-72" x="58.552734"/>
      <use xlink:href="#DejaVuSans-65" x="97.416016"/>
      <use xlink:href="#DejaVuSans-64" x="158.939453"/>
      <use xlink:href="#DejaVuSans-69" x="222.416016"/>
      <use xlink:href="#DejaVuSans-63" x="250.199219"/>
      <use xlink:href="#DejaVuSans-74" x="305.179688"/>
      <use xlink:href="#DejaVuSans-65" x="344.388672"/>
      <use xlink:href="#DejaVuSans-64" x="405.912109"/>
      <use xlink:href="#DejaVuSans-20" x="469.388672"/>
      <use xlink:href="#DejaVuSans-6c" x="501.175781"/>
      <use xlink:href="#DejaVuSans-61" x="528.958984"/>
      <use xlink:href="#DejaVuSans-62" x="590.238281"/>
      <use xlink:href="#DejaVuSans-65" x="653.714844"/>
      <use xlink:href="#DejaVuSans-6c" x="715.238281"/>
     </g>
    </g>
   </g>
   <g id="line2d_12">
    <path d="M 541.029847 390.84375 
L 541.029847 14.400361 
" clip-path="url(#p36c61c1213)" style="fill: none; stroke: #ff0000; stroke-width: 1.5; stroke-linecap: square"/>
   </g>
   <g id="patch_3">
    <path d="M 27.978125 390.84375 
L 27.978125 14.400361 
" style="fill: none; stroke: #000000; stroke-width: 0.8; stroke-linejoin: miter; stroke-linecap: square"/>
   </g>
   <g id="patch_4">
    <path d="M 701.248437 390.84375 
L 701.248437 14.400361 
" style="fill: none; stroke: #000000; stroke-width: 0.8; stroke-linejoin: miter; stroke-linecap: square"/>
   </g>
   <g id="patch_5">
    <path d="M 27.978125 390.84375 
L 701.248437 390.84375 
" style="fill: none; stroke: #000000; stroke-width: 0.8; stroke-linejoin: miter; stroke-linecap: square"/>
   </g>
   <g id="patch_6">
    <path d="M 27.978125 14.400361 
L 701.248437 14.400361 
" style="fill: none; stroke: #000000; stroke-width: 0.8; stroke-linejoin: miter; stroke-linecap: square"/>
   </g>
   <g id="text_14">
    <!-- 0 -->
    <g transform="translate(347.781523 369.125862) scale(0.1 -0.1)">
     <use xlink:href="#DejaVuSans-30"/>
    </g>
   </g>
   <g id="text_15">
    <!-- 1 -->
    <g transform="translate(347.781523 324.10649) scale(0.1 -0.1)">
     <use xlink:href="#DejaVuSans-31"/>
    </g>
   </g>
   <g id="text_16">
    <!-- 2 -->
    <g transform="translate(347.781523 276.598611) scale(0.1 -0.1)">
     <use xlink:href="#DejaVuSans-32"/>
    </g>
   </g>
   <g id="text_17">
    <!-- 3 -->
    <g transform="translate(347.781523 249.225023) scale(0.1 -0.1)">
     <defs>
      <path id="DejaVuSans-33" d="M 2597 2516 
Q 3050 2419 3304 2112 
Q 3559 1806 3559 1356 
Q 3559 666 3084 287 
Q 2609 -91 1734 -91 
Q 1441 -91 1130 -33 
Q 819 25 488 141 
L 488 750 
Q 750 597 1062 519 
Q 1375 441 1716 441 
Q 2309 441 2620 675 
Q 2931 909 2931 1356 
Q 2931 1769 2642 2001 
Q 2353 2234 1838 2234 
L 1294 2234 
L 1294 2753 
L 1863 2753 
Q 2328 2753 2575 2939 
Q 2822 3125 2822 3475 
Q 2822 3834 2567 4026 
Q 2313 4219 1838 4219 
Q 1578 4219 1281 4162 
Q 984 4106 628 3988 
L 628 4550 
Q 988 4650 1302 4700 
Q 1616 4750 1894 4750 
Q 2613 4750 3031 4423 
Q 3450 4097 3450 3541 
Q 3450 3153 3228 2886 
Q 3006 2619 2597 2516 
z
" transform="scale(0.015625)"/>
     </defs>
     <use xlink:href="#DejaVuSans-33"/>
    </g>
   </g>
   <g id="text_18">
    <!-- 4 -->
    <g transform="translate(347.781523 236.782483) scale(0.1 -0.1)">
     <use xlink:href="#DejaVuSans-34"/>
    </g>
   </g>
   <g id="text_19">
    <!-- 5 -->
    <g transform="translate(347.781523 225.471083) scale(0.1 -0.1)">
     <defs>
      <path id="DejaVuSans-35" d="M 691 4666 
L 3169 4666 
L 3169 4134 
L 1269 4134 
L 1269 2991 
Q 1406 3038 1543 3061 
Q 1681 3084 1819 3084 
Q 2600 3084 3056 2656 
Q 3513 2228 3513 1497 
Q 3513 744 3044 326 
Q 2575 -91 1722 -91 
Q 1428 -91 1123 -41 
Q 819 9 494 109 
L 494 744 
Q 775 591 1075 516 
Q 1375 441 1709 441 
Q 2250 441 2565 725 
Q 2881 1009 2881 1497 
Q 2881 1984 2565 2268 
Q 2250 2553 1709 2553 
Q 1456 2553 1204 2497 
Q 953 2441 691 2322 
L 691 4666 
z
" transform="scale(0.015625)"/>
     </defs>
     <use xlink:href="#DejaVuSans-35"/>
    </g>
   </g>
   <g id="text_20">
    <!-- 6 -->
    <g transform="translate(347.781523 203.526967) scale(0.1 -0.1)">
     <use xlink:href="#DejaVuSans-36"/>
    </g>
   </g>
   <g id="text_21">
    <!-- 7 -->
    <g transform="translate(347.781523 181.809079) scale(0.1 -0.1)">
     <defs>
      <path id="DejaVuSans-37" d="M 525 4666 
L 3525 4666 
L 3525 4397 
L 1831 0 
L 1172 0 
L 2766 4134 
L 525 4134 
L 525 4666 
z
" transform="scale(0.015625)"/>
     </defs>
     <use xlink:href="#DejaVuSans-37"/>
    </g>
   </g>
   <g id="text_22">
    <!-- 8 -->
    <g transform="translate(347.781523 170.950136) scale(0.1 -0.1)">
     <use xlink:href="#DejaVuSans-38"/>
    </g>
   </g>
   <g id="text_23">
    <!-- 9 -->
    <g transform="translate(347.781523 151.946984) scale(0.1 -0.1)">
     <defs>
      <path id="DejaVuSans-39" d="M 703 97 
L 703 672 
Q 941 559 1184 500 
Q 1428 441 1663 441 
Q 2288 441 2617 861 
Q 2947 1281 2994 2138 
Q 2813 1869 2534 1725 
Q 2256 1581 1919 1581 
Q 1219 1581 811 2004 
Q 403 2428 403 3163 
Q 403 3881 828 4315 
Q 1253 4750 1959 4750 
Q 2769 4750 3195 4129 
Q 3622 3509 3622 2328 
Q 3622 1225 3098 567 
Q 2575 -91 1691 -91 
Q 1453 -91 1209 -44 
Q 966 3 703 97 
z
M 1959 2075 
Q 2384 2075 2632 2365 
Q 2881 2656 2881 3163 
Q 2881 3666 2632 3958 
Q 2384 4250 1959 4250 
Q 1534 4250 1286 3958 
Q 1038 3666 1038 3163 
Q 1038 2656 1286 2365 
Q 1534 2075 1959 2075 
z
" transform="scale(0.015625)"/>
     </defs>
     <use xlink:href="#DejaVuSans-39"/>
    </g>
   </g>
   <g id="text_24">
    <!-- 10 -->
    <g transform="translate(347.781523 135.884796) scale(0.1 -0.1)">
     <use xlink:href="#DejaVuSans-31"/>
     <use xlink:href="#DejaVuSans-30" x="63.623047"/>
    </g>
   </g>
   <g id="text_25">
    <!-- 11 -->
    <g transform="translate(347.781523 84.304812) scale(0.1 -0.1)">
     <use xlink:href="#DejaVuSans-31"/>
     <use xlink:href="#DejaVuSans-31" x="63.623047"/>
    </g>
   </g>
   <g id="text_26">
    <!-- 12 -->
    <g transform="translate(347.781523 32.272372) scale(0.1 -0.1)">
     <use xlink:href="#DejaVuSans-31"/>
     <use xlink:href="#DejaVuSans-32" x="63.623047"/>
    </g>
   </g>
   <g id="text_27">
    <!-- 13 -->
    <g transform="translate(347.781523 25.033077) scale(0.1 -0.1)">
     <use xlink:href="#DejaVuSans-31"/>
     <use xlink:href="#DejaVuSans-33" x="63.623047"/>
    </g>
   </g>
   <g id="text_28">
    <!-- 14 -->
    <g transform="translate(347.781523 19.377377) scale(0.1 -0.1)">
     <use xlink:href="#DejaVuSans-31"/>
     <use xlink:href="#DejaVuSans-34" x="63.623047"/>
    </g>
   </g>
   <g id="text_29">
    <!-- 0.5241 -->
    <g style="fill: #ff0000" transform="translate(557.861605 18.924921) scale(0.1 -0.1)">
     <use xlink:href="#DejaVuSans-30"/>
     <use xlink:href="#DejaVuSans-2e" x="63.623047"/>
     <use xlink:href="#DejaVuSans-35" x="95.410156"/>
     <use xlink:href="#DejaVuSans-32" x="159.033203"/>
     <use xlink:href="#DejaVuSans-34" x="222.65625"/>
     <use xlink:href="#DejaVuSans-31" x="286.279297"/>
    </g>
   </g>
  </g>
 </g>
 <defs>
  <clipPath id="p36c61c1213">
   <rect x="27.978125" y="14.400361" width="673.270312" height="376.443389"/>
  </clipPath>
 </defs>
</svg>
