<?xml version="1.0" encoding="utf-8" standalone="no"?>
<!DOCTYPE svg PUBLIC "-//W3C//DTD SVG 1.1//EN"
  "http://www.w3.org/Graphics/SVG/1.1/DTD/svg11.dtd">
<svg xmlns:xlink="http://www.w3.org/1999/xlink" width="720pt" height="720pt" viewBox="0 0 720 720" xmlns="http://www.w3.org/2000/svg" version="1.1">
 <metadata>
  <rdf:RDF xmlns:dc="http://purl.org/dc/elements/1.1/" xmlns:cc="http://creativecommons.org/ns#" xmlns:rdf="http://www.w3.org/1999/02/22-rdf-syntax-ns#">
   <cc:Work>
    <dc:type rdf:resource="http://purl.org/dc/dcmitype/StillImage"/>
    <dc:date>2022-11-17T19:11:17.901640</dc:date>
    <dc:format>image/svg+xml</dc:format>
    <dc:creator>
     <cc:Agent>
      <dc:title>Matplotlib v3.6.1, https://matplotlib.org/</dc:title>
     </cc:Agent>
    </dc:creator>
   </cc:Work>
  </rdf:RDF>
 </metadata>
 <defs>
  <style type="text/css">*{stroke-linejoin: round; stroke-linecap: butt}</style>
 </defs>
 <g id="figure_1">
  <g id="patch_1">
   <path d="M 0 720 
L 720 720 
L 720 0 
L 0 0 
z
" style="fill: #ffffff"/>
  </g>
  <g id="axes_1">
   <g id="patch_2">
    <path d="M 27.978125 678.84375 
L 701.248437 678.84375 
L 701.248437 11.734976 
L 27.978125 11.734976 
z
" style="fill: #ffffff"/>
   </g>
   <g id="PolyCollection_1">
    <defs>
     <path id="m8e06b0f77e" d="M 422.551458 -49.174384 
L 364.613281 -49.174384 
L 364.613281 -49.976198 
L 364.613281 -50.778011 
L 364.613281 -51.579825 
L 364.613281 -52.381638 
L 364.613281 -53.183451 
L 364.613281 -53.985265 
L 364.613281 -54.787078 
L 364.613281 -55.588892 
L 364.613281 -56.390705 
L 364.613281 -57.192519 
L 364.613281 -57.994332 
L 364.613281 -58.796145 
L 364.613281 -59.597959 
L 364.613281 -60.399772 
L 364.613281 -61.201586 
L 364.613281 -62.003399 
L 364.613281 -62.805213 
L 364.613281 -63.607026 
L 364.613281 -64.408839 
L 364.613281 -65.210653 
L 364.613281 -66.012466 
L 364.613281 -66.81428 
L 364.613281 -67.616093 
L 364.613281 -68.417907 
L 364.613281 -69.21972 
L 364.613281 -70.021533 
L 364.613281 -70.823347 
L 364.613281 -71.62516 
L 364.613281 -72.426974 
L 364.613281 -73.228787 
L 364.613281 -74.030601 
L 364.613281 -74.832414 
L 364.613281 -75.634228 
L 364.613281 -76.436041 
L 364.613281 -77.237854 
L 364.613281 -78.039668 
L 364.613281 -78.841481 
L 364.613281 -79.643295 
L 364.613281 -80.445108 
L 364.613281 -81.246922 
L 364.613281 -82.048735 
L 364.613281 -82.850548 
L 364.613281 -83.652362 
L 364.613281 -84.454175 
L 364.613281 -85.255989 
L 364.613281 -86.057802 
L 364.613281 -86.859616 
L 364.613281 -87.661429 
L 364.613281 -88.463242 
L 364.613281 -89.265056 
L 364.613281 -90.066869 
L 364.613281 -90.868683 
L 364.613281 -91.670496 
L 364.613281 -92.47231 
L 364.613281 -93.274123 
L 364.613281 -94.075936 
L 364.613281 -94.87775 
L 364.613281 -95.679563 
L 364.613281 -96.481377 
L 364.613281 -97.28319 
L 364.613281 -98.085004 
L 364.613281 -98.886817 
L 364.613281 -99.68863 
L 364.613281 -100.490444 
L 364.613281 -101.292257 
L 364.613281 -102.094071 
L 364.613281 -102.895884 
L 364.613281 -103.697698 
L 364.613281 -104.499511 
L 364.613281 -105.301324 
L 364.613281 -106.103138 
L 364.613281 -106.904951 
L 364.613281 -107.706765 
L 364.613281 -108.508578 
L 364.613281 -109.310392 
L 585.076466 -109.310392 
L 585.076466 -109.310392 
L 584.776118 -108.508578 
L 584.519656 -107.706765 
L 584.500401 -106.904951 
L 584.368924 -106.103138 
L 583.854023 -105.301324 
L 583.267231 -104.499511 
L 582.965 -103.697698 
L 582.676304 -102.895884 
L 573.455441 -102.094071 
L 573.064931 -101.292257 
L 572.91685 -100.490444 
L 572.782886 -99.68863 
L 572.553483 -98.886817 
L 571.910734 -98.085004 
L 571.685526 -97.28319 
L 571.234495 -96.481377 
L 570.047522 -95.679563 
L 569.002554 -94.87775 
L 568.271686 -94.075936 
L 566.457627 -93.274123 
L 566.392001 -92.47231 
L 566.287644 -91.670496 
L 565.936858 -90.868683 
L 565.55833 -90.066869 
L 564.684729 -89.265056 
L 564.510166 -88.463242 
L 563.930977 -87.661429 
L 563.671866 -86.859616 
L 562.160999 -86.057802 
L 561.119414 -85.255989 
L 559.217111 -84.454175 
L 556.755916 -83.652362 
L 554.326091 -82.850548 
L 551.276235 -82.048735 
L 550.279894 -81.246922 
L 548.621899 -80.445108 
L 547.6003 -79.643295 
L 547.176707 -78.841481 
L 545.120832 -78.039668 
L 543.667712 -77.237854 
L 543.413334 -76.436041 
L 540.614884 -75.634228 
L 537.450598 -74.832414 
L 536.592654 -74.030601 
L 534.272247 -73.228787 
L 533.841856 -72.426974 
L 528.321664 -71.62516 
L 526.124279 -70.823347 
L 524.617374 -70.021533 
L 523.592928 -69.21972 
L 520.166954 -68.417907 
L 519.562068 -67.616093 
L 517.768326 -66.81428 
L 517.704661 -66.012466 
L 514.889774 -65.210653 
L 503.164427 -64.408839 
L 497.570021 -63.607026 
L 496.879316 -62.805213 
L 496.028082 -62.003399 
L 495.97078 -61.201586 
L 495.857047 -60.399772 
L 493.527209 -59.597959 
L 493.129941 -58.796145 
L 492.123853 -57.994332 
L 490.503922 -57.192519 
L 487.139 -56.390705 
L 486.033815 -55.588892 
L 484.657922 -54.787078 
L 477.905932 -53.985265 
L 466.786584 -53.183451 
L 448.167621 -52.381638 
L 448.167478 -51.579825 
L 444.914796 -50.778011 
L 431.281593 -49.976198 
L 422.551458 -49.174384 
z
" style="stroke: #000000; stroke-opacity: 0.7"/>
    </defs>
    <g clip-path="url(#p6404db7758)">
     <use xlink:href="#m8e06b0f77e" x="0" y="720" style="fill-opacity: 0.7; stroke: #000000; stroke-opacity: 0.7"/>
    </g>
   </g>
   <g id="PolyCollection_2">
    <defs>
     <path id="m93ac1f4075" d="M 300.153498 -118.130339 
L 364.613281 -118.130339 
L 364.613281 -118.932153 
L 364.613281 -119.733966 
L 364.613281 -120.53578 
L 364.613281 -121.337593 
L 364.613281 -122.139406 
L 364.613281 -122.94122 
L 364.613281 -123.743033 
L 364.613281 -124.544847 
L 364.613281 -125.34666 
L 364.613281 -126.148474 
L 364.613281 -126.950287 
L 364.613281 -127.7521 
L 364.613281 -128.553914 
L 364.613281 -129.355727 
L 364.613281 -130.157541 
L 364.613281 -130.959354 
L 364.613281 -131.761168 
L 364.613281 -132.562981 
L 364.613281 -133.364794 
L 364.613281 -134.166608 
L 364.613281 -134.968421 
L 364.613281 -135.770235 
L 364.613281 -136.572048 
L 364.613281 -137.373862 
L 364.613281 -138.175675 
L 364.613281 -138.977489 
L 364.613281 -139.779302 
L 364.613281 -140.581115 
L 364.613281 -141.382929 
L 364.613281 -142.184742 
L 364.613281 -142.986556 
L 364.613281 -143.788369 
L 364.613281 -144.590183 
L 364.613281 -145.391996 
L 364.613281 -146.193809 
L 364.613281 -146.995623 
L 364.613281 -147.797436 
L 364.613281 -148.59925 
L 364.613281 -149.401063 
L 364.613281 -150.202877 
L 364.613281 -151.00469 
L 364.613281 -151.806503 
L 364.613281 -152.608317 
L 364.613281 -153.41013 
L 364.613281 -154.211944 
L 364.613281 -155.013757 
L 364.613281 -155.815571 
L 364.613281 -156.617384 
L 364.613281 -157.419197 
L 364.613281 -158.221011 
L 364.613281 -159.022824 
L 364.613281 -159.824638 
L 364.613281 -160.626451 
L 364.613281 -161.428265 
L 364.613281 -162.230078 
L 364.613281 -163.031891 
L 364.613281 -163.833705 
L 364.613281 -164.635518 
L 364.613281 -165.437332 
L 364.613281 -166.239145 
L 364.613281 -167.040959 
L 364.613281 -167.842772 
L 364.613281 -168.644585 
L 364.613281 -169.446399 
L 364.613281 -170.248212 
L 364.613281 -171.050026 
L 364.613281 -171.851839 
L 364.613281 -172.653653 
L 364.613281 -173.455466 
L 364.613281 -174.257279 
L 364.613281 -175.059093 
L 364.613281 -175.860906 
L 364.613281 -176.66272 
L 364.613281 -177.464533 
L 364.613281 -178.266347 
L 364.613281 -179.06816 
L 364.613281 -179.869973 
L 364.613281 -180.671787 
L 364.613281 -181.4736 
L 364.613281 -182.275414 
L 364.613281 -183.077227 
L 364.613281 -183.879041 
L 364.613281 -184.680854 
L 364.613281 -185.482667 
L 364.613281 -186.284481 
L 364.613281 -187.086294 
L 364.613281 -187.888108 
L 364.613281 -188.689921 
L 364.613281 -189.491735 
L 364.613281 -190.293548 
L 364.613281 -191.095361 
L 364.613281 -191.897175 
L 364.613281 -192.698988 
L 364.613281 -193.500802 
L 364.613281 -194.302615 
L 364.613281 -195.104429 
L 364.613281 -195.906242 
L 364.613281 -196.708055 
L 364.613281 -197.509869 
L 364.613281 -198.311682 
L 364.613281 -199.113496 
L 364.613281 -199.915309 
L 559.32504 -199.915309 
L 559.32504 -199.915309 
L 559.266225 -199.113496 
L 559.203767 -198.311682 
L 558.792809 -197.509869 
L 558.326114 -196.708055 
L 557.493553 -195.906242 
L 556.455719 -195.104429 
L 554.303361 -194.302615 
L 554.21592 -193.500802 
L 552.675889 -192.698988 
L 552.21333 -191.897175 
L 552.190056 -191.095361 
L 551.11917 -190.293548 
L 549.876708 -189.491735 
L 547.758547 -188.689921 
L 546.464547 -187.888108 
L 546.032399 -187.086294 
L 545.200821 -186.284481 
L 544.359577 -185.482667 
L 543.516143 -184.680854 
L 543.153334 -183.879041 
L 543.064545 -183.077227 
L 542.510517 -182.275414 
L 542.450667 -181.4736 
L 542.236899 -180.671787 
L 541.689204 -179.869973 
L 541.391103 -179.06816 
L 539.37452 -178.266347 
L 538.562756 -177.464533 
L 537.15238 -176.66272 
L 535.266526 -175.860906 
L 532.919429 -175.059093 
L 532.648396 -174.257279 
L 532.091583 -173.455466 
L 531.186738 -172.653653 
L 531.068714 -171.851839 
L 530.076465 -171.050026 
L 529.027046 -170.248212 
L 527.477638 -169.446399 
L 527.220491 -168.644585 
L 526.822358 -167.842772 
L 525.77967 -167.040959 
L 525.262456 -166.239145 
L 522.634853 -165.437332 
L 521.147466 -164.635518 
L 517.979219 -163.833705 
L 517.420431 -163.031891 
L 515.754154 -162.230078 
L 515.27563 -161.428265 
L 514.434754 -160.626451 
L 514.124211 -159.824638 
L 514.078464 -159.022824 
L 513.690806 -158.221011 
L 513.566629 -157.419197 
L 507.337787 -156.617384 
L 506.837304 -155.815571 
L 503.164667 -155.013757 
L 502.33318 -154.211944 
L 500.519449 -153.41013 
L 496.999038 -152.608317 
L 493.54131 -151.806503 
L 489.288575 -151.00469 
L 488.356074 -150.202877 
L 487.907253 -149.401063 
L 482.001011 -148.59925 
L 481.754094 -147.797436 
L 476.77482 -146.995623 
L 474.172973 -146.193809 
L 473.804379 -145.391996 
L 471.158649 -144.590183 
L 467.02261 -143.788369 
L 462.824789 -142.986556 
L 461.716995 -142.184742 
L 461.691928 -141.382929 
L 460.862601 -140.581115 
L 458.759385 -139.779302 
L 456.129447 -138.977489 
L 454.74307 -138.175675 
L 452.698765 -137.373862 
L 445.392895 -136.572048 
L 444.123909 -135.770235 
L 441.062877 -134.968421 
L 439.223838 -134.166608 
L 435.452022 -133.364794 
L 435.000072 -132.562981 
L 434.216514 -131.761168 
L 433.856246 -130.959354 
L 432.987088 -130.157541 
L 425.751697 -129.355727 
L 419.360355 -128.553914 
L 416.402639 -127.7521 
L 415.775227 -126.950287 
L 412.374356 -126.148474 
L 406.065402 -125.34666 
L 405.676373 -124.544847 
L 404.560039 -123.743033 
L 401.032822 -122.94122 
L 398.893939 -122.139406 
L 370.130946 -121.337593 
L 356.086853 -120.53578 
L 351.527632 -119.733966 
L 332.500025 -118.932153 
L 300.153498 -118.130339 
z
" style="stroke: #7d008e; stroke-opacity: 0.7"/>
    </defs>
    <g clip-path="url(#p6404db7758)">
     <use xlink:href="#m93ac1f4075" x="0" y="720" style="fill: #7d008e; fill-opacity: 0.7; stroke: #7d008e; stroke-opacity: 0.7"/>
    </g>
   </g>
   <g id="PolyCollection_3">
    <defs>
     <path id="m5024bf7bca" d="M 372.333002 -208.735257 
L 364.613281 -208.735257 
L 364.613281 -209.53707 
L 364.613281 -210.338884 
L 364.613281 -211.140697 
L 364.613281 -211.942511 
L 364.613281 -212.744324 
L 364.613281 -213.546138 
L 364.613281 -214.347951 
L 364.613281 -215.149764 
L 364.613281 -215.951578 
L 364.613281 -216.753391 
L 364.613281 -217.555205 
L 364.613281 -218.357018 
L 364.613281 -219.158832 
L 364.613281 -219.960645 
L 364.613281 -220.762458 
L 364.613281 -221.564272 
L 364.613281 -222.366085 
L 364.613281 -223.167899 
L 364.613281 -223.969712 
L 364.613281 -224.771526 
L 364.613281 -225.573339 
L 364.613281 -226.375152 
L 364.613281 -227.176966 
L 364.613281 -227.978779 
L 364.613281 -228.780593 
L 364.613281 -229.582406 
L 364.613281 -230.38422 
L 364.613281 -231.186033 
L 364.613281 -231.987846 
L 364.613281 -232.78966 
L 364.613281 -233.591473 
L 364.613281 -234.393287 
L 364.613281 -235.1951 
L 364.613281 -235.996914 
L 364.613281 -236.798727 
L 364.613281 -237.60054 
L 364.613281 -238.402354 
L 364.613281 -239.204167 
L 364.613281 -240.005981 
L 364.613281 -240.807794 
L 364.613281 -241.609608 
L 364.613281 -242.411421 
L 364.613281 -243.213234 
L 364.613281 -244.015048 
L 364.613281 -244.816861 
L 364.613281 -245.618675 
L 364.613281 -246.420488 
L 364.613281 -247.222302 
L 364.613281 -248.024115 
L 364.613281 -248.825928 
L 364.613281 -249.627742 
L 364.613281 -250.429555 
L 364.613281 -251.231369 
L 364.613281 -252.033182 
L 364.613281 -252.834996 
L 364.613281 -253.636809 
L 364.613281 -254.438622 
L 364.613281 -255.240436 
L 364.613281 -256.042249 
L 364.613281 -256.844063 
L 364.613281 -257.645876 
L 364.613281 -258.44769 
L 364.613281 -259.249503 
L 364.613281 -260.051316 
L 364.613281 -260.85313 
L 364.613281 -261.654943 
L 364.613281 -262.456757 
L 364.613281 -263.25857 
L 364.613281 -264.060384 
L 364.613281 -264.862197 
L 364.613281 -265.66401 
L 364.613281 -266.465824 
L 364.613281 -267.267637 
L 364.613281 -268.069451 
L 364.613281 -268.871264 
L 364.613281 -269.673078 
L 364.613281 -270.474891 
L 364.613281 -271.276705 
L 364.613281 -272.078518 
L 364.613281 -272.880331 
L 364.613281 -273.682145 
L 364.613281 -274.483958 
L 364.613281 -275.285772 
L 364.613281 -276.087585 
L 364.613281 -276.889399 
L 364.613281 -277.691212 
L 567.58071 -277.691212 
L 567.58071 -277.691212 
L 566.705958 -276.889399 
L 566.026111 -276.087585 
L 564.893624 -275.285772 
L 564.595266 -274.483958 
L 564.472206 -273.682145 
L 563.761718 -272.880331 
L 563.737661 -272.078518 
L 563.298903 -271.276705 
L 562.673919 -270.474891 
L 562.553007 -269.673078 
L 562.395703 -268.871264 
L 561.982441 -268.069451 
L 561.779487 -267.267637 
L 561.68964 -266.465824 
L 561.58657 -265.66401 
L 561.169207 -264.862197 
L 560.906941 -264.060384 
L 560.771368 -263.25857 
L 560.193139 -262.456757 
L 559.553938 -261.654943 
L 559.4264 -260.85313 
L 558.963027 -260.051316 
L 557.881694 -259.249503 
L 557.098869 -258.44769 
L 557.063912 -257.645876 
L 556.978061 -256.844063 
L 556.194863 -256.042249 
L 555.478105 -255.240436 
L 554.047783 -254.438622 
L 553.79144 -253.636809 
L 552.730288 -252.834996 
L 551.412633 -252.033182 
L 551.149093 -251.231369 
L 550.075663 -250.429555 
L 550.024235 -249.627742 
L 550.001029 -248.825928 
L 549.867046 -248.024115 
L 548.079955 -247.222302 
L 546.729538 -246.420488 
L 546.327729 -245.618675 
L 546.004684 -244.816861 
L 545.716108 -244.015048 
L 545.403522 -243.213234 
L 544.895049 -242.411421 
L 544.750951 -241.609608 
L 543.471059 -240.807794 
L 542.609863 -240.005981 
L 542.374266 -239.204167 
L 542.288557 -238.402354 
L 542.223828 -237.60054 
L 541.352676 -236.798727 
L 540.847296 -235.996914 
L 538.208144 -235.1951 
L 538.077387 -234.393287 
L 537.789012 -233.591473 
L 537.787068 -232.78966 
L 536.881093 -231.987846 
L 535.63832 -231.186033 
L 534.520067 -230.38422 
L 533.301887 -229.582406 
L 531.679574 -228.780593 
L 530.999686 -227.978779 
L 527.657527 -227.176966 
L 527.644453 -226.375152 
L 527.008391 -225.573339 
L 525.969472 -224.771526 
L 525.739736 -223.969712 
L 524.189999 -223.167899 
L 519.236978 -222.366085 
L 518.894139 -221.564272 
L 516.572606 -220.762458 
L 515.659235 -219.960645 
L 515.521228 -219.158832 
L 514.423762 -218.357018 
L 513.41326 -217.555205 
L 512.771503 -216.753391 
L 509.548748 -215.951578 
L 504.327092 -215.149764 
L 493.782287 -214.347951 
L 493.576919 -213.546138 
L 491.472117 -212.744324 
L 481.377071 -211.942511 
L 467.627606 -211.140697 
L 457.7019 -210.338884 
L 440.276826 -209.53707 
L 372.333002 -208.735257 
z
" style="stroke: #2d00a4; stroke-opacity: 0.7"/>
    </defs>
    <g clip-path="url(#p6404db7758)">
     <use xlink:href="#m5024bf7bca" x="0" y="720" style="fill: #2d00a4; fill-opacity: 0.7; stroke: #2d00a4; stroke-opacity: 0.7"/>
    </g>
   </g>
   <g id="PolyCollection_4">
    <defs>
     <path id="m6173909226" d="M 465.125579 -286.51116 
L 364.613281 -286.51116 
L 364.613281 -287.312973 
L 364.613281 -288.114787 
L 364.613281 -288.9166 
L 364.613281 -289.718413 
L 364.613281 -290.520227 
L 364.613281 -291.32204 
L 364.613281 -292.123854 
L 364.613281 -292.925667 
L 364.613281 -293.727481 
L 364.613281 -294.529294 
L 364.613281 -295.331107 
L 364.613281 -296.132921 
L 364.613281 -296.934734 
L 537.356012 -296.934734 
L 537.356012 -296.934734 
L 537.251048 -296.132921 
L 535.78103 -295.331107 
L 535.125586 -294.529294 
L 530.768301 -293.727481 
L 528.117681 -292.925667 
L 527.833888 -292.123854 
L 525.285655 -291.32204 
L 516.731293 -290.520227 
L 504.686817 -289.718413 
L 466.356391 -288.9166 
L 466.100466 -288.114787 
L 465.825092 -287.312973 
L 465.125579 -286.51116 
z
" style="stroke: #0000dd; stroke-opacity: 0.7"/>
    </defs>
    <g clip-path="url(#p6404db7758)">
     <use xlink:href="#m6173909226" x="0" y="720" style="fill: #0000dd; fill-opacity: 0.7; stroke: #0000dd; stroke-opacity: 0.7"/>
    </g>
   </g>
   <g id="PolyCollection_5">
    <defs>
     <path id="mfc5959e090" d="M 378.942768 -305.754682 
L 364.613281 -305.754682 
L 364.613281 -306.556495 
L 364.613281 -307.358309 
L 364.613281 -308.160122 
L 364.613281 -308.961936 
L 364.613281 -309.763749 
L 364.613281 -310.565563 
L 364.613281 -311.367376 
L 364.613281 -312.169189 
L 364.613281 -312.971003 
L 364.613281 -313.772816 
L 364.613281 -314.57463 
L 364.613281 -315.376443 
L 364.613281 -316.178257 
L 364.613281 -316.98007 
L 364.613281 -317.781883 
L 364.613281 -318.583697 
L 364.613281 -319.38551 
L 364.613281 -320.187324 
L 364.613281 -320.989137 
L 364.613281 -321.790951 
L 484.030027 -321.790951 
L 484.030027 -321.790951 
L 481.829835 -320.989137 
L 480.174968 -320.187324 
L 477.925414 -319.38551 
L 476.44095 -318.583697 
L 473.733472 -317.781883 
L 469.279251 -316.98007 
L 467.063947 -316.178257 
L 464.205575 -315.376443 
L 456.135639 -314.57463 
L 455.328644 -313.772816 
L 452.208881 -312.971003 
L 442.100836 -312.169189 
L 435.638125 -311.367376 
L 435.140636 -310.565563 
L 433.978544 -309.763749 
L 431.077321 -308.961936 
L 420.046991 -308.160122 
L 419.294814 -307.358309 
L 416.722796 -306.556495 
L 378.942768 -305.754682 
z
" style="stroke: #0082dd; stroke-opacity: 0.7"/>
    </defs>
    <g clip-path="url(#p6404db7758)">
     <use xlink:href="#mfc5959e090" x="0" y="720" style="fill: #0082dd; fill-opacity: 0.7; stroke: #0082dd; stroke-opacity: 0.7"/>
    </g>
   </g>
   <g id="PolyCollection_6">
    <defs>
     <path id="m5c0634cd77" d="M 430.044549 -330.610898 
L 364.613281 -330.610898 
L 364.613281 -331.412712 
L 364.613281 -332.214525 
L 364.613281 -333.016339 
L 364.613281 -333.818152 
L 364.613281 -334.619966 
L 364.613281 -335.421779 
L 364.613281 -336.223592 
L 364.613281 -337.025406 
L 573.119517 -337.025406 
L 573.119517 -337.025406 
L 572.968031 -336.223592 
L 571.9002 -335.421779 
L 562.180827 -334.619966 
L 532.245241 -333.818152 
L 516.267606 -333.016339 
L 511.49032 -332.214525 
L 509.402639 -331.412712 
L 430.044549 -330.610898 
z
" style="stroke: #00a4bb; stroke-opacity: 0.7"/>
    </defs>
    <g clip-path="url(#p6404db7758)">
     <use xlink:href="#m5c0634cd77" x="0" y="720" style="fill: #00a4bb; fill-opacity: 0.7; stroke: #00a4bb; stroke-opacity: 0.7"/>
    </g>
   </g>
   <g id="PolyCollection_7">
    <defs>
     <path id="mf827619d62" d="M 389.96437 -345.845354 
L 364.613281 -345.845354 
L 364.613281 -346.647167 
L 364.613281 -347.44898 
L 364.613281 -348.250794 
L 364.613281 -349.052607 
L 364.613281 -349.854421 
L 364.613281 -350.656234 
L 364.613281 -351.458048 
L 364.613281 -352.259861 
L 364.613281 -353.061674 
L 364.613281 -353.863488 
L 364.613281 -354.665301 
L 364.613281 -355.467115 
L 364.613281 -356.268928 
L 364.613281 -357.070742 
L 364.613281 -357.872555 
L 364.613281 -358.674368 
L 364.613281 -359.476182 
L 364.613281 -360.277995 
L 364.613281 -361.079809 
L 364.613281 -361.881622 
L 364.613281 -362.683436 
L 364.613281 -363.485249 
L 364.613281 -364.287062 
L 364.613281 -365.088876 
L 364.613281 -365.890689 
L 364.613281 -366.692503 
L 364.613281 -367.494316 
L 364.613281 -368.29613 
L 364.613281 -369.097943 
L 364.613281 -369.899756 
L 364.613281 -370.70157 
L 364.613281 -371.503383 
L 364.613281 -372.305197 
L 364.613281 -373.10701 
L 364.613281 -373.908824 
L 364.613281 -374.710637 
L 364.613281 -375.51245 
L 364.613281 -376.314264 
L 364.613281 -377.116077 
L 364.613281 -377.917891 
L 364.613281 -378.719704 
L 364.613281 -379.521518 
L 364.613281 -380.323331 
L 364.613281 -381.125144 
L 364.613281 -381.926958 
L 364.613281 -382.728771 
L 364.613281 -383.530585 
L 364.613281 -384.332398 
L 364.613281 -385.134212 
L 364.613281 -385.936025 
L 364.613281 -386.737838 
L 364.613281 -387.539652 
L 364.613281 -388.341465 
L 364.613281 -389.143279 
L 364.613281 -389.945092 
L 364.613281 -390.746906 
L 364.613281 -391.548719 
L 364.613281 -392.350532 
L 364.613281 -393.152346 
L 364.613281 -393.954159 
L 364.613281 -394.755973 
L 364.613281 -395.557786 
L 364.613281 -396.3596 
L 364.613281 -397.161413 
L 364.613281 -397.963226 
L 364.613281 -398.76504 
L 364.613281 -399.566853 
L 556.544397 -399.566853 
L 556.544397 -399.566853 
L 555.234086 -398.76504 
L 554.537957 -397.963226 
L 554.351636 -397.161413 
L 553.90606 -396.3596 
L 552.693531 -395.557786 
L 552.644983 -394.755973 
L 551.889277 -393.954159 
L 551.692035 -393.152346 
L 551.574976 -392.350532 
L 551.44573 -391.548719 
L 551.337588 -390.746906 
L 551.332304 -389.945092 
L 551.283804 -389.143279 
L 550.932057 -388.341465 
L 550.903496 -387.539652 
L 549.807435 -386.737838 
L 547.986967 -385.936025 
L 543.704771 -385.134212 
L 539.438718 -384.332398 
L 539.423541 -383.530585 
L 538.815557 -382.728771 
L 538.151328 -381.926958 
L 537.616949 -381.125144 
L 537.041754 -380.323331 
L 537.04131 -379.521518 
L 536.709017 -378.719704 
L 535.75168 -377.917891 
L 532.049103 -377.116077 
L 530.656682 -376.314264 
L 529.782128 -375.51245 
L 527.324422 -374.710637 
L 526.610413 -373.908824 
L 525.098474 -373.10701 
L 524.856906 -372.305197 
L 524.842511 -371.503383 
L 524.026761 -370.70157 
L 523.698713 -369.899756 
L 522.296079 -369.097943 
L 517.756286 -368.29613 
L 517.275434 -367.494316 
L 509.560205 -366.692503 
L 508.400618 -365.890689 
L 508.276587 -365.088876 
L 507.054486 -364.287062 
L 502.553531 -363.485249 
L 500.324096 -362.683436 
L 499.615751 -361.881622 
L 495.55736 -361.079809 
L 494.539978 -360.277995 
L 491.445534 -359.476182 
L 486.031406 -358.674368 
L 482.976799 -357.872555 
L 482.598681 -357.070742 
L 480.730609 -356.268928 
L 477.131922 -355.467115 
L 476.454559 -354.665301 
L 475.228548 -353.863488 
L 473.505572 -353.061674 
L 471.239452 -352.259861 
L 470.78192 -351.458048 
L 470.631528 -350.656234 
L 464.450478 -349.854421 
L 430.215431 -349.052607 
L 426.877781 -348.250794 
L 409.935775 -347.44898 
L 400.910593 -346.647167 
L 389.96437 -345.845354 
z
" style="stroke: #00aa88; stroke-opacity: 0.7"/>
    </defs>
    <g clip-path="url(#p6404db7758)">
     <use xlink:href="#mf827619d62" x="0" y="720" style="fill: #00aa88; fill-opacity: 0.7; stroke: #00aa88; stroke-opacity: 0.7"/>
    </g>
   </g>
   <g id="PolyCollection_8">
    <defs>
     <path id="m2df85d1c4d" d="M 580.455517 -408.386801 
L 364.613281 -408.386801 
L 364.613281 -409.188615 
L 364.613281 -409.990428 
L 364.613281 -410.792241 
L 364.613281 -411.594055 
L 364.613281 -412.395868 
L 364.613281 -413.197682 
L 364.613281 -413.999495 
L 633.640524 -413.999495 
L 633.640524 -413.999495 
L 631.468564 -413.197682 
L 620.47031 -412.395868 
L 617.605987 -411.594055 
L 613.882307 -410.792241 
L 596.827622 -409.990428 
L 593.020678 -409.188615 
L 580.455517 -408.386801 
z
" style="stroke: #00a400; stroke-opacity: 0.7"/>
    </defs>
    <g clip-path="url(#p6404db7758)">
     <use xlink:href="#m2df85d1c4d" x="0" y="720" style="fill: #00a400; fill-opacity: 0.7; stroke: #00a400; stroke-opacity: 0.7"/>
    </g>
   </g>
   <g id="PolyCollection_9">
    <defs>
     <path id="me6b42b1122" d="M 365.791816 -422.819443 
L 364.613281 -422.819443 
L 364.613281 -423.621256 
L 364.613281 -424.42307 
L 364.613281 -425.224883 
L 364.613281 -426.026697 
L 364.613281 -426.82851 
L 364.613281 -427.630323 
L 364.613281 -428.432137 
L 364.613281 -429.23395 
L 364.613281 -430.035764 
L 364.613281 -430.837577 
L 364.613281 -431.639391 
L 364.613281 -432.441204 
L 364.613281 -433.243017 
L 364.613281 -434.044831 
L 364.613281 -434.846644 
L 364.613281 -435.648458 
L 364.613281 -436.450271 
L 364.613281 -437.252085 
L 364.613281 -438.053898 
L 526.540083 -438.053898 
L 526.540083 -438.053898 
L 519.834045 -437.252085 
L 514.226921 -436.450271 
L 512.357646 -435.648458 
L 510.485335 -434.846644 
L 506.175908 -434.044831 
L 504.811645 -433.243017 
L 501.653305 -432.441204 
L 499.185422 -431.639391 
L 491.616312 -430.837577 
L 484.045852 -430.035764 
L 482.506462 -429.23395 
L 476.773661 -428.432137 
L 474.525734 -427.630323 
L 474.314764 -426.82851 
L 472.363814 -426.026697 
L 472.256201 -425.224883 
L 471.732883 -424.42307 
L 471.429686 -423.621256 
L 365.791816 -422.819443 
z
" style="stroke: #00d200; stroke-opacity: 0.7"/>
    </defs>
    <g clip-path="url(#p6404db7758)">
     <use xlink:href="#me6b42b1122" x="0" y="720" style="fill: #00d200; fill-opacity: 0.7; stroke: #00d200; stroke-opacity: 0.7"/>
    </g>
   </g>
   <g id="PolyCollection_10">
    <defs>
     <path id="m62d67cb46f" d="M 523.143266 -446.873846 
L 364.613281 -446.873846 
L 364.613281 -447.675659 
L 364.613281 -448.477473 
L 364.613281 -449.279286 
L 364.613281 -450.081099 
L 364.613281 -450.882913 
L 364.613281 -451.684726 
L 364.613281 -452.48654 
L 364.613281 -453.288353 
L 364.613281 -454.090167 
L 364.613281 -454.89198 
L 364.613281 -455.693793 
L 364.613281 -456.495607 
L 364.613281 -457.29742 
L 364.613281 -458.099234 
L 364.613281 -458.901047 
L 364.613281 -459.702861 
L 364.613281 -460.504674 
L 364.613281 -461.306487 
L 364.613281 -462.108301 
L 364.613281 -462.910114 
L 364.613281 -463.711928 
L 364.613281 -464.513741 
L 364.613281 -465.315555 
L 364.613281 -466.117368 
L 364.613281 -466.919182 
L 364.613281 -467.720995 
L 364.613281 -468.522808 
L 364.613281 -469.324622 
L 364.613281 -470.126435 
L 364.613281 -470.928249 
L 364.613281 -471.730062 
L 364.613281 -472.531876 
L 364.613281 -473.333689 
L 364.613281 -474.135502 
L 364.613281 -474.937316 
L 364.613281 -475.739129 
L 364.613281 -476.540943 
L 364.613281 -477.342756 
L 364.613281 -478.14457 
L 364.613281 -478.946383 
L 364.613281 -479.748196 
L 364.613281 -480.55001 
L 364.613281 -481.351823 
L 639.834224 -481.351823 
L 639.834224 -481.351823 
L 639.263517 -480.55001 
L 639.097571 -479.748196 
L 638.897701 -478.946383 
L 638.80898 -478.14457 
L 638.570359 -477.342756 
L 638.424431 -476.540943 
L 637.697949 -475.739129 
L 637.351427 -474.937316 
L 637.001412 -474.135502 
L 636.485348 -473.333689 
L 634.912417 -472.531876 
L 633.283038 -471.730062 
L 633.016184 -470.928249 
L 632.985222 -470.126435 
L 632.408824 -469.324622 
L 632.368415 -468.522808 
L 632.021926 -467.720995 
L 631.865245 -466.919182 
L 631.456871 -466.117368 
L 617.889458 -465.315555 
L 617.781533 -464.513741 
L 617.517237 -463.711928 
L 615.799275 -462.910114 
L 615.194279 -462.108301 
L 608.786018 -461.306487 
L 608.033357 -460.504674 
L 607.770419 -459.702861 
L 607.538325 -458.901047 
L 607.53354 -458.099234 
L 607.401791 -457.29742 
L 607.217482 -456.495607 
L 603.94642 -455.693793 
L 602.672456 -454.89198 
L 596.186787 -454.090167 
L 596.07998 -453.288353 
L 581.496716 -452.48654 
L 569.331756 -451.684726 
L 566.155094 -450.882913 
L 558.610026 -450.081099 
L 554.324656 -449.279286 
L 547.60487 -448.477473 
L 536.889622 -447.675659 
L 523.143266 -446.873846 
z
" style="stroke: #00ff00; stroke-opacity: 0.7"/>
    </defs>
    <g clip-path="url(#p6404db7758)">
     <use xlink:href="#m62d67cb46f" x="0" y="720" style="fill: #00ff00; fill-opacity: 0.7; stroke: #00ff00; stroke-opacity: 0.7"/>
    </g>
   </g>
   <g id="PolyCollection_11">
    <defs>
     <path id="mf8d9b60205" d="M 422.11315 -490.171771 
L 364.613281 -490.171771 
L 364.613281 -490.973584 
L 364.613281 -491.775398 
L 364.613281 -492.577211 
L 364.613281 -493.379025 
L 364.613281 -494.180838 
L 364.613281 -494.982652 
L 492.914805 -494.982652 
L 492.914805 -494.982652 
L 484.262194 -494.180838 
L 483.160121 -493.379025 
L 481.039 -492.577211 
L 472.478271 -491.775398 
L 443.045227 -490.973584 
L 422.11315 -490.171771 
z
" style="stroke: #ccf900; stroke-opacity: 0.7"/>
    </defs>
    <g clip-path="url(#p6404db7758)">
     <use xlink:href="#mf8d9b60205" x="0" y="720" style="fill: #ccf900; fill-opacity: 0.7; stroke: #ccf900; stroke-opacity: 0.7"/>
    </g>
   </g>
   <g id="PolyCollection_12">
    <defs>
     <path id="ma132307774" d="M 497.963056 -503.802599 
L 364.613281 -503.802599 
L 364.613281 -504.604413 
L 364.613281 -505.406226 
L 364.613281 -506.20804 
L 364.613281 -507.009853 
L 364.613281 -507.811666 
L 364.613281 -508.61348 
L 364.613281 -509.415293 
L 364.613281 -510.217107 
L 364.613281 -511.01892 
L 364.613281 -511.820734 
L 364.613281 -512.622547 
L 364.613281 -513.42436 
L 364.613281 -514.226174 
L 364.613281 -515.027987 
L 364.613281 -515.829801 
L 364.613281 -516.631614 
L 364.613281 -517.433428 
L 364.613281 -518.235241 
L 364.613281 -519.037054 
L 364.613281 -519.838868 
L 364.613281 -520.640681 
L 364.613281 -521.442495 
L 364.613281 -522.244308 
L 364.613281 -523.046122 
L 364.613281 -523.847935 
L 364.613281 -524.649748 
L 364.613281 -525.451562 
L 364.613281 -526.253375 
L 364.613281 -527.055189 
L 364.613281 -527.857002 
L 364.613281 -528.658816 
L 364.613281 -529.460629 
L 364.613281 -530.262443 
L 364.613281 -531.064256 
L 364.613281 -531.866069 
L 364.613281 -532.667883 
L 364.613281 -533.469696 
L 364.613281 -534.27151 
L 364.613281 -535.073323 
L 364.613281 -535.875137 
L 364.613281 -536.67695 
L 364.613281 -537.478763 
L 364.613281 -538.280577 
L 364.613281 -539.08239 
L 364.613281 -539.884204 
L 364.613281 -540.686017 
L 364.613281 -541.487831 
L 364.613281 -542.289644 
L 364.613281 -543.091457 
L 364.613281 -543.893271 
L 364.613281 -544.695084 
L 364.613281 -545.496898 
L 364.613281 -546.298711 
L 364.613281 -547.100525 
L 364.613281 -547.902338 
L 364.613281 -548.704151 
L 364.613281 -549.505965 
L 364.613281 -550.307778 
L 364.613281 -551.109592 
L 364.613281 -551.911405 
L 364.613281 -552.713219 
L 364.613281 -553.515032 
L 364.613281 -554.316845 
L 364.613281 -555.118659 
L 364.613281 -555.920472 
L 364.613281 -556.722286 
L 364.613281 -557.524099 
L 364.613281 -558.325913 
L 364.613281 -559.127726 
L 364.613281 -559.929539 
L 364.613281 -560.731353 
L 364.613281 -561.533166 
L 364.613281 -562.33498 
L 364.613281 -563.136793 
L 364.613281 -563.938607 
L 364.613281 -564.74042 
L 364.613281 -565.542233 
L 364.613281 -566.344047 
L 364.613281 -567.14586 
L 364.613281 -567.947674 
L 364.613281 -568.749487 
L 364.613281 -569.551301 
L 364.613281 -570.353114 
L 364.613281 -571.154927 
L 364.613281 -571.956741 
L 364.613281 -572.758554 
L 364.613281 -573.560368 
L 364.613281 -574.362181 
L 364.613281 -575.163995 
L 364.613281 -575.965808 
L 364.613281 -576.767621 
L 364.613281 -577.569435 
L 364.613281 -578.371248 
L 364.613281 -579.173062 
L 364.613281 -579.974875 
L 364.613281 -580.776689 
L 364.613281 -581.578502 
L 364.613281 -582.380315 
L 364.613281 -583.182129 
L 364.613281 -583.983942 
L 364.613281 -584.785756 
L 364.613281 -585.587569 
L 364.613281 -586.389383 
L 364.613281 -587.191196 
L 364.613281 -587.993009 
L 364.613281 -588.794823 
L 364.613281 -589.596636 
L 364.613281 -590.39845 
L 364.613281 -591.200263 
L 364.613281 -592.002077 
L 364.613281 -592.80389 
L 364.613281 -593.605704 
L 364.613281 -594.407517 
L 364.613281 -595.20933 
L 364.613281 -596.011144 
L 364.613281 -596.812957 
L 364.613281 -597.614771 
L 364.613281 -598.416584 
L 364.613281 -599.218398 
L 364.613281 -600.020211 
L 364.613281 -600.822024 
L 364.613281 -601.623838 
L 364.613281 -602.425651 
L 364.613281 -603.227465 
L 364.613281 -604.029278 
L 364.613281 -604.831092 
L 364.613281 -605.632905 
L 364.613281 -606.434718 
L 364.613281 -607.236532 
L 364.613281 -608.038345 
L 364.613281 -608.840159 
L 364.613281 -609.641972 
L 364.613281 -610.443786 
L 364.613281 -611.245599 
L 364.613281 -612.047412 
L 364.613281 -612.849226 
L 364.613281 -613.651039 
L 364.613281 -614.452853 
L 364.613281 -615.254666 
L 364.613281 -616.05648 
L 364.613281 -616.858293 
L 364.613281 -617.660106 
L 364.613281 -618.46192 
L 364.613281 -619.263733 
L 364.613281 -620.065547 
L 364.613281 -620.86736 
L 364.613281 -621.669174 
L 364.613281 -622.470987 
L 364.613281 -623.2728 
L 364.613281 -624.074614 
L 364.613281 -624.876427 
L 364.613281 -625.678241 
L 364.613281 -626.480054 
L 364.613281 -627.281868 
L 364.613281 -628.083681 
L 364.613281 -628.885494 
L 364.613281 -629.687308 
L 364.613281 -630.489121 
L 364.613281 -631.290935 
L 364.613281 -632.092748 
L 364.613281 -632.894562 
L 364.613281 -633.696375 
L 364.613281 -634.498188 
L 364.613281 -635.300002 
L 364.613281 -636.101815 
L 364.613281 -636.903629 
L 364.613281 -637.705442 
L 364.613281 -638.507256 
L 364.613281 -639.309069 
L 364.613281 -640.110882 
L 364.613281 -640.912696 
L 364.613281 -641.714509 
L 364.613281 -642.516323 
L 364.613281 -643.318136 
L 364.613281 -644.11995 
L 364.613281 -644.921763 
L 364.613281 -645.723576 
L 364.613281 -646.52539 
L 364.613281 -647.327203 
L 364.613281 -648.129017 
L 364.613281 -648.93083 
L 364.613281 -649.732644 
L 364.613281 -650.534457 
L 364.613281 -651.33627 
L 364.613281 -652.138084 
L 364.613281 -652.939897 
L 364.613281 -653.741711 
L 364.613281 -654.543524 
L 364.613281 -655.345338 
L 364.613281 -656.147151 
L 364.613281 -656.948964 
L 364.613281 -657.750778 
L 364.613281 -658.552591 
L 364.613281 -659.354405 
L 364.613281 -660.156218 
L 364.613281 -660.958032 
L 364.613281 -661.759845 
L 364.613281 -662.561659 
L 364.613281 -663.363472 
L 364.613281 -664.165285 
L 606.385188 -664.165285 
L 606.385188 -664.165285 
L 605.384624 -663.363472 
L 604.749039 -662.561659 
L 603.970213 -661.759845 
L 603.682051 -660.958032 
L 603.097769 -660.156218 
L 602.36961 -659.354405 
L 601.845871 -658.552591 
L 601.305441 -657.750778 
L 601.241621 -656.948964 
L 600.898894 -656.147151 
L 600.8877 -655.345338 
L 599.484422 -654.543524 
L 599.430255 -653.741711 
L 599.377191 -652.939897 
L 597.917559 -652.138084 
L 597.43556 -651.33627 
L 597.419939 -650.534457 
L 597.21686 -649.732644 
L 596.506132 -648.93083 
L 596.416982 -648.129017 
L 596.387605 -647.327203 
L 595.909818 -646.52539 
L 595.573745 -645.723576 
L 595.544473 -644.921763 
L 595.493749 -644.11995 
L 595.303194 -643.318136 
L 594.618425 -642.516323 
L 594.606433 -641.714509 
L 594.234269 -640.912696 
L 593.975514 -640.110882 
L 593.966034 -639.309069 
L 593.956146 -638.507256 
L 593.89935 -637.705442 
L 593.749998 -636.903629 
L 593.46783 -636.101815 
L 593.427862 -635.300002 
L 593.003568 -634.498188 
L 592.727768 -633.696375 
L 592.706379 -632.894562 
L 592.337076 -632.092748 
L 592.309224 -631.290935 
L 592.153348 -630.489121 
L 592.010392 -629.687308 
L 590.916726 -628.885494 
L 590.915204 -628.083681 
L 590.838772 -627.281868 
L 590.80135 -626.480054 
L 590.648668 -625.678241 
L 590.48911 -624.876427 
L 590.422286 -624.074614 
L 590.340222 -623.2728 
L 590.067066 -622.470987 
L 589.890261 -621.669174 
L 589.296925 -620.86736 
L 589.198848 -620.065547 
L 589.196713 -619.263733 
L 588.813585 -618.46192 
L 588.686849 -617.660106 
L 588.67376 -616.858293 
L 588.617325 -616.05648 
L 588.273975 -615.254666 
L 588.213946 -614.452853 
L 587.89031 -613.651039 
L 587.643917 -612.849226 
L 586.658569 -612.047412 
L 586.010544 -611.245599 
L 585.813775 -610.443786 
L 585.781944 -609.641972 
L 585.770989 -608.840159 
L 585.747514 -608.038345 
L 585.636066 -607.236532 
L 585.601 -606.434718 
L 585.304766 -605.632905 
L 585.231827 -604.831092 
L 584.166295 -604.029278 
L 583.682672 -603.227465 
L 583.211577 -602.425651 
L 583.034731 -601.623838 
L 582.350676 -600.822024 
L 582.327548 -600.020211 
L 582.102476 -599.218398 
L 582.068764 -598.416584 
L 581.971423 -597.614771 
L 581.794793 -596.812957 
L 581.604984 -596.011144 
L 581.328881 -595.20933 
L 581.189278 -594.407517 
L 581.086477 -593.605704 
L 580.989086 -592.80389 
L 580.916608 -592.002077 
L 580.789581 -591.200263 
L 580.175517 -590.39845 
L 580.158274 -589.596636 
L 580.143722 -588.794823 
L 580.020518 -587.993009 
L 579.606285 -587.191196 
L 579.465401 -586.389383 
L 579.360789 -585.587569 
L 579.004353 -584.785756 
L 578.423918 -583.983942 
L 578.160819 -583.182129 
L 577.912239 -582.380315 
L 577.576703 -581.578502 
L 577.508781 -580.776689 
L 577.383379 -579.974875 
L 577.104141 -579.173062 
L 577.02052 -578.371248 
L 576.463248 -577.569435 
L 576.256405 -576.767621 
L 576.174256 -575.965808 
L 576.158733 -575.163995 
L 576.106043 -574.362181 
L 575.724557 -573.560368 
L 575.723512 -572.758554 
L 575.696092 -571.956741 
L 575.589228 -571.154927 
L 575.150583 -570.353114 
L 575.066968 -569.551301 
L 575.004623 -568.749487 
L 574.748872 -567.947674 
L 574.66462 -567.14586 
L 574.053758 -566.344047 
L 573.743593 -565.542233 
L 572.60501 -564.74042 
L 572.323722 -563.938607 
L 571.953996 -563.136793 
L 571.416829 -562.33498 
L 570.859889 -561.533166 
L 570.641623 -560.731353 
L 570.089378 -559.929539 
L 570.080469 -559.127726 
L 569.719902 -558.325913 
L 569.630355 -557.524099 
L 569.593049 -556.722286 
L 569.238352 -555.920472 
L 568.654243 -555.118659 
L 567.73554 -554.316845 
L 567.708809 -553.515032 
L 567.526809 -552.713219 
L 567.426676 -551.911405 
L 567.189717 -551.109592 
L 567.015703 -550.307778 
L 566.684464 -549.505965 
L 566.121855 -548.704151 
L 565.045372 -547.902338 
L 564.719337 -547.100525 
L 562.544516 -546.298711 
L 562.021128 -545.496898 
L 561.508715 -544.695084 
L 560.943864 -543.893271 
L 560.916233 -543.091457 
L 560.704007 -542.289644 
L 560.177446 -541.487831 
L 559.939727 -540.686017 
L 559.932697 -539.884204 
L 559.408668 -539.08239 
L 559.131414 -538.280577 
L 558.241234 -537.478763 
L 557.511053 -536.67695 
L 557.370232 -535.875137 
L 557.117426 -535.073323 
L 556.694364 -534.27151 
L 556.532332 -533.469696 
L 556.387926 -532.667883 
L 556.200903 -531.866069 
L 555.759783 -531.064256 
L 555.75387 -530.262443 
L 555.740531 -529.460629 
L 554.826388 -528.658816 
L 553.130227 -527.857002 
L 553.010538 -527.055189 
L 552.960531 -526.253375 
L 552.299984 -525.451562 
L 551.884277 -524.649748 
L 551.707857 -523.847935 
L 551.584221 -523.046122 
L 551.12367 -522.244308 
L 548.01651 -521.442495 
L 547.929438 -520.640681 
L 546.037164 -519.838868 
L 546.02144 -519.037054 
L 544.98847 -518.235241 
L 544.286343 -517.433428 
L 542.868114 -516.631614 
L 542.00208 -515.829801 
L 541.923036 -515.027987 
L 539.527885 -514.226174 
L 538.226695 -513.42436 
L 535.510122 -512.622547 
L 535.489806 -511.820734 
L 532.578592 -511.01892 
L 530.727836 -510.217107 
L 530.552166 -509.415293 
L 529.431712 -508.61348 
L 529.389674 -507.811666 
L 527.792174 -507.009853 
L 522.278356 -506.20804 
L 518.080598 -505.406226 
L 510.664847 -504.604413 
L 497.963056 -503.802599 
z
" style="stroke: #f9d700; stroke-opacity: 0.7"/>
    </defs>
    <g clip-path="url(#p6404db7758)">
     <use xlink:href="#ma132307774" x="0" y="720" style="fill: #f9d700; fill-opacity: 0.7; stroke: #f9d700; stroke-opacity: 0.7"/>
    </g>
   </g>
   <g id="PolyCollection_13">
    <defs>
     <path id="mf6682f17c0" d="M 612.149354 -672.985233 
L 364.613281 -672.985233 
L 364.613281 -673.787047 
L 364.613281 -674.58886 
L 364.613281 -675.390673 
L 364.613281 -676.192487 
L 364.613281 -676.9943 
L 364.613281 -677.796114 
L 364.613281 -678.597927 
L 364.613281 -679.399741 
L 648.535047 -679.399741 
L 648.535047 -679.399741 
L 646.985595 -678.597927 
L 643.723713 -677.796114 
L 633.879678 -676.9943 
L 628.662411 -676.192487 
L 628.168867 -675.390673 
L 621.686974 -674.58886 
L 615.864952 -673.787047 
L 612.149354 -672.985233 
z
" style="stroke: #ff9900; stroke-opacity: 0.7"/>
    </defs>
    <g clip-path="url(#p6404db7758)">
     <use xlink:href="#mf6682f17c0" x="0" y="720" style="fill: #ff9900; fill-opacity: 0.7; stroke: #ff9900; stroke-opacity: 0.7"/>
    </g>
   </g>
   <g id="PolyCollection_14">
    <defs>
     <path id="m0698fd5eed" d="M 651.313643 -688.219688 
L 364.613281 -688.219688 
L 364.613281 -689.021502 
L 364.613281 -689.823315 
L 671.7342 -689.823315 
L 671.7342 -689.823315 
L 670.794401 -689.021502 
L 651.313643 -688.219688 
z
" style="stroke: #f40000; stroke-opacity: 0.7"/>
    </defs>
    <g clip-path="url(#p6404db7758)">
     <use xlink:href="#m0698fd5eed" x="0" y="720" style="fill: #f40000; fill-opacity: 0.7; stroke: #f40000; stroke-opacity: 0.7"/>
    </g>
   </g>
   <g id="PolyCollection_15">
    <defs>
     <path id="mf400a3d72e" d="M 523.800333 -698.643263 
L 364.613281 -698.643263 
L 364.613281 -699.445076 
L 524.180148 -699.445076 
L 524.180148 -699.445076 
L 523.800333 -698.643263 
z
" style="stroke: #d20000; stroke-opacity: 0.7"/>
    </defs>
    <g clip-path="url(#p6404db7758)">
     <use xlink:href="#mf400a3d72e" x="0" y="720" style="fill: #d20000; fill-opacity: 0.7; stroke: #d20000; stroke-opacity: 0.7"/>
    </g>
   </g>
   <g id="matplotlib.axis_1">
    <g id="xtick_1">
     <g id="line2d_1">
      <defs>
       <path id="m39c2e2d998" d="M 0 0 
L 0 3.5 
" style="stroke: #000000; stroke-width: 0.8"/>
      </defs>
      <g>
       <use xlink:href="#m39c2e2d998" x="27.978125" y="678.84375" style="stroke: #000000; stroke-width: 0.8"/>
      </g>
     </g>
     <g id="text_1">
      <!-- −1.0 -->
      <g transform="translate(15.836719 693.442188) scale(0.1 -0.1)">
       <defs>
        <path id="DejaVuSans-2212" d="M 678 2272 
L 4684 2272 
L 4684 1741 
L 678 1741 
L 678 2272 
z
" transform="scale(0.015625)"/>
        <path id="DejaVuSans-31" d="M 794 531 
L 1825 531 
L 1825 4091 
L 703 3866 
L 703 4441 
L 1819 4666 
L 2450 4666 
L 2450 531 
L 3481 531 
L 3481 0 
L 794 0 
L 794 531 
z
" transform="scale(0.015625)"/>
        <path id="DejaVuSans-2e" d="M 684 794 
L 1344 794 
L 1344 0 
L 684 0 
L 684 794 
z
" transform="scale(0.015625)"/>
        <path id="DejaVuSans-30" d="M 2034 4250 
Q 1547 4250 1301 3770 
Q 1056 3291 1056 2328 
Q 1056 1369 1301 889 
Q 1547 409 2034 409 
Q 2525 409 2770 889 
Q 3016 1369 3016 2328 
Q 3016 3291 2770 3770 
Q 2525 4250 2034 4250 
z
M 2034 4750 
Q 2819 4750 3233 4129 
Q 3647 3509 3647 2328 
Q 3647 1150 3233 529 
Q 2819 -91 2034 -91 
Q 1250 -91 836 529 
Q 422 1150 422 2328 
Q 422 3509 836 4129 
Q 1250 4750 2034 4750 
z
" transform="scale(0.015625)"/>
       </defs>
       <use xlink:href="#DejaVuSans-2212"/>
       <use xlink:href="#DejaVuSans-31" x="83.789062"/>
       <use xlink:href="#DejaVuSans-2e" x="147.412109"/>
       <use xlink:href="#DejaVuSans-30" x="179.199219"/>
      </g>
     </g>
    </g>
    <g id="xtick_2">
     <g id="line2d_2">
      <g>
       <use xlink:href="#m39c2e2d998" x="95.305156" y="678.84375" style="stroke: #000000; stroke-width: 0.8"/>
      </g>
     </g>
     <g id="text_2">
      <!-- −0.8 -->
      <g transform="translate(83.16375 693.442188) scale(0.1 -0.1)">
       <defs>
        <path id="DejaVuSans-38" d="M 2034 2216 
Q 1584 2216 1326 1975 
Q 1069 1734 1069 1313 
Q 1069 891 1326 650 
Q 1584 409 2034 409 
Q 2484 409 2743 651 
Q 3003 894 3003 1313 
Q 3003 1734 2745 1975 
Q 2488 2216 2034 2216 
z
M 1403 2484 
Q 997 2584 770 2862 
Q 544 3141 544 3541 
Q 544 4100 942 4425 
Q 1341 4750 2034 4750 
Q 2731 4750 3128 4425 
Q 3525 4100 3525 3541 
Q 3525 3141 3298 2862 
Q 3072 2584 2669 2484 
Q 3125 2378 3379 2068 
Q 3634 1759 3634 1313 
Q 3634 634 3220 271 
Q 2806 -91 2034 -91 
Q 1263 -91 848 271 
Q 434 634 434 1313 
Q 434 1759 690 2068 
Q 947 2378 1403 2484 
z
M 1172 3481 
Q 1172 3119 1398 2916 
Q 1625 2713 2034 2713 
Q 2441 2713 2670 2916 
Q 2900 3119 2900 3481 
Q 2900 3844 2670 4047 
Q 2441 4250 2034 4250 
Q 1625 4250 1398 4047 
Q 1172 3844 1172 3481 
z
" transform="scale(0.015625)"/>
       </defs>
       <use xlink:href="#DejaVuSans-2212"/>
       <use xlink:href="#DejaVuSans-30" x="83.789062"/>
       <use xlink:href="#DejaVuSans-2e" x="147.412109"/>
       <use xlink:href="#DejaVuSans-38" x="179.199219"/>
      </g>
     </g>
    </g>
    <g id="xtick_3">
     <g id="line2d_3">
      <g>
       <use xlink:href="#m39c2e2d998" x="162.632188" y="678.84375" style="stroke: #000000; stroke-width: 0.8"/>
      </g>
     </g>
     <g id="text_3">
      <!-- −0.6 -->
      <g transform="translate(150.490781 693.442188) scale(0.1 -0.1)">
       <defs>
        <path id="DejaVuSans-36" d="M 2113 2584 
Q 1688 2584 1439 2293 
Q 1191 2003 1191 1497 
Q 1191 994 1439 701 
Q 1688 409 2113 409 
Q 2538 409 2786 701 
Q 3034 994 3034 1497 
Q 3034 2003 2786 2293 
Q 2538 2584 2113 2584 
z
M 3366 4563 
L 3366 3988 
Q 3128 4100 2886 4159 
Q 2644 4219 2406 4219 
Q 1781 4219 1451 3797 
Q 1122 3375 1075 2522 
Q 1259 2794 1537 2939 
Q 1816 3084 2150 3084 
Q 2853 3084 3261 2657 
Q 3669 2231 3669 1497 
Q 3669 778 3244 343 
Q 2819 -91 2113 -91 
Q 1303 -91 875 529 
Q 447 1150 447 2328 
Q 447 3434 972 4092 
Q 1497 4750 2381 4750 
Q 2619 4750 2861 4703 
Q 3103 4656 3366 4563 
z
" transform="scale(0.015625)"/>
       </defs>
       <use xlink:href="#DejaVuSans-2212"/>
       <use xlink:href="#DejaVuSans-30" x="83.789062"/>
       <use xlink:href="#DejaVuSans-2e" x="147.412109"/>
       <use xlink:href="#DejaVuSans-36" x="179.199219"/>
      </g>
     </g>
    </g>
    <g id="xtick_4">
     <g id="line2d_4">
      <g>
       <use xlink:href="#m39c2e2d998" x="229.959219" y="678.84375" style="stroke: #000000; stroke-width: 0.8"/>
      </g>
     </g>
     <g id="text_4">
      <!-- −0.4 -->
      <g transform="translate(217.817813 693.442188) scale(0.1 -0.1)">
       <defs>
        <path id="DejaVuSans-34" d="M 2419 4116 
L 825 1625 
L 2419 1625 
L 2419 4116 
z
M 2253 4666 
L 3047 4666 
L 3047 1625 
L 3713 1625 
L 3713 1100 
L 3047 1100 
L 3047 0 
L 2419 0 
L 2419 1100 
L 313 1100 
L 313 1709 
L 2253 4666 
z
" transform="scale(0.015625)"/>
       </defs>
       <use xlink:href="#DejaVuSans-2212"/>
       <use xlink:href="#DejaVuSans-30" x="83.789062"/>
       <use xlink:href="#DejaVuSans-2e" x="147.412109"/>
       <use xlink:href="#DejaVuSans-34" x="179.199219"/>
      </g>
     </g>
    </g>
    <g id="xtick_5">
     <g id="line2d_5">
      <g>
       <use xlink:href="#m39c2e2d998" x="297.28625" y="678.84375" style="stroke: #000000; stroke-width: 0.8"/>
      </g>
     </g>
     <g id="text_5">
      <!-- −0.2 -->
      <g transform="translate(285.144844 693.442188) scale(0.1 -0.1)">
       <defs>
        <path id="DejaVuSans-32" d="M 1228 531 
L 3431 531 
L 3431 0 
L 469 0 
L 469 531 
Q 828 903 1448 1529 
Q 2069 2156 2228 2338 
Q 2531 2678 2651 2914 
Q 2772 3150 2772 3378 
Q 2772 3750 2511 3984 
Q 2250 4219 1831 4219 
Q 1534 4219 1204 4116 
Q 875 4013 500 3803 
L 500 4441 
Q 881 4594 1212 4672 
Q 1544 4750 1819 4750 
Q 2544 4750 2975 4387 
Q 3406 4025 3406 3419 
Q 3406 3131 3298 2873 
Q 3191 2616 2906 2266 
Q 2828 2175 2409 1742 
Q 1991 1309 1228 531 
z
" transform="scale(0.015625)"/>
       </defs>
       <use xlink:href="#DejaVuSans-2212"/>
       <use xlink:href="#DejaVuSans-30" x="83.789062"/>
       <use xlink:href="#DejaVuSans-2e" x="147.412109"/>
       <use xlink:href="#DejaVuSans-32" x="179.199219"/>
      </g>
     </g>
    </g>
    <g id="xtick_6">
     <g id="line2d_6">
      <g>
       <use xlink:href="#m39c2e2d998" x="364.613281" y="678.84375" style="stroke: #000000; stroke-width: 0.8"/>
      </g>
     </g>
     <g id="text_6">
      <!-- 0.0 -->
      <g transform="translate(356.661719 693.442188) scale(0.1 -0.1)">
       <use xlink:href="#DejaVuSans-30"/>
       <use xlink:href="#DejaVuSans-2e" x="63.623047"/>
       <use xlink:href="#DejaVuSans-30" x="95.410156"/>
      </g>
     </g>
    </g>
    <g id="xtick_7">
     <g id="line2d_7">
      <g>
       <use xlink:href="#m39c2e2d998" x="431.940313" y="678.84375" style="stroke: #000000; stroke-width: 0.8"/>
      </g>
     </g>
     <g id="text_7">
      <!-- 0.2 -->
      <g transform="translate(423.98875 693.442188) scale(0.1 -0.1)">
       <use xlink:href="#DejaVuSans-30"/>
       <use xlink:href="#DejaVuSans-2e" x="63.623047"/>
       <use xlink:href="#DejaVuSans-32" x="95.410156"/>
      </g>
     </g>
    </g>
    <g id="xtick_8">
     <g id="line2d_8">
      <g>
       <use xlink:href="#m39c2e2d998" x="499.267344" y="678.84375" style="stroke: #000000; stroke-width: 0.8"/>
      </g>
     </g>
     <g id="text_8">
      <!-- 0.4 -->
      <g transform="translate(491.315781 693.442188) scale(0.1 -0.1)">
       <use xlink:href="#DejaVuSans-30"/>
       <use xlink:href="#DejaVuSans-2e" x="63.623047"/>
       <use xlink:href="#DejaVuSans-34" x="95.410156"/>
      </g>
     </g>
    </g>
    <g id="xtick_9">
     <g id="line2d_9">
      <g>
       <use xlink:href="#m39c2e2d998" x="566.594375" y="678.84375" style="stroke: #000000; stroke-width: 0.8"/>
      </g>
     </g>
     <g id="text_9">
      <!-- 0.6 -->
      <g transform="translate(558.642812 693.442188) scale(0.1 -0.1)">
       <use xlink:href="#DejaVuSans-30"/>
       <use xlink:href="#DejaVuSans-2e" x="63.623047"/>
       <use xlink:href="#DejaVuSans-36" x="95.410156"/>
      </g>
     </g>
    </g>
    <g id="xtick_10">
     <g id="line2d_10">
      <g>
       <use xlink:href="#m39c2e2d998" x="633.921406" y="678.84375" style="stroke: #000000; stroke-width: 0.8"/>
      </g>
     </g>
     <g id="text_10">
      <!-- 0.8 -->
      <g transform="translate(625.969844 693.442188) scale(0.1 -0.1)">
       <use xlink:href="#DejaVuSans-30"/>
       <use xlink:href="#DejaVuSans-2e" x="63.623047"/>
       <use xlink:href="#DejaVuSans-38" x="95.410156"/>
      </g>
     </g>
    </g>
    <g id="xtick_11">
     <g id="line2d_11">
      <g>
       <use xlink:href="#m39c2e2d998" x="701.248437" y="678.84375" style="stroke: #000000; stroke-width: 0.8"/>
      </g>
     </g>
     <g id="text_11">
      <!-- 1.0 -->
      <g transform="translate(693.296875 693.442188) scale(0.1 -0.1)">
       <use xlink:href="#DejaVuSans-31"/>
       <use xlink:href="#DejaVuSans-2e" x="63.623047"/>
       <use xlink:href="#DejaVuSans-30" x="95.410156"/>
      </g>
     </g>
    </g>
    <g id="text_12">
     <!-- Silhouette coefficient -->
     <g transform="translate(311.463281 707.120313) scale(0.1 -0.1)">
      <defs>
       <path id="DejaVuSans-53" d="M 3425 4513 
L 3425 3897 
Q 3066 4069 2747 4153 
Q 2428 4238 2131 4238 
Q 1616 4238 1336 4038 
Q 1056 3838 1056 3469 
Q 1056 3159 1242 3001 
Q 1428 2844 1947 2747 
L 2328 2669 
Q 3034 2534 3370 2195 
Q 3706 1856 3706 1288 
Q 3706 609 3251 259 
Q 2797 -91 1919 -91 
Q 1588 -91 1214 -16 
Q 841 59 441 206 
L 441 856 
Q 825 641 1194 531 
Q 1563 422 1919 422 
Q 2459 422 2753 634 
Q 3047 847 3047 1241 
Q 3047 1584 2836 1778 
Q 2625 1972 2144 2069 
L 1759 2144 
Q 1053 2284 737 2584 
Q 422 2884 422 3419 
Q 422 4038 858 4394 
Q 1294 4750 2059 4750 
Q 2388 4750 2728 4690 
Q 3069 4631 3425 4513 
z
" transform="scale(0.015625)"/>
       <path id="DejaVuSans-69" d="M 603 3500 
L 1178 3500 
L 1178 0 
L 603 0 
L 603 3500 
z
M 603 4863 
L 1178 4863 
L 1178 4134 
L 603 4134 
L 603 4863 
z
" transform="scale(0.015625)"/>
       <path id="DejaVuSans-6c" d="M 603 4863 
L 1178 4863 
L 1178 0 
L 603 0 
L 603 4863 
z
" transform="scale(0.015625)"/>
       <path id="DejaVuSans-68" d="M 3513 2113 
L 3513 0 
L 2938 0 
L 2938 2094 
Q 2938 2591 2744 2837 
Q 2550 3084 2163 3084 
Q 1697 3084 1428 2787 
Q 1159 2491 1159 1978 
L 1159 0 
L 581 0 
L 581 4863 
L 1159 4863 
L 1159 2956 
Q 1366 3272 1645 3428 
Q 1925 3584 2291 3584 
Q 2894 3584 3203 3211 
Q 3513 2838 3513 2113 
z
" transform="scale(0.015625)"/>
       <path id="DejaVuSans-6f" d="M 1959 3097 
Q 1497 3097 1228 2736 
Q 959 2375 959 1747 
Q 959 1119 1226 758 
Q 1494 397 1959 397 
Q 2419 397 2687 759 
Q 2956 1122 2956 1747 
Q 2956 2369 2687 2733 
Q 2419 3097 1959 3097 
z
M 1959 3584 
Q 2709 3584 3137 3096 
Q 3566 2609 3566 1747 
Q 3566 888 3137 398 
Q 2709 -91 1959 -91 
Q 1206 -91 779 398 
Q 353 888 353 1747 
Q 353 2609 779 3096 
Q 1206 3584 1959 3584 
z
" transform="scale(0.015625)"/>
       <path id="DejaVuSans-75" d="M 544 1381 
L 544 3500 
L 1119 3500 
L 1119 1403 
Q 1119 906 1312 657 
Q 1506 409 1894 409 
Q 2359 409 2629 706 
Q 2900 1003 2900 1516 
L 2900 3500 
L 3475 3500 
L 3475 0 
L 2900 0 
L 2900 538 
Q 2691 219 2414 64 
Q 2138 -91 1772 -91 
Q 1169 -91 856 284 
Q 544 659 544 1381 
z
M 1991 3584 
L 1991 3584 
z
" transform="scale(0.015625)"/>
       <path id="DejaVuSans-65" d="M 3597 1894 
L 3597 1613 
L 953 1613 
Q 991 1019 1311 708 
Q 1631 397 2203 397 
Q 2534 397 2845 478 
Q 3156 559 3463 722 
L 3463 178 
Q 3153 47 2828 -22 
Q 2503 -91 2169 -91 
Q 1331 -91 842 396 
Q 353 884 353 1716 
Q 353 2575 817 3079 
Q 1281 3584 2069 3584 
Q 2775 3584 3186 3129 
Q 3597 2675 3597 1894 
z
M 3022 2063 
Q 3016 2534 2758 2815 
Q 2500 3097 2075 3097 
Q 1594 3097 1305 2825 
Q 1016 2553 972 2059 
L 3022 2063 
z
" transform="scale(0.015625)"/>
       <path id="DejaVuSans-74" d="M 1172 4494 
L 1172 3500 
L 2356 3500 
L 2356 3053 
L 1172 3053 
L 1172 1153 
Q 1172 725 1289 603 
Q 1406 481 1766 481 
L 2356 481 
L 2356 0 
L 1766 0 
Q 1100 0 847 248 
Q 594 497 594 1153 
L 594 3053 
L 172 3053 
L 172 3500 
L 594 3500 
L 594 4494 
L 1172 4494 
z
" transform="scale(0.015625)"/>
       <path id="DejaVuSans-20" transform="scale(0.015625)"/>
       <path id="DejaVuSans-63" d="M 3122 3366 
L 3122 2828 
Q 2878 2963 2633 3030 
Q 2388 3097 2138 3097 
Q 1578 3097 1268 2742 
Q 959 2388 959 1747 
Q 959 1106 1268 751 
Q 1578 397 2138 397 
Q 2388 397 2633 464 
Q 2878 531 3122 666 
L 3122 134 
Q 2881 22 2623 -34 
Q 2366 -91 2075 -91 
Q 1284 -91 818 406 
Q 353 903 353 1747 
Q 353 2603 823 3093 
Q 1294 3584 2113 3584 
Q 2378 3584 2631 3529 
Q 2884 3475 3122 3366 
z
" transform="scale(0.015625)"/>
       <path id="DejaVuSans-66" d="M 2375 4863 
L 2375 4384 
L 1825 4384 
Q 1516 4384 1395 4259 
Q 1275 4134 1275 3809 
L 1275 3500 
L 2222 3500 
L 2222 3053 
L 1275 3053 
L 1275 0 
L 697 0 
L 697 3053 
L 147 3053 
L 147 3500 
L 697 3500 
L 697 3744 
Q 697 4328 969 4595 
Q 1241 4863 1831 4863 
L 2375 4863 
z
" transform="scale(0.015625)"/>
       <path id="DejaVuSans-6e" d="M 3513 2113 
L 3513 0 
L 2938 0 
L 2938 2094 
Q 2938 2591 2744 2837 
Q 2550 3084 2163 3084 
Q 1697 3084 1428 2787 
Q 1159 2491 1159 1978 
L 1159 0 
L 581 0 
L 581 3500 
L 1159 3500 
L 1159 2956 
Q 1366 3272 1645 3428 
Q 1925 3584 2291 3584 
Q 2894 3584 3203 3211 
Q 3513 2838 3513 2113 
z
" transform="scale(0.015625)"/>
      </defs>
      <use xlink:href="#DejaVuSans-53"/>
      <use xlink:href="#DejaVuSans-69" x="63.476562"/>
      <use xlink:href="#DejaVuSans-6c" x="91.259766"/>
      <use xlink:href="#DejaVuSans-68" x="119.042969"/>
      <use xlink:href="#DejaVuSans-6f" x="182.421875"/>
      <use xlink:href="#DejaVuSans-75" x="243.603516"/>
      <use xlink:href="#DejaVuSans-65" x="306.982422"/>
      <use xlink:href="#DejaVuSans-74" x="368.505859"/>
      <use xlink:href="#DejaVuSans-74" x="407.714844"/>
      <use xlink:href="#DejaVuSans-65" x="446.923828"/>
      <use xlink:href="#DejaVuSans-20" x="508.447266"/>
      <use xlink:href="#DejaVuSans-63" x="540.234375"/>
      <use xlink:href="#DejaVuSans-6f" x="595.214844"/>
      <use xlink:href="#DejaVuSans-65" x="656.396484"/>
      <use xlink:href="#DejaVuSans-66" x="717.919922"/>
      <use xlink:href="#DejaVuSans-66" x="753.125"/>
      <use xlink:href="#DejaVuSans-69" x="788.330078"/>
      <use xlink:href="#DejaVuSans-63" x="816.113281"/>
      <use xlink:href="#DejaVuSans-69" x="871.09375"/>
      <use xlink:href="#DejaVuSans-65" x="898.876953"/>
      <use xlink:href="#DejaVuSans-6e" x="960.400391"/>
      <use xlink:href="#DejaVuSans-74" x="1023.779297"/>
     </g>
    </g>
   </g>
   <g id="matplotlib.axis_2">
    <g id="text_13">
     <!-- Predicted label -->
     <g transform="translate(18.398438 382.441707) rotate(-90) scale(0.1 -0.1)">
      <defs>
       <path id="DejaVuSans-50" d="M 1259 4147 
L 1259 2394 
L 2053 2394 
Q 2494 2394 2734 2622 
Q 2975 2850 2975 3272 
Q 2975 3691 2734 3919 
Q 2494 4147 2053 4147 
L 1259 4147 
z
M 628 4666 
L 2053 4666 
Q 2838 4666 3239 4311 
Q 3641 3956 3641 3272 
Q 3641 2581 3239 2228 
Q 2838 1875 2053 1875 
L 1259 1875 
L 1259 0 
L 628 0 
L 628 4666 
z
" transform="scale(0.015625)"/>
       <path id="DejaVuSans-72" d="M 2631 2963 
Q 2534 3019 2420 3045 
Q 2306 3072 2169 3072 
Q 1681 3072 1420 2755 
Q 1159 2438 1159 1844 
L 1159 0 
L 581 0 
L 581 3500 
L 1159 3500 
L 1159 2956 
Q 1341 3275 1631 3429 
Q 1922 3584 2338 3584 
Q 2397 3584 2469 3576 
Q 2541 3569 2628 3553 
L 2631 2963 
z
" transform="scale(0.015625)"/>
       <path id="DejaVuSans-64" d="M 2906 2969 
L 2906 4863 
L 3481 4863 
L 3481 0 
L 2906 0 
L 2906 525 
Q 2725 213 2448 61 
Q 2172 -91 1784 -91 
Q 1150 -91 751 415 
Q 353 922 353 1747 
Q 353 2572 751 3078 
Q 1150 3584 1784 3584 
Q 2172 3584 2448 3432 
Q 2725 3281 2906 2969 
z
M 947 1747 
Q 947 1113 1208 752 
Q 1469 391 1925 391 
Q 2381 391 2643 752 
Q 2906 1113 2906 1747 
Q 2906 2381 2643 2742 
Q 2381 3103 1925 3103 
Q 1469 3103 1208 2742 
Q 947 2381 947 1747 
z
" transform="scale(0.015625)"/>
       <path id="DejaVuSans-61" d="M 2194 1759 
Q 1497 1759 1228 1600 
Q 959 1441 959 1056 
Q 959 750 1161 570 
Q 1363 391 1709 391 
Q 2188 391 2477 730 
Q 2766 1069 2766 1631 
L 2766 1759 
L 2194 1759 
z
M 3341 1997 
L 3341 0 
L 2766 0 
L 2766 531 
Q 2569 213 2275 61 
Q 1981 -91 1556 -91 
Q 1019 -91 701 211 
Q 384 513 384 1019 
Q 384 1609 779 1909 
Q 1175 2209 1959 2209 
L 2766 2209 
L 2766 2266 
Q 2766 2663 2505 2880 
Q 2244 3097 1772 3097 
Q 1472 3097 1187 3025 
Q 903 2953 641 2809 
L 641 3341 
Q 956 3463 1253 3523 
Q 1550 3584 1831 3584 
Q 2591 3584 2966 3190 
Q 3341 2797 3341 1997 
z
" transform="scale(0.015625)"/>
       <path id="DejaVuSans-62" d="M 3116 1747 
Q 3116 2381 2855 2742 
Q 2594 3103 2138 3103 
Q 1681 3103 1420 2742 
Q 1159 2381 1159 1747 
Q 1159 1113 1420 752 
Q 1681 391 2138 391 
Q 2594 391 2855 752 
Q 3116 1113 3116 1747 
z
M 1159 2969 
Q 1341 3281 1617 3432 
Q 1894 3584 2278 3584 
Q 2916 3584 3314 3078 
Q 3713 2572 3713 1747 
Q 3713 922 3314 415 
Q 2916 -91 2278 -91 
Q 1894 -91 1617 61 
Q 1341 213 1159 525 
L 1159 0 
L 581 0 
L 581 4863 
L 1159 4863 
L 1159 2969 
z
" transform="scale(0.015625)"/>
      </defs>
      <use xlink:href="#DejaVuSans-50"/>
      <use xlink:href="#DejaVuSans-72" x="58.552734"/>
      <use xlink:href="#DejaVuSans-65" x="97.416016"/>
      <use xlink:href="#DejaVuSans-64" x="158.939453"/>
      <use xlink:href="#DejaVuSans-69" x="222.416016"/>
      <use xlink:href="#DejaVuSans-63" x="250.199219"/>
      <use xlink:href="#DejaVuSans-74" x="305.179688"/>
      <use xlink:href="#DejaVuSans-65" x="344.388672"/>
      <use xlink:href="#DejaVuSans-64" x="405.912109"/>
      <use xlink:href="#DejaVuSans-20" x="469.388672"/>
      <use xlink:href="#DejaVuSans-6c" x="501.175781"/>
      <use xlink:href="#DejaVuSans-61" x="528.958984"/>
      <use xlink:href="#DejaVuSans-62" x="590.238281"/>
      <use xlink:href="#DejaVuSans-65" x="653.714844"/>
      <use xlink:href="#DejaVuSans-6c" x="715.238281"/>
     </g>
    </g>
   </g>
   <g id="line2d_12">
    <path d="M 541.029847 678.84375 
L 541.029847 11.734976 
" clip-path="url(#p6404db7758)" style="fill: none; stroke: #ff0000; stroke-width: 1.5; stroke-linecap: square"/>
   </g>
   <g id="patch_3">
    <path d="M 27.978125 678.84375 
L 27.978125 11.734976 
" style="fill: none; stroke: #000000; stroke-width: 0.8; stroke-linejoin: miter; stroke-linecap: square"/>
   </g>
   <g id="patch_4">
    <path d="M 701.248437 678.84375 
L 701.248437 11.734976 
" style="fill: none; stroke: #000000; stroke-width: 0.8; stroke-linejoin: miter; stroke-linecap: square"/>
   </g>
   <g id="patch_5">
    <path d="M 27.978125 678.84375 
L 701.248437 678.84375 
" style="fill: none; stroke: #000000; stroke-width: 0.8; stroke-linejoin: miter; stroke-linecap: square"/>
   </g>
   <g id="patch_6">
    <path d="M 27.978125 11.734976 
L 701.248437 11.734976 
" style="fill: none; stroke: #000000; stroke-width: 0.8; stroke-linejoin: miter; stroke-linecap: square"/>
   </g>
   <g id="text_14">
    <!-- 0 -->
    <g transform="translate(347.781523 640.356705) scale(0.1 -0.1)">
     <use xlink:href="#DejaVuSans-30"/>
    </g>
   </g>
   <g id="text_15">
    <!-- 1 -->
    <g transform="translate(347.781523 560.576269) scale(0.1 -0.1)">
     <use xlink:href="#DejaVuSans-31"/>
    </g>
   </g>
   <g id="text_16">
    <!-- 2 -->
    <g transform="translate(347.781523 476.385859) scale(0.1 -0.1)">
     <use xlink:href="#DejaVuSans-32"/>
    </g>
   </g>
   <g id="text_17">
    <!-- 3 -->
    <g transform="translate(347.781523 427.876146) scale(0.1 -0.1)">
     <defs>
      <path id="DejaVuSans-33" d="M 2597 2516 
Q 3050 2419 3304 2112 
Q 3559 1806 3559 1356 
Q 3559 666 3084 287 
Q 2609 -91 1734 -91 
Q 1441 -91 1130 -33 
Q 819 25 488 141 
L 488 750 
Q 750 597 1062 519 
Q 1375 441 1716 441 
Q 2309 441 2620 675 
Q 2931 909 2931 1356 
Q 2931 1769 2642 2001 
Q 2353 2234 1838 2234 
L 1294 2234 
L 1294 2753 
L 1863 2753 
Q 2328 2753 2575 2939 
Q 2822 3125 2822 3475 
Q 2822 3834 2567 4026 
Q 2313 4219 1838 4219 
Q 1578 4219 1281 4162 
Q 984 4106 628 3988 
L 628 4550 
Q 988 4650 1302 4700 
Q 1616 4750 1894 4750 
Q 2613 4750 3031 4423 
Q 3450 4097 3450 3541 
Q 3450 3153 3228 2886 
Q 3006 2619 2597 2516 
z
" transform="scale(0.015625)"/>
     </defs>
     <use xlink:href="#DejaVuSans-33"/>
    </g>
   </g>
   <g id="text_18">
    <!-- 4 -->
    <g transform="translate(347.781523 405.826277) scale(0.1 -0.1)">
     <use xlink:href="#DejaVuSans-34"/>
    </g>
   </g>
   <g id="text_19">
    <!-- 5 -->
    <g transform="translate(347.781523 385.780941) scale(0.1 -0.1)">
     <defs>
      <path id="DejaVuSans-35" d="M 691 4666 
L 3169 4666 
L 3169 4134 
L 1269 4134 
L 1269 2991 
Q 1406 3038 1543 3061 
Q 1681 3084 1819 3084 
Q 2600 3084 3056 2656 
Q 3513 2228 3513 1497 
Q 3513 744 3044 326 
Q 2575 -91 1722 -91 
Q 1428 -91 1123 -41 
Q 819 9 494 109 
L 494 744 
Q 775 591 1075 516 
Q 1375 441 1709 441 
Q 2250 441 2565 725 
Q 2881 1009 2881 1497 
Q 2881 1984 2565 2268 
Q 2250 2553 1709 2553 
Q 1456 2553 1204 2497 
Q 953 2441 691 2322 
L 691 4666 
z
" transform="scale(0.015625)"/>
     </defs>
     <use xlink:href="#DejaVuSans-35"/>
    </g>
   </g>
   <g id="text_20">
    <!-- 6 -->
    <g transform="translate(347.781523 346.89299) scale(0.1 -0.1)">
     <use xlink:href="#DejaVuSans-36"/>
    </g>
   </g>
   <g id="text_21">
    <!-- 7 -->
    <g transform="translate(347.781523 308.405945) scale(0.1 -0.1)">
     <defs>
      <path id="DejaVuSans-37" d="M 525 4666 
L 3525 4666 
L 3525 4397 
L 1831 0 
L 1172 0 
L 2766 4134 
L 525 4134 
L 525 4666 
z
" transform="scale(0.015625)"/>
     </defs>
     <use xlink:href="#DejaVuSans-37"/>
    </g>
   </g>
   <g id="text_22">
    <!-- 8 -->
    <g transform="translate(347.781523 289.162423) scale(0.1 -0.1)">
     <use xlink:href="#DejaVuSans-38"/>
    </g>
   </g>
   <g id="text_23">
    <!-- 9 -->
    <g transform="translate(347.781523 255.486259) scale(0.1 -0.1)">
     <defs>
      <path id="DejaVuSans-39" d="M 703 97 
L 703 672 
Q 941 559 1184 500 
Q 1428 441 1663 441 
Q 2288 441 2617 861 
Q 2947 1281 2994 2138 
Q 2813 1869 2534 1725 
Q 2256 1581 1919 1581 
Q 1219 1581 811 2004 
Q 403 2428 403 3163 
Q 403 3881 828 4315 
Q 1253 4750 1959 4750 
Q 2769 4750 3195 4129 
Q 3622 3509 3622 2328 
Q 3622 1225 3098 567 
Q 2575 -91 1691 -91 
Q 1453 -91 1209 -44 
Q 966 3 703 97 
z
M 1959 2075 
Q 2384 2075 2632 2365 
Q 2881 2656 2881 3163 
Q 2881 3666 2632 3958 
Q 2384 4250 1959 4250 
Q 1534 4250 1286 3958 
Q 1038 3666 1038 3163 
Q 1038 2656 1286 2365 
Q 1534 2075 1959 2075 
z
" transform="scale(0.015625)"/>
     </defs>
     <use xlink:href="#DejaVuSans-39"/>
    </g>
   </g>
   <g id="text_24">
    <!-- 10 -->
    <g transform="translate(347.781523 227.021882) scale(0.1 -0.1)">
     <use xlink:href="#DejaVuSans-31"/>
     <use xlink:href="#DejaVuSans-30" x="63.623047"/>
    </g>
   </g>
   <g id="text_25">
    <!-- 11 -->
    <g transform="translate(347.781523 135.615151) scale(0.1 -0.1)">
     <use xlink:href="#DejaVuSans-31"/>
     <use xlink:href="#DejaVuSans-31" x="63.623047"/>
    </g>
   </g>
   <g id="text_26">
    <!-- 12 -->
    <g transform="translate(347.781523 43.406606) scale(0.1 -0.1)">
     <use xlink:href="#DejaVuSans-31"/>
     <use xlink:href="#DejaVuSans-32" x="63.623047"/>
    </g>
   </g>
   <g id="text_27">
    <!-- 13 -->
    <g transform="translate(347.781523 30.577592) scale(0.1 -0.1)">
     <use xlink:href="#DejaVuSans-31"/>
     <use xlink:href="#DejaVuSans-33" x="63.623047"/>
    </g>
   </g>
   <g id="text_28">
    <!-- 14 -->
    <g transform="translate(347.781523 20.554924) scale(0.1 -0.1)">
     <use xlink:href="#DejaVuSans-31"/>
     <use xlink:href="#DejaVuSans-34" x="63.623047"/>
    </g>
   </g>
   <g id="text_29">
    <!-- 0.5241 -->
    <g style="fill: #ff0000" transform="translate(557.861605 19.75311) scale(0.1 -0.1)">
     <use xlink:href="#DejaVuSans-30"/>
     <use xlink:href="#DejaVuSans-2e" x="63.623047"/>
     <use xlink:href="#DejaVuSans-35" x="95.410156"/>
     <use xlink:href="#DejaVuSans-32" x="159.033203"/>
     <use xlink:href="#DejaVuSans-34" x="222.65625"/>
     <use xlink:href="#DejaVuSans-31" x="286.279297"/>
    </g>
   </g>
  </g>
 </g>
 <defs>
  <clipPath id="p6404db7758">
   <rect x="27.978125" y="11.734976" width="673.270312" height="667.108774"/>
  </clipPath>
 </defs>
</svg>
