<?xml version="1.0" encoding="utf-8" standalone="no"?>
<!DOCTYPE svg PUBLIC "-//W3C//DTD SVG 1.1//EN"
  "http://www.w3.org/Graphics/SVG/1.1/DTD/svg11.dtd">
<svg xmlns:xlink="http://www.w3.org/1999/xlink" width="720pt" height="576pt" viewBox="0 0 720 576" xmlns="http://www.w3.org/2000/svg" version="1.1">
 <metadata>
  <rdf:RDF xmlns:dc="http://purl.org/dc/elements/1.1/" xmlns:cc="http://creativecommons.org/ns#" xmlns:rdf="http://www.w3.org/1999/02/22-rdf-syntax-ns#">
   <cc:Work>
    <dc:type rdf:resource="http://purl.org/dc/dcmitype/StillImage"/>
    <dc:date>2022-11-21T18:22:19.530469</dc:date>
    <dc:format>image/svg+xml</dc:format>
    <dc:creator>
     <cc:Agent>
      <dc:title>Matplotlib v3.6.1, https://matplotlib.org/</dc:title>
     </cc:Agent>
    </dc:creator>
   </cc:Work>
  </rdf:RDF>
 </metadata>
 <defs>
  <style type="text/css">*{stroke-linejoin: round; stroke-linecap: butt}</style>
 </defs>
 <g id="figure_1">
  <g id="patch_1">
   <path d="M 0 576 
L 720 576 
L 720 0 
L 0 0 
z
" style="fill: #ffffff"/>
  </g>
  <g id="axes_1">
   <g id="patch_2">
    <path d="M 42.495313 510.648438 
L 683.389495 510.648438 
L 683.389495 23.56688 
L 42.495313 23.56688 
z
" style="fill: #ffffff"/>
   </g>
   <g id="PolyCollection_1">
    <defs>
     <path id="mb8f3379f07" d="M 333.936432 -72.192596 
L 362.942404 -72.192596 
L 362.942404 -72.876699 
L 362.942404 -73.560802 
L 362.942404 -74.244906 
L 362.942404 -74.929009 
L 362.942404 -75.613112 
L 362.942404 -76.297215 
L 362.942404 -76.981319 
L 362.942404 -77.665422 
L 362.942404 -78.349525 
L 362.942404 -79.033629 
L 362.942404 -79.717732 
L 362.942404 -80.401835 
L 362.942404 -81.085939 
L 362.942404 -81.770042 
L 362.942404 -82.454145 
L 362.942404 -83.138249 
L 362.942404 -83.822352 
L 362.942404 -84.506455 
L 362.942404 -85.190559 
L 362.942404 -85.874662 
L 362.942404 -86.558765 
L 362.942404 -87.242868 
L 362.942404 -87.926972 
L 362.942404 -88.611075 
L 362.942404 -89.295178 
L 362.942404 -89.979282 
L 362.942404 -90.663385 
L 362.942404 -91.347488 
L 362.942404 -92.031592 
L 362.942404 -92.715695 
L 362.942404 -93.399798 
L 362.942404 -94.083902 
L 362.942404 -94.768005 
L 362.942404 -95.452108 
L 362.942404 -96.136211 
L 362.942404 -96.820315 
L 362.942404 -97.504418 
L 362.942404 -98.188521 
L 362.942404 -98.872625 
L 362.942404 -99.556728 
L 362.942404 -100.240831 
L 362.942404 -100.924935 
L 362.942404 -101.609038 
L 362.942404 -102.293141 
L 362.942404 -102.977245 
L 362.942404 -103.661348 
L 362.942404 -104.345451 
L 362.942404 -105.029555 
L 362.942404 -105.713658 
L 362.942404 -106.397761 
L 362.942404 -107.081864 
L 362.942404 -107.765968 
L 362.942404 -108.450071 
L 362.942404 -109.134174 
L 362.942404 -109.818278 
L 362.942404 -110.502381 
L 362.942404 -111.186484 
L 362.942404 -111.870588 
L 362.942404 -112.554691 
L 362.942404 -113.238794 
L 362.942404 -113.922898 
L 362.942404 -114.607001 
L 362.942404 -115.291104 
L 362.942404 -115.975207 
L 362.942404 -116.659311 
L 362.942404 -117.343414 
L 362.942404 -118.027517 
L 362.942404 -118.711621 
L 362.942404 -119.395724 
L 362.942404 -120.079827 
L 362.942404 -120.763931 
L 362.942404 -121.448034 
L 362.942404 -122.132137 
L 362.942404 -122.816241 
L 362.942404 -123.500344 
L 362.942404 -124.184447 
L 362.942404 -124.868551 
L 362.942404 -125.552654 
L 362.942404 -126.236757 
L 362.942404 -126.92086 
L 362.942404 -127.604964 
L 362.942404 -128.289067 
L 362.942404 -128.97317 
L 362.942404 -129.657274 
L 362.942404 -130.341377 
L 362.942404 -131.02548 
L 362.942404 -131.709584 
L 362.942404 -132.393687 
L 362.942404 -133.07779 
L 362.942404 -133.761894 
L 362.942404 -134.445997 
L 362.942404 -135.1301 
L 362.942404 -135.814204 
L 362.942404 -136.498307 
L 362.942404 -137.18241 
L 362.942404 -137.866513 
L 362.942404 -138.550617 
L 362.942404 -139.23472 
L 362.942404 -139.918823 
L 362.942404 -140.602927 
L 362.942404 -141.28703 
L 362.942404 -141.971133 
L 362.942404 -142.655237 
L 362.942404 -143.33934 
L 362.942404 -144.023443 
L 362.942404 -144.707547 
L 362.942404 -145.39165 
L 362.942404 -146.075753 
L 362.942404 -146.759856 
L 362.942404 -147.44396 
L 362.942404 -148.128063 
L 362.942404 -148.812166 
L 362.942404 -149.49627 
L 362.942404 -150.180373 
L 362.942404 -150.864476 
L 362.942404 -151.54858 
L 362.942404 -152.232683 
L 362.942404 -152.916786 
L 362.942404 -153.60089 
L 362.942404 -154.284993 
L 362.942404 -154.969096 
L 362.942404 -155.6532 
L 362.942404 -156.337303 
L 362.942404 -157.021406 
L 362.942404 -157.705509 
L 362.942404 -158.389613 
L 362.942404 -159.073716 
L 362.942404 -159.757819 
L 362.942404 -160.441923 
L 362.942404 -161.126026 
L 362.942404 -161.810129 
L 362.942404 -162.494233 
L 362.942404 -163.178336 
L 362.942404 -163.862439 
L 362.942404 -164.546543 
L 362.942404 -165.230646 
L 362.942404 -165.914749 
L 362.942404 -166.598852 
L 362.942404 -167.282956 
L 362.942404 -167.967059 
L 362.942404 -168.651162 
L 362.942404 -169.335266 
L 362.942404 -170.019369 
L 362.942404 -170.703472 
L 362.942404 -171.387576 
L 362.942404 -172.071679 
L 362.942404 -172.755782 
L 362.942404 -173.439886 
L 362.942404 -174.123989 
L 362.942404 -174.808092 
L 362.942404 -175.492196 
L 362.942404 -176.176299 
L 362.942404 -176.860402 
L 362.942404 -177.544505 
L 362.942404 -178.228609 
L 362.942404 -178.912712 
L 362.942404 -179.596815 
L 362.942404 -180.280919 
L 362.942404 -180.965022 
L 362.942404 -181.649125 
L 362.942404 -182.333229 
L 362.942404 -183.017332 
L 362.942404 -183.701435 
L 362.942404 -184.385539 
L 362.942404 -185.069642 
L 362.942404 -185.753745 
L 362.942404 -186.437848 
L 362.942404 -187.121952 
L 362.942404 -187.806055 
L 362.942404 -188.490158 
L 362.942404 -189.174262 
L 362.942404 -189.858365 
L 362.942404 -190.542468 
L 362.942404 -191.226572 
L 362.942404 -191.910675 
L 362.942404 -192.594778 
L 362.942404 -193.278882 
L 362.942404 -193.962985 
L 362.942404 -194.647088 
L 362.942404 -195.331192 
L 362.942404 -196.015295 
L 362.942404 -196.699398 
L 362.942404 -197.383501 
L 362.942404 -198.067605 
L 362.942404 -198.751708 
L 362.942404 -199.435811 
L 362.942404 -200.119915 
L 362.942404 -200.804018 
L 362.942404 -201.488121 
L 362.942404 -202.172225 
L 524.196479 -202.172225 
L 524.196479 -202.172225 
L 523.254054 -201.488121 
L 523.04321 -200.804018 
L 521.292947 -200.119915 
L 518.33287 -199.435811 
L 517.667578 -198.751708 
L 517.21805 -198.067605 
L 516.558535 -197.383501 
L 516.416985 -196.699398 
L 515.274321 -196.015295 
L 515.086392 -195.331192 
L 514.849389 -194.647088 
L 514.768776 -193.962985 
L 514.475878 -193.278882 
L 513.727295 -192.594778 
L 513.707454 -191.910675 
L 513.574664 -191.226572 
L 512.930253 -190.542468 
L 512.847783 -189.858365 
L 512.812985 -189.174262 
L 512.557721 -188.490158 
L 512.133911 -187.806055 
L 512.126872 -187.121952 
L 511.291003 -186.437848 
L 509.226736 -185.753745 
L 508.729854 -185.069642 
L 508.552495 -184.385539 
L 507.184465 -183.701435 
L 506.970315 -183.017332 
L 506.650106 -182.333229 
L 506.49991 -181.649125 
L 506.011197 -180.965022 
L 505.836527 -180.280919 
L 505.741051 -179.596815 
L 505.601397 -178.912712 
L 505.309978 -178.228609 
L 505.128921 -177.544505 
L 504.836985 -176.860402 
L 504.487023 -176.176299 
L 504.302997 -175.492196 
L 503.886956 -174.808092 
L 503.853487 -174.123989 
L 503.79163 -173.439886 
L 503.657249 -172.755782 
L 503.52445 -172.071679 
L 503.438875 -171.387576 
L 503.421365 -170.703472 
L 503.378775 -170.019369 
L 503.168769 -169.335266 
L 502.95815 -168.651162 
L 501.996215 -167.967059 
L 501.894875 -167.282956 
L 501.451496 -166.598852 
L 500.96239 -165.914749 
L 500.777382 -165.230646 
L 500.649692 -164.546543 
L 500.561228 -163.862439 
L 500.275339 -163.178336 
L 500.252783 -162.494233 
L 500.199077 -161.810129 
L 500.178708 -161.126026 
L 499.974514 -160.441923 
L 499.756589 -159.757819 
L 499.368759 -159.073716 
L 498.883927 -158.389613 
L 498.882732 -157.705509 
L 498.772398 -157.021406 
L 498.308794 -156.337303 
L 498.263241 -155.6532 
L 498.230762 -154.969096 
L 498.156909 -154.284993 
L 497.669316 -153.60089 
L 497.270442 -152.916786 
L 496.906793 -152.232683 
L 496.70275 -151.54858 
L 496.17999 -150.864476 
L 495.992769 -150.180373 
L 495.945251 -149.49627 
L 495.856452 -148.812166 
L 495.71823 -148.128063 
L 495.68345 -147.44396 
L 495.581171 -146.759856 
L 495.57839 -146.075753 
L 495.567948 -145.39165 
L 495.496071 -144.707547 
L 495.406854 -144.023443 
L 495.040092 -143.33934 
L 494.179795 -142.655237 
L 493.336102 -141.971133 
L 493.328421 -141.28703 
L 493.147565 -140.602927 
L 492.276612 -139.918823 
L 491.850029 -139.23472 
L 490.439225 -138.550617 
L 490.127623 -137.866513 
L 489.896748 -137.18241 
L 489.098267 -136.498307 
L 488.308382 -135.814204 
L 488.186266 -135.1301 
L 488.117044 -134.445997 
L 487.044171 -133.761894 
L 486.984016 -133.07779 
L 486.552101 -132.393687 
L 486.530254 -131.709584 
L 486.453415 -131.02548 
L 486.313644 -130.341377 
L 485.999744 -129.657274 
L 485.598024 -128.97317 
L 485.548932 -128.289067 
L 485.473081 -127.604964 
L 485.456915 -126.92086 
L 484.942415 -126.236757 
L 484.618944 -125.552654 
L 484.170972 -124.868551 
L 484.05055 -124.184447 
L 484.028961 -123.500344 
L 483.472029 -122.816241 
L 483.353138 -122.132137 
L 483.151001 -121.448034 
L 482.524718 -120.763931 
L 482.336689 -120.079827 
L 482.228605 -119.395724 
L 480.598854 -118.711621 
L 480.425428 -118.027517 
L 480.26122 -117.343414 
L 479.822221 -116.659311 
L 479.70199 -115.975207 
L 478.41945 -115.291104 
L 477.422435 -114.607001 
L 477.222542 -113.922898 
L 476.599381 -113.238794 
L 475.835021 -112.554691 
L 473.891138 -111.870588 
L 473.305631 -111.186484 
L 473.197659 -110.502381 
L 472.599522 -109.818278 
L 472.4029 -109.134174 
L 471.810651 -108.450071 
L 471.726925 -107.765968 
L 471.463733 -107.081864 
L 471.432082 -106.397761 
L 471.248788 -105.713658 
L 469.445618 -105.029555 
L 468.978007 -104.345451 
L 468.898526 -103.661348 
L 468.739845 -102.977245 
L 467.346329 -102.293141 
L 467.321171 -101.609038 
L 466.38886 -100.924935 
L 466.037651 -100.240831 
L 464.744806 -99.556728 
L 462.190149 -98.872625 
L 461.535629 -98.188521 
L 461.186004 -97.504418 
L 461.022101 -96.820315 
L 459.979993 -96.136211 
L 459.88615 -95.452108 
L 458.239544 -94.768005 
L 458.079003 -94.083902 
L 455.888405 -93.399798 
L 453.337455 -92.715695 
L 453.242363 -92.031592 
L 452.385266 -91.347488 
L 451.9937 -90.663385 
L 451.919157 -89.979282 
L 449.821853 -89.295178 
L 449.591764 -88.611075 
L 449.026333 -87.926972 
L 444.456165 -87.242868 
L 443.80029 -86.558765 
L 443.488684 -85.874662 
L 442.505323 -85.190559 
L 440.972018 -84.506455 
L 437.580918 -83.822352 
L 437.576211 -83.138249 
L 436.711056 -82.454145 
L 427.651959 -81.770042 
L 427.26696 -81.085939 
L 426.31305 -80.401835 
L 425.159795 -79.717732 
L 412.507051 -79.033629 
L 410.3289 -78.349525 
L 408.763256 -77.665422 
L 406.365152 -76.981319 
L 400.26952 -76.297215 
L 390.065172 -75.613112 
L 382.756942 -74.929009 
L 379.641558 -74.244906 
L 361.338207 -73.560802 
L 345.309836 -72.876699 
L 333.936432 -72.192596 
z
" style="stroke: #000000; stroke-opacity: 0.7"/>
    </defs>
    <g clip-path="url(#paed6256723)">
     <use xlink:href="#mb8f3379f07" x="0" y="576" style="fill-opacity: 0.7; stroke: #000000; stroke-opacity: 0.7"/>
    </g>
   </g>
   <g id="PolyCollection_2">
    <defs>
     <path id="m23b75ae3ac" d="M 361.847469 -209.697361 
L 362.942404 -209.697361 
L 362.942404 -210.381464 
L 362.942404 -211.065568 
L 362.942404 -211.749671 
L 362.942404 -212.433774 
L 362.942404 -213.117878 
L 362.942404 -213.801981 
L 362.942404 -214.486084 
L 362.942404 -215.170188 
L 362.942404 -215.854291 
L 439.071261 -215.854291 
L 439.071261 -215.854291 
L 438.997259 -215.170188 
L 438.180823 -214.486084 
L 433.535449 -213.801981 
L 418.64367 -213.117878 
L 411.810969 -212.433774 
L 410.914461 -211.749671 
L 404.696897 -211.065568 
L 391.743279 -210.381464 
L 361.847469 -209.697361 
z
" style="stroke: #00a4bb; stroke-opacity: 0.7"/>
    </defs>
    <g clip-path="url(#paed6256723)">
     <use xlink:href="#m23b75ae3ac" x="0" y="576" style="fill: #00a4bb; fill-opacity: 0.7; stroke: #00a4bb; stroke-opacity: 0.7"/>
    </g>
   </g>
   <g id="PolyCollection_3">
    <defs>
     <path id="m51c1fd59c4" d="M 616.243477 -223.379427 
L 362.942404 -223.379427 
L 362.942404 -224.063531 
L 362.942404 -224.747634 
L 362.942404 -225.431737 
L 362.942404 -226.115841 
L 362.942404 -226.799944 
L 362.942404 -227.484047 
L 362.942404 -228.16815 
L 362.942404 -228.852254 
L 362.942404 -229.536357 
L 362.942404 -230.22046 
L 362.942404 -230.904564 
L 362.942404 -231.588667 
L 362.942404 -232.27277 
L 362.942404 -232.956874 
L 362.942404 -233.640977 
L 362.942404 -234.32508 
L 362.942404 -235.009184 
L 362.942404 -235.693287 
L 362.942404 -236.37739 
L 362.942404 -237.061493 
L 362.942404 -237.745597 
L 362.942404 -238.4297 
L 362.942404 -239.113803 
L 362.942404 -239.797907 
L 362.942404 -240.48201 
L 362.942404 -241.166113 
L 362.942404 -241.850217 
L 362.942404 -242.53432 
L 362.942404 -243.218423 
L 362.942404 -243.902527 
L 362.942404 -244.58663 
L 362.942404 -245.270733 
L 362.942404 -245.954837 
L 362.942404 -246.63894 
L 362.942404 -247.323043 
L 362.942404 -248.007146 
L 362.942404 -248.69125 
L 362.942404 -249.375353 
L 362.942404 -250.059456 
L 362.942404 -250.74356 
L 362.942404 -251.427663 
L 362.942404 -252.111766 
L 362.942404 -252.79587 
L 362.942404 -253.479973 
L 362.942404 -254.164076 
L 362.942404 -254.84818 
L 362.942404 -255.532283 
L 362.942404 -256.216386 
L 362.942404 -256.90049 
L 362.942404 -257.584593 
L 362.942404 -258.268696 
L 362.942404 -258.952799 
L 362.942404 -259.636903 
L 362.942404 -260.321006 
L 362.942404 -261.005109 
L 362.942404 -261.689213 
L 362.942404 -262.373316 
L 362.942404 -263.057419 
L 362.942404 -263.741523 
L 362.942404 -264.425626 
L 362.942404 -265.109729 
L 362.942404 -265.793833 
L 362.942404 -266.477936 
L 362.942404 -267.162039 
L 362.942404 -267.846142 
L 362.942404 -268.530246 
L 362.942404 -269.214349 
L 362.942404 -269.898452 
L 362.942404 -270.582556 
L 362.942404 -271.266659 
L 362.942404 -271.950762 
L 362.942404 -272.634866 
L 362.942404 -273.318969 
L 362.942404 -274.003072 
L 362.942404 -274.687176 
L 362.942404 -275.371279 
L 362.942404 -276.055382 
L 362.942404 -276.739486 
L 362.942404 -277.423589 
L 362.942404 -278.107692 
L 362.942404 -278.791795 
L 362.942404 -279.475899 
L 362.942404 -280.160002 
L 362.942404 -280.844105 
L 362.942404 -281.528209 
L 362.942404 -282.212312 
L 362.942404 -282.896415 
L 362.942404 -283.580519 
L 362.942404 -284.264622 
L 362.942404 -284.948725 
L 362.942404 -285.632829 
L 362.942404 -286.316932 
L 362.942404 -287.001035 
L 362.942404 -287.685138 
L 362.942404 -288.369242 
L 362.942404 -289.053345 
L 362.942404 -289.737448 
L 362.942404 -290.421552 
L 362.942404 -291.105655 
L 362.942404 -291.789758 
L 362.942404 -292.473862 
L 362.942404 -293.157965 
L 362.942404 -293.842068 
L 362.942404 -294.526172 
L 362.942404 -295.210275 
L 362.942404 -295.894378 
L 362.942404 -296.578482 
L 362.942404 -297.262585 
L 362.942404 -297.946688 
L 362.942404 -298.630791 
L 362.942404 -299.314895 
L 362.942404 -299.998998 
L 362.942404 -300.683101 
L 362.942404 -301.367205 
L 362.942404 -302.051308 
L 362.942404 -302.735411 
L 362.942404 -303.419515 
L 362.942404 -304.103618 
L 362.942404 -304.787721 
L 362.942404 -305.471825 
L 362.942404 -306.155928 
L 362.942404 -306.840031 
L 362.942404 -307.524134 
L 362.942404 -308.208238 
L 362.942404 -308.892341 
L 362.942404 -309.576444 
L 362.942404 -310.260548 
L 362.942404 -310.944651 
L 362.942404 -311.628754 
L 362.942404 -312.312858 
L 362.942404 -312.996961 
L 362.942404 -313.681064 
L 362.942404 -314.365168 
L 362.942404 -315.049271 
L 362.942404 -315.733374 
L 362.942404 -316.417478 
L 362.942404 -317.101581 
L 362.942404 -317.785684 
L 362.942404 -318.469787 
L 362.942404 -319.153891 
L 362.942404 -319.837994 
L 362.942404 -320.522097 
L 362.942404 -321.206201 
L 362.942404 -321.890304 
L 362.942404 -322.574407 
L 362.942404 -323.258511 
L 362.942404 -323.942614 
L 362.942404 -324.626717 
L 362.942404 -325.310821 
L 362.942404 -325.994924 
L 362.942404 -326.679027 
L 362.942404 -327.363131 
L 362.942404 -328.047234 
L 362.942404 -328.731337 
L 362.942404 -329.41544 
L 362.942404 -330.099544 
L 362.942404 -330.783647 
L 362.942404 -331.46775 
L 362.942404 -332.151854 
L 362.942404 -332.835957 
L 362.942404 -333.52006 
L 362.942404 -334.204164 
L 362.942404 -334.888267 
L 362.942404 -335.57237 
L 362.942404 -336.256474 
L 362.942404 -336.940577 
L 362.942404 -337.62468 
L 362.942404 -338.308783 
L 362.942404 -338.992887 
L 362.942404 -339.67699 
L 362.942404 -340.361093 
L 362.942404 -341.045197 
L 362.942404 -341.7293 
L 362.942404 -342.413403 
L 362.942404 -343.097507 
L 362.942404 -343.78161 
L 362.942404 -344.465713 
L 362.942404 -345.149817 
L 362.942404 -345.83392 
L 362.942404 -346.518023 
L 362.942404 -347.202127 
L 362.942404 -347.88623 
L 362.942404 -348.570333 
L 362.942404 -349.254436 
L 362.942404 -349.93854 
L 362.942404 -350.622643 
L 362.942404 -351.306746 
L 362.942404 -351.99085 
L 362.942404 -352.674953 
L 362.942404 -353.359056 
L 362.942404 -354.04316 
L 362.942404 -354.727263 
L 362.942404 -355.411366 
L 362.942404 -356.09547 
L 362.942404 -356.779573 
L 362.942404 -357.463676 
L 362.942404 -358.147779 
L 362.942404 -358.831883 
L 362.942404 -359.515986 
L 362.942404 -360.200089 
L 362.942404 -360.884193 
L 362.942404 -361.568296 
L 362.942404 -362.252399 
L 362.942404 -362.936503 
L 362.942404 -363.620606 
L 362.942404 -364.304709 
L 362.942404 -364.988813 
L 362.942404 -365.672916 
L 362.942404 -366.357019 
L 362.942404 -367.041123 
L 362.942404 -367.725226 
L 362.942404 -368.409329 
L 362.942404 -369.093432 
L 362.942404 -369.777536 
L 362.942404 -370.461639 
L 362.942404 -371.145742 
L 362.942404 -371.829846 
L 362.942404 -372.513949 
L 362.942404 -373.198052 
L 362.942404 -373.882156 
L 362.942404 -374.566259 
L 362.942404 -375.250362 
L 362.942404 -375.934466 
L 362.942404 -376.618569 
L 362.942404 -377.302672 
L 362.942404 -377.986775 
L 362.942404 -378.670879 
L 362.942404 -379.354982 
L 362.942404 -380.039085 
L 362.942404 -380.723189 
L 362.942404 -381.407292 
L 362.942404 -382.091395 
L 362.942404 -382.775499 
L 362.942404 -383.459602 
L 362.942404 -384.143705 
L 362.942404 -384.827809 
L 362.942404 -385.511912 
L 362.942404 -386.196015 
L 362.942404 -386.880119 
L 362.942404 -387.564222 
L 362.942404 -388.248325 
L 362.942404 -388.932428 
L 362.942404 -389.616532 
L 362.942404 -390.300635 
L 362.942404 -390.984738 
L 362.942404 -391.668842 
L 362.942404 -392.352945 
L 362.942404 -393.037048 
L 362.942404 -393.721152 
L 362.942404 -394.405255 
L 362.942404 -395.089358 
L 362.942404 -395.773462 
L 362.942404 -396.457565 
L 362.942404 -397.141668 
L 362.942404 -397.825772 
L 362.942404 -398.509875 
L 362.942404 -399.193978 
L 362.942404 -399.878081 
L 362.942404 -400.562185 
L 362.942404 -401.246288 
L 362.942404 -401.930391 
L 362.942404 -402.614495 
L 362.942404 -403.298598 
L 362.942404 -403.982701 
L 362.942404 -404.666805 
L 362.942404 -405.350908 
L 362.942404 -406.035011 
L 362.942404 -406.719115 
L 362.942404 -407.403218 
L 362.942404 -408.087321 
L 362.942404 -408.771424 
L 362.942404 -409.455528 
L 362.942404 -410.139631 
L 362.942404 -410.823734 
L 362.942404 -411.507838 
L 362.942404 -412.191941 
L 362.942404 -412.876044 
L 362.942404 -413.560148 
L 362.942404 -414.244251 
L 362.942404 -414.928354 
L 362.942404 -415.612458 
L 362.942404 -416.296561 
L 362.942404 -416.980664 
L 362.942404 -417.664768 
L 362.942404 -418.348871 
L 362.942404 -419.032974 
L 362.942404 -419.717077 
L 362.942404 -420.401181 
L 362.942404 -421.085284 
L 362.942404 -421.769387 
L 362.942404 -422.453491 
L 362.942404 -423.137594 
L 362.942404 -423.821697 
L 362.942404 -424.505801 
L 362.942404 -425.189904 
L 362.942404 -425.874007 
L 362.942404 -426.558111 
L 362.942404 -427.242214 
L 362.942404 -427.926317 
L 362.942404 -428.61042 
L 362.942404 -429.294524 
L 362.942404 -429.978627 
L 362.942404 -430.66273 
L 362.942404 -431.346834 
L 362.942404 -432.030937 
L 362.942404 -432.71504 
L 362.942404 -433.399144 
L 362.942404 -434.083247 
L 362.942404 -434.76735 
L 362.942404 -435.451454 
L 362.942404 -436.135557 
L 362.942404 -436.81966 
L 362.942404 -437.503764 
L 362.942404 -438.187867 
L 362.942404 -438.87197 
L 362.942404 -439.556073 
L 362.942404 -440.240177 
L 362.942404 -440.92428 
L 362.942404 -441.608383 
L 362.942404 -442.292487 
L 362.942404 -442.97659 
L 362.942404 -443.660693 
L 362.942404 -444.344797 
L 362.942404 -445.0289 
L 362.942404 -445.713003 
L 362.942404 -446.397107 
L 362.942404 -447.08121 
L 362.942404 -447.765313 
L 362.942404 -448.449417 
L 362.942404 -449.13352 
L 362.942404 -449.817623 
L 362.942404 -450.501726 
L 362.942404 -451.18583 
L 362.942404 -451.869933 
L 362.942404 -452.554036 
L 362.942404 -453.23814 
L 362.942404 -453.922243 
L 362.942404 -454.606346 
L 362.942404 -455.29045 
L 362.942404 -455.974553 
L 362.942404 -456.658656 
L 362.942404 -457.34276 
L 362.942404 -458.026863 
L 362.942404 -458.710966 
L 362.942404 -459.395069 
L 362.942404 -460.079173 
L 362.942404 -460.763276 
L 362.942404 -461.447379 
L 362.942404 -462.131483 
L 362.942404 -462.815586 
L 362.942404 -463.499689 
L 362.942404 -464.183793 
L 362.942404 -464.867896 
L 362.942404 -465.551999 
L 362.942404 -466.236103 
L 362.942404 -466.920206 
L 362.942404 -467.604309 
L 362.942404 -468.288413 
L 362.942404 -468.972516 
L 362.942404 -469.656619 
L 362.942404 -470.340722 
L 362.942404 -471.024826 
L 362.942404 -471.708929 
L 362.942404 -472.393032 
L 362.942404 -473.077136 
L 362.942404 -473.761239 
L 362.942404 -474.445342 
L 362.942404 -475.129446 
L 362.942404 -475.813549 
L 362.942404 -476.497652 
L 362.942404 -477.181756 
L 362.942404 -477.865859 
L 362.942404 -478.549962 
L 362.942404 -479.234065 
L 362.942404 -479.918169 
L 362.942404 -480.602272 
L 362.942404 -481.286375 
L 362.942404 -481.970479 
L 362.942404 -482.654582 
L 362.942404 -483.338685 
L 362.942404 -484.022789 
L 362.942404 -484.706892 
L 362.942404 -485.390995 
L 362.942404 -486.075099 
L 362.942404 -486.759202 
L 362.942404 -487.443305 
L 362.942404 -488.127409 
L 362.942404 -488.811512 
L 362.942404 -489.495615 
L 362.942404 -490.179718 
L 362.942404 -490.863822 
L 362.942404 -491.547925 
L 362.942404 -492.232028 
L 362.942404 -492.916132 
L 362.942404 -493.600235 
L 362.942404 -494.284338 
L 362.942404 -494.968442 
L 362.942404 -495.652545 
L 362.942404 -496.336648 
L 362.942404 -497.020752 
L 362.942404 -497.704855 
L 362.942404 -498.388958 
L 362.942404 -499.073061 
L 362.942404 -499.757165 
L 362.942404 -500.441268 
L 362.942404 -501.125371 
L 362.942404 -501.809475 
L 362.942404 -502.493578 
L 362.942404 -503.177681 
L 362.942404 -503.861785 
L 362.942404 -504.545888 
L 362.942404 -505.229991 
L 362.942404 -505.914095 
L 362.942404 -506.598198 
L 362.942404 -507.282301 
L 362.942404 -507.966405 
L 362.942404 -508.650508 
L 362.942404 -509.334611 
L 362.942404 -510.018714 
L 362.942404 -510.702818 
L 362.942404 -511.386921 
L 362.942404 -512.071024 
L 362.942404 -512.755128 
L 362.942404 -513.439231 
L 362.942404 -514.123334 
L 362.942404 -514.807438 
L 362.942404 -515.491541 
L 362.942404 -516.175644 
L 362.942404 -516.859748 
L 362.942404 -517.543851 
L 362.942404 -518.227954 
L 362.942404 -518.912058 
L 362.942404 -519.596161 
L 362.942404 -520.280264 
L 362.942404 -520.964367 
L 362.942404 -521.648471 
L 362.942404 -522.332574 
L 362.942404 -523.016677 
L 362.942404 -523.700781 
L 362.942404 -524.384884 
L 362.942404 -525.068987 
L 362.942404 -525.753091 
L 362.942404 -526.437194 
L 362.942404 -527.121297 
L 362.942404 -527.805401 
L 362.942404 -528.489504 
L 362.942404 -529.173607 
L 362.942404 -529.85771 
L 362.942404 -530.541814 
L 362.942404 -531.225917 
L 362.942404 -531.91002 
L 362.942404 -532.594124 
L 362.942404 -533.278227 
L 362.942404 -533.96233 
L 362.942404 -534.646434 
L 362.942404 -535.330537 
L 362.942404 -536.01464 
L 362.942404 -536.698744 
L 362.942404 -537.382847 
L 362.942404 -538.06695 
L 362.942404 -538.751054 
L 362.942404 -539.435157 
L 362.942404 -540.11926 
L 362.942404 -540.803363 
L 362.942404 -541.487467 
L 362.942404 -542.17157 
L 362.942404 -542.855673 
L 362.942404 -543.539777 
L 362.942404 -544.22388 
L 362.942404 -544.907983 
L 658.928051 -544.907983 
L 658.928051 -544.907983 
L 658.785929 -544.22388 
L 657.755817 -543.539777 
L 657.754593 -542.855673 
L 657.515682 -542.17157 
L 657.51086 -541.487467 
L 657.444462 -540.803363 
L 657.289886 -540.11926 
L 656.874165 -539.435157 
L 656.590948 -538.751054 
L 656.590061 -538.06695 
L 656.579249 -537.382847 
L 656.514031 -536.698744 
L 656.511974 -536.01464 
L 656.380598 -535.330537 
L 656.372733 -534.646434 
L 656.371357 -533.96233 
L 656.359535 -533.278227 
L 656.257279 -532.594124 
L 656.062223 -531.91002 
L 656.026173 -531.225917 
L 655.990126 -530.541814 
L 655.968233 -529.85771 
L 655.866133 -529.173607 
L 655.735932 -528.489504 
L 655.699487 -527.805401 
L 655.242799 -527.121297 
L 655.223254 -526.437194 
L 655.116424 -525.753091 
L 655.0964 -525.068987 
L 655.087886 -524.384884 
L 655.081134 -523.700781 
L 655.052741 -523.016677 
L 655.038796 -522.332574 
L 655.038706 -521.648471 
L 655.029171 -520.964367 
L 655.026699 -520.280264 
L 655.025171 -519.596161 
L 655.022725 -518.912058 
L 655.006266 -518.227954 
L 654.985545 -517.543851 
L 654.838479 -516.859748 
L 654.77154 -516.175644 
L 654.713536 -515.491541 
L 654.709039 -514.807438 
L 654.707911 -514.123334 
L 654.704249 -513.439231 
L 654.698224 -512.755128 
L 654.689717 -512.071024 
L 654.664961 -511.386921 
L 654.656141 -510.702818 
L 654.649769 -510.018714 
L 654.60402 -509.334611 
L 654.338399 -508.650508 
L 654.333186 -507.966405 
L 654.323984 -507.282301 
L 654.323955 -506.598198 
L 654.321962 -505.914095 
L 654.32177 -505.229991 
L 654.320394 -504.545888 
L 654.3163 -503.861785 
L 654.315368 -503.177681 
L 654.314967 -502.493578 
L 654.313879 -501.809475 
L 654.295191 -501.125371 
L 654.255064 -500.441268 
L 654.254667 -499.757165 
L 654.251694 -499.073061 
L 654.249383 -498.388958 
L 654.247285 -497.704855 
L 654.245803 -497.020752 
L 654.197929 -496.336648 
L 654.186358 -495.652545 
L 654.185895 -494.968442 
L 654.171082 -494.284338 
L 654.158458 -493.600235 
L 654.149826 -492.916132 
L 654.130226 -492.232028 
L 654.105297 -491.547925 
L 654.101764 -490.863822 
L 654.099906 -490.179718 
L 654.050754 -489.495615 
L 654.024647 -488.811512 
L 653.945661 -488.127409 
L 653.939878 -487.443305 
L 653.809061 -486.759202 
L 653.799372 -486.075099 
L 653.76922 -485.390995 
L 653.62097 -484.706892 
L 653.373703 -484.022789 
L 653.261085 -483.338685 
L 653.226156 -482.654582 
L 653.218074 -481.970479 
L 653.212993 -481.286375 
L 653.185736 -480.602272 
L 653.180144 -479.918169 
L 653.175347 -479.234065 
L 653.111443 -478.549962 
L 653.106673 -477.865859 
L 653.100376 -477.181756 
L 653.099803 -476.497652 
L 653.099229 -475.813549 
L 653.096581 -475.129446 
L 653.090974 -474.445342 
L 653.090474 -473.761239 
L 653.08423 -473.077136 
L 653.076731 -472.393032 
L 653.045413 -471.708929 
L 652.869052 -471.024826 
L 652.867144 -470.340722 
L 652.845814 -469.656619 
L 652.792281 -468.972516 
L 652.791416 -468.288413 
L 652.785995 -467.604309 
L 652.78257 -466.920206 
L 652.780565 -466.236103 
L 652.58978 -465.551999 
L 652.541058 -464.867896 
L 652.537803 -464.183793 
L 652.526267 -463.499689 
L 652.502346 -462.815586 
L 652.421964 -462.131483 
L 652.399141 -461.447379 
L 652.38964 -460.763276 
L 652.361505 -460.079173 
L 652.310264 -459.395069 
L 652.30941 -458.710966 
L 652.309205 -458.026863 
L 652.308036 -457.34276 
L 652.307071 -456.658656 
L 652.306524 -455.974553 
L 652.305291 -455.29045 
L 652.304419 -454.606346 
L 652.303911 -453.922243 
L 652.30388 -453.23814 
L 652.301834 -452.554036 
L 652.297201 -451.869933 
L 652.285467 -451.18583 
L 652.283577 -450.501726 
L 652.281331 -449.817623 
L 652.277291 -449.13352 
L 652.276132 -448.449417 
L 652.200548 -447.765313 
L 652.190502 -447.08121 
L 652.173066 -446.397107 
L 652.172534 -445.713003 
L 652.172352 -445.0289 
L 652.169448 -444.344797 
L 652.104844 -443.660693 
L 652.089687 -442.97659 
L 652.066868 -442.292487 
L 652.049241 -441.608383 
L 652.023603 -440.92428 
L 652.003825 -440.240177 
L 651.875957 -439.556073 
L 651.853009 -438.87197 
L 651.833626 -438.187867 
L 651.781144 -437.503764 
L 651.733897 -436.81966 
L 651.660248 -436.135557 
L 651.645911 -435.451454 
L 651.461952 -434.76735 
L 651.433367 -434.083247 
L 651.097991 -433.399144 
L 651.092213 -432.71504 
L 651.085504 -432.030937 
L 651.038388 -431.346834 
L 651.033461 -430.66273 
L 650.997794 -429.978627 
L 650.955422 -429.294524 
L 650.911556 -428.61042 
L 650.898213 -427.926317 
L 650.896586 -427.242214 
L 650.890015 -426.558111 
L 650.887667 -425.874007 
L 650.887086 -425.189904 
L 650.845857 -424.505801 
L 650.841638 -423.821697 
L 650.840435 -423.137594 
L 650.80858 -422.453491 
L 650.627842 -421.769387 
L 650.602151 -421.085284 
L 650.563241 -420.401181 
L 650.477404 -419.717077 
L 650.477134 -419.032974 
L 650.474855 -418.348871 
L 650.467469 -417.664768 
L 650.39582 -416.980664 
L 650.344845 -416.296561 
L 650.314295 -415.612458 
L 650.302452 -414.928354 
L 650.292466 -414.244251 
L 650.188141 -413.560148 
L 650.168772 -412.876044 
L 650.164712 -412.191941 
L 650.153761 -411.507838 
L 650.152233 -410.823734 
L 650.14925 -410.139631 
L 650.116782 -409.455528 
L 650.073599 -408.771424 
L 650.073107 -408.087321 
L 650.071887 -407.403218 
L 650.071289 -406.719115 
L 650.062121 -406.035011 
L 650.01947 -405.350908 
L 649.930206 -404.666805 
L 649.907253 -403.982701 
L 649.897424 -403.298598 
L 649.879067 -402.614495 
L 649.860323 -401.930391 
L 649.836048 -401.246288 
L 649.833492 -400.562185 
L 649.824719 -399.878081 
L 649.741148 -399.193978 
L 649.726238 -398.509875 
L 649.725801 -397.825772 
L 649.695935 -397.141668 
L 649.67616 -396.457565 
L 649.56671 -395.773462 
L 649.511708 -395.089358 
L 649.507637 -394.405255 
L 649.453414 -393.721152 
L 649.393207 -393.037048 
L 649.193034 -392.352945 
L 649.150562 -391.668842 
L 649.032612 -390.984738 
L 648.943892 -390.300635 
L 648.942305 -389.616532 
L 648.90886 -388.932428 
L 648.90299 -388.248325 
L 648.902721 -387.564222 
L 648.876362 -386.880119 
L 648.866741 -386.196015 
L 648.860542 -385.511912 
L 648.832017 -384.827809 
L 648.827865 -384.143705 
L 648.765999 -383.459602 
L 648.723984 -382.775499 
L 648.685885 -382.091395 
L 648.682028 -381.407292 
L 648.618708 -380.723189 
L 648.567673 -380.039085 
L 648.417336 -379.354982 
L 648.27375 -378.670879 
L 648.128884 -377.986775 
L 648.066116 -377.302672 
L 647.879915 -376.618569 
L 647.839293 -375.934466 
L 647.809225 -375.250362 
L 647.793808 -374.566259 
L 647.763398 -373.882156 
L 647.763247 -373.198052 
L 647.750148 -372.513949 
L 647.738508 -371.829846 
L 647.657098 -371.145742 
L 647.62271 -370.461639 
L 647.618866 -369.777536 
L 647.600306 -369.093432 
L 647.597027 -368.409329 
L 647.54709 -367.725226 
L 647.513338 -367.041123 
L 647.408978 -366.357019 
L 647.37977 -365.672916 
L 647.355266 -364.988813 
L 647.354943 -364.304709 
L 647.353005 -363.620606 
L 647.2863 -362.936503 
L 647.262311 -362.252399 
L 647.256357 -361.568296 
L 647.116914 -360.884193 
L 646.988124 -360.200089 
L 646.939321 -359.515986 
L 646.934998 -358.831883 
L 646.820264 -358.147779 
L 646.73376 -357.463676 
L 646.719417 -356.779573 
L 646.704637 -356.09547 
L 646.604578 -355.411366 
L 646.505738 -354.727263 
L 646.500278 -354.04316 
L 646.488177 -353.359056 
L 646.482523 -352.674953 
L 646.476896 -351.99085 
L 646.476043 -351.306746 
L 646.473764 -350.622643 
L 646.468251 -349.93854 
L 646.466247 -349.254436 
L 646.461567 -348.570333 
L 646.443072 -347.88623 
L 646.403064 -347.202127 
L 646.313258 -346.518023 
L 646.270091 -345.83392 
L 646.265313 -345.149817 
L 646.254361 -344.465713 
L 646.225064 -343.78161 
L 646.208298 -343.097507 
L 646.108048 -342.413403 
L 646.108009 -341.7293 
L 646.021676 -341.045197 
L 646.001377 -340.361093 
L 645.987907 -339.67699 
L 645.959964 -338.992887 
L 645.859591 -338.308783 
L 645.851368 -337.62468 
L 645.84984 -336.940577 
L 645.844431 -336.256474 
L 645.838349 -335.57237 
L 645.822529 -334.888267 
L 645.761001 -334.204164 
L 645.723583 -333.52006 
L 645.709964 -332.835957 
L 645.701739 -332.151854 
L 645.466065 -331.46775 
L 645.329148 -330.783647 
L 645.252502 -330.099544 
L 644.94195 -329.41544 
L 644.904214 -328.731337 
L 644.901695 -328.047234 
L 644.898287 -327.363131 
L 644.897415 -326.679027 
L 644.89386 -325.994924 
L 644.890421 -325.310821 
L 644.817545 -324.626717 
L 644.807592 -323.942614 
L 644.804367 -323.258511 
L 644.798203 -322.574407 
L 644.773769 -321.890304 
L 644.724145 -321.206201 
L 644.681535 -320.522097 
L 644.645251 -319.837994 
L 644.621452 -319.153891 
L 644.601232 -318.469787 
L 644.531549 -317.785684 
L 644.496288 -317.101581 
L 644.441682 -316.417478 
L 644.420412 -315.733374 
L 644.420383 -315.049271 
L 644.396438 -314.365168 
L 644.394475 -313.681064 
L 644.373572 -312.996961 
L 644.358851 -312.312858 
L 644.289729 -311.628754 
L 644.077136 -310.944651 
L 643.909315 -310.260548 
L 643.839942 -309.576444 
L 643.839511 -308.892341 
L 643.83302 -308.208238 
L 643.81895 -307.524134 
L 643.463253 -306.840031 
L 643.455572 -306.155928 
L 643.451182 -305.471825 
L 643.442038 -304.787721 
L 643.37777 -304.103618 
L 643.33549 -303.419515 
L 643.282404 -302.735411 
L 643.278087 -302.051308 
L 643.240103 -301.367205 
L 643.11432 -300.683101 
L 643.109575 -299.998998 
L 643.108832 -299.314895 
L 643.103863 -298.630791 
L 643.088206 -297.946688 
L 643.023206 -297.262585 
L 643.021836 -296.578482 
L 643.020237 -295.894378 
L 643.013063 -295.210275 
L 642.968815 -294.526172 
L 642.94546 -293.842068 
L 642.907232 -293.157965 
L 642.885103 -292.473862 
L 642.822892 -291.789758 
L 642.705695 -291.105655 
L 642.32447 -290.421552 
L 641.924152 -289.737448 
L 641.923267 -289.053345 
L 641.778376 -288.369242 
L 641.744702 -287.685138 
L 641.736917 -287.001035 
L 641.715197 -286.316932 
L 641.658103 -285.632829 
L 641.633761 -284.948725 
L 641.471576 -284.264622 
L 641.455908 -283.580519 
L 641.43931 -282.896415 
L 641.029852 -282.212312 
L 640.97307 -281.528209 
L 640.895136 -280.844105 
L 640.695784 -280.160002 
L 640.636088 -279.475899 
L 640.443664 -278.791795 
L 640.302997 -278.107692 
L 640.269589 -277.423589 
L 640.264802 -276.739486 
L 640.240237 -276.055382 
L 640.226126 -275.371279 
L 640.090283 -274.687176 
L 640.03621 -274.003072 
L 639.994857 -273.318969 
L 639.944404 -272.634866 
L 639.921567 -271.950762 
L 639.915029 -271.266659 
L 639.700244 -270.582556 
L 639.3293 -269.898452 
L 639.295919 -269.214349 
L 639.135513 -268.530246 
L 638.897571 -267.846142 
L 638.716133 -267.162039 
L 638.715122 -266.477936 
L 638.568795 -265.793833 
L 638.491527 -265.109729 
L 638.399791 -264.425626 
L 638.269402 -263.741523 
L 638.241616 -263.057419 
L 638.240139 -262.373316 
L 637.601029 -261.689213 
L 637.503586 -261.005109 
L 637.469742 -260.321006 
L 637.3115 -259.636903 
L 637.311377 -258.952799 
L 637.300441 -258.268696 
L 637.299748 -257.584593 
L 637.136807 -256.90049 
L 637.130836 -256.216386 
L 637.118941 -255.532283 
L 637.080247 -254.84818 
L 636.968701 -254.164076 
L 636.917348 -253.479973 
L 636.913285 -252.79587 
L 636.814267 -252.111766 
L 636.745553 -251.427663 
L 636.600067 -250.74356 
L 636.57066 -250.059456 
L 636.324986 -249.375353 
L 636.042603 -248.69125 
L 635.753071 -248.007146 
L 635.589012 -247.323043 
L 634.758133 -246.63894 
L 634.447174 -245.954837 
L 634.397623 -245.270733 
L 634.303793 -244.58663 
L 634.290078 -243.902527 
L 634.219257 -243.218423 
L 634.107605 -242.53432 
L 633.668692 -241.850217 
L 633.654329 -241.166113 
L 633.436318 -240.48201 
L 633.430215 -239.797907 
L 633.183589 -239.113803 
L 633.100293 -238.4297 
L 632.828458 -237.745597 
L 631.685937 -237.061493 
L 631.670657 -236.37739 
L 631.46358 -235.693287 
L 631.058267 -235.009184 
L 630.963854 -234.32508 
L 630.890846 -233.640977 
L 630.689942 -232.956874 
L 630.077409 -232.27277 
L 629.984526 -231.588667 
L 629.758927 -230.904564 
L 627.641206 -230.22046 
L 627.399375 -229.536357 
L 626.701518 -228.852254 
L 624.379465 -228.16815 
L 624.074221 -227.484047 
L 624.057912 -226.799944 
L 623.386613 -226.115841 
L 621.933075 -225.431737 
L 619.34077 -224.747634 
L 618.339207 -224.063531 
L 616.243477 -223.379427 
z
" style="stroke: #ccf900; stroke-opacity: 0.7"/>
    </defs>
    <g clip-path="url(#paed6256723)">
     <use xlink:href="#m51c1fd59c4" x="0" y="576" style="fill: #ccf900; fill-opacity: 0.7; stroke: #ccf900; stroke-opacity: 0.7"/>
    </g>
   </g>
   <g id="matplotlib.axis_1">
    <g id="xtick_1">
     <g id="line2d_1">
      <defs>
       <path id="m503a24e535" d="M 0 0 
L 0 3.5 
" style="stroke: #000000; stroke-width: 0.8"/>
      </defs>
      <g>
       <use xlink:href="#m503a24e535" x="42.495313" y="510.648438" style="stroke: #000000; stroke-width: 0.8"/>
      </g>
     </g>
     <g id="text_1">
      <!-- −1.0 -->
      <g transform="translate(18.2125 532.845312) scale(0.2 -0.2)">
       <defs>
        <path id="DejaVuSans-2212" d="M 678 2272 
L 4684 2272 
L 4684 1741 
L 678 1741 
L 678 2272 
z
" transform="scale(0.015625)"/>
        <path id="DejaVuSans-31" d="M 794 531 
L 1825 531 
L 1825 4091 
L 703 3866 
L 703 4441 
L 1819 4666 
L 2450 4666 
L 2450 531 
L 3481 531 
L 3481 0 
L 794 0 
L 794 531 
z
" transform="scale(0.015625)"/>
        <path id="DejaVuSans-2e" d="M 684 794 
L 1344 794 
L 1344 0 
L 684 0 
L 684 794 
z
" transform="scale(0.015625)"/>
        <path id="DejaVuSans-30" d="M 2034 4250 
Q 1547 4250 1301 3770 
Q 1056 3291 1056 2328 
Q 1056 1369 1301 889 
Q 1547 409 2034 409 
Q 2525 409 2770 889 
Q 3016 1369 3016 2328 
Q 3016 3291 2770 3770 
Q 2525 4250 2034 4250 
z
M 2034 4750 
Q 2819 4750 3233 4129 
Q 3647 3509 3647 2328 
Q 3647 1150 3233 529 
Q 2819 -91 2034 -91 
Q 1250 -91 836 529 
Q 422 1150 422 2328 
Q 422 3509 836 4129 
Q 1250 4750 2034 4750 
z
" transform="scale(0.015625)"/>
       </defs>
       <use xlink:href="#DejaVuSans-2212"/>
       <use xlink:href="#DejaVuSans-31" x="83.789062"/>
       <use xlink:href="#DejaVuSans-2e" x="147.412109"/>
       <use xlink:href="#DejaVuSans-30" x="179.199219"/>
      </g>
     </g>
    </g>
    <g id="xtick_2">
     <g id="line2d_2">
      <g>
       <use xlink:href="#m503a24e535" x="106.584731" y="510.648438" style="stroke: #000000; stroke-width: 0.8"/>
      </g>
     </g>
     <g id="text_2">
      <!-- −0.8 -->
      <g transform="translate(82.301918 532.845312) scale(0.2 -0.2)">
       <defs>
        <path id="DejaVuSans-38" d="M 2034 2216 
Q 1584 2216 1326 1975 
Q 1069 1734 1069 1313 
Q 1069 891 1326 650 
Q 1584 409 2034 409 
Q 2484 409 2743 651 
Q 3003 894 3003 1313 
Q 3003 1734 2745 1975 
Q 2488 2216 2034 2216 
z
M 1403 2484 
Q 997 2584 770 2862 
Q 544 3141 544 3541 
Q 544 4100 942 4425 
Q 1341 4750 2034 4750 
Q 2731 4750 3128 4425 
Q 3525 4100 3525 3541 
Q 3525 3141 3298 2862 
Q 3072 2584 2669 2484 
Q 3125 2378 3379 2068 
Q 3634 1759 3634 1313 
Q 3634 634 3220 271 
Q 2806 -91 2034 -91 
Q 1263 -91 848 271 
Q 434 634 434 1313 
Q 434 1759 690 2068 
Q 947 2378 1403 2484 
z
M 1172 3481 
Q 1172 3119 1398 2916 
Q 1625 2713 2034 2713 
Q 2441 2713 2670 2916 
Q 2900 3119 2900 3481 
Q 2900 3844 2670 4047 
Q 2441 4250 2034 4250 
Q 1625 4250 1398 4047 
Q 1172 3844 1172 3481 
z
" transform="scale(0.015625)"/>
       </defs>
       <use xlink:href="#DejaVuSans-2212"/>
       <use xlink:href="#DejaVuSans-30" x="83.789062"/>
       <use xlink:href="#DejaVuSans-2e" x="147.412109"/>
       <use xlink:href="#DejaVuSans-38" x="179.199219"/>
      </g>
     </g>
    </g>
    <g id="xtick_3">
     <g id="line2d_3">
      <g>
       <use xlink:href="#m503a24e535" x="170.674149" y="510.648438" style="stroke: #000000; stroke-width: 0.8"/>
      </g>
     </g>
     <g id="text_3">
      <!-- −0.6 -->
      <g transform="translate(146.391336 532.845312) scale(0.2 -0.2)">
       <defs>
        <path id="DejaVuSans-36" d="M 2113 2584 
Q 1688 2584 1439 2293 
Q 1191 2003 1191 1497 
Q 1191 994 1439 701 
Q 1688 409 2113 409 
Q 2538 409 2786 701 
Q 3034 994 3034 1497 
Q 3034 2003 2786 2293 
Q 2538 2584 2113 2584 
z
M 3366 4563 
L 3366 3988 
Q 3128 4100 2886 4159 
Q 2644 4219 2406 4219 
Q 1781 4219 1451 3797 
Q 1122 3375 1075 2522 
Q 1259 2794 1537 2939 
Q 1816 3084 2150 3084 
Q 2853 3084 3261 2657 
Q 3669 2231 3669 1497 
Q 3669 778 3244 343 
Q 2819 -91 2113 -91 
Q 1303 -91 875 529 
Q 447 1150 447 2328 
Q 447 3434 972 4092 
Q 1497 4750 2381 4750 
Q 2619 4750 2861 4703 
Q 3103 4656 3366 4563 
z
" transform="scale(0.015625)"/>
       </defs>
       <use xlink:href="#DejaVuSans-2212"/>
       <use xlink:href="#DejaVuSans-30" x="83.789062"/>
       <use xlink:href="#DejaVuSans-2e" x="147.412109"/>
       <use xlink:href="#DejaVuSans-36" x="179.199219"/>
      </g>
     </g>
    </g>
    <g id="xtick_4">
     <g id="line2d_4">
      <g>
       <use xlink:href="#m503a24e535" x="234.763567" y="510.648438" style="stroke: #000000; stroke-width: 0.8"/>
      </g>
     </g>
     <g id="text_4">
      <!-- −0.4 -->
      <g transform="translate(210.480755 532.845312) scale(0.2 -0.2)">
       <defs>
        <path id="DejaVuSans-34" d="M 2419 4116 
L 825 1625 
L 2419 1625 
L 2419 4116 
z
M 2253 4666 
L 3047 4666 
L 3047 1625 
L 3713 1625 
L 3713 1100 
L 3047 1100 
L 3047 0 
L 2419 0 
L 2419 1100 
L 313 1100 
L 313 1709 
L 2253 4666 
z
" transform="scale(0.015625)"/>
       </defs>
       <use xlink:href="#DejaVuSans-2212"/>
       <use xlink:href="#DejaVuSans-30" x="83.789062"/>
       <use xlink:href="#DejaVuSans-2e" x="147.412109"/>
       <use xlink:href="#DejaVuSans-34" x="179.199219"/>
      </g>
     </g>
    </g>
    <g id="xtick_5">
     <g id="line2d_5">
      <g>
       <use xlink:href="#m503a24e535" x="298.852985" y="510.648438" style="stroke: #000000; stroke-width: 0.8"/>
      </g>
     </g>
     <g id="text_5">
      <!-- −0.2 -->
      <g transform="translate(274.570173 532.845312) scale(0.2 -0.2)">
       <defs>
        <path id="DejaVuSans-32" d="M 1228 531 
L 3431 531 
L 3431 0 
L 469 0 
L 469 531 
Q 828 903 1448 1529 
Q 2069 2156 2228 2338 
Q 2531 2678 2651 2914 
Q 2772 3150 2772 3378 
Q 2772 3750 2511 3984 
Q 2250 4219 1831 4219 
Q 1534 4219 1204 4116 
Q 875 4013 500 3803 
L 500 4441 
Q 881 4594 1212 4672 
Q 1544 4750 1819 4750 
Q 2544 4750 2975 4387 
Q 3406 4025 3406 3419 
Q 3406 3131 3298 2873 
Q 3191 2616 2906 2266 
Q 2828 2175 2409 1742 
Q 1991 1309 1228 531 
z
" transform="scale(0.015625)"/>
       </defs>
       <use xlink:href="#DejaVuSans-2212"/>
       <use xlink:href="#DejaVuSans-30" x="83.789062"/>
       <use xlink:href="#DejaVuSans-2e" x="147.412109"/>
       <use xlink:href="#DejaVuSans-32" x="179.199219"/>
      </g>
     </g>
    </g>
    <g id="xtick_6">
     <g id="line2d_6">
      <g>
       <use xlink:href="#m503a24e535" x="362.942404" y="510.648438" style="stroke: #000000; stroke-width: 0.8"/>
      </g>
     </g>
     <g id="text_6">
      <!-- 0.0 -->
      <g transform="translate(347.039279 532.845312) scale(0.2 -0.2)">
       <use xlink:href="#DejaVuSans-30"/>
       <use xlink:href="#DejaVuSans-2e" x="63.623047"/>
       <use xlink:href="#DejaVuSans-30" x="95.410156"/>
      </g>
     </g>
    </g>
    <g id="xtick_7">
     <g id="line2d_7">
      <g>
       <use xlink:href="#m503a24e535" x="427.031822" y="510.648438" style="stroke: #000000; stroke-width: 0.8"/>
      </g>
     </g>
     <g id="text_7">
      <!-- 0.2 -->
      <g transform="translate(411.128697 532.845312) scale(0.2 -0.2)">
       <use xlink:href="#DejaVuSans-30"/>
       <use xlink:href="#DejaVuSans-2e" x="63.623047"/>
       <use xlink:href="#DejaVuSans-32" x="95.410156"/>
      </g>
     </g>
    </g>
    <g id="xtick_8">
     <g id="line2d_8">
      <g>
       <use xlink:href="#m503a24e535" x="491.12124" y="510.648438" style="stroke: #000000; stroke-width: 0.8"/>
      </g>
     </g>
     <g id="text_8">
      <!-- 0.4 -->
      <g transform="translate(475.218115 532.845312) scale(0.2 -0.2)">
       <use xlink:href="#DejaVuSans-30"/>
       <use xlink:href="#DejaVuSans-2e" x="63.623047"/>
       <use xlink:href="#DejaVuSans-34" x="95.410156"/>
      </g>
     </g>
    </g>
    <g id="xtick_9">
     <g id="line2d_9">
      <g>
       <use xlink:href="#m503a24e535" x="555.210658" y="510.648438" style="stroke: #000000; stroke-width: 0.8"/>
      </g>
     </g>
     <g id="text_9">
      <!-- 0.6 -->
      <g transform="translate(539.307533 532.845312) scale(0.2 -0.2)">
       <use xlink:href="#DejaVuSans-30"/>
       <use xlink:href="#DejaVuSans-2e" x="63.623047"/>
       <use xlink:href="#DejaVuSans-36" x="95.410156"/>
      </g>
     </g>
    </g>
    <g id="xtick_10">
     <g id="line2d_10">
      <g>
       <use xlink:href="#m503a24e535" x="619.300077" y="510.648438" style="stroke: #000000; stroke-width: 0.8"/>
      </g>
     </g>
     <g id="text_10">
      <!-- 0.8 -->
      <g transform="translate(603.396952 532.845312) scale(0.2 -0.2)">
       <use xlink:href="#DejaVuSans-30"/>
       <use xlink:href="#DejaVuSans-2e" x="63.623047"/>
       <use xlink:href="#DejaVuSans-38" x="95.410156"/>
      </g>
     </g>
    </g>
    <g id="xtick_11">
     <g id="line2d_11">
      <g>
       <use xlink:href="#m503a24e535" x="683.389495" y="510.648438" style="stroke: #000000; stroke-width: 0.8"/>
      </g>
     </g>
     <g id="text_11">
      <!-- 1.0 -->
      <g transform="translate(667.48637 532.845312) scale(0.2 -0.2)">
       <use xlink:href="#DejaVuSans-31"/>
       <use xlink:href="#DejaVuSans-2e" x="63.623047"/>
       <use xlink:href="#DejaVuSans-30" x="95.410156"/>
      </g>
     </g>
    </g>
    <g id="text_12">
     <!-- Silhouette coefficient -->
     <g transform="translate(230.067404 560.000781) scale(0.25 -0.25)">
      <defs>
       <path id="DejaVuSans-53" d="M 3425 4513 
L 3425 3897 
Q 3066 4069 2747 4153 
Q 2428 4238 2131 4238 
Q 1616 4238 1336 4038 
Q 1056 3838 1056 3469 
Q 1056 3159 1242 3001 
Q 1428 2844 1947 2747 
L 2328 2669 
Q 3034 2534 3370 2195 
Q 3706 1856 3706 1288 
Q 3706 609 3251 259 
Q 2797 -91 1919 -91 
Q 1588 -91 1214 -16 
Q 841 59 441 206 
L 441 856 
Q 825 641 1194 531 
Q 1563 422 1919 422 
Q 2459 422 2753 634 
Q 3047 847 3047 1241 
Q 3047 1584 2836 1778 
Q 2625 1972 2144 2069 
L 1759 2144 
Q 1053 2284 737 2584 
Q 422 2884 422 3419 
Q 422 4038 858 4394 
Q 1294 4750 2059 4750 
Q 2388 4750 2728 4690 
Q 3069 4631 3425 4513 
z
" transform="scale(0.015625)"/>
       <path id="DejaVuSans-69" d="M 603 3500 
L 1178 3500 
L 1178 0 
L 603 0 
L 603 3500 
z
M 603 4863 
L 1178 4863 
L 1178 4134 
L 603 4134 
L 603 4863 
z
" transform="scale(0.015625)"/>
       <path id="DejaVuSans-6c" d="M 603 4863 
L 1178 4863 
L 1178 0 
L 603 0 
L 603 4863 
z
" transform="scale(0.015625)"/>
       <path id="DejaVuSans-68" d="M 3513 2113 
L 3513 0 
L 2938 0 
L 2938 2094 
Q 2938 2591 2744 2837 
Q 2550 3084 2163 3084 
Q 1697 3084 1428 2787 
Q 1159 2491 1159 1978 
L 1159 0 
L 581 0 
L 581 4863 
L 1159 4863 
L 1159 2956 
Q 1366 3272 1645 3428 
Q 1925 3584 2291 3584 
Q 2894 3584 3203 3211 
Q 3513 2838 3513 2113 
z
" transform="scale(0.015625)"/>
       <path id="DejaVuSans-6f" d="M 1959 3097 
Q 1497 3097 1228 2736 
Q 959 2375 959 1747 
Q 959 1119 1226 758 
Q 1494 397 1959 397 
Q 2419 397 2687 759 
Q 2956 1122 2956 1747 
Q 2956 2369 2687 2733 
Q 2419 3097 1959 3097 
z
M 1959 3584 
Q 2709 3584 3137 3096 
Q 3566 2609 3566 1747 
Q 3566 888 3137 398 
Q 2709 -91 1959 -91 
Q 1206 -91 779 398 
Q 353 888 353 1747 
Q 353 2609 779 3096 
Q 1206 3584 1959 3584 
z
" transform="scale(0.015625)"/>
       <path id="DejaVuSans-75" d="M 544 1381 
L 544 3500 
L 1119 3500 
L 1119 1403 
Q 1119 906 1312 657 
Q 1506 409 1894 409 
Q 2359 409 2629 706 
Q 2900 1003 2900 1516 
L 2900 3500 
L 3475 3500 
L 3475 0 
L 2900 0 
L 2900 538 
Q 2691 219 2414 64 
Q 2138 -91 1772 -91 
Q 1169 -91 856 284 
Q 544 659 544 1381 
z
M 1991 3584 
L 1991 3584 
z
" transform="scale(0.015625)"/>
       <path id="DejaVuSans-65" d="M 3597 1894 
L 3597 1613 
L 953 1613 
Q 991 1019 1311 708 
Q 1631 397 2203 397 
Q 2534 397 2845 478 
Q 3156 559 3463 722 
L 3463 178 
Q 3153 47 2828 -22 
Q 2503 -91 2169 -91 
Q 1331 -91 842 396 
Q 353 884 353 1716 
Q 353 2575 817 3079 
Q 1281 3584 2069 3584 
Q 2775 3584 3186 3129 
Q 3597 2675 3597 1894 
z
M 3022 2063 
Q 3016 2534 2758 2815 
Q 2500 3097 2075 3097 
Q 1594 3097 1305 2825 
Q 1016 2553 972 2059 
L 3022 2063 
z
" transform="scale(0.015625)"/>
       <path id="DejaVuSans-74" d="M 1172 4494 
L 1172 3500 
L 2356 3500 
L 2356 3053 
L 1172 3053 
L 1172 1153 
Q 1172 725 1289 603 
Q 1406 481 1766 481 
L 2356 481 
L 2356 0 
L 1766 0 
Q 1100 0 847 248 
Q 594 497 594 1153 
L 594 3053 
L 172 3053 
L 172 3500 
L 594 3500 
L 594 4494 
L 1172 4494 
z
" transform="scale(0.015625)"/>
       <path id="DejaVuSans-20" transform="scale(0.015625)"/>
       <path id="DejaVuSans-63" d="M 3122 3366 
L 3122 2828 
Q 2878 2963 2633 3030 
Q 2388 3097 2138 3097 
Q 1578 3097 1268 2742 
Q 959 2388 959 1747 
Q 959 1106 1268 751 
Q 1578 397 2138 397 
Q 2388 397 2633 464 
Q 2878 531 3122 666 
L 3122 134 
Q 2881 22 2623 -34 
Q 2366 -91 2075 -91 
Q 1284 -91 818 406 
Q 353 903 353 1747 
Q 353 2603 823 3093 
Q 1294 3584 2113 3584 
Q 2378 3584 2631 3529 
Q 2884 3475 3122 3366 
z
" transform="scale(0.015625)"/>
       <path id="DejaVuSans-66" d="M 2375 4863 
L 2375 4384 
L 1825 4384 
Q 1516 4384 1395 4259 
Q 1275 4134 1275 3809 
L 1275 3500 
L 2222 3500 
L 2222 3053 
L 1275 3053 
L 1275 0 
L 697 0 
L 697 3053 
L 147 3053 
L 147 3500 
L 697 3500 
L 697 3744 
Q 697 4328 969 4595 
Q 1241 4863 1831 4863 
L 2375 4863 
z
" transform="scale(0.015625)"/>
       <path id="DejaVuSans-6e" d="M 3513 2113 
L 3513 0 
L 2938 0 
L 2938 2094 
Q 2938 2591 2744 2837 
Q 2550 3084 2163 3084 
Q 1697 3084 1428 2787 
Q 1159 2491 1159 1978 
L 1159 0 
L 581 0 
L 581 3500 
L 1159 3500 
L 1159 2956 
Q 1366 3272 1645 3428 
Q 1925 3584 2291 3584 
Q 2894 3584 3203 3211 
Q 3513 2838 3513 2113 
z
" transform="scale(0.015625)"/>
      </defs>
      <use xlink:href="#DejaVuSans-53"/>
      <use xlink:href="#DejaVuSans-69" x="63.476562"/>
      <use xlink:href="#DejaVuSans-6c" x="91.259766"/>
      <use xlink:href="#DejaVuSans-68" x="119.042969"/>
      <use xlink:href="#DejaVuSans-6f" x="182.421875"/>
      <use xlink:href="#DejaVuSans-75" x="243.603516"/>
      <use xlink:href="#DejaVuSans-65" x="306.982422"/>
      <use xlink:href="#DejaVuSans-74" x="368.505859"/>
      <use xlink:href="#DejaVuSans-74" x="407.714844"/>
      <use xlink:href="#DejaVuSans-65" x="446.923828"/>
      <use xlink:href="#DejaVuSans-20" x="508.447266"/>
      <use xlink:href="#DejaVuSans-63" x="540.234375"/>
      <use xlink:href="#DejaVuSans-6f" x="595.214844"/>
      <use xlink:href="#DejaVuSans-65" x="656.396484"/>
      <use xlink:href="#DejaVuSans-66" x="717.919922"/>
      <use xlink:href="#DejaVuSans-66" x="753.125"/>
      <use xlink:href="#DejaVuSans-69" x="788.330078"/>
      <use xlink:href="#DejaVuSans-63" x="816.113281"/>
      <use xlink:href="#DejaVuSans-69" x="871.09375"/>
      <use xlink:href="#DejaVuSans-65" x="898.876953"/>
      <use xlink:href="#DejaVuSans-6e" x="960.400391"/>
      <use xlink:href="#DejaVuSans-74" x="1023.779297"/>
     </g>
    </g>
   </g>
   <g id="matplotlib.axis_2">
    <g id="text_13">
     <!-- Predicted label -->
     <g transform="translate(29.796094 359.988518) rotate(-90) scale(0.25 -0.25)">
      <defs>
       <path id="DejaVuSans-50" d="M 1259 4147 
L 1259 2394 
L 2053 2394 
Q 2494 2394 2734 2622 
Q 2975 2850 2975 3272 
Q 2975 3691 2734 3919 
Q 2494 4147 2053 4147 
L 1259 4147 
z
M 628 4666 
L 2053 4666 
Q 2838 4666 3239 4311 
Q 3641 3956 3641 3272 
Q 3641 2581 3239 2228 
Q 2838 1875 2053 1875 
L 1259 1875 
L 1259 0 
L 628 0 
L 628 4666 
z
" transform="scale(0.015625)"/>
       <path id="DejaVuSans-72" d="M 2631 2963 
Q 2534 3019 2420 3045 
Q 2306 3072 2169 3072 
Q 1681 3072 1420 2755 
Q 1159 2438 1159 1844 
L 1159 0 
L 581 0 
L 581 3500 
L 1159 3500 
L 1159 2956 
Q 1341 3275 1631 3429 
Q 1922 3584 2338 3584 
Q 2397 3584 2469 3576 
Q 2541 3569 2628 3553 
L 2631 2963 
z
" transform="scale(0.015625)"/>
       <path id="DejaVuSans-64" d="M 2906 2969 
L 2906 4863 
L 3481 4863 
L 3481 0 
L 2906 0 
L 2906 525 
Q 2725 213 2448 61 
Q 2172 -91 1784 -91 
Q 1150 -91 751 415 
Q 353 922 353 1747 
Q 353 2572 751 3078 
Q 1150 3584 1784 3584 
Q 2172 3584 2448 3432 
Q 2725 3281 2906 2969 
z
M 947 1747 
Q 947 1113 1208 752 
Q 1469 391 1925 391 
Q 2381 391 2643 752 
Q 2906 1113 2906 1747 
Q 2906 2381 2643 2742 
Q 2381 3103 1925 3103 
Q 1469 3103 1208 2742 
Q 947 2381 947 1747 
z
" transform="scale(0.015625)"/>
       <path id="DejaVuSans-61" d="M 2194 1759 
Q 1497 1759 1228 1600 
Q 959 1441 959 1056 
Q 959 750 1161 570 
Q 1363 391 1709 391 
Q 2188 391 2477 730 
Q 2766 1069 2766 1631 
L 2766 1759 
L 2194 1759 
z
M 3341 1997 
L 3341 0 
L 2766 0 
L 2766 531 
Q 2569 213 2275 61 
Q 1981 -91 1556 -91 
Q 1019 -91 701 211 
Q 384 513 384 1019 
Q 384 1609 779 1909 
Q 1175 2209 1959 2209 
L 2766 2209 
L 2766 2266 
Q 2766 2663 2505 2880 
Q 2244 3097 1772 3097 
Q 1472 3097 1187 3025 
Q 903 2953 641 2809 
L 641 3341 
Q 956 3463 1253 3523 
Q 1550 3584 1831 3584 
Q 2591 3584 2966 3190 
Q 3341 2797 3341 1997 
z
" transform="scale(0.015625)"/>
       <path id="DejaVuSans-62" d="M 3116 1747 
Q 3116 2381 2855 2742 
Q 2594 3103 2138 3103 
Q 1681 3103 1420 2742 
Q 1159 2381 1159 1747 
Q 1159 1113 1420 752 
Q 1681 391 2138 391 
Q 2594 391 2855 752 
Q 3116 1113 3116 1747 
z
M 1159 2969 
Q 1341 3281 1617 3432 
Q 1894 3584 2278 3584 
Q 2916 3584 3314 3078 
Q 3713 2572 3713 1747 
Q 3713 922 3314 415 
Q 2916 -91 2278 -91 
Q 1894 -91 1617 61 
Q 1341 213 1159 525 
L 1159 0 
L 581 0 
L 581 4863 
L 1159 4863 
L 1159 2969 
z
" transform="scale(0.015625)"/>
      </defs>
      <use xlink:href="#DejaVuSans-50"/>
      <use xlink:href="#DejaVuSans-72" x="58.552734"/>
      <use xlink:href="#DejaVuSans-65" x="97.416016"/>
      <use xlink:href="#DejaVuSans-64" x="158.939453"/>
      <use xlink:href="#DejaVuSans-69" x="222.416016"/>
      <use xlink:href="#DejaVuSans-63" x="250.199219"/>
      <use xlink:href="#DejaVuSans-74" x="305.179688"/>
      <use xlink:href="#DejaVuSans-65" x="344.388672"/>
      <use xlink:href="#DejaVuSans-64" x="405.912109"/>
      <use xlink:href="#DejaVuSans-20" x="469.388672"/>
      <use xlink:href="#DejaVuSans-6c" x="501.175781"/>
      <use xlink:href="#DejaVuSans-61" x="528.958984"/>
      <use xlink:href="#DejaVuSans-62" x="590.238281"/>
      <use xlink:href="#DejaVuSans-65" x="653.714844"/>
      <use xlink:href="#DejaVuSans-6c" x="715.238281"/>
     </g>
    </g>
   </g>
   <g id="line2d_12">
    <path d="M 596.540227 510.648438 
L 596.540227 23.56688 
" clip-path="url(#paed6256723)" style="fill: none; stroke: #ff0000; stroke-width: 4; stroke-linecap: square"/>
   </g>
   <g id="patch_3">
    <path d="M 42.495313 510.648438 
L 42.495313 23.56688 
" style="fill: none; stroke: #000000; stroke-width: 0.8; stroke-linejoin: miter; stroke-linecap: square"/>
   </g>
   <g id="patch_4">
    <path d="M 683.389495 510.648438 
L 683.389495 23.56688 
" style="fill: none; stroke: #000000; stroke-width: 0.8; stroke-linejoin: miter; stroke-linecap: square"/>
   </g>
   <g id="patch_5">
    <path d="M 42.495313 510.648438 
L 683.389495 510.648438 
" style="fill: none; stroke: #000000; stroke-width: 0.8; stroke-linejoin: miter; stroke-linecap: square"/>
   </g>
   <g id="patch_6">
    <path d="M 42.495313 23.56688 
L 683.389495 23.56688 
" style="fill: none; stroke: #000000; stroke-width: 0.8; stroke-linejoin: miter; stroke-linecap: square"/>
   </g>
   <g id="text_14">
    <!-- 0 -->
    <g transform="translate(346.920049 438.475538) scale(0.25 -0.25)">
     <use xlink:href="#DejaVuSans-30"/>
    </g>
   </g>
   <g id="text_15">
    <!-- 1 -->
    <g transform="translate(346.920049 362.882122) scale(0.25 -0.25)">
     <use xlink:href="#DejaVuSans-31"/>
    </g>
   </g>
   <g id="text_16">
    <!-- 2 -->
    <g transform="translate(346.920049 191.514243) scale(0.25 -0.25)">
     <use xlink:href="#DejaVuSans-32"/>
    </g>
   </g>
   <g id="text_17">
    <!-- 0.7290 -->
    <g style="fill: #ff0000" transform="translate(612.562582 30.407913) scale(0.25 -0.25)">
     <defs>
      <path id="DejaVuSans-37" d="M 525 4666 
L 3525 4666 
L 3525 4397 
L 1831 0 
L 1172 0 
L 2766 4134 
L 525 4134 
L 525 4666 
z
" transform="scale(0.015625)"/>
      <path id="DejaVuSans-39" d="M 703 97 
L 703 672 
Q 941 559 1184 500 
Q 1428 441 1663 441 
Q 2288 441 2617 861 
Q 2947 1281 2994 2138 
Q 2813 1869 2534 1725 
Q 2256 1581 1919 1581 
Q 1219 1581 811 2004 
Q 403 2428 403 3163 
Q 403 3881 828 4315 
Q 1253 4750 1959 4750 
Q 2769 4750 3195 4129 
Q 3622 3509 3622 2328 
Q 3622 1225 3098 567 
Q 2575 -91 1691 -91 
Q 1453 -91 1209 -44 
Q 966 3 703 97 
z
M 1959 2075 
Q 2384 2075 2632 2365 
Q 2881 2656 2881 3163 
Q 2881 3666 2632 3958 
Q 2384 4250 1959 4250 
Q 1534 4250 1286 3958 
Q 1038 3666 1038 3163 
Q 1038 2656 1286 2365 
Q 1534 2075 1959 2075 
z
" transform="scale(0.015625)"/>
     </defs>
     <use xlink:href="#DejaVuSans-30"/>
     <use xlink:href="#DejaVuSans-2e" x="63.623047"/>
     <use xlink:href="#DejaVuSans-37" x="95.410156"/>
     <use xlink:href="#DejaVuSans-32" x="159.033203"/>
     <use xlink:href="#DejaVuSans-39" x="222.65625"/>
     <use xlink:href="#DejaVuSans-30" x="286.279297"/>
    </g>
   </g>
  </g>
 </g>
 <defs>
  <clipPath id="paed6256723">
   <rect x="42.495313" y="23.56688" width="640.894182" height="487.081557"/>
  </clipPath>
 </defs>
</svg>
