<?xml version="1.0" encoding="utf-8" standalone="no"?>
<!DOCTYPE svg PUBLIC "-//W3C//DTD SVG 1.1//EN"
  "http://www.w3.org/Graphics/SVG/1.1/DTD/svg11.dtd">
<svg xmlns:xlink="http://www.w3.org/1999/xlink" width="720pt" height="432pt" viewBox="0 0 720 432" xmlns="http://www.w3.org/2000/svg" version="1.1">
 <metadata>
  <rdf:RDF xmlns:dc="http://purl.org/dc/elements/1.1/" xmlns:cc="http://creativecommons.org/ns#" xmlns:rdf="http://www.w3.org/1999/02/22-rdf-syntax-ns#">
   <cc:Work>
    <dc:type rdf:resource="http://purl.org/dc/dcmitype/StillImage"/>
    <dc:date>2022-11-04T13:07:38.769473</dc:date>
    <dc:format>image/svg+xml</dc:format>
    <dc:creator>
     <cc:Agent>
      <dc:title>Matplotlib v3.6.1, https://matplotlib.org/</dc:title>
     </cc:Agent>
    </dc:creator>
   </cc:Work>
  </rdf:RDF>
 </metadata>
 <defs>
  <style type="text/css">*{stroke-linejoin: round; stroke-linecap: butt}</style>
 </defs>
 <g id="figure_1">
  <g id="patch_1">
   <path d="M 0 432 
L 720 432 
L 720 0 
L 0 0 
z
" style="fill: #ffffff"/>
  </g>
  <g id="axes_1">
   <g id="patch_2">
    <path d="M 27.978125 390.84375 
L 701.248437 390.84375 
L 701.248437 13.726527 
L 27.978125 13.726527 
z
" style="fill: #ffffff"/>
   </g>
   <g id="PolyCollection_1">
    <defs>
     <path id="m07d9738db8" d="M 334.142011 -46.45284 
L 364.613281 -46.45284 
L 364.613281 -46.982499 
L 364.613281 -47.512158 
L 364.613281 -48.041817 
L 364.613281 -48.571476 
L 364.613281 -49.101135 
L 364.613281 -49.630794 
L 364.613281 -50.160453 
L 364.613281 -50.690112 
L 364.613281 -51.219771 
L 364.613281 -51.74943 
L 364.613281 -52.279089 
L 364.613281 -52.808748 
L 364.613281 -53.338407 
L 364.613281 -53.868066 
L 364.613281 -54.397726 
L 364.613281 -54.927385 
L 364.613281 -55.457044 
L 364.613281 -55.986703 
L 364.613281 -56.516362 
L 364.613281 -57.046021 
L 364.613281 -57.57568 
L 364.613281 -58.105339 
L 364.613281 -58.634998 
L 364.613281 -59.164657 
L 364.613281 -59.694316 
L 364.613281 -60.223975 
L 364.613281 -60.753634 
L 364.613281 -61.283293 
L 364.613281 -61.812952 
L 364.613281 -62.342611 
L 364.613281 -62.87227 
L 364.613281 -63.401929 
L 364.613281 -63.931588 
L 364.613281 -64.461247 
L 364.613281 -64.990906 
L 364.613281 -65.520565 
L 364.613281 -66.050224 
L 364.613281 -66.579883 
L 364.613281 -67.109542 
L 364.613281 -67.639201 
L 364.613281 -68.16886 
L 364.613281 -68.698519 
L 364.613281 -69.228178 
L 364.613281 -69.757837 
L 364.613281 -70.287496 
L 364.613281 -70.817155 
L 364.613281 -71.346814 
L 364.613281 -71.876473 
L 364.613281 -72.406132 
L 364.613281 -72.935791 
L 364.613281 -73.46545 
L 364.613281 -73.995109 
L 364.613281 -74.524768 
L 364.613281 -75.054427 
L 364.613281 -75.584086 
L 364.613281 -76.113745 
L 364.613281 -76.643404 
L 364.613281 -77.173063 
L 364.613281 -77.702722 
L 364.613281 -78.232381 
L 364.613281 -78.76204 
L 364.613281 -79.291699 
L 364.613281 -79.821358 
L 364.613281 -80.351018 
L 364.613281 -80.880677 
L 364.613281 -81.410336 
L 364.613281 -81.939995 
L 364.613281 -82.469654 
L 364.613281 -82.999313 
L 364.613281 -83.528972 
L 364.613281 -84.058631 
L 364.613281 -84.58829 
L 364.613281 -85.117949 
L 364.613281 -85.647608 
L 364.613281 -86.177267 
L 364.613281 -86.706926 
L 364.613281 -87.236585 
L 364.613281 -87.766244 
L 364.613281 -88.295903 
L 364.613281 -88.825562 
L 364.613281 -89.355221 
L 364.613281 -89.88488 
L 364.613281 -90.414539 
L 364.613281 -90.944198 
L 364.613281 -91.473857 
L 364.613281 -92.003516 
L 364.613281 -92.533175 
L 364.613281 -93.062834 
L 364.613281 -93.592493 
L 364.613281 -94.122152 
L 364.613281 -94.651811 
L 364.613281 -95.18147 
L 364.613281 -95.711129 
L 364.613281 -96.240788 
L 364.613281 -96.770447 
L 364.613281 -97.300106 
L 364.613281 -97.829765 
L 364.613281 -98.359424 
L 364.613281 -98.889083 
L 364.613281 -99.418742 
L 364.613281 -99.948401 
L 364.613281 -100.47806 
L 364.613281 -101.007719 
L 364.613281 -101.537378 
L 364.613281 -102.067037 
L 364.613281 -102.596696 
L 364.613281 -103.126355 
L 364.613281 -103.656014 
L 364.613281 -104.185673 
L 364.613281 -104.715332 
L 364.613281 -105.244991 
L 364.613281 -105.774651 
L 364.613281 -106.30431 
L 364.613281 -106.833969 
L 364.613281 -107.363628 
L 364.613281 -107.893287 
L 364.613281 -108.422946 
L 364.613281 -108.952605 
L 364.613281 -109.482264 
L 364.613281 -110.011923 
L 364.613281 -110.541582 
L 364.613281 -111.071241 
L 364.613281 -111.6009 
L 364.613281 -112.130559 
L 364.613281 -112.660218 
L 364.613281 -113.189877 
L 364.613281 -113.719536 
L 364.613281 -114.249195 
L 364.613281 -114.778854 
L 364.613281 -115.308513 
L 364.613281 -115.838172 
L 364.613281 -116.367831 
L 364.613281 -116.89749 
L 364.613281 -117.427149 
L 364.613281 -117.956808 
L 364.613281 -118.486467 
L 364.613281 -119.016126 
L 364.613281 -119.545785 
L 364.613281 -120.075444 
L 364.613281 -120.605103 
L 364.613281 -121.134762 
L 364.613281 -121.664421 
L 364.613281 -122.19408 
L 364.613281 -122.723739 
L 364.613281 -123.253398 
L 364.613281 -123.783057 
L 364.613281 -124.312716 
L 364.613281 -124.842375 
L 364.613281 -125.372034 
L 364.613281 -125.901693 
L 364.613281 -126.431352 
L 364.613281 -126.961011 
L 364.613281 -127.49067 
L 364.613281 -128.020329 
L 364.613281 -128.549988 
L 364.613281 -129.079647 
L 364.613281 -129.609306 
L 364.613281 -130.138965 
L 364.613281 -130.668624 
L 364.613281 -131.198283 
L 364.613281 -131.727943 
L 364.613281 -132.257602 
L 364.613281 -132.787261 
L 364.613281 -133.31692 
L 364.613281 -133.846579 
L 364.613281 -134.376238 
L 364.613281 -134.905897 
L 364.613281 -135.435556 
L 364.613281 -135.965215 
L 364.613281 -136.494874 
L 364.613281 -137.024533 
L 364.613281 -137.554192 
L 364.613281 -138.083851 
L 364.613281 -138.61351 
L 364.613281 -139.143169 
L 364.613281 -139.672828 
L 364.613281 -140.202487 
L 364.613281 -140.732146 
L 364.613281 -141.261805 
L 364.613281 -141.791464 
L 364.613281 -142.321123 
L 364.613281 -142.850782 
L 364.613281 -143.380441 
L 364.613281 -143.9101 
L 364.613281 -144.439759 
L 364.613281 -144.969418 
L 364.613281 -145.499077 
L 364.613281 -146.028736 
L 364.613281 -146.558395 
L 364.613281 -147.088054 
L 534.013449 -147.088054 
L 534.013449 -147.088054 
L 533.023415 -146.558395 
L 532.80192 -146.028736 
L 530.963238 -145.499077 
L 527.853627 -144.969418 
L 527.154726 -144.439759 
L 526.682489 -143.9101 
L 525.989657 -143.380441 
L 525.840957 -142.850782 
L 524.640568 -142.321123 
L 524.443146 -141.791464 
L 524.19417 -141.261805 
L 524.109486 -140.732146 
L 523.801791 -140.202487 
L 523.015392 -139.672828 
L 522.994548 -139.143169 
L 522.85505 -138.61351 
L 522.178086 -138.083851 
L 522.091449 -137.554192 
L 522.054893 -137.024533 
L 521.786734 -136.494874 
L 521.341514 -135.965215 
L 521.33412 -135.435556 
L 520.456026 -134.905897 
L 518.287477 -134.376238 
L 517.765495 -133.846579 
L 517.579176 -133.31692 
L 516.142037 -132.787261 
L 515.917068 -132.257602 
L 515.580684 -131.727943 
L 515.422899 -131.198283 
L 514.909499 -130.668624 
L 514.726005 -130.138965 
L 514.625705 -129.609306 
L 514.478996 -129.079647 
L 514.172856 -128.549988 
L 513.982652 -128.020329 
L 513.675968 -127.49067 
L 513.308327 -126.961011 
L 513.115005 -126.431352 
L 512.677947 -125.901693 
L 512.642788 -125.372034 
L 512.577806 -124.842375 
L 512.436636 -124.312716 
L 512.297128 -123.783057 
L 512.20723 -123.253398 
L 512.188836 -122.723739 
L 512.144094 -122.19408 
L 511.923479 -121.664421 
L 511.702221 -121.134762 
L 510.691691 -120.605103 
L 510.585232 -120.075444 
L 510.119454 -119.545785 
L 509.605641 -119.016126 
L 509.411286 -118.486467 
L 509.277146 -117.956808 
L 509.184212 -117.427149 
L 508.883881 -116.89749 
L 508.860186 -116.367831 
L 508.803767 -115.838172 
L 508.782369 -115.308513 
L 508.567859 -114.778854 
L 508.338925 -114.249195 
L 507.931503 -113.719536 
L 507.42218 -113.189877 
L 507.420924 -112.660218 
L 507.305016 -112.130559 
L 506.817992 -111.6009 
L 506.770138 -111.071241 
L 506.736019 -110.541582 
L 506.658435 -110.011923 
L 506.146209 -109.482264 
L 505.727186 -108.952605 
L 505.345166 -108.422946 
L 505.130815 -107.893287 
L 504.581647 -107.363628 
L 504.384969 -106.833969 
L 504.33505 -106.30431 
L 504.241765 -105.774651 
L 504.096561 -105.244991 
L 504.060023 -104.715332 
L 503.952578 -104.185673 
L 503.949656 -103.656014 
L 503.938687 -103.126355 
L 503.863178 -102.596696 
L 503.769455 -102.067037 
L 503.384164 -101.537378 
L 502.480408 -101.007719 
L 501.594094 -100.47806 
L 501.586025 -99.948401 
L 501.396033 -99.418742 
L 500.481082 -98.889083 
L 500.032949 -98.359424 
L 498.550875 -97.829765 
L 498.223532 -97.300106 
L 497.980994 -96.770447 
L 497.142176 -96.240788 
L 496.312388 -95.711129 
L 496.184103 -95.18147 
L 496.111385 -94.651811 
L 494.984313 -94.122152 
L 494.921119 -93.592493 
L 494.467385 -93.062834 
L 494.444434 -92.533175 
L 494.363714 -92.003516 
L 494.216881 -91.473857 
L 493.887124 -90.944198 
L 493.465111 -90.414539 
L 493.413538 -89.88488 
L 493.333856 -89.355221 
L 493.316873 -88.825562 
L 492.776382 -88.295903 
L 492.43657 -87.766244 
L 491.965969 -87.236585 
L 491.839463 -86.706926 
L 491.816783 -86.177267 
L 491.231717 -85.647608 
L 491.10682 -85.117949 
L 490.894472 -84.58829 
L 490.23655 -84.058631 
L 490.039023 -83.528972 
L 489.925478 -82.999313 
L 488.213397 -82.469654 
L 488.03121 -81.939995 
L 487.858707 -81.410336 
L 487.397531 -80.880677 
L 487.271226 -80.351018 
L 485.923896 -79.821358 
L 484.876515 -79.291699 
L 484.666523 -78.76204 
L 484.011882 -78.232381 
L 483.208908 -77.702722 
L 481.166827 -77.173063 
L 480.551742 -76.643404 
L 480.438315 -76.113745 
L 479.809961 -75.584086 
L 479.603406 -75.054427 
L 478.98124 -74.524768 
L 478.893284 -73.995109 
L 478.616796 -73.46545 
L 478.583546 -72.935791 
L 478.390992 -72.406132 
L 476.496732 -71.876473 
L 476.005498 -71.346814 
L 475.922002 -70.817155 
L 475.755305 -70.287496 
L 474.291392 -69.757837 
L 474.264964 -69.228178 
L 473.285555 -68.698519 
L 472.916604 -68.16886 
L 471.558448 -67.639201 
L 468.874737 -67.109542 
L 468.187153 -66.579883 
L 467.819866 -66.050224 
L 467.647683 -65.520565 
L 466.55293 -64.990906 
L 466.454347 -64.461247 
L 464.724558 -63.931588 
L 464.555908 -63.401929 
L 462.254647 -62.87227 
L 459.574831 -62.342611 
L 459.474935 -61.812952 
L 458.57454 -61.283293 
L 458.163193 -60.753634 
L 458.084884 -60.223975 
L 455.88163 -59.694316 
L 455.639918 -59.164657 
L 455.045923 -58.634998 
L 450.244884 -58.105339 
L 449.555876 -57.57568 
L 449.228528 -57.046021 
L 448.195491 -56.516362 
L 446.584727 -55.986703 
L 443.022319 -55.457044 
L 443.017374 -54.927385 
L 442.108513 -54.397726 
L 432.591778 -53.868066 
L 432.187329 -53.338407 
L 431.18523 -52.808748 
L 429.973716 -52.279089 
L 416.681792 -51.74943 
L 414.393608 -51.219771 
L 412.748871 -50.690112 
L 410.229621 -50.160453 
L 403.826056 -49.630794 
L 393.106214 -49.101135 
L 385.428794 -48.571476 
L 382.156029 -48.041817 
L 362.928046 -47.512158 
L 346.089967 -46.982499 
L 334.142011 -46.45284 
z
" style="stroke: #000000; stroke-opacity: 0.7"/>
    </defs>
    <g clip-path="url(#p37f17530d8)">
     <use xlink:href="#m07d9738db8" x="0" y="432" style="fill-opacity: 0.7; stroke: #000000; stroke-opacity: 0.7"/>
    </g>
   </g>
   <g id="PolyCollection_2">
    <defs>
     <path id="m782a6d854e" d="M 363.463034 -152.914303 
L 364.613281 -152.914303 
L 364.613281 -153.443962 
L 364.613281 -153.973621 
L 364.613281 -154.50328 
L 364.613281 -155.032939 
L 364.613281 -155.562598 
L 364.613281 -156.092257 
L 364.613281 -156.621916 
L 364.613281 -157.151575 
L 364.613281 -157.681235 
L 444.58795 -157.681235 
L 444.58795 -157.681235 
L 444.510209 -157.151575 
L 443.652529 -156.621916 
L 438.772484 -156.092257 
L 423.128416 -155.562598 
L 415.950546 -155.032939 
L 415.008749 -154.50328 
L 408.477092 -153.973621 
L 394.869094 -153.443962 
L 363.463034 -152.914303 
z
" style="stroke: #00a4bb; stroke-opacity: 0.7"/>
    </defs>
    <g clip-path="url(#p37f17530d8)">
     <use xlink:href="#m782a6d854e" x="0" y="432" style="fill: #00a4bb; fill-opacity: 0.7; stroke: #00a4bb; stroke-opacity: 0.7"/>
    </g>
   </g>
   <g id="PolyCollection_3">
    <defs>
     <path id="m2af82c4945" d="M 630.710397 -163.507484 
L 364.613281 -163.507484 
L 364.613281 -164.037143 
L 364.613281 -164.566802 
L 364.613281 -165.096461 
L 364.613281 -165.62612 
L 364.613281 -166.155779 
L 364.613281 -166.685438 
L 364.613281 -167.215097 
L 364.613281 -167.744756 
L 364.613281 -168.274415 
L 364.613281 -168.804074 
L 364.613281 -169.333733 
L 364.613281 -169.863392 
L 364.613281 -170.393051 
L 364.613281 -170.92271 
L 364.613281 -171.452369 
L 364.613281 -171.982028 
L 364.613281 -172.511687 
L 364.613281 -173.041346 
L 364.613281 -173.571005 
L 364.613281 -174.100664 
L 364.613281 -174.630323 
L 364.613281 -175.159982 
L 364.613281 -175.689641 
L 364.613281 -176.2193 
L 364.613281 -176.748959 
L 364.613281 -177.278618 
L 364.613281 -177.808277 
L 364.613281 -178.337936 
L 364.613281 -178.867595 
L 364.613281 -179.397254 
L 364.613281 -179.926913 
L 364.613281 -180.456572 
L 364.613281 -180.986231 
L 364.613281 -181.51589 
L 364.613281 -182.045549 
L 364.613281 -182.575208 
L 364.613281 -183.104868 
L 364.613281 -183.634527 
L 364.613281 -184.164186 
L 364.613281 -184.693845 
L 364.613281 -185.223504 
L 364.613281 -185.753163 
L 364.613281 -186.282822 
L 364.613281 -186.812481 
L 364.613281 -187.34214 
L 364.613281 -187.871799 
L 364.613281 -188.401458 
L 364.613281 -188.931117 
L 364.613281 -189.460776 
L 364.613281 -189.990435 
L 364.613281 -190.520094 
L 364.613281 -191.049753 
L 364.613281 -191.579412 
L 364.613281 -192.109071 
L 364.613281 -192.63873 
L 364.613281 -193.168389 
L 364.613281 -193.698048 
L 364.613281 -194.227707 
L 364.613281 -194.757366 
L 364.613281 -195.287025 
L 364.613281 -195.816684 
L 364.613281 -196.346343 
L 364.613281 -196.876002 
L 364.613281 -197.405661 
L 364.613281 -197.93532 
L 364.613281 -198.464979 
L 364.613281 -198.994638 
L 364.613281 -199.524297 
L 364.613281 -200.053956 
L 364.613281 -200.583615 
L 364.613281 -201.113274 
L 364.613281 -201.642933 
L 364.613281 -202.172592 
L 364.613281 -202.702251 
L 364.613281 -203.23191 
L 364.613281 -203.761569 
L 364.613281 -204.291228 
L 364.613281 -204.820887 
L 364.613281 -205.350546 
L 364.613281 -205.880205 
L 364.613281 -206.409864 
L 364.613281 -206.939523 
L 364.613281 -207.469182 
L 364.613281 -207.998841 
L 364.613281 -208.5285 
L 364.613281 -209.05816 
L 364.613281 -209.587819 
L 364.613281 -210.117478 
L 364.613281 -210.647137 
L 364.613281 -211.176796 
L 364.613281 -211.706455 
L 364.613281 -212.236114 
L 364.613281 -212.765773 
L 364.613281 -213.295432 
L 364.613281 -213.825091 
L 364.613281 -214.35475 
L 364.613281 -214.884409 
L 364.613281 -215.414068 
L 364.613281 -215.943727 
L 364.613281 -216.473386 
L 364.613281 -217.003045 
L 364.613281 -217.532704 
L 364.613281 -218.062363 
L 364.613281 -218.592022 
L 364.613281 -219.121681 
L 364.613281 -219.65134 
L 364.613281 -220.180999 
L 364.613281 -220.710658 
L 364.613281 -221.240317 
L 364.613281 -221.769976 
L 364.613281 -222.299635 
L 364.613281 -222.829294 
L 364.613281 -223.358953 
L 364.613281 -223.888612 
L 364.613281 -224.418271 
L 364.613281 -224.94793 
L 364.613281 -225.477589 
L 364.613281 -226.007248 
L 364.613281 -226.536907 
L 364.613281 -227.066566 
L 364.613281 -227.596225 
L 364.613281 -228.125884 
L 364.613281 -228.655543 
L 364.613281 -229.185202 
L 364.613281 -229.714861 
L 364.613281 -230.24452 
L 364.613281 -230.774179 
L 364.613281 -231.303838 
L 364.613281 -231.833497 
L 364.613281 -232.363156 
L 364.613281 -232.892815 
L 364.613281 -233.422474 
L 364.613281 -233.952133 
L 364.613281 -234.481792 
L 364.613281 -235.011452 
L 364.613281 -235.541111 
L 364.613281 -236.07077 
L 364.613281 -236.600429 
L 364.613281 -237.130088 
L 364.613281 -237.659747 
L 364.613281 -238.189406 
L 364.613281 -238.719065 
L 364.613281 -239.248724 
L 364.613281 -239.778383 
L 364.613281 -240.308042 
L 364.613281 -240.837701 
L 364.613281 -241.36736 
L 364.613281 -241.897019 
L 364.613281 -242.426678 
L 364.613281 -242.956337 
L 364.613281 -243.485996 
L 364.613281 -244.015655 
L 364.613281 -244.545314 
L 364.613281 -245.074973 
L 364.613281 -245.604632 
L 364.613281 -246.134291 
L 364.613281 -246.66395 
L 364.613281 -247.193609 
L 364.613281 -247.723268 
L 364.613281 -248.252927 
L 364.613281 -248.782586 
L 364.613281 -249.312245 
L 364.613281 -249.841904 
L 364.613281 -250.371563 
L 364.613281 -250.901222 
L 364.613281 -251.430881 
L 364.613281 -251.96054 
L 364.613281 -252.490199 
L 364.613281 -253.019858 
L 364.613281 -253.549517 
L 364.613281 -254.079176 
L 364.613281 -254.608835 
L 364.613281 -255.138494 
L 364.613281 -255.668153 
L 364.613281 -256.197812 
L 364.613281 -256.727471 
L 364.613281 -257.25713 
L 364.613281 -257.786789 
L 364.613281 -258.316448 
L 364.613281 -258.846107 
L 364.613281 -259.375766 
L 364.613281 -259.905425 
L 364.613281 -260.435084 
L 364.613281 -260.964744 
L 364.613281 -261.494403 
L 364.613281 -262.024062 
L 364.613281 -262.553721 
L 364.613281 -263.08338 
L 364.613281 -263.613039 
L 364.613281 -264.142698 
L 364.613281 -264.672357 
L 364.613281 -265.202016 
L 364.613281 -265.731675 
L 364.613281 -266.261334 
L 364.613281 -266.790993 
L 364.613281 -267.320652 
L 364.613281 -267.850311 
L 364.613281 -268.37997 
L 364.613281 -268.909629 
L 364.613281 -269.439288 
L 364.613281 -269.968947 
L 364.613281 -270.498606 
L 364.613281 -271.028265 
L 364.613281 -271.557924 
L 364.613281 -272.087583 
L 364.613281 -272.617242 
L 364.613281 -273.146901 
L 364.613281 -273.67656 
L 364.613281 -274.206219 
L 364.613281 -274.735878 
L 364.613281 -275.265537 
L 364.613281 -275.795196 
L 364.613281 -276.324855 
L 364.613281 -276.854514 
L 364.613281 -277.384173 
L 364.613281 -277.913832 
L 364.613281 -278.443491 
L 364.613281 -278.97315 
L 364.613281 -279.502809 
L 364.613281 -280.032468 
L 364.613281 -280.562127 
L 364.613281 -281.091786 
L 364.613281 -281.621445 
L 364.613281 -282.151104 
L 364.613281 -282.680763 
L 364.613281 -283.210422 
L 364.613281 -283.740081 
L 364.613281 -284.26974 
L 364.613281 -284.799399 
L 364.613281 -285.329058 
L 364.613281 -285.858717 
L 364.613281 -286.388377 
L 364.613281 -286.918036 
L 364.613281 -287.447695 
L 364.613281 -287.977354 
L 364.613281 -288.507013 
L 364.613281 -289.036672 
L 364.613281 -289.566331 
L 364.613281 -290.09599 
L 364.613281 -290.625649 
L 364.613281 -291.155308 
L 364.613281 -291.684967 
L 364.613281 -292.214626 
L 364.613281 -292.744285 
L 364.613281 -293.273944 
L 364.613281 -293.803603 
L 364.613281 -294.333262 
L 364.613281 -294.862921 
L 364.613281 -295.39258 
L 364.613281 -295.922239 
L 364.613281 -296.451898 
L 364.613281 -296.981557 
L 364.613281 -297.511216 
L 364.613281 -298.040875 
L 364.613281 -298.570534 
L 364.613281 -299.100193 
L 364.613281 -299.629852 
L 364.613281 -300.159511 
L 364.613281 -300.68917 
L 364.613281 -301.218829 
L 364.613281 -301.748488 
L 364.613281 -302.278147 
L 364.613281 -302.807806 
L 364.613281 -303.337465 
L 364.613281 -303.867124 
L 364.613281 -304.396783 
L 364.613281 -304.926442 
L 364.613281 -305.456101 
L 364.613281 -305.98576 
L 364.613281 -306.515419 
L 364.613281 -307.045078 
L 364.613281 -307.574737 
L 364.613281 -308.104396 
L 364.613281 -308.634055 
L 364.613281 -309.163714 
L 364.613281 -309.693373 
L 364.613281 -310.223032 
L 364.613281 -310.752691 
L 364.613281 -311.28235 
L 364.613281 -311.812009 
L 364.613281 -312.341669 
L 364.613281 -312.871328 
L 364.613281 -313.400987 
L 364.613281 -313.930646 
L 364.613281 -314.460305 
L 364.613281 -314.989964 
L 364.613281 -315.519623 
L 364.613281 -316.049282 
L 364.613281 -316.578941 
L 364.613281 -317.1086 
L 364.613281 -317.638259 
L 364.613281 -318.167918 
L 364.613281 -318.697577 
L 364.613281 -319.227236 
L 364.613281 -319.756895 
L 364.613281 -320.286554 
L 364.613281 -320.816213 
L 364.613281 -321.345872 
L 364.613281 -321.875531 
L 364.613281 -322.40519 
L 364.613281 -322.934849 
L 364.613281 -323.464508 
L 364.613281 -323.994167 
L 364.613281 -324.523826 
L 364.613281 -325.053485 
L 364.613281 -325.583144 
L 364.613281 -326.112803 
L 364.613281 -326.642462 
L 364.613281 -327.172121 
L 364.613281 -327.70178 
L 364.613281 -328.231439 
L 364.613281 -328.761098 
L 364.613281 -329.290757 
L 364.613281 -329.820416 
L 364.613281 -330.350075 
L 364.613281 -330.879734 
L 364.613281 -331.409393 
L 364.613281 -331.939052 
L 364.613281 -332.468711 
L 364.613281 -332.99837 
L 364.613281 -333.528029 
L 364.613281 -334.057688 
L 364.613281 -334.587347 
L 364.613281 -335.117006 
L 364.613281 -335.646665 
L 364.613281 -336.176324 
L 364.613281 -336.705983 
L 364.613281 -337.235642 
L 364.613281 -337.765301 
L 364.613281 -338.294961 
L 364.613281 -338.82462 
L 364.613281 -339.354279 
L 364.613281 -339.883938 
L 364.613281 -340.413597 
L 364.613281 -340.943256 
L 364.613281 -341.472915 
L 364.613281 -342.002574 
L 364.613281 -342.532233 
L 364.613281 -343.061892 
L 364.613281 -343.591551 
L 364.613281 -344.12121 
L 364.613281 -344.650869 
L 364.613281 -345.180528 
L 364.613281 -345.710187 
L 364.613281 -346.239846 
L 364.613281 -346.769505 
L 364.613281 -347.299164 
L 364.613281 -347.828823 
L 364.613281 -348.358482 
L 364.613281 -348.888141 
L 364.613281 -349.4178 
L 364.613281 -349.947459 
L 364.613281 -350.477118 
L 364.613281 -351.006777 
L 364.613281 -351.536436 
L 364.613281 -352.066095 
L 364.613281 -352.595754 
L 364.613281 -353.125413 
L 364.613281 -353.655072 
L 364.613281 -354.184731 
L 364.613281 -354.71439 
L 364.613281 -355.244049 
L 364.613281 -355.773708 
L 364.613281 -356.303367 
L 364.613281 -356.833026 
L 364.613281 -357.362685 
L 364.613281 -357.892344 
L 364.613281 -358.422003 
L 364.613281 -358.951662 
L 364.613281 -359.481321 
L 364.613281 -360.01098 
L 364.613281 -360.540639 
L 364.613281 -361.070298 
L 364.613281 -361.599957 
L 364.613281 -362.129616 
L 364.613281 -362.659275 
L 364.613281 -363.188934 
L 364.613281 -363.718593 
L 364.613281 -364.248253 
L 364.613281 -364.777912 
L 364.613281 -365.307571 
L 364.613281 -365.83723 
L 364.613281 -366.366889 
L 364.613281 -366.896548 
L 364.613281 -367.426207 
L 364.613281 -367.955866 
L 364.613281 -368.485525 
L 364.613281 -369.015184 
L 364.613281 -369.544843 
L 364.613281 -370.074502 
L 364.613281 -370.604161 
L 364.613281 -371.13382 
L 364.613281 -371.663479 
L 364.613281 -372.193138 
L 364.613281 -372.722797 
L 364.613281 -373.252456 
L 364.613281 -373.782115 
L 364.613281 -374.311774 
L 364.613281 -374.841433 
L 364.613281 -375.371092 
L 364.613281 -375.900751 
L 364.613281 -376.43041 
L 364.613281 -376.960069 
L 364.613281 -377.489728 
L 364.613281 -378.019387 
L 364.613281 -378.549046 
L 364.613281 -379.078705 
L 364.613281 -379.608364 
L 364.613281 -380.138023 
L 364.613281 -380.667682 
L 364.613281 -381.197341 
L 364.613281 -381.727 
L 364.613281 -382.256659 
L 364.613281 -382.786318 
L 364.613281 -383.315977 
L 364.613281 -383.845636 
L 364.613281 -384.375295 
L 364.613281 -384.904954 
L 364.613281 -385.434613 
L 364.613281 -385.964272 
L 364.613281 -386.493931 
L 364.613281 -387.02359 
L 364.613281 -387.553249 
L 364.613281 -388.082908 
L 364.613281 -388.612567 
L 364.613281 -389.142226 
L 364.613281 -389.671886 
L 364.613281 -390.201545 
L 364.613281 -390.731204 
L 364.613281 -391.260863 
L 364.613281 -391.790522 
L 364.613281 -392.320181 
L 364.613281 -392.84984 
L 364.613281 -393.379499 
L 364.613281 -393.909158 
L 364.613281 -394.438817 
L 364.613281 -394.968476 
L 364.613281 -395.498135 
L 364.613281 -396.027794 
L 364.613281 -396.557453 
L 364.613281 -397.087112 
L 364.613281 -397.616771 
L 364.613281 -398.14643 
L 364.613281 -398.676089 
L 364.613281 -399.205748 
L 364.613281 -399.735407 
L 364.613281 -400.265066 
L 364.613281 -400.794725 
L 364.613281 -401.324384 
L 364.613281 -401.854043 
L 364.613281 -402.383702 
L 364.613281 -402.913361 
L 364.613281 -403.44302 
L 364.613281 -403.972679 
L 364.613281 -404.502338 
L 364.613281 -405.031997 
L 364.613281 -405.561656 
L 364.613281 -406.091315 
L 364.613281 -406.620974 
L 364.613281 -407.150633 
L 364.613281 -407.680292 
L 364.613281 -408.209951 
L 364.613281 -408.73961 
L 364.613281 -409.269269 
L 364.613281 -409.798928 
L 364.613281 -410.328587 
L 364.613281 -410.858246 
L 364.613281 -411.387905 
L 364.613281 -411.917564 
L 364.613281 -412.447223 
L 675.551272 -412.447223 
L 675.551272 -412.447223 
L 675.401971 -411.917564 
L 674.31982 -411.387905 
L 674.318534 -410.858246 
L 674.067554 -410.328587 
L 674.062489 -409.798928 
L 673.992736 -409.269269 
L 673.830351 -408.73961 
L 673.393629 -408.209951 
L 673.096105 -407.680292 
L 673.095173 -407.150633 
L 673.083816 -406.620974 
L 673.015302 -406.091315 
L 673.013142 -405.561656 
L 672.875129 -405.031997 
L 672.866867 -404.502338 
L 672.865421 -403.972679 
L 672.853002 -403.44302 
L 672.74558 -402.913361 
L 672.540671 -402.383702 
L 672.5028 -401.854043 
L 672.464932 -401.324384 
L 672.441933 -400.794725 
L 672.334675 -400.265066 
L 672.197897 -399.735407 
L 672.159611 -399.205748 
L 671.679852 -398.676089 
L 671.659319 -398.14643 
L 671.547092 -397.616771 
L 671.526057 -397.087112 
L 671.517113 -396.557453 
L 671.51002 -396.027794 
L 671.480192 -395.498135 
L 671.465543 -394.968476 
L 671.465449 -394.438817 
L 671.455431 -393.909158 
L 671.452835 -393.379499 
L 671.45123 -392.84984 
L 671.44866 -392.320181 
L 671.431369 -391.790522 
L 671.409602 -391.260863 
L 671.255107 -390.731204 
L 671.184786 -390.201545 
L 671.123852 -389.671886 
L 671.119128 -389.142226 
L 671.117943 -388.612567 
L 671.114095 -388.082908 
L 671.107766 -387.553249 
L 671.098829 -387.02359 
L 671.072823 -386.493931 
L 671.063557 -385.964272 
L 671.056863 -385.434613 
L 671.008803 -384.904954 
L 670.729764 -384.375295 
L 670.724288 -383.845636 
L 670.714621 -383.315977 
L 670.71459 -382.786318 
L 670.712496 -382.256659 
L 670.712295 -381.727 
L 670.710849 -381.197341 
L 670.706549 -380.667682 
L 670.70557 -380.138023 
L 670.705149 -379.608364 
L 670.704006 -379.078705 
L 670.684373 -378.549046 
L 670.64222 -378.019387 
L 670.641802 -377.489728 
L 670.638678 -376.960069 
L 670.636251 -376.43041 
L 670.634047 -375.900751 
L 670.63249 -375.371092 
L 670.582198 -374.841433 
L 670.570042 -374.311774 
L 670.569556 -373.782115 
L 670.553995 -373.252456 
L 670.540733 -372.722797 
L 670.531665 -372.193138 
L 670.511075 -371.663479 
L 670.484886 -371.13382 
L 670.481175 -370.604161 
L 670.479222 -370.074502 
L 670.427587 -369.544843 
L 670.400162 -369.015184 
L 670.317186 -368.485525 
L 670.31111 -367.955866 
L 670.173685 -367.426207 
L 670.163506 -366.896548 
L 670.131832 -366.366889 
L 669.976092 -365.83723 
L 669.716334 -365.307571 
L 669.598028 -364.777912 
L 669.561333 -364.248253 
L 669.552843 -363.718593 
L 669.547506 -363.188934 
L 669.518872 -362.659275 
L 669.512997 -362.129616 
L 669.507958 -361.599957 
L 669.440826 -361.070298 
L 669.435815 -360.540639 
L 669.4292 -360.01098 
L 669.428598 -359.481321 
L 669.427995 -358.951662 
L 669.425212 -358.422003 
L 669.419322 -357.892344 
L 669.418797 -357.362685 
L 669.412238 -356.833026 
L 669.40436 -356.303367 
L 669.37146 -355.773708 
L 669.18619 -355.244049 
L 669.184185 -354.71439 
L 669.161778 -354.184731 
L 669.105541 -353.655072 
L 669.104632 -353.125413 
L 669.098937 -352.595754 
L 669.095339 -352.066095 
L 669.093233 -351.536436 
L 668.89281 -351.006777 
L 668.841627 -350.477118 
L 668.838208 -349.947459 
L 668.826088 -349.4178 
L 668.800959 -348.888141 
L 668.716516 -348.358482 
L 668.69254 -347.828823 
L 668.682559 -347.299164 
L 668.653002 -346.769505 
L 668.599173 -346.239846 
L 668.598276 -345.710187 
L 668.598061 -345.180528 
L 668.596833 -344.650869 
L 668.595819 -344.12121 
L 668.595244 -343.591551 
L 668.593949 -343.061892 
L 668.593033 -342.532233 
L 668.592499 -342.002574 
L 668.592467 -341.472915 
L 668.590318 -340.943256 
L 668.585451 -340.413597 
L 668.573123 -339.883938 
L 668.571139 -339.354279 
L 668.568779 -338.82462 
L 668.564535 -338.294961 
L 668.563317 -337.765301 
L 668.483915 -337.235642 
L 668.473362 -336.705983 
L 668.455044 -336.176324 
L 668.454486 -335.646665 
L 668.454294 -335.117006 
L 668.451244 -334.587347 
L 668.383376 -334.057688 
L 668.367453 -333.528029 
L 668.343482 -332.99837 
L 668.324964 -332.468711 
L 668.298031 -331.939052 
L 668.277254 -331.409393 
L 668.142927 -330.879734 
L 668.118819 -330.350075 
L 668.098457 -329.820416 
L 668.043324 -329.290757 
L 667.99369 -328.761098 
L 667.916321 -328.231439 
L 667.90126 -327.70178 
L 667.708007 -327.172121 
L 667.677978 -326.642462 
L 667.325659 -326.112803 
L 667.31959 -325.583144 
L 667.312542 -325.053485 
L 667.263046 -324.523826 
L 667.25787 -323.994167 
L 667.220401 -323.464508 
L 667.175889 -322.934849 
L 667.129807 -322.40519 
L 667.11579 -321.875531 
L 667.114081 -321.345872 
L 667.107178 -320.816213 
L 667.104711 -320.286554 
L 667.104101 -319.756895 
L 667.060789 -319.227236 
L 667.056357 -318.697577 
L 667.055093 -318.167918 
L 667.021629 -317.638259 
L 666.83176 -317.1086 
L 666.804772 -316.578941 
L 666.763895 -316.049282 
L 666.673722 -315.519623 
L 666.673439 -314.989964 
L 666.671044 -314.460305 
L 666.663285 -313.930646 
L 666.588017 -313.400987 
L 666.534467 -312.871328 
L 666.502373 -312.341669 
L 666.489933 -311.812009 
L 666.479442 -311.28235 
L 666.369847 -310.752691 
L 666.349499 -310.223032 
L 666.345234 -309.693373 
L 666.33373 -309.163714 
L 666.332125 -308.634055 
L 666.328991 -308.104396 
L 666.294883 -307.574737 
L 666.249518 -307.045078 
L 666.249002 -306.515419 
L 666.24772 -305.98576 
L 666.247092 -305.456101 
L 666.237461 -304.926442 
L 666.192656 -304.396783 
L 666.098881 -303.867124 
L 666.074769 -303.337465 
L 666.064444 -302.807806 
L 666.045159 -302.278147 
L 666.025469 -301.748488 
L 665.999967 -301.218829 
L 665.997282 -300.68917 
L 665.988066 -300.159511 
L 665.900273 -299.629852 
L 665.88461 -299.100193 
L 665.884151 -298.570534 
L 665.852776 -298.040875 
L 665.832002 -297.511216 
L 665.717023 -296.981557 
L 665.659242 -296.451898 
L 665.654966 -295.922239 
L 665.598003 -295.39258 
L 665.534755 -294.862921 
L 665.32447 -294.333262 
L 665.279853 -293.803603 
L 665.155944 -293.273944 
L 665.062742 -292.744285 
L 665.061074 -292.214626 
L 665.02594 -291.684967 
L 665.019774 -291.155308 
L 665.019492 -290.625649 
L 664.991801 -290.09599 
L 664.981693 -289.566331 
L 664.975181 -289.036672 
L 664.945216 -288.507013 
L 664.940854 -287.977354 
L 664.875862 -287.447695 
L 664.831725 -286.918036 
L 664.791701 -286.388377 
L 664.787649 -285.858717 
L 664.721131 -285.329058 
L 664.667517 -284.799399 
L 664.509586 -284.26974 
L 664.358747 -283.740081 
L 664.206562 -283.210422 
L 664.140623 -282.680763 
L 663.945016 -282.151104 
L 663.902341 -281.621445 
L 663.870755 -281.091786 
L 663.854559 -280.562127 
L 663.822613 -280.032468 
L 663.822454 -279.502809 
L 663.808693 -278.97315 
L 663.796465 -278.443491 
L 663.710943 -277.913832 
L 663.674818 -277.384173 
L 663.67078 -276.854514 
L 663.651282 -276.324855 
L 663.647837 -275.795196 
L 663.595378 -275.265537 
L 663.559921 -274.735878 
L 663.450289 -274.206219 
L 663.419605 -273.67656 
L 663.393864 -273.146901 
L 663.393524 -272.617242 
L 663.391488 -272.087583 
L 663.321413 -271.557924 
L 663.296212 -271.028265 
L 663.289957 -270.498606 
L 663.143471 -269.968947 
L 663.008174 -269.439288 
L 662.956906 -268.909629 
L 662.952364 -268.37997 
L 662.831834 -267.850311 
L 662.740961 -267.320652 
L 662.725893 -266.790993 
L 662.710366 -266.261334 
L 662.605252 -265.731675 
L 662.501419 -265.202016 
L 662.495684 -264.672357 
L 662.482971 -264.142698 
L 662.477032 -263.613039 
L 662.471121 -263.08338 
L 662.470224 -262.553721 
L 662.46783 -262.024062 
L 662.462039 -261.494403 
L 662.459933 -260.964744 
L 662.455017 -260.435084 
L 662.435587 -259.905425 
L 662.393559 -259.375766 
L 662.299216 -258.846107 
L 662.253868 -258.316448 
L 662.248849 -257.786789 
L 662.237344 -257.25713 
L 662.206566 -256.727471 
L 662.188954 -256.197812 
L 662.083639 -255.668153 
L 662.083598 -255.138494 
L 661.992904 -254.608835 
L 661.97158 -254.079176 
L 661.957429 -253.549517 
L 661.928075 -253.019858 
L 661.822631 -252.490199 
L 661.813993 -251.96054 
L 661.812388 -251.430881 
L 661.806705 -250.901222 
L 661.800316 -250.371563 
L 661.783697 -249.841904 
L 661.719061 -249.312245 
L 661.679752 -248.782586 
L 661.665445 -248.252927 
L 661.656805 -247.723268 
L 661.409225 -247.193609 
L 661.265391 -246.66395 
L 661.184873 -246.134291 
L 660.858633 -245.604632 
L 660.818991 -245.074973 
L 660.816345 -244.545314 
L 660.812765 -244.015655 
L 660.811849 -243.485996 
L 660.808114 -242.956337 
L 660.804501 -242.426678 
L 660.727943 -241.897019 
L 660.717488 -241.36736 
L 660.714101 -240.837701 
L 660.707625 -240.308042 
L 660.681957 -239.778383 
L 660.629825 -239.248724 
L 660.585063 -238.719065 
L 660.546946 -238.189406 
L 660.521945 -237.659747 
L 660.500704 -237.130088 
L 660.4275 -236.600429 
L 660.390458 -236.07077 
L 660.333093 -235.541111 
L 660.310749 -235.011452 
L 660.310719 -234.481792 
L 660.285564 -233.952133 
L 660.283502 -233.422474 
L 660.261543 -232.892815 
L 660.246078 -232.363156 
L 660.173464 -231.833497 
L 659.950132 -231.303838 
L 659.773833 -230.774179 
L 659.700955 -230.24452 
L 659.700502 -229.714861 
L 659.693684 -229.185202 
L 659.678902 -228.655543 
L 659.305237 -228.125884 
L 659.297168 -227.596225 
L 659.292556 -227.066566 
L 659.28295 -226.536907 
L 659.215435 -226.007248 
L 659.17102 -225.477589 
L 659.115252 -224.94793 
L 659.110716 -224.418271 
L 659.070814 -223.888612 
L 658.938677 -223.358953 
L 658.933692 -222.829294 
L 658.932912 -222.299635 
L 658.927692 -221.769976 
L 658.911243 -221.240317 
L 658.84296 -220.710658 
L 658.84152 -220.180999 
L 658.839841 -219.65134 
L 658.832305 -219.121681 
L 658.785821 -218.592022 
L 658.761286 -218.062363 
L 658.721127 -217.532704 
L 658.69788 -217.003045 
L 658.632527 -216.473386 
L 658.50941 -215.943727 
L 658.108925 -215.414068 
L 657.688385 -214.884409 
L 657.687455 -214.35475 
L 657.535245 -213.825091 
L 657.499869 -213.295432 
L 657.491691 -212.765773 
L 657.468875 -212.236114 
L 657.408896 -211.706455 
L 657.383324 -211.176796 
L 657.212946 -210.647137 
L 657.196487 -210.117478 
L 657.17905 -209.587819 
L 656.748907 -209.05816 
L 656.689257 -208.5285 
L 656.607386 -207.998841 
L 656.397963 -207.469182 
L 656.335252 -206.939523 
L 656.133107 -206.409864 
L 655.985334 -205.880205 
L 655.950238 -205.350546 
L 655.945209 -204.820887 
L 655.919403 -204.291228 
L 655.904579 -203.761569 
L 655.761874 -203.23191 
L 655.70507 -202.702251 
L 655.661628 -202.172592 
L 655.608626 -201.642933 
L 655.584636 -201.113274 
L 655.577767 -200.583615 
L 655.352131 -200.053956 
L 654.962449 -199.524297 
L 654.927382 -198.994638 
L 654.758872 -198.464979 
L 654.50891 -197.93532 
L 654.318306 -197.405661 
L 654.317244 -196.876002 
L 654.163525 -196.346343 
L 654.082354 -195.816684 
L 653.985983 -195.287025 
L 653.849007 -194.757366 
L 653.819818 -194.227707 
L 653.818267 -193.698048 
L 653.14687 -193.168389 
L 653.044505 -192.63873 
L 653.008951 -192.109071 
L 652.842715 -191.579412 
L 652.842586 -191.049753 
L 652.831097 -190.520094 
L 652.83037 -189.990435 
L 652.659197 -189.460776 
L 652.652925 -188.931117 
L 652.640428 -188.401458 
L 652.59978 -187.871799 
L 652.482599 -187.34214 
L 652.428652 -186.812481 
L 652.424384 -186.282822 
L 652.320363 -185.753163 
L 652.248178 -185.223504 
L 652.095342 -184.693845 
L 652.06445 -184.164186 
L 651.806365 -183.634527 
L 651.509717 -183.104868 
L 651.205559 -182.575208 
L 651.033212 -182.045549 
L 650.160359 -181.51589 
L 649.833692 -180.986231 
L 649.781637 -180.456572 
L 649.683068 -179.926913 
L 649.66866 -179.397254 
L 649.59426 -178.867595 
L 649.476968 -178.337936 
L 649.015883 -177.808277 
L 649.000794 -177.278618 
L 648.77177 -176.748959 
L 648.765358 -176.2193 
L 648.506273 -175.689641 
L 648.41877 -175.159982 
L 648.133203 -174.630323 
L 646.932965 -174.100664 
L 646.916913 -173.571005 
L 646.699374 -173.041346 
L 646.273586 -172.511687 
L 646.174404 -171.982028 
L 646.097708 -171.452369 
L 645.886655 -170.92271 
L 645.243179 -170.393051 
L 645.145603 -169.863392 
L 644.908608 -169.333733 
L 642.683906 -168.804074 
L 642.429858 -168.274415 
L 641.696748 -167.744756 
L 639.257391 -167.215097 
L 638.936727 -166.685438 
L 638.919594 -166.155779 
L 638.214382 -165.62612 
L 636.687416 -165.096461 
L 633.964155 -164.566802 
L 632.911997 -164.037143 
L 630.710397 -163.507484 
z
" style="stroke: #ccf900; stroke-opacity: 0.7"/>
    </defs>
    <g clip-path="url(#p37f17530d8)">
     <use xlink:href="#m2af82c4945" x="0" y="432" style="fill: #ccf900; fill-opacity: 0.7; stroke: #ccf900; stroke-opacity: 0.7"/>
    </g>
   </g>
   <g id="matplotlib.axis_1">
    <g id="xtick_1">
     <g id="line2d_1">
      <defs>
       <path id="mb3610afb58" d="M 0 0 
L 0 3.5 
" style="stroke: #000000; stroke-width: 0.8"/>
      </defs>
      <g>
       <use xlink:href="#mb3610afb58" x="27.978125" y="390.84375" style="stroke: #000000; stroke-width: 0.8"/>
      </g>
     </g>
     <g id="text_1">
      <!-- −1.0 -->
      <g transform="translate(15.836719 405.442187) scale(0.1 -0.1)">
       <defs>
        <path id="DejaVuSans-2212" d="M 678 2272 
L 4684 2272 
L 4684 1741 
L 678 1741 
L 678 2272 
z
" transform="scale(0.015625)"/>
        <path id="DejaVuSans-31" d="M 794 531 
L 1825 531 
L 1825 4091 
L 703 3866 
L 703 4441 
L 1819 4666 
L 2450 4666 
L 2450 531 
L 3481 531 
L 3481 0 
L 794 0 
L 794 531 
z
" transform="scale(0.015625)"/>
        <path id="DejaVuSans-2e" d="M 684 794 
L 1344 794 
L 1344 0 
L 684 0 
L 684 794 
z
" transform="scale(0.015625)"/>
        <path id="DejaVuSans-30" d="M 2034 4250 
Q 1547 4250 1301 3770 
Q 1056 3291 1056 2328 
Q 1056 1369 1301 889 
Q 1547 409 2034 409 
Q 2525 409 2770 889 
Q 3016 1369 3016 2328 
Q 3016 3291 2770 3770 
Q 2525 4250 2034 4250 
z
M 2034 4750 
Q 2819 4750 3233 4129 
Q 3647 3509 3647 2328 
Q 3647 1150 3233 529 
Q 2819 -91 2034 -91 
Q 1250 -91 836 529 
Q 422 1150 422 2328 
Q 422 3509 836 4129 
Q 1250 4750 2034 4750 
z
" transform="scale(0.015625)"/>
       </defs>
       <use xlink:href="#DejaVuSans-2212"/>
       <use xlink:href="#DejaVuSans-31" x="83.789062"/>
       <use xlink:href="#DejaVuSans-2e" x="147.412109"/>
       <use xlink:href="#DejaVuSans-30" x="179.199219"/>
      </g>
     </g>
    </g>
    <g id="xtick_2">
     <g id="line2d_2">
      <g>
       <use xlink:href="#mb3610afb58" x="95.305156" y="390.84375" style="stroke: #000000; stroke-width: 0.8"/>
      </g>
     </g>
     <g id="text_2">
      <!-- −0.8 -->
      <g transform="translate(83.16375 405.442187) scale(0.1 -0.1)">
       <defs>
        <path id="DejaVuSans-38" d="M 2034 2216 
Q 1584 2216 1326 1975 
Q 1069 1734 1069 1313 
Q 1069 891 1326 650 
Q 1584 409 2034 409 
Q 2484 409 2743 651 
Q 3003 894 3003 1313 
Q 3003 1734 2745 1975 
Q 2488 2216 2034 2216 
z
M 1403 2484 
Q 997 2584 770 2862 
Q 544 3141 544 3541 
Q 544 4100 942 4425 
Q 1341 4750 2034 4750 
Q 2731 4750 3128 4425 
Q 3525 4100 3525 3541 
Q 3525 3141 3298 2862 
Q 3072 2584 2669 2484 
Q 3125 2378 3379 2068 
Q 3634 1759 3634 1313 
Q 3634 634 3220 271 
Q 2806 -91 2034 -91 
Q 1263 -91 848 271 
Q 434 634 434 1313 
Q 434 1759 690 2068 
Q 947 2378 1403 2484 
z
M 1172 3481 
Q 1172 3119 1398 2916 
Q 1625 2713 2034 2713 
Q 2441 2713 2670 2916 
Q 2900 3119 2900 3481 
Q 2900 3844 2670 4047 
Q 2441 4250 2034 4250 
Q 1625 4250 1398 4047 
Q 1172 3844 1172 3481 
z
" transform="scale(0.015625)"/>
       </defs>
       <use xlink:href="#DejaVuSans-2212"/>
       <use xlink:href="#DejaVuSans-30" x="83.789062"/>
       <use xlink:href="#DejaVuSans-2e" x="147.412109"/>
       <use xlink:href="#DejaVuSans-38" x="179.199219"/>
      </g>
     </g>
    </g>
    <g id="xtick_3">
     <g id="line2d_3">
      <g>
       <use xlink:href="#mb3610afb58" x="162.632188" y="390.84375" style="stroke: #000000; stroke-width: 0.8"/>
      </g>
     </g>
     <g id="text_3">
      <!-- −0.6 -->
      <g transform="translate(150.490781 405.442187) scale(0.1 -0.1)">
       <defs>
        <path id="DejaVuSans-36" d="M 2113 2584 
Q 1688 2584 1439 2293 
Q 1191 2003 1191 1497 
Q 1191 994 1439 701 
Q 1688 409 2113 409 
Q 2538 409 2786 701 
Q 3034 994 3034 1497 
Q 3034 2003 2786 2293 
Q 2538 2584 2113 2584 
z
M 3366 4563 
L 3366 3988 
Q 3128 4100 2886 4159 
Q 2644 4219 2406 4219 
Q 1781 4219 1451 3797 
Q 1122 3375 1075 2522 
Q 1259 2794 1537 2939 
Q 1816 3084 2150 3084 
Q 2853 3084 3261 2657 
Q 3669 2231 3669 1497 
Q 3669 778 3244 343 
Q 2819 -91 2113 -91 
Q 1303 -91 875 529 
Q 447 1150 447 2328 
Q 447 3434 972 4092 
Q 1497 4750 2381 4750 
Q 2619 4750 2861 4703 
Q 3103 4656 3366 4563 
z
" transform="scale(0.015625)"/>
       </defs>
       <use xlink:href="#DejaVuSans-2212"/>
       <use xlink:href="#DejaVuSans-30" x="83.789062"/>
       <use xlink:href="#DejaVuSans-2e" x="147.412109"/>
       <use xlink:href="#DejaVuSans-36" x="179.199219"/>
      </g>
     </g>
    </g>
    <g id="xtick_4">
     <g id="line2d_4">
      <g>
       <use xlink:href="#mb3610afb58" x="229.959219" y="390.84375" style="stroke: #000000; stroke-width: 0.8"/>
      </g>
     </g>
     <g id="text_4">
      <!-- −0.4 -->
      <g transform="translate(217.817813 405.442187) scale(0.1 -0.1)">
       <defs>
        <path id="DejaVuSans-34" d="M 2419 4116 
L 825 1625 
L 2419 1625 
L 2419 4116 
z
M 2253 4666 
L 3047 4666 
L 3047 1625 
L 3713 1625 
L 3713 1100 
L 3047 1100 
L 3047 0 
L 2419 0 
L 2419 1100 
L 313 1100 
L 313 1709 
L 2253 4666 
z
" transform="scale(0.015625)"/>
       </defs>
       <use xlink:href="#DejaVuSans-2212"/>
       <use xlink:href="#DejaVuSans-30" x="83.789062"/>
       <use xlink:href="#DejaVuSans-2e" x="147.412109"/>
       <use xlink:href="#DejaVuSans-34" x="179.199219"/>
      </g>
     </g>
    </g>
    <g id="xtick_5">
     <g id="line2d_5">
      <g>
       <use xlink:href="#mb3610afb58" x="297.28625" y="390.84375" style="stroke: #000000; stroke-width: 0.8"/>
      </g>
     </g>
     <g id="text_5">
      <!-- −0.2 -->
      <g transform="translate(285.144844 405.442187) scale(0.1 -0.1)">
       <defs>
        <path id="DejaVuSans-32" d="M 1228 531 
L 3431 531 
L 3431 0 
L 469 0 
L 469 531 
Q 828 903 1448 1529 
Q 2069 2156 2228 2338 
Q 2531 2678 2651 2914 
Q 2772 3150 2772 3378 
Q 2772 3750 2511 3984 
Q 2250 4219 1831 4219 
Q 1534 4219 1204 4116 
Q 875 4013 500 3803 
L 500 4441 
Q 881 4594 1212 4672 
Q 1544 4750 1819 4750 
Q 2544 4750 2975 4387 
Q 3406 4025 3406 3419 
Q 3406 3131 3298 2873 
Q 3191 2616 2906 2266 
Q 2828 2175 2409 1742 
Q 1991 1309 1228 531 
z
" transform="scale(0.015625)"/>
       </defs>
       <use xlink:href="#DejaVuSans-2212"/>
       <use xlink:href="#DejaVuSans-30" x="83.789062"/>
       <use xlink:href="#DejaVuSans-2e" x="147.412109"/>
       <use xlink:href="#DejaVuSans-32" x="179.199219"/>
      </g>
     </g>
    </g>
    <g id="xtick_6">
     <g id="line2d_6">
      <g>
       <use xlink:href="#mb3610afb58" x="364.613281" y="390.84375" style="stroke: #000000; stroke-width: 0.8"/>
      </g>
     </g>
     <g id="text_6">
      <!-- 0.0 -->
      <g transform="translate(356.661719 405.442187) scale(0.1 -0.1)">
       <use xlink:href="#DejaVuSans-30"/>
       <use xlink:href="#DejaVuSans-2e" x="63.623047"/>
       <use xlink:href="#DejaVuSans-30" x="95.410156"/>
      </g>
     </g>
    </g>
    <g id="xtick_7">
     <g id="line2d_7">
      <g>
       <use xlink:href="#mb3610afb58" x="431.940313" y="390.84375" style="stroke: #000000; stroke-width: 0.8"/>
      </g>
     </g>
     <g id="text_7">
      <!-- 0.2 -->
      <g transform="translate(423.98875 405.442187) scale(0.1 -0.1)">
       <use xlink:href="#DejaVuSans-30"/>
       <use xlink:href="#DejaVuSans-2e" x="63.623047"/>
       <use xlink:href="#DejaVuSans-32" x="95.410156"/>
      </g>
     </g>
    </g>
    <g id="xtick_8">
     <g id="line2d_8">
      <g>
       <use xlink:href="#mb3610afb58" x="499.267344" y="390.84375" style="stroke: #000000; stroke-width: 0.8"/>
      </g>
     </g>
     <g id="text_8">
      <!-- 0.4 -->
      <g transform="translate(491.315781 405.442187) scale(0.1 -0.1)">
       <use xlink:href="#DejaVuSans-30"/>
       <use xlink:href="#DejaVuSans-2e" x="63.623047"/>
       <use xlink:href="#DejaVuSans-34" x="95.410156"/>
      </g>
     </g>
    </g>
    <g id="xtick_9">
     <g id="line2d_9">
      <g>
       <use xlink:href="#mb3610afb58" x="566.594375" y="390.84375" style="stroke: #000000; stroke-width: 0.8"/>
      </g>
     </g>
     <g id="text_9">
      <!-- 0.6 -->
      <g transform="translate(558.642812 405.442187) scale(0.1 -0.1)">
       <use xlink:href="#DejaVuSans-30"/>
       <use xlink:href="#DejaVuSans-2e" x="63.623047"/>
       <use xlink:href="#DejaVuSans-36" x="95.410156"/>
      </g>
     </g>
    </g>
    <g id="xtick_10">
     <g id="line2d_10">
      <g>
       <use xlink:href="#mb3610afb58" x="633.921406" y="390.84375" style="stroke: #000000; stroke-width: 0.8"/>
      </g>
     </g>
     <g id="text_10">
      <!-- 0.8 -->
      <g transform="translate(625.969844 405.442187) scale(0.1 -0.1)">
       <use xlink:href="#DejaVuSans-30"/>
       <use xlink:href="#DejaVuSans-2e" x="63.623047"/>
       <use xlink:href="#DejaVuSans-38" x="95.410156"/>
      </g>
     </g>
    </g>
    <g id="xtick_11">
     <g id="line2d_11">
      <g>
       <use xlink:href="#mb3610afb58" x="701.248437" y="390.84375" style="stroke: #000000; stroke-width: 0.8"/>
      </g>
     </g>
     <g id="text_11">
      <!-- 1.0 -->
      <g transform="translate(693.296875 405.442187) scale(0.1 -0.1)">
       <use xlink:href="#DejaVuSans-31"/>
       <use xlink:href="#DejaVuSans-2e" x="63.623047"/>
       <use xlink:href="#DejaVuSans-30" x="95.410156"/>
      </g>
     </g>
    </g>
    <g id="text_12">
     <!-- Silhouette coefficient -->
     <g transform="translate(311.463281 419.120313) scale(0.1 -0.1)">
      <defs>
       <path id="DejaVuSans-53" d="M 3425 4513 
L 3425 3897 
Q 3066 4069 2747 4153 
Q 2428 4238 2131 4238 
Q 1616 4238 1336 4038 
Q 1056 3838 1056 3469 
Q 1056 3159 1242 3001 
Q 1428 2844 1947 2747 
L 2328 2669 
Q 3034 2534 3370 2195 
Q 3706 1856 3706 1288 
Q 3706 609 3251 259 
Q 2797 -91 1919 -91 
Q 1588 -91 1214 -16 
Q 841 59 441 206 
L 441 856 
Q 825 641 1194 531 
Q 1563 422 1919 422 
Q 2459 422 2753 634 
Q 3047 847 3047 1241 
Q 3047 1584 2836 1778 
Q 2625 1972 2144 2069 
L 1759 2144 
Q 1053 2284 737 2584 
Q 422 2884 422 3419 
Q 422 4038 858 4394 
Q 1294 4750 2059 4750 
Q 2388 4750 2728 4690 
Q 3069 4631 3425 4513 
z
" transform="scale(0.015625)"/>
       <path id="DejaVuSans-69" d="M 603 3500 
L 1178 3500 
L 1178 0 
L 603 0 
L 603 3500 
z
M 603 4863 
L 1178 4863 
L 1178 4134 
L 603 4134 
L 603 4863 
z
" transform="scale(0.015625)"/>
       <path id="DejaVuSans-6c" d="M 603 4863 
L 1178 4863 
L 1178 0 
L 603 0 
L 603 4863 
z
" transform="scale(0.015625)"/>
       <path id="DejaVuSans-68" d="M 3513 2113 
L 3513 0 
L 2938 0 
L 2938 2094 
Q 2938 2591 2744 2837 
Q 2550 3084 2163 3084 
Q 1697 3084 1428 2787 
Q 1159 2491 1159 1978 
L 1159 0 
L 581 0 
L 581 4863 
L 1159 4863 
L 1159 2956 
Q 1366 3272 1645 3428 
Q 1925 3584 2291 3584 
Q 2894 3584 3203 3211 
Q 3513 2838 3513 2113 
z
" transform="scale(0.015625)"/>
       <path id="DejaVuSans-6f" d="M 1959 3097 
Q 1497 3097 1228 2736 
Q 959 2375 959 1747 
Q 959 1119 1226 758 
Q 1494 397 1959 397 
Q 2419 397 2687 759 
Q 2956 1122 2956 1747 
Q 2956 2369 2687 2733 
Q 2419 3097 1959 3097 
z
M 1959 3584 
Q 2709 3584 3137 3096 
Q 3566 2609 3566 1747 
Q 3566 888 3137 398 
Q 2709 -91 1959 -91 
Q 1206 -91 779 398 
Q 353 888 353 1747 
Q 353 2609 779 3096 
Q 1206 3584 1959 3584 
z
" transform="scale(0.015625)"/>
       <path id="DejaVuSans-75" d="M 544 1381 
L 544 3500 
L 1119 3500 
L 1119 1403 
Q 1119 906 1312 657 
Q 1506 409 1894 409 
Q 2359 409 2629 706 
Q 2900 1003 2900 1516 
L 2900 3500 
L 3475 3500 
L 3475 0 
L 2900 0 
L 2900 538 
Q 2691 219 2414 64 
Q 2138 -91 1772 -91 
Q 1169 -91 856 284 
Q 544 659 544 1381 
z
M 1991 3584 
L 1991 3584 
z
" transform="scale(0.015625)"/>
       <path id="DejaVuSans-65" d="M 3597 1894 
L 3597 1613 
L 953 1613 
Q 991 1019 1311 708 
Q 1631 397 2203 397 
Q 2534 397 2845 478 
Q 3156 559 3463 722 
L 3463 178 
Q 3153 47 2828 -22 
Q 2503 -91 2169 -91 
Q 1331 -91 842 396 
Q 353 884 353 1716 
Q 353 2575 817 3079 
Q 1281 3584 2069 3584 
Q 2775 3584 3186 3129 
Q 3597 2675 3597 1894 
z
M 3022 2063 
Q 3016 2534 2758 2815 
Q 2500 3097 2075 3097 
Q 1594 3097 1305 2825 
Q 1016 2553 972 2059 
L 3022 2063 
z
" transform="scale(0.015625)"/>
       <path id="DejaVuSans-74" d="M 1172 4494 
L 1172 3500 
L 2356 3500 
L 2356 3053 
L 1172 3053 
L 1172 1153 
Q 1172 725 1289 603 
Q 1406 481 1766 481 
L 2356 481 
L 2356 0 
L 1766 0 
Q 1100 0 847 248 
Q 594 497 594 1153 
L 594 3053 
L 172 3053 
L 172 3500 
L 594 3500 
L 594 4494 
L 1172 4494 
z
" transform="scale(0.015625)"/>
       <path id="DejaVuSans-20" transform="scale(0.015625)"/>
       <path id="DejaVuSans-63" d="M 3122 3366 
L 3122 2828 
Q 2878 2963 2633 3030 
Q 2388 3097 2138 3097 
Q 1578 3097 1268 2742 
Q 959 2388 959 1747 
Q 959 1106 1268 751 
Q 1578 397 2138 397 
Q 2388 397 2633 464 
Q 2878 531 3122 666 
L 3122 134 
Q 2881 22 2623 -34 
Q 2366 -91 2075 -91 
Q 1284 -91 818 406 
Q 353 903 353 1747 
Q 353 2603 823 3093 
Q 1294 3584 2113 3584 
Q 2378 3584 2631 3529 
Q 2884 3475 3122 3366 
z
" transform="scale(0.015625)"/>
       <path id="DejaVuSans-66" d="M 2375 4863 
L 2375 4384 
L 1825 4384 
Q 1516 4384 1395 4259 
Q 1275 4134 1275 3809 
L 1275 3500 
L 2222 3500 
L 2222 3053 
L 1275 3053 
L 1275 0 
L 697 0 
L 697 3053 
L 147 3053 
L 147 3500 
L 697 3500 
L 697 3744 
Q 697 4328 969 4595 
Q 1241 4863 1831 4863 
L 2375 4863 
z
" transform="scale(0.015625)"/>
       <path id="DejaVuSans-6e" d="M 3513 2113 
L 3513 0 
L 2938 0 
L 2938 2094 
Q 2938 2591 2744 2837 
Q 2550 3084 2163 3084 
Q 1697 3084 1428 2787 
Q 1159 2491 1159 1978 
L 1159 0 
L 581 0 
L 581 3500 
L 1159 3500 
L 1159 2956 
Q 1366 3272 1645 3428 
Q 1925 3584 2291 3584 
Q 2894 3584 3203 3211 
Q 3513 2838 3513 2113 
z
" transform="scale(0.015625)"/>
      </defs>
      <use xlink:href="#DejaVuSans-53"/>
      <use xlink:href="#DejaVuSans-69" x="63.476562"/>
      <use xlink:href="#DejaVuSans-6c" x="91.259766"/>
      <use xlink:href="#DejaVuSans-68" x="119.042969"/>
      <use xlink:href="#DejaVuSans-6f" x="182.421875"/>
      <use xlink:href="#DejaVuSans-75" x="243.603516"/>
      <use xlink:href="#DejaVuSans-65" x="306.982422"/>
      <use xlink:href="#DejaVuSans-74" x="368.505859"/>
      <use xlink:href="#DejaVuSans-74" x="407.714844"/>
      <use xlink:href="#DejaVuSans-65" x="446.923828"/>
      <use xlink:href="#DejaVuSans-20" x="508.447266"/>
      <use xlink:href="#DejaVuSans-63" x="540.234375"/>
      <use xlink:href="#DejaVuSans-6f" x="595.214844"/>
      <use xlink:href="#DejaVuSans-65" x="656.396484"/>
      <use xlink:href="#DejaVuSans-66" x="717.919922"/>
      <use xlink:href="#DejaVuSans-66" x="753.125"/>
      <use xlink:href="#DejaVuSans-69" x="788.330078"/>
      <use xlink:href="#DejaVuSans-63" x="816.113281"/>
      <use xlink:href="#DejaVuSans-69" x="871.09375"/>
      <use xlink:href="#DejaVuSans-65" x="898.876953"/>
      <use xlink:href="#DejaVuSans-6e" x="960.400391"/>
      <use xlink:href="#DejaVuSans-74" x="1023.779297"/>
     </g>
    </g>
   </g>
   <g id="matplotlib.axis_2">
    <g id="text_13">
     <!-- Predicted label -->
     <g transform="translate(18.398438 239.437482) rotate(-90) scale(0.1 -0.1)">
      <defs>
       <path id="DejaVuSans-50" d="M 1259 4147 
L 1259 2394 
L 2053 2394 
Q 2494 2394 2734 2622 
Q 2975 2850 2975 3272 
Q 2975 3691 2734 3919 
Q 2494 4147 2053 4147 
L 1259 4147 
z
M 628 4666 
L 2053 4666 
Q 2838 4666 3239 4311 
Q 3641 3956 3641 3272 
Q 3641 2581 3239 2228 
Q 2838 1875 2053 1875 
L 1259 1875 
L 1259 0 
L 628 0 
L 628 4666 
z
" transform="scale(0.015625)"/>
       <path id="DejaVuSans-72" d="M 2631 2963 
Q 2534 3019 2420 3045 
Q 2306 3072 2169 3072 
Q 1681 3072 1420 2755 
Q 1159 2438 1159 1844 
L 1159 0 
L 581 0 
L 581 3500 
L 1159 3500 
L 1159 2956 
Q 1341 3275 1631 3429 
Q 1922 3584 2338 3584 
Q 2397 3584 2469 3576 
Q 2541 3569 2628 3553 
L 2631 2963 
z
" transform="scale(0.015625)"/>
       <path id="DejaVuSans-64" d="M 2906 2969 
L 2906 4863 
L 3481 4863 
L 3481 0 
L 2906 0 
L 2906 525 
Q 2725 213 2448 61 
Q 2172 -91 1784 -91 
Q 1150 -91 751 415 
Q 353 922 353 1747 
Q 353 2572 751 3078 
Q 1150 3584 1784 3584 
Q 2172 3584 2448 3432 
Q 2725 3281 2906 2969 
z
M 947 1747 
Q 947 1113 1208 752 
Q 1469 391 1925 391 
Q 2381 391 2643 752 
Q 2906 1113 2906 1747 
Q 2906 2381 2643 2742 
Q 2381 3103 1925 3103 
Q 1469 3103 1208 2742 
Q 947 2381 947 1747 
z
" transform="scale(0.015625)"/>
       <path id="DejaVuSans-61" d="M 2194 1759 
Q 1497 1759 1228 1600 
Q 959 1441 959 1056 
Q 959 750 1161 570 
Q 1363 391 1709 391 
Q 2188 391 2477 730 
Q 2766 1069 2766 1631 
L 2766 1759 
L 2194 1759 
z
M 3341 1997 
L 3341 0 
L 2766 0 
L 2766 531 
Q 2569 213 2275 61 
Q 1981 -91 1556 -91 
Q 1019 -91 701 211 
Q 384 513 384 1019 
Q 384 1609 779 1909 
Q 1175 2209 1959 2209 
L 2766 2209 
L 2766 2266 
Q 2766 2663 2505 2880 
Q 2244 3097 1772 3097 
Q 1472 3097 1187 3025 
Q 903 2953 641 2809 
L 641 3341 
Q 956 3463 1253 3523 
Q 1550 3584 1831 3584 
Q 2591 3584 2966 3190 
Q 3341 2797 3341 1997 
z
" transform="scale(0.015625)"/>
       <path id="DejaVuSans-62" d="M 3116 1747 
Q 3116 2381 2855 2742 
Q 2594 3103 2138 3103 
Q 1681 3103 1420 2742 
Q 1159 2381 1159 1747 
Q 1159 1113 1420 752 
Q 1681 391 2138 391 
Q 2594 391 2855 752 
Q 3116 1113 3116 1747 
z
M 1159 2969 
Q 1341 3281 1617 3432 
Q 1894 3584 2278 3584 
Q 2916 3584 3314 3078 
Q 3713 2572 3713 1747 
Q 3713 922 3314 415 
Q 2916 -91 2278 -91 
Q 1894 -91 1617 61 
Q 1341 213 1159 525 
L 1159 0 
L 581 0 
L 581 4863 
L 1159 4863 
L 1159 2969 
z
" transform="scale(0.015625)"/>
      </defs>
      <use xlink:href="#DejaVuSans-50"/>
      <use xlink:href="#DejaVuSans-72" x="58.552734"/>
      <use xlink:href="#DejaVuSans-65" x="97.416016"/>
      <use xlink:href="#DejaVuSans-64" x="158.939453"/>
      <use xlink:href="#DejaVuSans-69" x="222.416016"/>
      <use xlink:href="#DejaVuSans-63" x="250.199219"/>
      <use xlink:href="#DejaVuSans-74" x="305.179688"/>
      <use xlink:href="#DejaVuSans-65" x="344.388672"/>
      <use xlink:href="#DejaVuSans-64" x="405.912109"/>
      <use xlink:href="#DejaVuSans-20" x="469.388672"/>
      <use xlink:href="#DejaVuSans-6c" x="501.175781"/>
      <use xlink:href="#DejaVuSans-61" x="528.958984"/>
      <use xlink:href="#DejaVuSans-62" x="590.238281"/>
      <use xlink:href="#DejaVuSans-65" x="653.714844"/>
      <use xlink:href="#DejaVuSans-6c" x="715.238281"/>
     </g>
    </g>
   </g>
   <g id="line2d_12">
    <path d="M 610.011795 390.84375 
L 610.011795 13.726527 
" clip-path="url(#p37f17530d8)" style="fill: none; stroke: #ff0000; stroke-width: 1.5; stroke-linecap: square"/>
   </g>
   <g id="patch_3">
    <path d="M 27.978125 390.84375 
L 27.978125 13.726527 
" style="fill: none; stroke: #000000; stroke-width: 0.8; stroke-linejoin: miter; stroke-linecap: square"/>
   </g>
   <g id="patch_4">
    <path d="M 701.248437 390.84375 
L 701.248437 13.726527 
" style="fill: none; stroke: #000000; stroke-width: 0.8; stroke-linejoin: miter; stroke-linecap: square"/>
   </g>
   <g id="patch_5">
    <path d="M 27.978125 390.84375 
L 701.248437 390.84375 
" style="fill: none; stroke: #000000; stroke-width: 0.8; stroke-linejoin: miter; stroke-linecap: square"/>
   </g>
   <g id="patch_6">
    <path d="M 27.978125 13.726527 
L 701.248437 13.726527 
" style="fill: none; stroke: #000000; stroke-width: 0.8; stroke-linejoin: miter; stroke-linecap: square"/>
   </g>
   <g id="text_14">
    <!-- 0 -->
    <g transform="translate(347.781523 334.964723) scale(0.1 -0.1)">
     <use xlink:href="#DejaVuSans-30"/>
    </g>
   </g>
   <g id="text_15">
    <!-- 1 -->
    <g transform="translate(347.781523 276.437402) scale(0.1 -0.1)">
     <use xlink:href="#DejaVuSans-31"/>
    </g>
   </g>
   <g id="text_16">
    <!-- 2 -->
    <g transform="translate(347.781523 143.757817) scale(0.1 -0.1)">
     <use xlink:href="#DejaVuSans-32"/>
    </g>
   </g>
   <g id="text_17">
    <!-- 0.7290 -->
    <g style="fill: #ff0000" transform="translate(626.843553 19.023118) scale(0.1 -0.1)">
     <defs>
      <path id="DejaVuSans-37" d="M 525 4666 
L 3525 4666 
L 3525 4397 
L 1831 0 
L 1172 0 
L 2766 4134 
L 525 4134 
L 525 4666 
z
" transform="scale(0.015625)"/>
      <path id="DejaVuSans-39" d="M 703 97 
L 703 672 
Q 941 559 1184 500 
Q 1428 441 1663 441 
Q 2288 441 2617 861 
Q 2947 1281 2994 2138 
Q 2813 1869 2534 1725 
Q 2256 1581 1919 1581 
Q 1219 1581 811 2004 
Q 403 2428 403 3163 
Q 403 3881 828 4315 
Q 1253 4750 1959 4750 
Q 2769 4750 3195 4129 
Q 3622 3509 3622 2328 
Q 3622 1225 3098 567 
Q 2575 -91 1691 -91 
Q 1453 -91 1209 -44 
Q 966 3 703 97 
z
M 1959 2075 
Q 2384 2075 2632 2365 
Q 2881 2656 2881 3163 
Q 2881 3666 2632 3958 
Q 2384 4250 1959 4250 
Q 1534 4250 1286 3958 
Q 1038 3666 1038 3163 
Q 1038 2656 1286 2365 
Q 1534 2075 1959 2075 
z
" transform="scale(0.015625)"/>
     </defs>
     <use xlink:href="#DejaVuSans-30"/>
     <use xlink:href="#DejaVuSans-2e" x="63.623047"/>
     <use xlink:href="#DejaVuSans-37" x="95.410156"/>
     <use xlink:href="#DejaVuSans-32" x="159.033203"/>
     <use xlink:href="#DejaVuSans-39" x="222.65625"/>
     <use xlink:href="#DejaVuSans-30" x="286.279297"/>
    </g>
   </g>
  </g>
 </g>
 <defs>
  <clipPath id="p37f17530d8">
   <rect x="27.978125" y="13.726527" width="673.270312" height="377.117223"/>
  </clipPath>
 </defs>
</svg>
