<?xml version="1.0" encoding="utf-8" standalone="no"?>
<!DOCTYPE svg PUBLIC "-//W3C//DTD SVG 1.1//EN"
  "http://www.w3.org/Graphics/SVG/1.1/DTD/svg11.dtd">
<svg xmlns:xlink="http://www.w3.org/1999/xlink" width="720pt" height="720pt" viewBox="0 0 720 720" xmlns="http://www.w3.org/2000/svg" version="1.1">
 <metadata>
  <rdf:RDF xmlns:dc="http://purl.org/dc/elements/1.1/" xmlns:cc="http://creativecommons.org/ns#" xmlns:rdf="http://www.w3.org/1999/02/22-rdf-syntax-ns#">
   <cc:Work>
    <dc:type rdf:resource="http://purl.org/dc/dcmitype/StillImage"/>
    <dc:date>2022-11-17T19:11:18.038298</dc:date>
    <dc:format>image/svg+xml</dc:format>
    <dc:creator>
     <cc:Agent>
      <dc:title>Matplotlib v3.6.1, https://matplotlib.org/</dc:title>
     </cc:Agent>
    </dc:creator>
   </cc:Work>
  </rdf:RDF>
 </metadata>
 <defs>
  <style type="text/css">*{stroke-linejoin: round; stroke-linecap: butt}</style>
 </defs>
 <g id="figure_1">
  <g id="patch_1">
   <path d="M 0 720 
L 720 720 
L 720 0 
L 0 0 
z
" style="fill: #ffffff"/>
  </g>
  <g id="axes_1">
   <g id="patch_2">
    <path d="M 27.978125 678.84375 
L 701.248437 678.84375 
L 701.248437 10.8 
L 27.978125 10.8 
z
" style="fill: #ffffff"/>
   </g>
   <g id="PolyCollection_1">
    <defs>
     <path id="m1c18d5ec91" d="M 334.142011 -50.538887 
L 364.613281 -50.538887 
L 364.613281 -51.477151 
L 364.613281 -52.415414 
L 364.613281 -53.353678 
L 364.613281 -54.291942 
L 364.613281 -55.230205 
L 364.613281 -56.168469 
L 364.613281 -57.106733 
L 364.613281 -58.044996 
L 364.613281 -58.98326 
L 364.613281 -59.921524 
L 364.613281 -60.859788 
L 364.613281 -61.798051 
L 364.613281 -62.736315 
L 364.613281 -63.674579 
L 364.613281 -64.612842 
L 364.613281 -65.551106 
L 364.613281 -66.48937 
L 364.613281 -67.427633 
L 364.613281 -68.365897 
L 364.613281 -69.304161 
L 364.613281 -70.242425 
L 364.613281 -71.180688 
L 364.613281 -72.118952 
L 364.613281 -73.057216 
L 364.613281 -73.995479 
L 364.613281 -74.933743 
L 364.613281 -75.872007 
L 364.613281 -76.81027 
L 364.613281 -77.748534 
L 364.613281 -78.686798 
L 364.613281 -79.625061 
L 364.613281 -80.563325 
L 364.613281 -81.501589 
L 364.613281 -82.439853 
L 364.613281 -83.378116 
L 364.613281 -84.31638 
L 364.613281 -85.254644 
L 364.613281 -86.192907 
L 364.613281 -87.131171 
L 364.613281 -88.069435 
L 364.613281 -89.007698 
L 364.613281 -89.945962 
L 364.613281 -90.884226 
L 364.613281 -91.822489 
L 364.613281 -92.760753 
L 364.613281 -93.699017 
L 364.613281 -94.637281 
L 364.613281 -95.575544 
L 364.613281 -96.513808 
L 364.613281 -97.452072 
L 364.613281 -98.390335 
L 364.613281 -99.328599 
L 364.613281 -100.266863 
L 364.613281 -101.205126 
L 364.613281 -102.14339 
L 364.613281 -103.081654 
L 364.613281 -104.019917 
L 364.613281 -104.958181 
L 364.613281 -105.896445 
L 364.613281 -106.834709 
L 364.613281 -107.772972 
L 364.613281 -108.711236 
L 364.613281 -109.6495 
L 364.613281 -110.587763 
L 364.613281 -111.526027 
L 364.613281 -112.464291 
L 364.613281 -113.402554 
L 364.613281 -114.340818 
L 364.613281 -115.279082 
L 364.613281 -116.217346 
L 364.613281 -117.155609 
L 364.613281 -118.093873 
L 364.613281 -119.032137 
L 364.613281 -119.9704 
L 364.613281 -120.908664 
L 364.613281 -121.846928 
L 364.613281 -122.785191 
L 364.613281 -123.723455 
L 364.613281 -124.661719 
L 364.613281 -125.599982 
L 364.613281 -126.538246 
L 364.613281 -127.47651 
L 364.613281 -128.414774 
L 364.613281 -129.353037 
L 364.613281 -130.291301 
L 364.613281 -131.229565 
L 364.613281 -132.167828 
L 364.613281 -133.106092 
L 364.613281 -134.044356 
L 364.613281 -134.982619 
L 364.613281 -135.920883 
L 364.613281 -136.859147 
L 364.613281 -137.79741 
L 364.613281 -138.735674 
L 364.613281 -139.673938 
L 364.613281 -140.612202 
L 364.613281 -141.550465 
L 364.613281 -142.488729 
L 364.613281 -143.426993 
L 364.613281 -144.365256 
L 364.613281 -145.30352 
L 364.613281 -146.241784 
L 364.613281 -147.180047 
L 364.613281 -148.118311 
L 364.613281 -149.056575 
L 364.613281 -149.994838 
L 364.613281 -150.933102 
L 364.613281 -151.871366 
L 364.613281 -152.80963 
L 364.613281 -153.747893 
L 364.613281 -154.686157 
L 364.613281 -155.624421 
L 364.613281 -156.562684 
L 364.613281 -157.500948 
L 364.613281 -158.439212 
L 364.613281 -159.377475 
L 364.613281 -160.315739 
L 364.613281 -161.254003 
L 364.613281 -162.192267 
L 364.613281 -163.13053 
L 364.613281 -164.068794 
L 364.613281 -165.007058 
L 364.613281 -165.945321 
L 364.613281 -166.883585 
L 364.613281 -167.821849 
L 364.613281 -168.760112 
L 364.613281 -169.698376 
L 364.613281 -170.63664 
L 364.613281 -171.574903 
L 364.613281 -172.513167 
L 364.613281 -173.451431 
L 364.613281 -174.389695 
L 364.613281 -175.327958 
L 364.613281 -176.266222 
L 364.613281 -177.204486 
L 364.613281 -178.142749 
L 364.613281 -179.081013 
L 364.613281 -180.019277 
L 364.613281 -180.95754 
L 364.613281 -181.895804 
L 364.613281 -182.834068 
L 364.613281 -183.772331 
L 364.613281 -184.710595 
L 364.613281 -185.648859 
L 364.613281 -186.587123 
L 364.613281 -187.525386 
L 364.613281 -188.46365 
L 364.613281 -189.401914 
L 364.613281 -190.340177 
L 364.613281 -191.278441 
L 364.613281 -192.216705 
L 364.613281 -193.154968 
L 364.613281 -194.093232 
L 364.613281 -195.031496 
L 364.613281 -195.969759 
L 364.613281 -196.908023 
L 364.613281 -197.846287 
L 364.613281 -198.784551 
L 364.613281 -199.722814 
L 364.613281 -200.661078 
L 364.613281 -201.599342 
L 364.613281 -202.537605 
L 364.613281 -203.475869 
L 364.613281 -204.414133 
L 364.613281 -205.352396 
L 364.613281 -206.29066 
L 364.613281 -207.228924 
L 364.613281 -208.167187 
L 364.613281 -209.105451 
L 364.613281 -210.043715 
L 364.613281 -210.981979 
L 364.613281 -211.920242 
L 364.613281 -212.858506 
L 364.613281 -213.79677 
L 364.613281 -214.735033 
L 364.613281 -215.673297 
L 364.613281 -216.611561 
L 364.613281 -217.549824 
L 364.613281 -218.488088 
L 364.613281 -219.426352 
L 364.613281 -220.364616 
L 364.613281 -221.302879 
L 364.613281 -222.241143 
L 364.613281 -223.179407 
L 364.613281 -224.11767 
L 364.613281 -225.055934 
L 364.613281 -225.994198 
L 364.613281 -226.932461 
L 364.613281 -227.870725 
L 364.613281 -228.808989 
L 534.013449 -228.808989 
L 534.013449 -228.808989 
L 533.023415 -227.870725 
L 532.80192 -226.932461 
L 530.963238 -225.994198 
L 527.853627 -225.055934 
L 527.154726 -224.11767 
L 526.682489 -223.179407 
L 525.989657 -222.241143 
L 525.840957 -221.302879 
L 524.640568 -220.364616 
L 524.443146 -219.426352 
L 524.19417 -218.488088 
L 524.109486 -217.549824 
L 523.801791 -216.611561 
L 523.015392 -215.673297 
L 522.994548 -214.735033 
L 522.85505 -213.79677 
L 522.178086 -212.858506 
L 522.091449 -211.920242 
L 522.054893 -210.981979 
L 521.786734 -210.043715 
L 521.341514 -209.105451 
L 521.33412 -208.167187 
L 520.456026 -207.228924 
L 518.287477 -206.29066 
L 517.765495 -205.352396 
L 517.579176 -204.414133 
L 516.142037 -203.475869 
L 515.917068 -202.537605 
L 515.580684 -201.599342 
L 515.422899 -200.661078 
L 514.909499 -199.722814 
L 514.726005 -198.784551 
L 514.625705 -197.846287 
L 514.478996 -196.908023 
L 514.172856 -195.969759 
L 513.982652 -195.031496 
L 513.675968 -194.093232 
L 513.308327 -193.154968 
L 513.115005 -192.216705 
L 512.677947 -191.278441 
L 512.642788 -190.340177 
L 512.577806 -189.401914 
L 512.436636 -188.46365 
L 512.297128 -187.525386 
L 512.20723 -186.587123 
L 512.188836 -185.648859 
L 512.144094 -184.710595 
L 511.923479 -183.772331 
L 511.702221 -182.834068 
L 510.691691 -181.895804 
L 510.585232 -180.95754 
L 510.119454 -180.019277 
L 509.605641 -179.081013 
L 509.411286 -178.142749 
L 509.277146 -177.204486 
L 509.184212 -176.266222 
L 508.883881 -175.327958 
L 508.860186 -174.389695 
L 508.803767 -173.451431 
L 508.782369 -172.513167 
L 508.567859 -171.574903 
L 508.338925 -170.63664 
L 507.931503 -169.698376 
L 507.42218 -168.760112 
L 507.420924 -167.821849 
L 507.305016 -166.883585 
L 506.817992 -165.945321 
L 506.770138 -165.007058 
L 506.736019 -164.068794 
L 506.658435 -163.13053 
L 506.146209 -162.192267 
L 505.727186 -161.254003 
L 505.345166 -160.315739 
L 505.130815 -159.377475 
L 504.581647 -158.439212 
L 504.384969 -157.500948 
L 504.33505 -156.562684 
L 504.241765 -155.624421 
L 504.096561 -154.686157 
L 504.060023 -153.747893 
L 503.952578 -152.80963 
L 503.949656 -151.871366 
L 503.938687 -150.933102 
L 503.863178 -149.994838 
L 503.769455 -149.056575 
L 503.384164 -148.118311 
L 502.480408 -147.180047 
L 501.594094 -146.241784 
L 501.586025 -145.30352 
L 501.396033 -144.365256 
L 500.481082 -143.426993 
L 500.032949 -142.488729 
L 498.550875 -141.550465 
L 498.223532 -140.612202 
L 497.980994 -139.673938 
L 497.142176 -138.735674 
L 496.312388 -137.79741 
L 496.184103 -136.859147 
L 496.111385 -135.920883 
L 494.984313 -134.982619 
L 494.921119 -134.044356 
L 494.467385 -133.106092 
L 494.444434 -132.167828 
L 494.363714 -131.229565 
L 494.216881 -130.291301 
L 493.887124 -129.353037 
L 493.465111 -128.414774 
L 493.413538 -127.47651 
L 493.333856 -126.538246 
L 493.316873 -125.599982 
L 492.776382 -124.661719 
L 492.43657 -123.723455 
L 491.965969 -122.785191 
L 491.839463 -121.846928 
L 491.816783 -120.908664 
L 491.231717 -119.9704 
L 491.10682 -119.032137 
L 490.894472 -118.093873 
L 490.23655 -117.155609 
L 490.039023 -116.217346 
L 489.925478 -115.279082 
L 488.213397 -114.340818 
L 488.03121 -113.402554 
L 487.858707 -112.464291 
L 487.397531 -111.526027 
L 487.271226 -110.587763 
L 485.923896 -109.6495 
L 484.876515 -108.711236 
L 484.666523 -107.772972 
L 484.011882 -106.834709 
L 483.208908 -105.896445 
L 481.166827 -104.958181 
L 480.551742 -104.019917 
L 480.438315 -103.081654 
L 479.809961 -102.14339 
L 479.603406 -101.205126 
L 478.98124 -100.266863 
L 478.893284 -99.328599 
L 478.616796 -98.390335 
L 478.583546 -97.452072 
L 478.390992 -96.513808 
L 476.496732 -95.575544 
L 476.005498 -94.637281 
L 475.922002 -93.699017 
L 475.755305 -92.760753 
L 474.291392 -91.822489 
L 474.264964 -90.884226 
L 473.285555 -89.945962 
L 472.916604 -89.007698 
L 471.558448 -88.069435 
L 468.874737 -87.131171 
L 468.187153 -86.192907 
L 467.819866 -85.254644 
L 467.647683 -84.31638 
L 466.55293 -83.378116 
L 466.454347 -82.439853 
L 464.724558 -81.501589 
L 464.555908 -80.563325 
L 462.254647 -79.625061 
L 459.574831 -78.686798 
L 459.474935 -77.748534 
L 458.57454 -76.81027 
L 458.163193 -75.872007 
L 458.084884 -74.933743 
L 455.88163 -73.995479 
L 455.639918 -73.057216 
L 455.045923 -72.118952 
L 450.244884 -71.180688 
L 449.555876 -70.242425 
L 449.228528 -69.304161 
L 448.195491 -68.365897 
L 446.584727 -67.427633 
L 443.022319 -66.48937 
L 443.017374 -65.551106 
L 442.108513 -64.612842 
L 432.591778 -63.674579 
L 432.187329 -62.736315 
L 431.18523 -61.798051 
L 429.973716 -60.859788 
L 416.681792 -59.921524 
L 414.393608 -58.98326 
L 412.748871 -58.044996 
L 410.229621 -57.106733 
L 403.826056 -56.168469 
L 393.106214 -55.230205 
L 385.428794 -54.291942 
L 382.156029 -53.353678 
L 362.928046 -52.415414 
L 346.089967 -51.477151 
L 334.142011 -50.538887 
z
" style="stroke: #000000; stroke-opacity: 0.7"/>
    </defs>
    <g clip-path="url(#p5b35abfcf0)">
     <use xlink:href="#m1c18d5ec91" x="0" y="720" style="fill-opacity: 0.7; stroke: #000000; stroke-opacity: 0.7"/>
    </g>
   </g>
   <g id="PolyCollection_2">
    <defs>
     <path id="m52cd1c4637" d="M 363.463034 -239.129889 
L 364.613281 -239.129889 
L 364.613281 -240.068153 
L 364.613281 -241.006417 
L 364.613281 -241.94468 
L 364.613281 -242.882944 
L 364.613281 -243.821208 
L 364.613281 -244.759472 
L 364.613281 -245.697735 
L 364.613281 -246.635999 
L 364.613281 -247.574263 
L 444.58795 -247.574263 
L 444.58795 -247.574263 
L 444.510209 -246.635999 
L 443.652529 -245.697735 
L 438.772484 -244.759472 
L 423.128416 -243.821208 
L 415.950546 -242.882944 
L 415.008749 -241.94468 
L 408.477092 -241.006417 
L 394.869094 -240.068153 
L 363.463034 -239.129889 
z
" style="stroke: #00a4bb; stroke-opacity: 0.7"/>
    </defs>
    <g clip-path="url(#p5b35abfcf0)">
     <use xlink:href="#m52cd1c4637" x="0" y="720" style="fill: #00a4bb; fill-opacity: 0.7; stroke: #00a4bb; stroke-opacity: 0.7"/>
    </g>
   </g>
   <g id="PolyCollection_3">
    <defs>
     <path id="mc9488ab373" d="M 630.710397 -257.895163 
L 364.613281 -257.895163 
L 364.613281 -258.833427 
L 364.613281 -259.771691 
L 364.613281 -260.709954 
L 364.613281 -261.648218 
L 364.613281 -262.586482 
L 364.613281 -263.524745 
L 364.613281 -264.463009 
L 364.613281 -265.401273 
L 364.613281 -266.339537 
L 364.613281 -267.2778 
L 364.613281 -268.216064 
L 364.613281 -269.154328 
L 364.613281 -270.092591 
L 364.613281 -271.030855 
L 364.613281 -271.969119 
L 364.613281 -272.907382 
L 364.613281 -273.845646 
L 364.613281 -274.78391 
L 364.613281 -275.722173 
L 364.613281 -276.660437 
L 364.613281 -277.598701 
L 364.613281 -278.536965 
L 364.613281 -279.475228 
L 364.613281 -280.413492 
L 364.613281 -281.351756 
L 364.613281 -282.290019 
L 364.613281 -283.228283 
L 364.613281 -284.166547 
L 364.613281 -285.10481 
L 364.613281 -286.043074 
L 364.613281 -286.981338 
L 364.613281 -287.919601 
L 364.613281 -288.857865 
L 364.613281 -289.796129 
L 364.613281 -290.734393 
L 364.613281 -291.672656 
L 364.613281 -292.61092 
L 364.613281 -293.549184 
L 364.613281 -294.487447 
L 364.613281 -295.425711 
L 364.613281 -296.363975 
L 364.613281 -297.302238 
L 364.613281 -298.240502 
L 364.613281 -299.178766 
L 364.613281 -300.117029 
L 364.613281 -301.055293 
L 364.613281 -301.993557 
L 364.613281 -302.931821 
L 364.613281 -303.870084 
L 364.613281 -304.808348 
L 364.613281 -305.746612 
L 364.613281 -306.684875 
L 364.613281 -307.623139 
L 364.613281 -308.561403 
L 364.613281 -309.499666 
L 364.613281 -310.43793 
L 364.613281 -311.376194 
L 364.613281 -312.314458 
L 364.613281 -313.252721 
L 364.613281 -314.190985 
L 364.613281 -315.129249 
L 364.613281 -316.067512 
L 364.613281 -317.005776 
L 364.613281 -317.94404 
L 364.613281 -318.882303 
L 364.613281 -319.820567 
L 364.613281 -320.758831 
L 364.613281 -321.697094 
L 364.613281 -322.635358 
L 364.613281 -323.573622 
L 364.613281 -324.511886 
L 364.613281 -325.450149 
L 364.613281 -326.388413 
L 364.613281 -327.326677 
L 364.613281 -328.26494 
L 364.613281 -329.203204 
L 364.613281 -330.141468 
L 364.613281 -331.079731 
L 364.613281 -332.017995 
L 364.613281 -332.956259 
L 364.613281 -333.894522 
L 364.613281 -334.832786 
L 364.613281 -335.77105 
L 364.613281 -336.709314 
L 364.613281 -337.647577 
L 364.613281 -338.585841 
L 364.613281 -339.524105 
L 364.613281 -340.462368 
L 364.613281 -341.400632 
L 364.613281 -342.338896 
L 364.613281 -343.277159 
L 364.613281 -344.215423 
L 364.613281 -345.153687 
L 364.613281 -346.09195 
L 364.613281 -347.030214 
L 364.613281 -347.968478 
L 364.613281 -348.906742 
L 364.613281 -349.845005 
L 364.613281 -350.783269 
L 364.613281 -351.721533 
L 364.613281 -352.659796 
L 364.613281 -353.59806 
L 364.613281 -354.536324 
L 364.613281 -355.474587 
L 364.613281 -356.412851 
L 364.613281 -357.351115 
L 364.613281 -358.289379 
L 364.613281 -359.227642 
L 364.613281 -360.165906 
L 364.613281 -361.10417 
L 364.613281 -362.042433 
L 364.613281 -362.980697 
L 364.613281 -363.918961 
L 364.613281 -364.857224 
L 364.613281 -365.795488 
L 364.613281 -366.733752 
L 364.613281 -367.672015 
L 364.613281 -368.610279 
L 364.613281 -369.548543 
L 364.613281 -370.486807 
L 364.613281 -371.42507 
L 364.613281 -372.363334 
L 364.613281 -373.301598 
L 364.613281 -374.239861 
L 364.613281 -375.178125 
L 364.613281 -376.116389 
L 364.613281 -377.054652 
L 364.613281 -377.992916 
L 364.613281 -378.93118 
L 364.613281 -379.869443 
L 364.613281 -380.807707 
L 364.613281 -381.745971 
L 364.613281 -382.684235 
L 364.613281 -383.622498 
L 364.613281 -384.560762 
L 364.613281 -385.499026 
L 364.613281 -386.437289 
L 364.613281 -387.375553 
L 364.613281 -388.313817 
L 364.613281 -389.25208 
L 364.613281 -390.190344 
L 364.613281 -391.128608 
L 364.613281 -392.066871 
L 364.613281 -393.005135 
L 364.613281 -393.943399 
L 364.613281 -394.881663 
L 364.613281 -395.819926 
L 364.613281 -396.75819 
L 364.613281 -397.696454 
L 364.613281 -398.634717 
L 364.613281 -399.572981 
L 364.613281 -400.511245 
L 364.613281 -401.449508 
L 364.613281 -402.387772 
L 364.613281 -403.326036 
L 364.613281 -404.2643 
L 364.613281 -405.202563 
L 364.613281 -406.140827 
L 364.613281 -407.079091 
L 364.613281 -408.017354 
L 364.613281 -408.955618 
L 364.613281 -409.893882 
L 364.613281 -410.832145 
L 364.613281 -411.770409 
L 364.613281 -412.708673 
L 364.613281 -413.646936 
L 364.613281 -414.5852 
L 364.613281 -415.523464 
L 364.613281 -416.461728 
L 364.613281 -417.399991 
L 364.613281 -418.338255 
L 364.613281 -419.276519 
L 364.613281 -420.214782 
L 364.613281 -421.153046 
L 364.613281 -422.09131 
L 364.613281 -423.029573 
L 364.613281 -423.967837 
L 364.613281 -424.906101 
L 364.613281 -425.844364 
L 364.613281 -426.782628 
L 364.613281 -427.720892 
L 364.613281 -428.659156 
L 364.613281 -429.597419 
L 364.613281 -430.535683 
L 364.613281 -431.473947 
L 364.613281 -432.41221 
L 364.613281 -433.350474 
L 364.613281 -434.288738 
L 364.613281 -435.227001 
L 364.613281 -436.165265 
L 364.613281 -437.103529 
L 364.613281 -438.041792 
L 364.613281 -438.980056 
L 364.613281 -439.91832 
L 364.613281 -440.856584 
L 364.613281 -441.794847 
L 364.613281 -442.733111 
L 364.613281 -443.671375 
L 364.613281 -444.609638 
L 364.613281 -445.547902 
L 364.613281 -446.486166 
L 364.613281 -447.424429 
L 364.613281 -448.362693 
L 364.613281 -449.300957 
L 364.613281 -450.239221 
L 364.613281 -451.177484 
L 364.613281 -452.115748 
L 364.613281 -453.054012 
L 364.613281 -453.992275 
L 364.613281 -454.930539 
L 364.613281 -455.868803 
L 364.613281 -456.807066 
L 364.613281 -457.74533 
L 364.613281 -458.683594 
L 364.613281 -459.621857 
L 364.613281 -460.560121 
L 364.613281 -461.498385 
L 364.613281 -462.436649 
L 364.613281 -463.374912 
L 364.613281 -464.313176 
L 364.613281 -465.25144 
L 364.613281 -466.189703 
L 364.613281 -467.127967 
L 364.613281 -468.066231 
L 364.613281 -469.004494 
L 364.613281 -469.942758 
L 364.613281 -470.881022 
L 364.613281 -471.819285 
L 364.613281 -472.757549 
L 364.613281 -473.695813 
L 364.613281 -474.634077 
L 364.613281 -475.57234 
L 364.613281 -476.510604 
L 364.613281 -477.448868 
L 364.613281 -478.387131 
L 364.613281 -479.325395 
L 364.613281 -480.263659 
L 364.613281 -481.201922 
L 364.613281 -482.140186 
L 364.613281 -483.07845 
L 364.613281 -484.016713 
L 364.613281 -484.954977 
L 364.613281 -485.893241 
L 364.613281 -486.831505 
L 364.613281 -487.769768 
L 364.613281 -488.708032 
L 364.613281 -489.646296 
L 364.613281 -490.584559 
L 364.613281 -491.522823 
L 364.613281 -492.461087 
L 364.613281 -493.39935 
L 364.613281 -494.337614 
L 364.613281 -495.275878 
L 364.613281 -496.214142 
L 364.613281 -497.152405 
L 364.613281 -498.090669 
L 364.613281 -499.028933 
L 364.613281 -499.967196 
L 364.613281 -500.90546 
L 364.613281 -501.843724 
L 364.613281 -502.781987 
L 364.613281 -503.720251 
L 364.613281 -504.658515 
L 364.613281 -505.596778 
L 364.613281 -506.535042 
L 364.613281 -507.473306 
L 364.613281 -508.41157 
L 364.613281 -509.349833 
L 364.613281 -510.288097 
L 364.613281 -511.226361 
L 364.613281 -512.164624 
L 364.613281 -513.102888 
L 364.613281 -514.041152 
L 364.613281 -514.979415 
L 364.613281 -515.917679 
L 364.613281 -516.855943 
L 364.613281 -517.794206 
L 364.613281 -518.73247 
L 364.613281 -519.670734 
L 364.613281 -520.608998 
L 364.613281 -521.547261 
L 364.613281 -522.485525 
L 364.613281 -523.423789 
L 364.613281 -524.362052 
L 364.613281 -525.300316 
L 364.613281 -526.23858 
L 364.613281 -527.176843 
L 364.613281 -528.115107 
L 364.613281 -529.053371 
L 364.613281 -529.991634 
L 364.613281 -530.929898 
L 364.613281 -531.868162 
L 364.613281 -532.806426 
L 364.613281 -533.744689 
L 364.613281 -534.682953 
L 364.613281 -535.621217 
L 364.613281 -536.55948 
L 364.613281 -537.497744 
L 364.613281 -538.436008 
L 364.613281 -539.374271 
L 364.613281 -540.312535 
L 364.613281 -541.250799 
L 364.613281 -542.189062 
L 364.613281 -543.127326 
L 364.613281 -544.06559 
L 364.613281 -545.003854 
L 364.613281 -545.942117 
L 364.613281 -546.880381 
L 364.613281 -547.818645 
L 364.613281 -548.756908 
L 364.613281 -549.695172 
L 364.613281 -550.633436 
L 364.613281 -551.571699 
L 364.613281 -552.509963 
L 364.613281 -553.448227 
L 364.613281 -554.386491 
L 364.613281 -555.324754 
L 364.613281 -556.263018 
L 364.613281 -557.201282 
L 364.613281 -558.139545 
L 364.613281 -559.077809 
L 364.613281 -560.016073 
L 364.613281 -560.954336 
L 364.613281 -561.8926 
L 364.613281 -562.830864 
L 364.613281 -563.769127 
L 364.613281 -564.707391 
L 364.613281 -565.645655 
L 364.613281 -566.583919 
L 364.613281 -567.522182 
L 364.613281 -568.460446 
L 364.613281 -569.39871 
L 364.613281 -570.336973 
L 364.613281 -571.275237 
L 364.613281 -572.213501 
L 364.613281 -573.151764 
L 364.613281 -574.090028 
L 364.613281 -575.028292 
L 364.613281 -575.966555 
L 364.613281 -576.904819 
L 364.613281 -577.843083 
L 364.613281 -578.781347 
L 364.613281 -579.71961 
L 364.613281 -580.657874 
L 364.613281 -581.596138 
L 364.613281 -582.534401 
L 364.613281 -583.472665 
L 364.613281 -584.410929 
L 364.613281 -585.349192 
L 364.613281 -586.287456 
L 364.613281 -587.22572 
L 364.613281 -588.163983 
L 364.613281 -589.102247 
L 364.613281 -590.040511 
L 364.613281 -590.978775 
L 364.613281 -591.917038 
L 364.613281 -592.855302 
L 364.613281 -593.793566 
L 364.613281 -594.731829 
L 364.613281 -595.670093 
L 364.613281 -596.608357 
L 364.613281 -597.54662 
L 364.613281 -598.484884 
L 364.613281 -599.423148 
L 364.613281 -600.361412 
L 364.613281 -601.299675 
L 364.613281 -602.237939 
L 364.613281 -603.176203 
L 364.613281 -604.114466 
L 364.613281 -605.05273 
L 364.613281 -605.990994 
L 364.613281 -606.929257 
L 364.613281 -607.867521 
L 364.613281 -608.805785 
L 364.613281 -609.744048 
L 364.613281 -610.682312 
L 364.613281 -611.620576 
L 364.613281 -612.55884 
L 364.613281 -613.497103 
L 364.613281 -614.435367 
L 364.613281 -615.373631 
L 364.613281 -616.311894 
L 364.613281 -617.250158 
L 364.613281 -618.188422 
L 364.613281 -619.126685 
L 364.613281 -620.064949 
L 364.613281 -621.003213 
L 364.613281 -621.941476 
L 364.613281 -622.87974 
L 364.613281 -623.818004 
L 364.613281 -624.756268 
L 364.613281 -625.694531 
L 364.613281 -626.632795 
L 364.613281 -627.571059 
L 364.613281 -628.509322 
L 364.613281 -629.447586 
L 364.613281 -630.38585 
L 364.613281 -631.324113 
L 364.613281 -632.262377 
L 364.613281 -633.200641 
L 364.613281 -634.138904 
L 364.613281 -635.077168 
L 364.613281 -636.015432 
L 364.613281 -636.953696 
L 364.613281 -637.891959 
L 364.613281 -638.830223 
L 364.613281 -639.768487 
L 364.613281 -640.70675 
L 364.613281 -641.645014 
L 364.613281 -642.583278 
L 364.613281 -643.521541 
L 364.613281 -644.459805 
L 364.613281 -645.398069 
L 364.613281 -646.336333 
L 364.613281 -647.274596 
L 364.613281 -648.21286 
L 364.613281 -649.151124 
L 364.613281 -650.089387 
L 364.613281 -651.027651 
L 364.613281 -651.965915 
L 364.613281 -652.904178 
L 364.613281 -653.842442 
L 364.613281 -654.780706 
L 364.613281 -655.718969 
L 364.613281 -656.657233 
L 364.613281 -657.595497 
L 364.613281 -658.533761 
L 364.613281 -659.472024 
L 364.613281 -660.410288 
L 364.613281 -661.348552 
L 364.613281 -662.286815 
L 364.613281 -663.225079 
L 364.613281 -664.163343 
L 364.613281 -665.101606 
L 364.613281 -666.03987 
L 364.613281 -666.978134 
L 364.613281 -667.916397 
L 364.613281 -668.854661 
L 364.613281 -669.792925 
L 364.613281 -670.731189 
L 364.613281 -671.669452 
L 364.613281 -672.607716 
L 364.613281 -673.54598 
L 364.613281 -674.484243 
L 364.613281 -675.422507 
L 364.613281 -676.360771 
L 364.613281 -677.299034 
L 364.613281 -678.237298 
L 364.613281 -679.175562 
L 364.613281 -680.113825 
L 364.613281 -681.052089 
L 364.613281 -681.990353 
L 364.613281 -682.928617 
L 364.613281 -683.86688 
L 364.613281 -684.805144 
L 364.613281 -685.743408 
L 364.613281 -686.681671 
L 364.613281 -687.619935 
L 364.613281 -688.558199 
L 364.613281 -689.496462 
L 364.613281 -690.434726 
L 364.613281 -691.37299 
L 364.613281 -692.311254 
L 364.613281 -693.249517 
L 364.613281 -694.187781 
L 364.613281 -695.126045 
L 364.613281 -696.064308 
L 364.613281 -697.002572 
L 364.613281 -697.940836 
L 364.613281 -698.879099 
L 675.551272 -698.879099 
L 675.551272 -698.879099 
L 675.401971 -697.940836 
L 674.31982 -697.002572 
L 674.318534 -696.064308 
L 674.067554 -695.126045 
L 674.062489 -694.187781 
L 673.992736 -693.249517 
L 673.830351 -692.311254 
L 673.393629 -691.37299 
L 673.096105 -690.434726 
L 673.095173 -689.496462 
L 673.083816 -688.558199 
L 673.015302 -687.619935 
L 673.013142 -686.681671 
L 672.875129 -685.743408 
L 672.866867 -684.805144 
L 672.865421 -683.86688 
L 672.853002 -682.928617 
L 672.74558 -681.990353 
L 672.540671 -681.052089 
L 672.5028 -680.113825 
L 672.464932 -679.175562 
L 672.441933 -678.237298 
L 672.334675 -677.299034 
L 672.197897 -676.360771 
L 672.159611 -675.422507 
L 671.679852 -674.484243 
L 671.659319 -673.54598 
L 671.547092 -672.607716 
L 671.526057 -671.669452 
L 671.517113 -670.731189 
L 671.51002 -669.792925 
L 671.480192 -668.854661 
L 671.465543 -667.916397 
L 671.465449 -666.978134 
L 671.455431 -666.03987 
L 671.452835 -665.101606 
L 671.45123 -664.163343 
L 671.44866 -663.225079 
L 671.431369 -662.286815 
L 671.409602 -661.348552 
L 671.255107 -660.410288 
L 671.184786 -659.472024 
L 671.123852 -658.533761 
L 671.119128 -657.595497 
L 671.117943 -656.657233 
L 671.114095 -655.718969 
L 671.107766 -654.780706 
L 671.098829 -653.842442 
L 671.072823 -652.904178 
L 671.063557 -651.965915 
L 671.056863 -651.027651 
L 671.008803 -650.089387 
L 670.729764 -649.151124 
L 670.724288 -648.21286 
L 670.714621 -647.274596 
L 670.71459 -646.336333 
L 670.712496 -645.398069 
L 670.712295 -644.459805 
L 670.710849 -643.521541 
L 670.706549 -642.583278 
L 670.70557 -641.645014 
L 670.705149 -640.70675 
L 670.704006 -639.768487 
L 670.684373 -638.830223 
L 670.64222 -637.891959 
L 670.641802 -636.953696 
L 670.638678 -636.015432 
L 670.636251 -635.077168 
L 670.634047 -634.138904 
L 670.63249 -633.200641 
L 670.582198 -632.262377 
L 670.570042 -631.324113 
L 670.569556 -630.38585 
L 670.553995 -629.447586 
L 670.540733 -628.509322 
L 670.531665 -627.571059 
L 670.511075 -626.632795 
L 670.484886 -625.694531 
L 670.481175 -624.756268 
L 670.479222 -623.818004 
L 670.427587 -622.87974 
L 670.400162 -621.941476 
L 670.317186 -621.003213 
L 670.31111 -620.064949 
L 670.173685 -619.126685 
L 670.163506 -618.188422 
L 670.131832 -617.250158 
L 669.976092 -616.311894 
L 669.716334 -615.373631 
L 669.598028 -614.435367 
L 669.561333 -613.497103 
L 669.552843 -612.55884 
L 669.547506 -611.620576 
L 669.518872 -610.682312 
L 669.512997 -609.744048 
L 669.507958 -608.805785 
L 669.440826 -607.867521 
L 669.435815 -606.929257 
L 669.4292 -605.990994 
L 669.428598 -605.05273 
L 669.427995 -604.114466 
L 669.425212 -603.176203 
L 669.419322 -602.237939 
L 669.418797 -601.299675 
L 669.412238 -600.361412 
L 669.40436 -599.423148 
L 669.37146 -598.484884 
L 669.18619 -597.54662 
L 669.184185 -596.608357 
L 669.161778 -595.670093 
L 669.105541 -594.731829 
L 669.104632 -593.793566 
L 669.098937 -592.855302 
L 669.095339 -591.917038 
L 669.093233 -590.978775 
L 668.89281 -590.040511 
L 668.841627 -589.102247 
L 668.838208 -588.163983 
L 668.826088 -587.22572 
L 668.800959 -586.287456 
L 668.716516 -585.349192 
L 668.69254 -584.410929 
L 668.682559 -583.472665 
L 668.653002 -582.534401 
L 668.599173 -581.596138 
L 668.598276 -580.657874 
L 668.598061 -579.71961 
L 668.596833 -578.781347 
L 668.595819 -577.843083 
L 668.595244 -576.904819 
L 668.593949 -575.966555 
L 668.593033 -575.028292 
L 668.592499 -574.090028 
L 668.592467 -573.151764 
L 668.590318 -572.213501 
L 668.585451 -571.275237 
L 668.573123 -570.336973 
L 668.571139 -569.39871 
L 668.568779 -568.460446 
L 668.564535 -567.522182 
L 668.563317 -566.583919 
L 668.483915 -565.645655 
L 668.473362 -564.707391 
L 668.455044 -563.769127 
L 668.454486 -562.830864 
L 668.454294 -561.8926 
L 668.451244 -560.954336 
L 668.383376 -560.016073 
L 668.367453 -559.077809 
L 668.343482 -558.139545 
L 668.324964 -557.201282 
L 668.298031 -556.263018 
L 668.277254 -555.324754 
L 668.142927 -554.386491 
L 668.118819 -553.448227 
L 668.098457 -552.509963 
L 668.043324 -551.571699 
L 667.99369 -550.633436 
L 667.916321 -549.695172 
L 667.90126 -548.756908 
L 667.708007 -547.818645 
L 667.677978 -546.880381 
L 667.325659 -545.942117 
L 667.31959 -545.003854 
L 667.312542 -544.06559 
L 667.263046 -543.127326 
L 667.25787 -542.189062 
L 667.220401 -541.250799 
L 667.175889 -540.312535 
L 667.129807 -539.374271 
L 667.11579 -538.436008 
L 667.114081 -537.497744 
L 667.107178 -536.55948 
L 667.104711 -535.621217 
L 667.104101 -534.682953 
L 667.060789 -533.744689 
L 667.056357 -532.806426 
L 667.055093 -531.868162 
L 667.021629 -530.929898 
L 666.83176 -529.991634 
L 666.804772 -529.053371 
L 666.763895 -528.115107 
L 666.673722 -527.176843 
L 666.673439 -526.23858 
L 666.671044 -525.300316 
L 666.663285 -524.362052 
L 666.588017 -523.423789 
L 666.534467 -522.485525 
L 666.502373 -521.547261 
L 666.489933 -520.608998 
L 666.479442 -519.670734 
L 666.369847 -518.73247 
L 666.349499 -517.794206 
L 666.345234 -516.855943 
L 666.33373 -515.917679 
L 666.332125 -514.979415 
L 666.328991 -514.041152 
L 666.294883 -513.102888 
L 666.249518 -512.164624 
L 666.249002 -511.226361 
L 666.24772 -510.288097 
L 666.247092 -509.349833 
L 666.237461 -508.41157 
L 666.192656 -507.473306 
L 666.098881 -506.535042 
L 666.074769 -505.596778 
L 666.064444 -504.658515 
L 666.045159 -503.720251 
L 666.025469 -502.781987 
L 665.999967 -501.843724 
L 665.997282 -500.90546 
L 665.988066 -499.967196 
L 665.900273 -499.028933 
L 665.88461 -498.090669 
L 665.884151 -497.152405 
L 665.852776 -496.214142 
L 665.832002 -495.275878 
L 665.717023 -494.337614 
L 665.659242 -493.39935 
L 665.654966 -492.461087 
L 665.598003 -491.522823 
L 665.534755 -490.584559 
L 665.32447 -489.646296 
L 665.279853 -488.708032 
L 665.155944 -487.769768 
L 665.062742 -486.831505 
L 665.061074 -485.893241 
L 665.02594 -484.954977 
L 665.019774 -484.016713 
L 665.019492 -483.07845 
L 664.991801 -482.140186 
L 664.981693 -481.201922 
L 664.975181 -480.263659 
L 664.945216 -479.325395 
L 664.940854 -478.387131 
L 664.875862 -477.448868 
L 664.831725 -476.510604 
L 664.791701 -475.57234 
L 664.787649 -474.634077 
L 664.721131 -473.695813 
L 664.667517 -472.757549 
L 664.509586 -471.819285 
L 664.358747 -470.881022 
L 664.206562 -469.942758 
L 664.140623 -469.004494 
L 663.945016 -468.066231 
L 663.902341 -467.127967 
L 663.870755 -466.189703 
L 663.854559 -465.25144 
L 663.822613 -464.313176 
L 663.822454 -463.374912 
L 663.808693 -462.436649 
L 663.796465 -461.498385 
L 663.710943 -460.560121 
L 663.674818 -459.621857 
L 663.67078 -458.683594 
L 663.651282 -457.74533 
L 663.647837 -456.807066 
L 663.595378 -455.868803 
L 663.559921 -454.930539 
L 663.450289 -453.992275 
L 663.419605 -453.054012 
L 663.393864 -452.115748 
L 663.393524 -451.177484 
L 663.391488 -450.239221 
L 663.321413 -449.300957 
L 663.296212 -448.362693 
L 663.289957 -447.424429 
L 663.143471 -446.486166 
L 663.008174 -445.547902 
L 662.956906 -444.609638 
L 662.952364 -443.671375 
L 662.831834 -442.733111 
L 662.740961 -441.794847 
L 662.725893 -440.856584 
L 662.710366 -439.91832 
L 662.605252 -438.980056 
L 662.501419 -438.041792 
L 662.495684 -437.103529 
L 662.482971 -436.165265 
L 662.477032 -435.227001 
L 662.471121 -434.288738 
L 662.470224 -433.350474 
L 662.46783 -432.41221 
L 662.462039 -431.473947 
L 662.459933 -430.535683 
L 662.455017 -429.597419 
L 662.435587 -428.659156 
L 662.393559 -427.720892 
L 662.299216 -426.782628 
L 662.253868 -425.844364 
L 662.248849 -424.906101 
L 662.237344 -423.967837 
L 662.206566 -423.029573 
L 662.188954 -422.09131 
L 662.083639 -421.153046 
L 662.083598 -420.214782 
L 661.992904 -419.276519 
L 661.97158 -418.338255 
L 661.957429 -417.399991 
L 661.928075 -416.461728 
L 661.822631 -415.523464 
L 661.813993 -414.5852 
L 661.812388 -413.646936 
L 661.806705 -412.708673 
L 661.800316 -411.770409 
L 661.783697 -410.832145 
L 661.719061 -409.893882 
L 661.679752 -408.955618 
L 661.665445 -408.017354 
L 661.656805 -407.079091 
L 661.409225 -406.140827 
L 661.265391 -405.202563 
L 661.184873 -404.2643 
L 660.858633 -403.326036 
L 660.818991 -402.387772 
L 660.816345 -401.449508 
L 660.812765 -400.511245 
L 660.811849 -399.572981 
L 660.808114 -398.634717 
L 660.804501 -397.696454 
L 660.727943 -396.75819 
L 660.717488 -395.819926 
L 660.714101 -394.881663 
L 660.707625 -393.943399 
L 660.681957 -393.005135 
L 660.629825 -392.066871 
L 660.585063 -391.128608 
L 660.546946 -390.190344 
L 660.521945 -389.25208 
L 660.500704 -388.313817 
L 660.4275 -387.375553 
L 660.390458 -386.437289 
L 660.333093 -385.499026 
L 660.310749 -384.560762 
L 660.310719 -383.622498 
L 660.285564 -382.684235 
L 660.283502 -381.745971 
L 660.261543 -380.807707 
L 660.246078 -379.869443 
L 660.173464 -378.93118 
L 659.950132 -377.992916 
L 659.773833 -377.054652 
L 659.700955 -376.116389 
L 659.700502 -375.178125 
L 659.693684 -374.239861 
L 659.678902 -373.301598 
L 659.305237 -372.363334 
L 659.297168 -371.42507 
L 659.292556 -370.486807 
L 659.28295 -369.548543 
L 659.215435 -368.610279 
L 659.17102 -367.672015 
L 659.115252 -366.733752 
L 659.110716 -365.795488 
L 659.070814 -364.857224 
L 658.938677 -363.918961 
L 658.933692 -362.980697 
L 658.932912 -362.042433 
L 658.927692 -361.10417 
L 658.911243 -360.165906 
L 658.84296 -359.227642 
L 658.84152 -358.289379 
L 658.839841 -357.351115 
L 658.832305 -356.412851 
L 658.785821 -355.474587 
L 658.761286 -354.536324 
L 658.721127 -353.59806 
L 658.69788 -352.659796 
L 658.632527 -351.721533 
L 658.50941 -350.783269 
L 658.108925 -349.845005 
L 657.688385 -348.906742 
L 657.687455 -347.968478 
L 657.535245 -347.030214 
L 657.499869 -346.09195 
L 657.491691 -345.153687 
L 657.468875 -344.215423 
L 657.408896 -343.277159 
L 657.383324 -342.338896 
L 657.212946 -341.400632 
L 657.196487 -340.462368 
L 657.17905 -339.524105 
L 656.748907 -338.585841 
L 656.689257 -337.647577 
L 656.607386 -336.709314 
L 656.397963 -335.77105 
L 656.335252 -334.832786 
L 656.133107 -333.894522 
L 655.985334 -332.956259 
L 655.950238 -332.017995 
L 655.945209 -331.079731 
L 655.919403 -330.141468 
L 655.904579 -329.203204 
L 655.761874 -328.26494 
L 655.70507 -327.326677 
L 655.661628 -326.388413 
L 655.608626 -325.450149 
L 655.584636 -324.511886 
L 655.577767 -323.573622 
L 655.352131 -322.635358 
L 654.962449 -321.697094 
L 654.927382 -320.758831 
L 654.758872 -319.820567 
L 654.50891 -318.882303 
L 654.318306 -317.94404 
L 654.317244 -317.005776 
L 654.163525 -316.067512 
L 654.082354 -315.129249 
L 653.985983 -314.190985 
L 653.849007 -313.252721 
L 653.819818 -312.314458 
L 653.818267 -311.376194 
L 653.14687 -310.43793 
L 653.044505 -309.499666 
L 653.008951 -308.561403 
L 652.842715 -307.623139 
L 652.842586 -306.684875 
L 652.831097 -305.746612 
L 652.83037 -304.808348 
L 652.659197 -303.870084 
L 652.652925 -302.931821 
L 652.640428 -301.993557 
L 652.59978 -301.055293 
L 652.482599 -300.117029 
L 652.428652 -299.178766 
L 652.424384 -298.240502 
L 652.320363 -297.302238 
L 652.248178 -296.363975 
L 652.095342 -295.425711 
L 652.06445 -294.487447 
L 651.806365 -293.549184 
L 651.509717 -292.61092 
L 651.205559 -291.672656 
L 651.033212 -290.734393 
L 650.160359 -289.796129 
L 649.833692 -288.857865 
L 649.781637 -287.919601 
L 649.683068 -286.981338 
L 649.66866 -286.043074 
L 649.59426 -285.10481 
L 649.476968 -284.166547 
L 649.015883 -283.228283 
L 649.000794 -282.290019 
L 648.77177 -281.351756 
L 648.765358 -280.413492 
L 648.506273 -279.475228 
L 648.41877 -278.536965 
L 648.133203 -277.598701 
L 646.932965 -276.660437 
L 646.916913 -275.722173 
L 646.699374 -274.78391 
L 646.273586 -273.845646 
L 646.174404 -272.907382 
L 646.097708 -271.969119 
L 645.886655 -271.030855 
L 645.243179 -270.092591 
L 645.145603 -269.154328 
L 644.908608 -268.216064 
L 642.683906 -267.2778 
L 642.429858 -266.339537 
L 641.696748 -265.401273 
L 639.257391 -264.463009 
L 638.936727 -263.524745 
L 638.919594 -262.586482 
L 638.214382 -261.648218 
L 636.687416 -260.709954 
L 633.964155 -259.771691 
L 632.911997 -258.833427 
L 630.710397 -257.895163 
z
" style="stroke: #ccf900; stroke-opacity: 0.7"/>
    </defs>
    <g clip-path="url(#p5b35abfcf0)">
     <use xlink:href="#mc9488ab373" x="0" y="720" style="fill: #ccf900; fill-opacity: 0.7; stroke: #ccf900; stroke-opacity: 0.7"/>
    </g>
   </g>
   <g id="matplotlib.axis_1">
    <g id="xtick_1">
     <g id="line2d_1">
      <defs>
       <path id="meff2e3dd1e" d="M 0 0 
L 0 3.5 
" style="stroke: #000000; stroke-width: 0.8"/>
      </defs>
      <g>
       <use xlink:href="#meff2e3dd1e" x="27.978125" y="678.84375" style="stroke: #000000; stroke-width: 0.8"/>
      </g>
     </g>
     <g id="text_1">
      <!-- −1.0 -->
      <g transform="translate(15.836719 693.442188) scale(0.1 -0.1)">
       <defs>
        <path id="DejaVuSans-2212" d="M 678 2272 
L 4684 2272 
L 4684 1741 
L 678 1741 
L 678 2272 
z
" transform="scale(0.015625)"/>
        <path id="DejaVuSans-31" d="M 794 531 
L 1825 531 
L 1825 4091 
L 703 3866 
L 703 4441 
L 1819 4666 
L 2450 4666 
L 2450 531 
L 3481 531 
L 3481 0 
L 794 0 
L 794 531 
z
" transform="scale(0.015625)"/>
        <path id="DejaVuSans-2e" d="M 684 794 
L 1344 794 
L 1344 0 
L 684 0 
L 684 794 
z
" transform="scale(0.015625)"/>
        <path id="DejaVuSans-30" d="M 2034 4250 
Q 1547 4250 1301 3770 
Q 1056 3291 1056 2328 
Q 1056 1369 1301 889 
Q 1547 409 2034 409 
Q 2525 409 2770 889 
Q 3016 1369 3016 2328 
Q 3016 3291 2770 3770 
Q 2525 4250 2034 4250 
z
M 2034 4750 
Q 2819 4750 3233 4129 
Q 3647 3509 3647 2328 
Q 3647 1150 3233 529 
Q 2819 -91 2034 -91 
Q 1250 -91 836 529 
Q 422 1150 422 2328 
Q 422 3509 836 4129 
Q 1250 4750 2034 4750 
z
" transform="scale(0.015625)"/>
       </defs>
       <use xlink:href="#DejaVuSans-2212"/>
       <use xlink:href="#DejaVuSans-31" x="83.789062"/>
       <use xlink:href="#DejaVuSans-2e" x="147.412109"/>
       <use xlink:href="#DejaVuSans-30" x="179.199219"/>
      </g>
     </g>
    </g>
    <g id="xtick_2">
     <g id="line2d_2">
      <g>
       <use xlink:href="#meff2e3dd1e" x="95.305156" y="678.84375" style="stroke: #000000; stroke-width: 0.8"/>
      </g>
     </g>
     <g id="text_2">
      <!-- −0.8 -->
      <g transform="translate(83.16375 693.442188) scale(0.1 -0.1)">
       <defs>
        <path id="DejaVuSans-38" d="M 2034 2216 
Q 1584 2216 1326 1975 
Q 1069 1734 1069 1313 
Q 1069 891 1326 650 
Q 1584 409 2034 409 
Q 2484 409 2743 651 
Q 3003 894 3003 1313 
Q 3003 1734 2745 1975 
Q 2488 2216 2034 2216 
z
M 1403 2484 
Q 997 2584 770 2862 
Q 544 3141 544 3541 
Q 544 4100 942 4425 
Q 1341 4750 2034 4750 
Q 2731 4750 3128 4425 
Q 3525 4100 3525 3541 
Q 3525 3141 3298 2862 
Q 3072 2584 2669 2484 
Q 3125 2378 3379 2068 
Q 3634 1759 3634 1313 
Q 3634 634 3220 271 
Q 2806 -91 2034 -91 
Q 1263 -91 848 271 
Q 434 634 434 1313 
Q 434 1759 690 2068 
Q 947 2378 1403 2484 
z
M 1172 3481 
Q 1172 3119 1398 2916 
Q 1625 2713 2034 2713 
Q 2441 2713 2670 2916 
Q 2900 3119 2900 3481 
Q 2900 3844 2670 4047 
Q 2441 4250 2034 4250 
Q 1625 4250 1398 4047 
Q 1172 3844 1172 3481 
z
" transform="scale(0.015625)"/>
       </defs>
       <use xlink:href="#DejaVuSans-2212"/>
       <use xlink:href="#DejaVuSans-30" x="83.789062"/>
       <use xlink:href="#DejaVuSans-2e" x="147.412109"/>
       <use xlink:href="#DejaVuSans-38" x="179.199219"/>
      </g>
     </g>
    </g>
    <g id="xtick_3">
     <g id="line2d_3">
      <g>
       <use xlink:href="#meff2e3dd1e" x="162.632188" y="678.84375" style="stroke: #000000; stroke-width: 0.8"/>
      </g>
     </g>
     <g id="text_3">
      <!-- −0.6 -->
      <g transform="translate(150.490781 693.442188) scale(0.1 -0.1)">
       <defs>
        <path id="DejaVuSans-36" d="M 2113 2584 
Q 1688 2584 1439 2293 
Q 1191 2003 1191 1497 
Q 1191 994 1439 701 
Q 1688 409 2113 409 
Q 2538 409 2786 701 
Q 3034 994 3034 1497 
Q 3034 2003 2786 2293 
Q 2538 2584 2113 2584 
z
M 3366 4563 
L 3366 3988 
Q 3128 4100 2886 4159 
Q 2644 4219 2406 4219 
Q 1781 4219 1451 3797 
Q 1122 3375 1075 2522 
Q 1259 2794 1537 2939 
Q 1816 3084 2150 3084 
Q 2853 3084 3261 2657 
Q 3669 2231 3669 1497 
Q 3669 778 3244 343 
Q 2819 -91 2113 -91 
Q 1303 -91 875 529 
Q 447 1150 447 2328 
Q 447 3434 972 4092 
Q 1497 4750 2381 4750 
Q 2619 4750 2861 4703 
Q 3103 4656 3366 4563 
z
" transform="scale(0.015625)"/>
       </defs>
       <use xlink:href="#DejaVuSans-2212"/>
       <use xlink:href="#DejaVuSans-30" x="83.789062"/>
       <use xlink:href="#DejaVuSans-2e" x="147.412109"/>
       <use xlink:href="#DejaVuSans-36" x="179.199219"/>
      </g>
     </g>
    </g>
    <g id="xtick_4">
     <g id="line2d_4">
      <g>
       <use xlink:href="#meff2e3dd1e" x="229.959219" y="678.84375" style="stroke: #000000; stroke-width: 0.8"/>
      </g>
     </g>
     <g id="text_4">
      <!-- −0.4 -->
      <g transform="translate(217.817813 693.442188) scale(0.1 -0.1)">
       <defs>
        <path id="DejaVuSans-34" d="M 2419 4116 
L 825 1625 
L 2419 1625 
L 2419 4116 
z
M 2253 4666 
L 3047 4666 
L 3047 1625 
L 3713 1625 
L 3713 1100 
L 3047 1100 
L 3047 0 
L 2419 0 
L 2419 1100 
L 313 1100 
L 313 1709 
L 2253 4666 
z
" transform="scale(0.015625)"/>
       </defs>
       <use xlink:href="#DejaVuSans-2212"/>
       <use xlink:href="#DejaVuSans-30" x="83.789062"/>
       <use xlink:href="#DejaVuSans-2e" x="147.412109"/>
       <use xlink:href="#DejaVuSans-34" x="179.199219"/>
      </g>
     </g>
    </g>
    <g id="xtick_5">
     <g id="line2d_5">
      <g>
       <use xlink:href="#meff2e3dd1e" x="297.28625" y="678.84375" style="stroke: #000000; stroke-width: 0.8"/>
      </g>
     </g>
     <g id="text_5">
      <!-- −0.2 -->
      <g transform="translate(285.144844 693.442188) scale(0.1 -0.1)">
       <defs>
        <path id="DejaVuSans-32" d="M 1228 531 
L 3431 531 
L 3431 0 
L 469 0 
L 469 531 
Q 828 903 1448 1529 
Q 2069 2156 2228 2338 
Q 2531 2678 2651 2914 
Q 2772 3150 2772 3378 
Q 2772 3750 2511 3984 
Q 2250 4219 1831 4219 
Q 1534 4219 1204 4116 
Q 875 4013 500 3803 
L 500 4441 
Q 881 4594 1212 4672 
Q 1544 4750 1819 4750 
Q 2544 4750 2975 4387 
Q 3406 4025 3406 3419 
Q 3406 3131 3298 2873 
Q 3191 2616 2906 2266 
Q 2828 2175 2409 1742 
Q 1991 1309 1228 531 
z
" transform="scale(0.015625)"/>
       </defs>
       <use xlink:href="#DejaVuSans-2212"/>
       <use xlink:href="#DejaVuSans-30" x="83.789062"/>
       <use xlink:href="#DejaVuSans-2e" x="147.412109"/>
       <use xlink:href="#DejaVuSans-32" x="179.199219"/>
      </g>
     </g>
    </g>
    <g id="xtick_6">
     <g id="line2d_6">
      <g>
       <use xlink:href="#meff2e3dd1e" x="364.613281" y="678.84375" style="stroke: #000000; stroke-width: 0.8"/>
      </g>
     </g>
     <g id="text_6">
      <!-- 0.0 -->
      <g transform="translate(356.661719 693.442188) scale(0.1 -0.1)">
       <use xlink:href="#DejaVuSans-30"/>
       <use xlink:href="#DejaVuSans-2e" x="63.623047"/>
       <use xlink:href="#DejaVuSans-30" x="95.410156"/>
      </g>
     </g>
    </g>
    <g id="xtick_7">
     <g id="line2d_7">
      <g>
       <use xlink:href="#meff2e3dd1e" x="431.940313" y="678.84375" style="stroke: #000000; stroke-width: 0.8"/>
      </g>
     </g>
     <g id="text_7">
      <!-- 0.2 -->
      <g transform="translate(423.98875 693.442188) scale(0.1 -0.1)">
       <use xlink:href="#DejaVuSans-30"/>
       <use xlink:href="#DejaVuSans-2e" x="63.623047"/>
       <use xlink:href="#DejaVuSans-32" x="95.410156"/>
      </g>
     </g>
    </g>
    <g id="xtick_8">
     <g id="line2d_8">
      <g>
       <use xlink:href="#meff2e3dd1e" x="499.267344" y="678.84375" style="stroke: #000000; stroke-width: 0.8"/>
      </g>
     </g>
     <g id="text_8">
      <!-- 0.4 -->
      <g transform="translate(491.315781 693.442188) scale(0.1 -0.1)">
       <use xlink:href="#DejaVuSans-30"/>
       <use xlink:href="#DejaVuSans-2e" x="63.623047"/>
       <use xlink:href="#DejaVuSans-34" x="95.410156"/>
      </g>
     </g>
    </g>
    <g id="xtick_9">
     <g id="line2d_9">
      <g>
       <use xlink:href="#meff2e3dd1e" x="566.594375" y="678.84375" style="stroke: #000000; stroke-width: 0.8"/>
      </g>
     </g>
     <g id="text_9">
      <!-- 0.6 -->
      <g transform="translate(558.642812 693.442188) scale(0.1 -0.1)">
       <use xlink:href="#DejaVuSans-30"/>
       <use xlink:href="#DejaVuSans-2e" x="63.623047"/>
       <use xlink:href="#DejaVuSans-36" x="95.410156"/>
      </g>
     </g>
    </g>
    <g id="xtick_10">
     <g id="line2d_10">
      <g>
       <use xlink:href="#meff2e3dd1e" x="633.921406" y="678.84375" style="stroke: #000000; stroke-width: 0.8"/>
      </g>
     </g>
     <g id="text_10">
      <!-- 0.8 -->
      <g transform="translate(625.969844 693.442188) scale(0.1 -0.1)">
       <use xlink:href="#DejaVuSans-30"/>
       <use xlink:href="#DejaVuSans-2e" x="63.623047"/>
       <use xlink:href="#DejaVuSans-38" x="95.410156"/>
      </g>
     </g>
    </g>
    <g id="xtick_11">
     <g id="line2d_11">
      <g>
       <use xlink:href="#meff2e3dd1e" x="701.248437" y="678.84375" style="stroke: #000000; stroke-width: 0.8"/>
      </g>
     </g>
     <g id="text_11">
      <!-- 1.0 -->
      <g transform="translate(693.296875 693.442188) scale(0.1 -0.1)">
       <use xlink:href="#DejaVuSans-31"/>
       <use xlink:href="#DejaVuSans-2e" x="63.623047"/>
       <use xlink:href="#DejaVuSans-30" x="95.410156"/>
      </g>
     </g>
    </g>
    <g id="text_12">
     <!-- Silhouette coefficient -->
     <g transform="translate(311.463281 707.120313) scale(0.1 -0.1)">
      <defs>
       <path id="DejaVuSans-53" d="M 3425 4513 
L 3425 3897 
Q 3066 4069 2747 4153 
Q 2428 4238 2131 4238 
Q 1616 4238 1336 4038 
Q 1056 3838 1056 3469 
Q 1056 3159 1242 3001 
Q 1428 2844 1947 2747 
L 2328 2669 
Q 3034 2534 3370 2195 
Q 3706 1856 3706 1288 
Q 3706 609 3251 259 
Q 2797 -91 1919 -91 
Q 1588 -91 1214 -16 
Q 841 59 441 206 
L 441 856 
Q 825 641 1194 531 
Q 1563 422 1919 422 
Q 2459 422 2753 634 
Q 3047 847 3047 1241 
Q 3047 1584 2836 1778 
Q 2625 1972 2144 2069 
L 1759 2144 
Q 1053 2284 737 2584 
Q 422 2884 422 3419 
Q 422 4038 858 4394 
Q 1294 4750 2059 4750 
Q 2388 4750 2728 4690 
Q 3069 4631 3425 4513 
z
" transform="scale(0.015625)"/>
       <path id="DejaVuSans-69" d="M 603 3500 
L 1178 3500 
L 1178 0 
L 603 0 
L 603 3500 
z
M 603 4863 
L 1178 4863 
L 1178 4134 
L 603 4134 
L 603 4863 
z
" transform="scale(0.015625)"/>
       <path id="DejaVuSans-6c" d="M 603 4863 
L 1178 4863 
L 1178 0 
L 603 0 
L 603 4863 
z
" transform="scale(0.015625)"/>
       <path id="DejaVuSans-68" d="M 3513 2113 
L 3513 0 
L 2938 0 
L 2938 2094 
Q 2938 2591 2744 2837 
Q 2550 3084 2163 3084 
Q 1697 3084 1428 2787 
Q 1159 2491 1159 1978 
L 1159 0 
L 581 0 
L 581 4863 
L 1159 4863 
L 1159 2956 
Q 1366 3272 1645 3428 
Q 1925 3584 2291 3584 
Q 2894 3584 3203 3211 
Q 3513 2838 3513 2113 
z
" transform="scale(0.015625)"/>
       <path id="DejaVuSans-6f" d="M 1959 3097 
Q 1497 3097 1228 2736 
Q 959 2375 959 1747 
Q 959 1119 1226 758 
Q 1494 397 1959 397 
Q 2419 397 2687 759 
Q 2956 1122 2956 1747 
Q 2956 2369 2687 2733 
Q 2419 3097 1959 3097 
z
M 1959 3584 
Q 2709 3584 3137 3096 
Q 3566 2609 3566 1747 
Q 3566 888 3137 398 
Q 2709 -91 1959 -91 
Q 1206 -91 779 398 
Q 353 888 353 1747 
Q 353 2609 779 3096 
Q 1206 3584 1959 3584 
z
" transform="scale(0.015625)"/>
       <path id="DejaVuSans-75" d="M 544 1381 
L 544 3500 
L 1119 3500 
L 1119 1403 
Q 1119 906 1312 657 
Q 1506 409 1894 409 
Q 2359 409 2629 706 
Q 2900 1003 2900 1516 
L 2900 3500 
L 3475 3500 
L 3475 0 
L 2900 0 
L 2900 538 
Q 2691 219 2414 64 
Q 2138 -91 1772 -91 
Q 1169 -91 856 284 
Q 544 659 544 1381 
z
M 1991 3584 
L 1991 3584 
z
" transform="scale(0.015625)"/>
       <path id="DejaVuSans-65" d="M 3597 1894 
L 3597 1613 
L 953 1613 
Q 991 1019 1311 708 
Q 1631 397 2203 397 
Q 2534 397 2845 478 
Q 3156 559 3463 722 
L 3463 178 
Q 3153 47 2828 -22 
Q 2503 -91 2169 -91 
Q 1331 -91 842 396 
Q 353 884 353 1716 
Q 353 2575 817 3079 
Q 1281 3584 2069 3584 
Q 2775 3584 3186 3129 
Q 3597 2675 3597 1894 
z
M 3022 2063 
Q 3016 2534 2758 2815 
Q 2500 3097 2075 3097 
Q 1594 3097 1305 2825 
Q 1016 2553 972 2059 
L 3022 2063 
z
" transform="scale(0.015625)"/>
       <path id="DejaVuSans-74" d="M 1172 4494 
L 1172 3500 
L 2356 3500 
L 2356 3053 
L 1172 3053 
L 1172 1153 
Q 1172 725 1289 603 
Q 1406 481 1766 481 
L 2356 481 
L 2356 0 
L 1766 0 
Q 1100 0 847 248 
Q 594 497 594 1153 
L 594 3053 
L 172 3053 
L 172 3500 
L 594 3500 
L 594 4494 
L 1172 4494 
z
" transform="scale(0.015625)"/>
       <path id="DejaVuSans-20" transform="scale(0.015625)"/>
       <path id="DejaVuSans-63" d="M 3122 3366 
L 3122 2828 
Q 2878 2963 2633 3030 
Q 2388 3097 2138 3097 
Q 1578 3097 1268 2742 
Q 959 2388 959 1747 
Q 959 1106 1268 751 
Q 1578 397 2138 397 
Q 2388 397 2633 464 
Q 2878 531 3122 666 
L 3122 134 
Q 2881 22 2623 -34 
Q 2366 -91 2075 -91 
Q 1284 -91 818 406 
Q 353 903 353 1747 
Q 353 2603 823 3093 
Q 1294 3584 2113 3584 
Q 2378 3584 2631 3529 
Q 2884 3475 3122 3366 
z
" transform="scale(0.015625)"/>
       <path id="DejaVuSans-66" d="M 2375 4863 
L 2375 4384 
L 1825 4384 
Q 1516 4384 1395 4259 
Q 1275 4134 1275 3809 
L 1275 3500 
L 2222 3500 
L 2222 3053 
L 1275 3053 
L 1275 0 
L 697 0 
L 697 3053 
L 147 3053 
L 147 3500 
L 697 3500 
L 697 3744 
Q 697 4328 969 4595 
Q 1241 4863 1831 4863 
L 2375 4863 
z
" transform="scale(0.015625)"/>
       <path id="DejaVuSans-6e" d="M 3513 2113 
L 3513 0 
L 2938 0 
L 2938 2094 
Q 2938 2591 2744 2837 
Q 2550 3084 2163 3084 
Q 1697 3084 1428 2787 
Q 1159 2491 1159 1978 
L 1159 0 
L 581 0 
L 581 3500 
L 1159 3500 
L 1159 2956 
Q 1366 3272 1645 3428 
Q 1925 3584 2291 3584 
Q 2894 3584 3203 3211 
Q 3513 2838 3513 2113 
z
" transform="scale(0.015625)"/>
      </defs>
      <use xlink:href="#DejaVuSans-53"/>
      <use xlink:href="#DejaVuSans-69" x="63.476562"/>
      <use xlink:href="#DejaVuSans-6c" x="91.259766"/>
      <use xlink:href="#DejaVuSans-68" x="119.042969"/>
      <use xlink:href="#DejaVuSans-6f" x="182.421875"/>
      <use xlink:href="#DejaVuSans-75" x="243.603516"/>
      <use xlink:href="#DejaVuSans-65" x="306.982422"/>
      <use xlink:href="#DejaVuSans-74" x="368.505859"/>
      <use xlink:href="#DejaVuSans-74" x="407.714844"/>
      <use xlink:href="#DejaVuSans-65" x="446.923828"/>
      <use xlink:href="#DejaVuSans-20" x="508.447266"/>
      <use xlink:href="#DejaVuSans-63" x="540.234375"/>
      <use xlink:href="#DejaVuSans-6f" x="595.214844"/>
      <use xlink:href="#DejaVuSans-65" x="656.396484"/>
      <use xlink:href="#DejaVuSans-66" x="717.919922"/>
      <use xlink:href="#DejaVuSans-66" x="753.125"/>
      <use xlink:href="#DejaVuSans-69" x="788.330078"/>
      <use xlink:href="#DejaVuSans-63" x="816.113281"/>
      <use xlink:href="#DejaVuSans-69" x="871.09375"/>
      <use xlink:href="#DejaVuSans-65" x="898.876953"/>
      <use xlink:href="#DejaVuSans-6e" x="960.400391"/>
      <use xlink:href="#DejaVuSans-74" x="1023.779297"/>
     </g>
    </g>
   </g>
   <g id="matplotlib.axis_2">
    <g id="text_13">
     <!-- Predicted label -->
     <g transform="translate(18.398438 381.974219) rotate(-90) scale(0.1 -0.1)">
      <defs>
       <path id="DejaVuSans-50" d="M 1259 4147 
L 1259 2394 
L 2053 2394 
Q 2494 2394 2734 2622 
Q 2975 2850 2975 3272 
Q 2975 3691 2734 3919 
Q 2494 4147 2053 4147 
L 1259 4147 
z
M 628 4666 
L 2053 4666 
Q 2838 4666 3239 4311 
Q 3641 3956 3641 3272 
Q 3641 2581 3239 2228 
Q 2838 1875 2053 1875 
L 1259 1875 
L 1259 0 
L 628 0 
L 628 4666 
z
" transform="scale(0.015625)"/>
       <path id="DejaVuSans-72" d="M 2631 2963 
Q 2534 3019 2420 3045 
Q 2306 3072 2169 3072 
Q 1681 3072 1420 2755 
Q 1159 2438 1159 1844 
L 1159 0 
L 581 0 
L 581 3500 
L 1159 3500 
L 1159 2956 
Q 1341 3275 1631 3429 
Q 1922 3584 2338 3584 
Q 2397 3584 2469 3576 
Q 2541 3569 2628 3553 
L 2631 2963 
z
" transform="scale(0.015625)"/>
       <path id="DejaVuSans-64" d="M 2906 2969 
L 2906 4863 
L 3481 4863 
L 3481 0 
L 2906 0 
L 2906 525 
Q 2725 213 2448 61 
Q 2172 -91 1784 -91 
Q 1150 -91 751 415 
Q 353 922 353 1747 
Q 353 2572 751 3078 
Q 1150 3584 1784 3584 
Q 2172 3584 2448 3432 
Q 2725 3281 2906 2969 
z
M 947 1747 
Q 947 1113 1208 752 
Q 1469 391 1925 391 
Q 2381 391 2643 752 
Q 2906 1113 2906 1747 
Q 2906 2381 2643 2742 
Q 2381 3103 1925 3103 
Q 1469 3103 1208 2742 
Q 947 2381 947 1747 
z
" transform="scale(0.015625)"/>
       <path id="DejaVuSans-61" d="M 2194 1759 
Q 1497 1759 1228 1600 
Q 959 1441 959 1056 
Q 959 750 1161 570 
Q 1363 391 1709 391 
Q 2188 391 2477 730 
Q 2766 1069 2766 1631 
L 2766 1759 
L 2194 1759 
z
M 3341 1997 
L 3341 0 
L 2766 0 
L 2766 531 
Q 2569 213 2275 61 
Q 1981 -91 1556 -91 
Q 1019 -91 701 211 
Q 384 513 384 1019 
Q 384 1609 779 1909 
Q 1175 2209 1959 2209 
L 2766 2209 
L 2766 2266 
Q 2766 2663 2505 2880 
Q 2244 3097 1772 3097 
Q 1472 3097 1187 3025 
Q 903 2953 641 2809 
L 641 3341 
Q 956 3463 1253 3523 
Q 1550 3584 1831 3584 
Q 2591 3584 2966 3190 
Q 3341 2797 3341 1997 
z
" transform="scale(0.015625)"/>
       <path id="DejaVuSans-62" d="M 3116 1747 
Q 3116 2381 2855 2742 
Q 2594 3103 2138 3103 
Q 1681 3103 1420 2742 
Q 1159 2381 1159 1747 
Q 1159 1113 1420 752 
Q 1681 391 2138 391 
Q 2594 391 2855 752 
Q 3116 1113 3116 1747 
z
M 1159 2969 
Q 1341 3281 1617 3432 
Q 1894 3584 2278 3584 
Q 2916 3584 3314 3078 
Q 3713 2572 3713 1747 
Q 3713 922 3314 415 
Q 2916 -91 2278 -91 
Q 1894 -91 1617 61 
Q 1341 213 1159 525 
L 1159 0 
L 581 0 
L 581 4863 
L 1159 4863 
L 1159 2969 
z
" transform="scale(0.015625)"/>
      </defs>
      <use xlink:href="#DejaVuSans-50"/>
      <use xlink:href="#DejaVuSans-72" x="58.552734"/>
      <use xlink:href="#DejaVuSans-65" x="97.416016"/>
      <use xlink:href="#DejaVuSans-64" x="158.939453"/>
      <use xlink:href="#DejaVuSans-69" x="222.416016"/>
      <use xlink:href="#DejaVuSans-63" x="250.199219"/>
      <use xlink:href="#DejaVuSans-74" x="305.179688"/>
      <use xlink:href="#DejaVuSans-65" x="344.388672"/>
      <use xlink:href="#DejaVuSans-64" x="405.912109"/>
      <use xlink:href="#DejaVuSans-20" x="469.388672"/>
      <use xlink:href="#DejaVuSans-6c" x="501.175781"/>
      <use xlink:href="#DejaVuSans-61" x="528.958984"/>
      <use xlink:href="#DejaVuSans-62" x="590.238281"/>
      <use xlink:href="#DejaVuSans-65" x="653.714844"/>
      <use xlink:href="#DejaVuSans-6c" x="715.238281"/>
     </g>
    </g>
   </g>
   <g id="line2d_12">
    <path d="M 610.011795 678.84375 
L 610.011795 10.8 
" clip-path="url(#p5b35abfcf0)" style="fill: none; stroke: #ff0000; stroke-width: 1.5; stroke-linecap: square"/>
   </g>
   <g id="patch_3">
    <path d="M 27.978125 678.84375 
L 27.978125 10.8 
" style="fill: none; stroke: #000000; stroke-width: 0.8; stroke-linejoin: miter; stroke-linecap: square"/>
   </g>
   <g id="patch_4">
    <path d="M 701.248437 678.84375 
L 701.248437 10.8 
" style="fill: none; stroke: #000000; stroke-width: 0.8; stroke-linejoin: miter; stroke-linecap: square"/>
   </g>
   <g id="patch_5">
    <path d="M 27.978125 678.84375 
L 701.248437 678.84375 
" style="fill: none; stroke: #000000; stroke-width: 0.8; stroke-linejoin: miter; stroke-linecap: square"/>
   </g>
   <g id="patch_6">
    <path d="M 27.978125 10.8 
L 701.248437 10.8 
" style="fill: none; stroke: #000000; stroke-width: 0.8; stroke-linejoin: miter; stroke-linecap: square"/>
   </g>
   <g id="text_14">
    <!-- 0 -->
    <g transform="translate(347.781523 579.85693) scale(0.1 -0.1)">
     <use xlink:href="#DejaVuSans-30"/>
    </g>
   </g>
   <g id="text_15">
    <!-- 1 -->
    <g transform="translate(347.781523 476.178792) scale(0.1 -0.1)">
     <use xlink:href="#DejaVuSans-31"/>
    </g>
   </g>
   <g id="text_16">
    <!-- 2 -->
    <g transform="translate(347.781523 241.143737) scale(0.1 -0.1)">
     <use xlink:href="#DejaVuSans-32"/>
    </g>
   </g>
   <g id="text_17">
    <!-- 0.7290 -->
    <g style="fill: #ff0000" transform="translate(626.843553 20.182637) scale(0.1 -0.1)">
     <defs>
      <path id="DejaVuSans-37" d="M 525 4666 
L 3525 4666 
L 3525 4397 
L 1831 0 
L 1172 0 
L 2766 4134 
L 525 4134 
L 525 4666 
z
" transform="scale(0.015625)"/>
      <path id="DejaVuSans-39" d="M 703 97 
L 703 672 
Q 941 559 1184 500 
Q 1428 441 1663 441 
Q 2288 441 2617 861 
Q 2947 1281 2994 2138 
Q 2813 1869 2534 1725 
Q 2256 1581 1919 1581 
Q 1219 1581 811 2004 
Q 403 2428 403 3163 
Q 403 3881 828 4315 
Q 1253 4750 1959 4750 
Q 2769 4750 3195 4129 
Q 3622 3509 3622 2328 
Q 3622 1225 3098 567 
Q 2575 -91 1691 -91 
Q 1453 -91 1209 -44 
Q 966 3 703 97 
z
M 1959 2075 
Q 2384 2075 2632 2365 
Q 2881 2656 2881 3163 
Q 2881 3666 2632 3958 
Q 2384 4250 1959 4250 
Q 1534 4250 1286 3958 
Q 1038 3666 1038 3163 
Q 1038 2656 1286 2365 
Q 1534 2075 1959 2075 
z
" transform="scale(0.015625)"/>
     </defs>
     <use xlink:href="#DejaVuSans-30"/>
     <use xlink:href="#DejaVuSans-2e" x="63.623047"/>
     <use xlink:href="#DejaVuSans-37" x="95.410156"/>
     <use xlink:href="#DejaVuSans-32" x="159.033203"/>
     <use xlink:href="#DejaVuSans-39" x="222.65625"/>
     <use xlink:href="#DejaVuSans-30" x="286.279297"/>
    </g>
   </g>
  </g>
 </g>
 <defs>
  <clipPath id="p5b35abfcf0">
   <rect x="27.978125" y="10.8" width="673.270312" height="668.04375"/>
  </clipPath>
 </defs>
</svg>
