<?xml version="1.0" encoding="utf-8" standalone="no"?>
<!DOCTYPE svg PUBLIC "-//W3C//DTD SVG 1.1//EN"
  "http://www.w3.org/Graphics/SVG/1.1/DTD/svg11.dtd">
<svg xmlns:xlink="http://www.w3.org/1999/xlink" width="720pt" height="576pt" viewBox="0 0 720 576" xmlns="http://www.w3.org/2000/svg" version="1.1">
 <metadata>
  <rdf:RDF xmlns:dc="http://purl.org/dc/elements/1.1/" xmlns:cc="http://creativecommons.org/ns#" xmlns:rdf="http://www.w3.org/1999/02/22-rdf-syntax-ns#">
   <cc:Work>
    <dc:type rdf:resource="http://purl.org/dc/dcmitype/StillImage"/>
    <dc:date>2022-11-21T18:22:19.629580</dc:date>
    <dc:format>image/svg+xml</dc:format>
    <dc:creator>
     <cc:Agent>
      <dc:title>Matplotlib v3.6.1, https://matplotlib.org/</dc:title>
     </cc:Agent>
    </dc:creator>
   </cc:Work>
  </rdf:RDF>
 </metadata>
 <defs>
  <style type="text/css">*{stroke-linejoin: round; stroke-linecap: butt}</style>
 </defs>
 <g id="figure_1">
  <g id="patch_1">
   <path d="M 0 576 
L 720 576 
L 720 0 
L 0 0 
z
" style="fill: #ffffff"/>
  </g>
  <g id="axes_1">
   <g id="patch_2">
    <path d="M 42.495313 510.648438 
L 693.296875 510.648438 
L 693.296875 23.478145 
L 42.495313 23.478145 
z
" style="fill: #ffffff"/>
   </g>
   <g id="PolyCollection_1">
    <defs>
     <path id="md4188ed894" d="M 392.776636 -72.29131 
L 367.896094 -72.29131 
L 367.896094 -72.985285 
L 367.896094 -73.67926 
L 367.896094 -74.373235 
L 367.896094 -75.067209 
L 367.896094 -75.761184 
L 367.896094 -76.455159 
L 367.896094 -77.149134 
L 367.896094 -77.843108 
L 367.896094 -78.537083 
L 367.896094 -79.231058 
L 367.896094 -79.925033 
L 367.896094 -80.619008 
L 367.896094 -81.312982 
L 367.896094 -82.006957 
L 367.896094 -82.700932 
L 367.896094 -83.394907 
L 367.896094 -84.088881 
L 367.896094 -84.782856 
L 367.896094 -85.476831 
L 367.896094 -86.170806 
L 367.896094 -86.864781 
L 367.896094 -87.558755 
L 367.896094 -88.25273 
L 367.896094 -88.946705 
L 367.896094 -89.64068 
L 367.896094 -90.334654 
L 367.896094 -91.028629 
L 367.896094 -91.722604 
L 367.896094 -92.416579 
L 367.896094 -93.110554 
L 367.896094 -93.804528 
L 367.896094 -94.498503 
L 367.896094 -95.192478 
L 367.896094 -95.886453 
L 367.896094 -96.580427 
L 367.896094 -97.274402 
L 367.896094 -97.968377 
L 367.896094 -98.662352 
L 367.896094 -99.356327 
L 367.896094 -100.050301 
L 367.896094 -100.744276 
L 367.896094 -101.438251 
L 367.896094 -102.132226 
L 367.896094 -102.8262 
L 367.896094 -103.520175 
L 367.896094 -104.21415 
L 367.896094 -104.908125 
L 367.896094 -105.602099 
L 367.896094 -106.296074 
L 367.896094 -106.990049 
L 367.896094 -107.684024 
L 367.896094 -108.377999 
L 367.896094 -109.071973 
L 367.896094 -109.765948 
L 367.896094 -110.459923 
L 367.896094 -111.153898 
L 367.896094 -111.847872 
L 367.896094 -112.541847 
L 367.896094 -113.235822 
L 367.896094 -113.929797 
L 367.896094 -114.623772 
L 367.896094 -115.317746 
L 367.896094 -116.011721 
L 367.896094 -116.705696 
L 367.896094 -117.399671 
L 367.896094 -118.093645 
L 367.896094 -118.78762 
L 367.896094 -119.481595 
L 367.896094 -120.17557 
L 367.896094 -120.869545 
L 367.896094 -121.563519 
L 367.896094 -122.257494 
L 367.896094 -122.951469 
L 367.896094 -123.645444 
L 367.896094 -124.339418 
L 367.896094 -125.033393 
L 367.896094 -125.727368 
L 367.896094 -126.421343 
L 367.896094 -127.115318 
L 367.896094 -127.809292 
L 367.896094 -128.503267 
L 367.896094 -129.197242 
L 367.896094 -129.891217 
L 367.896094 -130.585191 
L 367.896094 -131.279166 
L 367.896094 -131.973141 
L 367.896094 -132.667116 
L 367.896094 -133.361091 
L 367.896094 -134.055065 
L 367.896094 -134.74904 
L 367.896094 -135.443015 
L 367.896094 -136.13699 
L 367.896094 -136.830964 
L 367.896094 -137.524939 
L 367.896094 -138.218914 
L 367.896094 -138.912889 
L 367.896094 -139.606863 
L 367.896094 -140.300838 
L 367.896094 -140.994813 
L 367.896094 -141.688788 
L 367.896094 -142.382763 
L 367.896094 -143.076737 
L 367.896094 -143.770712 
L 367.896094 -144.464687 
L 367.896094 -145.158662 
L 367.896094 -145.852636 
L 367.896094 -146.546611 
L 367.896094 -147.240586 
L 367.896094 -147.934561 
L 367.896094 -148.628536 
L 367.896094 -149.32251 
L 367.896094 -150.016485 
L 367.896094 -150.71046 
L 367.896094 -151.404435 
L 367.896094 -152.098409 
L 367.896094 -152.792384 
L 367.896094 -153.486359 
L 367.896094 -154.180334 
L 367.896094 -154.874309 
L 367.896094 -155.568283 
L 367.896094 -156.262258 
L 367.896094 -156.956233 
L 367.896094 -157.650208 
L 367.896094 -158.344182 
L 367.896094 -159.038157 
L 367.896094 -159.732132 
L 367.896094 -160.426107 
L 367.896094 -161.120082 
L 367.896094 -161.814056 
L 367.896094 -162.508031 
L 367.896094 -163.202006 
L 367.896094 -163.895981 
L 367.896094 -164.589955 
L 367.896094 -165.28393 
L 367.896094 -165.977905 
L 367.896094 -166.67188 
L 367.896094 -167.365855 
L 367.896094 -168.059829 
L 367.896094 -168.753804 
L 367.896094 -169.447779 
L 367.896094 -170.141754 
L 367.896094 -170.835728 
L 367.896094 -171.529703 
L 367.896094 -172.223678 
L 367.896094 -172.917653 
L 367.896094 -173.611627 
L 367.896094 -174.305602 
L 367.896094 -174.999577 
L 367.896094 -175.693552 
L 367.896094 -176.387527 
L 367.896094 -177.081501 
L 367.896094 -177.775476 
L 367.896094 -178.469451 
L 367.896094 -179.163426 
L 367.896094 -179.8574 
L 367.896094 -180.551375 
L 367.896094 -181.24535 
L 367.896094 -181.939325 
L 367.896094 -182.6333 
L 367.896094 -183.327274 
L 367.896094 -184.021249 
L 367.896094 -184.715224 
L 367.896094 -185.409199 
L 367.896094 -186.103173 
L 367.896094 -186.797148 
L 367.896094 -187.491123 
L 367.896094 -188.185098 
L 367.896094 -188.879073 
L 367.896094 -189.573047 
L 367.896094 -190.267022 
L 367.896094 -190.960997 
L 367.896094 -191.654972 
L 367.896094 -192.348946 
L 367.896094 -193.042921 
L 367.896094 -193.736896 
L 367.896094 -194.430871 
L 367.896094 -195.124846 
L 367.896094 -195.81882 
L 367.896094 -196.512795 
L 367.896094 -197.20677 
L 367.896094 -197.900745 
L 367.896094 -198.594719 
L 367.896094 -199.288694 
L 367.896094 -199.982669 
L 367.896094 -200.676644 
L 367.896094 -201.370619 
L 367.896094 -202.064593 
L 367.896094 -202.758568 
L 367.896094 -203.452543 
L 367.896094 -204.146518 
L 367.896094 -204.840492 
L 367.896094 -205.534467 
L 367.896094 -206.228442 
L 367.896094 -206.922417 
L 367.896094 -207.616391 
L 367.896094 -208.310366 
L 367.896094 -209.004341 
L 367.896094 -209.698316 
L 367.896094 -210.392291 
L 367.896094 -211.086265 
L 367.896094 -211.78024 
L 367.896094 -212.474215 
L 367.896094 -213.16819 
L 367.896094 -213.862164 
L 367.896094 -214.556139 
L 367.896094 -215.250114 
L 367.896094 -215.944089 
L 367.896094 -216.638064 
L 367.896094 -217.332038 
L 367.896094 -218.026013 
L 367.896094 -218.719988 
L 367.896094 -219.413963 
L 367.896094 -220.107937 
L 367.896094 -220.801912 
L 367.896094 -221.495887 
L 367.896094 -222.189862 
L 367.896094 -222.883837 
L 367.896094 -223.577811 
L 367.896094 -224.271786 
L 367.896094 -224.965761 
L 367.896094 -225.659736 
L 367.896094 -226.35371 
L 367.896094 -227.047685 
L 367.896094 -227.74166 
L 367.896094 -228.435635 
L 367.896094 -229.12961 
L 367.896094 -229.823584 
L 367.896094 -230.517559 
L 367.896094 -231.211534 
L 367.896094 -231.905509 
L 367.896094 -232.599483 
L 367.896094 -233.293458 
L 367.896094 -233.987433 
L 367.896094 -234.681408 
L 367.896094 -235.375383 
L 367.896094 -236.069357 
L 367.896094 -236.763332 
L 367.896094 -237.457307 
L 367.896094 -238.151282 
L 367.896094 -238.845256 
L 367.896094 -239.539231 
L 367.896094 -240.233206 
L 367.896094 -240.927181 
L 367.896094 -241.621156 
L 367.896094 -242.31513 
L 367.896094 -243.009105 
L 367.896094 -243.70308 
L 367.896094 -244.397055 
L 367.896094 -245.091029 
L 367.896094 -245.785004 
L 367.896094 -246.478979 
L 367.896094 -247.172954 
L 367.896094 -247.866928 
L 367.896094 -248.560903 
L 367.896094 -249.254878 
L 367.896094 -249.948853 
L 367.896094 -250.642828 
L 367.896094 -251.336802 
L 367.896094 -252.030777 
L 367.896094 -252.724752 
L 367.896094 -253.418727 
L 367.896094 -254.112701 
L 367.896094 -254.806676 
L 367.896094 -255.500651 
L 367.896094 -256.194626 
L 367.896094 -256.888601 
L 367.896094 -257.582575 
L 367.896094 -258.27655 
L 367.896094 -258.970525 
L 367.896094 -259.6645 
L 367.896094 -260.358474 
L 367.896094 -261.052449 
L 367.896094 -261.746424 
L 367.896094 -262.440399 
L 367.896094 -263.134374 
L 367.896094 -263.828348 
L 367.896094 -264.522323 
L 367.896094 -265.216298 
L 367.896094 -265.910273 
L 367.896094 -266.604247 
L 367.896094 -267.298222 
L 367.896094 -267.992197 
L 367.896094 -268.686172 
L 367.896094 -269.380147 
L 367.896094 -270.074121 
L 367.896094 -270.768096 
L 367.896094 -271.462071 
L 367.896094 -272.156046 
L 367.896094 -272.85002 
L 367.896094 -273.543995 
L 367.896094 -274.23797 
L 367.896094 -274.931945 
L 367.896094 -275.62592 
L 367.896094 -276.319894 
L 367.896094 -277.013869 
L 367.896094 -277.707844 
L 367.896094 -278.401819 
L 367.896094 -279.095793 
L 367.896094 -279.789768 
L 367.896094 -280.483743 
L 367.896094 -281.177718 
L 367.896094 -281.871692 
L 367.896094 -282.565667 
L 367.896094 -283.259642 
L 367.896094 -283.953617 
L 367.896094 -284.647592 
L 367.896094 -285.341566 
L 367.896094 -286.035541 
L 367.896094 -286.729516 
L 367.896094 -287.423491 
L 367.896094 -288.117465 
L 367.896094 -288.81144 
L 367.896094 -289.505415 
L 367.896094 -290.19939 
L 367.896094 -290.893365 
L 367.896094 -291.587339 
L 367.896094 -292.281314 
L 367.896094 -292.975289 
L 367.896094 -293.669264 
L 367.896094 -294.363238 
L 367.896094 -295.057213 
L 367.896094 -295.751188 
L 367.896094 -296.445163 
L 367.896094 -297.139138 
L 367.896094 -297.833112 
L 367.896094 -298.527087 
L 367.896094 -299.221062 
L 367.896094 -299.915037 
L 367.896094 -300.609011 
L 367.896094 -301.302986 
L 367.896094 -301.996961 
L 367.896094 -302.690936 
L 367.896094 -303.384911 
L 367.896094 -304.078885 
L 367.896094 -304.77286 
L 367.896094 -305.466835 
L 367.896094 -306.16081 
L 367.896094 -306.854784 
L 367.896094 -307.548759 
L 367.896094 -308.242734 
L 367.896094 -308.936709 
L 367.896094 -309.630684 
L 367.896094 -310.324658 
L 367.896094 -311.018633 
L 367.896094 -311.712608 
L 367.896094 -312.406583 
L 367.896094 -313.100557 
L 367.896094 -313.794532 
L 367.896094 -314.488507 
L 367.896094 -315.182482 
L 367.896094 -315.876456 
L 367.896094 -316.570431 
L 367.896094 -317.264406 
L 367.896094 -317.958381 
L 367.896094 -318.652356 
L 367.896094 -319.34633 
L 367.896094 -320.040305 
L 367.896094 -320.73428 
L 367.896094 -321.428255 
L 367.896094 -322.122229 
L 367.896094 -322.816204 
L 367.896094 -323.510179 
L 367.896094 -324.204154 
L 367.896094 -324.898129 
L 367.896094 -325.592103 
L 367.896094 -326.286078 
L 367.896094 -326.980053 
L 367.896094 -327.674028 
L 367.896094 -328.368002 
L 367.896094 -329.061977 
L 367.896094 -329.755952 
L 367.896094 -330.449927 
L 367.896094 -331.143902 
L 367.896094 -331.837876 
L 367.896094 -332.531851 
L 367.896094 -333.225826 
L 367.896094 -333.919801 
L 367.896094 -334.613775 
L 367.896094 -335.30775 
L 367.896094 -336.001725 
L 367.896094 -336.6957 
L 367.896094 -337.389675 
L 367.896094 -338.083649 
L 367.896094 -338.777624 
L 367.896094 -339.471599 
L 367.896094 -340.165574 
L 367.896094 -340.859548 
L 367.896094 -341.553523 
L 367.896094 -342.247498 
L 367.896094 -342.941473 
L 367.896094 -343.635448 
L 367.896094 -344.329422 
L 367.896094 -345.023397 
L 367.896094 -345.717372 
L 367.896094 -346.411347 
L 367.896094 -347.105321 
L 367.896094 -347.799296 
L 367.896094 -348.493271 
L 367.896094 -349.187246 
L 367.896094 -349.88122 
L 367.896094 -350.575195 
L 367.896094 -351.26917 
L 367.896094 -351.963145 
L 367.896094 -352.65712 
L 367.896094 -353.351094 
L 367.896094 -354.045069 
L 367.896094 -354.739044 
L 367.896094 -355.433019 
L 367.896094 -356.126993 
L 367.896094 -356.820968 
L 367.896094 -357.514943 
L 367.896094 -358.208918 
L 367.896094 -358.902893 
L 367.896094 -359.596867 
L 367.896094 -360.290842 
L 367.896094 -360.984817 
L 367.896094 -361.678792 
L 367.896094 -362.372766 
L 367.896094 -363.066741 
L 367.896094 -363.760716 
L 367.896094 -364.454691 
L 367.896094 -365.148666 
L 367.896094 -365.84264 
L 367.896094 -366.536615 
L 367.896094 -367.23059 
L 367.896094 -367.924565 
L 367.896094 -368.618539 
L 367.896094 -369.312514 
L 367.896094 -370.006489 
L 367.896094 -370.700464 
L 367.896094 -371.394439 
L 367.896094 -372.088413 
L 367.896094 -372.782388 
L 367.896094 -373.476363 
L 367.896094 -374.170338 
L 367.896094 -374.864312 
L 367.896094 -375.558287 
L 367.896094 -376.252262 
L 367.896094 -376.946237 
L 367.896094 -377.640212 
L 367.896094 -378.334186 
L 367.896094 -379.028161 
L 367.896094 -379.722136 
L 367.896094 -380.416111 
L 367.896094 -381.110085 
L 367.896094 -381.80406 
L 367.896094 -382.498035 
L 367.896094 -383.19201 
L 367.896094 -383.885984 
L 367.896094 -384.579959 
L 367.896094 -385.273934 
L 367.896094 -385.967909 
L 367.896094 -386.661884 
L 367.896094 -387.355858 
L 367.896094 -388.049833 
L 367.896094 -388.743808 
L 367.896094 -389.437783 
L 367.896094 -390.131757 
L 367.896094 -390.825732 
L 367.896094 -391.519707 
L 367.896094 -392.213682 
L 367.896094 -392.907657 
L 367.896094 -393.601631 
L 367.896094 -394.295606 
L 367.896094 -394.989581 
L 367.896094 -395.683556 
L 367.896094 -396.37753 
L 367.896094 -397.071505 
L 367.896094 -397.76548 
L 367.896094 -398.459455 
L 367.896094 -399.15343 
L 367.896094 -399.847404 
L 367.896094 -400.541379 
L 367.896094 -401.235354 
L 367.896094 -401.929329 
L 367.896094 -402.623303 
L 367.896094 -403.317278 
L 367.896094 -404.011253 
L 367.896094 -404.705228 
L 367.896094 -405.399203 
L 367.896094 -406.093177 
L 367.896094 -406.787152 
L 367.896094 -407.481127 
L 367.896094 -408.175102 
L 367.896094 -408.869076 
L 367.896094 -409.563051 
L 367.896094 -410.257026 
L 367.896094 -410.951001 
L 367.896094 -411.644976 
L 367.896094 -412.33895 
L 367.896094 -413.032925 
L 367.896094 -413.7269 
L 367.896094 -414.420875 
L 367.896094 -415.114849 
L 367.896094 -415.808824 
L 367.896094 -416.502799 
L 367.896094 -417.196774 
L 367.896094 -417.890749 
L 367.896094 -418.584723 
L 367.896094 -419.278698 
L 367.896094 -419.972673 
L 367.896094 -420.666648 
L 367.896094 -421.360622 
L 367.896094 -422.054597 
L 367.896094 -422.748572 
L 367.896094 -423.442547 
L 367.896094 -424.136521 
L 367.896094 -424.830496 
L 367.896094 -425.524471 
L 367.896094 -426.218446 
L 367.896094 -426.912421 
L 367.896094 -427.606395 
L 367.896094 -428.30037 
L 367.896094 -428.994345 
L 367.896094 -429.68832 
L 367.896094 -430.382294 
L 367.896094 -431.076269 
L 367.896094 -431.770244 
L 367.896094 -432.464219 
L 367.896094 -433.158194 
L 367.896094 -433.852168 
L 367.896094 -434.546143 
L 367.896094 -435.240118 
L 367.896094 -435.934093 
L 367.896094 -436.628067 
L 367.896094 -437.322042 
L 367.896094 -438.016017 
L 367.896094 -438.709992 
L 367.896094 -439.403967 
L 367.896094 -440.097941 
L 367.896094 -440.791916 
L 367.896094 -441.485891 
L 367.896094 -442.179866 
L 367.896094 -442.87384 
L 367.896094 -443.567815 
L 367.896094 -444.26179 
L 367.896094 -444.955765 
L 367.896094 -445.64974 
L 367.896094 -446.343714 
L 367.896094 -447.037689 
L 367.896094 -447.731664 
L 367.896094 -448.425639 
L 367.896094 -449.119613 
L 367.896094 -449.813588 
L 367.896094 -450.507563 
L 367.896094 -451.201538 
L 367.896094 -451.895513 
L 367.896094 -452.589487 
L 367.896094 -453.283462 
L 367.896094 -453.977437 
L 367.896094 -454.671412 
L 367.896094 -455.365386 
L 367.896094 -456.059361 
L 367.896094 -456.753336 
L 367.896094 -457.447311 
L 367.896094 -458.141285 
L 367.896094 -458.83526 
L 367.896094 -459.529235 
L 367.896094 -460.22321 
L 367.896094 -460.917185 
L 367.896094 -461.611159 
L 367.896094 -462.305134 
L 367.896094 -462.999109 
L 367.896094 -463.693084 
L 367.896094 -464.387058 
L 367.896094 -465.081033 
L 367.896094 -465.775008 
L 367.896094 -466.468983 
L 367.896094 -467.162958 
L 367.896094 -467.856932 
L 367.896094 -468.550907 
L 367.896094 -469.244882 
L 367.896094 -469.938857 
L 367.896094 -470.632831 
L 367.896094 -471.326806 
L 367.896094 -472.020781 
L 367.896094 -472.714756 
L 367.896094 -473.408731 
L 367.896094 -474.102705 
L 367.896094 -474.79668 
L 367.896094 -475.490655 
L 367.896094 -476.18463 
L 367.896094 -476.878604 
L 367.896094 -477.572579 
L 367.896094 -478.266554 
L 367.896094 -478.960529 
L 367.896094 -479.654504 
L 367.896094 -480.348478 
L 367.896094 -481.042453 
L 367.896094 -481.736428 
L 367.896094 -482.430403 
L 367.896094 -483.124377 
L 367.896094 -483.818352 
L 367.896094 -484.512327 
L 367.896094 -485.206302 
L 367.896094 -485.900277 
L 367.896094 -486.594251 
L 367.896094 -487.288226 
L 367.896094 -487.982201 
L 367.896094 -488.676176 
L 367.896094 -489.37015 
L 367.896094 -490.064125 
L 367.896094 -490.7581 
L 367.896094 -491.452075 
L 367.896094 -492.146049 
L 367.896094 -492.840024 
L 367.896094 -493.533999 
L 367.896094 -494.227974 
L 367.896094 -494.921949 
L 367.896094 -495.615923 
L 367.896094 -496.309898 
L 367.896094 -497.003873 
L 367.896094 -497.697848 
L 367.896094 -498.391822 
L 367.896094 -499.085797 
L 367.896094 -499.779772 
L 367.896094 -500.473747 
L 367.896094 -501.167722 
L 367.896094 -501.861696 
L 367.896094 -502.555671 
L 367.896094 -503.249646 
L 367.896094 -503.943621 
L 367.896094 -504.637595 
L 367.896094 -505.33157 
L 367.896094 -506.025545 
L 367.896094 -506.71952 
L 367.896094 -507.413495 
L 367.896094 -508.107469 
L 367.896094 -508.801444 
L 367.896094 -509.495419 
L 367.896094 -510.189394 
L 367.896094 -510.883368 
L 367.896094 -511.577343 
L 367.896094 -512.271318 
L 367.896094 -512.965293 
L 367.896094 -513.659268 
L 367.896094 -514.353242 
L 367.896094 -515.047217 
L 367.896094 -515.741192 
L 367.896094 -516.435167 
L 367.896094 -517.129141 
L 367.896094 -517.823116 
L 367.896094 -518.517091 
L 367.896094 -519.211066 
L 367.896094 -519.905041 
L 367.896094 -520.599015 
L 367.896094 -521.29299 
L 367.896094 -521.986965 
L 367.896094 -522.68094 
L 367.896094 -523.374914 
L 367.896094 -524.068889 
L 367.896094 -524.762864 
L 367.896094 -525.456839 
L 367.896094 -526.150813 
L 367.896094 -526.844788 
L 367.896094 -527.538763 
L 367.896094 -528.232738 
L 367.896094 -528.926713 
L 367.896094 -529.620687 
L 367.896094 -530.314662 
L 367.896094 -531.008637 
L 367.896094 -531.702612 
L 367.896094 -532.396586 
L 367.896094 -533.090561 
L 367.896094 -533.784536 
L 367.896094 -534.478511 
L 367.896094 -535.172486 
L 367.896094 -535.86646 
L 367.896094 -536.560435 
L 367.896094 -537.25441 
L 545.201733 -537.25441 
L 545.201733 -537.25441 
L 545.184256 -536.560435 
L 545.141785 -535.86646 
L 545.129484 -535.172486 
L 545.11077 -534.478511 
L 545.040215 -533.784536 
L 544.980634 -533.090561 
L 544.978879 -532.396586 
L 544.930594 -531.702612 
L 544.908418 -531.008637 
L 544.88854 -530.314662 
L 544.868831 -529.620687 
L 544.846525 -528.926713 
L 544.764789 -528.232738 
L 544.668366 -527.538763 
L 544.620499 -526.844788 
L 544.601667 -526.150813 
L 544.513355 -525.456839 
L 544.477325 -524.762864 
L 544.427398 -524.068889 
L 544.422403 -523.374914 
L 544.330617 -522.68094 
L 544.30313 -521.986965 
L 544.274012 -521.29299 
L 544.238174 -520.599015 
L 544.221244 -519.905041 
L 544.156139 -519.211066 
L 544.140276 -518.517091 
L 544.136889 -517.823116 
L 544.1158 -517.129141 
L 544.103724 -516.435167 
L 544.074161 -515.741192 
L 544.031849 -515.047217 
L 544.009027 -514.353242 
L 544.007519 -513.659268 
L 544.00425 -512.965293 
L 543.969377 -512.271318 
L 543.939225 -511.577343 
L 543.914902 -510.883368 
L 543.903485 -510.189394 
L 543.898765 -509.495419 
L 543.887086 -508.801444 
L 543.882546 -508.107469 
L 543.856765 -507.413495 
L 543.834885 -506.71952 
L 543.833363 -506.025545 
L 543.815203 -505.33157 
L 543.810981 -504.637595 
L 543.809133 -503.943621 
L 543.808004 -503.249646 
L 543.806358 -502.555671 
L 543.79367 -501.861696 
L 543.787507 -501.167722 
L 543.786324 -500.473747 
L 543.784747 -499.779772 
L 543.778414 -499.085797 
L 543.742805 -498.391822 
L 543.737755 -497.697848 
L 543.716911 -497.003873 
L 543.715712 -496.309898 
L 543.715712 -495.615923 
L 543.713814 -494.921949 
L 543.711954 -494.227974 
L 543.706139 -493.533999 
L 543.705595 -492.840024 
L 543.686519 -492.146049 
L 543.682225 -491.452075 
L 543.671772 -490.7581 
L 543.660101 -490.064125 
L 543.659166 -489.37015 
L 543.636945 -488.676176 
L 543.611539 -487.982201 
L 543.609811 -487.288226 
L 543.581621 -486.594251 
L 543.577262 -485.900277 
L 543.569029 -485.206302 
L 543.568369 -484.512327 
L 543.546219 -483.818352 
L 543.542059 -483.124377 
L 543.536398 -482.430403 
L 543.53186 -481.736428 
L 543.528015 -481.042453 
L 543.500452 -480.348478 
L 543.490766 -479.654504 
L 543.488851 -478.960529 
L 543.474372 -478.266554 
L 543.455795 -477.572579 
L 543.437598 -476.878604 
L 543.384268 -476.18463 
L 543.367997 -475.490655 
L 543.332872 -474.79668 
L 543.323064 -474.102705 
L 543.227453 -473.408731 
L 543.21607 -472.714756 
L 543.207081 -472.020781 
L 543.159583 -471.326806 
L 543.154703 -470.632831 
L 543.146803 -469.938857 
L 543.106694 -469.244882 
L 543.100277 -468.550907 
L 543.085702 -467.856932 
L 543.085243 -467.162958 
L 543.070766 -466.468983 
L 543.066127 -465.775008 
L 543.047649 -465.081033 
L 543.031118 -464.387058 
L 543.007326 -463.693084 
L 542.990762 -462.999109 
L 542.962783 -462.305134 
L 542.92875 -461.611159 
L 542.92465 -460.917185 
L 542.891038 -460.22321 
L 542.865579 -459.529235 
L 542.813934 -458.83526 
L 542.809862 -458.141285 
L 542.803498 -457.447311 
L 542.733071 -456.753336 
L 542.729991 -456.059361 
L 542.717625 -455.365386 
L 542.707778 -454.671412 
L 542.703291 -453.977437 
L 542.703012 -453.283462 
L 542.661675 -452.589487 
L 542.654862 -451.895513 
L 542.638301 -451.201538 
L 542.635035 -450.507563 
L 542.611179 -449.813588 
L 542.583147 -449.119613 
L 542.574098 -448.425639 
L 542.558111 -447.731664 
L 542.498123 -447.037689 
L 542.471603 -446.343714 
L 542.377215 -445.64974 
L 542.253505 -444.955765 
L 542.244368 -444.26179 
L 542.220131 -443.567815 
L 542.196072 -442.87384 
L 542.177996 -442.179866 
L 542.144231 -441.485891 
L 542.117352 -440.791916 
L 542.062664 -440.097941 
L 542.041458 -439.403967 
L 542.032831 -438.709992 
L 542.027015 -438.016017 
L 542.006032 -437.322042 
L 541.97014 -436.628067 
L 541.922438 -435.934093 
L 541.880452 -435.240118 
L 541.860771 -434.546143 
L 541.856052 -433.852168 
L 541.828003 -433.158194 
L 541.799882 -432.464219 
L 541.789421 -431.770244 
L 541.782528 -431.076269 
L 541.778394 -430.382294 
L 541.744949 -429.68832 
L 541.741161 -428.994345 
L 541.721313 -428.30037 
L 541.718605 -427.606395 
L 541.682445 -426.912421 
L 541.646796 -426.218446 
L 541.621185 -425.524471 
L 541.590492 -424.830496 
L 541.511475 -424.136521 
L 541.510093 -423.442547 
L 541.50899 -422.748572 
L 541.454097 -422.054597 
L 541.410009 -421.360622 
L 541.366124 -420.666648 
L 541.34918 -419.972673 
L 541.325422 -419.278698 
L 541.313152 -418.584723 
L 541.288037 -417.890749 
L 541.252388 -417.196774 
L 541.247387 -416.502799 
L 541.232011 -415.808824 
L 541.199694 -415.114849 
L 541.199466 -414.420875 
L 541.000246 -413.7269 
L 541.000073 -413.032925 
L 540.975449 -412.33895 
L 540.913167 -411.644976 
L 540.908367 -410.951001 
L 540.884186 -410.257026 
L 540.867207 -409.563051 
L 540.847076 -408.869076 
L 540.83862 -408.175102 
L 540.828683 -407.481127 
L 540.799841 -406.787152 
L 540.753621 -406.093177 
L 540.744187 -405.399203 
L 540.718672 -404.705228 
L 540.708747 -404.011253 
L 540.689013 -403.317278 
L 540.654932 -402.623303 
L 540.647627 -401.929329 
L 540.59363 -401.235354 
L 540.579241 -400.541379 
L 540.504258 -399.847404 
L 540.44799 -399.15343 
L 540.434519 -398.459455 
L 540.208716 -397.76548 
L 540.168744 -397.071505 
L 540.088434 -396.37753 
L 540.035244 -395.683556 
L 540.013991 -394.989581 
L 539.997527 -394.295606 
L 539.962708 -393.601631 
L 539.953544 -392.907657 
L 539.946787 -392.213682 
L 539.891052 -391.519707 
L 539.882408 -390.825732 
L 539.813573 -390.131757 
L 539.780048 -389.437783 
L 539.751953 -388.743808 
L 539.696883 -388.049833 
L 539.625336 -387.355858 
L 539.569141 -386.661884 
L 539.513527 -385.967909 
L 539.500557 -385.273934 
L 539.486924 -384.579959 
L 539.454892 -383.885984 
L 539.317081 -383.19201 
L 539.302041 -382.498035 
L 539.288462 -381.80406 
L 539.190412 -381.110085 
L 539.141419 -380.416111 
L 539.113709 -379.722136 
L 539.097717 -379.028161 
L 539.076369 -378.334186 
L 539.069702 -377.640212 
L 538.983419 -376.946237 
L 538.883737 -376.252262 
L 538.879216 -375.558287 
L 538.816039 -374.864312 
L 538.652932 -374.170338 
L 538.591054 -373.476363 
L 538.498725 -372.782388 
L 538.458453 -372.088413 
L 538.430971 -371.394439 
L 538.310375 -370.700464 
L 538.273772 -370.006489 
L 538.172912 -369.312514 
L 538.136331 -368.618539 
L 538.089601 -367.924565 
L 538.067839 -367.23059 
L 537.972279 -366.536615 
L 537.971865 -365.84264 
L 537.957728 -365.148666 
L 537.947596 -364.454691 
L 537.946843 -363.760716 
L 537.928573 -363.066741 
L 537.921139 -362.372766 
L 537.889026 -361.678792 
L 537.769309 -360.984817 
L 537.752307 -360.290842 
L 537.688058 -359.596867 
L 537.507429 -358.902893 
L 537.505445 -358.208918 
L 537.48355 -357.514943 
L 537.476062 -356.820968 
L 537.449576 -356.126993 
L 537.375395 -355.433019 
L 537.371038 -354.739044 
L 537.330146 -354.045069 
L 537.325995 -353.351094 
L 537.310303 -352.65712 
L 537.239935 -351.963145 
L 537.207827 -351.26917 
L 537.130383 -350.575195 
L 537.096946 -349.88122 
L 537.050679 -349.187246 
L 536.973892 -348.493271 
L 536.875 -347.799296 
L 536.800276 -347.105321 
L 536.701578 -346.411347 
L 536.664907 -345.717372 
L 536.6212 -345.023397 
L 536.610514 -344.329422 
L 536.548286 -343.635448 
L 536.511679 -342.941473 
L 536.449631 -342.247498 
L 536.209532 -341.553523 
L 536.207731 -340.859548 
L 536.195135 -340.165574 
L 536.177547 -339.471599 
L 536.016275 -338.777624 
L 536.001129 -338.083649 
L 535.990501 -337.389675 
L 535.979455 -336.6957 
L 535.973489 -336.001725 
L 535.957116 -335.30775 
L 535.954141 -334.613775 
L 535.940215 -333.919801 
L 535.93446 -333.225826 
L 535.93212 -332.531851 
L 535.92493 -331.837876 
L 535.803976 -331.143902 
L 535.758317 -330.449927 
L 535.751095 -329.755952 
L 535.745386 -329.061977 
L 535.7342 -328.368002 
L 535.622854 -327.674028 
L 535.555652 -326.980053 
L 535.550906 -326.286078 
L 535.537521 -325.592103 
L 535.495228 -324.898129 
L 535.416551 -324.204154 
L 535.361892 -323.510179 
L 535.292193 -322.816204 
L 535.266554 -322.122229 
L 535.196419 -321.428255 
L 535.120204 -320.73428 
L 535.078618 -320.040305 
L 535.032967 -319.34633 
L 535.026476 -318.652356 
L 535.014843 -317.958381 
L 534.736703 -317.264406 
L 534.711719 -316.570431 
L 534.672141 -315.876456 
L 534.632493 -315.182482 
L 534.57188 -314.488507 
L 534.478933 -313.794532 
L 534.265083 -313.100557 
L 534.227564 -312.406583 
L 534.026711 -311.712608 
L 533.981487 -311.018633 
L 533.979811 -310.324658 
L 533.932391 -309.630684 
L 533.907362 -308.936709 
L 533.841842 -308.242734 
L 533.766512 -307.548759 
L 533.740881 -306.854784 
L 533.658924 -306.16081 
L 533.436328 -305.466835 
L 533.213245 -304.77286 
L 533.082141 -304.078885 
L 533.081629 -303.384911 
L 532.922126 -302.690936 
L 532.834313 -301.996961 
L 532.786923 -301.302986 
L 532.751764 -300.609011 
L 532.372597 -299.915037 
L 532.291126 -299.221062 
L 532.231805 -298.527087 
L 532.185912 -297.833112 
L 532.151919 -297.139138 
L 532.066466 -296.445163 
L 531.828206 -295.751188 
L 531.708522 -295.057213 
L 531.614959 -294.363238 
L 531.458102 -293.669264 
L 531.398286 -292.975289 
L 531.296691 -292.281314 
L 531.288947 -291.587339 
L 531.277523 -290.893365 
L 531.154716 -290.19939 
L 531.141665 -289.505415 
L 531.110794 -288.81144 
L 531.071746 -288.117465 
L 531.071258 -287.423491 
L 530.964363 -286.729516 
L 530.575903 -286.035541 
L 530.464145 -285.341566 
L 530.283529 -284.647592 
L 530.276232 -283.953617 
L 530.243147 -283.259642 
L 529.994455 -282.565667 
L 529.943989 -281.871692 
L 529.91487 -281.177718 
L 529.688851 -280.483743 
L 529.682018 -279.789768 
L 529.667826 -279.095793 
L 529.589552 -278.401819 
L 529.287949 -277.707844 
L 529.281772 -277.013869 
L 529.259006 -276.319894 
L 529.118603 -275.62592 
L 529.093718 -274.931945 
L 529.071903 -274.23797 
L 528.9474 -273.543995 
L 528.833794 -272.85002 
L 528.699805 -272.156046 
L 528.017086 -271.462071 
L 527.955405 -270.768096 
L 527.920149 -270.074121 
L 527.839516 -269.380147 
L 527.67279 -268.686172 
L 527.576318 -267.992197 
L 527.339508 -267.298222 
L 527.174405 -266.604247 
L 527.032316 -265.910273 
L 526.920747 -265.216298 
L 526.693664 -264.522323 
L 526.604939 -263.828348 
L 526.407634 -263.134374 
L 526.399736 -262.440399 
L 526.393693 -261.746424 
L 526.347292 -261.052449 
L 526.298324 -260.358474 
L 526.200964 -259.6645 
L 525.508143 -258.970525 
L 525.502642 -258.27655 
L 525.50008 -257.582575 
L 525.455625 -256.888601 
L 525.356137 -256.194626 
L 525.246819 -255.500651 
L 525.197452 -254.806676 
L 524.676391 -254.112701 
L 524.67289 -253.418727 
L 524.658093 -252.724752 
L 524.622983 -252.030777 
L 524.609886 -251.336802 
L 524.371063 -250.642828 
L 524.158122 -249.948853 
L 523.898397 -249.254878 
L 523.794167 -248.560903 
L 523.633854 -247.866928 
L 523.511931 -247.172954 
L 523.405628 -246.478979 
L 523.215834 -245.785004 
L 522.864772 -245.091029 
L 522.86377 -244.397055 
L 522.530399 -243.70308 
L 522.099403 -243.009105 
L 521.484527 -242.31513 
L 521.329332 -241.621156 
L 521.247255 -240.927181 
L 521.070345 -240.233206 
L 520.663843 -239.539231 
L 520.650912 -238.845256 
L 520.383613 -238.151282 
L 520.305036 -237.457307 
L 520.278673 -236.763332 
L 519.986963 -236.069357 
L 519.890051 -235.375383 
L 519.775752 -234.681408 
L 519.715262 -233.987433 
L 519.711259 -233.293458 
L 519.709387 -232.599483 
L 519.215963 -231.905509 
L 518.811516 -231.211534 
L 518.090207 -230.517559 
L 517.846943 -229.823584 
L 517.476521 -229.12961 
L 517.140964 -228.435635 
L 516.932891 -227.74166 
L 516.850164 -227.047685 
L 516.406495 -226.35371 
L 516.052877 -225.659736 
L 515.637297 -224.965761 
L 515.634735 -224.271786 
L 515.415119 -223.577811 
L 515.005349 -222.883837 
L 514.956441 -222.189862 
L 514.562296 -221.495887 
L 514.025121 -220.801912 
L 514.001129 -220.107937 
L 513.852992 -219.413963 
L 512.509041 -218.719988 
L 512.35361 -218.026013 
L 512.340403 -217.332038 
L 512.325527 -216.638064 
L 511.686234 -215.944089 
L 511.503116 -215.250114 
L 510.133044 -214.556139 
L 509.7537 -213.862164 
L 509.646533 -213.16819 
L 509.572004 -212.474215 
L 508.347663 -211.78024 
L 506.935124 -211.086265 
L 506.388665 -210.392291 
L 505.155516 -209.698316 
L 504.437579 -209.004341 
L 500.64055 -208.310366 
L 500.195917 -207.616391 
L 499.214309 -206.922417 
L 497.54723 -206.228442 
L 496.799394 -205.534467 
L 492.49343 -204.840492 
L 492.472366 -204.146518 
L 492.414039 -203.452543 
L 492.307765 -202.758568 
L 491.513314 -202.064593 
L 491.298916 -201.370619 
L 491.235042 -200.676644 
L 490.513252 -199.982669 
L 490.140225 -199.288694 
L 490.038317 -198.594719 
L 489.279064 -197.900745 
L 489.029193 -197.20677 
L 488.959012 -196.512795 
L 488.253984 -195.81882 
L 488.246014 -195.124846 
L 488.112091 -194.430871 
L 487.779089 -193.736896 
L 487.49021 -193.042921 
L 486.86072 -192.348946 
L 486.680285 -191.654972 
L 486.50319 -190.960997 
L 486.446734 -190.267022 
L 485.900223 -189.573047 
L 485.796687 -188.879073 
L 485.717551 -188.185098 
L 484.714033 -187.491123 
L 484.597393 -186.797148 
L 484.502388 -186.103173 
L 484.296965 -185.409199 
L 484.127639 -184.715224 
L 483.766958 -184.021249 
L 483.757554 -183.327274 
L 483.460001 -182.6333 
L 483.247272 -181.939325 
L 483.136754 -181.24535 
L 482.819342 -180.551375 
L 482.783172 -179.8574 
L 482.559329 -179.163426 
L 482.09527 -178.469451 
L 482.048488 -177.775476 
L 482.014316 -177.081501 
L 481.940656 -176.387527 
L 481.833756 -175.693552 
L 481.80669 -174.999577 
L 481.788237 -174.305602 
L 481.728153 -173.611627 
L 481.489157 -172.917653 
L 481.374221 -172.223678 
L 481.327276 -171.529703 
L 481.267491 -170.835728 
L 480.958631 -170.141754 
L 480.807548 -169.447779 
L 480.790979 -168.753804 
L 480.71995 -168.059829 
L 480.453797 -167.365855 
L 480.367711 -166.67188 
L 480.362363 -165.977905 
L 480.241225 -165.28393 
L 480.052686 -164.589955 
L 479.938622 -163.895981 
L 479.823967 -163.202006 
L 479.762398 -162.508031 
L 479.727309 -161.814056 
L 479.379631 -161.120082 
L 479.218654 -160.426107 
L 478.979265 -159.732132 
L 478.936177 -159.038157 
L 478.564019 -158.344182 
L 478.484094 -157.650208 
L 478.28917 -156.956233 
L 478.27368 -156.262258 
L 478.216366 -155.568283 
L 478.153702 -154.874309 
L 477.778227 -154.180334 
L 477.765656 -153.486359 
L 477.588296 -152.792384 
L 477.555417 -152.098409 
L 477.398869 -151.404435 
L 477.364689 -150.71046 
L 477.251731 -150.016485 
L 477.236837 -149.32251 
L 477.159996 -148.628536 
L 477.069029 -147.934561 
L 477.012621 -147.240586 
L 476.993696 -146.546611 
L 476.94931 -145.852636 
L 476.742359 -145.158662 
L 476.622217 -144.464687 
L 476.372737 -143.770712 
L 476.252214 -143.076737 
L 476.212367 -142.382763 
L 476.211446 -141.688788 
L 476.026041 -140.994813 
L 475.823784 -140.300838 
L 475.505425 -139.606863 
L 475.432486 -138.912889 
L 475.41427 -138.218914 
L 475.381195 -137.524939 
L 475.171205 -136.830964 
L 474.802457 -136.13699 
L 474.719612 -135.443015 
L 474.711065 -134.74904 
L 474.322327 -134.055065 
L 474.246468 -133.361091 
L 473.958682 -132.667116 
L 473.843106 -131.973141 
L 473.581329 -131.279166 
L 472.977534 -130.585191 
L 472.84763 -129.891217 
L 472.519868 -129.197242 
L 471.58961 -128.503267 
L 470.961948 -127.809292 
L 470.952412 -127.115318 
L 470.949143 -126.421343 
L 470.926895 -125.727368 
L 470.920897 -125.033393 
L 470.79445 -124.339418 
L 470.72064 -123.645444 
L 470.606264 -122.951469 
L 470.547051 -122.257494 
L 470.222315 -121.563519 
L 469.780079 -120.869545 
L 469.355838 -120.17557 
L 469.105634 -119.481595 
L 469.095755 -118.78762 
L 468.600644 -118.093645 
L 468.538117 -117.399671 
L 468.149326 -116.705696 
L 468.13252 -116.011721 
L 468.103127 -115.317746 
L 467.712607 -114.623772 
L 467.430878 -113.929797 
L 467.411484 -113.235822 
L 466.359136 -112.541847 
L 466.272831 -111.847872 
L 466.130962 -111.153898 
L 466.01798 -110.459923 
L 465.958841 -109.765948 
L 465.238026 -109.071973 
L 464.879622 -108.377999 
L 464.609263 -107.684024 
L 464.488379 -106.990049 
L 464.486103 -106.296074 
L 463.214885 -105.602099 
L 460.375321 -104.908125 
L 460.23903 -104.21415 
L 460.198246 -103.520175 
L 460.004513 -102.8262 
L 459.680882 -102.132226 
L 459.516141 -101.438251 
L 459.476769 -100.744276 
L 459.1381 -100.050301 
L 459.130106 -99.356327 
L 458.581422 -98.662352 
L 458.403158 -97.968377 
L 458.25347 -97.274402 
L 457.966648 -96.580427 
L 455.372751 -95.886453 
L 454.946186 -95.192478 
L 454.054757 -94.498503 
L 453.915583 -93.804528 
L 453.902351 -93.110554 
L 453.050859 -92.416579 
L 452.083632 -91.722604 
L 451.950015 -91.028629 
L 450.591358 -90.334654 
L 450.37472 -89.64068 
L 449.119601 -88.946705 
L 448.008793 -88.25273 
L 447.309544 -87.558755 
L 445.097047 -86.864781 
L 444.880661 -86.170806 
L 443.489992 -85.476831 
L 443.458376 -84.782856 
L 440.537223 -84.088881 
L 439.593109 -83.394907 
L 437.650502 -82.700932 
L 434.75789 -82.006957 
L 433.861622 -81.312982 
L 427.384669 -80.619008 
L 426.557587 -79.925033 
L 422.939751 -79.231058 
L 421.645176 -78.537083 
L 421.321451 -77.843108 
L 421.269725 -77.149134 
L 418.020714 -76.455159 
L 416.476183 -75.761184 
L 415.47293 -75.067209 
L 407.530888 -74.373235 
L 404.799355 -73.67926 
L 403.586766 -72.985285 
L 392.776636 -72.29131 
z
" style="stroke: #000000; stroke-opacity: 0.7"/>
    </defs>
    <g clip-path="url(#pbbfd24e20b)">
     <use xlink:href="#md4188ed894" x="0" y="576" style="fill-opacity: 0.7; stroke: #000000; stroke-opacity: 0.7"/>
    </g>
   </g>
   <g id="PolyCollection_2">
    <defs>
     <path id="m7fb05a0ea3" d="M 367.896094 -544.888132 
L 367.896094 -544.888132 
L 367.896094 -544.888132 
L 367.896094 -544.888132 
z
" style="stroke: #00bc00; stroke-opacity: 0.7"/>
    </defs>
    <g clip-path="url(#pbbfd24e20b)">
     <use xlink:href="#m7fb05a0ea3" x="0" y="576" style="fill: #00bc00; fill-opacity: 0.7; stroke: #00bc00; stroke-opacity: 0.7"/>
    </g>
   </g>
   <g id="matplotlib.axis_1">
    <g id="xtick_1">
     <g id="line2d_1">
      <defs>
       <path id="m92619652b9" d="M 0 0 
L 0 3.5 
" style="stroke: #000000; stroke-width: 0.8"/>
      </defs>
      <g>
       <use xlink:href="#m92619652b9" x="42.495313" y="510.648438" style="stroke: #000000; stroke-width: 0.8"/>
      </g>
     </g>
     <g id="text_1">
      <!-- −1.0 -->
      <g transform="translate(18.2125 532.845312) scale(0.2 -0.2)">
       <defs>
        <path id="DejaVuSans-2212" d="M 678 2272 
L 4684 2272 
L 4684 1741 
L 678 1741 
L 678 2272 
z
" transform="scale(0.015625)"/>
        <path id="DejaVuSans-31" d="M 794 531 
L 1825 531 
L 1825 4091 
L 703 3866 
L 703 4441 
L 1819 4666 
L 2450 4666 
L 2450 531 
L 3481 531 
L 3481 0 
L 794 0 
L 794 531 
z
" transform="scale(0.015625)"/>
        <path id="DejaVuSans-2e" d="M 684 794 
L 1344 794 
L 1344 0 
L 684 0 
L 684 794 
z
" transform="scale(0.015625)"/>
        <path id="DejaVuSans-30" d="M 2034 4250 
Q 1547 4250 1301 3770 
Q 1056 3291 1056 2328 
Q 1056 1369 1301 889 
Q 1547 409 2034 409 
Q 2525 409 2770 889 
Q 3016 1369 3016 2328 
Q 3016 3291 2770 3770 
Q 2525 4250 2034 4250 
z
M 2034 4750 
Q 2819 4750 3233 4129 
Q 3647 3509 3647 2328 
Q 3647 1150 3233 529 
Q 2819 -91 2034 -91 
Q 1250 -91 836 529 
Q 422 1150 422 2328 
Q 422 3509 836 4129 
Q 1250 4750 2034 4750 
z
" transform="scale(0.015625)"/>
       </defs>
       <use xlink:href="#DejaVuSans-2212"/>
       <use xlink:href="#DejaVuSans-31" x="83.789062"/>
       <use xlink:href="#DejaVuSans-2e" x="147.412109"/>
       <use xlink:href="#DejaVuSans-30" x="179.199219"/>
      </g>
     </g>
    </g>
    <g id="xtick_2">
     <g id="line2d_2">
      <g>
       <use xlink:href="#m92619652b9" x="107.575469" y="510.648438" style="stroke: #000000; stroke-width: 0.8"/>
      </g>
     </g>
     <g id="text_2">
      <!-- −0.8 -->
      <g transform="translate(83.292656 532.845312) scale(0.2 -0.2)">
       <defs>
        <path id="DejaVuSans-38" d="M 2034 2216 
Q 1584 2216 1326 1975 
Q 1069 1734 1069 1313 
Q 1069 891 1326 650 
Q 1584 409 2034 409 
Q 2484 409 2743 651 
Q 3003 894 3003 1313 
Q 3003 1734 2745 1975 
Q 2488 2216 2034 2216 
z
M 1403 2484 
Q 997 2584 770 2862 
Q 544 3141 544 3541 
Q 544 4100 942 4425 
Q 1341 4750 2034 4750 
Q 2731 4750 3128 4425 
Q 3525 4100 3525 3541 
Q 3525 3141 3298 2862 
Q 3072 2584 2669 2484 
Q 3125 2378 3379 2068 
Q 3634 1759 3634 1313 
Q 3634 634 3220 271 
Q 2806 -91 2034 -91 
Q 1263 -91 848 271 
Q 434 634 434 1313 
Q 434 1759 690 2068 
Q 947 2378 1403 2484 
z
M 1172 3481 
Q 1172 3119 1398 2916 
Q 1625 2713 2034 2713 
Q 2441 2713 2670 2916 
Q 2900 3119 2900 3481 
Q 2900 3844 2670 4047 
Q 2441 4250 2034 4250 
Q 1625 4250 1398 4047 
Q 1172 3844 1172 3481 
z
" transform="scale(0.015625)"/>
       </defs>
       <use xlink:href="#DejaVuSans-2212"/>
       <use xlink:href="#DejaVuSans-30" x="83.789062"/>
       <use xlink:href="#DejaVuSans-2e" x="147.412109"/>
       <use xlink:href="#DejaVuSans-38" x="179.199219"/>
      </g>
     </g>
    </g>
    <g id="xtick_3">
     <g id="line2d_3">
      <g>
       <use xlink:href="#m92619652b9" x="172.655625" y="510.648438" style="stroke: #000000; stroke-width: 0.8"/>
      </g>
     </g>
     <g id="text_3">
      <!-- −0.6 -->
      <g transform="translate(148.372813 532.845312) scale(0.2 -0.2)">
       <defs>
        <path id="DejaVuSans-36" d="M 2113 2584 
Q 1688 2584 1439 2293 
Q 1191 2003 1191 1497 
Q 1191 994 1439 701 
Q 1688 409 2113 409 
Q 2538 409 2786 701 
Q 3034 994 3034 1497 
Q 3034 2003 2786 2293 
Q 2538 2584 2113 2584 
z
M 3366 4563 
L 3366 3988 
Q 3128 4100 2886 4159 
Q 2644 4219 2406 4219 
Q 1781 4219 1451 3797 
Q 1122 3375 1075 2522 
Q 1259 2794 1537 2939 
Q 1816 3084 2150 3084 
Q 2853 3084 3261 2657 
Q 3669 2231 3669 1497 
Q 3669 778 3244 343 
Q 2819 -91 2113 -91 
Q 1303 -91 875 529 
Q 447 1150 447 2328 
Q 447 3434 972 4092 
Q 1497 4750 2381 4750 
Q 2619 4750 2861 4703 
Q 3103 4656 3366 4563 
z
" transform="scale(0.015625)"/>
       </defs>
       <use xlink:href="#DejaVuSans-2212"/>
       <use xlink:href="#DejaVuSans-30" x="83.789062"/>
       <use xlink:href="#DejaVuSans-2e" x="147.412109"/>
       <use xlink:href="#DejaVuSans-36" x="179.199219"/>
      </g>
     </g>
    </g>
    <g id="xtick_4">
     <g id="line2d_4">
      <g>
       <use xlink:href="#m92619652b9" x="237.735781" y="510.648438" style="stroke: #000000; stroke-width: 0.8"/>
      </g>
     </g>
     <g id="text_4">
      <!-- −0.4 -->
      <g transform="translate(213.452969 532.845312) scale(0.2 -0.2)">
       <defs>
        <path id="DejaVuSans-34" d="M 2419 4116 
L 825 1625 
L 2419 1625 
L 2419 4116 
z
M 2253 4666 
L 3047 4666 
L 3047 1625 
L 3713 1625 
L 3713 1100 
L 3047 1100 
L 3047 0 
L 2419 0 
L 2419 1100 
L 313 1100 
L 313 1709 
L 2253 4666 
z
" transform="scale(0.015625)"/>
       </defs>
       <use xlink:href="#DejaVuSans-2212"/>
       <use xlink:href="#DejaVuSans-30" x="83.789062"/>
       <use xlink:href="#DejaVuSans-2e" x="147.412109"/>
       <use xlink:href="#DejaVuSans-34" x="179.199219"/>
      </g>
     </g>
    </g>
    <g id="xtick_5">
     <g id="line2d_5">
      <g>
       <use xlink:href="#m92619652b9" x="302.815937" y="510.648438" style="stroke: #000000; stroke-width: 0.8"/>
      </g>
     </g>
     <g id="text_5">
      <!-- −0.2 -->
      <g transform="translate(278.533125 532.845312) scale(0.2 -0.2)">
       <defs>
        <path id="DejaVuSans-32" d="M 1228 531 
L 3431 531 
L 3431 0 
L 469 0 
L 469 531 
Q 828 903 1448 1529 
Q 2069 2156 2228 2338 
Q 2531 2678 2651 2914 
Q 2772 3150 2772 3378 
Q 2772 3750 2511 3984 
Q 2250 4219 1831 4219 
Q 1534 4219 1204 4116 
Q 875 4013 500 3803 
L 500 4441 
Q 881 4594 1212 4672 
Q 1544 4750 1819 4750 
Q 2544 4750 2975 4387 
Q 3406 4025 3406 3419 
Q 3406 3131 3298 2873 
Q 3191 2616 2906 2266 
Q 2828 2175 2409 1742 
Q 1991 1309 1228 531 
z
" transform="scale(0.015625)"/>
       </defs>
       <use xlink:href="#DejaVuSans-2212"/>
       <use xlink:href="#DejaVuSans-30" x="83.789062"/>
       <use xlink:href="#DejaVuSans-2e" x="147.412109"/>
       <use xlink:href="#DejaVuSans-32" x="179.199219"/>
      </g>
     </g>
    </g>
    <g id="xtick_6">
     <g id="line2d_6">
      <g>
       <use xlink:href="#m92619652b9" x="367.896094" y="510.648438" style="stroke: #000000; stroke-width: 0.8"/>
      </g>
     </g>
     <g id="text_6">
      <!-- 0.0 -->
      <g transform="translate(351.992969 532.845312) scale(0.2 -0.2)">
       <use xlink:href="#DejaVuSans-30"/>
       <use xlink:href="#DejaVuSans-2e" x="63.623047"/>
       <use xlink:href="#DejaVuSans-30" x="95.410156"/>
      </g>
     </g>
    </g>
    <g id="xtick_7">
     <g id="line2d_7">
      <g>
       <use xlink:href="#m92619652b9" x="432.97625" y="510.648438" style="stroke: #000000; stroke-width: 0.8"/>
      </g>
     </g>
     <g id="text_7">
      <!-- 0.2 -->
      <g transform="translate(417.073125 532.845312) scale(0.2 -0.2)">
       <use xlink:href="#DejaVuSans-30"/>
       <use xlink:href="#DejaVuSans-2e" x="63.623047"/>
       <use xlink:href="#DejaVuSans-32" x="95.410156"/>
      </g>
     </g>
    </g>
    <g id="xtick_8">
     <g id="line2d_8">
      <g>
       <use xlink:href="#m92619652b9" x="498.056406" y="510.648438" style="stroke: #000000; stroke-width: 0.8"/>
      </g>
     </g>
     <g id="text_8">
      <!-- 0.4 -->
      <g transform="translate(482.153281 532.845312) scale(0.2 -0.2)">
       <use xlink:href="#DejaVuSans-30"/>
       <use xlink:href="#DejaVuSans-2e" x="63.623047"/>
       <use xlink:href="#DejaVuSans-34" x="95.410156"/>
      </g>
     </g>
    </g>
    <g id="xtick_9">
     <g id="line2d_9">
      <g>
       <use xlink:href="#m92619652b9" x="563.136562" y="510.648438" style="stroke: #000000; stroke-width: 0.8"/>
      </g>
     </g>
     <g id="text_9">
      <!-- 0.6 -->
      <g transform="translate(547.233437 532.845312) scale(0.2 -0.2)">
       <use xlink:href="#DejaVuSans-30"/>
       <use xlink:href="#DejaVuSans-2e" x="63.623047"/>
       <use xlink:href="#DejaVuSans-36" x="95.410156"/>
      </g>
     </g>
    </g>
    <g id="xtick_10">
     <g id="line2d_10">
      <g>
       <use xlink:href="#m92619652b9" x="628.216719" y="510.648438" style="stroke: #000000; stroke-width: 0.8"/>
      </g>
     </g>
     <g id="text_10">
      <!-- 0.8 -->
      <g transform="translate(612.313594 532.845312) scale(0.2 -0.2)">
       <use xlink:href="#DejaVuSans-30"/>
       <use xlink:href="#DejaVuSans-2e" x="63.623047"/>
       <use xlink:href="#DejaVuSans-38" x="95.410156"/>
      </g>
     </g>
    </g>
    <g id="xtick_11">
     <g id="line2d_11">
      <g>
       <use xlink:href="#m92619652b9" x="693.296875" y="510.648438" style="stroke: #000000; stroke-width: 0.8"/>
      </g>
     </g>
     <g id="text_11">
      <!-- 1.0 -->
      <g transform="translate(677.39375 532.845312) scale(0.2 -0.2)">
       <use xlink:href="#DejaVuSans-31"/>
       <use xlink:href="#DejaVuSans-2e" x="63.623047"/>
       <use xlink:href="#DejaVuSans-30" x="95.410156"/>
      </g>
     </g>
    </g>
    <g id="text_12">
     <!-- Silhouette coefficient -->
     <g transform="translate(235.021094 560.000781) scale(0.25 -0.25)">
      <defs>
       <path id="DejaVuSans-53" d="M 3425 4513 
L 3425 3897 
Q 3066 4069 2747 4153 
Q 2428 4238 2131 4238 
Q 1616 4238 1336 4038 
Q 1056 3838 1056 3469 
Q 1056 3159 1242 3001 
Q 1428 2844 1947 2747 
L 2328 2669 
Q 3034 2534 3370 2195 
Q 3706 1856 3706 1288 
Q 3706 609 3251 259 
Q 2797 -91 1919 -91 
Q 1588 -91 1214 -16 
Q 841 59 441 206 
L 441 856 
Q 825 641 1194 531 
Q 1563 422 1919 422 
Q 2459 422 2753 634 
Q 3047 847 3047 1241 
Q 3047 1584 2836 1778 
Q 2625 1972 2144 2069 
L 1759 2144 
Q 1053 2284 737 2584 
Q 422 2884 422 3419 
Q 422 4038 858 4394 
Q 1294 4750 2059 4750 
Q 2388 4750 2728 4690 
Q 3069 4631 3425 4513 
z
" transform="scale(0.015625)"/>
       <path id="DejaVuSans-69" d="M 603 3500 
L 1178 3500 
L 1178 0 
L 603 0 
L 603 3500 
z
M 603 4863 
L 1178 4863 
L 1178 4134 
L 603 4134 
L 603 4863 
z
" transform="scale(0.015625)"/>
       <path id="DejaVuSans-6c" d="M 603 4863 
L 1178 4863 
L 1178 0 
L 603 0 
L 603 4863 
z
" transform="scale(0.015625)"/>
       <path id="DejaVuSans-68" d="M 3513 2113 
L 3513 0 
L 2938 0 
L 2938 2094 
Q 2938 2591 2744 2837 
Q 2550 3084 2163 3084 
Q 1697 3084 1428 2787 
Q 1159 2491 1159 1978 
L 1159 0 
L 581 0 
L 581 4863 
L 1159 4863 
L 1159 2956 
Q 1366 3272 1645 3428 
Q 1925 3584 2291 3584 
Q 2894 3584 3203 3211 
Q 3513 2838 3513 2113 
z
" transform="scale(0.015625)"/>
       <path id="DejaVuSans-6f" d="M 1959 3097 
Q 1497 3097 1228 2736 
Q 959 2375 959 1747 
Q 959 1119 1226 758 
Q 1494 397 1959 397 
Q 2419 397 2687 759 
Q 2956 1122 2956 1747 
Q 2956 2369 2687 2733 
Q 2419 3097 1959 3097 
z
M 1959 3584 
Q 2709 3584 3137 3096 
Q 3566 2609 3566 1747 
Q 3566 888 3137 398 
Q 2709 -91 1959 -91 
Q 1206 -91 779 398 
Q 353 888 353 1747 
Q 353 2609 779 3096 
Q 1206 3584 1959 3584 
z
" transform="scale(0.015625)"/>
       <path id="DejaVuSans-75" d="M 544 1381 
L 544 3500 
L 1119 3500 
L 1119 1403 
Q 1119 906 1312 657 
Q 1506 409 1894 409 
Q 2359 409 2629 706 
Q 2900 1003 2900 1516 
L 2900 3500 
L 3475 3500 
L 3475 0 
L 2900 0 
L 2900 538 
Q 2691 219 2414 64 
Q 2138 -91 1772 -91 
Q 1169 -91 856 284 
Q 544 659 544 1381 
z
M 1991 3584 
L 1991 3584 
z
" transform="scale(0.015625)"/>
       <path id="DejaVuSans-65" d="M 3597 1894 
L 3597 1613 
L 953 1613 
Q 991 1019 1311 708 
Q 1631 397 2203 397 
Q 2534 397 2845 478 
Q 3156 559 3463 722 
L 3463 178 
Q 3153 47 2828 -22 
Q 2503 -91 2169 -91 
Q 1331 -91 842 396 
Q 353 884 353 1716 
Q 353 2575 817 3079 
Q 1281 3584 2069 3584 
Q 2775 3584 3186 3129 
Q 3597 2675 3597 1894 
z
M 3022 2063 
Q 3016 2534 2758 2815 
Q 2500 3097 2075 3097 
Q 1594 3097 1305 2825 
Q 1016 2553 972 2059 
L 3022 2063 
z
" transform="scale(0.015625)"/>
       <path id="DejaVuSans-74" d="M 1172 4494 
L 1172 3500 
L 2356 3500 
L 2356 3053 
L 1172 3053 
L 1172 1153 
Q 1172 725 1289 603 
Q 1406 481 1766 481 
L 2356 481 
L 2356 0 
L 1766 0 
Q 1100 0 847 248 
Q 594 497 594 1153 
L 594 3053 
L 172 3053 
L 172 3500 
L 594 3500 
L 594 4494 
L 1172 4494 
z
" transform="scale(0.015625)"/>
       <path id="DejaVuSans-20" transform="scale(0.015625)"/>
       <path id="DejaVuSans-63" d="M 3122 3366 
L 3122 2828 
Q 2878 2963 2633 3030 
Q 2388 3097 2138 3097 
Q 1578 3097 1268 2742 
Q 959 2388 959 1747 
Q 959 1106 1268 751 
Q 1578 397 2138 397 
Q 2388 397 2633 464 
Q 2878 531 3122 666 
L 3122 134 
Q 2881 22 2623 -34 
Q 2366 -91 2075 -91 
Q 1284 -91 818 406 
Q 353 903 353 1747 
Q 353 2603 823 3093 
Q 1294 3584 2113 3584 
Q 2378 3584 2631 3529 
Q 2884 3475 3122 3366 
z
" transform="scale(0.015625)"/>
       <path id="DejaVuSans-66" d="M 2375 4863 
L 2375 4384 
L 1825 4384 
Q 1516 4384 1395 4259 
Q 1275 4134 1275 3809 
L 1275 3500 
L 2222 3500 
L 2222 3053 
L 1275 3053 
L 1275 0 
L 697 0 
L 697 3053 
L 147 3053 
L 147 3500 
L 697 3500 
L 697 3744 
Q 697 4328 969 4595 
Q 1241 4863 1831 4863 
L 2375 4863 
z
" transform="scale(0.015625)"/>
       <path id="DejaVuSans-6e" d="M 3513 2113 
L 3513 0 
L 2938 0 
L 2938 2094 
Q 2938 2591 2744 2837 
Q 2550 3084 2163 3084 
Q 1697 3084 1428 2787 
Q 1159 2491 1159 1978 
L 1159 0 
L 581 0 
L 581 3500 
L 1159 3500 
L 1159 2956 
Q 1366 3272 1645 3428 
Q 1925 3584 2291 3584 
Q 2894 3584 3203 3211 
Q 3513 2838 3513 2113 
z
" transform="scale(0.015625)"/>
      </defs>
      <use xlink:href="#DejaVuSans-53"/>
      <use xlink:href="#DejaVuSans-69" x="63.476562"/>
      <use xlink:href="#DejaVuSans-6c" x="91.259766"/>
      <use xlink:href="#DejaVuSans-68" x="119.042969"/>
      <use xlink:href="#DejaVuSans-6f" x="182.421875"/>
      <use xlink:href="#DejaVuSans-75" x="243.603516"/>
      <use xlink:href="#DejaVuSans-65" x="306.982422"/>
      <use xlink:href="#DejaVuSans-74" x="368.505859"/>
      <use xlink:href="#DejaVuSans-74" x="407.714844"/>
      <use xlink:href="#DejaVuSans-65" x="446.923828"/>
      <use xlink:href="#DejaVuSans-20" x="508.447266"/>
      <use xlink:href="#DejaVuSans-63" x="540.234375"/>
      <use xlink:href="#DejaVuSans-6f" x="595.214844"/>
      <use xlink:href="#DejaVuSans-65" x="656.396484"/>
      <use xlink:href="#DejaVuSans-66" x="717.919922"/>
      <use xlink:href="#DejaVuSans-66" x="753.125"/>
      <use xlink:href="#DejaVuSans-69" x="788.330078"/>
      <use xlink:href="#DejaVuSans-63" x="816.113281"/>
      <use xlink:href="#DejaVuSans-69" x="871.09375"/>
      <use xlink:href="#DejaVuSans-65" x="898.876953"/>
      <use xlink:href="#DejaVuSans-6e" x="960.400391"/>
      <use xlink:href="#DejaVuSans-74" x="1023.779297"/>
     </g>
    </g>
   </g>
   <g id="matplotlib.axis_2">
    <g id="text_13">
     <!-- Predicted label -->
     <g transform="translate(29.796094 359.944151) rotate(-90) scale(0.25 -0.25)">
      <defs>
       <path id="DejaVuSans-50" d="M 1259 4147 
L 1259 2394 
L 2053 2394 
Q 2494 2394 2734 2622 
Q 2975 2850 2975 3272 
Q 2975 3691 2734 3919 
Q 2494 4147 2053 4147 
L 1259 4147 
z
M 628 4666 
L 2053 4666 
Q 2838 4666 3239 4311 
Q 3641 3956 3641 3272 
Q 3641 2581 3239 2228 
Q 2838 1875 2053 1875 
L 1259 1875 
L 1259 0 
L 628 0 
L 628 4666 
z
" transform="scale(0.015625)"/>
       <path id="DejaVuSans-72" d="M 2631 2963 
Q 2534 3019 2420 3045 
Q 2306 3072 2169 3072 
Q 1681 3072 1420 2755 
Q 1159 2438 1159 1844 
L 1159 0 
L 581 0 
L 581 3500 
L 1159 3500 
L 1159 2956 
Q 1341 3275 1631 3429 
Q 1922 3584 2338 3584 
Q 2397 3584 2469 3576 
Q 2541 3569 2628 3553 
L 2631 2963 
z
" transform="scale(0.015625)"/>
       <path id="DejaVuSans-64" d="M 2906 2969 
L 2906 4863 
L 3481 4863 
L 3481 0 
L 2906 0 
L 2906 525 
Q 2725 213 2448 61 
Q 2172 -91 1784 -91 
Q 1150 -91 751 415 
Q 353 922 353 1747 
Q 353 2572 751 3078 
Q 1150 3584 1784 3584 
Q 2172 3584 2448 3432 
Q 2725 3281 2906 2969 
z
M 947 1747 
Q 947 1113 1208 752 
Q 1469 391 1925 391 
Q 2381 391 2643 752 
Q 2906 1113 2906 1747 
Q 2906 2381 2643 2742 
Q 2381 3103 1925 3103 
Q 1469 3103 1208 2742 
Q 947 2381 947 1747 
z
" transform="scale(0.015625)"/>
       <path id="DejaVuSans-61" d="M 2194 1759 
Q 1497 1759 1228 1600 
Q 959 1441 959 1056 
Q 959 750 1161 570 
Q 1363 391 1709 391 
Q 2188 391 2477 730 
Q 2766 1069 2766 1631 
L 2766 1759 
L 2194 1759 
z
M 3341 1997 
L 3341 0 
L 2766 0 
L 2766 531 
Q 2569 213 2275 61 
Q 1981 -91 1556 -91 
Q 1019 -91 701 211 
Q 384 513 384 1019 
Q 384 1609 779 1909 
Q 1175 2209 1959 2209 
L 2766 2209 
L 2766 2266 
Q 2766 2663 2505 2880 
Q 2244 3097 1772 3097 
Q 1472 3097 1187 3025 
Q 903 2953 641 2809 
L 641 3341 
Q 956 3463 1253 3523 
Q 1550 3584 1831 3584 
Q 2591 3584 2966 3190 
Q 3341 2797 3341 1997 
z
" transform="scale(0.015625)"/>
       <path id="DejaVuSans-62" d="M 3116 1747 
Q 3116 2381 2855 2742 
Q 2594 3103 2138 3103 
Q 1681 3103 1420 2742 
Q 1159 2381 1159 1747 
Q 1159 1113 1420 752 
Q 1681 391 2138 391 
Q 2594 391 2855 752 
Q 3116 1113 3116 1747 
z
M 1159 2969 
Q 1341 3281 1617 3432 
Q 1894 3584 2278 3584 
Q 2916 3584 3314 3078 
Q 3713 2572 3713 1747 
Q 3713 922 3314 415 
Q 2916 -91 2278 -91 
Q 1894 -91 1617 61 
Q 1341 213 1159 525 
L 1159 0 
L 581 0 
L 581 4863 
L 1159 4863 
L 1159 2969 
z
" transform="scale(0.015625)"/>
      </defs>
      <use xlink:href="#DejaVuSans-50"/>
      <use xlink:href="#DejaVuSans-72" x="58.552734"/>
      <use xlink:href="#DejaVuSans-65" x="97.416016"/>
      <use xlink:href="#DejaVuSans-64" x="158.939453"/>
      <use xlink:href="#DejaVuSans-69" x="222.416016"/>
      <use xlink:href="#DejaVuSans-63" x="250.199219"/>
      <use xlink:href="#DejaVuSans-74" x="305.179688"/>
      <use xlink:href="#DejaVuSans-65" x="344.388672"/>
      <use xlink:href="#DejaVuSans-64" x="405.912109"/>
      <use xlink:href="#DejaVuSans-20" x="469.388672"/>
      <use xlink:href="#DejaVuSans-6c" x="501.175781"/>
      <use xlink:href="#DejaVuSans-61" x="528.958984"/>
      <use xlink:href="#DejaVuSans-62" x="590.238281"/>
      <use xlink:href="#DejaVuSans-65" x="653.714844"/>
      <use xlink:href="#DejaVuSans-6c" x="715.238281"/>
     </g>
    </g>
   </g>
   <g id="line2d_12">
    <path d="M 516.105655 510.648438 
L 516.105655 23.478145 
" clip-path="url(#pbbfd24e20b)" style="fill: none; stroke: #ff0000; stroke-width: 4; stroke-linecap: square"/>
   </g>
   <g id="patch_3">
    <path d="M 42.495313 510.648438 
L 42.495313 23.478145 
" style="fill: none; stroke: #000000; stroke-width: 0.8; stroke-linejoin: miter; stroke-linecap: square"/>
   </g>
   <g id="patch_4">
    <path d="M 693.296875 510.648438 
L 693.296875 23.478145 
" style="fill: none; stroke: #000000; stroke-width: 0.8; stroke-linejoin: miter; stroke-linecap: square"/>
   </g>
   <g id="patch_5">
    <path d="M 42.495313 510.648438 
L 693.296875 510.648438 
" style="fill: none; stroke: #000000; stroke-width: 0.8; stroke-linejoin: miter; stroke-linecap: square"/>
   </g>
   <g id="patch_6">
    <path d="M 42.495313 23.478145 
L 693.296875 23.478145 
" style="fill: none; stroke: #000000; stroke-width: 0.8; stroke-linejoin: miter; stroke-linecap: square"/>
   </g>
   <g id="text_14">
    <!-- 0 -->
    <g transform="translate(351.626055 270.880153) scale(0.25 -0.25)">
     <use xlink:href="#DejaVuSans-30"/>
    </g>
   </g>
   <g id="text_15">
    <!-- 1 -->
    <g transform="translate(351.626055 30.76488) scale(0.25 -0.25)">
     <use xlink:href="#DejaVuSans-31"/>
    </g>
   </g>
   <g id="text_16">
    <!-- 0.4555 -->
    <g style="fill: #ff0000" transform="translate(532.375695 30.417893) scale(0.25 -0.25)">
     <defs>
      <path id="DejaVuSans-35" d="M 691 4666 
L 3169 4666 
L 3169 4134 
L 1269 4134 
L 1269 2991 
Q 1406 3038 1543 3061 
Q 1681 3084 1819 3084 
Q 2600 3084 3056 2656 
Q 3513 2228 3513 1497 
Q 3513 744 3044 326 
Q 2575 -91 1722 -91 
Q 1428 -91 1123 -41 
Q 819 9 494 109 
L 494 744 
Q 775 591 1075 516 
Q 1375 441 1709 441 
Q 2250 441 2565 725 
Q 2881 1009 2881 1497 
Q 2881 1984 2565 2268 
Q 2250 2553 1709 2553 
Q 1456 2553 1204 2497 
Q 953 2441 691 2322 
L 691 4666 
z
" transform="scale(0.015625)"/>
     </defs>
     <use xlink:href="#DejaVuSans-30"/>
     <use xlink:href="#DejaVuSans-2e" x="63.623047"/>
     <use xlink:href="#DejaVuSans-34" x="95.410156"/>
     <use xlink:href="#DejaVuSans-35" x="159.033203"/>
     <use xlink:href="#DejaVuSans-35" x="222.65625"/>
     <use xlink:href="#DejaVuSans-35" x="286.279297"/>
    </g>
   </g>
  </g>
 </g>
 <defs>
  <clipPath id="pbbfd24e20b">
   <rect x="42.495313" y="23.478145" width="650.801562" height="487.170292"/>
  </clipPath>
 </defs>
</svg>
