<?xml version="1.0" encoding="utf-8" standalone="no"?>
<!DOCTYPE svg PUBLIC "-//W3C//DTD SVG 1.1//EN"
  "http://www.w3.org/Graphics/SVG/1.1/DTD/svg11.dtd">
<svg xmlns:xlink="http://www.w3.org/1999/xlink" width="720pt" height="432pt" viewBox="0 0 720 432" xmlns="http://www.w3.org/2000/svg" version="1.1">
 <metadata>
  <rdf:RDF xmlns:dc="http://purl.org/dc/elements/1.1/" xmlns:cc="http://creativecommons.org/ns#" xmlns:rdf="http://www.w3.org/1999/02/22-rdf-syntax-ns#">
   <cc:Work>
    <dc:type rdf:resource="http://purl.org/dc/dcmitype/StillImage"/>
    <dc:date>2022-11-03T14:04:20.752306</dc:date>
    <dc:format>image/svg+xml</dc:format>
    <dc:creator>
     <cc:Agent>
      <dc:title>Matplotlib v3.6.1, https://matplotlib.org/</dc:title>
     </cc:Agent>
    </dc:creator>
   </cc:Work>
  </rdf:RDF>
 </metadata>
 <defs>
  <style type="text/css">*{stroke-linejoin: round; stroke-linecap: butt}</style>
 </defs>
 <g id="figure_1">
  <g id="patch_1">
   <path d="M 0 432 
L 720 432 
L 720 0 
L 0 0 
z
" style="fill: #ffffff"/>
  </g>
  <g id="axes_1">
   <g id="patch_2">
    <path d="M 27.978125 390.84375 
L 701.248437 390.84375 
L 701.248437 13.659976 
L 27.978125 13.659976 
z
" style="fill: #ffffff"/>
   </g>
   <g id="PolyCollection_1">
    <defs>
     <path id="m2f8bb0ff7e" d="M 390.352818 -46.529238 
L 364.613281 -46.529238 
L 364.613281 -47.066537 
L 364.613281 -47.603836 
L 364.613281 -48.141135 
L 364.613281 -48.678434 
L 364.613281 -49.215732 
L 364.613281 -49.753031 
L 364.613281 -50.29033 
L 364.613281 -50.827629 
L 364.613281 -51.364928 
L 364.613281 -51.902226 
L 364.613281 -52.439525 
L 364.613281 -52.976824 
L 364.613281 -53.514123 
L 364.613281 -54.051422 
L 364.613281 -54.588721 
L 364.613281 -55.126019 
L 364.613281 -55.663318 
L 364.613281 -56.200617 
L 364.613281 -56.737916 
L 364.613281 -57.275215 
L 364.613281 -57.812514 
L 364.613281 -58.349812 
L 364.613281 -58.887111 
L 364.613281 -59.42441 
L 364.613281 -59.961709 
L 364.613281 -60.499008 
L 364.613281 -61.036306 
L 364.613281 -61.573605 
L 364.613281 -62.110904 
L 364.613281 -62.648203 
L 364.613281 -63.185502 
L 364.613281 -63.722801 
L 364.613281 -64.260099 
L 364.613281 -64.797398 
L 364.613281 -65.334697 
L 364.613281 -65.871996 
L 364.613281 -66.409295 
L 364.613281 -66.946594 
L 364.613281 -67.483892 
L 364.613281 -68.021191 
L 364.613281 -68.55849 
L 364.613281 -69.095789 
L 364.613281 -69.633088 
L 364.613281 -70.170386 
L 364.613281 -70.707685 
L 364.613281 -71.244984 
L 364.613281 -71.782283 
L 364.613281 -72.319582 
L 364.613281 -72.856881 
L 364.613281 -73.394179 
L 364.613281 -73.931478 
L 364.613281 -74.468777 
L 364.613281 -75.006076 
L 364.613281 -75.543375 
L 364.613281 -76.080674 
L 364.613281 -76.617972 
L 364.613281 -77.155271 
L 364.613281 -77.69257 
L 364.613281 -78.229869 
L 364.613281 -78.767168 
L 364.613281 -79.304466 
L 364.613281 -79.841765 
L 364.613281 -80.379064 
L 364.613281 -80.916363 
L 364.613281 -81.453662 
L 364.613281 -81.990961 
L 364.613281 -82.528259 
L 364.613281 -83.065558 
L 364.613281 -83.602857 
L 364.613281 -84.140156 
L 364.613281 -84.677455 
L 364.613281 -85.214754 
L 364.613281 -85.752052 
L 364.613281 -86.289351 
L 364.613281 -86.82665 
L 364.613281 -87.363949 
L 364.613281 -87.901248 
L 364.613281 -88.438546 
L 364.613281 -88.975845 
L 364.613281 -89.513144 
L 364.613281 -90.050443 
L 364.613281 -90.587742 
L 364.613281 -91.125041 
L 364.613281 -91.662339 
L 364.613281 -92.199638 
L 364.613281 -92.736937 
L 364.613281 -93.274236 
L 364.613281 -93.811535 
L 364.613281 -94.348834 
L 364.613281 -94.886132 
L 364.613281 -95.423431 
L 364.613281 -95.96073 
L 364.613281 -96.498029 
L 364.613281 -97.035328 
L 364.613281 -97.572626 
L 364.613281 -98.109925 
L 364.613281 -98.647224 
L 364.613281 -99.184523 
L 364.613281 -99.721822 
L 364.613281 -100.259121 
L 364.613281 -100.796419 
L 364.613281 -101.333718 
L 364.613281 -101.871017 
L 364.613281 -102.408316 
L 364.613281 -102.945615 
L 364.613281 -103.482914 
L 364.613281 -104.020212 
L 364.613281 -104.557511 
L 364.613281 -105.09481 
L 364.613281 -105.632109 
L 364.613281 -106.169408 
L 364.613281 -106.706706 
L 364.613281 -107.244005 
L 364.613281 -107.781304 
L 364.613281 -108.318603 
L 364.613281 -108.855902 
L 364.613281 -109.393201 
L 364.613281 -109.930499 
L 364.613281 -110.467798 
L 364.613281 -111.005097 
L 364.613281 -111.542396 
L 364.613281 -112.079695 
L 364.613281 -112.616994 
L 364.613281 -113.154292 
L 364.613281 -113.691591 
L 364.613281 -114.22889 
L 364.613281 -114.766189 
L 364.613281 -115.303488 
L 364.613281 -115.840786 
L 364.613281 -116.378085 
L 364.613281 -116.915384 
L 364.613281 -117.452683 
L 364.613281 -117.989982 
L 364.613281 -118.527281 
L 364.613281 -119.064579 
L 364.613281 -119.601878 
L 364.613281 -120.139177 
L 364.613281 -120.676476 
L 364.613281 -121.213775 
L 364.613281 -121.751074 
L 364.613281 -122.288372 
L 364.613281 -122.825671 
L 364.613281 -123.36297 
L 364.613281 -123.900269 
L 364.613281 -124.437568 
L 364.613281 -124.974866 
L 364.613281 -125.512165 
L 364.613281 -126.049464 
L 364.613281 -126.586763 
L 364.613281 -127.124062 
L 364.613281 -127.661361 
L 364.613281 -128.198659 
L 364.613281 -128.735958 
L 364.613281 -129.273257 
L 364.613281 -129.810556 
L 364.613281 -130.347855 
L 364.613281 -130.885154 
L 364.613281 -131.422452 
L 364.613281 -131.959751 
L 364.613281 -132.49705 
L 364.613281 -133.034349 
L 364.613281 -133.571648 
L 364.613281 -134.108946 
L 364.613281 -134.646245 
L 364.613281 -135.183544 
L 364.613281 -135.720843 
L 364.613281 -136.258142 
L 364.613281 -136.795441 
L 364.613281 -137.332739 
L 364.613281 -137.870038 
L 364.613281 -138.407337 
L 364.613281 -138.944636 
L 364.613281 -139.481935 
L 364.613281 -140.019234 
L 364.613281 -140.556532 
L 364.613281 -141.093831 
L 364.613281 -141.63113 
L 364.613281 -142.168429 
L 364.613281 -142.705728 
L 364.613281 -143.243026 
L 364.613281 -143.780325 
L 364.613281 -144.317624 
L 364.613281 -144.854923 
L 364.613281 -145.392222 
L 364.613281 -145.929521 
L 364.613281 -146.466819 
L 364.613281 -147.004118 
L 364.613281 -147.541417 
L 364.613281 -148.078716 
L 364.613281 -148.616015 
L 364.613281 -149.153314 
L 364.613281 -149.690612 
L 364.613281 -150.227911 
L 364.613281 -150.76521 
L 364.613281 -151.302509 
L 364.613281 -151.839808 
L 364.613281 -152.377106 
L 364.613281 -152.914405 
L 364.613281 -153.451704 
L 364.613281 -153.989003 
L 364.613281 -154.526302 
L 364.613281 -155.063601 
L 364.613281 -155.600899 
L 364.613281 -156.138198 
L 364.613281 -156.675497 
L 364.613281 -157.212796 
L 364.613281 -157.750095 
L 364.613281 -158.287394 
L 364.613281 -158.824692 
L 364.613281 -159.361991 
L 364.613281 -159.89929 
L 364.613281 -160.436589 
L 364.613281 -160.973888 
L 364.613281 -161.511186 
L 364.613281 -162.048485 
L 364.613281 -162.585784 
L 364.613281 -163.123083 
L 364.613281 -163.660382 
L 364.613281 -164.197681 
L 364.613281 -164.734979 
L 364.613281 -165.272278 
L 364.613281 -165.809577 
L 364.613281 -166.346876 
L 364.613281 -166.884175 
L 364.613281 -167.421474 
L 364.613281 -167.958772 
L 364.613281 -168.496071 
L 364.613281 -169.03337 
L 364.613281 -169.570669 
L 364.613281 -170.107968 
L 364.613281 -170.645266 
L 364.613281 -171.182565 
L 364.613281 -171.719864 
L 364.613281 -172.257163 
L 364.613281 -172.794462 
L 364.613281 -173.331761 
L 364.613281 -173.869059 
L 364.613281 -174.406358 
L 364.613281 -174.943657 
L 364.613281 -175.480956 
L 364.613281 -176.018255 
L 364.613281 -176.555554 
L 364.613281 -177.092852 
L 364.613281 -177.630151 
L 364.613281 -178.16745 
L 364.613281 -178.704749 
L 364.613281 -179.242048 
L 364.613281 -179.779346 
L 364.613281 -180.316645 
L 364.613281 -180.853944 
L 364.613281 -181.391243 
L 364.613281 -181.928542 
L 364.613281 -182.465841 
L 364.613281 -183.003139 
L 364.613281 -183.540438 
L 364.613281 -184.077737 
L 364.613281 -184.615036 
L 364.613281 -185.152335 
L 364.613281 -185.689633 
L 364.613281 -186.226932 
L 364.613281 -186.764231 
L 364.613281 -187.30153 
L 364.613281 -187.838829 
L 364.613281 -188.376128 
L 364.613281 -188.913426 
L 364.613281 -189.450725 
L 364.613281 -189.988024 
L 364.613281 -190.525323 
L 364.613281 -191.062622 
L 364.613281 -191.599921 
L 364.613281 -192.137219 
L 364.613281 -192.674518 
L 364.613281 -193.211817 
L 364.613281 -193.749116 
L 364.613281 -194.286415 
L 364.613281 -194.823713 
L 364.613281 -195.361012 
L 364.613281 -195.898311 
L 364.613281 -196.43561 
L 364.613281 -196.972909 
L 364.613281 -197.510208 
L 364.613281 -198.047506 
L 364.613281 -198.584805 
L 364.613281 -199.122104 
L 364.613281 -199.659403 
L 364.613281 -200.196702 
L 364.613281 -200.734001 
L 364.613281 -201.271299 
L 364.613281 -201.808598 
L 364.613281 -202.345897 
L 364.613281 -202.883196 
L 364.613281 -203.420495 
L 364.613281 -203.957793 
L 364.613281 -204.495092 
L 364.613281 -205.032391 
L 364.613281 -205.56969 
L 364.613281 -206.106989 
L 364.613281 -206.644288 
L 364.613281 -207.181586 
L 364.613281 -207.718885 
L 364.613281 -208.256184 
L 364.613281 -208.793483 
L 364.613281 -209.330782 
L 364.613281 -209.868081 
L 364.613281 -210.405379 
L 364.613281 -210.942678 
L 364.613281 -211.479977 
L 364.613281 -212.017276 
L 364.613281 -212.554575 
L 364.613281 -213.091873 
L 364.613281 -213.629172 
L 364.613281 -214.166471 
L 364.613281 -214.70377 
L 364.613281 -215.241069 
L 364.613281 -215.778368 
L 364.613281 -216.315666 
L 364.613281 -216.852965 
L 364.613281 -217.390264 
L 364.613281 -217.927563 
L 364.613281 -218.464862 
L 364.613281 -219.002161 
L 364.613281 -219.539459 
L 364.613281 -220.076758 
L 364.613281 -220.614057 
L 364.613281 -221.151356 
L 364.613281 -221.688655 
L 364.613281 -222.225953 
L 364.613281 -222.763252 
L 364.613281 -223.300551 
L 364.613281 -223.83785 
L 364.613281 -224.375149 
L 364.613281 -224.912448 
L 364.613281 -225.449746 
L 364.613281 -225.987045 
L 364.613281 -226.524344 
L 364.613281 -227.061643 
L 364.613281 -227.598942 
L 364.613281 -228.136241 
L 364.613281 -228.673539 
L 364.613281 -229.210838 
L 364.613281 -229.748137 
L 364.613281 -230.285436 
L 364.613281 -230.822735 
L 364.613281 -231.360033 
L 364.613281 -231.897332 
L 364.613281 -232.434631 
L 364.613281 -232.97193 
L 364.613281 -233.509229 
L 364.613281 -234.046528 
L 364.613281 -234.583826 
L 364.613281 -235.121125 
L 364.613281 -235.658424 
L 364.613281 -236.195723 
L 364.613281 -236.733022 
L 364.613281 -237.270321 
L 364.613281 -237.807619 
L 364.613281 -238.344918 
L 364.613281 -238.882217 
L 364.613281 -239.419516 
L 364.613281 -239.956815 
L 364.613281 -240.494113 
L 364.613281 -241.031412 
L 364.613281 -241.568711 
L 364.613281 -242.10601 
L 364.613281 -242.643309 
L 364.613281 -243.180608 
L 364.613281 -243.717906 
L 364.613281 -244.255205 
L 364.613281 -244.792504 
L 364.613281 -245.329803 
L 364.613281 -245.867102 
L 364.613281 -246.404401 
L 364.613281 -246.941699 
L 364.613281 -247.478998 
L 364.613281 -248.016297 
L 364.613281 -248.553596 
L 364.613281 -249.090895 
L 364.613281 -249.628193 
L 364.613281 -250.165492 
L 364.613281 -250.702791 
L 364.613281 -251.24009 
L 364.613281 -251.777389 
L 364.613281 -252.314688 
L 364.613281 -252.851986 
L 364.613281 -253.389285 
L 364.613281 -253.926584 
L 364.613281 -254.463883 
L 364.613281 -255.001182 
L 364.613281 -255.538481 
L 364.613281 -256.075779 
L 364.613281 -256.613078 
L 364.613281 -257.150377 
L 364.613281 -257.687676 
L 364.613281 -258.224975 
L 364.613281 -258.762273 
L 364.613281 -259.299572 
L 364.613281 -259.836871 
L 364.613281 -260.37417 
L 364.613281 -260.911469 
L 364.613281 -261.448768 
L 364.613281 -261.986066 
L 364.613281 -262.523365 
L 364.613281 -263.060664 
L 364.613281 -263.597963 
L 364.613281 -264.135262 
L 364.613281 -264.672561 
L 364.613281 -265.209859 
L 364.613281 -265.747158 
L 364.613281 -266.284457 
L 364.613281 -266.821756 
L 364.613281 -267.359055 
L 364.613281 -267.896353 
L 364.613281 -268.433652 
L 364.613281 -268.970951 
L 364.613281 -269.50825 
L 364.613281 -270.045549 
L 364.613281 -270.582848 
L 364.613281 -271.120146 
L 364.613281 -271.657445 
L 364.613281 -272.194744 
L 364.613281 -272.732043 
L 364.613281 -273.269342 
L 364.613281 -273.806641 
L 364.613281 -274.343939 
L 364.613281 -274.881238 
L 364.613281 -275.418537 
L 364.613281 -275.955836 
L 364.613281 -276.493135 
L 364.613281 -277.030433 
L 364.613281 -277.567732 
L 364.613281 -278.105031 
L 364.613281 -278.64233 
L 364.613281 -279.179629 
L 364.613281 -279.716928 
L 364.613281 -280.254226 
L 364.613281 -280.791525 
L 364.613281 -281.328824 
L 364.613281 -281.866123 
L 364.613281 -282.403422 
L 364.613281 -282.940721 
L 364.613281 -283.478019 
L 364.613281 -284.015318 
L 364.613281 -284.552617 
L 364.613281 -285.089916 
L 364.613281 -285.627215 
L 364.613281 -286.164513 
L 364.613281 -286.701812 
L 364.613281 -287.239111 
L 364.613281 -287.77641 
L 364.613281 -288.313709 
L 364.613281 -288.851008 
L 364.613281 -289.388306 
L 364.613281 -289.925605 
L 364.613281 -290.462904 
L 364.613281 -291.000203 
L 364.613281 -291.537502 
L 364.613281 -292.074801 
L 364.613281 -292.612099 
L 364.613281 -293.149398 
L 364.613281 -293.686697 
L 364.613281 -294.223996 
L 364.613281 -294.761295 
L 364.613281 -295.298593 
L 364.613281 -295.835892 
L 364.613281 -296.373191 
L 364.613281 -296.91049 
L 364.613281 -297.447789 
L 364.613281 -297.985088 
L 364.613281 -298.522386 
L 364.613281 -299.059685 
L 364.613281 -299.596984 
L 364.613281 -300.134283 
L 364.613281 -300.671582 
L 364.613281 -301.208881 
L 364.613281 -301.746179 
L 364.613281 -302.283478 
L 364.613281 -302.820777 
L 364.613281 -303.358076 
L 364.613281 -303.895375 
L 364.613281 -304.432673 
L 364.613281 -304.969972 
L 364.613281 -305.507271 
L 364.613281 -306.04457 
L 364.613281 -306.581869 
L 364.613281 -307.119168 
L 364.613281 -307.656466 
L 364.613281 -308.193765 
L 364.613281 -308.731064 
L 364.613281 -309.268363 
L 364.613281 -309.805662 
L 364.613281 -310.342961 
L 364.613281 -310.880259 
L 364.613281 -311.417558 
L 364.613281 -311.954857 
L 364.613281 -312.492156 
L 364.613281 -313.029455 
L 364.613281 -313.566753 
L 364.613281 -314.104052 
L 364.613281 -314.641351 
L 364.613281 -315.17865 
L 364.613281 -315.715949 
L 364.613281 -316.253248 
L 364.613281 -316.790546 
L 364.613281 -317.327845 
L 364.613281 -317.865144 
L 364.613281 -318.402443 
L 364.613281 -318.939742 
L 364.613281 -319.477041 
L 364.613281 -320.014339 
L 364.613281 -320.551638 
L 364.613281 -321.088937 
L 364.613281 -321.626236 
L 364.613281 -322.163535 
L 364.613281 -322.700833 
L 364.613281 -323.238132 
L 364.613281 -323.775431 
L 364.613281 -324.31273 
L 364.613281 -324.850029 
L 364.613281 -325.387328 
L 364.613281 -325.924626 
L 364.613281 -326.461925 
L 364.613281 -326.999224 
L 364.613281 -327.536523 
L 364.613281 -328.073822 
L 364.613281 -328.611121 
L 364.613281 -329.148419 
L 364.613281 -329.685718 
L 364.613281 -330.223017 
L 364.613281 -330.760316 
L 364.613281 -331.297615 
L 364.613281 -331.834913 
L 364.613281 -332.372212 
L 364.613281 -332.909511 
L 364.613281 -333.44681 
L 364.613281 -333.984109 
L 364.613281 -334.521408 
L 364.613281 -335.058706 
L 364.613281 -335.596005 
L 364.613281 -336.133304 
L 364.613281 -336.670603 
L 364.613281 -337.207902 
L 364.613281 -337.745201 
L 364.613281 -338.282499 
L 364.613281 -338.819798 
L 364.613281 -339.357097 
L 364.613281 -339.894396 
L 364.613281 -340.431695 
L 364.613281 -340.968993 
L 364.613281 -341.506292 
L 364.613281 -342.043591 
L 364.613281 -342.58089 
L 364.613281 -343.118189 
L 364.613281 -343.655488 
L 364.613281 -344.192786 
L 364.613281 -344.730085 
L 364.613281 -345.267384 
L 364.613281 -345.804683 
L 364.613281 -346.341982 
L 364.613281 -346.879281 
L 364.613281 -347.416579 
L 364.613281 -347.953878 
L 364.613281 -348.491177 
L 364.613281 -349.028476 
L 364.613281 -349.565775 
L 364.613281 -350.103073 
L 364.613281 -350.640372 
L 364.613281 -351.177671 
L 364.613281 -351.71497 
L 364.613281 -352.252269 
L 364.613281 -352.789568 
L 364.613281 -353.326866 
L 364.613281 -353.864165 
L 364.613281 -354.401464 
L 364.613281 -354.938763 
L 364.613281 -355.476062 
L 364.613281 -356.013361 
L 364.613281 -356.550659 
L 364.613281 -357.087958 
L 364.613281 -357.625257 
L 364.613281 -358.162556 
L 364.613281 -358.699855 
L 364.613281 -359.237153 
L 364.613281 -359.774452 
L 364.613281 -360.311751 
L 364.613281 -360.84905 
L 364.613281 -361.386349 
L 364.613281 -361.923648 
L 364.613281 -362.460946 
L 364.613281 -362.998245 
L 364.613281 -363.535544 
L 364.613281 -364.072843 
L 364.613281 -364.610142 
L 364.613281 -365.147441 
L 364.613281 -365.684739 
L 364.613281 -366.222038 
L 364.613281 -366.759337 
L 364.613281 -367.296636 
L 364.613281 -367.833935 
L 364.613281 -368.371233 
L 364.613281 -368.908532 
L 364.613281 -369.445831 
L 364.613281 -369.98313 
L 364.613281 -370.520429 
L 364.613281 -371.057728 
L 364.613281 -371.595026 
L 364.613281 -372.132325 
L 364.613281 -372.669624 
L 364.613281 -373.206923 
L 364.613281 -373.744222 
L 364.613281 -374.281521 
L 364.613281 -374.818819 
L 364.613281 -375.356118 
L 364.613281 -375.893417 
L 364.613281 -376.430716 
L 364.613281 -376.968015 
L 364.613281 -377.505313 
L 364.613281 -378.042612 
L 364.613281 -378.579911 
L 364.613281 -379.11721 
L 364.613281 -379.654509 
L 364.613281 -380.191808 
L 364.613281 -380.729106 
L 364.613281 -381.266405 
L 364.613281 -381.803704 
L 364.613281 -382.341003 
L 364.613281 -382.878302 
L 364.613281 -383.415601 
L 364.613281 -383.952899 
L 364.613281 -384.490198 
L 364.613281 -385.027497 
L 364.613281 -385.564796 
L 364.613281 -386.102095 
L 364.613281 -386.639393 
L 364.613281 -387.176692 
L 364.613281 -387.713991 
L 364.613281 -388.25129 
L 364.613281 -388.788589 
L 364.613281 -389.325888 
L 364.613281 -389.863186 
L 364.613281 -390.400485 
L 364.613281 -390.937784 
L 364.613281 -391.475083 
L 364.613281 -392.012382 
L 364.613281 -392.549681 
L 364.613281 -393.086979 
L 364.613281 -393.624278 
L 364.613281 -394.161577 
L 364.613281 -394.698876 
L 364.613281 -395.236175 
L 364.613281 -395.773473 
L 364.613281 -396.310772 
L 364.613281 -396.848071 
L 364.613281 -397.38537 
L 364.613281 -397.922669 
L 364.613281 -398.459968 
L 364.613281 -398.997266 
L 364.613281 -399.534565 
L 364.613281 -400.071864 
L 364.613281 -400.609163 
L 364.613281 -401.146462 
L 364.613281 -401.683761 
L 364.613281 -402.221059 
L 364.613281 -402.758358 
L 364.613281 -403.295657 
L 364.613281 -403.832956 
L 364.613281 -404.370255 
L 364.613281 -404.907553 
L 364.613281 -405.444852 
L 364.613281 -405.982151 
L 364.613281 -406.51945 
L 548.04035 -406.51945 
L 548.04035 -406.51945 
L 548.02227 -405.982151 
L 547.978333 -405.444852 
L 547.965606 -404.907553 
L 547.946247 -404.370255 
L 547.873256 -403.832956 
L 547.811618 -403.295657 
L 547.809802 -402.758358 
L 547.75985 -402.221059 
L 547.736909 -401.683761 
L 547.716345 -401.146462 
L 547.695955 -400.609163 
L 547.672879 -400.071864 
L 547.588321 -399.534565 
L 547.488569 -398.997266 
L 547.43905 -398.459968 
L 547.419567 -397.922669 
L 547.328207 -397.38537 
L 547.290933 -396.848071 
L 547.239282 -396.310772 
L 547.234114 -395.773473 
L 547.139159 -395.236175 
L 547.110723 -394.698876 
L 547.0806 -394.161577 
L 547.043525 -393.624278 
L 547.02601 -393.086979 
L 546.958658 -392.549681 
L 546.942247 -392.012382 
L 546.938743 -391.475083 
L 546.916926 -390.937784 
L 546.904433 -390.400485 
L 546.873849 -389.863186 
L 546.830077 -389.325888 
L 546.806467 -388.788589 
L 546.804906 -388.25129 
L 546.801524 -387.713991 
L 546.765447 -387.176692 
L 546.734255 -386.639393 
L 546.709091 -386.102095 
L 546.697281 -385.564796 
L 546.692398 -385.027497 
L 546.680316 -384.490198 
L 546.675619 -383.952899 
L 546.648948 -383.415601 
L 546.626312 -382.878302 
L 546.624737 -382.341003 
L 546.605951 -381.803704 
L 546.601583 -381.266405 
L 546.599671 -380.729106 
L 546.598503 -380.191808 
L 546.5968 -379.654509 
L 546.583675 -379.11721 
L 546.577298 -378.579911 
L 546.576074 -378.042612 
L 546.574443 -377.505313 
L 546.567891 -376.968015 
L 546.531053 -376.430716 
L 546.525829 -375.893417 
L 546.504265 -375.356118 
L 546.503024 -374.818819 
L 546.503024 -374.281521 
L 546.501061 -373.744222 
L 546.499137 -373.206923 
L 546.493122 -372.669624 
L 546.492558 -372.132325 
L 546.472824 -371.595026 
L 546.468381 -371.057728 
L 546.457568 -370.520429 
L 546.445494 -369.98313 
L 546.444527 -369.445831 
L 546.421538 -368.908532 
L 546.395255 -368.371233 
L 546.393468 -367.833935 
L 546.364305 -367.296636 
L 546.359795 -366.759337 
L 546.351278 -366.222038 
L 546.350595 -365.684739 
L 546.32768 -365.147441 
L 546.323377 -364.610142 
L 546.317521 -364.072843 
L 546.312825 -363.535544 
L 546.308847 -362.998245 
L 546.280333 -362.460946 
L 546.270312 -361.923648 
L 546.268331 -361.386349 
L 546.253353 -360.84905 
L 546.234134 -360.311751 
L 546.215309 -359.774452 
L 546.160138 -359.237153 
L 546.143305 -358.699855 
L 546.106968 -358.162556 
L 546.096821 -357.625257 
L 545.997909 -357.087958 
L 545.986133 -356.550659 
L 545.976833 -356.013361 
L 545.927695 -355.476062 
L 545.922647 -354.938763 
L 545.914474 -354.401464 
L 545.87298 -353.864165 
L 545.866343 -353.326866 
L 545.851264 -352.789568 
L 545.850789 -352.252269 
L 545.835812 -351.71497 
L 545.831013 -351.177671 
L 545.811897 -350.640372 
L 545.794796 -350.103073 
L 545.770182 -349.565775 
L 545.753046 -349.028476 
L 545.724101 -348.491177 
L 545.688893 -347.953878 
L 545.684651 -347.416579 
L 545.649879 -346.879281 
L 545.623541 -346.341982 
L 545.570114 -345.804683 
L 545.565901 -345.267384 
L 545.559317 -344.730085 
L 545.486458 -344.192786 
L 545.483272 -343.655488 
L 545.470479 -343.118189 
L 545.460292 -342.58089 
L 545.45565 -342.043591 
L 545.455361 -341.506292 
L 545.412598 -340.968993 
L 545.40555 -340.431695 
L 545.388417 -339.894396 
L 545.385038 -339.357097 
L 545.360359 -338.819798 
L 545.331359 -338.282499 
L 545.321997 -337.745201 
L 545.305458 -337.207902 
L 545.243399 -336.670603 
L 545.215963 -336.133304 
L 545.118317 -335.596005 
L 544.990335 -335.058706 
L 544.980883 -334.521408 
L 544.95581 -333.984109 
L 544.930919 -333.44681 
L 544.91222 -332.909511 
L 544.877289 -332.372212 
L 544.849482 -331.834913 
L 544.792906 -331.297615 
L 544.770967 -330.760316 
L 544.762043 -330.223017 
L 544.756026 -329.685718 
L 544.734318 -329.148419 
L 544.697188 -328.611121 
L 544.647839 -328.073822 
L 544.604403 -327.536523 
L 544.584043 -326.999224 
L 544.579161 -326.461925 
L 544.550143 -325.924626 
L 544.521052 -325.387328 
L 544.51023 -324.850029 
L 544.503098 -324.31273 
L 544.498821 -323.775431 
L 544.464222 -323.238132 
L 544.460303 -322.700833 
L 544.43977 -322.163535 
L 544.436968 -321.626236 
L 544.39956 -321.088937 
L 544.36268 -320.551638 
L 544.336185 -320.014339 
L 544.304432 -319.477041 
L 544.222687 -318.939742 
L 544.221258 -318.402443 
L 544.220116 -317.865144 
L 544.163328 -317.327845 
L 544.117719 -316.790546 
L 544.072318 -316.253248 
L 544.054789 -315.715949 
L 544.03021 -315.17865 
L 544.017517 -314.641351 
L 543.991535 -314.104052 
L 543.954655 -313.566753 
L 543.949482 -313.029455 
L 543.933575 -312.492156 
L 543.900142 -311.954857 
L 543.899906 -311.417558 
L 543.693808 -310.880259 
L 543.693629 -310.342961 
L 543.668155 -309.805662 
L 543.603723 -309.268363 
L 543.598757 -308.731064 
L 543.573741 -308.193765 
L 543.556176 -307.656466 
L 543.53535 -307.119168 
L 543.526602 -306.581869 
L 543.516322 -306.04457 
L 543.486484 -305.507271 
L 543.438669 -304.969972 
L 543.428908 -304.432673 
L 543.402513 -303.895375 
L 543.392245 -303.358076 
L 543.37183 -302.820777 
L 543.336572 -302.283478 
L 543.329015 -301.746179 
L 543.273154 -301.208881 
L 543.258268 -300.671582 
L 543.180696 -300.134283 
L 543.122485 -299.596984 
L 543.10855 -299.059685 
L 542.874951 -298.522386 
L 542.833599 -297.985088 
L 542.750516 -297.447789 
L 542.69549 -296.91049 
L 542.673503 -296.373191 
L 542.65647 -295.835892 
L 542.620449 -295.298593 
L 542.610969 -294.761295 
L 542.603979 -294.223996 
L 542.546319 -293.686697 
L 542.537378 -293.149398 
L 542.466166 -292.612099 
L 542.431483 -292.074801 
L 542.402418 -291.537502 
L 542.345447 -291.000203 
L 542.271429 -290.462904 
L 542.213295 -289.925605 
L 542.15576 -289.388306 
L 542.142343 -288.851008 
L 542.128239 -288.313709 
L 542.095102 -287.77641 
L 541.952533 -287.239111 
L 541.936973 -286.701812 
L 541.922925 -286.164513 
L 541.821491 -285.627215 
L 541.770806 -285.089916 
L 541.742138 -284.552617 
L 541.725594 -284.015318 
L 541.70351 -283.478019 
L 541.696613 -282.940721 
L 541.607351 -282.403422 
L 541.504227 -281.866123 
L 541.49955 -281.328824 
L 541.434192 -280.791525 
L 541.265454 -280.254226 
L 541.201439 -279.716928 
L 541.105923 -279.179629 
L 541.06426 -278.64233 
L 541.035829 -278.105031 
L 540.91107 -277.567732 
L 540.873204 -277.030433 
L 540.768861 -276.493135 
L 540.731017 -275.955836 
L 540.682674 -275.418537 
L 540.660161 -274.881238 
L 540.561301 -274.343939 
L 540.560873 -273.806641 
L 540.546248 -273.269342 
L 540.535766 -272.732043 
L 540.534987 -272.194744 
L 540.516086 -271.657445 
L 540.508396 -271.120146 
L 540.475174 -270.582848 
L 540.351324 -270.045549 
L 540.333735 -269.50825 
L 540.267268 -268.970951 
L 540.080403 -268.433652 
L 540.07835 -267.896353 
L 540.055699 -267.359055 
L 540.047952 -266.821756 
L 540.020552 -266.284457 
L 539.94381 -265.747158 
L 539.939302 -265.209859 
L 539.896999 -264.672561 
L 539.892704 -264.135262 
L 539.876471 -263.597963 
L 539.803673 -263.060664 
L 539.770457 -262.523365 
L 539.69034 -261.986066 
L 539.655747 -261.448768 
L 539.607883 -260.911469 
L 539.528445 -260.37417 
L 539.426139 -259.836871 
L 539.348835 -259.299572 
L 539.24673 -258.762273 
L 539.208793 -258.224975 
L 539.163577 -257.687676 
L 539.152522 -257.150377 
L 539.088146 -256.613078 
L 539.050274 -256.075779 
L 538.986085 -255.538481 
L 538.737696 -255.001182 
L 538.735833 -254.463883 
L 538.722802 -253.926584 
L 538.704607 -253.389285 
L 538.537767 -252.851986 
L 538.522098 -252.314688 
L 538.511103 -251.777389 
L 538.499676 -251.24009 
L 538.493504 -250.702791 
L 538.476565 -250.165492 
L 538.473488 -249.628193 
L 538.45908 -249.090895 
L 538.453127 -248.553596 
L 538.450707 -248.016297 
L 538.443268 -247.478998 
L 538.318138 -246.941699 
L 538.270903 -246.404401 
L 538.263432 -245.867102 
L 538.257526 -245.329803 
L 538.245953 -244.792504 
L 538.130763 -244.255205 
L 538.06124 -243.717906 
L 538.056331 -243.180608 
L 538.042484 -242.643309 
L 537.998731 -242.10601 
L 537.917337 -241.568711 
L 537.860792 -241.031412 
L 537.788686 -240.494113 
L 537.762162 -239.956815 
L 537.689606 -239.419516 
L 537.610759 -238.882217 
L 537.567738 -238.344918 
L 537.52051 -237.807619 
L 537.513795 -237.270321 
L 537.501761 -236.733022 
L 537.214018 -236.195723 
L 537.188172 -235.658424 
L 537.147227 -235.121125 
L 537.10621 -234.583826 
L 537.043505 -234.046528 
L 536.947348 -233.509229 
L 536.726116 -232.97193 
L 536.687302 -232.434631 
L 536.479513 -231.897332 
L 536.432729 -231.360033 
L 536.430994 -230.822735 
L 536.381937 -230.285436 
L 536.356044 -229.748137 
L 536.288262 -229.210838 
L 536.210331 -228.673539 
L 536.183815 -228.136241 
L 536.099029 -227.598942 
L 535.868748 -227.061643 
L 535.637963 -226.524344 
L 535.502332 -225.987045 
L 535.501803 -225.449746 
L 535.336793 -224.912448 
L 535.245948 -224.375149 
L 535.196923 -223.83785 
L 535.16055 -223.300551 
L 534.768291 -222.763252 
L 534.684008 -222.225953 
L 534.622639 -221.688655 
L 534.575162 -221.151356 
L 534.539994 -220.614057 
L 534.451592 -220.076758 
L 534.205106 -219.539459 
L 534.08129 -219.002161 
L 533.984497 -218.464862 
L 533.822224 -217.927563 
L 533.760343 -217.390264 
L 533.655241 -216.852965 
L 533.64723 -216.315666 
L 533.635411 -215.778368 
L 533.508364 -215.241069 
L 533.494862 -214.70377 
L 533.462925 -214.166471 
L 533.422529 -213.629172 
L 533.422025 -213.091873 
L 533.311439 -212.554575 
L 532.909568 -212.017276 
L 532.793951 -211.479977 
L 532.607099 -210.942678 
L 532.59955 -210.405379 
L 532.565323 -209.868081 
L 532.308045 -209.330782 
L 532.255837 -208.793483 
L 532.225713 -208.256184 
L 531.991891 -207.718885 
L 531.984822 -207.181586 
L 531.970139 -206.644288 
L 531.889163 -206.106989 
L 531.577148 -205.56969 
L 531.570757 -205.032391 
L 531.547205 -204.495092 
L 531.401954 -203.957793 
L 531.376211 -203.420495 
L 531.353642 -202.883196 
L 531.22484 -202.345897 
L 531.107312 -201.808598 
L 530.968698 -201.271299 
L 530.262408 -200.734001 
L 530.198598 -200.196702 
L 530.162125 -199.659403 
L 530.078708 -199.122104 
L 529.906225 -198.584805 
L 529.806423 -198.047506 
L 529.561437 -197.510208 
L 529.390633 -196.972909 
L 529.243639 -196.43561 
L 529.128218 -195.898311 
L 528.893295 -195.361012 
L 528.801507 -194.823713 
L 528.597391 -194.286415 
L 528.58922 -193.749116 
L 528.582968 -193.211817 
L 528.534965 -192.674518 
L 528.484306 -192.137219 
L 528.383585 -191.599921 
L 527.666845 -191.062622 
L 527.661153 -190.525323 
L 527.658503 -189.988024 
L 527.612513 -189.450725 
L 527.50959 -188.913426 
L 527.396498 -188.376128 
L 527.345427 -187.838829 
L 526.806376 -187.30153 
L 526.802754 -186.764231 
L 526.787447 -186.226932 
L 526.751124 -185.689633 
L 526.737575 -185.152335 
L 526.490507 -184.615036 
L 526.270214 -184.077737 
L 526.001522 -183.540438 
L 525.893694 -183.003139 
L 525.727846 -182.465841 
L 525.601714 -181.928542 
L 525.49174 -181.391243 
L 525.295394 -180.853944 
L 524.932212 -180.316645 
L 524.931175 -179.779346 
L 524.586294 -179.242048 
L 524.140419 -178.704749 
L 523.504314 -178.16745 
L 523.343761 -177.630151 
L 523.258851 -177.092852 
L 523.075832 -176.555554 
L 522.655296 -176.018255 
L 522.641919 -175.480956 
L 522.365391 -174.943657 
L 522.284102 -174.406358 
L 522.256829 -173.869059 
L 521.955047 -173.331761 
L 521.854789 -172.794462 
L 521.736544 -172.257163 
L 521.673966 -171.719864 
L 521.669825 -171.182565 
L 521.667888 -170.645266 
L 521.157428 -170.107968 
L 520.739019 -169.570669 
L 519.992806 -169.03337 
L 519.741144 -168.496071 
L 519.357933 -167.958772 
L 519.01079 -167.421474 
L 518.795534 -166.884175 
L 518.709951 -166.346876 
L 518.250964 -165.809577 
L 517.885138 -165.272278 
L 517.455211 -164.734979 
L 517.45256 -164.197681 
L 517.225361 -163.660382 
L 516.801444 -163.123083 
L 516.750848 -162.585784 
L 516.343095 -162.048485 
L 515.787374 -161.511186 
L 515.762553 -160.973888 
L 515.609303 -160.436589 
L 514.218952 -159.89929 
L 514.058155 -159.361991 
L 514.044492 -158.824692 
L 514.029102 -158.287394 
L 513.367737 -157.750095 
L 513.178297 -157.212796 
L 511.760924 -156.675497 
L 511.368483 -156.138198 
L 511.257617 -155.600899 
L 511.180515 -155.063601 
L 509.913903 -154.526302 
L 508.452597 -153.989003 
L 507.887272 -153.451704 
L 506.611549 -152.914405 
L 505.868825 -152.377106 
L 501.940704 -151.839808 
L 501.48072 -151.302509 
L 500.465223 -150.76521 
L 498.740588 -150.227911 
L 497.966933 -149.690612 
L 493.512307 -149.153314 
L 493.490516 -148.616015 
L 493.430176 -148.078716 
L 493.320232 -147.541417 
L 492.498353 -147.004118 
L 492.276553 -146.466819 
L 492.210473 -145.929521 
L 491.463764 -145.392222 
L 491.077858 -144.854923 
L 490.972432 -144.317624 
L 490.186966 -143.780325 
L 489.928469 -143.243026 
L 489.855864 -142.705728 
L 489.126495 -142.168429 
L 489.11825 -141.63113 
L 488.979703 -141.093831 
L 488.635205 -140.556532 
L 488.336353 -140.019234 
L 487.685129 -139.481935 
L 487.498465 -138.944636 
L 487.315256 -138.407337 
L 487.256851 -137.870038 
L 486.691472 -137.332739 
L 486.584361 -136.795441 
L 486.502493 -136.258142 
L 485.464328 -135.720843 
L 485.343662 -135.183544 
L 485.245377 -134.646245 
L 485.032862 -134.108946 
L 484.85769 -133.571648 
L 484.484556 -133.034349 
L 484.474827 -132.49705 
L 484.167001 -131.959751 
L 483.946928 -131.422452 
L 483.832594 -130.885154 
L 483.504223 -130.347855 
L 483.466805 -129.810556 
L 483.235234 -129.273257 
L 482.755153 -128.735958 
L 482.706756 -128.198659 
L 482.671405 -127.661361 
L 482.595201 -127.124062 
L 482.484611 -126.586763 
L 482.45661 -126.049464 
L 482.43752 -125.512165 
L 482.375362 -124.974866 
L 482.128114 -124.437568 
L 482.009211 -123.900269 
L 481.960645 -123.36297 
L 481.898796 -122.825671 
L 481.579272 -122.288372 
L 481.422973 -121.751074 
L 481.405832 -121.213775 
L 481.332351 -120.676476 
L 481.057009 -120.139177 
L 480.967951 -119.601878 
L 480.962419 -119.064579 
L 480.837098 -118.527281 
L 480.642049 -117.989982 
L 480.524047 -117.452683 
L 480.405434 -116.915384 
L 480.34174 -116.378085 
L 480.305439 -115.840786 
L 479.945758 -115.303488 
L 479.779223 -114.766189 
L 479.53157 -114.22889 
L 479.486994 -113.691591 
L 479.101987 -113.154292 
L 479.019303 -112.616994 
L 478.817649 -112.079695 
L 478.801624 -111.542396 
L 478.742332 -111.005097 
L 478.677504 -110.467798 
L 478.289065 -109.930499 
L 478.276061 -109.393201 
L 478.092578 -108.855902 
L 478.058563 -108.318603 
L 477.896611 -107.781304 
L 477.861251 -107.244005 
L 477.744393 -106.706706 
L 477.728985 -106.169408 
L 477.649491 -105.632109 
L 477.555383 -105.09481 
L 477.497028 -104.557511 
L 477.477449 -104.020212 
L 477.431531 -103.482914 
L 477.217435 -102.945615 
L 477.093145 -102.408316 
L 476.835052 -101.871017 
L 476.710368 -101.333718 
L 476.669145 -100.796419 
L 476.668192 -100.259121 
L 476.476386 -99.721822 
L 476.267146 -99.184523 
L 475.937796 -98.647224 
L 475.862338 -98.109925 
L 475.843494 -97.572626 
L 475.809277 -97.035328 
L 475.592037 -96.498029 
L 475.210558 -95.96073 
L 475.124853 -95.423431 
L 475.116011 -94.886132 
L 474.713852 -94.348834 
L 474.635374 -93.811535 
L 474.337652 -93.274236 
L 474.218086 -92.736937 
L 473.947271 -92.199638 
L 473.32263 -91.662339 
L 473.188241 -91.125041 
L 472.849164 -90.587742 
L 471.886788 -90.050443 
L 471.237457 -89.513144 
L 471.227592 -88.975845 
L 471.224209 -88.438546 
L 471.201193 -87.901248 
L 471.194988 -87.363949 
L 471.064176 -86.82665 
L 470.987818 -86.289351 
L 470.869492 -85.752052 
L 470.808235 -85.214754 
L 470.472288 -84.677455 
L 470.014784 -84.140156 
L 469.575896 -83.602857 
L 469.317054 -83.065558 
L 469.306834 -82.528259 
L 468.794629 -81.990961 
L 468.729944 -81.453662 
L 468.32773 -80.916363 
L 468.310343 -80.379064 
L 468.279936 -79.841765 
L 467.875933 -79.304466 
L 467.584477 -78.767168 
L 467.564414 -78.229869 
L 466.475733 -77.69257 
L 466.386449 -77.155271 
L 466.239683 -76.617972 
L 466.122799 -76.080674 
L 466.061619 -75.543375 
L 465.315917 -75.006076 
L 464.94514 -74.468777 
L 464.665447 -73.931478 
L 464.540389 -73.394179 
L 464.538035 -72.856881 
L 463.222929 -72.319582 
L 460.285329 -71.782283 
L 460.144332 -71.244984 
L 460.102141 -70.707685 
L 459.901719 -70.170386 
L 459.566915 -69.633088 
L 459.396486 -69.095789 
L 459.355755 -68.55849 
L 459.005393 -68.021191 
L 458.997123 -67.483892 
L 458.429497 -66.946594 
L 458.245078 -66.409295 
L 458.090222 -65.871996 
L 457.793498 -65.334697 
L 455.110046 -64.797398 
L 454.668755 -64.260099 
L 453.746549 -63.722801 
L 453.60257 -63.185502 
L 453.588882 -62.648203 
L 452.707992 -62.110904 
L 451.707372 -61.573605 
L 451.569141 -61.036306 
L 450.163577 -60.499008 
L 449.93946 -59.961709 
L 448.641008 -59.42441 
L 447.49185 -58.887111 
L 446.768459 -58.349812 
L 444.479577 -57.812514 
L 444.255721 -57.275215 
L 442.817039 -56.737916 
L 442.784331 -56.200617 
L 439.762326 -55.663318 
L 438.785616 -55.126019 
L 436.775942 -54.588721 
L 433.783463 -54.051422 
L 432.856252 -53.514123 
L 426.155683 -52.976824 
L 425.300047 -52.439525 
L 421.557306 -51.902226 
L 420.218036 -51.364928 
L 419.883134 -50.827629 
L 419.829623 -50.29033 
L 416.468441 -49.753031 
L 414.870585 -49.215732 
L 413.832695 -48.678434 
L 405.616456 -48.141135 
L 402.790617 -47.603836 
L 401.536164 -47.066537 
L 390.352818 -46.529238 
z
" style="stroke: #000000; stroke-opacity: 0.7"/>
    </defs>
    <g clip-path="url(#pe21b2488ed)">
     <use xlink:href="#m2f8bb0ff7e" x="0" y="432" style="fill-opacity: 0.7; stroke: #000000; stroke-opacity: 0.7"/>
    </g>
   </g>
   <g id="PolyCollection_2">
    <defs>
     <path id="m3fe6506166" d="M 364.613281 -412.429737 
L 364.613281 -412.429737 
L 364.613281 -412.429737 
L 364.613281 -412.429737 
z
" style="stroke: #00bc00; stroke-opacity: 0.7"/>
    </defs>
    <g clip-path="url(#pe21b2488ed)">
     <use xlink:href="#m3fe6506166" x="0" y="432" style="fill: #00bc00; fill-opacity: 0.7; stroke: #00bc00; stroke-opacity: 0.7"/>
    </g>
   </g>
   <g id="matplotlib.axis_1">
    <g id="xtick_1">
     <g id="line2d_1">
      <defs>
       <path id="mb71805b339" d="M 0 0 
L 0 3.5 
" style="stroke: #000000; stroke-width: 0.8"/>
      </defs>
      <g>
       <use xlink:href="#mb71805b339" x="27.978125" y="390.84375" style="stroke: #000000; stroke-width: 0.8"/>
      </g>
     </g>
     <g id="text_1">
      <!-- −1.0 -->
      <g transform="translate(15.836719 405.442187) scale(0.1 -0.1)">
       <defs>
        <path id="DejaVuSans-2212" d="M 678 2272 
L 4684 2272 
L 4684 1741 
L 678 1741 
L 678 2272 
z
" transform="scale(0.015625)"/>
        <path id="DejaVuSans-31" d="M 794 531 
L 1825 531 
L 1825 4091 
L 703 3866 
L 703 4441 
L 1819 4666 
L 2450 4666 
L 2450 531 
L 3481 531 
L 3481 0 
L 794 0 
L 794 531 
z
" transform="scale(0.015625)"/>
        <path id="DejaVuSans-2e" d="M 684 794 
L 1344 794 
L 1344 0 
L 684 0 
L 684 794 
z
" transform="scale(0.015625)"/>
        <path id="DejaVuSans-30" d="M 2034 4250 
Q 1547 4250 1301 3770 
Q 1056 3291 1056 2328 
Q 1056 1369 1301 889 
Q 1547 409 2034 409 
Q 2525 409 2770 889 
Q 3016 1369 3016 2328 
Q 3016 3291 2770 3770 
Q 2525 4250 2034 4250 
z
M 2034 4750 
Q 2819 4750 3233 4129 
Q 3647 3509 3647 2328 
Q 3647 1150 3233 529 
Q 2819 -91 2034 -91 
Q 1250 -91 836 529 
Q 422 1150 422 2328 
Q 422 3509 836 4129 
Q 1250 4750 2034 4750 
z
" transform="scale(0.015625)"/>
       </defs>
       <use xlink:href="#DejaVuSans-2212"/>
       <use xlink:href="#DejaVuSans-31" x="83.789062"/>
       <use xlink:href="#DejaVuSans-2e" x="147.412109"/>
       <use xlink:href="#DejaVuSans-30" x="179.199219"/>
      </g>
     </g>
    </g>
    <g id="xtick_2">
     <g id="line2d_2">
      <g>
       <use xlink:href="#mb71805b339" x="95.305156" y="390.84375" style="stroke: #000000; stroke-width: 0.8"/>
      </g>
     </g>
     <g id="text_2">
      <!-- −0.8 -->
      <g transform="translate(83.16375 405.442187) scale(0.1 -0.1)">
       <defs>
        <path id="DejaVuSans-38" d="M 2034 2216 
Q 1584 2216 1326 1975 
Q 1069 1734 1069 1313 
Q 1069 891 1326 650 
Q 1584 409 2034 409 
Q 2484 409 2743 651 
Q 3003 894 3003 1313 
Q 3003 1734 2745 1975 
Q 2488 2216 2034 2216 
z
M 1403 2484 
Q 997 2584 770 2862 
Q 544 3141 544 3541 
Q 544 4100 942 4425 
Q 1341 4750 2034 4750 
Q 2731 4750 3128 4425 
Q 3525 4100 3525 3541 
Q 3525 3141 3298 2862 
Q 3072 2584 2669 2484 
Q 3125 2378 3379 2068 
Q 3634 1759 3634 1313 
Q 3634 634 3220 271 
Q 2806 -91 2034 -91 
Q 1263 -91 848 271 
Q 434 634 434 1313 
Q 434 1759 690 2068 
Q 947 2378 1403 2484 
z
M 1172 3481 
Q 1172 3119 1398 2916 
Q 1625 2713 2034 2713 
Q 2441 2713 2670 2916 
Q 2900 3119 2900 3481 
Q 2900 3844 2670 4047 
Q 2441 4250 2034 4250 
Q 1625 4250 1398 4047 
Q 1172 3844 1172 3481 
z
" transform="scale(0.015625)"/>
       </defs>
       <use xlink:href="#DejaVuSans-2212"/>
       <use xlink:href="#DejaVuSans-30" x="83.789062"/>
       <use xlink:href="#DejaVuSans-2e" x="147.412109"/>
       <use xlink:href="#DejaVuSans-38" x="179.199219"/>
      </g>
     </g>
    </g>
    <g id="xtick_3">
     <g id="line2d_3">
      <g>
       <use xlink:href="#mb71805b339" x="162.632188" y="390.84375" style="stroke: #000000; stroke-width: 0.8"/>
      </g>
     </g>
     <g id="text_3">
      <!-- −0.6 -->
      <g transform="translate(150.490781 405.442187) scale(0.1 -0.1)">
       <defs>
        <path id="DejaVuSans-36" d="M 2113 2584 
Q 1688 2584 1439 2293 
Q 1191 2003 1191 1497 
Q 1191 994 1439 701 
Q 1688 409 2113 409 
Q 2538 409 2786 701 
Q 3034 994 3034 1497 
Q 3034 2003 2786 2293 
Q 2538 2584 2113 2584 
z
M 3366 4563 
L 3366 3988 
Q 3128 4100 2886 4159 
Q 2644 4219 2406 4219 
Q 1781 4219 1451 3797 
Q 1122 3375 1075 2522 
Q 1259 2794 1537 2939 
Q 1816 3084 2150 3084 
Q 2853 3084 3261 2657 
Q 3669 2231 3669 1497 
Q 3669 778 3244 343 
Q 2819 -91 2113 -91 
Q 1303 -91 875 529 
Q 447 1150 447 2328 
Q 447 3434 972 4092 
Q 1497 4750 2381 4750 
Q 2619 4750 2861 4703 
Q 3103 4656 3366 4563 
z
" transform="scale(0.015625)"/>
       </defs>
       <use xlink:href="#DejaVuSans-2212"/>
       <use xlink:href="#DejaVuSans-30" x="83.789062"/>
       <use xlink:href="#DejaVuSans-2e" x="147.412109"/>
       <use xlink:href="#DejaVuSans-36" x="179.199219"/>
      </g>
     </g>
    </g>
    <g id="xtick_4">
     <g id="line2d_4">
      <g>
       <use xlink:href="#mb71805b339" x="229.959219" y="390.84375" style="stroke: #000000; stroke-width: 0.8"/>
      </g>
     </g>
     <g id="text_4">
      <!-- −0.4 -->
      <g transform="translate(217.817813 405.442187) scale(0.1 -0.1)">
       <defs>
        <path id="DejaVuSans-34" d="M 2419 4116 
L 825 1625 
L 2419 1625 
L 2419 4116 
z
M 2253 4666 
L 3047 4666 
L 3047 1625 
L 3713 1625 
L 3713 1100 
L 3047 1100 
L 3047 0 
L 2419 0 
L 2419 1100 
L 313 1100 
L 313 1709 
L 2253 4666 
z
" transform="scale(0.015625)"/>
       </defs>
       <use xlink:href="#DejaVuSans-2212"/>
       <use xlink:href="#DejaVuSans-30" x="83.789062"/>
       <use xlink:href="#DejaVuSans-2e" x="147.412109"/>
       <use xlink:href="#DejaVuSans-34" x="179.199219"/>
      </g>
     </g>
    </g>
    <g id="xtick_5">
     <g id="line2d_5">
      <g>
       <use xlink:href="#mb71805b339" x="297.28625" y="390.84375" style="stroke: #000000; stroke-width: 0.8"/>
      </g>
     </g>
     <g id="text_5">
      <!-- −0.2 -->
      <g transform="translate(285.144844 405.442187) scale(0.1 -0.1)">
       <defs>
        <path id="DejaVuSans-32" d="M 1228 531 
L 3431 531 
L 3431 0 
L 469 0 
L 469 531 
Q 828 903 1448 1529 
Q 2069 2156 2228 2338 
Q 2531 2678 2651 2914 
Q 2772 3150 2772 3378 
Q 2772 3750 2511 3984 
Q 2250 4219 1831 4219 
Q 1534 4219 1204 4116 
Q 875 4013 500 3803 
L 500 4441 
Q 881 4594 1212 4672 
Q 1544 4750 1819 4750 
Q 2544 4750 2975 4387 
Q 3406 4025 3406 3419 
Q 3406 3131 3298 2873 
Q 3191 2616 2906 2266 
Q 2828 2175 2409 1742 
Q 1991 1309 1228 531 
z
" transform="scale(0.015625)"/>
       </defs>
       <use xlink:href="#DejaVuSans-2212"/>
       <use xlink:href="#DejaVuSans-30" x="83.789062"/>
       <use xlink:href="#DejaVuSans-2e" x="147.412109"/>
       <use xlink:href="#DejaVuSans-32" x="179.199219"/>
      </g>
     </g>
    </g>
    <g id="xtick_6">
     <g id="line2d_6">
      <g>
       <use xlink:href="#mb71805b339" x="364.613281" y="390.84375" style="stroke: #000000; stroke-width: 0.8"/>
      </g>
     </g>
     <g id="text_6">
      <!-- 0.0 -->
      <g transform="translate(356.661719 405.442187) scale(0.1 -0.1)">
       <use xlink:href="#DejaVuSans-30"/>
       <use xlink:href="#DejaVuSans-2e" x="63.623047"/>
       <use xlink:href="#DejaVuSans-30" x="95.410156"/>
      </g>
     </g>
    </g>
    <g id="xtick_7">
     <g id="line2d_7">
      <g>
       <use xlink:href="#mb71805b339" x="431.940313" y="390.84375" style="stroke: #000000; stroke-width: 0.8"/>
      </g>
     </g>
     <g id="text_7">
      <!-- 0.2 -->
      <g transform="translate(423.98875 405.442187) scale(0.1 -0.1)">
       <use xlink:href="#DejaVuSans-30"/>
       <use xlink:href="#DejaVuSans-2e" x="63.623047"/>
       <use xlink:href="#DejaVuSans-32" x="95.410156"/>
      </g>
     </g>
    </g>
    <g id="xtick_8">
     <g id="line2d_8">
      <g>
       <use xlink:href="#mb71805b339" x="499.267344" y="390.84375" style="stroke: #000000; stroke-width: 0.8"/>
      </g>
     </g>
     <g id="text_8">
      <!-- 0.4 -->
      <g transform="translate(491.315781 405.442187) scale(0.1 -0.1)">
       <use xlink:href="#DejaVuSans-30"/>
       <use xlink:href="#DejaVuSans-2e" x="63.623047"/>
       <use xlink:href="#DejaVuSans-34" x="95.410156"/>
      </g>
     </g>
    </g>
    <g id="xtick_9">
     <g id="line2d_9">
      <g>
       <use xlink:href="#mb71805b339" x="566.594375" y="390.84375" style="stroke: #000000; stroke-width: 0.8"/>
      </g>
     </g>
     <g id="text_9">
      <!-- 0.6 -->
      <g transform="translate(558.642812 405.442187) scale(0.1 -0.1)">
       <use xlink:href="#DejaVuSans-30"/>
       <use xlink:href="#DejaVuSans-2e" x="63.623047"/>
       <use xlink:href="#DejaVuSans-36" x="95.410156"/>
      </g>
     </g>
    </g>
    <g id="xtick_10">
     <g id="line2d_10">
      <g>
       <use xlink:href="#mb71805b339" x="633.921406" y="390.84375" style="stroke: #000000; stroke-width: 0.8"/>
      </g>
     </g>
     <g id="text_10">
      <!-- 0.8 -->
      <g transform="translate(625.969844 405.442187) scale(0.1 -0.1)">
       <use xlink:href="#DejaVuSans-30"/>
       <use xlink:href="#DejaVuSans-2e" x="63.623047"/>
       <use xlink:href="#DejaVuSans-38" x="95.410156"/>
      </g>
     </g>
    </g>
    <g id="xtick_11">
     <g id="line2d_11">
      <g>
       <use xlink:href="#mb71805b339" x="701.248437" y="390.84375" style="stroke: #000000; stroke-width: 0.8"/>
      </g>
     </g>
     <g id="text_11">
      <!-- 1.0 -->
      <g transform="translate(693.296875 405.442187) scale(0.1 -0.1)">
       <use xlink:href="#DejaVuSans-31"/>
       <use xlink:href="#DejaVuSans-2e" x="63.623047"/>
       <use xlink:href="#DejaVuSans-30" x="95.410156"/>
      </g>
     </g>
    </g>
    <g id="text_12">
     <!-- Silhouette coefficient -->
     <g transform="translate(311.463281 419.120313) scale(0.1 -0.1)">
      <defs>
       <path id="DejaVuSans-53" d="M 3425 4513 
L 3425 3897 
Q 3066 4069 2747 4153 
Q 2428 4238 2131 4238 
Q 1616 4238 1336 4038 
Q 1056 3838 1056 3469 
Q 1056 3159 1242 3001 
Q 1428 2844 1947 2747 
L 2328 2669 
Q 3034 2534 3370 2195 
Q 3706 1856 3706 1288 
Q 3706 609 3251 259 
Q 2797 -91 1919 -91 
Q 1588 -91 1214 -16 
Q 841 59 441 206 
L 441 856 
Q 825 641 1194 531 
Q 1563 422 1919 422 
Q 2459 422 2753 634 
Q 3047 847 3047 1241 
Q 3047 1584 2836 1778 
Q 2625 1972 2144 2069 
L 1759 2144 
Q 1053 2284 737 2584 
Q 422 2884 422 3419 
Q 422 4038 858 4394 
Q 1294 4750 2059 4750 
Q 2388 4750 2728 4690 
Q 3069 4631 3425 4513 
z
" transform="scale(0.015625)"/>
       <path id="DejaVuSans-69" d="M 603 3500 
L 1178 3500 
L 1178 0 
L 603 0 
L 603 3500 
z
M 603 4863 
L 1178 4863 
L 1178 4134 
L 603 4134 
L 603 4863 
z
" transform="scale(0.015625)"/>
       <path id="DejaVuSans-6c" d="M 603 4863 
L 1178 4863 
L 1178 0 
L 603 0 
L 603 4863 
z
" transform="scale(0.015625)"/>
       <path id="DejaVuSans-68" d="M 3513 2113 
L 3513 0 
L 2938 0 
L 2938 2094 
Q 2938 2591 2744 2837 
Q 2550 3084 2163 3084 
Q 1697 3084 1428 2787 
Q 1159 2491 1159 1978 
L 1159 0 
L 581 0 
L 581 4863 
L 1159 4863 
L 1159 2956 
Q 1366 3272 1645 3428 
Q 1925 3584 2291 3584 
Q 2894 3584 3203 3211 
Q 3513 2838 3513 2113 
z
" transform="scale(0.015625)"/>
       <path id="DejaVuSans-6f" d="M 1959 3097 
Q 1497 3097 1228 2736 
Q 959 2375 959 1747 
Q 959 1119 1226 758 
Q 1494 397 1959 397 
Q 2419 397 2687 759 
Q 2956 1122 2956 1747 
Q 2956 2369 2687 2733 
Q 2419 3097 1959 3097 
z
M 1959 3584 
Q 2709 3584 3137 3096 
Q 3566 2609 3566 1747 
Q 3566 888 3137 398 
Q 2709 -91 1959 -91 
Q 1206 -91 779 398 
Q 353 888 353 1747 
Q 353 2609 779 3096 
Q 1206 3584 1959 3584 
z
" transform="scale(0.015625)"/>
       <path id="DejaVuSans-75" d="M 544 1381 
L 544 3500 
L 1119 3500 
L 1119 1403 
Q 1119 906 1312 657 
Q 1506 409 1894 409 
Q 2359 409 2629 706 
Q 2900 1003 2900 1516 
L 2900 3500 
L 3475 3500 
L 3475 0 
L 2900 0 
L 2900 538 
Q 2691 219 2414 64 
Q 2138 -91 1772 -91 
Q 1169 -91 856 284 
Q 544 659 544 1381 
z
M 1991 3584 
L 1991 3584 
z
" transform="scale(0.015625)"/>
       <path id="DejaVuSans-65" d="M 3597 1894 
L 3597 1613 
L 953 1613 
Q 991 1019 1311 708 
Q 1631 397 2203 397 
Q 2534 397 2845 478 
Q 3156 559 3463 722 
L 3463 178 
Q 3153 47 2828 -22 
Q 2503 -91 2169 -91 
Q 1331 -91 842 396 
Q 353 884 353 1716 
Q 353 2575 817 3079 
Q 1281 3584 2069 3584 
Q 2775 3584 3186 3129 
Q 3597 2675 3597 1894 
z
M 3022 2063 
Q 3016 2534 2758 2815 
Q 2500 3097 2075 3097 
Q 1594 3097 1305 2825 
Q 1016 2553 972 2059 
L 3022 2063 
z
" transform="scale(0.015625)"/>
       <path id="DejaVuSans-74" d="M 1172 4494 
L 1172 3500 
L 2356 3500 
L 2356 3053 
L 1172 3053 
L 1172 1153 
Q 1172 725 1289 603 
Q 1406 481 1766 481 
L 2356 481 
L 2356 0 
L 1766 0 
Q 1100 0 847 248 
Q 594 497 594 1153 
L 594 3053 
L 172 3053 
L 172 3500 
L 594 3500 
L 594 4494 
L 1172 4494 
z
" transform="scale(0.015625)"/>
       <path id="DejaVuSans-20" transform="scale(0.015625)"/>
       <path id="DejaVuSans-63" d="M 3122 3366 
L 3122 2828 
Q 2878 2963 2633 3030 
Q 2388 3097 2138 3097 
Q 1578 3097 1268 2742 
Q 959 2388 959 1747 
Q 959 1106 1268 751 
Q 1578 397 2138 397 
Q 2388 397 2633 464 
Q 2878 531 3122 666 
L 3122 134 
Q 2881 22 2623 -34 
Q 2366 -91 2075 -91 
Q 1284 -91 818 406 
Q 353 903 353 1747 
Q 353 2603 823 3093 
Q 1294 3584 2113 3584 
Q 2378 3584 2631 3529 
Q 2884 3475 3122 3366 
z
" transform="scale(0.015625)"/>
       <path id="DejaVuSans-66" d="M 2375 4863 
L 2375 4384 
L 1825 4384 
Q 1516 4384 1395 4259 
Q 1275 4134 1275 3809 
L 1275 3500 
L 2222 3500 
L 2222 3053 
L 1275 3053 
L 1275 0 
L 697 0 
L 697 3053 
L 147 3053 
L 147 3500 
L 697 3500 
L 697 3744 
Q 697 4328 969 4595 
Q 1241 4863 1831 4863 
L 2375 4863 
z
" transform="scale(0.015625)"/>
       <path id="DejaVuSans-6e" d="M 3513 2113 
L 3513 0 
L 2938 0 
L 2938 2094 
Q 2938 2591 2744 2837 
Q 2550 3084 2163 3084 
Q 1697 3084 1428 2787 
Q 1159 2491 1159 1978 
L 1159 0 
L 581 0 
L 581 3500 
L 1159 3500 
L 1159 2956 
Q 1366 3272 1645 3428 
Q 1925 3584 2291 3584 
Q 2894 3584 3203 3211 
Q 3513 2838 3513 2113 
z
" transform="scale(0.015625)"/>
      </defs>
      <use xlink:href="#DejaVuSans-53"/>
      <use xlink:href="#DejaVuSans-69" x="63.476562"/>
      <use xlink:href="#DejaVuSans-6c" x="91.259766"/>
      <use xlink:href="#DejaVuSans-68" x="119.042969"/>
      <use xlink:href="#DejaVuSans-6f" x="182.421875"/>
      <use xlink:href="#DejaVuSans-75" x="243.603516"/>
      <use xlink:href="#DejaVuSans-65" x="306.982422"/>
      <use xlink:href="#DejaVuSans-74" x="368.505859"/>
      <use xlink:href="#DejaVuSans-74" x="407.714844"/>
      <use xlink:href="#DejaVuSans-65" x="446.923828"/>
      <use xlink:href="#DejaVuSans-20" x="508.447266"/>
      <use xlink:href="#DejaVuSans-63" x="540.234375"/>
      <use xlink:href="#DejaVuSans-6f" x="595.214844"/>
      <use xlink:href="#DejaVuSans-65" x="656.396484"/>
      <use xlink:href="#DejaVuSans-66" x="717.919922"/>
      <use xlink:href="#DejaVuSans-66" x="753.125"/>
      <use xlink:href="#DejaVuSans-69" x="788.330078"/>
      <use xlink:href="#DejaVuSans-63" x="816.113281"/>
      <use xlink:href="#DejaVuSans-69" x="871.09375"/>
      <use xlink:href="#DejaVuSans-65" x="898.876953"/>
      <use xlink:href="#DejaVuSans-6e" x="960.400391"/>
      <use xlink:href="#DejaVuSans-74" x="1023.779297"/>
     </g>
    </g>
   </g>
   <g id="matplotlib.axis_2">
    <g id="text_13">
     <!-- Predicted label -->
     <g transform="translate(18.398438 239.404207) rotate(-90) scale(0.1 -0.1)">
      <defs>
       <path id="DejaVuSans-50" d="M 1259 4147 
L 1259 2394 
L 2053 2394 
Q 2494 2394 2734 2622 
Q 2975 2850 2975 3272 
Q 2975 3691 2734 3919 
Q 2494 4147 2053 4147 
L 1259 4147 
z
M 628 4666 
L 2053 4666 
Q 2838 4666 3239 4311 
Q 3641 3956 3641 3272 
Q 3641 2581 3239 2228 
Q 2838 1875 2053 1875 
L 1259 1875 
L 1259 0 
L 628 0 
L 628 4666 
z
" transform="scale(0.015625)"/>
       <path id="DejaVuSans-72" d="M 2631 2963 
Q 2534 3019 2420 3045 
Q 2306 3072 2169 3072 
Q 1681 3072 1420 2755 
Q 1159 2438 1159 1844 
L 1159 0 
L 581 0 
L 581 3500 
L 1159 3500 
L 1159 2956 
Q 1341 3275 1631 3429 
Q 1922 3584 2338 3584 
Q 2397 3584 2469 3576 
Q 2541 3569 2628 3553 
L 2631 2963 
z
" transform="scale(0.015625)"/>
       <path id="DejaVuSans-64" d="M 2906 2969 
L 2906 4863 
L 3481 4863 
L 3481 0 
L 2906 0 
L 2906 525 
Q 2725 213 2448 61 
Q 2172 -91 1784 -91 
Q 1150 -91 751 415 
Q 353 922 353 1747 
Q 353 2572 751 3078 
Q 1150 3584 1784 3584 
Q 2172 3584 2448 3432 
Q 2725 3281 2906 2969 
z
M 947 1747 
Q 947 1113 1208 752 
Q 1469 391 1925 391 
Q 2381 391 2643 752 
Q 2906 1113 2906 1747 
Q 2906 2381 2643 2742 
Q 2381 3103 1925 3103 
Q 1469 3103 1208 2742 
Q 947 2381 947 1747 
z
" transform="scale(0.015625)"/>
       <path id="DejaVuSans-61" d="M 2194 1759 
Q 1497 1759 1228 1600 
Q 959 1441 959 1056 
Q 959 750 1161 570 
Q 1363 391 1709 391 
Q 2188 391 2477 730 
Q 2766 1069 2766 1631 
L 2766 1759 
L 2194 1759 
z
M 3341 1997 
L 3341 0 
L 2766 0 
L 2766 531 
Q 2569 213 2275 61 
Q 1981 -91 1556 -91 
Q 1019 -91 701 211 
Q 384 513 384 1019 
Q 384 1609 779 1909 
Q 1175 2209 1959 2209 
L 2766 2209 
L 2766 2266 
Q 2766 2663 2505 2880 
Q 2244 3097 1772 3097 
Q 1472 3097 1187 3025 
Q 903 2953 641 2809 
L 641 3341 
Q 956 3463 1253 3523 
Q 1550 3584 1831 3584 
Q 2591 3584 2966 3190 
Q 3341 2797 3341 1997 
z
" transform="scale(0.015625)"/>
       <path id="DejaVuSans-62" d="M 3116 1747 
Q 3116 2381 2855 2742 
Q 2594 3103 2138 3103 
Q 1681 3103 1420 2742 
Q 1159 2381 1159 1747 
Q 1159 1113 1420 752 
Q 1681 391 2138 391 
Q 2594 391 2855 752 
Q 3116 1113 3116 1747 
z
M 1159 2969 
Q 1341 3281 1617 3432 
Q 1894 3584 2278 3584 
Q 2916 3584 3314 3078 
Q 3713 2572 3713 1747 
Q 3713 922 3314 415 
Q 2916 -91 2278 -91 
Q 1894 -91 1617 61 
Q 1341 213 1159 525 
L 1159 0 
L 581 0 
L 581 4863 
L 1159 4863 
L 1159 2969 
z
" transform="scale(0.015625)"/>
      </defs>
      <use xlink:href="#DejaVuSans-50"/>
      <use xlink:href="#DejaVuSans-72" x="58.552734"/>
      <use xlink:href="#DejaVuSans-65" x="97.416016"/>
      <use xlink:href="#DejaVuSans-64" x="158.939453"/>
      <use xlink:href="#DejaVuSans-69" x="222.416016"/>
      <use xlink:href="#DejaVuSans-63" x="250.199219"/>
      <use xlink:href="#DejaVuSans-74" x="305.179688"/>
      <use xlink:href="#DejaVuSans-65" x="344.388672"/>
      <use xlink:href="#DejaVuSans-64" x="405.912109"/>
      <use xlink:href="#DejaVuSans-20" x="469.388672"/>
      <use xlink:href="#DejaVuSans-6c" x="501.175781"/>
      <use xlink:href="#DejaVuSans-61" x="528.958984"/>
      <use xlink:href="#DejaVuSans-62" x="590.238281"/>
      <use xlink:href="#DejaVuSans-65" x="653.714844"/>
      <use xlink:href="#DejaVuSans-6c" x="715.238281"/>
     </g>
    </g>
   </g>
   <g id="line2d_12">
    <path d="M 517.939738 390.84375 
L 517.939738 13.659976 
" clip-path="url(#pe21b2488ed)" style="fill: none; stroke: #ff0000; stroke-width: 1.5; stroke-linecap: square"/>
   </g>
   <g id="patch_3">
    <path d="M 27.978125 390.84375 
L 27.978125 13.659976 
" style="fill: none; stroke: #000000; stroke-width: 0.8; stroke-linejoin: miter; stroke-linecap: square"/>
   </g>
   <g id="patch_4">
    <path d="M 701.248437 390.84375 
L 701.248437 13.659976 
" style="fill: none; stroke: #000000; stroke-width: 0.8; stroke-linejoin: miter; stroke-linecap: square"/>
   </g>
   <g id="patch_5">
    <path d="M 27.978125 390.84375 
L 701.248437 390.84375 
" style="fill: none; stroke: #000000; stroke-width: 0.8; stroke-linejoin: miter; stroke-linecap: square"/>
   </g>
   <g id="patch_6">
    <path d="M 27.978125 13.659976 
L 701.248437 13.659976 
" style="fill: none; stroke: #000000; stroke-width: 0.8; stroke-linejoin: miter; stroke-linecap: square"/>
   </g>
   <g id="text_14">
    <!-- 0 -->
    <g transform="translate(347.781523 205.207007) scale(0.1 -0.1)">
     <use xlink:href="#DejaVuSans-30"/>
    </g>
   </g>
   <g id="text_15">
    <!-- 1 -->
    <g transform="translate(347.781523 19.301614) scale(0.1 -0.1)">
     <use xlink:href="#DejaVuSans-31"/>
    </g>
   </g>
   <g id="text_16">
    <!-- 0.4555 -->
    <g style="fill: #ff0000" transform="translate(534.771496 19.032964) scale(0.1 -0.1)">
     <defs>
      <path id="DejaVuSans-35" d="M 691 4666 
L 3169 4666 
L 3169 4134 
L 1269 4134 
L 1269 2991 
Q 1406 3038 1543 3061 
Q 1681 3084 1819 3084 
Q 2600 3084 3056 2656 
Q 3513 2228 3513 1497 
Q 3513 744 3044 326 
Q 2575 -91 1722 -91 
Q 1428 -91 1123 -41 
Q 819 9 494 109 
L 494 744 
Q 775 591 1075 516 
Q 1375 441 1709 441 
Q 2250 441 2565 725 
Q 2881 1009 2881 1497 
Q 2881 1984 2565 2268 
Q 2250 2553 1709 2553 
Q 1456 2553 1204 2497 
Q 953 2441 691 2322 
L 691 4666 
z
" transform="scale(0.015625)"/>
     </defs>
     <use xlink:href="#DejaVuSans-30"/>
     <use xlink:href="#DejaVuSans-2e" x="63.623047"/>
     <use xlink:href="#DejaVuSans-34" x="95.410156"/>
     <use xlink:href="#DejaVuSans-35" x="159.033203"/>
     <use xlink:href="#DejaVuSans-35" x="222.65625"/>
     <use xlink:href="#DejaVuSans-35" x="286.279297"/>
    </g>
   </g>
  </g>
 </g>
 <defs>
  <clipPath id="pe21b2488ed">
   <rect x="27.978125" y="13.659976" width="673.270312" height="377.183774"/>
  </clipPath>
 </defs>
</svg>
