<?xml version="1.0" encoding="utf-8" standalone="no"?>
<!DOCTYPE svg PUBLIC "-//W3C//DTD SVG 1.1//EN"
  "http://www.w3.org/Graphics/SVG/1.1/DTD/svg11.dtd">
<svg xmlns:xlink="http://www.w3.org/1999/xlink" width="720pt" height="576pt" viewBox="0 0 720 576" xmlns="http://www.w3.org/2000/svg" version="1.1">
 <metadata>
  <rdf:RDF xmlns:dc="http://purl.org/dc/elements/1.1/" xmlns:cc="http://creativecommons.org/ns#" xmlns:rdf="http://www.w3.org/1999/02/22-rdf-syntax-ns#">
   <cc:Work>
    <dc:type rdf:resource="http://purl.org/dc/dcmitype/StillImage"/>
    <dc:date>2022-11-21T18:22:19.735595</dc:date>
    <dc:format>image/svg+xml</dc:format>
    <dc:creator>
     <cc:Agent>
      <dc:title>Matplotlib v3.6.1, https://matplotlib.org/</dc:title>
     </cc:Agent>
    </dc:creator>
   </cc:Work>
  </rdf:RDF>
 </metadata>
 <defs>
  <style type="text/css">*{stroke-linejoin: round; stroke-linecap: butt}</style>
 </defs>
 <g id="figure_1">
  <g id="patch_1">
   <path d="M 0 576 
L 720 576 
L 720 0 
L 0 0 
z
" style="fill: #ffffff"/>
  </g>
  <g id="axes_1">
   <g id="patch_2">
    <path d="M 42.495313 510.648438 
L 688.71456 510.648438 
L 688.71456 23.975621 
L 42.495313 23.975621 
z
" style="fill: #ffffff"/>
   </g>
   <g id="PolyCollection_1">
    <defs>
     <path id="m15bf181301" d="M 387.43778 -71.738345 
L 364.759624 -71.738345 
L 364.759624 -72.377023 
L 364.759624 -73.015701 
L 364.759624 -73.65438 
L 364.759624 -74.293058 
L 364.759624 -74.931736 
L 364.759624 -75.570414 
L 364.759624 -76.209093 
L 455.445788 -76.209093 
L 455.445788 -76.209093 
L 454.391903 -75.570414 
L 449.685499 -74.931736 
L 444.01948 -74.293058 
L 441.616321 -73.65438 
L 420.406289 -73.015701 
L 407.867076 -72.377023 
L 387.43778 -71.738345 
z
" style="stroke: #000000; stroke-opacity: 0.7"/>
    </defs>
    <g clip-path="url(#p926d17ea3d)">
     <use xlink:href="#m15bf181301" x="0" y="576" style="fill-opacity: 0.7; stroke: #000000; stroke-opacity: 0.7"/>
    </g>
   </g>
   <g id="PolyCollection_2">
    <defs>
     <path id="mc3a8eb3439" d="M 311.444968 -83.234553 
L 364.759624 -83.234553 
L 364.759624 -83.873231 
L 364.759624 -84.51191 
L 364.759624 -85.150588 
L 364.759624 -85.789266 
L 364.759624 -86.427944 
L 364.759624 -87.066623 
L 364.759624 -87.705301 
L 364.759624 -88.343979 
L 364.759624 -88.982657 
L 364.759624 -89.621335 
L 364.759624 -90.260014 
L 364.759624 -90.898692 
L 364.759624 -91.53737 
L 364.759624 -92.176048 
L 364.759624 -92.814727 
L 364.759624 -93.453405 
L 364.759624 -94.092083 
L 364.759624 -94.730761 
L 364.759624 -95.36944 
L 364.759624 -96.008118 
L 364.759624 -96.646796 
L 364.759624 -97.285474 
L 364.759624 -97.924153 
L 364.759624 -98.562831 
L 429.99536 -98.562831 
L 429.99536 -98.562831 
L 419.172605 -97.924153 
L 418.209129 -97.285474 
L 414.490758 -96.646796 
L 413.873282 -96.008118 
L 413.63217 -95.36944 
L 402.669169 -94.730761 
L 397.542205 -94.092083 
L 397.21748 -93.453405 
L 387.457043 -92.814727 
L 385.894554 -92.176048 
L 385.125631 -91.53737 
L 379.980547 -90.898692 
L 377.800074 -90.260014 
L 374.262612 -89.621335 
L 371.288599 -88.982657 
L 370.5297 -88.343979 
L 363.821576 -87.705301 
L 358.19997 -87.066623 
L 332.558144 -86.427944 
L 332.458845 -85.789266 
L 326.517536 -85.150588 
L 313.796446 -84.51191 
L 311.813925 -83.873231 
L 311.444968 -83.234553 
z
" style="stroke: #4300a2; stroke-opacity: 0.7"/>
    </defs>
    <g clip-path="url(#p926d17ea3d)">
     <use xlink:href="#mc3a8eb3439" x="0" y="576" style="fill: #4300a2; fill-opacity: 0.7; stroke: #4300a2; stroke-opacity: 0.7"/>
    </g>
   </g>
   <g id="PolyCollection_3">
    <defs>
     <path id="m5bea75dd8d" d="M 362.378697 -105.588291 
L 364.759624 -105.588291 
L 364.759624 -106.22697 
L 364.759624 -106.865648 
L 364.759624 -107.504326 
L 364.759624 -108.143004 
L 364.759624 -108.781683 
L 430.966562 -108.781683 
L 430.966562 -108.781683 
L 428.442061 -108.143004 
L 416.760343 -107.504326 
L 390.496816 -106.865648 
L 365.554091 -106.22697 
L 362.378697 -105.588291 
z
" style="stroke: #0078dd; stroke-opacity: 0.7"/>
    </defs>
    <g clip-path="url(#p926d17ea3d)">
     <use xlink:href="#m5bea75dd8d" x="0" y="576" style="fill: #0078dd; fill-opacity: 0.7; stroke: #0078dd; stroke-opacity: 0.7"/>
    </g>
   </g>
   <g id="PolyCollection_4">
    <defs>
     <path id="m1e495957c1" d="M 407.197616 -115.807143 
L 364.759624 -115.807143 
L 364.759624 -116.445821 
L 364.759624 -117.0845 
L 364.759624 -117.723178 
L 468.241224 -117.723178 
L 468.241224 -117.723178 
L 451.637454 -117.0845 
L 432.973016 -116.445821 
L 407.197616 -115.807143 
z
" style="stroke: #00aa98; stroke-opacity: 0.7"/>
    </defs>
    <g clip-path="url(#p926d17ea3d)">
     <use xlink:href="#m1e495957c1" x="0" y="576" style="fill: #00aa98; fill-opacity: 0.7; stroke: #00aa98; stroke-opacity: 0.7"/>
    </g>
   </g>
   <g id="PolyCollection_5">
    <defs>
     <path id="m9c11f6c1cc" d="M 290.414949 -124.748638 
L 364.759624 -124.748638 
L 364.759624 -125.387317 
L 364.759624 -126.025995 
L 364.759624 -126.664673 
L 364.759624 -127.303351 
L 364.759624 -127.94203 
L 364.759624 -128.580708 
L 364.759624 -129.219386 
L 364.759624 -129.858064 
L 364.759624 -130.496743 
L 364.759624 -131.135421 
L 364.759624 -131.774099 
L 364.759624 -132.412777 
L 364.759624 -133.051456 
L 364.759624 -133.690134 
L 364.759624 -134.328812 
L 364.759624 -134.96749 
L 364.759624 -135.606169 
L 364.759624 -136.244847 
L 364.759624 -136.883525 
L 364.759624 -137.522203 
L 364.759624 -138.160881 
L 364.759624 -138.79956 
L 364.759624 -139.438238 
L 364.759624 -140.076916 
L 364.759624 -140.715594 
L 364.759624 -141.354273 
L 364.759624 -141.992951 
L 364.759624 -142.631629 
L 364.759624 -143.270307 
L 364.759624 -143.908986 
L 364.759624 -144.547664 
L 364.759624 -145.186342 
L 364.759624 -145.82502 
L 364.759624 -146.463699 
L 364.759624 -147.102377 
L 364.759624 -147.741055 
L 364.759624 -148.379733 
L 364.759624 -149.018411 
L 364.759624 -149.65709 
L 364.759624 -150.295768 
L 364.759624 -150.934446 
L 364.759624 -151.573124 
L 364.759624 -152.211803 
L 364.759624 -152.850481 
L 364.759624 -153.489159 
L 364.759624 -154.127837 
L 364.759624 -154.766516 
L 364.759624 -155.405194 
L 364.759624 -156.043872 
L 364.759624 -156.68255 
L 364.759624 -157.321229 
L 364.759624 -157.959907 
L 364.759624 -158.598585 
L 364.759624 -159.237263 
L 364.759624 -159.875941 
L 364.759624 -160.51462 
L 364.759624 -161.153298 
L 364.759624 -161.791976 
L 364.759624 -162.430654 
L 364.759624 -163.069333 
L 364.759624 -163.708011 
L 364.759624 -164.346689 
L 364.759624 -164.985367 
L 364.759624 -165.624046 
L 364.759624 -166.262724 
L 364.759624 -166.901402 
L 364.759624 -167.54008 
L 364.759624 -168.178759 
L 364.759624 -168.817437 
L 364.759624 -169.456115 
L 364.759624 -170.094793 
L 364.759624 -170.733472 
L 364.759624 -171.37215 
L 364.759624 -172.010828 
L 364.759624 -172.649506 
L 364.759624 -173.288184 
L 364.759624 -173.926863 
L 364.759624 -174.565541 
L 364.759624 -175.204219 
L 364.759624 -175.842897 
L 364.759624 -176.481576 
L 364.759624 -177.120254 
L 364.759624 -177.758932 
L 364.759624 -178.39761 
L 364.759624 -179.036289 
L 364.759624 -179.674967 
L 364.759624 -180.313645 
L 364.759624 -180.952323 
L 364.759624 -181.591002 
L 364.759624 -182.22968 
L 364.759624 -182.868358 
L 364.759624 -183.507036 
L 364.759624 -184.145714 
L 364.759624 -184.784393 
L 364.759624 -185.423071 
L 364.759624 -186.061749 
L 364.759624 -186.700427 
L 364.759624 -187.339106 
L 364.759624 -187.977784 
L 364.759624 -188.616462 
L 364.759624 -189.25514 
L 364.759624 -189.893819 
L 364.759624 -190.532497 
L 364.759624 -191.171175 
L 364.759624 -191.809853 
L 364.759624 -192.448532 
L 364.759624 -193.08721 
L 364.759624 -193.725888 
L 364.759624 -194.364566 
L 364.759624 -195.003245 
L 364.759624 -195.641923 
L 364.759624 -196.280601 
L 364.759624 -196.919279 
L 364.759624 -197.557957 
L 364.759624 -198.196636 
L 364.759624 -198.835314 
L 364.759624 -199.473992 
L 364.759624 -200.11267 
L 364.759624 -200.751349 
L 364.759624 -201.390027 
L 364.759624 -202.028705 
L 364.759624 -202.667383 
L 364.759624 -203.306062 
L 364.759624 -203.94474 
L 364.759624 -204.583418 
L 364.759624 -205.222096 
L 364.759624 -205.860775 
L 364.759624 -206.499453 
L 364.759624 -207.138131 
L 364.759624 -207.776809 
L 364.759624 -208.415487 
L 364.759624 -209.054166 
L 364.759624 -209.692844 
L 364.759624 -210.331522 
L 364.759624 -210.9702 
L 364.759624 -211.608879 
L 364.759624 -212.247557 
L 364.759624 -212.886235 
L 364.759624 -213.524913 
L 364.759624 -214.163592 
L 364.759624 -214.80227 
L 364.759624 -215.440948 
L 364.759624 -216.079626 
L 364.759624 -216.718305 
L 364.759624 -217.356983 
L 364.759624 -217.995661 
L 364.759624 -218.634339 
L 364.759624 -219.273017 
L 364.759624 -219.911696 
L 364.759624 -220.550374 
L 364.759624 -221.189052 
L 364.759624 -221.82773 
L 364.759624 -222.466409 
L 364.759624 -223.105087 
L 364.759624 -223.743765 
L 516.434493 -223.743765 
L 516.434493 -223.743765 
L 513.370065 -223.105087 
L 510.506255 -222.466409 
L 510.47988 -221.82773 
L 509.023342 -221.189052 
L 507.274764 -220.550374 
L 504.048034 -219.911696 
L 503.40869 -219.273017 
L 501.003666 -218.634339 
L 500.000088 -217.995661 
L 499.252326 -217.356983 
L 499.099867 -216.718305 
L 498.292578 -216.079626 
L 498.035967 -215.440948 
L 496.588083 -214.80227 
L 495.609089 -214.163592 
L 495.185659 -213.524913 
L 494.839252 -212.886235 
L 494.809925 -212.247557 
L 494.493935 -211.608879 
L 493.341071 -210.9702 
L 492.477054 -210.331522 
L 491.562895 -209.692844 
L 491.539185 -209.054166 
L 490.46975 -208.415487 
L 488.901588 -207.776809 
L 488.031518 -207.138131 
L 487.96229 -206.499453 
L 487.725067 -205.860775 
L 487.633188 -205.222096 
L 486.887854 -204.583418 
L 486.85221 -203.94474 
L 486.710976 -203.306062 
L 486.426046 -202.667383 
L 486.203984 -202.028705 
L 485.453413 -201.390027 
L 485.407134 -200.751349 
L 483.104797 -200.11267 
L 482.88822 -199.473992 
L 481.290432 -198.835314 
L 480.114854 -198.196636 
L 479.789814 -197.557957 
L 479.625482 -196.919279 
L 479.6051 -196.280601 
L 479.165976 -195.641923 
L 479.045819 -195.003245 
L 477.947361 -194.364566 
L 477.764084 -193.725888 
L 477.471934 -193.08721 
L 476.883179 -192.448532 
L 476.756197 -191.809853 
L 475.8596 -191.171175 
L 475.783002 -190.532497 
L 475.461719 -189.893819 
L 475.340078 -189.25514 
L 475.189537 -188.616462 
L 475.109187 -187.977784 
L 474.954342 -187.339106 
L 474.754144 -186.700427 
L 474.168622 -186.061749 
L 473.786582 -185.423071 
L 473.666551 -184.784393 
L 473.144691 -184.145714 
L 473.140794 -183.507036 
L 472.24245 -182.868358 
L 472.23246 -182.22968 
L 471.266816 -181.591002 
L 467.28399 -180.952323 
L 466.907465 -180.313645 
L 466.693453 -179.674967 
L 465.815255 -179.036289 
L 465.252688 -178.39761 
L 464.941414 -177.758932 
L 464.874716 -177.120254 
L 463.819672 -176.481576 
L 463.512931 -175.842897 
L 463.507207 -175.204219 
L 462.031298 -174.565541 
L 461.916556 -173.926863 
L 461.808685 -173.288184 
L 461.604007 -172.649506 
L 461.403232 -172.010828 
L 461.321455 -171.37215 
L 459.917091 -170.733472 
L 459.558628 -170.094793 
L 459.340189 -169.456115 
L 459.077446 -168.817437 
L 458.956702 -168.178759 
L 458.524465 -167.54008 
L 457.955377 -166.901402 
L 456.89665 -166.262724 
L 456.552381 -165.624046 
L 453.59766 -164.985367 
L 453.105544 -164.346689 
L 452.164485 -163.708011 
L 452.05692 -163.069333 
L 451.544566 -162.430654 
L 451.479844 -161.791976 
L 450.419694 -161.153298 
L 449.498288 -160.51462 
L 449.345065 -159.875941 
L 449.157607 -159.237263 
L 448.494453 -158.598585 
L 447.755619 -157.959907 
L 446.665617 -157.321229 
L 446.413918 -156.68255 
L 446.407834 -156.043872 
L 446.326922 -155.405194 
L 446.170441 -154.766516 
L 446.140347 -154.127837 
L 445.996002 -153.489159 
L 445.847491 -152.850481 
L 445.396099 -152.211803 
L 445.231298 -151.573124 
L 445.123278 -150.934446 
L 444.632987 -150.295768 
L 444.526342 -149.65709 
L 443.632895 -149.018411 
L 441.539911 -148.379733 
L 441.441543 -147.741055 
L 439.412732 -147.102377 
L 438.988434 -146.463699 
L 438.713678 -145.82502 
L 437.122346 -145.186342 
L 435.682117 -144.547664 
L 435.655212 -143.908986 
L 434.437275 -143.270307 
L 432.190264 -142.631629 
L 430.764638 -141.992951 
L 427.808096 -141.354273 
L 427.663533 -140.715594 
L 425.019932 -140.076916 
L 424.899128 -139.438238 
L 424.780432 -138.79956 
L 423.933316 -138.160881 
L 422.741882 -137.522203 
L 421.149247 -136.883525 
L 420.823762 -136.244847 
L 420.515839 -135.606169 
L 419.190767 -134.96749 
L 419.119269 -134.328812 
L 418.506387 -133.690134 
L 417.88738 -133.051456 
L 403.057317 -132.412777 
L 400.56071 -131.774099 
L 400.37362 -131.135421 
L 391.708282 -130.496743 
L 388.349738 -129.858064 
L 379.543819 -129.219386 
L 377.416031 -128.580708 
L 375.100974 -127.94203 
L 362.123777 -127.303351 
L 341.070504 -126.664673 
L 340.093954 -126.025995 
L 297.987505 -125.387317 
L 290.414949 -124.748638 
z
" style="stroke: #00bc00; stroke-opacity: 0.7"/>
    </defs>
    <g clip-path="url(#p926d17ea3d)">
     <use xlink:href="#m9c11f6c1cc" x="0" y="576" style="fill: #00bc00; fill-opacity: 0.7; stroke: #00bc00; stroke-opacity: 0.7"/>
    </g>
   </g>
   <g id="PolyCollection_6">
    <defs>
     <path id="m3d31e08d69" d="M 626.922411 -230.769226 
L 364.759624 -230.769226 
L 364.759624 -231.407904 
L 364.759624 -232.046582 
L 364.759624 -232.68526 
L 364.759624 -233.323939 
L 364.759624 -233.962617 
L 364.759624 -234.601295 
L 364.759624 -235.239973 
L 364.759624 -235.878652 
L 364.759624 -236.51733 
L 364.759624 -237.156008 
L 364.759624 -237.794686 
L 364.759624 -238.433365 
L 364.759624 -239.072043 
L 364.759624 -239.710721 
L 364.759624 -240.349399 
L 364.759624 -240.988078 
L 364.759624 -241.626756 
L 364.759624 -242.265434 
L 364.759624 -242.904112 
L 364.759624 -243.54279 
L 364.759624 -244.181469 
L 364.759624 -244.820147 
L 364.759624 -245.458825 
L 364.759624 -246.097503 
L 364.759624 -246.736182 
L 364.759624 -247.37486 
L 364.759624 -248.013538 
L 364.759624 -248.652216 
L 364.759624 -249.290895 
L 364.759624 -249.929573 
L 364.759624 -250.568251 
L 364.759624 -251.206929 
L 364.759624 -251.845608 
L 364.759624 -252.484286 
L 364.759624 -253.122964 
L 364.759624 -253.761642 
L 364.759624 -254.40032 
L 364.759624 -255.038999 
L 364.759624 -255.677677 
L 364.759624 -256.316355 
L 364.759624 -256.955033 
L 364.759624 -257.593712 
L 364.759624 -258.23239 
L 364.759624 -258.871068 
L 364.759624 -259.509746 
L 364.759624 -260.148425 
L 364.759624 -260.787103 
L 364.759624 -261.425781 
L 364.759624 -262.064459 
L 364.759624 -262.703138 
L 364.759624 -263.341816 
L 364.759624 -263.980494 
L 364.759624 -264.619172 
L 364.759624 -265.257851 
L 364.759624 -265.896529 
L 364.759624 -266.535207 
L 364.759624 -267.173885 
L 364.759624 -267.812563 
L 364.759624 -268.451242 
L 364.759624 -269.08992 
L 364.759624 -269.728598 
L 364.759624 -270.367276 
L 364.759624 -271.005955 
L 364.759624 -271.644633 
L 364.759624 -272.283311 
L 364.759624 -272.921989 
L 364.759624 -273.560668 
L 364.759624 -274.199346 
L 364.759624 -274.838024 
L 364.759624 -275.476702 
L 364.759624 -276.115381 
L 364.759624 -276.754059 
L 364.759624 -277.392737 
L 364.759624 -278.031415 
L 364.759624 -278.670093 
L 364.759624 -279.308772 
L 364.759624 -279.94745 
L 364.759624 -280.586128 
L 364.759624 -281.224806 
L 364.759624 -281.863485 
L 364.759624 -282.502163 
L 364.759624 -283.140841 
L 364.759624 -283.779519 
L 364.759624 -284.418198 
L 364.759624 -285.056876 
L 364.759624 -285.695554 
L 364.759624 -286.334232 
L 364.759624 -286.972911 
L 364.759624 -287.611589 
L 364.759624 -288.250267 
L 364.759624 -288.888945 
L 364.759624 -289.527624 
L 364.759624 -290.166302 
L 364.759624 -290.80498 
L 364.759624 -291.443658 
L 364.759624 -292.082336 
L 364.759624 -292.721015 
L 364.759624 -293.359693 
L 364.759624 -293.998371 
L 364.759624 -294.637049 
L 364.759624 -295.275728 
L 364.759624 -295.914406 
L 364.759624 -296.553084 
L 364.759624 -297.191762 
L 364.759624 -297.830441 
L 364.759624 -298.469119 
L 364.759624 -299.107797 
L 364.759624 -299.746475 
L 364.759624 -300.385154 
L 364.759624 -301.023832 
L 364.759624 -301.66251 
L 364.759624 -302.301188 
L 364.759624 -302.939866 
L 364.759624 -303.578545 
L 364.759624 -304.217223 
L 364.759624 -304.855901 
L 364.759624 -305.494579 
L 364.759624 -306.133258 
L 364.759624 -306.771936 
L 364.759624 -307.410614 
L 364.759624 -308.049292 
L 364.759624 -308.687971 
L 364.759624 -309.326649 
L 364.759624 -309.965327 
L 364.759624 -310.604005 
L 364.759624 -311.242684 
L 364.759624 -311.881362 
L 364.759624 -312.52004 
L 364.759624 -313.158718 
L 364.759624 -313.797396 
L 364.759624 -314.436075 
L 364.759624 -315.074753 
L 364.759624 -315.713431 
L 364.759624 -316.352109 
L 364.759624 -316.990788 
L 364.759624 -317.629466 
L 364.759624 -318.268144 
L 364.759624 -318.906822 
L 364.759624 -319.545501 
L 364.759624 -320.184179 
L 364.759624 -320.822857 
L 364.759624 -321.461535 
L 364.759624 -322.100214 
L 364.759624 -322.738892 
L 364.759624 -323.37757 
L 364.759624 -324.016248 
L 364.759624 -324.654927 
L 364.759624 -325.293605 
L 364.759624 -325.932283 
L 364.759624 -326.570961 
L 364.759624 -327.209639 
L 364.759624 -327.848318 
L 364.759624 -328.486996 
L 364.759624 -329.125674 
L 364.759624 -329.764352 
L 364.759624 -330.403031 
L 364.759624 -331.041709 
L 364.759624 -331.680387 
L 364.759624 -332.319065 
L 364.759624 -332.957744 
L 364.759624 -333.596422 
L 364.759624 -334.2351 
L 364.759624 -334.873778 
L 364.759624 -335.512457 
L 364.759624 -336.151135 
L 364.759624 -336.789813 
L 364.759624 -337.428491 
L 364.759624 -338.067169 
L 364.759624 -338.705848 
L 364.759624 -339.344526 
L 364.759624 -339.983204 
L 364.759624 -340.621882 
L 364.759624 -341.260561 
L 364.759624 -341.899239 
L 364.759624 -342.537917 
L 364.759624 -343.176595 
L 364.759624 -343.815274 
L 364.759624 -344.453952 
L 364.759624 -345.09263 
L 364.759624 -345.731308 
L 364.759624 -346.369987 
L 364.759624 -347.008665 
L 364.759624 -347.647343 
L 364.759624 -348.286021 
L 364.759624 -348.924699 
L 364.759624 -349.563378 
L 364.759624 -350.202056 
L 364.759624 -350.840734 
L 364.759624 -351.479412 
L 364.759624 -352.118091 
L 364.759624 -352.756769 
L 364.759624 -353.395447 
L 364.759624 -354.034125 
L 364.759624 -354.672804 
L 364.759624 -355.311482 
L 364.759624 -355.95016 
L 364.759624 -356.588838 
L 364.759624 -357.227517 
L 364.759624 -357.866195 
L 364.759624 -358.504873 
L 364.759624 -359.143551 
L 364.759624 -359.78223 
L 364.759624 -360.420908 
L 364.759624 -361.059586 
L 364.759624 -361.698264 
L 364.759624 -362.336942 
L 364.759624 -362.975621 
L 364.759624 -363.614299 
L 364.759624 -364.252977 
L 364.759624 -364.891655 
L 364.759624 -365.530334 
L 364.759624 -366.169012 
L 364.759624 -366.80769 
L 364.759624 -367.446368 
L 364.759624 -368.085047 
L 364.759624 -368.723725 
L 364.759624 -369.362403 
L 364.759624 -370.001081 
L 364.759624 -370.63976 
L 364.759624 -371.278438 
L 364.759624 -371.917116 
L 364.759624 -372.555794 
L 364.759624 -373.194472 
L 364.759624 -373.833151 
L 364.759624 -374.471829 
L 364.759624 -375.110507 
L 364.759624 -375.749185 
L 364.759624 -376.387864 
L 364.759624 -377.026542 
L 364.759624 -377.66522 
L 364.759624 -378.303898 
L 364.759624 -378.942577 
L 364.759624 -379.581255 
L 364.759624 -380.219933 
L 364.759624 -380.858611 
L 364.759624 -381.49729 
L 364.759624 -382.135968 
L 364.759624 -382.774646 
L 364.759624 -383.413324 
L 364.759624 -384.052002 
L 364.759624 -384.690681 
L 364.759624 -385.329359 
L 364.759624 -385.968037 
L 364.759624 -386.606715 
L 364.759624 -387.245394 
L 364.759624 -387.884072 
L 364.759624 -388.52275 
L 364.759624 -389.161428 
L 364.759624 -389.800107 
L 364.759624 -390.438785 
L 364.759624 -391.077463 
L 364.759624 -391.716141 
L 364.759624 -392.35482 
L 364.759624 -392.993498 
L 364.759624 -393.632176 
L 364.759624 -394.270854 
L 364.759624 -394.909533 
L 364.759624 -395.548211 
L 364.759624 -396.186889 
L 364.759624 -396.825567 
L 364.759624 -397.464245 
L 364.759624 -398.102924 
L 364.759624 -398.741602 
L 364.759624 -399.38028 
L 364.759624 -400.018958 
L 364.759624 -400.657637 
L 364.759624 -401.296315 
L 364.759624 -401.934993 
L 364.759624 -402.573671 
L 364.759624 -403.21235 
L 364.759624 -403.851028 
L 364.759624 -404.489706 
L 364.759624 -405.128384 
L 364.759624 -405.767063 
L 364.759624 -406.405741 
L 364.759624 -407.044419 
L 364.759624 -407.683097 
L 364.759624 -408.321775 
L 364.759624 -408.960454 
L 364.759624 -409.599132 
L 364.759624 -410.23781 
L 364.759624 -410.876488 
L 364.759624 -411.515167 
L 364.759624 -412.153845 
L 364.759624 -412.792523 
L 364.759624 -413.431201 
L 364.759624 -414.06988 
L 364.759624 -414.708558 
L 364.759624 -415.347236 
L 364.759624 -415.985914 
L 364.759624 -416.624593 
L 364.759624 -417.263271 
L 364.759624 -417.901949 
L 364.759624 -418.540627 
L 364.759624 -419.179306 
L 364.759624 -419.817984 
L 364.759624 -420.456662 
L 364.759624 -421.09534 
L 364.759624 -421.734018 
L 364.759624 -422.372697 
L 364.759624 -423.011375 
L 364.759624 -423.650053 
L 364.759624 -424.288731 
L 364.759624 -424.92741 
L 364.759624 -425.566088 
L 364.759624 -426.204766 
L 364.759624 -426.843444 
L 364.759624 -427.482123 
L 364.759624 -428.120801 
L 364.759624 -428.759479 
L 364.759624 -429.398157 
L 364.759624 -430.036836 
L 364.759624 -430.675514 
L 364.759624 -431.314192 
L 364.759624 -431.95287 
L 364.759624 -432.591548 
L 364.759624 -433.230227 
L 364.759624 -433.868905 
L 364.759624 -434.507583 
L 364.759624 -435.146261 
L 364.759624 -435.78494 
L 364.759624 -436.423618 
L 364.759624 -437.062296 
L 364.759624 -437.700974 
L 364.759624 -438.339653 
L 364.759624 -438.978331 
L 364.759624 -439.617009 
L 364.759624 -440.255687 
L 364.759624 -440.894366 
L 364.759624 -441.533044 
L 364.759624 -442.171722 
L 364.759624 -442.8104 
L 364.759624 -443.449078 
L 364.759624 -444.087757 
L 364.759624 -444.726435 
L 364.759624 -445.365113 
L 364.759624 -446.003791 
L 364.759624 -446.64247 
L 364.759624 -447.281148 
L 364.759624 -447.919826 
L 364.759624 -448.558504 
L 364.759624 -449.197183 
L 364.759624 -449.835861 
L 364.759624 -450.474539 
L 364.759624 -451.113217 
L 364.759624 -451.751896 
L 364.759624 -452.390574 
L 364.759624 -453.029252 
L 364.759624 -453.66793 
L 364.759624 -454.306609 
L 364.759624 -454.945287 
L 364.759624 -455.583965 
L 364.759624 -456.222643 
L 364.759624 -456.861321 
L 364.759624 -457.5 
L 364.759624 -458.138678 
L 364.759624 -458.777356 
L 364.759624 -459.416034 
L 364.759624 -460.054713 
L 364.759624 -460.693391 
L 364.759624 -461.332069 
L 364.759624 -461.970747 
L 364.759624 -462.609426 
L 364.759624 -463.248104 
L 364.759624 -463.886782 
L 364.759624 -464.52546 
L 364.759624 -465.164139 
L 364.759624 -465.802817 
L 364.759624 -466.441495 
L 364.759624 -467.080173 
L 364.759624 -467.718851 
L 364.759624 -468.35753 
L 364.759624 -468.996208 
L 364.759624 -469.634886 
L 364.759624 -470.273564 
L 364.759624 -470.912243 
L 364.759624 -471.550921 
L 364.759624 -472.189599 
L 364.759624 -472.828277 
L 364.759624 -473.466956 
L 364.759624 -474.105634 
L 364.759624 -474.744312 
L 364.759624 -475.38299 
L 364.759624 -476.021669 
L 364.759624 -476.660347 
L 364.759624 -477.299025 
L 364.759624 -477.937703 
L 364.759624 -478.576381 
L 364.759624 -479.21506 
L 364.759624 -479.853738 
L 364.759624 -480.492416 
L 364.759624 -481.131094 
L 364.759624 -481.769773 
L 364.759624 -482.408451 
L 364.759624 -483.047129 
L 364.759624 -483.685807 
L 364.759624 -484.324486 
L 364.759624 -484.963164 
L 364.759624 -485.601842 
L 364.759624 -486.24052 
L 364.759624 -486.879199 
L 364.759624 -487.517877 
L 364.759624 -488.156555 
L 364.759624 -488.795233 
L 364.759624 -489.433912 
L 364.759624 -490.07259 
L 364.759624 -490.711268 
L 364.759624 -491.349946 
L 364.759624 -491.988624 
L 364.759624 -492.627303 
L 364.759624 -493.265981 
L 364.759624 -493.904659 
L 364.759624 -494.543337 
L 364.759624 -495.182016 
L 364.759624 -495.820694 
L 364.759624 -496.459372 
L 364.759624 -497.09805 
L 364.759624 -497.736729 
L 364.759624 -498.375407 
L 364.759624 -499.014085 
L 364.759624 -499.652763 
L 364.759624 -500.291442 
L 364.759624 -500.93012 
L 364.759624 -501.568798 
L 364.759624 -502.207476 
L 364.759624 -502.846154 
L 364.759624 -503.484833 
L 364.759624 -504.123511 
L 364.759624 -504.762189 
L 364.759624 -505.400867 
L 364.759624 -506.039546 
L 364.759624 -506.678224 
L 364.759624 -507.316902 
L 364.759624 -507.95558 
L 364.759624 -508.594259 
L 364.759624 -509.232937 
L 364.759624 -509.871615 
L 364.759624 -510.510293 
L 364.759624 -511.148972 
L 364.759624 -511.78765 
L 364.759624 -512.426328 
L 364.759624 -513.065006 
L 364.759624 -513.703685 
L 364.759624 -514.342363 
L 364.759624 -514.981041 
L 364.759624 -515.619719 
L 364.759624 -516.258397 
L 364.759624 -516.897076 
L 364.759624 -517.535754 
L 364.759624 -518.174432 
L 364.759624 -518.81311 
L 364.759624 -519.451789 
L 364.759624 -520.090467 
L 364.759624 -520.729145 
L 364.759624 -521.367823 
L 364.759624 -522.006502 
L 364.759624 -522.64518 
L 364.759624 -523.283858 
L 364.759624 -523.922536 
L 364.759624 -524.561215 
L 364.759624 -525.199893 
L 364.759624 -525.838571 
L 364.759624 -526.477249 
L 364.759624 -527.115927 
L 364.759624 -527.754606 
L 364.759624 -528.393284 
L 364.759624 -529.031962 
L 364.759624 -529.67064 
L 364.759624 -530.309319 
L 364.759624 -530.947997 
L 669.747912 -530.947997 
L 669.747912 -530.947997 
L 669.641725 -530.309319 
L 668.99654 -529.67064 
L 668.899885 -529.031962 
L 668.872348 -528.393284 
L 668.731891 -527.754606 
L 668.723212 -527.115927 
L 668.496003 -526.477249 
L 668.485731 -525.838571 
L 668.431318 -525.199893 
L 668.07073 -524.561215 
L 667.942336 -523.922536 
L 667.919451 -523.283858 
L 667.792491 -522.64518 
L 667.758653 -522.006502 
L 667.701778 -521.367823 
L 667.675881 -520.729145 
L 667.648371 -520.090467 
L 667.614548 -519.451789 
L 667.514886 -518.81311 
L 667.495737 -518.174432 
L 667.470595 -517.535754 
L 667.466002 -516.897076 
L 667.450894 -516.258397 
L 667.387738 -515.619719 
L 667.376553 -514.981041 
L 667.369036 -514.342363 
L 667.114231 -513.703685 
L 667.112074 -513.065006 
L 667.080998 -512.426328 
L 667.060628 -511.78765 
L 667.043326 -511.148972 
L 667.036572 -510.510293 
L 667.019907 -509.871615 
L 666.981047 -509.232937 
L 666.953082 -508.594259 
L 666.906835 -507.95558 
L 666.877138 -507.316902 
L 666.86247 -506.678224 
L 666.852434 -506.039546 
L 666.806899 -505.400867 
L 666.640624 -504.762189 
L 666.585573 -504.123511 
L 666.540299 -503.484833 
L 666.493605 -502.846154 
L 666.472755 -502.207476 
L 666.441282 -501.568798 
L 666.424121 -500.93012 
L 666.401807 -500.291442 
L 666.401696 -499.652763 
L 666.395807 -499.014085 
L 666.380094 -498.375407 
L 666.366119 -497.736729 
L 666.350331 -497.09805 
L 666.339616 -496.459372 
L 666.317392 -495.820694 
L 666.301556 -495.182016 
L 666.29828 -494.543337 
L 666.296722 -493.904659 
L 666.283344 -493.265981 
L 666.282359 -492.627303 
L 666.268668 -491.988624 
L 666.266969 -491.349946 
L 666.260871 -490.711268 
L 666.259337 -490.07259 
L 666.23975 -489.433912 
L 666.222504 -488.795233 
L 666.204955 -488.156555 
L 666.178218 -487.517877 
L 666.167857 -486.879199 
L 666.144114 -486.24052 
L 666.095028 -485.601842 
L 666.02822 -484.963164 
L 666.025703 -484.324486 
L 666.014657 -483.685807 
L 666.01096 -483.047129 
L 665.999354 -482.408451 
L 665.990132 -481.769773 
L 665.955361 -481.131094 
L 665.946603 -480.492416 
L 665.940136 -479.853738 
L 665.895564 -479.21506 
L 665.888437 -478.576381 
L 665.887474 -477.937703 
L 665.863512 -477.299025 
L 665.859004 -476.660347 
L 665.841158 -476.021669 
L 665.814877 -475.38299 
L 665.686965 -474.744312 
L 665.674229 -474.105634 
L 665.602945 -473.466956 
L 665.59136 -472.828277 
L 665.584255 -472.189599 
L 665.578563 -471.550921 
L 665.556373 -470.912243 
L 665.539093 -470.273564 
L 665.52199 -469.634886 
L 665.518473 -468.996208 
L 665.500491 -468.35753 
L 665.476522 -467.718851 
L 665.454991 -467.080173 
L 665.449953 -466.441495 
L 665.438591 -465.802817 
L 665.429289 -465.164139 
L 665.336368 -464.52546 
L 665.326268 -463.886782 
L 665.30603 -463.248104 
L 665.282503 -462.609426 
L 665.270054 -461.970747 
L 665.228934 -461.332069 
L 665.210391 -460.693391 
L 665.189008 -460.054713 
L 665.172472 -459.416034 
L 665.148169 -458.777356 
L 665.140671 -458.138678 
L 665.083589 -457.5 
L 665.05524 -456.861321 
L 665.029896 -456.222643 
L 665.026209 -455.583965 
L 665.008322 -454.945287 
L 665.00048 -454.306609 
L 664.966042 -453.66793 
L 664.950058 -453.029252 
L 664.915812 -452.390574 
L 664.898375 -451.751896 
L 664.882341 -451.113217 
L 664.820481 -450.474539 
L 664.761059 -449.835861 
L 664.735455 -449.197183 
L 664.727768 -448.558504 
L 664.719683 -447.919826 
L 664.714495 -447.281148 
L 664.694508 -446.64247 
L 664.688563 -446.003791 
L 664.616176 -445.365113 
L 664.561304 -444.726435 
L 664.551232 -444.087757 
L 664.537658 -443.449078 
L 664.530401 -442.8104 
L 664.471149 -442.171722 
L 664.45272 -441.533044 
L 664.425069 -440.894366 
L 664.419662 -440.255687 
L 664.354834 -439.617009 
L 664.344466 -438.978331 
L 664.327762 -438.339653 
L 664.297275 -437.700974 
L 664.282533 -437.062296 
L 664.18516 -436.423618 
L 664.168956 -435.78494 
L 664.167478 -435.146261 
L 664.154692 -434.507583 
L 664.130828 -433.868905 
L 664.108539 -433.230227 
L 664.101287 -432.591548 
L 664.087552 -431.95287 
L 664.043215 -431.314192 
L 664.031913 -430.675514 
L 664.019433 -430.036836 
L 663.911218 -429.398157 
L 663.843263 -428.759479 
L 663.817789 -428.120801 
L 663.814557 -427.482123 
L 663.810779 -426.843444 
L 663.79024 -426.204766 
L 663.771973 -425.566088 
L 663.762233 -424.92741 
L 663.758548 -424.288731 
L 663.732802 -423.650053 
L 663.721352 -423.011375 
L 663.689083 -422.372697 
L 663.641567 -421.734018 
L 663.633453 -421.09534 
L 663.573955 -420.456662 
L 663.565563 -419.817984 
L 663.54486 -419.179306 
L 663.531249 -418.540627 
L 663.5127 -417.901949 
L 663.505998 -417.263271 
L 663.462507 -416.624593 
L 663.452208 -415.985914 
L 663.423781 -415.347236 
L 663.41927 -414.708558 
L 663.35476 -414.06988 
L 663.347903 -413.431201 
L 663.325968 -412.792523 
L 663.309393 -412.153845 
L 663.243959 -411.515167 
L 663.221351 -410.876488 
L 663.174384 -410.23781 
L 663.11585 -409.599132 
L 663.094318 -408.960454 
L 663.06319 -408.321775 
L 663.038489 -407.683097 
L 662.946943 -407.044419 
L 662.917961 -406.405741 
L 662.861472 -405.767063 
L 662.812599 -405.128384 
L 662.808119 -404.489706 
L 662.775364 -403.851028 
L 662.754805 -403.21235 
L 662.75271 -402.573671 
L 662.694514 -401.934993 
L 662.615651 -401.296315 
L 662.568682 -400.657637 
L 662.451849 -400.018958 
L 662.444715 -399.38028 
L 662.421524 -398.741602 
L 662.411128 -398.102924 
L 662.378457 -397.464245 
L 662.359467 -396.825567 
L 662.312328 -396.186889 
L 662.307554 -395.548211 
L 662.291407 -394.909533 
L 662.289704 -394.270854 
L 662.223411 -393.632176 
L 662.21905 -392.993498 
L 662.218398 -392.35482 
L 662.202246 -391.716141 
L 662.185594 -391.077463 
L 662.040534 -390.438785 
L 662.024556 -389.800107 
L 662.015355 -389.161428 
L 661.980104 -388.52275 
L 661.965645 -387.884072 
L 661.9587 -387.245394 
L 661.91345 -386.606715 
L 661.895253 -385.968037 
L 661.88787 -385.329359 
L 661.881279 -384.690681 
L 661.858553 -384.052002 
L 661.850886 -383.413324 
L 661.836211 -382.774646 
L 661.812232 -382.135968 
L 661.786442 -381.49729 
L 661.779849 -380.858611 
L 661.73329 -380.219933 
L 661.729548 -379.581255 
L 661.696916 -378.942577 
L 661.68338 -378.303898 
L 661.622101 -377.66522 
L 661.605662 -377.026542 
L 661.586459 -376.387864 
L 661.553714 -375.749185 
L 661.526558 -375.110507 
L 661.523007 -374.471829 
L 661.471634 -373.833151 
L 661.460746 -373.194472 
L 661.442057 -372.555794 
L 661.373263 -371.917116 
L 661.297858 -371.278438 
L 661.239757 -370.63976 
L 661.190332 -370.001081 
L 661.043689 -369.362403 
L 660.835783 -368.723725 
L 660.650732 -368.085047 
L 660.591701 -367.446368 
L 660.550913 -366.80769 
L 660.37072 -366.169012 
L 660.32649 -365.530334 
L 660.309152 -364.891655 
L 660.195513 -364.252977 
L 660.163085 -363.614299 
L 660.145413 -362.975621 
L 660.134904 -362.336942 
L 660.059845 -361.698264 
L 660.045471 -361.059586 
L 660.00193 -360.420908 
L 659.954194 -359.78223 
L 659.94388 -359.143551 
L 659.941166 -358.504873 
L 659.940325 -357.866195 
L 659.920618 -357.227517 
L 659.907295 -356.588838 
L 659.899077 -355.95016 
L 659.870172 -355.311482 
L 659.819902 -354.672804 
L 659.809999 -354.034125 
L 659.793141 -353.395447 
L 659.785252 -352.756769 
L 659.767187 -352.118091 
L 659.758635 -351.479412 
L 659.646767 -350.840734 
L 659.622188 -350.202056 
L 659.621516 -349.563378 
L 659.618115 -348.924699 
L 659.599716 -348.286021 
L 659.582097 -347.647343 
L 659.579639 -347.008665 
L 659.561238 -346.369987 
L 659.549195 -345.731308 
L 659.49396 -345.09263 
L 659.487299 -344.453952 
L 659.46759 -343.815274 
L 659.43431 -343.176595 
L 659.431129 -342.537917 
L 659.429411 -341.899239 
L 659.42858 -341.260561 
L 659.387563 -340.621882 
L 659.386372 -339.983204 
L 659.377229 -339.344526 
L 659.373918 -338.705848 
L 659.337865 -338.067169 
L 659.256845 -337.428491 
L 659.221202 -336.789813 
L 659.214991 -336.151135 
L 659.202977 -335.512457 
L 659.167568 -334.873778 
L 659.121273 -334.2351 
L 659.117218 -333.596422 
L 659.102114 -332.957744 
L 659.06034 -332.319065 
L 659.051337 -331.680387 
L 659.045688 -331.041709 
L 659.010711 -330.403031 
L 659.002145 -329.764352 
L 658.983603 -329.125674 
L 658.926401 -328.486996 
L 658.845407 -327.848318 
L 658.763089 -327.209639 
L 658.642337 -326.570961 
L 658.55974 -325.932283 
L 658.418342 -325.293605 
L 658.331135 -324.654927 
L 658.303219 -324.016248 
L 658.179116 -323.37757 
L 658.160619 -322.738892 
L 658.110695 -322.100214 
L 658.082132 -321.461535 
L 658.031652 -320.822857 
L 657.968765 -320.184179 
L 657.912436 -319.545501 
L 657.904266 -318.906822 
L 657.884323 -318.268144 
L 657.679886 -317.629466 
L 657.628112 -316.990788 
L 657.558585 -316.352109 
L 657.556047 -315.713431 
L 657.535927 -315.074753 
L 657.52086 -314.436075 
L 657.510303 -313.797396 
L 657.491387 -313.158718 
L 657.394597 -312.52004 
L 657.373546 -311.881362 
L 657.372241 -311.242684 
L 657.369923 -310.604005 
L 657.350415 -309.965327 
L 657.344085 -309.326649 
L 657.284055 -308.687971 
L 657.176183 -308.049292 
L 657.054194 -307.410614 
L 657.051885 -306.771936 
L 657.051697 -306.133258 
L 657.007375 -305.494579 
L 657.007234 -304.855901 
L 656.988895 -304.217223 
L 656.93418 -303.578545 
L 656.826016 -302.939866 
L 656.825162 -302.301188 
L 656.819355 -301.66251 
L 656.790746 -301.023832 
L 656.723862 -300.385154 
L 656.723857 -299.746475 
L 656.685241 -299.107797 
L 656.61599 -298.469119 
L 656.531927 -297.830441 
L 656.429172 -297.191762 
L 656.414111 -296.553084 
L 656.372658 -295.914406 
L 656.363018 -295.275728 
L 656.349196 -294.637049 
L 656.337975 -293.998371 
L 656.291157 -293.359693 
L 656.243399 -292.721015 
L 656.202846 -292.082336 
L 656.037087 -291.443658 
L 655.999148 -290.80498 
L 655.849616 -290.166302 
L 655.816071 -289.527624 
L 655.631881 -288.888945 
L 655.62989 -288.250267 
L 655.220652 -287.611589 
L 654.954072 -286.972911 
L 654.743535 -286.334232 
L 654.74152 -285.695554 
L 654.683812 -285.056876 
L 654.52304 -284.418198 
L 654.45197 -283.779519 
L 654.397171 -283.140841 
L 654.311297 -282.502163 
L 654.247712 -281.863485 
L 654.180142 -281.224806 
L 653.960992 -280.586128 
L 653.911546 -279.94745 
L 653.880919 -279.308772 
L 653.738549 -278.670093 
L 653.710628 -278.031415 
L 653.61363 -277.392737 
L 653.592982 -276.754059 
L 653.440738 -276.115381 
L 653.423698 -275.476702 
L 653.41395 -274.838024 
L 653.250859 -274.199346 
L 653.161852 -273.560668 
L 652.953232 -272.921989 
L 652.907481 -272.283311 
L 652.591635 -271.644633 
L 652.436692 -271.005955 
L 652.368284 -270.367276 
L 652.240271 -269.728598 
L 651.978865 -269.08992 
L 651.388903 -268.451242 
L 651.362694 -267.812563 
L 651.351667 -267.173885 
L 651.280832 -266.535207 
L 651.201514 -265.896529 
L 651.183967 -265.257851 
L 651.182756 -264.619172 
L 650.859225 -263.980494 
L 650.85686 -263.341816 
L 650.834204 -262.703138 
L 650.742825 -262.064459 
L 650.660514 -261.425781 
L 650.457388 -260.787103 
L 650.339129 -260.148425 
L 650.17693 -259.509746 
L 650.041648 -258.871068 
L 650.033267 -258.23239 
L 649.857945 -257.593712 
L 649.798531 -256.955033 
L 649.649842 -256.316355 
L 649.593396 -255.677677 
L 649.538783 -255.038999 
L 649.458733 -254.40032 
L 649.236519 -253.761642 
L 648.898753 -253.122964 
L 648.717496 -252.484286 
L 648.691027 -251.845608 
L 648.479472 -251.206929 
L 648.20722 -250.568251 
L 647.90244 -249.929573 
L 647.793834 -249.290895 
L 647.746961 -248.652216 
L 646.976405 -248.013538 
L 646.743157 -247.37486 
L 646.656383 -246.736182 
L 646.571654 -246.097503 
L 645.864433 -245.458825 
L 645.319485 -244.820147 
L 645.268837 -244.181469 
L 644.843558 -243.54279 
L 644.783333 -242.904112 
L 644.680168 -242.265434 
L 644.016128 -241.626756 
L 643.573314 -240.988078 
L 643.404974 -240.349399 
L 643.28384 -239.710721 
L 642.122916 -239.072043 
L 642.091953 -238.433365 
L 641.728238 -237.794686 
L 641.307097 -237.156008 
L 639.151307 -236.51733 
L 638.213274 -235.878652 
L 636.417971 -235.239973 
L 635.648951 -234.601295 
L 634.589537 -233.962617 
L 633.951329 -233.323939 
L 633.575565 -232.68526 
L 633.432677 -232.046582 
L 630.338245 -231.407904 
L 626.922411 -230.769226 
z
" style="stroke: #67ff00; stroke-opacity: 0.7"/>
    </defs>
    <g clip-path="url(#p926d17ea3d)">
     <use xlink:href="#m3d31e08d69" x="0" y="576" style="fill: #67ff00; fill-opacity: 0.7; stroke: #67ff00; stroke-opacity: 0.7"/>
    </g>
   </g>
   <g id="PolyCollection_7">
    <defs>
     <path id="md5dcb2014b" d="M 364.759624 -537.973457 
L 364.759624 -537.973457 
L 364.759624 -537.973457 
L 364.759624 -537.973457 
z
" style="stroke: #ffc900; stroke-opacity: 0.7"/>
    </defs>
    <g clip-path="url(#p926d17ea3d)">
     <use xlink:href="#md5dcb2014b" x="0" y="576" style="fill: #ffc900; fill-opacity: 0.7; stroke: #ffc900; stroke-opacity: 0.7"/>
    </g>
   </g>
   <g id="PolyCollection_8">
    <defs>
     <path id="m825ad8ab62" d="M 364.759624 -544.998918 
L 364.759624 -544.998918 
L 364.759624 -544.998918 
L 364.759624 -544.998918 
z
" style="stroke: #ec0000; stroke-opacity: 0.7"/>
    </defs>
    <g clip-path="url(#p926d17ea3d)">
     <use xlink:href="#m825ad8ab62" x="0" y="576" style="fill: #ec0000; fill-opacity: 0.7; stroke: #ec0000; stroke-opacity: 0.7"/>
    </g>
   </g>
   <g id="matplotlib.axis_1">
    <g id="xtick_1">
     <g id="line2d_1">
      <defs>
       <path id="m0a6317074e" d="M 0 0 
L 0 3.5 
" style="stroke: #000000; stroke-width: 0.8"/>
      </defs>
      <g>
       <use xlink:href="#m0a6317074e" x="42.495313" y="510.648438" style="stroke: #000000; stroke-width: 0.8"/>
      </g>
     </g>
     <g id="text_1">
      <!-- −1.0 -->
      <g transform="translate(18.2125 532.845312) scale(0.2 -0.2)">
       <defs>
        <path id="DejaVuSans-2212" d="M 678 2272 
L 4684 2272 
L 4684 1741 
L 678 1741 
L 678 2272 
z
" transform="scale(0.015625)"/>
        <path id="DejaVuSans-31" d="M 794 531 
L 1825 531 
L 1825 4091 
L 703 3866 
L 703 4441 
L 1819 4666 
L 2450 4666 
L 2450 531 
L 3481 531 
L 3481 0 
L 794 0 
L 794 531 
z
" transform="scale(0.015625)"/>
        <path id="DejaVuSans-2e" d="M 684 794 
L 1344 794 
L 1344 0 
L 684 0 
L 684 794 
z
" transform="scale(0.015625)"/>
        <path id="DejaVuSans-30" d="M 2034 4250 
Q 1547 4250 1301 3770 
Q 1056 3291 1056 2328 
Q 1056 1369 1301 889 
Q 1547 409 2034 409 
Q 2525 409 2770 889 
Q 3016 1369 3016 2328 
Q 3016 3291 2770 3770 
Q 2525 4250 2034 4250 
z
M 2034 4750 
Q 2819 4750 3233 4129 
Q 3647 3509 3647 2328 
Q 3647 1150 3233 529 
Q 2819 -91 2034 -91 
Q 1250 -91 836 529 
Q 422 1150 422 2328 
Q 422 3509 836 4129 
Q 1250 4750 2034 4750 
z
" transform="scale(0.015625)"/>
       </defs>
       <use xlink:href="#DejaVuSans-2212"/>
       <use xlink:href="#DejaVuSans-31" x="83.789062"/>
       <use xlink:href="#DejaVuSans-2e" x="147.412109"/>
       <use xlink:href="#DejaVuSans-30" x="179.199219"/>
      </g>
     </g>
    </g>
    <g id="xtick_2">
     <g id="line2d_2">
      <g>
       <use xlink:href="#m0a6317074e" x="106.948175" y="510.648438" style="stroke: #000000; stroke-width: 0.8"/>
      </g>
     </g>
     <g id="text_2">
      <!-- −0.8 -->
      <g transform="translate(82.665362 532.845312) scale(0.2 -0.2)">
       <defs>
        <path id="DejaVuSans-38" d="M 2034 2216 
Q 1584 2216 1326 1975 
Q 1069 1734 1069 1313 
Q 1069 891 1326 650 
Q 1584 409 2034 409 
Q 2484 409 2743 651 
Q 3003 894 3003 1313 
Q 3003 1734 2745 1975 
Q 2488 2216 2034 2216 
z
M 1403 2484 
Q 997 2584 770 2862 
Q 544 3141 544 3541 
Q 544 4100 942 4425 
Q 1341 4750 2034 4750 
Q 2731 4750 3128 4425 
Q 3525 4100 3525 3541 
Q 3525 3141 3298 2862 
Q 3072 2584 2669 2484 
Q 3125 2378 3379 2068 
Q 3634 1759 3634 1313 
Q 3634 634 3220 271 
Q 2806 -91 2034 -91 
Q 1263 -91 848 271 
Q 434 634 434 1313 
Q 434 1759 690 2068 
Q 947 2378 1403 2484 
z
M 1172 3481 
Q 1172 3119 1398 2916 
Q 1625 2713 2034 2713 
Q 2441 2713 2670 2916 
Q 2900 3119 2900 3481 
Q 2900 3844 2670 4047 
Q 2441 4250 2034 4250 
Q 1625 4250 1398 4047 
Q 1172 3844 1172 3481 
z
" transform="scale(0.015625)"/>
       </defs>
       <use xlink:href="#DejaVuSans-2212"/>
       <use xlink:href="#DejaVuSans-30" x="83.789062"/>
       <use xlink:href="#DejaVuSans-2e" x="147.412109"/>
       <use xlink:href="#DejaVuSans-38" x="179.199219"/>
      </g>
     </g>
    </g>
    <g id="xtick_3">
     <g id="line2d_3">
      <g>
       <use xlink:href="#m0a6317074e" x="171.401037" y="510.648438" style="stroke: #000000; stroke-width: 0.8"/>
      </g>
     </g>
     <g id="text_3">
      <!-- −0.6 -->
      <g transform="translate(147.118225 532.845312) scale(0.2 -0.2)">
       <defs>
        <path id="DejaVuSans-36" d="M 2113 2584 
Q 1688 2584 1439 2293 
Q 1191 2003 1191 1497 
Q 1191 994 1439 701 
Q 1688 409 2113 409 
Q 2538 409 2786 701 
Q 3034 994 3034 1497 
Q 3034 2003 2786 2293 
Q 2538 2584 2113 2584 
z
M 3366 4563 
L 3366 3988 
Q 3128 4100 2886 4159 
Q 2644 4219 2406 4219 
Q 1781 4219 1451 3797 
Q 1122 3375 1075 2522 
Q 1259 2794 1537 2939 
Q 1816 3084 2150 3084 
Q 2853 3084 3261 2657 
Q 3669 2231 3669 1497 
Q 3669 778 3244 343 
Q 2819 -91 2113 -91 
Q 1303 -91 875 529 
Q 447 1150 447 2328 
Q 447 3434 972 4092 
Q 1497 4750 2381 4750 
Q 2619 4750 2861 4703 
Q 3103 4656 3366 4563 
z
" transform="scale(0.015625)"/>
       </defs>
       <use xlink:href="#DejaVuSans-2212"/>
       <use xlink:href="#DejaVuSans-30" x="83.789062"/>
       <use xlink:href="#DejaVuSans-2e" x="147.412109"/>
       <use xlink:href="#DejaVuSans-36" x="179.199219"/>
      </g>
     </g>
    </g>
    <g id="xtick_4">
     <g id="line2d_4">
      <g>
       <use xlink:href="#m0a6317074e" x="235.8539" y="510.648438" style="stroke: #000000; stroke-width: 0.8"/>
      </g>
     </g>
     <g id="text_4">
      <!-- −0.4 -->
      <g transform="translate(211.571087 532.845312) scale(0.2 -0.2)">
       <defs>
        <path id="DejaVuSans-34" d="M 2419 4116 
L 825 1625 
L 2419 1625 
L 2419 4116 
z
M 2253 4666 
L 3047 4666 
L 3047 1625 
L 3713 1625 
L 3713 1100 
L 3047 1100 
L 3047 0 
L 2419 0 
L 2419 1100 
L 313 1100 
L 313 1709 
L 2253 4666 
z
" transform="scale(0.015625)"/>
       </defs>
       <use xlink:href="#DejaVuSans-2212"/>
       <use xlink:href="#DejaVuSans-30" x="83.789062"/>
       <use xlink:href="#DejaVuSans-2e" x="147.412109"/>
       <use xlink:href="#DejaVuSans-34" x="179.199219"/>
      </g>
     </g>
    </g>
    <g id="xtick_5">
     <g id="line2d_5">
      <g>
       <use xlink:href="#m0a6317074e" x="300.306762" y="510.648438" style="stroke: #000000; stroke-width: 0.8"/>
      </g>
     </g>
     <g id="text_5">
      <!-- −0.2 -->
      <g transform="translate(276.02395 532.845312) scale(0.2 -0.2)">
       <defs>
        <path id="DejaVuSans-32" d="M 1228 531 
L 3431 531 
L 3431 0 
L 469 0 
L 469 531 
Q 828 903 1448 1529 
Q 2069 2156 2228 2338 
Q 2531 2678 2651 2914 
Q 2772 3150 2772 3378 
Q 2772 3750 2511 3984 
Q 2250 4219 1831 4219 
Q 1534 4219 1204 4116 
Q 875 4013 500 3803 
L 500 4441 
Q 881 4594 1212 4672 
Q 1544 4750 1819 4750 
Q 2544 4750 2975 4387 
Q 3406 4025 3406 3419 
Q 3406 3131 3298 2873 
Q 3191 2616 2906 2266 
Q 2828 2175 2409 1742 
Q 1991 1309 1228 531 
z
" transform="scale(0.015625)"/>
       </defs>
       <use xlink:href="#DejaVuSans-2212"/>
       <use xlink:href="#DejaVuSans-30" x="83.789062"/>
       <use xlink:href="#DejaVuSans-2e" x="147.412109"/>
       <use xlink:href="#DejaVuSans-32" x="179.199219"/>
      </g>
     </g>
    </g>
    <g id="xtick_6">
     <g id="line2d_6">
      <g>
       <use xlink:href="#m0a6317074e" x="364.759624" y="510.648438" style="stroke: #000000; stroke-width: 0.8"/>
      </g>
     </g>
     <g id="text_6">
      <!-- 0.0 -->
      <g transform="translate(348.856499 532.845312) scale(0.2 -0.2)">
       <use xlink:href="#DejaVuSans-30"/>
       <use xlink:href="#DejaVuSans-2e" x="63.623047"/>
       <use xlink:href="#DejaVuSans-30" x="95.410156"/>
      </g>
     </g>
    </g>
    <g id="xtick_7">
     <g id="line2d_7">
      <g>
       <use xlink:href="#m0a6317074e" x="429.212487" y="510.648438" style="stroke: #000000; stroke-width: 0.8"/>
      </g>
     </g>
     <g id="text_7">
      <!-- 0.2 -->
      <g transform="translate(413.309362 532.845312) scale(0.2 -0.2)">
       <use xlink:href="#DejaVuSans-30"/>
       <use xlink:href="#DejaVuSans-2e" x="63.623047"/>
       <use xlink:href="#DejaVuSans-32" x="95.410156"/>
      </g>
     </g>
    </g>
    <g id="xtick_8">
     <g id="line2d_8">
      <g>
       <use xlink:href="#m0a6317074e" x="493.665349" y="510.648438" style="stroke: #000000; stroke-width: 0.8"/>
      </g>
     </g>
     <g id="text_8">
      <!-- 0.4 -->
      <g transform="translate(477.762224 532.845312) scale(0.2 -0.2)">
       <use xlink:href="#DejaVuSans-30"/>
       <use xlink:href="#DejaVuSans-2e" x="63.623047"/>
       <use xlink:href="#DejaVuSans-34" x="95.410156"/>
      </g>
     </g>
    </g>
    <g id="xtick_9">
     <g id="line2d_9">
      <g>
       <use xlink:href="#m0a6317074e" x="558.118212" y="510.648438" style="stroke: #000000; stroke-width: 0.8"/>
      </g>
     </g>
     <g id="text_9">
      <!-- 0.6 -->
      <g transform="translate(542.215087 532.845312) scale(0.2 -0.2)">
       <use xlink:href="#DejaVuSans-30"/>
       <use xlink:href="#DejaVuSans-2e" x="63.623047"/>
       <use xlink:href="#DejaVuSans-36" x="95.410156"/>
      </g>
     </g>
    </g>
    <g id="xtick_10">
     <g id="line2d_10">
      <g>
       <use xlink:href="#m0a6317074e" x="622.571074" y="510.648438" style="stroke: #000000; stroke-width: 0.8"/>
      </g>
     </g>
     <g id="text_10">
      <!-- 0.8 -->
      <g transform="translate(606.667949 532.845312) scale(0.2 -0.2)">
       <use xlink:href="#DejaVuSans-30"/>
       <use xlink:href="#DejaVuSans-2e" x="63.623047"/>
       <use xlink:href="#DejaVuSans-38" x="95.410156"/>
      </g>
     </g>
    </g>
    <g id="xtick_11">
     <g id="line2d_11">
      <g>
       <use xlink:href="#m0a6317074e" x="687.023936" y="510.648438" style="stroke: #000000; stroke-width: 0.8"/>
      </g>
     </g>
     <g id="text_11">
      <!-- 1.0 -->
      <g transform="translate(671.120811 532.845312) scale(0.2 -0.2)">
       <use xlink:href="#DejaVuSans-31"/>
       <use xlink:href="#DejaVuSans-2e" x="63.623047"/>
       <use xlink:href="#DejaVuSans-30" x="95.410156"/>
      </g>
     </g>
    </g>
    <g id="text_12">
     <!-- Silhouette coefficient -->
     <g transform="translate(232.729936 560.000781) scale(0.25 -0.25)">
      <defs>
       <path id="DejaVuSans-53" d="M 3425 4513 
L 3425 3897 
Q 3066 4069 2747 4153 
Q 2428 4238 2131 4238 
Q 1616 4238 1336 4038 
Q 1056 3838 1056 3469 
Q 1056 3159 1242 3001 
Q 1428 2844 1947 2747 
L 2328 2669 
Q 3034 2534 3370 2195 
Q 3706 1856 3706 1288 
Q 3706 609 3251 259 
Q 2797 -91 1919 -91 
Q 1588 -91 1214 -16 
Q 841 59 441 206 
L 441 856 
Q 825 641 1194 531 
Q 1563 422 1919 422 
Q 2459 422 2753 634 
Q 3047 847 3047 1241 
Q 3047 1584 2836 1778 
Q 2625 1972 2144 2069 
L 1759 2144 
Q 1053 2284 737 2584 
Q 422 2884 422 3419 
Q 422 4038 858 4394 
Q 1294 4750 2059 4750 
Q 2388 4750 2728 4690 
Q 3069 4631 3425 4513 
z
" transform="scale(0.015625)"/>
       <path id="DejaVuSans-69" d="M 603 3500 
L 1178 3500 
L 1178 0 
L 603 0 
L 603 3500 
z
M 603 4863 
L 1178 4863 
L 1178 4134 
L 603 4134 
L 603 4863 
z
" transform="scale(0.015625)"/>
       <path id="DejaVuSans-6c" d="M 603 4863 
L 1178 4863 
L 1178 0 
L 603 0 
L 603 4863 
z
" transform="scale(0.015625)"/>
       <path id="DejaVuSans-68" d="M 3513 2113 
L 3513 0 
L 2938 0 
L 2938 2094 
Q 2938 2591 2744 2837 
Q 2550 3084 2163 3084 
Q 1697 3084 1428 2787 
Q 1159 2491 1159 1978 
L 1159 0 
L 581 0 
L 581 4863 
L 1159 4863 
L 1159 2956 
Q 1366 3272 1645 3428 
Q 1925 3584 2291 3584 
Q 2894 3584 3203 3211 
Q 3513 2838 3513 2113 
z
" transform="scale(0.015625)"/>
       <path id="DejaVuSans-6f" d="M 1959 3097 
Q 1497 3097 1228 2736 
Q 959 2375 959 1747 
Q 959 1119 1226 758 
Q 1494 397 1959 397 
Q 2419 397 2687 759 
Q 2956 1122 2956 1747 
Q 2956 2369 2687 2733 
Q 2419 3097 1959 3097 
z
M 1959 3584 
Q 2709 3584 3137 3096 
Q 3566 2609 3566 1747 
Q 3566 888 3137 398 
Q 2709 -91 1959 -91 
Q 1206 -91 779 398 
Q 353 888 353 1747 
Q 353 2609 779 3096 
Q 1206 3584 1959 3584 
z
" transform="scale(0.015625)"/>
       <path id="DejaVuSans-75" d="M 544 1381 
L 544 3500 
L 1119 3500 
L 1119 1403 
Q 1119 906 1312 657 
Q 1506 409 1894 409 
Q 2359 409 2629 706 
Q 2900 1003 2900 1516 
L 2900 3500 
L 3475 3500 
L 3475 0 
L 2900 0 
L 2900 538 
Q 2691 219 2414 64 
Q 2138 -91 1772 -91 
Q 1169 -91 856 284 
Q 544 659 544 1381 
z
M 1991 3584 
L 1991 3584 
z
" transform="scale(0.015625)"/>
       <path id="DejaVuSans-65" d="M 3597 1894 
L 3597 1613 
L 953 1613 
Q 991 1019 1311 708 
Q 1631 397 2203 397 
Q 2534 397 2845 478 
Q 3156 559 3463 722 
L 3463 178 
Q 3153 47 2828 -22 
Q 2503 -91 2169 -91 
Q 1331 -91 842 396 
Q 353 884 353 1716 
Q 353 2575 817 3079 
Q 1281 3584 2069 3584 
Q 2775 3584 3186 3129 
Q 3597 2675 3597 1894 
z
M 3022 2063 
Q 3016 2534 2758 2815 
Q 2500 3097 2075 3097 
Q 1594 3097 1305 2825 
Q 1016 2553 972 2059 
L 3022 2063 
z
" transform="scale(0.015625)"/>
       <path id="DejaVuSans-74" d="M 1172 4494 
L 1172 3500 
L 2356 3500 
L 2356 3053 
L 1172 3053 
L 1172 1153 
Q 1172 725 1289 603 
Q 1406 481 1766 481 
L 2356 481 
L 2356 0 
L 1766 0 
Q 1100 0 847 248 
Q 594 497 594 1153 
L 594 3053 
L 172 3053 
L 172 3500 
L 594 3500 
L 594 4494 
L 1172 4494 
z
" transform="scale(0.015625)"/>
       <path id="DejaVuSans-20" transform="scale(0.015625)"/>
       <path id="DejaVuSans-63" d="M 3122 3366 
L 3122 2828 
Q 2878 2963 2633 3030 
Q 2388 3097 2138 3097 
Q 1578 3097 1268 2742 
Q 959 2388 959 1747 
Q 959 1106 1268 751 
Q 1578 397 2138 397 
Q 2388 397 2633 464 
Q 2878 531 3122 666 
L 3122 134 
Q 2881 22 2623 -34 
Q 2366 -91 2075 -91 
Q 1284 -91 818 406 
Q 353 903 353 1747 
Q 353 2603 823 3093 
Q 1294 3584 2113 3584 
Q 2378 3584 2631 3529 
Q 2884 3475 3122 3366 
z
" transform="scale(0.015625)"/>
       <path id="DejaVuSans-66" d="M 2375 4863 
L 2375 4384 
L 1825 4384 
Q 1516 4384 1395 4259 
Q 1275 4134 1275 3809 
L 1275 3500 
L 2222 3500 
L 2222 3053 
L 1275 3053 
L 1275 0 
L 697 0 
L 697 3053 
L 147 3053 
L 147 3500 
L 697 3500 
L 697 3744 
Q 697 4328 969 4595 
Q 1241 4863 1831 4863 
L 2375 4863 
z
" transform="scale(0.015625)"/>
       <path id="DejaVuSans-6e" d="M 3513 2113 
L 3513 0 
L 2938 0 
L 2938 2094 
Q 2938 2591 2744 2837 
Q 2550 3084 2163 3084 
Q 1697 3084 1428 2787 
Q 1159 2491 1159 1978 
L 1159 0 
L 581 0 
L 581 3500 
L 1159 3500 
L 1159 2956 
Q 1366 3272 1645 3428 
Q 1925 3584 2291 3584 
Q 2894 3584 3203 3211 
Q 3513 2838 3513 2113 
z
" transform="scale(0.015625)"/>
      </defs>
      <use xlink:href="#DejaVuSans-53"/>
      <use xlink:href="#DejaVuSans-69" x="63.476562"/>
      <use xlink:href="#DejaVuSans-6c" x="91.259766"/>
      <use xlink:href="#DejaVuSans-68" x="119.042969"/>
      <use xlink:href="#DejaVuSans-6f" x="182.421875"/>
      <use xlink:href="#DejaVuSans-75" x="243.603516"/>
      <use xlink:href="#DejaVuSans-65" x="306.982422"/>
      <use xlink:href="#DejaVuSans-74" x="368.505859"/>
      <use xlink:href="#DejaVuSans-74" x="407.714844"/>
      <use xlink:href="#DejaVuSans-65" x="446.923828"/>
      <use xlink:href="#DejaVuSans-20" x="508.447266"/>
      <use xlink:href="#DejaVuSans-63" x="540.234375"/>
      <use xlink:href="#DejaVuSans-6f" x="595.214844"/>
      <use xlink:href="#DejaVuSans-65" x="656.396484"/>
      <use xlink:href="#DejaVuSans-66" x="717.919922"/>
      <use xlink:href="#DejaVuSans-66" x="753.125"/>
      <use xlink:href="#DejaVuSans-69" x="788.330078"/>
      <use xlink:href="#DejaVuSans-63" x="816.113281"/>
      <use xlink:href="#DejaVuSans-69" x="871.09375"/>
      <use xlink:href="#DejaVuSans-65" x="898.876953"/>
      <use xlink:href="#DejaVuSans-6e" x="960.400391"/>
      <use xlink:href="#DejaVuSans-74" x="1023.779297"/>
     </g>
    </g>
   </g>
   <g id="matplotlib.axis_2">
    <g id="text_13">
     <!-- Predicted label -->
     <g transform="translate(29.796094 360.192889) rotate(-90) scale(0.25 -0.25)">
      <defs>
       <path id="DejaVuSans-50" d="M 1259 4147 
L 1259 2394 
L 2053 2394 
Q 2494 2394 2734 2622 
Q 2975 2850 2975 3272 
Q 2975 3691 2734 3919 
Q 2494 4147 2053 4147 
L 1259 4147 
z
M 628 4666 
L 2053 4666 
Q 2838 4666 3239 4311 
Q 3641 3956 3641 3272 
Q 3641 2581 3239 2228 
Q 2838 1875 2053 1875 
L 1259 1875 
L 1259 0 
L 628 0 
L 628 4666 
z
" transform="scale(0.015625)"/>
       <path id="DejaVuSans-72" d="M 2631 2963 
Q 2534 3019 2420 3045 
Q 2306 3072 2169 3072 
Q 1681 3072 1420 2755 
Q 1159 2438 1159 1844 
L 1159 0 
L 581 0 
L 581 3500 
L 1159 3500 
L 1159 2956 
Q 1341 3275 1631 3429 
Q 1922 3584 2338 3584 
Q 2397 3584 2469 3576 
Q 2541 3569 2628 3553 
L 2631 2963 
z
" transform="scale(0.015625)"/>
       <path id="DejaVuSans-64" d="M 2906 2969 
L 2906 4863 
L 3481 4863 
L 3481 0 
L 2906 0 
L 2906 525 
Q 2725 213 2448 61 
Q 2172 -91 1784 -91 
Q 1150 -91 751 415 
Q 353 922 353 1747 
Q 353 2572 751 3078 
Q 1150 3584 1784 3584 
Q 2172 3584 2448 3432 
Q 2725 3281 2906 2969 
z
M 947 1747 
Q 947 1113 1208 752 
Q 1469 391 1925 391 
Q 2381 391 2643 752 
Q 2906 1113 2906 1747 
Q 2906 2381 2643 2742 
Q 2381 3103 1925 3103 
Q 1469 3103 1208 2742 
Q 947 2381 947 1747 
z
" transform="scale(0.015625)"/>
       <path id="DejaVuSans-61" d="M 2194 1759 
Q 1497 1759 1228 1600 
Q 959 1441 959 1056 
Q 959 750 1161 570 
Q 1363 391 1709 391 
Q 2188 391 2477 730 
Q 2766 1069 2766 1631 
L 2766 1759 
L 2194 1759 
z
M 3341 1997 
L 3341 0 
L 2766 0 
L 2766 531 
Q 2569 213 2275 61 
Q 1981 -91 1556 -91 
Q 1019 -91 701 211 
Q 384 513 384 1019 
Q 384 1609 779 1909 
Q 1175 2209 1959 2209 
L 2766 2209 
L 2766 2266 
Q 2766 2663 2505 2880 
Q 2244 3097 1772 3097 
Q 1472 3097 1187 3025 
Q 903 2953 641 2809 
L 641 3341 
Q 956 3463 1253 3523 
Q 1550 3584 1831 3584 
Q 2591 3584 2966 3190 
Q 3341 2797 3341 1997 
z
" transform="scale(0.015625)"/>
       <path id="DejaVuSans-62" d="M 3116 1747 
Q 3116 2381 2855 2742 
Q 2594 3103 2138 3103 
Q 1681 3103 1420 2742 
Q 1159 2381 1159 1747 
Q 1159 1113 1420 752 
Q 1681 391 2138 391 
Q 2594 391 2855 752 
Q 3116 1113 3116 1747 
z
M 1159 2969 
Q 1341 3281 1617 3432 
Q 1894 3584 2278 3584 
Q 2916 3584 3314 3078 
Q 3713 2572 3713 1747 
Q 3713 922 3314 415 
Q 2916 -91 2278 -91 
Q 1894 -91 1617 61 
Q 1341 213 1159 525 
L 1159 0 
L 581 0 
L 581 4863 
L 1159 4863 
L 1159 2969 
z
" transform="scale(0.015625)"/>
      </defs>
      <use xlink:href="#DejaVuSans-50"/>
      <use xlink:href="#DejaVuSans-72" x="58.552734"/>
      <use xlink:href="#DejaVuSans-65" x="97.416016"/>
      <use xlink:href="#DejaVuSans-64" x="158.939453"/>
      <use xlink:href="#DejaVuSans-69" x="222.416016"/>
      <use xlink:href="#DejaVuSans-63" x="250.199219"/>
      <use xlink:href="#DejaVuSans-74" x="305.179688"/>
      <use xlink:href="#DejaVuSans-65" x="344.388672"/>
      <use xlink:href="#DejaVuSans-64" x="405.912109"/>
      <use xlink:href="#DejaVuSans-20" x="469.388672"/>
      <use xlink:href="#DejaVuSans-6c" x="501.175781"/>
      <use xlink:href="#DejaVuSans-61" x="528.958984"/>
      <use xlink:href="#DejaVuSans-62" x="590.238281"/>
      <use xlink:href="#DejaVuSans-65" x="653.714844"/>
      <use xlink:href="#DejaVuSans-6c" x="715.238281"/>
     </g>
    </g>
   </g>
   <g id="line2d_12">
    <path d="M 595.018992 510.648438 
L 595.018992 23.975621 
" clip-path="url(#p926d17ea3d)" style="fill: none; stroke: #ff0000; stroke-width: 4; stroke-linecap: square"/>
   </g>
   <g id="patch_3">
    <path d="M 42.495313 510.648438 
L 42.495313 23.975621 
" style="fill: none; stroke: #000000; stroke-width: 0.8; stroke-linejoin: miter; stroke-linecap: square"/>
   </g>
   <g id="patch_4">
    <path d="M 688.71456 510.648438 
L 688.71456 23.975621 
" style="fill: none; stroke: #000000; stroke-width: 0.8; stroke-linejoin: miter; stroke-linecap: square"/>
   </g>
   <g id="patch_5">
    <path d="M 42.495313 510.648438 
L 688.71456 510.648438 
" style="fill: none; stroke: #000000; stroke-width: 0.8; stroke-linejoin: miter; stroke-linecap: square"/>
   </g>
   <g id="patch_6">
    <path d="M 42.495313 23.975621 
L 688.71456 23.975621 
" style="fill: none; stroke: #000000; stroke-width: 0.8; stroke-linejoin: miter; stroke-linecap: square"/>
   </g>
   <g id="text_14">
    <!-- 0 -->
    <g transform="translate(348.646409 501.706942) scale(0.25 -0.25)">
     <use xlink:href="#DejaVuSans-30"/>
    </g>
   </g>
   <g id="text_15">
    <!-- 1 -->
    <g transform="translate(348.646409 484.781969) scale(0.25 -0.25)">
     <use xlink:href="#DejaVuSans-31"/>
    </g>
   </g>
   <g id="text_16">
    <!-- 2 -->
    <g transform="translate(348.646409 468.495674) scale(0.25 -0.25)">
     <use xlink:href="#DejaVuSans-32"/>
    </g>
   </g>
   <g id="text_17">
    <!-- 3 -->
    <g transform="translate(348.646409 458.9155) scale(0.25 -0.25)">
     <defs>
      <path id="DejaVuSans-33" d="M 2597 2516 
Q 3050 2419 3304 2112 
Q 3559 1806 3559 1356 
Q 3559 666 3084 287 
Q 2609 -91 1734 -91 
Q 1441 -91 1130 -33 
Q 819 25 488 141 
L 488 750 
Q 750 597 1062 519 
Q 1375 441 1716 441 
Q 2309 441 2620 675 
Q 2931 909 2931 1356 
Q 2931 1769 2642 2001 
Q 2353 2234 1838 2234 
L 1294 2234 
L 1294 2753 
L 1863 2753 
Q 2328 2753 2575 2939 
Q 2822 3125 2822 3475 
Q 2822 3834 2567 4026 
Q 2313 4219 1838 4219 
Q 1578 4219 1281 4162 
Q 984 4106 628 3988 
L 628 4550 
Q 988 4650 1302 4700 
Q 1616 4750 1894 4750 
Q 2613 4750 3031 4423 
Q 3450 4097 3450 3541 
Q 3450 3153 3228 2886 
Q 3006 2619 2597 2516 
z
" transform="scale(0.015625)"/>
     </defs>
     <use xlink:href="#DejaVuSans-33"/>
    </g>
   </g>
   <g id="text_18">
    <!-- 4 -->
    <g transform="translate(348.646409 401.434459) scale(0.25 -0.25)">
     <use xlink:href="#DejaVuSans-34"/>
    </g>
   </g>
   <g id="text_19">
    <!-- 5 -->
    <g transform="translate(348.646409 194.82205) scale(0.25 -0.25)">
     <defs>
      <path id="DejaVuSans-35" d="M 691 4666 
L 3169 4666 
L 3169 4134 
L 1269 4134 
L 1269 2991 
Q 1406 3038 1543 3061 
Q 1681 3084 1819 3084 
Q 2600 3084 3056 2656 
Q 3513 2228 3513 1497 
Q 3513 744 3044 326 
Q 2575 -91 1722 -91 
Q 1428 -91 1123 -41 
Q 819 9 494 109 
L 494 744 
Q 775 591 1075 516 
Q 1375 441 1709 441 
Q 2250 441 2565 725 
Q 2881 1009 2881 1497 
Q 2881 1984 2565 2268 
Q 2250 2553 1709 2553 
Q 1456 2553 1204 2497 
Q 953 2441 691 2322 
L 691 4666 
z
" transform="scale(0.015625)"/>
     </defs>
     <use xlink:href="#DejaVuSans-35"/>
    </g>
   </g>
   <g id="text_20">
    <!-- 6 -->
    <g transform="translate(348.646409 37.707203) scale(0.25 -0.25)">
     <use xlink:href="#DejaVuSans-36"/>
    </g>
   </g>
   <g id="text_21">
    <!-- 7 -->
    <g transform="translate(348.646409 30.681743) scale(0.25 -0.25)">
     <defs>
      <path id="DejaVuSans-37" d="M 525 4666 
L 3525 4666 
L 3525 4397 
L 1831 0 
L 1172 0 
L 2766 4134 
L 525 4134 
L 525 4666 
z
" transform="scale(0.015625)"/>
     </defs>
     <use xlink:href="#DejaVuSans-37"/>
    </g>
   </g>
   <g id="text_22">
    <!-- 0.7145 -->
    <g style="fill: #ff0000" transform="translate(611.132207 30.362404) scale(0.25 -0.25)">
     <use xlink:href="#DejaVuSans-30"/>
     <use xlink:href="#DejaVuSans-2e" x="63.623047"/>
     <use xlink:href="#DejaVuSans-37" x="95.410156"/>
     <use xlink:href="#DejaVuSans-31" x="159.033203"/>
     <use xlink:href="#DejaVuSans-34" x="222.65625"/>
     <use xlink:href="#DejaVuSans-35" x="286.279297"/>
    </g>
   </g>
  </g>
 </g>
 <defs>
  <clipPath id="p926d17ea3d">
   <rect x="42.495313" y="23.975621" width="646.219248" height="486.672816"/>
  </clipPath>
 </defs>
</svg>
