<?xml version="1.0" encoding="utf-8" standalone="no"?>
<!DOCTYPE svg PUBLIC "-//W3C//DTD SVG 1.1//EN"
  "http://www.w3.org/Graphics/SVG/1.1/DTD/svg11.dtd">
<svg xmlns:xlink="http://www.w3.org/1999/xlink" width="720pt" height="720pt" viewBox="0 0 720 720" xmlns="http://www.w3.org/2000/svg" version="1.1">
 <metadata>
  <rdf:RDF xmlns:dc="http://purl.org/dc/elements/1.1/" xmlns:cc="http://creativecommons.org/ns#" xmlns:rdf="http://www.w3.org/1999/02/22-rdf-syntax-ns#">
   <cc:Work>
    <dc:type rdf:resource="http://purl.org/dc/dcmitype/StillImage"/>
    <dc:date>2022-11-17T19:11:18.245131</dc:date>
    <dc:format>image/svg+xml</dc:format>
    <dc:creator>
     <cc:Agent>
      <dc:title>Matplotlib v3.6.1, https://matplotlib.org/</dc:title>
     </cc:Agent>
    </dc:creator>
   </cc:Work>
  </rdf:RDF>
 </metadata>
 <defs>
  <style type="text/css">*{stroke-linejoin: round; stroke-linecap: butt}</style>
 </defs>
 <g id="figure_1">
  <g id="patch_1">
   <path d="M 0 720 
L 720 720 
L 720 0 
L 0 0 
z
" style="fill: #ffffff"/>
  </g>
  <g id="axes_1">
   <g id="patch_2">
    <path d="M 27.978125 678.84375 
L 702.708264 678.84375 
L 702.708264 11.122847 
L 27.978125 11.122847 
z
" style="fill: #ffffff"/>
   </g>
   <g id="PolyCollection_1">
    <defs>
     <path id="m33894cdf7a" d="M 388.139293 -49.918992 
L 364.460588 -49.918992 
L 364.460588 -50.795266 
L 364.460588 -51.67154 
L 364.460588 -52.547814 
L 364.460588 -53.424088 
L 364.460588 -54.300362 
L 364.460588 -55.176636 
L 364.460588 -56.052911 
L 459.147783 -56.052911 
L 459.147783 -56.052911 
L 458.047401 -55.176636 
L 453.133352 -54.300362 
L 447.217351 -53.424088 
L 444.708166 -52.547814 
L 422.562357 -51.67154 
L 409.469921 -50.795266 
L 388.139293 -49.918992 
z
" style="stroke: #000000; stroke-opacity: 0.7"/>
    </defs>
    <g clip-path="url(#p2dc282d3a1)">
     <use xlink:href="#m33894cdf7a" x="0" y="720" style="fill-opacity: 0.7; stroke: #000000; stroke-opacity: 0.7"/>
    </g>
   </g>
   <g id="PolyCollection_2">
    <defs>
     <path id="mb7f8b1a5b2" d="M 308.793714 -65.691926 
L 364.460588 -65.691926 
L 364.460588 -66.5682 
L 364.460588 -67.444475 
L 364.460588 -68.320749 
L 364.460588 -69.197023 
L 364.460588 -70.073297 
L 364.460588 -70.949571 
L 364.460588 -71.825845 
L 364.460588 -72.702119 
L 364.460588 -73.578394 
L 364.460588 -74.454668 
L 364.460588 -75.330942 
L 364.460588 -76.207216 
L 364.460588 -77.08349 
L 364.460588 -77.959764 
L 364.460588 -78.836038 
L 364.460588 -79.712313 
L 364.460588 -80.588587 
L 364.460588 -81.464861 
L 364.460588 -82.341135 
L 364.460588 -83.217409 
L 364.460588 -84.093683 
L 364.460588 -84.969958 
L 364.460588 -85.846232 
L 364.460588 -86.722506 
L 432.574494 -86.722506 
L 432.574494 -86.722506 
L 421.274244 -85.846232 
L 420.268259 -84.969958 
L 416.385836 -84.093683 
L 415.741117 -83.217409 
L 415.489367 -82.341135 
L 404.042684 -81.464861 
L 398.689521 -80.588587 
L 398.350469 -79.712313 
L 388.159406 -78.836038 
L 386.527981 -77.959764 
L 385.725134 -77.08349 
L 380.35305 -76.207216 
L 378.076376 -75.330942 
L 374.382843 -74.454668 
L 371.277618 -73.578394 
L 370.485236 -72.702119 
L 363.481154 -71.825845 
L 357.611525 -70.949571 
L 330.838393 -70.073297 
L 330.734713 -69.197023 
L 324.531276 -68.320749 
L 311.248938 -67.444475 
L 309.178949 -66.5682 
L 308.793714 -65.691926 
z
" style="stroke: #4300a2; stroke-opacity: 0.7"/>
    </defs>
    <g clip-path="url(#p2dc282d3a1)">
     <use xlink:href="#mb7f8b1a5b2" x="0" y="720" style="fill: #4300a2; fill-opacity: 0.7; stroke: #4300a2; stroke-opacity: 0.7"/>
    </g>
   </g>
   <g id="PolyCollection_3">
    <defs>
     <path id="mc43ce95615" d="M 361.974615 -96.361522 
L 364.460588 -96.361522 
L 364.460588 -97.237796 
L 364.460588 -98.11407 
L 364.460588 -98.990344 
L 364.460588 -99.866618 
L 364.460588 -100.742892 
L 433.588544 -100.742892 
L 433.588544 -100.742892 
L 430.952664 -99.866618 
L 418.755554 -98.990344 
L 391.333293 -98.11407 
L 365.290106 -97.237796 
L 361.974615 -96.361522 
z
" style="stroke: #0078dd; stroke-opacity: 0.7"/>
    </defs>
    <g clip-path="url(#p2dc282d3a1)">
     <use xlink:href="#mc43ce95615" x="0" y="720" style="fill: #0078dd; fill-opacity: 0.7; stroke: #0078dd; stroke-opacity: 0.7"/>
    </g>
   </g>
   <g id="PolyCollection_4">
    <defs>
     <path id="mb044b0d36d" d="M 408.770924 -110.381908 
L 364.460588 -110.381908 
L 364.460588 -111.258182 
L 364.460588 -112.134456 
L 364.460588 -113.01073 
L 472.507747 -113.01073 
L 472.507747 -113.01073 
L 455.171427 -112.134456 
L 435.683522 -111.258182 
L 408.770924 -110.381908 
z
" style="stroke: #00aa98; stroke-opacity: 0.7"/>
    </defs>
    <g clip-path="url(#p2dc282d3a1)">
     <use xlink:href="#mb044b0d36d" x="0" y="720" style="fill: #00aa98; fill-opacity: 0.7; stroke: #00aa98; stroke-opacity: 0.7"/>
    </g>
   </g>
   <g id="PolyCollection_5">
    <defs>
     <path id="mc0e49a8da1" d="M 286.83586 -122.649746 
L 364.460588 -122.649746 
L 364.460588 -123.52602 
L 364.460588 -124.402294 
L 364.460588 -125.278568 
L 364.460588 -126.154843 
L 364.460588 -127.031117 
L 364.460588 -127.907391 
L 364.460588 -128.783665 
L 364.460588 -129.659939 
L 364.460588 -130.536213 
L 364.460588 -131.412488 
L 364.460588 -132.288762 
L 364.460588 -133.165036 
L 364.460588 -134.04131 
L 364.460588 -134.917584 
L 364.460588 -135.793858 
L 364.460588 -136.670132 
L 364.460588 -137.546407 
L 364.460588 -138.422681 
L 364.460588 -139.298955 
L 364.460588 -140.175229 
L 364.460588 -141.051503 
L 364.460588 -141.927777 
L 364.460588 -142.804052 
L 364.460588 -143.680326 
L 364.460588 -144.5566 
L 364.460588 -145.432874 
L 364.460588 -146.309148 
L 364.460588 -147.185422 
L 364.460588 -148.061696 
L 364.460588 -148.937971 
L 364.460588 -149.814245 
L 364.460588 -150.690519 
L 364.460588 -151.566793 
L 364.460588 -152.443067 
L 364.460588 -153.319341 
L 364.460588 -154.195615 
L 364.460588 -155.07189 
L 364.460588 -155.948164 
L 364.460588 -156.824438 
L 364.460588 -157.700712 
L 364.460588 -158.576986 
L 364.460588 -159.45326 
L 364.460588 -160.329535 
L 364.460588 -161.205809 
L 364.460588 -162.082083 
L 364.460588 -162.958357 
L 364.460588 -163.834631 
L 364.460588 -164.710905 
L 364.460588 -165.587179 
L 364.460588 -166.463454 
L 364.460588 -167.339728 
L 364.460588 -168.216002 
L 364.460588 -169.092276 
L 364.460588 -169.96855 
L 364.460588 -170.844824 
L 364.460588 -171.721098 
L 364.460588 -172.597373 
L 364.460588 -173.473647 
L 364.460588 -174.349921 
L 364.460588 -175.226195 
L 364.460588 -176.102469 
L 364.460588 -176.978743 
L 364.460588 -177.855018 
L 364.460588 -178.731292 
L 364.460588 -179.607566 
L 364.460588 -180.48384 
L 364.460588 -181.360114 
L 364.460588 -182.236388 
L 364.460588 -183.112662 
L 364.460588 -183.988937 
L 364.460588 -184.865211 
L 364.460588 -185.741485 
L 364.460588 -186.617759 
L 364.460588 -187.494033 
L 364.460588 -188.370307 
L 364.460588 -189.246582 
L 364.460588 -190.122856 
L 364.460588 -190.99913 
L 364.460588 -191.875404 
L 364.460588 -192.751678 
L 364.460588 -193.627952 
L 364.460588 -194.504226 
L 364.460588 -195.380501 
L 364.460588 -196.256775 
L 364.460588 -197.133049 
L 364.460588 -198.009323 
L 364.460588 -198.885597 
L 364.460588 -199.761871 
L 364.460588 -200.638145 
L 364.460588 -201.51442 
L 364.460588 -202.390694 
L 364.460588 -203.266968 
L 364.460588 -204.143242 
L 364.460588 -205.019516 
L 364.460588 -205.89579 
L 364.460588 -206.772065 
L 364.460588 -207.648339 
L 364.460588 -208.524613 
L 364.460588 -209.400887 
L 364.460588 -210.277161 
L 364.460588 -211.153435 
L 364.460588 -212.029709 
L 364.460588 -212.905984 
L 364.460588 -213.782258 
L 364.460588 -214.658532 
L 364.460588 -215.534806 
L 364.460588 -216.41108 
L 364.460588 -217.287354 
L 364.460588 -218.163628 
L 364.460588 -219.039903 
L 364.460588 -219.916177 
L 364.460588 -220.792451 
L 364.460588 -221.668725 
L 364.460588 -222.544999 
L 364.460588 -223.421273 
L 364.460588 -224.297548 
L 364.460588 -225.173822 
L 364.460588 -226.050096 
L 364.460588 -226.92637 
L 364.460588 -227.802644 
L 364.460588 -228.678918 
L 364.460588 -229.555192 
L 364.460588 -230.431467 
L 364.460588 -231.307741 
L 364.460588 -232.184015 
L 364.460588 -233.060289 
L 364.460588 -233.936563 
L 364.460588 -234.812837 
L 364.460588 -235.689112 
L 364.460588 -236.565386 
L 364.460588 -237.44166 
L 364.460588 -238.317934 
L 364.460588 -239.194208 
L 364.460588 -240.070482 
L 364.460588 -240.946756 
L 364.460588 -241.823031 
L 364.460588 -242.699305 
L 364.460588 -243.575579 
L 364.460588 -244.451853 
L 364.460588 -245.328127 
L 364.460588 -246.204401 
L 364.460588 -247.080675 
L 364.460588 -247.95695 
L 364.460588 -248.833224 
L 364.460588 -249.709498 
L 364.460588 -250.585772 
L 364.460588 -251.462046 
L 364.460588 -252.33832 
L 364.460588 -253.214595 
L 364.460588 -254.090869 
L 364.460588 -254.967143 
L 364.460588 -255.843417 
L 364.460588 -256.719691 
L 364.460588 -257.595965 
L 364.460588 -258.472239 
L 522.827281 -258.472239 
L 522.827281 -258.472239 
L 519.627651 -257.595965 
L 516.637491 -256.719691 
L 516.609953 -255.843417 
L 515.089154 -254.967143 
L 513.263429 -254.090869 
L 509.894337 -253.214595 
L 509.226786 -252.33832 
L 506.715653 -251.462046 
L 505.667798 -250.585772 
L 504.887044 -249.709498 
L 504.727859 -248.833224 
L 503.884953 -247.95695 
L 503.617021 -247.080675 
L 502.105256 -246.204401 
L 501.08307 -245.328127 
L 500.640959 -244.451853 
L 500.279268 -243.575579 
L 500.248647 -242.699305 
L 499.918715 -241.823031 
L 498.714988 -240.946756 
L 497.81285 -240.070482 
L 496.85836 -239.194208 
L 496.833603 -238.317934 
L 495.716985 -237.44166 
L 494.079637 -236.565386 
L 493.17118 -235.689112 
L 493.098897 -234.812837 
L 492.851208 -233.936563 
L 492.755275 -233.060289 
L 491.977058 -232.184015 
L 491.939841 -231.307741 
L 491.792376 -230.431467 
L 491.494875 -229.555192 
L 491.263016 -228.678918 
L 490.47933 -227.802644 
L 490.431009 -226.92637 
L 488.027094 -226.050096 
L 487.800962 -225.173822 
L 486.13268 -224.297548 
L 484.905236 -223.421273 
L 484.565856 -222.544999 
L 484.394274 -221.668725 
L 484.372992 -220.792451 
L 483.914494 -219.916177 
L 483.789036 -219.039903 
L 482.642115 -218.163628 
L 482.450752 -217.287354 
L 482.145712 -216.41108 
L 481.530981 -215.534806 
L 481.398397 -214.658532 
L 480.462242 -213.782258 
L 480.382265 -212.905984 
L 480.046808 -212.029709 
L 479.919799 -211.153435 
L 479.762617 -210.277161 
L 479.678721 -209.400887 
L 479.517045 -208.524613 
L 479.308014 -207.648339 
L 478.69666 -206.772065 
L 478.297764 -205.89579 
L 478.172438 -205.019516 
L 477.627553 -204.143242 
L 477.623484 -203.266968 
L 476.685506 -202.390694 
L 476.675075 -201.51442 
L 475.666827 -200.638145 
L 471.508281 -199.761871 
L 471.115144 -198.885597 
L 470.891689 -198.009323 
L 469.974746 -197.133049 
L 469.387359 -196.256775 
L 469.062351 -195.380501 
L 468.992711 -194.504226 
L 467.891119 -193.627952 
L 467.570844 -192.751678 
L 467.564868 -191.875404 
L 466.023842 -190.99913 
L 465.904038 -190.122856 
L 465.791408 -189.246582 
L 465.577699 -188.370307 
L 465.368067 -187.494033 
L 465.282681 -186.617759 
L 463.816357 -185.741485 
L 463.442079 -184.865211 
L 463.214003 -183.988937 
L 462.939667 -183.112662 
L 462.813597 -182.236388 
L 462.362289 -181.360114 
L 461.768094 -180.48384 
L 460.662656 -179.607566 
L 460.303198 -178.731292 
L 457.218116 -177.855018 
L 456.704288 -176.978743 
L 455.72171 -176.102469 
L 455.6094 -175.226195 
L 455.074441 -174.349921 
L 455.006863 -173.473647 
L 453.89994 -172.597373 
L 452.937881 -171.721098 
L 452.777899 -170.844824 
L 452.58217 -169.96855 
L 451.889758 -169.092276 
L 451.118327 -168.216002 
L 449.980235 -167.339728 
L 449.717431 -166.463454 
L 449.711078 -165.587179 
L 449.626597 -164.710905 
L 449.463212 -163.834631 
L 449.43179 -162.958357 
L 449.281076 -162.082083 
L 449.126013 -161.205809 
L 448.654706 -160.329535 
L 448.482634 -159.45326 
L 448.369848 -158.576986 
L 447.857926 -157.700712 
L 447.746576 -156.824438 
L 446.81371 -155.948164 
L 444.628385 -155.07189 
L 444.525677 -154.195615 
L 442.407356 -153.319341 
L 441.964338 -152.443067 
L 441.67746 -151.566793 
L 440.015919 -150.690519 
L 438.512147 -149.814245 
L 438.484055 -148.937971 
L 437.212384 -148.061696 
L 434.866235 -147.185422 
L 433.377711 -146.309148 
L 430.290729 -145.432874 
L 430.139788 -144.5566 
L 427.379552 -143.680326 
L 427.253418 -142.804052 
L 427.129486 -141.927777 
L 426.244995 -141.051503 
L 425.000995 -140.175229 
L 423.338095 -139.298955 
L 422.998249 -138.422681 
L 422.676741 -137.546407 
L 421.293207 -136.670132 
L 421.218555 -135.793858 
L 420.578632 -134.917584 
L 419.932315 -134.04131 
L 404.447957 -133.165036 
L 401.841201 -132.288762 
L 401.645856 -131.412488 
L 392.598208 -130.536213 
L 389.091486 -129.659939 
L 379.897055 -128.783665 
L 377.67539 -127.907391 
L 375.258193 -127.031117 
L 361.708448 -126.154843 
L 339.726315 -125.278568 
L 338.706679 -124.402294 
L 294.742514 -123.52602 
L 286.83586 -122.649746 
z
" style="stroke: #00bc00; stroke-opacity: 0.7"/>
    </defs>
    <g clip-path="url(#p2dc282d3a1)">
     <use xlink:href="#mc0e49a8da1" x="0" y="720" style="fill: #00bc00; fill-opacity: 0.7; stroke: #00bc00; stroke-opacity: 0.7"/>
    </g>
   </g>
   <g id="PolyCollection_6">
    <defs>
     <path id="m7fcf329168" d="M 638.189874 -268.111255 
L 364.460588 -268.111255 
L 364.460588 -268.987529 
L 364.460588 -269.863803 
L 364.460588 -270.740078 
L 364.460588 -271.616352 
L 364.460588 -272.492626 
L 364.460588 -273.3689 
L 364.460588 -274.245174 
L 364.460588 -275.121448 
L 364.460588 -275.997722 
L 364.460588 -276.873997 
L 364.460588 -277.750271 
L 364.460588 -278.626545 
L 364.460588 -279.502819 
L 364.460588 -280.379093 
L 364.460588 -281.255367 
L 364.460588 -282.131642 
L 364.460588 -283.007916 
L 364.460588 -283.88419 
L 364.460588 -284.760464 
L 364.460588 -285.636738 
L 364.460588 -286.513012 
L 364.460588 -287.389286 
L 364.460588 -288.265561 
L 364.460588 -289.141835 
L 364.460588 -290.018109 
L 364.460588 -290.894383 
L 364.460588 -291.770657 
L 364.460588 -292.646931 
L 364.460588 -293.523205 
L 364.460588 -294.39948 
L 364.460588 -295.275754 
L 364.460588 -296.152028 
L 364.460588 -297.028302 
L 364.460588 -297.904576 
L 364.460588 -298.78085 
L 364.460588 -299.657125 
L 364.460588 -300.533399 
L 364.460588 -301.409673 
L 364.460588 -302.285947 
L 364.460588 -303.162221 
L 364.460588 -304.038495 
L 364.460588 -304.914769 
L 364.460588 -305.791044 
L 364.460588 -306.667318 
L 364.460588 -307.543592 
L 364.460588 -308.419866 
L 364.460588 -309.29614 
L 364.460588 -310.172414 
L 364.460588 -311.048689 
L 364.460588 -311.924963 
L 364.460588 -312.801237 
L 364.460588 -313.677511 
L 364.460588 -314.553785 
L 364.460588 -315.430059 
L 364.460588 -316.306333 
L 364.460588 -317.182608 
L 364.460588 -318.058882 
L 364.460588 -318.935156 
L 364.460588 -319.81143 
L 364.460588 -320.687704 
L 364.460588 -321.563978 
L 364.460588 -322.440252 
L 364.460588 -323.316527 
L 364.460588 -324.192801 
L 364.460588 -325.069075 
L 364.460588 -325.945349 
L 364.460588 -326.821623 
L 364.460588 -327.697897 
L 364.460588 -328.574172 
L 364.460588 -329.450446 
L 364.460588 -330.32672 
L 364.460588 -331.202994 
L 364.460588 -332.079268 
L 364.460588 -332.955542 
L 364.460588 -333.831816 
L 364.460588 -334.708091 
L 364.460588 -335.584365 
L 364.460588 -336.460639 
L 364.460588 -337.336913 
L 364.460588 -338.213187 
L 364.460588 -339.089461 
L 364.460588 -339.965735 
L 364.460588 -340.84201 
L 364.460588 -341.718284 
L 364.460588 -342.594558 
L 364.460588 -343.470832 
L 364.460588 -344.347106 
L 364.460588 -345.22338 
L 364.460588 -346.099655 
L 364.460588 -346.975929 
L 364.460588 -347.852203 
L 364.460588 -348.728477 
L 364.460588 -349.604751 
L 364.460588 -350.481025 
L 364.460588 -351.357299 
L 364.460588 -352.233574 
L 364.460588 -353.109848 
L 364.460588 -353.986122 
L 364.460588 -354.862396 
L 364.460588 -355.73867 
L 364.460588 -356.614944 
L 364.460588 -357.491219 
L 364.460588 -358.367493 
L 364.460588 -359.243767 
L 364.460588 -360.120041 
L 364.460588 -360.996315 
L 364.460588 -361.872589 
L 364.460588 -362.748863 
L 364.460588 -363.625138 
L 364.460588 -364.501412 
L 364.460588 -365.377686 
L 364.460588 -366.25396 
L 364.460588 -367.130234 
L 364.460588 -368.006508 
L 364.460588 -368.882782 
L 364.460588 -369.759057 
L 364.460588 -370.635331 
L 364.460588 -371.511605 
L 364.460588 -372.387879 
L 364.460588 -373.264153 
L 364.460588 -374.140427 
L 364.460588 -375.016702 
L 364.460588 -375.892976 
L 364.460588 -376.76925 
L 364.460588 -377.645524 
L 364.460588 -378.521798 
L 364.460588 -379.398072 
L 364.460588 -380.274346 
L 364.460588 -381.150621 
L 364.460588 -382.026895 
L 364.460588 -382.903169 
L 364.460588 -383.779443 
L 364.460588 -384.655717 
L 364.460588 -385.531991 
L 364.460588 -386.408265 
L 364.460588 -387.28454 
L 364.460588 -388.160814 
L 364.460588 -389.037088 
L 364.460588 -389.913362 
L 364.460588 -390.789636 
L 364.460588 -391.66591 
L 364.460588 -392.542185 
L 364.460588 -393.418459 
L 364.460588 -394.294733 
L 364.460588 -395.171007 
L 364.460588 -396.047281 
L 364.460588 -396.923555 
L 364.460588 -397.799829 
L 364.460588 -398.676104 
L 364.460588 -399.552378 
L 364.460588 -400.428652 
L 364.460588 -401.304926 
L 364.460588 -402.1812 
L 364.460588 -403.057474 
L 364.460588 -403.933749 
L 364.460588 -404.810023 
L 364.460588 -405.686297 
L 364.460588 -406.562571 
L 364.460588 -407.438845 
L 364.460588 -408.315119 
L 364.460588 -409.191393 
L 364.460588 -410.067668 
L 364.460588 -410.943942 
L 364.460588 -411.820216 
L 364.460588 -412.69649 
L 364.460588 -413.572764 
L 364.460588 -414.449038 
L 364.460588 -415.325312 
L 364.460588 -416.201587 
L 364.460588 -417.077861 
L 364.460588 -417.954135 
L 364.460588 -418.830409 
L 364.460588 -419.706683 
L 364.460588 -420.582957 
L 364.460588 -421.459232 
L 364.460588 -422.335506 
L 364.460588 -423.21178 
L 364.460588 -424.088054 
L 364.460588 -424.964328 
L 364.460588 -425.840602 
L 364.460588 -426.716876 
L 364.460588 -427.593151 
L 364.460588 -428.469425 
L 364.460588 -429.345699 
L 364.460588 -430.221973 
L 364.460588 -431.098247 
L 364.460588 -431.974521 
L 364.460588 -432.850795 
L 364.460588 -433.72707 
L 364.460588 -434.603344 
L 364.460588 -435.479618 
L 364.460588 -436.355892 
L 364.460588 -437.232166 
L 364.460588 -438.10844 
L 364.460588 -438.984715 
L 364.460588 -439.860989 
L 364.460588 -440.737263 
L 364.460588 -441.613537 
L 364.460588 -442.489811 
L 364.460588 -443.366085 
L 364.460588 -444.242359 
L 364.460588 -445.118634 
L 364.460588 -445.994908 
L 364.460588 -446.871182 
L 364.460588 -447.747456 
L 364.460588 -448.62373 
L 364.460588 -449.500004 
L 364.460588 -450.376279 
L 364.460588 -451.252553 
L 364.460588 -452.128827 
L 364.460588 -453.005101 
L 364.460588 -453.881375 
L 364.460588 -454.757649 
L 364.460588 -455.633923 
L 364.460588 -456.510198 
L 364.460588 -457.386472 
L 364.460588 -458.262746 
L 364.460588 -459.13902 
L 364.460588 -460.015294 
L 364.460588 -460.891568 
L 364.460588 -461.767842 
L 364.460588 -462.644117 
L 364.460588 -463.520391 
L 364.460588 -464.396665 
L 364.460588 -465.272939 
L 364.460588 -466.149213 
L 364.460588 -467.025487 
L 364.460588 -467.901762 
L 364.460588 -468.778036 
L 364.460588 -469.65431 
L 364.460588 -470.530584 
L 364.460588 -471.406858 
L 364.460588 -472.283132 
L 364.460588 -473.159406 
L 364.460588 -474.035681 
L 364.460588 -474.911955 
L 364.460588 -475.788229 
L 364.460588 -476.664503 
L 364.460588 -477.540777 
L 364.460588 -478.417051 
L 364.460588 -479.293325 
L 364.460588 -480.1696 
L 364.460588 -481.045874 
L 364.460588 -481.922148 
L 364.460588 -482.798422 
L 364.460588 -483.674696 
L 364.460588 -484.55097 
L 364.460588 -485.427245 
L 364.460588 -486.303519 
L 364.460588 -487.179793 
L 364.460588 -488.056067 
L 364.460588 -488.932341 
L 364.460588 -489.808615 
L 364.460588 -490.684889 
L 364.460588 -491.561164 
L 364.460588 -492.437438 
L 364.460588 -493.313712 
L 364.460588 -494.189986 
L 364.460588 -495.06626 
L 364.460588 -495.942534 
L 364.460588 -496.818809 
L 364.460588 -497.695083 
L 364.460588 -498.571357 
L 364.460588 -499.447631 
L 364.460588 -500.323905 
L 364.460588 -501.200179 
L 364.460588 -502.076453 
L 364.460588 -502.952728 
L 364.460588 -503.829002 
L 364.460588 -504.705276 
L 364.460588 -505.58155 
L 364.460588 -506.457824 
L 364.460588 -507.334098 
L 364.460588 -508.210372 
L 364.460588 -509.086647 
L 364.460588 -509.962921 
L 364.460588 -510.839195 
L 364.460588 -511.715469 
L 364.460588 -512.591743 
L 364.460588 -513.468017 
L 364.460588 -514.344292 
L 364.460588 -515.220566 
L 364.460588 -516.09684 
L 364.460588 -516.973114 
L 364.460588 -517.849388 
L 364.460588 -518.725662 
L 364.460588 -519.601936 
L 364.460588 -520.478211 
L 364.460588 -521.354485 
L 364.460588 -522.230759 
L 364.460588 -523.107033 
L 364.460588 -523.983307 
L 364.460588 -524.859581 
L 364.460588 -525.735855 
L 364.460588 -526.61213 
L 364.460588 -527.488404 
L 364.460588 -528.364678 
L 364.460588 -529.240952 
L 364.460588 -530.117226 
L 364.460588 -530.9935 
L 364.460588 -531.869775 
L 364.460588 -532.746049 
L 364.460588 -533.622323 
L 364.460588 -534.498597 
L 364.460588 -535.374871 
L 364.460588 -536.251145 
L 364.460588 -537.127419 
L 364.460588 -538.003694 
L 364.460588 -538.879968 
L 364.460588 -539.756242 
L 364.460588 -540.632516 
L 364.460588 -541.50879 
L 364.460588 -542.385064 
L 364.460588 -543.261339 
L 364.460588 -544.137613 
L 364.460588 -545.013887 
L 364.460588 -545.890161 
L 364.460588 -546.766435 
L 364.460588 -547.642709 
L 364.460588 -548.518983 
L 364.460588 -549.395258 
L 364.460588 -550.271532 
L 364.460588 -551.147806 
L 364.460588 -552.02408 
L 364.460588 -552.900354 
L 364.460588 -553.776628 
L 364.460588 -554.652902 
L 364.460588 -555.529177 
L 364.460588 -556.405451 
L 364.460588 -557.281725 
L 364.460588 -558.157999 
L 364.460588 -559.034273 
L 364.460588 -559.910547 
L 364.460588 -560.786822 
L 364.460588 -561.663096 
L 364.460588 -562.53937 
L 364.460588 -563.415644 
L 364.460588 -564.291918 
L 364.460588 -565.168192 
L 364.460588 -566.044466 
L 364.460588 -566.920741 
L 364.460588 -567.797015 
L 364.460588 -568.673289 
L 364.460588 -569.549563 
L 364.460588 -570.425837 
L 364.460588 -571.302111 
L 364.460588 -572.178385 
L 364.460588 -573.05466 
L 364.460588 -573.930934 
L 364.460588 -574.807208 
L 364.460588 -575.683482 
L 364.460588 -576.559756 
L 364.460588 -577.43603 
L 364.460588 -578.312305 
L 364.460588 -579.188579 
L 364.460588 -580.064853 
L 364.460588 -580.941127 
L 364.460588 -581.817401 
L 364.460588 -582.693675 
L 364.460588 -583.569949 
L 364.460588 -584.446224 
L 364.460588 -585.322498 
L 364.460588 -586.198772 
L 364.460588 -587.075046 
L 364.460588 -587.95132 
L 364.460588 -588.827594 
L 364.460588 -589.703869 
L 364.460588 -590.580143 
L 364.460588 -591.456417 
L 364.460588 -592.332691 
L 364.460588 -593.208965 
L 364.460588 -594.085239 
L 364.460588 -594.961513 
L 364.460588 -595.837788 
L 364.460588 -596.714062 
L 364.460588 -597.590336 
L 364.460588 -598.46661 
L 364.460588 -599.342884 
L 364.460588 -600.219158 
L 364.460588 -601.095432 
L 364.460588 -601.971707 
L 364.460588 -602.847981 
L 364.460588 -603.724255 
L 364.460588 -604.600529 
L 364.460588 -605.476803 
L 364.460588 -606.353077 
L 364.460588 -607.229352 
L 364.460588 -608.105626 
L 364.460588 -608.9819 
L 364.460588 -609.858174 
L 364.460588 -610.734448 
L 364.460588 -611.610722 
L 364.460588 -612.486996 
L 364.460588 -613.363271 
L 364.460588 -614.239545 
L 364.460588 -615.115819 
L 364.460588 -615.992093 
L 364.460588 -616.868367 
L 364.460588 -617.744641 
L 364.460588 -618.620915 
L 364.460588 -619.49719 
L 364.460588 -620.373464 
L 364.460588 -621.249738 
L 364.460588 -622.126012 
L 364.460588 -623.002286 
L 364.460588 -623.87856 
L 364.460588 -624.754835 
L 364.460588 -625.631109 
L 364.460588 -626.507383 
L 364.460588 -627.383657 
L 364.460588 -628.259931 
L 364.460588 -629.136205 
L 364.460588 -630.012479 
L 364.460588 -630.888754 
L 364.460588 -631.765028 
L 364.460588 -632.641302 
L 364.460588 -633.517576 
L 364.460588 -634.39385 
L 364.460588 -635.270124 
L 364.460588 -636.146399 
L 364.460588 -637.022673 
L 364.460588 -637.898947 
L 364.460588 -638.775221 
L 364.460588 -639.651495 
L 364.460588 -640.527769 
L 364.460588 -641.404043 
L 364.460588 -642.280318 
L 364.460588 -643.156592 
L 364.460588 -644.032866 
L 364.460588 -644.90914 
L 364.460588 -645.785414 
L 364.460588 -646.661688 
L 364.460588 -647.537962 
L 364.460588 -648.414237 
L 364.460588 -649.290511 
L 364.460588 -650.166785 
L 364.460588 -651.043059 
L 364.460588 -651.919333 
L 364.460588 -652.795607 
L 364.460588 -653.671882 
L 364.460588 -654.548156 
L 364.460588 -655.42443 
L 364.460588 -656.300704 
L 364.460588 -657.176978 
L 364.460588 -658.053252 
L 364.460588 -658.929526 
L 364.460588 -659.805801 
L 364.460588 -660.682075 
L 364.460588 -661.558349 
L 364.460588 -662.434623 
L 364.460588 -663.310897 
L 364.460588 -664.187171 
L 364.460588 -665.063446 
L 364.460588 -665.93972 
L 364.460588 -666.815994 
L 364.460588 -667.692268 
L 364.460588 -668.568542 
L 364.460588 -669.444816 
L 364.460588 -670.32109 
L 364.460588 -671.197365 
L 364.460588 -672.073639 
L 364.460588 -672.949913 
L 364.460588 -673.826187 
L 364.460588 -674.702461 
L 364.460588 -675.578735 
L 364.460588 -676.455009 
L 364.460588 -677.331284 
L 364.460588 -678.207558 
L 364.460588 -679.083832 
L 364.460588 -679.960106 
L 682.904816 -679.960106 
L 682.904816 -679.960106 
L 682.793944 -679.083832 
L 682.120294 -678.207558 
L 682.019375 -677.331284 
L 681.990622 -676.455009 
L 681.843969 -675.578735 
L 681.834907 -674.702461 
L 681.597674 -673.826187 
L 681.586948 -672.949913 
L 681.530135 -672.073639 
L 681.153638 -671.197365 
L 681.019579 -670.32109 
L 680.995685 -669.444816 
L 680.863123 -668.568542 
L 680.827792 -667.692268 
L 680.768408 -666.815994 
L 680.741369 -665.93972 
L 680.712644 -665.063446 
L 680.677329 -664.187171 
L 680.57327 -663.310897 
L 680.553276 -662.434623 
L 680.527025 -661.558349 
L 680.522229 -660.682075 
L 680.506455 -659.805801 
L 680.440512 -658.929526 
L 680.428834 -658.053252 
L 680.420985 -657.176978 
L 680.154938 -656.300704 
L 680.152686 -655.42443 
L 680.120239 -654.548156 
L 680.098971 -653.671882 
L 680.080905 -652.795607 
L 680.073854 -651.919333 
L 680.056453 -651.043059 
L 680.015879 -650.166785 
L 679.986679 -649.290511 
L 679.938392 -648.414237 
L 679.907385 -647.537962 
L 679.89207 -646.661688 
L 679.881591 -645.785414 
L 679.834047 -644.90914 
L 679.660436 -644.032866 
L 679.602956 -643.156592 
L 679.555685 -642.280318 
L 679.50693 -641.404043 
L 679.485161 -640.527769 
L 679.452299 -639.651495 
L 679.434381 -638.775221 
L 679.411082 -637.898947 
L 679.410967 -637.022673 
L 679.404818 -636.146399 
L 679.388411 -635.270124 
L 679.37382 -634.39385 
L 679.357335 -633.517576 
L 679.346148 -632.641302 
L 679.322943 -631.765028 
L 679.306408 -630.888754 
L 679.302988 -630.012479 
L 679.301361 -629.136205 
L 679.287393 -628.259931 
L 679.286364 -627.383657 
L 679.272069 -626.507383 
L 679.270295 -625.631109 
L 679.263928 -624.754835 
L 679.262327 -623.87856 
L 679.241876 -623.002286 
L 679.223869 -622.126012 
L 679.205546 -621.249738 
L 679.177629 -620.373464 
L 679.16681 -619.49719 
L 679.142021 -618.620915 
L 679.090769 -617.744641 
L 679.021013 -616.868367 
L 679.018385 -615.992093 
L 679.006852 -615.115819 
L 679.002992 -614.239545 
L 678.990873 -613.363271 
L 678.981245 -612.486996 
L 678.944939 -611.610722 
L 678.935795 -610.734448 
L 678.929043 -609.858174 
L 678.882504 -608.9819 
L 678.875063 -608.105626 
L 678.874058 -607.229352 
L 678.849038 -606.353077 
L 678.844332 -605.476803 
L 678.825698 -604.600529 
L 678.798258 -603.724255 
L 678.664702 -602.847981 
L 678.651405 -601.971707 
L 678.576975 -601.095432 
L 678.564879 -600.219158 
L 678.55746 -599.342884 
L 678.551518 -598.46661 
L 678.528349 -597.590336 
L 678.510306 -596.714062 
L 678.492449 -595.837788 
L 678.488776 -594.961513 
L 678.470002 -594.085239 
L 678.444975 -593.208965 
L 678.422493 -592.332691 
L 678.417233 -591.456417 
L 678.40537 -590.580143 
L 678.395658 -589.703869 
L 678.298637 -588.827594 
L 678.288091 -587.95132 
L 678.26696 -587.075046 
L 678.242395 -586.198772 
L 678.229397 -585.322498 
L 678.186463 -584.446224 
L 678.167101 -583.569949 
L 678.144775 -582.693675 
L 678.12751 -581.817401 
L 678.102135 -580.941127 
L 678.094306 -580.064853 
L 678.034705 -579.188579 
L 678.005106 -578.312305 
L 677.978644 -577.43603 
L 677.974794 -576.559756 
L 677.956117 -575.683482 
L 677.94793 -574.807208 
L 677.911972 -573.930934 
L 677.895284 -573.05466 
L 677.859526 -572.178385 
L 677.84132 -571.302111 
L 677.824578 -570.425837 
L 677.75999 -569.549563 
L 677.697945 -568.673289 
L 677.671212 -567.797015 
L 677.663185 -566.920741 
L 677.654744 -566.044466 
L 677.649327 -565.168192 
L 677.628459 -564.291918 
L 677.622252 -563.415644 
L 677.546671 -562.53937 
L 677.489378 -561.663096 
L 677.478861 -560.786822 
L 677.464689 -559.910547 
L 677.457111 -559.034273 
L 677.395245 -558.157999 
L 677.376002 -557.281725 
L 677.347132 -556.405451 
L 677.341486 -555.529177 
L 677.273798 -554.652902 
L 677.262973 -553.776628 
L 677.245531 -552.900354 
L 677.213699 -552.02408 
L 677.198307 -551.147806 
L 677.096639 -550.271532 
L 677.079719 -549.395258 
L 677.078176 -548.518983 
L 677.064827 -547.642709 
L 677.039909 -546.766435 
L 677.016637 -545.890161 
L 677.009065 -545.013887 
L 676.994724 -544.137613 
L 676.94843 -543.261339 
L 676.93663 -542.385064 
L 676.923599 -541.50879 
L 676.81061 -540.632516 
L 676.739657 -539.756242 
L 676.713059 -538.879968 
L 676.709684 -538.003694 
L 676.70574 -537.127419 
L 676.684295 -536.251145 
L 676.665222 -535.374871 
L 676.655051 -534.498597 
L 676.651205 -533.622323 
L 676.624322 -532.746049 
L 676.612367 -531.869775 
L 676.578674 -530.9935 
L 676.529062 -530.117226 
L 676.52059 -529.240952 
L 676.458468 -528.364678 
L 676.449705 -527.488404 
L 676.428088 -526.61213 
L 676.413877 -525.735855 
L 676.39451 -524.859581 
L 676.387511 -523.983307 
L 676.342102 -523.107033 
L 676.331349 -522.230759 
L 676.301668 -521.354485 
L 676.296958 -520.478211 
L 676.229601 -519.601936 
L 676.222442 -518.725662 
L 676.199539 -517.849388 
L 676.182233 -516.973114 
L 676.113912 -516.09684 
L 676.090307 -515.220566 
L 676.041268 -514.344292 
L 675.98015 -513.468017 
L 675.957669 -512.591743 
L 675.925168 -511.715469 
L 675.899377 -510.839195 
L 675.803792 -509.962921 
L 675.773531 -509.086647 
L 675.714549 -508.210372 
L 675.663521 -507.334098 
L 675.658843 -506.457824 
L 675.624642 -505.58155 
L 675.603177 -504.705276 
L 675.600989 -503.829002 
L 675.540226 -502.952728 
L 675.457883 -502.076453 
L 675.408842 -501.200179 
L 675.286854 -500.323905 
L 675.279406 -499.447631 
L 675.255191 -498.571357 
L 675.244337 -497.695083 
L 675.210225 -496.818809 
L 675.190396 -495.942534 
L 675.141177 -495.06626 
L 675.136193 -494.189986 
L 675.119334 -493.313712 
L 675.117556 -492.437438 
L 675.048338 -491.561164 
L 675.043784 -490.684889 
L 675.043103 -489.808615 
L 675.026239 -488.932341 
L 675.008852 -488.056067 
L 674.857392 -487.179793 
L 674.840709 -486.303519 
L 674.831103 -485.427245 
L 674.794296 -484.55097 
L 674.779199 -483.674696 
L 674.771948 -482.798422 
L 674.724701 -481.922148 
L 674.705701 -481.045874 
L 674.697992 -480.1696 
L 674.691111 -479.293325 
L 674.667383 -478.417051 
L 674.659377 -477.540777 
L 674.644055 -476.664503 
L 674.619018 -475.788229 
L 674.59209 -474.911955 
L 674.585206 -474.035681 
L 674.536593 -473.159406 
L 674.532686 -472.283132 
L 674.498614 -471.406858 
L 674.484481 -470.530584 
L 674.420498 -469.65431 
L 674.403334 -468.778036 
L 674.383284 -467.901762 
L 674.349094 -467.025487 
L 674.32074 -466.149213 
L 674.317032 -465.272939 
L 674.263393 -464.396665 
L 674.252024 -463.520391 
L 674.232511 -462.644117 
L 674.160682 -461.767842 
L 674.08195 -460.891568 
L 674.021285 -460.015294 
L 673.96968 -459.13902 
L 673.816567 -458.262746 
L 673.599488 -457.386472 
L 673.406273 -456.510198 
L 673.344638 -455.633923 
L 673.302049 -454.757649 
L 673.113907 -453.881375 
L 673.067726 -453.005101 
L 673.049623 -452.128827 
L 672.93097 -451.252553 
L 672.897111 -450.376279 
L 672.87866 -449.500004 
L 672.867687 -448.62373 
L 672.789316 -447.747456 
L 672.774308 -446.871182 
L 672.728846 -445.994908 
L 672.679004 -445.118634 
L 672.668235 -444.242359 
L 672.665401 -443.366085 
L 672.664523 -442.489811 
L 672.643947 -441.613537 
L 672.630036 -440.737263 
L 672.621456 -439.860989 
L 672.591275 -438.984715 
L 672.538787 -438.10844 
L 672.528447 -437.232166 
L 672.510846 -436.355892 
L 672.502609 -435.479618 
L 672.483746 -434.603344 
L 672.474817 -433.72707 
L 672.358013 -432.850795 
L 672.33235 -431.974521 
L 672.331648 -431.098247 
L 672.328097 -430.221973 
L 672.308886 -429.345699 
L 672.29049 -428.469425 
L 672.287924 -427.593151 
L 672.268711 -426.716876 
L 672.256137 -425.840602 
L 672.198465 -424.964328 
L 672.19151 -424.088054 
L 672.170931 -423.21178 
L 672.136183 -422.335506 
L 672.132861 -421.459232 
L 672.131068 -420.582957 
L 672.130201 -419.706683 
L 672.087374 -418.830409 
L 672.08613 -417.954135 
L 672.076583 -417.077861 
L 672.073127 -416.201587 
L 672.035483 -415.325312 
L 671.950889 -414.449038 
L 671.913673 -413.572764 
L 671.907188 -412.69649 
L 671.894643 -411.820216 
L 671.857673 -410.943942 
L 671.809335 -410.067668 
L 671.805101 -409.191393 
L 671.789331 -408.315119 
L 671.745714 -407.438845 
L 671.736313 -406.562571 
L 671.730415 -405.686297 
L 671.693895 -404.810023 
L 671.684951 -403.933749 
L 671.665591 -403.057474 
L 671.605866 -402.1812 
L 671.521298 -401.304926 
L 671.435348 -400.428652 
L 671.309269 -399.552378 
L 671.223028 -398.676104 
L 671.075391 -397.799829 
L 670.984336 -396.923555 
L 670.955189 -396.047281 
L 670.82561 -395.171007 
L 670.806297 -394.294733 
L 670.75417 -393.418459 
L 670.724348 -392.542185 
L 670.67164 -391.66591 
L 670.605979 -390.789636 
L 670.547165 -389.913362 
L 670.538634 -389.037088 
L 670.517811 -388.160814 
L 670.304355 -387.28454 
L 670.250296 -386.408265 
L 670.177702 -385.531991 
L 670.175052 -384.655717 
L 670.154044 -383.779443 
L 670.138312 -382.903169 
L 670.127289 -382.026895 
L 670.107539 -381.150621 
L 670.006479 -380.274346 
L 669.984499 -379.398072 
L 669.983136 -378.521798 
L 669.980716 -377.645524 
L 669.960347 -376.76925 
L 669.953739 -375.892976 
L 669.89106 -375.016702 
L 669.778429 -374.140427 
L 669.651057 -373.264153 
L 669.648647 -372.387879 
L 669.64845 -371.511605 
L 669.602173 -370.635331 
L 669.602026 -369.759057 
L 669.582878 -368.882782 
L 669.525749 -368.006508 
L 669.412812 -367.130234 
L 669.411921 -366.25396 
L 669.405857 -365.377686 
L 669.375986 -364.501412 
L 669.306151 -363.625138 
L 669.306146 -362.748863 
L 669.265826 -361.872589 
L 669.19352 -360.996315 
L 669.105749 -360.120041 
L 668.998459 -359.243767 
L 668.982734 -358.367493 
L 668.939452 -357.491219 
L 668.929387 -356.614944 
L 668.914955 -355.73867 
L 668.903239 -354.862396 
L 668.854355 -353.986122 
L 668.804491 -353.109848 
L 668.762148 -352.233574 
L 668.589076 -351.357299 
L 668.549463 -350.481025 
L 668.393334 -349.604751 
L 668.358309 -348.728477 
L 668.165992 -347.852203 
L 668.163914 -346.975929 
L 667.73662 -346.099655 
L 667.458279 -345.22338 
L 667.238454 -344.347106 
L 667.236349 -343.470832 
L 667.176095 -342.594558 
L 667.00823 -341.718284 
L 666.934025 -340.84201 
L 666.876807 -339.965735 
L 666.787145 -339.089461 
L 666.720755 -338.213187 
L 666.650203 -337.336913 
L 666.421385 -336.460639 
L 666.369757 -335.584365 
L 666.337779 -334.708091 
L 666.189128 -333.831816 
L 666.159975 -332.955542 
L 666.058697 -332.079268 
L 666.037138 -331.202994 
L 665.878177 -330.32672 
L 665.860385 -329.450446 
L 665.850207 -328.574172 
L 665.679921 -327.697897 
L 665.586987 -326.821623 
L 665.369163 -325.945349 
L 665.321394 -325.069075 
L 664.991612 -324.192801 
L 664.829833 -323.316527 
L 664.758408 -322.440252 
L 664.624746 -321.563978 
L 664.351807 -320.687704 
L 663.735817 -319.81143 
L 663.708452 -318.935156 
L 663.696938 -318.058882 
L 663.622977 -317.182608 
L 663.54016 -316.306333 
L 663.521839 -315.430059 
L 663.520574 -314.553785 
L 663.182769 -313.677511 
L 663.1803 -312.801237 
L 663.156644 -311.924963 
L 663.061234 -311.048689 
L 662.975291 -310.172414 
L 662.763203 -309.29614 
L 662.639727 -308.419866 
L 662.470372 -307.543592 
L 662.329121 -306.667318 
L 662.32037 -305.791044 
L 662.137313 -304.914769 
L 662.075278 -304.038495 
L 661.920029 -303.162221 
L 661.861092 -302.285947 
L 661.80407 -301.409673 
L 661.720488 -300.533399 
L 661.48847 -299.657125 
L 661.135802 -298.78085 
L 660.946548 -297.904576 
L 660.918912 -297.028302 
L 660.698023 -296.152028 
L 660.413759 -295.275754 
L 660.095532 -294.39948 
L 659.982135 -293.523205 
L 659.933193 -292.646931 
L 659.128641 -291.770657 
L 658.885103 -290.894383 
L 658.7945 -290.018109 
L 658.706033 -289.141835 
L 657.967609 -288.265561 
L 657.398618 -287.389286 
L 657.345736 -286.513012 
L 656.901694 -285.636738 
L 656.838812 -284.760464 
L 656.731095 -283.88419 
L 656.037758 -283.007916 
L 655.575407 -282.131642 
L 655.39964 -281.255367 
L 655.273162 -280.379093 
L 654.061018 -279.502819 
L 654.028689 -278.626545 
L 653.648928 -277.750271 
L 653.209206 -276.873997 
L 650.958303 -275.997722 
L 649.978885 -275.121448 
L 648.104374 -274.245174 
L 647.301425 -273.3689 
L 646.195271 -272.492626 
L 645.528905 -271.616352 
L 645.136562 -270.740078 
L 644.98737 -269.863803 
L 641.756413 -268.987529 
L 638.189874 -268.111255 
z
" style="stroke: #67ff00; stroke-opacity: 0.7"/>
    </defs>
    <g clip-path="url(#p2dc282d3a1)">
     <use xlink:href="#m7fcf329168" x="0" y="720" style="fill: #67ff00; fill-opacity: 0.7; stroke: #67ff00; stroke-opacity: 0.7"/>
    </g>
   </g>
   <g id="PolyCollection_7">
    <defs>
     <path id="m0afda33b50" d="M 364.460588 -689.599122 
L 364.460588 -689.599122 
L 364.460588 -689.599122 
L 364.460588 -689.599122 
z
" style="stroke: #ffc900; stroke-opacity: 0.7"/>
    </defs>
    <g clip-path="url(#p2dc282d3a1)">
     <use xlink:href="#m0afda33b50" x="0" y="720" style="fill: #ffc900; fill-opacity: 0.7; stroke: #ffc900; stroke-opacity: 0.7"/>
    </g>
   </g>
   <g id="PolyCollection_8">
    <defs>
     <path id="m28d1a928f8" d="M 364.460588 -699.238137 
L 364.460588 -699.238137 
L 364.460588 -699.238137 
L 364.460588 -699.238137 
z
" style="stroke: #ec0000; stroke-opacity: 0.7"/>
    </defs>
    <g clip-path="url(#p2dc282d3a1)">
     <use xlink:href="#m28d1a928f8" x="0" y="720" style="fill: #ec0000; fill-opacity: 0.7; stroke: #ec0000; stroke-opacity: 0.7"/>
    </g>
   </g>
   <g id="matplotlib.axis_1">
    <g id="xtick_1">
     <g id="line2d_1">
      <defs>
       <path id="mce2493e97a" d="M 0 0 
L 0 3.5 
" style="stroke: #000000; stroke-width: 0.8"/>
      </defs>
      <g>
       <use xlink:href="#mce2493e97a" x="27.978125" y="678.84375" style="stroke: #000000; stroke-width: 0.8"/>
      </g>
     </g>
     <g id="text_1">
      <!-- −1.0 -->
      <g transform="translate(15.836719 693.442188) scale(0.1 -0.1)">
       <defs>
        <path id="DejaVuSans-2212" d="M 678 2272 
L 4684 2272 
L 4684 1741 
L 678 1741 
L 678 2272 
z
" transform="scale(0.015625)"/>
        <path id="DejaVuSans-31" d="M 794 531 
L 1825 531 
L 1825 4091 
L 703 3866 
L 703 4441 
L 1819 4666 
L 2450 4666 
L 2450 531 
L 3481 531 
L 3481 0 
L 794 0 
L 794 531 
z
" transform="scale(0.015625)"/>
        <path id="DejaVuSans-2e" d="M 684 794 
L 1344 794 
L 1344 0 
L 684 0 
L 684 794 
z
" transform="scale(0.015625)"/>
        <path id="DejaVuSans-30" d="M 2034 4250 
Q 1547 4250 1301 3770 
Q 1056 3291 1056 2328 
Q 1056 1369 1301 889 
Q 1547 409 2034 409 
Q 2525 409 2770 889 
Q 3016 1369 3016 2328 
Q 3016 3291 2770 3770 
Q 2525 4250 2034 4250 
z
M 2034 4750 
Q 2819 4750 3233 4129 
Q 3647 3509 3647 2328 
Q 3647 1150 3233 529 
Q 2819 -91 2034 -91 
Q 1250 -91 836 529 
Q 422 1150 422 2328 
Q 422 3509 836 4129 
Q 1250 4750 2034 4750 
z
" transform="scale(0.015625)"/>
       </defs>
       <use xlink:href="#DejaVuSans-2212"/>
       <use xlink:href="#DejaVuSans-31" x="83.789062"/>
       <use xlink:href="#DejaVuSans-2e" x="147.412109"/>
       <use xlink:href="#DejaVuSans-30" x="179.199219"/>
      </g>
     </g>
    </g>
    <g id="xtick_2">
     <g id="line2d_2">
      <g>
       <use xlink:href="#mce2493e97a" x="95.274618" y="678.84375" style="stroke: #000000; stroke-width: 0.8"/>
      </g>
     </g>
     <g id="text_2">
      <!-- −0.8 -->
      <g transform="translate(83.133211 693.442188) scale(0.1 -0.1)">
       <defs>
        <path id="DejaVuSans-38" d="M 2034 2216 
Q 1584 2216 1326 1975 
Q 1069 1734 1069 1313 
Q 1069 891 1326 650 
Q 1584 409 2034 409 
Q 2484 409 2743 651 
Q 3003 894 3003 1313 
Q 3003 1734 2745 1975 
Q 2488 2216 2034 2216 
z
M 1403 2484 
Q 997 2584 770 2862 
Q 544 3141 544 3541 
Q 544 4100 942 4425 
Q 1341 4750 2034 4750 
Q 2731 4750 3128 4425 
Q 3525 4100 3525 3541 
Q 3525 3141 3298 2862 
Q 3072 2584 2669 2484 
Q 3125 2378 3379 2068 
Q 3634 1759 3634 1313 
Q 3634 634 3220 271 
Q 2806 -91 2034 -91 
Q 1263 -91 848 271 
Q 434 634 434 1313 
Q 434 1759 690 2068 
Q 947 2378 1403 2484 
z
M 1172 3481 
Q 1172 3119 1398 2916 
Q 1625 2713 2034 2713 
Q 2441 2713 2670 2916 
Q 2900 3119 2900 3481 
Q 2900 3844 2670 4047 
Q 2441 4250 2034 4250 
Q 1625 4250 1398 4047 
Q 1172 3844 1172 3481 
z
" transform="scale(0.015625)"/>
       </defs>
       <use xlink:href="#DejaVuSans-2212"/>
       <use xlink:href="#DejaVuSans-30" x="83.789062"/>
       <use xlink:href="#DejaVuSans-2e" x="147.412109"/>
       <use xlink:href="#DejaVuSans-38" x="179.199219"/>
      </g>
     </g>
    </g>
    <g id="xtick_3">
     <g id="line2d_3">
      <g>
       <use xlink:href="#mce2493e97a" x="162.57111" y="678.84375" style="stroke: #000000; stroke-width: 0.8"/>
      </g>
     </g>
     <g id="text_3">
      <!-- −0.6 -->
      <g transform="translate(150.429704 693.442188) scale(0.1 -0.1)">
       <defs>
        <path id="DejaVuSans-36" d="M 2113 2584 
Q 1688 2584 1439 2293 
Q 1191 2003 1191 1497 
Q 1191 994 1439 701 
Q 1688 409 2113 409 
Q 2538 409 2786 701 
Q 3034 994 3034 1497 
Q 3034 2003 2786 2293 
Q 2538 2584 2113 2584 
z
M 3366 4563 
L 3366 3988 
Q 3128 4100 2886 4159 
Q 2644 4219 2406 4219 
Q 1781 4219 1451 3797 
Q 1122 3375 1075 2522 
Q 1259 2794 1537 2939 
Q 1816 3084 2150 3084 
Q 2853 3084 3261 2657 
Q 3669 2231 3669 1497 
Q 3669 778 3244 343 
Q 2819 -91 2113 -91 
Q 1303 -91 875 529 
Q 447 1150 447 2328 
Q 447 3434 972 4092 
Q 1497 4750 2381 4750 
Q 2619 4750 2861 4703 
Q 3103 4656 3366 4563 
z
" transform="scale(0.015625)"/>
       </defs>
       <use xlink:href="#DejaVuSans-2212"/>
       <use xlink:href="#DejaVuSans-30" x="83.789062"/>
       <use xlink:href="#DejaVuSans-2e" x="147.412109"/>
       <use xlink:href="#DejaVuSans-36" x="179.199219"/>
      </g>
     </g>
    </g>
    <g id="xtick_4">
     <g id="line2d_4">
      <g>
       <use xlink:href="#mce2493e97a" x="229.867603" y="678.84375" style="stroke: #000000; stroke-width: 0.8"/>
      </g>
     </g>
     <g id="text_4">
      <!-- −0.4 -->
      <g transform="translate(217.726197 693.442188) scale(0.1 -0.1)">
       <defs>
        <path id="DejaVuSans-34" d="M 2419 4116 
L 825 1625 
L 2419 1625 
L 2419 4116 
z
M 2253 4666 
L 3047 4666 
L 3047 1625 
L 3713 1625 
L 3713 1100 
L 3047 1100 
L 3047 0 
L 2419 0 
L 2419 1100 
L 313 1100 
L 313 1709 
L 2253 4666 
z
" transform="scale(0.015625)"/>
       </defs>
       <use xlink:href="#DejaVuSans-2212"/>
       <use xlink:href="#DejaVuSans-30" x="83.789062"/>
       <use xlink:href="#DejaVuSans-2e" x="147.412109"/>
       <use xlink:href="#DejaVuSans-34" x="179.199219"/>
      </g>
     </g>
    </g>
    <g id="xtick_5">
     <g id="line2d_5">
      <g>
       <use xlink:href="#mce2493e97a" x="297.164095" y="678.84375" style="stroke: #000000; stroke-width: 0.8"/>
      </g>
     </g>
     <g id="text_5">
      <!-- −0.2 -->
      <g transform="translate(285.022689 693.442188) scale(0.1 -0.1)">
       <defs>
        <path id="DejaVuSans-32" d="M 1228 531 
L 3431 531 
L 3431 0 
L 469 0 
L 469 531 
Q 828 903 1448 1529 
Q 2069 2156 2228 2338 
Q 2531 2678 2651 2914 
Q 2772 3150 2772 3378 
Q 2772 3750 2511 3984 
Q 2250 4219 1831 4219 
Q 1534 4219 1204 4116 
Q 875 4013 500 3803 
L 500 4441 
Q 881 4594 1212 4672 
Q 1544 4750 1819 4750 
Q 2544 4750 2975 4387 
Q 3406 4025 3406 3419 
Q 3406 3131 3298 2873 
Q 3191 2616 2906 2266 
Q 2828 2175 2409 1742 
Q 1991 1309 1228 531 
z
" transform="scale(0.015625)"/>
       </defs>
       <use xlink:href="#DejaVuSans-2212"/>
       <use xlink:href="#DejaVuSans-30" x="83.789062"/>
       <use xlink:href="#DejaVuSans-2e" x="147.412109"/>
       <use xlink:href="#DejaVuSans-32" x="179.199219"/>
      </g>
     </g>
    </g>
    <g id="xtick_6">
     <g id="line2d_6">
      <g>
       <use xlink:href="#mce2493e97a" x="364.460588" y="678.84375" style="stroke: #000000; stroke-width: 0.8"/>
      </g>
     </g>
     <g id="text_6">
      <!-- 0.0 -->
      <g transform="translate(356.509025 693.442188) scale(0.1 -0.1)">
       <use xlink:href="#DejaVuSans-30"/>
       <use xlink:href="#DejaVuSans-2e" x="63.623047"/>
       <use xlink:href="#DejaVuSans-30" x="95.410156"/>
      </g>
     </g>
    </g>
    <g id="xtick_7">
     <g id="line2d_7">
      <g>
       <use xlink:href="#mce2493e97a" x="431.757081" y="678.84375" style="stroke: #000000; stroke-width: 0.8"/>
      </g>
     </g>
     <g id="text_7">
      <!-- 0.2 -->
      <g transform="translate(423.805518 693.442188) scale(0.1 -0.1)">
       <use xlink:href="#DejaVuSans-30"/>
       <use xlink:href="#DejaVuSans-2e" x="63.623047"/>
       <use xlink:href="#DejaVuSans-32" x="95.410156"/>
      </g>
     </g>
    </g>
    <g id="xtick_8">
     <g id="line2d_8">
      <g>
       <use xlink:href="#mce2493e97a" x="499.053573" y="678.84375" style="stroke: #000000; stroke-width: 0.8"/>
      </g>
     </g>
     <g id="text_8">
      <!-- 0.4 -->
      <g transform="translate(491.102011 693.442188) scale(0.1 -0.1)">
       <use xlink:href="#DejaVuSans-30"/>
       <use xlink:href="#DejaVuSans-2e" x="63.623047"/>
       <use xlink:href="#DejaVuSans-34" x="95.410156"/>
      </g>
     </g>
    </g>
    <g id="xtick_9">
     <g id="line2d_9">
      <g>
       <use xlink:href="#mce2493e97a" x="566.350066" y="678.84375" style="stroke: #000000; stroke-width: 0.8"/>
      </g>
     </g>
     <g id="text_9">
      <!-- 0.6 -->
      <g transform="translate(558.398503 693.442188) scale(0.1 -0.1)">
       <use xlink:href="#DejaVuSans-30"/>
       <use xlink:href="#DejaVuSans-2e" x="63.623047"/>
       <use xlink:href="#DejaVuSans-36" x="95.410156"/>
      </g>
     </g>
    </g>
    <g id="xtick_10">
     <g id="line2d_10">
      <g>
       <use xlink:href="#mce2493e97a" x="633.646558" y="678.84375" style="stroke: #000000; stroke-width: 0.8"/>
      </g>
     </g>
     <g id="text_10">
      <!-- 0.8 -->
      <g transform="translate(625.694996 693.442188) scale(0.1 -0.1)">
       <use xlink:href="#DejaVuSans-30"/>
       <use xlink:href="#DejaVuSans-2e" x="63.623047"/>
       <use xlink:href="#DejaVuSans-38" x="95.410156"/>
      </g>
     </g>
    </g>
    <g id="xtick_11">
     <g id="line2d_11">
      <g>
       <use xlink:href="#mce2493e97a" x="700.943051" y="678.84375" style="stroke: #000000; stroke-width: 0.8"/>
      </g>
     </g>
     <g id="text_11">
      <!-- 1.0 -->
      <g transform="translate(692.991488 693.442188) scale(0.1 -0.1)">
       <use xlink:href="#DejaVuSans-31"/>
       <use xlink:href="#DejaVuSans-2e" x="63.623047"/>
       <use xlink:href="#DejaVuSans-30" x="95.410156"/>
      </g>
     </g>
    </g>
    <g id="text_12">
     <!-- Silhouette coefficient -->
     <g transform="translate(312.193194 707.120313) scale(0.1 -0.1)">
      <defs>
       <path id="DejaVuSans-53" d="M 3425 4513 
L 3425 3897 
Q 3066 4069 2747 4153 
Q 2428 4238 2131 4238 
Q 1616 4238 1336 4038 
Q 1056 3838 1056 3469 
Q 1056 3159 1242 3001 
Q 1428 2844 1947 2747 
L 2328 2669 
Q 3034 2534 3370 2195 
Q 3706 1856 3706 1288 
Q 3706 609 3251 259 
Q 2797 -91 1919 -91 
Q 1588 -91 1214 -16 
Q 841 59 441 206 
L 441 856 
Q 825 641 1194 531 
Q 1563 422 1919 422 
Q 2459 422 2753 634 
Q 3047 847 3047 1241 
Q 3047 1584 2836 1778 
Q 2625 1972 2144 2069 
L 1759 2144 
Q 1053 2284 737 2584 
Q 422 2884 422 3419 
Q 422 4038 858 4394 
Q 1294 4750 2059 4750 
Q 2388 4750 2728 4690 
Q 3069 4631 3425 4513 
z
" transform="scale(0.015625)"/>
       <path id="DejaVuSans-69" d="M 603 3500 
L 1178 3500 
L 1178 0 
L 603 0 
L 603 3500 
z
M 603 4863 
L 1178 4863 
L 1178 4134 
L 603 4134 
L 603 4863 
z
" transform="scale(0.015625)"/>
       <path id="DejaVuSans-6c" d="M 603 4863 
L 1178 4863 
L 1178 0 
L 603 0 
L 603 4863 
z
" transform="scale(0.015625)"/>
       <path id="DejaVuSans-68" d="M 3513 2113 
L 3513 0 
L 2938 0 
L 2938 2094 
Q 2938 2591 2744 2837 
Q 2550 3084 2163 3084 
Q 1697 3084 1428 2787 
Q 1159 2491 1159 1978 
L 1159 0 
L 581 0 
L 581 4863 
L 1159 4863 
L 1159 2956 
Q 1366 3272 1645 3428 
Q 1925 3584 2291 3584 
Q 2894 3584 3203 3211 
Q 3513 2838 3513 2113 
z
" transform="scale(0.015625)"/>
       <path id="DejaVuSans-6f" d="M 1959 3097 
Q 1497 3097 1228 2736 
Q 959 2375 959 1747 
Q 959 1119 1226 758 
Q 1494 397 1959 397 
Q 2419 397 2687 759 
Q 2956 1122 2956 1747 
Q 2956 2369 2687 2733 
Q 2419 3097 1959 3097 
z
M 1959 3584 
Q 2709 3584 3137 3096 
Q 3566 2609 3566 1747 
Q 3566 888 3137 398 
Q 2709 -91 1959 -91 
Q 1206 -91 779 398 
Q 353 888 353 1747 
Q 353 2609 779 3096 
Q 1206 3584 1959 3584 
z
" transform="scale(0.015625)"/>
       <path id="DejaVuSans-75" d="M 544 1381 
L 544 3500 
L 1119 3500 
L 1119 1403 
Q 1119 906 1312 657 
Q 1506 409 1894 409 
Q 2359 409 2629 706 
Q 2900 1003 2900 1516 
L 2900 3500 
L 3475 3500 
L 3475 0 
L 2900 0 
L 2900 538 
Q 2691 219 2414 64 
Q 2138 -91 1772 -91 
Q 1169 -91 856 284 
Q 544 659 544 1381 
z
M 1991 3584 
L 1991 3584 
z
" transform="scale(0.015625)"/>
       <path id="DejaVuSans-65" d="M 3597 1894 
L 3597 1613 
L 953 1613 
Q 991 1019 1311 708 
Q 1631 397 2203 397 
Q 2534 397 2845 478 
Q 3156 559 3463 722 
L 3463 178 
Q 3153 47 2828 -22 
Q 2503 -91 2169 -91 
Q 1331 -91 842 396 
Q 353 884 353 1716 
Q 353 2575 817 3079 
Q 1281 3584 2069 3584 
Q 2775 3584 3186 3129 
Q 3597 2675 3597 1894 
z
M 3022 2063 
Q 3016 2534 2758 2815 
Q 2500 3097 2075 3097 
Q 1594 3097 1305 2825 
Q 1016 2553 972 2059 
L 3022 2063 
z
" transform="scale(0.015625)"/>
       <path id="DejaVuSans-74" d="M 1172 4494 
L 1172 3500 
L 2356 3500 
L 2356 3053 
L 1172 3053 
L 1172 1153 
Q 1172 725 1289 603 
Q 1406 481 1766 481 
L 2356 481 
L 2356 0 
L 1766 0 
Q 1100 0 847 248 
Q 594 497 594 1153 
L 594 3053 
L 172 3053 
L 172 3500 
L 594 3500 
L 594 4494 
L 1172 4494 
z
" transform="scale(0.015625)"/>
       <path id="DejaVuSans-20" transform="scale(0.015625)"/>
       <path id="DejaVuSans-63" d="M 3122 3366 
L 3122 2828 
Q 2878 2963 2633 3030 
Q 2388 3097 2138 3097 
Q 1578 3097 1268 2742 
Q 959 2388 959 1747 
Q 959 1106 1268 751 
Q 1578 397 2138 397 
Q 2388 397 2633 464 
Q 2878 531 3122 666 
L 3122 134 
Q 2881 22 2623 -34 
Q 2366 -91 2075 -91 
Q 1284 -91 818 406 
Q 353 903 353 1747 
Q 353 2603 823 3093 
Q 1294 3584 2113 3584 
Q 2378 3584 2631 3529 
Q 2884 3475 3122 3366 
z
" transform="scale(0.015625)"/>
       <path id="DejaVuSans-66" d="M 2375 4863 
L 2375 4384 
L 1825 4384 
Q 1516 4384 1395 4259 
Q 1275 4134 1275 3809 
L 1275 3500 
L 2222 3500 
L 2222 3053 
L 1275 3053 
L 1275 0 
L 697 0 
L 697 3053 
L 147 3053 
L 147 3500 
L 697 3500 
L 697 3744 
Q 697 4328 969 4595 
Q 1241 4863 1831 4863 
L 2375 4863 
z
" transform="scale(0.015625)"/>
       <path id="DejaVuSans-6e" d="M 3513 2113 
L 3513 0 
L 2938 0 
L 2938 2094 
Q 2938 2591 2744 2837 
Q 2550 3084 2163 3084 
Q 1697 3084 1428 2787 
Q 1159 2491 1159 1978 
L 1159 0 
L 581 0 
L 581 3500 
L 1159 3500 
L 1159 2956 
Q 1366 3272 1645 3428 
Q 1925 3584 2291 3584 
Q 2894 3584 3203 3211 
Q 3513 2838 3513 2113 
z
" transform="scale(0.015625)"/>
      </defs>
      <use xlink:href="#DejaVuSans-53"/>
      <use xlink:href="#DejaVuSans-69" x="63.476562"/>
      <use xlink:href="#DejaVuSans-6c" x="91.259766"/>
      <use xlink:href="#DejaVuSans-68" x="119.042969"/>
      <use xlink:href="#DejaVuSans-6f" x="182.421875"/>
      <use xlink:href="#DejaVuSans-75" x="243.603516"/>
      <use xlink:href="#DejaVuSans-65" x="306.982422"/>
      <use xlink:href="#DejaVuSans-74" x="368.505859"/>
      <use xlink:href="#DejaVuSans-74" x="407.714844"/>
      <use xlink:href="#DejaVuSans-65" x="446.923828"/>
      <use xlink:href="#DejaVuSans-20" x="508.447266"/>
      <use xlink:href="#DejaVuSans-63" x="540.234375"/>
      <use xlink:href="#DejaVuSans-6f" x="595.214844"/>
      <use xlink:href="#DejaVuSans-65" x="656.396484"/>
      <use xlink:href="#DejaVuSans-66" x="717.919922"/>
      <use xlink:href="#DejaVuSans-66" x="753.125"/>
      <use xlink:href="#DejaVuSans-69" x="788.330078"/>
      <use xlink:href="#DejaVuSans-63" x="816.113281"/>
      <use xlink:href="#DejaVuSans-69" x="871.09375"/>
      <use xlink:href="#DejaVuSans-65" x="898.876953"/>
      <use xlink:href="#DejaVuSans-6e" x="960.400391"/>
      <use xlink:href="#DejaVuSans-74" x="1023.779297"/>
     </g>
    </g>
   </g>
   <g id="matplotlib.axis_2">
    <g id="text_13">
     <!-- Predicted label -->
     <g transform="translate(18.398438 382.135642) rotate(-90) scale(0.1 -0.1)">
      <defs>
       <path id="DejaVuSans-50" d="M 1259 4147 
L 1259 2394 
L 2053 2394 
Q 2494 2394 2734 2622 
Q 2975 2850 2975 3272 
Q 2975 3691 2734 3919 
Q 2494 4147 2053 4147 
L 1259 4147 
z
M 628 4666 
L 2053 4666 
Q 2838 4666 3239 4311 
Q 3641 3956 3641 3272 
Q 3641 2581 3239 2228 
Q 2838 1875 2053 1875 
L 1259 1875 
L 1259 0 
L 628 0 
L 628 4666 
z
" transform="scale(0.015625)"/>
       <path id="DejaVuSans-72" d="M 2631 2963 
Q 2534 3019 2420 3045 
Q 2306 3072 2169 3072 
Q 1681 3072 1420 2755 
Q 1159 2438 1159 1844 
L 1159 0 
L 581 0 
L 581 3500 
L 1159 3500 
L 1159 2956 
Q 1341 3275 1631 3429 
Q 1922 3584 2338 3584 
Q 2397 3584 2469 3576 
Q 2541 3569 2628 3553 
L 2631 2963 
z
" transform="scale(0.015625)"/>
       <path id="DejaVuSans-64" d="M 2906 2969 
L 2906 4863 
L 3481 4863 
L 3481 0 
L 2906 0 
L 2906 525 
Q 2725 213 2448 61 
Q 2172 -91 1784 -91 
Q 1150 -91 751 415 
Q 353 922 353 1747 
Q 353 2572 751 3078 
Q 1150 3584 1784 3584 
Q 2172 3584 2448 3432 
Q 2725 3281 2906 2969 
z
M 947 1747 
Q 947 1113 1208 752 
Q 1469 391 1925 391 
Q 2381 391 2643 752 
Q 2906 1113 2906 1747 
Q 2906 2381 2643 2742 
Q 2381 3103 1925 3103 
Q 1469 3103 1208 2742 
Q 947 2381 947 1747 
z
" transform="scale(0.015625)"/>
       <path id="DejaVuSans-61" d="M 2194 1759 
Q 1497 1759 1228 1600 
Q 959 1441 959 1056 
Q 959 750 1161 570 
Q 1363 391 1709 391 
Q 2188 391 2477 730 
Q 2766 1069 2766 1631 
L 2766 1759 
L 2194 1759 
z
M 3341 1997 
L 3341 0 
L 2766 0 
L 2766 531 
Q 2569 213 2275 61 
Q 1981 -91 1556 -91 
Q 1019 -91 701 211 
Q 384 513 384 1019 
Q 384 1609 779 1909 
Q 1175 2209 1959 2209 
L 2766 2209 
L 2766 2266 
Q 2766 2663 2505 2880 
Q 2244 3097 1772 3097 
Q 1472 3097 1187 3025 
Q 903 2953 641 2809 
L 641 3341 
Q 956 3463 1253 3523 
Q 1550 3584 1831 3584 
Q 2591 3584 2966 3190 
Q 3341 2797 3341 1997 
z
" transform="scale(0.015625)"/>
       <path id="DejaVuSans-62" d="M 3116 1747 
Q 3116 2381 2855 2742 
Q 2594 3103 2138 3103 
Q 1681 3103 1420 2742 
Q 1159 2381 1159 1747 
Q 1159 1113 1420 752 
Q 1681 391 2138 391 
Q 2594 391 2855 752 
Q 3116 1113 3116 1747 
z
M 1159 2969 
Q 1341 3281 1617 3432 
Q 1894 3584 2278 3584 
Q 2916 3584 3314 3078 
Q 3713 2572 3713 1747 
Q 3713 922 3314 415 
Q 2916 -91 2278 -91 
Q 1894 -91 1617 61 
Q 1341 213 1159 525 
L 1159 0 
L 581 0 
L 581 4863 
L 1159 4863 
L 1159 2969 
z
" transform="scale(0.015625)"/>
      </defs>
      <use xlink:href="#DejaVuSans-50"/>
      <use xlink:href="#DejaVuSans-72" x="58.552734"/>
      <use xlink:href="#DejaVuSans-65" x="97.416016"/>
      <use xlink:href="#DejaVuSans-64" x="158.939453"/>
      <use xlink:href="#DejaVuSans-69" x="222.416016"/>
      <use xlink:href="#DejaVuSans-63" x="250.199219"/>
      <use xlink:href="#DejaVuSans-74" x="305.179688"/>
      <use xlink:href="#DejaVuSans-65" x="344.388672"/>
      <use xlink:href="#DejaVuSans-64" x="405.912109"/>
      <use xlink:href="#DejaVuSans-20" x="469.388672"/>
      <use xlink:href="#DejaVuSans-6c" x="501.175781"/>
      <use xlink:href="#DejaVuSans-61" x="528.958984"/>
      <use xlink:href="#DejaVuSans-62" x="590.238281"/>
      <use xlink:href="#DejaVuSans-65" x="653.714844"/>
      <use xlink:href="#DejaVuSans-6c" x="715.238281"/>
     </g>
    </g>
   </g>
   <g id="line2d_12">
    <path d="M 604.878891 678.84375 
L 604.878891 11.122847 
" clip-path="url(#p2dc282d3a1)" style="fill: none; stroke: #ff0000; stroke-width: 1.5; stroke-linecap: square"/>
   </g>
   <g id="patch_3">
    <path d="M 27.978125 678.84375 
L 27.978125 11.122847 
" style="fill: none; stroke: #000000; stroke-width: 0.8; stroke-linejoin: miter; stroke-linecap: square"/>
   </g>
   <g id="patch_4">
    <path d="M 702.708264 678.84375 
L 702.708264 11.122847 
" style="fill: none; stroke: #000000; stroke-width: 0.8; stroke-linejoin: miter; stroke-linecap: square"/>
   </g>
   <g id="patch_5">
    <path d="M 27.978125 678.84375 
L 702.708264 678.84375 
" style="fill: none; stroke: #000000; stroke-width: 0.8; stroke-linejoin: miter; stroke-linecap: square"/>
   </g>
   <g id="patch_6">
    <path d="M 27.978125 11.122847 
L 702.708264 11.122847 
" style="fill: none; stroke: #000000; stroke-width: 0.8; stroke-linejoin: miter; stroke-linecap: square"/>
   </g>
   <g id="text_14">
    <!-- 0 -->
    <g transform="translate(347.636465 666.575912) scale(0.1 -0.1)">
     <use xlink:href="#DejaVuSans-30"/>
    </g>
   </g>
   <g id="text_15">
    <!-- 1 -->
    <g transform="translate(347.636465 643.354647) scale(0.1 -0.1)">
     <use xlink:href="#DejaVuSans-31"/>
    </g>
   </g>
   <g id="text_16">
    <!-- 2 -->
    <g transform="translate(347.636465 621.009656) scale(0.1 -0.1)">
     <use xlink:href="#DejaVuSans-32"/>
    </g>
   </g>
   <g id="text_17">
    <!-- 3 -->
    <g transform="translate(347.636465 607.865544) scale(0.1 -0.1)">
     <defs>
      <path id="DejaVuSans-33" d="M 2597 2516 
Q 3050 2419 3304 2112 
Q 3559 1806 3559 1356 
Q 3559 666 3084 287 
Q 2609 -91 1734 -91 
Q 1441 -91 1130 -33 
Q 819 25 488 141 
L 488 750 
Q 750 597 1062 519 
Q 1375 441 1716 441 
Q 2309 441 2620 675 
Q 2931 909 2931 1356 
Q 2931 1769 2642 2001 
Q 2353 2234 1838 2234 
L 1294 2234 
L 1294 2753 
L 1863 2753 
Q 2328 2753 2575 2939 
Q 2822 3125 2822 3475 
Q 2822 3834 2567 4026 
Q 2313 4219 1838 4219 
Q 1578 4219 1281 4162 
Q 984 4106 628 3988 
L 628 4550 
Q 988 4650 1302 4700 
Q 1616 4750 1894 4750 
Q 2613 4750 3031 4423 
Q 3450 4097 3450 3541 
Q 3450 3153 3228 2886 
Q 3006 2619 2597 2516 
z
" transform="scale(0.015625)"/>
     </defs>
     <use xlink:href="#DejaVuSans-33"/>
    </g>
   </g>
   <g id="text_18">
    <!-- 4 -->
    <g transform="translate(347.636465 529.00087) scale(0.1 -0.1)">
     <use xlink:href="#DejaVuSans-34"/>
    </g>
   </g>
   <g id="text_19">
    <!-- 5 -->
    <g transform="translate(347.636465 245.526182) scale(0.1 -0.1)">
     <defs>
      <path id="DejaVuSans-35" d="M 691 4666 
L 3169 4666 
L 3169 4134 
L 1269 4134 
L 1269 2991 
Q 1406 3038 1543 3061 
Q 1681 3084 1819 3084 
Q 2600 3084 3056 2656 
Q 3513 2228 3513 1497 
Q 3513 744 3044 326 
Q 2575 -91 1722 -91 
Q 1428 -91 1123 -41 
Q 819 9 494 109 
L 494 744 
Q 775 591 1075 516 
Q 1375 441 1709 441 
Q 2250 441 2565 725 
Q 2881 1009 2881 1497 
Q 2881 1984 2565 2268 
Q 2250 2553 1709 2553 
Q 1456 2553 1204 2497 
Q 953 2441 691 2322 
L 691 4666 
z
" transform="scale(0.015625)"/>
     </defs>
     <use xlink:href="#DejaVuSans-35"/>
    </g>
   </g>
   <g id="text_20">
    <!-- 6 -->
    <g transform="translate(347.636465 29.962741) scale(0.1 -0.1)">
     <use xlink:href="#DejaVuSans-36"/>
    </g>
   </g>
   <g id="text_21">
    <!-- 7 -->
    <g transform="translate(347.636465 20.323726) scale(0.1 -0.1)">
     <defs>
      <path id="DejaVuSans-37" d="M 525 4666 
L 3525 4666 
L 3525 4397 
L 1831 0 
L 1172 0 
L 2766 4134 
L 525 4134 
L 525 4666 
z
" transform="scale(0.015625)"/>
     </defs>
     <use xlink:href="#DejaVuSans-37"/>
    </g>
   </g>
   <g id="text_22">
    <!-- 0.7145 -->
    <g style="fill: #ff0000" transform="translate(621.703014 19.885588) scale(0.1 -0.1)">
     <use xlink:href="#DejaVuSans-30"/>
     <use xlink:href="#DejaVuSans-2e" x="63.623047"/>
     <use xlink:href="#DejaVuSans-37" x="95.410156"/>
     <use xlink:href="#DejaVuSans-31" x="159.033203"/>
     <use xlink:href="#DejaVuSans-34" x="222.65625"/>
     <use xlink:href="#DejaVuSans-35" x="286.279297"/>
    </g>
   </g>
  </g>
 </g>
 <defs>
  <clipPath id="p2dc282d3a1">
   <rect x="27.978125" y="11.122847" width="674.730139" height="667.720903"/>
  </clipPath>
 </defs>
</svg>
