<?xml version="1.0" encoding="utf-8" standalone="no"?>
<!DOCTYPE svg PUBLIC "-//W3C//DTD SVG 1.1//EN"
  "http://www.w3.org/Graphics/SVG/1.1/DTD/svg11.dtd">
<svg xmlns:xlink="http://www.w3.org/1999/xlink" width="720pt" height="432pt" viewBox="0 0 720 432" xmlns="http://www.w3.org/2000/svg" version="1.1">
 <metadata>
  <rdf:RDF xmlns:dc="http://purl.org/dc/elements/1.1/" xmlns:cc="http://creativecommons.org/ns#" xmlns:rdf="http://www.w3.org/1999/02/22-rdf-syntax-ns#">
   <cc:Work>
    <dc:type rdf:resource="http://purl.org/dc/dcmitype/StillImage"/>
    <dc:date>2022-11-03T14:04:20.909997</dc:date>
    <dc:format>image/svg+xml</dc:format>
    <dc:creator>
     <cc:Agent>
      <dc:title>Matplotlib v3.6.1, https://matplotlib.org/</dc:title>
     </cc:Agent>
    </dc:creator>
   </cc:Work>
  </rdf:RDF>
 </metadata>
 <defs>
  <style type="text/css">*{stroke-linejoin: round; stroke-linecap: butt}</style>
 </defs>
 <g id="figure_1">
  <g id="patch_1">
   <path d="M 0 432 
L 720 432 
L 720 0 
L 0 0 
z
" style="fill: #ffffff"/>
  </g>
  <g id="axes_1">
   <g id="patch_2">
    <path d="M 27.978125 390.84375 
L 702.708264 390.84375 
L 702.708264 14.033083 
L 27.978125 14.033083 
z
" style="fill: #ffffff"/>
   </g>
   <g id="PolyCollection_1">
    <defs>
     <path id="me650edfc4d" d="M 388.139293 -46.101272 
L 364.460588 -46.101272 
L 364.460588 -46.595774 
L 364.460588 -47.090276 
L 364.460588 -47.584778 
L 364.460588 -48.079281 
L 364.460588 -48.573783 
L 364.460588 -49.068285 
L 364.460588 -49.562787 
L 459.147783 -49.562787 
L 459.147783 -49.562787 
L 458.047401 -49.068285 
L 453.133352 -48.573783 
L 447.217351 -48.079281 
L 444.708166 -47.584778 
L 422.562357 -47.090276 
L 409.469921 -46.595774 
L 388.139293 -46.101272 
z
" style="stroke: #000000; stroke-opacity: 0.7"/>
    </defs>
    <g clip-path="url(#p3a5535b6bd)">
     <use xlink:href="#me650edfc4d" x="0" y="432" style="fill-opacity: 0.7; stroke: #000000; stroke-opacity: 0.7"/>
    </g>
   </g>
   <g id="PolyCollection_2">
    <defs>
     <path id="m1f8e9508d7" d="M 308.793714 -55.002311 
L 364.460588 -55.002311 
L 364.460588 -55.496813 
L 364.460588 -55.991316 
L 364.460588 -56.485818 
L 364.460588 -56.98032 
L 364.460588 -57.474822 
L 364.460588 -57.969324 
L 364.460588 -58.463827 
L 364.460588 -58.958329 
L 364.460588 -59.452831 
L 364.460588 -59.947333 
L 364.460588 -60.441835 
L 364.460588 -60.936337 
L 364.460588 -61.43084 
L 364.460588 -61.925342 
L 364.460588 -62.419844 
L 364.460588 -62.914346 
L 364.460588 -63.408848 
L 364.460588 -63.903351 
L 364.460588 -64.397853 
L 364.460588 -64.892355 
L 364.460588 -65.386857 
L 364.460588 -65.881359 
L 364.460588 -66.375862 
L 364.460588 -66.870364 
L 432.574494 -66.870364 
L 432.574494 -66.870364 
L 421.274244 -66.375862 
L 420.268259 -65.881359 
L 416.385836 -65.386857 
L 415.741117 -64.892355 
L 415.489367 -64.397853 
L 404.042684 -63.903351 
L 398.689521 -63.408848 
L 398.350469 -62.914346 
L 388.159406 -62.419844 
L 386.527981 -61.925342 
L 385.725134 -61.43084 
L 380.35305 -60.936337 
L 378.076376 -60.441835 
L 374.382843 -59.947333 
L 371.277618 -59.452831 
L 370.485236 -58.958329 
L 363.481154 -58.463827 
L 357.611525 -57.969324 
L 330.838393 -57.474822 
L 330.734713 -56.98032 
L 324.531276 -56.485818 
L 311.248938 -55.991316 
L 309.178949 -55.496813 
L 308.793714 -55.002311 
z
" style="stroke: #4300a2; stroke-opacity: 0.7"/>
    </defs>
    <g clip-path="url(#p3a5535b6bd)">
     <use xlink:href="#m1f8e9508d7" x="0" y="432" style="fill: #4300a2; fill-opacity: 0.7; stroke: #4300a2; stroke-opacity: 0.7"/>
    </g>
   </g>
   <g id="PolyCollection_3">
    <defs>
     <path id="mb77bc4cf90" d="M 361.974615 -72.309888 
L 364.460588 -72.309888 
L 364.460588 -72.80439 
L 364.460588 -73.298892 
L 364.460588 -73.793394 
L 364.460588 -74.287897 
L 364.460588 -74.782399 
L 433.588544 -74.782399 
L 433.588544 -74.782399 
L 430.952664 -74.287897 
L 418.755554 -73.793394 
L 391.333293 -73.298892 
L 365.290106 -72.80439 
L 361.974615 -72.309888 
z
" style="stroke: #0078dd; stroke-opacity: 0.7"/>
    </defs>
    <g clip-path="url(#p3a5535b6bd)">
     <use xlink:href="#mb77bc4cf90" x="0" y="432" style="fill: #0078dd; fill-opacity: 0.7; stroke: #0078dd; stroke-opacity: 0.7"/>
    </g>
   </g>
   <g id="PolyCollection_4">
    <defs>
     <path id="m60a4f0d893" d="M 408.770924 -80.221923 
L 364.460588 -80.221923 
L 364.460588 -80.716425 
L 364.460588 -81.210927 
L 364.460588 -81.705429 
L 472.507747 -81.705429 
L 472.507747 -81.705429 
L 455.171427 -81.210927 
L 435.683522 -80.716425 
L 408.770924 -80.221923 
z
" style="stroke: #00aa98; stroke-opacity: 0.7"/>
    </defs>
    <g clip-path="url(#p3a5535b6bd)">
     <use xlink:href="#m60a4f0d893" x="0" y="432" style="fill: #00aa98; fill-opacity: 0.7; stroke: #00aa98; stroke-opacity: 0.7"/>
    </g>
   </g>
   <g id="PolyCollection_5">
    <defs>
     <path id="m9b76d275b0" d="M 286.83586 -87.144953 
L 364.460588 -87.144953 
L 364.460588 -87.639456 
L 364.460588 -88.133958 
L 364.460588 -88.62846 
L 364.460588 -89.122962 
L 364.460588 -89.617464 
L 364.460588 -90.111967 
L 364.460588 -90.606469 
L 364.460588 -91.100971 
L 364.460588 -91.595473 
L 364.460588 -92.089975 
L 364.460588 -92.584477 
L 364.460588 -93.07898 
L 364.460588 -93.573482 
L 364.460588 -94.067984 
L 364.460588 -94.562486 
L 364.460588 -95.056988 
L 364.460588 -95.551491 
L 364.460588 -96.045993 
L 364.460588 -96.540495 
L 364.460588 -97.034997 
L 364.460588 -97.529499 
L 364.460588 -98.024002 
L 364.460588 -98.518504 
L 364.460588 -99.013006 
L 364.460588 -99.507508 
L 364.460588 -100.00201 
L 364.460588 -100.496512 
L 364.460588 -100.991015 
L 364.460588 -101.485517 
L 364.460588 -101.980019 
L 364.460588 -102.474521 
L 364.460588 -102.969023 
L 364.460588 -103.463526 
L 364.460588 -103.958028 
L 364.460588 -104.45253 
L 364.460588 -104.947032 
L 364.460588 -105.441534 
L 364.460588 -105.936037 
L 364.460588 -106.430539 
L 364.460588 -106.925041 
L 364.460588 -107.419543 
L 364.460588 -107.914045 
L 364.460588 -108.408547 
L 364.460588 -108.90305 
L 364.460588 -109.397552 
L 364.460588 -109.892054 
L 364.460588 -110.386556 
L 364.460588 -110.881058 
L 364.460588 -111.375561 
L 364.460588 -111.870063 
L 364.460588 -112.364565 
L 364.460588 -112.859067 
L 364.460588 -113.353569 
L 364.460588 -113.848072 
L 364.460588 -114.342574 
L 364.460588 -114.837076 
L 364.460588 -115.331578 
L 364.460588 -115.82608 
L 364.460588 -116.320582 
L 364.460588 -116.815085 
L 364.460588 -117.309587 
L 364.460588 -117.804089 
L 364.460588 -118.298591 
L 364.460588 -118.793093 
L 364.460588 -119.287596 
L 364.460588 -119.782098 
L 364.460588 -120.2766 
L 364.460588 -120.771102 
L 364.460588 -121.265604 
L 364.460588 -121.760107 
L 364.460588 -122.254609 
L 364.460588 -122.749111 
L 364.460588 -123.243613 
L 364.460588 -123.738115 
L 364.460588 -124.232617 
L 364.460588 -124.72712 
L 364.460588 -125.221622 
L 364.460588 -125.716124 
L 364.460588 -126.210626 
L 364.460588 -126.705128 
L 364.460588 -127.199631 
L 364.460588 -127.694133 
L 364.460588 -128.188635 
L 364.460588 -128.683137 
L 364.460588 -129.177639 
L 364.460588 -129.672142 
L 364.460588 -130.166644 
L 364.460588 -130.661146 
L 364.460588 -131.155648 
L 364.460588 -131.65015 
L 364.460588 -132.144652 
L 364.460588 -132.639155 
L 364.460588 -133.133657 
L 364.460588 -133.628159 
L 364.460588 -134.122661 
L 364.460588 -134.617163 
L 364.460588 -135.111666 
L 364.460588 -135.606168 
L 364.460588 -136.10067 
L 364.460588 -136.595172 
L 364.460588 -137.089674 
L 364.460588 -137.584177 
L 364.460588 -138.078679 
L 364.460588 -138.573181 
L 364.460588 -139.067683 
L 364.460588 -139.562185 
L 364.460588 -140.056687 
L 364.460588 -140.55119 
L 364.460588 -141.045692 
L 364.460588 -141.540194 
L 364.460588 -142.034696 
L 364.460588 -142.529198 
L 364.460588 -143.023701 
L 364.460588 -143.518203 
L 364.460588 -144.012705 
L 364.460588 -144.507207 
L 364.460588 -145.001709 
L 364.460588 -145.496212 
L 364.460588 -145.990714 
L 364.460588 -146.485216 
L 364.460588 -146.979718 
L 364.460588 -147.47422 
L 364.460588 -147.968722 
L 364.460588 -148.463225 
L 364.460588 -148.957727 
L 364.460588 -149.452229 
L 364.460588 -149.946731 
L 364.460588 -150.441233 
L 364.460588 -150.935736 
L 364.460588 -151.430238 
L 364.460588 -151.92474 
L 364.460588 -152.419242 
L 364.460588 -152.913744 
L 364.460588 -153.408247 
L 364.460588 -153.902749 
L 364.460588 -154.397251 
L 364.460588 -154.891753 
L 364.460588 -155.386255 
L 364.460588 -155.880757 
L 364.460588 -156.37526 
L 364.460588 -156.869762 
L 364.460588 -157.364264 
L 364.460588 -157.858766 
L 364.460588 -158.353268 
L 364.460588 -158.847771 
L 364.460588 -159.342273 
L 364.460588 -159.836775 
L 364.460588 -160.331277 
L 364.460588 -160.825779 
L 364.460588 -161.320282 
L 364.460588 -161.814784 
L 364.460588 -162.309286 
L 364.460588 -162.803788 
L 364.460588 -163.29829 
L 364.460588 -163.792792 
L 522.827281 -163.792792 
L 522.827281 -163.792792 
L 519.627651 -163.29829 
L 516.637491 -162.803788 
L 516.609953 -162.309286 
L 515.089154 -161.814784 
L 513.263429 -161.320282 
L 509.894337 -160.825779 
L 509.226786 -160.331277 
L 506.715653 -159.836775 
L 505.667798 -159.342273 
L 504.887044 -158.847771 
L 504.727859 -158.353268 
L 503.884953 -157.858766 
L 503.617021 -157.364264 
L 502.105256 -156.869762 
L 501.08307 -156.37526 
L 500.640959 -155.880757 
L 500.279268 -155.386255 
L 500.248647 -154.891753 
L 499.918715 -154.397251 
L 498.714988 -153.902749 
L 497.81285 -153.408247 
L 496.85836 -152.913744 
L 496.833603 -152.419242 
L 495.716985 -151.92474 
L 494.079637 -151.430238 
L 493.17118 -150.935736 
L 493.098897 -150.441233 
L 492.851208 -149.946731 
L 492.755275 -149.452229 
L 491.977058 -148.957727 
L 491.939841 -148.463225 
L 491.792376 -147.968722 
L 491.494875 -147.47422 
L 491.263016 -146.979718 
L 490.47933 -146.485216 
L 490.431009 -145.990714 
L 488.027094 -145.496212 
L 487.800962 -145.001709 
L 486.13268 -144.507207 
L 484.905236 -144.012705 
L 484.565856 -143.518203 
L 484.394274 -143.023701 
L 484.372992 -142.529198 
L 483.914494 -142.034696 
L 483.789036 -141.540194 
L 482.642115 -141.045692 
L 482.450752 -140.55119 
L 482.145712 -140.056687 
L 481.530981 -139.562185 
L 481.398397 -139.067683 
L 480.462242 -138.573181 
L 480.382265 -138.078679 
L 480.046808 -137.584177 
L 479.919799 -137.089674 
L 479.762617 -136.595172 
L 479.678721 -136.10067 
L 479.517045 -135.606168 
L 479.308014 -135.111666 
L 478.69666 -134.617163 
L 478.297764 -134.122661 
L 478.172438 -133.628159 
L 477.627553 -133.133657 
L 477.623484 -132.639155 
L 476.685506 -132.144652 
L 476.675075 -131.65015 
L 475.666827 -131.155648 
L 471.508281 -130.661146 
L 471.115144 -130.166644 
L 470.891689 -129.672142 
L 469.974746 -129.177639 
L 469.387359 -128.683137 
L 469.062351 -128.188635 
L 468.992711 -127.694133 
L 467.891119 -127.199631 
L 467.570844 -126.705128 
L 467.564868 -126.210626 
L 466.023842 -125.716124 
L 465.904038 -125.221622 
L 465.791408 -124.72712 
L 465.577699 -124.232617 
L 465.368067 -123.738115 
L 465.282681 -123.243613 
L 463.816357 -122.749111 
L 463.442079 -122.254609 
L 463.214003 -121.760107 
L 462.939667 -121.265604 
L 462.813597 -120.771102 
L 462.362289 -120.2766 
L 461.768094 -119.782098 
L 460.662656 -119.287596 
L 460.303198 -118.793093 
L 457.218116 -118.298591 
L 456.704288 -117.804089 
L 455.72171 -117.309587 
L 455.6094 -116.815085 
L 455.074441 -116.320582 
L 455.006863 -115.82608 
L 453.89994 -115.331578 
L 452.937881 -114.837076 
L 452.777899 -114.342574 
L 452.58217 -113.848072 
L 451.889758 -113.353569 
L 451.118327 -112.859067 
L 449.980235 -112.364565 
L 449.717431 -111.870063 
L 449.711078 -111.375561 
L 449.626597 -110.881058 
L 449.463212 -110.386556 
L 449.43179 -109.892054 
L 449.281076 -109.397552 
L 449.126013 -108.90305 
L 448.654706 -108.408547 
L 448.482634 -107.914045 
L 448.369848 -107.419543 
L 447.857926 -106.925041 
L 447.746576 -106.430539 
L 446.81371 -105.936037 
L 444.628385 -105.441534 
L 444.525677 -104.947032 
L 442.407356 -104.45253 
L 441.964338 -103.958028 
L 441.67746 -103.463526 
L 440.015919 -102.969023 
L 438.512147 -102.474521 
L 438.484055 -101.980019 
L 437.212384 -101.485517 
L 434.866235 -100.991015 
L 433.377711 -100.496512 
L 430.290729 -100.00201 
L 430.139788 -99.507508 
L 427.379552 -99.013006 
L 427.253418 -98.518504 
L 427.129486 -98.024002 
L 426.244995 -97.529499 
L 425.000995 -97.034997 
L 423.338095 -96.540495 
L 422.998249 -96.045993 
L 422.676741 -95.551491 
L 421.293207 -95.056988 
L 421.218555 -94.562486 
L 420.578632 -94.067984 
L 419.932315 -93.573482 
L 404.447957 -93.07898 
L 401.841201 -92.584477 
L 401.645856 -92.089975 
L 392.598208 -91.595473 
L 389.091486 -91.100971 
L 379.897055 -90.606469 
L 377.67539 -90.111967 
L 375.258193 -89.617464 
L 361.708448 -89.122962 
L 339.726315 -88.62846 
L 338.706679 -88.133958 
L 294.742514 -87.639456 
L 286.83586 -87.144953 
z
" style="stroke: #00bc00; stroke-opacity: 0.7"/>
    </defs>
    <g clip-path="url(#p3a5535b6bd)">
     <use xlink:href="#m9b76d275b0" x="0" y="432" style="fill: #00bc00; fill-opacity: 0.7; stroke: #00bc00; stroke-opacity: 0.7"/>
    </g>
   </g>
   <g id="PolyCollection_6">
    <defs>
     <path id="madcae7f845" d="M 638.189874 -169.232317 
L 364.460588 -169.232317 
L 364.460588 -169.726819 
L 364.460588 -170.221321 
L 364.460588 -170.715823 
L 364.460588 -171.210325 
L 364.460588 -171.704827 
L 364.460588 -172.19933 
L 364.460588 -172.693832 
L 364.460588 -173.188334 
L 364.460588 -173.682836 
L 364.460588 -174.177338 
L 364.460588 -174.671841 
L 364.460588 -175.166343 
L 364.460588 -175.660845 
L 364.460588 -176.155347 
L 364.460588 -176.649849 
L 364.460588 -177.144352 
L 364.460588 -177.638854 
L 364.460588 -178.133356 
L 364.460588 -178.627858 
L 364.460588 -179.12236 
L 364.460588 -179.616862 
L 364.460588 -180.111365 
L 364.460588 -180.605867 
L 364.460588 -181.100369 
L 364.460588 -181.594871 
L 364.460588 -182.089373 
L 364.460588 -182.583876 
L 364.460588 -183.078378 
L 364.460588 -183.57288 
L 364.460588 -184.067382 
L 364.460588 -184.561884 
L 364.460588 -185.056387 
L 364.460588 -185.550889 
L 364.460588 -186.045391 
L 364.460588 -186.539893 
L 364.460588 -187.034395 
L 364.460588 -187.528897 
L 364.460588 -188.0234 
L 364.460588 -188.517902 
L 364.460588 -189.012404 
L 364.460588 -189.506906 
L 364.460588 -190.001408 
L 364.460588 -190.495911 
L 364.460588 -190.990413 
L 364.460588 -191.484915 
L 364.460588 -191.979417 
L 364.460588 -192.473919 
L 364.460588 -192.968422 
L 364.460588 -193.462924 
L 364.460588 -193.957426 
L 364.460588 -194.451928 
L 364.460588 -194.94643 
L 364.460588 -195.440932 
L 364.460588 -195.935435 
L 364.460588 -196.429937 
L 364.460588 -196.924439 
L 364.460588 -197.418941 
L 364.460588 -197.913443 
L 364.460588 -198.407946 
L 364.460588 -198.902448 
L 364.460588 -199.39695 
L 364.460588 -199.891452 
L 364.460588 -200.385954 
L 364.460588 -200.880457 
L 364.460588 -201.374959 
L 364.460588 -201.869461 
L 364.460588 -202.363963 
L 364.460588 -202.858465 
L 364.460588 -203.352967 
L 364.460588 -203.84747 
L 364.460588 -204.341972 
L 364.460588 -204.836474 
L 364.460588 -205.330976 
L 364.460588 -205.825478 
L 364.460588 -206.319981 
L 364.460588 -206.814483 
L 364.460588 -207.308985 
L 364.460588 -207.803487 
L 364.460588 -208.297989 
L 364.460588 -208.792492 
L 364.460588 -209.286994 
L 364.460588 -209.781496 
L 364.460588 -210.275998 
L 364.460588 -210.7705 
L 364.460588 -211.265002 
L 364.460588 -211.759505 
L 364.460588 -212.254007 
L 364.460588 -212.748509 
L 364.460588 -213.243011 
L 364.460588 -213.737513 
L 364.460588 -214.232016 
L 364.460588 -214.726518 
L 364.460588 -215.22102 
L 364.460588 -215.715522 
L 364.460588 -216.210024 
L 364.460588 -216.704527 
L 364.460588 -217.199029 
L 364.460588 -217.693531 
L 364.460588 -218.188033 
L 364.460588 -218.682535 
L 364.460588 -219.177037 
L 364.460588 -219.67154 
L 364.460588 -220.166042 
L 364.460588 -220.660544 
L 364.460588 -221.155046 
L 364.460588 -221.649548 
L 364.460588 -222.144051 
L 364.460588 -222.638553 
L 364.460588 -223.133055 
L 364.460588 -223.627557 
L 364.460588 -224.122059 
L 364.460588 -224.616562 
L 364.460588 -225.111064 
L 364.460588 -225.605566 
L 364.460588 -226.100068 
L 364.460588 -226.59457 
L 364.460588 -227.089072 
L 364.460588 -227.583575 
L 364.460588 -228.078077 
L 364.460588 -228.572579 
L 364.460588 -229.067081 
L 364.460588 -229.561583 
L 364.460588 -230.056086 
L 364.460588 -230.550588 
L 364.460588 -231.04509 
L 364.460588 -231.539592 
L 364.460588 -232.034094 
L 364.460588 -232.528597 
L 364.460588 -233.023099 
L 364.460588 -233.517601 
L 364.460588 -234.012103 
L 364.460588 -234.506605 
L 364.460588 -235.001107 
L 364.460588 -235.49561 
L 364.460588 -235.990112 
L 364.460588 -236.484614 
L 364.460588 -236.979116 
L 364.460588 -237.473618 
L 364.460588 -237.968121 
L 364.460588 -238.462623 
L 364.460588 -238.957125 
L 364.460588 -239.451627 
L 364.460588 -239.946129 
L 364.460588 -240.440632 
L 364.460588 -240.935134 
L 364.460588 -241.429636 
L 364.460588 -241.924138 
L 364.460588 -242.41864 
L 364.460588 -242.913142 
L 364.460588 -243.407645 
L 364.460588 -243.902147 
L 364.460588 -244.396649 
L 364.460588 -244.891151 
L 364.460588 -245.385653 
L 364.460588 -245.880156 
L 364.460588 -246.374658 
L 364.460588 -246.86916 
L 364.460588 -247.363662 
L 364.460588 -247.858164 
L 364.460588 -248.352667 
L 364.460588 -248.847169 
L 364.460588 -249.341671 
L 364.460588 -249.836173 
L 364.460588 -250.330675 
L 364.460588 -250.825177 
L 364.460588 -251.31968 
L 364.460588 -251.814182 
L 364.460588 -252.308684 
L 364.460588 -252.803186 
L 364.460588 -253.297688 
L 364.460588 -253.792191 
L 364.460588 -254.286693 
L 364.460588 -254.781195 
L 364.460588 -255.275697 
L 364.460588 -255.770199 
L 364.460588 -256.264702 
L 364.460588 -256.759204 
L 364.460588 -257.253706 
L 364.460588 -257.748208 
L 364.460588 -258.24271 
L 364.460588 -258.737212 
L 364.460588 -259.231715 
L 364.460588 -259.726217 
L 364.460588 -260.220719 
L 364.460588 -260.715221 
L 364.460588 -261.209723 
L 364.460588 -261.704226 
L 364.460588 -262.198728 
L 364.460588 -262.69323 
L 364.460588 -263.187732 
L 364.460588 -263.682234 
L 364.460588 -264.176737 
L 364.460588 -264.671239 
L 364.460588 -265.165741 
L 364.460588 -265.660243 
L 364.460588 -266.154745 
L 364.460588 -266.649247 
L 364.460588 -267.14375 
L 364.460588 -267.638252 
L 364.460588 -268.132754 
L 364.460588 -268.627256 
L 364.460588 -269.121758 
L 364.460588 -269.616261 
L 364.460588 -270.110763 
L 364.460588 -270.605265 
L 364.460588 -271.099767 
L 364.460588 -271.594269 
L 364.460588 -272.088772 
L 364.460588 -272.583274 
L 364.460588 -273.077776 
L 364.460588 -273.572278 
L 364.460588 -274.06678 
L 364.460588 -274.561282 
L 364.460588 -275.055785 
L 364.460588 -275.550287 
L 364.460588 -276.044789 
L 364.460588 -276.539291 
L 364.460588 -277.033793 
L 364.460588 -277.528296 
L 364.460588 -278.022798 
L 364.460588 -278.5173 
L 364.460588 -279.011802 
L 364.460588 -279.506304 
L 364.460588 -280.000807 
L 364.460588 -280.495309 
L 364.460588 -280.989811 
L 364.460588 -281.484313 
L 364.460588 -281.978815 
L 364.460588 -282.473317 
L 364.460588 -282.96782 
L 364.460588 -283.462322 
L 364.460588 -283.956824 
L 364.460588 -284.451326 
L 364.460588 -284.945828 
L 364.460588 -285.440331 
L 364.460588 -285.934833 
L 364.460588 -286.429335 
L 364.460588 -286.923837 
L 364.460588 -287.418339 
L 364.460588 -287.912842 
L 364.460588 -288.407344 
L 364.460588 -288.901846 
L 364.460588 -289.396348 
L 364.460588 -289.89085 
L 364.460588 -290.385352 
L 364.460588 -290.879855 
L 364.460588 -291.374357 
L 364.460588 -291.868859 
L 364.460588 -292.363361 
L 364.460588 -292.857863 
L 364.460588 -293.352366 
L 364.460588 -293.846868 
L 364.460588 -294.34137 
L 364.460588 -294.835872 
L 364.460588 -295.330374 
L 364.460588 -295.824877 
L 364.460588 -296.319379 
L 364.460588 -296.813881 
L 364.460588 -297.308383 
L 364.460588 -297.802885 
L 364.460588 -298.297387 
L 364.460588 -298.79189 
L 364.460588 -299.286392 
L 364.460588 -299.780894 
L 364.460588 -300.275396 
L 364.460588 -300.769898 
L 364.460588 -301.264401 
L 364.460588 -301.758903 
L 364.460588 -302.253405 
L 364.460588 -302.747907 
L 364.460588 -303.242409 
L 364.460588 -303.736912 
L 364.460588 -304.231414 
L 364.460588 -304.725916 
L 364.460588 -305.220418 
L 364.460588 -305.71492 
L 364.460588 -306.209422 
L 364.460588 -306.703925 
L 364.460588 -307.198427 
L 364.460588 -307.692929 
L 364.460588 -308.187431 
L 364.460588 -308.681933 
L 364.460588 -309.176436 
L 364.460588 -309.670938 
L 364.460588 -310.16544 
L 364.460588 -310.659942 
L 364.460588 -311.154444 
L 364.460588 -311.648947 
L 364.460588 -312.143449 
L 364.460588 -312.637951 
L 364.460588 -313.132453 
L 364.460588 -313.626955 
L 364.460588 -314.121457 
L 364.460588 -314.61596 
L 364.460588 -315.110462 
L 364.460588 -315.604964 
L 364.460588 -316.099466 
L 364.460588 -316.593968 
L 364.460588 -317.088471 
L 364.460588 -317.582973 
L 364.460588 -318.077475 
L 364.460588 -318.571977 
L 364.460588 -319.066479 
L 364.460588 -319.560982 
L 364.460588 -320.055484 
L 364.460588 -320.549986 
L 364.460588 -321.044488 
L 364.460588 -321.53899 
L 364.460588 -322.033492 
L 364.460588 -322.527995 
L 364.460588 -323.022497 
L 364.460588 -323.516999 
L 364.460588 -324.011501 
L 364.460588 -324.506003 
L 364.460588 -325.000506 
L 364.460588 -325.495008 
L 364.460588 -325.98951 
L 364.460588 -326.484012 
L 364.460588 -326.978514 
L 364.460588 -327.473017 
L 364.460588 -327.967519 
L 364.460588 -328.462021 
L 364.460588 -328.956523 
L 364.460588 -329.451025 
L 364.460588 -329.945527 
L 364.460588 -330.44003 
L 364.460588 -330.934532 
L 364.460588 -331.429034 
L 364.460588 -331.923536 
L 364.460588 -332.418038 
L 364.460588 -332.912541 
L 364.460588 -333.407043 
L 364.460588 -333.901545 
L 364.460588 -334.396047 
L 364.460588 -334.890549 
L 364.460588 -335.385052 
L 364.460588 -335.879554 
L 364.460588 -336.374056 
L 364.460588 -336.868558 
L 364.460588 -337.36306 
L 364.460588 -337.857562 
L 364.460588 -338.352065 
L 364.460588 -338.846567 
L 364.460588 -339.341069 
L 364.460588 -339.835571 
L 364.460588 -340.330073 
L 364.460588 -340.824576 
L 364.460588 -341.319078 
L 364.460588 -341.81358 
L 364.460588 -342.308082 
L 364.460588 -342.802584 
L 364.460588 -343.297087 
L 364.460588 -343.791589 
L 364.460588 -344.286091 
L 364.460588 -344.780593 
L 364.460588 -345.275095 
L 364.460588 -345.769597 
L 364.460588 -346.2641 
L 364.460588 -346.758602 
L 364.460588 -347.253104 
L 364.460588 -347.747606 
L 364.460588 -348.242108 
L 364.460588 -348.736611 
L 364.460588 -349.231113 
L 364.460588 -349.725615 
L 364.460588 -350.220117 
L 364.460588 -350.714619 
L 364.460588 -351.209122 
L 364.460588 -351.703624 
L 364.460588 -352.198126 
L 364.460588 -352.692628 
L 364.460588 -353.18713 
L 364.460588 -353.681632 
L 364.460588 -354.176135 
L 364.460588 -354.670637 
L 364.460588 -355.165139 
L 364.460588 -355.659641 
L 364.460588 -356.154143 
L 364.460588 -356.648646 
L 364.460588 -357.143148 
L 364.460588 -357.63765 
L 364.460588 -358.132152 
L 364.460588 -358.626654 
L 364.460588 -359.121157 
L 364.460588 -359.615659 
L 364.460588 -360.110161 
L 364.460588 -360.604663 
L 364.460588 -361.099165 
L 364.460588 -361.593667 
L 364.460588 -362.08817 
L 364.460588 -362.582672 
L 364.460588 -363.077174 
L 364.460588 -363.571676 
L 364.460588 -364.066178 
L 364.460588 -364.560681 
L 364.460588 -365.055183 
L 364.460588 -365.549685 
L 364.460588 -366.044187 
L 364.460588 -366.538689 
L 364.460588 -367.033192 
L 364.460588 -367.527694 
L 364.460588 -368.022196 
L 364.460588 -368.516698 
L 364.460588 -369.0112 
L 364.460588 -369.505702 
L 364.460588 -370.000205 
L 364.460588 -370.494707 
L 364.460588 -370.989209 
L 364.460588 -371.483711 
L 364.460588 -371.978213 
L 364.460588 -372.472716 
L 364.460588 -372.967218 
L 364.460588 -373.46172 
L 364.460588 -373.956222 
L 364.460588 -374.450724 
L 364.460588 -374.945227 
L 364.460588 -375.439729 
L 364.460588 -375.934231 
L 364.460588 -376.428733 
L 364.460588 -376.923235 
L 364.460588 -377.417737 
L 364.460588 -377.91224 
L 364.460588 -378.406742 
L 364.460588 -378.901244 
L 364.460588 -379.395746 
L 364.460588 -379.890248 
L 364.460588 -380.384751 
L 364.460588 -380.879253 
L 364.460588 -381.373755 
L 364.460588 -381.868257 
L 364.460588 -382.362759 
L 364.460588 -382.857262 
L 364.460588 -383.351764 
L 364.460588 -383.846266 
L 364.460588 -384.340768 
L 364.460588 -384.83527 
L 364.460588 -385.329772 
L 364.460588 -385.824275 
L 364.460588 -386.318777 
L 364.460588 -386.813279 
L 364.460588 -387.307781 
L 364.460588 -387.802283 
L 364.460588 -388.296786 
L 364.460588 -388.791288 
L 364.460588 -389.28579 
L 364.460588 -389.780292 
L 364.460588 -390.274794 
L 364.460588 -390.769297 
L 364.460588 -391.263799 
L 364.460588 -391.758301 
L 364.460588 -392.252803 
L 364.460588 -392.747305 
L 364.460588 -393.241807 
L 364.460588 -393.73631 
L 364.460588 -394.230812 
L 364.460588 -394.725314 
L 364.460588 -395.219816 
L 364.460588 -395.714318 
L 364.460588 -396.208821 
L 364.460588 -396.703323 
L 364.460588 -397.197825 
L 364.460588 -397.692327 
L 364.460588 -398.186829 
L 364.460588 -398.681332 
L 364.460588 -399.175834 
L 364.460588 -399.670336 
L 364.460588 -400.164838 
L 364.460588 -400.65934 
L 364.460588 -401.153842 
L 364.460588 -401.648345 
L 682.904816 -401.648345 
L 682.904816 -401.648345 
L 682.793944 -401.153842 
L 682.120294 -400.65934 
L 682.019375 -400.164838 
L 681.990622 -399.670336 
L 681.843969 -399.175834 
L 681.834907 -398.681332 
L 681.597674 -398.186829 
L 681.586948 -397.692327 
L 681.530135 -397.197825 
L 681.153638 -396.703323 
L 681.019579 -396.208821 
L 680.995685 -395.714318 
L 680.863123 -395.219816 
L 680.827792 -394.725314 
L 680.768408 -394.230812 
L 680.741369 -393.73631 
L 680.712644 -393.241807 
L 680.677329 -392.747305 
L 680.57327 -392.252803 
L 680.553276 -391.758301 
L 680.527025 -391.263799 
L 680.522229 -390.769297 
L 680.506455 -390.274794 
L 680.440512 -389.780292 
L 680.428834 -389.28579 
L 680.420985 -388.791288 
L 680.154938 -388.296786 
L 680.152686 -387.802283 
L 680.120239 -387.307781 
L 680.098971 -386.813279 
L 680.080905 -386.318777 
L 680.073854 -385.824275 
L 680.056453 -385.329772 
L 680.015879 -384.83527 
L 679.986679 -384.340768 
L 679.938392 -383.846266 
L 679.907385 -383.351764 
L 679.89207 -382.857262 
L 679.881591 -382.362759 
L 679.834047 -381.868257 
L 679.660436 -381.373755 
L 679.602956 -380.879253 
L 679.555685 -380.384751 
L 679.50693 -379.890248 
L 679.485161 -379.395746 
L 679.452299 -378.901244 
L 679.434381 -378.406742 
L 679.411082 -377.91224 
L 679.410967 -377.417737 
L 679.404818 -376.923235 
L 679.388411 -376.428733 
L 679.37382 -375.934231 
L 679.357335 -375.439729 
L 679.346148 -374.945227 
L 679.322943 -374.450724 
L 679.306408 -373.956222 
L 679.302988 -373.46172 
L 679.301361 -372.967218 
L 679.287393 -372.472716 
L 679.286364 -371.978213 
L 679.272069 -371.483711 
L 679.270295 -370.989209 
L 679.263928 -370.494707 
L 679.262327 -370.000205 
L 679.241876 -369.505702 
L 679.223869 -369.0112 
L 679.205546 -368.516698 
L 679.177629 -368.022196 
L 679.16681 -367.527694 
L 679.142021 -367.033192 
L 679.090769 -366.538689 
L 679.021013 -366.044187 
L 679.018385 -365.549685 
L 679.006852 -365.055183 
L 679.002992 -364.560681 
L 678.990873 -364.066178 
L 678.981245 -363.571676 
L 678.944939 -363.077174 
L 678.935795 -362.582672 
L 678.929043 -362.08817 
L 678.882504 -361.593667 
L 678.875063 -361.099165 
L 678.874058 -360.604663 
L 678.849038 -360.110161 
L 678.844332 -359.615659 
L 678.825698 -359.121157 
L 678.798258 -358.626654 
L 678.664702 -358.132152 
L 678.651405 -357.63765 
L 678.576975 -357.143148 
L 678.564879 -356.648646 
L 678.55746 -356.154143 
L 678.551518 -355.659641 
L 678.528349 -355.165139 
L 678.510306 -354.670637 
L 678.492449 -354.176135 
L 678.488776 -353.681632 
L 678.470002 -353.18713 
L 678.444975 -352.692628 
L 678.422493 -352.198126 
L 678.417233 -351.703624 
L 678.40537 -351.209122 
L 678.395658 -350.714619 
L 678.298637 -350.220117 
L 678.288091 -349.725615 
L 678.26696 -349.231113 
L 678.242395 -348.736611 
L 678.229397 -348.242108 
L 678.186463 -347.747606 
L 678.167101 -347.253104 
L 678.144775 -346.758602 
L 678.12751 -346.2641 
L 678.102135 -345.769597 
L 678.094306 -345.275095 
L 678.034705 -344.780593 
L 678.005106 -344.286091 
L 677.978644 -343.791589 
L 677.974794 -343.297087 
L 677.956117 -342.802584 
L 677.94793 -342.308082 
L 677.911972 -341.81358 
L 677.895284 -341.319078 
L 677.859526 -340.824576 
L 677.84132 -340.330073 
L 677.824578 -339.835571 
L 677.75999 -339.341069 
L 677.697945 -338.846567 
L 677.671212 -338.352065 
L 677.663185 -337.857562 
L 677.654744 -337.36306 
L 677.649327 -336.868558 
L 677.628459 -336.374056 
L 677.622252 -335.879554 
L 677.546671 -335.385052 
L 677.489378 -334.890549 
L 677.478861 -334.396047 
L 677.464689 -333.901545 
L 677.457111 -333.407043 
L 677.395245 -332.912541 
L 677.376002 -332.418038 
L 677.347132 -331.923536 
L 677.341486 -331.429034 
L 677.273798 -330.934532 
L 677.262973 -330.44003 
L 677.245531 -329.945527 
L 677.213699 -329.451025 
L 677.198307 -328.956523 
L 677.096639 -328.462021 
L 677.079719 -327.967519 
L 677.078176 -327.473017 
L 677.064827 -326.978514 
L 677.039909 -326.484012 
L 677.016637 -325.98951 
L 677.009065 -325.495008 
L 676.994724 -325.000506 
L 676.94843 -324.506003 
L 676.93663 -324.011501 
L 676.923599 -323.516999 
L 676.81061 -323.022497 
L 676.739657 -322.527995 
L 676.713059 -322.033492 
L 676.709684 -321.53899 
L 676.70574 -321.044488 
L 676.684295 -320.549986 
L 676.665222 -320.055484 
L 676.655051 -319.560982 
L 676.651205 -319.066479 
L 676.624322 -318.571977 
L 676.612367 -318.077475 
L 676.578674 -317.582973 
L 676.529062 -317.088471 
L 676.52059 -316.593968 
L 676.458468 -316.099466 
L 676.449705 -315.604964 
L 676.428088 -315.110462 
L 676.413877 -314.61596 
L 676.39451 -314.121457 
L 676.387511 -313.626955 
L 676.342102 -313.132453 
L 676.331349 -312.637951 
L 676.301668 -312.143449 
L 676.296958 -311.648947 
L 676.229601 -311.154444 
L 676.222442 -310.659942 
L 676.199539 -310.16544 
L 676.182233 -309.670938 
L 676.113912 -309.176436 
L 676.090307 -308.681933 
L 676.041268 -308.187431 
L 675.98015 -307.692929 
L 675.957669 -307.198427 
L 675.925168 -306.703925 
L 675.899377 -306.209422 
L 675.803792 -305.71492 
L 675.773531 -305.220418 
L 675.714549 -304.725916 
L 675.663521 -304.231414 
L 675.658843 -303.736912 
L 675.624642 -303.242409 
L 675.603177 -302.747907 
L 675.600989 -302.253405 
L 675.540226 -301.758903 
L 675.457883 -301.264401 
L 675.408842 -300.769898 
L 675.286854 -300.275396 
L 675.279406 -299.780894 
L 675.255191 -299.286392 
L 675.244337 -298.79189 
L 675.210225 -298.297387 
L 675.190396 -297.802885 
L 675.141177 -297.308383 
L 675.136193 -296.813881 
L 675.119334 -296.319379 
L 675.117556 -295.824877 
L 675.048338 -295.330374 
L 675.043784 -294.835872 
L 675.043103 -294.34137 
L 675.026239 -293.846868 
L 675.008852 -293.352366 
L 674.857392 -292.857863 
L 674.840709 -292.363361 
L 674.831103 -291.868859 
L 674.794296 -291.374357 
L 674.779199 -290.879855 
L 674.771948 -290.385352 
L 674.724701 -289.89085 
L 674.705701 -289.396348 
L 674.697992 -288.901846 
L 674.691111 -288.407344 
L 674.667383 -287.912842 
L 674.659377 -287.418339 
L 674.644055 -286.923837 
L 674.619018 -286.429335 
L 674.59209 -285.934833 
L 674.585206 -285.440331 
L 674.536593 -284.945828 
L 674.532686 -284.451326 
L 674.498614 -283.956824 
L 674.484481 -283.462322 
L 674.420498 -282.96782 
L 674.403334 -282.473317 
L 674.383284 -281.978815 
L 674.349094 -281.484313 
L 674.32074 -280.989811 
L 674.317032 -280.495309 
L 674.263393 -280.000807 
L 674.252024 -279.506304 
L 674.232511 -279.011802 
L 674.160682 -278.5173 
L 674.08195 -278.022798 
L 674.021285 -277.528296 
L 673.96968 -277.033793 
L 673.816567 -276.539291 
L 673.599488 -276.044789 
L 673.406273 -275.550287 
L 673.344638 -275.055785 
L 673.302049 -274.561282 
L 673.113907 -274.06678 
L 673.067726 -273.572278 
L 673.049623 -273.077776 
L 672.93097 -272.583274 
L 672.897111 -272.088772 
L 672.87866 -271.594269 
L 672.867687 -271.099767 
L 672.789316 -270.605265 
L 672.774308 -270.110763 
L 672.728846 -269.616261 
L 672.679004 -269.121758 
L 672.668235 -268.627256 
L 672.665401 -268.132754 
L 672.664523 -267.638252 
L 672.643947 -267.14375 
L 672.630036 -266.649247 
L 672.621456 -266.154745 
L 672.591275 -265.660243 
L 672.538787 -265.165741 
L 672.528447 -264.671239 
L 672.510846 -264.176737 
L 672.502609 -263.682234 
L 672.483746 -263.187732 
L 672.474817 -262.69323 
L 672.358013 -262.198728 
L 672.33235 -261.704226 
L 672.331648 -261.209723 
L 672.328097 -260.715221 
L 672.308886 -260.220719 
L 672.29049 -259.726217 
L 672.287924 -259.231715 
L 672.268711 -258.737212 
L 672.256137 -258.24271 
L 672.198465 -257.748208 
L 672.19151 -257.253706 
L 672.170931 -256.759204 
L 672.136183 -256.264702 
L 672.132861 -255.770199 
L 672.131068 -255.275697 
L 672.130201 -254.781195 
L 672.087374 -254.286693 
L 672.08613 -253.792191 
L 672.076583 -253.297688 
L 672.073127 -252.803186 
L 672.035483 -252.308684 
L 671.950889 -251.814182 
L 671.913673 -251.31968 
L 671.907188 -250.825177 
L 671.894643 -250.330675 
L 671.857673 -249.836173 
L 671.809335 -249.341671 
L 671.805101 -248.847169 
L 671.789331 -248.352667 
L 671.745714 -247.858164 
L 671.736313 -247.363662 
L 671.730415 -246.86916 
L 671.693895 -246.374658 
L 671.684951 -245.880156 
L 671.665591 -245.385653 
L 671.605866 -244.891151 
L 671.521298 -244.396649 
L 671.435348 -243.902147 
L 671.309269 -243.407645 
L 671.223028 -242.913142 
L 671.075391 -242.41864 
L 670.984336 -241.924138 
L 670.955189 -241.429636 
L 670.82561 -240.935134 
L 670.806297 -240.440632 
L 670.75417 -239.946129 
L 670.724348 -239.451627 
L 670.67164 -238.957125 
L 670.605979 -238.462623 
L 670.547165 -237.968121 
L 670.538634 -237.473618 
L 670.517811 -236.979116 
L 670.304355 -236.484614 
L 670.250296 -235.990112 
L 670.177702 -235.49561 
L 670.175052 -235.001107 
L 670.154044 -234.506605 
L 670.138312 -234.012103 
L 670.127289 -233.517601 
L 670.107539 -233.023099 
L 670.006479 -232.528597 
L 669.984499 -232.034094 
L 669.983136 -231.539592 
L 669.980716 -231.04509 
L 669.960347 -230.550588 
L 669.953739 -230.056086 
L 669.89106 -229.561583 
L 669.778429 -229.067081 
L 669.651057 -228.572579 
L 669.648647 -228.078077 
L 669.64845 -227.583575 
L 669.602173 -227.089072 
L 669.602026 -226.59457 
L 669.582878 -226.100068 
L 669.525749 -225.605566 
L 669.412812 -225.111064 
L 669.411921 -224.616562 
L 669.405857 -224.122059 
L 669.375986 -223.627557 
L 669.306151 -223.133055 
L 669.306146 -222.638553 
L 669.265826 -222.144051 
L 669.19352 -221.649548 
L 669.105749 -221.155046 
L 668.998459 -220.660544 
L 668.982734 -220.166042 
L 668.939452 -219.67154 
L 668.929387 -219.177037 
L 668.914955 -218.682535 
L 668.903239 -218.188033 
L 668.854355 -217.693531 
L 668.804491 -217.199029 
L 668.762148 -216.704527 
L 668.589076 -216.210024 
L 668.549463 -215.715522 
L 668.393334 -215.22102 
L 668.358309 -214.726518 
L 668.165992 -214.232016 
L 668.163914 -213.737513 
L 667.73662 -213.243011 
L 667.458279 -212.748509 
L 667.238454 -212.254007 
L 667.236349 -211.759505 
L 667.176095 -211.265002 
L 667.00823 -210.7705 
L 666.934025 -210.275998 
L 666.876807 -209.781496 
L 666.787145 -209.286994 
L 666.720755 -208.792492 
L 666.650203 -208.297989 
L 666.421385 -207.803487 
L 666.369757 -207.308985 
L 666.337779 -206.814483 
L 666.189128 -206.319981 
L 666.159975 -205.825478 
L 666.058697 -205.330976 
L 666.037138 -204.836474 
L 665.878177 -204.341972 
L 665.860385 -203.84747 
L 665.850207 -203.352967 
L 665.679921 -202.858465 
L 665.586987 -202.363963 
L 665.369163 -201.869461 
L 665.321394 -201.374959 
L 664.991612 -200.880457 
L 664.829833 -200.385954 
L 664.758408 -199.891452 
L 664.624746 -199.39695 
L 664.351807 -198.902448 
L 663.735817 -198.407946 
L 663.708452 -197.913443 
L 663.696938 -197.418941 
L 663.622977 -196.924439 
L 663.54016 -196.429937 
L 663.521839 -195.935435 
L 663.520574 -195.440932 
L 663.182769 -194.94643 
L 663.1803 -194.451928 
L 663.156644 -193.957426 
L 663.061234 -193.462924 
L 662.975291 -192.968422 
L 662.763203 -192.473919 
L 662.639727 -191.979417 
L 662.470372 -191.484915 
L 662.329121 -190.990413 
L 662.32037 -190.495911 
L 662.137313 -190.001408 
L 662.075278 -189.506906 
L 661.920029 -189.012404 
L 661.861092 -188.517902 
L 661.80407 -188.0234 
L 661.720488 -187.528897 
L 661.48847 -187.034395 
L 661.135802 -186.539893 
L 660.946548 -186.045391 
L 660.918912 -185.550889 
L 660.698023 -185.056387 
L 660.413759 -184.561884 
L 660.095532 -184.067382 
L 659.982135 -183.57288 
L 659.933193 -183.078378 
L 659.128641 -182.583876 
L 658.885103 -182.089373 
L 658.7945 -181.594871 
L 658.706033 -181.100369 
L 657.967609 -180.605867 
L 657.398618 -180.111365 
L 657.345736 -179.616862 
L 656.901694 -179.12236 
L 656.838812 -178.627858 
L 656.731095 -178.133356 
L 656.037758 -177.638854 
L 655.575407 -177.144352 
L 655.39964 -176.649849 
L 655.273162 -176.155347 
L 654.061018 -175.660845 
L 654.028689 -175.166343 
L 653.648928 -174.671841 
L 653.209206 -174.177338 
L 650.958303 -173.682836 
L 649.978885 -173.188334 
L 648.104374 -172.693832 
L 647.301425 -172.19933 
L 646.195271 -171.704827 
L 645.528905 -171.210325 
L 645.136562 -170.715823 
L 644.98737 -170.221321 
L 641.756413 -169.726819 
L 638.189874 -169.232317 
z
" style="stroke: #67ff00; stroke-opacity: 0.7"/>
    </defs>
    <g clip-path="url(#p3a5535b6bd)">
     <use xlink:href="#madcae7f845" x="0" y="432" style="fill: #67ff00; fill-opacity: 0.7; stroke: #67ff00; stroke-opacity: 0.7"/>
    </g>
   </g>
   <g id="PolyCollection_7">
    <defs>
     <path id="md21a56efff" d="M 364.460588 -407.087869 
L 364.460588 -407.087869 
L 364.460588 -407.087869 
L 364.460588 -407.087869 
z
" style="stroke: #ffc900; stroke-opacity: 0.7"/>
    </defs>
    <g clip-path="url(#p3a5535b6bd)">
     <use xlink:href="#md21a56efff" x="0" y="432" style="fill: #ffc900; fill-opacity: 0.7; stroke: #ffc900; stroke-opacity: 0.7"/>
    </g>
   </g>
   <g id="PolyCollection_8">
    <defs>
     <path id="m03b584d529" d="M 364.460588 -412.527393 
L 364.460588 -412.527393 
L 364.460588 -412.527393 
L 364.460588 -412.527393 
z
" style="stroke: #ec0000; stroke-opacity: 0.7"/>
    </defs>
    <g clip-path="url(#p3a5535b6bd)">
     <use xlink:href="#m03b584d529" x="0" y="432" style="fill: #ec0000; fill-opacity: 0.7; stroke: #ec0000; stroke-opacity: 0.7"/>
    </g>
   </g>
   <g id="matplotlib.axis_1">
    <g id="xtick_1">
     <g id="line2d_1">
      <defs>
       <path id="m8144de00de" d="M 0 0 
L 0 3.5 
" style="stroke: #000000; stroke-width: 0.8"/>
      </defs>
      <g>
       <use xlink:href="#m8144de00de" x="27.978125" y="390.84375" style="stroke: #000000; stroke-width: 0.8"/>
      </g>
     </g>
     <g id="text_1">
      <!-- −1.0 -->
      <g transform="translate(15.836719 405.442187) scale(0.1 -0.1)">
       <defs>
        <path id="DejaVuSans-2212" d="M 678 2272 
L 4684 2272 
L 4684 1741 
L 678 1741 
L 678 2272 
z
" transform="scale(0.015625)"/>
        <path id="DejaVuSans-31" d="M 794 531 
L 1825 531 
L 1825 4091 
L 703 3866 
L 703 4441 
L 1819 4666 
L 2450 4666 
L 2450 531 
L 3481 531 
L 3481 0 
L 794 0 
L 794 531 
z
" transform="scale(0.015625)"/>
        <path id="DejaVuSans-2e" d="M 684 794 
L 1344 794 
L 1344 0 
L 684 0 
L 684 794 
z
" transform="scale(0.015625)"/>
        <path id="DejaVuSans-30" d="M 2034 4250 
Q 1547 4250 1301 3770 
Q 1056 3291 1056 2328 
Q 1056 1369 1301 889 
Q 1547 409 2034 409 
Q 2525 409 2770 889 
Q 3016 1369 3016 2328 
Q 3016 3291 2770 3770 
Q 2525 4250 2034 4250 
z
M 2034 4750 
Q 2819 4750 3233 4129 
Q 3647 3509 3647 2328 
Q 3647 1150 3233 529 
Q 2819 -91 2034 -91 
Q 1250 -91 836 529 
Q 422 1150 422 2328 
Q 422 3509 836 4129 
Q 1250 4750 2034 4750 
z
" transform="scale(0.015625)"/>
       </defs>
       <use xlink:href="#DejaVuSans-2212"/>
       <use xlink:href="#DejaVuSans-31" x="83.789062"/>
       <use xlink:href="#DejaVuSans-2e" x="147.412109"/>
       <use xlink:href="#DejaVuSans-30" x="179.199219"/>
      </g>
     </g>
    </g>
    <g id="xtick_2">
     <g id="line2d_2">
      <g>
       <use xlink:href="#m8144de00de" x="95.274618" y="390.84375" style="stroke: #000000; stroke-width: 0.8"/>
      </g>
     </g>
     <g id="text_2">
      <!-- −0.8 -->
      <g transform="translate(83.133211 405.442187) scale(0.1 -0.1)">
       <defs>
        <path id="DejaVuSans-38" d="M 2034 2216 
Q 1584 2216 1326 1975 
Q 1069 1734 1069 1313 
Q 1069 891 1326 650 
Q 1584 409 2034 409 
Q 2484 409 2743 651 
Q 3003 894 3003 1313 
Q 3003 1734 2745 1975 
Q 2488 2216 2034 2216 
z
M 1403 2484 
Q 997 2584 770 2862 
Q 544 3141 544 3541 
Q 544 4100 942 4425 
Q 1341 4750 2034 4750 
Q 2731 4750 3128 4425 
Q 3525 4100 3525 3541 
Q 3525 3141 3298 2862 
Q 3072 2584 2669 2484 
Q 3125 2378 3379 2068 
Q 3634 1759 3634 1313 
Q 3634 634 3220 271 
Q 2806 -91 2034 -91 
Q 1263 -91 848 271 
Q 434 634 434 1313 
Q 434 1759 690 2068 
Q 947 2378 1403 2484 
z
M 1172 3481 
Q 1172 3119 1398 2916 
Q 1625 2713 2034 2713 
Q 2441 2713 2670 2916 
Q 2900 3119 2900 3481 
Q 2900 3844 2670 4047 
Q 2441 4250 2034 4250 
Q 1625 4250 1398 4047 
Q 1172 3844 1172 3481 
z
" transform="scale(0.015625)"/>
       </defs>
       <use xlink:href="#DejaVuSans-2212"/>
       <use xlink:href="#DejaVuSans-30" x="83.789062"/>
       <use xlink:href="#DejaVuSans-2e" x="147.412109"/>
       <use xlink:href="#DejaVuSans-38" x="179.199219"/>
      </g>
     </g>
    </g>
    <g id="xtick_3">
     <g id="line2d_3">
      <g>
       <use xlink:href="#m8144de00de" x="162.57111" y="390.84375" style="stroke: #000000; stroke-width: 0.8"/>
      </g>
     </g>
     <g id="text_3">
      <!-- −0.6 -->
      <g transform="translate(150.429704 405.442187) scale(0.1 -0.1)">
       <defs>
        <path id="DejaVuSans-36" d="M 2113 2584 
Q 1688 2584 1439 2293 
Q 1191 2003 1191 1497 
Q 1191 994 1439 701 
Q 1688 409 2113 409 
Q 2538 409 2786 701 
Q 3034 994 3034 1497 
Q 3034 2003 2786 2293 
Q 2538 2584 2113 2584 
z
M 3366 4563 
L 3366 3988 
Q 3128 4100 2886 4159 
Q 2644 4219 2406 4219 
Q 1781 4219 1451 3797 
Q 1122 3375 1075 2522 
Q 1259 2794 1537 2939 
Q 1816 3084 2150 3084 
Q 2853 3084 3261 2657 
Q 3669 2231 3669 1497 
Q 3669 778 3244 343 
Q 2819 -91 2113 -91 
Q 1303 -91 875 529 
Q 447 1150 447 2328 
Q 447 3434 972 4092 
Q 1497 4750 2381 4750 
Q 2619 4750 2861 4703 
Q 3103 4656 3366 4563 
z
" transform="scale(0.015625)"/>
       </defs>
       <use xlink:href="#DejaVuSans-2212"/>
       <use xlink:href="#DejaVuSans-30" x="83.789062"/>
       <use xlink:href="#DejaVuSans-2e" x="147.412109"/>
       <use xlink:href="#DejaVuSans-36" x="179.199219"/>
      </g>
     </g>
    </g>
    <g id="xtick_4">
     <g id="line2d_4">
      <g>
       <use xlink:href="#m8144de00de" x="229.867603" y="390.84375" style="stroke: #000000; stroke-width: 0.8"/>
      </g>
     </g>
     <g id="text_4">
      <!-- −0.4 -->
      <g transform="translate(217.726197 405.442187) scale(0.1 -0.1)">
       <defs>
        <path id="DejaVuSans-34" d="M 2419 4116 
L 825 1625 
L 2419 1625 
L 2419 4116 
z
M 2253 4666 
L 3047 4666 
L 3047 1625 
L 3713 1625 
L 3713 1100 
L 3047 1100 
L 3047 0 
L 2419 0 
L 2419 1100 
L 313 1100 
L 313 1709 
L 2253 4666 
z
" transform="scale(0.015625)"/>
       </defs>
       <use xlink:href="#DejaVuSans-2212"/>
       <use xlink:href="#DejaVuSans-30" x="83.789062"/>
       <use xlink:href="#DejaVuSans-2e" x="147.412109"/>
       <use xlink:href="#DejaVuSans-34" x="179.199219"/>
      </g>
     </g>
    </g>
    <g id="xtick_5">
     <g id="line2d_5">
      <g>
       <use xlink:href="#m8144de00de" x="297.164095" y="390.84375" style="stroke: #000000; stroke-width: 0.8"/>
      </g>
     </g>
     <g id="text_5">
      <!-- −0.2 -->
      <g transform="translate(285.022689 405.442187) scale(0.1 -0.1)">
       <defs>
        <path id="DejaVuSans-32" d="M 1228 531 
L 3431 531 
L 3431 0 
L 469 0 
L 469 531 
Q 828 903 1448 1529 
Q 2069 2156 2228 2338 
Q 2531 2678 2651 2914 
Q 2772 3150 2772 3378 
Q 2772 3750 2511 3984 
Q 2250 4219 1831 4219 
Q 1534 4219 1204 4116 
Q 875 4013 500 3803 
L 500 4441 
Q 881 4594 1212 4672 
Q 1544 4750 1819 4750 
Q 2544 4750 2975 4387 
Q 3406 4025 3406 3419 
Q 3406 3131 3298 2873 
Q 3191 2616 2906 2266 
Q 2828 2175 2409 1742 
Q 1991 1309 1228 531 
z
" transform="scale(0.015625)"/>
       </defs>
       <use xlink:href="#DejaVuSans-2212"/>
       <use xlink:href="#DejaVuSans-30" x="83.789062"/>
       <use xlink:href="#DejaVuSans-2e" x="147.412109"/>
       <use xlink:href="#DejaVuSans-32" x="179.199219"/>
      </g>
     </g>
    </g>
    <g id="xtick_6">
     <g id="line2d_6">
      <g>
       <use xlink:href="#m8144de00de" x="364.460588" y="390.84375" style="stroke: #000000; stroke-width: 0.8"/>
      </g>
     </g>
     <g id="text_6">
      <!-- 0.0 -->
      <g transform="translate(356.509025 405.442187) scale(0.1 -0.1)">
       <use xlink:href="#DejaVuSans-30"/>
       <use xlink:href="#DejaVuSans-2e" x="63.623047"/>
       <use xlink:href="#DejaVuSans-30" x="95.410156"/>
      </g>
     </g>
    </g>
    <g id="xtick_7">
     <g id="line2d_7">
      <g>
       <use xlink:href="#m8144de00de" x="431.757081" y="390.84375" style="stroke: #000000; stroke-width: 0.8"/>
      </g>
     </g>
     <g id="text_7">
      <!-- 0.2 -->
      <g transform="translate(423.805518 405.442187) scale(0.1 -0.1)">
       <use xlink:href="#DejaVuSans-30"/>
       <use xlink:href="#DejaVuSans-2e" x="63.623047"/>
       <use xlink:href="#DejaVuSans-32" x="95.410156"/>
      </g>
     </g>
    </g>
    <g id="xtick_8">
     <g id="line2d_8">
      <g>
       <use xlink:href="#m8144de00de" x="499.053573" y="390.84375" style="stroke: #000000; stroke-width: 0.8"/>
      </g>
     </g>
     <g id="text_8">
      <!-- 0.4 -->
      <g transform="translate(491.102011 405.442187) scale(0.1 -0.1)">
       <use xlink:href="#DejaVuSans-30"/>
       <use xlink:href="#DejaVuSans-2e" x="63.623047"/>
       <use xlink:href="#DejaVuSans-34" x="95.410156"/>
      </g>
     </g>
    </g>
    <g id="xtick_9">
     <g id="line2d_9">
      <g>
       <use xlink:href="#m8144de00de" x="566.350066" y="390.84375" style="stroke: #000000; stroke-width: 0.8"/>
      </g>
     </g>
     <g id="text_9">
      <!-- 0.6 -->
      <g transform="translate(558.398503 405.442187) scale(0.1 -0.1)">
       <use xlink:href="#DejaVuSans-30"/>
       <use xlink:href="#DejaVuSans-2e" x="63.623047"/>
       <use xlink:href="#DejaVuSans-36" x="95.410156"/>
      </g>
     </g>
    </g>
    <g id="xtick_10">
     <g id="line2d_10">
      <g>
       <use xlink:href="#m8144de00de" x="633.646558" y="390.84375" style="stroke: #000000; stroke-width: 0.8"/>
      </g>
     </g>
     <g id="text_10">
      <!-- 0.8 -->
      <g transform="translate(625.694996 405.442187) scale(0.1 -0.1)">
       <use xlink:href="#DejaVuSans-30"/>
       <use xlink:href="#DejaVuSans-2e" x="63.623047"/>
       <use xlink:href="#DejaVuSans-38" x="95.410156"/>
      </g>
     </g>
    </g>
    <g id="xtick_11">
     <g id="line2d_11">
      <g>
       <use xlink:href="#m8144de00de" x="700.943051" y="390.84375" style="stroke: #000000; stroke-width: 0.8"/>
      </g>
     </g>
     <g id="text_11">
      <!-- 1.0 -->
      <g transform="translate(692.991488 405.442187) scale(0.1 -0.1)">
       <use xlink:href="#DejaVuSans-31"/>
       <use xlink:href="#DejaVuSans-2e" x="63.623047"/>
       <use xlink:href="#DejaVuSans-30" x="95.410156"/>
      </g>
     </g>
    </g>
    <g id="text_12">
     <!-- Silhouette coefficient -->
     <g transform="translate(312.193194 419.120313) scale(0.1 -0.1)">
      <defs>
       <path id="DejaVuSans-53" d="M 3425 4513 
L 3425 3897 
Q 3066 4069 2747 4153 
Q 2428 4238 2131 4238 
Q 1616 4238 1336 4038 
Q 1056 3838 1056 3469 
Q 1056 3159 1242 3001 
Q 1428 2844 1947 2747 
L 2328 2669 
Q 3034 2534 3370 2195 
Q 3706 1856 3706 1288 
Q 3706 609 3251 259 
Q 2797 -91 1919 -91 
Q 1588 -91 1214 -16 
Q 841 59 441 206 
L 441 856 
Q 825 641 1194 531 
Q 1563 422 1919 422 
Q 2459 422 2753 634 
Q 3047 847 3047 1241 
Q 3047 1584 2836 1778 
Q 2625 1972 2144 2069 
L 1759 2144 
Q 1053 2284 737 2584 
Q 422 2884 422 3419 
Q 422 4038 858 4394 
Q 1294 4750 2059 4750 
Q 2388 4750 2728 4690 
Q 3069 4631 3425 4513 
z
" transform="scale(0.015625)"/>
       <path id="DejaVuSans-69" d="M 603 3500 
L 1178 3500 
L 1178 0 
L 603 0 
L 603 3500 
z
M 603 4863 
L 1178 4863 
L 1178 4134 
L 603 4134 
L 603 4863 
z
" transform="scale(0.015625)"/>
       <path id="DejaVuSans-6c" d="M 603 4863 
L 1178 4863 
L 1178 0 
L 603 0 
L 603 4863 
z
" transform="scale(0.015625)"/>
       <path id="DejaVuSans-68" d="M 3513 2113 
L 3513 0 
L 2938 0 
L 2938 2094 
Q 2938 2591 2744 2837 
Q 2550 3084 2163 3084 
Q 1697 3084 1428 2787 
Q 1159 2491 1159 1978 
L 1159 0 
L 581 0 
L 581 4863 
L 1159 4863 
L 1159 2956 
Q 1366 3272 1645 3428 
Q 1925 3584 2291 3584 
Q 2894 3584 3203 3211 
Q 3513 2838 3513 2113 
z
" transform="scale(0.015625)"/>
       <path id="DejaVuSans-6f" d="M 1959 3097 
Q 1497 3097 1228 2736 
Q 959 2375 959 1747 
Q 959 1119 1226 758 
Q 1494 397 1959 397 
Q 2419 397 2687 759 
Q 2956 1122 2956 1747 
Q 2956 2369 2687 2733 
Q 2419 3097 1959 3097 
z
M 1959 3584 
Q 2709 3584 3137 3096 
Q 3566 2609 3566 1747 
Q 3566 888 3137 398 
Q 2709 -91 1959 -91 
Q 1206 -91 779 398 
Q 353 888 353 1747 
Q 353 2609 779 3096 
Q 1206 3584 1959 3584 
z
" transform="scale(0.015625)"/>
       <path id="DejaVuSans-75" d="M 544 1381 
L 544 3500 
L 1119 3500 
L 1119 1403 
Q 1119 906 1312 657 
Q 1506 409 1894 409 
Q 2359 409 2629 706 
Q 2900 1003 2900 1516 
L 2900 3500 
L 3475 3500 
L 3475 0 
L 2900 0 
L 2900 538 
Q 2691 219 2414 64 
Q 2138 -91 1772 -91 
Q 1169 -91 856 284 
Q 544 659 544 1381 
z
M 1991 3584 
L 1991 3584 
z
" transform="scale(0.015625)"/>
       <path id="DejaVuSans-65" d="M 3597 1894 
L 3597 1613 
L 953 1613 
Q 991 1019 1311 708 
Q 1631 397 2203 397 
Q 2534 397 2845 478 
Q 3156 559 3463 722 
L 3463 178 
Q 3153 47 2828 -22 
Q 2503 -91 2169 -91 
Q 1331 -91 842 396 
Q 353 884 353 1716 
Q 353 2575 817 3079 
Q 1281 3584 2069 3584 
Q 2775 3584 3186 3129 
Q 3597 2675 3597 1894 
z
M 3022 2063 
Q 3016 2534 2758 2815 
Q 2500 3097 2075 3097 
Q 1594 3097 1305 2825 
Q 1016 2553 972 2059 
L 3022 2063 
z
" transform="scale(0.015625)"/>
       <path id="DejaVuSans-74" d="M 1172 4494 
L 1172 3500 
L 2356 3500 
L 2356 3053 
L 1172 3053 
L 1172 1153 
Q 1172 725 1289 603 
Q 1406 481 1766 481 
L 2356 481 
L 2356 0 
L 1766 0 
Q 1100 0 847 248 
Q 594 497 594 1153 
L 594 3053 
L 172 3053 
L 172 3500 
L 594 3500 
L 594 4494 
L 1172 4494 
z
" transform="scale(0.015625)"/>
       <path id="DejaVuSans-20" transform="scale(0.015625)"/>
       <path id="DejaVuSans-63" d="M 3122 3366 
L 3122 2828 
Q 2878 2963 2633 3030 
Q 2388 3097 2138 3097 
Q 1578 3097 1268 2742 
Q 959 2388 959 1747 
Q 959 1106 1268 751 
Q 1578 397 2138 397 
Q 2388 397 2633 464 
Q 2878 531 3122 666 
L 3122 134 
Q 2881 22 2623 -34 
Q 2366 -91 2075 -91 
Q 1284 -91 818 406 
Q 353 903 353 1747 
Q 353 2603 823 3093 
Q 1294 3584 2113 3584 
Q 2378 3584 2631 3529 
Q 2884 3475 3122 3366 
z
" transform="scale(0.015625)"/>
       <path id="DejaVuSans-66" d="M 2375 4863 
L 2375 4384 
L 1825 4384 
Q 1516 4384 1395 4259 
Q 1275 4134 1275 3809 
L 1275 3500 
L 2222 3500 
L 2222 3053 
L 1275 3053 
L 1275 0 
L 697 0 
L 697 3053 
L 147 3053 
L 147 3500 
L 697 3500 
L 697 3744 
Q 697 4328 969 4595 
Q 1241 4863 1831 4863 
L 2375 4863 
z
" transform="scale(0.015625)"/>
       <path id="DejaVuSans-6e" d="M 3513 2113 
L 3513 0 
L 2938 0 
L 2938 2094 
Q 2938 2591 2744 2837 
Q 2550 3084 2163 3084 
Q 1697 3084 1428 2787 
Q 1159 2491 1159 1978 
L 1159 0 
L 581 0 
L 581 3500 
L 1159 3500 
L 1159 2956 
Q 1366 3272 1645 3428 
Q 1925 3584 2291 3584 
Q 2894 3584 3203 3211 
Q 3513 2838 3513 2113 
z
" transform="scale(0.015625)"/>
      </defs>
      <use xlink:href="#DejaVuSans-53"/>
      <use xlink:href="#DejaVuSans-69" x="63.476562"/>
      <use xlink:href="#DejaVuSans-6c" x="91.259766"/>
      <use xlink:href="#DejaVuSans-68" x="119.042969"/>
      <use xlink:href="#DejaVuSans-6f" x="182.421875"/>
      <use xlink:href="#DejaVuSans-75" x="243.603516"/>
      <use xlink:href="#DejaVuSans-65" x="306.982422"/>
      <use xlink:href="#DejaVuSans-74" x="368.505859"/>
      <use xlink:href="#DejaVuSans-74" x="407.714844"/>
      <use xlink:href="#DejaVuSans-65" x="446.923828"/>
      <use xlink:href="#DejaVuSans-20" x="508.447266"/>
      <use xlink:href="#DejaVuSans-63" x="540.234375"/>
      <use xlink:href="#DejaVuSans-6f" x="595.214844"/>
      <use xlink:href="#DejaVuSans-65" x="656.396484"/>
      <use xlink:href="#DejaVuSans-66" x="717.919922"/>
      <use xlink:href="#DejaVuSans-66" x="753.125"/>
      <use xlink:href="#DejaVuSans-69" x="788.330078"/>
      <use xlink:href="#DejaVuSans-63" x="816.113281"/>
      <use xlink:href="#DejaVuSans-69" x="871.09375"/>
      <use xlink:href="#DejaVuSans-65" x="898.876953"/>
      <use xlink:href="#DejaVuSans-6e" x="960.400391"/>
      <use xlink:href="#DejaVuSans-74" x="1023.779297"/>
     </g>
    </g>
   </g>
   <g id="matplotlib.axis_2">
    <g id="text_13">
     <!-- Predicted label -->
     <g transform="translate(18.398438 239.59076) rotate(-90) scale(0.1 -0.1)">
      <defs>
       <path id="DejaVuSans-50" d="M 1259 4147 
L 1259 2394 
L 2053 2394 
Q 2494 2394 2734 2622 
Q 2975 2850 2975 3272 
Q 2975 3691 2734 3919 
Q 2494 4147 2053 4147 
L 1259 4147 
z
M 628 4666 
L 2053 4666 
Q 2838 4666 3239 4311 
Q 3641 3956 3641 3272 
Q 3641 2581 3239 2228 
Q 2838 1875 2053 1875 
L 1259 1875 
L 1259 0 
L 628 0 
L 628 4666 
z
" transform="scale(0.015625)"/>
       <path id="DejaVuSans-72" d="M 2631 2963 
Q 2534 3019 2420 3045 
Q 2306 3072 2169 3072 
Q 1681 3072 1420 2755 
Q 1159 2438 1159 1844 
L 1159 0 
L 581 0 
L 581 3500 
L 1159 3500 
L 1159 2956 
Q 1341 3275 1631 3429 
Q 1922 3584 2338 3584 
Q 2397 3584 2469 3576 
Q 2541 3569 2628 3553 
L 2631 2963 
z
" transform="scale(0.015625)"/>
       <path id="DejaVuSans-64" d="M 2906 2969 
L 2906 4863 
L 3481 4863 
L 3481 0 
L 2906 0 
L 2906 525 
Q 2725 213 2448 61 
Q 2172 -91 1784 -91 
Q 1150 -91 751 415 
Q 353 922 353 1747 
Q 353 2572 751 3078 
Q 1150 3584 1784 3584 
Q 2172 3584 2448 3432 
Q 2725 3281 2906 2969 
z
M 947 1747 
Q 947 1113 1208 752 
Q 1469 391 1925 391 
Q 2381 391 2643 752 
Q 2906 1113 2906 1747 
Q 2906 2381 2643 2742 
Q 2381 3103 1925 3103 
Q 1469 3103 1208 2742 
Q 947 2381 947 1747 
z
" transform="scale(0.015625)"/>
       <path id="DejaVuSans-61" d="M 2194 1759 
Q 1497 1759 1228 1600 
Q 959 1441 959 1056 
Q 959 750 1161 570 
Q 1363 391 1709 391 
Q 2188 391 2477 730 
Q 2766 1069 2766 1631 
L 2766 1759 
L 2194 1759 
z
M 3341 1997 
L 3341 0 
L 2766 0 
L 2766 531 
Q 2569 213 2275 61 
Q 1981 -91 1556 -91 
Q 1019 -91 701 211 
Q 384 513 384 1019 
Q 384 1609 779 1909 
Q 1175 2209 1959 2209 
L 2766 2209 
L 2766 2266 
Q 2766 2663 2505 2880 
Q 2244 3097 1772 3097 
Q 1472 3097 1187 3025 
Q 903 2953 641 2809 
L 641 3341 
Q 956 3463 1253 3523 
Q 1550 3584 1831 3584 
Q 2591 3584 2966 3190 
Q 3341 2797 3341 1997 
z
" transform="scale(0.015625)"/>
       <path id="DejaVuSans-62" d="M 3116 1747 
Q 3116 2381 2855 2742 
Q 2594 3103 2138 3103 
Q 1681 3103 1420 2742 
Q 1159 2381 1159 1747 
Q 1159 1113 1420 752 
Q 1681 391 2138 391 
Q 2594 391 2855 752 
Q 3116 1113 3116 1747 
z
M 1159 2969 
Q 1341 3281 1617 3432 
Q 1894 3584 2278 3584 
Q 2916 3584 3314 3078 
Q 3713 2572 3713 1747 
Q 3713 922 3314 415 
Q 2916 -91 2278 -91 
Q 1894 -91 1617 61 
Q 1341 213 1159 525 
L 1159 0 
L 581 0 
L 581 4863 
L 1159 4863 
L 1159 2969 
z
" transform="scale(0.015625)"/>
      </defs>
      <use xlink:href="#DejaVuSans-50"/>
      <use xlink:href="#DejaVuSans-72" x="58.552734"/>
      <use xlink:href="#DejaVuSans-65" x="97.416016"/>
      <use xlink:href="#DejaVuSans-64" x="158.939453"/>
      <use xlink:href="#DejaVuSans-69" x="222.416016"/>
      <use xlink:href="#DejaVuSans-63" x="250.199219"/>
      <use xlink:href="#DejaVuSans-74" x="305.179688"/>
      <use xlink:href="#DejaVuSans-65" x="344.388672"/>
      <use xlink:href="#DejaVuSans-64" x="405.912109"/>
      <use xlink:href="#DejaVuSans-20" x="469.388672"/>
      <use xlink:href="#DejaVuSans-6c" x="501.175781"/>
      <use xlink:href="#DejaVuSans-61" x="528.958984"/>
      <use xlink:href="#DejaVuSans-62" x="590.238281"/>
      <use xlink:href="#DejaVuSans-65" x="653.714844"/>
      <use xlink:href="#DejaVuSans-6c" x="715.238281"/>
     </g>
    </g>
   </g>
   <g id="line2d_12">
    <path d="M 604.878891 390.84375 
L 604.878891 14.033083 
" clip-path="url(#p3a5535b6bd)" style="fill: none; stroke: #ff0000; stroke-width: 1.5; stroke-linecap: square"/>
   </g>
   <g id="patch_3">
    <path d="M 27.978125 390.84375 
L 27.978125 14.033083 
" style="fill: none; stroke: #000000; stroke-width: 0.8; stroke-linejoin: miter; stroke-linecap: square"/>
   </g>
   <g id="patch_4">
    <path d="M 702.708264 390.84375 
L 702.708264 14.033083 
" style="fill: none; stroke: #000000; stroke-width: 0.8; stroke-linejoin: miter; stroke-linecap: square"/>
   </g>
   <g id="patch_5">
    <path d="M 27.978125 390.84375 
L 702.708264 390.84375 
" style="fill: none; stroke: #000000; stroke-width: 0.8; stroke-linejoin: miter; stroke-linecap: square"/>
   </g>
   <g id="patch_6">
    <path d="M 27.978125 14.033083 
L 702.708264 14.033083 
" style="fill: none; stroke: #000000; stroke-width: 0.8; stroke-linejoin: miter; stroke-linecap: square"/>
   </g>
   <g id="text_14">
    <!-- 0 -->
    <g transform="translate(347.636465 383.920719) scale(0.1 -0.1)">
     <use xlink:href="#DejaVuSans-30"/>
    </g>
   </g>
   <g id="text_15">
    <!-- 1 -->
    <g transform="translate(347.636465 370.816411) scale(0.1 -0.1)">
     <use xlink:href="#DejaVuSans-31"/>
    </g>
   </g>
   <g id="text_16">
    <!-- 2 -->
    <g transform="translate(347.636465 358.206606) scale(0.1 -0.1)">
     <use xlink:href="#DejaVuSans-32"/>
    </g>
   </g>
   <g id="text_17">
    <!-- 3 -->
    <g transform="translate(347.636465 350.789073) scale(0.1 -0.1)">
     <defs>
      <path id="DejaVuSans-33" d="M 2597 2516 
Q 3050 2419 3304 2112 
Q 3559 1806 3559 1356 
Q 3559 666 3084 287 
Q 2609 -91 1734 -91 
Q 1441 -91 1130 -33 
Q 819 25 488 141 
L 488 750 
Q 750 597 1062 519 
Q 1375 441 1716 441 
Q 2309 441 2620 675 
Q 2931 909 2931 1356 
Q 2931 1769 2642 2001 
Q 2353 2234 1838 2234 
L 1294 2234 
L 1294 2753 
L 1863 2753 
Q 2328 2753 2575 2939 
Q 2822 3125 2822 3475 
Q 2822 3834 2567 4026 
Q 2313 4219 1838 4219 
Q 1578 4219 1281 4162 
Q 984 4106 628 3988 
L 628 4550 
Q 988 4650 1302 4700 
Q 1616 4750 1894 4750 
Q 2613 4750 3031 4423 
Q 3450 4097 3450 3541 
Q 3450 3153 3228 2886 
Q 3006 2619 2597 2516 
z
" transform="scale(0.015625)"/>
     </defs>
     <use xlink:href="#DejaVuSans-33"/>
    </g>
   </g>
   <g id="text_18">
    <!-- 4 -->
    <g transform="translate(347.636465 306.283876) scale(0.1 -0.1)">
     <use xlink:href="#DejaVuSans-34"/>
    </g>
   </g>
   <g id="text_19">
    <!-- 5 -->
    <g transform="translate(347.636465 146.312418) scale(0.1 -0.1)">
     <defs>
      <path id="DejaVuSans-35" d="M 691 4666 
L 3169 4666 
L 3169 4134 
L 1269 4134 
L 1269 2991 
Q 1406 3038 1543 3061 
Q 1681 3084 1819 3084 
Q 2600 3084 3056 2656 
Q 3513 2228 3513 1497 
Q 3513 744 3044 326 
Q 2575 -91 1722 -91 
Q 1428 -91 1123 -41 
Q 819 9 494 109 
L 494 744 
Q 775 591 1075 516 
Q 1375 441 1709 441 
Q 2250 441 2565 725 
Q 2881 1009 2881 1497 
Q 2881 1984 2565 2268 
Q 2250 2553 1709 2553 
Q 1456 2553 1204 2497 
Q 953 2441 691 2322 
L 691 4666 
z
" transform="scale(0.015625)"/>
     </defs>
     <use xlink:href="#DejaVuSans-35"/>
    </g>
   </g>
   <g id="text_20">
    <!-- 6 -->
    <g transform="translate(347.636465 24.66488) scale(0.1 -0.1)">
     <use xlink:href="#DejaVuSans-36"/>
    </g>
   </g>
   <g id="text_21">
    <!-- 7 -->
    <g transform="translate(347.636465 19.225356) scale(0.1 -0.1)">
     <defs>
      <path id="DejaVuSans-37" d="M 525 4666 
L 3525 4666 
L 3525 4397 
L 1831 0 
L 1172 0 
L 2766 4134 
L 525 4134 
L 525 4666 
z
" transform="scale(0.015625)"/>
     </defs>
     <use xlink:href="#DejaVuSans-37"/>
    </g>
   </g>
   <g id="text_22">
    <!-- 0.7145 -->
    <g style="fill: #ff0000" transform="translate(621.703014 18.978105) scale(0.1 -0.1)">
     <use xlink:href="#DejaVuSans-30"/>
     <use xlink:href="#DejaVuSans-2e" x="63.623047"/>
     <use xlink:href="#DejaVuSans-37" x="95.410156"/>
     <use xlink:href="#DejaVuSans-31" x="159.033203"/>
     <use xlink:href="#DejaVuSans-34" x="222.65625"/>
     <use xlink:href="#DejaVuSans-35" x="286.279297"/>
    </g>
   </g>
  </g>
 </g>
 <defs>
  <clipPath id="p3a5535b6bd">
   <rect x="27.978125" y="14.033083" width="674.730139" height="376.810667"/>
  </clipPath>
 </defs>
</svg>
