<?xml version="1.0" encoding="utf-8" standalone="no"?>
<!DOCTYPE svg PUBLIC "-//W3C//DTD SVG 1.1//EN"
  "http://www.w3.org/Graphics/SVG/1.1/DTD/svg11.dtd">
<svg xmlns:xlink="http://www.w3.org/1999/xlink" width="720pt" height="432pt" viewBox="0 0 720 432" xmlns="http://www.w3.org/2000/svg" version="1.1">
 <metadata>
  <rdf:RDF xmlns:dc="http://purl.org/dc/elements/1.1/" xmlns:cc="http://creativecommons.org/ns#" xmlns:rdf="http://www.w3.org/1999/02/22-rdf-syntax-ns#">
   <cc:Work>
    <dc:type rdf:resource="http://purl.org/dc/dcmitype/StillImage"/>
    <dc:date>2022-11-03T14:04:20.245885</dc:date>
    <dc:format>image/svg+xml</dc:format>
    <dc:creator>
     <cc:Agent>
      <dc:title>Matplotlib v3.6.1, https://matplotlib.org/</dc:title>
     </cc:Agent>
    </dc:creator>
   </cc:Work>
  </rdf:RDF>
 </metadata>
 <defs>
  <style type="text/css">*{stroke-linejoin: round; stroke-linecap: butt}</style>
 </defs>
 <g id="figure_1">
  <g id="patch_1">
   <path d="M 0 432 
L 720 432 
L 720 0 
L 0 0 
z
" style="fill: #ffffff"/>
  </g>
  <g id="axes_1">
   <g id="patch_2">
    <path d="M 27.978125 390.84375 
L 701.248437 390.84375 
L 701.248437 14.400361 
L 27.978125 14.400361 
z
" style="fill: #ffffff"/>
   </g>
   <g id="PolyCollection_1">
    <defs>
     <path id="m28ddd69df3" d="M 423.208546 -45.68081 
L 364.613281 -45.68081 
L 364.613281 -46.133266 
L 364.613281 -46.585722 
L 364.613281 -47.038178 
L 364.613281 -47.490634 
L 364.613281 -47.94309 
L 364.613281 -48.395546 
L 364.613281 -48.848002 
L 364.613281 -49.300458 
L 364.613281 -49.752914 
L 364.613281 -50.20537 
L 364.613281 -50.657826 
L 364.613281 -51.110282 
L 364.613281 -51.562738 
L 364.613281 -52.015194 
L 364.613281 -52.46765 
L 364.613281 -52.920106 
L 364.613281 -53.372562 
L 364.613281 -53.825018 
L 364.613281 -54.277474 
L 364.613281 -54.72993 
L 364.613281 -55.182386 
L 364.613281 -55.634842 
L 364.613281 -56.087298 
L 364.613281 -56.539754 
L 364.613281 -56.99221 
L 364.613281 -57.444666 
L 364.613281 -57.897122 
L 364.613281 -58.349578 
L 364.613281 -58.802034 
L 364.613281 -59.25449 
L 364.613281 -59.706946 
L 364.613281 -60.159402 
L 364.613281 -60.611858 
L 364.613281 -61.064314 
L 364.613281 -61.51677 
L 364.613281 -61.969226 
L 364.613281 -62.421682 
L 364.613281 -62.874138 
L 364.613281 -63.326594 
L 364.613281 -63.77905 
L 364.613281 -64.231506 
L 364.613281 -64.683962 
L 364.613281 -65.136418 
L 364.613281 -65.588874 
L 364.613281 -66.04133 
L 364.613281 -66.493786 
L 364.613281 -66.946242 
L 364.613281 -67.398698 
L 364.613281 -67.851154 
L 364.613281 -68.30361 
L 364.613281 -68.756066 
L 364.613281 -69.208522 
L 364.613281 -69.660978 
L 364.613281 -70.113434 
L 364.613281 -70.56589 
L 364.613281 -71.018346 
L 364.613281 -71.470802 
L 364.613281 -71.923258 
L 364.613281 -72.375714 
L 364.613281 -72.82817 
L 364.613281 -73.280626 
L 364.613281 -73.733082 
L 364.613281 -74.185538 
L 364.613281 -74.637994 
L 364.613281 -75.09045 
L 364.613281 -75.542906 
L 364.613281 -75.995362 
L 364.613281 -76.447818 
L 364.613281 -76.900274 
L 364.613281 -77.35273 
L 364.613281 -77.805186 
L 364.613281 -78.257642 
L 364.613281 -78.710098 
L 364.613281 -79.162554 
L 364.613281 -79.61501 
L 591.701217 -79.61501 
L 591.701217 -79.61501 
L 591.183859 -79.162554 
L 591.084195 -78.710098 
L 591.026911 -78.257642 
L 590.937956 -77.805186 
L 590.521907 -77.35273 
L 590.474273 -76.900274 
L 590.157758 -76.447818 
L 589.368493 -75.995362 
L 582.230878 -75.542906 
L 581.998719 -75.09045 
L 581.974246 -74.637994 
L 581.96108 -74.185538 
L 581.821054 -73.733082 
L 581.736803 -73.280626 
L 580.936907 -72.82817 
L 580.22036 -72.375714 
L 578.762016 -71.923258 
L 577.251555 -71.470802 
L 575.341217 -71.018346 
L 574.068839 -70.56589 
L 573.691012 -70.113434 
L 572.319076 -69.660978 
L 571.964003 -69.208522 
L 571.516268 -68.756066 
L 571.478756 -68.30361 
L 571.123547 -67.851154 
L 570.939687 -67.398698 
L 570.202133 -66.946242 
L 569.961167 -66.493786 
L 568.376361 -66.04133 
L 563.516946 -65.588874 
L 563.451671 -65.136418 
L 561.775203 -64.683962 
L 560.176922 -64.231506 
L 559.729167 -63.77905 
L 553.562603 -63.326594 
L 551.961197 -62.874138 
L 550.702657 -62.421682 
L 550.402266 -61.969226 
L 549.084803 -61.51677 
L 548.914872 -61.064314 
L 547.295729 -60.611858 
L 546.000941 -60.159402 
L 543.205881 -59.706946 
L 543.156511 -59.25449 
L 542.04634 -58.802034 
L 533.674042 -58.349578 
L 532.991224 -57.897122 
L 525.436784 -57.444666 
L 524.344551 -56.99221 
L 524.03975 -56.539754 
L 522.874035 -56.087298 
L 521.420764 -55.634842 
L 521.355151 -55.182386 
L 517.384901 -54.72993 
L 505.109238 -54.277474 
L 503.322063 -53.825018 
L 502.699267 -53.372562 
L 501.683667 -52.920106 
L 501.302355 -52.46765 
L 497.9847 -52.015194 
L 496.842071 -51.562738 
L 495.173266 -51.110282 
L 492.311602 -50.657826 
L 490.184996 -50.20537 
L 490.088519 -49.752914 
L 487.815929 -49.300458 
L 484.754568 -48.848002 
L 483.734059 -48.395546 
L 480.774945 -47.94309 
L 450.481636 -47.490634 
L 446.870562 -47.038178 
L 443.595403 -46.585722 
L 432.862527 -46.133266 
L 423.208546 -45.68081 
z
" style="stroke: #000000; stroke-opacity: 0.7"/>
    </defs>
    <g clip-path="url(#pcca68ee1f2)">
     <use xlink:href="#m28ddd69df3" x="0" y="432" style="fill-opacity: 0.7; stroke: #000000; stroke-opacity: 0.7"/>
    </g>
   </g>
   <g id="PolyCollection_2">
    <defs>
     <path id="mcc6466a4b9" d="M 465.136111 -84.592026 
L 364.613281 -84.592026 
L 364.613281 -85.044482 
L 364.613281 -85.496938 
L 364.613281 -85.949394 
L 364.613281 -86.40185 
L 364.613281 -86.854306 
L 364.613281 -87.306762 
L 364.613281 -87.759218 
L 364.613281 -88.211674 
L 364.613281 -88.66413 
L 364.613281 -89.116586 
L 364.613281 -89.569042 
L 364.613281 -90.021498 
L 364.613281 -90.473954 
L 539.849783 -90.473954 
L 539.849783 -90.473954 
L 538.569448 -90.021498 
L 538.233661 -89.569042 
L 533.126675 -89.116586 
L 532.643162 -88.66413 
L 531.443902 -88.211674 
L 530.781671 -87.759218 
L 526.957261 -87.306762 
L 515.67283 -86.854306 
L 505.276381 -86.40185 
L 466.077681 -85.949394 
L 466.013955 -85.496938 
L 465.500021 -85.044482 
L 465.136111 -84.592026 
z
" style="stroke: #7d008e; stroke-opacity: 0.7"/>
    </defs>
    <g clip-path="url(#pcca68ee1f2)">
     <use xlink:href="#mcc6466a4b9" x="0" y="432" style="fill: #7d008e; fill-opacity: 0.7; stroke: #7d008e; stroke-opacity: 0.7"/>
    </g>
   </g>
   <g id="PolyCollection_3">
    <defs>
     <path id="m9558d6eb78" d="M 364.677852 -95.45097 
L 364.613281 -95.45097 
L 364.613281 -95.903426 
L 364.613281 -96.355882 
L 364.613281 -96.808338 
L 364.613281 -97.260794 
L 364.613281 -97.71325 
L 364.613281 -98.165706 
L 364.613281 -98.618162 
L 364.613281 -99.070618 
L 364.613281 -99.523074 
L 364.613281 -99.97553 
L 364.613281 -100.427986 
L 364.613281 -100.880442 
L 364.613281 -101.332898 
L 364.613281 -101.785354 
L 364.613281 -102.23781 
L 364.613281 -102.690266 
L 364.613281 -103.142722 
L 364.613281 -103.595178 
L 364.613281 -104.047634 
L 364.613281 -104.50009 
L 364.613281 -104.952546 
L 364.613281 -105.405002 
L 364.613281 -105.857458 
L 364.613281 -106.309914 
L 364.613281 -106.76237 
L 364.613281 -107.214826 
L 364.613281 -107.667282 
L 364.613281 -108.119738 
L 364.613281 -108.572194 
L 364.613281 -109.02465 
L 364.613281 -109.477106 
L 364.613281 -109.929562 
L 364.613281 -110.382018 
L 364.613281 -110.834474 
L 364.613281 -111.28693 
L 364.613281 -111.739386 
L 364.613281 -112.191842 
L 364.613281 -112.644298 
L 364.613281 -113.096754 
L 364.613281 -113.54921 
L 364.613281 -114.001666 
L 364.613281 -114.454121 
L 364.613281 -114.906577 
L 364.613281 -115.359033 
L 364.613281 -115.811489 
L 364.613281 -116.263945 
L 364.613281 -116.716401 
L 364.613281 -117.168857 
L 364.613281 -117.621313 
L 364.613281 -118.073769 
L 364.613281 -118.526225 
L 364.613281 -118.978681 
L 364.613281 -119.431137 
L 364.613281 -119.883593 
L 364.613281 -120.336049 
L 364.613281 -120.788505 
L 364.613281 -121.240961 
L 364.613281 -121.693417 
L 364.613281 -122.145873 
L 364.613281 -122.598329 
L 364.613281 -123.050785 
L 364.613281 -123.503241 
L 364.613281 -123.955697 
L 364.613281 -124.408153 
L 364.613281 -124.860609 
L 364.613281 -125.313065 
L 364.613281 -125.765521 
L 364.613281 -126.217977 
L 364.613281 -126.670433 
L 364.613281 -127.122889 
L 364.613281 -127.575345 
L 364.613281 -128.027801 
L 364.613281 -128.480257 
L 364.613281 -128.932713 
L 364.613281 -129.385169 
L 364.613281 -129.837625 
L 364.613281 -130.290081 
L 364.613281 -130.742537 
L 364.613281 -131.194993 
L 364.613281 -131.647449 
L 364.613281 -132.099905 
L 364.613281 -132.552361 
L 364.613281 -133.004817 
L 364.613281 -133.457273 
L 364.613281 -133.909729 
L 364.613281 -134.362185 
L 574.442424 -134.362185 
L 574.442424 -134.362185 
L 571.17518 -133.909729 
L 570.191081 -133.457273 
L 568.123539 -133.004817 
L 567.177664 -132.552361 
L 567.147902 -132.099905 
L 566.584547 -131.647449 
L 565.525303 -131.194993 
L 564.824223 -130.742537 
L 564.433681 -130.290081 
L 563.606334 -129.837625 
L 562.138261 -129.385169 
L 561.057458 -128.932713 
L 560.437164 -128.480257 
L 560.278626 -128.027801 
L 560.16182 -127.575345 
L 559.556331 -127.122889 
L 559.409636 -126.670433 
L 559.298973 -126.217977 
L 559.010395 -125.765521 
L 558.700472 -125.313065 
L 558.631435 -124.860609 
L 557.990713 -124.408153 
L 556.95885 -123.955697 
L 556.839233 -123.503241 
L 556.700132 -123.050785 
L 555.836859 -122.598329 
L 555.598639 -122.145873 
L 555.040325 -121.693417 
L 554.837899 -121.240961 
L 554.621038 -120.788505 
L 554.144573 -120.336049 
L 553.279301 -119.883593 
L 553.011696 -119.431137 
L 552.838193 -118.978681 
L 551.607918 -118.526225 
L 551.605739 -118.073769 
L 551.025448 -117.621313 
L 549.141471 -117.168857 
L 548.381161 -116.716401 
L 547.954418 -116.263945 
L 546.53458 -115.811489 
L 546.263316 -115.359033 
L 544.270419 -114.906577 
L 544.150309 -114.454121 
L 544.081217 -114.001666 
L 543.735141 -113.54921 
L 543.485911 -113.096754 
L 543.392998 -112.644298 
L 541.080794 -112.191842 
L 539.34019 -111.739386 
L 538.092079 -111.28693 
L 537.700532 -110.834474 
L 535.943257 -110.382018 
L 534.997754 -109.929562 
L 534.045022 -109.477106 
L 533.281204 -109.02465 
L 532.779073 -108.572194 
L 532.542841 -108.119738 
L 532.332619 -107.667282 
L 531.763251 -107.214826 
L 531.754193 -106.76237 
L 531.486662 -106.309914 
L 531.142547 -105.857458 
L 530.484671 -105.405002 
L 528.274656 -104.952546 
L 527.267723 -104.50009 
L 524.884264 -104.047634 
L 522.548813 -103.595178 
L 519.410796 -103.142722 
L 516.093759 -102.690266 
L 515.332935 -102.23781 
L 513.595384 -101.785354 
L 512.287964 -101.332898 
L 509.404618 -100.880442 
L 508.187344 -100.427986 
L 508.080319 -99.97553 
L 507.545846 -99.523074 
L 502.38236 -99.070618 
L 502.343386 -98.618162 
L 493.801951 -98.165706 
L 489.442957 -97.71325 
L 480.759821 -97.260794 
L 468.082573 -96.808338 
L 457.952081 -96.355882 
L 440.405384 -95.903426 
L 364.677852 -95.45097 
z
" style="stroke: #2d00a4; stroke-opacity: 0.7"/>
    </defs>
    <g clip-path="url(#pcca68ee1f2)">
     <use xlink:href="#m9558d6eb78" x="0" y="432" style="fill: #2d00a4; fill-opacity: 0.7; stroke: #2d00a4; stroke-opacity: 0.7"/>
    </g>
   </g>
   <g id="PolyCollection_4">
    <defs>
     <path id="m70ffe54044" d="M 370.949791 -139.339201 
L 364.613281 -139.339201 
L 364.613281 -139.791657 
L 364.613281 -140.244113 
L 364.613281 -140.696569 
L 364.613281 -141.149025 
L 364.613281 -141.601481 
L 364.613281 -142.053937 
L 364.613281 -142.506393 
L 364.613281 -142.958849 
L 364.613281 -143.411305 
L 364.613281 -143.863761 
L 364.613281 -144.316217 
L 364.613281 -144.768673 
L 364.613281 -145.221129 
L 364.613281 -145.673585 
L 364.613281 -146.126041 
L 364.613281 -146.578497 
L 364.613281 -147.030953 
L 364.613281 -147.483409 
L 364.613281 -147.935865 
L 364.613281 -148.388321 
L 364.613281 -148.840777 
L 364.613281 -149.293233 
L 364.613281 -149.745689 
L 364.613281 -150.198145 
L 364.613281 -150.650601 
L 364.613281 -151.103057 
L 364.613281 -151.555513 
L 364.613281 -152.007969 
L 364.613281 -152.460425 
L 364.613281 -152.912881 
L 364.613281 -153.365337 
L 364.613281 -153.817793 
L 364.613281 -154.270249 
L 364.613281 -154.722705 
L 364.613281 -155.175161 
L 364.613281 -155.627617 
L 364.613281 -156.080073 
L 364.613281 -156.532529 
L 364.613281 -156.984985 
L 364.613281 -157.437441 
L 364.613281 -157.889897 
L 364.613281 -158.342353 
L 364.613281 -158.794809 
L 364.613281 -159.247265 
L 364.613281 -159.699721 
L 364.613281 -160.152177 
L 364.613281 -160.604633 
L 364.613281 -161.057089 
L 364.613281 -161.509545 
L 364.613281 -161.962001 
L 364.613281 -162.414457 
L 364.613281 -162.866913 
L 364.613281 -163.319369 
L 364.613281 -163.771825 
L 364.613281 -164.224281 
L 364.613281 -164.676737 
L 364.613281 -165.129193 
L 364.613281 -165.581649 
L 364.613281 -166.034105 
L 364.613281 -166.486561 
L 364.613281 -166.939017 
L 364.613281 -167.391473 
L 364.613281 -167.843929 
L 364.613281 -168.296385 
L 364.613281 -168.748841 
L 364.613281 -169.201297 
L 364.613281 -169.653753 
L 364.613281 -170.106209 
L 364.613281 -170.558665 
L 364.613281 -171.011121 
L 364.613281 -171.463577 
L 364.613281 -171.916033 
L 364.613281 -172.368489 
L 364.613281 -172.820945 
L 364.613281 -173.273401 
L 364.613281 -173.725857 
L 364.613281 -174.178313 
L 364.613281 -174.630769 
L 364.613281 -175.083225 
L 364.613281 -175.535681 
L 364.613281 -175.988137 
L 364.613281 -176.440593 
L 364.613281 -176.893049 
L 580.552257 -176.893049 
L 580.552257 -176.893049 
L 580.248346 -176.440593 
L 580.228925 -175.988137 
L 578.72648 -175.535681 
L 578.253917 -175.083225 
L 578.247481 -174.630769 
L 578.247042 -174.178313 
L 577.935106 -173.725857 
L 577.730257 -173.273401 
L 577.111026 -172.820945 
L 576.822591 -172.368489 
L 576.610964 -171.916033 
L 574.886046 -171.463577 
L 574.74446 -171.011121 
L 573.245781 -170.558665 
L 572.530109 -170.106209 
L 570.260726 -169.653753 
L 569.01724 -169.201297 
L 566.385459 -168.748841 
L 566.378986 -168.296385 
L 565.454366 -167.843929 
L 564.774065 -167.391473 
L 561.549631 -166.939017 
L 560.071833 -166.486561 
L 559.970382 -166.034105 
L 559.598761 -165.581649 
L 559.472353 -165.129193 
L 559.343471 -164.676737 
L 557.989557 -164.224281 
L 557.143934 -163.771825 
L 556.691859 -163.319369 
L 556.487598 -162.866913 
L 556.25196 -162.414457 
L 555.423801 -161.962001 
L 553.421551 -161.509545 
L 553.048723 -161.057089 
L 552.621325 -160.604633 
L 552.241757 -160.152177 
L 550.671226 -159.699721 
L 549.974507 -159.247265 
L 549.841125 -158.794809 
L 549.75734 -158.342353 
L 547.301863 -157.889897 
L 545.550578 -157.437441 
L 545.319081 -156.984985 
L 544.493215 -156.532529 
L 542.888807 -156.080073 
L 541.363331 -155.627617 
L 538.94948 -155.175161 
L 538.642972 -154.722705 
L 531.497043 -154.270249 
L 529.857571 -153.817793 
L 529.671785 -153.365337 
L 525.361259 -152.912881 
L 523.36324 -152.460425 
L 519.634716 -152.007969 
L 519.089921 -151.555513 
L 518.462058 -151.103057 
L 516.635715 -150.650601 
L 513.530208 -150.198145 
L 510.58523 -149.745689 
L 504.673735 -149.293233 
L 499.787994 -148.840777 
L 498.183365 -148.388321 
L 497.320493 -147.935865 
L 495.499893 -147.483409 
L 493.765706 -147.030953 
L 487.898961 -146.578497 
L 487.762772 -146.126041 
L 485.124979 -145.673585 
L 483.271695 -145.221129 
L 472.053545 -144.768673 
L 469.790209 -144.316217 
L 464.804893 -143.863761 
L 464.757429 -143.411305 
L 462.445864 -142.958849 
L 450.609459 -142.506393 
L 446.527356 -142.053937 
L 446.142958 -141.601481 
L 445.193544 -141.149025 
L 433.425803 -140.696569 
L 423.064712 -140.244113 
L 415.035475 -139.791657 
L 370.949791 -139.339201 
z
" style="stroke: #0000dd; stroke-opacity: 0.7"/>
    </defs>
    <g clip-path="url(#pcca68ee1f2)">
     <use xlink:href="#m70ffe54044" x="0" y="432" style="fill: #0000dd; fill-opacity: 0.7; stroke: #0000dd; stroke-opacity: 0.7"/>
    </g>
   </g>
   <g id="PolyCollection_5">
    <defs>
     <path id="m51a86d46b3" d="M 382.704389 -181.870065 
L 364.613281 -181.870065 
L 364.613281 -182.322521 
L 364.613281 -182.774977 
L 364.613281 -183.227433 
L 364.613281 -183.679889 
L 364.613281 -184.132345 
L 364.613281 -184.584801 
L 364.613281 -185.037257 
L 364.613281 -185.489713 
L 364.613281 -185.942169 
L 364.613281 -186.394625 
L 364.613281 -186.847081 
L 364.613281 -187.299537 
L 364.613281 -187.751993 
L 364.613281 -188.204449 
L 364.613281 -188.656905 
L 364.613281 -189.109361 
L 364.613281 -189.561817 
L 364.613281 -190.014273 
L 364.613281 -190.466729 
L 523.435536 -190.466729 
L 523.435536 -190.466729 
L 514.548156 -190.014273 
L 514.537554 -189.561817 
L 506.762573 -189.109361 
L 504.047492 -188.656905 
L 502.283399 -188.204449 
L 500.174861 -187.751993 
L 495.05151 -187.299537 
L 492.786843 -186.847081 
L 492.056415 -186.394625 
L 488.719635 -185.942169 
L 476.082885 -185.489713 
L 472.078014 -185.037257 
L 471.600852 -184.584801 
L 471.545811 -184.132345 
L 470.264139 -183.679889 
L 465.715393 -183.227433 
L 465.364393 -182.774977 
L 464.190938 -182.322521 
L 382.704389 -181.870065 
z
" style="stroke: #0082dd; stroke-opacity: 0.7"/>
    </defs>
    <g clip-path="url(#pcca68ee1f2)">
     <use xlink:href="#m51a86d46b3" x="0" y="432" style="fill: #0082dd; fill-opacity: 0.7; stroke: #0082dd; stroke-opacity: 0.7"/>
    </g>
   </g>
   <g id="PolyCollection_6">
    <defs>
     <path id="m2aadb516cf" d="M 286.945915 -195.443745 
L 364.613281 -195.443745 
L 364.613281 -195.896201 
L 364.613281 -196.348657 
L 364.613281 -196.801113 
L 364.613281 -197.253569 
L 364.613281 -197.706025 
L 364.613281 -198.158481 
L 364.613281 -198.610937 
L 364.613281 -199.063393 
L 364.613281 -199.515849 
L 364.613281 -199.968305 
L 364.613281 -200.420761 
L 364.613281 -200.873217 
L 364.613281 -201.325673 
L 364.613281 -201.778129 
L 364.613281 -202.230585 
L 364.613281 -202.683041 
L 364.613281 -203.135497 
L 364.613281 -203.587953 
L 364.613281 -204.040409 
L 364.613281 -204.492865 
L 364.613281 -204.945321 
L 364.613281 -205.397777 
L 364.613281 -205.850233 
L 364.613281 -206.302689 
L 364.613281 -206.755145 
L 364.613281 -207.207601 
L 364.613281 -207.660057 
L 364.613281 -208.112513 
L 364.613281 -208.564969 
L 364.613281 -209.017425 
L 364.613281 -209.469881 
L 364.613281 -209.922337 
L 364.613281 -210.374793 
L 364.613281 -210.827249 
L 364.613281 -211.279705 
L 364.613281 -211.732161 
L 364.613281 -212.184617 
L 364.613281 -212.637073 
L 364.613281 -213.089529 
L 364.613281 -213.541985 
L 364.613281 -213.994441 
L 364.613281 -214.446897 
L 364.613281 -214.899353 
L 364.613281 -215.351809 
L 364.613281 -215.804265 
L 364.613281 -216.256721 
L 364.613281 -216.709177 
L 364.613281 -217.161633 
L 364.613281 -217.614089 
L 364.613281 -218.066545 
L 364.613281 -218.519001 
L 364.613281 -218.971457 
L 364.613281 -219.423913 
L 364.613281 -219.876369 
L 364.613281 -220.328825 
L 364.613281 -220.781281 
L 364.613281 -221.233737 
L 364.613281 -221.686193 
L 364.613281 -222.138649 
L 364.613281 -222.591105 
L 364.613281 -223.043561 
L 364.613281 -223.496017 
L 364.613281 -223.948473 
L 364.613281 -224.400929 
L 364.613281 -224.853385 
L 364.613281 -225.305841 
L 364.613281 -225.758297 
L 364.613281 -226.210753 
L 364.613281 -226.663209 
L 364.613281 -227.115665 
L 364.613281 -227.568121 
L 364.613281 -228.020577 
L 364.613281 -228.473033 
L 364.613281 -228.925489 
L 364.613281 -229.377945 
L 364.613281 -229.830401 
L 364.613281 -230.282857 
L 364.613281 -230.735313 
L 364.613281 -231.187769 
L 364.613281 -231.640225 
L 576.908452 -231.640225 
L 576.908452 -231.640225 
L 576.272668 -231.187769 
L 576.218931 -230.735313 
L 576.025016 -230.282857 
L 575.915316 -229.830401 
L 575.361916 -229.377945 
L 575.2892 -228.925489 
L 574.295133 -228.473033 
L 573.964216 -228.020577 
L 573.846332 -227.568121 
L 571.896319 -227.115665 
L 570.829149 -226.663209 
L 567.595195 -226.210753 
L 566.883523 -225.758297 
L 565.912159 -225.305841 
L 565.434663 -224.853385 
L 564.176481 -224.400929 
L 562.910095 -223.948473 
L 559.973747 -223.496017 
L 559.417802 -223.043561 
L 558.237956 -222.591105 
L 557.117248 -222.138649 
L 556.399995 -221.686193 
L 556.028027 -221.233737 
L 555.962804 -220.781281 
L 555.583361 -220.328825 
L 555.544486 -219.876369 
L 554.981748 -219.423913 
L 554.698185 -218.971457 
L 554.655775 -218.519001 
L 554.641476 -218.066545 
L 554.405417 -217.614089 
L 553.512426 -217.161633 
L 548.933113 -216.709177 
L 548.811102 -216.256721 
L 548.706425 -215.804265 
L 548.616691 -215.351809 
L 548.607801 -214.899353 
L 548.303312 -214.446897 
L 548.275339 -213.994441 
L 548.162098 -213.541985 
L 543.553081 -213.089529 
L 541.829976 -212.637073 
L 540.32111 -212.184617 
L 539.808784 -211.732161 
L 539.798489 -211.279705 
L 539.119665 -210.827249 
L 534.794289 -210.374793 
L 534.569357 -209.922337 
L 534.147051 -209.469881 
L 532.479293 -209.017425 
L 531.243065 -208.564969 
L 530.450213 -208.112513 
L 526.210084 -207.660057 
L 522.422352 -207.207601 
L 521.829971 -206.755145 
L 521.200166 -206.302689 
L 516.789722 -205.850233 
L 510.790232 -205.397777 
L 510.591125 -204.945321 
L 501.245324 -204.492865 
L 490.822096 -204.040409 
L 490.209138 -203.587953 
L 476.857799 -203.135497 
L 475.035252 -202.683041 
L 471.49701 -202.230585 
L 467.295947 -201.778129 
L 452.61796 -201.325673 
L 447.962626 -200.873217 
L 447.062251 -200.420761 
L 438.702144 -199.968305 
L 437.593285 -199.515849 
L 437.390897 -199.063393 
L 429.412968 -198.610937 
L 418.147669 -198.158481 
L 400.899071 -197.706025 
L 397.605184 -197.253569 
L 372.861226 -196.801113 
L 333.730588 -196.348657 
L 321.386862 -195.896201 
L 286.945915 -195.443745 
z
" style="stroke: #00a4bb; stroke-opacity: 0.7"/>
    </defs>
    <g clip-path="url(#pcca68ee1f2)">
     <use xlink:href="#m2aadb516cf" x="0" y="432" style="fill: #00a4bb; fill-opacity: 0.7; stroke: #00a4bb; stroke-opacity: 0.7"/>
    </g>
   </g>
   <g id="PolyCollection_7">
    <defs>
     <path id="me9b3340c75" d="M 291.216667 -236.617241 
L 364.613281 -236.617241 
L 364.613281 -237.069697 
L 364.613281 -237.522153 
L 364.613281 -237.974609 
L 364.613281 -238.427065 
L 364.613281 -238.879521 
L 364.613281 -239.331977 
L 364.613281 -239.784433 
L 364.613281 -240.236889 
L 364.613281 -240.689345 
L 364.613281 -241.141801 
L 364.613281 -241.594257 
L 364.613281 -242.046713 
L 364.613281 -242.499169 
L 364.613281 -242.951625 
L 364.613281 -243.404081 
L 364.613281 -243.856537 
L 364.613281 -244.308993 
L 364.613281 -244.761449 
L 364.613281 -245.213905 
L 364.613281 -245.666361 
L 364.613281 -246.118817 
L 364.613281 -246.571273 
L 364.613281 -247.023729 
L 364.613281 -247.476185 
L 364.613281 -247.928641 
L 364.613281 -248.381097 
L 364.613281 -248.833553 
L 364.613281 -249.286009 
L 364.613281 -249.738465 
L 364.613281 -250.190921 
L 364.613281 -250.643377 
L 364.613281 -251.095833 
L 364.613281 -251.548289 
L 364.613281 -252.000745 
L 364.613281 -252.453201 
L 364.613281 -252.905657 
L 364.613281 -253.358113 
L 364.613281 -253.810569 
L 364.613281 -254.263025 
L 364.613281 -254.715481 
L 364.613281 -255.167937 
L 364.613281 -255.620393 
L 364.613281 -256.072849 
L 364.613281 -256.525305 
L 364.613281 -256.977761 
L 364.613281 -257.430217 
L 364.613281 -257.882673 
L 364.613281 -258.335129 
L 364.613281 -258.787585 
L 364.613281 -259.240041 
L 364.613281 -259.692497 
L 364.613281 -260.144953 
L 364.613281 -260.597408 
L 364.613281 -261.049864 
L 364.613281 -261.50232 
L 364.613281 -261.954776 
L 364.613281 -262.407232 
L 364.613281 -262.859688 
L 364.613281 -263.312144 
L 364.613281 -263.7646 
L 364.613281 -264.217056 
L 364.613281 -264.669512 
L 587.553883 -264.669512 
L 587.553883 -264.669512 
L 587.445152 -264.217056 
L 587.222952 -263.7646 
L 587.199619 -263.312144 
L 587.159554 -262.859688 
L 586.930442 -262.407232 
L 586.74723 -261.954776 
L 586.000885 -261.50232 
L 585.946184 -261.049864 
L 585.941896 -260.597408 
L 585.891462 -260.144953 
L 585.78611 -259.692497 
L 579.026405 -259.240041 
L 578.747745 -258.787585 
L 578.507967 -258.335129 
L 578.265368 -257.882673 
L 578.181111 -257.430217 
L 578.149268 -256.977761 
L 577.765269 -256.525305 
L 577.64282 -256.072849 
L 574.505414 -255.620393 
L 569.285645 -255.167937 
L 568.75903 -254.715481 
L 568.651999 -254.263025 
L 567.957948 -253.810569 
L 567.287309 -253.358113 
L 566.984912 -252.905657 
L 565.992196 -252.453201 
L 563.891045 -252.000745 
L 562.726938 -251.548289 
L 560.957231 -251.095833 
L 557.200826 -250.643377 
L 556.612769 -250.190921 
L 555.931594 -249.738465 
L 555.92744 -249.286009 
L 544.010008 -248.833553 
L 535.232422 -248.381097 
L 527.833796 -247.928641 
L 527.771759 -247.476185 
L 526.663395 -247.023729 
L 514.998939 -246.571273 
L 513.663347 -246.118817 
L 509.55877 -245.666361 
L 491.648753 -245.213905 
L 479.202319 -244.761449 
L 463.954787 -244.308993 
L 461.868806 -243.856537 
L 458.966158 -243.404081 
L 423.416294 -242.951625 
L 417.029018 -242.499169 
L 411.548142 -242.046713 
L 409.552963 -241.594257 
L 409.075872 -241.141801 
L 379.656026 -240.689345 
L 368.55628 -240.236889 
L 367.135372 -239.784433 
L 358.590229 -239.331977 
L 353.345436 -238.879521 
L 351.855636 -238.427065 
L 332.538363 -237.974609 
L 316.859288 -237.522153 
L 309.480973 -237.069697 
L 291.216667 -236.617241 
z
" style="stroke: #00aa88; stroke-opacity: 0.7"/>
    </defs>
    <g clip-path="url(#pcca68ee1f2)">
     <use xlink:href="#me9b3340c75" x="0" y="432" style="fill: #00aa88; fill-opacity: 0.7; stroke: #00aa88; stroke-opacity: 0.7"/>
    </g>
   </g>
   <g id="PolyCollection_8">
    <defs>
     <path id="m229f2ccbbb" d="M 479.394216 -269.646528 
L 364.613281 -269.646528 
L 364.613281 -270.098984 
L 364.613281 -270.55144 
L 364.613281 -271.003896 
L 364.613281 -271.456352 
L 364.613281 -271.908808 
L 364.613281 -272.361264 
L 364.613281 -272.81372 
L 364.613281 -273.266176 
L 364.613281 -273.718632 
L 364.613281 -274.171088 
L 364.613281 -274.623544 
L 364.613281 -275.076 
L 364.613281 -275.528456 
L 364.613281 -275.980912 
L 364.613281 -276.433368 
L 364.613281 -276.885824 
L 364.613281 -277.33828 
L 364.613281 -277.790736 
L 364.613281 -278.243192 
L 364.613281 -278.695648 
L 364.613281 -279.148104 
L 364.613281 -279.60056 
L 364.613281 -280.053016 
L 364.613281 -280.505472 
L 364.613281 -280.957928 
L 364.613281 -281.410384 
L 364.613281 -281.86284 
L 364.613281 -282.315296 
L 364.613281 -282.767752 
L 364.613281 -283.220208 
L 364.613281 -283.672664 
L 364.613281 -284.12512 
L 364.613281 -284.577576 
L 364.613281 -285.030032 
L 364.613281 -285.482488 
L 364.613281 -285.934944 
L 364.613281 -286.3874 
L 364.613281 -286.839856 
L 364.613281 -287.292312 
L 364.613281 -287.744768 
L 364.613281 -288.197224 
L 364.613281 -288.64968 
L 364.613281 -289.102136 
L 364.613281 -289.554592 
L 364.613281 -290.007048 
L 364.613281 -290.459504 
L 364.613281 -290.91196 
L 364.613281 -291.364416 
L 364.613281 -291.816872 
L 364.613281 -292.269328 
L 364.613281 -292.721784 
L 364.613281 -293.17424 
L 364.613281 -293.626696 
L 364.613281 -294.079152 
L 364.613281 -294.531608 
L 364.613281 -294.984064 
L 364.613281 -295.43652 
L 364.613281 -295.888976 
L 364.613281 -296.341432 
L 364.613281 -296.793888 
L 364.613281 -297.246344 
L 364.613281 -297.6988 
L 364.613281 -298.151256 
L 364.613281 -298.603712 
L 364.613281 -299.056168 
L 364.613281 -299.508624 
L 364.613281 -299.96108 
L 364.613281 -300.413536 
L 364.613281 -300.865992 
L 364.613281 -301.318448 
L 364.613281 -301.770904 
L 364.613281 -302.22336 
L 364.613281 -302.675816 
L 364.613281 -303.128272 
L 364.613281 -303.580728 
L 364.613281 -304.033184 
L 364.613281 -304.48564 
L 364.613281 -304.938096 
L 364.613281 -305.390552 
L 364.613281 -305.843008 
L 364.613281 -306.295464 
L 364.613281 -306.74792 
L 364.613281 -307.200376 
L 364.613281 -307.652832 
L 364.613281 -308.105288 
L 364.613281 -308.557744 
L 364.613281 -309.0102 
L 364.613281 -309.462656 
L 364.613281 -309.915112 
L 364.613281 -310.367568 
L 364.613281 -310.820024 
L 364.613281 -311.27248 
L 364.613281 -311.724936 
L 364.613281 -312.177392 
L 364.613281 -312.629848 
L 364.613281 -313.082304 
L 364.613281 -313.53476 
L 364.613281 -313.987216 
L 364.613281 -314.439672 
L 364.613281 -314.892128 
L 364.613281 -315.344584 
L 364.613281 -315.79704 
L 364.613281 -316.249496 
L 364.613281 -316.701952 
L 364.613281 -317.154408 
L 364.613281 -317.606864 
L 364.613281 -318.05932 
L 364.613281 -318.511776 
L 364.613281 -318.964232 
L 364.613281 -319.416688 
L 364.613281 -319.869144 
L 364.613281 -320.3216 
L 364.613281 -320.774056 
L 364.613281 -321.226512 
L 364.613281 -321.678968 
L 364.613281 -322.131424 
L 364.613281 -322.58388 
L 364.613281 -323.036336 
L 364.613281 -323.488792 
L 364.613281 -323.941248 
L 364.613281 -324.393704 
L 364.613281 -324.84616 
L 364.613281 -325.298616 
L 364.613281 -325.751072 
L 364.613281 -326.203528 
L 364.613281 -326.655984 
L 364.613281 -327.10844 
L 364.613281 -327.560896 
L 364.613281 -328.013352 
L 364.613281 -328.465808 
L 364.613281 -328.918264 
L 364.613281 -329.37072 
L 364.613281 -329.823176 
L 364.613281 -330.275632 
L 364.613281 -330.728088 
L 364.613281 -331.180544 
L 364.613281 -331.633 
L 364.613281 -332.085456 
L 364.613281 -332.537912 
L 364.613281 -332.990368 
L 364.613281 -333.442824 
L 364.613281 -333.89528 
L 364.613281 -334.347736 
L 364.613281 -334.800192 
L 364.613281 -335.252648 
L 364.613281 -335.705104 
L 364.613281 -336.15756 
L 364.613281 -336.610016 
L 364.613281 -337.062472 
L 364.613281 -337.514928 
L 364.613281 -337.967384 
L 364.613281 -338.41984 
L 364.613281 -338.872296 
L 364.613281 -339.324752 
L 364.613281 -339.777208 
L 364.613281 -340.229664 
L 364.613281 -340.68212 
L 364.613281 -341.134576 
L 364.613281 -341.587032 
L 364.613281 -342.039488 
L 364.613281 -342.491944 
L 364.613281 -342.9444 
L 364.613281 -343.396856 
L 364.613281 -343.849312 
L 364.613281 -344.301768 
L 364.613281 -344.754224 
L 364.613281 -345.20668 
L 364.613281 -345.659136 
L 364.613281 -346.111592 
L 364.613281 -346.564048 
L 364.613281 -347.016504 
L 364.613281 -347.46896 
L 364.613281 -347.921416 
L 364.613281 -348.373872 
L 364.613281 -348.826328 
L 364.613281 -349.278784 
L 364.613281 -349.73124 
L 364.613281 -350.183696 
L 364.613281 -350.636152 
L 364.613281 -351.088608 
L 364.613281 -351.541064 
L 364.613281 -351.99352 
L 364.613281 -352.445976 
L 364.613281 -352.898432 
L 364.613281 -353.350888 
L 364.613281 -353.803344 
L 364.613281 -354.2558 
L 364.613281 -354.708256 
L 364.613281 -355.160712 
L 364.613281 -355.613168 
L 364.613281 -356.065624 
L 364.613281 -356.51808 
L 364.613281 -356.970536 
L 364.613281 -357.422992 
L 364.613281 -357.875448 
L 364.613281 -358.327904 
L 364.613281 -358.78036 
L 364.613281 -359.232816 
L 364.613281 -359.685272 
L 364.613281 -360.137728 
L 605.480744 -360.137728 
L 605.480744 -360.137728 
L 605.156069 -359.685272 
L 604.462694 -359.232816 
L 602.817213 -358.78036 
L 602.381402 -358.327904 
L 601.374527 -357.875448 
L 601.226618 -357.422992 
L 600.927927 -356.970536 
L 600.892581 -356.51808 
L 600.093991 -356.065624 
L 599.497186 -355.613168 
L 598.497314 -355.160712 
L 598.136864 -354.708256 
L 598.060053 -354.2558 
L 598.00846 -353.803344 
L 596.574682 -353.350888 
L 596.413702 -352.898432 
L 596.062038 -352.445976 
L 595.526215 -351.99352 
L 595.060499 -351.541064 
L 595.046995 -351.088608 
L 594.836535 -350.636152 
L 594.574204 -350.183696 
L 594.398718 -349.73124 
L 594.172741 -349.278784 
L 593.981616 -348.826328 
L 593.63662 -348.373872 
L 593.413626 -347.921416 
L 592.655365 -347.46896 
L 592.318987 -347.016504 
L 592.014569 -346.564048 
L 591.694347 -346.111592 
L 591.123325 -345.659136 
L 591.106844 -345.20668 
L 590.43046 -344.754224 
L 590.3533 -344.301768 
L 590.306944 -343.849312 
L 590.267872 -343.396856 
L 589.763593 -342.9444 
L 589.750814 -342.491944 
L 589.607086 -342.039488 
L 589.424341 -341.587032 
L 589.284917 -341.134576 
L 588.681366 -340.68212 
L 587.76708 -340.229664 
L 587.570366 -339.777208 
L 586.992909 -339.324752 
L 586.891747 -338.872296 
L 586.803847 -338.41984 
L 586.482591 -337.967384 
L 586.479741 -337.514928 
L 586.315903 -337.062472 
L 586.256268 -336.610016 
L 586.225156 -336.15756 
L 586.17598 -335.705104 
L 586.046511 -335.252648 
L 585.974633 -334.800192 
L 585.885909 -334.347736 
L 585.874437 -333.89528 
L 585.623883 -333.442824 
L 585.458164 -332.990368 
L 585.285768 -332.537912 
L 585.033069 -332.085456 
L 584.919557 -331.633 
L 584.908818 -331.180544 
L 584.723471 -330.728088 
L 584.68821 -330.275632 
L 584.659081 -329.823176 
L 583.29747 -329.37072 
L 582.881862 -328.918264 
L 582.681418 -328.465808 
L 582.627522 -328.013352 
L 581.936636 -327.560896 
L 581.55865 -327.10844 
L 581.52528 -326.655984 
L 581.501747 -326.203528 
L 581.004662 -325.751072 
L 580.979052 -325.298616 
L 580.976491 -324.84616 
L 580.820456 -324.393704 
L 579.994818 -323.941248 
L 579.470439 -323.488792 
L 579.276531 -323.036336 
L 579.045198 -322.58388 
L 579.042013 -322.131424 
L 578.976377 -321.678968 
L 578.792872 -321.226512 
L 578.506774 -320.774056 
L 577.604786 -320.3216 
L 577.110714 -319.869144 
L 577.027037 -319.416688 
L 576.559818 -318.964232 
L 576.490583 -318.511776 
L 576.449236 -318.05932 
L 576.108514 -317.606864 
L 576.053484 -317.154408 
L 575.6523 -316.701952 
L 575.407585 -316.249496 
L 575.316632 -315.79704 
L 575.23243 -315.344584 
L 574.761956 -314.892128 
L 574.704953 -314.439672 
L 574.688205 -313.987216 
L 574.119234 -313.53476 
L 573.878707 -313.082304 
L 573.853714 -312.629848 
L 573.380098 -312.177392 
L 573.022462 -311.724936 
L 572.440651 -311.27248 
L 572.030269 -310.820024 
L 571.849937 -310.367568 
L 571.293656 -309.915112 
L 571.028035 -309.462656 
L 570.547476 -309.0102 
L 570.004578 -308.557744 
L 569.829833 -308.105288 
L 569.756462 -307.652832 
L 569.627459 -307.200376 
L 569.328478 -306.74792 
L 569.24705 -306.295464 
L 568.900952 -305.843008 
L 568.362261 -305.390552 
L 568.234798 -304.938096 
L 568.155843 -304.48564 
L 568.012265 -304.033184 
L 567.424171 -303.580728 
L 567.148783 -303.128272 
L 566.943772 -302.675816 
L 566.802419 -302.22336 
L 565.69566 -301.770904 
L 565.344011 -301.318448 
L 564.634081 -300.865992 
L 564.455613 -300.413536 
L 563.707315 -299.96108 
L 563.45946 -299.508624 
L 563.400373 -299.056168 
L 563.207158 -298.603712 
L 562.868595 -298.151256 
L 562.660802 -297.6988 
L 562.593303 -297.246344 
L 562.337132 -296.793888 
L 562.261291 -296.341432 
L 561.153592 -295.888976 
L 561.13671 -295.43652 
L 561.13399 -294.984064 
L 560.266568 -294.531608 
L 560.20586 -294.079152 
L 559.623702 -293.626696 
L 558.681517 -293.17424 
L 558.413336 -292.721784 
L 558.367316 -292.269328 
L 557.262249 -291.816872 
L 555.069932 -291.364416 
L 555.025225 -290.91196 
L 554.991563 -290.459504 
L 554.900551 -290.007048 
L 554.312284 -289.554592 
L 553.541182 -289.102136 
L 552.739106 -288.64968 
L 552.473012 -288.197224 
L 552.297923 -287.744768 
L 551.413531 -287.292312 
L 551.204448 -286.839856 
L 550.371082 -286.3874 
L 550.215232 -285.934944 
L 549.199585 -285.482488 
L 549.100627 -285.030032 
L 548.742749 -284.577576 
L 548.572336 -284.12512 
L 548.349973 -283.672664 
L 547.376052 -283.220208 
L 546.936555 -282.767752 
L 546.778581 -282.315296 
L 546.567784 -281.86284 
L 545.411297 -281.410384 
L 544.965867 -280.957928 
L 544.355231 -280.505472 
L 544.022042 -280.053016 
L 542.164651 -279.60056 
L 541.341833 -279.148104 
L 541.234657 -278.695648 
L 540.932471 -278.243192 
L 540.006981 -277.790736 
L 539.356047 -277.33828 
L 536.099397 -276.885824 
L 532.464836 -276.433368 
L 531.681001 -275.980912 
L 531.618522 -275.528456 
L 530.578926 -275.076 
L 528.474784 -274.623544 
L 527.28253 -274.171088 
L 526.130154 -273.718632 
L 523.250906 -273.266176 
L 520.669586 -272.81372 
L 511.72541 -272.361264 
L 509.067652 -271.908808 
L 502.384469 -271.456352 
L 496.911284 -271.003896 
L 494.744169 -270.55144 
L 493.993738 -270.098984 
L 479.394216 -269.646528 
z
" style="stroke: #00a400; stroke-opacity: 0.7"/>
    </defs>
    <g clip-path="url(#pcca68ee1f2)">
     <use xlink:href="#m229f2ccbbb" x="0" y="432" style="fill: #00a400; fill-opacity: 0.7; stroke: #00a400; stroke-opacity: 0.7"/>
    </g>
   </g>
   <g id="PolyCollection_9">
    <defs>
     <path id="ma74154609f" d="M 616.393437 -365.114744 
L 364.613281 -365.114744 
L 364.613281 -365.5672 
L 364.613281 -366.019656 
L 364.613281 -366.472112 
L 364.613281 -366.924568 
L 364.613281 -367.377024 
L 364.613281 -367.82948 
L 364.613281 -368.281936 
L 364.613281 -368.734392 
L 652.369967 -368.734392 
L 652.369967 -368.734392 
L 651.25996 -368.281936 
L 647.852052 -367.82948 
L 637.385175 -367.377024 
L 636.920185 -366.924568 
L 634.019094 -366.472112 
L 623.370909 -366.019656 
L 620.739217 -365.5672 
L 616.393437 -365.114744 
z
" style="stroke: #00d200; stroke-opacity: 0.7"/>
    </defs>
    <g clip-path="url(#pcca68ee1f2)">
     <use xlink:href="#ma74154609f" x="0" y="432" style="fill: #00d200; fill-opacity: 0.7; stroke: #00d200; stroke-opacity: 0.7"/>
    </g>
   </g>
   <g id="PolyCollection_10">
    <defs>
     <path id="m8356c60a48" d="M 434.759741 -373.711408 
L 364.613281 -373.711408 
L 364.613281 -374.163864 
L 364.613281 -374.61632 
L 364.613281 -375.068776 
L 364.613281 -375.521232 
L 364.613281 -375.973688 
L 364.613281 -376.426144 
L 491.625067 -376.426144 
L 491.625067 -376.426144 
L 486.595062 -375.973688 
L 485.170581 -375.521232 
L 484.891334 -375.068776 
L 476.446723 -374.61632 
L 446.642462 -374.163864 
L 434.759741 -373.711408 
z
" style="stroke: #00ff00; stroke-opacity: 0.7"/>
    </defs>
    <g clip-path="url(#pcca68ee1f2)">
     <use xlink:href="#m8356c60a48" x="0" y="432" style="fill: #00ff00; fill-opacity: 0.7; stroke: #00ff00; stroke-opacity: 0.7"/>
    </g>
   </g>
   <g id="PolyCollection_11">
    <defs>
     <path id="m223fac0870" d="M 584.899195 -381.40316 
L 364.613281 -381.40316 
L 364.613281 -381.855616 
L 364.613281 -382.308072 
L 364.613281 -382.760528 
L 364.613281 -383.212984 
L 364.613281 -383.66544 
L 364.613281 -384.117896 
L 364.613281 -384.570352 
L 638.363925 -384.570352 
L 638.363925 -384.570352 
L 636.964076 -384.117896 
L 626.506057 -383.66544 
L 620.732339 -383.212984 
L 617.579697 -382.760528 
L 599.130041 -382.308072 
L 593.085598 -381.855616 
L 584.899195 -381.40316 
z
" style="stroke: #ccf900; stroke-opacity: 0.7"/>
    </defs>
    <g clip-path="url(#pcca68ee1f2)">
     <use xlink:href="#m223fac0870" x="0" y="432" style="fill: #ccf900; fill-opacity: 0.7; stroke: #ccf900; stroke-opacity: 0.7"/>
    </g>
   </g>
   <g id="PolyCollection_12">
    <defs>
     <path id="m6220a47987" d="M 404.526068 -389.547368 
L 364.613281 -389.547368 
L 364.613281 -389.999824 
L 364.613281 -390.45228 
L 364.613281 -390.904736 
L 364.613281 -391.357192 
L 364.613281 -391.809648 
L 364.613281 -392.262104 
L 364.613281 -392.71456 
L 526.835074 -392.71456 
L 526.835074 -392.71456 
L 513.339065 -392.262104 
L 509.632434 -391.809648 
L 487.687584 -391.357192 
L 481.28023 -390.904736 
L 479.81211 -390.45228 
L 451.912182 -389.999824 
L 404.526068 -389.547368 
z
" style="stroke: #f9d700; stroke-opacity: 0.7"/>
    </defs>
    <g clip-path="url(#pcca68ee1f2)">
     <use xlink:href="#m6220a47987" x="0" y="432" style="fill: #f9d700; fill-opacity: 0.7; stroke: #f9d700; stroke-opacity: 0.7"/>
    </g>
   </g>
   <g id="PolyCollection_13">
    <defs>
     <path id="mc6b72dfadd" d="M 432.890252 -397.691576 
L 364.613281 -397.691576 
L 364.613281 -398.144032 
L 364.613281 -398.596488 
L 364.613281 -399.048944 
L 364.613281 -399.5014 
L 364.613281 -399.953856 
L 364.613281 -400.406312 
L 364.613281 -400.858768 
L 364.613281 -401.311224 
L 579.657291 -401.311224 
L 579.657291 -401.311224 
L 579.541264 -400.858768 
L 579.162091 -400.406312 
L 567.45339 -399.953856 
L 535.215395 -399.5014 
L 519.898438 -399.048944 
L 511.723712 -398.596488 
L 510.225299 -398.144032 
L 432.890252 -397.691576 
z
" style="stroke: #ff9900; stroke-opacity: 0.7"/>
    </defs>
    <g clip-path="url(#pcca68ee1f2)">
     <use xlink:href="#mc6b72dfadd" x="0" y="432" style="fill: #ff9900; fill-opacity: 0.7; stroke: #ff9900; stroke-opacity: 0.7"/>
    </g>
   </g>
   <g id="PolyCollection_14">
    <defs>
     <path id="me9a67262bb" d="M 655.218994 -406.28824 
L 364.613281 -406.28824 
L 364.613281 -406.740695 
L 364.613281 -407.193151 
L 678.209783 -407.193151 
L 678.209783 -407.193151 
L 677.76315 -406.740695 
L 655.218994 -406.28824 
z
" style="stroke: #f40000; stroke-opacity: 0.7"/>
    </defs>
    <g clip-path="url(#pcca68ee1f2)">
     <use xlink:href="#me9a67262bb" x="0" y="432" style="fill: #f40000; fill-opacity: 0.7; stroke: #f40000; stroke-opacity: 0.7"/>
    </g>
   </g>
   <g id="PolyCollection_15">
    <defs>
     <path id="mbb23934750" d="M 539.680326 -412.170167 
L 364.613281 -412.170167 
L 364.613281 -412.622623 
L 542.620647 -412.622623 
L 542.620647 -412.622623 
L 539.680326 -412.170167 
z
" style="stroke: #d20000; stroke-opacity: 0.7"/>
    </defs>
    <g clip-path="url(#pcca68ee1f2)">
     <use xlink:href="#mbb23934750" x="0" y="432" style="fill: #d20000; fill-opacity: 0.7; stroke: #d20000; stroke-opacity: 0.7"/>
    </g>
   </g>
   <g id="matplotlib.axis_1">
    <g id="xtick_1">
     <g id="line2d_1">
      <defs>
       <path id="m27f3ab4c35" d="M 0 0 
L 0 3.5 
" style="stroke: #000000; stroke-width: 0.8"/>
      </defs>
      <g>
       <use xlink:href="#m27f3ab4c35" x="27.978125" y="390.84375" style="stroke: #000000; stroke-width: 0.8"/>
      </g>
     </g>
     <g id="text_1">
      <!-- −1.0 -->
      <g transform="translate(15.836719 405.442187) scale(0.1 -0.1)">
       <defs>
        <path id="DejaVuSans-2212" d="M 678 2272 
L 4684 2272 
L 4684 1741 
L 678 1741 
L 678 2272 
z
" transform="scale(0.015625)"/>
        <path id="DejaVuSans-31" d="M 794 531 
L 1825 531 
L 1825 4091 
L 703 3866 
L 703 4441 
L 1819 4666 
L 2450 4666 
L 2450 531 
L 3481 531 
L 3481 0 
L 794 0 
L 794 531 
z
" transform="scale(0.015625)"/>
        <path id="DejaVuSans-2e" d="M 684 794 
L 1344 794 
L 1344 0 
L 684 0 
L 684 794 
z
" transform="scale(0.015625)"/>
        <path id="DejaVuSans-30" d="M 2034 4250 
Q 1547 4250 1301 3770 
Q 1056 3291 1056 2328 
Q 1056 1369 1301 889 
Q 1547 409 2034 409 
Q 2525 409 2770 889 
Q 3016 1369 3016 2328 
Q 3016 3291 2770 3770 
Q 2525 4250 2034 4250 
z
M 2034 4750 
Q 2819 4750 3233 4129 
Q 3647 3509 3647 2328 
Q 3647 1150 3233 529 
Q 2819 -91 2034 -91 
Q 1250 -91 836 529 
Q 422 1150 422 2328 
Q 422 3509 836 4129 
Q 1250 4750 2034 4750 
z
" transform="scale(0.015625)"/>
       </defs>
       <use xlink:href="#DejaVuSans-2212"/>
       <use xlink:href="#DejaVuSans-31" x="83.789062"/>
       <use xlink:href="#DejaVuSans-2e" x="147.412109"/>
       <use xlink:href="#DejaVuSans-30" x="179.199219"/>
      </g>
     </g>
    </g>
    <g id="xtick_2">
     <g id="line2d_2">
      <g>
       <use xlink:href="#m27f3ab4c35" x="95.305156" y="390.84375" style="stroke: #000000; stroke-width: 0.8"/>
      </g>
     </g>
     <g id="text_2">
      <!-- −0.8 -->
      <g transform="translate(83.16375 405.442187) scale(0.1 -0.1)">
       <defs>
        <path id="DejaVuSans-38" d="M 2034 2216 
Q 1584 2216 1326 1975 
Q 1069 1734 1069 1313 
Q 1069 891 1326 650 
Q 1584 409 2034 409 
Q 2484 409 2743 651 
Q 3003 894 3003 1313 
Q 3003 1734 2745 1975 
Q 2488 2216 2034 2216 
z
M 1403 2484 
Q 997 2584 770 2862 
Q 544 3141 544 3541 
Q 544 4100 942 4425 
Q 1341 4750 2034 4750 
Q 2731 4750 3128 4425 
Q 3525 4100 3525 3541 
Q 3525 3141 3298 2862 
Q 3072 2584 2669 2484 
Q 3125 2378 3379 2068 
Q 3634 1759 3634 1313 
Q 3634 634 3220 271 
Q 2806 -91 2034 -91 
Q 1263 -91 848 271 
Q 434 634 434 1313 
Q 434 1759 690 2068 
Q 947 2378 1403 2484 
z
M 1172 3481 
Q 1172 3119 1398 2916 
Q 1625 2713 2034 2713 
Q 2441 2713 2670 2916 
Q 2900 3119 2900 3481 
Q 2900 3844 2670 4047 
Q 2441 4250 2034 4250 
Q 1625 4250 1398 4047 
Q 1172 3844 1172 3481 
z
" transform="scale(0.015625)"/>
       </defs>
       <use xlink:href="#DejaVuSans-2212"/>
       <use xlink:href="#DejaVuSans-30" x="83.789062"/>
       <use xlink:href="#DejaVuSans-2e" x="147.412109"/>
       <use xlink:href="#DejaVuSans-38" x="179.199219"/>
      </g>
     </g>
    </g>
    <g id="xtick_3">
     <g id="line2d_3">
      <g>
       <use xlink:href="#m27f3ab4c35" x="162.632188" y="390.84375" style="stroke: #000000; stroke-width: 0.8"/>
      </g>
     </g>
     <g id="text_3">
      <!-- −0.6 -->
      <g transform="translate(150.490781 405.442187) scale(0.1 -0.1)">
       <defs>
        <path id="DejaVuSans-36" d="M 2113 2584 
Q 1688 2584 1439 2293 
Q 1191 2003 1191 1497 
Q 1191 994 1439 701 
Q 1688 409 2113 409 
Q 2538 409 2786 701 
Q 3034 994 3034 1497 
Q 3034 2003 2786 2293 
Q 2538 2584 2113 2584 
z
M 3366 4563 
L 3366 3988 
Q 3128 4100 2886 4159 
Q 2644 4219 2406 4219 
Q 1781 4219 1451 3797 
Q 1122 3375 1075 2522 
Q 1259 2794 1537 2939 
Q 1816 3084 2150 3084 
Q 2853 3084 3261 2657 
Q 3669 2231 3669 1497 
Q 3669 778 3244 343 
Q 2819 -91 2113 -91 
Q 1303 -91 875 529 
Q 447 1150 447 2328 
Q 447 3434 972 4092 
Q 1497 4750 2381 4750 
Q 2619 4750 2861 4703 
Q 3103 4656 3366 4563 
z
" transform="scale(0.015625)"/>
       </defs>
       <use xlink:href="#DejaVuSans-2212"/>
       <use xlink:href="#DejaVuSans-30" x="83.789062"/>
       <use xlink:href="#DejaVuSans-2e" x="147.412109"/>
       <use xlink:href="#DejaVuSans-36" x="179.199219"/>
      </g>
     </g>
    </g>
    <g id="xtick_4">
     <g id="line2d_4">
      <g>
       <use xlink:href="#m27f3ab4c35" x="229.959219" y="390.84375" style="stroke: #000000; stroke-width: 0.8"/>
      </g>
     </g>
     <g id="text_4">
      <!-- −0.4 -->
      <g transform="translate(217.817813 405.442187) scale(0.1 -0.1)">
       <defs>
        <path id="DejaVuSans-34" d="M 2419 4116 
L 825 1625 
L 2419 1625 
L 2419 4116 
z
M 2253 4666 
L 3047 4666 
L 3047 1625 
L 3713 1625 
L 3713 1100 
L 3047 1100 
L 3047 0 
L 2419 0 
L 2419 1100 
L 313 1100 
L 313 1709 
L 2253 4666 
z
" transform="scale(0.015625)"/>
       </defs>
       <use xlink:href="#DejaVuSans-2212"/>
       <use xlink:href="#DejaVuSans-30" x="83.789062"/>
       <use xlink:href="#DejaVuSans-2e" x="147.412109"/>
       <use xlink:href="#DejaVuSans-34" x="179.199219"/>
      </g>
     </g>
    </g>
    <g id="xtick_5">
     <g id="line2d_5">
      <g>
       <use xlink:href="#m27f3ab4c35" x="297.28625" y="390.84375" style="stroke: #000000; stroke-width: 0.8"/>
      </g>
     </g>
     <g id="text_5">
      <!-- −0.2 -->
      <g transform="translate(285.144844 405.442187) scale(0.1 -0.1)">
       <defs>
        <path id="DejaVuSans-32" d="M 1228 531 
L 3431 531 
L 3431 0 
L 469 0 
L 469 531 
Q 828 903 1448 1529 
Q 2069 2156 2228 2338 
Q 2531 2678 2651 2914 
Q 2772 3150 2772 3378 
Q 2772 3750 2511 3984 
Q 2250 4219 1831 4219 
Q 1534 4219 1204 4116 
Q 875 4013 500 3803 
L 500 4441 
Q 881 4594 1212 4672 
Q 1544 4750 1819 4750 
Q 2544 4750 2975 4387 
Q 3406 4025 3406 3419 
Q 3406 3131 3298 2873 
Q 3191 2616 2906 2266 
Q 2828 2175 2409 1742 
Q 1991 1309 1228 531 
z
" transform="scale(0.015625)"/>
       </defs>
       <use xlink:href="#DejaVuSans-2212"/>
       <use xlink:href="#DejaVuSans-30" x="83.789062"/>
       <use xlink:href="#DejaVuSans-2e" x="147.412109"/>
       <use xlink:href="#DejaVuSans-32" x="179.199219"/>
      </g>
     </g>
    </g>
    <g id="xtick_6">
     <g id="line2d_6">
      <g>
       <use xlink:href="#m27f3ab4c35" x="364.613281" y="390.84375" style="stroke: #000000; stroke-width: 0.8"/>
      </g>
     </g>
     <g id="text_6">
      <!-- 0.0 -->
      <g transform="translate(356.661719 405.442187) scale(0.1 -0.1)">
       <use xlink:href="#DejaVuSans-30"/>
       <use xlink:href="#DejaVuSans-2e" x="63.623047"/>
       <use xlink:href="#DejaVuSans-30" x="95.410156"/>
      </g>
     </g>
    </g>
    <g id="xtick_7">
     <g id="line2d_7">
      <g>
       <use xlink:href="#m27f3ab4c35" x="431.940313" y="390.84375" style="stroke: #000000; stroke-width: 0.8"/>
      </g>
     </g>
     <g id="text_7">
      <!-- 0.2 -->
      <g transform="translate(423.98875 405.442187) scale(0.1 -0.1)">
       <use xlink:href="#DejaVuSans-30"/>
       <use xlink:href="#DejaVuSans-2e" x="63.623047"/>
       <use xlink:href="#DejaVuSans-32" x="95.410156"/>
      </g>
     </g>
    </g>
    <g id="xtick_8">
     <g id="line2d_8">
      <g>
       <use xlink:href="#m27f3ab4c35" x="499.267344" y="390.84375" style="stroke: #000000; stroke-width: 0.8"/>
      </g>
     </g>
     <g id="text_8">
      <!-- 0.4 -->
      <g transform="translate(491.315781 405.442187) scale(0.1 -0.1)">
       <use xlink:href="#DejaVuSans-30"/>
       <use xlink:href="#DejaVuSans-2e" x="63.623047"/>
       <use xlink:href="#DejaVuSans-34" x="95.410156"/>
      </g>
     </g>
    </g>
    <g id="xtick_9">
     <g id="line2d_9">
      <g>
       <use xlink:href="#m27f3ab4c35" x="566.594375" y="390.84375" style="stroke: #000000; stroke-width: 0.8"/>
      </g>
     </g>
     <g id="text_9">
      <!-- 0.6 -->
      <g transform="translate(558.642812 405.442187) scale(0.1 -0.1)">
       <use xlink:href="#DejaVuSans-30"/>
       <use xlink:href="#DejaVuSans-2e" x="63.623047"/>
       <use xlink:href="#DejaVuSans-36" x="95.410156"/>
      </g>
     </g>
    </g>
    <g id="xtick_10">
     <g id="line2d_10">
      <g>
       <use xlink:href="#m27f3ab4c35" x="633.921406" y="390.84375" style="stroke: #000000; stroke-width: 0.8"/>
      </g>
     </g>
     <g id="text_10">
      <!-- 0.8 -->
      <g transform="translate(625.969844 405.442187) scale(0.1 -0.1)">
       <use xlink:href="#DejaVuSans-30"/>
       <use xlink:href="#DejaVuSans-2e" x="63.623047"/>
       <use xlink:href="#DejaVuSans-38" x="95.410156"/>
      </g>
     </g>
    </g>
    <g id="xtick_11">
     <g id="line2d_11">
      <g>
       <use xlink:href="#m27f3ab4c35" x="701.248437" y="390.84375" style="stroke: #000000; stroke-width: 0.8"/>
      </g>
     </g>
     <g id="text_11">
      <!-- 1.0 -->
      <g transform="translate(693.296875 405.442187) scale(0.1 -0.1)">
       <use xlink:href="#DejaVuSans-31"/>
       <use xlink:href="#DejaVuSans-2e" x="63.623047"/>
       <use xlink:href="#DejaVuSans-30" x="95.410156"/>
      </g>
     </g>
    </g>
    <g id="text_12">
     <!-- Silhouette coefficient -->
     <g transform="translate(311.463281 419.120313) scale(0.1 -0.1)">
      <defs>
       <path id="DejaVuSans-53" d="M 3425 4513 
L 3425 3897 
Q 3066 4069 2747 4153 
Q 2428 4238 2131 4238 
Q 1616 4238 1336 4038 
Q 1056 3838 1056 3469 
Q 1056 3159 1242 3001 
Q 1428 2844 1947 2747 
L 2328 2669 
Q 3034 2534 3370 2195 
Q 3706 1856 3706 1288 
Q 3706 609 3251 259 
Q 2797 -91 1919 -91 
Q 1588 -91 1214 -16 
Q 841 59 441 206 
L 441 856 
Q 825 641 1194 531 
Q 1563 422 1919 422 
Q 2459 422 2753 634 
Q 3047 847 3047 1241 
Q 3047 1584 2836 1778 
Q 2625 1972 2144 2069 
L 1759 2144 
Q 1053 2284 737 2584 
Q 422 2884 422 3419 
Q 422 4038 858 4394 
Q 1294 4750 2059 4750 
Q 2388 4750 2728 4690 
Q 3069 4631 3425 4513 
z
" transform="scale(0.015625)"/>
       <path id="DejaVuSans-69" d="M 603 3500 
L 1178 3500 
L 1178 0 
L 603 0 
L 603 3500 
z
M 603 4863 
L 1178 4863 
L 1178 4134 
L 603 4134 
L 603 4863 
z
" transform="scale(0.015625)"/>
       <path id="DejaVuSans-6c" d="M 603 4863 
L 1178 4863 
L 1178 0 
L 603 0 
L 603 4863 
z
" transform="scale(0.015625)"/>
       <path id="DejaVuSans-68" d="M 3513 2113 
L 3513 0 
L 2938 0 
L 2938 2094 
Q 2938 2591 2744 2837 
Q 2550 3084 2163 3084 
Q 1697 3084 1428 2787 
Q 1159 2491 1159 1978 
L 1159 0 
L 581 0 
L 581 4863 
L 1159 4863 
L 1159 2956 
Q 1366 3272 1645 3428 
Q 1925 3584 2291 3584 
Q 2894 3584 3203 3211 
Q 3513 2838 3513 2113 
z
" transform="scale(0.015625)"/>
       <path id="DejaVuSans-6f" d="M 1959 3097 
Q 1497 3097 1228 2736 
Q 959 2375 959 1747 
Q 959 1119 1226 758 
Q 1494 397 1959 397 
Q 2419 397 2687 759 
Q 2956 1122 2956 1747 
Q 2956 2369 2687 2733 
Q 2419 3097 1959 3097 
z
M 1959 3584 
Q 2709 3584 3137 3096 
Q 3566 2609 3566 1747 
Q 3566 888 3137 398 
Q 2709 -91 1959 -91 
Q 1206 -91 779 398 
Q 353 888 353 1747 
Q 353 2609 779 3096 
Q 1206 3584 1959 3584 
z
" transform="scale(0.015625)"/>
       <path id="DejaVuSans-75" d="M 544 1381 
L 544 3500 
L 1119 3500 
L 1119 1403 
Q 1119 906 1312 657 
Q 1506 409 1894 409 
Q 2359 409 2629 706 
Q 2900 1003 2900 1516 
L 2900 3500 
L 3475 3500 
L 3475 0 
L 2900 0 
L 2900 538 
Q 2691 219 2414 64 
Q 2138 -91 1772 -91 
Q 1169 -91 856 284 
Q 544 659 544 1381 
z
M 1991 3584 
L 1991 3584 
z
" transform="scale(0.015625)"/>
       <path id="DejaVuSans-65" d="M 3597 1894 
L 3597 1613 
L 953 1613 
Q 991 1019 1311 708 
Q 1631 397 2203 397 
Q 2534 397 2845 478 
Q 3156 559 3463 722 
L 3463 178 
Q 3153 47 2828 -22 
Q 2503 -91 2169 -91 
Q 1331 -91 842 396 
Q 353 884 353 1716 
Q 353 2575 817 3079 
Q 1281 3584 2069 3584 
Q 2775 3584 3186 3129 
Q 3597 2675 3597 1894 
z
M 3022 2063 
Q 3016 2534 2758 2815 
Q 2500 3097 2075 3097 
Q 1594 3097 1305 2825 
Q 1016 2553 972 2059 
L 3022 2063 
z
" transform="scale(0.015625)"/>
       <path id="DejaVuSans-74" d="M 1172 4494 
L 1172 3500 
L 2356 3500 
L 2356 3053 
L 1172 3053 
L 1172 1153 
Q 1172 725 1289 603 
Q 1406 481 1766 481 
L 2356 481 
L 2356 0 
L 1766 0 
Q 1100 0 847 248 
Q 594 497 594 1153 
L 594 3053 
L 172 3053 
L 172 3500 
L 594 3500 
L 594 4494 
L 1172 4494 
z
" transform="scale(0.015625)"/>
       <path id="DejaVuSans-20" transform="scale(0.015625)"/>
       <path id="DejaVuSans-63" d="M 3122 3366 
L 3122 2828 
Q 2878 2963 2633 3030 
Q 2388 3097 2138 3097 
Q 1578 3097 1268 2742 
Q 959 2388 959 1747 
Q 959 1106 1268 751 
Q 1578 397 2138 397 
Q 2388 397 2633 464 
Q 2878 531 3122 666 
L 3122 134 
Q 2881 22 2623 -34 
Q 2366 -91 2075 -91 
Q 1284 -91 818 406 
Q 353 903 353 1747 
Q 353 2603 823 3093 
Q 1294 3584 2113 3584 
Q 2378 3584 2631 3529 
Q 2884 3475 3122 3366 
z
" transform="scale(0.015625)"/>
       <path id="DejaVuSans-66" d="M 2375 4863 
L 2375 4384 
L 1825 4384 
Q 1516 4384 1395 4259 
Q 1275 4134 1275 3809 
L 1275 3500 
L 2222 3500 
L 2222 3053 
L 1275 3053 
L 1275 0 
L 697 0 
L 697 3053 
L 147 3053 
L 147 3500 
L 697 3500 
L 697 3744 
Q 697 4328 969 4595 
Q 1241 4863 1831 4863 
L 2375 4863 
z
" transform="scale(0.015625)"/>
       <path id="DejaVuSans-6e" d="M 3513 2113 
L 3513 0 
L 2938 0 
L 2938 2094 
Q 2938 2591 2744 2837 
Q 2550 3084 2163 3084 
Q 1697 3084 1428 2787 
Q 1159 2491 1159 1978 
L 1159 0 
L 581 0 
L 581 3500 
L 1159 3500 
L 1159 2956 
Q 1366 3272 1645 3428 
Q 1925 3584 2291 3584 
Q 2894 3584 3203 3211 
Q 3513 2838 3513 2113 
z
" transform="scale(0.015625)"/>
      </defs>
      <use xlink:href="#DejaVuSans-53"/>
      <use xlink:href="#DejaVuSans-69" x="63.476562"/>
      <use xlink:href="#DejaVuSans-6c" x="91.259766"/>
      <use xlink:href="#DejaVuSans-68" x="119.042969"/>
      <use xlink:href="#DejaVuSans-6f" x="182.421875"/>
      <use xlink:href="#DejaVuSans-75" x="243.603516"/>
      <use xlink:href="#DejaVuSans-65" x="306.982422"/>
      <use xlink:href="#DejaVuSans-74" x="368.505859"/>
      <use xlink:href="#DejaVuSans-74" x="407.714844"/>
      <use xlink:href="#DejaVuSans-65" x="446.923828"/>
      <use xlink:href="#DejaVuSans-20" x="508.447266"/>
      <use xlink:href="#DejaVuSans-63" x="540.234375"/>
      <use xlink:href="#DejaVuSans-6f" x="595.214844"/>
      <use xlink:href="#DejaVuSans-65" x="656.396484"/>
      <use xlink:href="#DejaVuSans-66" x="717.919922"/>
      <use xlink:href="#DejaVuSans-66" x="753.125"/>
      <use xlink:href="#DejaVuSans-69" x="788.330078"/>
      <use xlink:href="#DejaVuSans-63" x="816.113281"/>
      <use xlink:href="#DejaVuSans-69" x="871.09375"/>
      <use xlink:href="#DejaVuSans-65" x="898.876953"/>
      <use xlink:href="#DejaVuSans-6e" x="960.400391"/>
      <use xlink:href="#DejaVuSans-74" x="1023.779297"/>
     </g>
    </g>
   </g>
   <g id="matplotlib.axis_2">
    <g id="text_13">
     <!-- Predicted label -->
     <g transform="translate(18.398438 239.774399) rotate(-90) scale(0.1 -0.1)">
      <defs>
       <path id="DejaVuSans-50" d="M 1259 4147 
L 1259 2394 
L 2053 2394 
Q 2494 2394 2734 2622 
Q 2975 2850 2975 3272 
Q 2975 3691 2734 3919 
Q 2494 4147 2053 4147 
L 1259 4147 
z
M 628 4666 
L 2053 4666 
Q 2838 4666 3239 4311 
Q 3641 3956 3641 3272 
Q 3641 2581 3239 2228 
Q 2838 1875 2053 1875 
L 1259 1875 
L 1259 0 
L 628 0 
L 628 4666 
z
" transform="scale(0.015625)"/>
       <path id="DejaVuSans-72" d="M 2631 2963 
Q 2534 3019 2420 3045 
Q 2306 3072 2169 3072 
Q 1681 3072 1420 2755 
Q 1159 2438 1159 1844 
L 1159 0 
L 581 0 
L 581 3500 
L 1159 3500 
L 1159 2956 
Q 1341 3275 1631 3429 
Q 1922 3584 2338 3584 
Q 2397 3584 2469 3576 
Q 2541 3569 2628 3553 
L 2631 2963 
z
" transform="scale(0.015625)"/>
       <path id="DejaVuSans-64" d="M 2906 2969 
L 2906 4863 
L 3481 4863 
L 3481 0 
L 2906 0 
L 2906 525 
Q 2725 213 2448 61 
Q 2172 -91 1784 -91 
Q 1150 -91 751 415 
Q 353 922 353 1747 
Q 353 2572 751 3078 
Q 1150 3584 1784 3584 
Q 2172 3584 2448 3432 
Q 2725 3281 2906 2969 
z
M 947 1747 
Q 947 1113 1208 752 
Q 1469 391 1925 391 
Q 2381 391 2643 752 
Q 2906 1113 2906 1747 
Q 2906 2381 2643 2742 
Q 2381 3103 1925 3103 
Q 1469 3103 1208 2742 
Q 947 2381 947 1747 
z
" transform="scale(0.015625)"/>
       <path id="DejaVuSans-61" d="M 2194 1759 
Q 1497 1759 1228 1600 
Q 959 1441 959 1056 
Q 959 750 1161 570 
Q 1363 391 1709 391 
Q 2188 391 2477 730 
Q 2766 1069 2766 1631 
L 2766 1759 
L 2194 1759 
z
M 3341 1997 
L 3341 0 
L 2766 0 
L 2766 531 
Q 2569 213 2275 61 
Q 1981 -91 1556 -91 
Q 1019 -91 701 211 
Q 384 513 384 1019 
Q 384 1609 779 1909 
Q 1175 2209 1959 2209 
L 2766 2209 
L 2766 2266 
Q 2766 2663 2505 2880 
Q 2244 3097 1772 3097 
Q 1472 3097 1187 3025 
Q 903 2953 641 2809 
L 641 3341 
Q 956 3463 1253 3523 
Q 1550 3584 1831 3584 
Q 2591 3584 2966 3190 
Q 3341 2797 3341 1997 
z
" transform="scale(0.015625)"/>
       <path id="DejaVuSans-62" d="M 3116 1747 
Q 3116 2381 2855 2742 
Q 2594 3103 2138 3103 
Q 1681 3103 1420 2742 
Q 1159 2381 1159 1747 
Q 1159 1113 1420 752 
Q 1681 391 2138 391 
Q 2594 391 2855 752 
Q 3116 1113 3116 1747 
z
M 1159 2969 
Q 1341 3281 1617 3432 
Q 1894 3584 2278 3584 
Q 2916 3584 3314 3078 
Q 3713 2572 3713 1747 
Q 3713 922 3314 415 
Q 2916 -91 2278 -91 
Q 1894 -91 1617 61 
Q 1341 213 1159 525 
L 1159 0 
L 581 0 
L 581 4863 
L 1159 4863 
L 1159 2969 
z
" transform="scale(0.015625)"/>
      </defs>
      <use xlink:href="#DejaVuSans-50"/>
      <use xlink:href="#DejaVuSans-72" x="58.552734"/>
      <use xlink:href="#DejaVuSans-65" x="97.416016"/>
      <use xlink:href="#DejaVuSans-64" x="158.939453"/>
      <use xlink:href="#DejaVuSans-69" x="222.416016"/>
      <use xlink:href="#DejaVuSans-63" x="250.199219"/>
      <use xlink:href="#DejaVuSans-74" x="305.179688"/>
      <use xlink:href="#DejaVuSans-65" x="344.388672"/>
      <use xlink:href="#DejaVuSans-64" x="405.912109"/>
      <use xlink:href="#DejaVuSans-20" x="469.388672"/>
      <use xlink:href="#DejaVuSans-6c" x="501.175781"/>
      <use xlink:href="#DejaVuSans-61" x="528.958984"/>
      <use xlink:href="#DejaVuSans-62" x="590.238281"/>
      <use xlink:href="#DejaVuSans-65" x="653.714844"/>
      <use xlink:href="#DejaVuSans-6c" x="715.238281"/>
     </g>
    </g>
   </g>
   <g id="line2d_12">
    <path d="M 541.39222 390.84375 
L 541.39222 14.400361 
" clip-path="url(#pcca68ee1f2)" style="fill: none; stroke: #ff0000; stroke-width: 1.5; stroke-linecap: square"/>
   </g>
   <g id="patch_3">
    <path d="M 27.978125 390.84375 
L 27.978125 14.400361 
" style="fill: none; stroke: #000000; stroke-width: 0.8; stroke-linejoin: miter; stroke-linecap: square"/>
   </g>
   <g id="patch_4">
    <path d="M 701.248437 390.84375 
L 701.248437 14.400361 
" style="fill: none; stroke: #000000; stroke-width: 0.8; stroke-linejoin: miter; stroke-linecap: square"/>
   </g>
   <g id="patch_5">
    <path d="M 27.978125 390.84375 
L 701.248437 390.84375 
" style="fill: none; stroke: #000000; stroke-width: 0.8; stroke-linejoin: miter; stroke-linecap: square"/>
   </g>
   <g id="patch_6">
    <path d="M 27.978125 14.400361 
L 701.248437 14.400361 
" style="fill: none; stroke: #000000; stroke-width: 0.8; stroke-linejoin: miter; stroke-linecap: square"/>
   </g>
   <g id="text_14">
    <!-- 0 -->
    <g transform="translate(347.781523 369.125862) scale(0.1 -0.1)">
     <use xlink:href="#DejaVuSans-30"/>
    </g>
   </g>
   <g id="text_15">
    <!-- 1 -->
    <g transform="translate(347.781523 344.240782) scale(0.1 -0.1)">
     <use xlink:href="#DejaVuSans-31"/>
    </g>
   </g>
   <g id="text_16">
    <!-- 2 -->
    <g transform="translate(347.781523 316.867195) scale(0.1 -0.1)">
     <use xlink:href="#DejaVuSans-32"/>
    </g>
   </g>
   <g id="text_17">
    <!-- 3 -->
    <g transform="translate(347.781523 273.657647) scale(0.1 -0.1)">
     <defs>
      <path id="DejaVuSans-33" d="M 2597 2516 
Q 3050 2419 3304 2112 
Q 3559 1806 3559 1356 
Q 3559 666 3084 287 
Q 2609 -91 1734 -91 
Q 1441 -91 1130 -33 
Q 819 25 488 141 
L 488 750 
Q 750 597 1062 519 
Q 1375 441 1716 441 
Q 2309 441 2620 675 
Q 2931 909 2931 1356 
Q 2931 1769 2642 2001 
Q 2353 2234 1838 2234 
L 1294 2234 
L 1294 2753 
L 1863 2753 
Q 2328 2753 2575 2939 
Q 2822 3125 2822 3475 
Q 2822 3834 2567 4026 
Q 2313 4219 1838 4219 
Q 1578 4219 1281 4162 
Q 984 4106 628 3988 
L 628 4550 
Q 988 4650 1302 4700 
Q 1616 4750 1894 4750 
Q 2613 4750 3031 4423 
Q 3450 4097 3450 3541 
Q 3450 3153 3228 2886 
Q 3006 2619 2597 2516 
z
" transform="scale(0.015625)"/>
     </defs>
     <use xlink:href="#DejaVuSans-33"/>
    </g>
   </g>
   <g id="text_18">
    <!-- 4 -->
    <g transform="translate(347.781523 245.605375) scale(0.1 -0.1)">
     <use xlink:href="#DejaVuSans-34"/>
    </g>
   </g>
   <g id="text_19">
    <!-- 5 -->
    <g transform="translate(347.781523 218.231787) scale(0.1 -0.1)">
     <defs>
      <path id="DejaVuSans-35" d="M 691 4666 
L 3169 4666 
L 3169 4134 
L 1269 4134 
L 1269 2991 
Q 1406 3038 1543 3061 
Q 1681 3084 1819 3084 
Q 2600 3084 3056 2656 
Q 3513 2228 3513 1497 
Q 3513 744 3044 326 
Q 2575 -91 1722 -91 
Q 1428 -91 1123 -41 
Q 819 9 494 109 
L 494 744 
Q 775 591 1075 516 
Q 1375 441 1709 441 
Q 2250 441 2565 725 
Q 2881 1009 2881 1497 
Q 2881 1984 2565 2268 
Q 2250 2553 1709 2553 
Q 1456 2553 1204 2497 
Q 953 2441 691 2322 
L 691 4666 
z
" transform="scale(0.015625)"/>
     </defs>
     <use xlink:href="#DejaVuSans-35"/>
    </g>
   </g>
   <g id="text_20">
    <!-- 6 -->
    <g transform="translate(347.781523 181.130395) scale(0.1 -0.1)">
     <use xlink:href="#DejaVuSans-36"/>
    </g>
   </g>
   <g id="text_21">
    <!-- 7 -->
    <g transform="translate(347.781523 116.881644) scale(0.1 -0.1)">
     <defs>
      <path id="DejaVuSans-37" d="M 525 4666 
L 3525 4666 
L 3525 4397 
L 1831 0 
L 1172 0 
L 2766 4134 
L 525 4134 
L 525 4666 
z
" transform="scale(0.015625)"/>
     </defs>
     <use xlink:href="#DejaVuSans-37"/>
    </g>
   </g>
   <g id="text_22">
    <!-- 8 -->
    <g transform="translate(347.781523 64.849204) scale(0.1 -0.1)">
     <use xlink:href="#DejaVuSans-38"/>
    </g>
   </g>
   <g id="text_23">
    <!-- 9 -->
    <g transform="translate(347.781523 56.704996) scale(0.1 -0.1)">
     <defs>
      <path id="DejaVuSans-39" d="M 703 97 
L 703 672 
Q 941 559 1184 500 
Q 1428 441 1663 441 
Q 2288 441 2617 861 
Q 2947 1281 2994 2138 
Q 2813 1869 2534 1725 
Q 2256 1581 1919 1581 
Q 1219 1581 811 2004 
Q 403 2428 403 3163 
Q 403 3881 828 4315 
Q 1253 4750 1959 4750 
Q 2769 4750 3195 4129 
Q 3622 3509 3622 2328 
Q 3622 1225 3098 567 
Q 2575 -91 1691 -91 
Q 1453 -91 1209 -44 
Q 966 3 703 97 
z
M 1959 2075 
Q 2384 2075 2632 2365 
Q 2881 2656 2881 3163 
Q 2881 3666 2632 3958 
Q 2384 4250 1959 4250 
Q 1534 4250 1286 3958 
Q 1038 3666 1038 3163 
Q 1038 2656 1286 2365 
Q 1534 2075 1959 2075 
z
" transform="scale(0.015625)"/>
     </defs>
     <use xlink:href="#DejaVuSans-39"/>
    </g>
   </g>
   <g id="text_24">
    <!-- 10 -->
    <g transform="translate(347.781523 48.787016) scale(0.1 -0.1)">
     <use xlink:href="#DejaVuSans-31"/>
     <use xlink:href="#DejaVuSans-30" x="63.623047"/>
    </g>
   </g>
   <g id="text_25">
    <!-- 11 -->
    <g transform="translate(347.781523 40.642808) scale(0.1 -0.1)">
     <use xlink:href="#DejaVuSans-31"/>
     <use xlink:href="#DejaVuSans-31" x="63.623047"/>
    </g>
   </g>
   <g id="text_26">
    <!-- 12 -->
    <g transform="translate(347.781523 32.272372) scale(0.1 -0.1)">
     <use xlink:href="#DejaVuSans-31"/>
     <use xlink:href="#DejaVuSans-32" x="63.623047"/>
    </g>
   </g>
   <g id="text_27">
    <!-- 13 -->
    <g transform="translate(347.781523 25.033077) scale(0.1 -0.1)">
     <use xlink:href="#DejaVuSans-31"/>
     <use xlink:href="#DejaVuSans-33" x="63.623047"/>
    </g>
   </g>
   <g id="text_28">
    <!-- 14 -->
    <g transform="translate(347.781523 19.377377) scale(0.1 -0.1)">
     <use xlink:href="#DejaVuSans-31"/>
     <use xlink:href="#DejaVuSans-34" x="63.623047"/>
    </g>
   </g>
   <g id="text_29">
    <!-- 0.5251 -->
    <g style="fill: #ff0000" transform="translate(558.223978 18.924921) scale(0.1 -0.1)">
     <use xlink:href="#DejaVuSans-30"/>
     <use xlink:href="#DejaVuSans-2e" x="63.623047"/>
     <use xlink:href="#DejaVuSans-35" x="95.410156"/>
     <use xlink:href="#DejaVuSans-32" x="159.033203"/>
     <use xlink:href="#DejaVuSans-35" x="222.65625"/>
     <use xlink:href="#DejaVuSans-31" x="286.279297"/>
    </g>
   </g>
  </g>
 </g>
 <defs>
  <clipPath id="pcca68ee1f2">
   <rect x="27.978125" y="14.400361" width="673.270312" height="376.443389"/>
  </clipPath>
 </defs>
</svg>
