<?xml version="1.0" encoding="utf-8" standalone="no"?>
<!DOCTYPE svg PUBLIC "-//W3C//DTD SVG 1.1//EN"
  "http://www.w3.org/Graphics/SVG/1.1/DTD/svg11.dtd">
<svg xmlns:xlink="http://www.w3.org/1999/xlink" width="720pt" height="720pt" viewBox="0 0 720 720" xmlns="http://www.w3.org/2000/svg" version="1.1">
 <metadata>
  <rdf:RDF xmlns:dc="http://purl.org/dc/elements/1.1/" xmlns:cc="http://creativecommons.org/ns#" xmlns:rdf="http://www.w3.org/1999/02/22-rdf-syntax-ns#">
   <cc:Work>
    <dc:type rdf:resource="http://purl.org/dc/dcmitype/StillImage"/>
    <dc:date>2022-11-17T19:11:17.561658</dc:date>
    <dc:format>image/svg+xml</dc:format>
    <dc:creator>
     <cc:Agent>
      <dc:title>Matplotlib v3.6.1, https://matplotlib.org/</dc:title>
     </cc:Agent>
    </dc:creator>
   </cc:Work>
  </rdf:RDF>
 </metadata>
 <defs>
  <style type="text/css">*{stroke-linejoin: round; stroke-linecap: butt}</style>
 </defs>
 <g id="figure_1">
  <g id="patch_1">
   <path d="M 0 720 
L 720 720 
L 720 0 
L 0 0 
z
" style="fill: #ffffff"/>
  </g>
  <g id="axes_1">
   <g id="patch_2">
    <path d="M 27.978125 678.84375 
L 701.248437 678.84375 
L 701.248437 11.734976 
L 27.978125 11.734976 
z
" style="fill: #ffffff"/>
   </g>
   <g id="PolyCollection_1">
    <defs>
     <path id="m8b774b106a" d="M 423.208546 -49.174384 
L 364.613281 -49.174384 
L 364.613281 -49.976198 
L 364.613281 -50.778011 
L 364.613281 -51.579825 
L 364.613281 -52.381638 
L 364.613281 -53.183451 
L 364.613281 -53.985265 
L 364.613281 -54.787078 
L 364.613281 -55.588892 
L 364.613281 -56.390705 
L 364.613281 -57.192519 
L 364.613281 -57.994332 
L 364.613281 -58.796145 
L 364.613281 -59.597959 
L 364.613281 -60.399772 
L 364.613281 -61.201586 
L 364.613281 -62.003399 
L 364.613281 -62.805213 
L 364.613281 -63.607026 
L 364.613281 -64.408839 
L 364.613281 -65.210653 
L 364.613281 -66.012466 
L 364.613281 -66.81428 
L 364.613281 -67.616093 
L 364.613281 -68.417907 
L 364.613281 -69.21972 
L 364.613281 -70.021533 
L 364.613281 -70.823347 
L 364.613281 -71.62516 
L 364.613281 -72.426974 
L 364.613281 -73.228787 
L 364.613281 -74.030601 
L 364.613281 -74.832414 
L 364.613281 -75.634228 
L 364.613281 -76.436041 
L 364.613281 -77.237854 
L 364.613281 -78.039668 
L 364.613281 -78.841481 
L 364.613281 -79.643295 
L 364.613281 -80.445108 
L 364.613281 -81.246922 
L 364.613281 -82.048735 
L 364.613281 -82.850548 
L 364.613281 -83.652362 
L 364.613281 -84.454175 
L 364.613281 -85.255989 
L 364.613281 -86.057802 
L 364.613281 -86.859616 
L 364.613281 -87.661429 
L 364.613281 -88.463242 
L 364.613281 -89.265056 
L 364.613281 -90.066869 
L 364.613281 -90.868683 
L 364.613281 -91.670496 
L 364.613281 -92.47231 
L 364.613281 -93.274123 
L 364.613281 -94.075936 
L 364.613281 -94.87775 
L 364.613281 -95.679563 
L 364.613281 -96.481377 
L 364.613281 -97.28319 
L 364.613281 -98.085004 
L 364.613281 -98.886817 
L 364.613281 -99.68863 
L 364.613281 -100.490444 
L 364.613281 -101.292257 
L 364.613281 -102.094071 
L 364.613281 -102.895884 
L 364.613281 -103.697698 
L 364.613281 -104.499511 
L 364.613281 -105.301324 
L 364.613281 -106.103138 
L 364.613281 -106.904951 
L 364.613281 -107.706765 
L 364.613281 -108.508578 
L 364.613281 -109.310392 
L 591.701217 -109.310392 
L 591.701217 -109.310392 
L 591.183859 -108.508578 
L 591.084195 -107.706765 
L 591.026911 -106.904951 
L 590.937956 -106.103138 
L 590.521907 -105.301324 
L 590.474273 -104.499511 
L 590.157758 -103.697698 
L 589.368493 -102.895884 
L 582.230878 -102.094071 
L 581.998719 -101.292257 
L 581.974246 -100.490444 
L 581.96108 -99.68863 
L 581.821054 -98.886817 
L 581.736803 -98.085004 
L 580.936907 -97.28319 
L 580.22036 -96.481377 
L 578.762016 -95.679563 
L 577.251555 -94.87775 
L 575.341217 -94.075936 
L 574.068839 -93.274123 
L 573.691012 -92.47231 
L 572.319076 -91.670496 
L 571.964003 -90.868683 
L 571.516268 -90.066869 
L 571.478756 -89.265056 
L 571.123547 -88.463242 
L 570.939687 -87.661429 
L 570.202133 -86.859616 
L 569.961167 -86.057802 
L 568.376361 -85.255989 
L 563.516946 -84.454175 
L 563.451671 -83.652362 
L 561.775203 -82.850548 
L 560.176922 -82.048735 
L 559.729167 -81.246922 
L 553.562603 -80.445108 
L 551.961197 -79.643295 
L 550.702657 -78.841481 
L 550.402266 -78.039668 
L 549.084803 -77.237854 
L 548.914872 -76.436041 
L 547.295729 -75.634228 
L 546.000941 -74.832414 
L 543.205881 -74.030601 
L 543.156511 -73.228787 
L 542.04634 -72.426974 
L 533.674042 -71.62516 
L 532.991224 -70.823347 
L 525.436784 -70.021533 
L 524.344551 -69.21972 
L 524.03975 -68.417907 
L 522.874035 -67.616093 
L 521.420764 -66.81428 
L 521.355151 -66.012466 
L 517.384901 -65.210653 
L 505.109238 -64.408839 
L 503.322063 -63.607026 
L 502.699267 -62.805213 
L 501.683667 -62.003399 
L 501.302355 -61.201586 
L 497.9847 -60.399772 
L 496.842071 -59.597959 
L 495.173266 -58.796145 
L 492.311602 -57.994332 
L 490.184996 -57.192519 
L 490.088519 -56.390705 
L 487.815929 -55.588892 
L 484.754568 -54.787078 
L 483.734059 -53.985265 
L 480.774945 -53.183451 
L 450.481636 -52.381638 
L 446.870562 -51.579825 
L 443.595403 -50.778011 
L 432.862527 -49.976198 
L 423.208546 -49.174384 
z
" style="stroke: #000000; stroke-opacity: 0.7"/>
    </defs>
    <g clip-path="url(#p781180af52)">
     <use xlink:href="#m8b774b106a" x="0" y="720" style="fill-opacity: 0.7; stroke: #000000; stroke-opacity: 0.7"/>
    </g>
   </g>
   <g id="PolyCollection_2">
    <defs>
     <path id="m1367352d8d" d="M 465.136111 -118.130339 
L 364.613281 -118.130339 
L 364.613281 -118.932153 
L 364.613281 -119.733966 
L 364.613281 -120.53578 
L 364.613281 -121.337593 
L 364.613281 -122.139406 
L 364.613281 -122.94122 
L 364.613281 -123.743033 
L 364.613281 -124.544847 
L 364.613281 -125.34666 
L 364.613281 -126.148474 
L 364.613281 -126.950287 
L 364.613281 -127.7521 
L 364.613281 -128.553914 
L 539.849783 -128.553914 
L 539.849783 -128.553914 
L 538.569448 -127.7521 
L 538.233661 -126.950287 
L 533.126675 -126.148474 
L 532.643162 -125.34666 
L 531.443902 -124.544847 
L 530.781671 -123.743033 
L 526.957261 -122.94122 
L 515.67283 -122.139406 
L 505.276381 -121.337593 
L 466.077681 -120.53578 
L 466.013955 -119.733966 
L 465.500021 -118.932153 
L 465.136111 -118.130339 
z
" style="stroke: #7d008e; stroke-opacity: 0.7"/>
    </defs>
    <g clip-path="url(#p781180af52)">
     <use xlink:href="#m1367352d8d" x="0" y="720" style="fill: #7d008e; fill-opacity: 0.7; stroke: #7d008e; stroke-opacity: 0.7"/>
    </g>
   </g>
   <g id="PolyCollection_3">
    <defs>
     <path id="mc1806a5ab5" d="M 364.677852 -137.373862 
L 364.613281 -137.373862 
L 364.613281 -138.175675 
L 364.613281 -138.977489 
L 364.613281 -139.779302 
L 364.613281 -140.581115 
L 364.613281 -141.382929 
L 364.613281 -142.184742 
L 364.613281 -142.986556 
L 364.613281 -143.788369 
L 364.613281 -144.590183 
L 364.613281 -145.391996 
L 364.613281 -146.193809 
L 364.613281 -146.995623 
L 364.613281 -147.797436 
L 364.613281 -148.59925 
L 364.613281 -149.401063 
L 364.613281 -150.202877 
L 364.613281 -151.00469 
L 364.613281 -151.806503 
L 364.613281 -152.608317 
L 364.613281 -153.41013 
L 364.613281 -154.211944 
L 364.613281 -155.013757 
L 364.613281 -155.815571 
L 364.613281 -156.617384 
L 364.613281 -157.419197 
L 364.613281 -158.221011 
L 364.613281 -159.022824 
L 364.613281 -159.824638 
L 364.613281 -160.626451 
L 364.613281 -161.428265 
L 364.613281 -162.230078 
L 364.613281 -163.031891 
L 364.613281 -163.833705 
L 364.613281 -164.635518 
L 364.613281 -165.437332 
L 364.613281 -166.239145 
L 364.613281 -167.040959 
L 364.613281 -167.842772 
L 364.613281 -168.644585 
L 364.613281 -169.446399 
L 364.613281 -170.248212 
L 364.613281 -171.050026 
L 364.613281 -171.851839 
L 364.613281 -172.653653 
L 364.613281 -173.455466 
L 364.613281 -174.257279 
L 364.613281 -175.059093 
L 364.613281 -175.860906 
L 364.613281 -176.66272 
L 364.613281 -177.464533 
L 364.613281 -178.266347 
L 364.613281 -179.06816 
L 364.613281 -179.869973 
L 364.613281 -180.671787 
L 364.613281 -181.4736 
L 364.613281 -182.275414 
L 364.613281 -183.077227 
L 364.613281 -183.879041 
L 364.613281 -184.680854 
L 364.613281 -185.482667 
L 364.613281 -186.284481 
L 364.613281 -187.086294 
L 364.613281 -187.888108 
L 364.613281 -188.689921 
L 364.613281 -189.491735 
L 364.613281 -190.293548 
L 364.613281 -191.095361 
L 364.613281 -191.897175 
L 364.613281 -192.698988 
L 364.613281 -193.500802 
L 364.613281 -194.302615 
L 364.613281 -195.104429 
L 364.613281 -195.906242 
L 364.613281 -196.708055 
L 364.613281 -197.509869 
L 364.613281 -198.311682 
L 364.613281 -199.113496 
L 364.613281 -199.915309 
L 364.613281 -200.717123 
L 364.613281 -201.518936 
L 364.613281 -202.320749 
L 364.613281 -203.122563 
L 364.613281 -203.924376 
L 364.613281 -204.72619 
L 364.613281 -205.528003 
L 364.613281 -206.329817 
L 574.442424 -206.329817 
L 574.442424 -206.329817 
L 571.17518 -205.528003 
L 570.191081 -204.72619 
L 568.123539 -203.924376 
L 567.177664 -203.122563 
L 567.147902 -202.320749 
L 566.584547 -201.518936 
L 565.525303 -200.717123 
L 564.824223 -199.915309 
L 564.433681 -199.113496 
L 563.606334 -198.311682 
L 562.138261 -197.509869 
L 561.057458 -196.708055 
L 560.437164 -195.906242 
L 560.278626 -195.104429 
L 560.16182 -194.302615 
L 559.556331 -193.500802 
L 559.409636 -192.698988 
L 559.298973 -191.897175 
L 559.010395 -191.095361 
L 558.700472 -190.293548 
L 558.631435 -189.491735 
L 557.990713 -188.689921 
L 556.95885 -187.888108 
L 556.839233 -187.086294 
L 556.700132 -186.284481 
L 555.836859 -185.482667 
L 555.598639 -184.680854 
L 555.040325 -183.879041 
L 554.837899 -183.077227 
L 554.621038 -182.275414 
L 554.144573 -181.4736 
L 553.279301 -180.671787 
L 553.011696 -179.869973 
L 552.838193 -179.06816 
L 551.607918 -178.266347 
L 551.605739 -177.464533 
L 551.025448 -176.66272 
L 549.141471 -175.860906 
L 548.381161 -175.059093 
L 547.954418 -174.257279 
L 546.53458 -173.455466 
L 546.263316 -172.653653 
L 544.270419 -171.851839 
L 544.150309 -171.050026 
L 544.081217 -170.248212 
L 543.735141 -169.446399 
L 543.485911 -168.644585 
L 543.392998 -167.842772 
L 541.080794 -167.040959 
L 539.34019 -166.239145 
L 538.092079 -165.437332 
L 537.700532 -164.635518 
L 535.943257 -163.833705 
L 534.997754 -163.031891 
L 534.045022 -162.230078 
L 533.281204 -161.428265 
L 532.779073 -160.626451 
L 532.542841 -159.824638 
L 532.332619 -159.022824 
L 531.763251 -158.221011 
L 531.754193 -157.419197 
L 531.486662 -156.617384 
L 531.142547 -155.815571 
L 530.484671 -155.013757 
L 528.274656 -154.211944 
L 527.267723 -153.41013 
L 524.884264 -152.608317 
L 522.548813 -151.806503 
L 519.410796 -151.00469 
L 516.093759 -150.202877 
L 515.332935 -149.401063 
L 513.595384 -148.59925 
L 512.287964 -147.797436 
L 509.404618 -146.995623 
L 508.187344 -146.193809 
L 508.080319 -145.391996 
L 507.545846 -144.590183 
L 502.38236 -143.788369 
L 502.343386 -142.986556 
L 493.801951 -142.184742 
L 489.442957 -141.382929 
L 480.759821 -140.581115 
L 468.082573 -139.779302 
L 457.952081 -138.977489 
L 440.405384 -138.175675 
L 364.677852 -137.373862 
z
" style="stroke: #2d00a4; stroke-opacity: 0.7"/>
    </defs>
    <g clip-path="url(#p781180af52)">
     <use xlink:href="#mc1806a5ab5" x="0" y="720" style="fill: #2d00a4; fill-opacity: 0.7; stroke: #2d00a4; stroke-opacity: 0.7"/>
    </g>
   </g>
   <g id="PolyCollection_4">
    <defs>
     <path id="m9db788cff8" d="M 370.949791 -215.149764 
L 364.613281 -215.149764 
L 364.613281 -215.951578 
L 364.613281 -216.753391 
L 364.613281 -217.555205 
L 364.613281 -218.357018 
L 364.613281 -219.158832 
L 364.613281 -219.960645 
L 364.613281 -220.762458 
L 364.613281 -221.564272 
L 364.613281 -222.366085 
L 364.613281 -223.167899 
L 364.613281 -223.969712 
L 364.613281 -224.771526 
L 364.613281 -225.573339 
L 364.613281 -226.375152 
L 364.613281 -227.176966 
L 364.613281 -227.978779 
L 364.613281 -228.780593 
L 364.613281 -229.582406 
L 364.613281 -230.38422 
L 364.613281 -231.186033 
L 364.613281 -231.987846 
L 364.613281 -232.78966 
L 364.613281 -233.591473 
L 364.613281 -234.393287 
L 364.613281 -235.1951 
L 364.613281 -235.996914 
L 364.613281 -236.798727 
L 364.613281 -237.60054 
L 364.613281 -238.402354 
L 364.613281 -239.204167 
L 364.613281 -240.005981 
L 364.613281 -240.807794 
L 364.613281 -241.609608 
L 364.613281 -242.411421 
L 364.613281 -243.213234 
L 364.613281 -244.015048 
L 364.613281 -244.816861 
L 364.613281 -245.618675 
L 364.613281 -246.420488 
L 364.613281 -247.222302 
L 364.613281 -248.024115 
L 364.613281 -248.825928 
L 364.613281 -249.627742 
L 364.613281 -250.429555 
L 364.613281 -251.231369 
L 364.613281 -252.033182 
L 364.613281 -252.834996 
L 364.613281 -253.636809 
L 364.613281 -254.438622 
L 364.613281 -255.240436 
L 364.613281 -256.042249 
L 364.613281 -256.844063 
L 364.613281 -257.645876 
L 364.613281 -258.44769 
L 364.613281 -259.249503 
L 364.613281 -260.051316 
L 364.613281 -260.85313 
L 364.613281 -261.654943 
L 364.613281 -262.456757 
L 364.613281 -263.25857 
L 364.613281 -264.060384 
L 364.613281 -264.862197 
L 364.613281 -265.66401 
L 364.613281 -266.465824 
L 364.613281 -267.267637 
L 364.613281 -268.069451 
L 364.613281 -268.871264 
L 364.613281 -269.673078 
L 364.613281 -270.474891 
L 364.613281 -271.276705 
L 364.613281 -272.078518 
L 364.613281 -272.880331 
L 364.613281 -273.682145 
L 364.613281 -274.483958 
L 364.613281 -275.285772 
L 364.613281 -276.087585 
L 364.613281 -276.889399 
L 364.613281 -277.691212 
L 364.613281 -278.493025 
L 364.613281 -279.294839 
L 364.613281 -280.096652 
L 364.613281 -280.898466 
L 364.613281 -281.700279 
L 580.552257 -281.700279 
L 580.552257 -281.700279 
L 580.248346 -280.898466 
L 580.228925 -280.096652 
L 578.72648 -279.294839 
L 578.253917 -278.493025 
L 578.247481 -277.691212 
L 578.247042 -276.889399 
L 577.935106 -276.087585 
L 577.730257 -275.285772 
L 577.111026 -274.483958 
L 576.822591 -273.682145 
L 576.610964 -272.880331 
L 574.886046 -272.078518 
L 574.74446 -271.276705 
L 573.245781 -270.474891 
L 572.530109 -269.673078 
L 570.260726 -268.871264 
L 569.01724 -268.069451 
L 566.385459 -267.267637 
L 566.378986 -266.465824 
L 565.454366 -265.66401 
L 564.774065 -264.862197 
L 561.549631 -264.060384 
L 560.071833 -263.25857 
L 559.970382 -262.456757 
L 559.598761 -261.654943 
L 559.472353 -260.85313 
L 559.343471 -260.051316 
L 557.989557 -259.249503 
L 557.143934 -258.44769 
L 556.691859 -257.645876 
L 556.487598 -256.844063 
L 556.25196 -256.042249 
L 555.423801 -255.240436 
L 553.421551 -254.438622 
L 553.048723 -253.636809 
L 552.621325 -252.834996 
L 552.241757 -252.033182 
L 550.671226 -251.231369 
L 549.974507 -250.429555 
L 549.841125 -249.627742 
L 549.75734 -248.825928 
L 547.301863 -248.024115 
L 545.550578 -247.222302 
L 545.319081 -246.420488 
L 544.493215 -245.618675 
L 542.888807 -244.816861 
L 541.363331 -244.015048 
L 538.94948 -243.213234 
L 538.642972 -242.411421 
L 531.497043 -241.609608 
L 529.857571 -240.807794 
L 529.671785 -240.005981 
L 525.361259 -239.204167 
L 523.36324 -238.402354 
L 519.634716 -237.60054 
L 519.089921 -236.798727 
L 518.462058 -235.996914 
L 516.635715 -235.1951 
L 513.530208 -234.393287 
L 510.58523 -233.591473 
L 504.673735 -232.78966 
L 499.787994 -231.987846 
L 498.183365 -231.186033 
L 497.320493 -230.38422 
L 495.499893 -229.582406 
L 493.765706 -228.780593 
L 487.898961 -227.978779 
L 487.762772 -227.176966 
L 485.124979 -226.375152 
L 483.271695 -225.573339 
L 472.053545 -224.771526 
L 469.790209 -223.969712 
L 464.804893 -223.167899 
L 464.757429 -222.366085 
L 462.445864 -221.564272 
L 450.609459 -220.762458 
L 446.527356 -219.960645 
L 446.142958 -219.158832 
L 445.193544 -218.357018 
L 433.425803 -217.555205 
L 423.064712 -216.753391 
L 415.035475 -215.951578 
L 370.949791 -215.149764 
z
" style="stroke: #0000dd; stroke-opacity: 0.7"/>
    </defs>
    <g clip-path="url(#p781180af52)">
     <use xlink:href="#m9db788cff8" x="0" y="720" style="fill: #0000dd; fill-opacity: 0.7; stroke: #0000dd; stroke-opacity: 0.7"/>
    </g>
   </g>
   <g id="PolyCollection_5">
    <defs>
     <path id="m840f593c34" d="M 382.704389 -290.520227 
L 364.613281 -290.520227 
L 364.613281 -291.32204 
L 364.613281 -292.123854 
L 364.613281 -292.925667 
L 364.613281 -293.727481 
L 364.613281 -294.529294 
L 364.613281 -295.331107 
L 364.613281 -296.132921 
L 364.613281 -296.934734 
L 364.613281 -297.736548 
L 364.613281 -298.538361 
L 364.613281 -299.340175 
L 364.613281 -300.141988 
L 364.613281 -300.943801 
L 364.613281 -301.745615 
L 364.613281 -302.547428 
L 364.613281 -303.349242 
L 364.613281 -304.151055 
L 364.613281 -304.952869 
L 364.613281 -305.754682 
L 523.435536 -305.754682 
L 523.435536 -305.754682 
L 514.548156 -304.952869 
L 514.537554 -304.151055 
L 506.762573 -303.349242 
L 504.047492 -302.547428 
L 502.283399 -301.745615 
L 500.174861 -300.943801 
L 495.05151 -300.141988 
L 492.786843 -299.340175 
L 492.056415 -298.538361 
L 488.719635 -297.736548 
L 476.082885 -296.934734 
L 472.078014 -296.132921 
L 471.600852 -295.331107 
L 471.545811 -294.529294 
L 470.264139 -293.727481 
L 465.715393 -292.925667 
L 465.364393 -292.123854 
L 464.190938 -291.32204 
L 382.704389 -290.520227 
z
" style="stroke: #0082dd; stroke-opacity: 0.7"/>
    </defs>
    <g clip-path="url(#p781180af52)">
     <use xlink:href="#m840f593c34" x="0" y="720" style="fill: #0082dd; fill-opacity: 0.7; stroke: #0082dd; stroke-opacity: 0.7"/>
    </g>
   </g>
   <g id="PolyCollection_6">
    <defs>
     <path id="mb9fe15095f" d="M 286.945915 -314.57463 
L 364.613281 -314.57463 
L 364.613281 -315.376443 
L 364.613281 -316.178257 
L 364.613281 -316.98007 
L 364.613281 -317.781883 
L 364.613281 -318.583697 
L 364.613281 -319.38551 
L 364.613281 -320.187324 
L 364.613281 -320.989137 
L 364.613281 -321.790951 
L 364.613281 -322.592764 
L 364.613281 -323.394577 
L 364.613281 -324.196391 
L 364.613281 -324.998204 
L 364.613281 -325.800018 
L 364.613281 -326.601831 
L 364.613281 -327.403645 
L 364.613281 -328.205458 
L 364.613281 -329.007271 
L 364.613281 -329.809085 
L 364.613281 -330.610898 
L 364.613281 -331.412712 
L 364.613281 -332.214525 
L 364.613281 -333.016339 
L 364.613281 -333.818152 
L 364.613281 -334.619966 
L 364.613281 -335.421779 
L 364.613281 -336.223592 
L 364.613281 -337.025406 
L 364.613281 -337.827219 
L 364.613281 -338.629033 
L 364.613281 -339.430846 
L 364.613281 -340.23266 
L 364.613281 -341.034473 
L 364.613281 -341.836286 
L 364.613281 -342.6381 
L 364.613281 -343.439913 
L 364.613281 -344.241727 
L 364.613281 -345.04354 
L 364.613281 -345.845354 
L 364.613281 -346.647167 
L 364.613281 -347.44898 
L 364.613281 -348.250794 
L 364.613281 -349.052607 
L 364.613281 -349.854421 
L 364.613281 -350.656234 
L 364.613281 -351.458048 
L 364.613281 -352.259861 
L 364.613281 -353.061674 
L 364.613281 -353.863488 
L 364.613281 -354.665301 
L 364.613281 -355.467115 
L 364.613281 -356.268928 
L 364.613281 -357.070742 
L 364.613281 -357.872555 
L 364.613281 -358.674368 
L 364.613281 -359.476182 
L 364.613281 -360.277995 
L 364.613281 -361.079809 
L 364.613281 -361.881622 
L 364.613281 -362.683436 
L 364.613281 -363.485249 
L 364.613281 -364.287062 
L 364.613281 -365.088876 
L 364.613281 -365.890689 
L 364.613281 -366.692503 
L 364.613281 -367.494316 
L 364.613281 -368.29613 
L 364.613281 -369.097943 
L 364.613281 -369.899756 
L 364.613281 -370.70157 
L 364.613281 -371.503383 
L 364.613281 -372.305197 
L 364.613281 -373.10701 
L 364.613281 -373.908824 
L 364.613281 -374.710637 
L 364.613281 -375.51245 
L 364.613281 -376.314264 
L 364.613281 -377.116077 
L 364.613281 -377.917891 
L 364.613281 -378.719704 
L 576.908452 -378.719704 
L 576.908452 -378.719704 
L 576.272668 -377.917891 
L 576.218931 -377.116077 
L 576.025016 -376.314264 
L 575.915316 -375.51245 
L 575.361916 -374.710637 
L 575.2892 -373.908824 
L 574.295133 -373.10701 
L 573.964216 -372.305197 
L 573.846332 -371.503383 
L 571.896319 -370.70157 
L 570.829149 -369.899756 
L 567.595195 -369.097943 
L 566.883523 -368.29613 
L 565.912159 -367.494316 
L 565.434663 -366.692503 
L 564.176481 -365.890689 
L 562.910095 -365.088876 
L 559.973747 -364.287062 
L 559.417802 -363.485249 
L 558.237956 -362.683436 
L 557.117248 -361.881622 
L 556.399995 -361.079809 
L 556.028027 -360.277995 
L 555.962804 -359.476182 
L 555.583361 -358.674368 
L 555.544486 -357.872555 
L 554.981748 -357.070742 
L 554.698185 -356.268928 
L 554.655775 -355.467115 
L 554.641476 -354.665301 
L 554.405417 -353.863488 
L 553.512426 -353.061674 
L 548.933113 -352.259861 
L 548.811102 -351.458048 
L 548.706425 -350.656234 
L 548.616691 -349.854421 
L 548.607801 -349.052607 
L 548.303312 -348.250794 
L 548.275339 -347.44898 
L 548.162098 -346.647167 
L 543.553081 -345.845354 
L 541.829976 -345.04354 
L 540.32111 -344.241727 
L 539.808784 -343.439913 
L 539.798489 -342.6381 
L 539.119665 -341.836286 
L 534.794289 -341.034473 
L 534.569357 -340.23266 
L 534.147051 -339.430846 
L 532.479293 -338.629033 
L 531.243065 -337.827219 
L 530.450213 -337.025406 
L 526.210084 -336.223592 
L 522.422352 -335.421779 
L 521.829971 -334.619966 
L 521.200166 -333.818152 
L 516.789722 -333.016339 
L 510.790232 -332.214525 
L 510.591125 -331.412712 
L 501.245324 -330.610898 
L 490.822096 -329.809085 
L 490.209138 -329.007271 
L 476.857799 -328.205458 
L 475.035252 -327.403645 
L 471.49701 -326.601831 
L 467.295947 -325.800018 
L 452.61796 -324.998204 
L 447.962626 -324.196391 
L 447.062251 -323.394577 
L 438.702144 -322.592764 
L 437.593285 -321.790951 
L 437.390897 -320.989137 
L 429.412968 -320.187324 
L 418.147669 -319.38551 
L 400.899071 -318.583697 
L 397.605184 -317.781883 
L 372.861226 -316.98007 
L 333.730588 -316.178257 
L 321.386862 -315.376443 
L 286.945915 -314.57463 
z
" style="stroke: #00a4bb; stroke-opacity: 0.7"/>
    </defs>
    <g clip-path="url(#p781180af52)">
     <use xlink:href="#mb9fe15095f" x="0" y="720" style="fill: #00a4bb; fill-opacity: 0.7; stroke: #00a4bb; stroke-opacity: 0.7"/>
    </g>
   </g>
   <g id="PolyCollection_7">
    <defs>
     <path id="mf5d3ae6136" d="M 291.216667 -387.539652 
L 364.613281 -387.539652 
L 364.613281 -388.341465 
L 364.613281 -389.143279 
L 364.613281 -389.945092 
L 364.613281 -390.746906 
L 364.613281 -391.548719 
L 364.613281 -392.350532 
L 364.613281 -393.152346 
L 364.613281 -393.954159 
L 364.613281 -394.755973 
L 364.613281 -395.557786 
L 364.613281 -396.3596 
L 364.613281 -397.161413 
L 364.613281 -397.963226 
L 364.613281 -398.76504 
L 364.613281 -399.566853 
L 364.613281 -400.368667 
L 364.613281 -401.17048 
L 364.613281 -401.972294 
L 364.613281 -402.774107 
L 364.613281 -403.575921 
L 364.613281 -404.377734 
L 364.613281 -405.179547 
L 364.613281 -405.981361 
L 364.613281 -406.783174 
L 364.613281 -407.584988 
L 364.613281 -408.386801 
L 364.613281 -409.188615 
L 364.613281 -409.990428 
L 364.613281 -410.792241 
L 364.613281 -411.594055 
L 364.613281 -412.395868 
L 364.613281 -413.197682 
L 364.613281 -413.999495 
L 364.613281 -414.801309 
L 364.613281 -415.603122 
L 364.613281 -416.404935 
L 364.613281 -417.206749 
L 364.613281 -418.008562 
L 364.613281 -418.810376 
L 364.613281 -419.612189 
L 364.613281 -420.414003 
L 364.613281 -421.215816 
L 364.613281 -422.017629 
L 364.613281 -422.819443 
L 364.613281 -423.621256 
L 364.613281 -424.42307 
L 364.613281 -425.224883 
L 364.613281 -426.026697 
L 364.613281 -426.82851 
L 364.613281 -427.630323 
L 364.613281 -428.432137 
L 364.613281 -429.23395 
L 364.613281 -430.035764 
L 364.613281 -430.837577 
L 364.613281 -431.639391 
L 364.613281 -432.441204 
L 364.613281 -433.243017 
L 364.613281 -434.044831 
L 364.613281 -434.846644 
L 364.613281 -435.648458 
L 364.613281 -436.450271 
L 364.613281 -437.252085 
L 587.553883 -437.252085 
L 587.553883 -437.252085 
L 587.445152 -436.450271 
L 587.222952 -435.648458 
L 587.199619 -434.846644 
L 587.159554 -434.044831 
L 586.930442 -433.243017 
L 586.74723 -432.441204 
L 586.000885 -431.639391 
L 585.946184 -430.837577 
L 585.941896 -430.035764 
L 585.891462 -429.23395 
L 585.78611 -428.432137 
L 579.026405 -427.630323 
L 578.747745 -426.82851 
L 578.507967 -426.026697 
L 578.265368 -425.224883 
L 578.181111 -424.42307 
L 578.149268 -423.621256 
L 577.765269 -422.819443 
L 577.64282 -422.017629 
L 574.505414 -421.215816 
L 569.285645 -420.414003 
L 568.75903 -419.612189 
L 568.651999 -418.810376 
L 567.957948 -418.008562 
L 567.287309 -417.206749 
L 566.984912 -416.404935 
L 565.992196 -415.603122 
L 563.891045 -414.801309 
L 562.726938 -413.999495 
L 560.957231 -413.197682 
L 557.200826 -412.395868 
L 556.612769 -411.594055 
L 555.931594 -410.792241 
L 555.92744 -409.990428 
L 544.010008 -409.188615 
L 535.232422 -408.386801 
L 527.833796 -407.584988 
L 527.771759 -406.783174 
L 526.663395 -405.981361 
L 514.998939 -405.179547 
L 513.663347 -404.377734 
L 509.55877 -403.575921 
L 491.648753 -402.774107 
L 479.202319 -401.972294 
L 463.954787 -401.17048 
L 461.868806 -400.368667 
L 458.966158 -399.566853 
L 423.416294 -398.76504 
L 417.029018 -397.963226 
L 411.548142 -397.161413 
L 409.552963 -396.3596 
L 409.075872 -395.557786 
L 379.656026 -394.755973 
L 368.55628 -393.954159 
L 367.135372 -393.152346 
L 358.590229 -392.350532 
L 353.345436 -391.548719 
L 351.855636 -390.746906 
L 332.538363 -389.945092 
L 316.859288 -389.143279 
L 309.480973 -388.341465 
L 291.216667 -387.539652 
z
" style="stroke: #00aa88; stroke-opacity: 0.7"/>
    </defs>
    <g clip-path="url(#p781180af52)">
     <use xlink:href="#mf5d3ae6136" x="0" y="720" style="fill: #00aa88; fill-opacity: 0.7; stroke: #00aa88; stroke-opacity: 0.7"/>
    </g>
   </g>
   <g id="PolyCollection_8">
    <defs>
     <path id="ma05a2a2aec" d="M 479.394216 -446.072032 
L 364.613281 -446.072032 
L 364.613281 -446.873846 
L 364.613281 -447.675659 
L 364.613281 -448.477473 
L 364.613281 -449.279286 
L 364.613281 -450.081099 
L 364.613281 -450.882913 
L 364.613281 -451.684726 
L 364.613281 -452.48654 
L 364.613281 -453.288353 
L 364.613281 -454.090167 
L 364.613281 -454.89198 
L 364.613281 -455.693793 
L 364.613281 -456.495607 
L 364.613281 -457.29742 
L 364.613281 -458.099234 
L 364.613281 -458.901047 
L 364.613281 -459.702861 
L 364.613281 -460.504674 
L 364.613281 -461.306487 
L 364.613281 -462.108301 
L 364.613281 -462.910114 
L 364.613281 -463.711928 
L 364.613281 -464.513741 
L 364.613281 -465.315555 
L 364.613281 -466.117368 
L 364.613281 -466.919182 
L 364.613281 -467.720995 
L 364.613281 -468.522808 
L 364.613281 -469.324622 
L 364.613281 -470.126435 
L 364.613281 -470.928249 
L 364.613281 -471.730062 
L 364.613281 -472.531876 
L 364.613281 -473.333689 
L 364.613281 -474.135502 
L 364.613281 -474.937316 
L 364.613281 -475.739129 
L 364.613281 -476.540943 
L 364.613281 -477.342756 
L 364.613281 -478.14457 
L 364.613281 -478.946383 
L 364.613281 -479.748196 
L 364.613281 -480.55001 
L 364.613281 -481.351823 
L 364.613281 -482.153637 
L 364.613281 -482.95545 
L 364.613281 -483.757264 
L 364.613281 -484.559077 
L 364.613281 -485.36089 
L 364.613281 -486.162704 
L 364.613281 -486.964517 
L 364.613281 -487.766331 
L 364.613281 -488.568144 
L 364.613281 -489.369958 
L 364.613281 -490.171771 
L 364.613281 -490.973584 
L 364.613281 -491.775398 
L 364.613281 -492.577211 
L 364.613281 -493.379025 
L 364.613281 -494.180838 
L 364.613281 -494.982652 
L 364.613281 -495.784465 
L 364.613281 -496.586278 
L 364.613281 -497.388092 
L 364.613281 -498.189905 
L 364.613281 -498.991719 
L 364.613281 -499.793532 
L 364.613281 -500.595346 
L 364.613281 -501.397159 
L 364.613281 -502.198972 
L 364.613281 -503.000786 
L 364.613281 -503.802599 
L 364.613281 -504.604413 
L 364.613281 -505.406226 
L 364.613281 -506.20804 
L 364.613281 -507.009853 
L 364.613281 -507.811666 
L 364.613281 -508.61348 
L 364.613281 -509.415293 
L 364.613281 -510.217107 
L 364.613281 -511.01892 
L 364.613281 -511.820734 
L 364.613281 -512.622547 
L 364.613281 -513.42436 
L 364.613281 -514.226174 
L 364.613281 -515.027987 
L 364.613281 -515.829801 
L 364.613281 -516.631614 
L 364.613281 -517.433428 
L 364.613281 -518.235241 
L 364.613281 -519.037054 
L 364.613281 -519.838868 
L 364.613281 -520.640681 
L 364.613281 -521.442495 
L 364.613281 -522.244308 
L 364.613281 -523.046122 
L 364.613281 -523.847935 
L 364.613281 -524.649748 
L 364.613281 -525.451562 
L 364.613281 -526.253375 
L 364.613281 -527.055189 
L 364.613281 -527.857002 
L 364.613281 -528.658816 
L 364.613281 -529.460629 
L 364.613281 -530.262443 
L 364.613281 -531.064256 
L 364.613281 -531.866069 
L 364.613281 -532.667883 
L 364.613281 -533.469696 
L 364.613281 -534.27151 
L 364.613281 -535.073323 
L 364.613281 -535.875137 
L 364.613281 -536.67695 
L 364.613281 -537.478763 
L 364.613281 -538.280577 
L 364.613281 -539.08239 
L 364.613281 -539.884204 
L 364.613281 -540.686017 
L 364.613281 -541.487831 
L 364.613281 -542.289644 
L 364.613281 -543.091457 
L 364.613281 -543.893271 
L 364.613281 -544.695084 
L 364.613281 -545.496898 
L 364.613281 -546.298711 
L 364.613281 -547.100525 
L 364.613281 -547.902338 
L 364.613281 -548.704151 
L 364.613281 -549.505965 
L 364.613281 -550.307778 
L 364.613281 -551.109592 
L 364.613281 -551.911405 
L 364.613281 -552.713219 
L 364.613281 -553.515032 
L 364.613281 -554.316845 
L 364.613281 -555.118659 
L 364.613281 -555.920472 
L 364.613281 -556.722286 
L 364.613281 -557.524099 
L 364.613281 -558.325913 
L 364.613281 -559.127726 
L 364.613281 -559.929539 
L 364.613281 -560.731353 
L 364.613281 -561.533166 
L 364.613281 -562.33498 
L 364.613281 -563.136793 
L 364.613281 -563.938607 
L 364.613281 -564.74042 
L 364.613281 -565.542233 
L 364.613281 -566.344047 
L 364.613281 -567.14586 
L 364.613281 -567.947674 
L 364.613281 -568.749487 
L 364.613281 -569.551301 
L 364.613281 -570.353114 
L 364.613281 -571.154927 
L 364.613281 -571.956741 
L 364.613281 -572.758554 
L 364.613281 -573.560368 
L 364.613281 -574.362181 
L 364.613281 -575.163995 
L 364.613281 -575.965808 
L 364.613281 -576.767621 
L 364.613281 -577.569435 
L 364.613281 -578.371248 
L 364.613281 -579.173062 
L 364.613281 -579.974875 
L 364.613281 -580.776689 
L 364.613281 -581.578502 
L 364.613281 -582.380315 
L 364.613281 -583.182129 
L 364.613281 -583.983942 
L 364.613281 -584.785756 
L 364.613281 -585.587569 
L 364.613281 -586.389383 
L 364.613281 -587.191196 
L 364.613281 -587.993009 
L 364.613281 -588.794823 
L 364.613281 -589.596636 
L 364.613281 -590.39845 
L 364.613281 -591.200263 
L 364.613281 -592.002077 
L 364.613281 -592.80389 
L 364.613281 -593.605704 
L 364.613281 -594.407517 
L 364.613281 -595.20933 
L 364.613281 -596.011144 
L 364.613281 -596.812957 
L 364.613281 -597.614771 
L 364.613281 -598.416584 
L 364.613281 -599.218398 
L 364.613281 -600.020211 
L 364.613281 -600.822024 
L 364.613281 -601.623838 
L 364.613281 -602.425651 
L 364.613281 -603.227465 
L 364.613281 -604.029278 
L 364.613281 -604.831092 
L 364.613281 -605.632905 
L 364.613281 -606.434718 
L 605.480744 -606.434718 
L 605.480744 -606.434718 
L 605.156069 -605.632905 
L 604.462694 -604.831092 
L 602.817213 -604.029278 
L 602.381402 -603.227465 
L 601.374527 -602.425651 
L 601.226618 -601.623838 
L 600.927927 -600.822024 
L 600.892581 -600.020211 
L 600.093991 -599.218398 
L 599.497186 -598.416584 
L 598.497314 -597.614771 
L 598.136864 -596.812957 
L 598.060053 -596.011144 
L 598.00846 -595.20933 
L 596.574682 -594.407517 
L 596.413702 -593.605704 
L 596.062038 -592.80389 
L 595.526215 -592.002077 
L 595.060499 -591.200263 
L 595.046995 -590.39845 
L 594.836535 -589.596636 
L 594.574204 -588.794823 
L 594.398718 -587.993009 
L 594.172741 -587.191196 
L 593.981616 -586.389383 
L 593.63662 -585.587569 
L 593.413626 -584.785756 
L 592.655365 -583.983942 
L 592.318987 -583.182129 
L 592.014569 -582.380315 
L 591.694347 -581.578502 
L 591.123325 -580.776689 
L 591.106844 -579.974875 
L 590.43046 -579.173062 
L 590.3533 -578.371248 
L 590.306944 -577.569435 
L 590.267872 -576.767621 
L 589.763593 -575.965808 
L 589.750814 -575.163995 
L 589.607086 -574.362181 
L 589.424341 -573.560368 
L 589.284917 -572.758554 
L 588.681366 -571.956741 
L 587.76708 -571.154927 
L 587.570366 -570.353114 
L 586.992909 -569.551301 
L 586.891747 -568.749487 
L 586.803847 -567.947674 
L 586.482591 -567.14586 
L 586.479741 -566.344047 
L 586.315903 -565.542233 
L 586.256268 -564.74042 
L 586.225156 -563.938607 
L 586.17598 -563.136793 
L 586.046511 -562.33498 
L 585.974633 -561.533166 
L 585.885909 -560.731353 
L 585.874437 -559.929539 
L 585.623883 -559.127726 
L 585.458164 -558.325913 
L 585.285768 -557.524099 
L 585.033069 -556.722286 
L 584.919557 -555.920472 
L 584.908818 -555.118659 
L 584.723471 -554.316845 
L 584.68821 -553.515032 
L 584.659081 -552.713219 
L 583.29747 -551.911405 
L 582.881862 -551.109592 
L 582.681418 -550.307778 
L 582.627522 -549.505965 
L 581.936636 -548.704151 
L 581.55865 -547.902338 
L 581.52528 -547.100525 
L 581.501747 -546.298711 
L 581.004662 -545.496898 
L 580.979052 -544.695084 
L 580.976491 -543.893271 
L 580.820456 -543.091457 
L 579.994818 -542.289644 
L 579.470439 -541.487831 
L 579.276531 -540.686017 
L 579.045198 -539.884204 
L 579.042013 -539.08239 
L 578.976377 -538.280577 
L 578.792872 -537.478763 
L 578.506774 -536.67695 
L 577.604786 -535.875137 
L 577.110714 -535.073323 
L 577.027037 -534.27151 
L 576.559818 -533.469696 
L 576.490583 -532.667883 
L 576.449236 -531.866069 
L 576.108514 -531.064256 
L 576.053484 -530.262443 
L 575.6523 -529.460629 
L 575.407585 -528.658816 
L 575.316632 -527.857002 
L 575.23243 -527.055189 
L 574.761956 -526.253375 
L 574.704953 -525.451562 
L 574.688205 -524.649748 
L 574.119234 -523.847935 
L 573.878707 -523.046122 
L 573.853714 -522.244308 
L 573.380098 -521.442495 
L 573.022462 -520.640681 
L 572.440651 -519.838868 
L 572.030269 -519.037054 
L 571.849937 -518.235241 
L 571.293656 -517.433428 
L 571.028035 -516.631614 
L 570.547476 -515.829801 
L 570.004578 -515.027987 
L 569.829833 -514.226174 
L 569.756462 -513.42436 
L 569.627459 -512.622547 
L 569.328478 -511.820734 
L 569.24705 -511.01892 
L 568.900952 -510.217107 
L 568.362261 -509.415293 
L 568.234798 -508.61348 
L 568.155843 -507.811666 
L 568.012265 -507.009853 
L 567.424171 -506.20804 
L 567.148783 -505.406226 
L 566.943772 -504.604413 
L 566.802419 -503.802599 
L 565.69566 -503.000786 
L 565.344011 -502.198972 
L 564.634081 -501.397159 
L 564.455613 -500.595346 
L 563.707315 -499.793532 
L 563.45946 -498.991719 
L 563.400373 -498.189905 
L 563.207158 -497.388092 
L 562.868595 -496.586278 
L 562.660802 -495.784465 
L 562.593303 -494.982652 
L 562.337132 -494.180838 
L 562.261291 -493.379025 
L 561.153592 -492.577211 
L 561.13671 -491.775398 
L 561.13399 -490.973584 
L 560.266568 -490.171771 
L 560.20586 -489.369958 
L 559.623702 -488.568144 
L 558.681517 -487.766331 
L 558.413336 -486.964517 
L 558.367316 -486.162704 
L 557.262249 -485.36089 
L 555.069932 -484.559077 
L 555.025225 -483.757264 
L 554.991563 -482.95545 
L 554.900551 -482.153637 
L 554.312284 -481.351823 
L 553.541182 -480.55001 
L 552.739106 -479.748196 
L 552.473012 -478.946383 
L 552.297923 -478.14457 
L 551.413531 -477.342756 
L 551.204448 -476.540943 
L 550.371082 -475.739129 
L 550.215232 -474.937316 
L 549.199585 -474.135502 
L 549.100627 -473.333689 
L 548.742749 -472.531876 
L 548.572336 -471.730062 
L 548.349973 -470.928249 
L 547.376052 -470.126435 
L 546.936555 -469.324622 
L 546.778581 -468.522808 
L 546.567784 -467.720995 
L 545.411297 -466.919182 
L 544.965867 -466.117368 
L 544.355231 -465.315555 
L 544.022042 -464.513741 
L 542.164651 -463.711928 
L 541.341833 -462.910114 
L 541.234657 -462.108301 
L 540.932471 -461.306487 
L 540.006981 -460.504674 
L 539.356047 -459.702861 
L 536.099397 -458.901047 
L 532.464836 -458.099234 
L 531.681001 -457.29742 
L 531.618522 -456.495607 
L 530.578926 -455.693793 
L 528.474784 -454.89198 
L 527.28253 -454.090167 
L 526.130154 -453.288353 
L 523.250906 -452.48654 
L 520.669586 -451.684726 
L 511.72541 -450.882913 
L 509.067652 -450.081099 
L 502.384469 -449.279286 
L 496.911284 -448.477473 
L 494.744169 -447.675659 
L 493.993738 -446.873846 
L 479.394216 -446.072032 
z
" style="stroke: #00a400; stroke-opacity: 0.7"/>
    </defs>
    <g clip-path="url(#p781180af52)">
     <use xlink:href="#ma05a2a2aec" x="0" y="720" style="fill: #00a400; fill-opacity: 0.7; stroke: #00a400; stroke-opacity: 0.7"/>
    </g>
   </g>
   <g id="PolyCollection_9">
    <defs>
     <path id="mf8aa51152a" d="M 616.393437 -615.254666 
L 364.613281 -615.254666 
L 364.613281 -616.05648 
L 364.613281 -616.858293 
L 364.613281 -617.660106 
L 364.613281 -618.46192 
L 364.613281 -619.263733 
L 364.613281 -620.065547 
L 364.613281 -620.86736 
L 364.613281 -621.669174 
L 652.369967 -621.669174 
L 652.369967 -621.669174 
L 651.25996 -620.86736 
L 647.852052 -620.065547 
L 637.385175 -619.263733 
L 636.920185 -618.46192 
L 634.019094 -617.660106 
L 623.370909 -616.858293 
L 620.739217 -616.05648 
L 616.393437 -615.254666 
z
" style="stroke: #00d200; stroke-opacity: 0.7"/>
    </defs>
    <g clip-path="url(#p781180af52)">
     <use xlink:href="#mf8aa51152a" x="0" y="720" style="fill: #00d200; fill-opacity: 0.7; stroke: #00d200; stroke-opacity: 0.7"/>
    </g>
   </g>
   <g id="PolyCollection_10">
    <defs>
     <path id="ma37118f319" d="M 434.759741 -630.489121 
L 364.613281 -630.489121 
L 364.613281 -631.290935 
L 364.613281 -632.092748 
L 364.613281 -632.894562 
L 364.613281 -633.696375 
L 364.613281 -634.498188 
L 364.613281 -635.300002 
L 491.625067 -635.300002 
L 491.625067 -635.300002 
L 486.595062 -634.498188 
L 485.170581 -633.696375 
L 484.891334 -632.894562 
L 476.446723 -632.092748 
L 446.642462 -631.290935 
L 434.759741 -630.489121 
z
" style="stroke: #00ff00; stroke-opacity: 0.7"/>
    </defs>
    <g clip-path="url(#p781180af52)">
     <use xlink:href="#ma37118f319" x="0" y="720" style="fill: #00ff00; fill-opacity: 0.7; stroke: #00ff00; stroke-opacity: 0.7"/>
    </g>
   </g>
   <g id="PolyCollection_11">
    <defs>
     <path id="m464106eaca" d="M 584.899195 -644.11995 
L 364.613281 -644.11995 
L 364.613281 -644.921763 
L 364.613281 -645.723576 
L 364.613281 -646.52539 
L 364.613281 -647.327203 
L 364.613281 -648.129017 
L 364.613281 -648.93083 
L 364.613281 -649.732644 
L 638.363925 -649.732644 
L 638.363925 -649.732644 
L 636.964076 -648.93083 
L 626.506057 -648.129017 
L 620.732339 -647.327203 
L 617.579697 -646.52539 
L 599.130041 -645.723576 
L 593.085598 -644.921763 
L 584.899195 -644.11995 
z
" style="stroke: #ccf900; stroke-opacity: 0.7"/>
    </defs>
    <g clip-path="url(#p781180af52)">
     <use xlink:href="#m464106eaca" x="0" y="720" style="fill: #ccf900; fill-opacity: 0.7; stroke: #ccf900; stroke-opacity: 0.7"/>
    </g>
   </g>
   <g id="PolyCollection_12">
    <defs>
     <path id="ma9e96a954f" d="M 404.526068 -658.552591 
L 364.613281 -658.552591 
L 364.613281 -659.354405 
L 364.613281 -660.156218 
L 364.613281 -660.958032 
L 364.613281 -661.759845 
L 364.613281 -662.561659 
L 364.613281 -663.363472 
L 364.613281 -664.165285 
L 526.835074 -664.165285 
L 526.835074 -664.165285 
L 513.339065 -663.363472 
L 509.632434 -662.561659 
L 487.687584 -661.759845 
L 481.28023 -660.958032 
L 479.81211 -660.156218 
L 451.912182 -659.354405 
L 404.526068 -658.552591 
z
" style="stroke: #f9d700; stroke-opacity: 0.7"/>
    </defs>
    <g clip-path="url(#p781180af52)">
     <use xlink:href="#ma9e96a954f" x="0" y="720" style="fill: #f9d700; fill-opacity: 0.7; stroke: #f9d700; stroke-opacity: 0.7"/>
    </g>
   </g>
   <g id="PolyCollection_13">
    <defs>
     <path id="mc458a89c23" d="M 432.890252 -672.985233 
L 364.613281 -672.985233 
L 364.613281 -673.787047 
L 364.613281 -674.58886 
L 364.613281 -675.390673 
L 364.613281 -676.192487 
L 364.613281 -676.9943 
L 364.613281 -677.796114 
L 364.613281 -678.597927 
L 364.613281 -679.399741 
L 579.657291 -679.399741 
L 579.657291 -679.399741 
L 579.541264 -678.597927 
L 579.162091 -677.796114 
L 567.45339 -676.9943 
L 535.215395 -676.192487 
L 519.898438 -675.390673 
L 511.723712 -674.58886 
L 510.225299 -673.787047 
L 432.890252 -672.985233 
z
" style="stroke: #ff9900; stroke-opacity: 0.7"/>
    </defs>
    <g clip-path="url(#p781180af52)">
     <use xlink:href="#mc458a89c23" x="0" y="720" style="fill: #ff9900; fill-opacity: 0.7; stroke: #ff9900; stroke-opacity: 0.7"/>
    </g>
   </g>
   <g id="PolyCollection_14">
    <defs>
     <path id="m015ffa56a7" d="M 655.218994 -688.219688 
L 364.613281 -688.219688 
L 364.613281 -689.021502 
L 364.613281 -689.823315 
L 678.209783 -689.823315 
L 678.209783 -689.823315 
L 677.76315 -689.021502 
L 655.218994 -688.219688 
z
" style="stroke: #f40000; stroke-opacity: 0.7"/>
    </defs>
    <g clip-path="url(#p781180af52)">
     <use xlink:href="#m015ffa56a7" x="0" y="720" style="fill: #f40000; fill-opacity: 0.7; stroke: #f40000; stroke-opacity: 0.7"/>
    </g>
   </g>
   <g id="PolyCollection_15">
    <defs>
     <path id="m9266958623" d="M 539.680326 -698.643263 
L 364.613281 -698.643263 
L 364.613281 -699.445076 
L 542.620647 -699.445076 
L 542.620647 -699.445076 
L 539.680326 -698.643263 
z
" style="stroke: #d20000; stroke-opacity: 0.7"/>
    </defs>
    <g clip-path="url(#p781180af52)">
     <use xlink:href="#m9266958623" x="0" y="720" style="fill: #d20000; fill-opacity: 0.7; stroke: #d20000; stroke-opacity: 0.7"/>
    </g>
   </g>
   <g id="matplotlib.axis_1">
    <g id="xtick_1">
     <g id="line2d_1">
      <defs>
       <path id="m259ba6f309" d="M 0 0 
L 0 3.5 
" style="stroke: #000000; stroke-width: 0.8"/>
      </defs>
      <g>
       <use xlink:href="#m259ba6f309" x="27.978125" y="678.84375" style="stroke: #000000; stroke-width: 0.8"/>
      </g>
     </g>
     <g id="text_1">
      <!-- −1.0 -->
      <g transform="translate(15.836719 693.442188) scale(0.1 -0.1)">
       <defs>
        <path id="DejaVuSans-2212" d="M 678 2272 
L 4684 2272 
L 4684 1741 
L 678 1741 
L 678 2272 
z
" transform="scale(0.015625)"/>
        <path id="DejaVuSans-31" d="M 794 531 
L 1825 531 
L 1825 4091 
L 703 3866 
L 703 4441 
L 1819 4666 
L 2450 4666 
L 2450 531 
L 3481 531 
L 3481 0 
L 794 0 
L 794 531 
z
" transform="scale(0.015625)"/>
        <path id="DejaVuSans-2e" d="M 684 794 
L 1344 794 
L 1344 0 
L 684 0 
L 684 794 
z
" transform="scale(0.015625)"/>
        <path id="DejaVuSans-30" d="M 2034 4250 
Q 1547 4250 1301 3770 
Q 1056 3291 1056 2328 
Q 1056 1369 1301 889 
Q 1547 409 2034 409 
Q 2525 409 2770 889 
Q 3016 1369 3016 2328 
Q 3016 3291 2770 3770 
Q 2525 4250 2034 4250 
z
M 2034 4750 
Q 2819 4750 3233 4129 
Q 3647 3509 3647 2328 
Q 3647 1150 3233 529 
Q 2819 -91 2034 -91 
Q 1250 -91 836 529 
Q 422 1150 422 2328 
Q 422 3509 836 4129 
Q 1250 4750 2034 4750 
z
" transform="scale(0.015625)"/>
       </defs>
       <use xlink:href="#DejaVuSans-2212"/>
       <use xlink:href="#DejaVuSans-31" x="83.789062"/>
       <use xlink:href="#DejaVuSans-2e" x="147.412109"/>
       <use xlink:href="#DejaVuSans-30" x="179.199219"/>
      </g>
     </g>
    </g>
    <g id="xtick_2">
     <g id="line2d_2">
      <g>
       <use xlink:href="#m259ba6f309" x="95.305156" y="678.84375" style="stroke: #000000; stroke-width: 0.8"/>
      </g>
     </g>
     <g id="text_2">
      <!-- −0.8 -->
      <g transform="translate(83.16375 693.442188) scale(0.1 -0.1)">
       <defs>
        <path id="DejaVuSans-38" d="M 2034 2216 
Q 1584 2216 1326 1975 
Q 1069 1734 1069 1313 
Q 1069 891 1326 650 
Q 1584 409 2034 409 
Q 2484 409 2743 651 
Q 3003 894 3003 1313 
Q 3003 1734 2745 1975 
Q 2488 2216 2034 2216 
z
M 1403 2484 
Q 997 2584 770 2862 
Q 544 3141 544 3541 
Q 544 4100 942 4425 
Q 1341 4750 2034 4750 
Q 2731 4750 3128 4425 
Q 3525 4100 3525 3541 
Q 3525 3141 3298 2862 
Q 3072 2584 2669 2484 
Q 3125 2378 3379 2068 
Q 3634 1759 3634 1313 
Q 3634 634 3220 271 
Q 2806 -91 2034 -91 
Q 1263 -91 848 271 
Q 434 634 434 1313 
Q 434 1759 690 2068 
Q 947 2378 1403 2484 
z
M 1172 3481 
Q 1172 3119 1398 2916 
Q 1625 2713 2034 2713 
Q 2441 2713 2670 2916 
Q 2900 3119 2900 3481 
Q 2900 3844 2670 4047 
Q 2441 4250 2034 4250 
Q 1625 4250 1398 4047 
Q 1172 3844 1172 3481 
z
" transform="scale(0.015625)"/>
       </defs>
       <use xlink:href="#DejaVuSans-2212"/>
       <use xlink:href="#DejaVuSans-30" x="83.789062"/>
       <use xlink:href="#DejaVuSans-2e" x="147.412109"/>
       <use xlink:href="#DejaVuSans-38" x="179.199219"/>
      </g>
     </g>
    </g>
    <g id="xtick_3">
     <g id="line2d_3">
      <g>
       <use xlink:href="#m259ba6f309" x="162.632188" y="678.84375" style="stroke: #000000; stroke-width: 0.8"/>
      </g>
     </g>
     <g id="text_3">
      <!-- −0.6 -->
      <g transform="translate(150.490781 693.442188) scale(0.1 -0.1)">
       <defs>
        <path id="DejaVuSans-36" d="M 2113 2584 
Q 1688 2584 1439 2293 
Q 1191 2003 1191 1497 
Q 1191 994 1439 701 
Q 1688 409 2113 409 
Q 2538 409 2786 701 
Q 3034 994 3034 1497 
Q 3034 2003 2786 2293 
Q 2538 2584 2113 2584 
z
M 3366 4563 
L 3366 3988 
Q 3128 4100 2886 4159 
Q 2644 4219 2406 4219 
Q 1781 4219 1451 3797 
Q 1122 3375 1075 2522 
Q 1259 2794 1537 2939 
Q 1816 3084 2150 3084 
Q 2853 3084 3261 2657 
Q 3669 2231 3669 1497 
Q 3669 778 3244 343 
Q 2819 -91 2113 -91 
Q 1303 -91 875 529 
Q 447 1150 447 2328 
Q 447 3434 972 4092 
Q 1497 4750 2381 4750 
Q 2619 4750 2861 4703 
Q 3103 4656 3366 4563 
z
" transform="scale(0.015625)"/>
       </defs>
       <use xlink:href="#DejaVuSans-2212"/>
       <use xlink:href="#DejaVuSans-30" x="83.789062"/>
       <use xlink:href="#DejaVuSans-2e" x="147.412109"/>
       <use xlink:href="#DejaVuSans-36" x="179.199219"/>
      </g>
     </g>
    </g>
    <g id="xtick_4">
     <g id="line2d_4">
      <g>
       <use xlink:href="#m259ba6f309" x="229.959219" y="678.84375" style="stroke: #000000; stroke-width: 0.8"/>
      </g>
     </g>
     <g id="text_4">
      <!-- −0.4 -->
      <g transform="translate(217.817813 693.442188) scale(0.1 -0.1)">
       <defs>
        <path id="DejaVuSans-34" d="M 2419 4116 
L 825 1625 
L 2419 1625 
L 2419 4116 
z
M 2253 4666 
L 3047 4666 
L 3047 1625 
L 3713 1625 
L 3713 1100 
L 3047 1100 
L 3047 0 
L 2419 0 
L 2419 1100 
L 313 1100 
L 313 1709 
L 2253 4666 
z
" transform="scale(0.015625)"/>
       </defs>
       <use xlink:href="#DejaVuSans-2212"/>
       <use xlink:href="#DejaVuSans-30" x="83.789062"/>
       <use xlink:href="#DejaVuSans-2e" x="147.412109"/>
       <use xlink:href="#DejaVuSans-34" x="179.199219"/>
      </g>
     </g>
    </g>
    <g id="xtick_5">
     <g id="line2d_5">
      <g>
       <use xlink:href="#m259ba6f309" x="297.28625" y="678.84375" style="stroke: #000000; stroke-width: 0.8"/>
      </g>
     </g>
     <g id="text_5">
      <!-- −0.2 -->
      <g transform="translate(285.144844 693.442188) scale(0.1 -0.1)">
       <defs>
        <path id="DejaVuSans-32" d="M 1228 531 
L 3431 531 
L 3431 0 
L 469 0 
L 469 531 
Q 828 903 1448 1529 
Q 2069 2156 2228 2338 
Q 2531 2678 2651 2914 
Q 2772 3150 2772 3378 
Q 2772 3750 2511 3984 
Q 2250 4219 1831 4219 
Q 1534 4219 1204 4116 
Q 875 4013 500 3803 
L 500 4441 
Q 881 4594 1212 4672 
Q 1544 4750 1819 4750 
Q 2544 4750 2975 4387 
Q 3406 4025 3406 3419 
Q 3406 3131 3298 2873 
Q 3191 2616 2906 2266 
Q 2828 2175 2409 1742 
Q 1991 1309 1228 531 
z
" transform="scale(0.015625)"/>
       </defs>
       <use xlink:href="#DejaVuSans-2212"/>
       <use xlink:href="#DejaVuSans-30" x="83.789062"/>
       <use xlink:href="#DejaVuSans-2e" x="147.412109"/>
       <use xlink:href="#DejaVuSans-32" x="179.199219"/>
      </g>
     </g>
    </g>
    <g id="xtick_6">
     <g id="line2d_6">
      <g>
       <use xlink:href="#m259ba6f309" x="364.613281" y="678.84375" style="stroke: #000000; stroke-width: 0.8"/>
      </g>
     </g>
     <g id="text_6">
      <!-- 0.0 -->
      <g transform="translate(356.661719 693.442188) scale(0.1 -0.1)">
       <use xlink:href="#DejaVuSans-30"/>
       <use xlink:href="#DejaVuSans-2e" x="63.623047"/>
       <use xlink:href="#DejaVuSans-30" x="95.410156"/>
      </g>
     </g>
    </g>
    <g id="xtick_7">
     <g id="line2d_7">
      <g>
       <use xlink:href="#m259ba6f309" x="431.940313" y="678.84375" style="stroke: #000000; stroke-width: 0.8"/>
      </g>
     </g>
     <g id="text_7">
      <!-- 0.2 -->
      <g transform="translate(423.98875 693.442188) scale(0.1 -0.1)">
       <use xlink:href="#DejaVuSans-30"/>
       <use xlink:href="#DejaVuSans-2e" x="63.623047"/>
       <use xlink:href="#DejaVuSans-32" x="95.410156"/>
      </g>
     </g>
    </g>
    <g id="xtick_8">
     <g id="line2d_8">
      <g>
       <use xlink:href="#m259ba6f309" x="499.267344" y="678.84375" style="stroke: #000000; stroke-width: 0.8"/>
      </g>
     </g>
     <g id="text_8">
      <!-- 0.4 -->
      <g transform="translate(491.315781 693.442188) scale(0.1 -0.1)">
       <use xlink:href="#DejaVuSans-30"/>
       <use xlink:href="#DejaVuSans-2e" x="63.623047"/>
       <use xlink:href="#DejaVuSans-34" x="95.410156"/>
      </g>
     </g>
    </g>
    <g id="xtick_9">
     <g id="line2d_9">
      <g>
       <use xlink:href="#m259ba6f309" x="566.594375" y="678.84375" style="stroke: #000000; stroke-width: 0.8"/>
      </g>
     </g>
     <g id="text_9">
      <!-- 0.6 -->
      <g transform="translate(558.642812 693.442188) scale(0.1 -0.1)">
       <use xlink:href="#DejaVuSans-30"/>
       <use xlink:href="#DejaVuSans-2e" x="63.623047"/>
       <use xlink:href="#DejaVuSans-36" x="95.410156"/>
      </g>
     </g>
    </g>
    <g id="xtick_10">
     <g id="line2d_10">
      <g>
       <use xlink:href="#m259ba6f309" x="633.921406" y="678.84375" style="stroke: #000000; stroke-width: 0.8"/>
      </g>
     </g>
     <g id="text_10">
      <!-- 0.8 -->
      <g transform="translate(625.969844 693.442188) scale(0.1 -0.1)">
       <use xlink:href="#DejaVuSans-30"/>
       <use xlink:href="#DejaVuSans-2e" x="63.623047"/>
       <use xlink:href="#DejaVuSans-38" x="95.410156"/>
      </g>
     </g>
    </g>
    <g id="xtick_11">
     <g id="line2d_11">
      <g>
       <use xlink:href="#m259ba6f309" x="701.248437" y="678.84375" style="stroke: #000000; stroke-width: 0.8"/>
      </g>
     </g>
     <g id="text_11">
      <!-- 1.0 -->
      <g transform="translate(693.296875 693.442188) scale(0.1 -0.1)">
       <use xlink:href="#DejaVuSans-31"/>
       <use xlink:href="#DejaVuSans-2e" x="63.623047"/>
       <use xlink:href="#DejaVuSans-30" x="95.410156"/>
      </g>
     </g>
    </g>
    <g id="text_12">
     <!-- Silhouette coefficient -->
     <g transform="translate(311.463281 707.120313) scale(0.1 -0.1)">
      <defs>
       <path id="DejaVuSans-53" d="M 3425 4513 
L 3425 3897 
Q 3066 4069 2747 4153 
Q 2428 4238 2131 4238 
Q 1616 4238 1336 4038 
Q 1056 3838 1056 3469 
Q 1056 3159 1242 3001 
Q 1428 2844 1947 2747 
L 2328 2669 
Q 3034 2534 3370 2195 
Q 3706 1856 3706 1288 
Q 3706 609 3251 259 
Q 2797 -91 1919 -91 
Q 1588 -91 1214 -16 
Q 841 59 441 206 
L 441 856 
Q 825 641 1194 531 
Q 1563 422 1919 422 
Q 2459 422 2753 634 
Q 3047 847 3047 1241 
Q 3047 1584 2836 1778 
Q 2625 1972 2144 2069 
L 1759 2144 
Q 1053 2284 737 2584 
Q 422 2884 422 3419 
Q 422 4038 858 4394 
Q 1294 4750 2059 4750 
Q 2388 4750 2728 4690 
Q 3069 4631 3425 4513 
z
" transform="scale(0.015625)"/>
       <path id="DejaVuSans-69" d="M 603 3500 
L 1178 3500 
L 1178 0 
L 603 0 
L 603 3500 
z
M 603 4863 
L 1178 4863 
L 1178 4134 
L 603 4134 
L 603 4863 
z
" transform="scale(0.015625)"/>
       <path id="DejaVuSans-6c" d="M 603 4863 
L 1178 4863 
L 1178 0 
L 603 0 
L 603 4863 
z
" transform="scale(0.015625)"/>
       <path id="DejaVuSans-68" d="M 3513 2113 
L 3513 0 
L 2938 0 
L 2938 2094 
Q 2938 2591 2744 2837 
Q 2550 3084 2163 3084 
Q 1697 3084 1428 2787 
Q 1159 2491 1159 1978 
L 1159 0 
L 581 0 
L 581 4863 
L 1159 4863 
L 1159 2956 
Q 1366 3272 1645 3428 
Q 1925 3584 2291 3584 
Q 2894 3584 3203 3211 
Q 3513 2838 3513 2113 
z
" transform="scale(0.015625)"/>
       <path id="DejaVuSans-6f" d="M 1959 3097 
Q 1497 3097 1228 2736 
Q 959 2375 959 1747 
Q 959 1119 1226 758 
Q 1494 397 1959 397 
Q 2419 397 2687 759 
Q 2956 1122 2956 1747 
Q 2956 2369 2687 2733 
Q 2419 3097 1959 3097 
z
M 1959 3584 
Q 2709 3584 3137 3096 
Q 3566 2609 3566 1747 
Q 3566 888 3137 398 
Q 2709 -91 1959 -91 
Q 1206 -91 779 398 
Q 353 888 353 1747 
Q 353 2609 779 3096 
Q 1206 3584 1959 3584 
z
" transform="scale(0.015625)"/>
       <path id="DejaVuSans-75" d="M 544 1381 
L 544 3500 
L 1119 3500 
L 1119 1403 
Q 1119 906 1312 657 
Q 1506 409 1894 409 
Q 2359 409 2629 706 
Q 2900 1003 2900 1516 
L 2900 3500 
L 3475 3500 
L 3475 0 
L 2900 0 
L 2900 538 
Q 2691 219 2414 64 
Q 2138 -91 1772 -91 
Q 1169 -91 856 284 
Q 544 659 544 1381 
z
M 1991 3584 
L 1991 3584 
z
" transform="scale(0.015625)"/>
       <path id="DejaVuSans-65" d="M 3597 1894 
L 3597 1613 
L 953 1613 
Q 991 1019 1311 708 
Q 1631 397 2203 397 
Q 2534 397 2845 478 
Q 3156 559 3463 722 
L 3463 178 
Q 3153 47 2828 -22 
Q 2503 -91 2169 -91 
Q 1331 -91 842 396 
Q 353 884 353 1716 
Q 353 2575 817 3079 
Q 1281 3584 2069 3584 
Q 2775 3584 3186 3129 
Q 3597 2675 3597 1894 
z
M 3022 2063 
Q 3016 2534 2758 2815 
Q 2500 3097 2075 3097 
Q 1594 3097 1305 2825 
Q 1016 2553 972 2059 
L 3022 2063 
z
" transform="scale(0.015625)"/>
       <path id="DejaVuSans-74" d="M 1172 4494 
L 1172 3500 
L 2356 3500 
L 2356 3053 
L 1172 3053 
L 1172 1153 
Q 1172 725 1289 603 
Q 1406 481 1766 481 
L 2356 481 
L 2356 0 
L 1766 0 
Q 1100 0 847 248 
Q 594 497 594 1153 
L 594 3053 
L 172 3053 
L 172 3500 
L 594 3500 
L 594 4494 
L 1172 4494 
z
" transform="scale(0.015625)"/>
       <path id="DejaVuSans-20" transform="scale(0.015625)"/>
       <path id="DejaVuSans-63" d="M 3122 3366 
L 3122 2828 
Q 2878 2963 2633 3030 
Q 2388 3097 2138 3097 
Q 1578 3097 1268 2742 
Q 959 2388 959 1747 
Q 959 1106 1268 751 
Q 1578 397 2138 397 
Q 2388 397 2633 464 
Q 2878 531 3122 666 
L 3122 134 
Q 2881 22 2623 -34 
Q 2366 -91 2075 -91 
Q 1284 -91 818 406 
Q 353 903 353 1747 
Q 353 2603 823 3093 
Q 1294 3584 2113 3584 
Q 2378 3584 2631 3529 
Q 2884 3475 3122 3366 
z
" transform="scale(0.015625)"/>
       <path id="DejaVuSans-66" d="M 2375 4863 
L 2375 4384 
L 1825 4384 
Q 1516 4384 1395 4259 
Q 1275 4134 1275 3809 
L 1275 3500 
L 2222 3500 
L 2222 3053 
L 1275 3053 
L 1275 0 
L 697 0 
L 697 3053 
L 147 3053 
L 147 3500 
L 697 3500 
L 697 3744 
Q 697 4328 969 4595 
Q 1241 4863 1831 4863 
L 2375 4863 
z
" transform="scale(0.015625)"/>
       <path id="DejaVuSans-6e" d="M 3513 2113 
L 3513 0 
L 2938 0 
L 2938 2094 
Q 2938 2591 2744 2837 
Q 2550 3084 2163 3084 
Q 1697 3084 1428 2787 
Q 1159 2491 1159 1978 
L 1159 0 
L 581 0 
L 581 3500 
L 1159 3500 
L 1159 2956 
Q 1366 3272 1645 3428 
Q 1925 3584 2291 3584 
Q 2894 3584 3203 3211 
Q 3513 2838 3513 2113 
z
" transform="scale(0.015625)"/>
      </defs>
      <use xlink:href="#DejaVuSans-53"/>
      <use xlink:href="#DejaVuSans-69" x="63.476562"/>
      <use xlink:href="#DejaVuSans-6c" x="91.259766"/>
      <use xlink:href="#DejaVuSans-68" x="119.042969"/>
      <use xlink:href="#DejaVuSans-6f" x="182.421875"/>
      <use xlink:href="#DejaVuSans-75" x="243.603516"/>
      <use xlink:href="#DejaVuSans-65" x="306.982422"/>
      <use xlink:href="#DejaVuSans-74" x="368.505859"/>
      <use xlink:href="#DejaVuSans-74" x="407.714844"/>
      <use xlink:href="#DejaVuSans-65" x="446.923828"/>
      <use xlink:href="#DejaVuSans-20" x="508.447266"/>
      <use xlink:href="#DejaVuSans-63" x="540.234375"/>
      <use xlink:href="#DejaVuSans-6f" x="595.214844"/>
      <use xlink:href="#DejaVuSans-65" x="656.396484"/>
      <use xlink:href="#DejaVuSans-66" x="717.919922"/>
      <use xlink:href="#DejaVuSans-66" x="753.125"/>
      <use xlink:href="#DejaVuSans-69" x="788.330078"/>
      <use xlink:href="#DejaVuSans-63" x="816.113281"/>
      <use xlink:href="#DejaVuSans-69" x="871.09375"/>
      <use xlink:href="#DejaVuSans-65" x="898.876953"/>
      <use xlink:href="#DejaVuSans-6e" x="960.400391"/>
      <use xlink:href="#DejaVuSans-74" x="1023.779297"/>
     </g>
    </g>
   </g>
   <g id="matplotlib.axis_2">
    <g id="text_13">
     <!-- Predicted label -->
     <g transform="translate(18.398438 382.441707) rotate(-90) scale(0.1 -0.1)">
      <defs>
       <path id="DejaVuSans-50" d="M 1259 4147 
L 1259 2394 
L 2053 2394 
Q 2494 2394 2734 2622 
Q 2975 2850 2975 3272 
Q 2975 3691 2734 3919 
Q 2494 4147 2053 4147 
L 1259 4147 
z
M 628 4666 
L 2053 4666 
Q 2838 4666 3239 4311 
Q 3641 3956 3641 3272 
Q 3641 2581 3239 2228 
Q 2838 1875 2053 1875 
L 1259 1875 
L 1259 0 
L 628 0 
L 628 4666 
z
" transform="scale(0.015625)"/>
       <path id="DejaVuSans-72" d="M 2631 2963 
Q 2534 3019 2420 3045 
Q 2306 3072 2169 3072 
Q 1681 3072 1420 2755 
Q 1159 2438 1159 1844 
L 1159 0 
L 581 0 
L 581 3500 
L 1159 3500 
L 1159 2956 
Q 1341 3275 1631 3429 
Q 1922 3584 2338 3584 
Q 2397 3584 2469 3576 
Q 2541 3569 2628 3553 
L 2631 2963 
z
" transform="scale(0.015625)"/>
       <path id="DejaVuSans-64" d="M 2906 2969 
L 2906 4863 
L 3481 4863 
L 3481 0 
L 2906 0 
L 2906 525 
Q 2725 213 2448 61 
Q 2172 -91 1784 -91 
Q 1150 -91 751 415 
Q 353 922 353 1747 
Q 353 2572 751 3078 
Q 1150 3584 1784 3584 
Q 2172 3584 2448 3432 
Q 2725 3281 2906 2969 
z
M 947 1747 
Q 947 1113 1208 752 
Q 1469 391 1925 391 
Q 2381 391 2643 752 
Q 2906 1113 2906 1747 
Q 2906 2381 2643 2742 
Q 2381 3103 1925 3103 
Q 1469 3103 1208 2742 
Q 947 2381 947 1747 
z
" transform="scale(0.015625)"/>
       <path id="DejaVuSans-61" d="M 2194 1759 
Q 1497 1759 1228 1600 
Q 959 1441 959 1056 
Q 959 750 1161 570 
Q 1363 391 1709 391 
Q 2188 391 2477 730 
Q 2766 1069 2766 1631 
L 2766 1759 
L 2194 1759 
z
M 3341 1997 
L 3341 0 
L 2766 0 
L 2766 531 
Q 2569 213 2275 61 
Q 1981 -91 1556 -91 
Q 1019 -91 701 211 
Q 384 513 384 1019 
Q 384 1609 779 1909 
Q 1175 2209 1959 2209 
L 2766 2209 
L 2766 2266 
Q 2766 2663 2505 2880 
Q 2244 3097 1772 3097 
Q 1472 3097 1187 3025 
Q 903 2953 641 2809 
L 641 3341 
Q 956 3463 1253 3523 
Q 1550 3584 1831 3584 
Q 2591 3584 2966 3190 
Q 3341 2797 3341 1997 
z
" transform="scale(0.015625)"/>
       <path id="DejaVuSans-62" d="M 3116 1747 
Q 3116 2381 2855 2742 
Q 2594 3103 2138 3103 
Q 1681 3103 1420 2742 
Q 1159 2381 1159 1747 
Q 1159 1113 1420 752 
Q 1681 391 2138 391 
Q 2594 391 2855 752 
Q 3116 1113 3116 1747 
z
M 1159 2969 
Q 1341 3281 1617 3432 
Q 1894 3584 2278 3584 
Q 2916 3584 3314 3078 
Q 3713 2572 3713 1747 
Q 3713 922 3314 415 
Q 2916 -91 2278 -91 
Q 1894 -91 1617 61 
Q 1341 213 1159 525 
L 1159 0 
L 581 0 
L 581 4863 
L 1159 4863 
L 1159 2969 
z
" transform="scale(0.015625)"/>
      </defs>
      <use xlink:href="#DejaVuSans-50"/>
      <use xlink:href="#DejaVuSans-72" x="58.552734"/>
      <use xlink:href="#DejaVuSans-65" x="97.416016"/>
      <use xlink:href="#DejaVuSans-64" x="158.939453"/>
      <use xlink:href="#DejaVuSans-69" x="222.416016"/>
      <use xlink:href="#DejaVuSans-63" x="250.199219"/>
      <use xlink:href="#DejaVuSans-74" x="305.179688"/>
      <use xlink:href="#DejaVuSans-65" x="344.388672"/>
      <use xlink:href="#DejaVuSans-64" x="405.912109"/>
      <use xlink:href="#DejaVuSans-20" x="469.388672"/>
      <use xlink:href="#DejaVuSans-6c" x="501.175781"/>
      <use xlink:href="#DejaVuSans-61" x="528.958984"/>
      <use xlink:href="#DejaVuSans-62" x="590.238281"/>
      <use xlink:href="#DejaVuSans-65" x="653.714844"/>
      <use xlink:href="#DejaVuSans-6c" x="715.238281"/>
     </g>
    </g>
   </g>
   <g id="line2d_12">
    <path d="M 541.39222 678.84375 
L 541.39222 11.734976 
" clip-path="url(#p781180af52)" style="fill: none; stroke: #ff0000; stroke-width: 1.5; stroke-linecap: square"/>
   </g>
   <g id="patch_3">
    <path d="M 27.978125 678.84375 
L 27.978125 11.734976 
" style="fill: none; stroke: #000000; stroke-width: 0.8; stroke-linejoin: miter; stroke-linecap: square"/>
   </g>
   <g id="patch_4">
    <path d="M 701.248437 678.84375 
L 701.248437 11.734976 
" style="fill: none; stroke: #000000; stroke-width: 0.8; stroke-linejoin: miter; stroke-linecap: square"/>
   </g>
   <g id="patch_5">
    <path d="M 27.978125 678.84375 
L 701.248437 678.84375 
" style="fill: none; stroke: #000000; stroke-width: 0.8; stroke-linejoin: miter; stroke-linecap: square"/>
   </g>
   <g id="patch_6">
    <path d="M 27.978125 11.734976 
L 701.248437 11.734976 
" style="fill: none; stroke: #000000; stroke-width: 0.8; stroke-linejoin: miter; stroke-linecap: square"/>
   </g>
   <g id="text_14">
    <!-- 0 -->
    <g transform="translate(347.781523 640.356705) scale(0.1 -0.1)">
     <use xlink:href="#DejaVuSans-30"/>
    </g>
   </g>
   <g id="text_15">
    <!-- 1 -->
    <g transform="translate(347.781523 596.256967) scale(0.1 -0.1)">
     <use xlink:href="#DejaVuSans-31"/>
    </g>
   </g>
   <g id="text_16">
    <!-- 2 -->
    <g transform="translate(347.781523 547.747254) scale(0.1 -0.1)">
     <use xlink:href="#DejaVuSans-32"/>
    </g>
   </g>
   <g id="text_17">
    <!-- 3 -->
    <g transform="translate(347.781523 471.174072) scale(0.1 -0.1)">
     <defs>
      <path id="DejaVuSans-33" d="M 2597 2516 
Q 3050 2419 3304 2112 
Q 3559 1806 3559 1356 
Q 3559 666 3084 287 
Q 2609 -91 1734 -91 
Q 1441 -91 1130 -33 
Q 819 25 488 141 
L 488 750 
Q 750 597 1062 519 
Q 1375 441 1716 441 
Q 2309 441 2620 675 
Q 2931 909 2931 1356 
Q 2931 1769 2642 2001 
Q 2353 2234 1838 2234 
L 1294 2234 
L 1294 2753 
L 1863 2753 
Q 2328 2753 2575 2939 
Q 2822 3125 2822 3475 
Q 2822 3834 2567 4026 
Q 2313 4219 1838 4219 
Q 1578 4219 1281 4162 
Q 984 4106 628 3988 
L 628 4550 
Q 988 4650 1302 4700 
Q 1616 4750 1894 4750 
Q 2613 4750 3031 4423 
Q 3450 4097 3450 3541 
Q 3450 3153 3228 2886 
Q 3006 2619 2597 2516 
z
" transform="scale(0.015625)"/>
     </defs>
     <use xlink:href="#DejaVuSans-33"/>
    </g>
   </g>
   <g id="text_18">
    <!-- 4 -->
    <g transform="translate(347.781523 421.461639) scale(0.1 -0.1)">
     <use xlink:href="#DejaVuSans-34"/>
    </g>
   </g>
   <g id="text_19">
    <!-- 5 -->
    <g transform="translate(347.781523 372.951926) scale(0.1 -0.1)">
     <defs>
      <path id="DejaVuSans-35" d="M 691 4666 
L 3169 4666 
L 3169 4134 
L 1269 4134 
L 1269 2991 
Q 1406 3038 1543 3061 
Q 1681 3084 1819 3084 
Q 2600 3084 3056 2656 
Q 3513 2228 3513 1497 
Q 3513 744 3044 326 
Q 2575 -91 1722 -91 
Q 1428 -91 1123 -41 
Q 819 9 494 109 
L 494 744 
Q 775 591 1075 516 
Q 1375 441 1709 441 
Q 2250 441 2565 725 
Q 2881 1009 2881 1497 
Q 2881 1984 2565 2268 
Q 2250 2553 1709 2553 
Q 1456 2553 1204 2497 
Q 953 2441 691 2322 
L 691 4666 
z
" transform="scale(0.015625)"/>
     </defs>
     <use xlink:href="#DejaVuSans-35"/>
    </g>
   </g>
   <g id="text_20">
    <!-- 6 -->
    <g transform="translate(347.781523 307.203225) scale(0.1 -0.1)">
     <use xlink:href="#DejaVuSans-36"/>
    </g>
   </g>
   <g id="text_21">
    <!-- 7 -->
    <g transform="translate(347.781523 193.345718) scale(0.1 -0.1)">
     <defs>
      <path id="DejaVuSans-37" d="M 525 4666 
L 3525 4666 
L 3525 4397 
L 1831 0 
L 1172 0 
L 2766 4134 
L 525 4134 
L 525 4666 
z
" transform="scale(0.015625)"/>
     </defs>
     <use xlink:href="#DejaVuSans-37"/>
    </g>
   </g>
   <g id="text_22">
    <!-- 8 -->
    <g transform="translate(347.781523 101.137173) scale(0.1 -0.1)">
     <use xlink:href="#DejaVuSans-38"/>
    </g>
   </g>
   <g id="text_23">
    <!-- 9 -->
    <g transform="translate(347.781523 86.704532) scale(0.1 -0.1)">
     <defs>
      <path id="DejaVuSans-39" d="M 703 97 
L 703 672 
Q 941 559 1184 500 
Q 1428 441 1663 441 
Q 2288 441 2617 861 
Q 2947 1281 2994 2138 
Q 2813 1869 2534 1725 
Q 2256 1581 1919 1581 
Q 1219 1581 811 2004 
Q 403 2428 403 3163 
Q 403 3881 828 4315 
Q 1253 4750 1959 4750 
Q 2769 4750 3195 4129 
Q 3622 3509 3622 2328 
Q 3622 1225 3098 567 
Q 2575 -91 1691 -91 
Q 1453 -91 1209 -44 
Q 966 3 703 97 
z
M 1959 2075 
Q 2384 2075 2632 2365 
Q 2881 2656 2881 3163 
Q 2881 3666 2632 3958 
Q 2384 4250 1959 4250 
Q 1534 4250 1286 3958 
Q 1038 3666 1038 3163 
Q 1038 2656 1286 2365 
Q 1534 2075 1959 2075 
z
" transform="scale(0.015625)"/>
     </defs>
     <use xlink:href="#DejaVuSans-39"/>
    </g>
   </g>
   <g id="text_24">
    <!-- 10 -->
    <g transform="translate(347.781523 72.672797) scale(0.1 -0.1)">
     <use xlink:href="#DejaVuSans-31"/>
     <use xlink:href="#DejaVuSans-30" x="63.623047"/>
    </g>
   </g>
   <g id="text_25">
    <!-- 11 -->
    <g transform="translate(347.781523 58.240155) scale(0.1 -0.1)">
     <use xlink:href="#DejaVuSans-31"/>
     <use xlink:href="#DejaVuSans-31" x="63.623047"/>
    </g>
   </g>
   <g id="text_26">
    <!-- 12 -->
    <g transform="translate(347.781523 43.406606) scale(0.1 -0.1)">
     <use xlink:href="#DejaVuSans-31"/>
     <use xlink:href="#DejaVuSans-32" x="63.623047"/>
    </g>
   </g>
   <g id="text_27">
    <!-- 13 -->
    <g transform="translate(347.781523 30.577592) scale(0.1 -0.1)">
     <use xlink:href="#DejaVuSans-31"/>
     <use xlink:href="#DejaVuSans-33" x="63.623047"/>
    </g>
   </g>
   <g id="text_28">
    <!-- 14 -->
    <g transform="translate(347.781523 20.554924) scale(0.1 -0.1)">
     <use xlink:href="#DejaVuSans-31"/>
     <use xlink:href="#DejaVuSans-34" x="63.623047"/>
    </g>
   </g>
   <g id="text_29">
    <!-- 0.5251 -->
    <g style="fill: #ff0000" transform="translate(558.223978 19.75311) scale(0.1 -0.1)">
     <use xlink:href="#DejaVuSans-30"/>
     <use xlink:href="#DejaVuSans-2e" x="63.623047"/>
     <use xlink:href="#DejaVuSans-35" x="95.410156"/>
     <use xlink:href="#DejaVuSans-32" x="159.033203"/>
     <use xlink:href="#DejaVuSans-35" x="222.65625"/>
     <use xlink:href="#DejaVuSans-31" x="286.279297"/>
    </g>
   </g>
  </g>
 </g>
 <defs>
  <clipPath id="p781180af52">
   <rect x="27.978125" y="11.734976" width="673.270312" height="667.108774"/>
  </clipPath>
 </defs>
</svg>
