<?xml version="1.0" encoding="utf-8" standalone="no"?>
<!DOCTYPE svg PUBLIC "-//W3C//DTD SVG 1.1//EN"
  "http://www.w3.org/Graphics/SVG/1.1/DTD/svg11.dtd">
<svg xmlns:xlink="http://www.w3.org/1999/xlink" width="720pt" height="576pt" viewBox="0 0 720 576" xmlns="http://www.w3.org/2000/svg" version="1.1">
 <metadata>
  <rdf:RDF xmlns:dc="http://purl.org/dc/elements/1.1/" xmlns:cc="http://creativecommons.org/ns#" xmlns:rdf="http://www.w3.org/1999/02/22-rdf-syntax-ns#">
   <cc:Work>
    <dc:type rdf:resource="http://purl.org/dc/dcmitype/StillImage"/>
    <dc:date>2022-11-21T18:22:19.277838</dc:date>
    <dc:format>image/svg+xml</dc:format>
    <dc:creator>
     <cc:Agent>
      <dc:title>Matplotlib v3.6.1, https://matplotlib.org/</dc:title>
     </cc:Agent>
    </dc:creator>
   </cc:Work>
  </rdf:RDF>
 </metadata>
 <defs>
  <style type="text/css">*{stroke-linejoin: round; stroke-linecap: butt}</style>
 </defs>
 <g id="figure_1">
  <g id="patch_1">
   <path d="M 0 576 
L 720 576 
L 720 0 
L 0 0 
z
" style="fill: #ffffff"/>
  </g>
  <g id="axes_1">
   <g id="patch_2">
    <path d="M 42.495313 510.648438 
L 693.296875 510.648438 
L 693.296875 24.465325 
L 42.495313 24.465325 
z
" style="fill: #ffffff"/>
   </g>
   <g id="PolyCollection_1">
    <defs>
     <path id="m8d414b019d" d="M 424.535885 -71.19511 
L 367.896094 -71.19511 
L 367.896094 -71.779464 
L 367.896094 -72.363819 
L 367.896094 -72.948174 
L 367.896094 -73.532528 
L 367.896094 -74.116883 
L 367.896094 -74.701238 
L 367.896094 -75.285592 
L 367.896094 -75.869947 
L 367.896094 -76.454302 
L 367.896094 -77.038657 
L 367.896094 -77.623011 
L 367.896094 -78.207366 
L 367.896094 -78.791721 
L 367.896094 -79.376075 
L 367.896094 -79.96043 
L 367.896094 -80.544785 
L 367.896094 -81.129139 
L 367.896094 -81.713494 
L 367.896094 -82.297849 
L 367.896094 -82.882204 
L 367.896094 -83.466558 
L 367.896094 -84.050913 
L 367.896094 -84.635268 
L 367.896094 -85.219622 
L 367.896094 -85.803977 
L 367.896094 -86.388332 
L 367.896094 -86.972687 
L 367.896094 -87.557041 
L 367.896094 -88.141396 
L 367.896094 -88.725751 
L 367.896094 -89.310105 
L 367.896094 -89.89446 
L 367.896094 -90.478815 
L 367.896094 -91.063169 
L 367.896094 -91.647524 
L 367.896094 -92.231879 
L 367.896094 -92.816234 
L 367.896094 -93.400588 
L 367.896094 -93.984943 
L 367.896094 -94.569298 
L 367.896094 -95.153652 
L 367.896094 -95.738007 
L 367.896094 -96.322362 
L 367.896094 -96.906716 
L 367.896094 -97.491071 
L 367.896094 -98.075426 
L 367.896094 -98.659781 
L 367.896094 -99.244135 
L 367.896094 -99.82849 
L 367.896094 -100.412845 
L 367.896094 -100.997199 
L 367.896094 -101.581554 
L 367.896094 -102.165909 
L 367.896094 -102.750263 
L 367.896094 -103.334618 
L 367.896094 -103.918973 
L 367.896094 -104.503328 
L 367.896094 -105.087682 
L 367.896094 -105.672037 
L 367.896094 -106.256392 
L 367.896094 -106.840746 
L 367.896094 -107.425101 
L 367.896094 -108.009456 
L 367.896094 -108.593811 
L 367.896094 -109.178165 
L 367.896094 -109.76252 
L 367.896094 -110.346875 
L 367.896094 -110.931229 
L 367.896094 -111.515584 
L 367.896094 -112.099939 
L 367.896094 -112.684293 
L 367.896094 -113.268648 
L 367.896094 -113.853003 
L 367.896094 -114.437358 
L 367.896094 -115.021712 
L 587.405525 -115.021712 
L 587.405525 -115.021712 
L 586.905433 -114.437358 
L 586.809095 -113.853003 
L 586.753723 -113.268648 
L 586.667736 -112.684293 
L 586.265572 -112.099939 
L 586.219527 -111.515584 
L 585.913576 -110.931229 
L 585.15065 -110.346875 
L 578.251235 -109.76252 
L 578.026824 -109.178165 
L 578.003168 -108.593811 
L 577.990441 -108.009456 
L 577.855088 -107.425101 
L 577.773649 -106.840746 
L 577.000448 -106.256392 
L 576.307814 -105.672037 
L 574.898139 -105.087682 
L 573.438085 -104.503328 
L 571.5915 -103.918973 
L 570.361584 -103.334618 
L 569.996366 -102.750263 
L 568.670216 -102.165909 
L 568.326992 -101.581554 
L 567.8942 -100.997199 
L 567.857939 -100.412845 
L 567.514585 -99.82849 
L 567.33686 -99.244135 
L 566.623921 -98.659781 
L 566.390997 -98.075426 
L 564.859079 -97.491071 
L 560.161835 -96.906716 
L 560.098739 -96.322362 
L 558.478219 -95.738007 
L 556.933276 -95.153652 
L 556.500465 -94.569298 
L 550.539694 -93.984943 
L 548.991731 -93.400588 
L 547.775191 -92.816234 
L 547.484825 -92.231879 
L 546.21133 -91.647524 
L 546.047069 -91.063169 
L 544.481962 -90.478815 
L 543.230384 -89.89446 
L 540.528602 -89.310105 
L 540.48088 -88.725751 
L 539.407758 -88.141396 
L 531.314865 -87.557041 
L 530.654835 -86.972687 
L 523.352506 -86.388332 
L 522.296723 -85.803977 
L 522.002094 -85.219622 
L 520.875282 -84.635268 
L 519.47051 -84.050913 
L 519.407087 -83.466558 
L 515.569334 -82.882204 
L 503.703342 -82.297849 
L 501.975809 -81.713494 
L 501.373797 -81.129139 
L 500.392091 -80.544785 
L 500.023504 -79.96043 
L 496.816567 -79.376075 
L 495.712071 -78.791721 
L 494.098958 -78.207366 
L 491.332795 -77.623011 
L 489.277159 -77.038657 
L 489.183903 -76.454302 
L 486.987155 -75.869947 
L 484.027959 -75.285592 
L 483.041507 -74.701238 
L 480.181146 -74.116883 
L 450.898802 -73.532528 
L 447.408239 -72.948174 
L 444.242381 -72.363819 
L 433.867688 -71.779464 
L 424.535885 -71.19511 
z
" style="stroke: #000000; stroke-opacity: 0.7"/>
    </defs>
    <g clip-path="url(#pa2ac0a833e)">
     <use xlink:href="#m8d414b019d" x="0" y="576" style="fill-opacity: 0.7; stroke: #000000; stroke-opacity: 0.7"/>
    </g>
   </g>
   <g id="PolyCollection_2">
    <defs>
     <path id="madd4bf6cd7" d="M 465.064219 -121.449614 
L 367.896094 -121.449614 
L 367.896094 -122.033969 
L 367.896094 -122.618323 
L 367.896094 -123.202678 
L 367.896094 -123.787033 
L 367.896094 -124.371388 
L 367.896094 -124.955742 
L 367.896094 -125.540097 
L 367.896094 -126.124452 
L 367.896094 -126.708806 
L 367.896094 -127.293161 
L 367.896094 -127.877516 
L 367.896094 -128.46187 
L 367.896094 -129.046225 
L 537.284506 -129.046225 
L 537.284506 -129.046225 
L 536.046899 -128.46187 
L 535.722318 -127.877516 
L 530.785765 -127.293161 
L 530.318389 -126.708806 
L 529.15915 -126.124452 
L 528.51902 -125.540097 
L 524.82224 -124.955742 
L 513.914399 -124.371388 
L 503.864906 -123.787033 
L 465.974368 -123.202678 
L 465.912768 -122.618323 
L 465.415986 -122.033969 
L 465.064219 -121.449614 
z
" style="stroke: #7d008e; stroke-opacity: 0.7"/>
    </defs>
    <g clip-path="url(#pa2ac0a833e)">
     <use xlink:href="#madd4bf6cd7" x="0" y="576" style="fill: #7d008e; fill-opacity: 0.7; stroke: #7d008e; stroke-opacity: 0.7"/>
    </g>
   </g>
   <g id="PolyCollection_3">
    <defs>
     <path id="mdb41c8e715" d="M 367.95851 -135.474127 
L 367.896094 -135.474127 
L 367.896094 -136.058482 
L 367.896094 -136.642836 
L 367.896094 -137.227191 
L 367.896094 -137.811546 
L 367.896094 -138.3959 
L 367.896094 -138.980255 
L 367.896094 -139.56461 
L 367.896094 -140.148964 
L 367.896094 -140.733319 
L 367.896094 -141.317674 
L 367.896094 -141.902029 
L 367.896094 -142.486383 
L 367.896094 -143.070738 
L 367.896094 -143.655093 
L 367.896094 -144.239447 
L 367.896094 -144.823802 
L 367.896094 -145.408157 
L 367.896094 -145.992512 
L 367.896094 -146.576866 
L 367.896094 -147.161221 
L 367.896094 -147.745576 
L 367.896094 -148.32993 
L 367.896094 -148.914285 
L 367.896094 -149.49864 
L 367.896094 -150.082994 
L 367.896094 -150.667349 
L 367.896094 -151.251704 
L 367.896094 -151.836059 
L 367.896094 -152.420413 
L 367.896094 -153.004768 
L 367.896094 -153.589123 
L 367.896094 -154.173477 
L 367.896094 -154.757832 
L 367.896094 -155.342187 
L 367.896094 -155.926541 
L 367.896094 -156.510896 
L 367.896094 -157.095251 
L 367.896094 -157.679606 
L 367.896094 -158.26396 
L 367.896094 -158.848315 
L 367.896094 -159.43267 
L 367.896094 -160.017024 
L 367.896094 -160.601379 
L 367.896094 -161.185734 
L 367.896094 -161.770089 
L 367.896094 -162.354443 
L 367.896094 -162.938798 
L 367.896094 -163.523153 
L 367.896094 -164.107507 
L 367.896094 -164.691862 
L 367.896094 -165.276217 
L 367.896094 -165.860571 
L 367.896094 -166.444926 
L 367.896094 -167.029281 
L 367.896094 -167.613636 
L 367.896094 -168.19799 
L 367.896094 -168.782345 
L 367.896094 -169.3667 
L 367.896094 -169.951054 
L 367.896094 -170.535409 
L 367.896094 -171.119764 
L 367.896094 -171.704118 
L 367.896094 -172.288473 
L 367.896094 -172.872828 
L 367.896094 -173.457183 
L 367.896094 -174.041537 
L 367.896094 -174.625892 
L 367.896094 -175.210247 
L 367.896094 -175.794601 
L 367.896094 -176.378956 
L 367.896094 -176.963311 
L 367.896094 -177.547665 
L 367.896094 -178.13202 
L 367.896094 -178.716375 
L 367.896094 -179.30073 
L 367.896094 -179.885084 
L 367.896094 -180.469439 
L 367.896094 -181.053794 
L 367.896094 -181.638148 
L 367.896094 -182.222503 
L 367.896094 -182.806858 
L 367.896094 -183.391213 
L 367.896094 -183.975567 
L 367.896094 -184.559922 
L 367.896094 -185.144277 
L 367.896094 -185.728631 
L 570.722702 -185.728631 
L 570.722702 -185.728631 
L 567.564494 -185.144277 
L 566.613237 -184.559922 
L 564.614695 -183.975567 
L 563.700386 -183.391213 
L 563.671617 -182.806858 
L 563.127062 -182.222503 
L 562.103168 -181.638148 
L 561.425485 -181.053794 
L 561.047976 -180.469439 
L 560.24824 -179.885084 
L 558.82916 -179.30073 
L 557.784426 -178.716375 
L 557.184833 -178.13202 
L 557.031587 -177.547665 
L 556.918679 -176.963311 
L 556.333396 -176.378956 
L 556.191597 -175.794601 
L 556.084626 -175.210247 
L 555.80568 -174.625892 
L 555.506099 -174.041537 
L 555.439366 -173.457183 
L 554.820027 -172.872828 
L 553.822599 -172.288473 
L 553.706974 -171.704118 
L 553.572516 -171.119764 
L 552.738052 -170.535409 
L 552.507782 -169.951054 
L 551.968101 -169.3667 
L 551.772431 -168.782345 
L 551.562807 -168.19799 
L 551.102242 -167.613636 
L 550.265847 -167.029281 
L 550.007172 -166.444926 
L 549.839459 -165.860571 
L 548.650242 -165.276217 
L 548.648135 -164.691862 
L 548.087211 -164.107507 
L 546.266107 -163.523153 
L 545.53117 -162.938798 
L 545.118668 -162.354443 
L 543.746214 -161.770089 
L 543.484003 -161.185734 
L 541.557614 -160.601379 
L 541.441512 -160.017024 
L 541.374726 -159.43267 
L 541.0402 -158.848315 
L 540.799287 -158.26396 
L 540.709475 -157.679606 
L 538.474435 -157.095251 
L 536.79192 -156.510896 
L 535.585461 -155.926541 
L 535.206981 -155.342187 
L 533.508351 -154.757832 
L 532.594402 -154.173477 
L 531.673464 -153.589123 
L 530.935137 -153.004768 
L 530.449763 -152.420413 
L 530.221416 -151.836059 
L 530.018208 -151.251704 
L 529.467842 -150.667349 
L 529.459086 -150.082994 
L 529.200484 -149.49864 
L 528.867852 -148.914285 
L 528.231932 -148.32993 
L 526.09567 -147.745576 
L 525.122341 -147.161221 
L 522.818424 -146.576866 
L 520.560913 -145.992512 
L 517.52762 -145.408157 
L 514.321281 -144.823802 
L 513.585848 -144.239447 
L 511.906283 -143.655093 
L 510.642495 -143.070738 
L 507.855374 -142.486383 
L 506.678723 -141.902029 
L 506.57527 -141.317674 
L 506.058633 -140.733319 
L 501.067467 -140.148964 
L 501.029793 -139.56461 
L 492.773407 -138.980255 
L 488.559884 -138.3959 
L 480.166527 -137.811546 
L 467.912351 -137.227191 
L 458.11994 -136.642836 
L 441.158821 -136.058482 
L 367.95851 -135.474127 
z
" style="stroke: #2d00a4; stroke-opacity: 0.7"/>
    </defs>
    <g clip-path="url(#pa2ac0a833e)">
     <use xlink:href="#mdb41c8e715" x="0" y="576" style="fill: #2d00a4; fill-opacity: 0.7; stroke: #2d00a4; stroke-opacity: 0.7"/>
    </g>
   </g>
   <g id="PolyCollection_4">
    <defs>
     <path id="mc8e9ab3a05" d="M 374.021138 -192.156533 
L 367.896094 -192.156533 
L 367.896094 -192.740888 
L 367.896094 -193.325242 
L 367.896094 -193.909597 
L 367.896094 -194.493952 
L 367.896094 -195.078307 
L 367.896094 -195.662661 
L 367.896094 -196.247016 
L 367.896094 -196.831371 
L 367.896094 -197.415725 
L 367.896094 -198.00008 
L 367.896094 -198.584435 
L 367.896094 -199.16879 
L 367.896094 -199.753144 
L 367.896094 -200.337499 
L 367.896094 -200.921854 
L 367.896094 -201.506208 
L 367.896094 -202.090563 
L 367.896094 -202.674918 
L 367.896094 -203.259272 
L 367.896094 -203.843627 
L 367.896094 -204.427982 
L 367.896094 -205.012337 
L 367.896094 -205.596691 
L 367.896094 -206.181046 
L 367.896094 -206.765401 
L 367.896094 -207.349755 
L 367.896094 -207.93411 
L 367.896094 -208.518465 
L 367.896094 -209.102819 
L 367.896094 -209.687174 
L 367.896094 -210.271529 
L 367.896094 -210.855884 
L 367.896094 -211.440238 
L 367.896094 -212.024593 
L 367.896094 -212.608948 
L 367.896094 -213.193302 
L 367.896094 -213.777657 
L 367.896094 -214.362012 
L 367.896094 -214.946366 
L 367.896094 -215.530721 
L 367.896094 -216.115076 
L 367.896094 -216.699431 
L 367.896094 -217.283785 
L 367.896094 -217.86814 
L 367.896094 -218.452495 
L 367.896094 -219.036849 
L 367.896094 -219.621204 
L 367.896094 -220.205559 
L 367.896094 -220.789914 
L 367.896094 -221.374268 
L 367.896094 -221.958623 
L 367.896094 -222.542978 
L 367.896094 -223.127332 
L 367.896094 -223.711687 
L 367.896094 -224.296042 
L 367.896094 -224.880396 
L 367.896094 -225.464751 
L 367.896094 -226.049106 
L 367.896094 -226.633461 
L 367.896094 -227.217815 
L 367.896094 -227.80217 
L 367.896094 -228.386525 
L 367.896094 -228.970879 
L 367.896094 -229.555234 
L 367.896094 -230.139589 
L 367.896094 -230.723943 
L 367.896094 -231.308298 
L 367.896094 -231.892653 
L 367.896094 -232.477008 
L 367.896094 -233.061362 
L 367.896094 -233.645717 
L 367.896094 -234.230072 
L 367.896094 -234.814426 
L 367.896094 -235.398781 
L 367.896094 -235.983136 
L 367.896094 -236.567491 
L 367.896094 -237.151845 
L 367.896094 -237.7362 
L 367.896094 -238.320555 
L 367.896094 -238.904909 
L 367.896094 -239.489264 
L 367.896094 -240.073619 
L 367.896094 -240.657973 
L 576.628634 -240.657973 
L 576.628634 -240.657973 
L 576.334865 -240.073619 
L 576.316092 -239.489264 
L 574.863789 -238.904909 
L 574.406995 -238.320555 
L 574.400774 -237.7362 
L 574.40035 -237.151845 
L 574.098825 -236.567491 
L 573.900811 -235.983136 
L 573.302246 -235.398781 
L 573.023436 -234.814426 
L 572.818873 -234.230072 
L 571.151519 -233.645717 
L 571.014658 -233.061362 
L 569.565994 -232.477008 
L 568.874206 -231.892653 
L 566.680558 -231.308298 
L 565.478571 -230.723943 
L 562.934619 -230.139589 
L 562.928362 -229.555234 
L 562.034599 -228.970879 
L 561.377001 -228.386525 
L 558.260174 -227.80217 
L 556.831695 -227.217815 
L 556.733629 -226.633461 
L 556.37441 -226.049106 
L 556.252221 -225.464751 
L 556.127639 -224.880396 
L 554.818909 -224.296042 
L 554.001507 -223.711687 
L 553.564519 -223.127332 
L 553.367075 -222.542978 
L 553.1393 -221.958623 
L 552.338779 -221.374268 
L 550.403349 -220.789914 
L 550.042964 -220.205559 
L 549.629829 -219.621204 
L 549.262928 -219.036849 
L 547.74481 -218.452495 
L 547.071342 -217.86814 
L 546.942412 -217.283785 
L 546.861423 -216.699431 
L 544.487891 -216.115076 
L 542.795051 -215.530721 
L 542.571279 -214.946366 
L 541.772975 -214.362012 
L 540.22211 -213.777657 
L 538.747543 -213.193302 
L 536.414248 -212.608948 
L 536.117969 -212.024593 
L 529.210518 -211.440238 
L 527.625759 -210.855884 
L 527.446174 -210.271529 
L 523.279501 -209.687174 
L 521.348161 -209.102819 
L 517.744067 -208.518465 
L 517.217454 -207.93411 
L 516.610544 -207.349755 
L 514.845151 -206.765401 
L 511.843282 -206.181046 
L 508.996585 -205.596691 
L 503.282372 -205.012337 
L 498.559681 -204.427982 
L 497.008603 -203.843627 
L 496.174527 -203.259272 
L 494.414685 -202.674918 
L 492.738372 -202.090563 
L 487.067416 -201.506208 
L 486.935771 -200.921854 
L 484.386009 -200.337499 
L 482.594574 -199.753144 
L 471.750801 -199.16879 
L 469.562999 -198.584435 
L 464.744056 -198.00008 
L 464.698175 -197.415725 
L 462.463754 -196.831371 
L 451.022359 -196.247016 
L 447.076487 -195.662661 
L 446.704917 -195.078307 
L 445.787188 -194.493952 
L 434.412166 -193.909597 
L 424.396851 -193.325242 
L 416.63557 -192.740888 
L 374.021138 -192.156533 
z
" style="stroke: #0000dd; stroke-opacity: 0.7"/>
    </defs>
    <g clip-path="url(#pa2ac0a833e)">
     <use xlink:href="#mc8e9ab3a05" x="0" y="576" style="fill: #0000dd; fill-opacity: 0.7; stroke: #0000dd; stroke-opacity: 0.7"/>
    </g>
   </g>
   <g id="PolyCollection_5">
    <defs>
     <path id="m5dbb2961a6" d="M 385.383455 -247.085875 
L 367.896094 -247.085875 
L 367.896094 -247.67023 
L 367.896094 -248.254585 
L 367.896094 -248.838939 
L 367.896094 -249.423294 
L 367.896094 -250.007649 
L 367.896094 -250.592003 
L 367.896094 -251.176358 
L 367.896094 -251.760713 
L 367.896094 -252.345067 
L 367.896094 -252.929422 
L 367.896094 -253.513777 
L 367.896094 -254.098132 
L 367.896094 -254.682486 
L 367.896094 -255.266841 
L 367.896094 -255.851196 
L 367.896094 -256.43555 
L 367.896094 -257.019905 
L 367.896094 -257.60426 
L 367.896094 -258.188615 
L 521.418044 -258.188615 
L 521.418044 -258.188615 
L 512.827258 -257.60426 
L 512.817011 -257.019905 
L 505.301501 -256.43555 
L 502.677029 -255.851196 
L 500.971808 -255.266841 
L 498.933637 -254.682486 
L 493.981266 -254.098132 
L 491.792177 -253.513777 
L 491.086125 -252.929422 
L 487.860702 -252.345067 
L 475.645672 -251.760713 
L 471.774454 -251.176358 
L 471.313216 -250.592003 
L 471.260012 -250.007649 
L 470.021113 -249.423294 
L 465.62417 -248.838939 
L 465.284883 -248.254585 
L 464.15059 -247.67023 
L 385.383455 -247.085875 
z
" style="stroke: #0082dd; stroke-opacity: 0.7"/>
    </defs>
    <g clip-path="url(#pa2ac0a833e)">
     <use xlink:href="#m5dbb2961a6" x="0" y="576" style="fill: #0082dd; fill-opacity: 0.7; stroke: #0082dd; stroke-opacity: 0.7"/>
    </g>
   </g>
   <g id="PolyCollection_6">
    <defs>
     <path id="m4ffc191c4a" d="M 292.820686 -264.616516 
L 367.896094 -264.616516 
L 367.896094 -265.200871 
L 367.896094 -265.785226 
L 367.896094 -266.36958 
L 367.896094 -266.953935 
L 367.896094 -267.53829 
L 367.896094 -268.122644 
L 367.896094 -268.706999 
L 367.896094 -269.291354 
L 367.896094 -269.875709 
L 367.896094 -270.460063 
L 367.896094 -271.044418 
L 367.896094 -271.628773 
L 367.896094 -272.213127 
L 367.896094 -272.797482 
L 367.896094 -273.381837 
L 367.896094 -273.966192 
L 367.896094 -274.550546 
L 367.896094 -275.134901 
L 367.896094 -275.719256 
L 367.896094 -276.30361 
L 367.896094 -276.887965 
L 367.896094 -277.47232 
L 367.896094 -278.056674 
L 367.896094 -278.641029 
L 367.896094 -279.225384 
L 367.896094 -279.809739 
L 367.896094 -280.394093 
L 367.896094 -280.978448 
L 367.896094 -281.562803 
L 367.896094 -282.147157 
L 367.896094 -282.731512 
L 367.896094 -283.315867 
L 367.896094 -283.900221 
L 367.896094 -284.484576 
L 367.896094 -285.068931 
L 367.896094 -285.653286 
L 367.896094 -286.23764 
L 367.896094 -286.821995 
L 367.896094 -287.40635 
L 367.896094 -287.990704 
L 367.896094 -288.575059 
L 367.896094 -289.159414 
L 367.896094 -289.743768 
L 367.896094 -290.328123 
L 367.896094 -290.912478 
L 367.896094 -291.496833 
L 367.896094 -292.081187 
L 367.896094 -292.665542 
L 367.896094 -293.249897 
L 367.896094 -293.834251 
L 367.896094 -294.418606 
L 367.896094 -295.002961 
L 367.896094 -295.587316 
L 367.896094 -296.17167 
L 367.896094 -296.756025 
L 367.896094 -297.34038 
L 367.896094 -297.924734 
L 367.896094 -298.509089 
L 367.896094 -299.093444 
L 367.896094 -299.677798 
L 367.896094 -300.262153 
L 367.896094 -300.846508 
L 367.896094 -301.430863 
L 367.896094 -302.015217 
L 367.896094 -302.599572 
L 367.896094 -303.183927 
L 367.896094 -303.768281 
L 367.896094 -304.352636 
L 367.896094 -304.936991 
L 367.896094 -305.521345 
L 367.896094 -306.1057 
L 367.896094 -306.690055 
L 367.896094 -307.27441 
L 367.896094 -307.858764 
L 367.896094 -308.443119 
L 367.896094 -309.027474 
L 367.896094 -309.611828 
L 367.896094 -310.196183 
L 367.896094 -310.780538 
L 367.896094 -311.364893 
L 573.106432 -311.364893 
L 573.106432 -311.364893 
L 572.491866 -310.780538 
L 572.439922 -310.196183 
L 572.252479 -309.611828 
L 572.14644 -309.027474 
L 571.611509 -308.443119 
L 571.541219 -307.858764 
L 570.580326 -307.27441 
L 570.260453 -306.690055 
L 570.146503 -306.1057 
L 568.261567 -305.521345 
L 567.230011 -304.936991 
L 564.103983 -304.352636 
L 563.416061 -303.768281 
L 562.477114 -303.183927 
L 562.015553 -302.599572 
L 560.79936 -302.015217 
L 559.575237 -301.430863 
L 556.736882 -300.846508 
L 556.19949 -300.262153 
L 555.059018 -299.677798 
L 553.975712 -299.093444 
L 553.282395 -298.509089 
L 552.92284 -297.924734 
L 552.859794 -297.34038 
L 552.493014 -296.756025 
L 552.455437 -296.17167 
L 551.911479 -295.587316 
L 551.637379 -295.002961 
L 551.596384 -294.418606 
L 551.582563 -293.834251 
L 551.354381 -293.249897 
L 550.491192 -292.665542 
L 546.064702 -292.081187 
L 545.946763 -291.496833 
L 545.845579 -290.912478 
L 545.758839 -290.328123 
L 545.750247 -289.743768 
L 545.455919 -289.159414 
L 545.42888 -288.575059 
L 545.319418 -287.990704 
L 540.864216 -287.40635 
L 539.198614 -286.821995 
L 537.740104 -286.23764 
L 537.244876 -285.653286 
L 537.234923 -285.068931 
L 536.578754 -284.484576 
L 532.397727 -283.900221 
L 532.180301 -283.315867 
L 531.772089 -282.731512 
L 530.159988 -282.147157 
L 528.965016 -281.562803 
L 528.198623 -280.978448 
L 524.099998 -280.394093 
L 520.438673 -279.809739 
L 519.866061 -279.225384 
L 519.257274 -278.641029 
L 514.994018 -278.056674 
L 509.194746 -277.47232 
L 509.002284 -276.887965 
L 499.968376 -276.30361 
L 489.892998 -275.719256 
L 489.300496 -275.134901 
L 476.394725 -274.550546 
L 474.633002 -273.966192 
L 471.21284 -273.381837 
L 467.151976 -272.797482 
L 452.963831 -272.213127 
L 448.463858 -271.628773 
L 447.593531 -271.044418 
L 439.512422 -270.460063 
L 438.440569 -269.875709 
L 438.244934 -269.291354 
L 430.53325 -268.706999 
L 419.643902 -268.122644 
L 402.970934 -267.53829 
L 399.786972 -266.953935 
L 375.868783 -266.36958 
L 338.044035 -265.785226 
L 326.112251 -265.200871 
L 292.820686 -264.616516 
z
" style="stroke: #00a4bb; stroke-opacity: 0.7"/>
    </defs>
    <g clip-path="url(#pa2ac0a833e)">
     <use xlink:href="#m4ffc191c4a" x="0" y="576" style="fill: #00a4bb; fill-opacity: 0.7; stroke: #00a4bb; stroke-opacity: 0.7"/>
    </g>
   </g>
   <g id="PolyCollection_7">
    <defs>
     <path id="m34255a0561" d="M 296.948912 -317.792794 
L 367.896094 -317.792794 
L 367.896094 -318.377149 
L 367.896094 -318.961504 
L 367.896094 -319.545858 
L 367.896094 -320.130213 
L 367.896094 -320.714568 
L 367.896094 -321.298922 
L 367.896094 -321.883277 
L 367.896094 -322.467632 
L 367.896094 -323.051987 
L 367.896094 -323.636341 
L 367.896094 -324.220696 
L 367.896094 -324.805051 
L 367.896094 -325.389405 
L 367.896094 -325.97376 
L 367.896094 -326.558115 
L 367.896094 -327.142469 
L 367.896094 -327.726824 
L 367.896094 -328.311179 
L 367.896094 -328.895534 
L 367.896094 -329.479888 
L 367.896094 -330.064243 
L 367.896094 -330.648598 
L 367.896094 -331.232952 
L 367.896094 -331.817307 
L 367.896094 -332.401662 
L 367.896094 -332.986017 
L 367.896094 -333.570371 
L 367.896094 -334.154726 
L 367.896094 -334.739081 
L 367.896094 -335.323435 
L 367.896094 -335.90779 
L 367.896094 -336.492145 
L 367.896094 -337.076499 
L 367.896094 -337.660854 
L 367.896094 -338.245209 
L 367.896094 -338.829564 
L 367.896094 -339.413918 
L 367.896094 -339.998273 
L 367.896094 -340.582628 
L 367.896094 -341.166982 
L 367.896094 -341.751337 
L 367.896094 -342.335692 
L 367.896094 -342.920046 
L 367.896094 -343.504401 
L 367.896094 -344.088756 
L 367.896094 -344.673111 
L 367.896094 -345.257465 
L 367.896094 -345.84182 
L 367.896094 -346.426175 
L 367.896094 -347.010529 
L 367.896094 -347.594884 
L 367.896094 -348.179239 
L 367.896094 -348.763594 
L 367.896094 -349.347948 
L 367.896094 -349.932303 
L 367.896094 -350.516658 
L 367.896094 -351.101012 
L 367.896094 -351.685367 
L 367.896094 -352.269722 
L 367.896094 -352.854076 
L 367.896094 -353.438431 
L 367.896094 -354.022786 
L 583.396598 -354.022786 
L 583.396598 -354.022786 
L 583.291496 -353.438431 
L 583.076712 -352.854076 
L 583.054156 -352.269722 
L 583.015429 -351.685367 
L 582.793963 -351.101012 
L 582.616865 -350.516658 
L 581.895428 -349.932303 
L 581.842552 -349.347948 
L 581.838407 -348.763594 
L 581.789656 -348.179239 
L 581.68782 -347.594884 
L 575.153704 -347.010529 
L 574.884344 -346.426175 
L 574.652568 -345.84182 
L 574.418065 -345.257465 
L 574.336619 -344.673111 
L 574.30584 -344.088756 
L 573.934655 -343.504401 
L 573.816292 -342.920046 
L 570.78359 -342.335692 
L 565.738018 -341.751337 
L 565.228977 -341.166982 
L 565.125519 -340.582628 
L 564.45463 -339.998273 
L 563.806371 -339.413918 
L 563.514066 -338.829564 
L 562.55448 -338.245209 
L 560.52345 -337.660854 
L 559.398191 -337.076499 
L 557.687544 -336.492145 
L 554.0565 -335.90779 
L 553.488068 -335.323435 
L 552.829625 -334.739081 
L 552.825611 -334.154726 
L 541.305893 -333.570371 
L 532.821238 -332.986017 
L 525.669523 -332.401662 
L 525.609556 -331.817307 
L 524.538181 -331.232952 
L 513.262998 -330.648598 
L 511.971978 -330.064243 
L 508.004381 -329.479888 
L 490.692068 -328.895534 
L 478.661003 -328.311179 
L 463.92232 -327.726824 
L 461.905953 -327.142469 
L 459.100174 -326.558115 
L 424.7367 -325.97376 
L 418.562583 -325.389405 
L 413.264618 -324.805051 
L 411.336023 -324.220696 
L 410.874855 -323.636341 
L 382.436824 -323.051987 
L 371.707504 -322.467632 
L 370.334016 -321.883277 
L 362.074046 -321.298922 
L 357.004285 -320.714568 
L 355.564204 -320.130213 
L 336.891597 -319.545858 
L 321.735773 -318.961504 
L 314.603692 -318.377149 
L 296.948912 -317.792794 
z
" style="stroke: #00aa88; stroke-opacity: 0.7"/>
    </defs>
    <g clip-path="url(#pa2ac0a833e)">
     <use xlink:href="#m34255a0561" x="0" y="576" style="fill: #00aa88; fill-opacity: 0.7; stroke: #00aa88; stroke-opacity: 0.7"/>
    </g>
   </g>
   <g id="PolyCollection_8">
    <defs>
     <path id="m9341e6b274" d="M 478.846495 -360.450688 
L 367.896094 -360.450688 
L 367.896094 -361.035042 
L 367.896094 -361.619397 
L 367.896094 -362.203752 
L 367.896094 -362.788106 
L 367.896094 -363.372461 
L 367.896094 -363.956816 
L 367.896094 -364.54117 
L 367.896094 -365.125525 
L 367.896094 -365.70988 
L 367.896094 -366.294235 
L 367.896094 -366.878589 
L 367.896094 -367.462944 
L 367.896094 -368.047299 
L 367.896094 -368.631653 
L 367.896094 -369.216008 
L 367.896094 -369.800363 
L 367.896094 -370.384718 
L 367.896094 -370.969072 
L 367.896094 -371.553427 
L 367.896094 -372.137782 
L 367.896094 -372.722136 
L 367.896094 -373.306491 
L 367.896094 -373.890846 
L 367.896094 -374.4752 
L 367.896094 -375.059555 
L 367.896094 -375.64391 
L 367.896094 -376.228265 
L 367.896094 -376.812619 
L 367.896094 -377.396974 
L 367.896094 -377.981329 
L 367.896094 -378.565683 
L 367.896094 -379.150038 
L 367.896094 -379.734393 
L 367.896094 -380.318747 
L 367.896094 -380.903102 
L 367.896094 -381.487457 
L 367.896094 -382.071812 
L 367.896094 -382.656166 
L 367.896094 -383.240521 
L 367.896094 -383.824876 
L 367.896094 -384.40923 
L 367.896094 -384.993585 
L 367.896094 -385.57794 
L 367.896094 -386.162295 
L 367.896094 -386.746649 
L 367.896094 -387.331004 
L 367.896094 -387.915359 
L 367.896094 -388.499713 
L 367.896094 -389.084068 
L 367.896094 -389.668423 
L 367.896094 -390.252777 
L 367.896094 -390.837132 
L 367.896094 -391.421487 
L 367.896094 -392.005842 
L 367.896094 -392.590196 
L 367.896094 -393.174551 
L 367.896094 -393.758906 
L 367.896094 -394.34326 
L 367.896094 -394.927615 
L 367.896094 -395.51197 
L 367.896094 -396.096324 
L 367.896094 -396.680679 
L 367.896094 -397.265034 
L 367.896094 -397.849389 
L 367.896094 -398.433743 
L 367.896094 -399.018098 
L 367.896094 -399.602453 
L 367.896094 -400.186807 
L 367.896094 -400.771162 
L 367.896094 -401.355517 
L 367.896094 -401.939871 
L 367.896094 -402.524226 
L 367.896094 -403.108581 
L 367.896094 -403.692936 
L 367.896094 -404.27729 
L 367.896094 -404.861645 
L 367.896094 -405.446 
L 367.896094 -406.030354 
L 367.896094 -406.614709 
L 367.896094 -407.199064 
L 367.896094 -407.783419 
L 367.896094 -408.367773 
L 367.896094 -408.952128 
L 367.896094 -409.536483 
L 367.896094 -410.120837 
L 367.896094 -410.705192 
L 367.896094 -411.289547 
L 367.896094 -411.873901 
L 367.896094 -412.458256 
L 367.896094 -413.042611 
L 367.896094 -413.626966 
L 367.896094 -414.21132 
L 367.896094 -414.795675 
L 367.896094 -415.38003 
L 367.896094 -415.964384 
L 367.896094 -416.548739 
L 367.896094 -417.133094 
L 367.896094 -417.717448 
L 367.896094 -418.301803 
L 367.896094 -418.886158 
L 367.896094 -419.470513 
L 367.896094 -420.054867 
L 367.896094 -420.639222 
L 367.896094 -421.223577 
L 367.896094 -421.807931 
L 367.896094 -422.392286 
L 367.896094 -422.976641 
L 367.896094 -423.560996 
L 367.896094 -424.14535 
L 367.896094 -424.729705 
L 367.896094 -425.31406 
L 367.896094 -425.898414 
L 367.896094 -426.482769 
L 367.896094 -427.067124 
L 367.896094 -427.651478 
L 367.896094 -428.235833 
L 367.896094 -428.820188 
L 367.896094 -429.404543 
L 367.896094 -429.988897 
L 367.896094 -430.573252 
L 367.896094 -431.157607 
L 367.896094 -431.741961 
L 367.896094 -432.326316 
L 367.896094 -432.910671 
L 367.896094 -433.495025 
L 367.896094 -434.07938 
L 367.896094 -434.663735 
L 367.896094 -435.24809 
L 367.896094 -435.832444 
L 367.896094 -436.416799 
L 367.896094 -437.001154 
L 367.896094 -437.585508 
L 367.896094 -438.169863 
L 367.896094 -438.754218 
L 367.896094 -439.338572 
L 367.896094 -439.922927 
L 367.896094 -440.507282 
L 367.896094 -441.091637 
L 367.896094 -441.675991 
L 367.896094 -442.260346 
L 367.896094 -442.844701 
L 367.896094 -443.429055 
L 367.896094 -444.01341 
L 367.896094 -444.597765 
L 367.896094 -445.18212 
L 367.896094 -445.766474 
L 367.896094 -446.350829 
L 367.896094 -446.935184 
L 367.896094 -447.519538 
L 367.896094 -448.103893 
L 367.896094 -448.688248 
L 367.896094 -449.272602 
L 367.896094 -449.856957 
L 367.896094 -450.441312 
L 367.896094 -451.025667 
L 367.896094 -451.610021 
L 367.896094 -452.194376 
L 367.896094 -452.778731 
L 367.896094 -453.363085 
L 367.896094 -453.94744 
L 367.896094 -454.531795 
L 367.896094 -455.116149 
L 367.896094 -455.700504 
L 367.896094 -456.284859 
L 367.896094 -456.869214 
L 367.896094 -457.453568 
L 367.896094 -458.037923 
L 367.896094 -458.622278 
L 367.896094 -459.206632 
L 367.896094 -459.790987 
L 367.896094 -460.375342 
L 367.896094 -460.959696 
L 367.896094 -461.544051 
L 367.896094 -462.128406 
L 367.896094 -462.712761 
L 367.896094 -463.297115 
L 367.896094 -463.88147 
L 367.896094 -464.465825 
L 367.896094 -465.050179 
L 367.896094 -465.634534 
L 367.896094 -466.218889 
L 367.896094 -466.803244 
L 367.896094 -467.387598 
L 367.896094 -467.971953 
L 367.896094 -468.556308 
L 367.896094 -469.140662 
L 367.896094 -469.725017 
L 367.896094 -470.309372 
L 367.896094 -470.893726 
L 367.896094 -471.478081 
L 367.896094 -472.062436 
L 367.896094 -472.646791 
L 367.896094 -473.231145 
L 367.896094 -473.8155 
L 367.896094 -474.399855 
L 367.896094 -474.984209 
L 367.896094 -475.568564 
L 367.896094 -476.152919 
L 367.896094 -476.737273 
L 367.896094 -477.321628 
L 600.725194 -477.321628 
L 600.725194 -477.321628 
L 600.411355 -476.737273 
L 599.741119 -476.152919 
L 598.150552 -475.568564 
L 597.729285 -474.984209 
L 596.756012 -474.399855 
L 596.613039 -473.8155 
L 596.324316 -473.231145 
L 596.29015 -472.646791 
L 595.51821 -472.062436 
L 594.941322 -471.478081 
L 593.974819 -470.893726 
L 593.626398 -470.309372 
L 593.55215 -469.725017 
L 593.50228 -469.140662 
L 592.11635 -468.556308 
L 591.960742 -467.971953 
L 591.620814 -467.387598 
L 591.102873 -466.803244 
L 590.652699 -466.218889 
L 590.639646 -465.634534 
L 590.436209 -465.050179 
L 590.182634 -464.465825 
L 590.013004 -463.88147 
L 589.794568 -463.297115 
L 589.609821 -462.712761 
L 589.276339 -462.128406 
L 589.060787 -461.544051 
L 588.32783 -460.959696 
L 588.002679 -460.375342 
L 587.70842 -459.790987 
L 587.398885 -459.206632 
L 586.846918 -458.622278 
L 586.830987 -458.037923 
L 586.177176 -457.453568 
L 586.102592 -456.869214 
L 586.057782 -456.284859 
L 586.020015 -455.700504 
L 585.532565 -455.116149 
L 585.520212 -454.531795 
L 585.381281 -453.94744 
L 585.204635 -453.363085 
L 585.069863 -452.778731 
L 584.486454 -452.194376 
L 583.60268 -451.610021 
L 583.412531 -451.025667 
L 582.854346 -450.441312 
L 582.756559 -449.856957 
L 582.671593 -449.272602 
L 582.361058 -448.688248 
L 582.358303 -448.103893 
L 582.199933 -447.519538 
L 582.142288 -446.935184 
L 582.112215 -446.350829 
L 582.064679 -445.766474 
L 581.939531 -445.18212 
L 581.870052 -444.597765 
L 581.784288 -444.01341 
L 581.7732 -443.429055 
L 581.531007 -442.844701 
L 581.370818 -442.260346 
L 581.204176 -441.675991 
L 580.95991 -441.091637 
L 580.850187 -440.507282 
L 580.839805 -439.922927 
L 580.660644 -439.338572 
L 580.62656 -438.754218 
L 580.598403 -438.169863 
L 579.282233 -437.585508 
L 578.880494 -437.001154 
L 578.68674 -436.416799 
L 578.634643 -435.832444 
L 577.966814 -435.24809 
L 577.601442 -434.663735 
L 577.569185 -434.07938 
L 577.546438 -433.495025 
L 577.065941 -432.910671 
L 577.041186 -432.326316 
L 577.03871 -431.741961 
L 576.887883 -431.157607 
L 576.089798 -430.573252 
L 575.582919 -429.988897 
L 575.395482 -429.404543 
L 575.17187 -428.820188 
L 575.168791 -428.235833 
L 575.105346 -427.651478 
L 574.927964 -427.067124 
L 574.651414 -426.482769 
L 573.779528 -425.898414 
L 573.301944 -425.31406 
L 573.22106 -424.729705 
L 572.769433 -424.14535 
L 572.702509 -423.560996 
L 572.662542 -422.976641 
L 572.33319 -422.392286 
L 572.279997 -421.807931 
L 571.892202 -421.223577 
L 571.655654 -420.639222 
L 571.567736 -420.054867 
L 571.486343 -419.470513 
L 571.031571 -418.886158 
L 570.976469 -418.301803 
L 570.96028 -417.717448 
L 570.410297 -417.133094 
L 570.177798 -416.548739 
L 570.153638 -415.964384 
L 569.695828 -415.38003 
L 569.350128 -414.795675 
L 568.787733 -414.21132 
L 568.391046 -413.626966 
L 568.216733 -413.042611 
L 567.679016 -412.458256 
L 567.42226 -411.873901 
L 566.957739 -411.289547 
L 566.432958 -410.705192 
L 566.264045 -410.120837 
L 566.193123 -409.536483 
L 566.068425 -408.952128 
L 565.779421 -408.367773 
L 565.700711 -407.783419 
L 565.366163 -407.199064 
L 564.845449 -406.614709 
L 564.722241 -406.030354 
L 564.64592 -405.446 
L 564.507134 -404.861645 
L 563.938666 -404.27729 
L 563.672469 -403.692936 
L 563.4743 -403.108581 
L 563.337663 -402.524226 
L 562.26784 -401.939871 
L 561.927927 -401.355517 
L 561.241689 -400.771162 
L 561.069176 -400.186807 
L 560.345851 -399.602453 
L 560.106268 -399.018098 
L 560.049152 -398.433743 
L 559.862386 -397.849389 
L 559.535121 -397.265034 
L 559.334263 -396.680679 
L 559.269017 -396.096324 
L 559.021395 -395.51197 
L 558.948084 -394.927615 
L 557.877353 -394.34326 
L 557.861034 -393.758906 
L 557.858405 -393.174551 
L 557.01993 -392.590196 
L 556.961248 -392.005842 
L 556.398519 -391.421487 
L 555.487777 -390.837132 
L 555.228546 -390.252777 
L 555.184062 -389.668423 
L 554.115873 -389.084068 
L 551.996719 -388.499713 
L 551.953505 -387.915359 
L 551.920966 -387.331004 
L 551.832991 -386.746649 
L 551.264357 -386.162295 
L 550.518988 -385.57794 
L 549.743679 -384.993585 
L 549.486465 -384.40923 
L 549.317219 -383.824876 
L 548.462342 -383.240521 
L 548.260237 -382.656166 
L 547.454682 -382.071812 
L 547.304034 -381.487457 
L 546.322281 -380.903102 
L 546.226626 -380.318747 
L 545.880691 -379.734393 
L 545.715965 -379.150038 
L 545.501023 -378.565683 
L 544.559604 -377.981329 
L 544.134774 -377.396974 
L 543.982072 -376.812619 
L 543.77831 -376.228265 
L 542.660418 -375.64391 
L 542.229853 -375.059555 
L 541.639596 -374.4752 
L 541.317526 -373.890846 
L 539.522121 -373.306491 
L 538.726762 -372.722136 
L 538.623163 -372.137782 
L 538.331062 -371.553427 
L 537.436458 -370.969072 
L 536.807247 -370.384718 
L 533.659279 -369.800363 
L 530.146013 -369.216008 
L 529.388337 -368.631653 
L 529.327943 -368.047299 
L 528.323041 -367.462944 
L 526.28912 -366.878589 
L 525.136654 -366.294235 
L 524.022736 -365.70988 
L 521.239576 -365.125525 
L 518.744401 -364.54117 
L 510.098715 -363.956816 
L 507.529653 -363.372461 
L 501.069505 -362.788106 
L 495.778975 -362.203752 
L 493.684181 -361.619397 
L 492.958794 -361.035042 
L 478.846495 -360.450688 
z
" style="stroke: #00a400; stroke-opacity: 0.7"/>
    </defs>
    <g clip-path="url(#pa2ac0a833e)">
     <use xlink:href="#m9341e6b274" x="0" y="576" style="fill: #00a400; fill-opacity: 0.7; stroke: #00a400; stroke-opacity: 0.7"/>
    </g>
   </g>
   <g id="PolyCollection_9">
    <defs>
     <path id="mc6f6509bad" d="M 611.273703 -483.74953 
L 367.896094 -483.74953 
L 367.896094 -484.333885 
L 367.896094 -484.918239 
L 367.896094 -485.502594 
L 367.896094 -486.086949 
L 367.896094 -486.671303 
L 367.896094 -487.255658 
L 367.896094 -487.840013 
L 367.896094 -488.424368 
L 646.049604 -488.424368 
L 646.049604 -488.424368 
L 644.976641 -487.840013 
L 641.682463 -487.255658 
L 631.564893 -486.671303 
L 631.115421 -486.086949 
L 628.311146 -485.502594 
L 618.018319 -484.918239 
L 615.474453 -484.333885 
L 611.273703 -483.74953 
z
" style="stroke: #00d200; stroke-opacity: 0.7"/>
    </defs>
    <g clip-path="url(#pa2ac0a833e)">
     <use xlink:href="#mc6f6509bad" x="0" y="576" style="fill: #00d200; fill-opacity: 0.7; stroke: #00d200; stroke-opacity: 0.7"/>
    </g>
   </g>
   <g id="PolyCollection_10">
    <defs>
     <path id="m08f3a5aa26" d="M 435.701587 -494.852269 
L 367.896094 -494.852269 
L 367.896094 -495.436624 
L 367.896094 -496.020979 
L 367.896094 -496.605333 
L 367.896094 -497.189688 
L 367.896094 -497.774043 
L 367.896094 -498.358397 
L 490.669171 -498.358397 
L 490.669171 -498.358397 
L 485.807031 -497.774043 
L 484.430089 -497.189688 
L 484.160161 -496.605333 
L 475.997368 -496.020979 
L 447.187751 -495.436624 
L 435.701587 -494.852269 
z
" style="stroke: #00ff00; stroke-opacity: 0.7"/>
    </defs>
    <g clip-path="url(#pa2ac0a833e)">
     <use xlink:href="#m08f3a5aa26" x="0" y="576" style="fill: #00ff00; fill-opacity: 0.7; stroke: #00ff00; stroke-opacity: 0.7"/>
    </g>
   </g>
   <g id="PolyCollection_11">
    <defs>
     <path id="mf095007c71" d="M 580.830504 -504.786299 
L 367.896094 -504.786299 
L 367.896094 -505.370654 
L 367.896094 -505.955009 
L 367.896094 -506.539363 
L 367.896094 -507.123718 
L 367.896094 -507.708073 
L 367.896094 -508.292427 
L 367.896094 -508.876782 
L 632.510979 -508.876782 
L 632.510979 -508.876782 
L 631.157847 -508.292427 
L 621.048838 -507.708073 
L 615.467805 -507.123718 
L 612.420374 -506.539363 
L 594.58643 -505.955009 
L 588.743706 -505.370654 
L 580.830504 -504.786299 
z
" style="stroke: #ccf900; stroke-opacity: 0.7"/>
    </defs>
    <g clip-path="url(#pa2ac0a833e)">
     <use xlink:href="#mf095007c71" x="0" y="576" style="fill: #ccf900; fill-opacity: 0.7; stroke: #ccf900; stroke-opacity: 0.7"/>
    </g>
   </g>
   <g id="PolyCollection_12">
    <defs>
     <path id="m724c1f067d" d="M 406.476889 -515.304684 
L 367.896094 -515.304684 
L 367.896094 -515.889039 
L 367.896094 -516.473393 
L 367.896094 -517.057748 
L 367.896094 -517.642103 
L 367.896094 -518.226457 
L 367.896094 -518.810812 
L 367.896094 -519.395167 
L 524.704131 -519.395167 
L 524.704131 -519.395167 
L 511.658518 -518.810812 
L 508.075587 -518.226457 
L 486.863093 -517.642103 
L 480.669568 -517.057748 
L 479.250443 -516.473393 
L 452.281607 -515.889039 
L 406.476889 -515.304684 
z
" style="stroke: #f9d700; stroke-opacity: 0.7"/>
    </defs>
    <g clip-path="url(#pa2ac0a833e)">
     <use xlink:href="#m724c1f067d" x="0" y="576" style="fill: #f9d700; fill-opacity: 0.7; stroke: #f9d700; stroke-opacity: 0.7"/>
    </g>
   </g>
   <g id="PolyCollection_13">
    <defs>
     <path id="mae1130f539" d="M 433.894488 -525.823069 
L 367.896094 -525.823069 
L 367.896094 -526.407423 
L 367.896094 -526.991778 
L 367.896094 -527.576133 
L 367.896094 -528.160487 
L 367.896094 -528.744842 
L 367.896094 -529.329197 
L 367.896094 -529.913551 
L 367.896094 -530.497906 
L 575.763536 -530.497906 
L 575.763536 -530.497906 
L 575.65138 -529.913551 
L 575.284862 -529.329197 
L 563.96691 -528.744842 
L 532.804779 -528.160487 
L 517.998988 -527.576133 
L 510.097074 -526.991778 
L 508.648667 -526.407423 
L 433.894488 -525.823069 
z
" style="stroke: #ff9900; stroke-opacity: 0.7"/>
    </defs>
    <g clip-path="url(#pa2ac0a833e)">
     <use xlink:href="#mae1130f539" x="0" y="576" style="fill: #ff9900; fill-opacity: 0.7; stroke: #ff9900; stroke-opacity: 0.7"/>
    </g>
   </g>
   <g id="PolyCollection_14">
    <defs>
     <path id="m7c2b6f26a7" d="M 648.803552 -536.925808 
L 367.896094 -536.925808 
L 367.896094 -537.510163 
L 367.896094 -538.094517 
L 671.027079 -538.094517 
L 671.027079 -538.094517 
L 670.595351 -537.510163 
L 648.803552 -536.925808 
z
" style="stroke: #f40000; stroke-opacity: 0.7"/>
    </defs>
    <g clip-path="url(#pa2ac0a833e)">
     <use xlink:href="#m7c2b6f26a7" x="0" y="576" style="fill: #f40000; fill-opacity: 0.7; stroke: #f40000; stroke-opacity: 0.7"/>
    </g>
   </g>
   <g id="PolyCollection_15">
    <defs>
     <path id="me1cd8bdd6d" d="M 537.120704 -544.522419 
L 367.896094 -544.522419 
L 367.896094 -545.106774 
L 539.962899 -545.106774 
L 539.962899 -545.106774 
L 537.120704 -544.522419 
z
" style="stroke: #d20000; stroke-opacity: 0.7"/>
    </defs>
    <g clip-path="url(#pa2ac0a833e)">
     <use xlink:href="#me1cd8bdd6d" x="0" y="576" style="fill: #d20000; fill-opacity: 0.7; stroke: #d20000; stroke-opacity: 0.7"/>
    </g>
   </g>
   <g id="matplotlib.axis_1">
    <g id="xtick_1">
     <g id="line2d_1">
      <defs>
       <path id="mf35dde9ee8" d="M 0 0 
L 0 3.5 
" style="stroke: #000000; stroke-width: 0.8"/>
      </defs>
      <g>
       <use xlink:href="#mf35dde9ee8" x="42.495313" y="510.648438" style="stroke: #000000; stroke-width: 0.8"/>
      </g>
     </g>
     <g id="text_1">
      <!-- −1.0 -->
      <g transform="translate(18.2125 532.845312) scale(0.2 -0.2)">
       <defs>
        <path id="DejaVuSans-2212" d="M 678 2272 
L 4684 2272 
L 4684 1741 
L 678 1741 
L 678 2272 
z
" transform="scale(0.015625)"/>
        <path id="DejaVuSans-31" d="M 794 531 
L 1825 531 
L 1825 4091 
L 703 3866 
L 703 4441 
L 1819 4666 
L 2450 4666 
L 2450 531 
L 3481 531 
L 3481 0 
L 794 0 
L 794 531 
z
" transform="scale(0.015625)"/>
        <path id="DejaVuSans-2e" d="M 684 794 
L 1344 794 
L 1344 0 
L 684 0 
L 684 794 
z
" transform="scale(0.015625)"/>
        <path id="DejaVuSans-30" d="M 2034 4250 
Q 1547 4250 1301 3770 
Q 1056 3291 1056 2328 
Q 1056 1369 1301 889 
Q 1547 409 2034 409 
Q 2525 409 2770 889 
Q 3016 1369 3016 2328 
Q 3016 3291 2770 3770 
Q 2525 4250 2034 4250 
z
M 2034 4750 
Q 2819 4750 3233 4129 
Q 3647 3509 3647 2328 
Q 3647 1150 3233 529 
Q 2819 -91 2034 -91 
Q 1250 -91 836 529 
Q 422 1150 422 2328 
Q 422 3509 836 4129 
Q 1250 4750 2034 4750 
z
" transform="scale(0.015625)"/>
       </defs>
       <use xlink:href="#DejaVuSans-2212"/>
       <use xlink:href="#DejaVuSans-31" x="83.789062"/>
       <use xlink:href="#DejaVuSans-2e" x="147.412109"/>
       <use xlink:href="#DejaVuSans-30" x="179.199219"/>
      </g>
     </g>
    </g>
    <g id="xtick_2">
     <g id="line2d_2">
      <g>
       <use xlink:href="#mf35dde9ee8" x="107.575469" y="510.648438" style="stroke: #000000; stroke-width: 0.8"/>
      </g>
     </g>
     <g id="text_2">
      <!-- −0.8 -->
      <g transform="translate(83.292656 532.845312) scale(0.2 -0.2)">
       <defs>
        <path id="DejaVuSans-38" d="M 2034 2216 
Q 1584 2216 1326 1975 
Q 1069 1734 1069 1313 
Q 1069 891 1326 650 
Q 1584 409 2034 409 
Q 2484 409 2743 651 
Q 3003 894 3003 1313 
Q 3003 1734 2745 1975 
Q 2488 2216 2034 2216 
z
M 1403 2484 
Q 997 2584 770 2862 
Q 544 3141 544 3541 
Q 544 4100 942 4425 
Q 1341 4750 2034 4750 
Q 2731 4750 3128 4425 
Q 3525 4100 3525 3541 
Q 3525 3141 3298 2862 
Q 3072 2584 2669 2484 
Q 3125 2378 3379 2068 
Q 3634 1759 3634 1313 
Q 3634 634 3220 271 
Q 2806 -91 2034 -91 
Q 1263 -91 848 271 
Q 434 634 434 1313 
Q 434 1759 690 2068 
Q 947 2378 1403 2484 
z
M 1172 3481 
Q 1172 3119 1398 2916 
Q 1625 2713 2034 2713 
Q 2441 2713 2670 2916 
Q 2900 3119 2900 3481 
Q 2900 3844 2670 4047 
Q 2441 4250 2034 4250 
Q 1625 4250 1398 4047 
Q 1172 3844 1172 3481 
z
" transform="scale(0.015625)"/>
       </defs>
       <use xlink:href="#DejaVuSans-2212"/>
       <use xlink:href="#DejaVuSans-30" x="83.789062"/>
       <use xlink:href="#DejaVuSans-2e" x="147.412109"/>
       <use xlink:href="#DejaVuSans-38" x="179.199219"/>
      </g>
     </g>
    </g>
    <g id="xtick_3">
     <g id="line2d_3">
      <g>
       <use xlink:href="#mf35dde9ee8" x="172.655625" y="510.648438" style="stroke: #000000; stroke-width: 0.8"/>
      </g>
     </g>
     <g id="text_3">
      <!-- −0.6 -->
      <g transform="translate(148.372813 532.845312) scale(0.2 -0.2)">
       <defs>
        <path id="DejaVuSans-36" d="M 2113 2584 
Q 1688 2584 1439 2293 
Q 1191 2003 1191 1497 
Q 1191 994 1439 701 
Q 1688 409 2113 409 
Q 2538 409 2786 701 
Q 3034 994 3034 1497 
Q 3034 2003 2786 2293 
Q 2538 2584 2113 2584 
z
M 3366 4563 
L 3366 3988 
Q 3128 4100 2886 4159 
Q 2644 4219 2406 4219 
Q 1781 4219 1451 3797 
Q 1122 3375 1075 2522 
Q 1259 2794 1537 2939 
Q 1816 3084 2150 3084 
Q 2853 3084 3261 2657 
Q 3669 2231 3669 1497 
Q 3669 778 3244 343 
Q 2819 -91 2113 -91 
Q 1303 -91 875 529 
Q 447 1150 447 2328 
Q 447 3434 972 4092 
Q 1497 4750 2381 4750 
Q 2619 4750 2861 4703 
Q 3103 4656 3366 4563 
z
" transform="scale(0.015625)"/>
       </defs>
       <use xlink:href="#DejaVuSans-2212"/>
       <use xlink:href="#DejaVuSans-30" x="83.789062"/>
       <use xlink:href="#DejaVuSans-2e" x="147.412109"/>
       <use xlink:href="#DejaVuSans-36" x="179.199219"/>
      </g>
     </g>
    </g>
    <g id="xtick_4">
     <g id="line2d_4">
      <g>
       <use xlink:href="#mf35dde9ee8" x="237.735781" y="510.648438" style="stroke: #000000; stroke-width: 0.8"/>
      </g>
     </g>
     <g id="text_4">
      <!-- −0.4 -->
      <g transform="translate(213.452969 532.845312) scale(0.2 -0.2)">
       <defs>
        <path id="DejaVuSans-34" d="M 2419 4116 
L 825 1625 
L 2419 1625 
L 2419 4116 
z
M 2253 4666 
L 3047 4666 
L 3047 1625 
L 3713 1625 
L 3713 1100 
L 3047 1100 
L 3047 0 
L 2419 0 
L 2419 1100 
L 313 1100 
L 313 1709 
L 2253 4666 
z
" transform="scale(0.015625)"/>
       </defs>
       <use xlink:href="#DejaVuSans-2212"/>
       <use xlink:href="#DejaVuSans-30" x="83.789062"/>
       <use xlink:href="#DejaVuSans-2e" x="147.412109"/>
       <use xlink:href="#DejaVuSans-34" x="179.199219"/>
      </g>
     </g>
    </g>
    <g id="xtick_5">
     <g id="line2d_5">
      <g>
       <use xlink:href="#mf35dde9ee8" x="302.815937" y="510.648438" style="stroke: #000000; stroke-width: 0.8"/>
      </g>
     </g>
     <g id="text_5">
      <!-- −0.2 -->
      <g transform="translate(278.533125 532.845312) scale(0.2 -0.2)">
       <defs>
        <path id="DejaVuSans-32" d="M 1228 531 
L 3431 531 
L 3431 0 
L 469 0 
L 469 531 
Q 828 903 1448 1529 
Q 2069 2156 2228 2338 
Q 2531 2678 2651 2914 
Q 2772 3150 2772 3378 
Q 2772 3750 2511 3984 
Q 2250 4219 1831 4219 
Q 1534 4219 1204 4116 
Q 875 4013 500 3803 
L 500 4441 
Q 881 4594 1212 4672 
Q 1544 4750 1819 4750 
Q 2544 4750 2975 4387 
Q 3406 4025 3406 3419 
Q 3406 3131 3298 2873 
Q 3191 2616 2906 2266 
Q 2828 2175 2409 1742 
Q 1991 1309 1228 531 
z
" transform="scale(0.015625)"/>
       </defs>
       <use xlink:href="#DejaVuSans-2212"/>
       <use xlink:href="#DejaVuSans-30" x="83.789062"/>
       <use xlink:href="#DejaVuSans-2e" x="147.412109"/>
       <use xlink:href="#DejaVuSans-32" x="179.199219"/>
      </g>
     </g>
    </g>
    <g id="xtick_6">
     <g id="line2d_6">
      <g>
       <use xlink:href="#mf35dde9ee8" x="367.896094" y="510.648438" style="stroke: #000000; stroke-width: 0.8"/>
      </g>
     </g>
     <g id="text_6">
      <!-- 0.0 -->
      <g transform="translate(351.992969 532.845312) scale(0.2 -0.2)">
       <use xlink:href="#DejaVuSans-30"/>
       <use xlink:href="#DejaVuSans-2e" x="63.623047"/>
       <use xlink:href="#DejaVuSans-30" x="95.410156"/>
      </g>
     </g>
    </g>
    <g id="xtick_7">
     <g id="line2d_7">
      <g>
       <use xlink:href="#mf35dde9ee8" x="432.97625" y="510.648438" style="stroke: #000000; stroke-width: 0.8"/>
      </g>
     </g>
     <g id="text_7">
      <!-- 0.2 -->
      <g transform="translate(417.073125 532.845312) scale(0.2 -0.2)">
       <use xlink:href="#DejaVuSans-30"/>
       <use xlink:href="#DejaVuSans-2e" x="63.623047"/>
       <use xlink:href="#DejaVuSans-32" x="95.410156"/>
      </g>
     </g>
    </g>
    <g id="xtick_8">
     <g id="line2d_8">
      <g>
       <use xlink:href="#mf35dde9ee8" x="498.056406" y="510.648438" style="stroke: #000000; stroke-width: 0.8"/>
      </g>
     </g>
     <g id="text_8">
      <!-- 0.4 -->
      <g transform="translate(482.153281 532.845312) scale(0.2 -0.2)">
       <use xlink:href="#DejaVuSans-30"/>
       <use xlink:href="#DejaVuSans-2e" x="63.623047"/>
       <use xlink:href="#DejaVuSans-34" x="95.410156"/>
      </g>
     </g>
    </g>
    <g id="xtick_9">
     <g id="line2d_9">
      <g>
       <use xlink:href="#mf35dde9ee8" x="563.136562" y="510.648438" style="stroke: #000000; stroke-width: 0.8"/>
      </g>
     </g>
     <g id="text_9">
      <!-- 0.6 -->
      <g transform="translate(547.233437 532.845312) scale(0.2 -0.2)">
       <use xlink:href="#DejaVuSans-30"/>
       <use xlink:href="#DejaVuSans-2e" x="63.623047"/>
       <use xlink:href="#DejaVuSans-36" x="95.410156"/>
      </g>
     </g>
    </g>
    <g id="xtick_10">
     <g id="line2d_10">
      <g>
       <use xlink:href="#mf35dde9ee8" x="628.216719" y="510.648438" style="stroke: #000000; stroke-width: 0.8"/>
      </g>
     </g>
     <g id="text_10">
      <!-- 0.8 -->
      <g transform="translate(612.313594 532.845312) scale(0.2 -0.2)">
       <use xlink:href="#DejaVuSans-30"/>
       <use xlink:href="#DejaVuSans-2e" x="63.623047"/>
       <use xlink:href="#DejaVuSans-38" x="95.410156"/>
      </g>
     </g>
    </g>
    <g id="xtick_11">
     <g id="line2d_11">
      <g>
       <use xlink:href="#mf35dde9ee8" x="693.296875" y="510.648438" style="stroke: #000000; stroke-width: 0.8"/>
      </g>
     </g>
     <g id="text_11">
      <!-- 1.0 -->
      <g transform="translate(677.39375 532.845312) scale(0.2 -0.2)">
       <use xlink:href="#DejaVuSans-31"/>
       <use xlink:href="#DejaVuSans-2e" x="63.623047"/>
       <use xlink:href="#DejaVuSans-30" x="95.410156"/>
      </g>
     </g>
    </g>
    <g id="text_12">
     <!-- Silhouette coefficient -->
     <g transform="translate(235.021094 560.000781) scale(0.25 -0.25)">
      <defs>
       <path id="DejaVuSans-53" d="M 3425 4513 
L 3425 3897 
Q 3066 4069 2747 4153 
Q 2428 4238 2131 4238 
Q 1616 4238 1336 4038 
Q 1056 3838 1056 3469 
Q 1056 3159 1242 3001 
Q 1428 2844 1947 2747 
L 2328 2669 
Q 3034 2534 3370 2195 
Q 3706 1856 3706 1288 
Q 3706 609 3251 259 
Q 2797 -91 1919 -91 
Q 1588 -91 1214 -16 
Q 841 59 441 206 
L 441 856 
Q 825 641 1194 531 
Q 1563 422 1919 422 
Q 2459 422 2753 634 
Q 3047 847 3047 1241 
Q 3047 1584 2836 1778 
Q 2625 1972 2144 2069 
L 1759 2144 
Q 1053 2284 737 2584 
Q 422 2884 422 3419 
Q 422 4038 858 4394 
Q 1294 4750 2059 4750 
Q 2388 4750 2728 4690 
Q 3069 4631 3425 4513 
z
" transform="scale(0.015625)"/>
       <path id="DejaVuSans-69" d="M 603 3500 
L 1178 3500 
L 1178 0 
L 603 0 
L 603 3500 
z
M 603 4863 
L 1178 4863 
L 1178 4134 
L 603 4134 
L 603 4863 
z
" transform="scale(0.015625)"/>
       <path id="DejaVuSans-6c" d="M 603 4863 
L 1178 4863 
L 1178 0 
L 603 0 
L 603 4863 
z
" transform="scale(0.015625)"/>
       <path id="DejaVuSans-68" d="M 3513 2113 
L 3513 0 
L 2938 0 
L 2938 2094 
Q 2938 2591 2744 2837 
Q 2550 3084 2163 3084 
Q 1697 3084 1428 2787 
Q 1159 2491 1159 1978 
L 1159 0 
L 581 0 
L 581 4863 
L 1159 4863 
L 1159 2956 
Q 1366 3272 1645 3428 
Q 1925 3584 2291 3584 
Q 2894 3584 3203 3211 
Q 3513 2838 3513 2113 
z
" transform="scale(0.015625)"/>
       <path id="DejaVuSans-6f" d="M 1959 3097 
Q 1497 3097 1228 2736 
Q 959 2375 959 1747 
Q 959 1119 1226 758 
Q 1494 397 1959 397 
Q 2419 397 2687 759 
Q 2956 1122 2956 1747 
Q 2956 2369 2687 2733 
Q 2419 3097 1959 3097 
z
M 1959 3584 
Q 2709 3584 3137 3096 
Q 3566 2609 3566 1747 
Q 3566 888 3137 398 
Q 2709 -91 1959 -91 
Q 1206 -91 779 398 
Q 353 888 353 1747 
Q 353 2609 779 3096 
Q 1206 3584 1959 3584 
z
" transform="scale(0.015625)"/>
       <path id="DejaVuSans-75" d="M 544 1381 
L 544 3500 
L 1119 3500 
L 1119 1403 
Q 1119 906 1312 657 
Q 1506 409 1894 409 
Q 2359 409 2629 706 
Q 2900 1003 2900 1516 
L 2900 3500 
L 3475 3500 
L 3475 0 
L 2900 0 
L 2900 538 
Q 2691 219 2414 64 
Q 2138 -91 1772 -91 
Q 1169 -91 856 284 
Q 544 659 544 1381 
z
M 1991 3584 
L 1991 3584 
z
" transform="scale(0.015625)"/>
       <path id="DejaVuSans-65" d="M 3597 1894 
L 3597 1613 
L 953 1613 
Q 991 1019 1311 708 
Q 1631 397 2203 397 
Q 2534 397 2845 478 
Q 3156 559 3463 722 
L 3463 178 
Q 3153 47 2828 -22 
Q 2503 -91 2169 -91 
Q 1331 -91 842 396 
Q 353 884 353 1716 
Q 353 2575 817 3079 
Q 1281 3584 2069 3584 
Q 2775 3584 3186 3129 
Q 3597 2675 3597 1894 
z
M 3022 2063 
Q 3016 2534 2758 2815 
Q 2500 3097 2075 3097 
Q 1594 3097 1305 2825 
Q 1016 2553 972 2059 
L 3022 2063 
z
" transform="scale(0.015625)"/>
       <path id="DejaVuSans-74" d="M 1172 4494 
L 1172 3500 
L 2356 3500 
L 2356 3053 
L 1172 3053 
L 1172 1153 
Q 1172 725 1289 603 
Q 1406 481 1766 481 
L 2356 481 
L 2356 0 
L 1766 0 
Q 1100 0 847 248 
Q 594 497 594 1153 
L 594 3053 
L 172 3053 
L 172 3500 
L 594 3500 
L 594 4494 
L 1172 4494 
z
" transform="scale(0.015625)"/>
       <path id="DejaVuSans-20" transform="scale(0.015625)"/>
       <path id="DejaVuSans-63" d="M 3122 3366 
L 3122 2828 
Q 2878 2963 2633 3030 
Q 2388 3097 2138 3097 
Q 1578 3097 1268 2742 
Q 959 2388 959 1747 
Q 959 1106 1268 751 
Q 1578 397 2138 397 
Q 2388 397 2633 464 
Q 2878 531 3122 666 
L 3122 134 
Q 2881 22 2623 -34 
Q 2366 -91 2075 -91 
Q 1284 -91 818 406 
Q 353 903 353 1747 
Q 353 2603 823 3093 
Q 1294 3584 2113 3584 
Q 2378 3584 2631 3529 
Q 2884 3475 3122 3366 
z
" transform="scale(0.015625)"/>
       <path id="DejaVuSans-66" d="M 2375 4863 
L 2375 4384 
L 1825 4384 
Q 1516 4384 1395 4259 
Q 1275 4134 1275 3809 
L 1275 3500 
L 2222 3500 
L 2222 3053 
L 1275 3053 
L 1275 0 
L 697 0 
L 697 3053 
L 147 3053 
L 147 3500 
L 697 3500 
L 697 3744 
Q 697 4328 969 4595 
Q 1241 4863 1831 4863 
L 2375 4863 
z
" transform="scale(0.015625)"/>
       <path id="DejaVuSans-6e" d="M 3513 2113 
L 3513 0 
L 2938 0 
L 2938 2094 
Q 2938 2591 2744 2837 
Q 2550 3084 2163 3084 
Q 1697 3084 1428 2787 
Q 1159 2491 1159 1978 
L 1159 0 
L 581 0 
L 581 3500 
L 1159 3500 
L 1159 2956 
Q 1366 3272 1645 3428 
Q 1925 3584 2291 3584 
Q 2894 3584 3203 3211 
Q 3513 2838 3513 2113 
z
" transform="scale(0.015625)"/>
      </defs>
      <use xlink:href="#DejaVuSans-53"/>
      <use xlink:href="#DejaVuSans-69" x="63.476562"/>
      <use xlink:href="#DejaVuSans-6c" x="91.259766"/>
      <use xlink:href="#DejaVuSans-68" x="119.042969"/>
      <use xlink:href="#DejaVuSans-6f" x="182.421875"/>
      <use xlink:href="#DejaVuSans-75" x="243.603516"/>
      <use xlink:href="#DejaVuSans-65" x="306.982422"/>
      <use xlink:href="#DejaVuSans-74" x="368.505859"/>
      <use xlink:href="#DejaVuSans-74" x="407.714844"/>
      <use xlink:href="#DejaVuSans-65" x="446.923828"/>
      <use xlink:href="#DejaVuSans-20" x="508.447266"/>
      <use xlink:href="#DejaVuSans-63" x="540.234375"/>
      <use xlink:href="#DejaVuSans-6f" x="595.214844"/>
      <use xlink:href="#DejaVuSans-65" x="656.396484"/>
      <use xlink:href="#DejaVuSans-66" x="717.919922"/>
      <use xlink:href="#DejaVuSans-66" x="753.125"/>
      <use xlink:href="#DejaVuSans-69" x="788.330078"/>
      <use xlink:href="#DejaVuSans-63" x="816.113281"/>
      <use xlink:href="#DejaVuSans-69" x="871.09375"/>
      <use xlink:href="#DejaVuSans-65" x="898.876953"/>
      <use xlink:href="#DejaVuSans-6e" x="960.400391"/>
      <use xlink:href="#DejaVuSans-74" x="1023.779297"/>
     </g>
    </g>
   </g>
   <g id="matplotlib.axis_2">
    <g id="text_13">
     <!-- Predicted label -->
     <g transform="translate(29.796094 360.43774) rotate(-90) scale(0.25 -0.25)">
      <defs>
       <path id="DejaVuSans-50" d="M 1259 4147 
L 1259 2394 
L 2053 2394 
Q 2494 2394 2734 2622 
Q 2975 2850 2975 3272 
Q 2975 3691 2734 3919 
Q 2494 4147 2053 4147 
L 1259 4147 
z
M 628 4666 
L 2053 4666 
Q 2838 4666 3239 4311 
Q 3641 3956 3641 3272 
Q 3641 2581 3239 2228 
Q 2838 1875 2053 1875 
L 1259 1875 
L 1259 0 
L 628 0 
L 628 4666 
z
" transform="scale(0.015625)"/>
       <path id="DejaVuSans-72" d="M 2631 2963 
Q 2534 3019 2420 3045 
Q 2306 3072 2169 3072 
Q 1681 3072 1420 2755 
Q 1159 2438 1159 1844 
L 1159 0 
L 581 0 
L 581 3500 
L 1159 3500 
L 1159 2956 
Q 1341 3275 1631 3429 
Q 1922 3584 2338 3584 
Q 2397 3584 2469 3576 
Q 2541 3569 2628 3553 
L 2631 2963 
z
" transform="scale(0.015625)"/>
       <path id="DejaVuSans-64" d="M 2906 2969 
L 2906 4863 
L 3481 4863 
L 3481 0 
L 2906 0 
L 2906 525 
Q 2725 213 2448 61 
Q 2172 -91 1784 -91 
Q 1150 -91 751 415 
Q 353 922 353 1747 
Q 353 2572 751 3078 
Q 1150 3584 1784 3584 
Q 2172 3584 2448 3432 
Q 2725 3281 2906 2969 
z
M 947 1747 
Q 947 1113 1208 752 
Q 1469 391 1925 391 
Q 2381 391 2643 752 
Q 2906 1113 2906 1747 
Q 2906 2381 2643 2742 
Q 2381 3103 1925 3103 
Q 1469 3103 1208 2742 
Q 947 2381 947 1747 
z
" transform="scale(0.015625)"/>
       <path id="DejaVuSans-61" d="M 2194 1759 
Q 1497 1759 1228 1600 
Q 959 1441 959 1056 
Q 959 750 1161 570 
Q 1363 391 1709 391 
Q 2188 391 2477 730 
Q 2766 1069 2766 1631 
L 2766 1759 
L 2194 1759 
z
M 3341 1997 
L 3341 0 
L 2766 0 
L 2766 531 
Q 2569 213 2275 61 
Q 1981 -91 1556 -91 
Q 1019 -91 701 211 
Q 384 513 384 1019 
Q 384 1609 779 1909 
Q 1175 2209 1959 2209 
L 2766 2209 
L 2766 2266 
Q 2766 2663 2505 2880 
Q 2244 3097 1772 3097 
Q 1472 3097 1187 3025 
Q 903 2953 641 2809 
L 641 3341 
Q 956 3463 1253 3523 
Q 1550 3584 1831 3584 
Q 2591 3584 2966 3190 
Q 3341 2797 3341 1997 
z
" transform="scale(0.015625)"/>
       <path id="DejaVuSans-62" d="M 3116 1747 
Q 3116 2381 2855 2742 
Q 2594 3103 2138 3103 
Q 1681 3103 1420 2742 
Q 1159 2381 1159 1747 
Q 1159 1113 1420 752 
Q 1681 391 2138 391 
Q 2594 391 2855 752 
Q 3116 1113 3116 1747 
z
M 1159 2969 
Q 1341 3281 1617 3432 
Q 1894 3584 2278 3584 
Q 2916 3584 3314 3078 
Q 3713 2572 3713 1747 
Q 3713 922 3314 415 
Q 2916 -91 2278 -91 
Q 1894 -91 1617 61 
Q 1341 213 1159 525 
L 1159 0 
L 581 0 
L 581 4863 
L 1159 4863 
L 1159 2969 
z
" transform="scale(0.015625)"/>
      </defs>
      <use xlink:href="#DejaVuSans-50"/>
      <use xlink:href="#DejaVuSans-72" x="58.552734"/>
      <use xlink:href="#DejaVuSans-65" x="97.416016"/>
      <use xlink:href="#DejaVuSans-64" x="158.939453"/>
      <use xlink:href="#DejaVuSans-69" x="222.416016"/>
      <use xlink:href="#DejaVuSans-63" x="250.199219"/>
      <use xlink:href="#DejaVuSans-74" x="305.179688"/>
      <use xlink:href="#DejaVuSans-65" x="344.388672"/>
      <use xlink:href="#DejaVuSans-64" x="405.912109"/>
      <use xlink:href="#DejaVuSans-20" x="469.388672"/>
      <use xlink:href="#DejaVuSans-6c" x="501.175781"/>
      <use xlink:href="#DejaVuSans-61" x="528.958984"/>
      <use xlink:href="#DejaVuSans-62" x="590.238281"/>
      <use xlink:href="#DejaVuSans-65" x="653.714844"/>
      <use xlink:href="#DejaVuSans-6c" x="715.238281"/>
     </g>
    </g>
   </g>
   <g id="line2d_12">
    <path d="M 538.775468 510.648438 
L 538.775468 24.465325 
" clip-path="url(#pa2ac0a833e)" style="fill: none; stroke: #ff0000; stroke-width: 4; stroke-linecap: square"/>
   </g>
   <g id="patch_3">
    <path d="M 42.495313 510.648438 
L 42.495313 24.465325 
" style="fill: none; stroke: #000000; stroke-width: 0.8; stroke-linejoin: miter; stroke-linecap: square"/>
   </g>
   <g id="patch_4">
    <path d="M 693.296875 510.648438 
L 693.296875 24.465325 
" style="fill: none; stroke: #000000; stroke-width: 0.8; stroke-linejoin: miter; stroke-linecap: square"/>
   </g>
   <g id="patch_5">
    <path d="M 42.495313 510.648438 
L 693.296875 510.648438 
" style="fill: none; stroke: #000000; stroke-width: 0.8; stroke-linejoin: miter; stroke-linecap: square"/>
   </g>
   <g id="patch_6">
    <path d="M 42.495313 24.465325 
L 693.296875 24.465325 
" style="fill: none; stroke: #000000; stroke-width: 0.8; stroke-linejoin: miter; stroke-linecap: square"/>
   </g>
   <g id="text_14">
    <!-- 0 -->
    <g transform="translate(351.626055 482.599412) scale(0.25 -0.25)">
     <use xlink:href="#DejaVuSans-30"/>
    </g>
   </g>
   <g id="text_15">
    <!-- 1 -->
    <g transform="translate(351.626055 450.459903) scale(0.25 -0.25)">
     <use xlink:href="#DejaVuSans-31"/>
    </g>
   </g>
   <g id="text_16">
    <!-- 2 -->
    <g transform="translate(351.626055 415.106444) scale(0.25 -0.25)">
     <use xlink:href="#DejaVuSans-32"/>
    </g>
   </g>
   <g id="text_17">
    <!-- 3 -->
    <g transform="translate(351.626055 359.300569) scale(0.25 -0.25)">
     <defs>
      <path id="DejaVuSans-33" d="M 2597 2516 
Q 3050 2419 3304 2112 
Q 3559 1806 3559 1356 
Q 3559 666 3084 287 
Q 2609 -91 1734 -91 
Q 1441 -91 1130 -33 
Q 819 25 488 141 
L 488 750 
Q 750 597 1062 519 
Q 1375 441 1716 441 
Q 2309 441 2620 675 
Q 2931 909 2931 1356 
Q 2931 1769 2642 2001 
Q 2353 2234 1838 2234 
L 1294 2234 
L 1294 2753 
L 1863 2753 
Q 2328 2753 2575 2939 
Q 2822 3125 2822 3475 
Q 2822 3834 2567 4026 
Q 2313 4219 1838 4219 
Q 1578 4219 1281 4162 
Q 984 4106 628 3988 
L 628 4550 
Q 988 4650 1302 4700 
Q 1616 4750 1894 4750 
Q 2613 4750 3031 4423 
Q 3450 4097 3450 3541 
Q 3450 3153 3228 2886 
Q 3006 2619 2597 2516 
z
" transform="scale(0.015625)"/>
     </defs>
     <use xlink:href="#DejaVuSans-33"/>
    </g>
   </g>
   <g id="text_18">
    <!-- 4 -->
    <g transform="translate(351.626055 323.070578) scale(0.25 -0.25)">
     <use xlink:href="#DejaVuSans-34"/>
    </g>
   </g>
   <g id="text_19">
    <!-- 5 -->
    <g transform="translate(351.626055 287.717118) scale(0.25 -0.25)">
     <defs>
      <path id="DejaVuSans-35" d="M 691 4666 
L 3169 4666 
L 3169 4134 
L 1269 4134 
L 1269 2991 
Q 1406 3038 1543 3061 
Q 1681 3084 1819 3084 
Q 2600 3084 3056 2656 
Q 3513 2228 3513 1497 
Q 3513 744 3044 326 
Q 2575 -91 1722 -91 
Q 1428 -91 1123 -41 
Q 819 9 494 109 
L 494 744 
Q 775 591 1075 516 
Q 1375 441 1709 441 
Q 2250 441 2565 725 
Q 2881 1009 2881 1497 
Q 2881 1984 2565 2268 
Q 2250 2553 1709 2553 
Q 1456 2553 1204 2497 
Q 953 2441 691 2322 
L 691 4666 
z
" transform="scale(0.015625)"/>
     </defs>
     <use xlink:href="#DejaVuSans-35"/>
    </g>
   </g>
   <g id="text_20">
    <!-- 6 -->
    <g transform="translate(351.626055 239.800033) scale(0.25 -0.25)">
     <use xlink:href="#DejaVuSans-36"/>
    </g>
   </g>
   <g id="text_21">
    <!-- 7 -->
    <g transform="translate(351.626055 156.821665) scale(0.25 -0.25)">
     <defs>
      <path id="DejaVuSans-37" d="M 525 4666 
L 3525 4666 
L 3525 4397 
L 1831 0 
L 1172 0 
L 2766 4134 
L 525 4134 
L 525 4666 
z
" transform="scale(0.015625)"/>
     </defs>
     <use xlink:href="#DejaVuSans-37"/>
    </g>
   </g>
   <g id="text_22">
    <!-- 8 -->
    <g transform="translate(351.626055 89.620874) scale(0.25 -0.25)">
     <use xlink:href="#DejaVuSans-38"/>
    </g>
   </g>
   <g id="text_23">
    <!-- 9 -->
    <g transform="translate(351.626055 79.102489) scale(0.25 -0.25)">
     <defs>
      <path id="DejaVuSans-39" d="M 703 97 
L 703 672 
Q 941 559 1184 500 
Q 1428 441 1663 441 
Q 2288 441 2617 861 
Q 2947 1281 2994 2138 
Q 2813 1869 2534 1725 
Q 2256 1581 1919 1581 
Q 1219 1581 811 2004 
Q 403 2428 403 3163 
Q 403 3881 828 4315 
Q 1253 4750 1959 4750 
Q 2769 4750 3195 4129 
Q 3622 3509 3622 2328 
Q 3622 1225 3098 567 
Q 2575 -91 1691 -91 
Q 1453 -91 1209 -44 
Q 966 3 703 97 
z
M 1959 2075 
Q 2384 2075 2632 2365 
Q 2881 2656 2881 3163 
Q 2881 3666 2632 3958 
Q 2384 4250 1959 4250 
Q 1534 4250 1286 3958 
Q 1038 3666 1038 3163 
Q 1038 2656 1286 2365 
Q 1534 2075 1959 2075 
z
" transform="scale(0.015625)"/>
     </defs>
     <use xlink:href="#DejaVuSans-39"/>
    </g>
   </g>
   <g id="text_24">
    <!-- 10 -->
    <g transform="translate(351.626055 68.876282) scale(0.25 -0.25)">
     <use xlink:href="#DejaVuSans-31"/>
     <use xlink:href="#DejaVuSans-30" x="63.623047"/>
    </g>
   </g>
   <g id="text_25">
    <!-- 11 -->
    <g transform="translate(351.626055 58.357897) scale(0.25 -0.25)">
     <use xlink:href="#DejaVuSans-31"/>
     <use xlink:href="#DejaVuSans-31" x="63.623047"/>
    </g>
   </g>
   <g id="text_26">
    <!-- 12 -->
    <g transform="translate(351.626055 47.547335) scale(0.25 -0.25)">
     <use xlink:href="#DejaVuSans-31"/>
     <use xlink:href="#DejaVuSans-32" x="63.623047"/>
    </g>
   </g>
   <g id="text_27">
    <!-- 13 -->
    <g transform="translate(351.626055 38.19766) scale(0.25 -0.25)">
     <use xlink:href="#DejaVuSans-31"/>
     <use xlink:href="#DejaVuSans-33" x="63.623047"/>
    </g>
   </g>
   <g id="text_28">
    <!-- 14 -->
    <g transform="translate(351.626055 30.893226) scale(0.25 -0.25)">
     <use xlink:href="#DejaVuSans-31"/>
     <use xlink:href="#DejaVuSans-34" x="63.623047"/>
    </g>
   </g>
   <g id="text_29">
    <!-- 0.5251 -->
    <g style="fill: #ff0000" transform="translate(555.045507 30.308872) scale(0.25 -0.25)">
     <use xlink:href="#DejaVuSans-30"/>
     <use xlink:href="#DejaVuSans-2e" x="63.623047"/>
     <use xlink:href="#DejaVuSans-35" x="95.410156"/>
     <use xlink:href="#DejaVuSans-32" x="159.033203"/>
     <use xlink:href="#DejaVuSans-35" x="222.65625"/>
     <use xlink:href="#DejaVuSans-31" x="286.279297"/>
    </g>
   </g>
  </g>
 </g>
 <defs>
  <clipPath id="pa2ac0a833e">
   <rect x="42.495313" y="24.465325" width="650.801562" height="486.183113"/>
  </clipPath>
 </defs>
</svg>
