<?xml version="1.0" encoding="utf-8" standalone="no"?>
<!DOCTYPE svg PUBLIC "-//W3C//DTD SVG 1.1//EN"
  "http://www.w3.org/Graphics/SVG/1.1/DTD/svg11.dtd">
<svg xmlns:xlink="http://www.w3.org/1999/xlink" width="720pt" height="576pt" viewBox="0 0 720 576" xmlns="http://www.w3.org/2000/svg" version="1.1">
 <metadata>
  <rdf:RDF xmlns:dc="http://purl.org/dc/elements/1.1/" xmlns:cc="http://creativecommons.org/ns#" xmlns:rdf="http://www.w3.org/1999/02/22-rdf-syntax-ns#">
   <cc:Work>
    <dc:type rdf:resource="http://purl.org/dc/dcmitype/StillImage"/>
    <dc:date>2022-11-21T18:22:19.860716</dc:date>
    <dc:format>image/svg+xml</dc:format>
    <dc:creator>
     <cc:Agent>
      <dc:title>Matplotlib v3.6.1, https://matplotlib.org/</dc:title>
     </cc:Agent>
    </dc:creator>
   </cc:Work>
  </rdf:RDF>
 </metadata>
 <defs>
  <style type="text/css">*{stroke-linejoin: round; stroke-linecap: butt}</style>
 </defs>
 <g id="figure_1">
  <g id="patch_1">
   <path d="M 0 576 
L 720 576 
L 720 0 
L 0 0 
z
" style="fill: #ffffff"/>
  </g>
  <g id="axes_1">
   <g id="patch_2">
    <path d="M 42.495313 510.648438 
L 693.296875 510.648438 
L 693.296875 24.465325 
L 42.495313 24.465325 
z
" style="fill: #ffffff"/>
   </g>
   <g id="PolyCollection_1">
    <defs>
     <path id="medfe49b6ba" d="M 424.517221 -71.19511 
L 367.896094 -71.19511 
L 367.896094 -71.779464 
L 367.896094 -72.363819 
L 367.896094 -72.948174 
L 367.896094 -73.532528 
L 367.896094 -74.116883 
L 367.896094 -74.701238 
L 367.896094 -75.285592 
L 367.896094 -75.869947 
L 367.896094 -76.454302 
L 367.896094 -77.038657 
L 367.896094 -77.623011 
L 367.896094 -78.207366 
L 367.896094 -78.791721 
L 367.896094 -79.376075 
L 367.896094 -79.96043 
L 367.896094 -80.544785 
L 367.896094 -81.129139 
L 367.896094 -81.713494 
L 367.896094 -82.297849 
L 367.896094 -82.882204 
L 367.896094 -83.466558 
L 367.896094 -84.050913 
L 367.896094 -84.635268 
L 367.896094 -85.219622 
L 367.896094 -85.803977 
L 367.896094 -86.388332 
L 367.896094 -86.972687 
L 367.896094 -87.557041 
L 367.896094 -88.141396 
L 367.896094 -88.725751 
L 367.896094 -89.310105 
L 367.896094 -89.89446 
L 367.896094 -90.478815 
L 367.896094 -91.063169 
L 367.896094 -91.647524 
L 367.896094 -92.231879 
L 367.896094 -92.816234 
L 367.896094 -93.400588 
L 367.896094 -93.984943 
L 367.896094 -94.569298 
L 367.896094 -95.153652 
L 367.896094 -95.738007 
L 367.896094 -96.322362 
L 367.896094 -96.906716 
L 367.896094 -97.491071 
L 367.896094 -98.075426 
L 367.896094 -98.659781 
L 367.896094 -99.244135 
L 367.896094 -99.82849 
L 367.896094 -100.412845 
L 367.896094 -100.997199 
L 367.896094 -101.581554 
L 367.896094 -102.165909 
L 367.896094 -102.750263 
L 367.896094 -103.334618 
L 367.896094 -103.918973 
L 367.896094 -104.503328 
L 367.896094 -105.087682 
L 367.896094 -105.672037 
L 367.896094 -106.256392 
L 367.896094 -106.840746 
L 367.896094 -107.425101 
L 367.896094 -108.009456 
L 367.896094 -108.593811 
L 367.896094 -109.178165 
L 367.896094 -109.76252 
L 367.896094 -110.346875 
L 367.896094 -110.931229 
L 367.896094 -111.515584 
L 367.896094 -112.099939 
L 367.896094 -112.684293 
L 367.896094 -113.268648 
L 367.896094 -113.853003 
L 367.896094 -114.437358 
L 367.896094 -115.021712 
L 587.440334 -115.021712 
L 587.440334 -115.021712 
L 586.935952 -114.437358 
L 586.843975 -113.853003 
L 586.784245 -113.268648 
L 586.698634 -112.684293 
L 586.296474 -112.099939 
L 586.254793 -111.515584 
L 585.948663 -110.931229 
L 585.181141 -110.346875 
L 578.280392 -109.76252 
L 578.055873 -109.178165 
L 578.031825 -108.593811 
L 578.019945 -108.009456 
L 577.883919 -107.425101 
L 577.811022 -106.840746 
L 577.029288 -106.256392 
L 576.344109 -105.672037 
L 574.936496 -105.087682 
L 573.475303 -104.503328 
L 571.624615 -103.918973 
L 570.399933 -103.334618 
L 570.035023 -102.750263 
L 568.696123 -102.165909 
L 568.365517 -101.581554 
L 567.930187 -100.997199 
L 567.883934 -100.412845 
L 567.550453 -99.82849 
L 567.377924 -99.244135 
L 566.659946 -98.659781 
L 566.432502 -98.075426 
L 564.900301 -97.491071 
L 560.182297 -96.906716 
L 560.118304 -96.322362 
L 558.5218 -95.738007 
L 556.975168 -95.153652 
L 556.499414 -94.569298 
L 550.589844 -93.984943 
L 549.034126 -93.400588 
L 547.826754 -92.816234 
L 547.532017 -92.231879 
L 546.258273 -91.647524 
L 546.101094 -91.063169 
L 544.517664 -90.478815 
L 543.25753 -89.89446 
L 540.574572 -89.310105 
L 540.526688 -88.725751 
L 539.448032 -88.141396 
L 531.353461 -87.557041 
L 530.715588 -86.972687 
L 523.399536 -86.388332 
L 522.340413 -85.803977 
L 522.064247 -85.219622 
L 520.860135 -84.635268 
L 519.452284 -84.050913 
L 519.446076 -83.466558 
L 515.547666 -82.882204 
L 503.735006 -82.297849 
L 501.938895 -81.713494 
L 501.324393 -81.129139 
L 500.345836 -80.544785 
L 499.985612 -79.96043 
L 496.868755 -79.376075 
L 495.755293 -78.791721 
L 494.141572 -78.207366 
L 491.386303 -77.623011 
L 489.24933 -77.038657 
L 489.132789 -76.454302 
L 487.040345 -75.869947 
L 484.081392 -75.285592 
L 483.034269 -74.701238 
L 480.198382 -74.116883 
L 450.865782 -73.532528 
L 447.2824 -72.948174 
L 444.231819 -72.363819 
L 433.840761 -71.779464 
L 424.517221 -71.19511 
z
" style="stroke: #000000; stroke-opacity: 0.7"/>
    </defs>
    <g clip-path="url(#p06bd915b1f)">
     <use xlink:href="#medfe49b6ba" x="0" y="576" style="fill-opacity: 0.7; stroke: #000000; stroke-opacity: 0.7"/>
    </g>
   </g>
   <g id="PolyCollection_2">
    <defs>
     <path id="m2ec0087bc2" d="M 465.134565 -121.449614 
L 367.896094 -121.449614 
L 367.896094 -122.033969 
L 367.896094 -122.618323 
L 367.896094 -123.202678 
L 367.896094 -123.787033 
L 367.896094 -124.371388 
L 367.896094 -124.955742 
L 367.896094 -125.540097 
L 367.896094 -126.124452 
L 367.896094 -126.708806 
L 367.896094 -127.293161 
L 367.896094 -127.877516 
L 367.896094 -128.46187 
L 367.896094 -129.046225 
L 536.082612 -129.046225 
L 536.082612 -129.046225 
L 534.835325 -128.46187 
L 534.523414 -127.877516 
L 529.427076 -127.293161 
L 528.797862 -126.708806 
L 527.333319 -126.124452 
L 526.82909 -125.540097 
L 523.26088 -124.955742 
L 512.396495 -124.371388 
L 502.686536 -123.787033 
L 466.028683 -123.202678 
L 465.983052 -122.618323 
L 465.48636 -122.033969 
L 465.134565 -121.449614 
z
" style="stroke: #7d008e; stroke-opacity: 0.7"/>
    </defs>
    <g clip-path="url(#p06bd915b1f)">
     <use xlink:href="#m2ec0087bc2" x="0" y="576" style="fill: #7d008e; fill-opacity: 0.7; stroke: #7d008e; stroke-opacity: 0.7"/>
    </g>
   </g>
   <g id="PolyCollection_3">
    <defs>
     <path id="m5f980c7d0b" d="M 368.2133 -135.474127 
L 367.896094 -135.474127 
L 367.896094 -136.058482 
L 367.896094 -136.642836 
L 367.896094 -137.227191 
L 367.896094 -137.811546 
L 367.896094 -138.3959 
L 367.896094 -138.980255 
L 367.896094 -139.56461 
L 367.896094 -140.148964 
L 367.896094 -140.733319 
L 367.896094 -141.317674 
L 367.896094 -141.902029 
L 367.896094 -142.486383 
L 367.896094 -143.070738 
L 367.896094 -143.655093 
L 367.896094 -144.239447 
L 367.896094 -144.823802 
L 367.896094 -145.408157 
L 367.896094 -145.992512 
L 367.896094 -146.576866 
L 367.896094 -147.161221 
L 367.896094 -147.745576 
L 367.896094 -148.32993 
L 367.896094 -148.914285 
L 367.896094 -149.49864 
L 367.896094 -150.082994 
L 367.896094 -150.667349 
L 367.896094 -151.251704 
L 367.896094 -151.836059 
L 367.896094 -152.420413 
L 367.896094 -153.004768 
L 367.896094 -153.589123 
L 367.896094 -154.173477 
L 367.896094 -154.757832 
L 367.896094 -155.342187 
L 367.896094 -155.926541 
L 367.896094 -156.510896 
L 367.896094 -157.095251 
L 367.896094 -157.679606 
L 367.896094 -158.26396 
L 367.896094 -158.848315 
L 367.896094 -159.43267 
L 367.896094 -160.017024 
L 367.896094 -160.601379 
L 367.896094 -161.185734 
L 367.896094 -161.770089 
L 367.896094 -162.354443 
L 367.896094 -162.938798 
L 367.896094 -163.523153 
L 367.896094 -164.107507 
L 367.896094 -164.691862 
L 367.896094 -165.276217 
L 367.896094 -165.860571 
L 367.896094 -166.444926 
L 367.896094 -167.029281 
L 367.896094 -167.613636 
L 367.896094 -168.19799 
L 367.896094 -168.782345 
L 367.896094 -169.3667 
L 367.896094 -169.951054 
L 367.896094 -170.535409 
L 367.896094 -171.119764 
L 367.896094 -171.704118 
L 367.896094 -172.288473 
L 367.896094 -172.872828 
L 367.896094 -173.457183 
L 367.896094 -174.041537 
L 367.896094 -174.625892 
L 367.896094 -175.210247 
L 367.896094 -175.794601 
L 367.896094 -176.378956 
L 367.896094 -176.963311 
L 367.896094 -177.547665 
L 367.896094 -178.13202 
L 367.896094 -178.716375 
L 367.896094 -179.30073 
L 367.896094 -179.885084 
L 367.896094 -180.469439 
L 367.896094 -181.053794 
L 367.896094 -181.638148 
L 367.896094 -182.222503 
L 367.896094 -182.806858 
L 367.896094 -183.391213 
L 367.896094 -183.975567 
L 367.896094 -184.559922 
L 367.896094 -185.144277 
L 367.896094 -185.728631 
L 569.213212 -185.728631 
L 569.213212 -185.728631 
L 566.134045 -185.144277 
L 565.226914 -184.559922 
L 563.141989 -183.975567 
L 562.258328 -183.391213 
L 562.189351 -182.806858 
L 561.959042 -182.222503 
L 561.091598 -181.638148 
L 560.248435 -181.053794 
L 560.050256 -180.469439 
L 558.856113 -179.885084 
L 558.101166 -179.30073 
L 556.36285 -178.716375 
L 556.158761 -178.13202 
L 555.918919 -177.547665 
L 555.846224 -176.963311 
L 554.912536 -176.378956 
L 554.816594 -175.794601 
L 554.763549 -175.210247 
L 554.372483 -174.625892 
L 554.368995 -174.041537 
L 554.065378 -173.457183 
L 553.481254 -172.872828 
L 552.703693 -172.288473 
L 552.632203 -171.704118 
L 552.240522 -171.119764 
L 551.23691 -170.535409 
L 550.927728 -169.951054 
L 550.722905 -169.3667 
L 550.63299 -168.782345 
L 550.622661 -168.19799 
L 550.187088 -167.613636 
L 549.883688 -167.029281 
L 549.007737 -166.444926 
L 548.579459 -165.860571 
L 548.453572 -165.276217 
L 547.470109 -164.691862 
L 546.904868 -164.107507 
L 545.402313 -163.523153 
L 544.803688 -162.938798 
L 544.025378 -162.354443 
L 543.714529 -161.770089 
L 542.781895 -161.185734 
L 540.891315 -160.601379 
L 540.889599 -160.017024 
L 540.739456 -159.43267 
L 540.689629 -158.848315 
L 540.384181 -158.26396 
L 539.488823 -157.679606 
L 537.699134 -157.095251 
L 535.648907 -156.510896 
L 535.034005 -155.926541 
L 534.141375 -155.342187 
L 531.990903 -154.757832 
L 531.771227 -154.173477 
L 531.524515 -153.589123 
L 530.680536 -153.004768 
L 530.156285 -152.420413 
L 530.118049 -151.836059 
L 529.922812 -151.251704 
L 529.183977 -150.667349 
L 529.176936 -150.082994 
L 528.880207 -149.49864 
L 528.614597 -148.914285 
L 528.231334 -148.32993 
L 525.635857 -147.745576 
L 524.586664 -147.161221 
L 521.905309 -146.576866 
L 520.171287 -145.992512 
L 517.199026 -145.408157 
L 513.673115 -144.823802 
L 513.033049 -144.239447 
L 511.871021 -143.655093 
L 510.246209 -143.070738 
L 507.95486 -142.486383 
L 506.683079 -141.902029 
L 506.434105 -141.317674 
L 504.155248 -140.733319 
L 500.873652 -140.148964 
L 500.366831 -139.56461 
L 492.765977 -138.980255 
L 488.667952 -138.3959 
L 479.987482 -137.811546 
L 467.561117 -137.227191 
L 458.10764 -136.642836 
L 439.520085 -136.058482 
L 368.2133 -135.474127 
z
" style="stroke: #2d00a4; stroke-opacity: 0.7"/>
    </defs>
    <g clip-path="url(#p06bd915b1f)">
     <use xlink:href="#m5f980c7d0b" x="0" y="576" style="fill: #2d00a4; fill-opacity: 0.7; stroke: #2d00a4; stroke-opacity: 0.7"/>
    </g>
   </g>
   <g id="PolyCollection_4">
    <defs>
     <path id="m151a254073" d="M 385.305203 -192.156533 
L 367.896094 -192.156533 
L 367.896094 -192.740888 
L 367.896094 -193.325242 
L 367.896094 -193.909597 
L 367.896094 -194.493952 
L 367.896094 -195.078307 
L 367.896094 -195.662661 
L 367.896094 -196.247016 
L 367.896094 -196.831371 
L 367.896094 -197.415725 
L 367.896094 -198.00008 
L 367.896094 -198.584435 
L 367.896094 -199.16879 
L 367.896094 -199.753144 
L 367.896094 -200.337499 
L 367.896094 -200.921854 
L 367.896094 -201.506208 
L 367.896094 -202.090563 
L 367.896094 -202.674918 
L 367.896094 -203.259272 
L 521.381729 -203.259272 
L 521.381729 -203.259272 
L 512.866503 -202.674918 
L 512.781801 -202.090563 
L 505.351927 -201.506208 
L 502.729576 -200.921854 
L 501.010973 -200.337499 
L 498.979073 -199.753144 
L 494.023982 -199.16879 
L 491.832922 -198.584435 
L 491.135352 -198.00008 
L 487.476095 -197.415725 
L 475.617989 -196.831371 
L 471.817573 -196.247016 
L 471.278827 -195.662661 
L 471.230972 -195.078307 
L 468.356235 -194.493952 
L 464.475554 -193.909597 
L 463.710836 -193.325242 
L 462.246731 -192.740888 
L 385.305203 -192.156533 
z
" style="stroke: #0000dd; stroke-opacity: 0.7"/>
    </defs>
    <g clip-path="url(#p06bd915b1f)">
     <use xlink:href="#m151a254073" x="0" y="576" style="fill: #0000dd; fill-opacity: 0.7; stroke: #0000dd; stroke-opacity: 0.7"/>
    </g>
   </g>
   <g id="PolyCollection_5">
    <defs>
     <path id="m21cc282682" d="M 296.791655 -209.687174 
L 367.896094 -209.687174 
L 367.896094 -210.271529 
L 367.896094 -210.855884 
L 367.896094 -211.440238 
L 367.896094 -212.024593 
L 367.896094 -212.608948 
L 367.896094 -213.193302 
L 367.896094 -213.777657 
L 367.896094 -214.362012 
L 367.896094 -214.946366 
L 367.896094 -215.530721 
L 367.896094 -216.115076 
L 367.896094 -216.699431 
L 367.896094 -217.283785 
L 367.896094 -217.86814 
L 367.896094 -218.452495 
L 367.896094 -219.036849 
L 367.896094 -219.621204 
L 367.896094 -220.205559 
L 367.896094 -220.789914 
L 367.896094 -221.374268 
L 367.896094 -221.958623 
L 367.896094 -222.542978 
L 367.896094 -223.127332 
L 367.896094 -223.711687 
L 367.896094 -224.296042 
L 367.896094 -224.880396 
L 367.896094 -225.464751 
L 367.896094 -226.049106 
L 367.896094 -226.633461 
L 367.896094 -227.217815 
L 367.896094 -227.80217 
L 367.896094 -228.386525 
L 367.896094 -228.970879 
L 367.896094 -229.555234 
L 367.896094 -230.139589 
L 367.896094 -230.723943 
L 367.896094 -231.308298 
L 367.896094 -231.892653 
L 367.896094 -232.477008 
L 367.896094 -233.061362 
L 367.896094 -233.645717 
L 367.896094 -234.230072 
L 367.896094 -234.814426 
L 367.896094 -235.398781 
L 367.896094 -235.983136 
L 367.896094 -236.567491 
L 367.896094 -237.151845 
L 367.896094 -237.7362 
L 367.896094 -238.320555 
L 367.896094 -238.904909 
L 367.896094 -239.489264 
L 367.896094 -240.073619 
L 367.896094 -240.657973 
L 367.896094 -241.242328 
L 367.896094 -241.826683 
L 367.896094 -242.411038 
L 367.896094 -242.995392 
L 367.896094 -243.579747 
L 367.896094 -244.164102 
L 367.896094 -244.748456 
L 367.896094 -245.332811 
L 367.896094 -245.917166 
L 583.460022 -245.917166 
L 583.460022 -245.917166 
L 583.354498 -245.332811 
L 583.13952 -244.748456 
L 583.116953 -244.164102 
L 583.077881 -243.579747 
L 582.856253 -242.995392 
L 582.679161 -242.411038 
L 581.957148 -241.826683 
L 581.903987 -241.242328 
L 581.900945 -240.657973 
L 581.851922 -240.073619 
L 581.749714 -239.489264 
L 575.211468 -238.904909 
L 574.941517 -238.320555 
L 574.709676 -237.7362 
L 574.475767 -237.151845 
L 574.393415 -236.567491 
L 574.363292 -235.983136 
L 573.991596 -235.398781 
L 573.873091 -234.814426 
L 570.797065 -234.230072 
L 565.787543 -233.645717 
L 565.278459 -233.061362 
L 565.152862 -232.477008 
L 564.503373 -231.892653 
L 563.855101 -231.308298 
L 563.528721 -230.723943 
L 562.568678 -230.139589 
L 560.571436 -229.555234 
L 559.464783 -228.970879 
L 557.727787 -228.386525 
L 554.109701 -227.80217 
L 553.540988 -227.217815 
L 552.878525 -226.633461 
L 552.868352 -226.049106 
L 541.34797 -225.464751 
L 532.875007 -224.880396 
L 525.694259 -224.296042 
L 525.635101 -223.711687 
L 524.57388 -223.127332 
L 513.280267 -222.542978 
L 512.000605 -221.958623 
L 508.03414 -221.374268 
L 490.707552 -220.789914 
L 478.510947 -220.205559 
L 463.703314 -219.621204 
L 461.690791 -219.036849 
L 458.916187 -218.452495 
L 424.45538 -217.86814 
L 418.312804 -217.283785 
L 413.040398 -216.699431 
L 411.128343 -216.115076 
L 410.597898 -215.530721 
L 382.140143 -214.946366 
L 371.493246 -214.362012 
L 370.067242 -213.777657 
L 361.819542 -213.193302 
L 356.831338 -212.608948 
L 355.348497 -212.024593 
L 336.672374 -211.440238 
L 321.59372 -210.855884 
L 314.428991 -210.271529 
L 296.791655 -209.687174 
z
" style="stroke: #0082dd; stroke-opacity: 0.7"/>
    </defs>
    <g clip-path="url(#p06bd915b1f)">
     <use xlink:href="#m21cc282682" x="0" y="576" style="fill: #0082dd; fill-opacity: 0.7; stroke: #0082dd; stroke-opacity: 0.7"/>
    </g>
   </g>
   <g id="PolyCollection_6">
    <defs>
     <path id="m65f29acd4c" d="M 406.425897 -252.345067 
L 367.896094 -252.345067 
L 367.896094 -252.929422 
L 367.896094 -253.513777 
L 367.896094 -254.098132 
L 367.896094 -254.682486 
L 367.896094 -255.266841 
L 367.896094 -255.851196 
L 367.896094 -256.43555 
L 524.66277 -256.43555 
L 524.66277 -256.43555 
L 511.604412 -255.851196 
L 508.042132 -255.266841 
L 486.839584 -254.682486 
L 480.648128 -254.098132 
L 479.211986 -253.513777 
L 452.229914 -252.929422 
L 406.425897 -252.345067 
z
" style="stroke: #00a4bb; stroke-opacity: 0.7"/>
    </defs>
    <g clip-path="url(#p06bd915b1f)">
     <use xlink:href="#m65f29acd4c" x="0" y="576" style="fill: #00a4bb; fill-opacity: 0.7; stroke: #00a4bb; stroke-opacity: 0.7"/>
    </g>
   </g>
   <g id="PolyCollection_7">
    <defs>
     <path id="m8f183748e4" d="M 292.92493 -262.863452 
L 367.896094 -262.863452 
L 367.896094 -263.447807 
L 367.896094 -264.032162 
L 367.896094 -264.616516 
L 367.896094 -265.200871 
L 367.896094 -265.785226 
L 367.896094 -266.36958 
L 367.896094 -266.953935 
L 367.896094 -267.53829 
L 367.896094 -268.122644 
L 367.896094 -268.706999 
L 367.896094 -269.291354 
L 367.896094 -269.875709 
L 367.896094 -270.460063 
L 367.896094 -271.044418 
L 367.896094 -271.628773 
L 367.896094 -272.213127 
L 367.896094 -272.797482 
L 367.896094 -273.381837 
L 367.896094 -273.966192 
L 367.896094 -274.550546 
L 367.896094 -275.134901 
L 367.896094 -275.719256 
L 367.896094 -276.30361 
L 367.896094 -276.887965 
L 367.896094 -277.47232 
L 367.896094 -278.056674 
L 367.896094 -278.641029 
L 367.896094 -279.225384 
L 367.896094 -279.809739 
L 367.896094 -280.394093 
L 367.896094 -280.978448 
L 367.896094 -281.562803 
L 367.896094 -282.147157 
L 367.896094 -282.731512 
L 367.896094 -283.315867 
L 367.896094 -283.900221 
L 367.896094 -284.484576 
L 367.896094 -285.068931 
L 367.896094 -285.653286 
L 367.896094 -286.23764 
L 367.896094 -286.821995 
L 367.896094 -287.40635 
L 367.896094 -287.990704 
L 367.896094 -288.575059 
L 367.896094 -289.159414 
L 367.896094 -289.743768 
L 367.896094 -290.328123 
L 367.896094 -290.912478 
L 367.896094 -291.496833 
L 367.896094 -292.081187 
L 367.896094 -292.665542 
L 367.896094 -293.249897 
L 367.896094 -293.834251 
L 367.896094 -294.418606 
L 367.896094 -295.002961 
L 367.896094 -295.587316 
L 367.896094 -296.17167 
L 367.896094 -296.756025 
L 367.896094 -297.34038 
L 367.896094 -297.924734 
L 367.896094 -298.509089 
L 367.896094 -299.093444 
L 367.896094 -299.677798 
L 367.896094 -300.262153 
L 367.896094 -300.846508 
L 367.896094 -301.430863 
L 367.896094 -302.015217 
L 367.896094 -302.599572 
L 367.896094 -303.183927 
L 367.896094 -303.768281 
L 367.896094 -304.352636 
L 367.896094 -304.936991 
L 367.896094 -305.521345 
L 367.896094 -306.1057 
L 367.896094 -306.690055 
L 367.896094 -307.27441 
L 367.896094 -307.858764 
L 367.896094 -308.443119 
L 367.896094 -309.027474 
L 367.896094 -309.611828 
L 573.122463 -309.611828 
L 573.122463 -309.611828 
L 572.493728 -309.027474 
L 572.456032 -308.443119 
L 572.268149 -307.858764 
L 572.169256 -307.27441 
L 571.626682 -306.690055 
L 571.556408 -306.1057 
L 570.581571 -305.521345 
L 570.282594 -304.936991 
L 570.168091 -304.352636 
L 568.262941 -303.768281 
L 567.231109 -303.183927 
L 564.120943 -302.599572 
L 563.449119 -302.015217 
L 562.485542 -301.430863 
L 562.048137 -300.846508 
L 560.807124 -300.262153 
L 559.583105 -299.677798 
L 556.762155 -299.093444 
L 556.210089 -298.509089 
L 555.069269 -297.924734 
L 553.984363 -297.34038 
L 553.325432 -296.756025 
L 552.96532 -296.17167 
L 552.870519 -295.587316 
L 552.535797 -295.002961 
L 552.498304 -294.418606 
L 551.954625 -293.834251 
L 551.67966 -293.249897 
L 551.638972 -292.665542 
L 551.624906 -292.081187 
L 551.349298 -291.496833 
L 550.513648 -290.912478 
L 546.095341 -290.328123 
L 545.976634 -289.743768 
L 545.875377 -289.159414 
L 545.788211 -288.575059 
L 545.780282 -287.990704 
L 545.465418 -287.40635 
L 545.457773 -286.821995 
L 545.328638 -286.23764 
L 540.845473 -285.653286 
L 539.202996 -285.068931 
L 537.745311 -284.484576 
L 537.227646 -283.900221 
L 537.21908 -283.315867 
L 536.589162 -282.731512 
L 532.382936 -282.147157 
L 532.19604 -281.562803 
L 531.829476 -280.978448 
L 530.191552 -280.394093 
L 528.978843 -279.809739 
L 528.22167 -279.225384 
L 524.098315 -278.641029 
L 520.44819 -278.056674 
L 519.870216 -277.47232 
L 519.261261 -276.887965 
L 515.001789 -276.30361 
L 509.181778 -275.719256 
L 508.990054 -275.134901 
L 499.971751 -274.550546 
L 489.877321 -273.966192 
L 489.313072 -273.381837 
L 476.384442 -272.797482 
L 474.648745 -272.213127 
L 471.220787 -271.628773 
L 467.15973 -271.044418 
L 452.96093 -270.460063 
L 448.495786 -269.875709 
L 447.615493 -269.291354 
L 439.540589 -268.706999 
L 438.434954 -268.122644 
L 438.279997 -267.53829 
L 430.556643 -266.953935 
L 419.678497 -266.36958 
L 403.025562 -265.785226 
L 399.836952 -265.200871 
L 375.936807 -264.616516 
L 338.089599 -264.032162 
L 326.202432 -263.447807 
L 292.92493 -262.863452 
z
" style="stroke: #00aa88; stroke-opacity: 0.7"/>
    </defs>
    <g clip-path="url(#p06bd915b1f)">
     <use xlink:href="#m8f183748e4" x="0" y="576" style="fill: #00aa88; fill-opacity: 0.7; stroke: #00aa88; stroke-opacity: 0.7"/>
    </g>
   </g>
   <g id="PolyCollection_8">
    <defs>
     <path id="m6e0bb8ae78" d="M 580.613222 -316.03973 
L 367.896094 -316.03973 
L 367.896094 -316.624085 
L 367.896094 -317.20844 
L 367.896094 -317.792794 
L 367.896094 -318.377149 
L 367.896094 -318.961504 
L 367.896094 -319.545858 
L 367.896094 -320.130213 
L 632.492123 -320.130213 
L 632.492123 -320.130213 
L 631.151873 -319.545858 
L 621.040675 -318.961504 
L 615.439469 -318.377149 
L 612.287728 -317.792794 
L 594.590576 -317.20844 
L 588.512626 -316.624085 
L 580.613222 -316.03973 
z
" style="stroke: #00a400; stroke-opacity: 0.7"/>
    </defs>
    <g clip-path="url(#p06bd915b1f)">
     <use xlink:href="#m6e0bb8ae78" x="0" y="576" style="fill: #00a400; fill-opacity: 0.7; stroke: #00a400; stroke-opacity: 0.7"/>
    </g>
   </g>
   <g id="PolyCollection_9">
    <defs>
     <path id="me88d6a9769" d="M 435.933794 -326.558115 
L 367.896094 -326.558115 
L 367.896094 -327.142469 
L 367.896094 -327.726824 
L 367.896094 -328.311179 
L 367.896094 -328.895534 
L 367.896094 -329.479888 
L 367.896094 -330.064243 
L 490.871439 -330.064243 
L 490.871439 -330.064243 
L 486.049919 -329.479888 
L 484.669643 -328.895534 
L 484.434303 -328.311179 
L 476.200187 -327.726824 
L 447.4931 -327.142469 
L 435.933794 -326.558115 
z
" style="stroke: #00d200; stroke-opacity: 0.7"/>
    </defs>
    <g clip-path="url(#p06bd915b1f)">
     <use xlink:href="#me88d6a9769" x="0" y="576" style="fill: #00d200; fill-opacity: 0.7; stroke: #00d200; stroke-opacity: 0.7"/>
    </g>
   </g>
   <g id="PolyCollection_10">
    <defs>
     <path id="mf96d41e441" d="M 374.234691 -336.492145 
L 367.896094 -336.492145 
L 367.896094 -337.076499 
L 367.896094 -337.660854 
L 367.896094 -338.245209 
L 367.896094 -338.829564 
L 367.896094 -339.413918 
L 367.896094 -339.998273 
L 367.896094 -340.582628 
L 367.896094 -341.166982 
L 367.896094 -341.751337 
L 367.896094 -342.335692 
L 367.896094 -342.920046 
L 367.896094 -343.504401 
L 367.896094 -344.088756 
L 367.896094 -344.673111 
L 367.896094 -345.257465 
L 367.896094 -345.84182 
L 367.896094 -346.426175 
L 367.896094 -347.010529 
L 367.896094 -347.594884 
L 367.896094 -348.179239 
L 367.896094 -348.763594 
L 367.896094 -349.347948 
L 367.896094 -349.932303 
L 367.896094 -350.516658 
L 367.896094 -351.101012 
L 367.896094 -351.685367 
L 367.896094 -352.269722 
L 367.896094 -352.854076 
L 367.896094 -353.438431 
L 367.896094 -354.022786 
L 367.896094 -354.607141 
L 367.896094 -355.191495 
L 367.896094 -355.77585 
L 367.896094 -356.360205 
L 367.896094 -356.944559 
L 367.896094 -357.528914 
L 367.896094 -358.113269 
L 367.896094 -358.697623 
L 367.896094 -359.281978 
L 367.896094 -359.866333 
L 367.896094 -360.450688 
L 367.896094 -361.035042 
L 367.896094 -361.619397 
L 367.896094 -362.203752 
L 367.896094 -362.788106 
L 367.896094 -363.372461 
L 367.896094 -363.956816 
L 367.896094 -364.54117 
L 367.896094 -365.125525 
L 367.896094 -365.70988 
L 367.896094 -366.294235 
L 367.896094 -366.878589 
L 367.896094 -367.462944 
L 367.896094 -368.047299 
L 367.896094 -368.631653 
L 367.896094 -369.216008 
L 367.896094 -369.800363 
L 367.896094 -370.384718 
L 367.896094 -370.969072 
L 367.896094 -371.553427 
L 367.896094 -372.137782 
L 367.896094 -372.722136 
L 367.896094 -373.306491 
L 367.896094 -373.890846 
L 367.896094 -374.4752 
L 367.896094 -375.059555 
L 367.896094 -375.64391 
L 367.896094 -376.228265 
L 367.896094 -376.812619 
L 367.896094 -377.396974 
L 367.896094 -377.981329 
L 367.896094 -378.565683 
L 367.896094 -379.150038 
L 367.896094 -379.734393 
L 367.896094 -380.318747 
L 367.896094 -380.903102 
L 367.896094 -381.487457 
L 367.896094 -382.071812 
L 367.896094 -382.656166 
L 367.896094 -383.240521 
L 367.896094 -383.824876 
L 367.896094 -384.40923 
L 367.896094 -384.993585 
L 576.661496 -384.993585 
L 576.661496 -384.993585 
L 576.37508 -384.40923 
L 576.349423 -383.824876 
L 574.899994 -383.240521 
L 574.445752 -382.656166 
L 574.440645 -382.071812 
L 574.436712 -381.487457 
L 574.132911 -380.903102 
L 573.939919 -380.318747 
L 573.344316 -379.734393 
L 573.062943 -379.150038 
L 572.858838 -378.565683 
L 571.203298 -377.981329 
L 571.066623 -377.396974 
L 569.619029 -376.812619 
L 568.908514 -376.228265 
L 566.720163 -375.64391 
L 565.517852 -375.059555 
L 562.981713 -374.4752 
L 562.963668 -373.890846 
L 562.0697 -373.306491 
L 561.438827 -372.722136 
L 558.325727 -372.137782 
L 556.883397 -371.553427 
L 556.778081 -370.969072 
L 556.413445 -370.384718 
L 556.304418 -369.800363 
L 556.176548 -369.216008 
L 554.86253 -368.631653 
L 554.044194 -368.047299 
L 553.605995 -367.462944 
L 553.431631 -366.878589 
L 553.207298 -366.294235 
L 552.378411 -365.70988 
L 550.444854 -365.125525 
L 550.092385 -364.54117 
L 549.677698 -363.956816 
L 549.318738 -363.372461 
L 547.780688 -362.788106 
L 547.128528 -362.203752 
L 546.978232 -361.619397 
L 546.89658 -361.035042 
L 544.551297 -360.450688 
L 542.853852 -359.866333 
L 542.620325 -359.281978 
L 541.79959 -358.697623 
L 540.301745 -358.113269 
L 538.790069 -357.528914 
L 536.487921 -356.944559 
L 536.197749 -356.360205 
L 529.237626 -355.77585 
L 527.681427 -355.191495 
L 527.502505 -354.607141 
L 523.368953 -354.022786 
L 521.443642 -353.438431 
L 517.812928 -352.854076 
L 517.259456 -352.269722 
L 516.643247 -351.685367 
L 514.941376 -351.101012 
L 511.926382 -350.516658 
L 509.062631 -349.932303 
L 503.382404 -349.347948 
L 498.595277 -348.763594 
L 497.106043 -348.179239 
L 496.251504 -347.594884 
L 494.489727 -347.010529 
L 492.834052 -346.426175 
L 487.141776 -345.84182 
L 487.010852 -345.257465 
L 484.461263 -344.673111 
L 482.657619 -344.088756 
L 471.820524 -343.504401 
L 469.677611 -342.920046 
L 464.846748 -342.335692 
L 464.830914 -341.751337 
L 462.591031 -341.166982 
L 451.154926 -340.582628 
L 447.203123 -339.998273 
L 446.852012 -339.413918 
L 445.838716 -338.829564 
L 434.586316 -338.245209 
L 424.567536 -337.660854 
L 416.804342 -337.076499 
L 374.234691 -336.492145 
z
" style="stroke: #00ff00; stroke-opacity: 0.7"/>
    </defs>
    <g clip-path="url(#p06bd915b1f)">
     <use xlink:href="#mf96d41e441" x="0" y="576" style="fill: #00ff00; fill-opacity: 0.7; stroke: #00ff00; stroke-opacity: 0.7"/>
    </g>
   </g>
   <g id="PolyCollection_11">
    <defs>
     <path id="m6ca3739416" d="M 433.688902 -391.421487 
L 367.896094 -391.421487 
L 367.896094 -392.005842 
L 367.896094 -392.590196 
L 367.896094 -393.174551 
L 367.896094 -393.758906 
L 367.896094 -394.34326 
L 367.896094 -394.927615 
L 367.896094 -395.51197 
L 367.896094 -396.096324 
L 575.703768 -396.096324 
L 575.703768 -396.096324 
L 575.591211 -395.51197 
L 575.224598 -394.927615 
L 563.91356 -394.34326 
L 532.758686 -393.758906 
L 517.928163 -393.174551 
L 510.053419 -392.590196 
L 508.591014 -392.005842 
L 433.688902 -391.421487 
z
" style="stroke: #ccf900; stroke-opacity: 0.7"/>
    </defs>
    <g clip-path="url(#p06bd915b1f)">
     <use xlink:href="#m6ca3739416" x="0" y="576" style="fill: #ccf900; fill-opacity: 0.7; stroke: #ccf900; stroke-opacity: 0.7"/>
    </g>
   </g>
   <g id="PolyCollection_12">
    <defs>
     <path id="m697068d407" d="M 489.610579 -402.524226 
L 367.896094 -402.524226 
L 367.896094 -403.108581 
L 367.896094 -403.692936 
L 367.896094 -404.27729 
L 367.896094 -404.861645 
L 367.896094 -405.446 
L 367.896094 -406.030354 
L 367.896094 -406.614709 
L 367.896094 -407.199064 
L 367.896094 -407.783419 
L 367.896094 -408.367773 
L 367.896094 -408.952128 
L 367.896094 -409.536483 
L 367.896094 -410.120837 
L 367.896094 -410.705192 
L 367.896094 -411.289547 
L 367.896094 -411.873901 
L 367.896094 -412.458256 
L 367.896094 -413.042611 
L 367.896094 -413.626966 
L 367.896094 -414.21132 
L 367.896094 -414.795675 
L 367.896094 -415.38003 
L 367.896094 -415.964384 
L 367.896094 -416.548739 
L 367.896094 -417.133094 
L 367.896094 -417.717448 
L 367.896094 -418.301803 
L 367.896094 -418.886158 
L 367.896094 -419.470513 
L 367.896094 -420.054867 
L 367.896094 -420.639222 
L 367.896094 -421.223577 
L 367.896094 -421.807931 
L 367.896094 -422.392286 
L 367.896094 -422.976641 
L 367.896094 -423.560996 
L 367.896094 -424.14535 
L 367.896094 -424.729705 
L 367.896094 -425.31406 
L 367.896094 -425.898414 
L 367.896094 -426.482769 
L 367.896094 -427.067124 
L 367.896094 -427.651478 
L 367.896094 -428.235833 
L 367.896094 -428.820188 
L 367.896094 -429.404543 
L 367.896094 -429.988897 
L 367.896094 -430.573252 
L 367.896094 -431.157607 
L 367.896094 -431.741961 
L 367.896094 -432.326316 
L 367.896094 -432.910671 
L 367.896094 -433.495025 
L 367.896094 -434.07938 
L 367.896094 -434.663735 
L 367.896094 -435.24809 
L 367.896094 -435.832444 
L 367.896094 -436.416799 
L 367.896094 -437.001154 
L 367.896094 -437.585508 
L 367.896094 -438.169863 
L 367.896094 -438.754218 
L 367.896094 -439.338572 
L 367.896094 -439.922927 
L 367.896094 -440.507282 
L 367.896094 -441.091637 
L 367.896094 -441.675991 
L 367.896094 -442.260346 
L 367.896094 -442.844701 
L 367.896094 -443.429055 
L 367.896094 -444.01341 
L 367.896094 -444.597765 
L 367.896094 -445.18212 
L 367.896094 -445.766474 
L 367.896094 -446.350829 
L 367.896094 -446.935184 
L 367.896094 -447.519538 
L 367.896094 -448.103893 
L 367.896094 -448.688248 
L 367.896094 -449.272602 
L 367.896094 -449.856957 
L 367.896094 -450.441312 
L 367.896094 -451.025667 
L 367.896094 -451.610021 
L 367.896094 -452.194376 
L 367.896094 -452.778731 
L 367.896094 -453.363085 
L 367.896094 -453.94744 
L 367.896094 -454.531795 
L 367.896094 -455.116149 
L 367.896094 -455.700504 
L 367.896094 -456.284859 
L 367.896094 -456.869214 
L 367.896094 -457.453568 
L 367.896094 -458.037923 
L 367.896094 -458.622278 
L 367.896094 -459.206632 
L 367.896094 -459.790987 
L 367.896094 -460.375342 
L 367.896094 -460.959696 
L 367.896094 -461.544051 
L 367.896094 -462.128406 
L 367.896094 -462.712761 
L 367.896094 -463.297115 
L 367.896094 -463.88147 
L 367.896094 -464.465825 
L 367.896094 -465.050179 
L 367.896094 -465.634534 
L 367.896094 -466.218889 
L 367.896094 -466.803244 
L 367.896094 -467.387598 
L 367.896094 -467.971953 
L 367.896094 -468.556308 
L 367.896094 -469.140662 
L 367.896094 -469.725017 
L 367.896094 -470.309372 
L 367.896094 -470.893726 
L 367.896094 -471.478081 
L 367.896094 -472.062436 
L 367.896094 -472.646791 
L 367.896094 -473.231145 
L 367.896094 -473.8155 
L 367.896094 -474.399855 
L 367.896094 -474.984209 
L 367.896094 -475.568564 
L 367.896094 -476.152919 
L 367.896094 -476.737273 
L 367.896094 -477.321628 
L 367.896094 -477.905983 
L 367.896094 -478.490338 
L 367.896094 -479.074692 
L 367.896094 -479.659047 
L 367.896094 -480.243402 
L 367.896094 -480.827756 
L 367.896094 -481.412111 
L 367.896094 -481.996466 
L 367.896094 -482.580821 
L 367.896094 -483.165175 
L 367.896094 -483.74953 
L 367.896094 -484.333885 
L 367.896094 -484.918239 
L 367.896094 -485.502594 
L 367.896094 -486.086949 
L 367.896094 -486.671303 
L 367.896094 -487.255658 
L 367.896094 -487.840013 
L 367.896094 -488.424368 
L 367.896094 -489.008722 
L 367.896094 -489.593077 
L 367.896094 -490.177432 
L 367.896094 -490.761786 
L 367.896094 -491.346141 
L 367.896094 -491.930496 
L 367.896094 -492.51485 
L 367.896094 -493.099205 
L 367.896094 -493.68356 
L 367.896094 -494.267915 
L 367.896094 -494.852269 
L 367.896094 -495.436624 
L 367.896094 -496.020979 
L 367.896094 -496.605333 
L 367.896094 -497.189688 
L 367.896094 -497.774043 
L 367.896094 -498.358397 
L 367.896094 -498.942752 
L 367.896094 -499.527107 
L 367.896094 -500.111462 
L 367.896094 -500.695816 
L 367.896094 -501.280171 
L 367.896094 -501.864526 
L 367.896094 -502.44888 
L 367.896094 -503.033235 
L 367.896094 -503.61759 
L 367.896094 -504.201945 
L 367.896094 -504.786299 
L 367.896094 -505.370654 
L 367.896094 -505.955009 
L 367.896094 -506.539363 
L 367.896094 -507.123718 
L 367.896094 -507.708073 
L 367.896094 -508.292427 
L 367.896094 -508.876782 
L 367.896094 -509.461137 
L 367.896094 -510.045492 
L 367.896094 -510.629846 
L 367.896094 -511.214201 
L 367.896094 -511.798556 
L 367.896094 -512.38291 
L 367.896094 -512.967265 
L 367.896094 -513.55162 
L 367.896094 -514.135974 
L 367.896094 -514.720329 
L 367.896094 -515.304684 
L 367.896094 -515.889039 
L 367.896094 -516.473393 
L 367.896094 -517.057748 
L 367.896094 -517.642103 
L 367.896094 -518.226457 
L 367.896094 -518.810812 
L 367.896094 -519.395167 
L 604.016475 -519.395167 
L 604.016475 -519.395167 
L 603.45547 -518.810812 
L 602.812644 -518.226457 
L 601.179346 -517.642103 
L 601.04736 -517.057748 
L 600.021342 -516.473393 
L 599.970539 -515.889039 
L 599.411973 -515.304684 
L 599.363517 -514.720329 
L 598.975487 -514.135974 
L 598.354784 -513.55162 
L 597.396551 -512.967265 
L 597.246667 -512.38291 
L 596.90485 -511.798556 
L 596.461657 -511.214201 
L 595.636731 -510.629846 
L 595.158641 -510.045492 
L 595.143634 -509.461137 
L 594.271305 -508.876782 
L 594.187701 -508.292427 
L 594.013292 -507.708073 
L 593.940582 -507.123718 
L 593.870165 -506.539363 
L 593.72903 -505.955009 
L 593.670225 -505.370654 
L 593.269403 -504.786299 
L 592.613872 -504.201945 
L 592.570409 -503.61759 
L 592.218293 -503.033235 
L 591.73527 -502.44888 
L 591.453884 -501.864526 
L 590.783201 -501.280171 
L 590.502082 -500.695816 
L 590.027262 -500.111462 
L 589.999862 -499.527107 
L 589.866531 -498.942752 
L 589.570412 -498.358397 
L 589.432092 -497.774043 
L 589.412204 -497.189688 
L 589.350393 -496.605333 
L 589.109114 -496.020979 
L 588.718865 -495.436624 
L 588.646345 -494.852269 
L 588.435046 -494.267915 
L 587.3057 -493.68356 
L 587.014477 -493.099205 
L 586.639355 -492.51485 
L 586.637573 -491.930496 
L 586.461045 -491.346141 
L 586.319173 -490.761786 
L 586.243243 -490.177432 
L 586.202458 -489.593077 
L 586.09646 -489.008722 
L 585.916806 -488.424368 
L 585.850957 -487.840013 
L 585.710432 -487.255658 
L 585.628664 -486.671303 
L 585.448833 -486.086949 
L 585.448413 -485.502594 
L 585.313656 -484.918239 
L 585.312364 -484.333885 
L 585.015482 -483.74953 
L 584.993928 -483.165175 
L 584.848776 -482.580821 
L 584.728642 -481.996466 
L 584.719812 -481.412111 
L 584.542386 -480.827756 
L 584.509168 -480.243402 
L 582.946953 -479.659047 
L 582.608797 -479.074692 
L 582.502721 -478.490338 
L 582.294496 -477.905983 
L 582.249759 -477.321628 
L 581.961109 -476.737273 
L 581.475287 -476.152919 
L 581.44716 -475.568564 
L 581.348049 -474.984209 
L 581.314309 -474.399855 
L 580.903215 -473.8155 
L 580.662213 -473.231145 
L 579.937931 -472.646791 
L 579.716711 -472.062436 
L 579.543328 -471.478081 
L 579.390992 -470.893726 
L 579.390088 -470.309372 
L 579.103368 -469.725017 
L 578.811892 -469.140662 
L 578.276157 -468.556308 
L 577.768569 -467.971953 
L 577.432943 -467.387598 
L 577.187717 -466.803244 
L 577.134727 -466.218889 
L 577.015587 -465.634534 
L 576.691726 -465.050179 
L 576.684166 -464.465825 
L 576.643604 -463.88147 
L 576.136448 -463.297115 
L 575.973749 -462.712761 
L 575.806106 -462.128406 
L 575.796726 -461.544051 
L 575.648124 -460.959696 
L 575.180684 -460.375342 
L 575.005593 -459.790987 
L 574.858167 -459.206632 
L 574.639517 -458.622278 
L 574.618977 -458.037923 
L 574.124794 -457.453568 
L 573.296266 -456.869214 
L 572.886561 -456.284859 
L 572.751496 -455.700504 
L 572.502976 -455.116149 
L 572.332872 -454.531795 
L 572.154169 -453.94744 
L 571.476453 -453.363085 
L 571.161858 -452.778731 
L 571.036949 -452.194376 
L 570.803165 -451.610021 
L 570.470525 -451.025667 
L 570.140816 -450.441312 
L 570.135049 -449.856957 
L 569.927327 -449.272602 
L 569.695993 -448.688248 
L 569.551219 -448.103893 
L 569.531962 -447.519538 
L 569.337594 -446.935184 
L 568.950326 -446.350829 
L 568.399591 -445.766474 
L 568.294269 -445.18212 
L 567.410793 -444.597765 
L 566.774902 -444.01341 
L 566.234655 -443.429055 
L 565.458315 -442.844701 
L 565.071381 -442.260346 
L 564.91438 -441.675991 
L 564.805075 -441.091637 
L 564.800523 -440.507282 
L 564.626244 -439.922927 
L 564.56107 -439.338572 
L 564.489629 -438.754218 
L 564.15671 -438.169863 
L 563.445851 -437.585508 
L 563.205705 -437.001154 
L 563.09221 -436.416799 
L 562.965427 -435.832444 
L 562.695642 -435.24809 
L 561.886399 -434.663735 
L 561.779646 -434.07938 
L 561.268367 -433.495025 
L 560.905749 -432.910671 
L 560.899075 -432.326316 
L 559.751093 -431.741961 
L 559.672501 -431.157607 
L 557.84566 -430.573252 
L 557.475442 -429.988897 
L 556.948029 -429.404543 
L 556.401171 -428.820188 
L 556.185295 -428.235833 
L 555.905904 -427.651478 
L 555.176862 -427.067124 
L 554.663601 -426.482769 
L 554.187318 -425.898414 
L 553.931199 -425.31406 
L 553.922902 -424.729705 
L 553.508224 -424.14535 
L 552.500318 -423.560996 
L 552.32897 -422.976641 
L 551.874588 -422.392286 
L 551.831878 -421.807931 
L 550.506701 -421.223577 
L 550.206281 -420.639222 
L 550.156073 -420.054867 
L 550.083525 -419.470513 
L 549.828481 -418.886158 
L 549.42813 -418.301803 
L 548.409375 -417.717448 
L 547.721253 -417.133094 
L 547.37391 -416.548739 
L 546.908589 -415.964384 
L 546.410038 -415.38003 
L 544.476819 -414.795675 
L 543.893338 -414.21132 
L 543.494022 -413.626966 
L 542.940172 -413.042611 
L 542.572477 -412.458256 
L 538.218165 -411.873901 
L 536.915088 -411.289547 
L 536.568334 -410.705192 
L 535.938073 -410.120837 
L 535.048754 -409.536483 
L 532.833753 -408.952128 
L 531.926308 -408.367773 
L 530.453066 -407.783419 
L 528.644844 -407.199064 
L 526.347411 -406.614709 
L 517.157917 -406.030354 
L 515.991147 -405.446 
L 508.711639 -404.861645 
L 503.683223 -404.27729 
L 503.053661 -403.692936 
L 501.498202 -403.108581 
L 489.610579 -402.524226 
z
" style="stroke: #f9d700; stroke-opacity: 0.7"/>
    </defs>
    <g clip-path="url(#p06bd915b1f)">
     <use xlink:href="#m697068d407" x="0" y="576" style="fill: #f9d700; fill-opacity: 0.7; stroke: #f9d700; stroke-opacity: 0.7"/>
    </g>
   </g>
   <g id="PolyCollection_13">
    <defs>
     <path id="m33aa944666" d="M 611.293835 -525.823069 
L 367.896094 -525.823069 
L 367.896094 -526.407423 
L 367.896094 -526.991778 
L 367.896094 -527.576133 
L 367.896094 -528.160487 
L 367.896094 -528.744842 
L 367.896094 -529.329197 
L 367.896094 -529.913551 
L 367.896094 -530.497906 
L 646.065791 -530.497906 
L 646.065791 -530.497906 
L 644.992982 -529.913551 
L 641.689883 -529.329197 
L 631.564476 -528.744842 
L 631.136864 -528.160487 
L 628.334566 -527.576133 
L 618.06165 -526.991778 
L 615.49469 -526.407423 
L 611.293835 -525.823069 
z
" style="stroke: #ff9900; stroke-opacity: 0.7"/>
    </defs>
    <g clip-path="url(#p06bd915b1f)">
     <use xlink:href="#m33aa944666" x="0" y="576" style="fill: #ff9900; fill-opacity: 0.7; stroke: #ff9900; stroke-opacity: 0.7"/>
    </g>
   </g>
   <g id="PolyCollection_14">
    <defs>
     <path id="m1630bdf8cf" d="M 648.765767 -536.925808 
L 367.896094 -536.925808 
L 367.896094 -537.510163 
L 367.896094 -538.094517 
L 671.001197 -538.094517 
L 671.001197 -538.094517 
L 670.568855 -537.510163 
L 648.765767 -536.925808 
z
" style="stroke: #f40000; stroke-opacity: 0.7"/>
    </defs>
    <g clip-path="url(#p06bd915b1f)">
     <use xlink:href="#m1630bdf8cf" x="0" y="576" style="fill: #f40000; fill-opacity: 0.7; stroke: #f40000; stroke-opacity: 0.7"/>
    </g>
   </g>
   <g id="PolyCollection_15">
    <defs>
     <path id="m45d525e77e" d="M 537.039759 -544.522419 
L 367.896094 -544.522419 
L 367.896094 -545.106774 
L 539.697243 -545.106774 
L 539.697243 -545.106774 
L 537.039759 -544.522419 
z
" style="stroke: #d20000; stroke-opacity: 0.7"/>
    </defs>
    <g clip-path="url(#p06bd915b1f)">
     <use xlink:href="#m45d525e77e" x="0" y="576" style="fill: #d20000; fill-opacity: 0.7; stroke: #d20000; stroke-opacity: 0.7"/>
    </g>
   </g>
   <g id="matplotlib.axis_1">
    <g id="xtick_1">
     <g id="line2d_1">
      <defs>
       <path id="m0bc613d5a7" d="M 0 0 
L 0 3.5 
" style="stroke: #000000; stroke-width: 0.8"/>
      </defs>
      <g>
       <use xlink:href="#m0bc613d5a7" x="42.495313" y="510.648438" style="stroke: #000000; stroke-width: 0.8"/>
      </g>
     </g>
     <g id="text_1">
      <!-- −1.0 -->
      <g transform="translate(18.2125 532.845312) scale(0.2 -0.2)">
       <defs>
        <path id="DejaVuSans-2212" d="M 678 2272 
L 4684 2272 
L 4684 1741 
L 678 1741 
L 678 2272 
z
" transform="scale(0.015625)"/>
        <path id="DejaVuSans-31" d="M 794 531 
L 1825 531 
L 1825 4091 
L 703 3866 
L 703 4441 
L 1819 4666 
L 2450 4666 
L 2450 531 
L 3481 531 
L 3481 0 
L 794 0 
L 794 531 
z
" transform="scale(0.015625)"/>
        <path id="DejaVuSans-2e" d="M 684 794 
L 1344 794 
L 1344 0 
L 684 0 
L 684 794 
z
" transform="scale(0.015625)"/>
        <path id="DejaVuSans-30" d="M 2034 4250 
Q 1547 4250 1301 3770 
Q 1056 3291 1056 2328 
Q 1056 1369 1301 889 
Q 1547 409 2034 409 
Q 2525 409 2770 889 
Q 3016 1369 3016 2328 
Q 3016 3291 2770 3770 
Q 2525 4250 2034 4250 
z
M 2034 4750 
Q 2819 4750 3233 4129 
Q 3647 3509 3647 2328 
Q 3647 1150 3233 529 
Q 2819 -91 2034 -91 
Q 1250 -91 836 529 
Q 422 1150 422 2328 
Q 422 3509 836 4129 
Q 1250 4750 2034 4750 
z
" transform="scale(0.015625)"/>
       </defs>
       <use xlink:href="#DejaVuSans-2212"/>
       <use xlink:href="#DejaVuSans-31" x="83.789062"/>
       <use xlink:href="#DejaVuSans-2e" x="147.412109"/>
       <use xlink:href="#DejaVuSans-30" x="179.199219"/>
      </g>
     </g>
    </g>
    <g id="xtick_2">
     <g id="line2d_2">
      <g>
       <use xlink:href="#m0bc613d5a7" x="107.575469" y="510.648438" style="stroke: #000000; stroke-width: 0.8"/>
      </g>
     </g>
     <g id="text_2">
      <!-- −0.8 -->
      <g transform="translate(83.292656 532.845312) scale(0.2 -0.2)">
       <defs>
        <path id="DejaVuSans-38" d="M 2034 2216 
Q 1584 2216 1326 1975 
Q 1069 1734 1069 1313 
Q 1069 891 1326 650 
Q 1584 409 2034 409 
Q 2484 409 2743 651 
Q 3003 894 3003 1313 
Q 3003 1734 2745 1975 
Q 2488 2216 2034 2216 
z
M 1403 2484 
Q 997 2584 770 2862 
Q 544 3141 544 3541 
Q 544 4100 942 4425 
Q 1341 4750 2034 4750 
Q 2731 4750 3128 4425 
Q 3525 4100 3525 3541 
Q 3525 3141 3298 2862 
Q 3072 2584 2669 2484 
Q 3125 2378 3379 2068 
Q 3634 1759 3634 1313 
Q 3634 634 3220 271 
Q 2806 -91 2034 -91 
Q 1263 -91 848 271 
Q 434 634 434 1313 
Q 434 1759 690 2068 
Q 947 2378 1403 2484 
z
M 1172 3481 
Q 1172 3119 1398 2916 
Q 1625 2713 2034 2713 
Q 2441 2713 2670 2916 
Q 2900 3119 2900 3481 
Q 2900 3844 2670 4047 
Q 2441 4250 2034 4250 
Q 1625 4250 1398 4047 
Q 1172 3844 1172 3481 
z
" transform="scale(0.015625)"/>
       </defs>
       <use xlink:href="#DejaVuSans-2212"/>
       <use xlink:href="#DejaVuSans-30" x="83.789062"/>
       <use xlink:href="#DejaVuSans-2e" x="147.412109"/>
       <use xlink:href="#DejaVuSans-38" x="179.199219"/>
      </g>
     </g>
    </g>
    <g id="xtick_3">
     <g id="line2d_3">
      <g>
       <use xlink:href="#m0bc613d5a7" x="172.655625" y="510.648438" style="stroke: #000000; stroke-width: 0.8"/>
      </g>
     </g>
     <g id="text_3">
      <!-- −0.6 -->
      <g transform="translate(148.372813 532.845312) scale(0.2 -0.2)">
       <defs>
        <path id="DejaVuSans-36" d="M 2113 2584 
Q 1688 2584 1439 2293 
Q 1191 2003 1191 1497 
Q 1191 994 1439 701 
Q 1688 409 2113 409 
Q 2538 409 2786 701 
Q 3034 994 3034 1497 
Q 3034 2003 2786 2293 
Q 2538 2584 2113 2584 
z
M 3366 4563 
L 3366 3988 
Q 3128 4100 2886 4159 
Q 2644 4219 2406 4219 
Q 1781 4219 1451 3797 
Q 1122 3375 1075 2522 
Q 1259 2794 1537 2939 
Q 1816 3084 2150 3084 
Q 2853 3084 3261 2657 
Q 3669 2231 3669 1497 
Q 3669 778 3244 343 
Q 2819 -91 2113 -91 
Q 1303 -91 875 529 
Q 447 1150 447 2328 
Q 447 3434 972 4092 
Q 1497 4750 2381 4750 
Q 2619 4750 2861 4703 
Q 3103 4656 3366 4563 
z
" transform="scale(0.015625)"/>
       </defs>
       <use xlink:href="#DejaVuSans-2212"/>
       <use xlink:href="#DejaVuSans-30" x="83.789062"/>
       <use xlink:href="#DejaVuSans-2e" x="147.412109"/>
       <use xlink:href="#DejaVuSans-36" x="179.199219"/>
      </g>
     </g>
    </g>
    <g id="xtick_4">
     <g id="line2d_4">
      <g>
       <use xlink:href="#m0bc613d5a7" x="237.735781" y="510.648438" style="stroke: #000000; stroke-width: 0.8"/>
      </g>
     </g>
     <g id="text_4">
      <!-- −0.4 -->
      <g transform="translate(213.452969 532.845312) scale(0.2 -0.2)">
       <defs>
        <path id="DejaVuSans-34" d="M 2419 4116 
L 825 1625 
L 2419 1625 
L 2419 4116 
z
M 2253 4666 
L 3047 4666 
L 3047 1625 
L 3713 1625 
L 3713 1100 
L 3047 1100 
L 3047 0 
L 2419 0 
L 2419 1100 
L 313 1100 
L 313 1709 
L 2253 4666 
z
" transform="scale(0.015625)"/>
       </defs>
       <use xlink:href="#DejaVuSans-2212"/>
       <use xlink:href="#DejaVuSans-30" x="83.789062"/>
       <use xlink:href="#DejaVuSans-2e" x="147.412109"/>
       <use xlink:href="#DejaVuSans-34" x="179.199219"/>
      </g>
     </g>
    </g>
    <g id="xtick_5">
     <g id="line2d_5">
      <g>
       <use xlink:href="#m0bc613d5a7" x="302.815937" y="510.648438" style="stroke: #000000; stroke-width: 0.8"/>
      </g>
     </g>
     <g id="text_5">
      <!-- −0.2 -->
      <g transform="translate(278.533125 532.845312) scale(0.2 -0.2)">
       <defs>
        <path id="DejaVuSans-32" d="M 1228 531 
L 3431 531 
L 3431 0 
L 469 0 
L 469 531 
Q 828 903 1448 1529 
Q 2069 2156 2228 2338 
Q 2531 2678 2651 2914 
Q 2772 3150 2772 3378 
Q 2772 3750 2511 3984 
Q 2250 4219 1831 4219 
Q 1534 4219 1204 4116 
Q 875 4013 500 3803 
L 500 4441 
Q 881 4594 1212 4672 
Q 1544 4750 1819 4750 
Q 2544 4750 2975 4387 
Q 3406 4025 3406 3419 
Q 3406 3131 3298 2873 
Q 3191 2616 2906 2266 
Q 2828 2175 2409 1742 
Q 1991 1309 1228 531 
z
" transform="scale(0.015625)"/>
       </defs>
       <use xlink:href="#DejaVuSans-2212"/>
       <use xlink:href="#DejaVuSans-30" x="83.789062"/>
       <use xlink:href="#DejaVuSans-2e" x="147.412109"/>
       <use xlink:href="#DejaVuSans-32" x="179.199219"/>
      </g>
     </g>
    </g>
    <g id="xtick_6">
     <g id="line2d_6">
      <g>
       <use xlink:href="#m0bc613d5a7" x="367.896094" y="510.648438" style="stroke: #000000; stroke-width: 0.8"/>
      </g>
     </g>
     <g id="text_6">
      <!-- 0.0 -->
      <g transform="translate(351.992969 532.845312) scale(0.2 -0.2)">
       <use xlink:href="#DejaVuSans-30"/>
       <use xlink:href="#DejaVuSans-2e" x="63.623047"/>
       <use xlink:href="#DejaVuSans-30" x="95.410156"/>
      </g>
     </g>
    </g>
    <g id="xtick_7">
     <g id="line2d_7">
      <g>
       <use xlink:href="#m0bc613d5a7" x="432.97625" y="510.648438" style="stroke: #000000; stroke-width: 0.8"/>
      </g>
     </g>
     <g id="text_7">
      <!-- 0.2 -->
      <g transform="translate(417.073125 532.845312) scale(0.2 -0.2)">
       <use xlink:href="#DejaVuSans-30"/>
       <use xlink:href="#DejaVuSans-2e" x="63.623047"/>
       <use xlink:href="#DejaVuSans-32" x="95.410156"/>
      </g>
     </g>
    </g>
    <g id="xtick_8">
     <g id="line2d_8">
      <g>
       <use xlink:href="#m0bc613d5a7" x="498.056406" y="510.648438" style="stroke: #000000; stroke-width: 0.8"/>
      </g>
     </g>
     <g id="text_8">
      <!-- 0.4 -->
      <g transform="translate(482.153281 532.845312) scale(0.2 -0.2)">
       <use xlink:href="#DejaVuSans-30"/>
       <use xlink:href="#DejaVuSans-2e" x="63.623047"/>
       <use xlink:href="#DejaVuSans-34" x="95.410156"/>
      </g>
     </g>
    </g>
    <g id="xtick_9">
     <g id="line2d_9">
      <g>
       <use xlink:href="#m0bc613d5a7" x="563.136562" y="510.648438" style="stroke: #000000; stroke-width: 0.8"/>
      </g>
     </g>
     <g id="text_9">
      <!-- 0.6 -->
      <g transform="translate(547.233437 532.845312) scale(0.2 -0.2)">
       <use xlink:href="#DejaVuSans-30"/>
       <use xlink:href="#DejaVuSans-2e" x="63.623047"/>
       <use xlink:href="#DejaVuSans-36" x="95.410156"/>
      </g>
     </g>
    </g>
    <g id="xtick_10">
     <g id="line2d_10">
      <g>
       <use xlink:href="#m0bc613d5a7" x="628.216719" y="510.648438" style="stroke: #000000; stroke-width: 0.8"/>
      </g>
     </g>
     <g id="text_10">
      <!-- 0.8 -->
      <g transform="translate(612.313594 532.845312) scale(0.2 -0.2)">
       <use xlink:href="#DejaVuSans-30"/>
       <use xlink:href="#DejaVuSans-2e" x="63.623047"/>
       <use xlink:href="#DejaVuSans-38" x="95.410156"/>
      </g>
     </g>
    </g>
    <g id="xtick_11">
     <g id="line2d_11">
      <g>
       <use xlink:href="#m0bc613d5a7" x="693.296875" y="510.648438" style="stroke: #000000; stroke-width: 0.8"/>
      </g>
     </g>
     <g id="text_11">
      <!-- 1.0 -->
      <g transform="translate(677.39375 532.845312) scale(0.2 -0.2)">
       <use xlink:href="#DejaVuSans-31"/>
       <use xlink:href="#DejaVuSans-2e" x="63.623047"/>
       <use xlink:href="#DejaVuSans-30" x="95.410156"/>
      </g>
     </g>
    </g>
    <g id="text_12">
     <!-- Silhouette coefficient -->
     <g transform="translate(235.021094 560.000781) scale(0.25 -0.25)">
      <defs>
       <path id="DejaVuSans-53" d="M 3425 4513 
L 3425 3897 
Q 3066 4069 2747 4153 
Q 2428 4238 2131 4238 
Q 1616 4238 1336 4038 
Q 1056 3838 1056 3469 
Q 1056 3159 1242 3001 
Q 1428 2844 1947 2747 
L 2328 2669 
Q 3034 2534 3370 2195 
Q 3706 1856 3706 1288 
Q 3706 609 3251 259 
Q 2797 -91 1919 -91 
Q 1588 -91 1214 -16 
Q 841 59 441 206 
L 441 856 
Q 825 641 1194 531 
Q 1563 422 1919 422 
Q 2459 422 2753 634 
Q 3047 847 3047 1241 
Q 3047 1584 2836 1778 
Q 2625 1972 2144 2069 
L 1759 2144 
Q 1053 2284 737 2584 
Q 422 2884 422 3419 
Q 422 4038 858 4394 
Q 1294 4750 2059 4750 
Q 2388 4750 2728 4690 
Q 3069 4631 3425 4513 
z
" transform="scale(0.015625)"/>
       <path id="DejaVuSans-69" d="M 603 3500 
L 1178 3500 
L 1178 0 
L 603 0 
L 603 3500 
z
M 603 4863 
L 1178 4863 
L 1178 4134 
L 603 4134 
L 603 4863 
z
" transform="scale(0.015625)"/>
       <path id="DejaVuSans-6c" d="M 603 4863 
L 1178 4863 
L 1178 0 
L 603 0 
L 603 4863 
z
" transform="scale(0.015625)"/>
       <path id="DejaVuSans-68" d="M 3513 2113 
L 3513 0 
L 2938 0 
L 2938 2094 
Q 2938 2591 2744 2837 
Q 2550 3084 2163 3084 
Q 1697 3084 1428 2787 
Q 1159 2491 1159 1978 
L 1159 0 
L 581 0 
L 581 4863 
L 1159 4863 
L 1159 2956 
Q 1366 3272 1645 3428 
Q 1925 3584 2291 3584 
Q 2894 3584 3203 3211 
Q 3513 2838 3513 2113 
z
" transform="scale(0.015625)"/>
       <path id="DejaVuSans-6f" d="M 1959 3097 
Q 1497 3097 1228 2736 
Q 959 2375 959 1747 
Q 959 1119 1226 758 
Q 1494 397 1959 397 
Q 2419 397 2687 759 
Q 2956 1122 2956 1747 
Q 2956 2369 2687 2733 
Q 2419 3097 1959 3097 
z
M 1959 3584 
Q 2709 3584 3137 3096 
Q 3566 2609 3566 1747 
Q 3566 888 3137 398 
Q 2709 -91 1959 -91 
Q 1206 -91 779 398 
Q 353 888 353 1747 
Q 353 2609 779 3096 
Q 1206 3584 1959 3584 
z
" transform="scale(0.015625)"/>
       <path id="DejaVuSans-75" d="M 544 1381 
L 544 3500 
L 1119 3500 
L 1119 1403 
Q 1119 906 1312 657 
Q 1506 409 1894 409 
Q 2359 409 2629 706 
Q 2900 1003 2900 1516 
L 2900 3500 
L 3475 3500 
L 3475 0 
L 2900 0 
L 2900 538 
Q 2691 219 2414 64 
Q 2138 -91 1772 -91 
Q 1169 -91 856 284 
Q 544 659 544 1381 
z
M 1991 3584 
L 1991 3584 
z
" transform="scale(0.015625)"/>
       <path id="DejaVuSans-65" d="M 3597 1894 
L 3597 1613 
L 953 1613 
Q 991 1019 1311 708 
Q 1631 397 2203 397 
Q 2534 397 2845 478 
Q 3156 559 3463 722 
L 3463 178 
Q 3153 47 2828 -22 
Q 2503 -91 2169 -91 
Q 1331 -91 842 396 
Q 353 884 353 1716 
Q 353 2575 817 3079 
Q 1281 3584 2069 3584 
Q 2775 3584 3186 3129 
Q 3597 2675 3597 1894 
z
M 3022 2063 
Q 3016 2534 2758 2815 
Q 2500 3097 2075 3097 
Q 1594 3097 1305 2825 
Q 1016 2553 972 2059 
L 3022 2063 
z
" transform="scale(0.015625)"/>
       <path id="DejaVuSans-74" d="M 1172 4494 
L 1172 3500 
L 2356 3500 
L 2356 3053 
L 1172 3053 
L 1172 1153 
Q 1172 725 1289 603 
Q 1406 481 1766 481 
L 2356 481 
L 2356 0 
L 1766 0 
Q 1100 0 847 248 
Q 594 497 594 1153 
L 594 3053 
L 172 3053 
L 172 3500 
L 594 3500 
L 594 4494 
L 1172 4494 
z
" transform="scale(0.015625)"/>
       <path id="DejaVuSans-20" transform="scale(0.015625)"/>
       <path id="DejaVuSans-63" d="M 3122 3366 
L 3122 2828 
Q 2878 2963 2633 3030 
Q 2388 3097 2138 3097 
Q 1578 3097 1268 2742 
Q 959 2388 959 1747 
Q 959 1106 1268 751 
Q 1578 397 2138 397 
Q 2388 397 2633 464 
Q 2878 531 3122 666 
L 3122 134 
Q 2881 22 2623 -34 
Q 2366 -91 2075 -91 
Q 1284 -91 818 406 
Q 353 903 353 1747 
Q 353 2603 823 3093 
Q 1294 3584 2113 3584 
Q 2378 3584 2631 3529 
Q 2884 3475 3122 3366 
z
" transform="scale(0.015625)"/>
       <path id="DejaVuSans-66" d="M 2375 4863 
L 2375 4384 
L 1825 4384 
Q 1516 4384 1395 4259 
Q 1275 4134 1275 3809 
L 1275 3500 
L 2222 3500 
L 2222 3053 
L 1275 3053 
L 1275 0 
L 697 0 
L 697 3053 
L 147 3053 
L 147 3500 
L 697 3500 
L 697 3744 
Q 697 4328 969 4595 
Q 1241 4863 1831 4863 
L 2375 4863 
z
" transform="scale(0.015625)"/>
       <path id="DejaVuSans-6e" d="M 3513 2113 
L 3513 0 
L 2938 0 
L 2938 2094 
Q 2938 2591 2744 2837 
Q 2550 3084 2163 3084 
Q 1697 3084 1428 2787 
Q 1159 2491 1159 1978 
L 1159 0 
L 581 0 
L 581 3500 
L 1159 3500 
L 1159 2956 
Q 1366 3272 1645 3428 
Q 1925 3584 2291 3584 
Q 2894 3584 3203 3211 
Q 3513 2838 3513 2113 
z
" transform="scale(0.015625)"/>
      </defs>
      <use xlink:href="#DejaVuSans-53"/>
      <use xlink:href="#DejaVuSans-69" x="63.476562"/>
      <use xlink:href="#DejaVuSans-6c" x="91.259766"/>
      <use xlink:href="#DejaVuSans-68" x="119.042969"/>
      <use xlink:href="#DejaVuSans-6f" x="182.421875"/>
      <use xlink:href="#DejaVuSans-75" x="243.603516"/>
      <use xlink:href="#DejaVuSans-65" x="306.982422"/>
      <use xlink:href="#DejaVuSans-74" x="368.505859"/>
      <use xlink:href="#DejaVuSans-74" x="407.714844"/>
      <use xlink:href="#DejaVuSans-65" x="446.923828"/>
      <use xlink:href="#DejaVuSans-20" x="508.447266"/>
      <use xlink:href="#DejaVuSans-63" x="540.234375"/>
      <use xlink:href="#DejaVuSans-6f" x="595.214844"/>
      <use xlink:href="#DejaVuSans-65" x="656.396484"/>
      <use xlink:href="#DejaVuSans-66" x="717.919922"/>
      <use xlink:href="#DejaVuSans-66" x="753.125"/>
      <use xlink:href="#DejaVuSans-69" x="788.330078"/>
      <use xlink:href="#DejaVuSans-63" x="816.113281"/>
      <use xlink:href="#DejaVuSans-69" x="871.09375"/>
      <use xlink:href="#DejaVuSans-65" x="898.876953"/>
      <use xlink:href="#DejaVuSans-6e" x="960.400391"/>
      <use xlink:href="#DejaVuSans-74" x="1023.779297"/>
     </g>
    </g>
   </g>
   <g id="matplotlib.axis_2">
    <g id="text_13">
     <!-- Predicted label -->
     <g transform="translate(29.796094 360.43774) rotate(-90) scale(0.25 -0.25)">
      <defs>
       <path id="DejaVuSans-50" d="M 1259 4147 
L 1259 2394 
L 2053 2394 
Q 2494 2394 2734 2622 
Q 2975 2850 2975 3272 
Q 2975 3691 2734 3919 
Q 2494 4147 2053 4147 
L 1259 4147 
z
M 628 4666 
L 2053 4666 
Q 2838 4666 3239 4311 
Q 3641 3956 3641 3272 
Q 3641 2581 3239 2228 
Q 2838 1875 2053 1875 
L 1259 1875 
L 1259 0 
L 628 0 
L 628 4666 
z
" transform="scale(0.015625)"/>
       <path id="DejaVuSans-72" d="M 2631 2963 
Q 2534 3019 2420 3045 
Q 2306 3072 2169 3072 
Q 1681 3072 1420 2755 
Q 1159 2438 1159 1844 
L 1159 0 
L 581 0 
L 581 3500 
L 1159 3500 
L 1159 2956 
Q 1341 3275 1631 3429 
Q 1922 3584 2338 3584 
Q 2397 3584 2469 3576 
Q 2541 3569 2628 3553 
L 2631 2963 
z
" transform="scale(0.015625)"/>
       <path id="DejaVuSans-64" d="M 2906 2969 
L 2906 4863 
L 3481 4863 
L 3481 0 
L 2906 0 
L 2906 525 
Q 2725 213 2448 61 
Q 2172 -91 1784 -91 
Q 1150 -91 751 415 
Q 353 922 353 1747 
Q 353 2572 751 3078 
Q 1150 3584 1784 3584 
Q 2172 3584 2448 3432 
Q 2725 3281 2906 2969 
z
M 947 1747 
Q 947 1113 1208 752 
Q 1469 391 1925 391 
Q 2381 391 2643 752 
Q 2906 1113 2906 1747 
Q 2906 2381 2643 2742 
Q 2381 3103 1925 3103 
Q 1469 3103 1208 2742 
Q 947 2381 947 1747 
z
" transform="scale(0.015625)"/>
       <path id="DejaVuSans-61" d="M 2194 1759 
Q 1497 1759 1228 1600 
Q 959 1441 959 1056 
Q 959 750 1161 570 
Q 1363 391 1709 391 
Q 2188 391 2477 730 
Q 2766 1069 2766 1631 
L 2766 1759 
L 2194 1759 
z
M 3341 1997 
L 3341 0 
L 2766 0 
L 2766 531 
Q 2569 213 2275 61 
Q 1981 -91 1556 -91 
Q 1019 -91 701 211 
Q 384 513 384 1019 
Q 384 1609 779 1909 
Q 1175 2209 1959 2209 
L 2766 2209 
L 2766 2266 
Q 2766 2663 2505 2880 
Q 2244 3097 1772 3097 
Q 1472 3097 1187 3025 
Q 903 2953 641 2809 
L 641 3341 
Q 956 3463 1253 3523 
Q 1550 3584 1831 3584 
Q 2591 3584 2966 3190 
Q 3341 2797 3341 1997 
z
" transform="scale(0.015625)"/>
       <path id="DejaVuSans-62" d="M 3116 1747 
Q 3116 2381 2855 2742 
Q 2594 3103 2138 3103 
Q 1681 3103 1420 2742 
Q 1159 2381 1159 1747 
Q 1159 1113 1420 752 
Q 1681 391 2138 391 
Q 2594 391 2855 752 
Q 3116 1113 3116 1747 
z
M 1159 2969 
Q 1341 3281 1617 3432 
Q 1894 3584 2278 3584 
Q 2916 3584 3314 3078 
Q 3713 2572 3713 1747 
Q 3713 922 3314 415 
Q 2916 -91 2278 -91 
Q 1894 -91 1617 61 
Q 1341 213 1159 525 
L 1159 0 
L 581 0 
L 581 4863 
L 1159 4863 
L 1159 2969 
z
" transform="scale(0.015625)"/>
      </defs>
      <use xlink:href="#DejaVuSans-50"/>
      <use xlink:href="#DejaVuSans-72" x="58.552734"/>
      <use xlink:href="#DejaVuSans-65" x="97.416016"/>
      <use xlink:href="#DejaVuSans-64" x="158.939453"/>
      <use xlink:href="#DejaVuSans-69" x="222.416016"/>
      <use xlink:href="#DejaVuSans-63" x="250.199219"/>
      <use xlink:href="#DejaVuSans-74" x="305.179688"/>
      <use xlink:href="#DejaVuSans-65" x="344.388672"/>
      <use xlink:href="#DejaVuSans-64" x="405.912109"/>
      <use xlink:href="#DejaVuSans-20" x="469.388672"/>
      <use xlink:href="#DejaVuSans-6c" x="501.175781"/>
      <use xlink:href="#DejaVuSans-61" x="528.958984"/>
      <use xlink:href="#DejaVuSans-62" x="590.238281"/>
      <use xlink:href="#DejaVuSans-65" x="653.714844"/>
      <use xlink:href="#DejaVuSans-6c" x="715.238281"/>
     </g>
    </g>
   </g>
   <g id="line2d_12">
    <path d="M 540.020377 510.648438 
L 540.020377 24.465325 
" clip-path="url(#p06bd915b1f)" style="fill: none; stroke: #ff0000; stroke-width: 4; stroke-linecap: square"/>
   </g>
   <g id="patch_3">
    <path d="M 42.495313 510.648438 
L 42.495313 24.465325 
" style="fill: none; stroke: #000000; stroke-width: 0.8; stroke-linejoin: miter; stroke-linecap: square"/>
   </g>
   <g id="patch_4">
    <path d="M 693.296875 510.648438 
L 693.296875 24.465325 
" style="fill: none; stroke: #000000; stroke-width: 0.8; stroke-linejoin: miter; stroke-linecap: square"/>
   </g>
   <g id="patch_5">
    <path d="M 42.495313 510.648438 
L 693.296875 510.648438 
" style="fill: none; stroke: #000000; stroke-width: 0.8; stroke-linejoin: miter; stroke-linecap: square"/>
   </g>
   <g id="patch_6">
    <path d="M 42.495313 24.465325 
L 693.296875 24.465325 
" style="fill: none; stroke: #000000; stroke-width: 0.8; stroke-linejoin: miter; stroke-linecap: square"/>
   </g>
   <g id="text_14">
    <!-- 0 -->
    <g transform="translate(351.626055 482.599412) scale(0.25 -0.25)">
     <use xlink:href="#DejaVuSans-30"/>
    </g>
   </g>
   <g id="text_15">
    <!-- 1 -->
    <g transform="translate(351.626055 450.459903) scale(0.25 -0.25)">
     <use xlink:href="#DejaVuSans-31"/>
    </g>
   </g>
   <g id="text_16">
    <!-- 2 -->
    <g transform="translate(351.626055 415.106444) scale(0.25 -0.25)">
     <use xlink:href="#DejaVuSans-32"/>
    </g>
   </g>
   <g id="text_17">
    <!-- 3 -->
    <g transform="translate(351.626055 377.99992) scale(0.25 -0.25)">
     <defs>
      <path id="DejaVuSans-33" d="M 2597 2516 
Q 3050 2419 3304 2112 
Q 3559 1806 3559 1356 
Q 3559 666 3084 287 
Q 2609 -91 1734 -91 
Q 1441 -91 1130 -33 
Q 819 25 488 141 
L 488 750 
Q 750 597 1062 519 
Q 1375 441 1716 441 
Q 2309 441 2620 675 
Q 2931 909 2931 1356 
Q 2931 1769 2642 2001 
Q 2353 2234 1838 2234 
L 1294 2234 
L 1294 2753 
L 1863 2753 
Q 2328 2753 2575 2939 
Q 2822 3125 2822 3475 
Q 2822 3834 2567 4026 
Q 2313 4219 1838 4219 
Q 1578 4219 1281 4162 
Q 984 4106 628 3988 
L 628 4550 
Q 988 4650 1302 4700 
Q 1616 4750 1894 4750 
Q 2613 4750 3031 4423 
Q 3450 4097 3450 3541 
Q 3450 3153 3228 2886 
Q 3006 2619 2597 2516 
z
" transform="scale(0.015625)"/>
     </defs>
     <use xlink:href="#DejaVuSans-33"/>
    </g>
   </g>
   <g id="text_18">
    <!-- 4 -->
    <g transform="translate(351.626055 347.905653) scale(0.25 -0.25)">
     <use xlink:href="#DejaVuSans-34"/>
    </g>
   </g>
   <g id="text_19">
    <!-- 5 -->
    <g transform="translate(351.626055 321.317514) scale(0.25 -0.25)">
     <defs>
      <path id="DejaVuSans-35" d="M 691 4666 
L 3169 4666 
L 3169 4134 
L 1269 4134 
L 1269 2991 
Q 1406 3038 1543 3061 
Q 1681 3084 1819 3084 
Q 2600 3084 3056 2656 
Q 3513 2228 3513 1497 
Q 3513 744 3044 326 
Q 2575 -91 1722 -91 
Q 1428 -91 1123 -41 
Q 819 9 494 109 
L 494 744 
Q 775 591 1075 516 
Q 1375 441 1709 441 
Q 2250 441 2565 725 
Q 2881 1009 2881 1497 
Q 2881 1984 2565 2268 
Q 2250 2553 1709 2553 
Q 1456 2553 1204 2497 
Q 953 2441 691 2322 
L 691 4666 
z
" transform="scale(0.015625)"/>
     </defs>
     <use xlink:href="#DejaVuSans-35"/>
    </g>
   </g>
   <g id="text_20">
    <!-- 6 -->
    <g transform="translate(351.626055 289.470182) scale(0.25 -0.25)">
     <use xlink:href="#DejaVuSans-36"/>
    </g>
   </g>
   <g id="text_21">
    <!-- 7 -->
    <g transform="translate(351.626055 257.622851) scale(0.25 -0.25)">
     <defs>
      <path id="DejaVuSans-37" d="M 525 4666 
L 3525 4666 
L 3525 4397 
L 1831 0 
L 1172 0 
L 2766 4134 
L 525 4134 
L 525 4666 
z
" transform="scale(0.015625)"/>
     </defs>
     <use xlink:href="#DejaVuSans-37"/>
    </g>
   </g>
   <g id="text_22">
    <!-- 8 -->
    <g transform="translate(351.626055 247.396644) scale(0.25 -0.25)">
     <use xlink:href="#DejaVuSans-38"/>
    </g>
   </g>
   <g id="text_23">
    <!-- 9 -->
    <g transform="translate(351.626055 214.964958) scale(0.25 -0.25)">
     <defs>
      <path id="DejaVuSans-39" d="M 703 97 
L 703 672 
Q 941 559 1184 500 
Q 1428 441 1663 441 
Q 2288 441 2617 861 
Q 2947 1281 2994 2138 
Q 2813 1869 2534 1725 
Q 2256 1581 1919 1581 
Q 1219 1581 811 2004 
Q 403 2428 403 3163 
Q 403 3881 828 4315 
Q 1253 4750 1959 4750 
Q 2769 4750 3195 4129 
Q 3622 3509 3622 2328 
Q 3622 1225 3098 567 
Q 2575 -91 1691 -91 
Q 1453 -91 1209 -44 
Q 966 3 703 97 
z
M 1959 2075 
Q 2384 2075 2632 2365 
Q 2881 2656 2881 3163 
Q 2881 3666 2632 3958 
Q 2384 4250 1959 4250 
Q 1534 4250 1286 3958 
Q 1038 3666 1038 3163 
Q 1038 2656 1286 2365 
Q 1534 2075 1959 2075 
z
" transform="scale(0.015625)"/>
     </defs>
     <use xlink:href="#DejaVuSans-39"/>
    </g>
   </g>
   <g id="text_24">
    <!-- 10 -->
    <g transform="translate(351.626055 181.948917) scale(0.25 -0.25)">
     <use xlink:href="#DejaVuSans-31"/>
     <use xlink:href="#DejaVuSans-30" x="63.623047"/>
    </g>
   </g>
   <g id="text_25">
    <!-- 11 -->
    <g transform="translate(351.626055 114.748126) scale(0.25 -0.25)">
     <use xlink:href="#DejaVuSans-31"/>
     <use xlink:href="#DejaVuSans-31" x="63.623047"/>
    </g>
   </g>
   <g id="text_26">
    <!-- 12 -->
    <g transform="translate(351.626055 47.547335) scale(0.25 -0.25)">
     <use xlink:href="#DejaVuSans-31"/>
     <use xlink:href="#DejaVuSans-32" x="63.623047"/>
    </g>
   </g>
   <g id="text_27">
    <!-- 13 -->
    <g transform="translate(351.626055 38.19766) scale(0.25 -0.25)">
     <use xlink:href="#DejaVuSans-31"/>
     <use xlink:href="#DejaVuSans-33" x="63.623047"/>
    </g>
   </g>
   <g id="text_28">
    <!-- 14 -->
    <g transform="translate(351.626055 30.893226) scale(0.25 -0.25)">
     <use xlink:href="#DejaVuSans-31"/>
     <use xlink:href="#DejaVuSans-34" x="63.623047"/>
    </g>
   </g>
   <g id="text_29">
    <!-- 0.5290 -->
    <g style="fill: #ff0000" transform="translate(556.290416 30.308872) scale(0.25 -0.25)">
     <use xlink:href="#DejaVuSans-30"/>
     <use xlink:href="#DejaVuSans-2e" x="63.623047"/>
     <use xlink:href="#DejaVuSans-35" x="95.410156"/>
     <use xlink:href="#DejaVuSans-32" x="159.033203"/>
     <use xlink:href="#DejaVuSans-39" x="222.65625"/>
     <use xlink:href="#DejaVuSans-30" x="286.279297"/>
    </g>
   </g>
  </g>
 </g>
 <defs>
  <clipPath id="p06bd915b1f">
   <rect x="42.495313" y="24.465325" width="650.801562" height="486.183113"/>
  </clipPath>
 </defs>
</svg>
