<?xml version="1.0" encoding="utf-8" standalone="no"?>
<!DOCTYPE svg PUBLIC "-//W3C//DTD SVG 1.1//EN"
  "http://www.w3.org/Graphics/SVG/1.1/DTD/svg11.dtd">
<svg xmlns:xlink="http://www.w3.org/1999/xlink" width="720pt" height="432pt" viewBox="0 0 720 432" xmlns="http://www.w3.org/2000/svg" version="1.1">
 <metadata>
  <rdf:RDF xmlns:dc="http://purl.org/dc/elements/1.1/" xmlns:cc="http://creativecommons.org/ns#" xmlns:rdf="http://www.w3.org/1999/02/22-rdf-syntax-ns#">
   <cc:Work>
    <dc:type rdf:resource="http://purl.org/dc/dcmitype/StillImage"/>
    <dc:date>2022-11-04T13:07:39.200539</dc:date>
    <dc:format>image/svg+xml</dc:format>
    <dc:creator>
     <cc:Agent>
      <dc:title>Matplotlib v3.6.1, https://matplotlib.org/</dc:title>
     </cc:Agent>
    </dc:creator>
   </cc:Work>
  </rdf:RDF>
 </metadata>
 <defs>
  <style type="text/css">*{stroke-linejoin: round; stroke-linecap: butt}</style>
 </defs>
 <g id="figure_1">
  <g id="patch_1">
   <path d="M 0 432 
L 720 432 
L 720 0 
L 0 0 
z
" style="fill: #ffffff"/>
  </g>
  <g id="axes_1">
   <g id="patch_2">
    <path d="M 27.978125 390.84375 
L 701.248437 390.84375 
L 701.248437 14.400361 
L 27.978125 14.400361 
z
" style="fill: #ffffff"/>
   </g>
   <g id="PolyCollection_1">
    <defs>
     <path id="mdd99f82cac" d="M 423.189238 -45.68081 
L 364.613281 -45.68081 
L 364.613281 -46.133266 
L 364.613281 -46.585722 
L 364.613281 -47.038178 
L 364.613281 -47.490634 
L 364.613281 -47.94309 
L 364.613281 -48.395546 
L 364.613281 -48.848002 
L 364.613281 -49.300458 
L 364.613281 -49.752914 
L 364.613281 -50.20537 
L 364.613281 -50.657826 
L 364.613281 -51.110282 
L 364.613281 -51.562738 
L 364.613281 -52.015194 
L 364.613281 -52.46765 
L 364.613281 -52.920106 
L 364.613281 -53.372562 
L 364.613281 -53.825018 
L 364.613281 -54.277474 
L 364.613281 -54.72993 
L 364.613281 -55.182386 
L 364.613281 -55.634842 
L 364.613281 -56.087298 
L 364.613281 -56.539754 
L 364.613281 -56.99221 
L 364.613281 -57.444666 
L 364.613281 -57.897122 
L 364.613281 -58.349578 
L 364.613281 -58.802034 
L 364.613281 -59.25449 
L 364.613281 -59.706946 
L 364.613281 -60.159402 
L 364.613281 -60.611858 
L 364.613281 -61.064314 
L 364.613281 -61.51677 
L 364.613281 -61.969226 
L 364.613281 -62.421682 
L 364.613281 -62.874138 
L 364.613281 -63.326594 
L 364.613281 -63.77905 
L 364.613281 -64.231506 
L 364.613281 -64.683962 
L 364.613281 -65.136418 
L 364.613281 -65.588874 
L 364.613281 -66.04133 
L 364.613281 -66.493786 
L 364.613281 -66.946242 
L 364.613281 -67.398698 
L 364.613281 -67.851154 
L 364.613281 -68.30361 
L 364.613281 -68.756066 
L 364.613281 -69.208522 
L 364.613281 -69.660978 
L 364.613281 -70.113434 
L 364.613281 -70.56589 
L 364.613281 -71.018346 
L 364.613281 -71.470802 
L 364.613281 -71.923258 
L 364.613281 -72.375714 
L 364.613281 -72.82817 
L 364.613281 -73.280626 
L 364.613281 -73.733082 
L 364.613281 -74.185538 
L 364.613281 -74.637994 
L 364.613281 -75.09045 
L 364.613281 -75.542906 
L 364.613281 -75.995362 
L 364.613281 -76.447818 
L 364.613281 -76.900274 
L 364.613281 -77.35273 
L 364.613281 -77.805186 
L 364.613281 -78.257642 
L 364.613281 -78.710098 
L 364.613281 -79.162554 
L 364.613281 -79.61501 
L 591.737228 -79.61501 
L 591.737228 -79.61501 
L 591.215432 -79.162554 
L 591.120279 -78.710098 
L 591.058487 -78.257642 
L 590.96992 -77.805186 
L 590.553876 -77.35273 
L 590.510757 -76.900274 
L 590.194058 -76.447818 
L 589.400037 -75.995362 
L 582.261042 -75.542906 
L 582.028771 -75.09045 
L 582.003893 -74.637994 
L 581.991602 -74.185538 
L 581.85088 -73.733082 
L 581.775467 -73.280626 
L 580.966743 -72.82817 
L 580.257909 -72.375714 
L 578.801698 -71.923258 
L 577.290058 -71.470802 
L 575.375475 -71.018346 
L 574.108512 -70.56589 
L 573.731003 -70.113434 
L 572.345878 -69.660978 
L 572.003858 -69.208522 
L 571.553498 -68.756066 
L 571.505648 -68.30361 
L 571.160654 -67.851154 
L 570.982168 -67.398698 
L 570.239402 -66.946242 
L 570.004106 -66.493786 
L 568.419006 -66.04133 
L 563.538114 -65.588874 
L 563.471912 -65.136418 
L 561.820289 -64.683962 
L 560.22026 -64.231506 
L 559.72808 -63.77905 
L 553.614485 -63.326594 
L 552.005056 -62.874138 
L 550.756 -62.421682 
L 550.451087 -61.969226 
L 549.133367 -61.51677 
L 548.970762 -61.064314 
L 547.332664 -60.611858 
L 546.029025 -60.159402 
L 543.253438 -59.706946 
L 543.203901 -59.25449 
L 542.088004 -58.802034 
L 533.71397 -58.349578 
L 533.054075 -57.897122 
L 525.485438 -57.444666 
L 524.389749 -56.99221 
L 524.104049 -56.539754 
L 522.858365 -56.087298 
L 521.401909 -55.634842 
L 521.395486 -55.182386 
L 517.362484 -54.72993 
L 505.141996 -54.277474 
L 503.283875 -53.825018 
L 502.648157 -53.372562 
L 501.635816 -52.920106 
L 501.263155 -52.46765 
L 498.038689 -52.015194 
L 496.886785 -51.562738 
L 495.217351 -51.110282 
L 492.366957 -50.657826 
L 490.156205 -50.20537 
L 490.035641 -49.752914 
L 487.870956 -49.300458 
L 484.809846 -48.848002 
L 483.726571 -48.395546 
L 480.792776 -47.94309 
L 450.447476 -47.490634 
L 446.740379 -47.038178 
L 443.584477 -46.585722 
L 432.834671 -46.133266 
L 423.189238 -45.68081 
z
" style="stroke: #000000; stroke-opacity: 0.7"/>
    </defs>
    <g clip-path="url(#p53d7a5c7fe)">
     <use xlink:href="#mdd99f82cac" x="0" y="432" style="fill-opacity: 0.7; stroke: #000000; stroke-opacity: 0.7"/>
    </g>
   </g>
   <g id="PolyCollection_2">
    <defs>
     <path id="m737c011c4c" d="M 465.208885 -84.592026 
L 364.613281 -84.592026 
L 364.613281 -85.044482 
L 364.613281 -85.496938 
L 364.613281 -85.949394 
L 364.613281 -86.40185 
L 364.613281 -86.854306 
L 364.613281 -87.306762 
L 364.613281 -87.759218 
L 364.613281 -88.211674 
L 364.613281 -88.66413 
L 364.613281 -89.116586 
L 364.613281 -89.569042 
L 364.613281 -90.021498 
L 364.613281 -90.473954 
L 538.606394 -90.473954 
L 538.606394 -90.473954 
L 537.316045 -90.021498 
L 536.993365 -89.569042 
L 531.721077 -89.116586 
L 531.07014 -88.66413 
L 529.555034 -88.211674 
L 529.033397 -87.759218 
L 525.341995 -87.306762 
L 514.10252 -86.854306 
L 504.057328 -86.40185 
L 466.133872 -85.949394 
L 466.086666 -85.496938 
L 465.572825 -85.044482 
L 465.208885 -84.592026 
z
" style="stroke: #7d008e; stroke-opacity: 0.7"/>
    </defs>
    <g clip-path="url(#p53d7a5c7fe)">
     <use xlink:href="#m737c011c4c" x="0" y="432" style="fill: #7d008e; fill-opacity: 0.7; stroke: #7d008e; stroke-opacity: 0.7"/>
    </g>
   </g>
   <g id="PolyCollection_3">
    <defs>
     <path id="ma606e2b06c" d="M 364.941439 -95.45097 
L 364.613281 -95.45097 
L 364.613281 -95.903426 
L 364.613281 -96.355882 
L 364.613281 -96.808338 
L 364.613281 -97.260794 
L 364.613281 -97.71325 
L 364.613281 -98.165706 
L 364.613281 -98.618162 
L 364.613281 -99.070618 
L 364.613281 -99.523074 
L 364.613281 -99.97553 
L 364.613281 -100.427986 
L 364.613281 -100.880442 
L 364.613281 -101.332898 
L 364.613281 -101.785354 
L 364.613281 -102.23781 
L 364.613281 -102.690266 
L 364.613281 -103.142722 
L 364.613281 -103.595178 
L 364.613281 -104.047634 
L 364.613281 -104.50009 
L 364.613281 -104.952546 
L 364.613281 -105.405002 
L 364.613281 -105.857458 
L 364.613281 -106.309914 
L 364.613281 -106.76237 
L 364.613281 -107.214826 
L 364.613281 -107.667282 
L 364.613281 -108.119738 
L 364.613281 -108.572194 
L 364.613281 -109.02465 
L 364.613281 -109.477106 
L 364.613281 -109.929562 
L 364.613281 -110.382018 
L 364.613281 -110.834474 
L 364.613281 -111.28693 
L 364.613281 -111.739386 
L 364.613281 -112.191842 
L 364.613281 -112.644298 
L 364.613281 -113.096754 
L 364.613281 -113.54921 
L 364.613281 -114.001666 
L 364.613281 -114.454121 
L 364.613281 -114.906577 
L 364.613281 -115.359033 
L 364.613281 -115.811489 
L 364.613281 -116.263945 
L 364.613281 -116.716401 
L 364.613281 -117.168857 
L 364.613281 -117.621313 
L 364.613281 -118.073769 
L 364.613281 -118.526225 
L 364.613281 -118.978681 
L 364.613281 -119.431137 
L 364.613281 -119.883593 
L 364.613281 -120.336049 
L 364.613281 -120.788505 
L 364.613281 -121.240961 
L 364.613281 -121.693417 
L 364.613281 -122.145873 
L 364.613281 -122.598329 
L 364.613281 -123.050785 
L 364.613281 -123.503241 
L 364.613281 -123.955697 
L 364.613281 -124.408153 
L 364.613281 -124.860609 
L 364.613281 -125.313065 
L 364.613281 -125.765521 
L 364.613281 -126.217977 
L 364.613281 -126.670433 
L 364.613281 -127.122889 
L 364.613281 -127.575345 
L 364.613281 -128.027801 
L 364.613281 -128.480257 
L 364.613281 -128.932713 
L 364.613281 -129.385169 
L 364.613281 -129.837625 
L 364.613281 -130.290081 
L 364.613281 -130.742537 
L 364.613281 -131.194993 
L 364.613281 -131.647449 
L 364.613281 -132.099905 
L 364.613281 -132.552361 
L 364.613281 -133.004817 
L 364.613281 -133.457273 
L 364.613281 -133.909729 
L 364.613281 -134.362185 
L 572.880819 -134.362185 
L 572.880819 -134.362185 
L 569.695344 -133.909729 
L 568.756895 -133.457273 
L 566.599988 -133.004817 
L 565.68582 -132.552361 
L 565.614462 -132.099905 
L 565.376201 -131.647449 
L 564.478809 -131.194993 
L 563.606535 -130.742537 
L 563.401515 -130.290081 
L 562.166144 -129.837625 
L 561.385132 -129.385169 
L 559.586802 -128.932713 
L 559.375667 -128.480257 
L 559.127544 -128.027801 
L 559.05234 -127.575345 
L 558.086416 -127.122889 
L 557.987162 -126.670433 
L 557.932285 -126.217977 
L 557.527718 -125.765521 
L 557.52411 -125.313065 
L 557.210011 -124.860609 
L 556.60572 -124.408153 
L 555.801314 -123.955697 
L 555.727356 -123.503241 
L 555.322152 -123.050785 
L 554.28389 -122.598329 
L 553.964034 -122.145873 
L 553.752139 -121.693417 
L 553.65912 -121.240961 
L 553.648434 -120.788505 
L 553.197823 -120.336049 
L 552.883949 -119.883593 
L 551.977756 -119.431137 
L 551.534691 -118.978681 
L 551.404458 -118.526225 
L 550.387042 -118.073769 
L 549.802286 -117.621313 
L 548.247856 -117.168857 
L 547.628563 -116.716401 
L 546.823382 -116.263945 
L 546.501801 -115.811489 
L 545.536968 -115.359033 
L 543.581117 -114.906577 
L 543.579341 -114.454121 
L 543.424015 -114.001666 
L 543.372467 -113.54921 
L 543.056474 -113.096754 
L 542.130203 -112.644298 
L 540.278726 -112.191842 
L 538.157716 -111.739386 
L 537.521584 -111.28693 
L 536.598137 -110.834474 
L 534.37342 -110.382018 
L 534.14616 -109.929562 
L 533.89093 -109.477106 
L 533.017813 -109.02465 
L 532.475463 -108.572194 
L 532.435906 -108.119738 
L 532.233928 -107.667282 
L 531.469585 -107.214826 
L 531.462301 -106.76237 
L 531.155328 -106.309914 
L 530.880548 -105.857458 
L 530.484053 -105.405002 
L 527.798968 -104.952546 
L 526.713551 -104.50009 
L 523.939623 -104.047634 
L 522.145735 -103.595178 
L 519.070857 -103.142722 
L 515.423215 -102.690266 
L 514.761051 -102.23781 
L 513.558904 -101.785354 
L 511.877996 -101.332898 
L 509.507539 -100.880442 
L 508.19185 -100.427986 
L 507.934281 -99.97553 
L 505.576746 -99.523074 
L 502.181855 -99.070618 
L 501.657535 -98.618162 
L 493.794264 -98.165706 
L 489.554756 -97.71325 
L 480.574595 -97.260794 
L 467.719212 -96.808338 
L 457.939357 -96.355882 
L 438.710072 -95.903426 
L 364.941439 -95.45097 
z
" style="stroke: #2d00a4; stroke-opacity: 0.7"/>
    </defs>
    <g clip-path="url(#p53d7a5c7fe)">
     <use xlink:href="#ma606e2b06c" x="0" y="432" style="fill: #2d00a4; fill-opacity: 0.7; stroke: #2d00a4; stroke-opacity: 0.7"/>
    </g>
   </g>
   <g id="PolyCollection_4">
    <defs>
     <path id="ma2d62e6bcf" d="M 382.623435 -139.339201 
L 364.613281 -139.339201 
L 364.613281 -139.791657 
L 364.613281 -140.244113 
L 364.613281 -140.696569 
L 364.613281 -141.149025 
L 364.613281 -141.601481 
L 364.613281 -142.053937 
L 364.613281 -142.506393 
L 364.613281 -142.958849 
L 364.613281 -143.411305 
L 364.613281 -143.863761 
L 364.613281 -144.316217 
L 364.613281 -144.768673 
L 364.613281 -145.221129 
L 364.613281 -145.673585 
L 364.613281 -146.126041 
L 364.613281 -146.578497 
L 364.613281 -147.030953 
L 364.613281 -147.483409 
L 364.613281 -147.935865 
L 523.397967 -147.935865 
L 523.397967 -147.935865 
L 514.588755 -147.483409 
L 514.501129 -147.030953 
L 506.81474 -146.578497 
L 504.101853 -146.126041 
L 502.323916 -145.673585 
L 500.221865 -145.221129 
L 495.095702 -144.768673 
L 492.828996 -144.316217 
L 492.107342 -143.863761 
L 488.32175 -143.411305 
L 476.054246 -142.958849 
L 472.122622 -142.506393 
L 471.565276 -142.053937 
L 471.515769 -141.601481 
L 468.541782 -141.149025 
L 464.527121 -140.696569 
L 463.736001 -140.244113 
L 462.221349 -139.791657 
L 382.623435 -139.339201 
z
" style="stroke: #0000dd; stroke-opacity: 0.7"/>
    </defs>
    <g clip-path="url(#p53d7a5c7fe)">
     <use xlink:href="#ma2d62e6bcf" x="0" y="432" style="fill: #0000dd; fill-opacity: 0.7; stroke: #0000dd; stroke-opacity: 0.7"/>
    </g>
   </g>
   <g id="PolyCollection_5">
    <defs>
     <path id="mb92fb521a8" d="M 291.053981 -152.912881 
L 364.613281 -152.912881 
L 364.613281 -153.365337 
L 364.613281 -153.817793 
L 364.613281 -154.270249 
L 364.613281 -154.722705 
L 364.613281 -155.175161 
L 364.613281 -155.627617 
L 364.613281 -156.080073 
L 364.613281 -156.532529 
L 364.613281 -156.984985 
L 364.613281 -157.437441 
L 364.613281 -157.889897 
L 364.613281 -158.342353 
L 364.613281 -158.794809 
L 364.613281 -159.247265 
L 364.613281 -159.699721 
L 364.613281 -160.152177 
L 364.613281 -160.604633 
L 364.613281 -161.057089 
L 364.613281 -161.509545 
L 364.613281 -161.962001 
L 364.613281 -162.414457 
L 364.613281 -162.866913 
L 364.613281 -163.319369 
L 364.613281 -163.771825 
L 364.613281 -164.224281 
L 364.613281 -164.676737 
L 364.613281 -165.129193 
L 364.613281 -165.581649 
L 364.613281 -166.034105 
L 364.613281 -166.486561 
L 364.613281 -166.939017 
L 364.613281 -167.391473 
L 364.613281 -167.843929 
L 364.613281 -168.296385 
L 364.613281 -168.748841 
L 364.613281 -169.201297 
L 364.613281 -169.653753 
L 364.613281 -170.106209 
L 364.613281 -170.558665 
L 364.613281 -171.011121 
L 364.613281 -171.463577 
L 364.613281 -171.916033 
L 364.613281 -172.368489 
L 364.613281 -172.820945 
L 364.613281 -173.273401 
L 364.613281 -173.725857 
L 364.613281 -174.178313 
L 364.613281 -174.630769 
L 364.613281 -175.083225 
L 364.613281 -175.535681 
L 364.613281 -175.988137 
L 364.613281 -176.440593 
L 364.613281 -176.893049 
L 364.613281 -177.345505 
L 364.613281 -177.797961 
L 364.613281 -178.250417 
L 364.613281 -178.702873 
L 364.613281 -179.155329 
L 364.613281 -179.607785 
L 364.613281 -180.060241 
L 364.613281 -180.512697 
L 364.613281 -180.965153 
L 587.619496 -180.965153 
L 587.619496 -180.965153 
L 587.51033 -180.512697 
L 587.28793 -180.060241 
L 587.264584 -179.607785 
L 587.224162 -179.155329 
L 586.994882 -178.702873 
L 586.811677 -178.250417 
L 586.064736 -177.797961 
L 586.009739 -177.345505 
L 586.006593 -176.893049 
L 585.955878 -176.440593 
L 585.850141 -175.988137 
L 579.086163 -175.535681 
L 578.806892 -175.083225 
L 578.567047 -174.630769 
L 578.325062 -174.178313 
L 578.239868 -173.725857 
L 578.208705 -173.273401 
L 577.824175 -172.820945 
L 577.701579 -172.368489 
L 574.519354 -171.916033 
L 569.33688 -171.463577 
L 568.81022 -171.011121 
L 568.680287 -170.558665 
L 568.008375 -170.106209 
L 567.337721 -169.653753 
L 567.000073 -169.201297 
L 566.006884 -168.748841 
L 563.940688 -168.296385 
L 562.795828 -167.843929 
L 560.998863 -167.391473 
L 557.255864 -166.939017 
L 556.667516 -166.486561 
L 555.982181 -166.034105 
L 555.971657 -165.581649 
L 544.053537 -165.129193 
L 535.288048 -164.676737 
L 527.859386 -164.224281 
L 527.798186 -163.771825 
L 526.700326 -163.319369 
L 515.016805 -162.866913 
L 513.692962 -162.414457 
L 509.589556 -161.962001 
L 491.664772 -161.509545 
L 479.047083 -161.057089 
L 463.72822 -160.604633 
L 461.646215 -160.152177 
L 458.775819 -159.699721 
L 423.125262 -159.247265 
L 416.770615 -158.794809 
L 411.316181 -158.342353 
L 409.338112 -157.889897 
L 408.789354 -157.437441 
L 379.349103 -156.984985 
L 368.334624 -156.532529 
L 366.859388 -156.080073 
L 358.326938 -155.627617 
L 353.166518 -155.175161 
L 351.632482 -154.722705 
L 332.311571 -154.270249 
L 316.712331 -153.817793 
L 309.300241 -153.365337 
L 291.053981 -152.912881 
z
" style="stroke: #0082dd; stroke-opacity: 0.7"/>
    </defs>
    <g clip-path="url(#p53d7a5c7fe)">
     <use xlink:href="#mb92fb521a8" x="0" y="432" style="fill: #0082dd; fill-opacity: 0.7; stroke: #0082dd; stroke-opacity: 0.7"/>
    </g>
   </g>
   <g id="PolyCollection_6">
    <defs>
     <path id="mb643a939c5" d="M 404.473316 -185.942169 
L 364.613281 -185.942169 
L 364.613281 -186.394625 
L 364.613281 -186.847081 
L 364.613281 -187.299537 
L 364.613281 -187.751993 
L 364.613281 -188.204449 
L 364.613281 -188.656905 
L 364.613281 -189.109361 
L 526.792285 -189.109361 
L 526.792285 -189.109361 
L 513.283091 -188.656905 
L 509.597824 -188.204449 
L 487.663264 -187.751993 
L 481.258049 -187.299537 
L 479.772325 -186.847081 
L 451.858704 -186.394625 
L 404.473316 -185.942169 
z
" style="stroke: #00a4bb; stroke-opacity: 0.7"/>
    </defs>
    <g clip-path="url(#p53d7a5c7fe)">
     <use xlink:href="#mb643a939c5" x="0" y="432" style="fill: #00a4bb; fill-opacity: 0.7; stroke: #00a4bb; stroke-opacity: 0.7"/>
    </g>
   </g>
   <g id="PolyCollection_7">
    <defs>
     <path id="m25e2c9438f" d="M 287.053759 -194.086377 
L 364.613281 -194.086377 
L 364.613281 -194.538833 
L 364.613281 -194.991289 
L 364.613281 -195.443745 
L 364.613281 -195.896201 
L 364.613281 -196.348657 
L 364.613281 -196.801113 
L 364.613281 -197.253569 
L 364.613281 -197.706025 
L 364.613281 -198.158481 
L 364.613281 -198.610937 
L 364.613281 -199.063393 
L 364.613281 -199.515849 
L 364.613281 -199.968305 
L 364.613281 -200.420761 
L 364.613281 -200.873217 
L 364.613281 -201.325673 
L 364.613281 -201.778129 
L 364.613281 -202.230585 
L 364.613281 -202.683041 
L 364.613281 -203.135497 
L 364.613281 -203.587953 
L 364.613281 -204.040409 
L 364.613281 -204.492865 
L 364.613281 -204.945321 
L 364.613281 -205.397777 
L 364.613281 -205.850233 
L 364.613281 -206.302689 
L 364.613281 -206.755145 
L 364.613281 -207.207601 
L 364.613281 -207.660057 
L 364.613281 -208.112513 
L 364.613281 -208.564969 
L 364.613281 -209.017425 
L 364.613281 -209.469881 
L 364.613281 -209.922337 
L 364.613281 -210.374793 
L 364.613281 -210.827249 
L 364.613281 -211.279705 
L 364.613281 -211.732161 
L 364.613281 -212.184617 
L 364.613281 -212.637073 
L 364.613281 -213.089529 
L 364.613281 -213.541985 
L 364.613281 -213.994441 
L 364.613281 -214.446897 
L 364.613281 -214.899353 
L 364.613281 -215.351809 
L 364.613281 -215.804265 
L 364.613281 -216.256721 
L 364.613281 -216.709177 
L 364.613281 -217.161633 
L 364.613281 -217.614089 
L 364.613281 -218.066545 
L 364.613281 -218.519001 
L 364.613281 -218.971457 
L 364.613281 -219.423913 
L 364.613281 -219.876369 
L 364.613281 -220.328825 
L 364.613281 -220.781281 
L 364.613281 -221.233737 
L 364.613281 -221.686193 
L 364.613281 -222.138649 
L 364.613281 -222.591105 
L 364.613281 -223.043561 
L 364.613281 -223.496017 
L 364.613281 -223.948473 
L 364.613281 -224.400929 
L 364.613281 -224.853385 
L 364.613281 -225.305841 
L 364.613281 -225.758297 
L 364.613281 -226.210753 
L 364.613281 -226.663209 
L 364.613281 -227.115665 
L 364.613281 -227.568121 
L 364.613281 -228.020577 
L 364.613281 -228.473033 
L 364.613281 -228.925489 
L 364.613281 -229.377945 
L 364.613281 -229.830401 
L 364.613281 -230.282857 
L 576.925036 -230.282857 
L 576.925036 -230.282857 
L 576.274594 -229.830401 
L 576.235596 -229.377945 
L 576.041227 -228.925489 
L 575.938919 -228.473033 
L 575.377614 -228.020577 
L 575.304913 -227.568121 
L 574.296421 -227.115665 
L 573.987121 -226.663209 
L 573.868665 -226.210753 
L 571.897741 -225.758297 
L 570.830285 -225.305841 
L 567.612741 -224.853385 
L 566.917723 -224.400929 
L 565.920878 -223.948473 
L 565.468372 -223.496017 
L 564.184513 -223.043561 
L 562.918235 -222.591105 
L 559.999893 -222.138649 
L 559.428767 -221.686193 
L 558.248561 -221.233737 
L 557.126198 -220.781281 
L 556.444518 -220.328825 
L 556.071973 -219.876369 
L 555.973899 -219.423913 
L 555.627621 -218.971457 
L 555.588833 -218.519001 
L 555.026384 -218.066545 
L 554.741926 -217.614089 
L 554.699833 -217.161633 
L 554.685281 -216.709177 
L 554.400158 -216.256721 
L 553.535658 -215.804265 
L 548.96481 -215.351809 
L 548.842005 -214.899353 
L 548.737252 -214.446897 
L 548.647076 -213.994441 
L 548.638874 -213.541985 
L 548.313139 -213.089529 
L 548.30523 -212.637073 
L 548.171636 -212.184617 
L 543.533691 -211.732161 
L 541.834509 -211.279705 
L 540.326497 -210.827249 
L 539.79096 -210.374793 
L 539.782098 -209.922337 
L 539.130433 -209.469881 
L 534.778988 -209.017425 
L 534.585639 -208.564969 
L 534.206419 -208.112513 
L 532.511947 -207.660057 
L 531.25737 -207.207601 
L 530.474055 -206.755145 
L 526.208342 -206.302689 
L 522.432198 -205.850233 
L 521.83427 -205.397777 
L 521.20429 -204.945321 
L 516.797761 -204.492865 
L 510.776816 -204.040409 
L 510.578473 -203.587953 
L 501.248816 -203.135497 
L 490.805878 -202.683041 
L 490.222148 -202.230585 
L 476.847161 -201.778129 
L 475.051539 -201.325673 
L 471.505231 -200.873217 
L 467.303968 -200.420761 
L 452.614959 -199.968305 
L 447.995657 -199.515849 
L 447.084972 -199.063393 
L 438.731284 -198.610937 
L 437.587477 -198.158481 
L 437.42717 -197.706025 
L 429.437169 -197.253569 
L 418.183459 -196.801113 
L 400.955585 -196.348657 
L 397.656889 -195.896201 
L 372.931598 -195.443745 
L 333.777725 -194.991289 
L 321.480157 -194.538833 
L 287.053759 -194.086377 
z
" style="stroke: #00aa88; stroke-opacity: 0.7"/>
    </defs>
    <g clip-path="url(#p53d7a5c7fe)">
     <use xlink:href="#m25e2c9438f" x="0" y="432" style="fill: #00aa88; fill-opacity: 0.7; stroke: #00aa88; stroke-opacity: 0.7"/>
    </g>
   </g>
   <g id="PolyCollection_8">
    <defs>
     <path id="m1d44a3919d" d="M 584.674412 -235.259873 
L 364.613281 -235.259873 
L 364.613281 -235.712329 
L 364.613281 -236.164785 
L 364.613281 -236.617241 
L 364.613281 -237.069697 
L 364.613281 -237.522153 
L 364.613281 -237.974609 
L 364.613281 -238.427065 
L 638.344418 -238.427065 
L 638.344418 -238.427065 
L 636.957896 -237.974609 
L 626.497612 -237.522153 
L 620.703025 -237.069697 
L 617.442472 -236.617241 
L 599.13433 -236.164785 
L 592.84654 -235.712329 
L 584.674412 -235.259873 
z
" style="stroke: #00a400; stroke-opacity: 0.7"/>
    </defs>
    <g clip-path="url(#p53d7a5c7fe)">
     <use xlink:href="#m1d44a3919d" x="0" y="432" style="fill: #00a400; fill-opacity: 0.7; stroke: #00a400; stroke-opacity: 0.7"/>
    </g>
   </g>
   <g id="PolyCollection_9">
    <defs>
     <path id="m539984c746" d="M 434.999965 -243.404081 
L 364.613281 -243.404081 
L 364.613281 -243.856537 
L 364.613281 -244.308993 
L 364.613281 -244.761449 
L 364.613281 -245.213905 
L 364.613281 -245.666361 
L 364.613281 -246.118817 
L 491.834317 -246.118817 
L 491.834317 -246.118817 
L 486.846336 -245.666361 
L 485.418407 -245.213905 
L 485.174941 -244.761449 
L 476.656545 -244.308993 
L 446.958353 -243.856537 
L 434.999965 -243.404081 
z
" style="stroke: #00d200; stroke-opacity: 0.7"/>
    </defs>
    <g clip-path="url(#p53d7a5c7fe)">
     <use xlink:href="#m539984c746" x="0" y="432" style="fill: #00d200; fill-opacity: 0.7; stroke: #00d200; stroke-opacity: 0.7"/>
    </g>
   </g>
   <g id="PolyCollection_10">
    <defs>
     <path id="md225f8a199" d="M 371.170717 -251.095833 
L 364.613281 -251.095833 
L 364.613281 -251.548289 
L 364.613281 -252.000745 
L 364.613281 -252.453201 
L 364.613281 -252.905657 
L 364.613281 -253.358113 
L 364.613281 -253.810569 
L 364.613281 -254.263025 
L 364.613281 -254.715481 
L 364.613281 -255.167937 
L 364.613281 -255.620393 
L 364.613281 -256.072849 
L 364.613281 -256.525305 
L 364.613281 -256.977761 
L 364.613281 -257.430217 
L 364.613281 -257.882673 
L 364.613281 -258.335129 
L 364.613281 -258.787585 
L 364.613281 -259.240041 
L 364.613281 -259.692497 
L 364.613281 -260.144953 
L 364.613281 -260.597408 
L 364.613281 -261.049864 
L 364.613281 -261.50232 
L 364.613281 -261.954776 
L 364.613281 -262.407232 
L 364.613281 -262.859688 
L 364.613281 -263.312144 
L 364.613281 -263.7646 
L 364.613281 -264.217056 
L 364.613281 -264.669512 
L 364.613281 -265.121968 
L 364.613281 -265.574424 
L 364.613281 -266.02688 
L 364.613281 -266.479336 
L 364.613281 -266.931792 
L 364.613281 -267.384248 
L 364.613281 -267.836704 
L 364.613281 -268.28916 
L 364.613281 -268.741616 
L 364.613281 -269.194072 
L 364.613281 -269.646528 
L 364.613281 -270.098984 
L 364.613281 -270.55144 
L 364.613281 -271.003896 
L 364.613281 -271.456352 
L 364.613281 -271.908808 
L 364.613281 -272.361264 
L 364.613281 -272.81372 
L 364.613281 -273.266176 
L 364.613281 -273.718632 
L 364.613281 -274.171088 
L 364.613281 -274.623544 
L 364.613281 -275.076 
L 364.613281 -275.528456 
L 364.613281 -275.980912 
L 364.613281 -276.433368 
L 364.613281 -276.885824 
L 364.613281 -277.33828 
L 364.613281 -277.790736 
L 364.613281 -278.243192 
L 364.613281 -278.695648 
L 364.613281 -279.148104 
L 364.613281 -279.60056 
L 364.613281 -280.053016 
L 364.613281 -280.505472 
L 364.613281 -280.957928 
L 364.613281 -281.410384 
L 364.613281 -281.86284 
L 364.613281 -282.315296 
L 364.613281 -282.767752 
L 364.613281 -283.220208 
L 364.613281 -283.672664 
L 364.613281 -284.12512 
L 364.613281 -284.577576 
L 364.613281 -285.030032 
L 364.613281 -285.482488 
L 364.613281 -285.934944 
L 364.613281 -286.3874 
L 364.613281 -286.839856 
L 364.613281 -287.292312 
L 364.613281 -287.744768 
L 364.613281 -288.197224 
L 364.613281 -288.64968 
L 580.586254 -288.64968 
L 580.586254 -288.64968 
L 580.289949 -288.197224 
L 580.263406 -287.744768 
L 578.763936 -287.292312 
L 578.294011 -286.839856 
L 578.288728 -286.3874 
L 578.284659 -285.934944 
L 577.970369 -285.482488 
L 577.770715 -285.030032 
L 577.154548 -284.577576 
L 576.863461 -284.12512 
L 576.652309 -283.672664 
L 574.939612 -283.220208 
L 574.798219 -282.767752 
L 573.300647 -282.315296 
L 572.565602 -281.86284 
L 570.301698 -281.410384 
L 569.057878 -280.957928 
L 566.43418 -280.505472 
L 566.415512 -280.053016 
L 565.49068 -279.60056 
L 564.838025 -279.148104 
L 561.617447 -278.695648 
L 560.125321 -278.243192 
L 560.016368 -277.790736 
L 559.639144 -277.33828 
L 559.526353 -276.885824 
L 559.394068 -276.433368 
L 558.034684 -275.980912 
L 557.188094 -275.528456 
L 556.734768 -275.076 
L 556.554383 -274.623544 
L 556.322306 -274.171088 
L 555.464801 -273.718632 
L 553.464488 -273.266176 
L 553.099851 -272.81372 
L 552.670847 -272.361264 
L 552.299493 -271.908808 
L 550.708343 -271.456352 
L 550.033667 -271.003896 
L 549.878182 -270.55144 
L 549.793712 -270.098984 
L 547.367458 -269.646528 
L 545.61141 -269.194072 
L 545.36982 -268.741616 
L 544.520749 -268.28916 
L 542.971192 -267.836704 
L 541.407326 -267.384248 
L 539.025696 -266.931792 
L 538.725506 -266.479336 
L 531.525087 -266.02688 
L 529.91516 -265.574424 
L 529.730061 -265.121968 
L 525.453799 -264.669512 
L 523.462018 -264.217056 
L 519.705954 -263.7646 
L 519.133374 -263.312144 
L 518.49589 -262.859688 
L 516.735262 -262.407232 
L 513.616177 -261.954776 
L 510.653555 -261.50232 
L 504.77722 -261.049864 
L 499.824819 -260.597408 
L 498.284169 -260.144953 
L 497.400127 -259.692497 
L 495.577525 -259.240041 
L 493.864689 -258.787585 
L 487.975889 -258.335129 
L 487.840445 -257.882673 
L 485.202832 -257.430217 
L 483.336918 -256.977761 
L 472.125675 -256.525305 
L 469.908778 -256.072849 
L 464.911131 -255.620393 
L 464.89475 -255.167937 
L 462.577536 -254.715481 
L 450.746602 -254.263025 
L 446.658365 -253.810569 
L 446.295131 -253.358113 
L 445.246851 -252.905657 
L 433.605966 -252.453201 
L 423.24129 -252.000745 
L 415.210074 -251.548289 
L 371.170717 -251.095833 
z
" style="stroke: #00ff00; stroke-opacity: 0.7"/>
    </defs>
    <g clip-path="url(#p53d7a5c7fe)">
     <use xlink:href="#md225f8a199" x="0" y="432" style="fill: #00ff00; fill-opacity: 0.7; stroke: #00ff00; stroke-opacity: 0.7"/>
    </g>
   </g>
   <g id="PolyCollection_11">
    <defs>
     <path id="m4b51474f16" d="M 432.677569 -293.626696 
L 364.613281 -293.626696 
L 364.613281 -294.079152 
L 364.613281 -294.531608 
L 364.613281 -294.984064 
L 364.613281 -295.43652 
L 364.613281 -295.888976 
L 364.613281 -296.341432 
L 364.613281 -296.793888 
L 364.613281 -297.246344 
L 579.59546 -297.246344 
L 579.59546 -297.246344 
L 579.479017 -296.793888 
L 579.099746 -296.341432 
L 567.398198 -295.888976 
L 535.167711 -295.43652 
L 519.825168 -294.984064 
L 511.67855 -294.531608 
L 510.165656 -294.079152 
L 432.677569 -293.626696 
z
" style="stroke: #ccf900; stroke-opacity: 0.7"/>
    </defs>
    <g clip-path="url(#p53d7a5c7fe)">
     <use xlink:href="#m4b51474f16" x="0" y="432" style="fill: #ccf900; fill-opacity: 0.7; stroke: #ccf900; stroke-opacity: 0.7"/>
    </g>
   </g>
   <g id="PolyCollection_12">
    <defs>
     <path id="m3d6d585d8e" d="M 490.529926 -302.22336 
L 364.613281 -302.22336 
L 364.613281 -302.675816 
L 364.613281 -303.128272 
L 364.613281 -303.580728 
L 364.613281 -304.033184 
L 364.613281 -304.48564 
L 364.613281 -304.938096 
L 364.613281 -305.390552 
L 364.613281 -305.843008 
L 364.613281 -306.295464 
L 364.613281 -306.74792 
L 364.613281 -307.200376 
L 364.613281 -307.652832 
L 364.613281 -308.105288 
L 364.613281 -308.557744 
L 364.613281 -309.0102 
L 364.613281 -309.462656 
L 364.613281 -309.915112 
L 364.613281 -310.367568 
L 364.613281 -310.820024 
L 364.613281 -311.27248 
L 364.613281 -311.724936 
L 364.613281 -312.177392 
L 364.613281 -312.629848 
L 364.613281 -313.082304 
L 364.613281 -313.53476 
L 364.613281 -313.987216 
L 364.613281 -314.439672 
L 364.613281 -314.892128 
L 364.613281 -315.344584 
L 364.613281 -315.79704 
L 364.613281 -316.249496 
L 364.613281 -316.701952 
L 364.613281 -317.154408 
L 364.613281 -317.606864 
L 364.613281 -318.05932 
L 364.613281 -318.511776 
L 364.613281 -318.964232 
L 364.613281 -319.416688 
L 364.613281 -319.869144 
L 364.613281 -320.3216 
L 364.613281 -320.774056 
L 364.613281 -321.226512 
L 364.613281 -321.678968 
L 364.613281 -322.131424 
L 364.613281 -322.58388 
L 364.613281 -323.036336 
L 364.613281 -323.488792 
L 364.613281 -323.941248 
L 364.613281 -324.393704 
L 364.613281 -324.84616 
L 364.613281 -325.298616 
L 364.613281 -325.751072 
L 364.613281 -326.203528 
L 364.613281 -326.655984 
L 364.613281 -327.10844 
L 364.613281 -327.560896 
L 364.613281 -328.013352 
L 364.613281 -328.465808 
L 364.613281 -328.918264 
L 364.613281 -329.37072 
L 364.613281 -329.823176 
L 364.613281 -330.275632 
L 364.613281 -330.728088 
L 364.613281 -331.180544 
L 364.613281 -331.633 
L 364.613281 -332.085456 
L 364.613281 -332.537912 
L 364.613281 -332.990368 
L 364.613281 -333.442824 
L 364.613281 -333.89528 
L 364.613281 -334.347736 
L 364.613281 -334.800192 
L 364.613281 -335.252648 
L 364.613281 -335.705104 
L 364.613281 -336.15756 
L 364.613281 -336.610016 
L 364.613281 -337.062472 
L 364.613281 -337.514928 
L 364.613281 -337.967384 
L 364.613281 -338.41984 
L 364.613281 -338.872296 
L 364.613281 -339.324752 
L 364.613281 -339.777208 
L 364.613281 -340.229664 
L 364.613281 -340.68212 
L 364.613281 -341.134576 
L 364.613281 -341.587032 
L 364.613281 -342.039488 
L 364.613281 -342.491944 
L 364.613281 -342.9444 
L 364.613281 -343.396856 
L 364.613281 -343.849312 
L 364.613281 -344.301768 
L 364.613281 -344.754224 
L 364.613281 -345.20668 
L 364.613281 -345.659136 
L 364.613281 -346.111592 
L 364.613281 -346.564048 
L 364.613281 -347.016504 
L 364.613281 -347.46896 
L 364.613281 -347.921416 
L 364.613281 -348.373872 
L 364.613281 -348.826328 
L 364.613281 -349.278784 
L 364.613281 -349.73124 
L 364.613281 -350.183696 
L 364.613281 -350.636152 
L 364.613281 -351.088608 
L 364.613281 -351.541064 
L 364.613281 -351.99352 
L 364.613281 -352.445976 
L 364.613281 -352.898432 
L 364.613281 -353.350888 
L 364.613281 -353.803344 
L 364.613281 -354.2558 
L 364.613281 -354.708256 
L 364.613281 -355.160712 
L 364.613281 -355.613168 
L 364.613281 -356.065624 
L 364.613281 -356.51808 
L 364.613281 -356.970536 
L 364.613281 -357.422992 
L 364.613281 -357.875448 
L 364.613281 -358.327904 
L 364.613281 -358.78036 
L 364.613281 -359.232816 
L 364.613281 -359.685272 
L 364.613281 -360.137728 
L 364.613281 -360.590184 
L 364.613281 -361.04264 
L 364.613281 -361.495096 
L 364.613281 -361.947552 
L 364.613281 -362.400008 
L 364.613281 -362.852464 
L 364.613281 -363.30492 
L 364.613281 -363.757376 
L 364.613281 -364.209832 
L 364.613281 -364.662288 
L 364.613281 -365.114744 
L 364.613281 -365.5672 
L 364.613281 -366.019656 
L 364.613281 -366.472112 
L 364.613281 -366.924568 
L 364.613281 -367.377024 
L 364.613281 -367.82948 
L 364.613281 -368.281936 
L 364.613281 -368.734392 
L 364.613281 -369.186848 
L 364.613281 -369.639304 
L 364.613281 -370.09176 
L 364.613281 -370.544216 
L 364.613281 -370.996672 
L 364.613281 -371.449128 
L 364.613281 -371.901584 
L 364.613281 -372.35404 
L 364.613281 -372.806496 
L 364.613281 -373.258952 
L 364.613281 -373.711408 
L 364.613281 -374.163864 
L 364.613281 -374.61632 
L 364.613281 -375.068776 
L 364.613281 -375.521232 
L 364.613281 -375.973688 
L 364.613281 -376.426144 
L 364.613281 -376.8786 
L 364.613281 -377.331056 
L 364.613281 -377.783512 
L 364.613281 -378.235968 
L 364.613281 -378.688424 
L 364.613281 -379.14088 
L 364.613281 -379.593336 
L 364.613281 -380.045792 
L 364.613281 -380.498248 
L 364.613281 -380.950704 
L 364.613281 -381.40316 
L 364.613281 -381.855616 
L 364.613281 -382.308072 
L 364.613281 -382.760528 
L 364.613281 -383.212984 
L 364.613281 -383.66544 
L 364.613281 -384.117896 
L 364.613281 -384.570352 
L 364.613281 -385.022808 
L 364.613281 -385.475264 
L 364.613281 -385.92772 
L 364.613281 -386.380176 
L 364.613281 -386.832632 
L 364.613281 -387.285088 
L 364.613281 -387.737544 
L 364.613281 -388.19 
L 364.613281 -388.642456 
L 364.613281 -389.094912 
L 364.613281 -389.547368 
L 364.613281 -389.999824 
L 364.613281 -390.45228 
L 364.613281 -390.904736 
L 364.613281 -391.357192 
L 364.613281 -391.809648 
L 364.613281 -392.262104 
L 364.613281 -392.71456 
L 608.885655 -392.71456 
L 608.885655 -392.71456 
L 608.305282 -392.262104 
L 607.640262 -391.809648 
L 605.950575 -391.357192 
L 605.814032 -390.904736 
L 604.752592 -390.45228 
L 604.700035 -389.999824 
L 604.122185 -389.547368 
L 604.072056 -389.094912 
L 603.670629 -388.642456 
L 603.028497 -388.19 
L 602.037181 -387.737544 
L 601.882122 -387.285088 
L 601.528504 -386.832632 
L 601.07001 -386.380176 
L 600.216603 -385.92772 
L 599.722008 -385.475264 
L 599.706482 -385.022808 
L 598.804036 -384.570352 
L 598.717546 -384.117896 
L 598.537116 -383.66544 
L 598.461895 -383.212984 
L 598.389046 -382.760528 
L 598.24304 -382.308072 
L 598.182204 -381.855616 
L 597.767543 -381.40316 
L 597.08938 -380.950704 
L 597.044417 -380.498248 
L 596.680144 -380.045792 
L 596.180445 -379.593336 
L 595.889344 -379.14088 
L 595.195506 -378.688424 
L 594.904682 -378.235968 
L 594.413468 -377.783512 
L 594.385123 -377.331056 
L 594.247189 -376.8786 
L 593.940846 -376.426144 
L 593.797751 -375.973688 
L 593.777176 -375.521232 
L 593.713231 -375.068776 
L 593.463621 -374.61632 
L 593.059899 -374.163864 
L 592.984876 -373.711408 
L 592.766281 -373.258952 
L 591.597945 -372.806496 
L 591.296668 -372.35404 
L 590.908595 -371.901584 
L 590.906751 -371.449128 
L 590.724129 -370.996672 
L 590.577359 -370.544216 
L 590.498807 -370.09176 
L 590.456614 -369.639304 
L 590.346957 -369.186848 
L 590.1611 -368.734392 
L 590.092978 -368.281936 
L 589.947601 -367.82948 
L 589.863011 -367.377024 
L 589.676971 -366.924568 
L 589.676536 -366.472112 
L 589.537127 -366.019656 
L 589.53579 -365.5672 
L 589.228659 -365.114744 
L 589.206361 -364.662288 
L 589.056197 -364.209832 
L 588.931915 -363.757376 
L 588.922781 -363.30492 
L 588.739228 -362.852464 
L 588.704864 -362.400008 
L 587.088714 -361.947552 
L 586.738883 -361.495096 
L 586.629145 -361.04264 
L 586.413731 -360.590184 
L 586.367449 -360.137728 
L 586.068834 -359.685272 
L 585.566239 -359.232816 
L 585.537141 -358.78036 
L 585.434608 -358.327904 
L 585.399703 -357.875448 
L 584.974417 -357.422992 
L 584.725094 -356.970536 
L 583.975806 -356.51808 
L 583.746948 -356.065624 
L 583.56758 -355.613168 
L 583.409985 -355.160712 
L 583.409049 -354.708256 
L 583.11243 -354.2558 
L 582.810891 -353.803344 
L 582.25666 -353.350888 
L 581.731548 -352.898432 
L 581.384334 -352.445976 
L 581.130642 -351.99352 
L 581.075822 -351.541064 
L 580.952569 -351.088608 
L 580.617527 -350.636152 
L 580.609706 -350.183696 
L 580.567744 -349.73124 
L 580.043078 -349.278784 
L 579.874762 -348.826328 
L 579.701331 -348.373872 
L 579.691628 -347.921416 
L 579.537895 -347.46896 
L 579.054316 -347.016504 
L 578.873181 -346.564048 
L 578.720665 -346.111592 
L 578.494466 -345.659136 
L 578.473217 -345.20668 
L 577.961972 -344.754224 
L 577.10484 -344.301768 
L 576.680989 -343.849312 
L 576.541261 -343.396856 
L 576.284162 -342.9444 
L 576.108185 -342.491944 
L 575.923312 -342.039488 
L 575.222198 -341.587032 
L 574.896742 -341.134576 
L 574.767521 -340.68212 
L 574.525665 -340.229664 
L 574.18154 -339.777208 
L 573.840448 -339.324752 
L 573.834483 -338.872296 
L 573.619589 -338.41984 
L 573.380268 -337.967384 
L 573.230496 -337.514928 
L 573.210574 -337.062472 
L 573.009495 -336.610016 
L 572.608857 -336.15756 
L 572.039108 -335.705104 
L 571.930149 -335.252648 
L 571.016173 -334.800192 
L 570.358327 -334.347736 
L 569.799428 -333.89528 
L 568.996285 -333.442824 
L 568.595993 -332.990368 
L 568.433571 -332.537912 
L 568.320493 -332.085456 
L 568.315783 -331.633 
L 568.135488 -331.180544 
L 568.068063 -330.728088 
L 567.994156 -330.275632 
L 567.649742 -329.823176 
L 566.914342 -329.37072 
L 566.665904 -328.918264 
L 566.548492 -328.465808 
L 566.417331 -328.013352 
L 566.138232 -327.560896 
L 565.30105 -327.10844 
L 565.190611 -326.655984 
L 564.661681 -326.203528 
L 564.286544 -325.751072 
L 564.279639 -325.298616 
L 563.092023 -324.84616 
L 563.010718 -324.393704 
L 561.120806 -323.941248 
L 560.737806 -323.488792 
L 560.192184 -323.036336 
L 559.626446 -322.58388 
L 559.403117 -322.131424 
L 559.114079 -321.678968 
L 558.359868 -321.226512 
L 557.828887 -320.774056 
L 557.33616 -320.3216 
L 557.071199 -319.869144 
L 557.062615 -319.416688 
L 556.633621 -318.964232 
L 555.590917 -318.511776 
L 555.413654 -318.05932 
L 554.943584 -317.606864 
L 554.899399 -317.154408 
L 553.528471 -316.701952 
L 553.217678 -316.249496 
L 553.165738 -315.79704 
L 553.090684 -315.344584 
L 552.826835 -314.892128 
L 552.412663 -314.439672 
L 551.358735 -313.987216 
L 550.646856 -313.53476 
L 550.287521 -313.082304 
L 549.806135 -312.629848 
L 549.290372 -312.177392 
L 547.290409 -311.724936 
L 546.686784 -311.27248 
L 546.273681 -310.820024 
L 545.700709 -310.367568 
L 545.32032 -309.915112 
L 540.815677 -309.462656 
L 539.467611 -309.0102 
L 539.108885 -308.557744 
L 538.456865 -308.105288 
L 537.536842 -307.652832 
L 535.245369 -307.200376 
L 534.306595 -306.74792 
L 532.782489 -306.295464 
L 530.911839 -305.843008 
L 528.535088 -305.390552 
L 519.028329 -304.938096 
L 517.821276 -304.48564 
L 510.290446 -304.033184 
L 505.088425 -303.580728 
L 504.437127 -303.128272 
L 502.827967 -302.675816 
L 490.529926 -302.22336 
z
" style="stroke: #f9d700; stroke-opacity: 0.7"/>
    </defs>
    <g clip-path="url(#p53d7a5c7fe)">
     <use xlink:href="#m3d6d585d8e" x="0" y="432" style="fill: #f9d700; fill-opacity: 0.7; stroke: #f9d700; stroke-opacity: 0.7"/>
    </g>
   </g>
   <g id="PolyCollection_13">
    <defs>
     <path id="m754d8ae424" d="M 616.414264 -397.691576 
L 364.613281 -397.691576 
L 364.613281 -398.144032 
L 364.613281 -398.596488 
L 364.613281 -399.048944 
L 364.613281 -399.5014 
L 364.613281 -399.953856 
L 364.613281 -400.406312 
L 364.613281 -400.858768 
L 364.613281 -401.311224 
L 652.386713 -401.311224 
L 652.386713 -401.311224 
L 651.276866 -400.858768 
L 647.859728 -400.406312 
L 637.384743 -399.953856 
L 636.942368 -399.5014 
L 634.043322 -399.048944 
L 623.415737 -398.596488 
L 620.760153 -398.144032 
L 616.414264 -397.691576 
z
" style="stroke: #ff9900; stroke-opacity: 0.7"/>
    </defs>
    <g clip-path="url(#p53d7a5c7fe)">
     <use xlink:href="#m754d8ae424" x="0" y="432" style="fill: #ff9900; fill-opacity: 0.7; stroke: #ff9900; stroke-opacity: 0.7"/>
    </g>
   </g>
   <g id="PolyCollection_14">
    <defs>
     <path id="m543148c3ad" d="M 655.179905 -406.28824 
L 364.613281 -406.28824 
L 364.613281 -406.740695 
L 364.613281 -407.193151 
L 678.183008 -407.193151 
L 678.183008 -407.193151 
L 677.735739 -406.740695 
L 655.179905 -406.28824 
z
" style="stroke: #f40000; stroke-opacity: 0.7"/>
    </defs>
    <g clip-path="url(#p53d7a5c7fe)">
     <use xlink:href="#m543148c3ad" x="0" y="432" style="fill: #f40000; fill-opacity: 0.7; stroke: #f40000; stroke-opacity: 0.7"/>
    </g>
   </g>
   <g id="PolyCollection_15">
    <defs>
     <path id="m060d6674c5" d="M 539.596586 -412.170167 
L 364.613281 -412.170167 
L 364.613281 -412.622623 
L 542.34582 -412.622623 
L 542.34582 -412.622623 
L 539.596586 -412.170167 
z
" style="stroke: #d20000; stroke-opacity: 0.7"/>
    </defs>
    <g clip-path="url(#p53d7a5c7fe)">
     <use xlink:href="#m060d6674c5" x="0" y="432" style="fill: #d20000; fill-opacity: 0.7; stroke: #d20000; stroke-opacity: 0.7"/>
    </g>
   </g>
   <g id="matplotlib.axis_1">
    <g id="xtick_1">
     <g id="line2d_1">
      <defs>
       <path id="mf9f81cfbca" d="M 0 0 
L 0 3.5 
" style="stroke: #000000; stroke-width: 0.8"/>
      </defs>
      <g>
       <use xlink:href="#mf9f81cfbca" x="27.978125" y="390.84375" style="stroke: #000000; stroke-width: 0.8"/>
      </g>
     </g>
     <g id="text_1">
      <!-- −1.0 -->
      <g transform="translate(15.836719 405.442187) scale(0.1 -0.1)">
       <defs>
        <path id="DejaVuSans-2212" d="M 678 2272 
L 4684 2272 
L 4684 1741 
L 678 1741 
L 678 2272 
z
" transform="scale(0.015625)"/>
        <path id="DejaVuSans-31" d="M 794 531 
L 1825 531 
L 1825 4091 
L 703 3866 
L 703 4441 
L 1819 4666 
L 2450 4666 
L 2450 531 
L 3481 531 
L 3481 0 
L 794 0 
L 794 531 
z
" transform="scale(0.015625)"/>
        <path id="DejaVuSans-2e" d="M 684 794 
L 1344 794 
L 1344 0 
L 684 0 
L 684 794 
z
" transform="scale(0.015625)"/>
        <path id="DejaVuSans-30" d="M 2034 4250 
Q 1547 4250 1301 3770 
Q 1056 3291 1056 2328 
Q 1056 1369 1301 889 
Q 1547 409 2034 409 
Q 2525 409 2770 889 
Q 3016 1369 3016 2328 
Q 3016 3291 2770 3770 
Q 2525 4250 2034 4250 
z
M 2034 4750 
Q 2819 4750 3233 4129 
Q 3647 3509 3647 2328 
Q 3647 1150 3233 529 
Q 2819 -91 2034 -91 
Q 1250 -91 836 529 
Q 422 1150 422 2328 
Q 422 3509 836 4129 
Q 1250 4750 2034 4750 
z
" transform="scale(0.015625)"/>
       </defs>
       <use xlink:href="#DejaVuSans-2212"/>
       <use xlink:href="#DejaVuSans-31" x="83.789062"/>
       <use xlink:href="#DejaVuSans-2e" x="147.412109"/>
       <use xlink:href="#DejaVuSans-30" x="179.199219"/>
      </g>
     </g>
    </g>
    <g id="xtick_2">
     <g id="line2d_2">
      <g>
       <use xlink:href="#mf9f81cfbca" x="95.305156" y="390.84375" style="stroke: #000000; stroke-width: 0.8"/>
      </g>
     </g>
     <g id="text_2">
      <!-- −0.8 -->
      <g transform="translate(83.16375 405.442187) scale(0.1 -0.1)">
       <defs>
        <path id="DejaVuSans-38" d="M 2034 2216 
Q 1584 2216 1326 1975 
Q 1069 1734 1069 1313 
Q 1069 891 1326 650 
Q 1584 409 2034 409 
Q 2484 409 2743 651 
Q 3003 894 3003 1313 
Q 3003 1734 2745 1975 
Q 2488 2216 2034 2216 
z
M 1403 2484 
Q 997 2584 770 2862 
Q 544 3141 544 3541 
Q 544 4100 942 4425 
Q 1341 4750 2034 4750 
Q 2731 4750 3128 4425 
Q 3525 4100 3525 3541 
Q 3525 3141 3298 2862 
Q 3072 2584 2669 2484 
Q 3125 2378 3379 2068 
Q 3634 1759 3634 1313 
Q 3634 634 3220 271 
Q 2806 -91 2034 -91 
Q 1263 -91 848 271 
Q 434 634 434 1313 
Q 434 1759 690 2068 
Q 947 2378 1403 2484 
z
M 1172 3481 
Q 1172 3119 1398 2916 
Q 1625 2713 2034 2713 
Q 2441 2713 2670 2916 
Q 2900 3119 2900 3481 
Q 2900 3844 2670 4047 
Q 2441 4250 2034 4250 
Q 1625 4250 1398 4047 
Q 1172 3844 1172 3481 
z
" transform="scale(0.015625)"/>
       </defs>
       <use xlink:href="#DejaVuSans-2212"/>
       <use xlink:href="#DejaVuSans-30" x="83.789062"/>
       <use xlink:href="#DejaVuSans-2e" x="147.412109"/>
       <use xlink:href="#DejaVuSans-38" x="179.199219"/>
      </g>
     </g>
    </g>
    <g id="xtick_3">
     <g id="line2d_3">
      <g>
       <use xlink:href="#mf9f81cfbca" x="162.632188" y="390.84375" style="stroke: #000000; stroke-width: 0.8"/>
      </g>
     </g>
     <g id="text_3">
      <!-- −0.6 -->
      <g transform="translate(150.490781 405.442187) scale(0.1 -0.1)">
       <defs>
        <path id="DejaVuSans-36" d="M 2113 2584 
Q 1688 2584 1439 2293 
Q 1191 2003 1191 1497 
Q 1191 994 1439 701 
Q 1688 409 2113 409 
Q 2538 409 2786 701 
Q 3034 994 3034 1497 
Q 3034 2003 2786 2293 
Q 2538 2584 2113 2584 
z
M 3366 4563 
L 3366 3988 
Q 3128 4100 2886 4159 
Q 2644 4219 2406 4219 
Q 1781 4219 1451 3797 
Q 1122 3375 1075 2522 
Q 1259 2794 1537 2939 
Q 1816 3084 2150 3084 
Q 2853 3084 3261 2657 
Q 3669 2231 3669 1497 
Q 3669 778 3244 343 
Q 2819 -91 2113 -91 
Q 1303 -91 875 529 
Q 447 1150 447 2328 
Q 447 3434 972 4092 
Q 1497 4750 2381 4750 
Q 2619 4750 2861 4703 
Q 3103 4656 3366 4563 
z
" transform="scale(0.015625)"/>
       </defs>
       <use xlink:href="#DejaVuSans-2212"/>
       <use xlink:href="#DejaVuSans-30" x="83.789062"/>
       <use xlink:href="#DejaVuSans-2e" x="147.412109"/>
       <use xlink:href="#DejaVuSans-36" x="179.199219"/>
      </g>
     </g>
    </g>
    <g id="xtick_4">
     <g id="line2d_4">
      <g>
       <use xlink:href="#mf9f81cfbca" x="229.959219" y="390.84375" style="stroke: #000000; stroke-width: 0.8"/>
      </g>
     </g>
     <g id="text_4">
      <!-- −0.4 -->
      <g transform="translate(217.817813 405.442187) scale(0.1 -0.1)">
       <defs>
        <path id="DejaVuSans-34" d="M 2419 4116 
L 825 1625 
L 2419 1625 
L 2419 4116 
z
M 2253 4666 
L 3047 4666 
L 3047 1625 
L 3713 1625 
L 3713 1100 
L 3047 1100 
L 3047 0 
L 2419 0 
L 2419 1100 
L 313 1100 
L 313 1709 
L 2253 4666 
z
" transform="scale(0.015625)"/>
       </defs>
       <use xlink:href="#DejaVuSans-2212"/>
       <use xlink:href="#DejaVuSans-30" x="83.789062"/>
       <use xlink:href="#DejaVuSans-2e" x="147.412109"/>
       <use xlink:href="#DejaVuSans-34" x="179.199219"/>
      </g>
     </g>
    </g>
    <g id="xtick_5">
     <g id="line2d_5">
      <g>
       <use xlink:href="#mf9f81cfbca" x="297.28625" y="390.84375" style="stroke: #000000; stroke-width: 0.8"/>
      </g>
     </g>
     <g id="text_5">
      <!-- −0.2 -->
      <g transform="translate(285.144844 405.442187) scale(0.1 -0.1)">
       <defs>
        <path id="DejaVuSans-32" d="M 1228 531 
L 3431 531 
L 3431 0 
L 469 0 
L 469 531 
Q 828 903 1448 1529 
Q 2069 2156 2228 2338 
Q 2531 2678 2651 2914 
Q 2772 3150 2772 3378 
Q 2772 3750 2511 3984 
Q 2250 4219 1831 4219 
Q 1534 4219 1204 4116 
Q 875 4013 500 3803 
L 500 4441 
Q 881 4594 1212 4672 
Q 1544 4750 1819 4750 
Q 2544 4750 2975 4387 
Q 3406 4025 3406 3419 
Q 3406 3131 3298 2873 
Q 3191 2616 2906 2266 
Q 2828 2175 2409 1742 
Q 1991 1309 1228 531 
z
" transform="scale(0.015625)"/>
       </defs>
       <use xlink:href="#DejaVuSans-2212"/>
       <use xlink:href="#DejaVuSans-30" x="83.789062"/>
       <use xlink:href="#DejaVuSans-2e" x="147.412109"/>
       <use xlink:href="#DejaVuSans-32" x="179.199219"/>
      </g>
     </g>
    </g>
    <g id="xtick_6">
     <g id="line2d_6">
      <g>
       <use xlink:href="#mf9f81cfbca" x="364.613281" y="390.84375" style="stroke: #000000; stroke-width: 0.8"/>
      </g>
     </g>
     <g id="text_6">
      <!-- 0.0 -->
      <g transform="translate(356.661719 405.442187) scale(0.1 -0.1)">
       <use xlink:href="#DejaVuSans-30"/>
       <use xlink:href="#DejaVuSans-2e" x="63.623047"/>
       <use xlink:href="#DejaVuSans-30" x="95.410156"/>
      </g>
     </g>
    </g>
    <g id="xtick_7">
     <g id="line2d_7">
      <g>
       <use xlink:href="#mf9f81cfbca" x="431.940313" y="390.84375" style="stroke: #000000; stroke-width: 0.8"/>
      </g>
     </g>
     <g id="text_7">
      <!-- 0.2 -->
      <g transform="translate(423.98875 405.442187) scale(0.1 -0.1)">
       <use xlink:href="#DejaVuSans-30"/>
       <use xlink:href="#DejaVuSans-2e" x="63.623047"/>
       <use xlink:href="#DejaVuSans-32" x="95.410156"/>
      </g>
     </g>
    </g>
    <g id="xtick_8">
     <g id="line2d_8">
      <g>
       <use xlink:href="#mf9f81cfbca" x="499.267344" y="390.84375" style="stroke: #000000; stroke-width: 0.8"/>
      </g>
     </g>
     <g id="text_8">
      <!-- 0.4 -->
      <g transform="translate(491.315781 405.442187) scale(0.1 -0.1)">
       <use xlink:href="#DejaVuSans-30"/>
       <use xlink:href="#DejaVuSans-2e" x="63.623047"/>
       <use xlink:href="#DejaVuSans-34" x="95.410156"/>
      </g>
     </g>
    </g>
    <g id="xtick_9">
     <g id="line2d_9">
      <g>
       <use xlink:href="#mf9f81cfbca" x="566.594375" y="390.84375" style="stroke: #000000; stroke-width: 0.8"/>
      </g>
     </g>
     <g id="text_9">
      <!-- 0.6 -->
      <g transform="translate(558.642812 405.442187) scale(0.1 -0.1)">
       <use xlink:href="#DejaVuSans-30"/>
       <use xlink:href="#DejaVuSans-2e" x="63.623047"/>
       <use xlink:href="#DejaVuSans-36" x="95.410156"/>
      </g>
     </g>
    </g>
    <g id="xtick_10">
     <g id="line2d_10">
      <g>
       <use xlink:href="#mf9f81cfbca" x="633.921406" y="390.84375" style="stroke: #000000; stroke-width: 0.8"/>
      </g>
     </g>
     <g id="text_10">
      <!-- 0.8 -->
      <g transform="translate(625.969844 405.442187) scale(0.1 -0.1)">
       <use xlink:href="#DejaVuSans-30"/>
       <use xlink:href="#DejaVuSans-2e" x="63.623047"/>
       <use xlink:href="#DejaVuSans-38" x="95.410156"/>
      </g>
     </g>
    </g>
    <g id="xtick_11">
     <g id="line2d_11">
      <g>
       <use xlink:href="#mf9f81cfbca" x="701.248437" y="390.84375" style="stroke: #000000; stroke-width: 0.8"/>
      </g>
     </g>
     <g id="text_11">
      <!-- 1.0 -->
      <g transform="translate(693.296875 405.442187) scale(0.1 -0.1)">
       <use xlink:href="#DejaVuSans-31"/>
       <use xlink:href="#DejaVuSans-2e" x="63.623047"/>
       <use xlink:href="#DejaVuSans-30" x="95.410156"/>
      </g>
     </g>
    </g>
    <g id="text_12">
     <!-- Silhouette coefficient -->
     <g transform="translate(311.463281 419.120313) scale(0.1 -0.1)">
      <defs>
       <path id="DejaVuSans-53" d="M 3425 4513 
L 3425 3897 
Q 3066 4069 2747 4153 
Q 2428 4238 2131 4238 
Q 1616 4238 1336 4038 
Q 1056 3838 1056 3469 
Q 1056 3159 1242 3001 
Q 1428 2844 1947 2747 
L 2328 2669 
Q 3034 2534 3370 2195 
Q 3706 1856 3706 1288 
Q 3706 609 3251 259 
Q 2797 -91 1919 -91 
Q 1588 -91 1214 -16 
Q 841 59 441 206 
L 441 856 
Q 825 641 1194 531 
Q 1563 422 1919 422 
Q 2459 422 2753 634 
Q 3047 847 3047 1241 
Q 3047 1584 2836 1778 
Q 2625 1972 2144 2069 
L 1759 2144 
Q 1053 2284 737 2584 
Q 422 2884 422 3419 
Q 422 4038 858 4394 
Q 1294 4750 2059 4750 
Q 2388 4750 2728 4690 
Q 3069 4631 3425 4513 
z
" transform="scale(0.015625)"/>
       <path id="DejaVuSans-69" d="M 603 3500 
L 1178 3500 
L 1178 0 
L 603 0 
L 603 3500 
z
M 603 4863 
L 1178 4863 
L 1178 4134 
L 603 4134 
L 603 4863 
z
" transform="scale(0.015625)"/>
       <path id="DejaVuSans-6c" d="M 603 4863 
L 1178 4863 
L 1178 0 
L 603 0 
L 603 4863 
z
" transform="scale(0.015625)"/>
       <path id="DejaVuSans-68" d="M 3513 2113 
L 3513 0 
L 2938 0 
L 2938 2094 
Q 2938 2591 2744 2837 
Q 2550 3084 2163 3084 
Q 1697 3084 1428 2787 
Q 1159 2491 1159 1978 
L 1159 0 
L 581 0 
L 581 4863 
L 1159 4863 
L 1159 2956 
Q 1366 3272 1645 3428 
Q 1925 3584 2291 3584 
Q 2894 3584 3203 3211 
Q 3513 2838 3513 2113 
z
" transform="scale(0.015625)"/>
       <path id="DejaVuSans-6f" d="M 1959 3097 
Q 1497 3097 1228 2736 
Q 959 2375 959 1747 
Q 959 1119 1226 758 
Q 1494 397 1959 397 
Q 2419 397 2687 759 
Q 2956 1122 2956 1747 
Q 2956 2369 2687 2733 
Q 2419 3097 1959 3097 
z
M 1959 3584 
Q 2709 3584 3137 3096 
Q 3566 2609 3566 1747 
Q 3566 888 3137 398 
Q 2709 -91 1959 -91 
Q 1206 -91 779 398 
Q 353 888 353 1747 
Q 353 2609 779 3096 
Q 1206 3584 1959 3584 
z
" transform="scale(0.015625)"/>
       <path id="DejaVuSans-75" d="M 544 1381 
L 544 3500 
L 1119 3500 
L 1119 1403 
Q 1119 906 1312 657 
Q 1506 409 1894 409 
Q 2359 409 2629 706 
Q 2900 1003 2900 1516 
L 2900 3500 
L 3475 3500 
L 3475 0 
L 2900 0 
L 2900 538 
Q 2691 219 2414 64 
Q 2138 -91 1772 -91 
Q 1169 -91 856 284 
Q 544 659 544 1381 
z
M 1991 3584 
L 1991 3584 
z
" transform="scale(0.015625)"/>
       <path id="DejaVuSans-65" d="M 3597 1894 
L 3597 1613 
L 953 1613 
Q 991 1019 1311 708 
Q 1631 397 2203 397 
Q 2534 397 2845 478 
Q 3156 559 3463 722 
L 3463 178 
Q 3153 47 2828 -22 
Q 2503 -91 2169 -91 
Q 1331 -91 842 396 
Q 353 884 353 1716 
Q 353 2575 817 3079 
Q 1281 3584 2069 3584 
Q 2775 3584 3186 3129 
Q 3597 2675 3597 1894 
z
M 3022 2063 
Q 3016 2534 2758 2815 
Q 2500 3097 2075 3097 
Q 1594 3097 1305 2825 
Q 1016 2553 972 2059 
L 3022 2063 
z
" transform="scale(0.015625)"/>
       <path id="DejaVuSans-74" d="M 1172 4494 
L 1172 3500 
L 2356 3500 
L 2356 3053 
L 1172 3053 
L 1172 1153 
Q 1172 725 1289 603 
Q 1406 481 1766 481 
L 2356 481 
L 2356 0 
L 1766 0 
Q 1100 0 847 248 
Q 594 497 594 1153 
L 594 3053 
L 172 3053 
L 172 3500 
L 594 3500 
L 594 4494 
L 1172 4494 
z
" transform="scale(0.015625)"/>
       <path id="DejaVuSans-20" transform="scale(0.015625)"/>
       <path id="DejaVuSans-63" d="M 3122 3366 
L 3122 2828 
Q 2878 2963 2633 3030 
Q 2388 3097 2138 3097 
Q 1578 3097 1268 2742 
Q 959 2388 959 1747 
Q 959 1106 1268 751 
Q 1578 397 2138 397 
Q 2388 397 2633 464 
Q 2878 531 3122 666 
L 3122 134 
Q 2881 22 2623 -34 
Q 2366 -91 2075 -91 
Q 1284 -91 818 406 
Q 353 903 353 1747 
Q 353 2603 823 3093 
Q 1294 3584 2113 3584 
Q 2378 3584 2631 3529 
Q 2884 3475 3122 3366 
z
" transform="scale(0.015625)"/>
       <path id="DejaVuSans-66" d="M 2375 4863 
L 2375 4384 
L 1825 4384 
Q 1516 4384 1395 4259 
Q 1275 4134 1275 3809 
L 1275 3500 
L 2222 3500 
L 2222 3053 
L 1275 3053 
L 1275 0 
L 697 0 
L 697 3053 
L 147 3053 
L 147 3500 
L 697 3500 
L 697 3744 
Q 697 4328 969 4595 
Q 1241 4863 1831 4863 
L 2375 4863 
z
" transform="scale(0.015625)"/>
       <path id="DejaVuSans-6e" d="M 3513 2113 
L 3513 0 
L 2938 0 
L 2938 2094 
Q 2938 2591 2744 2837 
Q 2550 3084 2163 3084 
Q 1697 3084 1428 2787 
Q 1159 2491 1159 1978 
L 1159 0 
L 581 0 
L 581 3500 
L 1159 3500 
L 1159 2956 
Q 1366 3272 1645 3428 
Q 1925 3584 2291 3584 
Q 2894 3584 3203 3211 
Q 3513 2838 3513 2113 
z
" transform="scale(0.015625)"/>
      </defs>
      <use xlink:href="#DejaVuSans-53"/>
      <use xlink:href="#DejaVuSans-69" x="63.476562"/>
      <use xlink:href="#DejaVuSans-6c" x="91.259766"/>
      <use xlink:href="#DejaVuSans-68" x="119.042969"/>
      <use xlink:href="#DejaVuSans-6f" x="182.421875"/>
      <use xlink:href="#DejaVuSans-75" x="243.603516"/>
      <use xlink:href="#DejaVuSans-65" x="306.982422"/>
      <use xlink:href="#DejaVuSans-74" x="368.505859"/>
      <use xlink:href="#DejaVuSans-74" x="407.714844"/>
      <use xlink:href="#DejaVuSans-65" x="446.923828"/>
      <use xlink:href="#DejaVuSans-20" x="508.447266"/>
      <use xlink:href="#DejaVuSans-63" x="540.234375"/>
      <use xlink:href="#DejaVuSans-6f" x="595.214844"/>
      <use xlink:href="#DejaVuSans-65" x="656.396484"/>
      <use xlink:href="#DejaVuSans-66" x="717.919922"/>
      <use xlink:href="#DejaVuSans-66" x="753.125"/>
      <use xlink:href="#DejaVuSans-69" x="788.330078"/>
      <use xlink:href="#DejaVuSans-63" x="816.113281"/>
      <use xlink:href="#DejaVuSans-69" x="871.09375"/>
      <use xlink:href="#DejaVuSans-65" x="898.876953"/>
      <use xlink:href="#DejaVuSans-6e" x="960.400391"/>
      <use xlink:href="#DejaVuSans-74" x="1023.779297"/>
     </g>
    </g>
   </g>
   <g id="matplotlib.axis_2">
    <g id="text_13">
     <!-- Predicted label -->
     <g transform="translate(18.398438 239.774399) rotate(-90) scale(0.1 -0.1)">
      <defs>
       <path id="DejaVuSans-50" d="M 1259 4147 
L 1259 2394 
L 2053 2394 
Q 2494 2394 2734 2622 
Q 2975 2850 2975 3272 
Q 2975 3691 2734 3919 
Q 2494 4147 2053 4147 
L 1259 4147 
z
M 628 4666 
L 2053 4666 
Q 2838 4666 3239 4311 
Q 3641 3956 3641 3272 
Q 3641 2581 3239 2228 
Q 2838 1875 2053 1875 
L 1259 1875 
L 1259 0 
L 628 0 
L 628 4666 
z
" transform="scale(0.015625)"/>
       <path id="DejaVuSans-72" d="M 2631 2963 
Q 2534 3019 2420 3045 
Q 2306 3072 2169 3072 
Q 1681 3072 1420 2755 
Q 1159 2438 1159 1844 
L 1159 0 
L 581 0 
L 581 3500 
L 1159 3500 
L 1159 2956 
Q 1341 3275 1631 3429 
Q 1922 3584 2338 3584 
Q 2397 3584 2469 3576 
Q 2541 3569 2628 3553 
L 2631 2963 
z
" transform="scale(0.015625)"/>
       <path id="DejaVuSans-64" d="M 2906 2969 
L 2906 4863 
L 3481 4863 
L 3481 0 
L 2906 0 
L 2906 525 
Q 2725 213 2448 61 
Q 2172 -91 1784 -91 
Q 1150 -91 751 415 
Q 353 922 353 1747 
Q 353 2572 751 3078 
Q 1150 3584 1784 3584 
Q 2172 3584 2448 3432 
Q 2725 3281 2906 2969 
z
M 947 1747 
Q 947 1113 1208 752 
Q 1469 391 1925 391 
Q 2381 391 2643 752 
Q 2906 1113 2906 1747 
Q 2906 2381 2643 2742 
Q 2381 3103 1925 3103 
Q 1469 3103 1208 2742 
Q 947 2381 947 1747 
z
" transform="scale(0.015625)"/>
       <path id="DejaVuSans-61" d="M 2194 1759 
Q 1497 1759 1228 1600 
Q 959 1441 959 1056 
Q 959 750 1161 570 
Q 1363 391 1709 391 
Q 2188 391 2477 730 
Q 2766 1069 2766 1631 
L 2766 1759 
L 2194 1759 
z
M 3341 1997 
L 3341 0 
L 2766 0 
L 2766 531 
Q 2569 213 2275 61 
Q 1981 -91 1556 -91 
Q 1019 -91 701 211 
Q 384 513 384 1019 
Q 384 1609 779 1909 
Q 1175 2209 1959 2209 
L 2766 2209 
L 2766 2266 
Q 2766 2663 2505 2880 
Q 2244 3097 1772 3097 
Q 1472 3097 1187 3025 
Q 903 2953 641 2809 
L 641 3341 
Q 956 3463 1253 3523 
Q 1550 3584 1831 3584 
Q 2591 3584 2966 3190 
Q 3341 2797 3341 1997 
z
" transform="scale(0.015625)"/>
       <path id="DejaVuSans-62" d="M 3116 1747 
Q 3116 2381 2855 2742 
Q 2594 3103 2138 3103 
Q 1681 3103 1420 2742 
Q 1159 2381 1159 1747 
Q 1159 1113 1420 752 
Q 1681 391 2138 391 
Q 2594 391 2855 752 
Q 3116 1113 3116 1747 
z
M 1159 2969 
Q 1341 3281 1617 3432 
Q 1894 3584 2278 3584 
Q 2916 3584 3314 3078 
Q 3713 2572 3713 1747 
Q 3713 922 3314 415 
Q 2916 -91 2278 -91 
Q 1894 -91 1617 61 
Q 1341 213 1159 525 
L 1159 0 
L 581 0 
L 581 4863 
L 1159 4863 
L 1159 2969 
z
" transform="scale(0.015625)"/>
      </defs>
      <use xlink:href="#DejaVuSans-50"/>
      <use xlink:href="#DejaVuSans-72" x="58.552734"/>
      <use xlink:href="#DejaVuSans-65" x="97.416016"/>
      <use xlink:href="#DejaVuSans-64" x="158.939453"/>
      <use xlink:href="#DejaVuSans-69" x="222.416016"/>
      <use xlink:href="#DejaVuSans-63" x="250.199219"/>
      <use xlink:href="#DejaVuSans-74" x="305.179688"/>
      <use xlink:href="#DejaVuSans-65" x="344.388672"/>
      <use xlink:href="#DejaVuSans-64" x="405.912109"/>
      <use xlink:href="#DejaVuSans-20" x="469.388672"/>
      <use xlink:href="#DejaVuSans-6c" x="501.175781"/>
      <use xlink:href="#DejaVuSans-61" x="528.958984"/>
      <use xlink:href="#DejaVuSans-62" x="590.238281"/>
      <use xlink:href="#DejaVuSans-65" x="653.714844"/>
      <use xlink:href="#DejaVuSans-6c" x="715.238281"/>
     </g>
    </g>
   </g>
   <g id="line2d_12">
    <path d="M 542.68011 390.84375 
L 542.68011 14.400361 
" clip-path="url(#p53d7a5c7fe)" style="fill: none; stroke: #ff0000; stroke-width: 1.5; stroke-linecap: square"/>
   </g>
   <g id="patch_3">
    <path d="M 27.978125 390.84375 
L 27.978125 14.400361 
" style="fill: none; stroke: #000000; stroke-width: 0.8; stroke-linejoin: miter; stroke-linecap: square"/>
   </g>
   <g id="patch_4">
    <path d="M 701.248437 390.84375 
L 701.248437 14.400361 
" style="fill: none; stroke: #000000; stroke-width: 0.8; stroke-linejoin: miter; stroke-linecap: square"/>
   </g>
   <g id="patch_5">
    <path d="M 27.978125 390.84375 
L 701.248437 390.84375 
" style="fill: none; stroke: #000000; stroke-width: 0.8; stroke-linejoin: miter; stroke-linecap: square"/>
   </g>
   <g id="patch_6">
    <path d="M 27.978125 14.400361 
L 701.248437 14.400361 
" style="fill: none; stroke: #000000; stroke-width: 0.8; stroke-linejoin: miter; stroke-linecap: square"/>
   </g>
   <g id="text_14">
    <!-- 0 -->
    <g transform="translate(347.781523 369.125862) scale(0.1 -0.1)">
     <use xlink:href="#DejaVuSans-30"/>
    </g>
   </g>
   <g id="text_15">
    <!-- 1 -->
    <g transform="translate(347.781523 344.240782) scale(0.1 -0.1)">
     <use xlink:href="#DejaVuSans-31"/>
    </g>
   </g>
   <g id="text_16">
    <!-- 2 -->
    <g transform="translate(347.781523 316.867195) scale(0.1 -0.1)">
     <use xlink:href="#DejaVuSans-32"/>
    </g>
   </g>
   <g id="text_17">
    <!-- 3 -->
    <g transform="translate(347.781523 288.136239) scale(0.1 -0.1)">
     <defs>
      <path id="DejaVuSans-33" d="M 2597 2516 
Q 3050 2419 3304 2112 
Q 3559 1806 3559 1356 
Q 3559 666 3084 287 
Q 2609 -91 1734 -91 
Q 1441 -91 1130 -33 
Q 819 25 488 141 
L 488 750 
Q 750 597 1062 519 
Q 1375 441 1716 441 
Q 2309 441 2620 675 
Q 2931 909 2931 1356 
Q 2931 1769 2642 2001 
Q 2353 2234 1838 2234 
L 1294 2234 
L 1294 2753 
L 1863 2753 
Q 2328 2753 2575 2939 
Q 2822 3125 2822 3475 
Q 2822 3834 2567 4026 
Q 2313 4219 1838 4219 
Q 1578 4219 1281 4162 
Q 984 4106 628 3988 
L 628 4550 
Q 988 4650 1302 4700 
Q 1616 4750 1894 4750 
Q 2613 4750 3031 4423 
Q 3450 4097 3450 3541 
Q 3450 3153 3228 2886 
Q 3006 2619 2597 2516 
z
" transform="scale(0.015625)"/>
     </defs>
     <use xlink:href="#DejaVuSans-33"/>
    </g>
   </g>
   <g id="text_18">
    <!-- 4 -->
    <g transform="translate(347.781523 264.834755) scale(0.1 -0.1)">
     <use xlink:href="#DejaVuSans-34"/>
    </g>
   </g>
   <g id="text_19">
    <!-- 5 -->
    <g transform="translate(347.781523 244.248007) scale(0.1 -0.1)">
     <defs>
      <path id="DejaVuSans-35" d="M 691 4666 
L 3169 4666 
L 3169 4134 
L 1269 4134 
L 1269 2991 
Q 1406 3038 1543 3061 
Q 1681 3084 1819 3084 
Q 2600 3084 3056 2656 
Q 3513 2228 3513 1497 
Q 3513 744 3044 326 
Q 2575 -91 1722 -91 
Q 1428 -91 1123 -41 
Q 819 9 494 109 
L 494 744 
Q 775 591 1075 516 
Q 1375 441 1709 441 
Q 2250 441 2565 725 
Q 2881 1009 2881 1497 
Q 2881 1984 2565 2268 
Q 2250 2553 1709 2553 
Q 1456 2553 1204 2497 
Q 953 2441 691 2322 
L 691 4666 
z
" transform="scale(0.015625)"/>
     </defs>
     <use xlink:href="#DejaVuSans-35"/>
    </g>
   </g>
   <g id="text_20">
    <!-- 6 -->
    <g transform="translate(347.781523 219.589155) scale(0.1 -0.1)">
     <use xlink:href="#DejaVuSans-36"/>
    </g>
   </g>
   <g id="text_21">
    <!-- 7 -->
    <g transform="translate(347.781523 194.930303) scale(0.1 -0.1)">
     <defs>
      <path id="DejaVuSans-37" d="M 525 4666 
L 3525 4666 
L 3525 4397 
L 1831 0 
L 1172 0 
L 2766 4134 
L 525 4134 
L 525 4666 
z
" transform="scale(0.015625)"/>
     </defs>
     <use xlink:href="#DejaVuSans-37"/>
    </g>
   </g>
   <g id="text_22">
    <!-- 8 -->
    <g transform="translate(347.781523 187.012323) scale(0.1 -0.1)">
     <use xlink:href="#DejaVuSans-38"/>
    </g>
   </g>
   <g id="text_23">
    <!-- 9 -->
    <g transform="translate(347.781523 161.901016) scale(0.1 -0.1)">
     <defs>
      <path id="DejaVuSans-39" d="M 703 97 
L 703 672 
Q 941 559 1184 500 
Q 1428 441 1663 441 
Q 2288 441 2617 861 
Q 2947 1281 2994 2138 
Q 2813 1869 2534 1725 
Q 2256 1581 1919 1581 
Q 1219 1581 811 2004 
Q 403 2428 403 3163 
Q 403 3881 828 4315 
Q 1253 4750 1959 4750 
Q 2769 4750 3195 4129 
Q 3622 3509 3622 2328 
Q 3622 1225 3098 567 
Q 2575 -91 1691 -91 
Q 1453 -91 1209 -44 
Q 966 3 703 97 
z
M 1959 2075 
Q 2384 2075 2632 2365 
Q 2881 2656 2881 3163 
Q 2881 3666 2632 3958 
Q 2384 4250 1959 4250 
Q 1534 4250 1286 3958 
Q 1038 3666 1038 3163 
Q 1038 2656 1286 2365 
Q 1534 2075 1959 2075 
z
" transform="scale(0.015625)"/>
     </defs>
     <use xlink:href="#DejaVuSans-39"/>
    </g>
   </g>
   <g id="text_24">
    <!-- 10 -->
    <g transform="translate(347.781523 136.337252) scale(0.1 -0.1)">
     <use xlink:href="#DejaVuSans-31"/>
     <use xlink:href="#DejaVuSans-30" x="63.623047"/>
    </g>
   </g>
   <g id="text_25">
    <!-- 11 -->
    <g transform="translate(347.781523 84.304812) scale(0.1 -0.1)">
     <use xlink:href="#DejaVuSans-31"/>
     <use xlink:href="#DejaVuSans-31" x="63.623047"/>
    </g>
   </g>
   <g id="text_26">
    <!-- 12 -->
    <g transform="translate(347.781523 32.272372) scale(0.1 -0.1)">
     <use xlink:href="#DejaVuSans-31"/>
     <use xlink:href="#DejaVuSans-32" x="63.623047"/>
    </g>
   </g>
   <g id="text_27">
    <!-- 13 -->
    <g transform="translate(347.781523 25.033077) scale(0.1 -0.1)">
     <use xlink:href="#DejaVuSans-31"/>
     <use xlink:href="#DejaVuSans-33" x="63.623047"/>
    </g>
   </g>
   <g id="text_28">
    <!-- 14 -->
    <g transform="translate(347.781523 19.377377) scale(0.1 -0.1)">
     <use xlink:href="#DejaVuSans-31"/>
     <use xlink:href="#DejaVuSans-34" x="63.623047"/>
    </g>
   </g>
   <g id="text_29">
    <!-- 0.5290 -->
    <g style="fill: #ff0000" transform="translate(559.511867 18.924921) scale(0.1 -0.1)">
     <use xlink:href="#DejaVuSans-30"/>
     <use xlink:href="#DejaVuSans-2e" x="63.623047"/>
     <use xlink:href="#DejaVuSans-35" x="95.410156"/>
     <use xlink:href="#DejaVuSans-32" x="159.033203"/>
     <use xlink:href="#DejaVuSans-39" x="222.65625"/>
     <use xlink:href="#DejaVuSans-30" x="286.279297"/>
    </g>
   </g>
  </g>
 </g>
 <defs>
  <clipPath id="p53d7a5c7fe">
   <rect x="27.978125" y="14.400361" width="673.270312" height="376.443389"/>
  </clipPath>
 </defs>
</svg>
