<?xml version="1.0" encoding="utf-8" standalone="no"?>
<!DOCTYPE svg PUBLIC "-//W3C//DTD SVG 1.1//EN"
  "http://www.w3.org/Graphics/SVG/1.1/DTD/svg11.dtd">
<svg xmlns:xlink="http://www.w3.org/1999/xlink" width="720pt" height="720pt" viewBox="0 0 720 720" xmlns="http://www.w3.org/2000/svg" version="1.1">
 <metadata>
  <rdf:RDF xmlns:dc="http://purl.org/dc/elements/1.1/" xmlns:cc="http://creativecommons.org/ns#" xmlns:rdf="http://www.w3.org/1999/02/22-rdf-syntax-ns#">
   <cc:Work>
    <dc:type rdf:resource="http://purl.org/dc/dcmitype/StillImage"/>
    <dc:date>2022-11-17T19:11:18.370874</dc:date>
    <dc:format>image/svg+xml</dc:format>
    <dc:creator>
     <cc:Agent>
      <dc:title>Matplotlib v3.6.1, https://matplotlib.org/</dc:title>
     </cc:Agent>
    </dc:creator>
   </cc:Work>
  </rdf:RDF>
 </metadata>
 <defs>
  <style type="text/css">*{stroke-linejoin: round; stroke-linecap: butt}</style>
 </defs>
 <g id="figure_1">
  <g id="patch_1">
   <path d="M 0 720 
L 720 720 
L 720 0 
L 0 0 
z
" style="fill: #ffffff"/>
  </g>
  <g id="axes_1">
   <g id="patch_2">
    <path d="M 27.978125 678.84375 
L 701.248437 678.84375 
L 701.248437 11.734976 
L 27.978125 11.734976 
z
" style="fill: #ffffff"/>
   </g>
   <g id="PolyCollection_1">
    <defs>
     <path id="m61c9725d00" d="M 423.189238 -49.174384 
L 364.613281 -49.174384 
L 364.613281 -49.976198 
L 364.613281 -50.778011 
L 364.613281 -51.579825 
L 364.613281 -52.381638 
L 364.613281 -53.183451 
L 364.613281 -53.985265 
L 364.613281 -54.787078 
L 364.613281 -55.588892 
L 364.613281 -56.390705 
L 364.613281 -57.192519 
L 364.613281 -57.994332 
L 364.613281 -58.796145 
L 364.613281 -59.597959 
L 364.613281 -60.399772 
L 364.613281 -61.201586 
L 364.613281 -62.003399 
L 364.613281 -62.805213 
L 364.613281 -63.607026 
L 364.613281 -64.408839 
L 364.613281 -65.210653 
L 364.613281 -66.012466 
L 364.613281 -66.81428 
L 364.613281 -67.616093 
L 364.613281 -68.417907 
L 364.613281 -69.21972 
L 364.613281 -70.021533 
L 364.613281 -70.823347 
L 364.613281 -71.62516 
L 364.613281 -72.426974 
L 364.613281 -73.228787 
L 364.613281 -74.030601 
L 364.613281 -74.832414 
L 364.613281 -75.634228 
L 364.613281 -76.436041 
L 364.613281 -77.237854 
L 364.613281 -78.039668 
L 364.613281 -78.841481 
L 364.613281 -79.643295 
L 364.613281 -80.445108 
L 364.613281 -81.246922 
L 364.613281 -82.048735 
L 364.613281 -82.850548 
L 364.613281 -83.652362 
L 364.613281 -84.454175 
L 364.613281 -85.255989 
L 364.613281 -86.057802 
L 364.613281 -86.859616 
L 364.613281 -87.661429 
L 364.613281 -88.463242 
L 364.613281 -89.265056 
L 364.613281 -90.066869 
L 364.613281 -90.868683 
L 364.613281 -91.670496 
L 364.613281 -92.47231 
L 364.613281 -93.274123 
L 364.613281 -94.075936 
L 364.613281 -94.87775 
L 364.613281 -95.679563 
L 364.613281 -96.481377 
L 364.613281 -97.28319 
L 364.613281 -98.085004 
L 364.613281 -98.886817 
L 364.613281 -99.68863 
L 364.613281 -100.490444 
L 364.613281 -101.292257 
L 364.613281 -102.094071 
L 364.613281 -102.895884 
L 364.613281 -103.697698 
L 364.613281 -104.499511 
L 364.613281 -105.301324 
L 364.613281 -106.103138 
L 364.613281 -106.904951 
L 364.613281 -107.706765 
L 364.613281 -108.508578 
L 364.613281 -109.310392 
L 591.737228 -109.310392 
L 591.737228 -109.310392 
L 591.215432 -108.508578 
L 591.120279 -107.706765 
L 591.058487 -106.904951 
L 590.96992 -106.103138 
L 590.553876 -105.301324 
L 590.510757 -104.499511 
L 590.194058 -103.697698 
L 589.400037 -102.895884 
L 582.261042 -102.094071 
L 582.028771 -101.292257 
L 582.003893 -100.490444 
L 581.991602 -99.68863 
L 581.85088 -98.886817 
L 581.775467 -98.085004 
L 580.966743 -97.28319 
L 580.257909 -96.481377 
L 578.801698 -95.679563 
L 577.290058 -94.87775 
L 575.375475 -94.075936 
L 574.108512 -93.274123 
L 573.731003 -92.47231 
L 572.345878 -91.670496 
L 572.003858 -90.868683 
L 571.553498 -90.066869 
L 571.505648 -89.265056 
L 571.160654 -88.463242 
L 570.982168 -87.661429 
L 570.239402 -86.859616 
L 570.004106 -86.057802 
L 568.419006 -85.255989 
L 563.538114 -84.454175 
L 563.471912 -83.652362 
L 561.820289 -82.850548 
L 560.22026 -82.048735 
L 559.72808 -81.246922 
L 553.614485 -80.445108 
L 552.005056 -79.643295 
L 550.756 -78.841481 
L 550.451087 -78.039668 
L 549.133367 -77.237854 
L 548.970762 -76.436041 
L 547.332664 -75.634228 
L 546.029025 -74.832414 
L 543.253438 -74.030601 
L 543.203901 -73.228787 
L 542.088004 -72.426974 
L 533.71397 -71.62516 
L 533.054075 -70.823347 
L 525.485438 -70.021533 
L 524.389749 -69.21972 
L 524.104049 -68.417907 
L 522.858365 -67.616093 
L 521.401909 -66.81428 
L 521.395486 -66.012466 
L 517.362484 -65.210653 
L 505.141996 -64.408839 
L 503.283875 -63.607026 
L 502.648157 -62.805213 
L 501.635816 -62.003399 
L 501.263155 -61.201586 
L 498.038689 -60.399772 
L 496.886785 -59.597959 
L 495.217351 -58.796145 
L 492.366957 -57.994332 
L 490.156205 -57.192519 
L 490.035641 -56.390705 
L 487.870956 -55.588892 
L 484.809846 -54.787078 
L 483.726571 -53.985265 
L 480.792776 -53.183451 
L 450.447476 -52.381638 
L 446.740379 -51.579825 
L 443.584477 -50.778011 
L 432.834671 -49.976198 
L 423.189238 -49.174384 
z
" style="stroke: #000000; stroke-opacity: 0.7"/>
    </defs>
    <g clip-path="url(#p84f7dddf44)">
     <use xlink:href="#m61c9725d00" x="0" y="720" style="fill-opacity: 0.7; stroke: #000000; stroke-opacity: 0.7"/>
    </g>
   </g>
   <g id="PolyCollection_2">
    <defs>
     <path id="m05665183b3" d="M 465.208885 -118.130339 
L 364.613281 -118.130339 
L 364.613281 -118.932153 
L 364.613281 -119.733966 
L 364.613281 -120.53578 
L 364.613281 -121.337593 
L 364.613281 -122.139406 
L 364.613281 -122.94122 
L 364.613281 -123.743033 
L 364.613281 -124.544847 
L 364.613281 -125.34666 
L 364.613281 -126.148474 
L 364.613281 -126.950287 
L 364.613281 -127.7521 
L 364.613281 -128.553914 
L 538.606394 -128.553914 
L 538.606394 -128.553914 
L 537.316045 -127.7521 
L 536.993365 -126.950287 
L 531.721077 -126.148474 
L 531.07014 -125.34666 
L 529.555034 -124.544847 
L 529.033397 -123.743033 
L 525.341995 -122.94122 
L 514.10252 -122.139406 
L 504.057328 -121.337593 
L 466.133872 -120.53578 
L 466.086666 -119.733966 
L 465.572825 -118.932153 
L 465.208885 -118.130339 
z
" style="stroke: #7d008e; stroke-opacity: 0.7"/>
    </defs>
    <g clip-path="url(#p84f7dddf44)">
     <use xlink:href="#m05665183b3" x="0" y="720" style="fill: #7d008e; fill-opacity: 0.7; stroke: #7d008e; stroke-opacity: 0.7"/>
    </g>
   </g>
   <g id="PolyCollection_3">
    <defs>
     <path id="mbd1e7165c2" d="M 364.941439 -137.373862 
L 364.613281 -137.373862 
L 364.613281 -138.175675 
L 364.613281 -138.977489 
L 364.613281 -139.779302 
L 364.613281 -140.581115 
L 364.613281 -141.382929 
L 364.613281 -142.184742 
L 364.613281 -142.986556 
L 364.613281 -143.788369 
L 364.613281 -144.590183 
L 364.613281 -145.391996 
L 364.613281 -146.193809 
L 364.613281 -146.995623 
L 364.613281 -147.797436 
L 364.613281 -148.59925 
L 364.613281 -149.401063 
L 364.613281 -150.202877 
L 364.613281 -151.00469 
L 364.613281 -151.806503 
L 364.613281 -152.608317 
L 364.613281 -153.41013 
L 364.613281 -154.211944 
L 364.613281 -155.013757 
L 364.613281 -155.815571 
L 364.613281 -156.617384 
L 364.613281 -157.419197 
L 364.613281 -158.221011 
L 364.613281 -159.022824 
L 364.613281 -159.824638 
L 364.613281 -160.626451 
L 364.613281 -161.428265 
L 364.613281 -162.230078 
L 364.613281 -163.031891 
L 364.613281 -163.833705 
L 364.613281 -164.635518 
L 364.613281 -165.437332 
L 364.613281 -166.239145 
L 364.613281 -167.040959 
L 364.613281 -167.842772 
L 364.613281 -168.644585 
L 364.613281 -169.446399 
L 364.613281 -170.248212 
L 364.613281 -171.050026 
L 364.613281 -171.851839 
L 364.613281 -172.653653 
L 364.613281 -173.455466 
L 364.613281 -174.257279 
L 364.613281 -175.059093 
L 364.613281 -175.860906 
L 364.613281 -176.66272 
L 364.613281 -177.464533 
L 364.613281 -178.266347 
L 364.613281 -179.06816 
L 364.613281 -179.869973 
L 364.613281 -180.671787 
L 364.613281 -181.4736 
L 364.613281 -182.275414 
L 364.613281 -183.077227 
L 364.613281 -183.879041 
L 364.613281 -184.680854 
L 364.613281 -185.482667 
L 364.613281 -186.284481 
L 364.613281 -187.086294 
L 364.613281 -187.888108 
L 364.613281 -188.689921 
L 364.613281 -189.491735 
L 364.613281 -190.293548 
L 364.613281 -191.095361 
L 364.613281 -191.897175 
L 364.613281 -192.698988 
L 364.613281 -193.500802 
L 364.613281 -194.302615 
L 364.613281 -195.104429 
L 364.613281 -195.906242 
L 364.613281 -196.708055 
L 364.613281 -197.509869 
L 364.613281 -198.311682 
L 364.613281 -199.113496 
L 364.613281 -199.915309 
L 364.613281 -200.717123 
L 364.613281 -201.518936 
L 364.613281 -202.320749 
L 364.613281 -203.122563 
L 364.613281 -203.924376 
L 364.613281 -204.72619 
L 364.613281 -205.528003 
L 364.613281 -206.329817 
L 572.880819 -206.329817 
L 572.880819 -206.329817 
L 569.695344 -205.528003 
L 568.756895 -204.72619 
L 566.599988 -203.924376 
L 565.68582 -203.122563 
L 565.614462 -202.320749 
L 565.376201 -201.518936 
L 564.478809 -200.717123 
L 563.606535 -199.915309 
L 563.401515 -199.113496 
L 562.166144 -198.311682 
L 561.385132 -197.509869 
L 559.586802 -196.708055 
L 559.375667 -195.906242 
L 559.127544 -195.104429 
L 559.05234 -194.302615 
L 558.086416 -193.500802 
L 557.987162 -192.698988 
L 557.932285 -191.897175 
L 557.527718 -191.095361 
L 557.52411 -190.293548 
L 557.210011 -189.491735 
L 556.60572 -188.689921 
L 555.801314 -187.888108 
L 555.727356 -187.086294 
L 555.322152 -186.284481 
L 554.28389 -185.482667 
L 553.964034 -184.680854 
L 553.752139 -183.879041 
L 553.65912 -183.077227 
L 553.648434 -182.275414 
L 553.197823 -181.4736 
L 552.883949 -180.671787 
L 551.977756 -179.869973 
L 551.534691 -179.06816 
L 551.404458 -178.266347 
L 550.387042 -177.464533 
L 549.802286 -176.66272 
L 548.247856 -175.860906 
L 547.628563 -175.059093 
L 546.823382 -174.257279 
L 546.501801 -173.455466 
L 545.536968 -172.653653 
L 543.581117 -171.851839 
L 543.579341 -171.050026 
L 543.424015 -170.248212 
L 543.372467 -169.446399 
L 543.056474 -168.644585 
L 542.130203 -167.842772 
L 540.278726 -167.040959 
L 538.157716 -166.239145 
L 537.521584 -165.437332 
L 536.598137 -164.635518 
L 534.37342 -163.833705 
L 534.14616 -163.031891 
L 533.89093 -162.230078 
L 533.017813 -161.428265 
L 532.475463 -160.626451 
L 532.435906 -159.824638 
L 532.233928 -159.022824 
L 531.469585 -158.221011 
L 531.462301 -157.419197 
L 531.155328 -156.617384 
L 530.880548 -155.815571 
L 530.484053 -155.013757 
L 527.798968 -154.211944 
L 526.713551 -153.41013 
L 523.939623 -152.608317 
L 522.145735 -151.806503 
L 519.070857 -151.00469 
L 515.423215 -150.202877 
L 514.761051 -149.401063 
L 513.558904 -148.59925 
L 511.877996 -147.797436 
L 509.507539 -146.995623 
L 508.19185 -146.193809 
L 507.934281 -145.391996 
L 505.576746 -144.590183 
L 502.181855 -143.788369 
L 501.657535 -142.986556 
L 493.794264 -142.184742 
L 489.554756 -141.382929 
L 480.574595 -140.581115 
L 467.719212 -139.779302 
L 457.939357 -138.977489 
L 438.710072 -138.175675 
L 364.941439 -137.373862 
z
" style="stroke: #2d00a4; stroke-opacity: 0.7"/>
    </defs>
    <g clip-path="url(#p84f7dddf44)">
     <use xlink:href="#mbd1e7165c2" x="0" y="720" style="fill: #2d00a4; fill-opacity: 0.7; stroke: #2d00a4; stroke-opacity: 0.7"/>
    </g>
   </g>
   <g id="PolyCollection_4">
    <defs>
     <path id="me52d0ad07c" d="M 382.623435 -215.149764 
L 364.613281 -215.149764 
L 364.613281 -215.951578 
L 364.613281 -216.753391 
L 364.613281 -217.555205 
L 364.613281 -218.357018 
L 364.613281 -219.158832 
L 364.613281 -219.960645 
L 364.613281 -220.762458 
L 364.613281 -221.564272 
L 364.613281 -222.366085 
L 364.613281 -223.167899 
L 364.613281 -223.969712 
L 364.613281 -224.771526 
L 364.613281 -225.573339 
L 364.613281 -226.375152 
L 364.613281 -227.176966 
L 364.613281 -227.978779 
L 364.613281 -228.780593 
L 364.613281 -229.582406 
L 364.613281 -230.38422 
L 523.397967 -230.38422 
L 523.397967 -230.38422 
L 514.588755 -229.582406 
L 514.501129 -228.780593 
L 506.81474 -227.978779 
L 504.101853 -227.176966 
L 502.323916 -226.375152 
L 500.221865 -225.573339 
L 495.095702 -224.771526 
L 492.828996 -223.969712 
L 492.107342 -223.167899 
L 488.32175 -222.366085 
L 476.054246 -221.564272 
L 472.122622 -220.762458 
L 471.565276 -219.960645 
L 471.515769 -219.158832 
L 468.541782 -218.357018 
L 464.527121 -217.555205 
L 463.736001 -216.753391 
L 462.221349 -215.951578 
L 382.623435 -215.149764 
z
" style="stroke: #0000dd; stroke-opacity: 0.7"/>
    </defs>
    <g clip-path="url(#p84f7dddf44)">
     <use xlink:href="#me52d0ad07c" x="0" y="720" style="fill: #0000dd; fill-opacity: 0.7; stroke: #0000dd; stroke-opacity: 0.7"/>
    </g>
   </g>
   <g id="PolyCollection_5">
    <defs>
     <path id="m6b7605db8a" d="M 291.053981 -239.204167 
L 364.613281 -239.204167 
L 364.613281 -240.005981 
L 364.613281 -240.807794 
L 364.613281 -241.609608 
L 364.613281 -242.411421 
L 364.613281 -243.213234 
L 364.613281 -244.015048 
L 364.613281 -244.816861 
L 364.613281 -245.618675 
L 364.613281 -246.420488 
L 364.613281 -247.222302 
L 364.613281 -248.024115 
L 364.613281 -248.825928 
L 364.613281 -249.627742 
L 364.613281 -250.429555 
L 364.613281 -251.231369 
L 364.613281 -252.033182 
L 364.613281 -252.834996 
L 364.613281 -253.636809 
L 364.613281 -254.438622 
L 364.613281 -255.240436 
L 364.613281 -256.042249 
L 364.613281 -256.844063 
L 364.613281 -257.645876 
L 364.613281 -258.44769 
L 364.613281 -259.249503 
L 364.613281 -260.051316 
L 364.613281 -260.85313 
L 364.613281 -261.654943 
L 364.613281 -262.456757 
L 364.613281 -263.25857 
L 364.613281 -264.060384 
L 364.613281 -264.862197 
L 364.613281 -265.66401 
L 364.613281 -266.465824 
L 364.613281 -267.267637 
L 364.613281 -268.069451 
L 364.613281 -268.871264 
L 364.613281 -269.673078 
L 364.613281 -270.474891 
L 364.613281 -271.276705 
L 364.613281 -272.078518 
L 364.613281 -272.880331 
L 364.613281 -273.682145 
L 364.613281 -274.483958 
L 364.613281 -275.285772 
L 364.613281 -276.087585 
L 364.613281 -276.889399 
L 364.613281 -277.691212 
L 364.613281 -278.493025 
L 364.613281 -279.294839 
L 364.613281 -280.096652 
L 364.613281 -280.898466 
L 364.613281 -281.700279 
L 364.613281 -282.502093 
L 364.613281 -283.303906 
L 364.613281 -284.105719 
L 364.613281 -284.907533 
L 364.613281 -285.709346 
L 364.613281 -286.51116 
L 364.613281 -287.312973 
L 364.613281 -288.114787 
L 364.613281 -288.9166 
L 587.619496 -288.9166 
L 587.619496 -288.9166 
L 587.51033 -288.114787 
L 587.28793 -287.312973 
L 587.264584 -286.51116 
L 587.224162 -285.709346 
L 586.994882 -284.907533 
L 586.811677 -284.105719 
L 586.064736 -283.303906 
L 586.009739 -282.502093 
L 586.006593 -281.700279 
L 585.955878 -280.898466 
L 585.850141 -280.096652 
L 579.086163 -279.294839 
L 578.806892 -278.493025 
L 578.567047 -277.691212 
L 578.325062 -276.889399 
L 578.239868 -276.087585 
L 578.208705 -275.285772 
L 577.824175 -274.483958 
L 577.701579 -273.682145 
L 574.519354 -272.880331 
L 569.33688 -272.078518 
L 568.81022 -271.276705 
L 568.680287 -270.474891 
L 568.008375 -269.673078 
L 567.337721 -268.871264 
L 567.000073 -268.069451 
L 566.006884 -267.267637 
L 563.940688 -266.465824 
L 562.795828 -265.66401 
L 560.998863 -264.862197 
L 557.255864 -264.060384 
L 556.667516 -263.25857 
L 555.982181 -262.456757 
L 555.971657 -261.654943 
L 544.053537 -260.85313 
L 535.288048 -260.051316 
L 527.859386 -259.249503 
L 527.798186 -258.44769 
L 526.700326 -257.645876 
L 515.016805 -256.844063 
L 513.692962 -256.042249 
L 509.589556 -255.240436 
L 491.664772 -254.438622 
L 479.047083 -253.636809 
L 463.72822 -252.834996 
L 461.646215 -252.033182 
L 458.775819 -251.231369 
L 423.125262 -250.429555 
L 416.770615 -249.627742 
L 411.316181 -248.825928 
L 409.338112 -248.024115 
L 408.789354 -247.222302 
L 379.349103 -246.420488 
L 368.334624 -245.618675 
L 366.859388 -244.816861 
L 358.326938 -244.015048 
L 353.166518 -243.213234 
L 351.632482 -242.411421 
L 332.311571 -241.609608 
L 316.712331 -240.807794 
L 309.300241 -240.005981 
L 291.053981 -239.204167 
z
" style="stroke: #0082dd; stroke-opacity: 0.7"/>
    </defs>
    <g clip-path="url(#p84f7dddf44)">
     <use xlink:href="#m6b7605db8a" x="0" y="720" style="fill: #0082dd; fill-opacity: 0.7; stroke: #0082dd; stroke-opacity: 0.7"/>
    </g>
   </g>
   <g id="PolyCollection_6">
    <defs>
     <path id="m3e18c541f5" d="M 404.473316 -297.736548 
L 364.613281 -297.736548 
L 364.613281 -298.538361 
L 364.613281 -299.340175 
L 364.613281 -300.141988 
L 364.613281 -300.943801 
L 364.613281 -301.745615 
L 364.613281 -302.547428 
L 364.613281 -303.349242 
L 526.792285 -303.349242 
L 526.792285 -303.349242 
L 513.283091 -302.547428 
L 509.597824 -301.745615 
L 487.663264 -300.943801 
L 481.258049 -300.141988 
L 479.772325 -299.340175 
L 451.858704 -298.538361 
L 404.473316 -297.736548 
z
" style="stroke: #00a4bb; stroke-opacity: 0.7"/>
    </defs>
    <g clip-path="url(#p84f7dddf44)">
     <use xlink:href="#m3e18c541f5" x="0" y="720" style="fill: #00a4bb; fill-opacity: 0.7; stroke: #00a4bb; stroke-opacity: 0.7"/>
    </g>
   </g>
   <g id="PolyCollection_7">
    <defs>
     <path id="mbd14b717a5" d="M 287.053759 -312.169189 
L 364.613281 -312.169189 
L 364.613281 -312.971003 
L 364.613281 -313.772816 
L 364.613281 -314.57463 
L 364.613281 -315.376443 
L 364.613281 -316.178257 
L 364.613281 -316.98007 
L 364.613281 -317.781883 
L 364.613281 -318.583697 
L 364.613281 -319.38551 
L 364.613281 -320.187324 
L 364.613281 -320.989137 
L 364.613281 -321.790951 
L 364.613281 -322.592764 
L 364.613281 -323.394577 
L 364.613281 -324.196391 
L 364.613281 -324.998204 
L 364.613281 -325.800018 
L 364.613281 -326.601831 
L 364.613281 -327.403645 
L 364.613281 -328.205458 
L 364.613281 -329.007271 
L 364.613281 -329.809085 
L 364.613281 -330.610898 
L 364.613281 -331.412712 
L 364.613281 -332.214525 
L 364.613281 -333.016339 
L 364.613281 -333.818152 
L 364.613281 -334.619966 
L 364.613281 -335.421779 
L 364.613281 -336.223592 
L 364.613281 -337.025406 
L 364.613281 -337.827219 
L 364.613281 -338.629033 
L 364.613281 -339.430846 
L 364.613281 -340.23266 
L 364.613281 -341.034473 
L 364.613281 -341.836286 
L 364.613281 -342.6381 
L 364.613281 -343.439913 
L 364.613281 -344.241727 
L 364.613281 -345.04354 
L 364.613281 -345.845354 
L 364.613281 -346.647167 
L 364.613281 -347.44898 
L 364.613281 -348.250794 
L 364.613281 -349.052607 
L 364.613281 -349.854421 
L 364.613281 -350.656234 
L 364.613281 -351.458048 
L 364.613281 -352.259861 
L 364.613281 -353.061674 
L 364.613281 -353.863488 
L 364.613281 -354.665301 
L 364.613281 -355.467115 
L 364.613281 -356.268928 
L 364.613281 -357.070742 
L 364.613281 -357.872555 
L 364.613281 -358.674368 
L 364.613281 -359.476182 
L 364.613281 -360.277995 
L 364.613281 -361.079809 
L 364.613281 -361.881622 
L 364.613281 -362.683436 
L 364.613281 -363.485249 
L 364.613281 -364.287062 
L 364.613281 -365.088876 
L 364.613281 -365.890689 
L 364.613281 -366.692503 
L 364.613281 -367.494316 
L 364.613281 -368.29613 
L 364.613281 -369.097943 
L 364.613281 -369.899756 
L 364.613281 -370.70157 
L 364.613281 -371.503383 
L 364.613281 -372.305197 
L 364.613281 -373.10701 
L 364.613281 -373.908824 
L 364.613281 -374.710637 
L 364.613281 -375.51245 
L 364.613281 -376.314264 
L 576.925036 -376.314264 
L 576.925036 -376.314264 
L 576.274594 -375.51245 
L 576.235596 -374.710637 
L 576.041227 -373.908824 
L 575.938919 -373.10701 
L 575.377614 -372.305197 
L 575.304913 -371.503383 
L 574.296421 -370.70157 
L 573.987121 -369.899756 
L 573.868665 -369.097943 
L 571.897741 -368.29613 
L 570.830285 -367.494316 
L 567.612741 -366.692503 
L 566.917723 -365.890689 
L 565.920878 -365.088876 
L 565.468372 -364.287062 
L 564.184513 -363.485249 
L 562.918235 -362.683436 
L 559.999893 -361.881622 
L 559.428767 -361.079809 
L 558.248561 -360.277995 
L 557.126198 -359.476182 
L 556.444518 -358.674368 
L 556.071973 -357.872555 
L 555.973899 -357.070742 
L 555.627621 -356.268928 
L 555.588833 -355.467115 
L 555.026384 -354.665301 
L 554.741926 -353.863488 
L 554.699833 -353.061674 
L 554.685281 -352.259861 
L 554.400158 -351.458048 
L 553.535658 -350.656234 
L 548.96481 -349.854421 
L 548.842005 -349.052607 
L 548.737252 -348.250794 
L 548.647076 -347.44898 
L 548.638874 -346.647167 
L 548.313139 -345.845354 
L 548.30523 -345.04354 
L 548.171636 -344.241727 
L 543.533691 -343.439913 
L 541.834509 -342.6381 
L 540.326497 -341.836286 
L 539.79096 -341.034473 
L 539.782098 -340.23266 
L 539.130433 -339.430846 
L 534.778988 -338.629033 
L 534.585639 -337.827219 
L 534.206419 -337.025406 
L 532.511947 -336.223592 
L 531.25737 -335.421779 
L 530.474055 -334.619966 
L 526.208342 -333.818152 
L 522.432198 -333.016339 
L 521.83427 -332.214525 
L 521.20429 -331.412712 
L 516.797761 -330.610898 
L 510.776816 -329.809085 
L 510.578473 -329.007271 
L 501.248816 -328.205458 
L 490.805878 -327.403645 
L 490.222148 -326.601831 
L 476.847161 -325.800018 
L 475.051539 -324.998204 
L 471.505231 -324.196391 
L 467.303968 -323.394577 
L 452.614959 -322.592764 
L 447.995657 -321.790951 
L 447.084972 -320.989137 
L 438.731284 -320.187324 
L 437.587477 -319.38551 
L 437.42717 -318.583697 
L 429.437169 -317.781883 
L 418.183459 -316.98007 
L 400.955585 -316.178257 
L 397.656889 -315.376443 
L 372.931598 -314.57463 
L 333.777725 -313.772816 
L 321.480157 -312.971003 
L 287.053759 -312.169189 
z
" style="stroke: #00aa88; stroke-opacity: 0.7"/>
    </defs>
    <g clip-path="url(#p84f7dddf44)">
     <use xlink:href="#mbd14b717a5" x="0" y="720" style="fill: #00aa88; fill-opacity: 0.7; stroke: #00aa88; stroke-opacity: 0.7"/>
    </g>
   </g>
   <g id="PolyCollection_8">
    <defs>
     <path id="m1a1c8266e8" d="M 584.674412 -385.134212 
L 364.613281 -385.134212 
L 364.613281 -385.936025 
L 364.613281 -386.737838 
L 364.613281 -387.539652 
L 364.613281 -388.341465 
L 364.613281 -389.143279 
L 364.613281 -389.945092 
L 364.613281 -390.746906 
L 638.344418 -390.746906 
L 638.344418 -390.746906 
L 636.957896 -389.945092 
L 626.497612 -389.143279 
L 620.703025 -388.341465 
L 617.442472 -387.539652 
L 599.13433 -386.737838 
L 592.84654 -385.936025 
L 584.674412 -385.134212 
z
" style="stroke: #00a400; stroke-opacity: 0.7"/>
    </defs>
    <g clip-path="url(#p84f7dddf44)">
     <use xlink:href="#m1a1c8266e8" x="0" y="720" style="fill: #00a400; fill-opacity: 0.7; stroke: #00a400; stroke-opacity: 0.7"/>
    </g>
   </g>
   <g id="PolyCollection_9">
    <defs>
     <path id="m0e96cfb8db" d="M 434.999965 -399.566853 
L 364.613281 -399.566853 
L 364.613281 -400.368667 
L 364.613281 -401.17048 
L 364.613281 -401.972294 
L 364.613281 -402.774107 
L 364.613281 -403.575921 
L 364.613281 -404.377734 
L 491.834317 -404.377734 
L 491.834317 -404.377734 
L 486.846336 -403.575921 
L 485.418407 -402.774107 
L 485.174941 -401.972294 
L 476.656545 -401.17048 
L 446.958353 -400.368667 
L 434.999965 -399.566853 
z
" style="stroke: #00d200; stroke-opacity: 0.7"/>
    </defs>
    <g clip-path="url(#p84f7dddf44)">
     <use xlink:href="#m0e96cfb8db" x="0" y="720" style="fill: #00d200; fill-opacity: 0.7; stroke: #00d200; stroke-opacity: 0.7"/>
    </g>
   </g>
   <g id="PolyCollection_10">
    <defs>
     <path id="m6a93060caf" d="M 371.170717 -413.197682 
L 364.613281 -413.197682 
L 364.613281 -413.999495 
L 364.613281 -414.801309 
L 364.613281 -415.603122 
L 364.613281 -416.404935 
L 364.613281 -417.206749 
L 364.613281 -418.008562 
L 364.613281 -418.810376 
L 364.613281 -419.612189 
L 364.613281 -420.414003 
L 364.613281 -421.215816 
L 364.613281 -422.017629 
L 364.613281 -422.819443 
L 364.613281 -423.621256 
L 364.613281 -424.42307 
L 364.613281 -425.224883 
L 364.613281 -426.026697 
L 364.613281 -426.82851 
L 364.613281 -427.630323 
L 364.613281 -428.432137 
L 364.613281 -429.23395 
L 364.613281 -430.035764 
L 364.613281 -430.837577 
L 364.613281 -431.639391 
L 364.613281 -432.441204 
L 364.613281 -433.243017 
L 364.613281 -434.044831 
L 364.613281 -434.846644 
L 364.613281 -435.648458 
L 364.613281 -436.450271 
L 364.613281 -437.252085 
L 364.613281 -438.053898 
L 364.613281 -438.855711 
L 364.613281 -439.657525 
L 364.613281 -440.459338 
L 364.613281 -441.261152 
L 364.613281 -442.062965 
L 364.613281 -442.864779 
L 364.613281 -443.666592 
L 364.613281 -444.468405 
L 364.613281 -445.270219 
L 364.613281 -446.072032 
L 364.613281 -446.873846 
L 364.613281 -447.675659 
L 364.613281 -448.477473 
L 364.613281 -449.279286 
L 364.613281 -450.081099 
L 364.613281 -450.882913 
L 364.613281 -451.684726 
L 364.613281 -452.48654 
L 364.613281 -453.288353 
L 364.613281 -454.090167 
L 364.613281 -454.89198 
L 364.613281 -455.693793 
L 364.613281 -456.495607 
L 364.613281 -457.29742 
L 364.613281 -458.099234 
L 364.613281 -458.901047 
L 364.613281 -459.702861 
L 364.613281 -460.504674 
L 364.613281 -461.306487 
L 364.613281 -462.108301 
L 364.613281 -462.910114 
L 364.613281 -463.711928 
L 364.613281 -464.513741 
L 364.613281 -465.315555 
L 364.613281 -466.117368 
L 364.613281 -466.919182 
L 364.613281 -467.720995 
L 364.613281 -468.522808 
L 364.613281 -469.324622 
L 364.613281 -470.126435 
L 364.613281 -470.928249 
L 364.613281 -471.730062 
L 364.613281 -472.531876 
L 364.613281 -473.333689 
L 364.613281 -474.135502 
L 364.613281 -474.937316 
L 364.613281 -475.739129 
L 364.613281 -476.540943 
L 364.613281 -477.342756 
L 364.613281 -478.14457 
L 364.613281 -478.946383 
L 364.613281 -479.748196 
L 580.586254 -479.748196 
L 580.586254 -479.748196 
L 580.289949 -478.946383 
L 580.263406 -478.14457 
L 578.763936 -477.342756 
L 578.294011 -476.540943 
L 578.288728 -475.739129 
L 578.284659 -474.937316 
L 577.970369 -474.135502 
L 577.770715 -473.333689 
L 577.154548 -472.531876 
L 576.863461 -471.730062 
L 576.652309 -470.928249 
L 574.939612 -470.126435 
L 574.798219 -469.324622 
L 573.300647 -468.522808 
L 572.565602 -467.720995 
L 570.301698 -466.919182 
L 569.057878 -466.117368 
L 566.43418 -465.315555 
L 566.415512 -464.513741 
L 565.49068 -463.711928 
L 564.838025 -462.910114 
L 561.617447 -462.108301 
L 560.125321 -461.306487 
L 560.016368 -460.504674 
L 559.639144 -459.702861 
L 559.526353 -458.901047 
L 559.394068 -458.099234 
L 558.034684 -457.29742 
L 557.188094 -456.495607 
L 556.734768 -455.693793 
L 556.554383 -454.89198 
L 556.322306 -454.090167 
L 555.464801 -453.288353 
L 553.464488 -452.48654 
L 553.099851 -451.684726 
L 552.670847 -450.882913 
L 552.299493 -450.081099 
L 550.708343 -449.279286 
L 550.033667 -448.477473 
L 549.878182 -447.675659 
L 549.793712 -446.873846 
L 547.367458 -446.072032 
L 545.61141 -445.270219 
L 545.36982 -444.468405 
L 544.520749 -443.666592 
L 542.971192 -442.864779 
L 541.407326 -442.062965 
L 539.025696 -441.261152 
L 538.725506 -440.459338 
L 531.525087 -439.657525 
L 529.91516 -438.855711 
L 529.730061 -438.053898 
L 525.453799 -437.252085 
L 523.462018 -436.450271 
L 519.705954 -435.648458 
L 519.133374 -434.846644 
L 518.49589 -434.044831 
L 516.735262 -433.243017 
L 513.616177 -432.441204 
L 510.653555 -431.639391 
L 504.77722 -430.837577 
L 499.824819 -430.035764 
L 498.284169 -429.23395 
L 497.400127 -428.432137 
L 495.577525 -427.630323 
L 493.864689 -426.82851 
L 487.975889 -426.026697 
L 487.840445 -425.224883 
L 485.202832 -424.42307 
L 483.336918 -423.621256 
L 472.125675 -422.819443 
L 469.908778 -422.017629 
L 464.911131 -421.215816 
L 464.89475 -420.414003 
L 462.577536 -419.612189 
L 450.746602 -418.810376 
L 446.658365 -418.008562 
L 446.295131 -417.206749 
L 445.246851 -416.404935 
L 433.605966 -415.603122 
L 423.24129 -414.801309 
L 415.210074 -413.999495 
L 371.170717 -413.197682 
z
" style="stroke: #00ff00; stroke-opacity: 0.7"/>
    </defs>
    <g clip-path="url(#p84f7dddf44)">
     <use xlink:href="#m6a93060caf" x="0" y="720" style="fill: #00ff00; fill-opacity: 0.7; stroke: #00ff00; stroke-opacity: 0.7"/>
    </g>
   </g>
   <g id="PolyCollection_11">
    <defs>
     <path id="m748c932abb" d="M 432.677569 -488.568144 
L 364.613281 -488.568144 
L 364.613281 -489.369958 
L 364.613281 -490.171771 
L 364.613281 -490.973584 
L 364.613281 -491.775398 
L 364.613281 -492.577211 
L 364.613281 -493.379025 
L 364.613281 -494.180838 
L 364.613281 -494.982652 
L 579.59546 -494.982652 
L 579.59546 -494.982652 
L 579.479017 -494.180838 
L 579.099746 -493.379025 
L 567.398198 -492.577211 
L 535.167711 -491.775398 
L 519.825168 -490.973584 
L 511.67855 -490.171771 
L 510.165656 -489.369958 
L 432.677569 -488.568144 
z
" style="stroke: #ccf900; stroke-opacity: 0.7"/>
    </defs>
    <g clip-path="url(#p84f7dddf44)">
     <use xlink:href="#m748c932abb" x="0" y="720" style="fill: #ccf900; fill-opacity: 0.7; stroke: #ccf900; stroke-opacity: 0.7"/>
    </g>
   </g>
   <g id="PolyCollection_12">
    <defs>
     <path id="m7a7acd82bd" d="M 490.529926 -503.802599 
L 364.613281 -503.802599 
L 364.613281 -504.604413 
L 364.613281 -505.406226 
L 364.613281 -506.20804 
L 364.613281 -507.009853 
L 364.613281 -507.811666 
L 364.613281 -508.61348 
L 364.613281 -509.415293 
L 364.613281 -510.217107 
L 364.613281 -511.01892 
L 364.613281 -511.820734 
L 364.613281 -512.622547 
L 364.613281 -513.42436 
L 364.613281 -514.226174 
L 364.613281 -515.027987 
L 364.613281 -515.829801 
L 364.613281 -516.631614 
L 364.613281 -517.433428 
L 364.613281 -518.235241 
L 364.613281 -519.037054 
L 364.613281 -519.838868 
L 364.613281 -520.640681 
L 364.613281 -521.442495 
L 364.613281 -522.244308 
L 364.613281 -523.046122 
L 364.613281 -523.847935 
L 364.613281 -524.649748 
L 364.613281 -525.451562 
L 364.613281 -526.253375 
L 364.613281 -527.055189 
L 364.613281 -527.857002 
L 364.613281 -528.658816 
L 364.613281 -529.460629 
L 364.613281 -530.262443 
L 364.613281 -531.064256 
L 364.613281 -531.866069 
L 364.613281 -532.667883 
L 364.613281 -533.469696 
L 364.613281 -534.27151 
L 364.613281 -535.073323 
L 364.613281 -535.875137 
L 364.613281 -536.67695 
L 364.613281 -537.478763 
L 364.613281 -538.280577 
L 364.613281 -539.08239 
L 364.613281 -539.884204 
L 364.613281 -540.686017 
L 364.613281 -541.487831 
L 364.613281 -542.289644 
L 364.613281 -543.091457 
L 364.613281 -543.893271 
L 364.613281 -544.695084 
L 364.613281 -545.496898 
L 364.613281 -546.298711 
L 364.613281 -547.100525 
L 364.613281 -547.902338 
L 364.613281 -548.704151 
L 364.613281 -549.505965 
L 364.613281 -550.307778 
L 364.613281 -551.109592 
L 364.613281 -551.911405 
L 364.613281 -552.713219 
L 364.613281 -553.515032 
L 364.613281 -554.316845 
L 364.613281 -555.118659 
L 364.613281 -555.920472 
L 364.613281 -556.722286 
L 364.613281 -557.524099 
L 364.613281 -558.325913 
L 364.613281 -559.127726 
L 364.613281 -559.929539 
L 364.613281 -560.731353 
L 364.613281 -561.533166 
L 364.613281 -562.33498 
L 364.613281 -563.136793 
L 364.613281 -563.938607 
L 364.613281 -564.74042 
L 364.613281 -565.542233 
L 364.613281 -566.344047 
L 364.613281 -567.14586 
L 364.613281 -567.947674 
L 364.613281 -568.749487 
L 364.613281 -569.551301 
L 364.613281 -570.353114 
L 364.613281 -571.154927 
L 364.613281 -571.956741 
L 364.613281 -572.758554 
L 364.613281 -573.560368 
L 364.613281 -574.362181 
L 364.613281 -575.163995 
L 364.613281 -575.965808 
L 364.613281 -576.767621 
L 364.613281 -577.569435 
L 364.613281 -578.371248 
L 364.613281 -579.173062 
L 364.613281 -579.974875 
L 364.613281 -580.776689 
L 364.613281 -581.578502 
L 364.613281 -582.380315 
L 364.613281 -583.182129 
L 364.613281 -583.983942 
L 364.613281 -584.785756 
L 364.613281 -585.587569 
L 364.613281 -586.389383 
L 364.613281 -587.191196 
L 364.613281 -587.993009 
L 364.613281 -588.794823 
L 364.613281 -589.596636 
L 364.613281 -590.39845 
L 364.613281 -591.200263 
L 364.613281 -592.002077 
L 364.613281 -592.80389 
L 364.613281 -593.605704 
L 364.613281 -594.407517 
L 364.613281 -595.20933 
L 364.613281 -596.011144 
L 364.613281 -596.812957 
L 364.613281 -597.614771 
L 364.613281 -598.416584 
L 364.613281 -599.218398 
L 364.613281 -600.020211 
L 364.613281 -600.822024 
L 364.613281 -601.623838 
L 364.613281 -602.425651 
L 364.613281 -603.227465 
L 364.613281 -604.029278 
L 364.613281 -604.831092 
L 364.613281 -605.632905 
L 364.613281 -606.434718 
L 364.613281 -607.236532 
L 364.613281 -608.038345 
L 364.613281 -608.840159 
L 364.613281 -609.641972 
L 364.613281 -610.443786 
L 364.613281 -611.245599 
L 364.613281 -612.047412 
L 364.613281 -612.849226 
L 364.613281 -613.651039 
L 364.613281 -614.452853 
L 364.613281 -615.254666 
L 364.613281 -616.05648 
L 364.613281 -616.858293 
L 364.613281 -617.660106 
L 364.613281 -618.46192 
L 364.613281 -619.263733 
L 364.613281 -620.065547 
L 364.613281 -620.86736 
L 364.613281 -621.669174 
L 364.613281 -622.470987 
L 364.613281 -623.2728 
L 364.613281 -624.074614 
L 364.613281 -624.876427 
L 364.613281 -625.678241 
L 364.613281 -626.480054 
L 364.613281 -627.281868 
L 364.613281 -628.083681 
L 364.613281 -628.885494 
L 364.613281 -629.687308 
L 364.613281 -630.489121 
L 364.613281 -631.290935 
L 364.613281 -632.092748 
L 364.613281 -632.894562 
L 364.613281 -633.696375 
L 364.613281 -634.498188 
L 364.613281 -635.300002 
L 364.613281 -636.101815 
L 364.613281 -636.903629 
L 364.613281 -637.705442 
L 364.613281 -638.507256 
L 364.613281 -639.309069 
L 364.613281 -640.110882 
L 364.613281 -640.912696 
L 364.613281 -641.714509 
L 364.613281 -642.516323 
L 364.613281 -643.318136 
L 364.613281 -644.11995 
L 364.613281 -644.921763 
L 364.613281 -645.723576 
L 364.613281 -646.52539 
L 364.613281 -647.327203 
L 364.613281 -648.129017 
L 364.613281 -648.93083 
L 364.613281 -649.732644 
L 364.613281 -650.534457 
L 364.613281 -651.33627 
L 364.613281 -652.138084 
L 364.613281 -652.939897 
L 364.613281 -653.741711 
L 364.613281 -654.543524 
L 364.613281 -655.345338 
L 364.613281 -656.147151 
L 364.613281 -656.948964 
L 364.613281 -657.750778 
L 364.613281 -658.552591 
L 364.613281 -659.354405 
L 364.613281 -660.156218 
L 364.613281 -660.958032 
L 364.613281 -661.759845 
L 364.613281 -662.561659 
L 364.613281 -663.363472 
L 364.613281 -664.165285 
L 608.885655 -664.165285 
L 608.885655 -664.165285 
L 608.305282 -663.363472 
L 607.640262 -662.561659 
L 605.950575 -661.759845 
L 605.814032 -660.958032 
L 604.752592 -660.156218 
L 604.700035 -659.354405 
L 604.122185 -658.552591 
L 604.072056 -657.750778 
L 603.670629 -656.948964 
L 603.028497 -656.147151 
L 602.037181 -655.345338 
L 601.882122 -654.543524 
L 601.528504 -653.741711 
L 601.07001 -652.939897 
L 600.216603 -652.138084 
L 599.722008 -651.33627 
L 599.706482 -650.534457 
L 598.804036 -649.732644 
L 598.717546 -648.93083 
L 598.537116 -648.129017 
L 598.461895 -647.327203 
L 598.389046 -646.52539 
L 598.24304 -645.723576 
L 598.182204 -644.921763 
L 597.767543 -644.11995 
L 597.08938 -643.318136 
L 597.044417 -642.516323 
L 596.680144 -641.714509 
L 596.180445 -640.912696 
L 595.889344 -640.110882 
L 595.195506 -639.309069 
L 594.904682 -638.507256 
L 594.413468 -637.705442 
L 594.385123 -636.903629 
L 594.247189 -636.101815 
L 593.940846 -635.300002 
L 593.797751 -634.498188 
L 593.777176 -633.696375 
L 593.713231 -632.894562 
L 593.463621 -632.092748 
L 593.059899 -631.290935 
L 592.984876 -630.489121 
L 592.766281 -629.687308 
L 591.597945 -628.885494 
L 591.296668 -628.083681 
L 590.908595 -627.281868 
L 590.906751 -626.480054 
L 590.724129 -625.678241 
L 590.577359 -624.876427 
L 590.498807 -624.074614 
L 590.456614 -623.2728 
L 590.346957 -622.470987 
L 590.1611 -621.669174 
L 590.092978 -620.86736 
L 589.947601 -620.065547 
L 589.863011 -619.263733 
L 589.676971 -618.46192 
L 589.676536 -617.660106 
L 589.537127 -616.858293 
L 589.53579 -616.05648 
L 589.228659 -615.254666 
L 589.206361 -614.452853 
L 589.056197 -613.651039 
L 588.931915 -612.849226 
L 588.922781 -612.047412 
L 588.739228 -611.245599 
L 588.704864 -610.443786 
L 587.088714 -609.641972 
L 586.738883 -608.840159 
L 586.629145 -608.038345 
L 586.413731 -607.236532 
L 586.367449 -606.434718 
L 586.068834 -605.632905 
L 585.566239 -604.831092 
L 585.537141 -604.029278 
L 585.434608 -603.227465 
L 585.399703 -602.425651 
L 584.974417 -601.623838 
L 584.725094 -600.822024 
L 583.975806 -600.020211 
L 583.746948 -599.218398 
L 583.56758 -598.416584 
L 583.409985 -597.614771 
L 583.409049 -596.812957 
L 583.11243 -596.011144 
L 582.810891 -595.20933 
L 582.25666 -594.407517 
L 581.731548 -593.605704 
L 581.384334 -592.80389 
L 581.130642 -592.002077 
L 581.075822 -591.200263 
L 580.952569 -590.39845 
L 580.617527 -589.596636 
L 580.609706 -588.794823 
L 580.567744 -587.993009 
L 580.043078 -587.191196 
L 579.874762 -586.389383 
L 579.701331 -585.587569 
L 579.691628 -584.785756 
L 579.537895 -583.983942 
L 579.054316 -583.182129 
L 578.873181 -582.380315 
L 578.720665 -581.578502 
L 578.494466 -580.776689 
L 578.473217 -579.974875 
L 577.961972 -579.173062 
L 577.10484 -578.371248 
L 576.680989 -577.569435 
L 576.541261 -576.767621 
L 576.284162 -575.965808 
L 576.108185 -575.163995 
L 575.923312 -574.362181 
L 575.222198 -573.560368 
L 574.896742 -572.758554 
L 574.767521 -571.956741 
L 574.525665 -571.154927 
L 574.18154 -570.353114 
L 573.840448 -569.551301 
L 573.834483 -568.749487 
L 573.619589 -567.947674 
L 573.380268 -567.14586 
L 573.230496 -566.344047 
L 573.210574 -565.542233 
L 573.009495 -564.74042 
L 572.608857 -563.938607 
L 572.039108 -563.136793 
L 571.930149 -562.33498 
L 571.016173 -561.533166 
L 570.358327 -560.731353 
L 569.799428 -559.929539 
L 568.996285 -559.127726 
L 568.595993 -558.325913 
L 568.433571 -557.524099 
L 568.320493 -556.722286 
L 568.315783 -555.920472 
L 568.135488 -555.118659 
L 568.068063 -554.316845 
L 567.994156 -553.515032 
L 567.649742 -552.713219 
L 566.914342 -551.911405 
L 566.665904 -551.109592 
L 566.548492 -550.307778 
L 566.417331 -549.505965 
L 566.138232 -548.704151 
L 565.30105 -547.902338 
L 565.190611 -547.100525 
L 564.661681 -546.298711 
L 564.286544 -545.496898 
L 564.279639 -544.695084 
L 563.092023 -543.893271 
L 563.010718 -543.091457 
L 561.120806 -542.289644 
L 560.737806 -541.487831 
L 560.192184 -540.686017 
L 559.626446 -539.884204 
L 559.403117 -539.08239 
L 559.114079 -538.280577 
L 558.359868 -537.478763 
L 557.828887 -536.67695 
L 557.33616 -535.875137 
L 557.071199 -535.073323 
L 557.062615 -534.27151 
L 556.633621 -533.469696 
L 555.590917 -532.667883 
L 555.413654 -531.866069 
L 554.943584 -531.064256 
L 554.899399 -530.262443 
L 553.528471 -529.460629 
L 553.217678 -528.658816 
L 553.165738 -527.857002 
L 553.090684 -527.055189 
L 552.826835 -526.253375 
L 552.412663 -525.451562 
L 551.358735 -524.649748 
L 550.646856 -523.847935 
L 550.287521 -523.046122 
L 549.806135 -522.244308 
L 549.290372 -521.442495 
L 547.290409 -520.640681 
L 546.686784 -519.838868 
L 546.273681 -519.037054 
L 545.700709 -518.235241 
L 545.32032 -517.433428 
L 540.815677 -516.631614 
L 539.467611 -515.829801 
L 539.108885 -515.027987 
L 538.456865 -514.226174 
L 537.536842 -513.42436 
L 535.245369 -512.622547 
L 534.306595 -511.820734 
L 532.782489 -511.01892 
L 530.911839 -510.217107 
L 528.535088 -509.415293 
L 519.028329 -508.61348 
L 517.821276 -507.811666 
L 510.290446 -507.009853 
L 505.088425 -506.20804 
L 504.437127 -505.406226 
L 502.827967 -504.604413 
L 490.529926 -503.802599 
z
" style="stroke: #f9d700; stroke-opacity: 0.7"/>
    </defs>
    <g clip-path="url(#p84f7dddf44)">
     <use xlink:href="#m7a7acd82bd" x="0" y="720" style="fill: #f9d700; fill-opacity: 0.7; stroke: #f9d700; stroke-opacity: 0.7"/>
    </g>
   </g>
   <g id="PolyCollection_13">
    <defs>
     <path id="mf4b3b7c6d8" d="M 616.414264 -672.985233 
L 364.613281 -672.985233 
L 364.613281 -673.787047 
L 364.613281 -674.58886 
L 364.613281 -675.390673 
L 364.613281 -676.192487 
L 364.613281 -676.9943 
L 364.613281 -677.796114 
L 364.613281 -678.597927 
L 364.613281 -679.399741 
L 652.386713 -679.399741 
L 652.386713 -679.399741 
L 651.276866 -678.597927 
L 647.859728 -677.796114 
L 637.384743 -676.9943 
L 636.942368 -676.192487 
L 634.043322 -675.390673 
L 623.415737 -674.58886 
L 620.760153 -673.787047 
L 616.414264 -672.985233 
z
" style="stroke: #ff9900; stroke-opacity: 0.7"/>
    </defs>
    <g clip-path="url(#p84f7dddf44)">
     <use xlink:href="#mf4b3b7c6d8" x="0" y="720" style="fill: #ff9900; fill-opacity: 0.7; stroke: #ff9900; stroke-opacity: 0.7"/>
    </g>
   </g>
   <g id="PolyCollection_14">
    <defs>
     <path id="m70729f0808" d="M 655.179905 -688.219688 
L 364.613281 -688.219688 
L 364.613281 -689.021502 
L 364.613281 -689.823315 
L 678.183008 -689.823315 
L 678.183008 -689.823315 
L 677.735739 -689.021502 
L 655.179905 -688.219688 
z
" style="stroke: #f40000; stroke-opacity: 0.7"/>
    </defs>
    <g clip-path="url(#p84f7dddf44)">
     <use xlink:href="#m70729f0808" x="0" y="720" style="fill: #f40000; fill-opacity: 0.7; stroke: #f40000; stroke-opacity: 0.7"/>
    </g>
   </g>
   <g id="PolyCollection_15">
    <defs>
     <path id="med34db1226" d="M 539.596586 -698.643263 
L 364.613281 -698.643263 
L 364.613281 -699.445076 
L 542.34582 -699.445076 
L 542.34582 -699.445076 
L 539.596586 -698.643263 
z
" style="stroke: #d20000; stroke-opacity: 0.7"/>
    </defs>
    <g clip-path="url(#p84f7dddf44)">
     <use xlink:href="#med34db1226" x="0" y="720" style="fill: #d20000; fill-opacity: 0.7; stroke: #d20000; stroke-opacity: 0.7"/>
    </g>
   </g>
   <g id="matplotlib.axis_1">
    <g id="xtick_1">
     <g id="line2d_1">
      <defs>
       <path id="mff69d68f1f" d="M 0 0 
L 0 3.5 
" style="stroke: #000000; stroke-width: 0.8"/>
      </defs>
      <g>
       <use xlink:href="#mff69d68f1f" x="27.978125" y="678.84375" style="stroke: #000000; stroke-width: 0.8"/>
      </g>
     </g>
     <g id="text_1">
      <!-- −1.0 -->
      <g transform="translate(15.836719 693.442188) scale(0.1 -0.1)">
       <defs>
        <path id="DejaVuSans-2212" d="M 678 2272 
L 4684 2272 
L 4684 1741 
L 678 1741 
L 678 2272 
z
" transform="scale(0.015625)"/>
        <path id="DejaVuSans-31" d="M 794 531 
L 1825 531 
L 1825 4091 
L 703 3866 
L 703 4441 
L 1819 4666 
L 2450 4666 
L 2450 531 
L 3481 531 
L 3481 0 
L 794 0 
L 794 531 
z
" transform="scale(0.015625)"/>
        <path id="DejaVuSans-2e" d="M 684 794 
L 1344 794 
L 1344 0 
L 684 0 
L 684 794 
z
" transform="scale(0.015625)"/>
        <path id="DejaVuSans-30" d="M 2034 4250 
Q 1547 4250 1301 3770 
Q 1056 3291 1056 2328 
Q 1056 1369 1301 889 
Q 1547 409 2034 409 
Q 2525 409 2770 889 
Q 3016 1369 3016 2328 
Q 3016 3291 2770 3770 
Q 2525 4250 2034 4250 
z
M 2034 4750 
Q 2819 4750 3233 4129 
Q 3647 3509 3647 2328 
Q 3647 1150 3233 529 
Q 2819 -91 2034 -91 
Q 1250 -91 836 529 
Q 422 1150 422 2328 
Q 422 3509 836 4129 
Q 1250 4750 2034 4750 
z
" transform="scale(0.015625)"/>
       </defs>
       <use xlink:href="#DejaVuSans-2212"/>
       <use xlink:href="#DejaVuSans-31" x="83.789062"/>
       <use xlink:href="#DejaVuSans-2e" x="147.412109"/>
       <use xlink:href="#DejaVuSans-30" x="179.199219"/>
      </g>
     </g>
    </g>
    <g id="xtick_2">
     <g id="line2d_2">
      <g>
       <use xlink:href="#mff69d68f1f" x="95.305156" y="678.84375" style="stroke: #000000; stroke-width: 0.8"/>
      </g>
     </g>
     <g id="text_2">
      <!-- −0.8 -->
      <g transform="translate(83.16375 693.442188) scale(0.1 -0.1)">
       <defs>
        <path id="DejaVuSans-38" d="M 2034 2216 
Q 1584 2216 1326 1975 
Q 1069 1734 1069 1313 
Q 1069 891 1326 650 
Q 1584 409 2034 409 
Q 2484 409 2743 651 
Q 3003 894 3003 1313 
Q 3003 1734 2745 1975 
Q 2488 2216 2034 2216 
z
M 1403 2484 
Q 997 2584 770 2862 
Q 544 3141 544 3541 
Q 544 4100 942 4425 
Q 1341 4750 2034 4750 
Q 2731 4750 3128 4425 
Q 3525 4100 3525 3541 
Q 3525 3141 3298 2862 
Q 3072 2584 2669 2484 
Q 3125 2378 3379 2068 
Q 3634 1759 3634 1313 
Q 3634 634 3220 271 
Q 2806 -91 2034 -91 
Q 1263 -91 848 271 
Q 434 634 434 1313 
Q 434 1759 690 2068 
Q 947 2378 1403 2484 
z
M 1172 3481 
Q 1172 3119 1398 2916 
Q 1625 2713 2034 2713 
Q 2441 2713 2670 2916 
Q 2900 3119 2900 3481 
Q 2900 3844 2670 4047 
Q 2441 4250 2034 4250 
Q 1625 4250 1398 4047 
Q 1172 3844 1172 3481 
z
" transform="scale(0.015625)"/>
       </defs>
       <use xlink:href="#DejaVuSans-2212"/>
       <use xlink:href="#DejaVuSans-30" x="83.789062"/>
       <use xlink:href="#DejaVuSans-2e" x="147.412109"/>
       <use xlink:href="#DejaVuSans-38" x="179.199219"/>
      </g>
     </g>
    </g>
    <g id="xtick_3">
     <g id="line2d_3">
      <g>
       <use xlink:href="#mff69d68f1f" x="162.632188" y="678.84375" style="stroke: #000000; stroke-width: 0.8"/>
      </g>
     </g>
     <g id="text_3">
      <!-- −0.6 -->
      <g transform="translate(150.490781 693.442188) scale(0.1 -0.1)">
       <defs>
        <path id="DejaVuSans-36" d="M 2113 2584 
Q 1688 2584 1439 2293 
Q 1191 2003 1191 1497 
Q 1191 994 1439 701 
Q 1688 409 2113 409 
Q 2538 409 2786 701 
Q 3034 994 3034 1497 
Q 3034 2003 2786 2293 
Q 2538 2584 2113 2584 
z
M 3366 4563 
L 3366 3988 
Q 3128 4100 2886 4159 
Q 2644 4219 2406 4219 
Q 1781 4219 1451 3797 
Q 1122 3375 1075 2522 
Q 1259 2794 1537 2939 
Q 1816 3084 2150 3084 
Q 2853 3084 3261 2657 
Q 3669 2231 3669 1497 
Q 3669 778 3244 343 
Q 2819 -91 2113 -91 
Q 1303 -91 875 529 
Q 447 1150 447 2328 
Q 447 3434 972 4092 
Q 1497 4750 2381 4750 
Q 2619 4750 2861 4703 
Q 3103 4656 3366 4563 
z
" transform="scale(0.015625)"/>
       </defs>
       <use xlink:href="#DejaVuSans-2212"/>
       <use xlink:href="#DejaVuSans-30" x="83.789062"/>
       <use xlink:href="#DejaVuSans-2e" x="147.412109"/>
       <use xlink:href="#DejaVuSans-36" x="179.199219"/>
      </g>
     </g>
    </g>
    <g id="xtick_4">
     <g id="line2d_4">
      <g>
       <use xlink:href="#mff69d68f1f" x="229.959219" y="678.84375" style="stroke: #000000; stroke-width: 0.8"/>
      </g>
     </g>
     <g id="text_4">
      <!-- −0.4 -->
      <g transform="translate(217.817813 693.442188) scale(0.1 -0.1)">
       <defs>
        <path id="DejaVuSans-34" d="M 2419 4116 
L 825 1625 
L 2419 1625 
L 2419 4116 
z
M 2253 4666 
L 3047 4666 
L 3047 1625 
L 3713 1625 
L 3713 1100 
L 3047 1100 
L 3047 0 
L 2419 0 
L 2419 1100 
L 313 1100 
L 313 1709 
L 2253 4666 
z
" transform="scale(0.015625)"/>
       </defs>
       <use xlink:href="#DejaVuSans-2212"/>
       <use xlink:href="#DejaVuSans-30" x="83.789062"/>
       <use xlink:href="#DejaVuSans-2e" x="147.412109"/>
       <use xlink:href="#DejaVuSans-34" x="179.199219"/>
      </g>
     </g>
    </g>
    <g id="xtick_5">
     <g id="line2d_5">
      <g>
       <use xlink:href="#mff69d68f1f" x="297.28625" y="678.84375" style="stroke: #000000; stroke-width: 0.8"/>
      </g>
     </g>
     <g id="text_5">
      <!-- −0.2 -->
      <g transform="translate(285.144844 693.442188) scale(0.1 -0.1)">
       <defs>
        <path id="DejaVuSans-32" d="M 1228 531 
L 3431 531 
L 3431 0 
L 469 0 
L 469 531 
Q 828 903 1448 1529 
Q 2069 2156 2228 2338 
Q 2531 2678 2651 2914 
Q 2772 3150 2772 3378 
Q 2772 3750 2511 3984 
Q 2250 4219 1831 4219 
Q 1534 4219 1204 4116 
Q 875 4013 500 3803 
L 500 4441 
Q 881 4594 1212 4672 
Q 1544 4750 1819 4750 
Q 2544 4750 2975 4387 
Q 3406 4025 3406 3419 
Q 3406 3131 3298 2873 
Q 3191 2616 2906 2266 
Q 2828 2175 2409 1742 
Q 1991 1309 1228 531 
z
" transform="scale(0.015625)"/>
       </defs>
       <use xlink:href="#DejaVuSans-2212"/>
       <use xlink:href="#DejaVuSans-30" x="83.789062"/>
       <use xlink:href="#DejaVuSans-2e" x="147.412109"/>
       <use xlink:href="#DejaVuSans-32" x="179.199219"/>
      </g>
     </g>
    </g>
    <g id="xtick_6">
     <g id="line2d_6">
      <g>
       <use xlink:href="#mff69d68f1f" x="364.613281" y="678.84375" style="stroke: #000000; stroke-width: 0.8"/>
      </g>
     </g>
     <g id="text_6">
      <!-- 0.0 -->
      <g transform="translate(356.661719 693.442188) scale(0.1 -0.1)">
       <use xlink:href="#DejaVuSans-30"/>
       <use xlink:href="#DejaVuSans-2e" x="63.623047"/>
       <use xlink:href="#DejaVuSans-30" x="95.410156"/>
      </g>
     </g>
    </g>
    <g id="xtick_7">
     <g id="line2d_7">
      <g>
       <use xlink:href="#mff69d68f1f" x="431.940313" y="678.84375" style="stroke: #000000; stroke-width: 0.8"/>
      </g>
     </g>
     <g id="text_7">
      <!-- 0.2 -->
      <g transform="translate(423.98875 693.442188) scale(0.1 -0.1)">
       <use xlink:href="#DejaVuSans-30"/>
       <use xlink:href="#DejaVuSans-2e" x="63.623047"/>
       <use xlink:href="#DejaVuSans-32" x="95.410156"/>
      </g>
     </g>
    </g>
    <g id="xtick_8">
     <g id="line2d_8">
      <g>
       <use xlink:href="#mff69d68f1f" x="499.267344" y="678.84375" style="stroke: #000000; stroke-width: 0.8"/>
      </g>
     </g>
     <g id="text_8">
      <!-- 0.4 -->
      <g transform="translate(491.315781 693.442188) scale(0.1 -0.1)">
       <use xlink:href="#DejaVuSans-30"/>
       <use xlink:href="#DejaVuSans-2e" x="63.623047"/>
       <use xlink:href="#DejaVuSans-34" x="95.410156"/>
      </g>
     </g>
    </g>
    <g id="xtick_9">
     <g id="line2d_9">
      <g>
       <use xlink:href="#mff69d68f1f" x="566.594375" y="678.84375" style="stroke: #000000; stroke-width: 0.8"/>
      </g>
     </g>
     <g id="text_9">
      <!-- 0.6 -->
      <g transform="translate(558.642812 693.442188) scale(0.1 -0.1)">
       <use xlink:href="#DejaVuSans-30"/>
       <use xlink:href="#DejaVuSans-2e" x="63.623047"/>
       <use xlink:href="#DejaVuSans-36" x="95.410156"/>
      </g>
     </g>
    </g>
    <g id="xtick_10">
     <g id="line2d_10">
      <g>
       <use xlink:href="#mff69d68f1f" x="633.921406" y="678.84375" style="stroke: #000000; stroke-width: 0.8"/>
      </g>
     </g>
     <g id="text_10">
      <!-- 0.8 -->
      <g transform="translate(625.969844 693.442188) scale(0.1 -0.1)">
       <use xlink:href="#DejaVuSans-30"/>
       <use xlink:href="#DejaVuSans-2e" x="63.623047"/>
       <use xlink:href="#DejaVuSans-38" x="95.410156"/>
      </g>
     </g>
    </g>
    <g id="xtick_11">
     <g id="line2d_11">
      <g>
       <use xlink:href="#mff69d68f1f" x="701.248437" y="678.84375" style="stroke: #000000; stroke-width: 0.8"/>
      </g>
     </g>
     <g id="text_11">
      <!-- 1.0 -->
      <g transform="translate(693.296875 693.442188) scale(0.1 -0.1)">
       <use xlink:href="#DejaVuSans-31"/>
       <use xlink:href="#DejaVuSans-2e" x="63.623047"/>
       <use xlink:href="#DejaVuSans-30" x="95.410156"/>
      </g>
     </g>
    </g>
    <g id="text_12">
     <!-- Silhouette coefficient -->
     <g transform="translate(311.463281 707.120313) scale(0.1 -0.1)">
      <defs>
       <path id="DejaVuSans-53" d="M 3425 4513 
L 3425 3897 
Q 3066 4069 2747 4153 
Q 2428 4238 2131 4238 
Q 1616 4238 1336 4038 
Q 1056 3838 1056 3469 
Q 1056 3159 1242 3001 
Q 1428 2844 1947 2747 
L 2328 2669 
Q 3034 2534 3370 2195 
Q 3706 1856 3706 1288 
Q 3706 609 3251 259 
Q 2797 -91 1919 -91 
Q 1588 -91 1214 -16 
Q 841 59 441 206 
L 441 856 
Q 825 641 1194 531 
Q 1563 422 1919 422 
Q 2459 422 2753 634 
Q 3047 847 3047 1241 
Q 3047 1584 2836 1778 
Q 2625 1972 2144 2069 
L 1759 2144 
Q 1053 2284 737 2584 
Q 422 2884 422 3419 
Q 422 4038 858 4394 
Q 1294 4750 2059 4750 
Q 2388 4750 2728 4690 
Q 3069 4631 3425 4513 
z
" transform="scale(0.015625)"/>
       <path id="DejaVuSans-69" d="M 603 3500 
L 1178 3500 
L 1178 0 
L 603 0 
L 603 3500 
z
M 603 4863 
L 1178 4863 
L 1178 4134 
L 603 4134 
L 603 4863 
z
" transform="scale(0.015625)"/>
       <path id="DejaVuSans-6c" d="M 603 4863 
L 1178 4863 
L 1178 0 
L 603 0 
L 603 4863 
z
" transform="scale(0.015625)"/>
       <path id="DejaVuSans-68" d="M 3513 2113 
L 3513 0 
L 2938 0 
L 2938 2094 
Q 2938 2591 2744 2837 
Q 2550 3084 2163 3084 
Q 1697 3084 1428 2787 
Q 1159 2491 1159 1978 
L 1159 0 
L 581 0 
L 581 4863 
L 1159 4863 
L 1159 2956 
Q 1366 3272 1645 3428 
Q 1925 3584 2291 3584 
Q 2894 3584 3203 3211 
Q 3513 2838 3513 2113 
z
" transform="scale(0.015625)"/>
       <path id="DejaVuSans-6f" d="M 1959 3097 
Q 1497 3097 1228 2736 
Q 959 2375 959 1747 
Q 959 1119 1226 758 
Q 1494 397 1959 397 
Q 2419 397 2687 759 
Q 2956 1122 2956 1747 
Q 2956 2369 2687 2733 
Q 2419 3097 1959 3097 
z
M 1959 3584 
Q 2709 3584 3137 3096 
Q 3566 2609 3566 1747 
Q 3566 888 3137 398 
Q 2709 -91 1959 -91 
Q 1206 -91 779 398 
Q 353 888 353 1747 
Q 353 2609 779 3096 
Q 1206 3584 1959 3584 
z
" transform="scale(0.015625)"/>
       <path id="DejaVuSans-75" d="M 544 1381 
L 544 3500 
L 1119 3500 
L 1119 1403 
Q 1119 906 1312 657 
Q 1506 409 1894 409 
Q 2359 409 2629 706 
Q 2900 1003 2900 1516 
L 2900 3500 
L 3475 3500 
L 3475 0 
L 2900 0 
L 2900 538 
Q 2691 219 2414 64 
Q 2138 -91 1772 -91 
Q 1169 -91 856 284 
Q 544 659 544 1381 
z
M 1991 3584 
L 1991 3584 
z
" transform="scale(0.015625)"/>
       <path id="DejaVuSans-65" d="M 3597 1894 
L 3597 1613 
L 953 1613 
Q 991 1019 1311 708 
Q 1631 397 2203 397 
Q 2534 397 2845 478 
Q 3156 559 3463 722 
L 3463 178 
Q 3153 47 2828 -22 
Q 2503 -91 2169 -91 
Q 1331 -91 842 396 
Q 353 884 353 1716 
Q 353 2575 817 3079 
Q 1281 3584 2069 3584 
Q 2775 3584 3186 3129 
Q 3597 2675 3597 1894 
z
M 3022 2063 
Q 3016 2534 2758 2815 
Q 2500 3097 2075 3097 
Q 1594 3097 1305 2825 
Q 1016 2553 972 2059 
L 3022 2063 
z
" transform="scale(0.015625)"/>
       <path id="DejaVuSans-74" d="M 1172 4494 
L 1172 3500 
L 2356 3500 
L 2356 3053 
L 1172 3053 
L 1172 1153 
Q 1172 725 1289 603 
Q 1406 481 1766 481 
L 2356 481 
L 2356 0 
L 1766 0 
Q 1100 0 847 248 
Q 594 497 594 1153 
L 594 3053 
L 172 3053 
L 172 3500 
L 594 3500 
L 594 4494 
L 1172 4494 
z
" transform="scale(0.015625)"/>
       <path id="DejaVuSans-20" transform="scale(0.015625)"/>
       <path id="DejaVuSans-63" d="M 3122 3366 
L 3122 2828 
Q 2878 2963 2633 3030 
Q 2388 3097 2138 3097 
Q 1578 3097 1268 2742 
Q 959 2388 959 1747 
Q 959 1106 1268 751 
Q 1578 397 2138 397 
Q 2388 397 2633 464 
Q 2878 531 3122 666 
L 3122 134 
Q 2881 22 2623 -34 
Q 2366 -91 2075 -91 
Q 1284 -91 818 406 
Q 353 903 353 1747 
Q 353 2603 823 3093 
Q 1294 3584 2113 3584 
Q 2378 3584 2631 3529 
Q 2884 3475 3122 3366 
z
" transform="scale(0.015625)"/>
       <path id="DejaVuSans-66" d="M 2375 4863 
L 2375 4384 
L 1825 4384 
Q 1516 4384 1395 4259 
Q 1275 4134 1275 3809 
L 1275 3500 
L 2222 3500 
L 2222 3053 
L 1275 3053 
L 1275 0 
L 697 0 
L 697 3053 
L 147 3053 
L 147 3500 
L 697 3500 
L 697 3744 
Q 697 4328 969 4595 
Q 1241 4863 1831 4863 
L 2375 4863 
z
" transform="scale(0.015625)"/>
       <path id="DejaVuSans-6e" d="M 3513 2113 
L 3513 0 
L 2938 0 
L 2938 2094 
Q 2938 2591 2744 2837 
Q 2550 3084 2163 3084 
Q 1697 3084 1428 2787 
Q 1159 2491 1159 1978 
L 1159 0 
L 581 0 
L 581 3500 
L 1159 3500 
L 1159 2956 
Q 1366 3272 1645 3428 
Q 1925 3584 2291 3584 
Q 2894 3584 3203 3211 
Q 3513 2838 3513 2113 
z
" transform="scale(0.015625)"/>
      </defs>
      <use xlink:href="#DejaVuSans-53"/>
      <use xlink:href="#DejaVuSans-69" x="63.476562"/>
      <use xlink:href="#DejaVuSans-6c" x="91.259766"/>
      <use xlink:href="#DejaVuSans-68" x="119.042969"/>
      <use xlink:href="#DejaVuSans-6f" x="182.421875"/>
      <use xlink:href="#DejaVuSans-75" x="243.603516"/>
      <use xlink:href="#DejaVuSans-65" x="306.982422"/>
      <use xlink:href="#DejaVuSans-74" x="368.505859"/>
      <use xlink:href="#DejaVuSans-74" x="407.714844"/>
      <use xlink:href="#DejaVuSans-65" x="446.923828"/>
      <use xlink:href="#DejaVuSans-20" x="508.447266"/>
      <use xlink:href="#DejaVuSans-63" x="540.234375"/>
      <use xlink:href="#DejaVuSans-6f" x="595.214844"/>
      <use xlink:href="#DejaVuSans-65" x="656.396484"/>
      <use xlink:href="#DejaVuSans-66" x="717.919922"/>
      <use xlink:href="#DejaVuSans-66" x="753.125"/>
      <use xlink:href="#DejaVuSans-69" x="788.330078"/>
      <use xlink:href="#DejaVuSans-63" x="816.113281"/>
      <use xlink:href="#DejaVuSans-69" x="871.09375"/>
      <use xlink:href="#DejaVuSans-65" x="898.876953"/>
      <use xlink:href="#DejaVuSans-6e" x="960.400391"/>
      <use xlink:href="#DejaVuSans-74" x="1023.779297"/>
     </g>
    </g>
   </g>
   <g id="matplotlib.axis_2">
    <g id="text_13">
     <!-- Predicted label -->
     <g transform="translate(18.398438 382.441707) rotate(-90) scale(0.1 -0.1)">
      <defs>
       <path id="DejaVuSans-50" d="M 1259 4147 
L 1259 2394 
L 2053 2394 
Q 2494 2394 2734 2622 
Q 2975 2850 2975 3272 
Q 2975 3691 2734 3919 
Q 2494 4147 2053 4147 
L 1259 4147 
z
M 628 4666 
L 2053 4666 
Q 2838 4666 3239 4311 
Q 3641 3956 3641 3272 
Q 3641 2581 3239 2228 
Q 2838 1875 2053 1875 
L 1259 1875 
L 1259 0 
L 628 0 
L 628 4666 
z
" transform="scale(0.015625)"/>
       <path id="DejaVuSans-72" d="M 2631 2963 
Q 2534 3019 2420 3045 
Q 2306 3072 2169 3072 
Q 1681 3072 1420 2755 
Q 1159 2438 1159 1844 
L 1159 0 
L 581 0 
L 581 3500 
L 1159 3500 
L 1159 2956 
Q 1341 3275 1631 3429 
Q 1922 3584 2338 3584 
Q 2397 3584 2469 3576 
Q 2541 3569 2628 3553 
L 2631 2963 
z
" transform="scale(0.015625)"/>
       <path id="DejaVuSans-64" d="M 2906 2969 
L 2906 4863 
L 3481 4863 
L 3481 0 
L 2906 0 
L 2906 525 
Q 2725 213 2448 61 
Q 2172 -91 1784 -91 
Q 1150 -91 751 415 
Q 353 922 353 1747 
Q 353 2572 751 3078 
Q 1150 3584 1784 3584 
Q 2172 3584 2448 3432 
Q 2725 3281 2906 2969 
z
M 947 1747 
Q 947 1113 1208 752 
Q 1469 391 1925 391 
Q 2381 391 2643 752 
Q 2906 1113 2906 1747 
Q 2906 2381 2643 2742 
Q 2381 3103 1925 3103 
Q 1469 3103 1208 2742 
Q 947 2381 947 1747 
z
" transform="scale(0.015625)"/>
       <path id="DejaVuSans-61" d="M 2194 1759 
Q 1497 1759 1228 1600 
Q 959 1441 959 1056 
Q 959 750 1161 570 
Q 1363 391 1709 391 
Q 2188 391 2477 730 
Q 2766 1069 2766 1631 
L 2766 1759 
L 2194 1759 
z
M 3341 1997 
L 3341 0 
L 2766 0 
L 2766 531 
Q 2569 213 2275 61 
Q 1981 -91 1556 -91 
Q 1019 -91 701 211 
Q 384 513 384 1019 
Q 384 1609 779 1909 
Q 1175 2209 1959 2209 
L 2766 2209 
L 2766 2266 
Q 2766 2663 2505 2880 
Q 2244 3097 1772 3097 
Q 1472 3097 1187 3025 
Q 903 2953 641 2809 
L 641 3341 
Q 956 3463 1253 3523 
Q 1550 3584 1831 3584 
Q 2591 3584 2966 3190 
Q 3341 2797 3341 1997 
z
" transform="scale(0.015625)"/>
       <path id="DejaVuSans-62" d="M 3116 1747 
Q 3116 2381 2855 2742 
Q 2594 3103 2138 3103 
Q 1681 3103 1420 2742 
Q 1159 2381 1159 1747 
Q 1159 1113 1420 752 
Q 1681 391 2138 391 
Q 2594 391 2855 752 
Q 3116 1113 3116 1747 
z
M 1159 2969 
Q 1341 3281 1617 3432 
Q 1894 3584 2278 3584 
Q 2916 3584 3314 3078 
Q 3713 2572 3713 1747 
Q 3713 922 3314 415 
Q 2916 -91 2278 -91 
Q 1894 -91 1617 61 
Q 1341 213 1159 525 
L 1159 0 
L 581 0 
L 581 4863 
L 1159 4863 
L 1159 2969 
z
" transform="scale(0.015625)"/>
      </defs>
      <use xlink:href="#DejaVuSans-50"/>
      <use xlink:href="#DejaVuSans-72" x="58.552734"/>
      <use xlink:href="#DejaVuSans-65" x="97.416016"/>
      <use xlink:href="#DejaVuSans-64" x="158.939453"/>
      <use xlink:href="#DejaVuSans-69" x="222.416016"/>
      <use xlink:href="#DejaVuSans-63" x="250.199219"/>
      <use xlink:href="#DejaVuSans-74" x="305.179688"/>
      <use xlink:href="#DejaVuSans-65" x="344.388672"/>
      <use xlink:href="#DejaVuSans-64" x="405.912109"/>
      <use xlink:href="#DejaVuSans-20" x="469.388672"/>
      <use xlink:href="#DejaVuSans-6c" x="501.175781"/>
      <use xlink:href="#DejaVuSans-61" x="528.958984"/>
      <use xlink:href="#DejaVuSans-62" x="590.238281"/>
      <use xlink:href="#DejaVuSans-65" x="653.714844"/>
      <use xlink:href="#DejaVuSans-6c" x="715.238281"/>
     </g>
    </g>
   </g>
   <g id="line2d_12">
    <path d="M 542.68011 678.84375 
L 542.68011 11.734976 
" clip-path="url(#p84f7dddf44)" style="fill: none; stroke: #ff0000; stroke-width: 1.5; stroke-linecap: square"/>
   </g>
   <g id="patch_3">
    <path d="M 27.978125 678.84375 
L 27.978125 11.734976 
" style="fill: none; stroke: #000000; stroke-width: 0.8; stroke-linejoin: miter; stroke-linecap: square"/>
   </g>
   <g id="patch_4">
    <path d="M 701.248437 678.84375 
L 701.248437 11.734976 
" style="fill: none; stroke: #000000; stroke-width: 0.8; stroke-linejoin: miter; stroke-linecap: square"/>
   </g>
   <g id="patch_5">
    <path d="M 27.978125 678.84375 
L 701.248437 678.84375 
" style="fill: none; stroke: #000000; stroke-width: 0.8; stroke-linejoin: miter; stroke-linecap: square"/>
   </g>
   <g id="patch_6">
    <path d="M 27.978125 11.734976 
L 701.248437 11.734976 
" style="fill: none; stroke: #000000; stroke-width: 0.8; stroke-linejoin: miter; stroke-linecap: square"/>
   </g>
   <g id="text_14">
    <!-- 0 -->
    <g transform="translate(347.781523 640.356705) scale(0.1 -0.1)">
     <use xlink:href="#DejaVuSans-30"/>
    </g>
   </g>
   <g id="text_15">
    <!-- 1 -->
    <g transform="translate(347.781523 596.256967) scale(0.1 -0.1)">
     <use xlink:href="#DejaVuSans-31"/>
    </g>
   </g>
   <g id="text_16">
    <!-- 2 -->
    <g transform="translate(347.781523 547.747254) scale(0.1 -0.1)">
     <use xlink:href="#DejaVuSans-32"/>
    </g>
   </g>
   <g id="text_17">
    <!-- 3 -->
    <g transform="translate(347.781523 496.832101) scale(0.1 -0.1)">
     <defs>
      <path id="DejaVuSans-33" d="M 2597 2516 
Q 3050 2419 3304 2112 
Q 3559 1806 3559 1356 
Q 3559 666 3084 287 
Q 2609 -91 1734 -91 
Q 1441 -91 1130 -33 
Q 819 25 488 141 
L 488 750 
Q 750 597 1062 519 
Q 1375 441 1716 441 
Q 2309 441 2620 675 
Q 2931 909 2931 1356 
Q 2931 1769 2642 2001 
Q 2353 2234 1838 2234 
L 1294 2234 
L 1294 2753 
L 1863 2753 
Q 2328 2753 2575 2939 
Q 2822 3125 2822 3475 
Q 2822 3834 2567 4026 
Q 2313 4219 1838 4219 
Q 1578 4219 1281 4162 
Q 984 4106 628 3988 
L 628 4550 
Q 988 4650 1302 4700 
Q 1616 4750 1894 4750 
Q 2613 4750 3031 4423 
Q 3450 4097 3450 3541 
Q 3450 3153 3228 2886 
Q 3006 2619 2597 2516 
z
" transform="scale(0.015625)"/>
     </defs>
     <use xlink:href="#DejaVuSans-33"/>
    </g>
   </g>
   <g id="text_18">
    <!-- 4 -->
    <g transform="translate(347.781523 455.53871) scale(0.1 -0.1)">
     <use xlink:href="#DejaVuSans-34"/>
    </g>
   </g>
   <g id="text_19">
    <!-- 5 -->
    <g transform="translate(347.781523 419.056199) scale(0.1 -0.1)">
     <defs>
      <path id="DejaVuSans-35" d="M 691 4666 
L 3169 4666 
L 3169 4134 
L 1269 4134 
L 1269 2991 
Q 1406 3038 1543 3061 
Q 1681 3084 1819 3084 
Q 2600 3084 3056 2656 
Q 3513 2228 3513 1497 
Q 3513 744 3044 326 
Q 2575 -91 1722 -91 
Q 1428 -91 1123 -41 
Q 819 9 494 109 
L 494 744 
Q 775 591 1075 516 
Q 1375 441 1709 441 
Q 2250 441 2565 725 
Q 2881 1009 2881 1497 
Q 2881 1984 2565 2268 
Q 2250 2553 1709 2553 
Q 1456 2553 1204 2497 
Q 953 2441 691 2322 
L 691 4666 
z
" transform="scale(0.015625)"/>
     </defs>
     <use xlink:href="#DejaVuSans-35"/>
    </g>
   </g>
   <g id="text_20">
    <!-- 6 -->
    <g transform="translate(347.781523 375.357367) scale(0.1 -0.1)">
     <use xlink:href="#DejaVuSans-36"/>
    </g>
   </g>
   <g id="text_21">
    <!-- 7 -->
    <g transform="translate(347.781523 331.658535) scale(0.1 -0.1)">
     <defs>
      <path id="DejaVuSans-37" d="M 525 4666 
L 3525 4666 
L 3525 4397 
L 1831 0 
L 1172 0 
L 2766 4134 
L 525 4134 
L 525 4666 
z
" transform="scale(0.015625)"/>
     </defs>
     <use xlink:href="#DejaVuSans-37"/>
    </g>
   </g>
   <g id="text_22">
    <!-- 8 -->
    <g transform="translate(347.781523 317.6268) scale(0.1 -0.1)">
     <use xlink:href="#DejaVuSans-38"/>
    </g>
   </g>
   <g id="text_23">
    <!-- 9 -->
    <g transform="translate(347.781523 273.126154) scale(0.1 -0.1)">
     <defs>
      <path id="DejaVuSans-39" d="M 703 97 
L 703 672 
Q 941 559 1184 500 
Q 1428 441 1663 441 
Q 2288 441 2617 861 
Q 2947 1281 2994 2138 
Q 2813 1869 2534 1725 
Q 2256 1581 1919 1581 
Q 1219 1581 811 2004 
Q 403 2428 403 3163 
Q 403 3881 828 4315 
Q 1253 4750 1959 4750 
Q 2769 4750 3195 4129 
Q 3622 3509 3622 2328 
Q 3622 1225 3098 567 
Q 2575 -91 1691 -91 
Q 1453 -91 1209 -44 
Q 966 3 703 97 
z
M 1959 2075 
Q 2384 2075 2632 2365 
Q 2881 2656 2881 3163 
Q 2881 3666 2632 3958 
Q 2384 4250 1959 4250 
Q 1534 4250 1286 3958 
Q 1038 3666 1038 3163 
Q 1038 2656 1286 2365 
Q 1534 2075 1959 2075 
z
" transform="scale(0.015625)"/>
     </defs>
     <use xlink:href="#DejaVuSans-39"/>
    </g>
   </g>
   <g id="text_24">
    <!-- 10 -->
    <g transform="translate(347.781523 227.823695) scale(0.1 -0.1)">
     <use xlink:href="#DejaVuSans-31"/>
     <use xlink:href="#DejaVuSans-30" x="63.623047"/>
    </g>
   </g>
   <g id="text_25">
    <!-- 11 -->
    <g transform="translate(347.781523 135.615151) scale(0.1 -0.1)">
     <use xlink:href="#DejaVuSans-31"/>
     <use xlink:href="#DejaVuSans-31" x="63.623047"/>
    </g>
   </g>
   <g id="text_26">
    <!-- 12 -->
    <g transform="translate(347.781523 43.406606) scale(0.1 -0.1)">
     <use xlink:href="#DejaVuSans-31"/>
     <use xlink:href="#DejaVuSans-32" x="63.623047"/>
    </g>
   </g>
   <g id="text_27">
    <!-- 13 -->
    <g transform="translate(347.781523 30.577592) scale(0.1 -0.1)">
     <use xlink:href="#DejaVuSans-31"/>
     <use xlink:href="#DejaVuSans-33" x="63.623047"/>
    </g>
   </g>
   <g id="text_28">
    <!-- 14 -->
    <g transform="translate(347.781523 20.554924) scale(0.1 -0.1)">
     <use xlink:href="#DejaVuSans-31"/>
     <use xlink:href="#DejaVuSans-34" x="63.623047"/>
    </g>
   </g>
   <g id="text_29">
    <!-- 0.5290 -->
    <g style="fill: #ff0000" transform="translate(559.511867 19.75311) scale(0.1 -0.1)">
     <use xlink:href="#DejaVuSans-30"/>
     <use xlink:href="#DejaVuSans-2e" x="63.623047"/>
     <use xlink:href="#DejaVuSans-35" x="95.410156"/>
     <use xlink:href="#DejaVuSans-32" x="159.033203"/>
     <use xlink:href="#DejaVuSans-39" x="222.65625"/>
     <use xlink:href="#DejaVuSans-30" x="286.279297"/>
    </g>
   </g>
  </g>
 </g>
 <defs>
  <clipPath id="p84f7dddf44">
   <rect x="27.978125" y="11.734976" width="673.270312" height="667.108774"/>
  </clipPath>
 </defs>
</svg>
