<?xml version="1.0" encoding="utf-8" standalone="no"?>
<!DOCTYPE svg PUBLIC "-//W3C//DTD SVG 1.1//EN"
  "http://www.w3.org/Graphics/SVG/1.1/DTD/svg11.dtd">
<svg xmlns:xlink="http://www.w3.org/1999/xlink" width="720pt" height="432pt" viewBox="0 0 720 432" xmlns="http://www.w3.org/2000/svg" version="1.1">
 <metadata>
  <rdf:RDF xmlns:dc="http://purl.org/dc/elements/1.1/" xmlns:cc="http://creativecommons.org/ns#" xmlns:rdf="http://www.w3.org/1999/02/22-rdf-syntax-ns#">
   <cc:Work>
    <dc:type rdf:resource="http://purl.org/dc/dcmitype/StillImage"/>
    <dc:date>2022-11-03T12:28:04.424271</dc:date>
    <dc:format>image/svg+xml</dc:format>
    <dc:creator>
     <cc:Agent>
      <dc:title>Matplotlib v3.6.1, https://matplotlib.org/</dc:title>
     </cc:Agent>
    </dc:creator>
   </cc:Work>
  </rdf:RDF>
 </metadata>
 <defs>
  <style type="text/css">*{stroke-linejoin: round; stroke-linecap: butt}</style>
 </defs>
 <g id="figure_1">
  <g id="patch_1">
   <path d="M 0 432 
L 720 432 
L 720 0 
L 0 0 
z
" style="fill: #ffffff"/>
  </g>
  <g id="axes_1">
   <g id="patch_2">
    <path d="M 27.978125 390.84375 
L 701.248437 390.84375 
L 701.248437 14.447844 
L 27.978125 14.447844 
z
" style="fill: #ffffff"/>
   </g>
   <g id="PolyCollection_1">
    <defs>
     <path id="m3ec6e03990" d="M 383.128304 -45.62651 
L 364.613281 -45.62651 
L 364.613281 -46.073536 
L 364.613281 -46.520562 
L 364.613281 -46.967588 
L 364.613281 -47.414614 
L 364.613281 -47.86164 
L 364.613281 -48.308666 
L 364.613281 -48.755692 
L 364.613281 -49.202718 
L 364.613281 -49.649744 
L 364.613281 -50.09677 
L 364.613281 -50.543796 
L 364.613281 -50.990822 
L 364.613281 -51.437848 
L 364.613281 -51.884874 
L 364.613281 -52.3319 
L 364.613281 -52.778926 
L 364.613281 -53.225952 
L 364.613281 -53.672978 
L 364.613281 -54.120004 
L 364.613281 -54.567031 
L 364.613281 -55.014057 
L 364.613281 -55.461083 
L 364.613281 -55.908109 
L 364.613281 -56.355135 
L 364.613281 -56.802161 
L 364.613281 -57.249187 
L 364.613281 -57.696213 
L 364.613281 -58.143239 
L 364.613281 -58.590265 
L 364.613281 -59.037291 
L 364.613281 -59.484317 
L 364.613281 -59.931343 
L 364.613281 -60.378369 
L 364.613281 -60.825395 
L 364.613281 -61.272421 
L 364.613281 -61.719447 
L 364.613281 -62.166473 
L 364.613281 -62.613499 
L 364.613281 -63.060525 
L 364.613281 -63.507551 
L 364.613281 -63.954577 
L 364.613281 -64.401603 
L 364.613281 -64.848629 
L 364.613281 -65.295655 
L 364.613281 -65.742681 
L 364.613281 -66.189707 
L 364.613281 -66.636733 
L 364.613281 -67.083759 
L 364.613281 -67.530785 
L 364.613281 -67.977811 
L 364.613281 -68.424837 
L 364.613281 -68.871863 
L 364.613281 -69.318889 
L 364.613281 -69.765915 
L 364.613281 -70.212941 
L 364.613281 -70.659967 
L 364.613281 -71.106993 
L 364.613281 -71.554019 
L 364.613281 -72.001045 
L 364.613281 -72.448071 
L 364.613281 -72.895097 
L 364.613281 -73.342123 
L 364.613281 -73.789149 
L 364.613281 -74.236175 
L 364.613281 -74.683201 
L 364.613281 -75.130227 
L 364.613281 -75.577253 
L 364.613281 -76.024279 
L 364.613281 -76.471305 
L 364.613281 -76.918331 
L 364.613281 -77.365357 
L 364.613281 -77.812383 
L 364.613281 -78.259409 
L 364.613281 -78.706435 
L 364.613281 -79.153461 
L 364.613281 -79.600487 
L 364.613281 -80.047513 
L 364.613281 -80.494539 
L 364.613281 -80.941566 
L 364.613281 -81.388592 
L 364.613281 -81.835618 
L 364.613281 -82.282644 
L 364.613281 -82.72967 
L 364.613281 -83.176696 
L 364.613281 -83.623722 
L 364.613281 -84.070748 
L 592.363088 -84.070748 
L 592.363088 -84.070748 
L 590.273875 -83.623722 
L 590.248202 -83.176696 
L 589.759283 -82.72967 
L 588.645979 -82.282644 
L 588.459195 -81.835618 
L 588.378344 -81.388592 
L 588.040598 -80.941566 
L 587.828897 -80.494539 
L 587.509141 -80.047513 
L 586.946708 -79.600487 
L 586.413057 -79.153461 
L 586.365807 -78.706435 
L 586.271418 -78.259409 
L 585.578917 -77.812383 
L 585.440325 -77.365357 
L 585.346235 -76.918331 
L 585.142468 -76.471305 
L 584.98883 -76.024279 
L 584.13723 -75.577253 
L 583.591913 -75.130227 
L 583.584845 -74.683201 
L 583.570826 -74.236175 
L 583.507622 -73.789149 
L 582.867125 -73.342123 
L 582.786894 -72.895097 
L 581.569123 -72.448071 
L 581.455271 -72.001045 
L 581.219385 -71.554019 
L 580.208939 -71.106993 
L 580.208216 -70.659967 
L 579.950703 -70.212941 
L 579.774972 -69.765915 
L 579.677742 -69.318889 
L 579.334918 -68.871863 
L 578.954624 -68.424837 
L 578.717249 -67.977811 
L 578.20741 -67.530785 
L 577.28825 -67.083759 
L 576.807962 -66.636733 
L 575.712483 -66.189707 
L 575.357232 -65.742681 
L 574.895531 -65.295655 
L 574.772454 -64.848629 
L 574.744257 -64.401603 
L 574.35601 -63.954577 
L 573.953474 -63.507551 
L 573.664084 -63.060525 
L 573.566106 -62.613499 
L 573.111367 -62.166473 
L 573.090392 -61.719447 
L 572.859284 -61.272421 
L 572.580786 -60.825395 
L 572.309872 -60.378369 
L 571.772937 -59.931343 
L 570.715812 -59.484317 
L 569.051181 -59.037291 
L 567.652834 -58.590265 
L 566.410728 -58.143239 
L 566.088522 -57.696213 
L 565.751315 -57.249187 
L 565.551961 -56.802161 
L 565.19479 -56.355135 
L 564.859697 -55.908109 
L 563.958092 -55.461083 
L 561.861859 -55.014057 
L 561.545876 -54.567031 
L 561.221477 -54.120004 
L 561.099552 -53.672978 
L 560.952952 -53.225952 
L 560.584018 -52.778926 
L 559.703735 -52.3319 
L 555.298088 -51.884874 
L 554.348638 -51.437848 
L 554.254472 -50.990822 
L 553.171959 -50.543796 
L 545.128884 -50.09677 
L 538.346916 -49.649744 
L 531.004572 -49.202718 
L 519.653896 -48.755692 
L 513.485636 -48.308666 
L 512.58825 -47.86164 
L 501.500126 -47.414614 
L 496.530818 -46.967588 
L 492.249905 -46.520562 
L 462.697764 -46.073536 
L 383.128304 -45.62651 
z
" style="stroke: #000000; stroke-opacity: 0.7"/>
    </defs>
    <g clip-path="url(#paa2cb4a809)">
     <use xlink:href="#m3ec6e03990" x="0" y="432" style="fill-opacity: 0.7; stroke: #000000; stroke-opacity: 0.7"/>
    </g>
   </g>
   <g id="PolyCollection_2">
    <defs>
     <path id="m7cbc3599fa" d="M 300.018715 -88.988034 
L 364.613281 -88.988034 
L 364.613281 -89.43506 
L 364.613281 -89.882086 
L 364.613281 -90.329112 
L 364.613281 -90.776138 
L 364.613281 -91.223164 
L 364.613281 -91.67019 
L 364.613281 -92.117216 
L 364.613281 -92.564242 
L 364.613281 -93.011268 
L 364.613281 -93.458294 
L 364.613281 -93.90532 
L 364.613281 -94.352346 
L 364.613281 -94.799372 
L 364.613281 -95.246398 
L 364.613281 -95.693424 
L 364.613281 -96.14045 
L 364.613281 -96.587476 
L 364.613281 -97.034502 
L 364.613281 -97.481528 
L 364.613281 -97.928554 
L 364.613281 -98.37558 
L 364.613281 -98.822606 
L 364.613281 -99.269632 
L 364.613281 -99.716658 
L 364.613281 -100.163684 
L 364.613281 -100.61071 
L 364.613281 -101.057736 
L 364.613281 -101.504762 
L 364.613281 -101.951788 
L 364.613281 -102.398814 
L 364.613281 -102.84584 
L 364.613281 -103.292866 
L 364.613281 -103.739892 
L 364.613281 -104.186918 
L 364.613281 -104.633944 
L 364.613281 -105.08097 
L 364.613281 -105.527996 
L 364.613281 -105.975022 
L 364.613281 -106.422048 
L 364.613281 -106.869075 
L 364.613281 -107.316101 
L 364.613281 -107.763127 
L 364.613281 -108.210153 
L 364.613281 -108.657179 
L 364.613281 -109.104205 
L 364.613281 -109.551231 
L 364.613281 -109.998257 
L 364.613281 -110.445283 
L 364.613281 -110.892309 
L 364.613281 -111.339335 
L 364.613281 -111.786361 
L 364.613281 -112.233387 
L 364.613281 -112.680413 
L 364.613281 -113.127439 
L 364.613281 -113.574465 
L 364.613281 -114.021491 
L 364.613281 -114.468517 
L 364.613281 -114.915543 
L 364.613281 -115.362569 
L 364.613281 -115.809595 
L 364.613281 -116.256621 
L 364.613281 -116.703647 
L 364.613281 -117.150673 
L 364.613281 -117.597699 
L 364.613281 -118.044725 
L 364.613281 -118.491751 
L 364.613281 -118.938777 
L 364.613281 -119.385803 
L 364.613281 -119.832829 
L 364.613281 -120.279855 
L 364.613281 -120.726881 
L 364.613281 -121.173907 
L 364.613281 -121.620933 
L 364.613281 -122.067959 
L 364.613281 -122.514985 
L 364.613281 -122.962011 
L 364.613281 -123.409037 
L 364.613281 -123.856063 
L 364.613281 -124.303089 
L 364.613281 -124.750115 
L 364.613281 -125.197141 
L 364.613281 -125.644167 
L 364.613281 -126.091193 
L 364.613281 -126.538219 
L 364.613281 -126.985245 
L 364.613281 -127.432271 
L 364.613281 -127.879297 
L 364.613281 -128.326323 
L 364.613281 -128.773349 
L 364.613281 -129.220375 
L 364.613281 -129.667401 
L 364.613281 -130.114427 
L 364.613281 -130.561453 
L 364.613281 -131.008479 
L 364.613281 -131.455505 
L 364.613281 -131.902531 
L 364.613281 -132.349557 
L 364.613281 -132.796583 
L 364.613281 -133.24361 
L 364.613281 -133.690636 
L 581.756529 -133.690636 
L 581.756529 -133.690636 
L 578.582895 -133.24361 
L 577.808999 -132.796583 
L 576.897063 -132.349557 
L 575.0024 -131.902531 
L 572.495779 -131.455505 
L 571.748717 -131.008479 
L 570.994882 -130.561453 
L 570.245262 -130.114427 
L 569.623144 -129.667401 
L 568.839567 -129.220375 
L 567.74747 -128.773349 
L 565.769307 -128.326323 
L 565.766546 -127.879297 
L 565.036456 -127.432271 
L 564.945098 -126.985245 
L 564.851309 -126.538219 
L 563.672082 -126.091193 
L 561.218932 -125.644167 
L 559.018787 -125.197141 
L 558.80805 -124.750115 
L 558.503197 -124.303089 
L 558.235743 -123.856063 
L 556.542565 -123.409037 
L 556.147989 -122.962011 
L 555.548642 -122.514985 
L 555.442068 -122.067959 
L 554.712455 -121.620933 
L 554.558357 -121.173907 
L 552.755732 -120.726881 
L 552.239696 -120.279855 
L 551.002847 -119.832829 
L 550.893208 -119.385803 
L 550.855606 -118.938777 
L 549.617493 -118.491751 
L 549.53125 -118.044725 
L 549.217723 -117.597699 
L 546.89366 -117.150673 
L 546.732359 -116.703647 
L 545.289533 -116.256621 
L 543.502577 -115.809595 
L 543.055128 -115.362569 
L 542.208538 -114.915543 
L 541.164976 -114.468517 
L 539.776462 -114.021491 
L 539.501743 -113.574465 
L 537.925027 -113.127439 
L 537.466405 -112.680413 
L 536.786809 -112.233387 
L 535.62007 -111.786361 
L 535.139408 -111.339335 
L 535.075037 -110.892309 
L 525.60617 -110.445283 
L 525.334855 -109.998257 
L 524.646672 -109.551231 
L 523.193587 -109.104205 
L 522.034869 -108.657179 
L 520.151787 -108.210153 
L 519.793112 -107.763127 
L 516.679063 -107.316101 
L 516.293992 -106.869075 
L 515.158055 -106.422048 
L 512.035556 -105.975022 
L 508.179677 -105.527996 
L 503.537434 -105.08097 
L 499.87114 -104.633944 
L 493.826751 -104.186918 
L 492.483801 -103.739892 
L 492.2683 -103.292866 
L 490.310333 -102.84584 
L 482.800894 -102.398814 
L 479.204394 -101.951788 
L 477.599568 -101.504762 
L 476.193459 -101.057736 
L 472.84192 -100.61071 
L 469.69663 -100.163684 
L 465.450935 -99.716658 
L 462.438228 -99.269632 
L 458.930318 -98.822606 
L 458.303328 -98.37558 
L 452.461639 -97.928554 
L 449.959276 -97.481528 
L 447.538053 -97.034502 
L 442.183682 -96.587476 
L 438.355105 -96.14045 
L 435.299455 -95.693424 
L 420.228385 -95.246398 
L 419.768246 -94.799372 
L 417.039174 -94.352346 
L 407.153392 -93.90532 
L 402.644831 -93.458294 
L 399.024473 -93.011268 
L 396.895031 -92.564242 
L 396.426731 -92.117216 
L 387.60619 -91.67019 
L 381.221969 -91.223164 
L 370.240786 -90.776138 
L 346.715879 -90.329112 
L 329.538185 -89.882086 
L 306.594108 -89.43506 
L 300.018715 -88.988034 
z
" style="stroke: #7b008c; stroke-opacity: 0.7"/>
    </defs>
    <g clip-path="url(#paa2cb4a809)">
     <use xlink:href="#m7cbc3599fa" x="0" y="432" style="fill: #7b008c; fill-opacity: 0.7; stroke: #7b008c; stroke-opacity: 0.7"/>
    </g>
   </g>
   <g id="PolyCollection_3">
    <defs>
     <path id="m2159be1c06" d="M 370.012312 -138.607922 
L 364.613281 -138.607922 
L 364.613281 -139.054948 
L 364.613281 -139.501974 
L 450.862312 -139.501974 
L 450.862312 -139.501974 
L 445.578611 -139.054948 
L 370.012312 -138.607922 
z
" style="stroke: #4300a2; stroke-opacity: 0.7"/>
    </defs>
    <g clip-path="url(#paa2cb4a809)">
     <use xlink:href="#m2159be1c06" x="0" y="432" style="fill: #4300a2; fill-opacity: 0.7; stroke: #4300a2; stroke-opacity: 0.7"/>
    </g>
   </g>
   <g id="PolyCollection_4">
    <defs>
     <path id="m2a711c62ce" d="M 462.807657 -144.41926 
L 364.613281 -144.41926 
L 364.613281 -144.866286 
L 364.613281 -145.313312 
L 364.613281 -145.760338 
L 364.613281 -146.207364 
L 364.613281 -146.65439 
L 364.613281 -147.101416 
L 364.613281 -147.548442 
L 364.613281 -147.995468 
L 364.613281 -148.442494 
L 364.613281 -148.88952 
L 364.613281 -149.336546 
L 364.613281 -149.783572 
L 364.613281 -150.230598 
L 527.708313 -150.230598 
L 527.708313 -150.230598 
L 525.34331 -149.783572 
L 522.036162 -149.336546 
L 521.551162 -148.88952 
L 521.008467 -148.442494 
L 519.847837 -147.995468 
L 514.768917 -147.548442 
L 514.553701 -147.101416 
L 508.61832 -146.65439 
L 504.460769 -146.207364 
L 485.579235 -145.760338 
L 485.579235 -145.313312 
L 482.98078 -144.866286 
L 462.807657 -144.41926 
z
" style="stroke: #0000d1; stroke-opacity: 0.7"/>
    </defs>
    <g clip-path="url(#paa2cb4a809)">
     <use xlink:href="#m2a711c62ce" x="0" y="432" style="fill: #0000d1; fill-opacity: 0.7; stroke: #0000d1; stroke-opacity: 0.7"/>
    </g>
   </g>
   <g id="PolyCollection_5">
    <defs>
     <path id="md1fe590120" d="M 466.692195 -155.147884 
L 364.613281 -155.147884 
L 364.613281 -155.59491 
L 364.613281 -156.041936 
L 364.613281 -156.488962 
L 364.613281 -156.935988 
L 364.613281 -157.383014 
L 364.613281 -157.83004 
L 364.613281 -158.277066 
L 364.613281 -158.724092 
L 364.613281 -159.171118 
L 364.613281 -159.618145 
L 364.613281 -160.065171 
L 364.613281 -160.512197 
L 364.613281 -160.959223 
L 364.613281 -161.406249 
L 364.613281 -161.853275 
L 364.613281 -162.300301 
L 364.613281 -162.747327 
L 364.613281 -163.194353 
L 364.613281 -163.641379 
L 364.613281 -164.088405 
L 364.613281 -164.535431 
L 364.613281 -164.982457 
L 364.613281 -165.429483 
L 364.613281 -165.876509 
L 364.613281 -166.323535 
L 364.613281 -166.770561 
L 364.613281 -167.217587 
L 364.613281 -167.664613 
L 364.613281 -168.111639 
L 364.613281 -168.558665 
L 364.613281 -169.005691 
L 364.613281 -169.452717 
L 364.613281 -169.899743 
L 364.613281 -170.346769 
L 364.613281 -170.793795 
L 364.613281 -171.240821 
L 364.613281 -171.687847 
L 364.613281 -172.134873 
L 364.613281 -172.581899 
L 364.613281 -173.028925 
L 364.613281 -173.475951 
L 364.613281 -173.922977 
L 364.613281 -174.370003 
L 364.613281 -174.817029 
L 364.613281 -175.264055 
L 630.020794 -175.264055 
L 630.020794 -175.264055 
L 629.765724 -174.817029 
L 627.104329 -174.370003 
L 626.614614 -173.922977 
L 624.179467 -173.475951 
L 621.73303 -173.028925 
L 621.691811 -172.581899 
L 621.491851 -172.134873 
L 620.542712 -171.687847 
L 618.189685 -171.240821 
L 618.073654 -170.793795 
L 616.21062 -170.346769 
L 614.806844 -169.899743 
L 613.411836 -169.452717 
L 613.061898 -169.005691 
L 612.063487 -168.558665 
L 612.063487 -168.111639 
L 611.106719 -167.664613 
L 609.938432 -167.217587 
L 608.955844 -166.770561 
L 605.529077 -166.323535 
L 605.042176 -165.876509 
L 603.682969 -165.429483 
L 602.738264 -164.982457 
L 602.27696 -164.535431 
L 601.628069 -164.088405 
L 600.512339 -163.641379 
L 598.069783 -163.194353 
L 597.39721 -162.747327 
L 597.035584 -162.300301 
L 596.97064 -161.853275 
L 592.287575 -161.406249 
L 591.917107 -160.959223 
L 591.117455 -160.512197 
L 583.380239 -160.065171 
L 579.768552 -159.618145 
L 577.69826 -159.171118 
L 576.926007 -158.724092 
L 575.685157 -158.277066 
L 571.729913 -157.83004 
L 564.854375 -157.383014 
L 563.303754 -156.935988 
L 558.565456 -156.488962 
L 509.151797 -156.041936 
L 481.644761 -155.59491 
L 466.692195 -155.147884 
z
" style="stroke: #0078dd; stroke-opacity: 0.7"/>
    </defs>
    <g clip-path="url(#paa2cb4a809)">
     <use xlink:href="#md1fe590120" x="0" y="432" style="fill: #0078dd; fill-opacity: 0.7; stroke: #0078dd; stroke-opacity: 0.7"/>
    </g>
   </g>
   <g id="PolyCollection_6">
    <defs>
     <path id="m0c832a7f50" d="M 441.907462 -180.181341 
L 364.613281 -180.181341 
L 364.613281 -180.628367 
L 364.613281 -181.075393 
L 364.613281 -181.522419 
L 364.613281 -181.969445 
L 364.613281 -182.416471 
L 364.613281 -182.863497 
L 364.613281 -183.310523 
L 364.613281 -183.757549 
L 558.851442 -183.757549 
L 558.851442 -183.757549 
L 555.807856 -183.310523 
L 552.975701 -182.863497 
L 548.37072 -182.416471 
L 539.448505 -181.969445 
L 506.251311 -181.522419 
L 503.692109 -181.075393 
L 490.482104 -180.628367 
L 441.907462 -180.181341 
z
" style="stroke: #009ecf; stroke-opacity: 0.7"/>
    </defs>
    <g clip-path="url(#paa2cb4a809)">
     <use xlink:href="#m0c832a7f50" x="0" y="432" style="fill: #009ecf; fill-opacity: 0.7; stroke: #009ecf; stroke-opacity: 0.7"/>
    </g>
   </g>
   <g id="PolyCollection_7">
    <defs>
     <path id="mad32cd00fa" d="M 349.495145 -188.674836 
L 364.613281 -188.674836 
L 364.613281 -189.121862 
L 364.613281 -189.568888 
L 364.613281 -190.015914 
L 364.613281 -190.46294 
L 364.613281 -190.909966 
L 364.613281 -191.356992 
L 364.613281 -191.804018 
L 364.613281 -192.251044 
L 364.613281 -192.69807 
L 364.613281 -193.145096 
L 364.613281 -193.592122 
L 364.613281 -194.039148 
L 364.613281 -194.486174 
L 364.613281 -194.9332 
L 364.613281 -195.380226 
L 364.613281 -195.827252 
L 364.613281 -196.274278 
L 364.613281 -196.721304 
L 364.613281 -197.16833 
L 364.613281 -197.615356 
L 364.613281 -198.062382 
L 364.613281 -198.509408 
L 364.613281 -198.956434 
L 364.613281 -199.40346 
L 364.613281 -199.850486 
L 364.613281 -200.297512 
L 364.613281 -200.744538 
L 364.613281 -201.191564 
L 364.613281 -201.63859 
L 364.613281 -202.085616 
L 364.613281 -202.532642 
L 364.613281 -202.979668 
L 364.613281 -203.426694 
L 364.613281 -203.87372 
L 364.613281 -204.320746 
L 364.613281 -204.767772 
L 364.613281 -205.214798 
L 364.613281 -205.661824 
L 364.613281 -206.10885 
L 364.613281 -206.555876 
L 364.613281 -207.002902 
L 364.613281 -207.449928 
L 364.613281 -207.896954 
L 364.613281 -208.34398 
L 364.613281 -208.791006 
L 364.613281 -209.238032 
L 364.613281 -209.685058 
L 364.613281 -210.132084 
L 364.613281 -210.57911 
L 364.613281 -211.026136 
L 364.613281 -211.473162 
L 364.613281 -211.920188 
L 364.613281 -212.367215 
L 364.613281 -212.814241 
L 364.613281 -213.261267 
L 364.613281 -213.708293 
L 364.613281 -214.155319 
L 364.613281 -214.602345 
L 364.613281 -215.049371 
L 364.613281 -215.496397 
L 364.613281 -215.943423 
L 364.613281 -216.390449 
L 364.613281 -216.837475 
L 364.613281 -217.284501 
L 364.613281 -217.731527 
L 569.020549 -217.731527 
L 569.020549 -217.731527 
L 565.217962 -217.284501 
L 559.700473 -216.837475 
L 559.170726 -216.390449 
L 558.545918 -215.943423 
L 558.351161 -215.496397 
L 555.121921 -215.049371 
L 552.801817 -214.602345 
L 551.975341 -214.155319 
L 551.410777 -213.708293 
L 547.760076 -213.261267 
L 546.135642 -212.814241 
L 544.812428 -212.367215 
L 544.719991 -211.920188 
L 543.189145 -211.473162 
L 543.052048 -211.026136 
L 543.052048 -210.57911 
L 542.901305 -210.132084 
L 542.589769 -209.685058 
L 542.57708 -209.238032 
L 542.325911 -208.791006 
L 541.421761 -208.34398 
L 541.225804 -207.896954 
L 541.020511 -207.449928 
L 538.049141 -207.002902 
L 536.591233 -206.555876 
L 534.491542 -206.10885 
L 534.165472 -205.661824 
L 533.188058 -205.214798 
L 533.170787 -204.767772 
L 532.136509 -204.320746 
L 532.104217 -203.87372 
L 529.317977 -203.426694 
L 522.82391 -202.979668 
L 521.706591 -202.532642 
L 521.647369 -202.085616 
L 519.593509 -201.63859 
L 518.128367 -201.191564 
L 513.242544 -200.744538 
L 504.63674 -200.297512 
L 504.228177 -199.850486 
L 501.946041 -199.40346 
L 500.701013 -198.956434 
L 499.362333 -198.509408 
L 496.710345 -198.062382 
L 496.483675 -197.615356 
L 495.933164 -197.16833 
L 493.933615 -196.721304 
L 489.119096 -196.274278 
L 488.812042 -195.827252 
L 488.252197 -195.380226 
L 488.119036 -194.9332 
L 487.114008 -194.486174 
L 486.146424 -194.039148 
L 479.9146 -193.592122 
L 473.193073 -193.145096 
L 471.971255 -192.69807 
L 463.567787 -192.251044 
L 459.769443 -191.804018 
L 454.670208 -191.356992 
L 451.171362 -190.909966 
L 412.471079 -190.46294 
L 410.740052 -190.015914 
L 371.333896 -189.568888 
L 363.616517 -189.121862 
L 349.495145 -188.674836 
z
" style="stroke: #00aa98; stroke-opacity: 0.7"/>
    </defs>
    <g clip-path="url(#paa2cb4a809)">
     <use xlink:href="#mad32cd00fa" x="0" y="432" style="fill: #00aa98; fill-opacity: 0.7; stroke: #00aa98; stroke-opacity: 0.7"/>
    </g>
   </g>
   <g id="PolyCollection_8">
    <defs>
     <path id="m3f061470d9" d="M 600.233415 -222.648813 
L 364.613281 -222.648813 
L 364.613281 -223.095839 
L 364.613281 -223.542865 
L 364.613281 -223.989891 
L 364.613281 -224.436917 
L 364.613281 -224.883943 
L 364.613281 -225.330969 
L 364.613281 -225.777995 
L 640.704278 -225.777995 
L 640.704278 -225.777995 
L 635.989321 -225.330969 
L 635.019785 -224.883943 
L 629.027891 -224.436917 
L 624.942587 -223.989891 
L 622.737686 -223.542865 
L 602.141121 -223.095839 
L 600.233415 -222.648813 
z
" style="stroke: #009d1d; stroke-opacity: 0.7"/>
    </defs>
    <g clip-path="url(#paa2cb4a809)">
     <use xlink:href="#m3f061470d9" x="0" y="432" style="fill: #009d1d; fill-opacity: 0.7; stroke: #009d1d; stroke-opacity: 0.7"/>
    </g>
   </g>
   <g id="PolyCollection_9">
    <defs>
     <path id="m676aefa4d0" d="M 370.760077 -230.695281 
L 364.613281 -230.695281 
L 364.613281 -231.142307 
L 364.613281 -231.589333 
L 364.613281 -232.036359 
L 364.613281 -232.483385 
L 364.613281 -232.930411 
L 364.613281 -233.377437 
L 364.613281 -233.824463 
L 364.613281 -234.271489 
L 364.613281 -234.718515 
L 364.613281 -235.165541 
L 364.613281 -235.612567 
L 364.613281 -236.059593 
L 364.613281 -236.506619 
L 364.613281 -236.953645 
L 364.613281 -237.400671 
L 364.613281 -237.847697 
L 364.613281 -238.294724 
L 364.613281 -238.74175 
L 364.613281 -239.188776 
L 547.418649 -239.188776 
L 547.418649 -239.188776 
L 543.456153 -238.74175 
L 543.272091 -238.294724 
L 536.410581 -237.847697 
L 535.447649 -237.400671 
L 534.485655 -236.953645 
L 533.147295 -236.506619 
L 532.008735 -236.059593 
L 531.204605 -235.612567 
L 530.728779 -235.165541 
L 507.56237 -234.718515 
L 505.867344 -234.271489 
L 505.560985 -233.824463 
L 499.11206 -233.377437 
L 499.06127 -232.930411 
L 487.831434 -232.483385 
L 486.194089 -232.036359 
L 484.986081 -231.589333 
L 468.288115 -231.142307 
L 370.760077 -230.695281 
z
" style="stroke: #00bc00; stroke-opacity: 0.7"/>
    </defs>
    <g clip-path="url(#paa2cb4a809)">
     <use xlink:href="#m676aefa4d0" x="0" y="432" style="fill: #00bc00; fill-opacity: 0.7; stroke: #00bc00; stroke-opacity: 0.7"/>
    </g>
   </g>
   <g id="PolyCollection_10">
    <defs>
     <path id="me64a270b92" d="M 328.86151 -244.106062 
L 364.613281 -244.106062 
L 364.613281 -244.553088 
L 364.613281 -245.000114 
L 364.613281 -245.44714 
L 364.613281 -245.894166 
L 364.613281 -246.341192 
L 364.613281 -246.788218 
L 364.613281 -247.235244 
L 364.613281 -247.68227 
L 364.613281 -248.129296 
L 364.613281 -248.576322 
L 364.613281 -249.023348 
L 364.613281 -249.470374 
L 364.613281 -249.9174 
L 364.613281 -250.364426 
L 364.613281 -250.811452 
L 364.613281 -251.258478 
L 364.613281 -251.705504 
L 364.613281 -252.15253 
L 364.613281 -252.599556 
L 364.613281 -253.046582 
L 364.613281 -253.493608 
L 364.613281 -253.940634 
L 364.613281 -254.38766 
L 364.613281 -254.834686 
L 364.613281 -255.281712 
L 364.613281 -255.728738 
L 364.613281 -256.175764 
L 364.613281 -256.62279 
L 364.613281 -257.069816 
L 364.613281 -257.516842 
L 364.613281 -257.963868 
L 364.613281 -258.410894 
L 364.613281 -258.85792 
L 364.613281 -259.304946 
L 364.613281 -259.751972 
L 364.613281 -260.198998 
L 364.613281 -260.646024 
L 364.613281 -261.09305 
L 364.613281 -261.540076 
L 364.613281 -261.987102 
L 364.613281 -262.434128 
L 364.613281 -262.881154 
L 364.613281 -263.32818 
L 364.613281 -263.775206 
L 364.613281 -264.222232 
L 364.613281 -264.669259 
L 364.613281 -265.116285 
L 364.613281 -265.563311 
L 364.613281 -266.010337 
L 364.613281 -266.457363 
L 364.613281 -266.904389 
L 364.613281 -267.351415 
L 364.613281 -267.798441 
L 364.613281 -268.245467 
L 364.613281 -268.692493 
L 364.613281 -269.139519 
L 568.987289 -269.139519 
L 568.987289 -269.139519 
L 567.549005 -268.692493 
L 561.491134 -268.245467 
L 560.295314 -267.798441 
L 560.295314 -267.351415 
L 559.968268 -266.904389 
L 556.295373 -266.457363 
L 553.792153 -266.010337 
L 552.383928 -265.563311 
L 552.336786 -265.116285 
L 548.474074 -264.669259 
L 548.474074 -264.222232 
L 546.369324 -263.775206 
L 545.971089 -263.32818 
L 541.989789 -262.881154 
L 541.123207 -262.434128 
L 541.093111 -261.987102 
L 540.334988 -261.540076 
L 539.232311 -261.09305 
L 535.905007 -260.646024 
L 531.433582 -260.198998 
L 528.244315 -259.751972 
L 522.365869 -259.304946 
L 522.125933 -258.85792 
L 521.427935 -258.410894 
L 518.892466 -257.963868 
L 515.107131 -257.516842 
L 514.769286 -257.069816 
L 514.634954 -256.62279 
L 514.634954 -256.175764 
L 513.183592 -255.728738 
L 510.082021 -255.281712 
L 508.811804 -254.834686 
L 506.109644 -254.38766 
L 505.287464 -253.940634 
L 504.316121 -253.493608 
L 504.102384 -253.046582 
L 502.14565 -252.599556 
L 501.263795 -252.15253 
L 500.409391 -251.705504 
L 493.603716 -251.258478 
L 492.59781 -250.811452 
L 484.163495 -250.364426 
L 482.190624 -249.9174 
L 481.28759 -249.470374 
L 477.367623 -249.023348 
L 476.020095 -248.576322 
L 463.928053 -248.129296 
L 455.729119 -247.68227 
L 455.625946 -247.235244 
L 438.446908 -246.788218 
L 435.270709 -246.341192 
L 431.852125 -245.894166 
L 419.141538 -245.44714 
L 418.27504 -245.000114 
L 403.273561 -244.553088 
L 328.86151 -244.106062 
z
" style="stroke: #00e700; stroke-opacity: 0.7"/>
    </defs>
    <g clip-path="url(#paa2cb4a809)">
     <use xlink:href="#me64a270b92" x="0" y="432" style="fill: #00e700; fill-opacity: 0.7; stroke: #00e700; stroke-opacity: 0.7"/>
    </g>
   </g>
   <g id="PolyCollection_11">
    <defs>
     <path id="md5333735d6" d="M 341.3402 -274.056805 
L 364.613281 -274.056805 
L 364.613281 -274.503831 
L 364.613281 -274.950857 
L 364.613281 -275.397883 
L 364.613281 -275.844909 
L 364.613281 -276.291935 
L 364.613281 -276.738961 
L 364.613281 -277.185987 
L 364.613281 -277.633013 
L 364.613281 -278.080039 
L 364.613281 -278.527065 
L 364.613281 -278.974091 
L 364.613281 -279.421117 
L 364.613281 -279.868143 
L 364.613281 -280.315169 
L 364.613281 -280.762195 
L 364.613281 -281.209221 
L 364.613281 -281.656247 
L 364.613281 -282.103273 
L 364.613281 -282.550299 
L 364.613281 -282.997325 
L 364.613281 -283.444351 
L 364.613281 -283.891377 
L 530.384608 -283.891377 
L 530.384608 -283.891377 
L 518.439517 -283.444351 
L 517.64272 -282.997325 
L 517.610945 -282.550299 
L 507.479896 -282.103273 
L 493.69423 -281.656247 
L 484.837896 -281.209221 
L 483.023431 -280.762195 
L 472.871267 -280.315169 
L 471.896855 -279.868143 
L 471.576971 -279.421117 
L 464.772324 -278.974091 
L 463.675384 -278.527065 
L 449.936993 -278.080039 
L 446.957134 -277.633013 
L 439.683597 -277.185987 
L 423.243919 -276.738961 
L 399.754981 -276.291935 
L 396.142522 -275.844909 
L 394.570602 -275.397883 
L 373.096839 -274.950857 
L 347.170421 -274.503831 
L 341.3402 -274.056805 
z
" style="stroke: #67ff00; stroke-opacity: 0.7"/>
    </defs>
    <g clip-path="url(#paa2cb4a809)">
     <use xlink:href="#md5333735d6" x="0" y="432" style="fill: #67ff00; fill-opacity: 0.7; stroke: #67ff00; stroke-opacity: 0.7"/>
    </g>
   </g>
   <g id="PolyCollection_12">
    <defs>
     <path id="m81a66c8420" d="M 508.453347 -288.808663 
L 364.613281 -288.808663 
L 364.613281 -289.255689 
L 364.613281 -289.702715 
L 364.613281 -290.149741 
L 364.613281 -290.596767 
L 364.613281 -291.043794 
L 364.613281 -291.49082 
L 364.613281 -291.937846 
L 364.613281 -292.384872 
L 364.613281 -292.831898 
L 364.613281 -293.278924 
L 364.613281 -293.72595 
L 364.613281 -294.172976 
L 364.613281 -294.620002 
L 364.613281 -295.067028 
L 364.613281 -295.514054 
L 364.613281 -295.96108 
L 364.613281 -296.408106 
L 364.613281 -296.855132 
L 364.613281 -297.302158 
L 364.613281 -297.749184 
L 364.613281 -298.19621 
L 364.613281 -298.643236 
L 364.613281 -299.090262 
L 364.613281 -299.537288 
L 364.613281 -299.984314 
L 364.613281 -300.43134 
L 364.613281 -300.878366 
L 364.613281 -301.325392 
L 364.613281 -301.772418 
L 364.613281 -302.219444 
L 364.613281 -302.66647 
L 364.613281 -303.113496 
L 364.613281 -303.560522 
L 364.613281 -304.007548 
L 364.613281 -304.454574 
L 364.613281 -304.9016 
L 364.613281 -305.348626 
L 364.613281 -305.795652 
L 364.613281 -306.242678 
L 364.613281 -306.689704 
L 364.613281 -307.13673 
L 364.613281 -307.583756 
L 364.613281 -308.030782 
L 364.613281 -308.477808 
L 364.613281 -308.924834 
L 364.613281 -309.37186 
L 364.613281 -309.818886 
L 364.613281 -310.265912 
L 364.613281 -310.712938 
L 364.613281 -311.159964 
L 364.613281 -311.60699 
L 364.613281 -312.054016 
L 364.613281 -312.501042 
L 364.613281 -312.948068 
L 364.613281 -313.395094 
L 364.613281 -313.84212 
L 364.613281 -314.289146 
L 364.613281 -314.736172 
L 364.613281 -315.183198 
L 364.613281 -315.630224 
L 364.613281 -316.07725 
L 364.613281 -316.524276 
L 364.613281 -316.971302 
L 364.613281 -317.418329 
L 364.613281 -317.865355 
L 364.613281 -318.312381 
L 364.613281 -318.759407 
L 364.613281 -319.206433 
L 364.613281 -319.653459 
L 364.613281 -320.100485 
L 364.613281 -320.547511 
L 364.613281 -320.994537 
L 364.613281 -321.441563 
L 364.613281 -321.888589 
L 364.613281 -322.335615 
L 364.613281 -322.782641 
L 364.613281 -323.229667 
L 364.613281 -323.676693 
L 364.613281 -324.123719 
L 364.613281 -324.570745 
L 364.613281 -325.017771 
L 364.613281 -325.464797 
L 364.613281 -325.911823 
L 364.613281 -326.358849 
L 364.613281 -326.805875 
L 364.613281 -327.252901 
L 364.613281 -327.699927 
L 364.613281 -328.146953 
L 364.613281 -328.593979 
L 364.613281 -329.041005 
L 364.613281 -329.488031 
L 364.613281 -329.935057 
L 364.613281 -330.382083 
L 364.613281 -330.829109 
L 364.613281 -331.276135 
L 364.613281 -331.723161 
L 364.613281 -332.170187 
L 364.613281 -332.617213 
L 364.613281 -333.064239 
L 364.613281 -333.511265 
L 364.613281 -333.958291 
L 364.613281 -334.405317 
L 364.613281 -334.852343 
L 364.613281 -335.299369 
L 364.613281 -335.746395 
L 364.613281 -336.193421 
L 364.613281 -336.640447 
L 364.613281 -337.087473 
L 364.613281 -337.534499 
L 364.613281 -337.981525 
L 364.613281 -338.428551 
L 364.613281 -338.875577 
L 364.613281 -339.322603 
L 364.613281 -339.769629 
L 364.613281 -340.216655 
L 364.613281 -340.663681 
L 364.613281 -341.110707 
L 364.613281 -341.557733 
L 364.613281 -342.004759 
L 364.613281 -342.451785 
L 364.613281 -342.898811 
L 364.613281 -343.345838 
L 364.613281 -343.792864 
L 364.613281 -344.23989 
L 364.613281 -344.686916 
L 364.613281 -345.133942 
L 364.613281 -345.580968 
L 364.613281 -346.027994 
L 364.613281 -346.47502 
L 364.613281 -346.922046 
L 364.613281 -347.369072 
L 364.613281 -347.816098 
L 364.613281 -348.263124 
L 364.613281 -348.71015 
L 364.613281 -349.157176 
L 364.613281 -349.604202 
L 364.613281 -350.051228 
L 364.613281 -350.498254 
L 364.613281 -350.94528 
L 364.613281 -351.392306 
L 364.613281 -351.839332 
L 364.613281 -352.286358 
L 364.613281 -352.733384 
L 364.613281 -353.18041 
L 364.613281 -353.627436 
L 364.613281 -354.074462 
L 364.613281 -354.521488 
L 364.613281 -354.968514 
L 364.613281 -355.41554 
L 364.613281 -355.862566 
L 364.613281 -356.309592 
L 364.613281 -356.756618 
L 364.613281 -357.203644 
L 364.613281 -357.65067 
L 364.613281 -358.097696 
L 364.613281 -358.544722 
L 364.613281 -358.991748 
L 364.613281 -359.438774 
L 364.613281 -359.8858 
L 364.613281 -360.332826 
L 364.613281 -360.779852 
L 364.613281 -361.226878 
L 364.613281 -361.673904 
L 364.613281 -362.12093 
L 364.613281 -362.567956 
L 364.613281 -363.014982 
L 364.613281 -363.462008 
L 364.613281 -363.909034 
L 364.613281 -364.35606 
L 364.613281 -364.803086 
L 364.613281 -365.250112 
L 364.613281 -365.697138 
L 364.613281 -366.144164 
L 364.613281 -366.59119 
L 364.613281 -367.038216 
L 364.613281 -367.485242 
L 364.613281 -367.932268 
L 364.613281 -368.379294 
L 364.613281 -368.82632 
L 364.613281 -369.273346 
L 364.613281 -369.720373 
L 364.613281 -370.167399 
L 364.613281 -370.614425 
L 364.613281 -371.061451 
L 364.613281 -371.508477 
L 364.613281 -371.955503 
L 364.613281 -372.402529 
L 364.613281 -372.849555 
L 364.613281 -373.296581 
L 364.613281 -373.743607 
L 364.613281 -374.190633 
L 364.613281 -374.637659 
L 364.613281 -375.084685 
L 364.613281 -375.531711 
L 364.613281 -375.978737 
L 364.613281 -376.425763 
L 364.613281 -376.872789 
L 364.613281 -377.319815 
L 364.613281 -377.766841 
L 364.613281 -378.213867 
L 611.586606 -378.213867 
L 611.586606 -378.213867 
L 607.651031 -377.766841 
L 606.618541 -377.319815 
L 606.17336 -376.872789 
L 606.061481 -376.425763 
L 604.475962 -375.978737 
L 604.287453 -375.531711 
L 603.907448 -375.084685 
L 603.38947 -374.637659 
L 602.431565 -374.190633 
L 602.161921 -373.743607 
L 602.088684 -373.296581 
L 602.05357 -372.849555 
L 601.943227 -372.402529 
L 601.346192 -371.955503 
L 601.294493 -371.508477 
L 600.885986 -371.061451 
L 600.706665 -370.614425 
L 600.403456 -370.167399 
L 600.116546 -369.720373 
L 599.556304 -369.273346 
L 599.545573 -368.82632 
L 599.249705 -368.379294 
L 598.997457 -367.932268 
L 598.561219 -367.485242 
L 598.474032 -367.038216 
L 598.453492 -366.59119 
L 597.93835 -366.144164 
L 597.887727 -365.697138 
L 597.738609 -365.250112 
L 597.252461 -364.803086 
L 597.206789 -364.35606 
L 597.198426 -363.909034 
L 597.064975 -363.462008 
L 596.99223 -363.014982 
L 596.219888 -362.567956 
L 596.181548 -362.12093 
L 596.158165 -361.673904 
L 595.905081 -361.226878 
L 595.749345 -360.779852 
L 595.688781 -360.332826 
L 595.31875 -359.8858 
L 595.304544 -359.438774 
L 595.182865 -358.991748 
L 594.584422 -358.544722 
L 594.155261 -358.097696 
L 594.087164 -357.65067 
L 593.710434 -357.203644 
L 593.446739 -356.756618 
L 593.371716 -356.309592 
L 593.039467 -355.862566 
L 592.815166 -355.41554 
L 592.580082 -354.968514 
L 592.386741 -354.521488 
L 592.112551 -354.074462 
L 591.865991 -353.627436 
L 591.752991 -353.18041 
L 590.982386 -352.733384 
L 590.804952 -352.286358 
L 590.592686 -351.839332 
L 590.119091 -351.392306 
L 590.05758 -350.94528 
L 589.84405 -350.498254 
L 589.214833 -350.051228 
L 589.201903 -349.604202 
L 589.052781 -349.157176 
L 588.824907 -348.71015 
L 588.63955 -348.263124 
L 588.171945 -347.816098 
L 588.171567 -347.369072 
L 588.072098 -346.922046 
L 588.064985 -346.47502 
L 588.01847 -346.027994 
L 587.527666 -345.580968 
L 587.458141 -345.133942 
L 586.750872 -344.686916 
L 586.633583 -344.23989 
L 586.614375 -343.792864 
L 586.554147 -343.345838 
L 586.50905 -342.898811 
L 586.28605 -342.451785 
L 586.051478 -342.004759 
L 585.853781 -341.557733 
L 585.727905 -341.110707 
L 585.663982 -340.663681 
L 585.62275 -340.216655 
L 585.589015 -339.769629 
L 585.120211 -339.322603 
L 584.813707 -338.875577 
L 584.735491 -338.428551 
L 584.633203 -337.981525 
L 584.412494 -337.534499 
L 584.275622 -337.087473 
L 583.936625 -336.640447 
L 583.833805 -336.193421 
L 583.816417 -335.746395 
L 583.708852 -335.299369 
L 583.690568 -334.852343 
L 583.379045 -334.405317 
L 583.273915 -333.958291 
L 583.089683 -333.511265 
L 583.063851 -333.064239 
L 582.65268 -332.617213 
L 581.135111 -332.170187 
L 580.489945 -331.723161 
L 580.319098 -331.276135 
L 580.278162 -330.829109 
L 580.061051 -330.382083 
L 579.731484 -329.935057 
L 579.398581 -329.488031 
L 579.394533 -329.041005 
L 579.196974 -328.593979 
L 579.179108 -328.146953 
L 578.965894 -327.699927 
L 578.750239 -327.252901 
L 577.690975 -326.805875 
L 577.038641 -326.358849 
L 576.781003 -325.911823 
L 576.54578 -325.464797 
L 576.445527 -325.017771 
L 575.902582 -324.570745 
L 574.474643 -324.123719 
L 573.927068 -323.676693 
L 573.883969 -323.229667 
L 573.210552 -322.782641 
L 572.823517 -322.335615 
L 572.449233 -321.888589 
L 572.081502 -321.441563 
L 571.750291 -320.994537 
L 571.716167 -320.547511 
L 571.353844 -320.100485 
L 571.352372 -319.653459 
L 570.723996 -319.206433 
L 570.677585 -318.759407 
L 570.489708 -318.312381 
L 569.783441 -317.865355 
L 569.29477 -317.418329 
L 568.994451 -316.971302 
L 568.873751 -316.524276 
L 568.473071 -316.07725 
L 568.46951 -315.630224 
L 567.95032 -315.183198 
L 567.631608 -314.736172 
L 565.736756 -314.289146 
L 565.308035 -313.84212 
L 565.108288 -313.395094 
L 564.586576 -312.948068 
L 564.386804 -312.501042 
L 564.220463 -312.054016 
L 564.134026 -311.60699 
L 563.915134 -311.159964 
L 563.515301 -310.712938 
L 563.346382 -310.265912 
L 563.296628 -309.818886 
L 562.51247 -309.37186 
L 561.579169 -308.924834 
L 560.433118 -308.477808 
L 560.34799 -308.030782 
L 558.140839 -307.583756 
L 557.994391 -307.13673 
L 557.244333 -306.689704 
L 556.831955 -306.242678 
L 556.367834 -305.795652 
L 555.816429 -305.348626 
L 555.615553 -304.9016 
L 555.505067 -304.454574 
L 554.927539 -304.007548 
L 554.914755 -303.560522 
L 553.295 -303.113496 
L 552.4853 -302.66647 
L 552.28254 -302.219444 
L 551.773147 -301.772418 
L 551.722098 -301.325392 
L 550.993335 -300.878366 
L 550.706152 -300.43134 
L 550.400124 -299.984314 
L 550.068829 -299.537288 
L 549.328998 -299.090262 
L 549.083383 -298.643236 
L 548.395632 -298.19621 
L 547.135811 -297.749184 
L 545.916204 -297.302158 
L 543.96095 -296.855132 
L 543.781966 -296.408106 
L 542.659995 -295.96108 
L 541.754382 -295.514054 
L 540.44862 -295.067028 
L 539.52493 -294.620002 
L 539.22317 -294.172976 
L 539.138385 -293.72595 
L 536.832161 -293.278924 
L 535.35917 -292.831898 
L 533.549029 -292.384872 
L 531.418869 -291.937846 
L 530.005138 -291.49082 
L 527.659987 -291.043794 
L 525.155875 -290.596767 
L 524.378884 -290.149741 
L 519.780624 -289.702715 
L 516.062057 -289.255689 
L 508.453347 -288.808663 
z
" style="stroke: #e4f100; stroke-opacity: 0.7"/>
    </defs>
    <g clip-path="url(#paa2cb4a809)">
     <use xlink:href="#m81a66c8420" x="0" y="432" style="fill: #e4f100; fill-opacity: 0.7; stroke: #e4f100; stroke-opacity: 0.7"/>
    </g>
   </g>
   <g id="PolyCollection_13">
    <defs>
     <path id="m608efe738a" d="M 248.550057 -383.131153 
L 364.613281 -383.131153 
L 364.613281 -383.578179 
L 364.613281 -384.025205 
L 364.613281 -384.472231 
L 364.613281 -384.919257 
L 364.613281 -385.366283 
L 364.613281 -385.813309 
L 364.613281 -386.260335 
L 364.613281 -386.707361 
L 364.613281 -387.154387 
L 364.613281 -387.601413 
L 364.613281 -388.048439 
L 364.613281 -388.495465 
L 364.613281 -388.942491 
L 364.613281 -389.389517 
L 364.613281 -389.836543 
L 364.613281 -390.283569 
L 364.613281 -390.730595 
L 364.613281 -391.177621 
L 507.035436 -391.177621 
L 507.035436 -391.177621 
L 498.324251 -390.730595 
L 473.894736 -390.283569 
L 470.499673 -389.836543 
L 468.662419 -389.389517 
L 467.634248 -388.942491 
L 465.308943 -388.495465 
L 463.425789 -388.048439 
L 461.799967 -387.601413 
L 448.256212 -387.154387 
L 419.830073 -386.707361 
L 409.59462 -386.260335 
L 403.116415 -385.813309 
L 359.363798 -385.366283 
L 347.795454 -384.919257 
L 337.582961 -384.472231 
L 328.580715 -384.025205 
L 317.331521 -383.578179 
L 248.550057 -383.131153 
z
" style="stroke: #ffc900; stroke-opacity: 0.7"/>
    </defs>
    <g clip-path="url(#paa2cb4a809)">
     <use xlink:href="#m608efe738a" x="0" y="432" style="fill: #ffc900; fill-opacity: 0.7; stroke: #ffc900; stroke-opacity: 0.7"/>
    </g>
   </g>
   <g id="PolyCollection_14">
    <defs>
     <path id="md666039aac" d="M 462.077266 -396.094908 
L 364.613281 -396.094908 
L 364.613281 -396.541934 
L 364.613281 -396.98896 
L 364.613281 -397.435986 
L 364.613281 -397.883012 
L 364.613281 -398.330038 
L 542.877377 -398.330038 
L 542.877377 -398.330038 
L 533.186216 -397.883012 
L 519.492594 -397.435986 
L 506.017833 -396.98896 
L 493.097756 -396.541934 
L 462.077266 -396.094908 
z
" style="stroke: #ff6900; stroke-opacity: 0.7"/>
    </defs>
    <g clip-path="url(#paa2cb4a809)">
     <use xlink:href="#md666039aac" x="0" y="432" style="fill: #ff6900; fill-opacity: 0.7; stroke: #ff6900; stroke-opacity: 0.7"/>
    </g>
   </g>
   <g id="PolyCollection_15">
    <defs>
     <path id="m9ef68863c4" d="M 624.606254 -403.247324 
L 364.613281 -403.247324 
L 364.613281 -403.69435 
L 364.613281 -404.141376 
L 364.613281 -404.588402 
L 364.613281 -405.035428 
L 364.613281 -405.482454 
L 364.613281 -405.92948 
L 364.613281 -406.376506 
L 364.613281 -406.823532 
L 648.812957 -406.823532 
L 648.812957 -406.823532 
L 648.235534 -406.376506 
L 646.6185 -405.92948 
L 644.804959 -405.482454 
L 631.797199 -405.035428 
L 630.46384 -404.588402 
L 626.930504 -404.141376 
L 624.78607 -403.69435 
L 624.606254 -403.247324 
z
" style="stroke: #ec0000; stroke-opacity: 0.7"/>
    </defs>
    <g clip-path="url(#paa2cb4a809)">
     <use xlink:href="#m9ef68863c4" x="0" y="432" style="fill: #ec0000; fill-opacity: 0.7; stroke: #ec0000; stroke-opacity: 0.7"/>
    </g>
   </g>
   <g id="PolyCollection_16">
    <defs>
     <path id="m0b17973086" d="M 647.905996 -411.740818 
L 364.613281 -411.740818 
L 364.613281 -412.187844 
L 364.613281 -412.63487 
L 663.604241 -412.63487 
L 663.604241 -412.63487 
L 660.783919 -412.187844 
L 647.905996 -411.740818 
z
" style="stroke: #cf0000; stroke-opacity: 0.7"/>
    </defs>
    <g clip-path="url(#paa2cb4a809)">
     <use xlink:href="#m0b17973086" x="0" y="432" style="fill: #cf0000; fill-opacity: 0.7; stroke: #cf0000; stroke-opacity: 0.7"/>
    </g>
   </g>
   <g id="matplotlib.axis_1">
    <g id="xtick_1">
     <g id="line2d_1">
      <defs>
       <path id="m7a79c5a031" d="M 0 0 
L 0 3.5 
" style="stroke: #000000; stroke-width: 0.8"/>
      </defs>
      <g>
       <use xlink:href="#m7a79c5a031" x="27.978125" y="390.84375" style="stroke: #000000; stroke-width: 0.8"/>
      </g>
     </g>
     <g id="text_1">
      <!-- −1.0 -->
      <g transform="translate(15.836719 405.442187) scale(0.1 -0.1)">
       <defs>
        <path id="DejaVuSans-2212" d="M 678 2272 
L 4684 2272 
L 4684 1741 
L 678 1741 
L 678 2272 
z
" transform="scale(0.015625)"/>
        <path id="DejaVuSans-31" d="M 794 531 
L 1825 531 
L 1825 4091 
L 703 3866 
L 703 4441 
L 1819 4666 
L 2450 4666 
L 2450 531 
L 3481 531 
L 3481 0 
L 794 0 
L 794 531 
z
" transform="scale(0.015625)"/>
        <path id="DejaVuSans-2e" d="M 684 794 
L 1344 794 
L 1344 0 
L 684 0 
L 684 794 
z
" transform="scale(0.015625)"/>
        <path id="DejaVuSans-30" d="M 2034 4250 
Q 1547 4250 1301 3770 
Q 1056 3291 1056 2328 
Q 1056 1369 1301 889 
Q 1547 409 2034 409 
Q 2525 409 2770 889 
Q 3016 1369 3016 2328 
Q 3016 3291 2770 3770 
Q 2525 4250 2034 4250 
z
M 2034 4750 
Q 2819 4750 3233 4129 
Q 3647 3509 3647 2328 
Q 3647 1150 3233 529 
Q 2819 -91 2034 -91 
Q 1250 -91 836 529 
Q 422 1150 422 2328 
Q 422 3509 836 4129 
Q 1250 4750 2034 4750 
z
" transform="scale(0.015625)"/>
       </defs>
       <use xlink:href="#DejaVuSans-2212"/>
       <use xlink:href="#DejaVuSans-31" x="83.789062"/>
       <use xlink:href="#DejaVuSans-2e" x="147.412109"/>
       <use xlink:href="#DejaVuSans-30" x="179.199219"/>
      </g>
     </g>
    </g>
    <g id="xtick_2">
     <g id="line2d_2">
      <g>
       <use xlink:href="#m7a79c5a031" x="95.305156" y="390.84375" style="stroke: #000000; stroke-width: 0.8"/>
      </g>
     </g>
     <g id="text_2">
      <!-- −0.8 -->
      <g transform="translate(83.16375 405.442187) scale(0.1 -0.1)">
       <defs>
        <path id="DejaVuSans-38" d="M 2034 2216 
Q 1584 2216 1326 1975 
Q 1069 1734 1069 1313 
Q 1069 891 1326 650 
Q 1584 409 2034 409 
Q 2484 409 2743 651 
Q 3003 894 3003 1313 
Q 3003 1734 2745 1975 
Q 2488 2216 2034 2216 
z
M 1403 2484 
Q 997 2584 770 2862 
Q 544 3141 544 3541 
Q 544 4100 942 4425 
Q 1341 4750 2034 4750 
Q 2731 4750 3128 4425 
Q 3525 4100 3525 3541 
Q 3525 3141 3298 2862 
Q 3072 2584 2669 2484 
Q 3125 2378 3379 2068 
Q 3634 1759 3634 1313 
Q 3634 634 3220 271 
Q 2806 -91 2034 -91 
Q 1263 -91 848 271 
Q 434 634 434 1313 
Q 434 1759 690 2068 
Q 947 2378 1403 2484 
z
M 1172 3481 
Q 1172 3119 1398 2916 
Q 1625 2713 2034 2713 
Q 2441 2713 2670 2916 
Q 2900 3119 2900 3481 
Q 2900 3844 2670 4047 
Q 2441 4250 2034 4250 
Q 1625 4250 1398 4047 
Q 1172 3844 1172 3481 
z
" transform="scale(0.015625)"/>
       </defs>
       <use xlink:href="#DejaVuSans-2212"/>
       <use xlink:href="#DejaVuSans-30" x="83.789062"/>
       <use xlink:href="#DejaVuSans-2e" x="147.412109"/>
       <use xlink:href="#DejaVuSans-38" x="179.199219"/>
      </g>
     </g>
    </g>
    <g id="xtick_3">
     <g id="line2d_3">
      <g>
       <use xlink:href="#m7a79c5a031" x="162.632188" y="390.84375" style="stroke: #000000; stroke-width: 0.8"/>
      </g>
     </g>
     <g id="text_3">
      <!-- −0.6 -->
      <g transform="translate(150.490781 405.442187) scale(0.1 -0.1)">
       <defs>
        <path id="DejaVuSans-36" d="M 2113 2584 
Q 1688 2584 1439 2293 
Q 1191 2003 1191 1497 
Q 1191 994 1439 701 
Q 1688 409 2113 409 
Q 2538 409 2786 701 
Q 3034 994 3034 1497 
Q 3034 2003 2786 2293 
Q 2538 2584 2113 2584 
z
M 3366 4563 
L 3366 3988 
Q 3128 4100 2886 4159 
Q 2644 4219 2406 4219 
Q 1781 4219 1451 3797 
Q 1122 3375 1075 2522 
Q 1259 2794 1537 2939 
Q 1816 3084 2150 3084 
Q 2853 3084 3261 2657 
Q 3669 2231 3669 1497 
Q 3669 778 3244 343 
Q 2819 -91 2113 -91 
Q 1303 -91 875 529 
Q 447 1150 447 2328 
Q 447 3434 972 4092 
Q 1497 4750 2381 4750 
Q 2619 4750 2861 4703 
Q 3103 4656 3366 4563 
z
" transform="scale(0.015625)"/>
       </defs>
       <use xlink:href="#DejaVuSans-2212"/>
       <use xlink:href="#DejaVuSans-30" x="83.789062"/>
       <use xlink:href="#DejaVuSans-2e" x="147.412109"/>
       <use xlink:href="#DejaVuSans-36" x="179.199219"/>
      </g>
     </g>
    </g>
    <g id="xtick_4">
     <g id="line2d_4">
      <g>
       <use xlink:href="#m7a79c5a031" x="229.959219" y="390.84375" style="stroke: #000000; stroke-width: 0.8"/>
      </g>
     </g>
     <g id="text_4">
      <!-- −0.4 -->
      <g transform="translate(217.817813 405.442187) scale(0.1 -0.1)">
       <defs>
        <path id="DejaVuSans-34" d="M 2419 4116 
L 825 1625 
L 2419 1625 
L 2419 4116 
z
M 2253 4666 
L 3047 4666 
L 3047 1625 
L 3713 1625 
L 3713 1100 
L 3047 1100 
L 3047 0 
L 2419 0 
L 2419 1100 
L 313 1100 
L 313 1709 
L 2253 4666 
z
" transform="scale(0.015625)"/>
       </defs>
       <use xlink:href="#DejaVuSans-2212"/>
       <use xlink:href="#DejaVuSans-30" x="83.789062"/>
       <use xlink:href="#DejaVuSans-2e" x="147.412109"/>
       <use xlink:href="#DejaVuSans-34" x="179.199219"/>
      </g>
     </g>
    </g>
    <g id="xtick_5">
     <g id="line2d_5">
      <g>
       <use xlink:href="#m7a79c5a031" x="297.28625" y="390.84375" style="stroke: #000000; stroke-width: 0.8"/>
      </g>
     </g>
     <g id="text_5">
      <!-- −0.2 -->
      <g transform="translate(285.144844 405.442187) scale(0.1 -0.1)">
       <defs>
        <path id="DejaVuSans-32" d="M 1228 531 
L 3431 531 
L 3431 0 
L 469 0 
L 469 531 
Q 828 903 1448 1529 
Q 2069 2156 2228 2338 
Q 2531 2678 2651 2914 
Q 2772 3150 2772 3378 
Q 2772 3750 2511 3984 
Q 2250 4219 1831 4219 
Q 1534 4219 1204 4116 
Q 875 4013 500 3803 
L 500 4441 
Q 881 4594 1212 4672 
Q 1544 4750 1819 4750 
Q 2544 4750 2975 4387 
Q 3406 4025 3406 3419 
Q 3406 3131 3298 2873 
Q 3191 2616 2906 2266 
Q 2828 2175 2409 1742 
Q 1991 1309 1228 531 
z
" transform="scale(0.015625)"/>
       </defs>
       <use xlink:href="#DejaVuSans-2212"/>
       <use xlink:href="#DejaVuSans-30" x="83.789062"/>
       <use xlink:href="#DejaVuSans-2e" x="147.412109"/>
       <use xlink:href="#DejaVuSans-32" x="179.199219"/>
      </g>
     </g>
    </g>
    <g id="xtick_6">
     <g id="line2d_6">
      <g>
       <use xlink:href="#m7a79c5a031" x="364.613281" y="390.84375" style="stroke: #000000; stroke-width: 0.8"/>
      </g>
     </g>
     <g id="text_6">
      <!-- 0.0 -->
      <g transform="translate(356.661719 405.442187) scale(0.1 -0.1)">
       <use xlink:href="#DejaVuSans-30"/>
       <use xlink:href="#DejaVuSans-2e" x="63.623047"/>
       <use xlink:href="#DejaVuSans-30" x="95.410156"/>
      </g>
     </g>
    </g>
    <g id="xtick_7">
     <g id="line2d_7">
      <g>
       <use xlink:href="#m7a79c5a031" x="431.940313" y="390.84375" style="stroke: #000000; stroke-width: 0.8"/>
      </g>
     </g>
     <g id="text_7">
      <!-- 0.2 -->
      <g transform="translate(423.98875 405.442187) scale(0.1 -0.1)">
       <use xlink:href="#DejaVuSans-30"/>
       <use xlink:href="#DejaVuSans-2e" x="63.623047"/>
       <use xlink:href="#DejaVuSans-32" x="95.410156"/>
      </g>
     </g>
    </g>
    <g id="xtick_8">
     <g id="line2d_8">
      <g>
       <use xlink:href="#m7a79c5a031" x="499.267344" y="390.84375" style="stroke: #000000; stroke-width: 0.8"/>
      </g>
     </g>
     <g id="text_8">
      <!-- 0.4 -->
      <g transform="translate(491.315781 405.442187) scale(0.1 -0.1)">
       <use xlink:href="#DejaVuSans-30"/>
       <use xlink:href="#DejaVuSans-2e" x="63.623047"/>
       <use xlink:href="#DejaVuSans-34" x="95.410156"/>
      </g>
     </g>
    </g>
    <g id="xtick_9">
     <g id="line2d_9">
      <g>
       <use xlink:href="#m7a79c5a031" x="566.594375" y="390.84375" style="stroke: #000000; stroke-width: 0.8"/>
      </g>
     </g>
     <g id="text_9">
      <!-- 0.6 -->
      <g transform="translate(558.642812 405.442187) scale(0.1 -0.1)">
       <use xlink:href="#DejaVuSans-30"/>
       <use xlink:href="#DejaVuSans-2e" x="63.623047"/>
       <use xlink:href="#DejaVuSans-36" x="95.410156"/>
      </g>
     </g>
    </g>
    <g id="xtick_10">
     <g id="line2d_10">
      <g>
       <use xlink:href="#m7a79c5a031" x="633.921406" y="390.84375" style="stroke: #000000; stroke-width: 0.8"/>
      </g>
     </g>
     <g id="text_10">
      <!-- 0.8 -->
      <g transform="translate(625.969844 405.442187) scale(0.1 -0.1)">
       <use xlink:href="#DejaVuSans-30"/>
       <use xlink:href="#DejaVuSans-2e" x="63.623047"/>
       <use xlink:href="#DejaVuSans-38" x="95.410156"/>
      </g>
     </g>
    </g>
    <g id="xtick_11">
     <g id="line2d_11">
      <g>
       <use xlink:href="#m7a79c5a031" x="701.248437" y="390.84375" style="stroke: #000000; stroke-width: 0.8"/>
      </g>
     </g>
     <g id="text_11">
      <!-- 1.0 -->
      <g transform="translate(693.296875 405.442187) scale(0.1 -0.1)">
       <use xlink:href="#DejaVuSans-31"/>
       <use xlink:href="#DejaVuSans-2e" x="63.623047"/>
       <use xlink:href="#DejaVuSans-30" x="95.410156"/>
      </g>
     </g>
    </g>
    <g id="text_12">
     <!-- Silhouette coefficient -->
     <g transform="translate(311.463281 419.120313) scale(0.1 -0.1)">
      <defs>
       <path id="DejaVuSans-53" d="M 3425 4513 
L 3425 3897 
Q 3066 4069 2747 4153 
Q 2428 4238 2131 4238 
Q 1616 4238 1336 4038 
Q 1056 3838 1056 3469 
Q 1056 3159 1242 3001 
Q 1428 2844 1947 2747 
L 2328 2669 
Q 3034 2534 3370 2195 
Q 3706 1856 3706 1288 
Q 3706 609 3251 259 
Q 2797 -91 1919 -91 
Q 1588 -91 1214 -16 
Q 841 59 441 206 
L 441 856 
Q 825 641 1194 531 
Q 1563 422 1919 422 
Q 2459 422 2753 634 
Q 3047 847 3047 1241 
Q 3047 1584 2836 1778 
Q 2625 1972 2144 2069 
L 1759 2144 
Q 1053 2284 737 2584 
Q 422 2884 422 3419 
Q 422 4038 858 4394 
Q 1294 4750 2059 4750 
Q 2388 4750 2728 4690 
Q 3069 4631 3425 4513 
z
" transform="scale(0.015625)"/>
       <path id="DejaVuSans-69" d="M 603 3500 
L 1178 3500 
L 1178 0 
L 603 0 
L 603 3500 
z
M 603 4863 
L 1178 4863 
L 1178 4134 
L 603 4134 
L 603 4863 
z
" transform="scale(0.015625)"/>
       <path id="DejaVuSans-6c" d="M 603 4863 
L 1178 4863 
L 1178 0 
L 603 0 
L 603 4863 
z
" transform="scale(0.015625)"/>
       <path id="DejaVuSans-68" d="M 3513 2113 
L 3513 0 
L 2938 0 
L 2938 2094 
Q 2938 2591 2744 2837 
Q 2550 3084 2163 3084 
Q 1697 3084 1428 2787 
Q 1159 2491 1159 1978 
L 1159 0 
L 581 0 
L 581 4863 
L 1159 4863 
L 1159 2956 
Q 1366 3272 1645 3428 
Q 1925 3584 2291 3584 
Q 2894 3584 3203 3211 
Q 3513 2838 3513 2113 
z
" transform="scale(0.015625)"/>
       <path id="DejaVuSans-6f" d="M 1959 3097 
Q 1497 3097 1228 2736 
Q 959 2375 959 1747 
Q 959 1119 1226 758 
Q 1494 397 1959 397 
Q 2419 397 2687 759 
Q 2956 1122 2956 1747 
Q 2956 2369 2687 2733 
Q 2419 3097 1959 3097 
z
M 1959 3584 
Q 2709 3584 3137 3096 
Q 3566 2609 3566 1747 
Q 3566 888 3137 398 
Q 2709 -91 1959 -91 
Q 1206 -91 779 398 
Q 353 888 353 1747 
Q 353 2609 779 3096 
Q 1206 3584 1959 3584 
z
" transform="scale(0.015625)"/>
       <path id="DejaVuSans-75" d="M 544 1381 
L 544 3500 
L 1119 3500 
L 1119 1403 
Q 1119 906 1312 657 
Q 1506 409 1894 409 
Q 2359 409 2629 706 
Q 2900 1003 2900 1516 
L 2900 3500 
L 3475 3500 
L 3475 0 
L 2900 0 
L 2900 538 
Q 2691 219 2414 64 
Q 2138 -91 1772 -91 
Q 1169 -91 856 284 
Q 544 659 544 1381 
z
M 1991 3584 
L 1991 3584 
z
" transform="scale(0.015625)"/>
       <path id="DejaVuSans-65" d="M 3597 1894 
L 3597 1613 
L 953 1613 
Q 991 1019 1311 708 
Q 1631 397 2203 397 
Q 2534 397 2845 478 
Q 3156 559 3463 722 
L 3463 178 
Q 3153 47 2828 -22 
Q 2503 -91 2169 -91 
Q 1331 -91 842 396 
Q 353 884 353 1716 
Q 353 2575 817 3079 
Q 1281 3584 2069 3584 
Q 2775 3584 3186 3129 
Q 3597 2675 3597 1894 
z
M 3022 2063 
Q 3016 2534 2758 2815 
Q 2500 3097 2075 3097 
Q 1594 3097 1305 2825 
Q 1016 2553 972 2059 
L 3022 2063 
z
" transform="scale(0.015625)"/>
       <path id="DejaVuSans-74" d="M 1172 4494 
L 1172 3500 
L 2356 3500 
L 2356 3053 
L 1172 3053 
L 1172 1153 
Q 1172 725 1289 603 
Q 1406 481 1766 481 
L 2356 481 
L 2356 0 
L 1766 0 
Q 1100 0 847 248 
Q 594 497 594 1153 
L 594 3053 
L 172 3053 
L 172 3500 
L 594 3500 
L 594 4494 
L 1172 4494 
z
" transform="scale(0.015625)"/>
       <path id="DejaVuSans-20" transform="scale(0.015625)"/>
       <path id="DejaVuSans-63" d="M 3122 3366 
L 3122 2828 
Q 2878 2963 2633 3030 
Q 2388 3097 2138 3097 
Q 1578 3097 1268 2742 
Q 959 2388 959 1747 
Q 959 1106 1268 751 
Q 1578 397 2138 397 
Q 2388 397 2633 464 
Q 2878 531 3122 666 
L 3122 134 
Q 2881 22 2623 -34 
Q 2366 -91 2075 -91 
Q 1284 -91 818 406 
Q 353 903 353 1747 
Q 353 2603 823 3093 
Q 1294 3584 2113 3584 
Q 2378 3584 2631 3529 
Q 2884 3475 3122 3366 
z
" transform="scale(0.015625)"/>
       <path id="DejaVuSans-66" d="M 2375 4863 
L 2375 4384 
L 1825 4384 
Q 1516 4384 1395 4259 
Q 1275 4134 1275 3809 
L 1275 3500 
L 2222 3500 
L 2222 3053 
L 1275 3053 
L 1275 0 
L 697 0 
L 697 3053 
L 147 3053 
L 147 3500 
L 697 3500 
L 697 3744 
Q 697 4328 969 4595 
Q 1241 4863 1831 4863 
L 2375 4863 
z
" transform="scale(0.015625)"/>
       <path id="DejaVuSans-6e" d="M 3513 2113 
L 3513 0 
L 2938 0 
L 2938 2094 
Q 2938 2591 2744 2837 
Q 2550 3084 2163 3084 
Q 1697 3084 1428 2787 
Q 1159 2491 1159 1978 
L 1159 0 
L 581 0 
L 581 3500 
L 1159 3500 
L 1159 2956 
Q 1366 3272 1645 3428 
Q 1925 3584 2291 3584 
Q 2894 3584 3203 3211 
Q 3513 2838 3513 2113 
z
" transform="scale(0.015625)"/>
      </defs>
      <use xlink:href="#DejaVuSans-53"/>
      <use xlink:href="#DejaVuSans-69" x="63.476562"/>
      <use xlink:href="#DejaVuSans-6c" x="91.259766"/>
      <use xlink:href="#DejaVuSans-68" x="119.042969"/>
      <use xlink:href="#DejaVuSans-6f" x="182.421875"/>
      <use xlink:href="#DejaVuSans-75" x="243.603516"/>
      <use xlink:href="#DejaVuSans-65" x="306.982422"/>
      <use xlink:href="#DejaVuSans-74" x="368.505859"/>
      <use xlink:href="#DejaVuSans-74" x="407.714844"/>
      <use xlink:href="#DejaVuSans-65" x="446.923828"/>
      <use xlink:href="#DejaVuSans-20" x="508.447266"/>
      <use xlink:href="#DejaVuSans-63" x="540.234375"/>
      <use xlink:href="#DejaVuSans-6f" x="595.214844"/>
      <use xlink:href="#DejaVuSans-65" x="656.396484"/>
      <use xlink:href="#DejaVuSans-66" x="717.919922"/>
      <use xlink:href="#DejaVuSans-66" x="753.125"/>
      <use xlink:href="#DejaVuSans-69" x="788.330078"/>
      <use xlink:href="#DejaVuSans-63" x="816.113281"/>
      <use xlink:href="#DejaVuSans-69" x="871.09375"/>
      <use xlink:href="#DejaVuSans-65" x="898.876953"/>
      <use xlink:href="#DejaVuSans-6e" x="960.400391"/>
      <use xlink:href="#DejaVuSans-74" x="1023.779297"/>
     </g>
    </g>
   </g>
   <g id="matplotlib.axis_2">
    <g id="text_13">
     <!-- Predicted label -->
     <g transform="translate(18.398438 239.798141) rotate(-90) scale(0.1 -0.1)">
      <defs>
       <path id="DejaVuSans-50" d="M 1259 4147 
L 1259 2394 
L 2053 2394 
Q 2494 2394 2734 2622 
Q 2975 2850 2975 3272 
Q 2975 3691 2734 3919 
Q 2494 4147 2053 4147 
L 1259 4147 
z
M 628 4666 
L 2053 4666 
Q 2838 4666 3239 4311 
Q 3641 3956 3641 3272 
Q 3641 2581 3239 2228 
Q 2838 1875 2053 1875 
L 1259 1875 
L 1259 0 
L 628 0 
L 628 4666 
z
" transform="scale(0.015625)"/>
       <path id="DejaVuSans-72" d="M 2631 2963 
Q 2534 3019 2420 3045 
Q 2306 3072 2169 3072 
Q 1681 3072 1420 2755 
Q 1159 2438 1159 1844 
L 1159 0 
L 581 0 
L 581 3500 
L 1159 3500 
L 1159 2956 
Q 1341 3275 1631 3429 
Q 1922 3584 2338 3584 
Q 2397 3584 2469 3576 
Q 2541 3569 2628 3553 
L 2631 2963 
z
" transform="scale(0.015625)"/>
       <path id="DejaVuSans-64" d="M 2906 2969 
L 2906 4863 
L 3481 4863 
L 3481 0 
L 2906 0 
L 2906 525 
Q 2725 213 2448 61 
Q 2172 -91 1784 -91 
Q 1150 -91 751 415 
Q 353 922 353 1747 
Q 353 2572 751 3078 
Q 1150 3584 1784 3584 
Q 2172 3584 2448 3432 
Q 2725 3281 2906 2969 
z
M 947 1747 
Q 947 1113 1208 752 
Q 1469 391 1925 391 
Q 2381 391 2643 752 
Q 2906 1113 2906 1747 
Q 2906 2381 2643 2742 
Q 2381 3103 1925 3103 
Q 1469 3103 1208 2742 
Q 947 2381 947 1747 
z
" transform="scale(0.015625)"/>
       <path id="DejaVuSans-61" d="M 2194 1759 
Q 1497 1759 1228 1600 
Q 959 1441 959 1056 
Q 959 750 1161 570 
Q 1363 391 1709 391 
Q 2188 391 2477 730 
Q 2766 1069 2766 1631 
L 2766 1759 
L 2194 1759 
z
M 3341 1997 
L 3341 0 
L 2766 0 
L 2766 531 
Q 2569 213 2275 61 
Q 1981 -91 1556 -91 
Q 1019 -91 701 211 
Q 384 513 384 1019 
Q 384 1609 779 1909 
Q 1175 2209 1959 2209 
L 2766 2209 
L 2766 2266 
Q 2766 2663 2505 2880 
Q 2244 3097 1772 3097 
Q 1472 3097 1187 3025 
Q 903 2953 641 2809 
L 641 3341 
Q 956 3463 1253 3523 
Q 1550 3584 1831 3584 
Q 2591 3584 2966 3190 
Q 3341 2797 3341 1997 
z
" transform="scale(0.015625)"/>
       <path id="DejaVuSans-62" d="M 3116 1747 
Q 3116 2381 2855 2742 
Q 2594 3103 2138 3103 
Q 1681 3103 1420 2742 
Q 1159 2381 1159 1747 
Q 1159 1113 1420 752 
Q 1681 391 2138 391 
Q 2594 391 2855 752 
Q 3116 1113 3116 1747 
z
M 1159 2969 
Q 1341 3281 1617 3432 
Q 1894 3584 2278 3584 
Q 2916 3584 3314 3078 
Q 3713 2572 3713 1747 
Q 3713 922 3314 415 
Q 2916 -91 2278 -91 
Q 1894 -91 1617 61 
Q 1341 213 1159 525 
L 1159 0 
L 581 0 
L 581 4863 
L 1159 4863 
L 1159 2969 
z
" transform="scale(0.015625)"/>
      </defs>
      <use xlink:href="#DejaVuSans-50"/>
      <use xlink:href="#DejaVuSans-72" x="58.552734"/>
      <use xlink:href="#DejaVuSans-65" x="97.416016"/>
      <use xlink:href="#DejaVuSans-64" x="158.939453"/>
      <use xlink:href="#DejaVuSans-69" x="222.416016"/>
      <use xlink:href="#DejaVuSans-63" x="250.199219"/>
      <use xlink:href="#DejaVuSans-74" x="305.179688"/>
      <use xlink:href="#DejaVuSans-65" x="344.388672"/>
      <use xlink:href="#DejaVuSans-64" x="405.912109"/>
      <use xlink:href="#DejaVuSans-20" x="469.388672"/>
      <use xlink:href="#DejaVuSans-6c" x="501.175781"/>
      <use xlink:href="#DejaVuSans-61" x="528.958984"/>
      <use xlink:href="#DejaVuSans-62" x="590.238281"/>
      <use xlink:href="#DejaVuSans-65" x="653.714844"/>
      <use xlink:href="#DejaVuSans-6c" x="715.238281"/>
     </g>
    </g>
   </g>
   <g id="line2d_12">
    <path d="M 541.104127 390.84375 
L 541.104127 14.447844 
" clip-path="url(#paa2cb4a809)" style="fill: none; stroke: #ff0000; stroke-width: 1.5; stroke-linecap: square"/>
   </g>
   <g id="patch_3">
    <path d="M 27.978125 390.84375 
L 27.978125 14.447844 
" style="fill: none; stroke: #000000; stroke-width: 0.8; stroke-linejoin: miter; stroke-linecap: square"/>
   </g>
   <g id="patch_4">
    <path d="M 701.248437 390.84375 
L 701.248437 14.447844 
" style="fill: none; stroke: #000000; stroke-width: 0.8; stroke-linejoin: miter; stroke-linecap: square"/>
   </g>
   <g id="patch_5">
    <path d="M 27.978125 390.84375 
L 701.248437 390.84375 
" style="fill: none; stroke: #000000; stroke-width: 0.8; stroke-linejoin: miter; stroke-linecap: square"/>
   </g>
   <g id="patch_6">
    <path d="M 27.978125 14.447844 
L 701.248437 14.447844 
" style="fill: none; stroke: #000000; stroke-width: 0.8; stroke-linejoin: miter; stroke-linecap: square"/>
   </g>
   <g id="text_14">
    <!-- 0 -->
    <g transform="translate(347.781523 366.927858) scale(0.1 -0.1)">
     <use xlink:href="#DejaVuSans-30"/>
    </g>
   </g>
   <g id="text_15">
    <!-- 1 -->
    <g transform="translate(347.781523 320.437152) scale(0.1 -0.1)">
     <use xlink:href="#DejaVuSans-31"/>
    </g>
   </g>
   <g id="text_16">
    <!-- 2 -->
    <g transform="translate(347.781523 292.721539) scale(0.1 -0.1)">
     <use xlink:href="#DejaVuSans-32"/>
    </g>
   </g>
   <g id="text_17">
    <!-- 3 -->
    <g transform="translate(347.781523 284.451558) scale(0.1 -0.1)">
     <defs>
      <path id="DejaVuSans-33" d="M 2597 2516 
Q 3050 2419 3304 2112 
Q 3559 1806 3559 1356 
Q 3559 666 3084 287 
Q 2609 -91 1734 -91 
Q 1441 -91 1130 -33 
Q 819 25 488 141 
L 488 750 
Q 750 597 1062 519 
Q 1375 441 1716 441 
Q 2309 441 2620 675 
Q 2931 909 2931 1356 
Q 2931 1769 2642 2001 
Q 2353 2234 1838 2234 
L 1294 2234 
L 1294 2753 
L 1863 2753 
Q 2328 2753 2575 2939 
Q 2822 3125 2822 3475 
Q 2822 3834 2567 4026 
Q 2313 4219 1838 4219 
Q 1578 4219 1281 4162 
Q 984 4106 628 3988 
L 628 4550 
Q 988 4650 1302 4700 
Q 1616 4750 1894 4750 
Q 2613 4750 3031 4423 
Q 3450 4097 3450 3541 
Q 3450 3153 3228 2886 
Q 3006 2619 2597 2516 
z
" transform="scale(0.015625)"/>
     </defs>
     <use xlink:href="#DejaVuSans-33"/>
    </g>
   </g>
   <g id="text_18">
    <!-- 4 -->
    <g transform="translate(347.781523 266.570517) scale(0.1 -0.1)">
     <use xlink:href="#DejaVuSans-34"/>
    </g>
   </g>
   <g id="text_19">
    <!-- 5 -->
    <g transform="translate(347.781523 249.807042) scale(0.1 -0.1)">
     <defs>
      <path id="DejaVuSans-35" d="M 691 4666 
L 3169 4666 
L 3169 4134 
L 1269 4134 
L 1269 2991 
Q 1406 3038 1543 3061 
Q 1681 3084 1819 3084 
Q 2600 3084 3056 2656 
Q 3513 2228 3513 1497 
Q 3513 744 3044 326 
Q 2575 -91 1722 -91 
Q 1428 -91 1123 -41 
Q 819 9 494 109 
L 494 744 
Q 775 591 1075 516 
Q 1375 441 1709 441 
Q 2250 441 2565 725 
Q 2881 1009 2881 1497 
Q 2881 1984 2565 2268 
Q 2250 2553 1709 2553 
Q 1456 2553 1204 2497 
Q 953 2441 691 2322 
L 691 4666 
z
" transform="scale(0.015625)"/>
     </defs>
     <use xlink:href="#DejaVuSans-35"/>
    </g>
   </g>
   <g id="text_20">
    <!-- 6 -->
    <g transform="translate(347.781523 228.573306) scale(0.1 -0.1)">
     <use xlink:href="#DejaVuSans-36"/>
    </g>
   </g>
   <g id="text_21">
    <!-- 7 -->
    <g transform="translate(347.781523 207.563083) scale(0.1 -0.1)">
     <defs>
      <path id="DejaVuSans-37" d="M 525 4666 
L 3525 4666 
L 3525 4397 
L 1831 0 
L 1172 0 
L 2766 4134 
L 525 4134 
L 525 4666 
z
" transform="scale(0.015625)"/>
     </defs>
     <use xlink:href="#DejaVuSans-37"/>
    </g>
   </g>
   <g id="text_22">
    <!-- 8 -->
    <g transform="translate(347.781523 196.834459) scale(0.1 -0.1)">
     <use xlink:href="#DejaVuSans-38"/>
    </g>
   </g>
   <g id="text_23">
    <!-- 9 -->
    <g transform="translate(347.781523 175.153697) scale(0.1 -0.1)">
     <defs>
      <path id="DejaVuSans-39" d="M 703 97 
L 703 672 
Q 941 559 1184 500 
Q 1428 441 1663 441 
Q 2288 441 2617 861 
Q 2947 1281 2994 2138 
Q 2813 1869 2534 1725 
Q 2256 1581 1919 1581 
Q 1219 1581 811 2004 
Q 403 2428 403 3163 
Q 403 3881 828 4315 
Q 1253 4750 1959 4750 
Q 2769 4750 3195 4129 
Q 3622 3509 3622 2328 
Q 3622 1225 3098 567 
Q 2575 -91 1691 -91 
Q 1453 -91 1209 -44 
Q 966 3 703 97 
z
M 1959 2075 
Q 2384 2075 2632 2365 
Q 2881 2656 2881 3163 
Q 2881 3666 2632 3958 
Q 2384 4250 1959 4250 
Q 1534 4250 1286 3958 
Q 1038 3666 1038 3163 
Q 1038 2656 1286 2365 
Q 1534 2075 1959 2075 
z
" transform="scale(0.015625)"/>
     </defs>
     <use xlink:href="#DejaVuSans-39"/>
    </g>
   </g>
   <g id="text_24">
    <!-- 10 -->
    <g transform="translate(347.781523 152.802396) scale(0.1 -0.1)">
     <use xlink:href="#DejaVuSans-31"/>
     <use xlink:href="#DejaVuSans-30" x="63.623047"/>
    </g>
   </g>
   <g id="text_25">
    <!-- 11 -->
    <g transform="translate(347.781523 98.265222) scale(0.1 -0.1)">
     <use xlink:href="#DejaVuSans-31"/>
     <use xlink:href="#DejaVuSans-31" x="63.623047"/>
    </g>
   </g>
   <g id="text_26">
    <!-- 12 -->
    <g transform="translate(347.781523 44.6221) scale(0.1 -0.1)">
     <use xlink:href="#DejaVuSans-31"/>
     <use xlink:href="#DejaVuSans-32" x="63.623047"/>
    </g>
   </g>
   <g id="text_27">
    <!-- 13 -->
    <g transform="translate(347.781523 34.564014) scale(0.1 -0.1)">
     <use xlink:href="#DejaVuSans-31"/>
     <use xlink:href="#DejaVuSans-33" x="63.623047"/>
    </g>
   </g>
   <g id="text_28">
    <!-- 14 -->
    <g transform="translate(347.781523 26.741059) scale(0.1 -0.1)">
     <use xlink:href="#DejaVuSans-31"/>
     <use xlink:href="#DejaVuSans-34" x="63.623047"/>
    </g>
   </g>
   <g id="text_29">
    <!-- 15 -->
    <g transform="translate(347.781523 19.588643) scale(0.1 -0.1)">
     <use xlink:href="#DejaVuSans-31"/>
     <use xlink:href="#DejaVuSans-35" x="63.623047"/>
    </g>
   </g>
   <g id="text_30">
    <!-- 0.5243 -->
    <g style="fill: #ff0000" transform="translate(557.935884 18.918104) scale(0.1 -0.1)">
     <use xlink:href="#DejaVuSans-30"/>
     <use xlink:href="#DejaVuSans-2e" x="63.623047"/>
     <use xlink:href="#DejaVuSans-35" x="95.410156"/>
     <use xlink:href="#DejaVuSans-32" x="159.033203"/>
     <use xlink:href="#DejaVuSans-34" x="222.65625"/>
     <use xlink:href="#DejaVuSans-33" x="286.279297"/>
    </g>
   </g>
  </g>
 </g>
 <defs>
  <clipPath id="paa2cb4a809">
   <rect x="27.978125" y="14.447844" width="673.270312" height="376.395906"/>
  </clipPath>
 </defs>
</svg>
