<?xml version="1.0" encoding="utf-8" standalone="no"?>
<!DOCTYPE svg PUBLIC "-//W3C//DTD SVG 1.1//EN"
  "http://www.w3.org/Graphics/SVG/1.1/DTD/svg11.dtd">
<svg xmlns:xlink="http://www.w3.org/1999/xlink" width="720pt" height="720pt" viewBox="0 0 720 720" xmlns="http://www.w3.org/2000/svg" version="1.1">
 <metadata>
  <rdf:RDF xmlns:dc="http://purl.org/dc/elements/1.1/" xmlns:cc="http://creativecommons.org/ns#" xmlns:rdf="http://www.w3.org/1999/02/22-rdf-syntax-ns#">
   <cc:Work>
    <dc:type rdf:resource="http://purl.org/dc/dcmitype/StillImage"/>
    <dc:date>2022-11-17T19:06:49.562463</dc:date>
    <dc:format>image/svg+xml</dc:format>
    <dc:creator>
     <cc:Agent>
      <dc:title>Matplotlib v3.6.1, https://matplotlib.org/</dc:title>
     </cc:Agent>
    </dc:creator>
   </cc:Work>
  </rdf:RDF>
 </metadata>
 <defs>
  <style type="text/css">*{stroke-linejoin: round; stroke-linecap: butt}</style>
 </defs>
 <g id="figure_1">
  <g id="patch_1">
   <path d="M 0 720 
L 720 720 
L 720 0 
L 0 0 
z
" style="fill: #ffffff"/>
  </g>
  <g id="axes_1">
   <g id="patch_2">
    <path d="M 27.978125 678.84375 
L 701.248437 678.84375 
L 701.248437 11.814114 
L 27.978125 11.814114 
z
" style="fill: #ffffff"/>
   </g>
   <g id="PolyCollection_1">
    <defs>
     <path id="mca907411b4" d="M 383.128304 -49.078217 
L 364.613281 -49.078217 
L 364.613281 -49.870414 
L 364.613281 -50.662611 
L 364.613281 -51.454807 
L 364.613281 -52.247004 
L 364.613281 -53.039201 
L 364.613281 -53.831397 
L 364.613281 -54.623594 
L 364.613281 -55.415791 
L 364.613281 -56.207988 
L 364.613281 -57.000184 
L 364.613281 -57.792381 
L 364.613281 -58.584578 
L 364.613281 -59.376774 
L 364.613281 -60.168971 
L 364.613281 -60.961168 
L 364.613281 -61.753365 
L 364.613281 -62.545561 
L 364.613281 -63.337758 
L 364.613281 -64.129955 
L 364.613281 -64.922152 
L 364.613281 -65.714348 
L 364.613281 -66.506545 
L 364.613281 -67.298742 
L 364.613281 -68.090938 
L 364.613281 -68.883135 
L 364.613281 -69.675332 
L 364.613281 -70.467529 
L 364.613281 -71.259725 
L 364.613281 -72.051922 
L 364.613281 -72.844119 
L 364.613281 -73.636315 
L 364.613281 -74.428512 
L 364.613281 -75.220709 
L 364.613281 -76.012906 
L 364.613281 -76.805102 
L 364.613281 -77.597299 
L 364.613281 -78.389496 
L 364.613281 -79.181692 
L 364.613281 -79.973889 
L 364.613281 -80.766086 
L 364.613281 -81.558283 
L 364.613281 -82.350479 
L 364.613281 -83.142676 
L 364.613281 -83.934873 
L 364.613281 -84.727069 
L 364.613281 -85.519266 
L 364.613281 -86.311463 
L 364.613281 -87.10366 
L 364.613281 -87.895856 
L 364.613281 -88.688053 
L 364.613281 -89.48025 
L 364.613281 -90.272446 
L 364.613281 -91.064643 
L 364.613281 -91.85684 
L 364.613281 -92.649037 
L 364.613281 -93.441233 
L 364.613281 -94.23343 
L 364.613281 -95.025627 
L 364.613281 -95.817823 
L 364.613281 -96.61002 
L 364.613281 -97.402217 
L 364.613281 -98.194414 
L 364.613281 -98.98661 
L 364.613281 -99.778807 
L 364.613281 -100.571004 
L 364.613281 -101.3632 
L 364.613281 -102.155397 
L 364.613281 -102.947594 
L 364.613281 -103.739791 
L 364.613281 -104.531987 
L 364.613281 -105.324184 
L 364.613281 -106.116381 
L 364.613281 -106.908577 
L 364.613281 -107.700774 
L 364.613281 -108.492971 
L 364.613281 -109.285168 
L 364.613281 -110.077364 
L 364.613281 -110.869561 
L 364.613281 -111.661758 
L 364.613281 -112.453955 
L 364.613281 -113.246151 
L 364.613281 -114.038348 
L 364.613281 -114.830545 
L 364.613281 -115.622741 
L 364.613281 -116.414938 
L 364.613281 -117.207135 
L 592.363088 -117.207135 
L 592.363088 -117.207135 
L 590.273875 -116.414938 
L 590.248202 -115.622741 
L 589.759283 -114.830545 
L 588.645979 -114.038348 
L 588.459195 -113.246151 
L 588.378344 -112.453955 
L 588.040598 -111.661758 
L 587.828897 -110.869561 
L 587.509141 -110.077364 
L 586.946708 -109.285168 
L 586.413057 -108.492971 
L 586.365807 -107.700774 
L 586.271418 -106.908577 
L 585.578917 -106.116381 
L 585.440325 -105.324184 
L 585.346235 -104.531987 
L 585.142468 -103.739791 
L 584.98883 -102.947594 
L 584.13723 -102.155397 
L 583.591913 -101.3632 
L 583.584845 -100.571004 
L 583.570826 -99.778807 
L 583.507622 -98.98661 
L 582.867125 -98.194414 
L 582.786894 -97.402217 
L 581.569123 -96.61002 
L 581.455271 -95.817823 
L 581.219385 -95.025627 
L 580.208939 -94.23343 
L 580.208216 -93.441233 
L 579.950703 -92.649037 
L 579.774972 -91.85684 
L 579.677742 -91.064643 
L 579.334918 -90.272446 
L 578.954624 -89.48025 
L 578.717249 -88.688053 
L 578.20741 -87.895856 
L 577.28825 -87.10366 
L 576.807962 -86.311463 
L 575.712483 -85.519266 
L 575.357232 -84.727069 
L 574.895531 -83.934873 
L 574.772454 -83.142676 
L 574.744257 -82.350479 
L 574.35601 -81.558283 
L 573.953474 -80.766086 
L 573.664084 -79.973889 
L 573.566106 -79.181692 
L 573.111367 -78.389496 
L 573.090392 -77.597299 
L 572.859284 -76.805102 
L 572.580786 -76.012906 
L 572.309872 -75.220709 
L 571.772937 -74.428512 
L 570.715812 -73.636315 
L 569.051181 -72.844119 
L 567.652834 -72.051922 
L 566.410728 -71.259725 
L 566.088522 -70.467529 
L 565.751315 -69.675332 
L 565.551961 -68.883135 
L 565.19479 -68.090938 
L 564.859697 -67.298742 
L 563.958092 -66.506545 
L 561.861859 -65.714348 
L 561.545876 -64.922152 
L 561.221477 -64.129955 
L 561.099552 -63.337758 
L 560.952952 -62.545561 
L 560.584018 -61.753365 
L 559.703735 -60.961168 
L 555.298088 -60.168971 
L 554.348638 -59.376774 
L 554.254472 -58.584578 
L 553.171959 -57.792381 
L 545.128884 -57.000184 
L 538.346916 -56.207988 
L 531.004572 -55.415791 
L 519.653896 -54.623594 
L 513.485636 -53.831397 
L 512.58825 -53.039201 
L 501.500126 -52.247004 
L 496.530818 -51.454807 
L 492.249905 -50.662611 
L 462.697764 -49.870414 
L 383.128304 -49.078217 
z
" style="stroke: #000000; stroke-opacity: 0.7"/>
    </defs>
    <g clip-path="url(#p2709b65ebf)">
     <use xlink:href="#mca907411b4" x="0" y="720" style="fill-opacity: 0.7; stroke: #000000; stroke-opacity: 0.7"/>
    </g>
   </g>
   <g id="PolyCollection_2">
    <defs>
     <path id="mfa57d93556" d="M 300.018715 -125.921299 
L 364.613281 -125.921299 
L 364.613281 -126.713495 
L 364.613281 -127.505692 
L 364.613281 -128.297889 
L 364.613281 -129.090086 
L 364.613281 -129.882282 
L 364.613281 -130.674479 
L 364.613281 -131.466676 
L 364.613281 -132.258872 
L 364.613281 -133.051069 
L 364.613281 -133.843266 
L 364.613281 -134.635463 
L 364.613281 -135.427659 
L 364.613281 -136.219856 
L 364.613281 -137.012053 
L 364.613281 -137.804249 
L 364.613281 -138.596446 
L 364.613281 -139.388643 
L 364.613281 -140.18084 
L 364.613281 -140.973036 
L 364.613281 -141.765233 
L 364.613281 -142.55743 
L 364.613281 -143.349626 
L 364.613281 -144.141823 
L 364.613281 -144.93402 
L 364.613281 -145.726217 
L 364.613281 -146.518413 
L 364.613281 -147.31061 
L 364.613281 -148.102807 
L 364.613281 -148.895003 
L 364.613281 -149.6872 
L 364.613281 -150.479397 
L 364.613281 -151.271594 
L 364.613281 -152.06379 
L 364.613281 -152.855987 
L 364.613281 -153.648184 
L 364.613281 -154.440381 
L 364.613281 -155.232577 
L 364.613281 -156.024774 
L 364.613281 -156.816971 
L 364.613281 -157.609167 
L 364.613281 -158.401364 
L 364.613281 -159.193561 
L 364.613281 -159.985758 
L 364.613281 -160.777954 
L 364.613281 -161.570151 
L 364.613281 -162.362348 
L 364.613281 -163.154544 
L 364.613281 -163.946741 
L 364.613281 -164.738938 
L 364.613281 -165.531135 
L 364.613281 -166.323331 
L 364.613281 -167.115528 
L 364.613281 -167.907725 
L 364.613281 -168.699921 
L 364.613281 -169.492118 
L 364.613281 -170.284315 
L 364.613281 -171.076512 
L 364.613281 -171.868708 
L 364.613281 -172.660905 
L 364.613281 -173.453102 
L 364.613281 -174.245298 
L 364.613281 -175.037495 
L 364.613281 -175.829692 
L 364.613281 -176.621889 
L 364.613281 -177.414085 
L 364.613281 -178.206282 
L 364.613281 -178.998479 
L 364.613281 -179.790675 
L 364.613281 -180.582872 
L 364.613281 -181.375069 
L 364.613281 -182.167266 
L 364.613281 -182.959462 
L 364.613281 -183.751659 
L 364.613281 -184.543856 
L 364.613281 -185.336052 
L 364.613281 -186.128249 
L 364.613281 -186.920446 
L 364.613281 -187.712643 
L 364.613281 -188.504839 
L 364.613281 -189.297036 
L 364.613281 -190.089233 
L 364.613281 -190.881429 
L 364.613281 -191.673626 
L 364.613281 -192.465823 
L 364.613281 -193.25802 
L 364.613281 -194.050216 
L 364.613281 -194.842413 
L 364.613281 -195.63461 
L 364.613281 -196.426806 
L 364.613281 -197.219003 
L 364.613281 -198.0112 
L 364.613281 -198.803397 
L 364.613281 -199.595593 
L 364.613281 -200.38779 
L 364.613281 -201.179987 
L 364.613281 -201.972184 
L 364.613281 -202.76438 
L 364.613281 -203.556577 
L 364.613281 -204.348774 
L 364.613281 -205.14097 
L 581.756529 -205.14097 
L 581.756529 -205.14097 
L 578.582895 -204.348774 
L 577.808999 -203.556577 
L 576.897063 -202.76438 
L 575.0024 -201.972184 
L 572.495779 -201.179987 
L 571.748717 -200.38779 
L 570.994882 -199.595593 
L 570.245262 -198.803397 
L 569.623144 -198.0112 
L 568.839567 -197.219003 
L 567.74747 -196.426806 
L 565.769307 -195.63461 
L 565.766546 -194.842413 
L 565.036456 -194.050216 
L 564.945098 -193.25802 
L 564.851309 -192.465823 
L 563.672082 -191.673626 
L 561.218932 -190.881429 
L 559.018787 -190.089233 
L 558.80805 -189.297036 
L 558.503197 -188.504839 
L 558.235743 -187.712643 
L 556.542565 -186.920446 
L 556.147989 -186.128249 
L 555.548642 -185.336052 
L 555.442068 -184.543856 
L 554.712455 -183.751659 
L 554.558357 -182.959462 
L 552.755732 -182.167266 
L 552.239696 -181.375069 
L 551.002847 -180.582872 
L 550.893208 -179.790675 
L 550.855606 -178.998479 
L 549.617493 -178.206282 
L 549.53125 -177.414085 
L 549.217723 -176.621889 
L 546.89366 -175.829692 
L 546.732359 -175.037495 
L 545.289533 -174.245298 
L 543.502577 -173.453102 
L 543.055128 -172.660905 
L 542.208538 -171.868708 
L 541.164976 -171.076512 
L 539.776462 -170.284315 
L 539.501743 -169.492118 
L 537.925027 -168.699921 
L 537.466405 -167.907725 
L 536.786809 -167.115528 
L 535.62007 -166.323331 
L 535.139408 -165.531135 
L 535.075037 -164.738938 
L 525.60617 -163.946741 
L 525.334855 -163.154544 
L 524.646672 -162.362348 
L 523.193587 -161.570151 
L 522.034869 -160.777954 
L 520.151787 -159.985758 
L 519.793112 -159.193561 
L 516.679063 -158.401364 
L 516.293992 -157.609167 
L 515.158055 -156.816971 
L 512.035556 -156.024774 
L 508.179677 -155.232577 
L 503.537434 -154.440381 
L 499.87114 -153.648184 
L 493.826751 -152.855987 
L 492.483801 -152.06379 
L 492.2683 -151.271594 
L 490.310333 -150.479397 
L 482.800894 -149.6872 
L 479.204394 -148.895003 
L 477.599568 -148.102807 
L 476.193459 -147.31061 
L 472.84192 -146.518413 
L 469.69663 -145.726217 
L 465.450935 -144.93402 
L 462.438228 -144.141823 
L 458.930318 -143.349626 
L 458.303328 -142.55743 
L 452.461639 -141.765233 
L 449.959276 -140.973036 
L 447.538053 -140.18084 
L 442.183682 -139.388643 
L 438.355105 -138.596446 
L 435.299455 -137.804249 
L 420.228385 -137.012053 
L 419.768246 -136.219856 
L 417.039174 -135.427659 
L 407.153392 -134.635463 
L 402.644831 -133.843266 
L 399.024473 -133.051069 
L 396.895031 -132.258872 
L 396.426731 -131.466676 
L 387.60619 -130.674479 
L 381.221969 -129.882282 
L 370.240786 -129.090086 
L 346.715879 -128.297889 
L 329.538185 -127.505692 
L 306.594108 -126.713495 
L 300.018715 -125.921299 
z
" style="stroke: #7b008c; stroke-opacity: 0.7"/>
    </defs>
    <g clip-path="url(#p2709b65ebf)">
     <use xlink:href="#mfa57d93556" x="0" y="720" style="fill: #7b008c; fill-opacity: 0.7; stroke: #7b008c; stroke-opacity: 0.7"/>
    </g>
   </g>
   <g id="PolyCollection_3">
    <defs>
     <path id="mf11ee23a57" d="M 370.012312 -213.855134 
L 364.613281 -213.855134 
L 364.613281 -214.647331 
L 364.613281 -215.439528 
L 450.862312 -215.439528 
L 450.862312 -215.439528 
L 445.578611 -214.647331 
L 370.012312 -213.855134 
z
" style="stroke: #4300a2; stroke-opacity: 0.7"/>
    </defs>
    <g clip-path="url(#p2709b65ebf)">
     <use xlink:href="#mf11ee23a57" x="0" y="720" style="fill: #4300a2; fill-opacity: 0.7; stroke: #4300a2; stroke-opacity: 0.7"/>
    </g>
   </g>
   <g id="PolyCollection_4">
    <defs>
     <path id="mb4dfc6e7f5" d="M 462.807657 -224.153692 
L 364.613281 -224.153692 
L 364.613281 -224.945888 
L 364.613281 -225.738085 
L 364.613281 -226.530282 
L 364.613281 -227.322478 
L 364.613281 -228.114675 
L 364.613281 -228.906872 
L 364.613281 -229.699069 
L 364.613281 -230.491265 
L 364.613281 -231.283462 
L 364.613281 -232.075659 
L 364.613281 -232.867855 
L 364.613281 -233.660052 
L 364.613281 -234.452249 
L 527.708313 -234.452249 
L 527.708313 -234.452249 
L 525.34331 -233.660052 
L 522.036162 -232.867855 
L 521.551162 -232.075659 
L 521.008467 -231.283462 
L 519.847837 -230.491265 
L 514.768917 -229.699069 
L 514.553701 -228.906872 
L 508.61832 -228.114675 
L 504.460769 -227.322478 
L 485.579235 -226.530282 
L 485.579235 -225.738085 
L 482.98078 -224.945888 
L 462.807657 -224.153692 
z
" style="stroke: #0000d1; stroke-opacity: 0.7"/>
    </defs>
    <g clip-path="url(#p2709b65ebf)">
     <use xlink:href="#mb4dfc6e7f5" x="0" y="720" style="fill: #0000d1; fill-opacity: 0.7; stroke: #0000d1; stroke-opacity: 0.7"/>
    </g>
   </g>
   <g id="PolyCollection_5">
    <defs>
     <path id="m1a30c20451" d="M 466.692195 -243.166413 
L 364.613281 -243.166413 
L 364.613281 -243.958609 
L 364.613281 -244.750806 
L 364.613281 -245.543003 
L 364.613281 -246.3352 
L 364.613281 -247.127396 
L 364.613281 -247.919593 
L 364.613281 -248.71179 
L 364.613281 -249.503987 
L 364.613281 -250.296183 
L 364.613281 -251.08838 
L 364.613281 -251.880577 
L 364.613281 -252.672773 
L 364.613281 -253.46497 
L 364.613281 -254.257167 
L 364.613281 -255.049364 
L 364.613281 -255.84156 
L 364.613281 -256.633757 
L 364.613281 -257.425954 
L 364.613281 -258.21815 
L 364.613281 -259.010347 
L 364.613281 -259.802544 
L 364.613281 -260.594741 
L 364.613281 -261.386937 
L 364.613281 -262.179134 
L 364.613281 -262.971331 
L 364.613281 -263.763527 
L 364.613281 -264.555724 
L 364.613281 -265.347921 
L 364.613281 -266.140118 
L 364.613281 -266.932314 
L 364.613281 -267.724511 
L 364.613281 -268.516708 
L 364.613281 -269.308904 
L 364.613281 -270.101101 
L 364.613281 -270.893298 
L 364.613281 -271.685495 
L 364.613281 -272.477691 
L 364.613281 -273.269888 
L 364.613281 -274.062085 
L 364.613281 -274.854281 
L 364.613281 -275.646478 
L 364.613281 -276.438675 
L 364.613281 -277.230872 
L 364.613281 -278.023068 
L 364.613281 -278.815265 
L 630.020794 -278.815265 
L 630.020794 -278.815265 
L 629.765724 -278.023068 
L 627.104329 -277.230872 
L 626.614614 -276.438675 
L 624.179467 -275.646478 
L 621.73303 -274.854281 
L 621.691811 -274.062085 
L 621.491851 -273.269888 
L 620.542712 -272.477691 
L 618.189685 -271.685495 
L 618.073654 -270.893298 
L 616.21062 -270.101101 
L 614.806844 -269.308904 
L 613.411836 -268.516708 
L 613.061898 -267.724511 
L 612.063487 -266.932314 
L 612.063487 -266.140118 
L 611.106719 -265.347921 
L 609.938432 -264.555724 
L 608.955844 -263.763527 
L 605.529077 -262.971331 
L 605.042176 -262.179134 
L 603.682969 -261.386937 
L 602.738264 -260.594741 
L 602.27696 -259.802544 
L 601.628069 -259.010347 
L 600.512339 -258.21815 
L 598.069783 -257.425954 
L 597.39721 -256.633757 
L 597.035584 -255.84156 
L 596.97064 -255.049364 
L 592.287575 -254.257167 
L 591.917107 -253.46497 
L 591.117455 -252.672773 
L 583.380239 -251.880577 
L 579.768552 -251.08838 
L 577.69826 -250.296183 
L 576.926007 -249.503987 
L 575.685157 -248.71179 
L 571.729913 -247.919593 
L 564.854375 -247.127396 
L 563.303754 -246.3352 
L 558.565456 -245.543003 
L 509.151797 -244.750806 
L 481.644761 -243.958609 
L 466.692195 -243.166413 
z
" style="stroke: #0078dd; stroke-opacity: 0.7"/>
    </defs>
    <g clip-path="url(#p2709b65ebf)">
     <use xlink:href="#m1a30c20451" x="0" y="720" style="fill: #0078dd; fill-opacity: 0.7; stroke: #0078dd; stroke-opacity: 0.7"/>
    </g>
   </g>
   <g id="PolyCollection_6">
    <defs>
     <path id="m69324b5ca4" d="M 441.907462 -287.529429 
L 364.613281 -287.529429 
L 364.613281 -288.321626 
L 364.613281 -289.113822 
L 364.613281 -289.906019 
L 364.613281 -290.698216 
L 364.613281 -291.490413 
L 364.613281 -292.282609 
L 364.613281 -293.074806 
L 364.613281 -293.867003 
L 558.851442 -293.867003 
L 558.851442 -293.867003 
L 555.807856 -293.074806 
L 552.975701 -292.282609 
L 548.37072 -291.490413 
L 539.448505 -290.698216 
L 506.251311 -289.906019 
L 503.692109 -289.113822 
L 490.482104 -288.321626 
L 441.907462 -287.529429 
z
" style="stroke: #009ecf; stroke-opacity: 0.7"/>
    </defs>
    <g clip-path="url(#p2709b65ebf)">
     <use xlink:href="#m69324b5ca4" x="0" y="720" style="fill: #009ecf; fill-opacity: 0.7; stroke: #009ecf; stroke-opacity: 0.7"/>
    </g>
   </g>
   <g id="PolyCollection_7">
    <defs>
     <path id="ma930f5fccd" d="M 349.495145 -302.581167 
L 364.613281 -302.581167 
L 364.613281 -303.373363 
L 364.613281 -304.16556 
L 364.613281 -304.957757 
L 364.613281 -305.749953 
L 364.613281 -306.54215 
L 364.613281 -307.334347 
L 364.613281 -308.126544 
L 364.613281 -308.91874 
L 364.613281 -309.710937 
L 364.613281 -310.503134 
L 364.613281 -311.29533 
L 364.613281 -312.087527 
L 364.613281 -312.879724 
L 364.613281 -313.671921 
L 364.613281 -314.464117 
L 364.613281 -315.256314 
L 364.613281 -316.048511 
L 364.613281 -316.840707 
L 364.613281 -317.632904 
L 364.613281 -318.425101 
L 364.613281 -319.217298 
L 364.613281 -320.009494 
L 364.613281 -320.801691 
L 364.613281 -321.593888 
L 364.613281 -322.386084 
L 364.613281 -323.178281 
L 364.613281 -323.970478 
L 364.613281 -324.762675 
L 364.613281 -325.554871 
L 364.613281 -326.347068 
L 364.613281 -327.139265 
L 364.613281 -327.931461 
L 364.613281 -328.723658 
L 364.613281 -329.515855 
L 364.613281 -330.308052 
L 364.613281 -331.100248 
L 364.613281 -331.892445 
L 364.613281 -332.684642 
L 364.613281 -333.476838 
L 364.613281 -334.269035 
L 364.613281 -335.061232 
L 364.613281 -335.853429 
L 364.613281 -336.645625 
L 364.613281 -337.437822 
L 364.613281 -338.230019 
L 364.613281 -339.022216 
L 364.613281 -339.814412 
L 364.613281 -340.606609 
L 364.613281 -341.398806 
L 364.613281 -342.191002 
L 364.613281 -342.983199 
L 364.613281 -343.775396 
L 364.613281 -344.567593 
L 364.613281 -345.359789 
L 364.613281 -346.151986 
L 364.613281 -346.944183 
L 364.613281 -347.736379 
L 364.613281 -348.528576 
L 364.613281 -349.320773 
L 364.613281 -350.11297 
L 364.613281 -350.905166 
L 364.613281 -351.697363 
L 364.613281 -352.48956 
L 364.613281 -353.281756 
L 364.613281 -354.073953 
L 569.020549 -354.073953 
L 569.020549 -354.073953 
L 565.217962 -353.281756 
L 559.700473 -352.48956 
L 559.170726 -351.697363 
L 558.545918 -350.905166 
L 558.351161 -350.11297 
L 555.121921 -349.320773 
L 552.801817 -348.528576 
L 551.975341 -347.736379 
L 551.410777 -346.944183 
L 547.760076 -346.151986 
L 546.135642 -345.359789 
L 544.812428 -344.567593 
L 544.719991 -343.775396 
L 543.189145 -342.983199 
L 543.052048 -342.191002 
L 543.052048 -341.398806 
L 542.901305 -340.606609 
L 542.589769 -339.814412 
L 542.57708 -339.022216 
L 542.325911 -338.230019 
L 541.421761 -337.437822 
L 541.225804 -336.645625 
L 541.020511 -335.853429 
L 538.049141 -335.061232 
L 536.591233 -334.269035 
L 534.491542 -333.476838 
L 534.165472 -332.684642 
L 533.188058 -331.892445 
L 533.170787 -331.100248 
L 532.136509 -330.308052 
L 532.104217 -329.515855 
L 529.317977 -328.723658 
L 522.82391 -327.931461 
L 521.706591 -327.139265 
L 521.647369 -326.347068 
L 519.593509 -325.554871 
L 518.128367 -324.762675 
L 513.242544 -323.970478 
L 504.63674 -323.178281 
L 504.228177 -322.386084 
L 501.946041 -321.593888 
L 500.701013 -320.801691 
L 499.362333 -320.009494 
L 496.710345 -319.217298 
L 496.483675 -318.425101 
L 495.933164 -317.632904 
L 493.933615 -316.840707 
L 489.119096 -316.048511 
L 488.812042 -315.256314 
L 488.252197 -314.464117 
L 488.119036 -313.671921 
L 487.114008 -312.879724 
L 486.146424 -312.087527 
L 479.9146 -311.29533 
L 473.193073 -310.503134 
L 471.971255 -309.710937 
L 463.567787 -308.91874 
L 459.769443 -308.126544 
L 454.670208 -307.334347 
L 451.171362 -306.54215 
L 412.471079 -305.749953 
L 410.740052 -304.957757 
L 371.333896 -304.16556 
L 363.616517 -303.373363 
L 349.495145 -302.581167 
z
" style="stroke: #00aa98; stroke-opacity: 0.7"/>
    </defs>
    <g clip-path="url(#p2709b65ebf)">
     <use xlink:href="#ma930f5fccd" x="0" y="720" style="fill: #00aa98; fill-opacity: 0.7; stroke: #00aa98; stroke-opacity: 0.7"/>
    </g>
   </g>
   <g id="PolyCollection_8">
    <defs>
     <path id="m968220be68" d="M 600.233415 -362.788117 
L 364.613281 -362.788117 
L 364.613281 -363.580314 
L 364.613281 -364.37251 
L 364.613281 -365.164707 
L 364.613281 -365.956904 
L 364.613281 -366.749101 
L 364.613281 -367.541297 
L 364.613281 -368.333494 
L 640.704278 -368.333494 
L 640.704278 -368.333494 
L 635.989321 -367.541297 
L 635.019785 -366.749101 
L 629.027891 -365.956904 
L 624.942587 -365.164707 
L 622.737686 -364.37251 
L 602.141121 -363.580314 
L 600.233415 -362.788117 
z
" style="stroke: #009d1d; stroke-opacity: 0.7"/>
    </defs>
    <g clip-path="url(#p2709b65ebf)">
     <use xlink:href="#m968220be68" x="0" y="720" style="fill: #009d1d; fill-opacity: 0.7; stroke: #009d1d; stroke-opacity: 0.7"/>
    </g>
   </g>
   <g id="PolyCollection_9">
    <defs>
     <path id="m8cc268e5ce" d="M 370.760077 -377.047658 
L 364.613281 -377.047658 
L 364.613281 -377.839855 
L 364.613281 -378.632051 
L 364.613281 -379.424248 
L 364.613281 -380.216445 
L 364.613281 -381.008642 
L 364.613281 -381.800838 
L 364.613281 -382.593035 
L 364.613281 -383.385232 
L 364.613281 -384.177428 
L 364.613281 -384.969625 
L 364.613281 -385.761822 
L 364.613281 -386.554019 
L 364.613281 -387.346215 
L 364.613281 -388.138412 
L 364.613281 -388.930609 
L 364.613281 -389.722805 
L 364.613281 -390.515002 
L 364.613281 -391.307199 
L 364.613281 -392.099396 
L 547.418649 -392.099396 
L 547.418649 -392.099396 
L 543.456153 -391.307199 
L 543.272091 -390.515002 
L 536.410581 -389.722805 
L 535.447649 -388.930609 
L 534.485655 -388.138412 
L 533.147295 -387.346215 
L 532.008735 -386.554019 
L 531.204605 -385.761822 
L 530.728779 -384.969625 
L 507.56237 -384.177428 
L 505.867344 -383.385232 
L 505.560985 -382.593035 
L 499.11206 -381.800838 
L 499.06127 -381.008642 
L 487.831434 -380.216445 
L 486.194089 -379.424248 
L 484.986081 -378.632051 
L 468.288115 -377.839855 
L 370.760077 -377.047658 
z
" style="stroke: #00bc00; stroke-opacity: 0.7"/>
    </defs>
    <g clip-path="url(#p2709b65ebf)">
     <use xlink:href="#m8cc268e5ce" x="0" y="720" style="fill: #00bc00; fill-opacity: 0.7; stroke: #00bc00; stroke-opacity: 0.7"/>
    </g>
   </g>
   <g id="PolyCollection_10">
    <defs>
     <path id="m915b9687fc" d="M 328.86151 -400.813559 
L 364.613281 -400.813559 
L 364.613281 -401.605756 
L 364.613281 -402.397953 
L 364.613281 -403.19015 
L 364.613281 -403.982346 
L 364.613281 -404.774543 
L 364.613281 -405.56674 
L 364.613281 -406.358936 
L 364.613281 -407.151133 
L 364.613281 -407.94333 
L 364.613281 -408.735527 
L 364.613281 -409.527723 
L 364.613281 -410.31992 
L 364.613281 -411.112117 
L 364.613281 -411.904313 
L 364.613281 -412.69651 
L 364.613281 -413.488707 
L 364.613281 -414.280904 
L 364.613281 -415.0731 
L 364.613281 -415.865297 
L 364.613281 -416.657494 
L 364.613281 -417.44969 
L 364.613281 -418.241887 
L 364.613281 -419.034084 
L 364.613281 -419.826281 
L 364.613281 -420.618477 
L 364.613281 -421.410674 
L 364.613281 -422.202871 
L 364.613281 -422.995067 
L 364.613281 -423.787264 
L 364.613281 -424.579461 
L 364.613281 -425.371658 
L 364.613281 -426.163854 
L 364.613281 -426.956051 
L 364.613281 -427.748248 
L 364.613281 -428.540445 
L 364.613281 -429.332641 
L 364.613281 -430.124838 
L 364.613281 -430.917035 
L 364.613281 -431.709231 
L 364.613281 -432.501428 
L 364.613281 -433.293625 
L 364.613281 -434.085822 
L 364.613281 -434.878018 
L 364.613281 -435.670215 
L 364.613281 -436.462412 
L 364.613281 -437.254608 
L 364.613281 -438.046805 
L 364.613281 -438.839002 
L 364.613281 -439.631199 
L 364.613281 -440.423395 
L 364.613281 -441.215592 
L 364.613281 -442.007789 
L 364.613281 -442.799985 
L 364.613281 -443.592182 
L 364.613281 -444.384379 
L 364.613281 -445.176576 
L 568.987289 -445.176576 
L 568.987289 -445.176576 
L 567.549005 -444.384379 
L 561.491134 -443.592182 
L 560.295314 -442.799985 
L 560.295314 -442.007789 
L 559.968268 -441.215592 
L 556.295373 -440.423395 
L 553.792153 -439.631199 
L 552.383928 -438.839002 
L 552.336786 -438.046805 
L 548.474074 -437.254608 
L 548.474074 -436.462412 
L 546.369324 -435.670215 
L 545.971089 -434.878018 
L 541.989789 -434.085822 
L 541.123207 -433.293625 
L 541.093111 -432.501428 
L 540.334988 -431.709231 
L 539.232311 -430.917035 
L 535.905007 -430.124838 
L 531.433582 -429.332641 
L 528.244315 -428.540445 
L 522.365869 -427.748248 
L 522.125933 -426.956051 
L 521.427935 -426.163854 
L 518.892466 -425.371658 
L 515.107131 -424.579461 
L 514.769286 -423.787264 
L 514.634954 -422.995067 
L 514.634954 -422.202871 
L 513.183592 -421.410674 
L 510.082021 -420.618477 
L 508.811804 -419.826281 
L 506.109644 -419.034084 
L 505.287464 -418.241887 
L 504.316121 -417.44969 
L 504.102384 -416.657494 
L 502.14565 -415.865297 
L 501.263795 -415.0731 
L 500.409391 -414.280904 
L 493.603716 -413.488707 
L 492.59781 -412.69651 
L 484.163495 -411.904313 
L 482.190624 -411.112117 
L 481.28759 -410.31992 
L 477.367623 -409.527723 
L 476.020095 -408.735527 
L 463.928053 -407.94333 
L 455.729119 -407.151133 
L 455.625946 -406.358936 
L 438.446908 -405.56674 
L 435.270709 -404.774543 
L 431.852125 -403.982346 
L 419.141538 -403.19015 
L 418.27504 -402.397953 
L 403.273561 -401.605756 
L 328.86151 -400.813559 
z
" style="stroke: #00e700; stroke-opacity: 0.7"/>
    </defs>
    <g clip-path="url(#p2709b65ebf)">
     <use xlink:href="#m915b9687fc" x="0" y="720" style="fill: #00e700; fill-opacity: 0.7; stroke: #00e700; stroke-opacity: 0.7"/>
    </g>
   </g>
   <g id="PolyCollection_11">
    <defs>
     <path id="m1aa6ad5958" d="M 341.3402 -453.890739 
L 364.613281 -453.890739 
L 364.613281 -454.682936 
L 364.613281 -455.475133 
L 364.613281 -456.26733 
L 364.613281 -457.059526 
L 364.613281 -457.851723 
L 364.613281 -458.64392 
L 364.613281 -459.436116 
L 364.613281 -460.228313 
L 364.613281 -461.02051 
L 364.613281 -461.812707 
L 364.613281 -462.604903 
L 364.613281 -463.3971 
L 364.613281 -464.189297 
L 364.613281 -464.981493 
L 364.613281 -465.77369 
L 364.613281 -466.565887 
L 364.613281 -467.358084 
L 364.613281 -468.15028 
L 364.613281 -468.942477 
L 364.613281 -469.734674 
L 364.613281 -470.526871 
L 364.613281 -471.319067 
L 530.384608 -471.319067 
L 530.384608 -471.319067 
L 518.439517 -470.526871 
L 517.64272 -469.734674 
L 517.610945 -468.942477 
L 507.479896 -468.15028 
L 493.69423 -467.358084 
L 484.837896 -466.565887 
L 483.023431 -465.77369 
L 472.871267 -464.981493 
L 471.896855 -464.189297 
L 471.576971 -463.3971 
L 464.772324 -462.604903 
L 463.675384 -461.812707 
L 449.936993 -461.02051 
L 446.957134 -460.228313 
L 439.683597 -459.436116 
L 423.243919 -458.64392 
L 399.754981 -457.851723 
L 396.142522 -457.059526 
L 394.570602 -456.26733 
L 373.096839 -455.475133 
L 347.170421 -454.682936 
L 341.3402 -453.890739 
z
" style="stroke: #67ff00; stroke-opacity: 0.7"/>
    </defs>
    <g clip-path="url(#p2709b65ebf)">
     <use xlink:href="#m1aa6ad5958" x="0" y="720" style="fill: #67ff00; fill-opacity: 0.7; stroke: #67ff00; stroke-opacity: 0.7"/>
    </g>
   </g>
   <g id="PolyCollection_12">
    <defs>
     <path id="m3df2aec4fd" d="M 508.453347 -480.033231 
L 364.613281 -480.033231 
L 364.613281 -480.825428 
L 364.613281 -481.617625 
L 364.613281 -482.409821 
L 364.613281 -483.202018 
L 364.613281 -483.994215 
L 364.613281 -484.786411 
L 364.613281 -485.578608 
L 364.613281 -486.370805 
L 364.613281 -487.163002 
L 364.613281 -487.955198 
L 364.613281 -488.747395 
L 364.613281 -489.539592 
L 364.613281 -490.331788 
L 364.613281 -491.123985 
L 364.613281 -491.916182 
L 364.613281 -492.708379 
L 364.613281 -493.500575 
L 364.613281 -494.292772 
L 364.613281 -495.084969 
L 364.613281 -495.877165 
L 364.613281 -496.669362 
L 364.613281 -497.461559 
L 364.613281 -498.253756 
L 364.613281 -499.045952 
L 364.613281 -499.838149 
L 364.613281 -500.630346 
L 364.613281 -501.422542 
L 364.613281 -502.214739 
L 364.613281 -503.006936 
L 364.613281 -503.799133 
L 364.613281 -504.591329 
L 364.613281 -505.383526 
L 364.613281 -506.175723 
L 364.613281 -506.967919 
L 364.613281 -507.760116 
L 364.613281 -508.552313 
L 364.613281 -509.34451 
L 364.613281 -510.136706 
L 364.613281 -510.928903 
L 364.613281 -511.7211 
L 364.613281 -512.513296 
L 364.613281 -513.305493 
L 364.613281 -514.09769 
L 364.613281 -514.889887 
L 364.613281 -515.682083 
L 364.613281 -516.47428 
L 364.613281 -517.266477 
L 364.613281 -518.058674 
L 364.613281 -518.85087 
L 364.613281 -519.643067 
L 364.613281 -520.435264 
L 364.613281 -521.22746 
L 364.613281 -522.019657 
L 364.613281 -522.811854 
L 364.613281 -523.604051 
L 364.613281 -524.396247 
L 364.613281 -525.188444 
L 364.613281 -525.980641 
L 364.613281 -526.772837 
L 364.613281 -527.565034 
L 364.613281 -528.357231 
L 364.613281 -529.149428 
L 364.613281 -529.941624 
L 364.613281 -530.733821 
L 364.613281 -531.526018 
L 364.613281 -532.318214 
L 364.613281 -533.110411 
L 364.613281 -533.902608 
L 364.613281 -534.694805 
L 364.613281 -535.487001 
L 364.613281 -536.279198 
L 364.613281 -537.071395 
L 364.613281 -537.863591 
L 364.613281 -538.655788 
L 364.613281 -539.447985 
L 364.613281 -540.240182 
L 364.613281 -541.032378 
L 364.613281 -541.824575 
L 364.613281 -542.616772 
L 364.613281 -543.408968 
L 364.613281 -544.201165 
L 364.613281 -544.993362 
L 364.613281 -545.785559 
L 364.613281 -546.577755 
L 364.613281 -547.369952 
L 364.613281 -548.162149 
L 364.613281 -548.954345 
L 364.613281 -549.746542 
L 364.613281 -550.538739 
L 364.613281 -551.330936 
L 364.613281 -552.123132 
L 364.613281 -552.915329 
L 364.613281 -553.707526 
L 364.613281 -554.499722 
L 364.613281 -555.291919 
L 364.613281 -556.084116 
L 364.613281 -556.876313 
L 364.613281 -557.668509 
L 364.613281 -558.460706 
L 364.613281 -559.252903 
L 364.613281 -560.045099 
L 364.613281 -560.837296 
L 364.613281 -561.629493 
L 364.613281 -562.42169 
L 364.613281 -563.213886 
L 364.613281 -564.006083 
L 364.613281 -564.79828 
L 364.613281 -565.590477 
L 364.613281 -566.382673 
L 364.613281 -567.17487 
L 364.613281 -567.967067 
L 364.613281 -568.759263 
L 364.613281 -569.55146 
L 364.613281 -570.343657 
L 364.613281 -571.135854 
L 364.613281 -571.92805 
L 364.613281 -572.720247 
L 364.613281 -573.512444 
L 364.613281 -574.30464 
L 364.613281 -575.096837 
L 364.613281 -575.889034 
L 364.613281 -576.681231 
L 364.613281 -577.473427 
L 364.613281 -578.265624 
L 364.613281 -579.057821 
L 364.613281 -579.850017 
L 364.613281 -580.642214 
L 364.613281 -581.434411 
L 364.613281 -582.226608 
L 364.613281 -583.018804 
L 364.613281 -583.811001 
L 364.613281 -584.603198 
L 364.613281 -585.395394 
L 364.613281 -586.187591 
L 364.613281 -586.979788 
L 364.613281 -587.771985 
L 364.613281 -588.564181 
L 364.613281 -589.356378 
L 364.613281 -590.148575 
L 364.613281 -590.940771 
L 364.613281 -591.732968 
L 364.613281 -592.525165 
L 364.613281 -593.317362 
L 364.613281 -594.109558 
L 364.613281 -594.901755 
L 364.613281 -595.693952 
L 364.613281 -596.486148 
L 364.613281 -597.278345 
L 364.613281 -598.070542 
L 364.613281 -598.862739 
L 364.613281 -599.654935 
L 364.613281 -600.447132 
L 364.613281 -601.239329 
L 364.613281 -602.031525 
L 364.613281 -602.823722 
L 364.613281 -603.615919 
L 364.613281 -604.408116 
L 364.613281 -605.200312 
L 364.613281 -605.992509 
L 364.613281 -606.784706 
L 364.613281 -607.576903 
L 364.613281 -608.369099 
L 364.613281 -609.161296 
L 364.613281 -609.953493 
L 364.613281 -610.745689 
L 364.613281 -611.537886 
L 364.613281 -612.330083 
L 364.613281 -613.12228 
L 364.613281 -613.914476 
L 364.613281 -614.706673 
L 364.613281 -615.49887 
L 364.613281 -616.291066 
L 364.613281 -617.083263 
L 364.613281 -617.87546 
L 364.613281 -618.667657 
L 364.613281 -619.459853 
L 364.613281 -620.25205 
L 364.613281 -621.044247 
L 364.613281 -621.836443 
L 364.613281 -622.62864 
L 364.613281 -623.420837 
L 364.613281 -624.213034 
L 364.613281 -625.00523 
L 364.613281 -625.797427 
L 364.613281 -626.589624 
L 364.613281 -627.38182 
L 364.613281 -628.174017 
L 364.613281 -628.966214 
L 364.613281 -629.758411 
L 364.613281 -630.550607 
L 364.613281 -631.342804 
L 364.613281 -632.135001 
L 364.613281 -632.927197 
L 364.613281 -633.719394 
L 364.613281 -634.511591 
L 364.613281 -635.303788 
L 364.613281 -636.095984 
L 364.613281 -636.888181 
L 364.613281 -637.680378 
L 364.613281 -638.472574 
L 611.586606 -638.472574 
L 611.586606 -638.472574 
L 607.651031 -637.680378 
L 606.618541 -636.888181 
L 606.17336 -636.095984 
L 606.061481 -635.303788 
L 604.475962 -634.511591 
L 604.287453 -633.719394 
L 603.907448 -632.927197 
L 603.38947 -632.135001 
L 602.431565 -631.342804 
L 602.161921 -630.550607 
L 602.088684 -629.758411 
L 602.05357 -628.966214 
L 601.943227 -628.174017 
L 601.346192 -627.38182 
L 601.294493 -626.589624 
L 600.885986 -625.797427 
L 600.706665 -625.00523 
L 600.403456 -624.213034 
L 600.116546 -623.420837 
L 599.556304 -622.62864 
L 599.545573 -621.836443 
L 599.249705 -621.044247 
L 598.997457 -620.25205 
L 598.561219 -619.459853 
L 598.474032 -618.667657 
L 598.453492 -617.87546 
L 597.93835 -617.083263 
L 597.887727 -616.291066 
L 597.738609 -615.49887 
L 597.252461 -614.706673 
L 597.206789 -613.914476 
L 597.198426 -613.12228 
L 597.064975 -612.330083 
L 596.99223 -611.537886 
L 596.219888 -610.745689 
L 596.181548 -609.953493 
L 596.158165 -609.161296 
L 595.905081 -608.369099 
L 595.749345 -607.576903 
L 595.688781 -606.784706 
L 595.31875 -605.992509 
L 595.304544 -605.200312 
L 595.182865 -604.408116 
L 594.584422 -603.615919 
L 594.155261 -602.823722 
L 594.087164 -602.031525 
L 593.710434 -601.239329 
L 593.446739 -600.447132 
L 593.371716 -599.654935 
L 593.039467 -598.862739 
L 592.815166 -598.070542 
L 592.580082 -597.278345 
L 592.386741 -596.486148 
L 592.112551 -595.693952 
L 591.865991 -594.901755 
L 591.752991 -594.109558 
L 590.982386 -593.317362 
L 590.804952 -592.525165 
L 590.592686 -591.732968 
L 590.119091 -590.940771 
L 590.05758 -590.148575 
L 589.84405 -589.356378 
L 589.214833 -588.564181 
L 589.201903 -587.771985 
L 589.052781 -586.979788 
L 588.824907 -586.187591 
L 588.63955 -585.395394 
L 588.171945 -584.603198 
L 588.171567 -583.811001 
L 588.072098 -583.018804 
L 588.064985 -582.226608 
L 588.01847 -581.434411 
L 587.527666 -580.642214 
L 587.458141 -579.850017 
L 586.750872 -579.057821 
L 586.633583 -578.265624 
L 586.614375 -577.473427 
L 586.554147 -576.681231 
L 586.50905 -575.889034 
L 586.28605 -575.096837 
L 586.051478 -574.30464 
L 585.853781 -573.512444 
L 585.727905 -572.720247 
L 585.663982 -571.92805 
L 585.62275 -571.135854 
L 585.589015 -570.343657 
L 585.120211 -569.55146 
L 584.813707 -568.759263 
L 584.735491 -567.967067 
L 584.633203 -567.17487 
L 584.412494 -566.382673 
L 584.275622 -565.590477 
L 583.936625 -564.79828 
L 583.833805 -564.006083 
L 583.816417 -563.213886 
L 583.708852 -562.42169 
L 583.690568 -561.629493 
L 583.379045 -560.837296 
L 583.273915 -560.045099 
L 583.089683 -559.252903 
L 583.063851 -558.460706 
L 582.65268 -557.668509 
L 581.135111 -556.876313 
L 580.489945 -556.084116 
L 580.319098 -555.291919 
L 580.278162 -554.499722 
L 580.061051 -553.707526 
L 579.731484 -552.915329 
L 579.398581 -552.123132 
L 579.394533 -551.330936 
L 579.196974 -550.538739 
L 579.179108 -549.746542 
L 578.965894 -548.954345 
L 578.750239 -548.162149 
L 577.690975 -547.369952 
L 577.038641 -546.577755 
L 576.781003 -545.785559 
L 576.54578 -544.993362 
L 576.445527 -544.201165 
L 575.902582 -543.408968 
L 574.474643 -542.616772 
L 573.927068 -541.824575 
L 573.883969 -541.032378 
L 573.210552 -540.240182 
L 572.823517 -539.447985 
L 572.449233 -538.655788 
L 572.081502 -537.863591 
L 571.750291 -537.071395 
L 571.716167 -536.279198 
L 571.353844 -535.487001 
L 571.352372 -534.694805 
L 570.723996 -533.902608 
L 570.677585 -533.110411 
L 570.489708 -532.318214 
L 569.783441 -531.526018 
L 569.29477 -530.733821 
L 568.994451 -529.941624 
L 568.873751 -529.149428 
L 568.473071 -528.357231 
L 568.46951 -527.565034 
L 567.95032 -526.772837 
L 567.631608 -525.980641 
L 565.736756 -525.188444 
L 565.308035 -524.396247 
L 565.108288 -523.604051 
L 564.586576 -522.811854 
L 564.386804 -522.019657 
L 564.220463 -521.22746 
L 564.134026 -520.435264 
L 563.915134 -519.643067 
L 563.515301 -518.85087 
L 563.346382 -518.058674 
L 563.296628 -517.266477 
L 562.51247 -516.47428 
L 561.579169 -515.682083 
L 560.433118 -514.889887 
L 560.34799 -514.09769 
L 558.140839 -513.305493 
L 557.994391 -512.513296 
L 557.244333 -511.7211 
L 556.831955 -510.928903 
L 556.367834 -510.136706 
L 555.816429 -509.34451 
L 555.615553 -508.552313 
L 555.505067 -507.760116 
L 554.927539 -506.967919 
L 554.914755 -506.175723 
L 553.295 -505.383526 
L 552.4853 -504.591329 
L 552.28254 -503.799133 
L 551.773147 -503.006936 
L 551.722098 -502.214739 
L 550.993335 -501.422542 
L 550.706152 -500.630346 
L 550.400124 -499.838149 
L 550.068829 -499.045952 
L 549.328998 -498.253756 
L 549.083383 -497.461559 
L 548.395632 -496.669362 
L 547.135811 -495.877165 
L 545.916204 -495.084969 
L 543.96095 -494.292772 
L 543.781966 -493.500575 
L 542.659995 -492.708379 
L 541.754382 -491.916182 
L 540.44862 -491.123985 
L 539.52493 -490.331788 
L 539.22317 -489.539592 
L 539.138385 -488.747395 
L 536.832161 -487.955198 
L 535.35917 -487.163002 
L 533.549029 -486.370805 
L 531.418869 -485.578608 
L 530.005138 -484.786411 
L 527.659987 -483.994215 
L 525.155875 -483.202018 
L 524.378884 -482.409821 
L 519.780624 -481.617625 
L 516.062057 -480.825428 
L 508.453347 -480.033231 
z
" style="stroke: #e4f100; stroke-opacity: 0.7"/>
    </defs>
    <g clip-path="url(#p2709b65ebf)">
     <use xlink:href="#m3df2aec4fd" x="0" y="720" style="fill: #e4f100; fill-opacity: 0.7; stroke: #e4f100; stroke-opacity: 0.7"/>
    </g>
   </g>
   <g id="PolyCollection_13">
    <defs>
     <path id="mc4f272da49" d="M 248.550057 -647.186738 
L 364.613281 -647.186738 
L 364.613281 -647.978935 
L 364.613281 -648.771132 
L 364.613281 -649.563328 
L 364.613281 -650.355525 
L 364.613281 -651.147722 
L 364.613281 -651.939919 
L 364.613281 -652.732115 
L 364.613281 -653.524312 
L 364.613281 -654.316509 
L 364.613281 -655.108706 
L 364.613281 -655.900902 
L 364.613281 -656.693099 
L 364.613281 -657.485296 
L 364.613281 -658.277492 
L 364.613281 -659.069689 
L 364.613281 -659.861886 
L 364.613281 -660.654083 
L 364.613281 -661.446279 
L 507.035436 -661.446279 
L 507.035436 -661.446279 
L 498.324251 -660.654083 
L 473.894736 -659.861886 
L 470.499673 -659.069689 
L 468.662419 -658.277492 
L 467.634248 -657.485296 
L 465.308943 -656.693099 
L 463.425789 -655.900902 
L 461.799967 -655.108706 
L 448.256212 -654.316509 
L 419.830073 -653.524312 
L 409.59462 -652.732115 
L 403.116415 -651.939919 
L 359.363798 -651.147722 
L 347.795454 -650.355525 
L 337.582961 -649.563328 
L 328.580715 -648.771132 
L 317.331521 -647.978935 
L 248.550057 -647.186738 
z
" style="stroke: #ffc900; stroke-opacity: 0.7"/>
    </defs>
    <g clip-path="url(#p2709b65ebf)">
     <use xlink:href="#mc4f272da49" x="0" y="720" style="fill: #ffc900; fill-opacity: 0.7; stroke: #ffc900; stroke-opacity: 0.7"/>
    </g>
   </g>
   <g id="PolyCollection_14">
    <defs>
     <path id="mc043343614" d="M 462.077266 -670.160443 
L 364.613281 -670.160443 
L 364.613281 -670.95264 
L 364.613281 -671.744837 
L 364.613281 -672.537033 
L 364.613281 -673.32923 
L 364.613281 -674.121427 
L 542.877377 -674.121427 
L 542.877377 -674.121427 
L 533.186216 -673.32923 
L 519.492594 -672.537033 
L 506.017833 -671.744837 
L 493.097756 -670.95264 
L 462.077266 -670.160443 
z
" style="stroke: #ff6900; stroke-opacity: 0.7"/>
    </defs>
    <g clip-path="url(#p2709b65ebf)">
     <use xlink:href="#mc043343614" x="0" y="720" style="fill: #ff6900; fill-opacity: 0.7; stroke: #ff6900; stroke-opacity: 0.7"/>
    </g>
   </g>
   <g id="PolyCollection_15">
    <defs>
     <path id="m46fa427e16" d="M 624.606254 -682.835591 
L 364.613281 -682.835591 
L 364.613281 -683.627787 
L 364.613281 -684.419984 
L 364.613281 -685.212181 
L 364.613281 -686.004377 
L 364.613281 -686.796574 
L 364.613281 -687.588771 
L 364.613281 -688.380968 
L 364.613281 -689.173164 
L 648.812957 -689.173164 
L 648.812957 -689.173164 
L 648.235534 -688.380968 
L 646.6185 -687.588771 
L 644.804959 -686.796574 
L 631.797199 -686.004377 
L 630.46384 -685.212181 
L 626.930504 -684.419984 
L 624.78607 -683.627787 
L 624.606254 -682.835591 
z
" style="stroke: #ec0000; stroke-opacity: 0.7"/>
    </defs>
    <g clip-path="url(#p2709b65ebf)">
     <use xlink:href="#m46fa427e16" x="0" y="720" style="fill: #ec0000; fill-opacity: 0.7; stroke: #ec0000; stroke-opacity: 0.7"/>
    </g>
   </g>
   <g id="PolyCollection_16">
    <defs>
     <path id="md4c46314e9" d="M 647.905996 -697.887328 
L 364.613281 -697.887328 
L 364.613281 -698.679525 
L 364.613281 -699.471722 
L 663.604241 -699.471722 
L 663.604241 -699.471722 
L 660.783919 -698.679525 
L 647.905996 -697.887328 
z
" style="stroke: #cf0000; stroke-opacity: 0.7"/>
    </defs>
    <g clip-path="url(#p2709b65ebf)">
     <use xlink:href="#md4c46314e9" x="0" y="720" style="fill: #cf0000; fill-opacity: 0.7; stroke: #cf0000; stroke-opacity: 0.7"/>
    </g>
   </g>
   <g id="matplotlib.axis_1">
    <g id="xtick_1">
     <g id="line2d_1">
      <defs>
       <path id="m7837d14a5b" d="M 0 0 
L 0 3.5 
" style="stroke: #000000; stroke-width: 0.8"/>
      </defs>
      <g>
       <use xlink:href="#m7837d14a5b" x="27.978125" y="678.84375" style="stroke: #000000; stroke-width: 0.8"/>
      </g>
     </g>
     <g id="text_1">
      <!-- −1.0 -->
      <g transform="translate(15.836719 693.442188) scale(0.1 -0.1)">
       <defs>
        <path id="DejaVuSans-2212" d="M 678 2272 
L 4684 2272 
L 4684 1741 
L 678 1741 
L 678 2272 
z
" transform="scale(0.015625)"/>
        <path id="DejaVuSans-31" d="M 794 531 
L 1825 531 
L 1825 4091 
L 703 3866 
L 703 4441 
L 1819 4666 
L 2450 4666 
L 2450 531 
L 3481 531 
L 3481 0 
L 794 0 
L 794 531 
z
" transform="scale(0.015625)"/>
        <path id="DejaVuSans-2e" d="M 684 794 
L 1344 794 
L 1344 0 
L 684 0 
L 684 794 
z
" transform="scale(0.015625)"/>
        <path id="DejaVuSans-30" d="M 2034 4250 
Q 1547 4250 1301 3770 
Q 1056 3291 1056 2328 
Q 1056 1369 1301 889 
Q 1547 409 2034 409 
Q 2525 409 2770 889 
Q 3016 1369 3016 2328 
Q 3016 3291 2770 3770 
Q 2525 4250 2034 4250 
z
M 2034 4750 
Q 2819 4750 3233 4129 
Q 3647 3509 3647 2328 
Q 3647 1150 3233 529 
Q 2819 -91 2034 -91 
Q 1250 -91 836 529 
Q 422 1150 422 2328 
Q 422 3509 836 4129 
Q 1250 4750 2034 4750 
z
" transform="scale(0.015625)"/>
       </defs>
       <use xlink:href="#DejaVuSans-2212"/>
       <use xlink:href="#DejaVuSans-31" x="83.789062"/>
       <use xlink:href="#DejaVuSans-2e" x="147.412109"/>
       <use xlink:href="#DejaVuSans-30" x="179.199219"/>
      </g>
     </g>
    </g>
    <g id="xtick_2">
     <g id="line2d_2">
      <g>
       <use xlink:href="#m7837d14a5b" x="95.305156" y="678.84375" style="stroke: #000000; stroke-width: 0.8"/>
      </g>
     </g>
     <g id="text_2">
      <!-- −0.8 -->
      <g transform="translate(83.16375 693.442188) scale(0.1 -0.1)">
       <defs>
        <path id="DejaVuSans-38" d="M 2034 2216 
Q 1584 2216 1326 1975 
Q 1069 1734 1069 1313 
Q 1069 891 1326 650 
Q 1584 409 2034 409 
Q 2484 409 2743 651 
Q 3003 894 3003 1313 
Q 3003 1734 2745 1975 
Q 2488 2216 2034 2216 
z
M 1403 2484 
Q 997 2584 770 2862 
Q 544 3141 544 3541 
Q 544 4100 942 4425 
Q 1341 4750 2034 4750 
Q 2731 4750 3128 4425 
Q 3525 4100 3525 3541 
Q 3525 3141 3298 2862 
Q 3072 2584 2669 2484 
Q 3125 2378 3379 2068 
Q 3634 1759 3634 1313 
Q 3634 634 3220 271 
Q 2806 -91 2034 -91 
Q 1263 -91 848 271 
Q 434 634 434 1313 
Q 434 1759 690 2068 
Q 947 2378 1403 2484 
z
M 1172 3481 
Q 1172 3119 1398 2916 
Q 1625 2713 2034 2713 
Q 2441 2713 2670 2916 
Q 2900 3119 2900 3481 
Q 2900 3844 2670 4047 
Q 2441 4250 2034 4250 
Q 1625 4250 1398 4047 
Q 1172 3844 1172 3481 
z
" transform="scale(0.015625)"/>
       </defs>
       <use xlink:href="#DejaVuSans-2212"/>
       <use xlink:href="#DejaVuSans-30" x="83.789062"/>
       <use xlink:href="#DejaVuSans-2e" x="147.412109"/>
       <use xlink:href="#DejaVuSans-38" x="179.199219"/>
      </g>
     </g>
    </g>
    <g id="xtick_3">
     <g id="line2d_3">
      <g>
       <use xlink:href="#m7837d14a5b" x="162.632188" y="678.84375" style="stroke: #000000; stroke-width: 0.8"/>
      </g>
     </g>
     <g id="text_3">
      <!-- −0.6 -->
      <g transform="translate(150.490781 693.442188) scale(0.1 -0.1)">
       <defs>
        <path id="DejaVuSans-36" d="M 2113 2584 
Q 1688 2584 1439 2293 
Q 1191 2003 1191 1497 
Q 1191 994 1439 701 
Q 1688 409 2113 409 
Q 2538 409 2786 701 
Q 3034 994 3034 1497 
Q 3034 2003 2786 2293 
Q 2538 2584 2113 2584 
z
M 3366 4563 
L 3366 3988 
Q 3128 4100 2886 4159 
Q 2644 4219 2406 4219 
Q 1781 4219 1451 3797 
Q 1122 3375 1075 2522 
Q 1259 2794 1537 2939 
Q 1816 3084 2150 3084 
Q 2853 3084 3261 2657 
Q 3669 2231 3669 1497 
Q 3669 778 3244 343 
Q 2819 -91 2113 -91 
Q 1303 -91 875 529 
Q 447 1150 447 2328 
Q 447 3434 972 4092 
Q 1497 4750 2381 4750 
Q 2619 4750 2861 4703 
Q 3103 4656 3366 4563 
z
" transform="scale(0.015625)"/>
       </defs>
       <use xlink:href="#DejaVuSans-2212"/>
       <use xlink:href="#DejaVuSans-30" x="83.789062"/>
       <use xlink:href="#DejaVuSans-2e" x="147.412109"/>
       <use xlink:href="#DejaVuSans-36" x="179.199219"/>
      </g>
     </g>
    </g>
    <g id="xtick_4">
     <g id="line2d_4">
      <g>
       <use xlink:href="#m7837d14a5b" x="229.959219" y="678.84375" style="stroke: #000000; stroke-width: 0.8"/>
      </g>
     </g>
     <g id="text_4">
      <!-- −0.4 -->
      <g transform="translate(217.817813 693.442188) scale(0.1 -0.1)">
       <defs>
        <path id="DejaVuSans-34" d="M 2419 4116 
L 825 1625 
L 2419 1625 
L 2419 4116 
z
M 2253 4666 
L 3047 4666 
L 3047 1625 
L 3713 1625 
L 3713 1100 
L 3047 1100 
L 3047 0 
L 2419 0 
L 2419 1100 
L 313 1100 
L 313 1709 
L 2253 4666 
z
" transform="scale(0.015625)"/>
       </defs>
       <use xlink:href="#DejaVuSans-2212"/>
       <use xlink:href="#DejaVuSans-30" x="83.789062"/>
       <use xlink:href="#DejaVuSans-2e" x="147.412109"/>
       <use xlink:href="#DejaVuSans-34" x="179.199219"/>
      </g>
     </g>
    </g>
    <g id="xtick_5">
     <g id="line2d_5">
      <g>
       <use xlink:href="#m7837d14a5b" x="297.28625" y="678.84375" style="stroke: #000000; stroke-width: 0.8"/>
      </g>
     </g>
     <g id="text_5">
      <!-- −0.2 -->
      <g transform="translate(285.144844 693.442188) scale(0.1 -0.1)">
       <defs>
        <path id="DejaVuSans-32" d="M 1228 531 
L 3431 531 
L 3431 0 
L 469 0 
L 469 531 
Q 828 903 1448 1529 
Q 2069 2156 2228 2338 
Q 2531 2678 2651 2914 
Q 2772 3150 2772 3378 
Q 2772 3750 2511 3984 
Q 2250 4219 1831 4219 
Q 1534 4219 1204 4116 
Q 875 4013 500 3803 
L 500 4441 
Q 881 4594 1212 4672 
Q 1544 4750 1819 4750 
Q 2544 4750 2975 4387 
Q 3406 4025 3406 3419 
Q 3406 3131 3298 2873 
Q 3191 2616 2906 2266 
Q 2828 2175 2409 1742 
Q 1991 1309 1228 531 
z
" transform="scale(0.015625)"/>
       </defs>
       <use xlink:href="#DejaVuSans-2212"/>
       <use xlink:href="#DejaVuSans-30" x="83.789062"/>
       <use xlink:href="#DejaVuSans-2e" x="147.412109"/>
       <use xlink:href="#DejaVuSans-32" x="179.199219"/>
      </g>
     </g>
    </g>
    <g id="xtick_6">
     <g id="line2d_6">
      <g>
       <use xlink:href="#m7837d14a5b" x="364.613281" y="678.84375" style="stroke: #000000; stroke-width: 0.8"/>
      </g>
     </g>
     <g id="text_6">
      <!-- 0.0 -->
      <g transform="translate(356.661719 693.442188) scale(0.1 -0.1)">
       <use xlink:href="#DejaVuSans-30"/>
       <use xlink:href="#DejaVuSans-2e" x="63.623047"/>
       <use xlink:href="#DejaVuSans-30" x="95.410156"/>
      </g>
     </g>
    </g>
    <g id="xtick_7">
     <g id="line2d_7">
      <g>
       <use xlink:href="#m7837d14a5b" x="431.940313" y="678.84375" style="stroke: #000000; stroke-width: 0.8"/>
      </g>
     </g>
     <g id="text_7">
      <!-- 0.2 -->
      <g transform="translate(423.98875 693.442188) scale(0.1 -0.1)">
       <use xlink:href="#DejaVuSans-30"/>
       <use xlink:href="#DejaVuSans-2e" x="63.623047"/>
       <use xlink:href="#DejaVuSans-32" x="95.410156"/>
      </g>
     </g>
    </g>
    <g id="xtick_8">
     <g id="line2d_8">
      <g>
       <use xlink:href="#m7837d14a5b" x="499.267344" y="678.84375" style="stroke: #000000; stroke-width: 0.8"/>
      </g>
     </g>
     <g id="text_8">
      <!-- 0.4 -->
      <g transform="translate(491.315781 693.442188) scale(0.1 -0.1)">
       <use xlink:href="#DejaVuSans-30"/>
       <use xlink:href="#DejaVuSans-2e" x="63.623047"/>
       <use xlink:href="#DejaVuSans-34" x="95.410156"/>
      </g>
     </g>
    </g>
    <g id="xtick_9">
     <g id="line2d_9">
      <g>
       <use xlink:href="#m7837d14a5b" x="566.594375" y="678.84375" style="stroke: #000000; stroke-width: 0.8"/>
      </g>
     </g>
     <g id="text_9">
      <!-- 0.6 -->
      <g transform="translate(558.642812 693.442188) scale(0.1 -0.1)">
       <use xlink:href="#DejaVuSans-30"/>
       <use xlink:href="#DejaVuSans-2e" x="63.623047"/>
       <use xlink:href="#DejaVuSans-36" x="95.410156"/>
      </g>
     </g>
    </g>
    <g id="xtick_10">
     <g id="line2d_10">
      <g>
       <use xlink:href="#m7837d14a5b" x="633.921406" y="678.84375" style="stroke: #000000; stroke-width: 0.8"/>
      </g>
     </g>
     <g id="text_10">
      <!-- 0.8 -->
      <g transform="translate(625.969844 693.442188) scale(0.1 -0.1)">
       <use xlink:href="#DejaVuSans-30"/>
       <use xlink:href="#DejaVuSans-2e" x="63.623047"/>
       <use xlink:href="#DejaVuSans-38" x="95.410156"/>
      </g>
     </g>
    </g>
    <g id="xtick_11">
     <g id="line2d_11">
      <g>
       <use xlink:href="#m7837d14a5b" x="701.248437" y="678.84375" style="stroke: #000000; stroke-width: 0.8"/>
      </g>
     </g>
     <g id="text_11">
      <!-- 1.0 -->
      <g transform="translate(693.296875 693.442188) scale(0.1 -0.1)">
       <use xlink:href="#DejaVuSans-31"/>
       <use xlink:href="#DejaVuSans-2e" x="63.623047"/>
       <use xlink:href="#DejaVuSans-30" x="95.410156"/>
      </g>
     </g>
    </g>
    <g id="text_12">
     <!-- Silhouette coefficient -->
     <g transform="translate(311.463281 707.120313) scale(0.1 -0.1)">
      <defs>
       <path id="DejaVuSans-53" d="M 3425 4513 
L 3425 3897 
Q 3066 4069 2747 4153 
Q 2428 4238 2131 4238 
Q 1616 4238 1336 4038 
Q 1056 3838 1056 3469 
Q 1056 3159 1242 3001 
Q 1428 2844 1947 2747 
L 2328 2669 
Q 3034 2534 3370 2195 
Q 3706 1856 3706 1288 
Q 3706 609 3251 259 
Q 2797 -91 1919 -91 
Q 1588 -91 1214 -16 
Q 841 59 441 206 
L 441 856 
Q 825 641 1194 531 
Q 1563 422 1919 422 
Q 2459 422 2753 634 
Q 3047 847 3047 1241 
Q 3047 1584 2836 1778 
Q 2625 1972 2144 2069 
L 1759 2144 
Q 1053 2284 737 2584 
Q 422 2884 422 3419 
Q 422 4038 858 4394 
Q 1294 4750 2059 4750 
Q 2388 4750 2728 4690 
Q 3069 4631 3425 4513 
z
" transform="scale(0.015625)"/>
       <path id="DejaVuSans-69" d="M 603 3500 
L 1178 3500 
L 1178 0 
L 603 0 
L 603 3500 
z
M 603 4863 
L 1178 4863 
L 1178 4134 
L 603 4134 
L 603 4863 
z
" transform="scale(0.015625)"/>
       <path id="DejaVuSans-6c" d="M 603 4863 
L 1178 4863 
L 1178 0 
L 603 0 
L 603 4863 
z
" transform="scale(0.015625)"/>
       <path id="DejaVuSans-68" d="M 3513 2113 
L 3513 0 
L 2938 0 
L 2938 2094 
Q 2938 2591 2744 2837 
Q 2550 3084 2163 3084 
Q 1697 3084 1428 2787 
Q 1159 2491 1159 1978 
L 1159 0 
L 581 0 
L 581 4863 
L 1159 4863 
L 1159 2956 
Q 1366 3272 1645 3428 
Q 1925 3584 2291 3584 
Q 2894 3584 3203 3211 
Q 3513 2838 3513 2113 
z
" transform="scale(0.015625)"/>
       <path id="DejaVuSans-6f" d="M 1959 3097 
Q 1497 3097 1228 2736 
Q 959 2375 959 1747 
Q 959 1119 1226 758 
Q 1494 397 1959 397 
Q 2419 397 2687 759 
Q 2956 1122 2956 1747 
Q 2956 2369 2687 2733 
Q 2419 3097 1959 3097 
z
M 1959 3584 
Q 2709 3584 3137 3096 
Q 3566 2609 3566 1747 
Q 3566 888 3137 398 
Q 2709 -91 1959 -91 
Q 1206 -91 779 398 
Q 353 888 353 1747 
Q 353 2609 779 3096 
Q 1206 3584 1959 3584 
z
" transform="scale(0.015625)"/>
       <path id="DejaVuSans-75" d="M 544 1381 
L 544 3500 
L 1119 3500 
L 1119 1403 
Q 1119 906 1312 657 
Q 1506 409 1894 409 
Q 2359 409 2629 706 
Q 2900 1003 2900 1516 
L 2900 3500 
L 3475 3500 
L 3475 0 
L 2900 0 
L 2900 538 
Q 2691 219 2414 64 
Q 2138 -91 1772 -91 
Q 1169 -91 856 284 
Q 544 659 544 1381 
z
M 1991 3584 
L 1991 3584 
z
" transform="scale(0.015625)"/>
       <path id="DejaVuSans-65" d="M 3597 1894 
L 3597 1613 
L 953 1613 
Q 991 1019 1311 708 
Q 1631 397 2203 397 
Q 2534 397 2845 478 
Q 3156 559 3463 722 
L 3463 178 
Q 3153 47 2828 -22 
Q 2503 -91 2169 -91 
Q 1331 -91 842 396 
Q 353 884 353 1716 
Q 353 2575 817 3079 
Q 1281 3584 2069 3584 
Q 2775 3584 3186 3129 
Q 3597 2675 3597 1894 
z
M 3022 2063 
Q 3016 2534 2758 2815 
Q 2500 3097 2075 3097 
Q 1594 3097 1305 2825 
Q 1016 2553 972 2059 
L 3022 2063 
z
" transform="scale(0.015625)"/>
       <path id="DejaVuSans-74" d="M 1172 4494 
L 1172 3500 
L 2356 3500 
L 2356 3053 
L 1172 3053 
L 1172 1153 
Q 1172 725 1289 603 
Q 1406 481 1766 481 
L 2356 481 
L 2356 0 
L 1766 0 
Q 1100 0 847 248 
Q 594 497 594 1153 
L 594 3053 
L 172 3053 
L 172 3500 
L 594 3500 
L 594 4494 
L 1172 4494 
z
" transform="scale(0.015625)"/>
       <path id="DejaVuSans-20" transform="scale(0.015625)"/>
       <path id="DejaVuSans-63" d="M 3122 3366 
L 3122 2828 
Q 2878 2963 2633 3030 
Q 2388 3097 2138 3097 
Q 1578 3097 1268 2742 
Q 959 2388 959 1747 
Q 959 1106 1268 751 
Q 1578 397 2138 397 
Q 2388 397 2633 464 
Q 2878 531 3122 666 
L 3122 134 
Q 2881 22 2623 -34 
Q 2366 -91 2075 -91 
Q 1284 -91 818 406 
Q 353 903 353 1747 
Q 353 2603 823 3093 
Q 1294 3584 2113 3584 
Q 2378 3584 2631 3529 
Q 2884 3475 3122 3366 
z
" transform="scale(0.015625)"/>
       <path id="DejaVuSans-66" d="M 2375 4863 
L 2375 4384 
L 1825 4384 
Q 1516 4384 1395 4259 
Q 1275 4134 1275 3809 
L 1275 3500 
L 2222 3500 
L 2222 3053 
L 1275 3053 
L 1275 0 
L 697 0 
L 697 3053 
L 147 3053 
L 147 3500 
L 697 3500 
L 697 3744 
Q 697 4328 969 4595 
Q 1241 4863 1831 4863 
L 2375 4863 
z
" transform="scale(0.015625)"/>
       <path id="DejaVuSans-6e" d="M 3513 2113 
L 3513 0 
L 2938 0 
L 2938 2094 
Q 2938 2591 2744 2837 
Q 2550 3084 2163 3084 
Q 1697 3084 1428 2787 
Q 1159 2491 1159 1978 
L 1159 0 
L 581 0 
L 581 3500 
L 1159 3500 
L 1159 2956 
Q 1366 3272 1645 3428 
Q 1925 3584 2291 3584 
Q 2894 3584 3203 3211 
Q 3513 2838 3513 2113 
z
" transform="scale(0.015625)"/>
      </defs>
      <use xlink:href="#DejaVuSans-53"/>
      <use xlink:href="#DejaVuSans-69" x="63.476562"/>
      <use xlink:href="#DejaVuSans-6c" x="91.259766"/>
      <use xlink:href="#DejaVuSans-68" x="119.042969"/>
      <use xlink:href="#DejaVuSans-6f" x="182.421875"/>
      <use xlink:href="#DejaVuSans-75" x="243.603516"/>
      <use xlink:href="#DejaVuSans-65" x="306.982422"/>
      <use xlink:href="#DejaVuSans-74" x="368.505859"/>
      <use xlink:href="#DejaVuSans-74" x="407.714844"/>
      <use xlink:href="#DejaVuSans-65" x="446.923828"/>
      <use xlink:href="#DejaVuSans-20" x="508.447266"/>
      <use xlink:href="#DejaVuSans-63" x="540.234375"/>
      <use xlink:href="#DejaVuSans-6f" x="595.214844"/>
      <use xlink:href="#DejaVuSans-65" x="656.396484"/>
      <use xlink:href="#DejaVuSans-66" x="717.919922"/>
      <use xlink:href="#DejaVuSans-66" x="753.125"/>
      <use xlink:href="#DejaVuSans-69" x="788.330078"/>
      <use xlink:href="#DejaVuSans-63" x="816.113281"/>
      <use xlink:href="#DejaVuSans-69" x="871.09375"/>
      <use xlink:href="#DejaVuSans-65" x="898.876953"/>
      <use xlink:href="#DejaVuSans-6e" x="960.400391"/>
      <use xlink:href="#DejaVuSans-74" x="1023.779297"/>
     </g>
    </g>
   </g>
   <g id="matplotlib.axis_2">
    <g id="text_13">
     <!-- Predicted label -->
     <g transform="translate(18.398438 382.481276) rotate(-90) scale(0.1 -0.1)">
      <defs>
       <path id="DejaVuSans-50" d="M 1259 4147 
L 1259 2394 
L 2053 2394 
Q 2494 2394 2734 2622 
Q 2975 2850 2975 3272 
Q 2975 3691 2734 3919 
Q 2494 4147 2053 4147 
L 1259 4147 
z
M 628 4666 
L 2053 4666 
Q 2838 4666 3239 4311 
Q 3641 3956 3641 3272 
Q 3641 2581 3239 2228 
Q 2838 1875 2053 1875 
L 1259 1875 
L 1259 0 
L 628 0 
L 628 4666 
z
" transform="scale(0.015625)"/>
       <path id="DejaVuSans-72" d="M 2631 2963 
Q 2534 3019 2420 3045 
Q 2306 3072 2169 3072 
Q 1681 3072 1420 2755 
Q 1159 2438 1159 1844 
L 1159 0 
L 581 0 
L 581 3500 
L 1159 3500 
L 1159 2956 
Q 1341 3275 1631 3429 
Q 1922 3584 2338 3584 
Q 2397 3584 2469 3576 
Q 2541 3569 2628 3553 
L 2631 2963 
z
" transform="scale(0.015625)"/>
       <path id="DejaVuSans-64" d="M 2906 2969 
L 2906 4863 
L 3481 4863 
L 3481 0 
L 2906 0 
L 2906 525 
Q 2725 213 2448 61 
Q 2172 -91 1784 -91 
Q 1150 -91 751 415 
Q 353 922 353 1747 
Q 353 2572 751 3078 
Q 1150 3584 1784 3584 
Q 2172 3584 2448 3432 
Q 2725 3281 2906 2969 
z
M 947 1747 
Q 947 1113 1208 752 
Q 1469 391 1925 391 
Q 2381 391 2643 752 
Q 2906 1113 2906 1747 
Q 2906 2381 2643 2742 
Q 2381 3103 1925 3103 
Q 1469 3103 1208 2742 
Q 947 2381 947 1747 
z
" transform="scale(0.015625)"/>
       <path id="DejaVuSans-61" d="M 2194 1759 
Q 1497 1759 1228 1600 
Q 959 1441 959 1056 
Q 959 750 1161 570 
Q 1363 391 1709 391 
Q 2188 391 2477 730 
Q 2766 1069 2766 1631 
L 2766 1759 
L 2194 1759 
z
M 3341 1997 
L 3341 0 
L 2766 0 
L 2766 531 
Q 2569 213 2275 61 
Q 1981 -91 1556 -91 
Q 1019 -91 701 211 
Q 384 513 384 1019 
Q 384 1609 779 1909 
Q 1175 2209 1959 2209 
L 2766 2209 
L 2766 2266 
Q 2766 2663 2505 2880 
Q 2244 3097 1772 3097 
Q 1472 3097 1187 3025 
Q 903 2953 641 2809 
L 641 3341 
Q 956 3463 1253 3523 
Q 1550 3584 1831 3584 
Q 2591 3584 2966 3190 
Q 3341 2797 3341 1997 
z
" transform="scale(0.015625)"/>
       <path id="DejaVuSans-62" d="M 3116 1747 
Q 3116 2381 2855 2742 
Q 2594 3103 2138 3103 
Q 1681 3103 1420 2742 
Q 1159 2381 1159 1747 
Q 1159 1113 1420 752 
Q 1681 391 2138 391 
Q 2594 391 2855 752 
Q 3116 1113 3116 1747 
z
M 1159 2969 
Q 1341 3281 1617 3432 
Q 1894 3584 2278 3584 
Q 2916 3584 3314 3078 
Q 3713 2572 3713 1747 
Q 3713 922 3314 415 
Q 2916 -91 2278 -91 
Q 1894 -91 1617 61 
Q 1341 213 1159 525 
L 1159 0 
L 581 0 
L 581 4863 
L 1159 4863 
L 1159 2969 
z
" transform="scale(0.015625)"/>
      </defs>
      <use xlink:href="#DejaVuSans-50"/>
      <use xlink:href="#DejaVuSans-72" x="58.552734"/>
      <use xlink:href="#DejaVuSans-65" x="97.416016"/>
      <use xlink:href="#DejaVuSans-64" x="158.939453"/>
      <use xlink:href="#DejaVuSans-69" x="222.416016"/>
      <use xlink:href="#DejaVuSans-63" x="250.199219"/>
      <use xlink:href="#DejaVuSans-74" x="305.179688"/>
      <use xlink:href="#DejaVuSans-65" x="344.388672"/>
      <use xlink:href="#DejaVuSans-64" x="405.912109"/>
      <use xlink:href="#DejaVuSans-20" x="469.388672"/>
      <use xlink:href="#DejaVuSans-6c" x="501.175781"/>
      <use xlink:href="#DejaVuSans-61" x="528.958984"/>
      <use xlink:href="#DejaVuSans-62" x="590.238281"/>
      <use xlink:href="#DejaVuSans-65" x="653.714844"/>
      <use xlink:href="#DejaVuSans-6c" x="715.238281"/>
     </g>
    </g>
   </g>
   <g id="line2d_12">
    <path d="M 541.104127 678.84375 
L 541.104127 11.814114 
" clip-path="url(#p2709b65ebf)" style="fill: none; stroke: #ff0000; stroke-width: 1.5; stroke-linecap: square"/>
   </g>
   <g id="patch_3">
    <path d="M 27.978125 678.84375 
L 27.978125 11.814114 
" style="fill: none; stroke: #000000; stroke-width: 0.8; stroke-linejoin: miter; stroke-linecap: square"/>
   </g>
   <g id="patch_4">
    <path d="M 701.248437 678.84375 
L 701.248437 11.814114 
" style="fill: none; stroke: #000000; stroke-width: 0.8; stroke-linejoin: miter; stroke-linecap: square"/>
   </g>
   <g id="patch_5">
    <path d="M 27.978125 678.84375 
L 701.248437 678.84375 
" style="fill: none; stroke: #000000; stroke-width: 0.8; stroke-linejoin: miter; stroke-linecap: square"/>
   </g>
   <g id="patch_6">
    <path d="M 27.978125 11.814114 
L 701.248437 11.814114 
" style="fill: none; stroke: #000000; stroke-width: 0.8; stroke-linejoin: miter; stroke-linecap: square"/>
   </g>
   <g id="text_14">
    <!-- 0 -->
    <g transform="translate(347.781523 636.461226) scale(0.1 -0.1)">
     <use xlink:href="#DejaVuSans-30"/>
    </g>
   </g>
   <g id="text_15">
    <!-- 1 -->
    <g transform="translate(347.781523 554.072767) scale(0.1 -0.1)">
     <use xlink:href="#DejaVuSans-31"/>
    </g>
   </g>
   <g id="text_16">
    <!-- 2 -->
    <g transform="translate(347.781523 504.956571) scale(0.1 -0.1)">
     <use xlink:href="#DejaVuSans-32"/>
    </g>
   </g>
   <g id="text_17">
    <!-- 3 -->
    <g transform="translate(347.781523 490.300931) scale(0.1 -0.1)">
     <defs>
      <path id="DejaVuSans-33" d="M 2597 2516 
Q 3050 2419 3304 2112 
Q 3559 1806 3559 1356 
Q 3559 666 3084 287 
Q 2609 -91 1734 -91 
Q 1441 -91 1130 -33 
Q 819 25 488 141 
L 488 750 
Q 750 597 1062 519 
Q 1375 441 1716 441 
Q 2309 441 2620 675 
Q 2931 909 2931 1356 
Q 2931 1769 2642 2001 
Q 2353 2234 1838 2234 
L 1294 2234 
L 1294 2753 
L 1863 2753 
Q 2328 2753 2575 2939 
Q 2822 3125 2822 3475 
Q 2822 3834 2567 4026 
Q 2313 4219 1838 4219 
Q 1578 4219 1281 4162 
Q 984 4106 628 3988 
L 628 4550 
Q 988 4650 1302 4700 
Q 1616 4750 1894 4750 
Q 2613 4750 3031 4423 
Q 3450 4097 3450 3541 
Q 3450 3153 3228 2886 
Q 3006 2619 2597 2516 
z
" transform="scale(0.015625)"/>
     </defs>
     <use xlink:href="#DejaVuSans-33"/>
    </g>
   </g>
   <g id="text_18">
    <!-- 4 -->
    <g transform="translate(347.781523 458.613063) scale(0.1 -0.1)">
     <use xlink:href="#DejaVuSans-34"/>
    </g>
   </g>
   <g id="text_19">
    <!-- 5 -->
    <g transform="translate(347.781523 428.905686) scale(0.1 -0.1)">
     <defs>
      <path id="DejaVuSans-35" d="M 691 4666 
L 3169 4666 
L 3169 4134 
L 1269 4134 
L 1269 2991 
Q 1406 3038 1543 3061 
Q 1681 3084 1819 3084 
Q 2600 3084 3056 2656 
Q 3513 2228 3513 1497 
Q 3513 744 3044 326 
Q 2575 -91 1722 -91 
Q 1428 -91 1123 -41 
Q 819 9 494 109 
L 494 744 
Q 775 591 1075 516 
Q 1375 441 1709 441 
Q 2250 441 2565 725 
Q 2881 1009 2881 1497 
Q 2881 1984 2565 2268 
Q 2250 2553 1709 2553 
Q 1456 2553 1204 2497 
Q 953 2441 691 2322 
L 691 4666 
z
" transform="scale(0.015625)"/>
     </defs>
     <use xlink:href="#DejaVuSans-35"/>
    </g>
   </g>
   <g id="text_20">
    <!-- 6 -->
    <g transform="translate(347.781523 391.276342) scale(0.1 -0.1)">
     <use xlink:href="#DejaVuSans-36"/>
    </g>
   </g>
   <g id="text_21">
    <!-- 7 -->
    <g transform="translate(347.781523 354.043096) scale(0.1 -0.1)">
     <defs>
      <path id="DejaVuSans-37" d="M 525 4666 
L 3525 4666 
L 3525 4397 
L 1831 0 
L 1172 0 
L 2766 4134 
L 525 4134 
L 525 4666 
z
" transform="scale(0.015625)"/>
     </defs>
     <use xlink:href="#DejaVuSans-37"/>
    </g>
   </g>
   <g id="text_22">
    <!-- 8 -->
    <g transform="translate(347.781523 335.030375) scale(0.1 -0.1)">
     <use xlink:href="#DejaVuSans-38"/>
    </g>
   </g>
   <g id="text_23">
    <!-- 9 -->
    <g transform="translate(347.781523 296.608834) scale(0.1 -0.1)">
     <defs>
      <path id="DejaVuSans-39" d="M 703 97 
L 703 672 
Q 941 559 1184 500 
Q 1428 441 1663 441 
Q 2288 441 2617 861 
Q 2947 1281 2994 2138 
Q 2813 1869 2534 1725 
Q 2256 1581 1919 1581 
Q 1219 1581 811 2004 
Q 403 2428 403 3163 
Q 403 3881 828 4315 
Q 1253 4750 1959 4750 
Q 2769 4750 3195 4129 
Q 3622 3509 3622 2328 
Q 3622 1225 3098 567 
Q 2575 -91 1691 -91 
Q 1453 -91 1209 -44 
Q 966 3 703 97 
z
M 1959 2075 
Q 2384 2075 2632 2365 
Q 2881 2656 2881 3163 
Q 2881 3666 2632 3958 
Q 2384 4250 1959 4250 
Q 1534 4250 1286 3958 
Q 1038 3666 1038 3163 
Q 1038 2656 1286 2365 
Q 1534 2075 1959 2075 
z
" transform="scale(0.015625)"/>
     </defs>
     <use xlink:href="#DejaVuSans-39"/>
    </g>
   </g>
   <g id="text_24">
    <!-- 10 -->
    <g transform="translate(347.781523 256.998998) scale(0.1 -0.1)">
     <use xlink:href="#DejaVuSans-31"/>
     <use xlink:href="#DejaVuSans-30" x="63.623047"/>
    </g>
   </g>
   <g id="text_25">
    <!-- 11 -->
    <g transform="translate(347.781523 160.350999) scale(0.1 -0.1)">
     <use xlink:href="#DejaVuSans-31"/>
     <use xlink:href="#DejaVuSans-31" x="63.623047"/>
    </g>
   </g>
   <g id="text_26">
    <!-- 12 -->
    <g transform="translate(347.781523 65.287393) scale(0.1 -0.1)">
     <use xlink:href="#DejaVuSans-31"/>
     <use xlink:href="#DejaVuSans-32" x="63.623047"/>
    </g>
   </g>
   <g id="text_27">
    <!-- 13 -->
    <g transform="translate(347.781523 47.462967) scale(0.1 -0.1)">
     <use xlink:href="#DejaVuSans-31"/>
     <use xlink:href="#DejaVuSans-33" x="63.623047"/>
    </g>
   </g>
   <g id="text_28">
    <!-- 14 -->
    <g transform="translate(347.781523 33.599524) scale(0.1 -0.1)">
     <use xlink:href="#DejaVuSans-31"/>
     <use xlink:href="#DejaVuSans-34" x="63.623047"/>
    </g>
   </g>
   <g id="text_29">
    <!-- 15 -->
    <g transform="translate(347.781523 20.924377) scale(0.1 -0.1)">
     <use xlink:href="#DejaVuSans-31"/>
     <use xlink:href="#DejaVuSans-35" x="63.623047"/>
    </g>
   </g>
   <g id="text_30">
    <!-- 0.5243 -->
    <g style="fill: #ff0000" transform="translate(557.935884 19.736082) scale(0.1 -0.1)">
     <use xlink:href="#DejaVuSans-30"/>
     <use xlink:href="#DejaVuSans-2e" x="63.623047"/>
     <use xlink:href="#DejaVuSans-35" x="95.410156"/>
     <use xlink:href="#DejaVuSans-32" x="159.033203"/>
     <use xlink:href="#DejaVuSans-34" x="222.65625"/>
     <use xlink:href="#DejaVuSans-33" x="286.279297"/>
    </g>
   </g>
  </g>
 </g>
 <defs>
  <clipPath id="p2709b65ebf">
   <rect x="27.978125" y="11.814114" width="673.270312" height="667.029636"/>
  </clipPath>
 </defs>
</svg>
