<?xml version="1.0" encoding="utf-8" standalone="no"?>
<!DOCTYPE svg PUBLIC "-//W3C//DTD SVG 1.1//EN"
  "http://www.w3.org/Graphics/SVG/1.1/DTD/svg11.dtd">
<svg xmlns:xlink="http://www.w3.org/1999/xlink" width="720pt" height="576pt" viewBox="0 0 720 576" xmlns="http://www.w3.org/2000/svg" version="1.1">
 <metadata>
  <rdf:RDF xmlns:dc="http://purl.org/dc/elements/1.1/" xmlns:cc="http://creativecommons.org/ns#" xmlns:rdf="http://www.w3.org/1999/02/22-rdf-syntax-ns#">
   <cc:Work>
    <dc:type rdf:resource="http://purl.org/dc/dcmitype/StillImage"/>
    <dc:date>2022-11-21T18:22:19.146999</dc:date>
    <dc:format>image/svg+xml</dc:format>
    <dc:creator>
     <cc:Agent>
      <dc:title>Matplotlib v3.6.1, https://matplotlib.org/</dc:title>
     </cc:Agent>
    </dc:creator>
   </cc:Work>
  </rdf:RDF>
 </metadata>
 <defs>
  <style type="text/css">*{stroke-linejoin: round; stroke-linecap: butt}</style>
 </defs>
 <g id="figure_1">
  <g id="patch_1">
   <path d="M 0 576 
L 720 576 
L 720 0 
L 0 0 
z
" style="fill: #ffffff"/>
  </g>
  <g id="axes_1">
   <g id="patch_2">
    <path d="M 42.495313 510.648438 
L 693.296875 510.648438 
L 693.296875 24.465325 
L 42.495313 24.465325 
z
" style="fill: #ffffff"/>
   </g>
   <g id="PolyCollection_1">
    <defs>
     <path id="m7142619855" d="M 313.039689 -71.19511 
L 367.896094 -71.19511 
L 367.896094 -71.779464 
L 367.896094 -72.363819 
L 367.896094 -72.948174 
L 367.896094 -73.532528 
L 367.896094 -74.116883 
L 367.896094 -74.701238 
L 367.896094 -75.285592 
L 367.896094 -75.869947 
L 367.896094 -76.454302 
L 367.896094 -77.038657 
L 367.896094 -77.623011 
L 367.896094 -78.207366 
L 367.896094 -78.791721 
L 367.896094 -79.376075 
L 367.896094 -79.96043 
L 367.896094 -80.544785 
L 367.896094 -81.129139 
L 367.896094 -81.713494 
L 367.896094 -82.297849 
L 367.896094 -82.882204 
L 367.896094 -83.466558 
L 367.896094 -84.050913 
L 367.896094 -84.635268 
L 367.896094 -85.219622 
L 367.896094 -85.803977 
L 367.896094 -86.388332 
L 367.896094 -86.972687 
L 367.896094 -87.557041 
L 367.896094 -88.141396 
L 367.896094 -88.725751 
L 367.896094 -89.310105 
L 367.896094 -89.89446 
L 367.896094 -90.478815 
L 367.896094 -91.063169 
L 367.896094 -91.647524 
L 367.896094 -92.231879 
L 367.896094 -92.816234 
L 367.896094 -93.400588 
L 367.896094 -93.984943 
L 367.896094 -94.569298 
L 367.896094 -95.153652 
L 367.896094 -95.738007 
L 367.896094 -96.322362 
L 367.896094 -96.906716 
L 367.896094 -97.491071 
L 367.896094 -98.075426 
L 367.896094 -98.659781 
L 367.896094 -99.244135 
L 367.896094 -99.82849 
L 367.896094 -100.412845 
L 367.896094 -100.997199 
L 367.896094 -101.581554 
L 367.896094 -102.165909 
L 367.896094 -102.750263 
L 367.896094 -103.334618 
L 367.896094 -103.918973 
L 367.896094 -104.503328 
L 367.896094 -105.087682 
L 367.896094 -105.672037 
L 367.896094 -106.256392 
L 367.896094 -106.840746 
L 367.896094 -107.425101 
L 367.896094 -108.009456 
L 367.896094 -108.593811 
L 367.896094 -109.178165 
L 367.896094 -109.76252 
L 367.896094 -110.346875 
L 367.896094 -110.931229 
L 367.896094 -111.515584 
L 367.896094 -112.099939 
L 367.896094 -112.684293 
L 367.896094 -113.268648 
L 367.896094 -113.853003 
L 367.896094 -114.437358 
L 367.896094 -115.021712 
L 367.896094 -115.606067 
L 367.896094 -116.190422 
L 367.896094 -116.774776 
L 367.896094 -117.359131 
L 367.896094 -117.943486 
L 367.896094 -118.52784 
L 367.896094 -119.112195 
L 367.896094 -119.69655 
L 367.896094 -120.280905 
L 367.896094 -120.865259 
L 367.896094 -121.449614 
L 367.896094 -122.033969 
L 367.896094 -122.618323 
L 367.896094 -123.202678 
L 367.896094 -123.787033 
L 367.896094 -124.371388 
L 367.896094 -124.955742 
L 367.896094 -125.540097 
L 367.896094 -126.124452 
L 367.896094 -126.708806 
L 367.896094 -127.293161 
L 367.896094 -127.877516 
L 367.896094 -128.46187 
L 367.896094 -129.046225 
L 367.896094 -129.63058 
L 367.896094 -130.214935 
L 367.896094 -130.799289 
L 367.896094 -131.383644 
L 367.896094 -131.967999 
L 367.896094 -132.552353 
L 367.896094 -133.136708 
L 367.896094 -133.721063 
L 367.896094 -134.305417 
L 367.896094 -134.889772 
L 367.896094 -135.474127 
L 367.896094 -136.058482 
L 367.896094 -136.642836 
L 367.896094 -137.227191 
L 367.896094 -137.811546 
L 367.896094 -138.3959 
L 367.896094 -138.980255 
L 367.896094 -139.56461 
L 367.896094 -140.148964 
L 367.896094 -140.733319 
L 367.896094 -141.317674 
L 367.896094 -141.902029 
L 367.896094 -142.486383 
L 367.896094 -143.070738 
L 367.896094 -143.655093 
L 367.896094 -144.239447 
L 367.896094 -144.823802 
L 367.896094 -145.408157 
L 367.896094 -145.992512 
L 367.896094 -146.576866 
L 367.896094 -147.161221 
L 367.896094 -147.745576 
L 367.896094 -148.32993 
L 367.896094 -148.914285 
L 367.896094 -149.49864 
L 367.896094 -150.082994 
L 367.896094 -150.667349 
L 450.816466 -150.667349 
L 450.816466 -150.667349 
L 450.725528 -150.082994 
L 448.185931 -149.49864 
L 447.842113 -148.914285 
L 446.078447 -148.32993 
L 444.6992 -147.745576 
L 444.39594 -147.161221 
L 444.100685 -146.576866 
L 441.936168 -145.992512 
L 441.374308 -145.408157 
L 441.191426 -144.823802 
L 440.681641 -144.239447 
L 440.313718 -143.655093 
L 439.694215 -143.070738 
L 439.587737 -142.486383 
L 439.410245 -141.902029 
L 439.062619 -141.317674 
L 438.833028 -140.733319 
L 438.226165 -140.148964 
L 437.440143 -139.56461 
L 437.427127 -138.980255 
L 436.644594 -138.3959 
L 436.15141 -137.811546 
L 436.076327 -137.227191 
L 435.20737 -136.642836 
L 434.781018 -136.058482 
L 434.187744 -135.474127 
L 432.596497 -134.889772 
L 432.446325 -134.305417 
L 432.338043 -133.721063 
L 431.754205 -133.136708 
L 431.726418 -132.552353 
L 431.654198 -131.967999 
L 431.359481 -131.383644 
L 429.790003 -130.799289 
L 429.53272 -130.214935 
L 429.523241 -129.63058 
L 429.10302 -129.046225 
L 428.86779 -128.46187 
L 428.696905 -127.877516 
L 428.649242 -127.293161 
L 428.61023 -126.708806 
L 428.4417 -126.124452 
L 428.406089 -125.540097 
L 428.357516 -124.955742 
L 427.711675 -124.371388 
L 426.692137 -123.787033 
L 426.663942 -123.202678 
L 424.354146 -122.618323 
L 424.183384 -122.033969 
L 422.992568 -121.449614 
L 422.253558 -120.865259 
L 422.19757 -120.280905 
L 422.155296 -119.69655 
L 421.992982 -119.112195 
L 421.5441 -118.52784 
L 421.119895 -117.943486 
L 420.962593 -117.359131 
L 420.881754 -116.774776 
L 420.539701 -116.190422 
L 419.796143 -115.606067 
L 419.441096 -115.021712 
L 419.176478 -114.437358 
L 419.110889 -113.853003 
L 419.050765 -113.268648 
L 418.824383 -112.684293 
L 418.274472 -112.099939 
L 418.171025 -111.515584 
L 416.237117 -110.931229 
L 415.743826 -110.346875 
L 415.487365 -109.76252 
L 415.116434 -109.178165 
L 414.341011 -108.593811 
L 414.11811 -108.009456 
L 414.072215 -107.425101 
L 413.873821 -106.840746 
L 413.502874 -106.256392 
L 413.475206 -105.672037 
L 412.935426 -105.087682 
L 412.868907 -104.503328 
L 412.694672 -103.918973 
L 412.438947 -103.334618 
L 412.147122 -102.750263 
L 412.021003 -102.165909 
L 411.398242 -101.581554 
L 410.610638 -100.997199 
L 410.320563 -100.412845 
L 409.413599 -99.82849 
L 409.371641 -99.244135 
L 409.240463 -98.659781 
L 408.812987 -98.075426 
L 407.919476 -97.491071 
L 406.959626 -96.906716 
L 406.947293 -96.322362 
L 406.619871 -95.738007 
L 405.909233 -95.153652 
L 405.388413 -94.569298 
L 403.634023 -93.984943 
L 403.012794 -93.400588 
L 402.456022 -92.816234 
L 401.250647 -92.231879 
L 400.103808 -91.647524 
L 396.579993 -91.063169 
L 396.545125 -90.478815 
L 395.390877 -89.89446 
L 393.67645 -89.310105 
L 393.603878 -88.725751 
L 392.395875 -88.141396 
L 391.955193 -87.557041 
L 391.945858 -86.972687 
L 390.088571 -86.388332 
L 389.509321 -85.803977 
L 389.164269 -85.219622 
L 388.160017 -84.635268 
L 388.079906 -84.050913 
L 386.618484 -83.466558 
L 385.330982 -82.882204 
L 384.490939 -82.297849 
L 382.235613 -81.713494 
L 380.9456 -81.129139 
L 377.367317 -80.544785 
L 377.243231 -79.96043 
L 376.434288 -79.376075 
L 374.216002 -78.791721 
L 373.53412 -78.207366 
L 365.548647 -77.623011 
L 365.540397 -77.038657 
L 364.856508 -76.454302 
L 363.325719 -75.869947 
L 360.845137 -75.285592 
L 356.625027 -74.701238 
L 354.228667 -74.116883 
L 352.568428 -73.532528 
L 351.532278 -72.948174 
L 341.318655 -72.363819 
L 320.387621 -71.779464 
L 313.039689 -71.19511 
z
" style="stroke: #000000; stroke-opacity: 0.7"/>
    </defs>
    <g clip-path="url(#p4423318369)">
     <use xlink:href="#m7142619855" x="0" y="576" style="fill-opacity: 0.7; stroke: #000000; stroke-opacity: 0.7"/>
    </g>
   </g>
   <g id="PolyCollection_2">
    <defs>
     <path id="me6ef3b5ccf" d="M 389.939045 -157.095251 
L 367.896094 -157.095251 
L 367.896094 -157.679606 
L 367.896094 -158.26396 
L 367.896094 -158.848315 
L 423.582013 -158.848315 
L 423.582013 -158.848315 
L 405.055406 -158.26396 
L 399.891652 -157.679606 
L 389.939045 -157.095251 
z
" style="stroke: #7d008e; stroke-opacity: 0.7"/>
    </defs>
    <g clip-path="url(#p4423318369)">
     <use xlink:href="#me6ef3b5ccf" x="0" y="576" style="fill: #7d008e; fill-opacity: 0.7; stroke: #7d008e; stroke-opacity: 0.7"/>
    </g>
   </g>
   <g id="PolyCollection_3">
    <defs>
     <path id="md49fe1a7ee" d="M 402.457923 -165.276217 
L 367.896094 -165.276217 
L 367.896094 -165.860571 
L 407.709155 -165.860571 
L 407.709155 -165.860571 
L 402.457923 -165.276217 
z
" style="stroke: #2d00a4; stroke-opacity: 0.7"/>
    </defs>
    <g clip-path="url(#p4423318369)">
     <use xlink:href="#md49fe1a7ee" x="0" y="576" style="fill: #2d00a4; fill-opacity: 0.7; stroke: #2d00a4; stroke-opacity: 0.7"/>
    </g>
   </g>
   <g id="PolyCollection_4">
    <defs>
     <path id="m0827e59c5f" d="M 401.489347 -172.288473 
L 367.896094 -172.288473 
L 367.896094 -172.872828 
L 367.896094 -173.457183 
L 367.896094 -174.041537 
L 434.872402 -174.041537 
L 434.872402 -174.041537 
L 425.451251 -173.457183 
L 419.963102 -172.872828 
L 401.489347 -172.288473 
z
" style="stroke: #0000dd; stroke-opacity: 0.7"/>
    </defs>
    <g clip-path="url(#p4423318369)">
     <use xlink:href="#m0827e59c5f" x="0" y="576" style="fill: #0000dd; fill-opacity: 0.7; stroke: #0000dd; stroke-opacity: 0.7"/>
    </g>
   </g>
   <g id="PolyCollection_5">
    <defs>
     <path id="m412b6375a3" d="M 352.117916 -180.469439 
L 367.896094 -180.469439 
L 367.896094 -181.053794 
L 367.896094 -181.638148 
L 367.896094 -182.222503 
L 367.896094 -182.806858 
L 367.896094 -183.391213 
L 367.896094 -183.975567 
L 367.896094 -184.559922 
L 367.896094 -185.144277 
L 367.896094 -185.728631 
L 367.896094 -186.312986 
L 367.896094 -186.897341 
L 367.896094 -187.481695 
L 367.896094 -188.06605 
L 367.896094 -188.650405 
L 367.896094 -189.23476 
L 367.896094 -189.819114 
L 367.896094 -190.403469 
L 367.896094 -190.987824 
L 429.669214 -190.987824 
L 429.669214 -190.987824 
L 423.191987 -190.403469 
L 415.44474 -189.819114 
L 414.821532 -189.23476 
L 413.78771 -188.650405 
L 408.38765 -188.06605 
L 403.351009 -187.481695 
L 402.82383 -186.897341 
L 401.413656 -186.312986 
L 400.781179 -185.728631 
L 394.963203 -185.144277 
L 392.654312 -184.559922 
L 392.282945 -183.975567 
L 390.318737 -183.391213 
L 389.648312 -182.806858 
L 387.406835 -182.222503 
L 383.234363 -181.638148 
L 352.828184 -181.053794 
L 352.117916 -180.469439 
z
" style="stroke: #0082dd; stroke-opacity: 0.7"/>
    </defs>
    <g clip-path="url(#p4423318369)">
     <use xlink:href="#m412b6375a3" x="0" y="576" style="fill: #0082dd; fill-opacity: 0.7; stroke: #0082dd; stroke-opacity: 0.7"/>
    </g>
   </g>
   <g id="PolyCollection_6">
    <defs>
     <path id="m3210c747f9" d="M 557.098052 -197.415725 
L 367.896094 -197.415725 
L 367.896094 -198.00008 
L 367.896094 -198.584435 
L 367.896094 -199.16879 
L 367.896094 -199.753144 
L 367.896094 -200.337499 
L 367.896094 -200.921854 
L 367.896094 -201.506208 
L 367.896094 -202.090563 
L 367.896094 -202.674918 
L 367.896094 -203.259272 
L 367.896094 -203.843627 
L 367.896094 -204.427982 
L 367.896094 -205.012337 
L 367.896094 -205.596691 
L 367.896094 -206.181046 
L 367.896094 -206.765401 
L 367.896094 -207.349755 
L 367.896094 -207.93411 
L 367.896094 -208.518465 
L 367.896094 -209.102819 
L 367.896094 -209.687174 
L 367.896094 -210.271529 
L 367.896094 -210.855884 
L 367.896094 -211.440238 
L 367.896094 -212.024593 
L 367.896094 -212.608948 
L 367.896094 -213.193302 
L 367.896094 -213.777657 
L 367.896094 -214.362012 
L 367.896094 -214.946366 
L 367.896094 -215.530721 
L 367.896094 -216.115076 
L 367.896094 -216.699431 
L 367.896094 -217.283785 
L 367.896094 -217.86814 
L 367.896094 -218.452495 
L 367.896094 -219.036849 
L 367.896094 -219.621204 
L 367.896094 -220.205559 
L 367.896094 -220.789914 
L 367.896094 -221.374268 
L 367.896094 -221.958623 
L 367.896094 -222.542978 
L 367.896094 -223.127332 
L 367.896094 -223.711687 
L 367.896094 -224.296042 
L 367.896094 -224.880396 
L 367.896094 -225.464751 
L 367.896094 -226.049106 
L 367.896094 -226.633461 
L 367.896094 -227.217815 
L 367.896094 -227.80217 
L 367.896094 -228.386525 
L 367.896094 -228.970879 
L 367.896094 -229.555234 
L 367.896094 -230.139589 
L 367.896094 -230.723943 
L 367.896094 -231.308298 
L 367.896094 -231.892653 
L 367.896094 -232.477008 
L 367.896094 -233.061362 
L 367.896094 -233.645717 
L 367.896094 -234.230072 
L 367.896094 -234.814426 
L 367.896094 -235.398781 
L 367.896094 -235.983136 
L 367.896094 -236.567491 
L 367.896094 -237.151845 
L 367.896094 -237.7362 
L 367.896094 -238.320555 
L 367.896094 -238.904909 
L 367.896094 -239.489264 
L 367.896094 -240.073619 
L 367.896094 -240.657973 
L 367.896094 -241.242328 
L 367.896094 -241.826683 
L 367.896094 -242.411038 
L 367.896094 -242.995392 
L 367.896094 -243.579747 
L 367.896094 -244.164102 
L 367.896094 -244.748456 
L 367.896094 -245.332811 
L 367.896094 -245.917166 
L 367.896094 -246.50152 
L 367.896094 -247.085875 
L 367.896094 -247.67023 
L 367.896094 -248.254585 
L 367.896094 -248.838939 
L 367.896094 -249.423294 
L 367.896094 -250.007649 
L 367.896094 -250.592003 
L 367.896094 -251.176358 
L 367.896094 -251.760713 
L 367.896094 -252.345067 
L 367.896094 -252.929422 
L 367.896094 -253.513777 
L 367.896094 -254.098132 
L 367.896094 -254.682486 
L 367.896094 -255.266841 
L 367.896094 -255.851196 
L 367.896094 -256.43555 
L 367.896094 -257.019905 
L 367.896094 -257.60426 
L 367.896094 -258.188615 
L 367.896094 -258.772969 
L 367.896094 -259.357324 
L 367.896094 -259.941679 
L 367.896094 -260.526033 
L 367.896094 -261.110388 
L 367.896094 -261.694743 
L 367.896094 -262.279097 
L 367.896094 -262.863452 
L 367.896094 -263.447807 
L 367.896094 -264.032162 
L 367.896094 -264.616516 
L 367.896094 -265.200871 
L 367.896094 -265.785226 
L 367.896094 -266.36958 
L 367.896094 -266.953935 
L 367.896094 -267.53829 
L 367.896094 -268.122644 
L 367.896094 -268.706999 
L 367.896094 -269.291354 
L 367.896094 -269.875709 
L 367.896094 -270.460063 
L 367.896094 -271.044418 
L 367.896094 -271.628773 
L 367.896094 -272.213127 
L 367.896094 -272.797482 
L 367.896094 -273.381837 
L 367.896094 -273.966192 
L 367.896094 -274.550546 
L 367.896094 -275.134901 
L 367.896094 -275.719256 
L 367.896094 -276.30361 
L 367.896094 -276.887965 
L 367.896094 -277.47232 
L 367.896094 -278.056674 
L 367.896094 -278.641029 
L 367.896094 -279.225384 
L 367.896094 -279.809739 
L 367.896094 -280.394093 
L 367.896094 -280.978448 
L 367.896094 -281.562803 
L 367.896094 -282.147157 
L 367.896094 -282.731512 
L 367.896094 -283.315867 
L 367.896094 -283.900221 
L 367.896094 -284.484576 
L 367.896094 -285.068931 
L 367.896094 -285.653286 
L 367.896094 -286.23764 
L 367.896094 -286.821995 
L 367.896094 -287.40635 
L 367.896094 -287.990704 
L 367.896094 -288.575059 
L 367.896094 -289.159414 
L 367.896094 -289.743768 
L 367.896094 -290.328123 
L 367.896094 -290.912478 
L 367.896094 -291.496833 
L 367.896094 -292.081187 
L 367.896094 -292.665542 
L 367.896094 -293.249897 
L 367.896094 -293.834251 
L 367.896094 -294.418606 
L 367.896094 -295.002961 
L 367.896094 -295.587316 
L 367.896094 -296.17167 
L 367.896094 -296.756025 
L 367.896094 -297.34038 
L 367.896094 -297.924734 
L 367.896094 -298.509089 
L 367.896094 -299.093444 
L 367.896094 -299.677798 
L 367.896094 -300.262153 
L 367.896094 -300.846508 
L 367.896094 -301.430863 
L 367.896094 -302.015217 
L 367.896094 -302.599572 
L 367.896094 -303.183927 
L 367.896094 -303.768281 
L 367.896094 -304.352636 
L 367.896094 -304.936991 
L 367.896094 -305.521345 
L 367.896094 -306.1057 
L 367.896094 -306.690055 
L 367.896094 -307.27441 
L 367.896094 -307.858764 
L 367.896094 -308.443119 
L 367.896094 -309.027474 
L 367.896094 -309.611828 
L 367.896094 -310.196183 
L 367.896094 -310.780538 
L 367.896094 -311.364893 
L 367.896094 -311.949247 
L 367.896094 -312.533602 
L 367.896094 -313.117957 
L 367.896094 -313.702311 
L 367.896094 -314.286666 
L 367.896094 -314.871021 
L 367.896094 -315.455375 
L 367.896094 -316.03973 
L 367.896094 -316.624085 
L 367.896094 -317.20844 
L 367.896094 -317.792794 
L 367.896094 -318.377149 
L 367.896094 -318.961504 
L 367.896094 -319.545858 
L 367.896094 -320.130213 
L 367.896094 -320.714568 
L 367.896094 -321.298922 
L 367.896094 -321.883277 
L 367.896094 -322.467632 
L 367.896094 -323.051987 
L 367.896094 -323.636341 
L 367.896094 -324.220696 
L 367.896094 -324.805051 
L 367.896094 -325.389405 
L 367.896094 -325.97376 
L 367.896094 -326.558115 
L 367.896094 -327.142469 
L 367.896094 -327.726824 
L 367.896094 -328.311179 
L 367.896094 -328.895534 
L 367.896094 -329.479888 
L 367.896094 -330.064243 
L 367.896094 -330.648598 
L 367.896094 -331.232952 
L 367.896094 -331.817307 
L 367.896094 -332.401662 
L 367.896094 -332.986017 
L 367.896094 -333.570371 
L 367.896094 -334.154726 
L 367.896094 -334.739081 
L 367.896094 -335.323435 
L 367.896094 -335.90779 
L 367.896094 -336.492145 
L 367.896094 -337.076499 
L 367.896094 -337.660854 
L 367.896094 -338.245209 
L 367.896094 -338.829564 
L 367.896094 -339.413918 
L 367.896094 -339.998273 
L 367.896094 -340.582628 
L 367.896094 -341.166982 
L 367.896094 -341.751337 
L 367.896094 -342.335692 
L 367.896094 -342.920046 
L 367.896094 -343.504401 
L 367.896094 -344.088756 
L 367.896094 -344.673111 
L 367.896094 -345.257465 
L 367.896094 -345.84182 
L 367.896094 -346.426175 
L 367.896094 -347.010529 
L 367.896094 -347.594884 
L 367.896094 -348.179239 
L 367.896094 -348.763594 
L 367.896094 -349.347948 
L 367.896094 -349.932303 
L 367.896094 -350.516658 
L 367.896094 -351.101012 
L 367.896094 -351.685367 
L 367.896094 -352.269722 
L 367.896094 -352.854076 
L 367.896094 -353.438431 
L 367.896094 -354.022786 
L 367.896094 -354.607141 
L 367.896094 -355.191495 
L 367.896094 -355.77585 
L 367.896094 -356.360205 
L 367.896094 -356.944559 
L 367.896094 -357.528914 
L 367.896094 -358.113269 
L 367.896094 -358.697623 
L 367.896094 -359.281978 
L 367.896094 -359.866333 
L 367.896094 -360.450688 
L 367.896094 -361.035042 
L 367.896094 -361.619397 
L 367.896094 -362.203752 
L 367.896094 -362.788106 
L 367.896094 -363.372461 
L 367.896094 -363.956816 
L 367.896094 -364.54117 
L 367.896094 -365.125525 
L 367.896094 -365.70988 
L 367.896094 -366.294235 
L 367.896094 -366.878589 
L 367.896094 -367.462944 
L 367.896094 -368.047299 
L 367.896094 -368.631653 
L 367.896094 -369.216008 
L 367.896094 -369.800363 
L 367.896094 -370.384718 
L 367.896094 -370.969072 
L 367.896094 -371.553427 
L 367.896094 -372.137782 
L 367.896094 -372.722136 
L 367.896094 -373.306491 
L 367.896094 -373.890846 
L 367.896094 -374.4752 
L 367.896094 -375.059555 
L 367.896094 -375.64391 
L 367.896094 -376.228265 
L 367.896094 -376.812619 
L 367.896094 -377.396974 
L 367.896094 -377.981329 
L 367.896094 -378.565683 
L 367.896094 -379.150038 
L 367.896094 -379.734393 
L 367.896094 -380.318747 
L 367.896094 -380.903102 
L 367.896094 -381.487457 
L 367.896094 -382.071812 
L 367.896094 -382.656166 
L 367.896094 -383.240521 
L 367.896094 -383.824876 
L 367.896094 -384.40923 
L 367.896094 -384.993585 
L 367.896094 -385.57794 
L 367.896094 -386.162295 
L 367.896094 -386.746649 
L 367.896094 -387.331004 
L 367.896094 -387.915359 
L 367.896094 -388.499713 
L 367.896094 -389.084068 
L 367.896094 -389.668423 
L 367.896094 -390.252777 
L 367.896094 -390.837132 
L 367.896094 -391.421487 
L 367.896094 -392.005842 
L 367.896094 -392.590196 
L 367.896094 -393.174551 
L 367.896094 -393.758906 
L 367.896094 -394.34326 
L 367.896094 -394.927615 
L 367.896094 -395.51197 
L 367.896094 -396.096324 
L 367.896094 -396.680679 
L 367.896094 -397.265034 
L 367.896094 -397.849389 
L 367.896094 -398.433743 
L 367.896094 -399.018098 
L 367.896094 -399.602453 
L 367.896094 -400.186807 
L 367.896094 -400.771162 
L 367.896094 -401.355517 
L 367.896094 -401.939871 
L 367.896094 -402.524226 
L 367.896094 -403.108581 
L 367.896094 -403.692936 
L 367.896094 -404.27729 
L 367.896094 -404.861645 
L 367.896094 -405.446 
L 367.896094 -406.030354 
L 367.896094 -406.614709 
L 367.896094 -407.199064 
L 367.896094 -407.783419 
L 367.896094 -408.367773 
L 367.896094 -408.952128 
L 367.896094 -409.536483 
L 367.896094 -410.120837 
L 367.896094 -410.705192 
L 367.896094 -411.289547 
L 367.896094 -411.873901 
L 367.896094 -412.458256 
L 367.896094 -413.042611 
L 367.896094 -413.626966 
L 367.896094 -414.21132 
L 367.896094 -414.795675 
L 367.896094 -415.38003 
L 367.896094 -415.964384 
L 367.896094 -416.548739 
L 367.896094 -417.133094 
L 367.896094 -417.717448 
L 367.896094 -418.301803 
L 367.896094 -418.886158 
L 367.896094 -419.470513 
L 367.896094 -420.054867 
L 367.896094 -420.639222 
L 367.896094 -421.223577 
L 367.896094 -421.807931 
L 367.896094 -422.392286 
L 367.896094 -422.976641 
L 367.896094 -423.560996 
L 367.896094 -424.14535 
L 367.896094 -424.729705 
L 367.896094 -425.31406 
L 367.896094 -425.898414 
L 367.896094 -426.482769 
L 367.896094 -427.067124 
L 367.896094 -427.651478 
L 367.896094 -428.235833 
L 367.896094 -428.820188 
L 367.896094 -429.404543 
L 367.896094 -429.988897 
L 367.896094 -430.573252 
L 367.896094 -431.157607 
L 367.896094 -431.741961 
L 367.896094 -432.326316 
L 367.896094 -432.910671 
L 367.896094 -433.495025 
L 367.896094 -434.07938 
L 367.896094 -434.663735 
L 367.896094 -435.24809 
L 367.896094 -435.832444 
L 367.896094 -436.416799 
L 367.896094 -437.001154 
L 367.896094 -437.585508 
L 367.896094 -438.169863 
L 367.896094 -438.754218 
L 367.896094 -439.338572 
L 367.896094 -439.922927 
L 367.896094 -440.507282 
L 367.896094 -441.091637 
L 367.896094 -441.675991 
L 367.896094 -442.260346 
L 367.896094 -442.844701 
L 367.896094 -443.429055 
L 367.896094 -444.01341 
L 367.896094 -444.597765 
L 367.896094 -445.18212 
L 367.896094 -445.766474 
L 367.896094 -446.350829 
L 367.896094 -446.935184 
L 367.896094 -447.519538 
L 367.896094 -448.103893 
L 367.896094 -448.688248 
L 367.896094 -449.272602 
L 367.896094 -449.856957 
L 367.896094 -450.441312 
L 367.896094 -451.025667 
L 367.896094 -451.610021 
L 367.896094 -452.194376 
L 367.896094 -452.778731 
L 367.896094 -453.363085 
L 367.896094 -453.94744 
L 367.896094 -454.531795 
L 367.896094 -455.116149 
L 367.896094 -455.700504 
L 367.896094 -456.284859 
L 367.896094 -456.869214 
L 367.896094 -457.453568 
L 367.896094 -458.037923 
L 367.896094 -458.622278 
L 367.896094 -459.206632 
L 367.896094 -459.790987 
L 367.896094 -460.375342 
L 367.896094 -460.959696 
L 367.896094 -461.544051 
L 367.896094 -462.128406 
L 367.896094 -462.712761 
L 367.896094 -463.297115 
L 367.896094 -463.88147 
L 367.896094 -464.465825 
L 367.896094 -465.050179 
L 367.896094 -465.634534 
L 367.896094 -466.218889 
L 367.896094 -466.803244 
L 367.896094 -467.387598 
L 367.896094 -467.971953 
L 367.896094 -468.556308 
L 367.896094 -469.140662 
L 367.896094 -469.725017 
L 367.896094 -470.309372 
L 367.896094 -470.893726 
L 367.896094 -471.478081 
L 367.896094 -472.062436 
L 633.596549 -472.062436 
L 633.596549 -472.062436 
L 633.49652 -471.478081 
L 632.482903 -470.893726 
L 632.268624 -470.309372 
L 631.939168 -469.725017 
L 631.902597 -469.140662 
L 631.894381 -468.556308 
L 631.659565 -467.971953 
L 631.571353 -467.387598 
L 631.352769 -466.803244 
L 630.876464 -466.218889 
L 630.32848 -465.634534 
L 630.299227 -465.050179 
L 630.211433 -464.465825 
L 630.144216 -463.88147 
L 630.138943 -463.297115 
L 630.118906 -462.712761 
L 630.041149 -462.128406 
L 629.940347 -461.544051 
L 629.86155 -460.959696 
L 629.851598 -460.375342 
L 629.778153 -459.790987 
L 629.442553 -459.206632 
L 629.417598 -458.622278 
L 629.291909 -458.037923 
L 629.18548 -457.453568 
L 629.122439 -456.869214 
L 629.106971 -456.284859 
L 629.064866 -455.700504 
L 628.855633 -455.116149 
L 628.830564 -454.531795 
L 628.782288 -453.94744 
L 628.778363 -453.363085 
L 628.724036 -452.778731 
L 628.709401 -452.194376 
L 628.62181 -451.610021 
L 628.617568 -451.025667 
L 628.521006 -450.441312 
L 628.489094 -449.856957 
L 628.406752 -449.272602 
L 628.406125 -448.688248 
L 628.390342 -448.103893 
L 628.323518 -447.519538 
L 628.300058 -446.935184 
L 628.238048 -446.350829 
L 628.203913 -445.766474 
L 628.142795 -445.18212 
L 628.137244 -444.597765 
L 628.062573 -444.01341 
L 628.058555 -443.429055 
L 628.053455 -442.844701 
L 627.982205 -442.260346 
L 627.925339 -441.675991 
L 627.924895 -441.091637 
L 627.91136 -440.507282 
L 627.906305 -439.922927 
L 627.768604 -439.338572 
L 627.756773 -438.754218 
L 627.752324 -438.169863 
L 627.705528 -437.585508 
L 627.629181 -437.001154 
L 627.533856 -436.416799 
L 627.440247 -435.832444 
L 627.43131 -435.24809 
L 627.411324 -434.663735 
L 627.2213 -434.07938 
L 627.172367 -433.495025 
L 627.153923 -432.910671 
L 627.102592 -432.326316 
L 627.092603 -431.741961 
L 627.068441 -431.157607 
L 627.049888 -430.573252 
L 627.042385 -429.988897 
L 627.001174 -429.404543 
L 626.994297 -428.820188 
L 626.963883 -428.235833 
L 626.961432 -427.651478 
L 626.938508 -427.067124 
L 626.888433 -426.482769 
L 626.870673 -425.898414 
L 626.824782 -425.31406 
L 626.806758 -424.729705 
L 626.738375 -424.14535 
L 626.726648 -423.560996 
L 626.688023 -422.976641 
L 626.660482 -422.392286 
L 626.610226 -421.807931 
L 626.541543 -421.223577 
L 626.484322 -420.639222 
L 626.435093 -420.054867 
L 626.383204 -419.470513 
L 626.372941 -418.886158 
L 626.354724 -418.301803 
L 626.31893 -417.717448 
L 626.315307 -417.133094 
L 626.31375 -416.548739 
L 626.269506 -415.964384 
L 626.254962 -415.38003 
L 626.231399 -414.795675 
L 626.120679 -414.21132 
L 626.089797 -413.626966 
L 626.084349 -413.042611 
L 626.061438 -412.458256 
L 626.038529 -411.873901 
L 625.970755 -411.289547 
L 625.869554 -410.705192 
L 625.843625 -410.120837 
L 625.792171 -409.536483 
L 625.611062 -408.952128 
L 625.576508 -408.367773 
L 625.522036 -407.783419 
L 625.441232 -407.199064 
L 625.426883 -406.614709 
L 625.338446 -406.030354 
L 625.238673 -405.446 
L 625.154048 -404.861645 
L 625.028579 -404.27729 
L 625.006552 -403.692936 
L 624.96932 -403.108581 
L 624.911324 -402.524226 
L 624.786913 -401.939871 
L 624.759913 -401.355517 
L 624.752968 -400.771162 
L 624.74694 -400.186807 
L 624.667504 -399.602453 
L 624.640403 -399.018098 
L 624.612079 -398.433743 
L 624.582321 -397.849389 
L 624.566424 -397.265034 
L 624.51704 -396.680679 
L 624.455356 -396.096324 
L 624.26232 -395.51197 
L 624.247575 -394.927615 
L 624.229457 -394.34326 
L 624.228304 -393.758906 
L 624.198028 -393.174551 
L 624.141507 -392.590196 
L 624.140636 -392.005842 
L 624.128401 -391.421487 
L 624.025604 -390.837132 
L 624.008674 -390.252777 
L 624.007951 -389.668423 
L 623.909998 -389.084068 
L 623.875326 -388.499713 
L 623.832007 -387.915359 
L 623.825202 -387.331004 
L 623.814287 -386.746649 
L 623.745026 -386.162295 
L 623.726948 -385.57794 
L 623.601347 -384.993585 
L 623.574945 -384.40923 
L 623.488273 -383.824876 
L 623.32073 -383.240521 
L 623.24722 -382.656166 
L 623.239445 -382.071812 
L 623.149328 -381.487457 
L 623.136497 -380.903102 
L 623.093397 -380.318747 
L 622.982383 -379.734393 
L 622.972324 -379.150038 
L 622.960373 -378.565683 
L 622.941938 -377.981329 
L 622.892386 -377.396974 
L 622.72138 -376.812619 
L 622.682007 -376.228265 
L 622.594269 -375.64391 
L 622.58831 -375.059555 
L 622.54708 -374.4752 
L 622.487092 -373.890846 
L 622.458136 -373.306491 
L 622.331792 -372.722136 
L 622.293916 -372.137782 
L 622.260757 -371.553427 
L 622.182912 -370.969072 
L 622.02853 -370.384718 
L 621.950499 -369.800363 
L 621.916667 -369.216008 
L 621.885067 -368.631653 
L 621.557712 -368.047299 
L 621.532487 -367.462944 
L 621.520714 -366.878589 
L 621.399288 -366.294235 
L 621.3665 -365.70988 
L 621.29006 -365.125525 
L 621.268567 -364.54117 
L 621.24904 -363.956816 
L 621.214026 -363.372461 
L 621.133477 -362.788106 
L 621.124199 -362.203752 
L 621.080323 -361.619397 
L 620.980086 -361.035042 
L 620.945941 -360.450688 
L 620.90121 -359.866333 
L 620.889792 -359.281978 
L 620.788629 -358.697623 
L 620.758929 -358.113269 
L 620.678562 -357.528914 
L 620.573019 -356.944559 
L 620.573002 -356.360205 
L 620.555296 -355.77585 
L 620.504978 -355.191495 
L 620.456158 -354.607141 
L 620.336651 -354.022786 
L 620.248168 -353.438431 
L 620.214071 -352.854076 
L 620.177909 -352.269722 
L 620.127149 -351.685367 
L 620.072894 -351.101012 
L 620.013086 -350.516658 
L 619.952704 -349.932303 
L 619.880348 -349.347948 
L 619.870071 -348.763594 
L 619.840851 -348.179239 
L 619.81968 -347.594884 
L 619.766593 -347.010529 
L 619.739908 -346.426175 
L 619.691776 -345.84182 
L 619.66444 -345.257465 
L 619.623435 -344.673111 
L 619.616525 -344.088756 
L 619.613572 -343.504401 
L 619.475643 -342.920046 
L 619.421466 -342.335692 
L 619.419249 -341.751337 
L 619.391168 -341.166982 
L 619.307534 -340.582628 
L 619.306528 -339.998273 
L 619.165581 -339.413918 
L 618.988922 -338.829564 
L 618.9336 -338.245209 
L 618.924844 -337.660854 
L 618.885703 -337.076499 
L 618.850842 -336.492145 
L 618.800241 -335.90779 
L 618.69559 -335.323435 
L 618.663983 -334.739081 
L 618.593493 -334.154726 
L 618.588481 -333.570371 
L 618.518855 -332.986017 
L 618.465632 -332.401662 
L 618.429515 -331.817307 
L 618.288176 -331.232952 
L 618.231516 -330.648598 
L 618.076803 -330.064243 
L 618.024772 -329.479888 
L 618.014485 -328.895534 
L 617.965305 -328.311179 
L 617.915124 -327.726824 
L 617.802814 -327.142469 
L 617.773723 -326.558115 
L 617.470619 -325.97376 
L 617.461505 -325.389405 
L 617.442909 -324.805051 
L 617.247173 -324.220696 
L 617.195674 -323.636341 
L 617.15463 -323.051987 
L 617.045339 -322.467632 
L 617.034537 -321.883277 
L 616.90416 -321.298922 
L 616.869903 -320.714568 
L 616.645568 -320.130213 
L 616.553384 -319.545858 
L 616.524039 -318.961504 
L 616.332172 -318.377149 
L 616.312235 -317.792794 
L 616.202103 -317.20844 
L 616.159768 -316.624085 
L 616.1559 -316.03973 
L 616.027104 -315.455375 
L 616.003384 -314.871021 
L 615.978489 -314.286666 
L 615.953784 -313.702311 
L 615.827345 -313.117957 
L 615.811636 -312.533602 
L 615.761727 -311.949247 
L 615.685665 -311.364893 
L 615.602155 -310.780538 
L 615.514018 -310.196183 
L 615.433936 -309.611828 
L 615.212268 -309.027474 
L 615.203102 -308.443119 
L 615.146363 -307.858764 
L 615.143087 -307.27441 
L 615.133276 -306.690055 
L 615.100833 -306.1057 
L 615.091053 -305.521345 
L 615.075666 -304.936991 
L 615.063215 -304.352636 
L 614.928259 -303.768281 
L 614.831002 -303.183927 
L 614.716593 -302.599572 
L 614.703289 -302.015217 
L 614.690779 -301.430863 
L 614.60665 -300.846508 
L 614.580868 -300.262153 
L 614.558604 -299.677798 
L 614.558601 -299.093444 
L 614.440418 -298.509089 
L 614.437298 -297.924734 
L 614.266224 -297.34038 
L 614.253145 -296.756025 
L 614.229258 -296.17167 
L 614.145324 -295.587316 
L 614.111645 -295.002961 
L 614.044819 -294.418606 
L 614.006943 -293.834251 
L 613.93719 -293.249897 
L 613.876266 -292.665542 
L 613.82989 -292.081187 
L 613.780764 -291.496833 
L 613.771507 -290.912478 
L 613.761342 -290.328123 
L 613.703308 -289.743768 
L 613.685634 -289.159414 
L 613.653892 -288.575059 
L 613.60968 -287.990704 
L 613.47219 -287.40635 
L 613.439449 -286.821995 
L 613.314515 -286.23764 
L 613.296468 -285.653286 
L 613.254663 -285.068931 
L 613.247041 -284.484576 
L 613.212908 -283.900221 
L 612.930615 -283.315867 
L 612.846729 -282.731512 
L 612.833742 -282.147157 
L 612.591913 -281.562803 
L 612.590449 -280.978448 
L 612.575832 -280.394093 
L 612.557588 -279.809739 
L 612.541898 -279.225384 
L 612.397594 -278.641029 
L 611.946226 -278.056674 
L 611.918902 -277.47232 
L 611.869935 -276.887965 
L 611.752784 -276.30361 
L 611.32164 -275.719256 
L 611.125779 -275.134901 
L 611.124334 -274.550546 
L 611.096664 -273.966192 
L 611.079888 -273.381837 
L 611.075438 -272.797482 
L 610.984276 -272.213127 
L 610.933563 -271.628773 
L 610.910491 -271.044418 
L 610.845581 -270.460063 
L 610.781824 -269.875709 
L 610.775134 -269.291354 
L 610.643665 -268.706999 
L 610.613437 -268.122644 
L 610.597688 -267.53829 
L 610.457393 -266.953935 
L 610.299466 -266.36958 
L 610.291162 -265.785226 
L 610.232372 -265.200871 
L 610.155843 -264.616516 
L 610.114675 -264.032162 
L 609.903071 -263.447807 
L 609.884318 -262.863452 
L 609.848595 -262.279097 
L 609.819431 -261.694743 
L 609.788679 -261.110388 
L 609.754022 -260.526033 
L 609.747706 -259.941679 
L 608.986884 -259.357324 
L 608.925311 -258.772969 
L 608.869855 -258.188615 
L 608.780176 -257.60426 
L 608.722012 -257.019905 
L 608.57363 -256.43555 
L 608.404148 -255.851196 
L 608.318733 -255.266841 
L 608.121564 -254.682486 
L 608.028548 -254.098132 
L 607.935307 -253.513777 
L 607.845621 -252.929422 
L 607.831001 -252.345067 
L 607.752157 -251.760713 
L 607.639743 -251.176358 
L 607.550275 -250.592003 
L 607.420226 -250.007649 
L 607.177108 -249.423294 
L 606.639427 -248.838939 
L 606.608881 -248.254585 
L 606.58236 -247.67023 
L 606.556387 -247.085875 
L 606.382421 -246.50152 
L 606.352627 -245.917166 
L 606.175519 -245.332811 
L 606.003323 -244.748456 
L 605.841443 -244.164102 
L 605.352381 -243.579747 
L 605.34357 -242.995392 
L 605.135895 -242.411038 
L 605.061006 -241.826683 
L 604.571018 -241.242328 
L 604.560471 -240.657973 
L 604.015107 -240.073619 
L 603.616913 -239.489264 
L 603.476412 -238.904909 
L 602.986567 -238.320555 
L 602.698925 -237.7362 
L 602.462132 -237.151845 
L 602.368897 -236.567491 
L 602.090379 -235.983136 
L 601.761942 -235.398781 
L 601.676516 -234.814426 
L 601.534019 -234.230072 
L 601.302855 -233.645717 
L 601.173309 -233.061362 
L 601.099902 -232.477008 
L 600.93868 -231.892653 
L 600.425916 -231.308298 
L 600.374123 -230.723943 
L 600.371569 -230.139589 
L 600.354354 -229.555234 
L 600.251739 -228.970879 
L 600.251285 -228.386525 
L 599.818378 -227.80217 
L 599.656102 -227.217815 
L 599.587932 -226.633461 
L 599.215309 -226.049106 
L 598.906835 -225.464751 
L 598.896556 -224.880396 
L 598.034844 -224.296042 
L 597.974639 -223.711687 
L 597.836459 -223.127332 
L 597.754995 -222.542978 
L 597.443157 -221.958623 
L 597.210164 -221.374268 
L 597.115361 -220.789914 
L 596.396553 -220.205559 
L 596.139245 -219.621204 
L 596.107878 -219.036849 
L 595.97136 -218.452495 
L 595.900977 -217.86814 
L 595.848103 -217.283785 
L 595.229011 -216.699431 
L 594.889649 -216.115076 
L 594.572926 -215.530721 
L 593.210766 -214.946366 
L 592.292225 -214.362012 
L 591.61458 -213.777657 
L 591.25534 -213.193302 
L 591.091536 -212.608948 
L 590.865887 -212.024593 
L 590.713053 -211.440238 
L 589.944249 -210.855884 
L 589.55684 -210.271529 
L 588.568633 -209.687174 
L 588.414553 -209.102819 
L 588.406096 -208.518465 
L 587.505124 -207.93411 
L 586.847118 -207.349755 
L 586.73883 -206.765401 
L 586.630359 -206.181046 
L 586.175927 -205.596691 
L 585.644813 -205.012337 
L 582.932477 -204.427982 
L 582.145817 -203.843627 
L 580.660849 -203.259272 
L 578.587373 -202.674918 
L 577.574149 -202.090563 
L 575.992263 -201.506208 
L 574.353208 -200.921854 
L 573.937261 -200.337499 
L 573.645518 -199.753144 
L 569.423524 -199.16879 
L 569.116306 -198.584435 
L 567.029758 -198.00008 
L 557.098052 -197.415725 
z
" style="stroke: #00a4bb; stroke-opacity: 0.7"/>
    </defs>
    <g clip-path="url(#p4423318369)">
     <use xlink:href="#m3210c747f9" x="0" y="576" style="fill: #00a4bb; fill-opacity: 0.7; stroke: #00a4bb; stroke-opacity: 0.7"/>
    </g>
   </g>
   <g id="PolyCollection_7">
    <defs>
     <path id="m87ffdcb451" d="M 367.896094 -478.490338 
L 367.896094 -478.490338 
L 367.896094 -478.490338 
L 367.896094 -478.490338 
z
" style="stroke: #00aa88; stroke-opacity: 0.7"/>
    </defs>
    <g clip-path="url(#p4423318369)">
     <use xlink:href="#m87ffdcb451" x="0" y="576" style="fill: #00aa88; fill-opacity: 0.7; stroke: #00aa88; stroke-opacity: 0.7"/>
    </g>
   </g>
   <g id="PolyCollection_8">
    <defs>
     <path id="m8e5d5d962d" d="M 371.210782 -484.918239 
L 367.896094 -484.918239 
L 367.896094 -485.502594 
L 367.896094 -486.086949 
L 367.896094 -486.671303 
L 421.652022 -486.671303 
L 421.652022 -486.671303 
L 418.065688 -486.086949 
L 400.457641 -485.502594 
L 371.210782 -484.918239 
z
" style="stroke: #00a400; stroke-opacity: 0.7"/>
    </defs>
    <g clip-path="url(#p4423318369)">
     <use xlink:href="#m8e5d5d962d" x="0" y="576" style="fill: #00a400; fill-opacity: 0.7; stroke: #00a400; stroke-opacity: 0.7"/>
    </g>
   </g>
   <g id="PolyCollection_9">
    <defs>
     <path id="m007d8a201b" d="M 369.850886 -493.099205 
L 367.896094 -493.099205 
L 367.896094 -493.68356 
L 367.896094 -494.267915 
L 367.896094 -494.852269 
L 367.896094 -495.436624 
L 367.896094 -496.020979 
L 367.896094 -496.605333 
L 367.896094 -497.189688 
L 367.896094 -497.774043 
L 367.896094 -498.358397 
L 367.896094 -498.942752 
L 418.816376 -498.942752 
L 418.816376 -498.942752 
L 415.187907 -498.358397 
L 408.69167 -497.774043 
L 406.558254 -497.189688 
L 405.375466 -496.605333 
L 401.650032 -496.020979 
L 399.408922 -495.436624 
L 399.105866 -494.852269 
L 395.716224 -494.267915 
L 372.79321 -493.68356 
L 369.850886 -493.099205 
z
" style="stroke: #00d200; stroke-opacity: 0.7"/>
    </defs>
    <g clip-path="url(#p4423318369)">
     <use xlink:href="#m007d8a201b" x="0" y="576" style="fill: #00d200; fill-opacity: 0.7; stroke: #00d200; stroke-opacity: 0.7"/>
    </g>
   </g>
   <g id="PolyCollection_10">
    <defs>
     <path id="mc7cc9d73b5" d="M 367.896094 -505.370654 
L 367.896094 -505.370654 
L 367.896094 -505.370654 
L 367.896094 -505.370654 
z
" style="stroke: #00ff00; stroke-opacity: 0.7"/>
    </defs>
    <g clip-path="url(#p4423318369)">
     <use xlink:href="#mc7cc9d73b5" x="0" y="576" style="fill: #00ff00; fill-opacity: 0.7; stroke: #00ff00; stroke-opacity: 0.7"/>
    </g>
   </g>
   <g id="PolyCollection_11">
    <defs>
     <path id="m461244f2eb" d="M 344.978808 -511.798556 
L 367.896094 -511.798556 
L 367.896094 -512.38291 
L 367.896094 -512.967265 
L 367.896094 -513.55162 
L 367.896094 -514.135974 
L 367.896094 -514.720329 
L 367.896094 -515.304684 
L 367.896094 -515.889039 
L 367.896094 -516.473393 
L 367.896094 -517.057748 
L 367.896094 -517.642103 
L 367.896094 -518.226457 
L 367.896094 -518.810812 
L 367.896094 -519.395167 
L 426.125296 -519.395167 
L 426.125296 -519.395167 
L 420.645868 -518.810812 
L 417.397475 -518.226457 
L 411.371883 -517.642103 
L 410.223286 -517.057748 
L 409.340986 -516.473393 
L 407.990915 -515.889039 
L 407.681473 -515.304684 
L 406.016598 -514.720329 
L 399.635054 -514.135974 
L 382.292959 -513.55162 
L 379.882747 -512.967265 
L 375.517475 -512.38291 
L 344.978808 -511.798556 
z
" style="stroke: #ccf900; stroke-opacity: 0.7"/>
    </defs>
    <g clip-path="url(#p4423318369)">
     <use xlink:href="#m461244f2eb" x="0" y="576" style="fill: #ccf900; fill-opacity: 0.7; stroke: #ccf900; stroke-opacity: 0.7"/>
    </g>
   </g>
   <g id="PolyCollection_12">
    <defs>
     <path id="mf8d45390f2" d="M 367.896094 -525.823069 
L 367.896094 -525.823069 
L 367.896094 -525.823069 
L 367.896094 -525.823069 
z
" style="stroke: #f9d700; stroke-opacity: 0.7"/>
    </defs>
    <g clip-path="url(#p4423318369)">
     <use xlink:href="#mf8d45390f2" x="0" y="576" style="fill: #f9d700; fill-opacity: 0.7; stroke: #f9d700; stroke-opacity: 0.7"/>
    </g>
   </g>
   <g id="PolyCollection_13">
    <defs>
     <path id="mf4484feec3" d="M 367.896094 -532.25097 
L 367.896094 -532.25097 
L 367.896094 -532.25097 
L 367.896094 -532.25097 
z
" style="stroke: #ff9900; stroke-opacity: 0.7"/>
    </defs>
    <g clip-path="url(#p4423318369)">
     <use xlink:href="#mf4484feec3" x="0" y="576" style="fill: #ff9900; fill-opacity: 0.7; stroke: #ff9900; stroke-opacity: 0.7"/>
    </g>
   </g>
   <g id="PolyCollection_14">
    <defs>
     <path id="ma37276dfd9" d="M 367.896094 -538.678872 
L 367.896094 -538.678872 
L 367.896094 -538.678872 
L 367.896094 -538.678872 
z
" style="stroke: #f40000; stroke-opacity: 0.7"/>
    </defs>
    <g clip-path="url(#p4423318369)">
     <use xlink:href="#ma37276dfd9" x="0" y="576" style="fill: #f40000; fill-opacity: 0.7; stroke: #f40000; stroke-opacity: 0.7"/>
    </g>
   </g>
   <g id="PolyCollection_15">
    <defs>
     <path id="m5955bc2a6e" d="M 367.896094 -545.106774 
L 367.896094 -545.106774 
L 367.896094 -545.106774 
L 367.896094 -545.106774 
z
" style="stroke: #d20000; stroke-opacity: 0.7"/>
    </defs>
    <g clip-path="url(#p4423318369)">
     <use xlink:href="#m5955bc2a6e" x="0" y="576" style="fill: #d20000; fill-opacity: 0.7; stroke: #d20000; stroke-opacity: 0.7"/>
    </g>
   </g>
   <g id="matplotlib.axis_1">
    <g id="xtick_1">
     <g id="line2d_1">
      <defs>
       <path id="mce4a573554" d="M 0 0 
L 0 3.5 
" style="stroke: #000000; stroke-width: 0.8"/>
      </defs>
      <g>
       <use xlink:href="#mce4a573554" x="42.495313" y="510.648438" style="stroke: #000000; stroke-width: 0.8"/>
      </g>
     </g>
     <g id="text_1">
      <!-- −1.0 -->
      <g transform="translate(18.2125 532.845312) scale(0.2 -0.2)">
       <defs>
        <path id="DejaVuSans-2212" d="M 678 2272 
L 4684 2272 
L 4684 1741 
L 678 1741 
L 678 2272 
z
" transform="scale(0.015625)"/>
        <path id="DejaVuSans-31" d="M 794 531 
L 1825 531 
L 1825 4091 
L 703 3866 
L 703 4441 
L 1819 4666 
L 2450 4666 
L 2450 531 
L 3481 531 
L 3481 0 
L 794 0 
L 794 531 
z
" transform="scale(0.015625)"/>
        <path id="DejaVuSans-2e" d="M 684 794 
L 1344 794 
L 1344 0 
L 684 0 
L 684 794 
z
" transform="scale(0.015625)"/>
        <path id="DejaVuSans-30" d="M 2034 4250 
Q 1547 4250 1301 3770 
Q 1056 3291 1056 2328 
Q 1056 1369 1301 889 
Q 1547 409 2034 409 
Q 2525 409 2770 889 
Q 3016 1369 3016 2328 
Q 3016 3291 2770 3770 
Q 2525 4250 2034 4250 
z
M 2034 4750 
Q 2819 4750 3233 4129 
Q 3647 3509 3647 2328 
Q 3647 1150 3233 529 
Q 2819 -91 2034 -91 
Q 1250 -91 836 529 
Q 422 1150 422 2328 
Q 422 3509 836 4129 
Q 1250 4750 2034 4750 
z
" transform="scale(0.015625)"/>
       </defs>
       <use xlink:href="#DejaVuSans-2212"/>
       <use xlink:href="#DejaVuSans-31" x="83.789062"/>
       <use xlink:href="#DejaVuSans-2e" x="147.412109"/>
       <use xlink:href="#DejaVuSans-30" x="179.199219"/>
      </g>
     </g>
    </g>
    <g id="xtick_2">
     <g id="line2d_2">
      <g>
       <use xlink:href="#mce4a573554" x="107.575469" y="510.648438" style="stroke: #000000; stroke-width: 0.8"/>
      </g>
     </g>
     <g id="text_2">
      <!-- −0.8 -->
      <g transform="translate(83.292656 532.845312) scale(0.2 -0.2)">
       <defs>
        <path id="DejaVuSans-38" d="M 2034 2216 
Q 1584 2216 1326 1975 
Q 1069 1734 1069 1313 
Q 1069 891 1326 650 
Q 1584 409 2034 409 
Q 2484 409 2743 651 
Q 3003 894 3003 1313 
Q 3003 1734 2745 1975 
Q 2488 2216 2034 2216 
z
M 1403 2484 
Q 997 2584 770 2862 
Q 544 3141 544 3541 
Q 544 4100 942 4425 
Q 1341 4750 2034 4750 
Q 2731 4750 3128 4425 
Q 3525 4100 3525 3541 
Q 3525 3141 3298 2862 
Q 3072 2584 2669 2484 
Q 3125 2378 3379 2068 
Q 3634 1759 3634 1313 
Q 3634 634 3220 271 
Q 2806 -91 2034 -91 
Q 1263 -91 848 271 
Q 434 634 434 1313 
Q 434 1759 690 2068 
Q 947 2378 1403 2484 
z
M 1172 3481 
Q 1172 3119 1398 2916 
Q 1625 2713 2034 2713 
Q 2441 2713 2670 2916 
Q 2900 3119 2900 3481 
Q 2900 3844 2670 4047 
Q 2441 4250 2034 4250 
Q 1625 4250 1398 4047 
Q 1172 3844 1172 3481 
z
" transform="scale(0.015625)"/>
       </defs>
       <use xlink:href="#DejaVuSans-2212"/>
       <use xlink:href="#DejaVuSans-30" x="83.789062"/>
       <use xlink:href="#DejaVuSans-2e" x="147.412109"/>
       <use xlink:href="#DejaVuSans-38" x="179.199219"/>
      </g>
     </g>
    </g>
    <g id="xtick_3">
     <g id="line2d_3">
      <g>
       <use xlink:href="#mce4a573554" x="172.655625" y="510.648438" style="stroke: #000000; stroke-width: 0.8"/>
      </g>
     </g>
     <g id="text_3">
      <!-- −0.6 -->
      <g transform="translate(148.372813 532.845312) scale(0.2 -0.2)">
       <defs>
        <path id="DejaVuSans-36" d="M 2113 2584 
Q 1688 2584 1439 2293 
Q 1191 2003 1191 1497 
Q 1191 994 1439 701 
Q 1688 409 2113 409 
Q 2538 409 2786 701 
Q 3034 994 3034 1497 
Q 3034 2003 2786 2293 
Q 2538 2584 2113 2584 
z
M 3366 4563 
L 3366 3988 
Q 3128 4100 2886 4159 
Q 2644 4219 2406 4219 
Q 1781 4219 1451 3797 
Q 1122 3375 1075 2522 
Q 1259 2794 1537 2939 
Q 1816 3084 2150 3084 
Q 2853 3084 3261 2657 
Q 3669 2231 3669 1497 
Q 3669 778 3244 343 
Q 2819 -91 2113 -91 
Q 1303 -91 875 529 
Q 447 1150 447 2328 
Q 447 3434 972 4092 
Q 1497 4750 2381 4750 
Q 2619 4750 2861 4703 
Q 3103 4656 3366 4563 
z
" transform="scale(0.015625)"/>
       </defs>
       <use xlink:href="#DejaVuSans-2212"/>
       <use xlink:href="#DejaVuSans-30" x="83.789062"/>
       <use xlink:href="#DejaVuSans-2e" x="147.412109"/>
       <use xlink:href="#DejaVuSans-36" x="179.199219"/>
      </g>
     </g>
    </g>
    <g id="xtick_4">
     <g id="line2d_4">
      <g>
       <use xlink:href="#mce4a573554" x="237.735781" y="510.648438" style="stroke: #000000; stroke-width: 0.8"/>
      </g>
     </g>
     <g id="text_4">
      <!-- −0.4 -->
      <g transform="translate(213.452969 532.845312) scale(0.2 -0.2)">
       <defs>
        <path id="DejaVuSans-34" d="M 2419 4116 
L 825 1625 
L 2419 1625 
L 2419 4116 
z
M 2253 4666 
L 3047 4666 
L 3047 1625 
L 3713 1625 
L 3713 1100 
L 3047 1100 
L 3047 0 
L 2419 0 
L 2419 1100 
L 313 1100 
L 313 1709 
L 2253 4666 
z
" transform="scale(0.015625)"/>
       </defs>
       <use xlink:href="#DejaVuSans-2212"/>
       <use xlink:href="#DejaVuSans-30" x="83.789062"/>
       <use xlink:href="#DejaVuSans-2e" x="147.412109"/>
       <use xlink:href="#DejaVuSans-34" x="179.199219"/>
      </g>
     </g>
    </g>
    <g id="xtick_5">
     <g id="line2d_5">
      <g>
       <use xlink:href="#mce4a573554" x="302.815937" y="510.648438" style="stroke: #000000; stroke-width: 0.8"/>
      </g>
     </g>
     <g id="text_5">
      <!-- −0.2 -->
      <g transform="translate(278.533125 532.845312) scale(0.2 -0.2)">
       <defs>
        <path id="DejaVuSans-32" d="M 1228 531 
L 3431 531 
L 3431 0 
L 469 0 
L 469 531 
Q 828 903 1448 1529 
Q 2069 2156 2228 2338 
Q 2531 2678 2651 2914 
Q 2772 3150 2772 3378 
Q 2772 3750 2511 3984 
Q 2250 4219 1831 4219 
Q 1534 4219 1204 4116 
Q 875 4013 500 3803 
L 500 4441 
Q 881 4594 1212 4672 
Q 1544 4750 1819 4750 
Q 2544 4750 2975 4387 
Q 3406 4025 3406 3419 
Q 3406 3131 3298 2873 
Q 3191 2616 2906 2266 
Q 2828 2175 2409 1742 
Q 1991 1309 1228 531 
z
" transform="scale(0.015625)"/>
       </defs>
       <use xlink:href="#DejaVuSans-2212"/>
       <use xlink:href="#DejaVuSans-30" x="83.789062"/>
       <use xlink:href="#DejaVuSans-2e" x="147.412109"/>
       <use xlink:href="#DejaVuSans-32" x="179.199219"/>
      </g>
     </g>
    </g>
    <g id="xtick_6">
     <g id="line2d_6">
      <g>
       <use xlink:href="#mce4a573554" x="367.896094" y="510.648438" style="stroke: #000000; stroke-width: 0.8"/>
      </g>
     </g>
     <g id="text_6">
      <!-- 0.0 -->
      <g transform="translate(351.992969 532.845312) scale(0.2 -0.2)">
       <use xlink:href="#DejaVuSans-30"/>
       <use xlink:href="#DejaVuSans-2e" x="63.623047"/>
       <use xlink:href="#DejaVuSans-30" x="95.410156"/>
      </g>
     </g>
    </g>
    <g id="xtick_7">
     <g id="line2d_7">
      <g>
       <use xlink:href="#mce4a573554" x="432.97625" y="510.648438" style="stroke: #000000; stroke-width: 0.8"/>
      </g>
     </g>
     <g id="text_7">
      <!-- 0.2 -->
      <g transform="translate(417.073125 532.845312) scale(0.2 -0.2)">
       <use xlink:href="#DejaVuSans-30"/>
       <use xlink:href="#DejaVuSans-2e" x="63.623047"/>
       <use xlink:href="#DejaVuSans-32" x="95.410156"/>
      </g>
     </g>
    </g>
    <g id="xtick_8">
     <g id="line2d_8">
      <g>
       <use xlink:href="#mce4a573554" x="498.056406" y="510.648438" style="stroke: #000000; stroke-width: 0.8"/>
      </g>
     </g>
     <g id="text_8">
      <!-- 0.4 -->
      <g transform="translate(482.153281 532.845312) scale(0.2 -0.2)">
       <use xlink:href="#DejaVuSans-30"/>
       <use xlink:href="#DejaVuSans-2e" x="63.623047"/>
       <use xlink:href="#DejaVuSans-34" x="95.410156"/>
      </g>
     </g>
    </g>
    <g id="xtick_9">
     <g id="line2d_9">
      <g>
       <use xlink:href="#mce4a573554" x="563.136562" y="510.648438" style="stroke: #000000; stroke-width: 0.8"/>
      </g>
     </g>
     <g id="text_9">
      <!-- 0.6 -->
      <g transform="translate(547.233437 532.845312) scale(0.2 -0.2)">
       <use xlink:href="#DejaVuSans-30"/>
       <use xlink:href="#DejaVuSans-2e" x="63.623047"/>
       <use xlink:href="#DejaVuSans-36" x="95.410156"/>
      </g>
     </g>
    </g>
    <g id="xtick_10">
     <g id="line2d_10">
      <g>
       <use xlink:href="#mce4a573554" x="628.216719" y="510.648438" style="stroke: #000000; stroke-width: 0.8"/>
      </g>
     </g>
     <g id="text_10">
      <!-- 0.8 -->
      <g transform="translate(612.313594 532.845312) scale(0.2 -0.2)">
       <use xlink:href="#DejaVuSans-30"/>
       <use xlink:href="#DejaVuSans-2e" x="63.623047"/>
       <use xlink:href="#DejaVuSans-38" x="95.410156"/>
      </g>
     </g>
    </g>
    <g id="xtick_11">
     <g id="line2d_11">
      <g>
       <use xlink:href="#mce4a573554" x="693.296875" y="510.648438" style="stroke: #000000; stroke-width: 0.8"/>
      </g>
     </g>
     <g id="text_11">
      <!-- 1.0 -->
      <g transform="translate(677.39375 532.845312) scale(0.2 -0.2)">
       <use xlink:href="#DejaVuSans-31"/>
       <use xlink:href="#DejaVuSans-2e" x="63.623047"/>
       <use xlink:href="#DejaVuSans-30" x="95.410156"/>
      </g>
     </g>
    </g>
    <g id="text_12">
     <!-- Silhouette coefficient -->
     <g transform="translate(235.021094 560.000781) scale(0.25 -0.25)">
      <defs>
       <path id="DejaVuSans-53" d="M 3425 4513 
L 3425 3897 
Q 3066 4069 2747 4153 
Q 2428 4238 2131 4238 
Q 1616 4238 1336 4038 
Q 1056 3838 1056 3469 
Q 1056 3159 1242 3001 
Q 1428 2844 1947 2747 
L 2328 2669 
Q 3034 2534 3370 2195 
Q 3706 1856 3706 1288 
Q 3706 609 3251 259 
Q 2797 -91 1919 -91 
Q 1588 -91 1214 -16 
Q 841 59 441 206 
L 441 856 
Q 825 641 1194 531 
Q 1563 422 1919 422 
Q 2459 422 2753 634 
Q 3047 847 3047 1241 
Q 3047 1584 2836 1778 
Q 2625 1972 2144 2069 
L 1759 2144 
Q 1053 2284 737 2584 
Q 422 2884 422 3419 
Q 422 4038 858 4394 
Q 1294 4750 2059 4750 
Q 2388 4750 2728 4690 
Q 3069 4631 3425 4513 
z
" transform="scale(0.015625)"/>
       <path id="DejaVuSans-69" d="M 603 3500 
L 1178 3500 
L 1178 0 
L 603 0 
L 603 3500 
z
M 603 4863 
L 1178 4863 
L 1178 4134 
L 603 4134 
L 603 4863 
z
" transform="scale(0.015625)"/>
       <path id="DejaVuSans-6c" d="M 603 4863 
L 1178 4863 
L 1178 0 
L 603 0 
L 603 4863 
z
" transform="scale(0.015625)"/>
       <path id="DejaVuSans-68" d="M 3513 2113 
L 3513 0 
L 2938 0 
L 2938 2094 
Q 2938 2591 2744 2837 
Q 2550 3084 2163 3084 
Q 1697 3084 1428 2787 
Q 1159 2491 1159 1978 
L 1159 0 
L 581 0 
L 581 4863 
L 1159 4863 
L 1159 2956 
Q 1366 3272 1645 3428 
Q 1925 3584 2291 3584 
Q 2894 3584 3203 3211 
Q 3513 2838 3513 2113 
z
" transform="scale(0.015625)"/>
       <path id="DejaVuSans-6f" d="M 1959 3097 
Q 1497 3097 1228 2736 
Q 959 2375 959 1747 
Q 959 1119 1226 758 
Q 1494 397 1959 397 
Q 2419 397 2687 759 
Q 2956 1122 2956 1747 
Q 2956 2369 2687 2733 
Q 2419 3097 1959 3097 
z
M 1959 3584 
Q 2709 3584 3137 3096 
Q 3566 2609 3566 1747 
Q 3566 888 3137 398 
Q 2709 -91 1959 -91 
Q 1206 -91 779 398 
Q 353 888 353 1747 
Q 353 2609 779 3096 
Q 1206 3584 1959 3584 
z
" transform="scale(0.015625)"/>
       <path id="DejaVuSans-75" d="M 544 1381 
L 544 3500 
L 1119 3500 
L 1119 1403 
Q 1119 906 1312 657 
Q 1506 409 1894 409 
Q 2359 409 2629 706 
Q 2900 1003 2900 1516 
L 2900 3500 
L 3475 3500 
L 3475 0 
L 2900 0 
L 2900 538 
Q 2691 219 2414 64 
Q 2138 -91 1772 -91 
Q 1169 -91 856 284 
Q 544 659 544 1381 
z
M 1991 3584 
L 1991 3584 
z
" transform="scale(0.015625)"/>
       <path id="DejaVuSans-65" d="M 3597 1894 
L 3597 1613 
L 953 1613 
Q 991 1019 1311 708 
Q 1631 397 2203 397 
Q 2534 397 2845 478 
Q 3156 559 3463 722 
L 3463 178 
Q 3153 47 2828 -22 
Q 2503 -91 2169 -91 
Q 1331 -91 842 396 
Q 353 884 353 1716 
Q 353 2575 817 3079 
Q 1281 3584 2069 3584 
Q 2775 3584 3186 3129 
Q 3597 2675 3597 1894 
z
M 3022 2063 
Q 3016 2534 2758 2815 
Q 2500 3097 2075 3097 
Q 1594 3097 1305 2825 
Q 1016 2553 972 2059 
L 3022 2063 
z
" transform="scale(0.015625)"/>
       <path id="DejaVuSans-74" d="M 1172 4494 
L 1172 3500 
L 2356 3500 
L 2356 3053 
L 1172 3053 
L 1172 1153 
Q 1172 725 1289 603 
Q 1406 481 1766 481 
L 2356 481 
L 2356 0 
L 1766 0 
Q 1100 0 847 248 
Q 594 497 594 1153 
L 594 3053 
L 172 3053 
L 172 3500 
L 594 3500 
L 594 4494 
L 1172 4494 
z
" transform="scale(0.015625)"/>
       <path id="DejaVuSans-20" transform="scale(0.015625)"/>
       <path id="DejaVuSans-63" d="M 3122 3366 
L 3122 2828 
Q 2878 2963 2633 3030 
Q 2388 3097 2138 3097 
Q 1578 3097 1268 2742 
Q 959 2388 959 1747 
Q 959 1106 1268 751 
Q 1578 397 2138 397 
Q 2388 397 2633 464 
Q 2878 531 3122 666 
L 3122 134 
Q 2881 22 2623 -34 
Q 2366 -91 2075 -91 
Q 1284 -91 818 406 
Q 353 903 353 1747 
Q 353 2603 823 3093 
Q 1294 3584 2113 3584 
Q 2378 3584 2631 3529 
Q 2884 3475 3122 3366 
z
" transform="scale(0.015625)"/>
       <path id="DejaVuSans-66" d="M 2375 4863 
L 2375 4384 
L 1825 4384 
Q 1516 4384 1395 4259 
Q 1275 4134 1275 3809 
L 1275 3500 
L 2222 3500 
L 2222 3053 
L 1275 3053 
L 1275 0 
L 697 0 
L 697 3053 
L 147 3053 
L 147 3500 
L 697 3500 
L 697 3744 
Q 697 4328 969 4595 
Q 1241 4863 1831 4863 
L 2375 4863 
z
" transform="scale(0.015625)"/>
       <path id="DejaVuSans-6e" d="M 3513 2113 
L 3513 0 
L 2938 0 
L 2938 2094 
Q 2938 2591 2744 2837 
Q 2550 3084 2163 3084 
Q 1697 3084 1428 2787 
Q 1159 2491 1159 1978 
L 1159 0 
L 581 0 
L 581 3500 
L 1159 3500 
L 1159 2956 
Q 1366 3272 1645 3428 
Q 1925 3584 2291 3584 
Q 2894 3584 3203 3211 
Q 3513 2838 3513 2113 
z
" transform="scale(0.015625)"/>
      </defs>
      <use xlink:href="#DejaVuSans-53"/>
      <use xlink:href="#DejaVuSans-69" x="63.476562"/>
      <use xlink:href="#DejaVuSans-6c" x="91.259766"/>
      <use xlink:href="#DejaVuSans-68" x="119.042969"/>
      <use xlink:href="#DejaVuSans-6f" x="182.421875"/>
      <use xlink:href="#DejaVuSans-75" x="243.603516"/>
      <use xlink:href="#DejaVuSans-65" x="306.982422"/>
      <use xlink:href="#DejaVuSans-74" x="368.505859"/>
      <use xlink:href="#DejaVuSans-74" x="407.714844"/>
      <use xlink:href="#DejaVuSans-65" x="446.923828"/>
      <use xlink:href="#DejaVuSans-20" x="508.447266"/>
      <use xlink:href="#DejaVuSans-63" x="540.234375"/>
      <use xlink:href="#DejaVuSans-6f" x="595.214844"/>
      <use xlink:href="#DejaVuSans-65" x="656.396484"/>
      <use xlink:href="#DejaVuSans-66" x="717.919922"/>
      <use xlink:href="#DejaVuSans-66" x="753.125"/>
      <use xlink:href="#DejaVuSans-69" x="788.330078"/>
      <use xlink:href="#DejaVuSans-63" x="816.113281"/>
      <use xlink:href="#DejaVuSans-69" x="871.09375"/>
      <use xlink:href="#DejaVuSans-65" x="898.876953"/>
      <use xlink:href="#DejaVuSans-6e" x="960.400391"/>
      <use xlink:href="#DejaVuSans-74" x="1023.779297"/>
     </g>
    </g>
   </g>
   <g id="matplotlib.axis_2">
    <g id="text_13">
     <!-- Predicted label -->
     <g transform="translate(29.796094 360.43774) rotate(-90) scale(0.25 -0.25)">
      <defs>
       <path id="DejaVuSans-50" d="M 1259 4147 
L 1259 2394 
L 2053 2394 
Q 2494 2394 2734 2622 
Q 2975 2850 2975 3272 
Q 2975 3691 2734 3919 
Q 2494 4147 2053 4147 
L 1259 4147 
z
M 628 4666 
L 2053 4666 
Q 2838 4666 3239 4311 
Q 3641 3956 3641 3272 
Q 3641 2581 3239 2228 
Q 2838 1875 2053 1875 
L 1259 1875 
L 1259 0 
L 628 0 
L 628 4666 
z
" transform="scale(0.015625)"/>
       <path id="DejaVuSans-72" d="M 2631 2963 
Q 2534 3019 2420 3045 
Q 2306 3072 2169 3072 
Q 1681 3072 1420 2755 
Q 1159 2438 1159 1844 
L 1159 0 
L 581 0 
L 581 3500 
L 1159 3500 
L 1159 2956 
Q 1341 3275 1631 3429 
Q 1922 3584 2338 3584 
Q 2397 3584 2469 3576 
Q 2541 3569 2628 3553 
L 2631 2963 
z
" transform="scale(0.015625)"/>
       <path id="DejaVuSans-64" d="M 2906 2969 
L 2906 4863 
L 3481 4863 
L 3481 0 
L 2906 0 
L 2906 525 
Q 2725 213 2448 61 
Q 2172 -91 1784 -91 
Q 1150 -91 751 415 
Q 353 922 353 1747 
Q 353 2572 751 3078 
Q 1150 3584 1784 3584 
Q 2172 3584 2448 3432 
Q 2725 3281 2906 2969 
z
M 947 1747 
Q 947 1113 1208 752 
Q 1469 391 1925 391 
Q 2381 391 2643 752 
Q 2906 1113 2906 1747 
Q 2906 2381 2643 2742 
Q 2381 3103 1925 3103 
Q 1469 3103 1208 2742 
Q 947 2381 947 1747 
z
" transform="scale(0.015625)"/>
       <path id="DejaVuSans-61" d="M 2194 1759 
Q 1497 1759 1228 1600 
Q 959 1441 959 1056 
Q 959 750 1161 570 
Q 1363 391 1709 391 
Q 2188 391 2477 730 
Q 2766 1069 2766 1631 
L 2766 1759 
L 2194 1759 
z
M 3341 1997 
L 3341 0 
L 2766 0 
L 2766 531 
Q 2569 213 2275 61 
Q 1981 -91 1556 -91 
Q 1019 -91 701 211 
Q 384 513 384 1019 
Q 384 1609 779 1909 
Q 1175 2209 1959 2209 
L 2766 2209 
L 2766 2266 
Q 2766 2663 2505 2880 
Q 2244 3097 1772 3097 
Q 1472 3097 1187 3025 
Q 903 2953 641 2809 
L 641 3341 
Q 956 3463 1253 3523 
Q 1550 3584 1831 3584 
Q 2591 3584 2966 3190 
Q 3341 2797 3341 1997 
z
" transform="scale(0.015625)"/>
       <path id="DejaVuSans-62" d="M 3116 1747 
Q 3116 2381 2855 2742 
Q 2594 3103 2138 3103 
Q 1681 3103 1420 2742 
Q 1159 2381 1159 1747 
Q 1159 1113 1420 752 
Q 1681 391 2138 391 
Q 2594 391 2855 752 
Q 3116 1113 3116 1747 
z
M 1159 2969 
Q 1341 3281 1617 3432 
Q 1894 3584 2278 3584 
Q 2916 3584 3314 3078 
Q 3713 2572 3713 1747 
Q 3713 922 3314 415 
Q 2916 -91 2278 -91 
Q 1894 -91 1617 61 
Q 1341 213 1159 525 
L 1159 0 
L 581 0 
L 581 4863 
L 1159 4863 
L 1159 2969 
z
" transform="scale(0.015625)"/>
      </defs>
      <use xlink:href="#DejaVuSans-50"/>
      <use xlink:href="#DejaVuSans-72" x="58.552734"/>
      <use xlink:href="#DejaVuSans-65" x="97.416016"/>
      <use xlink:href="#DejaVuSans-64" x="158.939453"/>
      <use xlink:href="#DejaVuSans-69" x="222.416016"/>
      <use xlink:href="#DejaVuSans-63" x="250.199219"/>
      <use xlink:href="#DejaVuSans-74" x="305.179688"/>
      <use xlink:href="#DejaVuSans-65" x="344.388672"/>
      <use xlink:href="#DejaVuSans-64" x="405.912109"/>
      <use xlink:href="#DejaVuSans-20" x="469.388672"/>
      <use xlink:href="#DejaVuSans-6c" x="501.175781"/>
      <use xlink:href="#DejaVuSans-61" x="528.958984"/>
      <use xlink:href="#DejaVuSans-62" x="590.238281"/>
      <use xlink:href="#DejaVuSans-65" x="653.714844"/>
      <use xlink:href="#DejaVuSans-6c" x="715.238281"/>
     </g>
    </g>
   </g>
   <g id="line2d_12">
    <path d="M 553.322416 510.648438 
L 553.322416 24.465325 
" clip-path="url(#p4423318369)" style="fill: none; stroke: #ff0000; stroke-width: 4; stroke-linecap: square"/>
   </g>
   <g id="patch_3">
    <path d="M 42.495313 510.648438 
L 42.495313 24.465325 
" style="fill: none; stroke: #000000; stroke-width: 0.8; stroke-linejoin: miter; stroke-linecap: square"/>
   </g>
   <g id="patch_4">
    <path d="M 693.296875 510.648438 
L 693.296875 24.465325 
" style="fill: none; stroke: #000000; stroke-width: 0.8; stroke-linejoin: miter; stroke-linecap: square"/>
   </g>
   <g id="patch_5">
    <path d="M 42.495313 510.648438 
L 693.296875 510.648438 
" style="fill: none; stroke: #000000; stroke-width: 0.8; stroke-linejoin: miter; stroke-linecap: square"/>
   </g>
   <g id="patch_6">
    <path d="M 42.495313 24.465325 
L 693.296875 24.465325 
" style="fill: none; stroke: #000000; stroke-width: 0.8; stroke-linejoin: miter; stroke-linecap: square"/>
   </g>
   <g id="text_14">
    <!-- 0 -->
    <g transform="translate(351.626055 464.776593) scale(0.25 -0.25)">
     <use xlink:href="#DejaVuSans-30"/>
    </g>
   </g>
   <g id="text_15">
    <!-- 1 -->
    <g transform="translate(351.626055 417.73604) scale(0.25 -0.25)">
     <use xlink:href="#DejaVuSans-31"/>
    </g>
   </g>
   <g id="text_16">
    <!-- 2 -->
    <g transform="translate(351.626055 410.139429) scale(0.25 -0.25)">
     <use xlink:href="#DejaVuSans-32"/>
    </g>
   </g>
   <g id="text_17">
    <!-- 3 -->
    <g transform="translate(351.626055 402.542817) scale(0.25 -0.25)">
     <defs>
      <path id="DejaVuSans-33" d="M 2597 2516 
Q 3050 2419 3304 2112 
Q 3559 1806 3559 1356 
Q 3559 666 3084 287 
Q 2609 -91 1734 -91 
Q 1441 -91 1130 -33 
Q 819 25 488 141 
L 488 750 
Q 750 597 1062 519 
Q 1375 441 1716 441 
Q 2309 441 2620 675 
Q 2931 909 2931 1356 
Q 2931 1769 2642 2001 
Q 2353 2234 1838 2234 
L 1294 2234 
L 1294 2753 
L 1863 2753 
Q 2328 2753 2575 2939 
Q 2822 3125 2822 3475 
Q 2822 3834 2567 4026 
Q 2313 4219 1838 4219 
Q 1578 4219 1281 4162 
Q 984 4106 628 3988 
L 628 4550 
Q 988 4650 1302 4700 
Q 1616 4750 1894 4750 
Q 2613 4750 3031 4423 
Q 3450 4097 3450 3541 
Q 3450 3153 3228 2886 
Q 3006 2619 2597 2516 
z
" transform="scale(0.015625)"/>
     </defs>
     <use xlink:href="#DejaVuSans-33"/>
    </g>
   </g>
   <g id="text_18">
    <!-- 4 -->
    <g transform="translate(351.626055 389.979191) scale(0.25 -0.25)">
     <use xlink:href="#DejaVuSans-34"/>
    </g>
   </g>
   <g id="text_19">
    <!-- 5 -->
    <g transform="translate(351.626055 240.968742) scale(0.25 -0.25)">
     <defs>
      <path id="DejaVuSans-35" d="M 691 4666 
L 3169 4666 
L 3169 4134 
L 1269 4134 
L 1269 2991 
Q 1406 3038 1543 3061 
Q 1681 3084 1819 3084 
Q 2600 3084 3056 2656 
Q 3513 2228 3513 1497 
Q 3513 744 3044 326 
Q 2575 -91 1722 -91 
Q 1428 -91 1123 -41 
Q 819 9 494 109 
L 494 744 
Q 775 591 1075 516 
Q 1375 441 1709 441 
Q 2250 441 2565 725 
Q 2881 1009 2881 1497 
Q 2881 1984 2565 2268 
Q 2250 2553 1709 2553 
Q 1456 2553 1204 2497 
Q 953 2441 691 2322 
L 691 4666 
z
" transform="scale(0.015625)"/>
     </defs>
     <use xlink:href="#DejaVuSans-35"/>
    </g>
   </g>
   <g id="text_20">
    <!-- 6 -->
    <g transform="translate(351.626055 97.217485) scale(0.25 -0.25)">
     <use xlink:href="#DejaVuSans-36"/>
    </g>
   </g>
   <g id="text_21">
    <!-- 7 -->
    <g transform="translate(351.626055 89.913051) scale(0.25 -0.25)">
     <defs>
      <path id="DejaVuSans-37" d="M 525 4666 
L 3525 4666 
L 3525 4397 
L 1831 0 
L 1172 0 
L 2766 4134 
L 525 4134 
L 525 4666 
z
" transform="scale(0.015625)"/>
     </defs>
     <use xlink:href="#DejaVuSans-37"/>
    </g>
   </g>
   <g id="text_22">
    <!-- 8 -->
    <g transform="translate(351.626055 79.686844) scale(0.25 -0.25)">
     <use xlink:href="#DejaVuSans-38"/>
    </g>
   </g>
   <g id="text_23">
    <!-- 9 -->
    <g transform="translate(351.626055 70.337169) scale(0.25 -0.25)">
     <defs>
      <path id="DejaVuSans-39" d="M 703 97 
L 703 672 
Q 941 559 1184 500 
Q 1428 441 1663 441 
Q 2288 441 2617 861 
Q 2947 1281 2994 2138 
Q 2813 1869 2534 1725 
Q 2256 1581 1919 1581 
Q 1219 1581 811 2004 
Q 403 2428 403 3163 
Q 403 3881 828 4315 
Q 1253 4750 1959 4750 
Q 2769 4750 3195 4129 
Q 3622 3509 3622 2328 
Q 3622 1225 3098 567 
Q 2575 -91 1691 -91 
Q 1453 -91 1209 -44 
Q 966 3 703 97 
z
M 1959 2075 
Q 2384 2075 2632 2365 
Q 2881 2656 2881 3163 
Q 2881 3666 2632 3958 
Q 2384 4250 1959 4250 
Q 1534 4250 1286 3958 
Q 1038 3666 1038 3163 
Q 1038 2656 1286 2365 
Q 1534 2075 1959 2075 
z
" transform="scale(0.015625)"/>
     </defs>
     <use xlink:href="#DejaVuSans-39"/>
    </g>
   </g>
   <g id="text_24">
    <!-- 10 -->
    <g transform="translate(351.626055 60.110961) scale(0.25 -0.25)">
     <use xlink:href="#DejaVuSans-31"/>
     <use xlink:href="#DejaVuSans-30" x="63.623047"/>
    </g>
   </g>
   <g id="text_25">
    <!-- 11 -->
    <g transform="translate(351.626055 49.884754) scale(0.25 -0.25)">
     <use xlink:href="#DejaVuSans-31"/>
     <use xlink:href="#DejaVuSans-31" x="63.623047"/>
    </g>
   </g>
   <g id="text_26">
    <!-- 12 -->
    <g transform="translate(351.626055 43.456852) scale(0.25 -0.25)">
     <use xlink:href="#DejaVuSans-31"/>
     <use xlink:href="#DejaVuSans-32" x="63.623047"/>
    </g>
   </g>
   <g id="text_27">
    <!-- 13 -->
    <g transform="translate(351.626055 37.028951) scale(0.25 -0.25)">
     <use xlink:href="#DejaVuSans-31"/>
     <use xlink:href="#DejaVuSans-33" x="63.623047"/>
    </g>
   </g>
   <g id="text_28">
    <!-- 14 -->
    <g transform="translate(351.626055 30.601049) scale(0.25 -0.25)">
     <use xlink:href="#DejaVuSans-31"/>
     <use xlink:href="#DejaVuSans-34" x="63.623047"/>
    </g>
   </g>
   <g id="text_29">
    <!-- 0.5698 -->
    <g style="fill: #ff0000" transform="translate(569.592455 30.308872) scale(0.25 -0.25)">
     <use xlink:href="#DejaVuSans-30"/>
     <use xlink:href="#DejaVuSans-2e" x="63.623047"/>
     <use xlink:href="#DejaVuSans-35" x="95.410156"/>
     <use xlink:href="#DejaVuSans-36" x="159.033203"/>
     <use xlink:href="#DejaVuSans-39" x="222.65625"/>
     <use xlink:href="#DejaVuSans-38" x="286.279297"/>
    </g>
   </g>
  </g>
 </g>
 <defs>
  <clipPath id="p4423318369">
   <rect x="42.495313" y="24.465325" width="650.801562" height="486.183113"/>
  </clipPath>
 </defs>
</svg>
