<?xml version="1.0" encoding="utf-8" standalone="no"?>
<!DOCTYPE svg PUBLIC "-//W3C//DTD SVG 1.1//EN"
  "http://www.w3.org/Graphics/SVG/1.1/DTD/svg11.dtd">
<svg xmlns:xlink="http://www.w3.org/1999/xlink" width="720pt" height="432pt" viewBox="0 0 720 432" xmlns="http://www.w3.org/2000/svg" version="1.1">
 <metadata>
  <rdf:RDF xmlns:dc="http://purl.org/dc/elements/1.1/" xmlns:cc="http://creativecommons.org/ns#" xmlns:rdf="http://www.w3.org/1999/02/22-rdf-syntax-ns#">
   <cc:Work>
    <dc:type rdf:resource="http://purl.org/dc/dcmitype/StillImage"/>
    <dc:date>2022-11-03T14:04:19.981608</dc:date>
    <dc:format>image/svg+xml</dc:format>
    <dc:creator>
     <cc:Agent>
      <dc:title>Matplotlib v3.6.1, https://matplotlib.org/</dc:title>
     </cc:Agent>
    </dc:creator>
   </cc:Work>
  </rdf:RDF>
 </metadata>
 <defs>
  <style type="text/css">*{stroke-linejoin: round; stroke-linecap: butt}</style>
 </defs>
 <g id="figure_1">
  <g id="patch_1">
   <path d="M 0 432 
L 720 432 
L 720 0 
L 0 0 
z
" style="fill: #ffffff"/>
  </g>
  <g id="axes_1">
   <g id="patch_2">
    <path d="M 27.978125 390.84375 
L 701.248437 390.84375 
L 701.248437 14.400361 
L 27.978125 14.400361 
z
" style="fill: #ffffff"/>
   </g>
   <g id="PolyCollection_1">
    <defs>
     <path id="mf601e4a0a8" d="M 307.862974 -45.68081 
L 364.613281 -45.68081 
L 364.613281 -46.133266 
L 364.613281 -46.585722 
L 364.613281 -47.038178 
L 364.613281 -47.490634 
L 364.613281 -47.94309 
L 364.613281 -48.395546 
L 364.613281 -48.848002 
L 364.613281 -49.300458 
L 364.613281 -49.752914 
L 364.613281 -50.20537 
L 364.613281 -50.657826 
L 364.613281 -51.110282 
L 364.613281 -51.562738 
L 364.613281 -52.015194 
L 364.613281 -52.46765 
L 364.613281 -52.920106 
L 364.613281 -53.372562 
L 364.613281 -53.825018 
L 364.613281 -54.277474 
L 364.613281 -54.72993 
L 364.613281 -55.182386 
L 364.613281 -55.634842 
L 364.613281 -56.087298 
L 364.613281 -56.539754 
L 364.613281 -56.99221 
L 364.613281 -57.444666 
L 364.613281 -57.897122 
L 364.613281 -58.349578 
L 364.613281 -58.802034 
L 364.613281 -59.25449 
L 364.613281 -59.706946 
L 364.613281 -60.159402 
L 364.613281 -60.611858 
L 364.613281 -61.064314 
L 364.613281 -61.51677 
L 364.613281 -61.969226 
L 364.613281 -62.421682 
L 364.613281 -62.874138 
L 364.613281 -63.326594 
L 364.613281 -63.77905 
L 364.613281 -64.231506 
L 364.613281 -64.683962 
L 364.613281 -65.136418 
L 364.613281 -65.588874 
L 364.613281 -66.04133 
L 364.613281 -66.493786 
L 364.613281 -66.946242 
L 364.613281 -67.398698 
L 364.613281 -67.851154 
L 364.613281 -68.30361 
L 364.613281 -68.756066 
L 364.613281 -69.208522 
L 364.613281 -69.660978 
L 364.613281 -70.113434 
L 364.613281 -70.56589 
L 364.613281 -71.018346 
L 364.613281 -71.470802 
L 364.613281 -71.923258 
L 364.613281 -72.375714 
L 364.613281 -72.82817 
L 364.613281 -73.280626 
L 364.613281 -73.733082 
L 364.613281 -74.185538 
L 364.613281 -74.637994 
L 364.613281 -75.09045 
L 364.613281 -75.542906 
L 364.613281 -75.995362 
L 364.613281 -76.447818 
L 364.613281 -76.900274 
L 364.613281 -77.35273 
L 364.613281 -77.805186 
L 364.613281 -78.257642 
L 364.613281 -78.710098 
L 364.613281 -79.162554 
L 364.613281 -79.61501 
L 364.613281 -80.067466 
L 364.613281 -80.519922 
L 364.613281 -80.972378 
L 364.613281 -81.424834 
L 364.613281 -81.87729 
L 364.613281 -82.329746 
L 364.613281 -82.782202 
L 364.613281 -83.234658 
L 364.613281 -83.687114 
L 364.613281 -84.13957 
L 364.613281 -84.592026 
L 364.613281 -85.044482 
L 364.613281 -85.496938 
L 364.613281 -85.949394 
L 364.613281 -86.40185 
L 364.613281 -86.854306 
L 364.613281 -87.306762 
L 364.613281 -87.759218 
L 364.613281 -88.211674 
L 364.613281 -88.66413 
L 364.613281 -89.116586 
L 364.613281 -89.569042 
L 364.613281 -90.021498 
L 364.613281 -90.473954 
L 364.613281 -90.92641 
L 364.613281 -91.378866 
L 364.613281 -91.831322 
L 364.613281 -92.283778 
L 364.613281 -92.736234 
L 364.613281 -93.18869 
L 364.613281 -93.641146 
L 364.613281 -94.093602 
L 364.613281 -94.546058 
L 364.613281 -94.998514 
L 364.613281 -95.45097 
L 364.613281 -95.903426 
L 364.613281 -96.355882 
L 364.613281 -96.808338 
L 364.613281 -97.260794 
L 364.613281 -97.71325 
L 364.613281 -98.165706 
L 364.613281 -98.618162 
L 364.613281 -99.070618 
L 364.613281 -99.523074 
L 364.613281 -99.97553 
L 364.613281 -100.427986 
L 364.613281 -100.880442 
L 364.613281 -101.332898 
L 364.613281 -101.785354 
L 364.613281 -102.23781 
L 364.613281 -102.690266 
L 364.613281 -103.142722 
L 364.613281 -103.595178 
L 364.613281 -104.047634 
L 364.613281 -104.50009 
L 364.613281 -104.952546 
L 364.613281 -105.405002 
L 364.613281 -105.857458 
L 364.613281 -106.309914 
L 364.613281 -106.76237 
L 364.613281 -107.214826 
L 450.396457 -107.214826 
L 450.396457 -107.214826 
L 450.302379 -106.76237 
L 447.675104 -106.309914 
L 447.319416 -105.857458 
L 445.494859 -105.405002 
L 444.067994 -104.952546 
L 443.754265 -104.50009 
L 443.448816 -104.047634 
L 441.209569 -103.595178 
L 440.628311 -103.142722 
L 440.439116 -102.690266 
L 439.91173 -102.23781 
L 439.531105 -101.785354 
L 438.890213 -101.332898 
L 438.780059 -100.880442 
L 438.59644 -100.427986 
L 438.236812 -99.97553 
L 437.999294 -99.523074 
L 437.37148 -99.070618 
L 436.55832 -98.618162 
L 436.544855 -98.165706 
L 435.735305 -97.71325 
L 435.225094 -97.260794 
L 435.147419 -96.808338 
L 434.248461 -96.355882 
L 433.80739 -95.903426 
L 433.193633 -95.45097 
L 431.547449 -94.998514 
L 431.392092 -94.546058 
L 431.280071 -94.093602 
L 430.676076 -93.641146 
L 430.64733 -93.18869 
L 430.572617 -92.736234 
L 430.267725 -92.283778 
L 428.644061 -91.831322 
L 428.377895 -91.378866 
L 428.368089 -90.92641 
L 427.93336 -90.473954 
L 427.690009 -90.021498 
L 427.513225 -89.569042 
L 427.463916 -89.116586 
L 427.423557 -88.66413 
L 427.249208 -88.211674 
L 427.212368 -87.759218 
L 427.162118 -87.306762 
L 426.49398 -86.854306 
L 425.439242 -86.40185 
L 425.410073 -85.949394 
L 423.020532 -85.496938 
L 422.843875 -85.044482 
L 421.611947 -84.592026 
L 420.847423 -84.13957 
L 420.789502 -83.687114 
L 420.745768 -83.234658 
L 420.57785 -82.782202 
L 420.113471 -82.329746 
L 419.67462 -81.87729 
L 419.511887 -81.424834 
L 419.428257 -80.972378 
L 419.074395 -80.519922 
L 418.305166 -80.067466 
L 417.937861 -79.61501 
L 417.664107 -79.162554 
L 417.596254 -78.710098 
L 417.534054 -78.257642 
L 417.299856 -77.805186 
L 416.730959 -77.35273 
L 416.623941 -76.900274 
L 414.623265 -76.447818 
L 414.112943 -75.995362 
L 413.847628 -75.542906 
L 413.463892 -75.09045 
L 412.661697 -74.637994 
L 412.4311 -74.185538 
L 412.38362 -73.733082 
L 412.178378 -73.280626 
L 411.794624 -72.82817 
L 411.766 -72.375714 
L 411.207585 -71.923258 
L 411.138769 -71.470802 
L 410.958518 -71.018346 
L 410.693964 -70.56589 
L 410.392064 -70.113434 
L 410.261591 -69.660978 
L 409.61733 -69.208522 
L 408.802534 -68.756066 
L 408.502444 -68.30361 
L 407.564167 -67.851154 
L 407.520761 -67.398698 
L 407.385054 -66.946242 
L 406.942819 -66.493786 
L 406.018461 -66.04133 
L 405.025471 -65.588874 
L 405.012713 -65.136418 
L 404.673986 -64.683962 
L 403.938814 -64.231506 
L 403.400013 -63.77905 
L 401.585053 -63.326594 
L 400.942376 -62.874138 
L 400.366381 -62.421682 
L 399.119392 -61.969226 
L 397.932958 -61.51677 
L 394.287485 -61.064314 
L 394.251413 -60.611858 
L 393.057314 -60.159402 
L 391.283697 -59.706946 
L 391.20862 -59.25449 
L 389.958911 -58.802034 
L 389.503014 -58.349578 
L 389.493358 -57.897122 
L 387.571947 -57.444666 
L 386.972699 -56.99221 
L 386.615735 -56.539754 
L 385.576811 -56.087298 
L 385.493934 -55.634842 
L 383.982057 -55.182386 
L 382.650104 -54.72993 
L 381.781059 -54.277474 
L 379.447869 -53.825018 
L 378.113319 -53.372562 
L 374.411496 -52.920106 
L 374.283126 -52.46765 
L 373.446255 -52.015194 
L 371.151383 -51.562738 
L 370.445959 -51.110282 
L 362.18479 -50.657826 
L 362.176255 -50.20537 
L 361.468755 -49.752914 
L 359.885116 -49.300458 
L 357.318892 -48.848002 
L 352.953083 -48.395546 
L 350.47399 -47.94309 
L 348.756432 -47.490634 
L 347.684509 -47.038178 
L 337.118264 -46.585722 
L 315.464591 -46.133266 
L 307.862974 -45.68081 
z
" style="stroke: #000000; stroke-opacity: 0.7"/>
    </defs>
    <g clip-path="url(#p784954f971)">
     <use xlink:href="#mf601e4a0a8" x="0" y="432" style="fill-opacity: 0.7; stroke: #000000; stroke-opacity: 0.7"/>
    </g>
   </g>
   <g id="PolyCollection_2">
    <defs>
     <path id="m6ef846e352" d="M 387.41726 -112.191842 
L 364.613281 -112.191842 
L 364.613281 -112.644298 
L 364.613281 -113.096754 
L 364.613281 -113.54921 
L 422.221742 -113.54921 
L 422.221742 -113.54921 
L 403.055509 -113.096754 
L 397.713478 -112.644298 
L 387.41726 -112.191842 
z
" style="stroke: #7d008e; stroke-opacity: 0.7"/>
    </defs>
    <g clip-path="url(#p784954f971)">
     <use xlink:href="#m6ef846e352" x="0" y="432" style="fill: #7d008e; fill-opacity: 0.7; stroke: #7d008e; stroke-opacity: 0.7"/>
    </g>
   </g>
   <g id="PolyCollection_3">
    <defs>
     <path id="mb193398a65" d="M 400.368349 -118.526225 
L 364.613281 -118.526225 
L 364.613281 -118.978681 
L 405.800878 -118.978681 
L 405.800878 -118.978681 
L 400.368349 -118.526225 
z
" style="stroke: #2d00a4; stroke-opacity: 0.7"/>
    </defs>
    <g clip-path="url(#p784954f971)">
     <use xlink:href="#mb193398a65" x="0" y="432" style="fill: #2d00a4; fill-opacity: 0.7; stroke: #2d00a4; stroke-opacity: 0.7"/>
    </g>
   </g>
   <g id="PolyCollection_4">
    <defs>
     <path id="m10dceb4d6e" d="M 399.366332 -123.955697 
L 364.613281 -123.955697 
L 364.613281 -124.408153 
L 364.613281 -124.860609 
L 364.613281 -125.313065 
L 433.901928 -125.313065 
L 433.901928 -125.313065 
L 424.155515 -124.860609 
L 418.477889 -124.408153 
L 399.366332 -123.955697 
z
" style="stroke: #0000dd; stroke-opacity: 0.7"/>
    </defs>
    <g clip-path="url(#p784954f971)">
     <use xlink:href="#m10dceb4d6e" x="0" y="432" style="fill: #0000dd; fill-opacity: 0.7; stroke: #0000dd; stroke-opacity: 0.7"/>
    </g>
   </g>
   <g id="PolyCollection_5">
    <defs>
     <path id="me381217a02" d="M 348.290367 -130.290081 
L 364.613281 -130.290081 
L 364.613281 -130.742537 
L 364.613281 -131.194993 
L 364.613281 -131.647449 
L 364.613281 -132.099905 
L 364.613281 -132.552361 
L 364.613281 -133.004817 
L 364.613281 -133.457273 
L 364.613281 -133.909729 
L 364.613281 -134.362185 
L 364.613281 -134.814641 
L 364.613281 -135.267097 
L 364.613281 -135.719553 
L 364.613281 -136.172009 
L 364.613281 -136.624465 
L 364.613281 -137.076921 
L 364.613281 -137.529377 
L 364.613281 -137.981833 
L 364.613281 -138.434289 
L 428.519102 -138.434289 
L 428.519102 -138.434289 
L 421.81825 -137.981833 
L 413.803532 -137.529377 
L 413.158808 -137.076921 
L 412.089293 -136.624465 
L 406.502798 -136.172009 
L 401.292268 -135.719553 
L 400.746888 -135.267097 
L 399.288028 -134.814641 
L 398.633716 -134.362185 
L 392.614876 -133.909729 
L 390.226271 -133.457273 
L 389.842082 -133.004817 
L 387.81006 -132.552361 
L 387.116489 -132.099905 
L 384.797626 -131.647449 
L 380.4811 -131.194993 
L 349.025156 -130.742537 
L 348.290367 -130.290081 
z
" style="stroke: #0082dd; stroke-opacity: 0.7"/>
    </defs>
    <g clip-path="url(#p784954f971)">
     <use xlink:href="#me381217a02" x="0" y="432" style="fill: #0082dd; fill-opacity: 0.7; stroke: #0082dd; stroke-opacity: 0.7"/>
    </g>
   </g>
   <g id="PolyCollection_6">
    <defs>
     <path id="m4c9e1463ab" d="M 560.347386 -143.411305 
L 364.613281 -143.411305 
L 364.613281 -143.863761 
L 364.613281 -144.316217 
L 364.613281 -144.768673 
L 364.613281 -145.221129 
L 364.613281 -145.673585 
L 364.613281 -146.126041 
L 364.613281 -146.578497 
L 364.613281 -147.030953 
L 364.613281 -147.483409 
L 364.613281 -147.935865 
L 364.613281 -148.388321 
L 364.613281 -148.840777 
L 364.613281 -149.293233 
L 364.613281 -149.745689 
L 364.613281 -150.198145 
L 364.613281 -150.650601 
L 364.613281 -151.103057 
L 364.613281 -151.555513 
L 364.613281 -152.007969 
L 364.613281 -152.460425 
L 364.613281 -152.912881 
L 364.613281 -153.365337 
L 364.613281 -153.817793 
L 364.613281 -154.270249 
L 364.613281 -154.722705 
L 364.613281 -155.175161 
L 364.613281 -155.627617 
L 364.613281 -156.080073 
L 364.613281 -156.532529 
L 364.613281 -156.984985 
L 364.613281 -157.437441 
L 364.613281 -157.889897 
L 364.613281 -158.342353 
L 364.613281 -158.794809 
L 364.613281 -159.247265 
L 364.613281 -159.699721 
L 364.613281 -160.152177 
L 364.613281 -160.604633 
L 364.613281 -161.057089 
L 364.613281 -161.509545 
L 364.613281 -161.962001 
L 364.613281 -162.414457 
L 364.613281 -162.866913 
L 364.613281 -163.319369 
L 364.613281 -163.771825 
L 364.613281 -164.224281 
L 364.613281 -164.676737 
L 364.613281 -165.129193 
L 364.613281 -165.581649 
L 364.613281 -166.034105 
L 364.613281 -166.486561 
L 364.613281 -166.939017 
L 364.613281 -167.391473 
L 364.613281 -167.843929 
L 364.613281 -168.296385 
L 364.613281 -168.748841 
L 364.613281 -169.201297 
L 364.613281 -169.653753 
L 364.613281 -170.106209 
L 364.613281 -170.558665 
L 364.613281 -171.011121 
L 364.613281 -171.463577 
L 364.613281 -171.916033 
L 364.613281 -172.368489 
L 364.613281 -172.820945 
L 364.613281 -173.273401 
L 364.613281 -173.725857 
L 364.613281 -174.178313 
L 364.613281 -174.630769 
L 364.613281 -175.083225 
L 364.613281 -175.535681 
L 364.613281 -175.988137 
L 364.613281 -176.440593 
L 364.613281 -176.893049 
L 364.613281 -177.345505 
L 364.613281 -177.797961 
L 364.613281 -178.250417 
L 364.613281 -178.702873 
L 364.613281 -179.155329 
L 364.613281 -179.607785 
L 364.613281 -180.060241 
L 364.613281 -180.512697 
L 364.613281 -180.965153 
L 364.613281 -181.417609 
L 364.613281 -181.870065 
L 364.613281 -182.322521 
L 364.613281 -182.774977 
L 364.613281 -183.227433 
L 364.613281 -183.679889 
L 364.613281 -184.132345 
L 364.613281 -184.584801 
L 364.613281 -185.037257 
L 364.613281 -185.489713 
L 364.613281 -185.942169 
L 364.613281 -186.394625 
L 364.613281 -186.847081 
L 364.613281 -187.299537 
L 364.613281 -187.751993 
L 364.613281 -188.204449 
L 364.613281 -188.656905 
L 364.613281 -189.109361 
L 364.613281 -189.561817 
L 364.613281 -190.014273 
L 364.613281 -190.466729 
L 364.613281 -190.919185 
L 364.613281 -191.371641 
L 364.613281 -191.824097 
L 364.613281 -192.276553 
L 364.613281 -192.729009 
L 364.613281 -193.181465 
L 364.613281 -193.633921 
L 364.613281 -194.086377 
L 364.613281 -194.538833 
L 364.613281 -194.991289 
L 364.613281 -195.443745 
L 364.613281 -195.896201 
L 364.613281 -196.348657 
L 364.613281 -196.801113 
L 364.613281 -197.253569 
L 364.613281 -197.706025 
L 364.613281 -198.158481 
L 364.613281 -198.610937 
L 364.613281 -199.063393 
L 364.613281 -199.515849 
L 364.613281 -199.968305 
L 364.613281 -200.420761 
L 364.613281 -200.873217 
L 364.613281 -201.325673 
L 364.613281 -201.778129 
L 364.613281 -202.230585 
L 364.613281 -202.683041 
L 364.613281 -203.135497 
L 364.613281 -203.587953 
L 364.613281 -204.040409 
L 364.613281 -204.492865 
L 364.613281 -204.945321 
L 364.613281 -205.397777 
L 364.613281 -205.850233 
L 364.613281 -206.302689 
L 364.613281 -206.755145 
L 364.613281 -207.207601 
L 364.613281 -207.660057 
L 364.613281 -208.112513 
L 364.613281 -208.564969 
L 364.613281 -209.017425 
L 364.613281 -209.469881 
L 364.613281 -209.922337 
L 364.613281 -210.374793 
L 364.613281 -210.827249 
L 364.613281 -211.279705 
L 364.613281 -211.732161 
L 364.613281 -212.184617 
L 364.613281 -212.637073 
L 364.613281 -213.089529 
L 364.613281 -213.541985 
L 364.613281 -213.994441 
L 364.613281 -214.446897 
L 364.613281 -214.899353 
L 364.613281 -215.351809 
L 364.613281 -215.804265 
L 364.613281 -216.256721 
L 364.613281 -216.709177 
L 364.613281 -217.161633 
L 364.613281 -217.614089 
L 364.613281 -218.066545 
L 364.613281 -218.519001 
L 364.613281 -218.971457 
L 364.613281 -219.423913 
L 364.613281 -219.876369 
L 364.613281 -220.328825 
L 364.613281 -220.781281 
L 364.613281 -221.233737 
L 364.613281 -221.686193 
L 364.613281 -222.138649 
L 364.613281 -222.591105 
L 364.613281 -223.043561 
L 364.613281 -223.496017 
L 364.613281 -223.948473 
L 364.613281 -224.400929 
L 364.613281 -224.853385 
L 364.613281 -225.305841 
L 364.613281 -225.758297 
L 364.613281 -226.210753 
L 364.613281 -226.663209 
L 364.613281 -227.115665 
L 364.613281 -227.568121 
L 364.613281 -228.020577 
L 364.613281 -228.473033 
L 364.613281 -228.925489 
L 364.613281 -229.377945 
L 364.613281 -229.830401 
L 364.613281 -230.282857 
L 364.613281 -230.735313 
L 364.613281 -231.187769 
L 364.613281 -231.640225 
L 364.613281 -232.092681 
L 364.613281 -232.545137 
L 364.613281 -232.997593 
L 364.613281 -233.450049 
L 364.613281 -233.902505 
L 364.613281 -234.354961 
L 364.613281 -234.807417 
L 364.613281 -235.259873 
L 364.613281 -235.712329 
L 364.613281 -236.164785 
L 364.613281 -236.617241 
L 364.613281 -237.069697 
L 364.613281 -237.522153 
L 364.613281 -237.974609 
L 364.613281 -238.427065 
L 364.613281 -238.879521 
L 364.613281 -239.331977 
L 364.613281 -239.784433 
L 364.613281 -240.236889 
L 364.613281 -240.689345 
L 364.613281 -241.141801 
L 364.613281 -241.594257 
L 364.613281 -242.046713 
L 364.613281 -242.499169 
L 364.613281 -242.951625 
L 364.613281 -243.404081 
L 364.613281 -243.856537 
L 364.613281 -244.308993 
L 364.613281 -244.761449 
L 364.613281 -245.213905 
L 364.613281 -245.666361 
L 364.613281 -246.118817 
L 364.613281 -246.571273 
L 364.613281 -247.023729 
L 364.613281 -247.476185 
L 364.613281 -247.928641 
L 364.613281 -248.381097 
L 364.613281 -248.833553 
L 364.613281 -249.286009 
L 364.613281 -249.738465 
L 364.613281 -250.190921 
L 364.613281 -250.643377 
L 364.613281 -251.095833 
L 364.613281 -251.548289 
L 364.613281 -252.000745 
L 364.613281 -252.453201 
L 364.613281 -252.905657 
L 364.613281 -253.358113 
L 364.613281 -253.810569 
L 364.613281 -254.263025 
L 364.613281 -254.715481 
L 364.613281 -255.167937 
L 364.613281 -255.620393 
L 364.613281 -256.072849 
L 364.613281 -256.525305 
L 364.613281 -256.977761 
L 364.613281 -257.430217 
L 364.613281 -257.882673 
L 364.613281 -258.335129 
L 364.613281 -258.787585 
L 364.613281 -259.240041 
L 364.613281 -259.692497 
L 364.613281 -260.144953 
L 364.613281 -260.597408 
L 364.613281 -261.049864 
L 364.613281 -261.50232 
L 364.613281 -261.954776 
L 364.613281 -262.407232 
L 364.613281 -262.859688 
L 364.613281 -263.312144 
L 364.613281 -263.7646 
L 364.613281 -264.217056 
L 364.613281 -264.669512 
L 364.613281 -265.121968 
L 364.613281 -265.574424 
L 364.613281 -266.02688 
L 364.613281 -266.479336 
L 364.613281 -266.931792 
L 364.613281 -267.384248 
L 364.613281 -267.836704 
L 364.613281 -268.28916 
L 364.613281 -268.741616 
L 364.613281 -269.194072 
L 364.613281 -269.646528 
L 364.613281 -270.098984 
L 364.613281 -270.55144 
L 364.613281 -271.003896 
L 364.613281 -271.456352 
L 364.613281 -271.908808 
L 364.613281 -272.361264 
L 364.613281 -272.81372 
L 364.613281 -273.266176 
L 364.613281 -273.718632 
L 364.613281 -274.171088 
L 364.613281 -274.623544 
L 364.613281 -275.076 
L 364.613281 -275.528456 
L 364.613281 -275.980912 
L 364.613281 -276.433368 
L 364.613281 -276.885824 
L 364.613281 -277.33828 
L 364.613281 -277.790736 
L 364.613281 -278.243192 
L 364.613281 -278.695648 
L 364.613281 -279.148104 
L 364.613281 -279.60056 
L 364.613281 -280.053016 
L 364.613281 -280.505472 
L 364.613281 -280.957928 
L 364.613281 -281.410384 
L 364.613281 -281.86284 
L 364.613281 -282.315296 
L 364.613281 -282.767752 
L 364.613281 -283.220208 
L 364.613281 -283.672664 
L 364.613281 -284.12512 
L 364.613281 -284.577576 
L 364.613281 -285.030032 
L 364.613281 -285.482488 
L 364.613281 -285.934944 
L 364.613281 -286.3874 
L 364.613281 -286.839856 
L 364.613281 -287.292312 
L 364.613281 -287.744768 
L 364.613281 -288.197224 
L 364.613281 -288.64968 
L 364.613281 -289.102136 
L 364.613281 -289.554592 
L 364.613281 -290.007048 
L 364.613281 -290.459504 
L 364.613281 -290.91196 
L 364.613281 -291.364416 
L 364.613281 -291.816872 
L 364.613281 -292.269328 
L 364.613281 -292.721784 
L 364.613281 -293.17424 
L 364.613281 -293.626696 
L 364.613281 -294.079152 
L 364.613281 -294.531608 
L 364.613281 -294.984064 
L 364.613281 -295.43652 
L 364.613281 -295.888976 
L 364.613281 -296.341432 
L 364.613281 -296.793888 
L 364.613281 -297.246344 
L 364.613281 -297.6988 
L 364.613281 -298.151256 
L 364.613281 -298.603712 
L 364.613281 -299.056168 
L 364.613281 -299.508624 
L 364.613281 -299.96108 
L 364.613281 -300.413536 
L 364.613281 -300.865992 
L 364.613281 -301.318448 
L 364.613281 -301.770904 
L 364.613281 -302.22336 
L 364.613281 -302.675816 
L 364.613281 -303.128272 
L 364.613281 -303.580728 
L 364.613281 -304.033184 
L 364.613281 -304.48564 
L 364.613281 -304.938096 
L 364.613281 -305.390552 
L 364.613281 -305.843008 
L 364.613281 -306.295464 
L 364.613281 -306.74792 
L 364.613281 -307.200376 
L 364.613281 -307.652832 
L 364.613281 -308.105288 
L 364.613281 -308.557744 
L 364.613281 -309.0102 
L 364.613281 -309.462656 
L 364.613281 -309.915112 
L 364.613281 -310.367568 
L 364.613281 -310.820024 
L 364.613281 -311.27248 
L 364.613281 -311.724936 
L 364.613281 -312.177392 
L 364.613281 -312.629848 
L 364.613281 -313.082304 
L 364.613281 -313.53476 
L 364.613281 -313.987216 
L 364.613281 -314.439672 
L 364.613281 -314.892128 
L 364.613281 -315.344584 
L 364.613281 -315.79704 
L 364.613281 -316.249496 
L 364.613281 -316.701952 
L 364.613281 -317.154408 
L 364.613281 -317.606864 
L 364.613281 -318.05932 
L 364.613281 -318.511776 
L 364.613281 -318.964232 
L 364.613281 -319.416688 
L 364.613281 -319.869144 
L 364.613281 -320.3216 
L 364.613281 -320.774056 
L 364.613281 -321.226512 
L 364.613281 -321.678968 
L 364.613281 -322.131424 
L 364.613281 -322.58388 
L 364.613281 -323.036336 
L 364.613281 -323.488792 
L 364.613281 -323.941248 
L 364.613281 -324.393704 
L 364.613281 -324.84616 
L 364.613281 -325.298616 
L 364.613281 -325.751072 
L 364.613281 -326.203528 
L 364.613281 -326.655984 
L 364.613281 -327.10844 
L 364.613281 -327.560896 
L 364.613281 -328.013352 
L 364.613281 -328.465808 
L 364.613281 -328.918264 
L 364.613281 -329.37072 
L 364.613281 -329.823176 
L 364.613281 -330.275632 
L 364.613281 -330.728088 
L 364.613281 -331.180544 
L 364.613281 -331.633 
L 364.613281 -332.085456 
L 364.613281 -332.537912 
L 364.613281 -332.990368 
L 364.613281 -333.442824 
L 364.613281 -333.89528 
L 364.613281 -334.347736 
L 364.613281 -334.800192 
L 364.613281 -335.252648 
L 364.613281 -335.705104 
L 364.613281 -336.15756 
L 364.613281 -336.610016 
L 364.613281 -337.062472 
L 364.613281 -337.514928 
L 364.613281 -337.967384 
L 364.613281 -338.41984 
L 364.613281 -338.872296 
L 364.613281 -339.324752 
L 364.613281 -339.777208 
L 364.613281 -340.229664 
L 364.613281 -340.68212 
L 364.613281 -341.134576 
L 364.613281 -341.587032 
L 364.613281 -342.039488 
L 364.613281 -342.491944 
L 364.613281 -342.9444 
L 364.613281 -343.396856 
L 364.613281 -343.849312 
L 364.613281 -344.301768 
L 364.613281 -344.754224 
L 364.613281 -345.20668 
L 364.613281 -345.659136 
L 364.613281 -346.111592 
L 364.613281 -346.564048 
L 364.613281 -347.016504 
L 364.613281 -347.46896 
L 364.613281 -347.921416 
L 364.613281 -348.373872 
L 364.613281 -348.826328 
L 364.613281 -349.278784 
L 364.613281 -349.73124 
L 364.613281 -350.183696 
L 364.613281 -350.636152 
L 364.613281 -351.088608 
L 364.613281 -351.541064 
L 364.613281 -351.99352 
L 364.613281 -352.445976 
L 364.613281 -352.898432 
L 364.613281 -353.350888 
L 364.613281 -353.803344 
L 364.613281 -354.2558 
L 364.613281 -354.708256 
L 364.613281 -355.160712 
L 364.613281 -355.613168 
L 364.613281 -356.065624 
L 639.486974 -356.065624 
L 639.486974 -356.065624 
L 639.383492 -355.613168 
L 638.33488 -355.160712 
L 638.113202 -354.708256 
L 637.772372 -354.2558 
L 637.734539 -353.803344 
L 637.726039 -353.350888 
L 637.483115 -352.898432 
L 637.391858 -352.445976 
L 637.165728 -351.99352 
L 636.672978 -351.541064 
L 636.106076 -351.088608 
L 636.075813 -350.636152 
L 635.984988 -350.183696 
L 635.91545 -349.73124 
L 635.909995 -349.278784 
L 635.889265 -348.826328 
L 635.808824 -348.373872 
L 635.704542 -347.921416 
L 635.623024 -347.46896 
L 635.612729 -347.016504 
L 635.536748 -346.564048 
L 635.189562 -346.111592 
L 635.163745 -345.659136 
L 635.033717 -345.20668 
L 634.923614 -344.754224 
L 634.858396 -344.301768 
L 634.842394 -343.849312 
L 634.798835 -343.396856 
L 634.582379 -342.9444 
L 634.556444 -342.491944 
L 634.506501 -342.039488 
L 634.502441 -341.587032 
L 634.446238 -341.134576 
L 634.431098 -340.68212 
L 634.340483 -340.229664 
L 634.336095 -339.777208 
L 634.236199 -339.324752 
L 634.203185 -338.872296 
L 634.118 -338.41984 
L 634.117352 -337.967384 
L 634.101024 -337.514928 
L 634.031893 -337.062472 
L 634.007623 -336.610016 
L 633.943472 -336.15756 
L 633.908158 -335.705104 
L 633.84493 -335.252648 
L 633.839187 -334.800192 
L 633.761939 -334.347736 
L 633.757782 -333.89528 
L 633.752505 -333.442824 
L 633.678796 -332.990368 
L 633.619967 -332.537912 
L 633.619507 -332.085456 
L 633.605505 -331.633 
L 633.600276 -331.180544 
L 633.457821 -330.728088 
L 633.445581 -330.275632 
L 633.440978 -329.823176 
L 633.392567 -329.37072 
L 633.313583 -328.918264 
L 633.214967 -328.465808 
L 633.118127 -328.013352 
L 633.108881 -327.560896 
L 633.088206 -327.10844 
L 632.891621 -326.655984 
L 632.840999 -326.203528 
L 632.821917 -325.751072 
L 632.768815 -325.298616 
L 632.758481 -324.84616 
L 632.733485 -324.393704 
L 632.714291 -323.941248 
L 632.706529 -323.488792 
L 632.663896 -323.036336 
L 632.656781 -322.58388 
L 632.625316 -322.131424 
L 632.622781 -321.678968 
L 632.599065 -321.226512 
L 632.547262 -320.774056 
L 632.528888 -320.3216 
L 632.481413 -319.869144 
L 632.462767 -319.416688 
L 632.392023 -318.964232 
L 632.379892 -318.511776 
L 632.339933 -318.05932 
L 632.311441 -317.606864 
L 632.25945 -317.154408 
L 632.188395 -316.701952 
L 632.129199 -316.249496 
L 632.07827 -315.79704 
L 632.02459 -315.344584 
L 632.013973 -314.892128 
L 631.995126 -314.439672 
L 631.958097 -313.987216 
L 631.954349 -313.53476 
L 631.952738 -313.082304 
L 631.906967 -312.629848 
L 631.89192 -312.177392 
L 631.867544 -311.724936 
L 631.753001 -311.27248 
L 631.721053 -310.820024 
L 631.715417 -310.367568 
L 631.691715 -309.915112 
L 631.668016 -309.462656 
L 631.597901 -309.0102 
L 631.493206 -308.557744 
L 631.466382 -308.105288 
L 631.413152 -307.652832 
L 631.225789 -307.200376 
L 631.190043 -306.74792 
L 631.13369 -306.295464 
L 631.050097 -305.843008 
L 631.035252 -305.390552 
L 630.943762 -304.938096 
L 630.840544 -304.48564 
L 630.752998 -304.033184 
L 630.623197 -303.580728 
L 630.600409 -303.128272 
L 630.561892 -302.675816 
L 630.501893 -302.22336 
L 630.373188 -301.770904 
L 630.345256 -301.318448 
L 630.33807 -300.865992 
L 630.331835 -300.413536 
L 630.249655 -299.96108 
L 630.221619 -299.508624 
L 630.192318 -299.056168 
L 630.161532 -298.603712 
L 630.145086 -298.151256 
L 630.093998 -297.6988 
L 630.030183 -297.246344 
L 629.830483 -296.793888 
L 629.815229 -296.341432 
L 629.796485 -295.888976 
L 629.795293 -295.43652 
L 629.763971 -294.984064 
L 629.705499 -294.531608 
L 629.704598 -294.079152 
L 629.69194 -293.626696 
L 629.585595 -293.17424 
L 629.56808 -292.721784 
L 629.567332 -292.269328 
L 629.465997 -291.816872 
L 629.430128 -291.364416 
L 629.385314 -290.91196 
L 629.378274 -290.459504 
L 629.366982 -290.007048 
L 629.295329 -289.554592 
L 629.276628 -289.102136 
L 629.14669 -288.64968 
L 629.119377 -288.197224 
L 629.029713 -287.744768 
L 628.856385 -287.292312 
L 628.780337 -286.839856 
L 628.772293 -286.3874 
L 628.679065 -285.934944 
L 628.665791 -285.482488 
L 628.621204 -285.030032 
L 628.506357 -284.577576 
L 628.495951 -284.12512 
L 628.483586 -283.672664 
L 628.464515 -283.220208 
L 628.413252 -282.767752 
L 628.236343 -282.315296 
L 628.19561 -281.86284 
L 628.104842 -281.410384 
L 628.098678 -280.957928 
L 628.056025 -280.505472 
L 627.993965 -280.053016 
L 627.96401 -279.60056 
L 627.833304 -279.148104 
L 627.794121 -278.695648 
L 627.759816 -278.243192 
L 627.679284 -277.790736 
L 627.519572 -277.33828 
L 627.438847 -276.885824 
L 627.403847 -276.433368 
L 627.371156 -275.980912 
L 627.032499 -275.528456 
L 627.006404 -275.076 
L 626.994224 -274.623544 
L 626.868606 -274.171088 
L 626.834686 -273.718632 
L 626.755606 -273.266176 
L 626.733372 -272.81372 
L 626.713171 -272.361264 
L 626.676947 -271.908808 
L 626.593617 -271.456352 
L 626.584019 -271.003896 
L 626.538629 -270.55144 
L 626.43493 -270.098984 
L 626.399606 -269.646528 
L 626.353331 -269.194072 
L 626.341519 -268.741616 
L 626.236864 -268.28916 
L 626.206139 -267.836704 
L 626.122997 -267.384248 
L 626.013809 -266.931792 
L 626.013792 -266.479336 
L 625.995475 -266.02688 
L 625.943419 -265.574424 
L 625.892914 -265.121968 
L 625.769281 -264.669512 
L 625.677744 -264.217056 
L 625.642469 -263.7646 
L 625.605059 -263.312144 
L 625.552546 -262.859688 
L 625.496418 -262.407232 
L 625.434546 -261.954776 
L 625.372079 -261.50232 
L 625.297225 -261.049864 
L 625.286593 -260.597408 
L 625.256364 -260.144953 
L 625.234462 -259.692497 
L 625.179542 -259.240041 
L 625.151936 -258.787585 
L 625.102143 -258.335129 
L 625.073863 -257.882673 
L 625.031441 -257.430217 
L 625.024293 -256.977761 
L 625.021238 -256.525305 
L 624.878547 -256.072849 
L 624.8225 -255.620393 
L 624.820206 -255.167937 
L 624.791156 -254.715481 
L 624.704635 -254.263025 
L 624.703594 -253.810569 
L 624.557781 -253.358113 
L 624.375022 -252.905657 
L 624.317791 -252.453201 
L 624.308732 -252.000745 
L 624.26824 -251.548289 
L 624.232175 -251.095833 
L 624.179827 -250.643377 
L 624.071563 -250.190921 
L 624.038865 -249.738465 
L 623.965941 -249.286009 
L 623.960757 -248.833553 
L 623.888726 -248.381097 
L 623.833666 -247.928641 
L 623.796302 -247.476185 
L 623.650083 -247.023729 
L 623.591467 -246.571273 
L 623.431413 -246.118817 
L 623.377585 -245.666361 
L 623.366943 -245.213905 
L 623.316066 -244.761449 
L 623.264152 -244.308993 
L 623.147964 -243.856537 
L 623.117869 -243.404081 
L 622.804301 -242.951625 
L 622.794872 -242.499169 
L 622.775633 -242.046713 
L 622.57314 -241.594257 
L 622.519863 -241.141801 
L 622.477402 -240.689345 
L 622.364338 -240.236889 
L 622.353162 -239.784433 
L 622.218285 -239.331977 
L 622.182845 -238.879521 
L 621.950764 -238.427065 
L 621.855398 -237.974609 
L 621.82504 -237.522153 
L 621.626548 -237.069697 
L 621.605923 -236.617241 
L 621.491989 -236.164785 
L 621.448193 -235.712329 
L 621.444191 -235.259873 
L 621.310948 -234.807417 
L 621.286409 -234.354961 
L 621.260654 -233.902505 
L 621.235097 -233.450049 
L 621.104293 -232.997593 
L 621.088042 -232.545137 
L 621.03641 -232.092681 
L 620.957721 -231.640225 
L 620.871328 -231.187769 
L 620.780148 -230.735313 
L 620.697302 -230.282857 
L 620.467981 -229.830401 
L 620.458498 -229.377945 
L 620.3998 -228.925489 
L 620.396411 -228.473033 
L 620.386262 -228.020577 
L 620.352698 -227.568121 
L 620.34258 -227.115665 
L 620.326663 -226.663209 
L 620.313781 -226.210753 
L 620.174166 -225.758297 
L 620.073551 -225.305841 
L 619.955192 -224.853385 
L 619.941429 -224.400929 
L 619.928487 -223.948473 
L 619.841454 -223.496017 
L 619.814781 -223.043561 
L 619.791749 -222.591105 
L 619.791746 -222.138649 
L 619.669482 -221.686193 
L 619.666255 -221.233737 
L 619.489275 -220.781281 
L 619.475744 -220.328825 
L 619.451032 -219.876369 
L 619.3642 -219.423913 
L 619.329358 -218.971457 
L 619.260225 -218.519001 
L 619.221042 -218.066545 
L 619.148881 -217.614089 
L 619.085853 -217.161633 
L 619.037876 -216.709177 
L 618.987054 -216.256721 
L 618.977478 -215.804265 
L 618.966961 -215.351809 
L 618.906924 -214.899353 
L 618.888639 -214.446897 
L 618.855801 -213.994441 
L 618.810063 -213.541985 
L 618.667827 -213.089529 
L 618.633955 -212.637073 
L 618.504708 -212.184617 
L 618.486038 -211.732161 
L 618.442789 -211.279705 
L 618.434905 -210.827249 
L 618.399593 -210.374793 
L 618.107554 -209.922337 
L 618.020772 -209.469881 
L 618.007336 -209.017425 
L 617.757158 -208.564969 
L 617.755644 -208.112513 
L 617.740522 -207.660057 
L 617.721648 -207.207601 
L 617.705416 -206.755145 
L 617.556131 -206.302689 
L 617.089179 -205.850233 
L 617.060912 -205.397777 
L 617.010254 -204.945321 
L 616.889059 -204.492865 
L 616.443029 -204.040409 
L 616.240407 -203.587953 
L 616.238912 -203.135497 
L 616.210286 -202.683041 
L 616.192931 -202.230585 
L 616.188327 -201.778129 
L 616.094018 -201.325673 
L 616.041554 -200.873217 
L 616.017686 -200.420761 
L 615.950534 -199.968305 
L 615.884576 -199.515849 
L 615.877655 -199.063393 
L 615.741647 -198.610937 
L 615.710376 -198.158481 
L 615.694083 -197.706025 
L 615.548944 -197.253569 
L 615.385565 -196.801113 
L 615.376974 -196.348657 
L 615.316155 -195.896201 
L 615.236984 -195.443745 
L 615.194394 -194.991289 
L 614.975485 -194.538833 
L 614.956084 -194.086377 
L 614.919128 -193.633921 
L 614.888957 -193.181465 
L 614.857143 -192.729009 
L 614.82129 -192.276553 
L 614.814756 -191.824097 
L 614.027666 -191.371641 
L 613.963968 -190.919185 
L 613.906598 -190.466729 
L 613.813822 -190.014273 
L 613.753649 -189.561817 
L 613.600145 -189.109361 
L 613.424812 -188.656905 
L 613.336448 -188.204449 
L 613.132472 -187.751993 
L 613.036244 -187.299537 
L 612.939784 -186.847081 
L 612.847001 -186.394625 
L 612.831877 -185.942169 
L 612.750311 -185.489713 
L 612.634016 -185.037257 
L 612.541459 -184.584801 
L 612.406921 -184.132345 
L 612.155409 -183.679889 
L 611.599165 -183.227433 
L 611.567563 -182.774977 
L 611.540128 -182.322521 
L 611.513258 -181.870065 
L 611.333285 -181.417609 
L 611.302463 -180.965153 
L 611.11924 -180.512697 
L 610.941099 -180.060241 
L 610.77363 -179.607785 
L 610.267683 -179.155329 
L 610.258569 -178.702873 
L 610.043723 -178.250417 
L 609.966248 -177.797961 
L 609.459344 -177.345505 
L 609.448432 -176.893049 
L 608.884241 -176.440593 
L 608.472299 -175.988137 
L 608.326947 -175.535681 
L 607.82019 -175.083225 
L 607.522617 -174.630769 
L 607.27765 -174.178313 
L 607.181195 -173.725857 
L 606.893062 -173.273401 
L 606.553285 -172.820945 
L 606.46491 -172.368489 
L 606.317494 -171.916033 
L 606.078348 -171.463577 
L 605.94433 -171.011121 
L 605.868388 -170.558665 
L 605.701601 -170.106209 
L 605.171133 -169.653753 
L 605.117552 -169.201297 
L 605.11491 -168.748841 
L 605.097101 -168.296385 
L 604.990943 -167.843929 
L 604.990473 -167.391473 
L 604.54262 -166.939017 
L 604.374742 -166.486561 
L 604.304218 -166.034105 
L 603.91873 -165.581649 
L 603.599607 -165.129193 
L 603.588973 -164.676737 
L 602.69751 -164.224281 
L 602.635227 -163.771825 
L 602.492276 -163.319369 
L 602.408 -162.866913 
L 602.085395 -162.414457 
L 601.844358 -161.962001 
L 601.746282 -161.509545 
L 601.002658 -161.057089 
L 600.736466 -160.604633 
L 600.704017 -160.152177 
L 600.562785 -159.699721 
L 600.489972 -159.247265 
L 600.435272 -158.794809 
L 599.794807 -158.342353 
L 599.443729 -157.889897 
L 599.116071 -157.437441 
L 597.706882 -156.984985 
L 596.756628 -156.532529 
L 596.055588 -156.080073 
L 595.683946 -155.627617 
L 595.514487 -155.175161 
L 595.281047 -154.722705 
L 595.122937 -154.270249 
L 594.327589 -153.817793 
L 593.926805 -153.365337 
L 592.904481 -152.912881 
L 592.745081 -152.460425 
L 592.736332 -152.007969 
L 591.804254 -151.555513 
L 591.123531 -151.103057 
L 591.011504 -150.650601 
L 590.899288 -150.198145 
L 590.429167 -149.745689 
L 589.879717 -149.293233 
L 587.073739 -148.840777 
L 586.259918 -148.388321 
L 584.723682 -147.935865 
L 582.578621 -147.483409 
L 581.530415 -147.030953 
L 579.893915 -146.578497 
L 578.198272 -146.126041 
L 577.767965 -145.673585 
L 577.46615 -145.221129 
L 573.098392 -144.768673 
L 572.780567 -144.316217 
L 570.621982 -143.863761 
L 560.347386 -143.411305 
z
" style="stroke: #00a4bb; stroke-opacity: 0.7"/>
    </defs>
    <g clip-path="url(#p784954f971)">
     <use xlink:href="#m4c9e1463ab" x="0" y="432" style="fill: #00a4bb; fill-opacity: 0.7; stroke: #00a4bb; stroke-opacity: 0.7"/>
    </g>
   </g>
   <g id="PolyCollection_7">
    <defs>
     <path id="m8fd3b73fe7" d="M 364.613281 -361.04264 
L 364.613281 -361.04264 
L 364.613281 -361.04264 
L 364.613281 -361.04264 
z
" style="stroke: #00aa88; stroke-opacity: 0.7"/>
    </defs>
    <g clip-path="url(#p784954f971)">
     <use xlink:href="#m8fd3b73fe7" x="0" y="432" style="fill: #00aa88; fill-opacity: 0.7; stroke: #00aa88; stroke-opacity: 0.7"/>
    </g>
   </g>
   <g id="PolyCollection_8">
    <defs>
     <path id="mda1513e0e8" d="M 368.042408 -366.019656 
L 364.613281 -366.019656 
L 364.613281 -366.472112 
L 364.613281 -366.924568 
L 364.613281 -367.377024 
L 420.225119 -367.377024 
L 420.225119 -367.377024 
L 416.514968 -366.924568 
L 398.299007 -366.472112 
L 368.042408 -366.019656 
z
" style="stroke: #00a400; stroke-opacity: 0.7"/>
    </defs>
    <g clip-path="url(#p784954f971)">
     <use xlink:href="#mda1513e0e8" x="0" y="432" style="fill: #00a400; fill-opacity: 0.7; stroke: #00a400; stroke-opacity: 0.7"/>
    </g>
   </g>
   <g id="PolyCollection_9">
    <defs>
     <path id="md65b629a9d" d="M 366.635562 -372.35404 
L 364.613281 -372.35404 
L 364.613281 -372.806496 
L 364.613281 -373.258952 
L 364.613281 -373.711408 
L 364.613281 -374.163864 
L 364.613281 -374.61632 
L 364.613281 -375.068776 
L 364.613281 -375.521232 
L 364.613281 -375.973688 
L 364.613281 -376.426144 
L 364.613281 -376.8786 
L 417.291573 -376.8786 
L 417.291573 -376.8786 
L 413.537831 -376.426144 
L 406.817314 -375.973688 
L 404.610242 -375.521232 
L 403.386619 -375.068776 
L 399.532565 -374.61632 
L 397.214082 -374.163864 
L 396.900563 -373.711408 
L 393.393894 -373.258952 
L 369.679469 -372.806496 
L 366.635562 -372.35404 
z
" style="stroke: #00d200; stroke-opacity: 0.7"/>
    </defs>
    <g clip-path="url(#p784954f971)">
     <use xlink:href="#md65b629a9d" x="0" y="432" style="fill: #00d200; fill-opacity: 0.7; stroke: #00d200; stroke-opacity: 0.7"/>
    </g>
   </g>
   <g id="PolyCollection_10">
    <defs>
     <path id="m02fd0ab217" d="M 364.613281 -381.855616 
L 364.613281 -381.855616 
L 364.613281 -381.855616 
L 364.613281 -381.855616 
z
" style="stroke: #00ff00; stroke-opacity: 0.7"/>
    </defs>
    <g clip-path="url(#p784954f971)">
     <use xlink:href="#m02fd0ab217" x="0" y="432" style="fill: #00ff00; fill-opacity: 0.7; stroke: #00ff00; stroke-opacity: 0.7"/>
    </g>
   </g>
   <g id="PolyCollection_11">
    <defs>
     <path id="md558262eec" d="M 340.904783 -386.832632 
L 364.613281 -386.832632 
L 364.613281 -387.285088 
L 364.613281 -387.737544 
L 364.613281 -388.19 
L 364.613281 -388.642456 
L 364.613281 -389.094912 
L 364.613281 -389.547368 
L 364.613281 -389.999824 
L 364.613281 -390.45228 
L 364.613281 -390.904736 
L 364.613281 -391.357192 
L 364.613281 -391.809648 
L 364.613281 -392.262104 
L 364.613281 -392.71456 
L 424.852831 -392.71456 
L 424.852831 -392.71456 
L 419.184227 -392.262104 
L 415.823685 -391.809648 
L 409.59006 -391.357192 
L 408.401808 -390.904736 
L 407.489047 -390.45228 
L 406.092366 -389.999824 
L 405.772241 -389.547368 
L 404.049886 -389.094912 
L 397.44802 -388.642456 
L 379.507194 -388.19 
L 377.01377 -387.737544 
L 372.497788 -387.285088 
L 340.904783 -386.832632 
z
" style="stroke: #ccf900; stroke-opacity: 0.7"/>
    </defs>
    <g clip-path="url(#p784954f971)">
     <use xlink:href="#md558262eec" x="0" y="432" style="fill: #ccf900; fill-opacity: 0.7; stroke: #ccf900; stroke-opacity: 0.7"/>
    </g>
   </g>
   <g id="PolyCollection_12">
    <defs>
     <path id="m14b809c58d" d="M 364.613281 -397.691576 
L 364.613281 -397.691576 
L 364.613281 -397.691576 
L 364.613281 -397.691576 
z
" style="stroke: #f9d700; stroke-opacity: 0.7"/>
    </defs>
    <g clip-path="url(#p784954f971)">
     <use xlink:href="#m14b809c58d" x="0" y="432" style="fill: #f9d700; fill-opacity: 0.7; stroke: #f9d700; stroke-opacity: 0.7"/>
    </g>
   </g>
   <g id="PolyCollection_13">
    <defs>
     <path id="m539ccf6628" d="M 364.613281 -402.668592 
L 364.613281 -402.668592 
L 364.613281 -402.668592 
L 364.613281 -402.668592 
z
" style="stroke: #ff9900; stroke-opacity: 0.7"/>
    </defs>
    <g clip-path="url(#p784954f971)">
     <use xlink:href="#m539ccf6628" x="0" y="432" style="fill: #ff9900; fill-opacity: 0.7; stroke: #ff9900; stroke-opacity: 0.7"/>
    </g>
   </g>
   <g id="PolyCollection_14">
    <defs>
     <path id="m159fea837f" d="M 364.613281 -407.645607 
L 364.613281 -407.645607 
L 364.613281 -407.645607 
L 364.613281 -407.645607 
z
" style="stroke: #f40000; stroke-opacity: 0.7"/>
    </defs>
    <g clip-path="url(#p784954f971)">
     <use xlink:href="#m159fea837f" x="0" y="432" style="fill: #f40000; fill-opacity: 0.7; stroke: #f40000; stroke-opacity: 0.7"/>
    </g>
   </g>
   <g id="PolyCollection_15">
    <defs>
     <path id="m1ff2bc9583" d="M 364.613281 -412.622623 
L 364.613281 -412.622623 
L 364.613281 -412.622623 
L 364.613281 -412.622623 
z
" style="stroke: #d20000; stroke-opacity: 0.7"/>
    </defs>
    <g clip-path="url(#p784954f971)">
     <use xlink:href="#m1ff2bc9583" x="0" y="432" style="fill: #d20000; fill-opacity: 0.7; stroke: #d20000; stroke-opacity: 0.7"/>
    </g>
   </g>
   <g id="matplotlib.axis_1">
    <g id="xtick_1">
     <g id="line2d_1">
      <defs>
       <path id="mfb11ab9351" d="M 0 0 
L 0 3.5 
" style="stroke: #000000; stroke-width: 0.8"/>
      </defs>
      <g>
       <use xlink:href="#mfb11ab9351" x="27.978125" y="390.84375" style="stroke: #000000; stroke-width: 0.8"/>
      </g>
     </g>
     <g id="text_1">
      <!-- −1.0 -->
      <g transform="translate(15.836719 405.442187) scale(0.1 -0.1)">
       <defs>
        <path id="DejaVuSans-2212" d="M 678 2272 
L 4684 2272 
L 4684 1741 
L 678 1741 
L 678 2272 
z
" transform="scale(0.015625)"/>
        <path id="DejaVuSans-31" d="M 794 531 
L 1825 531 
L 1825 4091 
L 703 3866 
L 703 4441 
L 1819 4666 
L 2450 4666 
L 2450 531 
L 3481 531 
L 3481 0 
L 794 0 
L 794 531 
z
" transform="scale(0.015625)"/>
        <path id="DejaVuSans-2e" d="M 684 794 
L 1344 794 
L 1344 0 
L 684 0 
L 684 794 
z
" transform="scale(0.015625)"/>
        <path id="DejaVuSans-30" d="M 2034 4250 
Q 1547 4250 1301 3770 
Q 1056 3291 1056 2328 
Q 1056 1369 1301 889 
Q 1547 409 2034 409 
Q 2525 409 2770 889 
Q 3016 1369 3016 2328 
Q 3016 3291 2770 3770 
Q 2525 4250 2034 4250 
z
M 2034 4750 
Q 2819 4750 3233 4129 
Q 3647 3509 3647 2328 
Q 3647 1150 3233 529 
Q 2819 -91 2034 -91 
Q 1250 -91 836 529 
Q 422 1150 422 2328 
Q 422 3509 836 4129 
Q 1250 4750 2034 4750 
z
" transform="scale(0.015625)"/>
       </defs>
       <use xlink:href="#DejaVuSans-2212"/>
       <use xlink:href="#DejaVuSans-31" x="83.789062"/>
       <use xlink:href="#DejaVuSans-2e" x="147.412109"/>
       <use xlink:href="#DejaVuSans-30" x="179.199219"/>
      </g>
     </g>
    </g>
    <g id="xtick_2">
     <g id="line2d_2">
      <g>
       <use xlink:href="#mfb11ab9351" x="95.305156" y="390.84375" style="stroke: #000000; stroke-width: 0.8"/>
      </g>
     </g>
     <g id="text_2">
      <!-- −0.8 -->
      <g transform="translate(83.16375 405.442187) scale(0.1 -0.1)">
       <defs>
        <path id="DejaVuSans-38" d="M 2034 2216 
Q 1584 2216 1326 1975 
Q 1069 1734 1069 1313 
Q 1069 891 1326 650 
Q 1584 409 2034 409 
Q 2484 409 2743 651 
Q 3003 894 3003 1313 
Q 3003 1734 2745 1975 
Q 2488 2216 2034 2216 
z
M 1403 2484 
Q 997 2584 770 2862 
Q 544 3141 544 3541 
Q 544 4100 942 4425 
Q 1341 4750 2034 4750 
Q 2731 4750 3128 4425 
Q 3525 4100 3525 3541 
Q 3525 3141 3298 2862 
Q 3072 2584 2669 2484 
Q 3125 2378 3379 2068 
Q 3634 1759 3634 1313 
Q 3634 634 3220 271 
Q 2806 -91 2034 -91 
Q 1263 -91 848 271 
Q 434 634 434 1313 
Q 434 1759 690 2068 
Q 947 2378 1403 2484 
z
M 1172 3481 
Q 1172 3119 1398 2916 
Q 1625 2713 2034 2713 
Q 2441 2713 2670 2916 
Q 2900 3119 2900 3481 
Q 2900 3844 2670 4047 
Q 2441 4250 2034 4250 
Q 1625 4250 1398 4047 
Q 1172 3844 1172 3481 
z
" transform="scale(0.015625)"/>
       </defs>
       <use xlink:href="#DejaVuSans-2212"/>
       <use xlink:href="#DejaVuSans-30" x="83.789062"/>
       <use xlink:href="#DejaVuSans-2e" x="147.412109"/>
       <use xlink:href="#DejaVuSans-38" x="179.199219"/>
      </g>
     </g>
    </g>
    <g id="xtick_3">
     <g id="line2d_3">
      <g>
       <use xlink:href="#mfb11ab9351" x="162.632188" y="390.84375" style="stroke: #000000; stroke-width: 0.8"/>
      </g>
     </g>
     <g id="text_3">
      <!-- −0.6 -->
      <g transform="translate(150.490781 405.442187) scale(0.1 -0.1)">
       <defs>
        <path id="DejaVuSans-36" d="M 2113 2584 
Q 1688 2584 1439 2293 
Q 1191 2003 1191 1497 
Q 1191 994 1439 701 
Q 1688 409 2113 409 
Q 2538 409 2786 701 
Q 3034 994 3034 1497 
Q 3034 2003 2786 2293 
Q 2538 2584 2113 2584 
z
M 3366 4563 
L 3366 3988 
Q 3128 4100 2886 4159 
Q 2644 4219 2406 4219 
Q 1781 4219 1451 3797 
Q 1122 3375 1075 2522 
Q 1259 2794 1537 2939 
Q 1816 3084 2150 3084 
Q 2853 3084 3261 2657 
Q 3669 2231 3669 1497 
Q 3669 778 3244 343 
Q 2819 -91 2113 -91 
Q 1303 -91 875 529 
Q 447 1150 447 2328 
Q 447 3434 972 4092 
Q 1497 4750 2381 4750 
Q 2619 4750 2861 4703 
Q 3103 4656 3366 4563 
z
" transform="scale(0.015625)"/>
       </defs>
       <use xlink:href="#DejaVuSans-2212"/>
       <use xlink:href="#DejaVuSans-30" x="83.789062"/>
       <use xlink:href="#DejaVuSans-2e" x="147.412109"/>
       <use xlink:href="#DejaVuSans-36" x="179.199219"/>
      </g>
     </g>
    </g>
    <g id="xtick_4">
     <g id="line2d_4">
      <g>
       <use xlink:href="#mfb11ab9351" x="229.959219" y="390.84375" style="stroke: #000000; stroke-width: 0.8"/>
      </g>
     </g>
     <g id="text_4">
      <!-- −0.4 -->
      <g transform="translate(217.817813 405.442187) scale(0.1 -0.1)">
       <defs>
        <path id="DejaVuSans-34" d="M 2419 4116 
L 825 1625 
L 2419 1625 
L 2419 4116 
z
M 2253 4666 
L 3047 4666 
L 3047 1625 
L 3713 1625 
L 3713 1100 
L 3047 1100 
L 3047 0 
L 2419 0 
L 2419 1100 
L 313 1100 
L 313 1709 
L 2253 4666 
z
" transform="scale(0.015625)"/>
       </defs>
       <use xlink:href="#DejaVuSans-2212"/>
       <use xlink:href="#DejaVuSans-30" x="83.789062"/>
       <use xlink:href="#DejaVuSans-2e" x="147.412109"/>
       <use xlink:href="#DejaVuSans-34" x="179.199219"/>
      </g>
     </g>
    </g>
    <g id="xtick_5">
     <g id="line2d_5">
      <g>
       <use xlink:href="#mfb11ab9351" x="297.28625" y="390.84375" style="stroke: #000000; stroke-width: 0.8"/>
      </g>
     </g>
     <g id="text_5">
      <!-- −0.2 -->
      <g transform="translate(285.144844 405.442187) scale(0.1 -0.1)">
       <defs>
        <path id="DejaVuSans-32" d="M 1228 531 
L 3431 531 
L 3431 0 
L 469 0 
L 469 531 
Q 828 903 1448 1529 
Q 2069 2156 2228 2338 
Q 2531 2678 2651 2914 
Q 2772 3150 2772 3378 
Q 2772 3750 2511 3984 
Q 2250 4219 1831 4219 
Q 1534 4219 1204 4116 
Q 875 4013 500 3803 
L 500 4441 
Q 881 4594 1212 4672 
Q 1544 4750 1819 4750 
Q 2544 4750 2975 4387 
Q 3406 4025 3406 3419 
Q 3406 3131 3298 2873 
Q 3191 2616 2906 2266 
Q 2828 2175 2409 1742 
Q 1991 1309 1228 531 
z
" transform="scale(0.015625)"/>
       </defs>
       <use xlink:href="#DejaVuSans-2212"/>
       <use xlink:href="#DejaVuSans-30" x="83.789062"/>
       <use xlink:href="#DejaVuSans-2e" x="147.412109"/>
       <use xlink:href="#DejaVuSans-32" x="179.199219"/>
      </g>
     </g>
    </g>
    <g id="xtick_6">
     <g id="line2d_6">
      <g>
       <use xlink:href="#mfb11ab9351" x="364.613281" y="390.84375" style="stroke: #000000; stroke-width: 0.8"/>
      </g>
     </g>
     <g id="text_6">
      <!-- 0.0 -->
      <g transform="translate(356.661719 405.442187) scale(0.1 -0.1)">
       <use xlink:href="#DejaVuSans-30"/>
       <use xlink:href="#DejaVuSans-2e" x="63.623047"/>
       <use xlink:href="#DejaVuSans-30" x="95.410156"/>
      </g>
     </g>
    </g>
    <g id="xtick_7">
     <g id="line2d_7">
      <g>
       <use xlink:href="#mfb11ab9351" x="431.940313" y="390.84375" style="stroke: #000000; stroke-width: 0.8"/>
      </g>
     </g>
     <g id="text_7">
      <!-- 0.2 -->
      <g transform="translate(423.98875 405.442187) scale(0.1 -0.1)">
       <use xlink:href="#DejaVuSans-30"/>
       <use xlink:href="#DejaVuSans-2e" x="63.623047"/>
       <use xlink:href="#DejaVuSans-32" x="95.410156"/>
      </g>
     </g>
    </g>
    <g id="xtick_8">
     <g id="line2d_8">
      <g>
       <use xlink:href="#mfb11ab9351" x="499.267344" y="390.84375" style="stroke: #000000; stroke-width: 0.8"/>
      </g>
     </g>
     <g id="text_8">
      <!-- 0.4 -->
      <g transform="translate(491.315781 405.442187) scale(0.1 -0.1)">
       <use xlink:href="#DejaVuSans-30"/>
       <use xlink:href="#DejaVuSans-2e" x="63.623047"/>
       <use xlink:href="#DejaVuSans-34" x="95.410156"/>
      </g>
     </g>
    </g>
    <g id="xtick_9">
     <g id="line2d_9">
      <g>
       <use xlink:href="#mfb11ab9351" x="566.594375" y="390.84375" style="stroke: #000000; stroke-width: 0.8"/>
      </g>
     </g>
     <g id="text_9">
      <!-- 0.6 -->
      <g transform="translate(558.642812 405.442187) scale(0.1 -0.1)">
       <use xlink:href="#DejaVuSans-30"/>
       <use xlink:href="#DejaVuSans-2e" x="63.623047"/>
       <use xlink:href="#DejaVuSans-36" x="95.410156"/>
      </g>
     </g>
    </g>
    <g id="xtick_10">
     <g id="line2d_10">
      <g>
       <use xlink:href="#mfb11ab9351" x="633.921406" y="390.84375" style="stroke: #000000; stroke-width: 0.8"/>
      </g>
     </g>
     <g id="text_10">
      <!-- 0.8 -->
      <g transform="translate(625.969844 405.442187) scale(0.1 -0.1)">
       <use xlink:href="#DejaVuSans-30"/>
       <use xlink:href="#DejaVuSans-2e" x="63.623047"/>
       <use xlink:href="#DejaVuSans-38" x="95.410156"/>
      </g>
     </g>
    </g>
    <g id="xtick_11">
     <g id="line2d_11">
      <g>
       <use xlink:href="#mfb11ab9351" x="701.248437" y="390.84375" style="stroke: #000000; stroke-width: 0.8"/>
      </g>
     </g>
     <g id="text_11">
      <!-- 1.0 -->
      <g transform="translate(693.296875 405.442187) scale(0.1 -0.1)">
       <use xlink:href="#DejaVuSans-31"/>
       <use xlink:href="#DejaVuSans-2e" x="63.623047"/>
       <use xlink:href="#DejaVuSans-30" x="95.410156"/>
      </g>
     </g>
    </g>
    <g id="text_12">
     <!-- Silhouette coefficient -->
     <g transform="translate(311.463281 419.120313) scale(0.1 -0.1)">
      <defs>
       <path id="DejaVuSans-53" d="M 3425 4513 
L 3425 3897 
Q 3066 4069 2747 4153 
Q 2428 4238 2131 4238 
Q 1616 4238 1336 4038 
Q 1056 3838 1056 3469 
Q 1056 3159 1242 3001 
Q 1428 2844 1947 2747 
L 2328 2669 
Q 3034 2534 3370 2195 
Q 3706 1856 3706 1288 
Q 3706 609 3251 259 
Q 2797 -91 1919 -91 
Q 1588 -91 1214 -16 
Q 841 59 441 206 
L 441 856 
Q 825 641 1194 531 
Q 1563 422 1919 422 
Q 2459 422 2753 634 
Q 3047 847 3047 1241 
Q 3047 1584 2836 1778 
Q 2625 1972 2144 2069 
L 1759 2144 
Q 1053 2284 737 2584 
Q 422 2884 422 3419 
Q 422 4038 858 4394 
Q 1294 4750 2059 4750 
Q 2388 4750 2728 4690 
Q 3069 4631 3425 4513 
z
" transform="scale(0.015625)"/>
       <path id="DejaVuSans-69" d="M 603 3500 
L 1178 3500 
L 1178 0 
L 603 0 
L 603 3500 
z
M 603 4863 
L 1178 4863 
L 1178 4134 
L 603 4134 
L 603 4863 
z
" transform="scale(0.015625)"/>
       <path id="DejaVuSans-6c" d="M 603 4863 
L 1178 4863 
L 1178 0 
L 603 0 
L 603 4863 
z
" transform="scale(0.015625)"/>
       <path id="DejaVuSans-68" d="M 3513 2113 
L 3513 0 
L 2938 0 
L 2938 2094 
Q 2938 2591 2744 2837 
Q 2550 3084 2163 3084 
Q 1697 3084 1428 2787 
Q 1159 2491 1159 1978 
L 1159 0 
L 581 0 
L 581 4863 
L 1159 4863 
L 1159 2956 
Q 1366 3272 1645 3428 
Q 1925 3584 2291 3584 
Q 2894 3584 3203 3211 
Q 3513 2838 3513 2113 
z
" transform="scale(0.015625)"/>
       <path id="DejaVuSans-6f" d="M 1959 3097 
Q 1497 3097 1228 2736 
Q 959 2375 959 1747 
Q 959 1119 1226 758 
Q 1494 397 1959 397 
Q 2419 397 2687 759 
Q 2956 1122 2956 1747 
Q 2956 2369 2687 2733 
Q 2419 3097 1959 3097 
z
M 1959 3584 
Q 2709 3584 3137 3096 
Q 3566 2609 3566 1747 
Q 3566 888 3137 398 
Q 2709 -91 1959 -91 
Q 1206 -91 779 398 
Q 353 888 353 1747 
Q 353 2609 779 3096 
Q 1206 3584 1959 3584 
z
" transform="scale(0.015625)"/>
       <path id="DejaVuSans-75" d="M 544 1381 
L 544 3500 
L 1119 3500 
L 1119 1403 
Q 1119 906 1312 657 
Q 1506 409 1894 409 
Q 2359 409 2629 706 
Q 2900 1003 2900 1516 
L 2900 3500 
L 3475 3500 
L 3475 0 
L 2900 0 
L 2900 538 
Q 2691 219 2414 64 
Q 2138 -91 1772 -91 
Q 1169 -91 856 284 
Q 544 659 544 1381 
z
M 1991 3584 
L 1991 3584 
z
" transform="scale(0.015625)"/>
       <path id="DejaVuSans-65" d="M 3597 1894 
L 3597 1613 
L 953 1613 
Q 991 1019 1311 708 
Q 1631 397 2203 397 
Q 2534 397 2845 478 
Q 3156 559 3463 722 
L 3463 178 
Q 3153 47 2828 -22 
Q 2503 -91 2169 -91 
Q 1331 -91 842 396 
Q 353 884 353 1716 
Q 353 2575 817 3079 
Q 1281 3584 2069 3584 
Q 2775 3584 3186 3129 
Q 3597 2675 3597 1894 
z
M 3022 2063 
Q 3016 2534 2758 2815 
Q 2500 3097 2075 3097 
Q 1594 3097 1305 2825 
Q 1016 2553 972 2059 
L 3022 2063 
z
" transform="scale(0.015625)"/>
       <path id="DejaVuSans-74" d="M 1172 4494 
L 1172 3500 
L 2356 3500 
L 2356 3053 
L 1172 3053 
L 1172 1153 
Q 1172 725 1289 603 
Q 1406 481 1766 481 
L 2356 481 
L 2356 0 
L 1766 0 
Q 1100 0 847 248 
Q 594 497 594 1153 
L 594 3053 
L 172 3053 
L 172 3500 
L 594 3500 
L 594 4494 
L 1172 4494 
z
" transform="scale(0.015625)"/>
       <path id="DejaVuSans-20" transform="scale(0.015625)"/>
       <path id="DejaVuSans-63" d="M 3122 3366 
L 3122 2828 
Q 2878 2963 2633 3030 
Q 2388 3097 2138 3097 
Q 1578 3097 1268 2742 
Q 959 2388 959 1747 
Q 959 1106 1268 751 
Q 1578 397 2138 397 
Q 2388 397 2633 464 
Q 2878 531 3122 666 
L 3122 134 
Q 2881 22 2623 -34 
Q 2366 -91 2075 -91 
Q 1284 -91 818 406 
Q 353 903 353 1747 
Q 353 2603 823 3093 
Q 1294 3584 2113 3584 
Q 2378 3584 2631 3529 
Q 2884 3475 3122 3366 
z
" transform="scale(0.015625)"/>
       <path id="DejaVuSans-66" d="M 2375 4863 
L 2375 4384 
L 1825 4384 
Q 1516 4384 1395 4259 
Q 1275 4134 1275 3809 
L 1275 3500 
L 2222 3500 
L 2222 3053 
L 1275 3053 
L 1275 0 
L 697 0 
L 697 3053 
L 147 3053 
L 147 3500 
L 697 3500 
L 697 3744 
Q 697 4328 969 4595 
Q 1241 4863 1831 4863 
L 2375 4863 
z
" transform="scale(0.015625)"/>
       <path id="DejaVuSans-6e" d="M 3513 2113 
L 3513 0 
L 2938 0 
L 2938 2094 
Q 2938 2591 2744 2837 
Q 2550 3084 2163 3084 
Q 1697 3084 1428 2787 
Q 1159 2491 1159 1978 
L 1159 0 
L 581 0 
L 581 3500 
L 1159 3500 
L 1159 2956 
Q 1366 3272 1645 3428 
Q 1925 3584 2291 3584 
Q 2894 3584 3203 3211 
Q 3513 2838 3513 2113 
z
" transform="scale(0.015625)"/>
      </defs>
      <use xlink:href="#DejaVuSans-53"/>
      <use xlink:href="#DejaVuSans-69" x="63.476562"/>
      <use xlink:href="#DejaVuSans-6c" x="91.259766"/>
      <use xlink:href="#DejaVuSans-68" x="119.042969"/>
      <use xlink:href="#DejaVuSans-6f" x="182.421875"/>
      <use xlink:href="#DejaVuSans-75" x="243.603516"/>
      <use xlink:href="#DejaVuSans-65" x="306.982422"/>
      <use xlink:href="#DejaVuSans-74" x="368.505859"/>
      <use xlink:href="#DejaVuSans-74" x="407.714844"/>
      <use xlink:href="#DejaVuSans-65" x="446.923828"/>
      <use xlink:href="#DejaVuSans-20" x="508.447266"/>
      <use xlink:href="#DejaVuSans-63" x="540.234375"/>
      <use xlink:href="#DejaVuSans-6f" x="595.214844"/>
      <use xlink:href="#DejaVuSans-65" x="656.396484"/>
      <use xlink:href="#DejaVuSans-66" x="717.919922"/>
      <use xlink:href="#DejaVuSans-66" x="753.125"/>
      <use xlink:href="#DejaVuSans-69" x="788.330078"/>
      <use xlink:href="#DejaVuSans-63" x="816.113281"/>
      <use xlink:href="#DejaVuSans-69" x="871.09375"/>
      <use xlink:href="#DejaVuSans-65" x="898.876953"/>
      <use xlink:href="#DejaVuSans-6e" x="960.400391"/>
      <use xlink:href="#DejaVuSans-74" x="1023.779297"/>
     </g>
    </g>
   </g>
   <g id="matplotlib.axis_2">
    <g id="text_13">
     <!-- Predicted label -->
     <g transform="translate(18.398438 239.774399) rotate(-90) scale(0.1 -0.1)">
      <defs>
       <path id="DejaVuSans-50" d="M 1259 4147 
L 1259 2394 
L 2053 2394 
Q 2494 2394 2734 2622 
Q 2975 2850 2975 3272 
Q 2975 3691 2734 3919 
Q 2494 4147 2053 4147 
L 1259 4147 
z
M 628 4666 
L 2053 4666 
Q 2838 4666 3239 4311 
Q 3641 3956 3641 3272 
Q 3641 2581 3239 2228 
Q 2838 1875 2053 1875 
L 1259 1875 
L 1259 0 
L 628 0 
L 628 4666 
z
" transform="scale(0.015625)"/>
       <path id="DejaVuSans-72" d="M 2631 2963 
Q 2534 3019 2420 3045 
Q 2306 3072 2169 3072 
Q 1681 3072 1420 2755 
Q 1159 2438 1159 1844 
L 1159 0 
L 581 0 
L 581 3500 
L 1159 3500 
L 1159 2956 
Q 1341 3275 1631 3429 
Q 1922 3584 2338 3584 
Q 2397 3584 2469 3576 
Q 2541 3569 2628 3553 
L 2631 2963 
z
" transform="scale(0.015625)"/>
       <path id="DejaVuSans-64" d="M 2906 2969 
L 2906 4863 
L 3481 4863 
L 3481 0 
L 2906 0 
L 2906 525 
Q 2725 213 2448 61 
Q 2172 -91 1784 -91 
Q 1150 -91 751 415 
Q 353 922 353 1747 
Q 353 2572 751 3078 
Q 1150 3584 1784 3584 
Q 2172 3584 2448 3432 
Q 2725 3281 2906 2969 
z
M 947 1747 
Q 947 1113 1208 752 
Q 1469 391 1925 391 
Q 2381 391 2643 752 
Q 2906 1113 2906 1747 
Q 2906 2381 2643 2742 
Q 2381 3103 1925 3103 
Q 1469 3103 1208 2742 
Q 947 2381 947 1747 
z
" transform="scale(0.015625)"/>
       <path id="DejaVuSans-61" d="M 2194 1759 
Q 1497 1759 1228 1600 
Q 959 1441 959 1056 
Q 959 750 1161 570 
Q 1363 391 1709 391 
Q 2188 391 2477 730 
Q 2766 1069 2766 1631 
L 2766 1759 
L 2194 1759 
z
M 3341 1997 
L 3341 0 
L 2766 0 
L 2766 531 
Q 2569 213 2275 61 
Q 1981 -91 1556 -91 
Q 1019 -91 701 211 
Q 384 513 384 1019 
Q 384 1609 779 1909 
Q 1175 2209 1959 2209 
L 2766 2209 
L 2766 2266 
Q 2766 2663 2505 2880 
Q 2244 3097 1772 3097 
Q 1472 3097 1187 3025 
Q 903 2953 641 2809 
L 641 3341 
Q 956 3463 1253 3523 
Q 1550 3584 1831 3584 
Q 2591 3584 2966 3190 
Q 3341 2797 3341 1997 
z
" transform="scale(0.015625)"/>
       <path id="DejaVuSans-62" d="M 3116 1747 
Q 3116 2381 2855 2742 
Q 2594 3103 2138 3103 
Q 1681 3103 1420 2742 
Q 1159 2381 1159 1747 
Q 1159 1113 1420 752 
Q 1681 391 2138 391 
Q 2594 391 2855 752 
Q 3116 1113 3116 1747 
z
M 1159 2969 
Q 1341 3281 1617 3432 
Q 1894 3584 2278 3584 
Q 2916 3584 3314 3078 
Q 3713 2572 3713 1747 
Q 3713 922 3314 415 
Q 2916 -91 2278 -91 
Q 1894 -91 1617 61 
Q 1341 213 1159 525 
L 1159 0 
L 581 0 
L 581 4863 
L 1159 4863 
L 1159 2969 
z
" transform="scale(0.015625)"/>
      </defs>
      <use xlink:href="#DejaVuSans-50"/>
      <use xlink:href="#DejaVuSans-72" x="58.552734"/>
      <use xlink:href="#DejaVuSans-65" x="97.416016"/>
      <use xlink:href="#DejaVuSans-64" x="158.939453"/>
      <use xlink:href="#DejaVuSans-69" x="222.416016"/>
      <use xlink:href="#DejaVuSans-63" x="250.199219"/>
      <use xlink:href="#DejaVuSans-74" x="305.179688"/>
      <use xlink:href="#DejaVuSans-65" x="344.388672"/>
      <use xlink:href="#DejaVuSans-64" x="405.912109"/>
      <use xlink:href="#DejaVuSans-20" x="469.388672"/>
      <use xlink:href="#DejaVuSans-6c" x="501.175781"/>
      <use xlink:href="#DejaVuSans-61" x="528.958984"/>
      <use xlink:href="#DejaVuSans-62" x="590.238281"/>
      <use xlink:href="#DejaVuSans-65" x="653.714844"/>
      <use xlink:href="#DejaVuSans-6c" x="715.238281"/>
     </g>
    </g>
   </g>
   <g id="line2d_12">
    <path d="M 556.441398 390.84375 
L 556.441398 14.400361 
" clip-path="url(#p784954f971)" style="fill: none; stroke: #ff0000; stroke-width: 1.5; stroke-linecap: square"/>
   </g>
   <g id="patch_3">
    <path d="M 27.978125 390.84375 
L 27.978125 14.400361 
" style="fill: none; stroke: #000000; stroke-width: 0.8; stroke-linejoin: miter; stroke-linecap: square"/>
   </g>
   <g id="patch_4">
    <path d="M 701.248437 390.84375 
L 701.248437 14.400361 
" style="fill: none; stroke: #000000; stroke-width: 0.8; stroke-linejoin: miter; stroke-linecap: square"/>
   </g>
   <g id="patch_5">
    <path d="M 27.978125 390.84375 
L 701.248437 390.84375 
" style="fill: none; stroke: #000000; stroke-width: 0.8; stroke-linejoin: miter; stroke-linecap: square"/>
   </g>
   <g id="patch_6">
    <path d="M 27.978125 14.400361 
L 701.248437 14.400361 
" style="fill: none; stroke: #000000; stroke-width: 0.8; stroke-linejoin: miter; stroke-linecap: square"/>
   </g>
   <g id="text_14">
    <!-- 0 -->
    <g transform="translate(347.781523 355.325954) scale(0.1 -0.1)">
     <use xlink:href="#DejaVuSans-30"/>
    </g>
   </g>
   <g id="text_15">
    <!-- 1 -->
    <g transform="translate(347.781523 318.903246) scale(0.1 -0.1)">
     <use xlink:href="#DejaVuSans-31"/>
    </g>
   </g>
   <g id="text_16">
    <!-- 2 -->
    <g transform="translate(347.781523 313.021319) scale(0.1 -0.1)">
     <use xlink:href="#DejaVuSans-32"/>
    </g>
   </g>
   <g id="text_17">
    <!-- 3 -->
    <g transform="translate(347.781523 307.139391) scale(0.1 -0.1)">
     <defs>
      <path id="DejaVuSans-33" d="M 2597 2516 
Q 3050 2419 3304 2112 
Q 3559 1806 3559 1356 
Q 3559 666 3084 287 
Q 2609 -91 1734 -91 
Q 1441 -91 1130 -33 
Q 819 25 488 141 
L 488 750 
Q 750 597 1062 519 
Q 1375 441 1716 441 
Q 2309 441 2620 675 
Q 2931 909 2931 1356 
Q 2931 1769 2642 2001 
Q 2353 2234 1838 2234 
L 1294 2234 
L 1294 2753 
L 1863 2753 
Q 2328 2753 2575 2939 
Q 2822 3125 2822 3475 
Q 2822 3834 2567 4026 
Q 2313 4219 1838 4219 
Q 1578 4219 1281 4162 
Q 984 4106 628 3988 
L 628 4550 
Q 988 4650 1302 4700 
Q 1616 4750 1894 4750 
Q 2613 4750 3031 4423 
Q 3450 4097 3450 3541 
Q 3450 3153 3228 2886 
Q 3006 2619 2597 2516 
z
" transform="scale(0.015625)"/>
     </defs>
     <use xlink:href="#DejaVuSans-33"/>
    </g>
   </g>
   <g id="text_18">
    <!-- 4 -->
    <g transform="translate(347.781523 297.411587) scale(0.1 -0.1)">
     <use xlink:href="#DejaVuSans-34"/>
    </g>
   </g>
   <g id="text_19">
    <!-- 5 -->
    <g transform="translate(347.781523 182.035307) scale(0.1 -0.1)">
     <defs>
      <path id="DejaVuSans-35" d="M 691 4666 
L 3169 4666 
L 3169 4134 
L 1269 4134 
L 1269 2991 
Q 1406 3038 1543 3061 
Q 1681 3084 1819 3084 
Q 2600 3084 3056 2656 
Q 3513 2228 3513 1497 
Q 3513 744 3044 326 
Q 2575 -91 1722 -91 
Q 1428 -91 1123 -41 
Q 819 9 494 109 
L 494 744 
Q 775 591 1075 516 
Q 1375 441 1709 441 
Q 2250 441 2565 725 
Q 2881 1009 2881 1497 
Q 2881 1984 2565 2268 
Q 2250 2553 1709 2553 
Q 1456 2553 1204 2497 
Q 953 2441 691 2322 
L 691 4666 
z
" transform="scale(0.015625)"/>
     </defs>
     <use xlink:href="#DejaVuSans-35"/>
    </g>
   </g>
   <g id="text_20">
    <!-- 6 -->
    <g transform="translate(347.781523 70.731132) scale(0.1 -0.1)">
     <use xlink:href="#DejaVuSans-36"/>
    </g>
   </g>
   <g id="text_21">
    <!-- 7 -->
    <g transform="translate(347.781523 65.075432) scale(0.1 -0.1)">
     <defs>
      <path id="DejaVuSans-37" d="M 525 4666 
L 3525 4666 
L 3525 4397 
L 1831 0 
L 1172 0 
L 2766 4134 
L 525 4134 
L 525 4666 
z
" transform="scale(0.015625)"/>
     </defs>
     <use xlink:href="#DejaVuSans-37"/>
    </g>
   </g>
   <g id="text_22">
    <!-- 8 -->
    <g transform="translate(347.781523 57.157452) scale(0.1 -0.1)">
     <use xlink:href="#DejaVuSans-38"/>
    </g>
   </g>
   <g id="text_23">
    <!-- 9 -->
    <g transform="translate(347.781523 49.918156) scale(0.1 -0.1)">
     <defs>
      <path id="DejaVuSans-39" d="M 703 97 
L 703 672 
Q 941 559 1184 500 
Q 1428 441 1663 441 
Q 2288 441 2617 861 
Q 2947 1281 2994 2138 
Q 2813 1869 2534 1725 
Q 2256 1581 1919 1581 
Q 1219 1581 811 2004 
Q 403 2428 403 3163 
Q 403 3881 828 4315 
Q 1253 4750 1959 4750 
Q 2769 4750 3195 4129 
Q 3622 3509 3622 2328 
Q 3622 1225 3098 567 
Q 2575 -91 1691 -91 
Q 1453 -91 1209 -44 
Q 966 3 703 97 
z
M 1959 2075 
Q 2384 2075 2632 2365 
Q 2881 2656 2881 3163 
Q 2881 3666 2632 3958 
Q 2384 4250 1959 4250 
Q 1534 4250 1286 3958 
Q 1038 3666 1038 3163 
Q 1038 2656 1286 2365 
Q 1534 2075 1959 2075 
z
" transform="scale(0.015625)"/>
     </defs>
     <use xlink:href="#DejaVuSans-39"/>
    </g>
   </g>
   <g id="text_24">
    <!-- 10 -->
    <g transform="translate(347.781523 42.000176) scale(0.1 -0.1)">
     <use xlink:href="#DejaVuSans-31"/>
     <use xlink:href="#DejaVuSans-30" x="63.623047"/>
    </g>
   </g>
   <g id="text_25">
    <!-- 11 -->
    <g transform="translate(347.781523 34.082196) scale(0.1 -0.1)">
     <use xlink:href="#DejaVuSans-31"/>
     <use xlink:href="#DejaVuSans-31" x="63.623047"/>
    </g>
   </g>
   <g id="text_26">
    <!-- 12 -->
    <g transform="translate(347.781523 29.10518) scale(0.1 -0.1)">
     <use xlink:href="#DejaVuSans-31"/>
     <use xlink:href="#DejaVuSans-32" x="63.623047"/>
    </g>
   </g>
   <g id="text_27">
    <!-- 13 -->
    <g transform="translate(347.781523 24.128165) scale(0.1 -0.1)">
     <use xlink:href="#DejaVuSans-31"/>
     <use xlink:href="#DejaVuSans-33" x="63.623047"/>
    </g>
   </g>
   <g id="text_28">
    <!-- 14 -->
    <g transform="translate(347.781523 19.151149) scale(0.1 -0.1)">
     <use xlink:href="#DejaVuSans-31"/>
     <use xlink:href="#DejaVuSans-34" x="63.623047"/>
    </g>
   </g>
   <g id="text_29">
    <!-- 0.5698 -->
    <g style="fill: #ff0000" transform="translate(573.273156 18.924921) scale(0.1 -0.1)">
     <use xlink:href="#DejaVuSans-30"/>
     <use xlink:href="#DejaVuSans-2e" x="63.623047"/>
     <use xlink:href="#DejaVuSans-35" x="95.410156"/>
     <use xlink:href="#DejaVuSans-36" x="159.033203"/>
     <use xlink:href="#DejaVuSans-39" x="222.65625"/>
     <use xlink:href="#DejaVuSans-38" x="286.279297"/>
    </g>
   </g>
  </g>
 </g>
 <defs>
  <clipPath id="p784954f971">
   <rect x="27.978125" y="14.400361" width="673.270312" height="376.443389"/>
  </clipPath>
 </defs>
</svg>
