<?xml version="1.0" encoding="utf-8" standalone="no"?>
<!DOCTYPE svg PUBLIC "-//W3C//DTD SVG 1.1//EN"
  "http://www.w3.org/Graphics/SVG/1.1/DTD/svg11.dtd">
<svg xmlns:xlink="http://www.w3.org/1999/xlink" width="720pt" height="432pt" viewBox="0 0 720 432" xmlns="http://www.w3.org/2000/svg" version="1.1">
 <metadata>
  <rdf:RDF xmlns:dc="http://purl.org/dc/elements/1.1/" xmlns:cc="http://creativecommons.org/ns#" xmlns:rdf="http://www.w3.org/1999/02/22-rdf-syntax-ns#">
   <cc:Work>
    <dc:type rdf:resource="http://purl.org/dc/dcmitype/StillImage"/>
    <dc:date>2022-11-04T12:59:53.211885</dc:date>
    <dc:format>image/svg+xml</dc:format>
    <dc:creator>
     <cc:Agent>
      <dc:title>Matplotlib v3.6.1, https://matplotlib.org/</dc:title>
     </cc:Agent>
    </dc:creator>
   </cc:Work>
  </rdf:RDF>
 </metadata>
 <defs>
  <style type="text/css">*{stroke-linejoin: round; stroke-linecap: butt}</style>
 </defs>
 <g id="figure_1">
  <g id="patch_1">
   <path d="M 0 432 
L 720 432 
L 720 0 
L 0 0 
z
" style="fill: #ffffff"/>
  </g>
  <g id="axes_1">
   <g id="patch_2">
    <path d="M 27.978125 390.84375 
L 701.248437 390.84375 
L 701.248437 13.659976 
L 27.978125 13.659976 
z
" style="fill: #ffffff"/>
   </g>
   <g id="PolyCollection_1">
    <defs>
     <path id="m8d600d1ec9" d="M 405.194821 -46.529238 
L 364.613281 -46.529238 
L 364.613281 -47.066537 
L 364.613281 -47.603836 
L 364.613281 -48.141135 
L 364.613281 -48.678434 
L 364.613281 -49.215732 
L 364.613281 -49.753031 
L 364.613281 -50.29033 
L 364.613281 -50.827629 
L 364.613281 -51.364928 
L 364.613281 -51.902226 
L 364.613281 -52.439525 
L 364.613281 -52.976824 
L 364.613281 -53.514123 
L 364.613281 -54.051422 
L 364.613281 -54.588721 
L 364.613281 -55.126019 
L 364.613281 -55.663318 
L 364.613281 -56.200617 
L 364.613281 -56.737916 
L 364.613281 -57.275215 
L 364.613281 -57.812514 
L 364.613281 -58.349812 
L 364.613281 -58.887111 
L 364.613281 -59.42441 
L 364.613281 -59.961709 
L 364.613281 -60.499008 
L 364.613281 -61.036306 
L 364.613281 -61.573605 
L 364.613281 -62.110904 
L 364.613281 -62.648203 
L 364.613281 -63.185502 
L 364.613281 -63.722801 
L 364.613281 -64.260099 
L 364.613281 -64.797398 
L 364.613281 -65.334697 
L 364.613281 -65.871996 
L 364.613281 -66.409295 
L 364.613281 -66.946594 
L 364.613281 -67.483892 
L 364.613281 -68.021191 
L 364.613281 -68.55849 
L 364.613281 -69.095789 
L 364.613281 -69.633088 
L 364.613281 -70.170386 
L 364.613281 -70.707685 
L 364.613281 -71.244984 
L 364.613281 -71.782283 
L 364.613281 -72.319582 
L 364.613281 -72.856881 
L 364.613281 -73.394179 
L 364.613281 -73.931478 
L 364.613281 -74.468777 
L 364.613281 -75.006076 
L 364.613281 -75.543375 
L 364.613281 -76.080674 
L 364.613281 -76.617972 
L 364.613281 -77.155271 
L 364.613281 -77.69257 
L 364.613281 -78.229869 
L 364.613281 -78.767168 
L 364.613281 -79.304466 
L 364.613281 -79.841765 
L 364.613281 -80.379064 
L 364.613281 -80.916363 
L 364.613281 -81.453662 
L 364.613281 -81.990961 
L 364.613281 -82.528259 
L 364.613281 -83.065558 
L 364.613281 -83.602857 
L 364.613281 -84.140156 
L 364.613281 -84.677455 
L 364.613281 -85.214754 
L 364.613281 -85.752052 
L 364.613281 -86.289351 
L 364.613281 -86.82665 
L 364.613281 -87.363949 
L 364.613281 -87.901248 
L 364.613281 -88.438546 
L 364.613281 -88.975845 
L 364.613281 -89.513144 
L 364.613281 -90.050443 
L 364.613281 -90.587742 
L 364.613281 -91.125041 
L 364.613281 -91.662339 
L 364.613281 -92.199638 
L 364.613281 -92.736937 
L 364.613281 -93.274236 
L 364.613281 -93.811535 
L 364.613281 -94.348834 
L 364.613281 -94.886132 
L 364.613281 -95.423431 
L 364.613281 -95.96073 
L 364.613281 -96.498029 
L 364.613281 -97.035328 
L 364.613281 -97.572626 
L 364.613281 -98.109925 
L 364.613281 -98.647224 
L 364.613281 -99.184523 
L 364.613281 -99.721822 
L 364.613281 -100.259121 
L 364.613281 -100.796419 
L 364.613281 -101.333718 
L 364.613281 -101.871017 
L 364.613281 -102.408316 
L 364.613281 -102.945615 
L 364.613281 -103.482914 
L 364.613281 -104.020212 
L 364.613281 -104.557511 
L 364.613281 -105.09481 
L 364.613281 -105.632109 
L 364.613281 -106.169408 
L 364.613281 -106.706706 
L 364.613281 -107.244005 
L 364.613281 -107.781304 
L 364.613281 -108.318603 
L 364.613281 -108.855902 
L 364.613281 -109.393201 
L 364.613281 -109.930499 
L 364.613281 -110.467798 
L 364.613281 -111.005097 
L 364.613281 -111.542396 
L 364.613281 -112.079695 
L 364.613281 -112.616994 
L 364.613281 -113.154292 
L 364.613281 -113.691591 
L 364.613281 -114.22889 
L 364.613281 -114.766189 
L 364.613281 -115.303488 
L 364.613281 -115.840786 
L 364.613281 -116.378085 
L 364.613281 -116.915384 
L 364.613281 -117.452683 
L 364.613281 -117.989982 
L 364.613281 -118.527281 
L 364.613281 -119.064579 
L 364.613281 -119.601878 
L 364.613281 -120.139177 
L 364.613281 -120.676476 
L 364.613281 -121.213775 
L 364.613281 -121.751074 
L 364.613281 -122.288372 
L 364.613281 -122.825671 
L 364.613281 -123.36297 
L 364.613281 -123.900269 
L 364.613281 -124.437568 
L 364.613281 -124.974866 
L 364.613281 -125.512165 
L 364.613281 -126.049464 
L 364.613281 -126.586763 
L 364.613281 -127.124062 
L 364.613281 -127.661361 
L 364.613281 -128.198659 
L 364.613281 -128.735958 
L 364.613281 -129.273257 
L 364.613281 -129.810556 
L 364.613281 -130.347855 
L 364.613281 -130.885154 
L 364.613281 -131.422452 
L 364.613281 -131.959751 
L 364.613281 -132.49705 
L 364.613281 -133.034349 
L 364.613281 -133.571648 
L 364.613281 -134.108946 
L 364.613281 -134.646245 
L 364.613281 -135.183544 
L 364.613281 -135.720843 
L 364.613281 -136.258142 
L 364.613281 -136.795441 
L 364.613281 -137.332739 
L 364.613281 -137.870038 
L 364.613281 -138.407337 
L 364.613281 -138.944636 
L 364.613281 -139.481935 
L 364.613281 -140.019234 
L 364.613281 -140.556532 
L 364.613281 -141.093831 
L 364.613281 -141.63113 
L 364.613281 -142.168429 
L 364.613281 -142.705728 
L 364.613281 -143.243026 
L 364.613281 -143.780325 
L 364.613281 -144.317624 
L 364.613281 -144.854923 
L 364.613281 -145.392222 
L 364.613281 -145.929521 
L 364.613281 -146.466819 
L 364.613281 -147.004118 
L 364.613281 -147.541417 
L 364.613281 -148.078716 
L 364.613281 -148.616015 
L 364.613281 -149.153314 
L 364.613281 -149.690612 
L 364.613281 -150.227911 
L 364.613281 -150.76521 
L 364.613281 -151.302509 
L 364.613281 -151.839808 
L 364.613281 -152.377106 
L 364.613281 -152.914405 
L 364.613281 -153.451704 
L 364.613281 -153.989003 
L 543.48436 -153.989003 
L 543.48436 -153.989003 
L 542.094197 -153.451704 
L 540.899381 -152.914405 
L 540.896976 -152.377106 
L 540.658405 -151.839808 
L 540.394252 -151.302509 
L 538.320746 -150.76521 
L 537.88384 -150.227911 
L 537.858395 -149.690612 
L 537.048042 -149.153314 
L 536.419548 -148.616015 
L 536.08517 -148.078716 
L 536.057239 -147.541417 
L 534.670313 -147.004118 
L 534.433002 -146.466819 
L 534.422426 -145.929521 
L 534.274836 -145.392222 
L 533.221802 -144.854923 
L 533.158847 -144.317624 
L 532.786292 -143.780325 
L 530.79613 -143.243026 
L 530.607142 -142.705728 
L 530.153874 -142.168429 
L 529.957034 -141.63113 
L 529.600848 -141.093831 
L 529.455526 -140.556532 
L 528.971196 -140.019234 
L 528.847605 -139.481935 
L 528.817577 -138.944636 
L 528.78363 -138.407337 
L 528.071741 -137.870038 
L 527.86225 -137.332739 
L 527.417382 -136.795441 
L 527.281512 -136.258142 
L 526.846375 -135.720843 
L 526.789149 -135.183544 
L 526.595709 -134.646245 
L 526.488221 -134.108946 
L 526.346779 -133.571648 
L 526.322609 -133.034349 
L 526.284895 -132.49705 
L 526.248043 -131.959751 
L 526.235587 -131.422452 
L 526.174586 -130.885154 
L 525.776793 -130.347855 
L 525.497961 -129.810556 
L 525.444691 -129.273257 
L 525.352419 -128.735958 
L 525.346398 -128.198659 
L 525.120764 -127.661361 
L 524.986152 -127.124062 
L 524.86027 -126.586763 
L 524.804788 -126.049464 
L 524.498075 -125.512165 
L 523.903396 -124.974866 
L 523.798008 -124.437568 
L 523.725689 -123.900269 
L 523.35667 -123.36297 
L 523.339774 -122.825671 
L 523.158406 -122.288372 
L 522.954001 -121.751074 
L 522.787951 -121.213775 
L 522.550531 -120.676476 
L 522.509966 -120.139177 
L 522.319574 -119.601878 
L 522.136454 -119.064579 
L 521.714721 -118.527281 
L 521.327136 -117.989982 
L 521.20945 -117.452683 
L 521.114929 -116.915384 
L 521.023531 -116.378085 
L 520.877375 -115.840786 
L 520.719557 -115.303488 
L 520.667623 -114.766189 
L 520.402943 -114.22889 
L 520.020467 -113.691591 
L 519.931089 -113.154292 
L 519.365163 -112.616994 
L 519.316777 -112.079695 
L 518.818215 -111.542396 
L 517.853985 -111.005097 
L 517.585013 -110.467798 
L 516.914296 -109.930499 
L 516.635187 -109.393201 
L 516.628801 -108.855902 
L 516.3739 -108.318603 
L 515.80961 -107.781304 
L 515.64218 -107.244005 
L 515.561546 -106.706706 
L 515.557466 -106.169408 
L 514.900863 -105.632109 
L 514.61796 -105.09481 
L 514.388643 -104.557511 
L 514.363623 -104.020212 
L 514.162138 -103.482914 
L 514.085764 -102.945615 
L 513.869894 -102.408316 
L 513.745003 -101.871017 
L 513.6266 -101.333718 
L 513.048541 -100.796419 
L 512.571751 -100.259121 
L 512.129509 -99.721822 
L 511.153708 -99.184523 
L 510.580237 -98.647224 
L 510.435671 -98.109925 
L 510.398628 -97.572626 
L 510.39658 -97.035328 
L 510.175073 -96.498029 
L 509.533577 -95.96073 
L 509.367468 -95.423431 
L 509.154145 -94.886132 
L 508.96519 -94.348834 
L 508.897367 -93.811535 
L 508.794713 -93.274236 
L 508.528879 -92.736937 
L 508.210004 -92.199638 
L 507.755712 -91.662339 
L 506.609561 -91.125041 
L 506.593318 -90.587742 
L 506.021724 -90.050443 
L 505.676155 -89.513144 
L 505.617493 -88.975845 
L 505.094721 -88.438546 
L 504.936115 -87.901248 
L 504.568586 -87.363949 
L 504.419977 -86.82665 
L 504.074386 -86.289351 
L 503.944983 -85.752052 
L 503.555717 -85.214754 
L 503.307342 -84.677455 
L 503.212697 -84.140156 
L 503.183967 -83.602857 
L 502.754872 -83.065558 
L 502.191216 -82.528259 
L 502.097571 -81.990961 
L 500.581481 -81.453662 
L 500.461113 -80.916363 
L 499.679918 -80.379064 
L 499.396567 -79.841765 
L 499.037373 -79.304466 
L 498.94925 -78.767168 
L 498.487166 -78.229869 
L 497.682335 -77.69257 
L 497.433004 -77.155271 
L 497.389459 -76.617972 
L 496.821474 -76.080674 
L 496.056277 -75.543375 
L 495.945989 -75.006076 
L 495.832955 -74.468777 
L 492.779965 -73.931478 
L 492.698816 -73.394179 
L 491.887447 -72.856881 
L 491.736216 -72.319582 
L 490.542982 -71.782283 
L 489.088407 -71.244984 
L 488.650952 -70.707685 
L 488.088985 -70.170386 
L 487.979451 -69.633088 
L 486.63734 -69.095789 
L 485.999988 -68.55849 
L 484.129136 -68.021191 
L 483.98125 -67.483892 
L 482.76639 -66.946594 
L 482.455495 -66.409295 
L 481.272589 -65.871996 
L 480.853218 -65.334697 
L 479.095233 -64.797398 
L 477.907261 -64.260099 
L 477.637211 -63.722801 
L 477.50279 -63.185502 
L 476.147218 -62.648203 
L 475.635608 -62.110904 
L 475.413381 -61.573605 
L 475.313886 -61.036306 
L 474.671703 -60.499008 
L 472.348945 -59.961709 
L 469.587744 -59.42441 
L 469.355651 -58.887111 
L 468.253938 -58.349812 
L 467.048496 -57.812514 
L 466.345044 -57.275215 
L 465.505881 -56.737916 
L 465.043649 -56.200617 
L 464.732069 -55.663318 
L 463.189597 -55.126019 
L 460.1851 -54.588721 
L 458.767605 -54.051422 
L 458.52567 -53.514123 
L 457.579268 -52.976824 
L 457.336632 -52.439525 
L 456.587566 -51.902226 
L 452.692205 -51.364928 
L 452.534463 -50.827629 
L 445.345948 -50.29033 
L 442.494099 -49.753031 
L 438.670215 -49.215732 
L 430.369464 -48.678434 
L 421.727866 -48.141135 
L 420.050316 -47.603836 
L 407.431017 -47.066537 
L 405.194821 -46.529238 
z
" style="stroke: #000000; stroke-opacity: 0.7"/>
    </defs>
    <g clip-path="url(#p00b6982d29)">
     <use xlink:href="#m8d600d1ec9" x="0" y="432" style="fill-opacity: 0.7; stroke: #000000; stroke-opacity: 0.7"/>
    </g>
   </g>
   <g id="PolyCollection_2">
    <defs>
     <path id="mb94c6534ad" d="M 558.113766 -159.89929 
L 364.613281 -159.89929 
L 364.613281 -160.436589 
L 364.613281 -160.973888 
L 364.613281 -161.511186 
L 364.613281 -162.048485 
L 364.613281 -162.585784 
L 364.613281 -163.123083 
L 364.613281 -163.660382 
L 364.613281 -164.197681 
L 364.613281 -164.734979 
L 364.613281 -165.272278 
L 364.613281 -165.809577 
L 364.613281 -166.346876 
L 364.613281 -166.884175 
L 364.613281 -167.421474 
L 364.613281 -167.958772 
L 364.613281 -168.496071 
L 364.613281 -169.03337 
L 364.613281 -169.570669 
L 364.613281 -170.107968 
L 364.613281 -170.645266 
L 364.613281 -171.182565 
L 364.613281 -171.719864 
L 364.613281 -172.257163 
L 364.613281 -172.794462 
L 364.613281 -173.331761 
L 364.613281 -173.869059 
L 364.613281 -174.406358 
L 364.613281 -174.943657 
L 364.613281 -175.480956 
L 364.613281 -176.018255 
L 364.613281 -176.555554 
L 364.613281 -177.092852 
L 364.613281 -177.630151 
L 364.613281 -178.16745 
L 364.613281 -178.704749 
L 364.613281 -179.242048 
L 364.613281 -179.779346 
L 364.613281 -180.316645 
L 364.613281 -180.853944 
L 364.613281 -181.391243 
L 364.613281 -181.928542 
L 364.613281 -182.465841 
L 364.613281 -183.003139 
L 364.613281 -183.540438 
L 364.613281 -184.077737 
L 364.613281 -184.615036 
L 364.613281 -185.152335 
L 364.613281 -185.689633 
L 364.613281 -186.226932 
L 364.613281 -186.764231 
L 364.613281 -187.30153 
L 364.613281 -187.838829 
L 364.613281 -188.376128 
L 364.613281 -188.913426 
L 364.613281 -189.450725 
L 364.613281 -189.988024 
L 364.613281 -190.525323 
L 364.613281 -191.062622 
L 364.613281 -191.599921 
L 364.613281 -192.137219 
L 364.613281 -192.674518 
L 364.613281 -193.211817 
L 364.613281 -193.749116 
L 364.613281 -194.286415 
L 364.613281 -194.823713 
L 364.613281 -195.361012 
L 364.613281 -195.898311 
L 364.613281 -196.43561 
L 364.613281 -196.972909 
L 364.613281 -197.510208 
L 364.613281 -198.047506 
L 364.613281 -198.584805 
L 364.613281 -199.122104 
L 364.613281 -199.659403 
L 364.613281 -200.196702 
L 364.613281 -200.734001 
L 364.613281 -201.271299 
L 364.613281 -201.808598 
L 364.613281 -202.345897 
L 364.613281 -202.883196 
L 364.613281 -203.420495 
L 364.613281 -203.957793 
L 364.613281 -204.495092 
L 364.613281 -205.032391 
L 364.613281 -205.56969 
L 364.613281 -206.106989 
L 364.613281 -206.644288 
L 364.613281 -207.181586 
L 364.613281 -207.718885 
L 364.613281 -208.256184 
L 364.613281 -208.793483 
L 364.613281 -209.330782 
L 364.613281 -209.868081 
L 364.613281 -210.405379 
L 364.613281 -210.942678 
L 364.613281 -211.479977 
L 364.613281 -212.017276 
L 364.613281 -212.554575 
L 364.613281 -213.091873 
L 364.613281 -213.629172 
L 364.613281 -214.166471 
L 364.613281 -214.70377 
L 364.613281 -215.241069 
L 364.613281 -215.778368 
L 364.613281 -216.315666 
L 364.613281 -216.852965 
L 364.613281 -217.390264 
L 364.613281 -217.927563 
L 364.613281 -218.464862 
L 364.613281 -219.002161 
L 364.613281 -219.539459 
L 364.613281 -220.076758 
L 364.613281 -220.614057 
L 364.613281 -221.151356 
L 364.613281 -221.688655 
L 364.613281 -222.225953 
L 364.613281 -222.763252 
L 364.613281 -223.300551 
L 364.613281 -223.83785 
L 364.613281 -224.375149 
L 364.613281 -224.912448 
L 364.613281 -225.449746 
L 364.613281 -225.987045 
L 364.613281 -226.524344 
L 364.613281 -227.061643 
L 364.613281 -227.598942 
L 364.613281 -228.136241 
L 364.613281 -228.673539 
L 364.613281 -229.210838 
L 364.613281 -229.748137 
L 364.613281 -230.285436 
L 364.613281 -230.822735 
L 364.613281 -231.360033 
L 364.613281 -231.897332 
L 364.613281 -232.434631 
L 364.613281 -232.97193 
L 364.613281 -233.509229 
L 364.613281 -234.046528 
L 364.613281 -234.583826 
L 364.613281 -235.121125 
L 364.613281 -235.658424 
L 364.613281 -236.195723 
L 364.613281 -236.733022 
L 364.613281 -237.270321 
L 364.613281 -237.807619 
L 364.613281 -238.344918 
L 364.613281 -238.882217 
L 364.613281 -239.419516 
L 364.613281 -239.956815 
L 364.613281 -240.494113 
L 364.613281 -241.031412 
L 364.613281 -241.568711 
L 364.613281 -242.10601 
L 364.613281 -242.643309 
L 364.613281 -243.180608 
L 364.613281 -243.717906 
L 364.613281 -244.255205 
L 364.613281 -244.792504 
L 364.613281 -245.329803 
L 364.613281 -245.867102 
L 364.613281 -246.404401 
L 364.613281 -246.941699 
L 364.613281 -247.478998 
L 364.613281 -248.016297 
L 364.613281 -248.553596 
L 364.613281 -249.090895 
L 364.613281 -249.628193 
L 364.613281 -250.165492 
L 364.613281 -250.702791 
L 364.613281 -251.24009 
L 364.613281 -251.777389 
L 364.613281 -252.314688 
L 364.613281 -252.851986 
L 364.613281 -253.389285 
L 364.613281 -253.926584 
L 364.613281 -254.463883 
L 364.613281 -255.001182 
L 364.613281 -255.538481 
L 364.613281 -256.075779 
L 364.613281 -256.613078 
L 364.613281 -257.150377 
L 364.613281 -257.687676 
L 364.613281 -258.224975 
L 364.613281 -258.762273 
L 364.613281 -259.299572 
L 364.613281 -259.836871 
L 364.613281 -260.37417 
L 364.613281 -260.911469 
L 364.613281 -261.448768 
L 364.613281 -261.986066 
L 364.613281 -262.523365 
L 364.613281 -263.060664 
L 364.613281 -263.597963 
L 364.613281 -264.135262 
L 364.613281 -264.672561 
L 364.613281 -265.209859 
L 364.613281 -265.747158 
L 364.613281 -266.284457 
L 364.613281 -266.821756 
L 364.613281 -267.359055 
L 364.613281 -267.896353 
L 364.613281 -268.433652 
L 364.613281 -268.970951 
L 364.613281 -269.50825 
L 364.613281 -270.045549 
L 364.613281 -270.582848 
L 364.613281 -271.120146 
L 364.613281 -271.657445 
L 364.613281 -272.194744 
L 364.613281 -272.732043 
L 364.613281 -273.269342 
L 364.613281 -273.806641 
L 364.613281 -274.343939 
L 364.613281 -274.881238 
L 364.613281 -275.418537 
L 364.613281 -275.955836 
L 364.613281 -276.493135 
L 364.613281 -277.030433 
L 364.613281 -277.567732 
L 364.613281 -278.105031 
L 364.613281 -278.64233 
L 364.613281 -279.179629 
L 364.613281 -279.716928 
L 364.613281 -280.254226 
L 364.613281 -280.791525 
L 364.613281 -281.328824 
L 364.613281 -281.866123 
L 364.613281 -282.403422 
L 364.613281 -282.940721 
L 364.613281 -283.478019 
L 364.613281 -284.015318 
L 364.613281 -284.552617 
L 364.613281 -285.089916 
L 364.613281 -285.627215 
L 364.613281 -286.164513 
L 364.613281 -286.701812 
L 364.613281 -287.239111 
L 364.613281 -287.77641 
L 364.613281 -288.313709 
L 364.613281 -288.851008 
L 364.613281 -289.388306 
L 364.613281 -289.925605 
L 364.613281 -290.462904 
L 364.613281 -291.000203 
L 364.613281 -291.537502 
L 364.613281 -292.074801 
L 364.613281 -292.612099 
L 364.613281 -293.149398 
L 364.613281 -293.686697 
L 364.613281 -294.223996 
L 364.613281 -294.761295 
L 364.613281 -295.298593 
L 364.613281 -295.835892 
L 364.613281 -296.373191 
L 364.613281 -296.91049 
L 364.613281 -297.447789 
L 364.613281 -297.985088 
L 364.613281 -298.522386 
L 364.613281 -299.059685 
L 364.613281 -299.596984 
L 364.613281 -300.134283 
L 364.613281 -300.671582 
L 364.613281 -301.208881 
L 364.613281 -301.746179 
L 364.613281 -302.283478 
L 364.613281 -302.820777 
L 364.613281 -303.358076 
L 364.613281 -303.895375 
L 364.613281 -304.432673 
L 364.613281 -304.969972 
L 364.613281 -305.507271 
L 364.613281 -306.04457 
L 364.613281 -306.581869 
L 364.613281 -307.119168 
L 364.613281 -307.656466 
L 364.613281 -308.193765 
L 364.613281 -308.731064 
L 364.613281 -309.268363 
L 364.613281 -309.805662 
L 364.613281 -310.342961 
L 364.613281 -310.880259 
L 364.613281 -311.417558 
L 364.613281 -311.954857 
L 364.613281 -312.492156 
L 364.613281 -313.029455 
L 364.613281 -313.566753 
L 364.613281 -314.104052 
L 364.613281 -314.641351 
L 364.613281 -315.17865 
L 364.613281 -315.715949 
L 364.613281 -316.253248 
L 364.613281 -316.790546 
L 364.613281 -317.327845 
L 364.613281 -317.865144 
L 364.613281 -318.402443 
L 364.613281 -318.939742 
L 364.613281 -319.477041 
L 364.613281 -320.014339 
L 364.613281 -320.551638 
L 364.613281 -321.088937 
L 364.613281 -321.626236 
L 364.613281 -322.163535 
L 364.613281 -322.700833 
L 364.613281 -323.238132 
L 364.613281 -323.775431 
L 364.613281 -324.31273 
L 364.613281 -324.850029 
L 364.613281 -325.387328 
L 364.613281 -325.924626 
L 364.613281 -326.461925 
L 364.613281 -326.999224 
L 364.613281 -327.536523 
L 364.613281 -328.073822 
L 364.613281 -328.611121 
L 364.613281 -329.148419 
L 364.613281 -329.685718 
L 364.613281 -330.223017 
L 364.613281 -330.760316 
L 364.613281 -331.297615 
L 364.613281 -331.834913 
L 364.613281 -332.372212 
L 364.613281 -332.909511 
L 364.613281 -333.44681 
L 364.613281 -333.984109 
L 364.613281 -334.521408 
L 364.613281 -335.058706 
L 364.613281 -335.596005 
L 364.613281 -336.133304 
L 364.613281 -336.670603 
L 364.613281 -337.207902 
L 364.613281 -337.745201 
L 364.613281 -338.282499 
L 364.613281 -338.819798 
L 364.613281 -339.357097 
L 364.613281 -339.894396 
L 364.613281 -340.431695 
L 364.613281 -340.968993 
L 364.613281 -341.506292 
L 364.613281 -342.043591 
L 364.613281 -342.58089 
L 364.613281 -343.118189 
L 364.613281 -343.655488 
L 364.613281 -344.192786 
L 364.613281 -344.730085 
L 364.613281 -345.267384 
L 364.613281 -345.804683 
L 364.613281 -346.341982 
L 364.613281 -346.879281 
L 364.613281 -347.416579 
L 364.613281 -347.953878 
L 364.613281 -348.491177 
L 364.613281 -349.028476 
L 364.613281 -349.565775 
L 364.613281 -350.103073 
L 364.613281 -350.640372 
L 364.613281 -351.177671 
L 364.613281 -351.71497 
L 364.613281 -352.252269 
L 364.613281 -352.789568 
L 364.613281 -353.326866 
L 364.613281 -353.864165 
L 364.613281 -354.401464 
L 364.613281 -354.938763 
L 364.613281 -355.476062 
L 364.613281 -356.013361 
L 364.613281 -356.550659 
L 364.613281 -357.087958 
L 364.613281 -357.625257 
L 364.613281 -358.162556 
L 364.613281 -358.699855 
L 364.613281 -359.237153 
L 364.613281 -359.774452 
L 364.613281 -360.311751 
L 364.613281 -360.84905 
L 364.613281 -361.386349 
L 364.613281 -361.923648 
L 364.613281 -362.460946 
L 364.613281 -362.998245 
L 364.613281 -363.535544 
L 364.613281 -364.072843 
L 364.613281 -364.610142 
L 364.613281 -365.147441 
L 364.613281 -365.684739 
L 364.613281 -366.222038 
L 364.613281 -366.759337 
L 364.613281 -367.296636 
L 364.613281 -367.833935 
L 364.613281 -368.371233 
L 364.613281 -368.908532 
L 364.613281 -369.445831 
L 364.613281 -369.98313 
L 364.613281 -370.520429 
L 364.613281 -371.057728 
L 364.613281 -371.595026 
L 364.613281 -372.132325 
L 364.613281 -372.669624 
L 364.613281 -373.206923 
L 364.613281 -373.744222 
L 364.613281 -374.281521 
L 364.613281 -374.818819 
L 364.613281 -375.356118 
L 364.613281 -375.893417 
L 364.613281 -376.430716 
L 364.613281 -376.968015 
L 364.613281 -377.505313 
L 364.613281 -378.042612 
L 364.613281 -378.579911 
L 364.613281 -379.11721 
L 364.613281 -379.654509 
L 364.613281 -380.191808 
L 364.613281 -380.729106 
L 364.613281 -381.266405 
L 364.613281 -381.803704 
L 364.613281 -382.341003 
L 364.613281 -382.878302 
L 364.613281 -383.415601 
L 364.613281 -383.952899 
L 364.613281 -384.490198 
L 364.613281 -385.027497 
L 364.613281 -385.564796 
L 364.613281 -386.102095 
L 364.613281 -386.639393 
L 364.613281 -387.176692 
L 364.613281 -387.713991 
L 364.613281 -388.25129 
L 364.613281 -388.788589 
L 364.613281 -389.325888 
L 364.613281 -389.863186 
L 364.613281 -390.400485 
L 364.613281 -390.937784 
L 364.613281 -391.475083 
L 364.613281 -392.012382 
L 364.613281 -392.549681 
L 364.613281 -393.086979 
L 364.613281 -393.624278 
L 364.613281 -394.161577 
L 364.613281 -394.698876 
L 364.613281 -395.236175 
L 364.613281 -395.773473 
L 364.613281 -396.310772 
L 364.613281 -396.848071 
L 364.613281 -397.38537 
L 364.613281 -397.922669 
L 364.613281 -398.459968 
L 364.613281 -398.997266 
L 364.613281 -399.534565 
L 364.613281 -400.071864 
L 364.613281 -400.609163 
L 364.613281 -401.146462 
L 364.613281 -401.683761 
L 364.613281 -402.221059 
L 364.613281 -402.758358 
L 364.613281 -403.295657 
L 364.613281 -403.832956 
L 364.613281 -404.370255 
L 364.613281 -404.907553 
L 364.613281 -405.444852 
L 364.613281 -405.982151 
L 364.613281 -406.51945 
L 364.613281 -407.056749 
L 364.613281 -407.594048 
L 364.613281 -408.131346 
L 364.613281 -408.668645 
L 364.613281 -409.205944 
L 364.613281 -409.743243 
L 364.613281 -410.280542 
L 364.613281 -410.817841 
L 364.613281 -411.355139 
L 364.613281 -411.892438 
L 364.613281 -412.429737 
L 624.288081 -412.429737 
L 624.288081 -412.429737 
L 624.135824 -411.892438 
L 623.883788 -411.355139 
L 623.811282 -410.817841 
L 623.301389 -410.280542 
L 622.810546 -409.743243 
L 622.132964 -409.205944 
L 621.871285 -408.668645 
L 621.594196 -408.131346 
L 621.18724 -407.594048 
L 620.975651 -407.056749 
L 620.928478 -406.51945 
L 620.898629 -405.982151 
L 620.775661 -405.444852 
L 620.701998 -404.907553 
L 620.63168 -404.370255 
L 620.495017 -403.832956 
L 620.391527 -403.295657 
L 620.18866 -402.758358 
L 620.067447 -402.221059 
L 620.033023 -401.683761 
L 619.619499 -401.146462 
L 619.517605 -400.609163 
L 619.488605 -400.071864 
L 619.425655 -399.534565 
L 619.269521 -398.997266 
L 618.96569 -398.459968 
L 618.914071 -397.922669 
L 618.818919 -397.38537 
L 618.790665 -396.848071 
L 618.765938 -396.310772 
L 618.740724 -395.773473 
L 618.611717 -395.236175 
L 618.599613 -394.698876 
L 618.328198 -394.161577 
L 618.272431 -393.624278 
L 618.177133 -393.086979 
L 618.125646 -392.549681 
L 618.029687 -392.012382 
L 617.911412 -391.475083 
L 617.871878 -390.937784 
L 617.838381 -390.400485 
L 617.78946 -389.863186 
L 617.623267 -389.325888 
L 617.472742 -388.788589 
L 617.46254 -388.25129 
L 617.401659 -387.713991 
L 617.401659 -387.176692 
L 617.373932 -386.639393 
L 617.36904 -386.102095 
L 617.273669 -385.564796 
L 617.239785 -385.027497 
L 617.239785 -384.490198 
L 617.184493 -383.952899 
L 617.113036 -383.415601 
L 616.921855 -382.878302 
L 616.821727 -382.341003 
L 616.738226 -381.803704 
L 616.634561 -381.266405 
L 616.585201 -380.729106 
L 616.388711 -380.191808 
L 616.388711 -379.654509 
L 616.378439 -379.11721 
L 616.301601 -378.579911 
L 616.299632 -378.042612 
L 616.287207 -377.505313 
L 616.229274 -376.968015 
L 616.229274 -376.430716 
L 616.164805 -375.893417 
L 616.037068 -375.356118 
L 615.953143 -374.818819 
L 615.88896 -374.281521 
L 615.777537 -373.744222 
L 615.750554 -373.206923 
L 615.746134 -372.669624 
L 615.712536 -372.132325 
L 615.682131 -371.595026 
L 615.670046 -371.057728 
L 615.670046 -370.520429 
L 615.609687 -369.98313 
L 615.595019 -369.445831 
L 615.559389 -368.908532 
L 615.447076 -368.371233 
L 615.405837 -367.833935 
L 615.366484 -367.296636 
L 615.358467 -366.759337 
L 615.331486 -366.222038 
L 615.245669 -365.684739 
L 615.241065 -365.147441 
L 615.173173 -364.610142 
L 615.153012 -364.072843 
L 614.996042 -363.535544 
L 614.92799 -362.998245 
L 614.883176 -362.460946 
L 614.634133 -361.923648 
L 614.519677 -361.386349 
L 614.467374 -360.84905 
L 614.443851 -360.311751 
L 614.433742 -359.774452 
L 614.429028 -359.237153 
L 614.323856 -358.699855 
L 614.323182 -358.162556 
L 614.310063 -357.625257 
L 614.309692 -357.087958 
L 614.303614 -356.550659 
L 614.200032 -356.013361 
L 614.190685 -355.476062 
L 614.128838 -354.938763 
L 614.075603 -354.401464 
L 613.902973 -353.864165 
L 613.81041 -353.326866 
L 613.769301 -352.789568 
L 613.754449 -352.252269 
L 613.754449 -351.71497 
L 613.555734 -351.177671 
L 613.532197 -350.640372 
L 613.516049 -350.103073 
L 613.349867 -349.565775 
L 613.326037 -349.028476 
L 613.258293 -348.491177 
L 613.206082 -347.953878 
L 613.14734 -347.416579 
L 613.136129 -346.879281 
L 613.097745 -346.341982 
L 612.973689 -345.804683 
L 612.970264 -345.267384 
L 612.739191 -344.730085 
L 612.629256 -344.192786 
L 612.609415 -343.655488 
L 612.59352 -343.118189 
L 612.461266 -342.58089 
L 612.43441 -342.043591 
L 612.433168 -341.506292 
L 612.403829 -340.968993 
L 612.331189 -340.431695 
L 612.254624 -339.894396 
L 612.162943 -339.357097 
L 612.146576 -338.819798 
L 611.974508 -338.282499 
L 611.862763 -337.745201 
L 611.799989 -337.207902 
L 611.79623 -336.670603 
L 611.496973 -336.133304 
L 611.418964 -335.596005 
L 611.3721 -335.058706 
L 611.361906 -334.521408 
L 611.339938 -333.984109 
L 611.300867 -333.44681 
L 611.286503 -332.909511 
L 611.256749 -332.372212 
L 611.250317 -331.834913 
L 611.152731 -331.297615 
L 611.064337 -330.760316 
L 610.967818 -330.223017 
L 610.761131 -329.685718 
L 610.731952 -329.148419 
L 610.699461 -328.611121 
L 610.642696 -328.073822 
L 610.54924 -327.536523 
L 610.541452 -326.999224 
L 610.425197 -326.461925 
L 610.40577 -325.924626 
L 610.372415 -325.387328 
L 610.204188 -324.850029 
L 610.182667 -324.31273 
L 610.140234 -323.775431 
L 610.129757 -323.238132 
L 609.947595 -322.700833 
L 609.73864 -322.163535 
L 609.66645 -321.626236 
L 609.611216 -321.088937 
L 609.463142 -320.551638 
L 609.259209 -320.014339 
L 609.221444 -319.477041 
L 609.13338 -318.939742 
L 609.08892 -318.402443 
L 609.020939 -317.865144 
L 609.011362 -317.327845 
L 608.967037 -316.790546 
L 608.928091 -316.253248 
L 608.920344 -315.715949 
L 608.848301 -315.17865 
L 608.748342 -314.641351 
L 608.541038 -314.104052 
L 608.511829 -313.566753 
L 608.505587 -313.029455 
L 608.22386 -312.492156 
L 608.023869 -311.954857 
L 607.982041 -311.417558 
L 607.959687 -310.880259 
L 607.903168 -310.342961 
L 607.802938 -309.805662 
L 607.790377 -309.268363 
L 607.760122 -308.731064 
L 607.752066 -308.193765 
L 607.695715 -307.656466 
L 607.611816 -307.119168 
L 607.433331 -306.581869 
L 607.41441 -306.04457 
L 607.329863 -305.507271 
L 607.251745 -304.969972 
L 607.041996 -304.432673 
L 607.034892 -303.895375 
L 606.842367 -303.358076 
L 606.827197 -302.820777 
L 606.788059 -302.283478 
L 606.63823 -301.746179 
L 606.617106 -301.208881 
L 606.571547 -300.671582 
L 606.503976 -300.134283 
L 606.452758 -299.596984 
L 606.391568 -299.059685 
L 606.36052 -298.522386 
L 606.142768 -297.985088 
L 606.135294 -297.447789 
L 606.125025 -296.91049 
L 605.805301 -296.373191 
L 605.757736 -295.835892 
L 605.735441 -295.298593 
L 605.685754 -294.761295 
L 605.633567 -294.223996 
L 605.484509 -293.686697 
L 605.386724 -293.149398 
L 605.383562 -292.612099 
L 605.329551 -292.074801 
L 605.308713 -291.537502 
L 605.263298 -291.000203 
L 605.252126 -290.462904 
L 605.065786 -289.925605 
L 605.00845 -289.388306 
L 604.957812 -288.851008 
L 604.91205 -288.313709 
L 604.911008 -287.77641 
L 604.850118 -287.239111 
L 604.75211 -286.701812 
L 604.747715 -286.164513 
L 604.688789 -285.627215 
L 604.670677 -285.089916 
L 604.651943 -284.552617 
L 604.594786 -284.015318 
L 604.492334 -283.478019 
L 604.39858 -282.940721 
L 604.390542 -282.403422 
L 604.386874 -281.866123 
L 604.34142 -281.328824 
L 604.277743 -280.791525 
L 604.261057 -280.254226 
L 604.249185 -279.716928 
L 604.179389 -279.179629 
L 604.160671 -278.64233 
L 604.093464 -278.105031 
L 604.040169 -277.567732 
L 604.030769 -277.030433 
L 604.006418 -276.493135 
L 603.893661 -275.955836 
L 603.882127 -275.418537 
L 603.86601 -274.881238 
L 603.801491 -274.343939 
L 603.710541 -273.806641 
L 603.697079 -273.269342 
L 603.688585 -272.732043 
L 603.636135 -272.194744 
L 603.598356 -271.657445 
L 603.425769 -271.120146 
L 603.423593 -270.582848 
L 603.339248 -270.045549 
L 603.314101 -269.50825 
L 603.311949 -268.970951 
L 603.310614 -268.433652 
L 603.220991 -267.896353 
L 603.150373 -267.359055 
L 602.969544 -266.821756 
L 602.578741 -266.284457 
L 602.548148 -265.747158 
L 602.535764 -265.209859 
L 602.441614 -264.672561 
L 602.318498 -264.135262 
L 602.318498 -263.597963 
L 602.305482 -263.060664 
L 602.304383 -262.523365 
L 602.284235 -261.986066 
L 602.116915 -261.448768 
L 602.06565 -260.911469 
L 601.954686 -260.37417 
L 601.882553 -259.836871 
L 601.82641 -259.299572 
L 601.683364 -258.762273 
L 601.461725 -258.224975 
L 601.350397 -257.687676 
L 601.254014 -257.150377 
L 601.096407 -256.613078 
L 601.005931 -256.075779 
L 600.957505 -255.538481 
L 600.784001 -255.001182 
L 600.51386 -254.463883 
L 600.488136 -253.926584 
L 600.465341 -253.389285 
L 600.214257 -252.851986 
L 600.072099 -252.314688 
L 600.068815 -251.777389 
L 600.011079 -251.24009 
L 599.936963 -250.702791 
L 599.925096 -250.165492 
L 599.700446 -249.628193 
L 599.684102 -249.090895 
L 599.637681 -248.553596 
L 599.633456 -248.016297 
L 599.505252 -247.478998 
L 599.48372 -246.941699 
L 599.358687 -246.404401 
L 599.337285 -245.867102 
L 599.326868 -245.329803 
L 599.231025 -244.792504 
L 599.215484 -244.255205 
L 599.208707 -243.717906 
L 599.109718 -243.180608 
L 599.100369 -242.643309 
L 599.018733 -242.10601 
L 598.731221 -241.568711 
L 598.646069 -241.031412 
L 598.580174 -240.494113 
L 598.429544 -239.956815 
L 598.241356 -239.419516 
L 598.174764 -238.882217 
L 598.124194 -238.344918 
L 598.075804 -237.807619 
L 598.061898 -237.270321 
L 598.044802 -236.733022 
L 597.960833 -236.195723 
L 597.75051 -235.658424 
L 597.739282 -235.121125 
L 597.730894 -234.583826 
L 597.216276 -234.046528 
L 597.038331 -233.509229 
L 596.875435 -232.97193 
L 596.556439 -232.434631 
L 596.308824 -231.897332 
L 596.276731 -231.360033 
L 596.267515 -230.822735 
L 596.151233 -230.285436 
L 596.151215 -229.748137 
L 596.077845 -229.210838 
L 595.932064 -228.673539 
L 595.817715 -228.136241 
L 595.81588 -227.598942 
L 595.694039 -227.061643 
L 595.649563 -226.524344 
L 595.613258 -225.987045 
L 595.458 -225.449746 
L 595.432456 -224.912448 
L 595.252528 -224.375149 
L 595.194881 -223.83785 
L 595.150341 -223.300551 
L 595.14846 -222.763252 
L 595.012318 -222.225953 
L 594.883077 -221.688655 
L 594.839755 -221.151356 
L 594.736634 -220.614057 
L 594.710154 -220.076758 
L 594.59111 -219.539459 
L 594.465698 -219.002161 
L 594.412196 -218.464862 
L 594.366365 -217.927563 
L 594.264129 -217.390264 
L 594.196869 -216.852965 
L 594.109183 -216.315666 
L 593.954352 -215.778368 
L 593.894892 -215.241069 
L 593.892051 -214.70377 
L 593.709338 -214.166471 
L 593.685525 -213.629172 
L 593.642605 -213.091873 
L 593.601759 -212.554575 
L 593.588009 -212.017276 
L 593.490247 -211.479977 
L 593.446686 -210.942678 
L 593.390692 -210.405379 
L 593.350527 -209.868081 
L 593.09796 -209.330782 
L 593.035958 -208.793483 
L 593.022566 -208.256184 
L 592.743551 -207.718885 
L 592.54112 -207.181586 
L 592.207092 -206.644288 
L 592.163005 -206.106989 
L 591.967346 -205.56969 
L 591.895583 -205.032391 
L 591.765659 -204.495092 
L 591.657892 -203.957793 
L 591.592938 -203.420495 
L 591.48953 -202.883196 
L 591.415795 -202.345897 
L 591.40965 -201.808598 
L 591.387251 -201.271299 
L 591.377385 -200.734001 
L 591.367535 -200.196702 
L 591.221176 -199.659403 
L 591.215611 -199.122104 
L 591.202127 -198.584805 
L 590.98489 -198.047506 
L 590.474759 -197.510208 
L 590.462207 -196.972909 
L 590.014153 -196.43561 
L 589.97789 -195.898311 
L 589.829228 -195.361012 
L 589.748292 -194.823713 
L 589.344369 -194.286415 
L 589.317031 -193.749116 
L 589.176529 -193.211817 
L 589.116595 -192.674518 
L 588.788448 -192.137219 
L 588.707618 -191.599921 
L 588.65294 -191.062622 
L 588.608534 -190.525323 
L 588.603588 -189.988024 
L 588.301684 -189.450725 
L 588.152766 -188.913426 
L 588.098758 -188.376128 
L 588.060828 -187.838829 
L 588.050797 -187.30153 
L 587.926857 -186.764231 
L 587.757448 -186.226932 
L 587.711162 -185.689633 
L 587.559561 -185.152335 
L 587.360478 -184.615036 
L 587.266502 -184.077737 
L 587.110231 -183.540438 
L 587.005538 -183.003139 
L 586.676885 -182.465841 
L 586.620175 -181.928542 
L 586.41472 -181.391243 
L 586.300831 -180.853944 
L 586.248065 -180.316645 
L 586.097508 -179.779346 
L 586.06723 -179.242048 
L 585.905442 -178.704749 
L 585.729581 -178.16745 
L 585.597589 -177.630151 
L 585.51445 -177.092852 
L 585.494188 -176.555554 
L 585.318799 -176.018255 
L 585.169343 -175.480956 
L 585.105037 -174.943657 
L 584.939726 -174.406358 
L 584.886719 -173.869059 
L 584.844182 -173.331761 
L 584.277538 -172.794462 
L 583.701486 -172.257163 
L 583.355601 -171.719864 
L 583.136159 -171.182565 
L 582.969089 -170.645266 
L 582.96845 -170.107968 
L 582.571842 -169.570669 
L 582.346435 -169.03337 
L 581.106839 -168.496071 
L 580.96432 -167.958772 
L 580.802176 -167.421474 
L 580.443671 -166.884175 
L 579.291574 -166.346876 
L 578.685763 -165.809577 
L 577.218588 -165.272278 
L 576.816073 -164.734979 
L 575.536307 -164.197681 
L 575.188995 -163.660382 
L 574.972087 -163.123083 
L 573.945611 -162.585784 
L 573.192548 -162.048485 
L 572.935776 -161.511186 
L 571.539468 -160.973888 
L 564.671503 -160.436589 
L 558.113766 -159.89929 
z
" style="stroke: #00bc00; stroke-opacity: 0.7"/>
    </defs>
    <g clip-path="url(#p00b6982d29)">
     <use xlink:href="#mb94c6534ad" x="0" y="432" style="fill: #00bc00; fill-opacity: 0.7; stroke: #00bc00; stroke-opacity: 0.7"/>
    </g>
   </g>
   <g id="matplotlib.axis_1">
    <g id="xtick_1">
     <g id="line2d_1">
      <defs>
       <path id="mf4b20b4fa1" d="M 0 0 
L 0 3.5 
" style="stroke: #000000; stroke-width: 0.8"/>
      </defs>
      <g>
       <use xlink:href="#mf4b20b4fa1" x="27.978125" y="390.84375" style="stroke: #000000; stroke-width: 0.8"/>
      </g>
     </g>
     <g id="text_1">
      <!-- −1.0 -->
      <g transform="translate(15.836719 405.442187) scale(0.1 -0.1)">
       <defs>
        <path id="DejaVuSans-2212" d="M 678 2272 
L 4684 2272 
L 4684 1741 
L 678 1741 
L 678 2272 
z
" transform="scale(0.015625)"/>
        <path id="DejaVuSans-31" d="M 794 531 
L 1825 531 
L 1825 4091 
L 703 3866 
L 703 4441 
L 1819 4666 
L 2450 4666 
L 2450 531 
L 3481 531 
L 3481 0 
L 794 0 
L 794 531 
z
" transform="scale(0.015625)"/>
        <path id="DejaVuSans-2e" d="M 684 794 
L 1344 794 
L 1344 0 
L 684 0 
L 684 794 
z
" transform="scale(0.015625)"/>
        <path id="DejaVuSans-30" d="M 2034 4250 
Q 1547 4250 1301 3770 
Q 1056 3291 1056 2328 
Q 1056 1369 1301 889 
Q 1547 409 2034 409 
Q 2525 409 2770 889 
Q 3016 1369 3016 2328 
Q 3016 3291 2770 3770 
Q 2525 4250 2034 4250 
z
M 2034 4750 
Q 2819 4750 3233 4129 
Q 3647 3509 3647 2328 
Q 3647 1150 3233 529 
Q 2819 -91 2034 -91 
Q 1250 -91 836 529 
Q 422 1150 422 2328 
Q 422 3509 836 4129 
Q 1250 4750 2034 4750 
z
" transform="scale(0.015625)"/>
       </defs>
       <use xlink:href="#DejaVuSans-2212"/>
       <use xlink:href="#DejaVuSans-31" x="83.789062"/>
       <use xlink:href="#DejaVuSans-2e" x="147.412109"/>
       <use xlink:href="#DejaVuSans-30" x="179.199219"/>
      </g>
     </g>
    </g>
    <g id="xtick_2">
     <g id="line2d_2">
      <g>
       <use xlink:href="#mf4b20b4fa1" x="95.305156" y="390.84375" style="stroke: #000000; stroke-width: 0.8"/>
      </g>
     </g>
     <g id="text_2">
      <!-- −0.8 -->
      <g transform="translate(83.16375 405.442187) scale(0.1 -0.1)">
       <defs>
        <path id="DejaVuSans-38" d="M 2034 2216 
Q 1584 2216 1326 1975 
Q 1069 1734 1069 1313 
Q 1069 891 1326 650 
Q 1584 409 2034 409 
Q 2484 409 2743 651 
Q 3003 894 3003 1313 
Q 3003 1734 2745 1975 
Q 2488 2216 2034 2216 
z
M 1403 2484 
Q 997 2584 770 2862 
Q 544 3141 544 3541 
Q 544 4100 942 4425 
Q 1341 4750 2034 4750 
Q 2731 4750 3128 4425 
Q 3525 4100 3525 3541 
Q 3525 3141 3298 2862 
Q 3072 2584 2669 2484 
Q 3125 2378 3379 2068 
Q 3634 1759 3634 1313 
Q 3634 634 3220 271 
Q 2806 -91 2034 -91 
Q 1263 -91 848 271 
Q 434 634 434 1313 
Q 434 1759 690 2068 
Q 947 2378 1403 2484 
z
M 1172 3481 
Q 1172 3119 1398 2916 
Q 1625 2713 2034 2713 
Q 2441 2713 2670 2916 
Q 2900 3119 2900 3481 
Q 2900 3844 2670 4047 
Q 2441 4250 2034 4250 
Q 1625 4250 1398 4047 
Q 1172 3844 1172 3481 
z
" transform="scale(0.015625)"/>
       </defs>
       <use xlink:href="#DejaVuSans-2212"/>
       <use xlink:href="#DejaVuSans-30" x="83.789062"/>
       <use xlink:href="#DejaVuSans-2e" x="147.412109"/>
       <use xlink:href="#DejaVuSans-38" x="179.199219"/>
      </g>
     </g>
    </g>
    <g id="xtick_3">
     <g id="line2d_3">
      <g>
       <use xlink:href="#mf4b20b4fa1" x="162.632188" y="390.84375" style="stroke: #000000; stroke-width: 0.8"/>
      </g>
     </g>
     <g id="text_3">
      <!-- −0.6 -->
      <g transform="translate(150.490781 405.442187) scale(0.1 -0.1)">
       <defs>
        <path id="DejaVuSans-36" d="M 2113 2584 
Q 1688 2584 1439 2293 
Q 1191 2003 1191 1497 
Q 1191 994 1439 701 
Q 1688 409 2113 409 
Q 2538 409 2786 701 
Q 3034 994 3034 1497 
Q 3034 2003 2786 2293 
Q 2538 2584 2113 2584 
z
M 3366 4563 
L 3366 3988 
Q 3128 4100 2886 4159 
Q 2644 4219 2406 4219 
Q 1781 4219 1451 3797 
Q 1122 3375 1075 2522 
Q 1259 2794 1537 2939 
Q 1816 3084 2150 3084 
Q 2853 3084 3261 2657 
Q 3669 2231 3669 1497 
Q 3669 778 3244 343 
Q 2819 -91 2113 -91 
Q 1303 -91 875 529 
Q 447 1150 447 2328 
Q 447 3434 972 4092 
Q 1497 4750 2381 4750 
Q 2619 4750 2861 4703 
Q 3103 4656 3366 4563 
z
" transform="scale(0.015625)"/>
       </defs>
       <use xlink:href="#DejaVuSans-2212"/>
       <use xlink:href="#DejaVuSans-30" x="83.789062"/>
       <use xlink:href="#DejaVuSans-2e" x="147.412109"/>
       <use xlink:href="#DejaVuSans-36" x="179.199219"/>
      </g>
     </g>
    </g>
    <g id="xtick_4">
     <g id="line2d_4">
      <g>
       <use xlink:href="#mf4b20b4fa1" x="229.959219" y="390.84375" style="stroke: #000000; stroke-width: 0.8"/>
      </g>
     </g>
     <g id="text_4">
      <!-- −0.4 -->
      <g transform="translate(217.817813 405.442187) scale(0.1 -0.1)">
       <defs>
        <path id="DejaVuSans-34" d="M 2419 4116 
L 825 1625 
L 2419 1625 
L 2419 4116 
z
M 2253 4666 
L 3047 4666 
L 3047 1625 
L 3713 1625 
L 3713 1100 
L 3047 1100 
L 3047 0 
L 2419 0 
L 2419 1100 
L 313 1100 
L 313 1709 
L 2253 4666 
z
" transform="scale(0.015625)"/>
       </defs>
       <use xlink:href="#DejaVuSans-2212"/>
       <use xlink:href="#DejaVuSans-30" x="83.789062"/>
       <use xlink:href="#DejaVuSans-2e" x="147.412109"/>
       <use xlink:href="#DejaVuSans-34" x="179.199219"/>
      </g>
     </g>
    </g>
    <g id="xtick_5">
     <g id="line2d_5">
      <g>
       <use xlink:href="#mf4b20b4fa1" x="297.28625" y="390.84375" style="stroke: #000000; stroke-width: 0.8"/>
      </g>
     </g>
     <g id="text_5">
      <!-- −0.2 -->
      <g transform="translate(285.144844 405.442187) scale(0.1 -0.1)">
       <defs>
        <path id="DejaVuSans-32" d="M 1228 531 
L 3431 531 
L 3431 0 
L 469 0 
L 469 531 
Q 828 903 1448 1529 
Q 2069 2156 2228 2338 
Q 2531 2678 2651 2914 
Q 2772 3150 2772 3378 
Q 2772 3750 2511 3984 
Q 2250 4219 1831 4219 
Q 1534 4219 1204 4116 
Q 875 4013 500 3803 
L 500 4441 
Q 881 4594 1212 4672 
Q 1544 4750 1819 4750 
Q 2544 4750 2975 4387 
Q 3406 4025 3406 3419 
Q 3406 3131 3298 2873 
Q 3191 2616 2906 2266 
Q 2828 2175 2409 1742 
Q 1991 1309 1228 531 
z
" transform="scale(0.015625)"/>
       </defs>
       <use xlink:href="#DejaVuSans-2212"/>
       <use xlink:href="#DejaVuSans-30" x="83.789062"/>
       <use xlink:href="#DejaVuSans-2e" x="147.412109"/>
       <use xlink:href="#DejaVuSans-32" x="179.199219"/>
      </g>
     </g>
    </g>
    <g id="xtick_6">
     <g id="line2d_6">
      <g>
       <use xlink:href="#mf4b20b4fa1" x="364.613281" y="390.84375" style="stroke: #000000; stroke-width: 0.8"/>
      </g>
     </g>
     <g id="text_6">
      <!-- 0.0 -->
      <g transform="translate(356.661719 405.442187) scale(0.1 -0.1)">
       <use xlink:href="#DejaVuSans-30"/>
       <use xlink:href="#DejaVuSans-2e" x="63.623047"/>
       <use xlink:href="#DejaVuSans-30" x="95.410156"/>
      </g>
     </g>
    </g>
    <g id="xtick_7">
     <g id="line2d_7">
      <g>
       <use xlink:href="#mf4b20b4fa1" x="431.940313" y="390.84375" style="stroke: #000000; stroke-width: 0.8"/>
      </g>
     </g>
     <g id="text_7">
      <!-- 0.2 -->
      <g transform="translate(423.98875 405.442187) scale(0.1 -0.1)">
       <use xlink:href="#DejaVuSans-30"/>
       <use xlink:href="#DejaVuSans-2e" x="63.623047"/>
       <use xlink:href="#DejaVuSans-32" x="95.410156"/>
      </g>
     </g>
    </g>
    <g id="xtick_8">
     <g id="line2d_8">
      <g>
       <use xlink:href="#mf4b20b4fa1" x="499.267344" y="390.84375" style="stroke: #000000; stroke-width: 0.8"/>
      </g>
     </g>
     <g id="text_8">
      <!-- 0.4 -->
      <g transform="translate(491.315781 405.442187) scale(0.1 -0.1)">
       <use xlink:href="#DejaVuSans-30"/>
       <use xlink:href="#DejaVuSans-2e" x="63.623047"/>
       <use xlink:href="#DejaVuSans-34" x="95.410156"/>
      </g>
     </g>
    </g>
    <g id="xtick_9">
     <g id="line2d_9">
      <g>
       <use xlink:href="#mf4b20b4fa1" x="566.594375" y="390.84375" style="stroke: #000000; stroke-width: 0.8"/>
      </g>
     </g>
     <g id="text_9">
      <!-- 0.6 -->
      <g transform="translate(558.642812 405.442187) scale(0.1 -0.1)">
       <use xlink:href="#DejaVuSans-30"/>
       <use xlink:href="#DejaVuSans-2e" x="63.623047"/>
       <use xlink:href="#DejaVuSans-36" x="95.410156"/>
      </g>
     </g>
    </g>
    <g id="xtick_10">
     <g id="line2d_10">
      <g>
       <use xlink:href="#mf4b20b4fa1" x="633.921406" y="390.84375" style="stroke: #000000; stroke-width: 0.8"/>
      </g>
     </g>
     <g id="text_10">
      <!-- 0.8 -->
      <g transform="translate(625.969844 405.442187) scale(0.1 -0.1)">
       <use xlink:href="#DejaVuSans-30"/>
       <use xlink:href="#DejaVuSans-2e" x="63.623047"/>
       <use xlink:href="#DejaVuSans-38" x="95.410156"/>
      </g>
     </g>
    </g>
    <g id="xtick_11">
     <g id="line2d_11">
      <g>
       <use xlink:href="#mf4b20b4fa1" x="701.248437" y="390.84375" style="stroke: #000000; stroke-width: 0.8"/>
      </g>
     </g>
     <g id="text_11">
      <!-- 1.0 -->
      <g transform="translate(693.296875 405.442187) scale(0.1 -0.1)">
       <use xlink:href="#DejaVuSans-31"/>
       <use xlink:href="#DejaVuSans-2e" x="63.623047"/>
       <use xlink:href="#DejaVuSans-30" x="95.410156"/>
      </g>
     </g>
    </g>
    <g id="text_12">
     <!-- Silhouette coefficient -->
     <g transform="translate(311.463281 419.120313) scale(0.1 -0.1)">
      <defs>
       <path id="DejaVuSans-53" d="M 3425 4513 
L 3425 3897 
Q 3066 4069 2747 4153 
Q 2428 4238 2131 4238 
Q 1616 4238 1336 4038 
Q 1056 3838 1056 3469 
Q 1056 3159 1242 3001 
Q 1428 2844 1947 2747 
L 2328 2669 
Q 3034 2534 3370 2195 
Q 3706 1856 3706 1288 
Q 3706 609 3251 259 
Q 2797 -91 1919 -91 
Q 1588 -91 1214 -16 
Q 841 59 441 206 
L 441 856 
Q 825 641 1194 531 
Q 1563 422 1919 422 
Q 2459 422 2753 634 
Q 3047 847 3047 1241 
Q 3047 1584 2836 1778 
Q 2625 1972 2144 2069 
L 1759 2144 
Q 1053 2284 737 2584 
Q 422 2884 422 3419 
Q 422 4038 858 4394 
Q 1294 4750 2059 4750 
Q 2388 4750 2728 4690 
Q 3069 4631 3425 4513 
z
" transform="scale(0.015625)"/>
       <path id="DejaVuSans-69" d="M 603 3500 
L 1178 3500 
L 1178 0 
L 603 0 
L 603 3500 
z
M 603 4863 
L 1178 4863 
L 1178 4134 
L 603 4134 
L 603 4863 
z
" transform="scale(0.015625)"/>
       <path id="DejaVuSans-6c" d="M 603 4863 
L 1178 4863 
L 1178 0 
L 603 0 
L 603 4863 
z
" transform="scale(0.015625)"/>
       <path id="DejaVuSans-68" d="M 3513 2113 
L 3513 0 
L 2938 0 
L 2938 2094 
Q 2938 2591 2744 2837 
Q 2550 3084 2163 3084 
Q 1697 3084 1428 2787 
Q 1159 2491 1159 1978 
L 1159 0 
L 581 0 
L 581 4863 
L 1159 4863 
L 1159 2956 
Q 1366 3272 1645 3428 
Q 1925 3584 2291 3584 
Q 2894 3584 3203 3211 
Q 3513 2838 3513 2113 
z
" transform="scale(0.015625)"/>
       <path id="DejaVuSans-6f" d="M 1959 3097 
Q 1497 3097 1228 2736 
Q 959 2375 959 1747 
Q 959 1119 1226 758 
Q 1494 397 1959 397 
Q 2419 397 2687 759 
Q 2956 1122 2956 1747 
Q 2956 2369 2687 2733 
Q 2419 3097 1959 3097 
z
M 1959 3584 
Q 2709 3584 3137 3096 
Q 3566 2609 3566 1747 
Q 3566 888 3137 398 
Q 2709 -91 1959 -91 
Q 1206 -91 779 398 
Q 353 888 353 1747 
Q 353 2609 779 3096 
Q 1206 3584 1959 3584 
z
" transform="scale(0.015625)"/>
       <path id="DejaVuSans-75" d="M 544 1381 
L 544 3500 
L 1119 3500 
L 1119 1403 
Q 1119 906 1312 657 
Q 1506 409 1894 409 
Q 2359 409 2629 706 
Q 2900 1003 2900 1516 
L 2900 3500 
L 3475 3500 
L 3475 0 
L 2900 0 
L 2900 538 
Q 2691 219 2414 64 
Q 2138 -91 1772 -91 
Q 1169 -91 856 284 
Q 544 659 544 1381 
z
M 1991 3584 
L 1991 3584 
z
" transform="scale(0.015625)"/>
       <path id="DejaVuSans-65" d="M 3597 1894 
L 3597 1613 
L 953 1613 
Q 991 1019 1311 708 
Q 1631 397 2203 397 
Q 2534 397 2845 478 
Q 3156 559 3463 722 
L 3463 178 
Q 3153 47 2828 -22 
Q 2503 -91 2169 -91 
Q 1331 -91 842 396 
Q 353 884 353 1716 
Q 353 2575 817 3079 
Q 1281 3584 2069 3584 
Q 2775 3584 3186 3129 
Q 3597 2675 3597 1894 
z
M 3022 2063 
Q 3016 2534 2758 2815 
Q 2500 3097 2075 3097 
Q 1594 3097 1305 2825 
Q 1016 2553 972 2059 
L 3022 2063 
z
" transform="scale(0.015625)"/>
       <path id="DejaVuSans-74" d="M 1172 4494 
L 1172 3500 
L 2356 3500 
L 2356 3053 
L 1172 3053 
L 1172 1153 
Q 1172 725 1289 603 
Q 1406 481 1766 481 
L 2356 481 
L 2356 0 
L 1766 0 
Q 1100 0 847 248 
Q 594 497 594 1153 
L 594 3053 
L 172 3053 
L 172 3500 
L 594 3500 
L 594 4494 
L 1172 4494 
z
" transform="scale(0.015625)"/>
       <path id="DejaVuSans-20" transform="scale(0.015625)"/>
       <path id="DejaVuSans-63" d="M 3122 3366 
L 3122 2828 
Q 2878 2963 2633 3030 
Q 2388 3097 2138 3097 
Q 1578 3097 1268 2742 
Q 959 2388 959 1747 
Q 959 1106 1268 751 
Q 1578 397 2138 397 
Q 2388 397 2633 464 
Q 2878 531 3122 666 
L 3122 134 
Q 2881 22 2623 -34 
Q 2366 -91 2075 -91 
Q 1284 -91 818 406 
Q 353 903 353 1747 
Q 353 2603 823 3093 
Q 1294 3584 2113 3584 
Q 2378 3584 2631 3529 
Q 2884 3475 3122 3366 
z
" transform="scale(0.015625)"/>
       <path id="DejaVuSans-66" d="M 2375 4863 
L 2375 4384 
L 1825 4384 
Q 1516 4384 1395 4259 
Q 1275 4134 1275 3809 
L 1275 3500 
L 2222 3500 
L 2222 3053 
L 1275 3053 
L 1275 0 
L 697 0 
L 697 3053 
L 147 3053 
L 147 3500 
L 697 3500 
L 697 3744 
Q 697 4328 969 4595 
Q 1241 4863 1831 4863 
L 2375 4863 
z
" transform="scale(0.015625)"/>
       <path id="DejaVuSans-6e" d="M 3513 2113 
L 3513 0 
L 2938 0 
L 2938 2094 
Q 2938 2591 2744 2837 
Q 2550 3084 2163 3084 
Q 1697 3084 1428 2787 
Q 1159 2491 1159 1978 
L 1159 0 
L 581 0 
L 581 3500 
L 1159 3500 
L 1159 2956 
Q 1366 3272 1645 3428 
Q 1925 3584 2291 3584 
Q 2894 3584 3203 3211 
Q 3513 2838 3513 2113 
z
" transform="scale(0.015625)"/>
      </defs>
      <use xlink:href="#DejaVuSans-53"/>
      <use xlink:href="#DejaVuSans-69" x="63.476562"/>
      <use xlink:href="#DejaVuSans-6c" x="91.259766"/>
      <use xlink:href="#DejaVuSans-68" x="119.042969"/>
      <use xlink:href="#DejaVuSans-6f" x="182.421875"/>
      <use xlink:href="#DejaVuSans-75" x="243.603516"/>
      <use xlink:href="#DejaVuSans-65" x="306.982422"/>
      <use xlink:href="#DejaVuSans-74" x="368.505859"/>
      <use xlink:href="#DejaVuSans-74" x="407.714844"/>
      <use xlink:href="#DejaVuSans-65" x="446.923828"/>
      <use xlink:href="#DejaVuSans-20" x="508.447266"/>
      <use xlink:href="#DejaVuSans-63" x="540.234375"/>
      <use xlink:href="#DejaVuSans-6f" x="595.214844"/>
      <use xlink:href="#DejaVuSans-65" x="656.396484"/>
      <use xlink:href="#DejaVuSans-66" x="717.919922"/>
      <use xlink:href="#DejaVuSans-66" x="753.125"/>
      <use xlink:href="#DejaVuSans-69" x="788.330078"/>
      <use xlink:href="#DejaVuSans-63" x="816.113281"/>
      <use xlink:href="#DejaVuSans-69" x="871.09375"/>
      <use xlink:href="#DejaVuSans-65" x="898.876953"/>
      <use xlink:href="#DejaVuSans-6e" x="960.400391"/>
      <use xlink:href="#DejaVuSans-74" x="1023.779297"/>
     </g>
    </g>
   </g>
   <g id="matplotlib.axis_2">
    <g id="text_13">
     <!-- Predicted label -->
     <g transform="translate(18.398438 239.404207) rotate(-90) scale(0.1 -0.1)">
      <defs>
       <path id="DejaVuSans-50" d="M 1259 4147 
L 1259 2394 
L 2053 2394 
Q 2494 2394 2734 2622 
Q 2975 2850 2975 3272 
Q 2975 3691 2734 3919 
Q 2494 4147 2053 4147 
L 1259 4147 
z
M 628 4666 
L 2053 4666 
Q 2838 4666 3239 4311 
Q 3641 3956 3641 3272 
Q 3641 2581 3239 2228 
Q 2838 1875 2053 1875 
L 1259 1875 
L 1259 0 
L 628 0 
L 628 4666 
z
" transform="scale(0.015625)"/>
       <path id="DejaVuSans-72" d="M 2631 2963 
Q 2534 3019 2420 3045 
Q 2306 3072 2169 3072 
Q 1681 3072 1420 2755 
Q 1159 2438 1159 1844 
L 1159 0 
L 581 0 
L 581 3500 
L 1159 3500 
L 1159 2956 
Q 1341 3275 1631 3429 
Q 1922 3584 2338 3584 
Q 2397 3584 2469 3576 
Q 2541 3569 2628 3553 
L 2631 2963 
z
" transform="scale(0.015625)"/>
       <path id="DejaVuSans-64" d="M 2906 2969 
L 2906 4863 
L 3481 4863 
L 3481 0 
L 2906 0 
L 2906 525 
Q 2725 213 2448 61 
Q 2172 -91 1784 -91 
Q 1150 -91 751 415 
Q 353 922 353 1747 
Q 353 2572 751 3078 
Q 1150 3584 1784 3584 
Q 2172 3584 2448 3432 
Q 2725 3281 2906 2969 
z
M 947 1747 
Q 947 1113 1208 752 
Q 1469 391 1925 391 
Q 2381 391 2643 752 
Q 2906 1113 2906 1747 
Q 2906 2381 2643 2742 
Q 2381 3103 1925 3103 
Q 1469 3103 1208 2742 
Q 947 2381 947 1747 
z
" transform="scale(0.015625)"/>
       <path id="DejaVuSans-61" d="M 2194 1759 
Q 1497 1759 1228 1600 
Q 959 1441 959 1056 
Q 959 750 1161 570 
Q 1363 391 1709 391 
Q 2188 391 2477 730 
Q 2766 1069 2766 1631 
L 2766 1759 
L 2194 1759 
z
M 3341 1997 
L 3341 0 
L 2766 0 
L 2766 531 
Q 2569 213 2275 61 
Q 1981 -91 1556 -91 
Q 1019 -91 701 211 
Q 384 513 384 1019 
Q 384 1609 779 1909 
Q 1175 2209 1959 2209 
L 2766 2209 
L 2766 2266 
Q 2766 2663 2505 2880 
Q 2244 3097 1772 3097 
Q 1472 3097 1187 3025 
Q 903 2953 641 2809 
L 641 3341 
Q 956 3463 1253 3523 
Q 1550 3584 1831 3584 
Q 2591 3584 2966 3190 
Q 3341 2797 3341 1997 
z
" transform="scale(0.015625)"/>
       <path id="DejaVuSans-62" d="M 3116 1747 
Q 3116 2381 2855 2742 
Q 2594 3103 2138 3103 
Q 1681 3103 1420 2742 
Q 1159 2381 1159 1747 
Q 1159 1113 1420 752 
Q 1681 391 2138 391 
Q 2594 391 2855 752 
Q 3116 1113 3116 1747 
z
M 1159 2969 
Q 1341 3281 1617 3432 
Q 1894 3584 2278 3584 
Q 2916 3584 3314 3078 
Q 3713 2572 3713 1747 
Q 3713 922 3314 415 
Q 2916 -91 2278 -91 
Q 1894 -91 1617 61 
Q 1341 213 1159 525 
L 1159 0 
L 581 0 
L 581 4863 
L 1159 4863 
L 1159 2969 
z
" transform="scale(0.015625)"/>
      </defs>
      <use xlink:href="#DejaVuSans-50"/>
      <use xlink:href="#DejaVuSans-72" x="58.552734"/>
      <use xlink:href="#DejaVuSans-65" x="97.416016"/>
      <use xlink:href="#DejaVuSans-64" x="158.939453"/>
      <use xlink:href="#DejaVuSans-69" x="222.416016"/>
      <use xlink:href="#DejaVuSans-63" x="250.199219"/>
      <use xlink:href="#DejaVuSans-74" x="305.179688"/>
      <use xlink:href="#DejaVuSans-65" x="344.388672"/>
      <use xlink:href="#DejaVuSans-64" x="405.912109"/>
      <use xlink:href="#DejaVuSans-20" x="469.388672"/>
      <use xlink:href="#DejaVuSans-6c" x="501.175781"/>
      <use xlink:href="#DejaVuSans-61" x="528.958984"/>
      <use xlink:href="#DejaVuSans-62" x="590.238281"/>
      <use xlink:href="#DejaVuSans-65" x="653.714844"/>
      <use xlink:href="#DejaVuSans-6c" x="715.238281"/>
     </g>
    </g>
   </g>
   <g id="line2d_12">
    <path d="M 574.197292 390.84375 
L 574.197292 13.659976 
" clip-path="url(#p00b6982d29)" style="fill: none; stroke: #ff0000; stroke-width: 1.5; stroke-linecap: square"/>
   </g>
   <g id="patch_3">
    <path d="M 27.978125 390.84375 
L 27.978125 13.659976 
" style="fill: none; stroke: #000000; stroke-width: 0.8; stroke-linejoin: miter; stroke-linecap: square"/>
   </g>
   <g id="patch_4">
    <path d="M 701.248437 390.84375 
L 701.248437 13.659976 
" style="fill: none; stroke: #000000; stroke-width: 0.8; stroke-linejoin: miter; stroke-linecap: square"/>
   </g>
   <g id="patch_5">
    <path d="M 27.978125 390.84375 
L 701.248437 390.84375 
" style="fill: none; stroke: #000000; stroke-width: 0.8; stroke-linejoin: miter; stroke-linecap: square"/>
   </g>
   <g id="patch_6">
    <path d="M 27.978125 13.659976 
L 701.248437 13.659976 
" style="fill: none; stroke: #000000; stroke-width: 0.8; stroke-linejoin: miter; stroke-linecap: square"/>
   </g>
   <g id="text_14">
    <!-- 0 -->
    <g transform="translate(347.781523 331.47223) scale(0.1 -0.1)">
     <use xlink:href="#DejaVuSans-30"/>
    </g>
   </g>
   <g id="text_15">
    <!-- 1 -->
    <g transform="translate(347.781523 145.566837) scale(0.1 -0.1)">
     <use xlink:href="#DejaVuSans-31"/>
    </g>
   </g>
   <g id="text_16">
    <!-- 0.6226 -->
    <g style="fill: #ff0000" transform="translate(591.029049 19.032964) scale(0.1 -0.1)">
     <use xlink:href="#DejaVuSans-30"/>
     <use xlink:href="#DejaVuSans-2e" x="63.623047"/>
     <use xlink:href="#DejaVuSans-36" x="95.410156"/>
     <use xlink:href="#DejaVuSans-32" x="159.033203"/>
     <use xlink:href="#DejaVuSans-32" x="222.65625"/>
     <use xlink:href="#DejaVuSans-36" x="286.279297"/>
    </g>
   </g>
  </g>
 </g>
 <defs>
  <clipPath id="p00b6982d29">
   <rect x="27.978125" y="13.659976" width="673.270312" height="377.183774"/>
  </clipPath>
 </defs>
</svg>
