<?xml version="1.0" encoding="utf-8" standalone="no"?>
<!DOCTYPE svg PUBLIC "-//W3C//DTD SVG 1.1//EN"
  "http://www.w3.org/Graphics/SVG/1.1/DTD/svg11.dtd">
<svg xmlns:xlink="http://www.w3.org/1999/xlink" width="720pt" height="576pt" viewBox="0 0 720 576" xmlns="http://www.w3.org/2000/svg" version="1.1">
 <metadata>
  <rdf:RDF xmlns:dc="http://purl.org/dc/elements/1.1/" xmlns:cc="http://creativecommons.org/ns#" xmlns:rdf="http://www.w3.org/1999/02/22-rdf-syntax-ns#">
   <cc:Work>
    <dc:type rdf:resource="http://purl.org/dc/dcmitype/StillImage"/>
    <dc:date>2022-11-21T18:18:01.073261</dc:date>
    <dc:format>image/svg+xml</dc:format>
    <dc:creator>
     <cc:Agent>
      <dc:title>Matplotlib v3.6.1, https://matplotlib.org/</dc:title>
     </cc:Agent>
    </dc:creator>
   </cc:Work>
  </rdf:RDF>
 </metadata>
 <defs>
  <style type="text/css">*{stroke-linejoin: round; stroke-linecap: butt}</style>
 </defs>
 <g id="figure_1">
  <g id="patch_1">
   <path d="M 0 576 
L 720 576 
L 720 0 
L 0 0 
z
" style="fill: #ffffff"/>
  </g>
  <g id="axes_1">
   <g id="patch_2">
    <path d="M 42.495313 510.648438 
L 693.296875 510.648438 
L 693.296875 23.478145 
L 42.495313 23.478145 
z
" style="fill: #ffffff"/>
   </g>
   <g id="PolyCollection_1">
    <defs>
     <path id="m67ea10bf5f" d="M 407.123324 -72.29131 
L 367.896094 -72.29131 
L 367.896094 -72.985285 
L 367.896094 -73.67926 
L 367.896094 -74.373235 
L 367.896094 -75.067209 
L 367.896094 -75.761184 
L 367.896094 -76.455159 
L 367.896094 -77.149134 
L 367.896094 -77.843108 
L 367.896094 -78.537083 
L 367.896094 -79.231058 
L 367.896094 -79.925033 
L 367.896094 -80.619008 
L 367.896094 -81.312982 
L 367.896094 -82.006957 
L 367.896094 -82.700932 
L 367.896094 -83.394907 
L 367.896094 -84.088881 
L 367.896094 -84.782856 
L 367.896094 -85.476831 
L 367.896094 -86.170806 
L 367.896094 -86.864781 
L 367.896094 -87.558755 
L 367.896094 -88.25273 
L 367.896094 -88.946705 
L 367.896094 -89.64068 
L 367.896094 -90.334654 
L 367.896094 -91.028629 
L 367.896094 -91.722604 
L 367.896094 -92.416579 
L 367.896094 -93.110554 
L 367.896094 -93.804528 
L 367.896094 -94.498503 
L 367.896094 -95.192478 
L 367.896094 -95.886453 
L 367.896094 -96.580427 
L 367.896094 -97.274402 
L 367.896094 -97.968377 
L 367.896094 -98.662352 
L 367.896094 -99.356327 
L 367.896094 -100.050301 
L 367.896094 -100.744276 
L 367.896094 -101.438251 
L 367.896094 -102.132226 
L 367.896094 -102.8262 
L 367.896094 -103.520175 
L 367.896094 -104.21415 
L 367.896094 -104.908125 
L 367.896094 -105.602099 
L 367.896094 -106.296074 
L 367.896094 -106.990049 
L 367.896094 -107.684024 
L 367.896094 -108.377999 
L 367.896094 -109.071973 
L 367.896094 -109.765948 
L 367.896094 -110.459923 
L 367.896094 -111.153898 
L 367.896094 -111.847872 
L 367.896094 -112.541847 
L 367.896094 -113.235822 
L 367.896094 -113.929797 
L 367.896094 -114.623772 
L 367.896094 -115.317746 
L 367.896094 -116.011721 
L 367.896094 -116.705696 
L 367.896094 -117.399671 
L 367.896094 -118.093645 
L 367.896094 -118.78762 
L 367.896094 -119.481595 
L 367.896094 -120.17557 
L 367.896094 -120.869545 
L 367.896094 -121.563519 
L 367.896094 -122.257494 
L 367.896094 -122.951469 
L 367.896094 -123.645444 
L 367.896094 -124.339418 
L 367.896094 -125.033393 
L 367.896094 -125.727368 
L 367.896094 -126.421343 
L 367.896094 -127.115318 
L 367.896094 -127.809292 
L 367.896094 -128.503267 
L 367.896094 -129.197242 
L 367.896094 -129.891217 
L 367.896094 -130.585191 
L 367.896094 -131.279166 
L 367.896094 -131.973141 
L 367.896094 -132.667116 
L 367.896094 -133.361091 
L 367.896094 -134.055065 
L 367.896094 -134.74904 
L 367.896094 -135.443015 
L 367.896094 -136.13699 
L 367.896094 -136.830964 
L 367.896094 -137.524939 
L 367.896094 -138.218914 
L 367.896094 -138.912889 
L 367.896094 -139.606863 
L 367.896094 -140.300838 
L 367.896094 -140.994813 
L 367.896094 -141.688788 
L 367.896094 -142.382763 
L 367.896094 -143.076737 
L 367.896094 -143.770712 
L 367.896094 -144.464687 
L 367.896094 -145.158662 
L 367.896094 -145.852636 
L 367.896094 -146.546611 
L 367.896094 -147.240586 
L 367.896094 -147.934561 
L 367.896094 -148.628536 
L 367.896094 -149.32251 
L 367.896094 -150.016485 
L 367.896094 -150.71046 
L 367.896094 -151.404435 
L 367.896094 -152.098409 
L 367.896094 -152.792384 
L 367.896094 -153.486359 
L 367.896094 -154.180334 
L 367.896094 -154.874309 
L 367.896094 -155.568283 
L 367.896094 -156.262258 
L 367.896094 -156.956233 
L 367.896094 -157.650208 
L 367.896094 -158.344182 
L 367.896094 -159.038157 
L 367.896094 -159.732132 
L 367.896094 -160.426107 
L 367.896094 -161.120082 
L 367.896094 -161.814056 
L 367.896094 -162.508031 
L 367.896094 -163.202006 
L 367.896094 -163.895981 
L 367.896094 -164.589955 
L 367.896094 -165.28393 
L 367.896094 -165.977905 
L 367.896094 -166.67188 
L 367.896094 -167.365855 
L 367.896094 -168.059829 
L 367.896094 -168.753804 
L 367.896094 -169.447779 
L 367.896094 -170.141754 
L 367.896094 -170.835728 
L 367.896094 -171.529703 
L 367.896094 -172.223678 
L 367.896094 -172.917653 
L 367.896094 -173.611627 
L 367.896094 -174.305602 
L 367.896094 -174.999577 
L 367.896094 -175.693552 
L 367.896094 -176.387527 
L 367.896094 -177.081501 
L 367.896094 -177.775476 
L 367.896094 -178.469451 
L 367.896094 -179.163426 
L 367.896094 -179.8574 
L 367.896094 -180.551375 
L 367.896094 -181.24535 
L 367.896094 -181.939325 
L 367.896094 -182.6333 
L 367.896094 -183.327274 
L 367.896094 -184.021249 
L 367.896094 -184.715224 
L 367.896094 -185.409199 
L 367.896094 -186.103173 
L 367.896094 -186.797148 
L 367.896094 -187.491123 
L 367.896094 -188.185098 
L 367.896094 -188.879073 
L 367.896094 -189.573047 
L 367.896094 -190.267022 
L 367.896094 -190.960997 
L 367.896094 -191.654972 
L 367.896094 -192.348946 
L 367.896094 -193.042921 
L 367.896094 -193.736896 
L 367.896094 -194.430871 
L 367.896094 -195.124846 
L 367.896094 -195.81882 
L 367.896094 -196.512795 
L 367.896094 -197.20677 
L 367.896094 -197.900745 
L 367.896094 -198.594719 
L 367.896094 -199.288694 
L 367.896094 -199.982669 
L 367.896094 -200.676644 
L 367.896094 -201.370619 
L 367.896094 -202.064593 
L 367.896094 -202.758568 
L 367.896094 -203.452543 
L 367.896094 -204.146518 
L 367.896094 -204.840492 
L 367.896094 -205.534467 
L 367.896094 -206.228442 
L 367.896094 -206.922417 
L 367.896094 -207.616391 
L 367.896094 -208.310366 
L 367.896094 -209.004341 
L 367.896094 -209.698316 
L 367.896094 -210.392291 
L 367.896094 -211.086265 
L 540.797787 -211.086265 
L 540.797787 -211.086265 
L 539.454018 -210.392291 
L 538.299077 -209.698316 
L 538.296751 -209.004341 
L 538.066142 -208.310366 
L 537.810805 -207.616391 
L 535.806497 -206.922417 
L 535.384171 -206.228442 
L 535.359576 -205.534467 
L 534.576266 -204.840492 
L 533.968747 -204.146518 
L 533.645527 -203.452543 
L 533.618529 -202.758568 
L 532.277888 -202.064593 
L 532.048497 -201.370619 
L 532.038274 -200.676644 
L 531.895609 -199.982669 
L 530.877717 -199.288694 
L 530.816864 -198.594719 
L 530.456741 -197.900745 
L 528.532997 -197.20677 
L 528.350315 -196.512795 
L 527.912174 -195.81882 
L 527.721903 -195.124846 
L 527.377604 -194.430871 
L 527.237132 -193.736896 
L 526.768965 -193.042921 
L 526.649499 -192.348946 
L 526.620473 -191.654972 
L 526.587659 -190.960997 
L 525.899527 -190.267022 
L 525.697027 -189.573047 
L 525.267006 -188.879073 
L 525.13567 -188.185098 
L 524.715055 -187.491123 
L 524.659738 -186.797148 
L 524.472754 -186.103173 
L 524.368854 -185.409199 
L 524.232132 -184.715224 
L 524.208768 -184.021249 
L 524.172312 -183.327274 
L 524.136691 -182.6333 
L 524.12465 -181.939325 
L 524.065685 -181.24535 
L 523.681167 -180.551375 
L 523.411641 -179.8574 
L 523.360149 -179.163426 
L 523.270956 -178.469451 
L 523.265135 -177.775476 
L 523.047032 -177.081501 
L 522.916912 -176.387527 
L 522.795231 -175.693552 
L 522.741601 -174.999577 
L 522.445124 -174.305602 
L 521.87029 -173.611627 
L 521.768419 -172.917653 
L 521.698514 -172.223678 
L 521.34181 -171.529703 
L 521.325478 -170.835728 
L 521.150163 -170.141754 
L 520.952579 -169.447779 
L 520.792071 -168.753804 
L 520.562574 -168.059829 
L 520.523363 -167.365855 
L 520.339325 -166.67188 
L 520.162315 -165.977905 
L 519.754657 -165.28393 
L 519.380007 -164.589955 
L 519.266248 -163.895981 
L 519.174882 -163.202006 
L 519.086534 -162.508031 
L 518.945256 -161.814056 
L 518.792704 -161.120082 
L 518.742503 -160.426107 
L 518.486656 -159.732132 
L 518.116945 -159.038157 
L 518.03055 -158.344182 
L 517.48351 -157.650208 
L 517.436739 -156.956233 
L 516.954815 -156.262258 
L 516.022764 -155.568283 
L 515.762768 -154.874309 
L 515.114435 -154.180334 
L 514.84464 -153.486359 
L 514.838467 -152.792384 
L 514.592073 -152.098409 
L 514.046615 -151.404435 
L 513.884772 -150.71046 
L 513.80683 -150.016485 
L 513.802885 -149.32251 
L 513.168195 -148.628536 
L 512.894733 -147.934561 
L 512.673069 -147.240586 
L 512.648884 -146.546611 
L 512.454123 -145.852636 
L 512.380298 -145.158662 
L 512.171632 -144.464687 
L 512.050909 -143.770712 
L 511.936457 -143.076737 
L 511.37769 -142.382763 
L 510.916811 -141.688788 
L 510.489328 -140.994813 
L 509.546092 -140.300838 
L 508.99176 -139.606863 
L 508.852017 -138.912889 
L 508.816211 -138.218914 
L 508.814231 -137.524939 
L 508.600116 -136.830964 
L 507.980029 -136.13699 
L 507.819464 -135.443015 
L 507.613259 -134.74904 
L 507.43061 -134.055065 
L 507.365051 -133.361091 
L 507.265823 -132.667116 
L 507.00886 -131.973141 
L 506.700628 -131.279166 
L 506.261496 -130.585191 
L 505.153595 -129.891217 
L 505.137894 -129.197242 
L 504.585375 -128.503267 
L 504.251339 -127.809292 
L 504.194635 -127.115318 
L 503.689309 -126.421343 
L 503.535996 -125.727368 
L 503.180732 -125.033393 
L 503.037083 -124.339418 
L 502.703025 -123.645444 
L 502.577941 -122.951469 
L 502.201665 -122.257494 
L 501.96158 -121.563519 
L 501.870093 -120.869545 
L 501.842322 -120.17557 
L 501.427547 -119.481595 
L 500.882701 -118.78762 
L 500.792182 -118.093645 
L 499.326687 -117.399671 
L 499.210337 -116.705696 
L 498.455212 -116.011721 
L 498.181317 -115.317746 
L 497.83411 -114.623772 
L 497.748928 -113.929797 
L 497.302265 -113.235822 
L 496.524293 -112.541847 
L 496.283283 -111.847872 
L 496.241192 -111.153898 
L 495.692161 -110.459923 
L 494.952501 -109.765948 
L 494.845893 -109.071973 
L 494.736631 -108.377999 
L 491.785528 -107.684024 
L 491.707087 -106.990049 
L 490.922796 -106.296074 
L 490.776612 -105.602099 
L 489.623198 -104.908125 
L 488.217167 -104.21415 
L 487.794311 -103.520175 
L 487.251098 -102.8262 
L 487.145219 -102.132226 
L 485.847898 -101.438251 
L 485.231816 -100.744276 
L 483.423399 -100.050301 
L 483.280449 -99.356327 
L 482.106131 -98.662352 
L 481.805612 -97.968377 
L 480.662182 -97.274402 
L 480.256807 -96.580427 
L 478.557491 -95.886453 
L 477.409164 -95.192478 
L 477.148127 -94.498503 
L 477.018191 -93.804528 
L 475.707858 -93.110554 
L 475.213322 -92.416579 
L 474.998511 -91.722604 
L 474.902337 -91.028629 
L 474.281585 -90.334654 
L 472.036343 -89.64068 
L 469.367291 -88.946705 
L 469.142943 -88.25273 
L 468.077997 -87.558755 
L 466.912783 -86.864781 
L 466.232808 -86.170806 
L 465.421649 -85.476831 
L 464.974843 -84.782856 
L 464.673662 -84.088881 
L 463.182666 -83.394907 
L 460.278437 -82.700932 
L 458.908247 -82.006957 
L 458.674387 -81.312982 
L 457.759568 -80.619008 
L 457.525029 -79.925033 
L 456.800962 -79.231058 
L 453.035599 -78.537083 
L 452.883121 -77.843108 
L 445.934506 -77.149134 
L 443.17783 -76.455159 
L 439.481559 -75.761184 
L 431.457824 -75.067209 
L 423.104619 -74.373235 
L 421.483053 -73.67926 
L 409.284893 -72.985285 
L 407.123324 -72.29131 
z
" style="stroke: #000000; stroke-opacity: 0.7"/>
    </defs>
    <g clip-path="url(#p603ef0982f)">
     <use xlink:href="#m67ea10bf5f" x="0" y="576" style="fill-opacity: 0.7; stroke: #000000; stroke-opacity: 0.7"/>
    </g>
   </g>
   <g id="PolyCollection_2">
    <defs>
     <path id="med9e58476a" d="M 554.938973 -218.719988 
L 367.896094 -218.719988 
L 367.896094 -219.413963 
L 367.896094 -220.107937 
L 367.896094 -220.801912 
L 367.896094 -221.495887 
L 367.896094 -222.189862 
L 367.896094 -222.883837 
L 367.896094 -223.577811 
L 367.896094 -224.271786 
L 367.896094 -224.965761 
L 367.896094 -225.659736 
L 367.896094 -226.35371 
L 367.896094 -227.047685 
L 367.896094 -227.74166 
L 367.896094 -228.435635 
L 367.896094 -229.12961 
L 367.896094 -229.823584 
L 367.896094 -230.517559 
L 367.896094 -231.211534 
L 367.896094 -231.905509 
L 367.896094 -232.599483 
L 367.896094 -233.293458 
L 367.896094 -233.987433 
L 367.896094 -234.681408 
L 367.896094 -235.375383 
L 367.896094 -236.069357 
L 367.896094 -236.763332 
L 367.896094 -237.457307 
L 367.896094 -238.151282 
L 367.896094 -238.845256 
L 367.896094 -239.539231 
L 367.896094 -240.233206 
L 367.896094 -240.927181 
L 367.896094 -241.621156 
L 367.896094 -242.31513 
L 367.896094 -243.009105 
L 367.896094 -243.70308 
L 367.896094 -244.397055 
L 367.896094 -245.091029 
L 367.896094 -245.785004 
L 367.896094 -246.478979 
L 367.896094 -247.172954 
L 367.896094 -247.866928 
L 367.896094 -248.560903 
L 367.896094 -249.254878 
L 367.896094 -249.948853 
L 367.896094 -250.642828 
L 367.896094 -251.336802 
L 367.896094 -252.030777 
L 367.896094 -252.724752 
L 367.896094 -253.418727 
L 367.896094 -254.112701 
L 367.896094 -254.806676 
L 367.896094 -255.500651 
L 367.896094 -256.194626 
L 367.896094 -256.888601 
L 367.896094 -257.582575 
L 367.896094 -258.27655 
L 367.896094 -258.970525 
L 367.896094 -259.6645 
L 367.896094 -260.358474 
L 367.896094 -261.052449 
L 367.896094 -261.746424 
L 367.896094 -262.440399 
L 367.896094 -263.134374 
L 367.896094 -263.828348 
L 367.896094 -264.522323 
L 367.896094 -265.216298 
L 367.896094 -265.910273 
L 367.896094 -266.604247 
L 367.896094 -267.298222 
L 367.896094 -267.992197 
L 367.896094 -268.686172 
L 367.896094 -269.380147 
L 367.896094 -270.074121 
L 367.896094 -270.768096 
L 367.896094 -271.462071 
L 367.896094 -272.156046 
L 367.896094 -272.85002 
L 367.896094 -273.543995 
L 367.896094 -274.23797 
L 367.896094 -274.931945 
L 367.896094 -275.62592 
L 367.896094 -276.319894 
L 367.896094 -277.013869 
L 367.896094 -277.707844 
L 367.896094 -278.401819 
L 367.896094 -279.095793 
L 367.896094 -279.789768 
L 367.896094 -280.483743 
L 367.896094 -281.177718 
L 367.896094 -281.871692 
L 367.896094 -282.565667 
L 367.896094 -283.259642 
L 367.896094 -283.953617 
L 367.896094 -284.647592 
L 367.896094 -285.341566 
L 367.896094 -286.035541 
L 367.896094 -286.729516 
L 367.896094 -287.423491 
L 367.896094 -288.117465 
L 367.896094 -288.81144 
L 367.896094 -289.505415 
L 367.896094 -290.19939 
L 367.896094 -290.893365 
L 367.896094 -291.587339 
L 367.896094 -292.281314 
L 367.896094 -292.975289 
L 367.896094 -293.669264 
L 367.896094 -294.363238 
L 367.896094 -295.057213 
L 367.896094 -295.751188 
L 367.896094 -296.445163 
L 367.896094 -297.139138 
L 367.896094 -297.833112 
L 367.896094 -298.527087 
L 367.896094 -299.221062 
L 367.896094 -299.915037 
L 367.896094 -300.609011 
L 367.896094 -301.302986 
L 367.896094 -301.996961 
L 367.896094 -302.690936 
L 367.896094 -303.384911 
L 367.896094 -304.078885 
L 367.896094 -304.77286 
L 367.896094 -305.466835 
L 367.896094 -306.16081 
L 367.896094 -306.854784 
L 367.896094 -307.548759 
L 367.896094 -308.242734 
L 367.896094 -308.936709 
L 367.896094 -309.630684 
L 367.896094 -310.324658 
L 367.896094 -311.018633 
L 367.896094 -311.712608 
L 367.896094 -312.406583 
L 367.896094 -313.100557 
L 367.896094 -313.794532 
L 367.896094 -314.488507 
L 367.896094 -315.182482 
L 367.896094 -315.876456 
L 367.896094 -316.570431 
L 367.896094 -317.264406 
L 367.896094 -317.958381 
L 367.896094 -318.652356 
L 367.896094 -319.34633 
L 367.896094 -320.040305 
L 367.896094 -320.73428 
L 367.896094 -321.428255 
L 367.896094 -322.122229 
L 367.896094 -322.816204 
L 367.896094 -323.510179 
L 367.896094 -324.204154 
L 367.896094 -324.898129 
L 367.896094 -325.592103 
L 367.896094 -326.286078 
L 367.896094 -326.980053 
L 367.896094 -327.674028 
L 367.896094 -328.368002 
L 367.896094 -329.061977 
L 367.896094 -329.755952 
L 367.896094 -330.449927 
L 367.896094 -331.143902 
L 367.896094 -331.837876 
L 367.896094 -332.531851 
L 367.896094 -333.225826 
L 367.896094 -333.919801 
L 367.896094 -334.613775 
L 367.896094 -335.30775 
L 367.896094 -336.001725 
L 367.896094 -336.6957 
L 367.896094 -337.389675 
L 367.896094 -338.083649 
L 367.896094 -338.777624 
L 367.896094 -339.471599 
L 367.896094 -340.165574 
L 367.896094 -340.859548 
L 367.896094 -341.553523 
L 367.896094 -342.247498 
L 367.896094 -342.941473 
L 367.896094 -343.635448 
L 367.896094 -344.329422 
L 367.896094 -345.023397 
L 367.896094 -345.717372 
L 367.896094 -346.411347 
L 367.896094 -347.105321 
L 367.896094 -347.799296 
L 367.896094 -348.493271 
L 367.896094 -349.187246 
L 367.896094 -349.88122 
L 367.896094 -350.575195 
L 367.896094 -351.26917 
L 367.896094 -351.963145 
L 367.896094 -352.65712 
L 367.896094 -353.351094 
L 367.896094 -354.045069 
L 367.896094 -354.739044 
L 367.896094 -355.433019 
L 367.896094 -356.126993 
L 367.896094 -356.820968 
L 367.896094 -357.514943 
L 367.896094 -358.208918 
L 367.896094 -358.902893 
L 367.896094 -359.596867 
L 367.896094 -360.290842 
L 367.896094 -360.984817 
L 367.896094 -361.678792 
L 367.896094 -362.372766 
L 367.896094 -363.066741 
L 367.896094 -363.760716 
L 367.896094 -364.454691 
L 367.896094 -365.148666 
L 367.896094 -365.84264 
L 367.896094 -366.536615 
L 367.896094 -367.23059 
L 367.896094 -367.924565 
L 367.896094 -368.618539 
L 367.896094 -369.312514 
L 367.896094 -370.006489 
L 367.896094 -370.700464 
L 367.896094 -371.394439 
L 367.896094 -372.088413 
L 367.896094 -372.782388 
L 367.896094 -373.476363 
L 367.896094 -374.170338 
L 367.896094 -374.864312 
L 367.896094 -375.558287 
L 367.896094 -376.252262 
L 367.896094 -376.946237 
L 367.896094 -377.640212 
L 367.896094 -378.334186 
L 367.896094 -379.028161 
L 367.896094 -379.722136 
L 367.896094 -380.416111 
L 367.896094 -381.110085 
L 367.896094 -381.80406 
L 367.896094 -382.498035 
L 367.896094 -383.19201 
L 367.896094 -383.885984 
L 367.896094 -384.579959 
L 367.896094 -385.273934 
L 367.896094 -385.967909 
L 367.896094 -386.661884 
L 367.896094 -387.355858 
L 367.896094 -388.049833 
L 367.896094 -388.743808 
L 367.896094 -389.437783 
L 367.896094 -390.131757 
L 367.896094 -390.825732 
L 367.896094 -391.519707 
L 367.896094 -392.213682 
L 367.896094 -392.907657 
L 367.896094 -393.601631 
L 367.896094 -394.295606 
L 367.896094 -394.989581 
L 367.896094 -395.683556 
L 367.896094 -396.37753 
L 367.896094 -397.071505 
L 367.896094 -397.76548 
L 367.896094 -398.459455 
L 367.896094 -399.15343 
L 367.896094 -399.847404 
L 367.896094 -400.541379 
L 367.896094 -401.235354 
L 367.896094 -401.929329 
L 367.896094 -402.623303 
L 367.896094 -403.317278 
L 367.896094 -404.011253 
L 367.896094 -404.705228 
L 367.896094 -405.399203 
L 367.896094 -406.093177 
L 367.896094 -406.787152 
L 367.896094 -407.481127 
L 367.896094 -408.175102 
L 367.896094 -408.869076 
L 367.896094 -409.563051 
L 367.896094 -410.257026 
L 367.896094 -410.951001 
L 367.896094 -411.644976 
L 367.896094 -412.33895 
L 367.896094 -413.032925 
L 367.896094 -413.7269 
L 367.896094 -414.420875 
L 367.896094 -415.114849 
L 367.896094 -415.808824 
L 367.896094 -416.502799 
L 367.896094 -417.196774 
L 367.896094 -417.890749 
L 367.896094 -418.584723 
L 367.896094 -419.278698 
L 367.896094 -419.972673 
L 367.896094 -420.666648 
L 367.896094 -421.360622 
L 367.896094 -422.054597 
L 367.896094 -422.748572 
L 367.896094 -423.442547 
L 367.896094 -424.136521 
L 367.896094 -424.830496 
L 367.896094 -425.524471 
L 367.896094 -426.218446 
L 367.896094 -426.912421 
L 367.896094 -427.606395 
L 367.896094 -428.30037 
L 367.896094 -428.994345 
L 367.896094 -429.68832 
L 367.896094 -430.382294 
L 367.896094 -431.076269 
L 367.896094 -431.770244 
L 367.896094 -432.464219 
L 367.896094 -433.158194 
L 367.896094 -433.852168 
L 367.896094 -434.546143 
L 367.896094 -435.240118 
L 367.896094 -435.934093 
L 367.896094 -436.628067 
L 367.896094 -437.322042 
L 367.896094 -438.016017 
L 367.896094 -438.709992 
L 367.896094 -439.403967 
L 367.896094 -440.097941 
L 367.896094 -440.791916 
L 367.896094 -441.485891 
L 367.896094 -442.179866 
L 367.896094 -442.87384 
L 367.896094 -443.567815 
L 367.896094 -444.26179 
L 367.896094 -444.955765 
L 367.896094 -445.64974 
L 367.896094 -446.343714 
L 367.896094 -447.037689 
L 367.896094 -447.731664 
L 367.896094 -448.425639 
L 367.896094 -449.119613 
L 367.896094 -449.813588 
L 367.896094 -450.507563 
L 367.896094 -451.201538 
L 367.896094 -451.895513 
L 367.896094 -452.589487 
L 367.896094 -453.283462 
L 367.896094 -453.977437 
L 367.896094 -454.671412 
L 367.896094 -455.365386 
L 367.896094 -456.059361 
L 367.896094 -456.753336 
L 367.896094 -457.447311 
L 367.896094 -458.141285 
L 367.896094 -458.83526 
L 367.896094 -459.529235 
L 367.896094 -460.22321 
L 367.896094 -460.917185 
L 367.896094 -461.611159 
L 367.896094 -462.305134 
L 367.896094 -462.999109 
L 367.896094 -463.693084 
L 367.896094 -464.387058 
L 367.896094 -465.081033 
L 367.896094 -465.775008 
L 367.896094 -466.468983 
L 367.896094 -467.162958 
L 367.896094 -467.856932 
L 367.896094 -468.550907 
L 367.896094 -469.244882 
L 367.896094 -469.938857 
L 367.896094 -470.632831 
L 367.896094 -471.326806 
L 367.896094 -472.020781 
L 367.896094 -472.714756 
L 367.896094 -473.408731 
L 367.896094 -474.102705 
L 367.896094 -474.79668 
L 367.896094 -475.490655 
L 367.896094 -476.18463 
L 367.896094 -476.878604 
L 367.896094 -477.572579 
L 367.896094 -478.266554 
L 367.896094 -478.960529 
L 367.896094 -479.654504 
L 367.896094 -480.348478 
L 367.896094 -481.042453 
L 367.896094 -481.736428 
L 367.896094 -482.430403 
L 367.896094 -483.124377 
L 367.896094 -483.818352 
L 367.896094 -484.512327 
L 367.896094 -485.206302 
L 367.896094 -485.900277 
L 367.896094 -486.594251 
L 367.896094 -487.288226 
L 367.896094 -487.982201 
L 367.896094 -488.676176 
L 367.896094 -489.37015 
L 367.896094 -490.064125 
L 367.896094 -490.7581 
L 367.896094 -491.452075 
L 367.896094 -492.146049 
L 367.896094 -492.840024 
L 367.896094 -493.533999 
L 367.896094 -494.227974 
L 367.896094 -494.921949 
L 367.896094 -495.615923 
L 367.896094 -496.309898 
L 367.896094 -497.003873 
L 367.896094 -497.697848 
L 367.896094 -498.391822 
L 367.896094 -499.085797 
L 367.896094 -499.779772 
L 367.896094 -500.473747 
L 367.896094 -501.167722 
L 367.896094 -501.861696 
L 367.896094 -502.555671 
L 367.896094 -503.249646 
L 367.896094 -503.943621 
L 367.896094 -504.637595 
L 367.896094 -505.33157 
L 367.896094 -506.025545 
L 367.896094 -506.71952 
L 367.896094 -507.413495 
L 367.896094 -508.107469 
L 367.896094 -508.801444 
L 367.896094 -509.495419 
L 367.896094 -510.189394 
L 367.896094 -510.883368 
L 367.896094 -511.577343 
L 367.896094 -512.271318 
L 367.896094 -512.965293 
L 367.896094 -513.659268 
L 367.896094 -514.353242 
L 367.896094 -515.047217 
L 367.896094 -515.741192 
L 367.896094 -516.435167 
L 367.896094 -517.129141 
L 367.896094 -517.823116 
L 367.896094 -518.517091 
L 367.896094 -519.211066 
L 367.896094 -519.905041 
L 367.896094 -520.599015 
L 367.896094 -521.29299 
L 367.896094 -521.986965 
L 367.896094 -522.68094 
L 367.896094 -523.374914 
L 367.896094 -524.068889 
L 367.896094 -524.762864 
L 367.896094 -525.456839 
L 367.896094 -526.150813 
L 367.896094 -526.844788 
L 367.896094 -527.538763 
L 367.896094 -528.232738 
L 367.896094 -528.926713 
L 367.896094 -529.620687 
L 367.896094 -530.314662 
L 367.896094 -531.008637 
L 367.896094 -531.702612 
L 367.896094 -532.396586 
L 367.896094 -533.090561 
L 367.896094 -533.784536 
L 367.896094 -534.478511 
L 367.896094 -535.172486 
L 367.896094 -535.86646 
L 367.896094 -536.560435 
L 367.896094 -537.25441 
L 367.896094 -537.948385 
L 367.896094 -538.642359 
L 367.896094 -539.336334 
L 367.896094 -540.030309 
L 367.896094 -540.724284 
L 367.896094 -541.418259 
L 367.896094 -542.112233 
L 367.896094 -542.806208 
L 367.896094 -543.500183 
L 367.896094 -544.194158 
L 367.896094 -544.888132 
L 618.904882 -544.888132 
L 618.904882 -544.888132 
L 618.757707 -544.194158 
L 618.514081 -543.500183 
L 618.443995 -542.806208 
L 617.951119 -542.112233 
L 617.476656 -541.418259 
L 616.821687 -540.724284 
L 616.568741 -540.030309 
L 616.300899 -539.336334 
L 615.907525 -538.642359 
L 615.702996 -537.948385 
L 615.657397 -537.25441 
L 615.628545 -536.560435 
L 615.50968 -535.86646 
L 615.438476 -535.172486 
L 615.370505 -534.478511 
L 615.238403 -533.784536 
L 615.138366 -533.090561 
L 614.942269 -532.396586 
L 614.825102 -531.702612 
L 614.791827 -531.008637 
L 614.392103 -530.314662 
L 614.293609 -529.620687 
L 614.265577 -528.926713 
L 614.204728 -528.232738 
L 614.053805 -527.538763 
L 613.760113 -526.844788 
L 613.710216 -526.150813 
L 613.61824 -525.456839 
L 613.590929 -524.762864 
L 613.567027 -524.068889 
L 613.542655 -523.374914 
L 613.417953 -522.68094 
L 613.406253 -521.986965 
L 613.143895 -521.29299 
L 613.08999 -520.599015 
L 612.997873 -519.905041 
L 612.948103 -519.211066 
L 612.855347 -518.517091 
L 612.741019 -517.823116 
L 612.702805 -517.129141 
L 612.670425 -516.435167 
L 612.623137 -515.741192 
L 612.46249 -515.047217 
L 612.316989 -514.353242 
L 612.307127 -513.659268 
L 612.248278 -512.965293 
L 612.248278 -512.271318 
L 612.221476 -511.577343 
L 612.216747 -510.883368 
L 612.124559 -510.189394 
L 612.091805 -509.495419 
L 612.091805 -508.801444 
L 612.038359 -508.107469 
L 611.969286 -507.413495 
L 611.784486 -506.71952 
L 611.6877 -506.025545 
L 611.606985 -505.33157 
L 611.50678 -504.637595 
L 611.459067 -503.943621 
L 611.269134 -503.249646 
L 611.269134 -502.555671 
L 611.259205 -501.861696 
L 611.184932 -501.167722 
L 611.183028 -500.473747 
L 611.171018 -499.779772 
L 611.115018 -499.085797 
L 611.115018 -498.391822 
L 611.052701 -497.697848 
L 610.929226 -497.003873 
L 610.848103 -496.309898 
L 610.786062 -495.615923 
L 610.678357 -494.921949 
L 610.652274 -494.227974 
L 610.648002 -493.533999 
L 610.615525 -492.840024 
L 610.586135 -492.146049 
L 610.574453 -491.452075 
L 610.574453 -490.7581 
L 610.516109 -490.064125 
L 610.50193 -489.37015 
L 610.467488 -488.676176 
L 610.358924 -487.982201 
L 610.319061 -487.288226 
L 610.281022 -486.594251 
L 610.273273 -485.900277 
L 610.247192 -485.206302 
L 610.164238 -484.512327 
L 610.159788 -483.818352 
L 610.094162 -483.124377 
L 610.074674 -482.430403 
L 609.922942 -481.736428 
L 609.857162 -481.042453 
L 609.813842 -480.348478 
L 609.573111 -479.654504 
L 609.462475 -478.960529 
L 609.411917 -478.266554 
L 609.389179 -477.572579 
L 609.379408 -476.878604 
L 609.374851 -476.18463 
L 609.273189 -475.490655 
L 609.272537 -474.79668 
L 609.259856 -474.102705 
L 609.259498 -473.408731 
L 609.253622 -472.714756 
L 609.153497 -472.020781 
L 609.144462 -471.326806 
L 609.084679 -470.632831 
L 609.033221 -469.938857 
L 608.866351 -469.244882 
L 608.776878 -468.550907 
L 608.737141 -467.856932 
L 608.722784 -467.162958 
L 608.722784 -466.468983 
L 608.530701 -465.775008 
L 608.50795 -465.081033 
L 608.492341 -464.387058 
L 608.331704 -463.693084 
L 608.308669 -462.999109 
L 608.243187 -462.305134 
L 608.192718 -461.611159 
L 608.135936 -460.917185 
L 608.125099 -460.22321 
L 608.087996 -459.529235 
L 607.96808 -458.83526 
L 607.96477 -458.141285 
L 607.741408 -457.447311 
L 607.635142 -456.753336 
L 607.615964 -456.059361 
L 607.600598 -455.365386 
L 607.472758 -454.671412 
L 607.446799 -453.977437 
L 607.445597 -453.283462 
L 607.417238 -452.589487 
L 607.347022 -451.895513 
L 607.273013 -451.201538 
L 607.184391 -450.507563 
L 607.16857 -449.813588 
L 607.002245 -449.119613 
L 606.894228 -448.425639 
L 606.83355 -447.731664 
L 606.829917 -447.037689 
L 606.540647 -446.343714 
L 606.465241 -445.64974 
L 606.41994 -444.955765 
L 606.410087 -444.26179 
L 606.388852 -443.567815 
L 606.351085 -442.87384 
L 606.3372 -442.179866 
L 606.308439 -441.485891 
L 606.302222 -440.791916 
L 606.207892 -440.097941 
L 606.122448 -439.403967 
L 606.029151 -438.709992 
L 605.829361 -438.016017 
L 605.801155 -437.322042 
L 605.769749 -436.628067 
L 605.714878 -435.934093 
L 605.624541 -435.240118 
L 605.617013 -434.546143 
L 605.504638 -433.852168 
L 605.485859 -433.158194 
L 605.453618 -432.464219 
L 605.291005 -431.770244 
L 605.270202 -431.076269 
L 605.229185 -430.382294 
L 605.219058 -429.68832 
L 605.042975 -428.994345 
L 604.840993 -428.30037 
L 604.771213 -427.606395 
L 604.717822 -426.912421 
L 604.57469 -426.218446 
L 604.377562 -425.524471 
L 604.341057 -424.830496 
L 604.255932 -424.136521 
L 604.212956 -423.442547 
L 604.147244 -422.748572 
L 604.137987 -422.054597 
L 604.09514 -421.360622 
L 604.057494 -420.666648 
L 604.050006 -419.972673 
L 603.980367 -419.278698 
L 603.883744 -418.584723 
L 603.683358 -417.890749 
L 603.655124 -417.196774 
L 603.64909 -416.502799 
L 603.376765 -415.808824 
L 603.183448 -415.114849 
L 603.143016 -414.420875 
L 603.121408 -413.7269 
L 603.066775 -413.032925 
L 602.96989 -412.33895 
L 602.957748 -411.644976 
L 602.928503 -410.951001 
L 602.920716 -410.257026 
L 602.866246 -409.563051 
L 602.785147 -408.869076 
L 602.612619 -408.175102 
L 602.594329 -407.481127 
L 602.512603 -406.787152 
L 602.437092 -406.093177 
L 602.234343 -405.399203 
L 602.227476 -404.705228 
L 602.041376 -404.011253 
L 602.026713 -403.317278 
L 601.988881 -402.623303 
L 601.844052 -401.929329 
L 601.823632 -401.235354 
L 601.779594 -400.541379 
L 601.714278 -399.847404 
L 601.66477 -399.15343 
L 601.605621 -398.459455 
L 601.57561 -397.76548 
L 601.365125 -397.071505 
L 601.357901 -396.37753 
L 601.347974 -395.683556 
L 601.03892 -394.989581 
L 600.992942 -394.295606 
L 600.971391 -393.601631 
L 600.923362 -392.907657 
L 600.872917 -392.213682 
L 600.728833 -391.519707 
L 600.634311 -390.825732 
L 600.631256 -390.131757 
L 600.579047 -389.437783 
L 600.558904 -388.743808 
L 600.515005 -388.049833 
L 600.504206 -387.355858 
L 600.324084 -386.661884 
L 600.268661 -385.967909 
L 600.219713 -385.273934 
L 600.175479 -384.579959 
L 600.174472 -383.885984 
L 600.115614 -383.19201 
L 600.020876 -382.498035 
L 600.016628 -381.80406 
L 599.959668 -381.110085 
L 599.942161 -380.416111 
L 599.924052 -379.722136 
L 599.868802 -379.028161 
L 599.769769 -378.334186 
L 599.679144 -377.640212 
L 599.671374 -376.946237 
L 599.667829 -376.252262 
L 599.623893 -375.558287 
L 599.562341 -374.864312 
L 599.546211 -374.170338 
L 599.534735 -373.476363 
L 599.467268 -372.782388 
L 599.449175 -372.088413 
L 599.384211 -371.394439 
L 599.332695 -370.700464 
L 599.323609 -370.006489 
L 599.30007 -369.312514 
L 599.191076 -368.618539 
L 599.179927 -367.924565 
L 599.164348 -367.23059 
L 599.101982 -366.536615 
L 599.014067 -365.84264 
L 599.001054 -365.148666 
L 598.992844 -364.454691 
L 598.942144 -363.760716 
L 598.905626 -363.066741 
L 598.738799 -362.372766 
L 598.736696 -361.678792 
L 598.655165 -360.984817 
L 598.630858 -360.290842 
L 598.628777 -359.596867 
L 598.627487 -358.902893 
L 598.540854 -358.208918 
L 598.472593 -357.514943 
L 598.297799 -356.820968 
L 597.920038 -356.126993 
L 597.890466 -355.433019 
L 597.878495 -354.739044 
L 597.787487 -354.045069 
L 597.66848 -353.351094 
L 597.66848 -352.65712 
L 597.655898 -351.963145 
L 597.654836 -351.26917 
L 597.63536 -350.575195 
L 597.473624 -349.88122 
L 597.42407 -349.187246 
L 597.316809 -348.493271 
L 597.247084 -347.799296 
L 597.192815 -347.105321 
L 597.054542 -346.411347 
L 596.8403 -345.717372 
L 596.732688 -345.023397 
L 596.639521 -344.329422 
L 596.487174 -343.635448 
L 596.399717 -342.941473 
L 596.352907 -342.247498 
L 596.185194 -341.553523 
L 595.924067 -340.859548 
L 595.899202 -340.165574 
L 595.877168 -339.471599 
L 595.634463 -338.777624 
L 595.497049 -338.083649 
L 595.493875 -337.389675 
L 595.438066 -336.6957 
L 595.366423 -336.001725 
L 595.354952 -335.30775 
L 595.1378 -334.613775 
L 595.122 -333.919801 
L 595.077129 -333.225826 
L 595.073045 -332.531851 
L 594.949119 -331.837876 
L 594.928306 -331.143902 
L 594.807445 -330.449927 
L 594.786758 -329.755952 
L 594.776688 -329.061977 
L 594.684044 -328.368002 
L 594.669021 -327.674028 
L 594.662471 -326.980053 
L 594.566786 -326.286078 
L 594.557749 -325.592103 
L 594.478837 -324.898129 
L 594.20092 -324.204154 
L 594.11861 -323.510179 
L 594.054914 -322.816204 
L 593.909311 -322.122229 
L 593.727403 -321.428255 
L 593.663033 -320.73428 
L 593.61415 -320.040305 
L 593.567376 -319.34633 
L 593.553934 -318.652356 
L 593.537408 -317.958381 
L 593.456241 -317.264406 
L 593.252938 -316.570431 
L 593.242084 -315.876456 
L 593.233976 -315.182482 
L 592.736533 -314.488507 
L 592.564526 -313.794532 
L 592.407066 -313.100557 
L 592.098716 -312.406583 
L 591.859364 -311.712608 
L 591.828342 -311.018633 
L 591.819434 -310.324658 
L 591.707032 -309.630684 
L 591.707015 -308.936709 
L 591.636094 -308.242734 
L 591.495178 -307.548759 
L 591.384645 -306.854784 
L 591.382871 -306.16081 
L 591.265097 -305.466835 
L 591.222105 -304.77286 
L 591.187011 -304.078885 
L 591.036935 -303.384911 
L 591.012243 -302.690936 
L 590.83832 -301.996961 
L 590.782597 -301.302986 
L 590.739543 -300.609011 
L 590.737725 -299.915037 
L 590.606126 -299.221062 
L 590.481199 -298.527087 
L 590.439322 -297.833112 
L 590.339642 -297.139138 
L 590.314047 -296.445163 
L 590.198975 -295.751188 
L 590.077748 -295.057213 
L 590.026032 -294.363238 
L 589.981731 -293.669264 
L 589.882906 -292.975289 
L 589.817891 -292.281314 
L 589.733131 -291.587339 
L 589.583467 -290.893365 
L 589.525991 -290.19939 
L 589.523245 -289.505415 
L 589.34663 -288.81144 
L 589.323611 -288.117465 
L 589.282124 -287.423491 
L 589.242641 -286.729516 
L 589.22935 -286.035541 
L 589.134851 -285.341566 
L 589.092744 -284.647592 
L 589.038618 -283.953617 
L 588.999793 -283.259642 
L 588.755656 -282.565667 
L 588.695722 -281.871692 
L 588.682777 -281.177718 
L 588.413074 -280.483743 
L 588.217398 -279.789768 
L 587.894518 -279.095793 
L 587.851902 -278.401819 
L 587.662773 -277.707844 
L 587.593404 -277.013869 
L 587.467816 -276.319894 
L 587.363646 -275.62592 
L 587.300859 -274.931945 
L 587.200902 -274.23797 
L 587.129629 -273.543995 
L 587.123688 -272.85002 
L 587.102037 -272.156046 
L 587.0925 -271.462071 
L 587.082979 -270.768096 
L 586.941504 -270.074121 
L 586.936125 -269.380147 
L 586.923091 -268.686172 
L 586.713104 -267.992197 
L 586.219997 -267.298222 
L 586.207864 -266.604247 
L 585.774763 -265.910273 
L 585.73971 -265.216298 
L 585.596009 -264.522323 
L 585.517774 -263.828348 
L 585.127331 -263.134374 
L 585.100906 -262.440399 
L 584.965092 -261.746424 
L 584.907158 -261.052449 
L 584.589962 -260.358474 
L 584.51183 -259.6645 
L 584.458976 -258.970525 
L 584.416053 -258.27655 
L 584.411272 -257.582575 
L 584.119443 -256.888601 
L 583.975494 -256.194626 
L 583.923289 -255.500651 
L 583.886626 -254.806676 
L 583.876929 -254.112701 
L 583.757125 -253.418727 
L 583.59337 -252.724752 
L 583.548628 -252.030777 
L 583.402087 -251.336802 
L 583.209647 -250.642828 
L 583.118807 -249.948853 
L 582.967752 -249.254878 
L 582.866553 -248.560903 
L 582.548868 -247.866928 
L 582.49405 -247.172954 
L 582.295452 -246.478979 
L 582.185364 -245.785004 
L 582.134359 -245.091029 
L 581.988826 -244.397055 
L 581.959559 -243.70308 
L 581.80317 -243.009105 
L 581.633178 -242.31513 
L 581.505591 -241.621156 
L 581.425226 -240.927181 
L 581.40564 -240.233206 
L 581.236105 -239.539231 
L 581.091636 -238.845256 
L 581.029476 -238.151282 
L 580.869682 -237.457307 
L 580.818444 -236.763332 
L 580.777327 -236.069357 
L 580.229593 -235.375383 
L 579.672766 -234.681408 
L 579.338423 -233.987433 
L 579.126305 -233.293458 
L 578.96481 -232.599483 
L 578.964193 -231.905509 
L 578.58082 -231.211534 
L 578.362936 -230.517559 
L 577.164709 -229.823584 
L 577.026946 -229.12961 
L 576.870213 -228.435635 
L 576.523672 -227.74166 
L 575.410023 -227.047685 
L 574.82443 -226.35371 
L 573.406219 -225.659736 
L 573.017136 -224.965761 
L 571.780079 -224.271786 
L 571.444358 -223.577811 
L 571.234689 -222.883837 
L 570.242469 -222.189862 
L 569.514538 -221.495887 
L 569.266335 -220.801912 
L 567.916625 -220.107937 
L 561.277861 -219.413963 
L 554.938973 -218.719988 
z
" style="stroke: #00bc00; stroke-opacity: 0.7"/>
    </defs>
    <g clip-path="url(#p603ef0982f)">
     <use xlink:href="#med9e58476a" x="0" y="576" style="fill: #00bc00; fill-opacity: 0.7; stroke: #00bc00; stroke-opacity: 0.7"/>
    </g>
   </g>
   <g id="matplotlib.axis_1">
    <g id="xtick_1">
     <g id="line2d_1">
      <defs>
       <path id="mc15de79dd3" d="M 0 0 
L 0 3.5 
" style="stroke: #000000; stroke-width: 0.8"/>
      </defs>
      <g>
       <use xlink:href="#mc15de79dd3" x="42.495313" y="510.648438" style="stroke: #000000; stroke-width: 0.8"/>
      </g>
     </g>
     <g id="text_1">
      <!-- −1.0 -->
      <g transform="translate(18.2125 532.845312) scale(0.2 -0.2)">
       <defs>
        <path id="DejaVuSans-2212" d="M 678 2272 
L 4684 2272 
L 4684 1741 
L 678 1741 
L 678 2272 
z
" transform="scale(0.015625)"/>
        <path id="DejaVuSans-31" d="M 794 531 
L 1825 531 
L 1825 4091 
L 703 3866 
L 703 4441 
L 1819 4666 
L 2450 4666 
L 2450 531 
L 3481 531 
L 3481 0 
L 794 0 
L 794 531 
z
" transform="scale(0.015625)"/>
        <path id="DejaVuSans-2e" d="M 684 794 
L 1344 794 
L 1344 0 
L 684 0 
L 684 794 
z
" transform="scale(0.015625)"/>
        <path id="DejaVuSans-30" d="M 2034 4250 
Q 1547 4250 1301 3770 
Q 1056 3291 1056 2328 
Q 1056 1369 1301 889 
Q 1547 409 2034 409 
Q 2525 409 2770 889 
Q 3016 1369 3016 2328 
Q 3016 3291 2770 3770 
Q 2525 4250 2034 4250 
z
M 2034 4750 
Q 2819 4750 3233 4129 
Q 3647 3509 3647 2328 
Q 3647 1150 3233 529 
Q 2819 -91 2034 -91 
Q 1250 -91 836 529 
Q 422 1150 422 2328 
Q 422 3509 836 4129 
Q 1250 4750 2034 4750 
z
" transform="scale(0.015625)"/>
       </defs>
       <use xlink:href="#DejaVuSans-2212"/>
       <use xlink:href="#DejaVuSans-31" x="83.789062"/>
       <use xlink:href="#DejaVuSans-2e" x="147.412109"/>
       <use xlink:href="#DejaVuSans-30" x="179.199219"/>
      </g>
     </g>
    </g>
    <g id="xtick_2">
     <g id="line2d_2">
      <g>
       <use xlink:href="#mc15de79dd3" x="107.575469" y="510.648438" style="stroke: #000000; stroke-width: 0.8"/>
      </g>
     </g>
     <g id="text_2">
      <!-- −0.8 -->
      <g transform="translate(83.292656 532.845312) scale(0.2 -0.2)">
       <defs>
        <path id="DejaVuSans-38" d="M 2034 2216 
Q 1584 2216 1326 1975 
Q 1069 1734 1069 1313 
Q 1069 891 1326 650 
Q 1584 409 2034 409 
Q 2484 409 2743 651 
Q 3003 894 3003 1313 
Q 3003 1734 2745 1975 
Q 2488 2216 2034 2216 
z
M 1403 2484 
Q 997 2584 770 2862 
Q 544 3141 544 3541 
Q 544 4100 942 4425 
Q 1341 4750 2034 4750 
Q 2731 4750 3128 4425 
Q 3525 4100 3525 3541 
Q 3525 3141 3298 2862 
Q 3072 2584 2669 2484 
Q 3125 2378 3379 2068 
Q 3634 1759 3634 1313 
Q 3634 634 3220 271 
Q 2806 -91 2034 -91 
Q 1263 -91 848 271 
Q 434 634 434 1313 
Q 434 1759 690 2068 
Q 947 2378 1403 2484 
z
M 1172 3481 
Q 1172 3119 1398 2916 
Q 1625 2713 2034 2713 
Q 2441 2713 2670 2916 
Q 2900 3119 2900 3481 
Q 2900 3844 2670 4047 
Q 2441 4250 2034 4250 
Q 1625 4250 1398 4047 
Q 1172 3844 1172 3481 
z
" transform="scale(0.015625)"/>
       </defs>
       <use xlink:href="#DejaVuSans-2212"/>
       <use xlink:href="#DejaVuSans-30" x="83.789062"/>
       <use xlink:href="#DejaVuSans-2e" x="147.412109"/>
       <use xlink:href="#DejaVuSans-38" x="179.199219"/>
      </g>
     </g>
    </g>
    <g id="xtick_3">
     <g id="line2d_3">
      <g>
       <use xlink:href="#mc15de79dd3" x="172.655625" y="510.648438" style="stroke: #000000; stroke-width: 0.8"/>
      </g>
     </g>
     <g id="text_3">
      <!-- −0.6 -->
      <g transform="translate(148.372813 532.845312) scale(0.2 -0.2)">
       <defs>
        <path id="DejaVuSans-36" d="M 2113 2584 
Q 1688 2584 1439 2293 
Q 1191 2003 1191 1497 
Q 1191 994 1439 701 
Q 1688 409 2113 409 
Q 2538 409 2786 701 
Q 3034 994 3034 1497 
Q 3034 2003 2786 2293 
Q 2538 2584 2113 2584 
z
M 3366 4563 
L 3366 3988 
Q 3128 4100 2886 4159 
Q 2644 4219 2406 4219 
Q 1781 4219 1451 3797 
Q 1122 3375 1075 2522 
Q 1259 2794 1537 2939 
Q 1816 3084 2150 3084 
Q 2853 3084 3261 2657 
Q 3669 2231 3669 1497 
Q 3669 778 3244 343 
Q 2819 -91 2113 -91 
Q 1303 -91 875 529 
Q 447 1150 447 2328 
Q 447 3434 972 4092 
Q 1497 4750 2381 4750 
Q 2619 4750 2861 4703 
Q 3103 4656 3366 4563 
z
" transform="scale(0.015625)"/>
       </defs>
       <use xlink:href="#DejaVuSans-2212"/>
       <use xlink:href="#DejaVuSans-30" x="83.789062"/>
       <use xlink:href="#DejaVuSans-2e" x="147.412109"/>
       <use xlink:href="#DejaVuSans-36" x="179.199219"/>
      </g>
     </g>
    </g>
    <g id="xtick_4">
     <g id="line2d_4">
      <g>
       <use xlink:href="#mc15de79dd3" x="237.735781" y="510.648438" style="stroke: #000000; stroke-width: 0.8"/>
      </g>
     </g>
     <g id="text_4">
      <!-- −0.4 -->
      <g transform="translate(213.452969 532.845312) scale(0.2 -0.2)">
       <defs>
        <path id="DejaVuSans-34" d="M 2419 4116 
L 825 1625 
L 2419 1625 
L 2419 4116 
z
M 2253 4666 
L 3047 4666 
L 3047 1625 
L 3713 1625 
L 3713 1100 
L 3047 1100 
L 3047 0 
L 2419 0 
L 2419 1100 
L 313 1100 
L 313 1709 
L 2253 4666 
z
" transform="scale(0.015625)"/>
       </defs>
       <use xlink:href="#DejaVuSans-2212"/>
       <use xlink:href="#DejaVuSans-30" x="83.789062"/>
       <use xlink:href="#DejaVuSans-2e" x="147.412109"/>
       <use xlink:href="#DejaVuSans-34" x="179.199219"/>
      </g>
     </g>
    </g>
    <g id="xtick_5">
     <g id="line2d_5">
      <g>
       <use xlink:href="#mc15de79dd3" x="302.815937" y="510.648438" style="stroke: #000000; stroke-width: 0.8"/>
      </g>
     </g>
     <g id="text_5">
      <!-- −0.2 -->
      <g transform="translate(278.533125 532.845312) scale(0.2 -0.2)">
       <defs>
        <path id="DejaVuSans-32" d="M 1228 531 
L 3431 531 
L 3431 0 
L 469 0 
L 469 531 
Q 828 903 1448 1529 
Q 2069 2156 2228 2338 
Q 2531 2678 2651 2914 
Q 2772 3150 2772 3378 
Q 2772 3750 2511 3984 
Q 2250 4219 1831 4219 
Q 1534 4219 1204 4116 
Q 875 4013 500 3803 
L 500 4441 
Q 881 4594 1212 4672 
Q 1544 4750 1819 4750 
Q 2544 4750 2975 4387 
Q 3406 4025 3406 3419 
Q 3406 3131 3298 2873 
Q 3191 2616 2906 2266 
Q 2828 2175 2409 1742 
Q 1991 1309 1228 531 
z
" transform="scale(0.015625)"/>
       </defs>
       <use xlink:href="#DejaVuSans-2212"/>
       <use xlink:href="#DejaVuSans-30" x="83.789062"/>
       <use xlink:href="#DejaVuSans-2e" x="147.412109"/>
       <use xlink:href="#DejaVuSans-32" x="179.199219"/>
      </g>
     </g>
    </g>
    <g id="xtick_6">
     <g id="line2d_6">
      <g>
       <use xlink:href="#mc15de79dd3" x="367.896094" y="510.648438" style="stroke: #000000; stroke-width: 0.8"/>
      </g>
     </g>
     <g id="text_6">
      <!-- 0.0 -->
      <g transform="translate(351.992969 532.845312) scale(0.2 -0.2)">
       <use xlink:href="#DejaVuSans-30"/>
       <use xlink:href="#DejaVuSans-2e" x="63.623047"/>
       <use xlink:href="#DejaVuSans-30" x="95.410156"/>
      </g>
     </g>
    </g>
    <g id="xtick_7">
     <g id="line2d_7">
      <g>
       <use xlink:href="#mc15de79dd3" x="432.97625" y="510.648438" style="stroke: #000000; stroke-width: 0.8"/>
      </g>
     </g>
     <g id="text_7">
      <!-- 0.2 -->
      <g transform="translate(417.073125 532.845312) scale(0.2 -0.2)">
       <use xlink:href="#DejaVuSans-30"/>
       <use xlink:href="#DejaVuSans-2e" x="63.623047"/>
       <use xlink:href="#DejaVuSans-32" x="95.410156"/>
      </g>
     </g>
    </g>
    <g id="xtick_8">
     <g id="line2d_8">
      <g>
       <use xlink:href="#mc15de79dd3" x="498.056406" y="510.648438" style="stroke: #000000; stroke-width: 0.8"/>
      </g>
     </g>
     <g id="text_8">
      <!-- 0.4 -->
      <g transform="translate(482.153281 532.845312) scale(0.2 -0.2)">
       <use xlink:href="#DejaVuSans-30"/>
       <use xlink:href="#DejaVuSans-2e" x="63.623047"/>
       <use xlink:href="#DejaVuSans-34" x="95.410156"/>
      </g>
     </g>
    </g>
    <g id="xtick_9">
     <g id="line2d_9">
      <g>
       <use xlink:href="#mc15de79dd3" x="563.136562" y="510.648438" style="stroke: #000000; stroke-width: 0.8"/>
      </g>
     </g>
     <g id="text_9">
      <!-- 0.6 -->
      <g transform="translate(547.233437 532.845312) scale(0.2 -0.2)">
       <use xlink:href="#DejaVuSans-30"/>
       <use xlink:href="#DejaVuSans-2e" x="63.623047"/>
       <use xlink:href="#DejaVuSans-36" x="95.410156"/>
      </g>
     </g>
    </g>
    <g id="xtick_10">
     <g id="line2d_10">
      <g>
       <use xlink:href="#mc15de79dd3" x="628.216719" y="510.648438" style="stroke: #000000; stroke-width: 0.8"/>
      </g>
     </g>
     <g id="text_10">
      <!-- 0.8 -->
      <g transform="translate(612.313594 532.845312) scale(0.2 -0.2)">
       <use xlink:href="#DejaVuSans-30"/>
       <use xlink:href="#DejaVuSans-2e" x="63.623047"/>
       <use xlink:href="#DejaVuSans-38" x="95.410156"/>
      </g>
     </g>
    </g>
    <g id="xtick_11">
     <g id="line2d_11">
      <g>
       <use xlink:href="#mc15de79dd3" x="693.296875" y="510.648438" style="stroke: #000000; stroke-width: 0.8"/>
      </g>
     </g>
     <g id="text_11">
      <!-- 1.0 -->
      <g transform="translate(677.39375 532.845312) scale(0.2 -0.2)">
       <use xlink:href="#DejaVuSans-31"/>
       <use xlink:href="#DejaVuSans-2e" x="63.623047"/>
       <use xlink:href="#DejaVuSans-30" x="95.410156"/>
      </g>
     </g>
    </g>
    <g id="text_12">
     <!-- Silhouette coefficient -->
     <g transform="translate(235.021094 560.000781) scale(0.25 -0.25)">
      <defs>
       <path id="DejaVuSans-53" d="M 3425 4513 
L 3425 3897 
Q 3066 4069 2747 4153 
Q 2428 4238 2131 4238 
Q 1616 4238 1336 4038 
Q 1056 3838 1056 3469 
Q 1056 3159 1242 3001 
Q 1428 2844 1947 2747 
L 2328 2669 
Q 3034 2534 3370 2195 
Q 3706 1856 3706 1288 
Q 3706 609 3251 259 
Q 2797 -91 1919 -91 
Q 1588 -91 1214 -16 
Q 841 59 441 206 
L 441 856 
Q 825 641 1194 531 
Q 1563 422 1919 422 
Q 2459 422 2753 634 
Q 3047 847 3047 1241 
Q 3047 1584 2836 1778 
Q 2625 1972 2144 2069 
L 1759 2144 
Q 1053 2284 737 2584 
Q 422 2884 422 3419 
Q 422 4038 858 4394 
Q 1294 4750 2059 4750 
Q 2388 4750 2728 4690 
Q 3069 4631 3425 4513 
z
" transform="scale(0.015625)"/>
       <path id="DejaVuSans-69" d="M 603 3500 
L 1178 3500 
L 1178 0 
L 603 0 
L 603 3500 
z
M 603 4863 
L 1178 4863 
L 1178 4134 
L 603 4134 
L 603 4863 
z
" transform="scale(0.015625)"/>
       <path id="DejaVuSans-6c" d="M 603 4863 
L 1178 4863 
L 1178 0 
L 603 0 
L 603 4863 
z
" transform="scale(0.015625)"/>
       <path id="DejaVuSans-68" d="M 3513 2113 
L 3513 0 
L 2938 0 
L 2938 2094 
Q 2938 2591 2744 2837 
Q 2550 3084 2163 3084 
Q 1697 3084 1428 2787 
Q 1159 2491 1159 1978 
L 1159 0 
L 581 0 
L 581 4863 
L 1159 4863 
L 1159 2956 
Q 1366 3272 1645 3428 
Q 1925 3584 2291 3584 
Q 2894 3584 3203 3211 
Q 3513 2838 3513 2113 
z
" transform="scale(0.015625)"/>
       <path id="DejaVuSans-6f" d="M 1959 3097 
Q 1497 3097 1228 2736 
Q 959 2375 959 1747 
Q 959 1119 1226 758 
Q 1494 397 1959 397 
Q 2419 397 2687 759 
Q 2956 1122 2956 1747 
Q 2956 2369 2687 2733 
Q 2419 3097 1959 3097 
z
M 1959 3584 
Q 2709 3584 3137 3096 
Q 3566 2609 3566 1747 
Q 3566 888 3137 398 
Q 2709 -91 1959 -91 
Q 1206 -91 779 398 
Q 353 888 353 1747 
Q 353 2609 779 3096 
Q 1206 3584 1959 3584 
z
" transform="scale(0.015625)"/>
       <path id="DejaVuSans-75" d="M 544 1381 
L 544 3500 
L 1119 3500 
L 1119 1403 
Q 1119 906 1312 657 
Q 1506 409 1894 409 
Q 2359 409 2629 706 
Q 2900 1003 2900 1516 
L 2900 3500 
L 3475 3500 
L 3475 0 
L 2900 0 
L 2900 538 
Q 2691 219 2414 64 
Q 2138 -91 1772 -91 
Q 1169 -91 856 284 
Q 544 659 544 1381 
z
M 1991 3584 
L 1991 3584 
z
" transform="scale(0.015625)"/>
       <path id="DejaVuSans-65" d="M 3597 1894 
L 3597 1613 
L 953 1613 
Q 991 1019 1311 708 
Q 1631 397 2203 397 
Q 2534 397 2845 478 
Q 3156 559 3463 722 
L 3463 178 
Q 3153 47 2828 -22 
Q 2503 -91 2169 -91 
Q 1331 -91 842 396 
Q 353 884 353 1716 
Q 353 2575 817 3079 
Q 1281 3584 2069 3584 
Q 2775 3584 3186 3129 
Q 3597 2675 3597 1894 
z
M 3022 2063 
Q 3016 2534 2758 2815 
Q 2500 3097 2075 3097 
Q 1594 3097 1305 2825 
Q 1016 2553 972 2059 
L 3022 2063 
z
" transform="scale(0.015625)"/>
       <path id="DejaVuSans-74" d="M 1172 4494 
L 1172 3500 
L 2356 3500 
L 2356 3053 
L 1172 3053 
L 1172 1153 
Q 1172 725 1289 603 
Q 1406 481 1766 481 
L 2356 481 
L 2356 0 
L 1766 0 
Q 1100 0 847 248 
Q 594 497 594 1153 
L 594 3053 
L 172 3053 
L 172 3500 
L 594 3500 
L 594 4494 
L 1172 4494 
z
" transform="scale(0.015625)"/>
       <path id="DejaVuSans-20" transform="scale(0.015625)"/>
       <path id="DejaVuSans-63" d="M 3122 3366 
L 3122 2828 
Q 2878 2963 2633 3030 
Q 2388 3097 2138 3097 
Q 1578 3097 1268 2742 
Q 959 2388 959 1747 
Q 959 1106 1268 751 
Q 1578 397 2138 397 
Q 2388 397 2633 464 
Q 2878 531 3122 666 
L 3122 134 
Q 2881 22 2623 -34 
Q 2366 -91 2075 -91 
Q 1284 -91 818 406 
Q 353 903 353 1747 
Q 353 2603 823 3093 
Q 1294 3584 2113 3584 
Q 2378 3584 2631 3529 
Q 2884 3475 3122 3366 
z
" transform="scale(0.015625)"/>
       <path id="DejaVuSans-66" d="M 2375 4863 
L 2375 4384 
L 1825 4384 
Q 1516 4384 1395 4259 
Q 1275 4134 1275 3809 
L 1275 3500 
L 2222 3500 
L 2222 3053 
L 1275 3053 
L 1275 0 
L 697 0 
L 697 3053 
L 147 3053 
L 147 3500 
L 697 3500 
L 697 3744 
Q 697 4328 969 4595 
Q 1241 4863 1831 4863 
L 2375 4863 
z
" transform="scale(0.015625)"/>
       <path id="DejaVuSans-6e" d="M 3513 2113 
L 3513 0 
L 2938 0 
L 2938 2094 
Q 2938 2591 2744 2837 
Q 2550 3084 2163 3084 
Q 1697 3084 1428 2787 
Q 1159 2491 1159 1978 
L 1159 0 
L 581 0 
L 581 3500 
L 1159 3500 
L 1159 2956 
Q 1366 3272 1645 3428 
Q 1925 3584 2291 3584 
Q 2894 3584 3203 3211 
Q 3513 2838 3513 2113 
z
" transform="scale(0.015625)"/>
      </defs>
      <use xlink:href="#DejaVuSans-53"/>
      <use xlink:href="#DejaVuSans-69" x="63.476562"/>
      <use xlink:href="#DejaVuSans-6c" x="91.259766"/>
      <use xlink:href="#DejaVuSans-68" x="119.042969"/>
      <use xlink:href="#DejaVuSans-6f" x="182.421875"/>
      <use xlink:href="#DejaVuSans-75" x="243.603516"/>
      <use xlink:href="#DejaVuSans-65" x="306.982422"/>
      <use xlink:href="#DejaVuSans-74" x="368.505859"/>
      <use xlink:href="#DejaVuSans-74" x="407.714844"/>
      <use xlink:href="#DejaVuSans-65" x="446.923828"/>
      <use xlink:href="#DejaVuSans-20" x="508.447266"/>
      <use xlink:href="#DejaVuSans-63" x="540.234375"/>
      <use xlink:href="#DejaVuSans-6f" x="595.214844"/>
      <use xlink:href="#DejaVuSans-65" x="656.396484"/>
      <use xlink:href="#DejaVuSans-66" x="717.919922"/>
      <use xlink:href="#DejaVuSans-66" x="753.125"/>
      <use xlink:href="#DejaVuSans-69" x="788.330078"/>
      <use xlink:href="#DejaVuSans-63" x="816.113281"/>
      <use xlink:href="#DejaVuSans-69" x="871.09375"/>
      <use xlink:href="#DejaVuSans-65" x="898.876953"/>
      <use xlink:href="#DejaVuSans-6e" x="960.400391"/>
      <use xlink:href="#DejaVuSans-74" x="1023.779297"/>
     </g>
    </g>
   </g>
   <g id="matplotlib.axis_2">
    <g id="text_13">
     <!-- Predicted label -->
     <g transform="translate(29.796094 359.944151) rotate(-90) scale(0.25 -0.25)">
      <defs>
       <path id="DejaVuSans-50" d="M 1259 4147 
L 1259 2394 
L 2053 2394 
Q 2494 2394 2734 2622 
Q 2975 2850 2975 3272 
Q 2975 3691 2734 3919 
Q 2494 4147 2053 4147 
L 1259 4147 
z
M 628 4666 
L 2053 4666 
Q 2838 4666 3239 4311 
Q 3641 3956 3641 3272 
Q 3641 2581 3239 2228 
Q 2838 1875 2053 1875 
L 1259 1875 
L 1259 0 
L 628 0 
L 628 4666 
z
" transform="scale(0.015625)"/>
       <path id="DejaVuSans-72" d="M 2631 2963 
Q 2534 3019 2420 3045 
Q 2306 3072 2169 3072 
Q 1681 3072 1420 2755 
Q 1159 2438 1159 1844 
L 1159 0 
L 581 0 
L 581 3500 
L 1159 3500 
L 1159 2956 
Q 1341 3275 1631 3429 
Q 1922 3584 2338 3584 
Q 2397 3584 2469 3576 
Q 2541 3569 2628 3553 
L 2631 2963 
z
" transform="scale(0.015625)"/>
       <path id="DejaVuSans-64" d="M 2906 2969 
L 2906 4863 
L 3481 4863 
L 3481 0 
L 2906 0 
L 2906 525 
Q 2725 213 2448 61 
Q 2172 -91 1784 -91 
Q 1150 -91 751 415 
Q 353 922 353 1747 
Q 353 2572 751 3078 
Q 1150 3584 1784 3584 
Q 2172 3584 2448 3432 
Q 2725 3281 2906 2969 
z
M 947 1747 
Q 947 1113 1208 752 
Q 1469 391 1925 391 
Q 2381 391 2643 752 
Q 2906 1113 2906 1747 
Q 2906 2381 2643 2742 
Q 2381 3103 1925 3103 
Q 1469 3103 1208 2742 
Q 947 2381 947 1747 
z
" transform="scale(0.015625)"/>
       <path id="DejaVuSans-61" d="M 2194 1759 
Q 1497 1759 1228 1600 
Q 959 1441 959 1056 
Q 959 750 1161 570 
Q 1363 391 1709 391 
Q 2188 391 2477 730 
Q 2766 1069 2766 1631 
L 2766 1759 
L 2194 1759 
z
M 3341 1997 
L 3341 0 
L 2766 0 
L 2766 531 
Q 2569 213 2275 61 
Q 1981 -91 1556 -91 
Q 1019 -91 701 211 
Q 384 513 384 1019 
Q 384 1609 779 1909 
Q 1175 2209 1959 2209 
L 2766 2209 
L 2766 2266 
Q 2766 2663 2505 2880 
Q 2244 3097 1772 3097 
Q 1472 3097 1187 3025 
Q 903 2953 641 2809 
L 641 3341 
Q 956 3463 1253 3523 
Q 1550 3584 1831 3584 
Q 2591 3584 2966 3190 
Q 3341 2797 3341 1997 
z
" transform="scale(0.015625)"/>
       <path id="DejaVuSans-62" d="M 3116 1747 
Q 3116 2381 2855 2742 
Q 2594 3103 2138 3103 
Q 1681 3103 1420 2742 
Q 1159 2381 1159 1747 
Q 1159 1113 1420 752 
Q 1681 391 2138 391 
Q 2594 391 2855 752 
Q 3116 1113 3116 1747 
z
M 1159 2969 
Q 1341 3281 1617 3432 
Q 1894 3584 2278 3584 
Q 2916 3584 3314 3078 
Q 3713 2572 3713 1747 
Q 3713 922 3314 415 
Q 2916 -91 2278 -91 
Q 1894 -91 1617 61 
Q 1341 213 1159 525 
L 1159 0 
L 581 0 
L 581 4863 
L 1159 4863 
L 1159 2969 
z
" transform="scale(0.015625)"/>
      </defs>
      <use xlink:href="#DejaVuSans-50"/>
      <use xlink:href="#DejaVuSans-72" x="58.552734"/>
      <use xlink:href="#DejaVuSans-65" x="97.416016"/>
      <use xlink:href="#DejaVuSans-64" x="158.939453"/>
      <use xlink:href="#DejaVuSans-69" x="222.416016"/>
      <use xlink:href="#DejaVuSans-63" x="250.199219"/>
      <use xlink:href="#DejaVuSans-74" x="305.179688"/>
      <use xlink:href="#DejaVuSans-65" x="344.388672"/>
      <use xlink:href="#DejaVuSans-64" x="405.912109"/>
      <use xlink:href="#DejaVuSans-20" x="469.388672"/>
      <use xlink:href="#DejaVuSans-6c" x="501.175781"/>
      <use xlink:href="#DejaVuSans-61" x="528.958984"/>
      <use xlink:href="#DejaVuSans-62" x="590.238281"/>
      <use xlink:href="#DejaVuSans-65" x="653.714844"/>
      <use xlink:href="#DejaVuSans-6c" x="715.238281"/>
     </g>
    </g>
   </g>
   <g id="line2d_12">
    <path d="M 570.48575 510.648438 
L 570.48575 23.478145 
" clip-path="url(#p603ef0982f)" style="fill: none; stroke: #ff0000; stroke-width: 4; stroke-linecap: square"/>
   </g>
   <g id="patch_3">
    <path d="M 42.495313 510.648438 
L 42.495313 23.478145 
" style="fill: none; stroke: #000000; stroke-width: 0.8; stroke-linejoin: miter; stroke-linecap: square"/>
   </g>
   <g id="patch_4">
    <path d="M 693.296875 510.648438 
L 693.296875 23.478145 
" style="fill: none; stroke: #000000; stroke-width: 0.8; stroke-linejoin: miter; stroke-linecap: square"/>
   </g>
   <g id="patch_5">
    <path d="M 42.495313 510.648438 
L 693.296875 510.648438 
" style="fill: none; stroke: #000000; stroke-width: 0.8; stroke-linejoin: miter; stroke-linecap: square"/>
   </g>
   <g id="patch_6">
    <path d="M 42.495313 23.478145 
L 693.296875 23.478145 
" style="fill: none; stroke: #000000; stroke-width: 0.8; stroke-linejoin: miter; stroke-linecap: square"/>
   </g>
   <g id="text_14">
    <!-- 0 -->
    <g transform="translate(351.626055 433.964225) scale(0.25 -0.25)">
     <use xlink:href="#DejaVuSans-30"/>
    </g>
   </g>
   <g id="text_15">
    <!-- 1 -->
    <g transform="translate(351.626055 193.848952) scale(0.25 -0.25)">
     <use xlink:href="#DejaVuSans-31"/>
    </g>
   </g>
   <g id="text_16">
    <!-- 0.6226 -->
    <g style="fill: #ff0000" transform="translate(586.755789 30.417893) scale(0.25 -0.25)">
     <use xlink:href="#DejaVuSans-30"/>
     <use xlink:href="#DejaVuSans-2e" x="63.623047"/>
     <use xlink:href="#DejaVuSans-36" x="95.410156"/>
     <use xlink:href="#DejaVuSans-32" x="159.033203"/>
     <use xlink:href="#DejaVuSans-32" x="222.65625"/>
     <use xlink:href="#DejaVuSans-36" x="286.279297"/>
    </g>
   </g>
  </g>
 </g>
 <defs>
  <clipPath id="p603ef0982f">
   <rect x="42.495313" y="23.478145" width="650.801562" height="487.170292"/>
  </clipPath>
 </defs>
</svg>
