<?xml version="1.0" encoding="utf-8" standalone="no"?>
<!DOCTYPE svg PUBLIC "-//W3C//DTD SVG 1.1//EN"
  "http://www.w3.org/Graphics/SVG/1.1/DTD/svg11.dtd">
<svg xmlns:xlink="http://www.w3.org/1999/xlink" width="720pt" height="576pt" viewBox="0 0 720 576" xmlns="http://www.w3.org/2000/svg" version="1.1">
 <metadata>
  <rdf:RDF xmlns:dc="http://purl.org/dc/elements/1.1/" xmlns:cc="http://creativecommons.org/ns#" xmlns:rdf="http://www.w3.org/1999/02/22-rdf-syntax-ns#">
   <cc:Work>
    <dc:type rdf:resource="http://purl.org/dc/dcmitype/StillImage"/>
    <dc:date>2022-11-21T18:18:01.188566</dc:date>
    <dc:format>image/svg+xml</dc:format>
    <dc:creator>
     <cc:Agent>
      <dc:title>Matplotlib v3.6.1, https://matplotlib.org/</dc:title>
     </cc:Agent>
    </dc:creator>
   </cc:Work>
  </rdf:RDF>
 </metadata>
 <defs>
  <style type="text/css">*{stroke-linejoin: round; stroke-linecap: butt}</style>
 </defs>
 <g id="figure_1">
  <g id="patch_1">
   <path d="M 0 576 
L 720 576 
L 720 0 
L 0 0 
z
" style="fill: #ffffff"/>
  </g>
  <g id="axes_1">
   <g id="patch_2">
    <path d="M 42.495313 510.648438 
L 693.296875 510.648438 
L 693.296875 24.528635 
L 42.495313 24.528635 
z
" style="fill: #ffffff"/>
   </g>
   <g id="PolyCollection_1">
    <defs>
     <path id="md3a8bcee06" d="M 377.490072 -71.124957 
L 367.896094 -71.124957 
L 367.896094 -71.702296 
L 367.896094 -72.279636 
L 367.896094 -72.856975 
L 367.896094 -73.434315 
L 367.896094 -74.011654 
L 367.896094 -74.588993 
L 367.896094 -75.166333 
L 367.896094 -75.743672 
L 367.896094 -76.321012 
L 367.896094 -76.898351 
L 367.896094 -77.475691 
L 367.896094 -78.05303 
L 367.896094 -78.630369 
L 367.896094 -79.207709 
L 367.896094 -79.785048 
L 367.896094 -80.362388 
L 367.896094 -80.939727 
L 367.896094 -81.517067 
L 367.896094 -82.094406 
L 367.896094 -82.671745 
L 367.896094 -83.249085 
L 367.896094 -83.826424 
L 367.896094 -84.403764 
L 367.896094 -84.981103 
L 367.896094 -85.558443 
L 367.896094 -86.135782 
L 367.896094 -86.713122 
L 367.896094 -87.290461 
L 367.896094 -87.8678 
L 367.896094 -88.44514 
L 367.896094 -89.022479 
L 367.896094 -89.599819 
L 367.896094 -90.177158 
L 367.896094 -90.754498 
L 367.896094 -91.331837 
L 367.896094 -91.909176 
L 367.896094 -92.486516 
L 367.896094 -93.063855 
L 367.896094 -93.641195 
L 367.896094 -94.218534 
L 367.896094 -94.795874 
L 367.896094 -95.373213 
L 367.896094 -95.950552 
L 367.896094 -96.527892 
L 367.896094 -97.105231 
L 367.896094 -97.682571 
L 367.896094 -98.25991 
L 367.896094 -98.83725 
L 367.896094 -99.414589 
L 367.896094 -99.991928 
L 367.896094 -100.569268 
L 367.896094 -101.146607 
L 367.896094 -101.723947 
L 367.896094 -102.301286 
L 367.896094 -102.878626 
L 367.896094 -103.455965 
L 367.896094 -104.033304 
L 367.896094 -104.610644 
L 367.896094 -105.187983 
L 367.896094 -105.765323 
L 367.896094 -106.342662 
L 367.896094 -106.920002 
L 367.896094 -107.497341 
L 367.896094 -108.074681 
L 367.896094 -108.65202 
L 367.896094 -109.229359 
L 367.896094 -109.806699 
L 367.896094 -110.384038 
L 367.896094 -110.961378 
L 367.896094 -111.538717 
L 367.896094 -112.116057 
L 367.896094 -112.693396 
L 367.896094 -113.270735 
L 367.896094 -113.848075 
L 367.896094 -114.425414 
L 367.896094 -115.002754 
L 367.896094 -115.580093 
L 367.896094 -116.157433 
L 367.896094 -116.734772 
L 367.896094 -117.312111 
L 367.896094 -117.889451 
L 367.896094 -118.46679 
L 367.896094 -119.04413 
L 367.896094 -119.621469 
L 367.896094 -120.198809 
L 367.896094 -120.776148 
L 541.841309 -120.776148 
L 541.841309 -120.776148 
L 539.961297 -120.198809 
L 538.860129 -119.621469 
L 537.915797 -119.04413 
L 537.893277 -118.46679 
L 537.288893 -117.889451 
L 536.453765 -117.312111 
L 536.360336 -116.734772 
L 536.35546 -116.157433 
L 536.154141 -115.580093 
L 535.303132 -115.002754 
L 534.725335 -114.425414 
L 534.581979 -113.848075 
L 534.393602 -113.270735 
L 534.353564 -112.693396 
L 534.276834 -112.116057 
L 534.069345 -111.538717 
L 533.242033 -110.961378 
L 532.886343 -110.384038 
L 531.902201 -109.806699 
L 531.759241 -109.229359 
L 531.427883 -108.65202 
L 531.249488 -108.074681 
L 531.150764 -107.497341 
L 530.94196 -106.920002 
L 530.737257 -106.342662 
L 529.816549 -105.765323 
L 529.106592 -105.187983 
L 528.511008 -104.610644 
L 528.376999 -104.033304 
L 528.17031 -103.455965 
L 527.508057 -102.878626 
L 526.501702 -102.301286 
L 526.419589 -101.723947 
L 525.581626 -101.146607 
L 525.560744 -100.569268 
L 525.366024 -99.991928 
L 524.618883 -99.414589 
L 524.344505 -98.83725 
L 524.278301 -98.25991 
L 522.139897 -97.682571 
L 522.040835 -97.105231 
L 521.882677 -96.527892 
L 521.685406 -95.950552 
L 521.548564 -95.373213 
L 521.393483 -94.795874 
L 521.245428 -94.218534 
L 520.585415 -93.641195 
L 520.488463 -93.063855 
L 520.306981 -92.486516 
L 520.146021 -91.909176 
L 519.827047 -91.331837 
L 519.529163 -90.754498 
L 518.488709 -90.177158 
L 518.270252 -89.599819 
L 517.602135 -89.022479 
L 517.409414 -88.44514 
L 513.427402 -87.8678 
L 512.779945 -87.290461 
L 512.639193 -86.713122 
L 512.623542 -86.135782 
L 510.989926 -85.558443 
L 509.981253 -84.981103 
L 509.389561 -84.403764 
L 509.016213 -83.826424 
L 508.115695 -83.249085 
L 507.283597 -82.671745 
L 507.238491 -82.094406 
L 507.072742 -81.517067 
L 506.286526 -80.939727 
L 505.563081 -80.362388 
L 504.819874 -79.785048 
L 503.151692 -79.207709 
L 501.316856 -78.630369 
L 499.583687 -78.05303 
L 499.481338 -77.475691 
L 491.643558 -76.898351 
L 485.251752 -76.321012 
L 480.005025 -75.743672 
L 466.875906 -75.166333 
L 465.36605 -74.588993 
L 464.443781 -74.011654 
L 456.022052 -73.434315 
L 448.702011 -72.856975 
L 448.640941 -72.279636 
L 427.013471 -71.702296 
L 377.490072 -71.124957 
z
" style="stroke: #000000; stroke-opacity: 0.7"/>
    </defs>
    <g clip-path="url(#p3c46b5a50c)">
     <use xlink:href="#md3a8bcee06" x="0" y="576" style="fill-opacity: 0.7; stroke: #000000; stroke-opacity: 0.7"/>
    </g>
   </g>
   <g id="PolyCollection_2">
    <defs>
     <path id="m6a9b0cb1d0" d="M 328.191181 -127.126882 
L 367.896094 -127.126882 
L 367.896094 -127.704221 
L 367.896094 -128.281561 
L 367.896094 -128.8589 
L 367.896094 -129.43624 
L 367.896094 -130.013579 
L 367.896094 -130.590918 
L 367.896094 -131.168258 
L 367.896094 -131.745597 
L 367.896094 -132.322937 
L 367.896094 -132.900276 
L 367.896094 -133.477616 
L 367.896094 -134.054955 
L 367.896094 -134.632294 
L 367.896094 -135.209634 
L 367.896094 -135.786973 
L 367.896094 -136.364313 
L 367.896094 -136.941652 
L 367.896094 -137.518992 
L 367.896094 -138.096331 
L 367.896094 -138.67367 
L 367.896094 -139.25101 
L 367.896094 -139.828349 
L 367.896094 -140.405689 
L 367.896094 -140.983028 
L 367.896094 -141.560368 
L 367.896094 -142.137707 
L 367.896094 -142.715046 
L 367.896094 -143.292386 
L 367.896094 -143.869725 
L 367.896094 -144.447065 
L 367.896094 -145.024404 
L 367.896094 -145.601744 
L 367.896094 -146.179083 
L 367.896094 -146.756422 
L 367.896094 -147.333762 
L 367.896094 -147.911101 
L 367.896094 -148.488441 
L 367.896094 -149.06578 
L 367.896094 -149.64312 
L 367.896094 -150.220459 
L 367.896094 -150.797799 
L 367.896094 -151.375138 
L 367.896094 -151.952477 
L 367.896094 -152.529817 
L 367.896094 -153.107156 
L 367.896094 -153.684496 
L 367.896094 -154.261835 
L 367.896094 -154.839175 
L 367.896094 -155.416514 
L 367.896094 -155.993853 
L 367.896094 -156.571193 
L 367.896094 -157.148532 
L 367.896094 -157.725872 
L 367.896094 -158.303211 
L 367.896094 -158.880551 
L 367.896094 -159.45789 
L 367.896094 -160.035229 
L 367.896094 -160.612569 
L 367.896094 -161.189908 
L 367.896094 -161.767248 
L 367.896094 -162.344587 
L 367.896094 -162.921927 
L 367.896094 -163.499266 
L 367.896094 -164.076605 
L 367.896094 -164.653945 
L 367.896094 -165.231284 
L 367.896094 -165.808624 
L 367.896094 -166.385963 
L 367.896094 -166.963303 
L 367.896094 -167.540642 
L 367.896094 -168.117981 
L 367.896094 -168.695321 
L 367.896094 -169.27266 
L 367.896094 -169.85 
L 367.896094 -170.427339 
L 367.896094 -171.004679 
L 367.896094 -171.582018 
L 367.896094 -172.159358 
L 367.896094 -172.736697 
L 367.896094 -173.314036 
L 367.896094 -173.891376 
L 367.896094 -174.468715 
L 367.896094 -175.046055 
L 367.896094 -175.623394 
L 367.896094 -176.200734 
L 367.896094 -176.778073 
L 367.896094 -177.355412 
L 367.896094 -177.932752 
L 367.896094 -178.510091 
L 367.896094 -179.087431 
L 367.896094 -179.66477 
L 367.896094 -180.24211 
L 367.896094 -180.819449 
L 367.896094 -181.396788 
L 367.896094 -181.974128 
L 367.896094 -182.551467 
L 367.896094 -183.128807 
L 367.896094 -183.706146 
L 367.896094 -184.283486 
L 367.896094 -184.860825 
L 535.855849 -184.860825 
L 535.855849 -184.860825 
L 531.029164 -184.283486 
L 530.274766 -183.706146 
L 529.135027 -183.128807 
L 525.583677 -182.551467 
L 525.139881 -181.974128 
L 524.795025 -181.396788 
L 523.599928 -180.819449 
L 523.198705 -180.24211 
L 522.329213 -179.66477 
L 521.535668 -179.087431 
L 520.972152 -178.510091 
L 519.752843 -177.932752 
L 518.818859 -177.355412 
L 518.563055 -176.778073 
L 518.082622 -176.200734 
L 516.88205 -175.623394 
L 515.095659 -175.046055 
L 514.419622 -174.468715 
L 513.865347 -173.891376 
L 513.503192 -173.314036 
L 512.680922 -172.736697 
L 510.580953 -172.159358 
L 510.516488 -171.582018 
L 510.435972 -171.004679 
L 510.408848 -170.427339 
L 510.294438 -169.85 
L 508.45024 -169.27266 
L 507.79815 -168.695321 
L 505.970317 -168.117981 
L 505.469698 -167.540642 
L 505.121168 -166.963303 
L 504.379033 -166.385963 
L 503.890359 -165.808624 
L 503.265716 -165.231284 
L 503.224097 -164.653945 
L 502.977646 -164.076605 
L 501.51201 -163.499266 
L 500.498191 -162.921927 
L 499.149394 -162.344587 
L 497.046671 -161.767248 
L 496.927001 -161.189908 
L 495.869568 -160.612569 
L 494.690625 -160.035229 
L 494.688362 -159.45789 
L 494.287753 -158.880551 
L 493.93429 -158.303211 
L 492.897073 -157.725872 
L 492.61625 -157.148532 
L 492.14349 -156.571193 
L 492.055996 -155.993853 
L 488.78466 -155.416514 
L 487.296973 -154.839175 
L 483.985529 -154.261835 
L 480.510728 -153.684496 
L 478.273128 -153.107156 
L 476.901442 -152.529817 
L 476.616041 -151.952477 
L 476.186866 -151.375138 
L 475.817103 -150.797799 
L 474.73665 -150.220459 
L 473.991606 -149.64312 
L 472.069763 -149.06578 
L 463.690306 -148.488441 
L 462.161253 -147.911101 
L 458.425621 -147.333762 
L 457.392415 -146.756422 
L 456.709644 -146.179083 
L 454.429035 -145.601744 
L 453.299019 -145.024404 
L 447.879343 -144.447065 
L 443.577251 -143.869725 
L 443.064766 -143.292386 
L 442.790253 -142.715046 
L 439.742968 -142.137707 
L 436.172268 -141.560368 
L 435.384277 -140.983028 
L 430.740872 -140.405689 
L 429.562069 -139.828349 
L 429.533988 -139.25101 
L 425.853133 -138.67367 
L 424.15318 -138.096331 
L 423.818122 -137.518992 
L 421.7602 -136.941652 
L 419.926586 -136.364313 
L 416.09155 -135.786973 
L 404.60374 -135.209634 
L 403.771031 -134.632294 
L 401.597069 -134.054955 
L 398.637098 -133.477616 
L 396.575677 -132.900276 
L 393.035183 -132.322937 
L 390.612537 -131.745597 
L 389.715865 -131.168258 
L 384.532419 -130.590918 
L 379.495542 -130.013579 
L 371.160731 -129.43624 
L 359.626643 -128.8589 
L 348.818509 -128.281561 
L 332.124797 -127.704221 
L 328.191181 -127.126882 
z
" style="stroke: #7b008c; stroke-opacity: 0.7"/>
    </defs>
    <g clip-path="url(#p3c46b5a50c)">
     <use xlink:href="#m6a9b0cb1d0" x="0" y="576" style="fill: #7b008c; fill-opacity: 0.7; stroke: #7b008c; stroke-opacity: 0.7"/>
    </g>
   </g>
   <g id="PolyCollection_3">
    <defs>
     <path id="mde94a04381" d="M 370.164847 -191.211559 
L 367.896094 -191.211559 
L 367.896094 -191.788898 
L 367.896094 -192.366238 
L 424.258324 -192.366238 
L 424.258324 -192.366238 
L 421.249725 -191.788898 
L 370.164847 -191.211559 
z
" style="stroke: #4300a2; stroke-opacity: 0.7"/>
    </defs>
    <g clip-path="url(#p3c46b5a50c)">
     <use xlink:href="#mde94a04381" x="0" y="576" style="fill: #4300a2; fill-opacity: 0.7; stroke: #4300a2; stroke-opacity: 0.7"/>
    </g>
   </g>
   <g id="PolyCollection_4">
    <defs>
     <path id="m71844563b2" d="M 436.352667 -198.716971 
L 367.896094 -198.716971 
L 367.896094 -199.294311 
L 367.896094 -199.87165 
L 367.896094 -200.44899 
L 367.896094 -201.026329 
L 367.896094 -201.603669 
L 367.896094 -202.181008 
L 367.896094 -202.758347 
L 367.896094 -203.335687 
L 367.896094 -203.913026 
L 367.896094 -204.490366 
L 367.896094 -205.067705 
L 367.896094 -205.645045 
L 367.896094 -206.222384 
L 487.771199 -206.222384 
L 487.771199 -206.222384 
L 484.00546 -205.645045 
L 483.147504 -205.067705 
L 482.646854 -204.490366 
L 482.416069 -203.913026 
L 481.51491 -203.335687 
L 478.799724 -202.758347 
L 471.429182 -202.181008 
L 464.56768 -201.603669 
L 463.605752 -201.026329 
L 459.490351 -200.44899 
L 459.490351 -199.87165 
L 456.214337 -199.294311 
L 436.352667 -198.716971 
z
" style="stroke: #0000d1; stroke-opacity: 0.7"/>
    </defs>
    <g clip-path="url(#p3c46b5a50c)">
     <use xlink:href="#m71844563b2" x="0" y="576" style="fill: #0000d1; fill-opacity: 0.7; stroke: #0000d1; stroke-opacity: 0.7"/>
    </g>
   </g>
   <g id="PolyCollection_5">
    <defs>
     <path id="m2f107dceee" d="M 435.275007 -212.573118 
L 367.896094 -212.573118 
L 367.896094 -213.150457 
L 367.896094 -213.727797 
L 367.896094 -214.305136 
L 367.896094 -214.882476 
L 367.896094 -215.459815 
L 367.896094 -216.037154 
L 367.896094 -216.614494 
L 367.896094 -217.191833 
L 367.896094 -217.769173 
L 367.896094 -218.346512 
L 367.896094 -218.923852 
L 367.896094 -219.501191 
L 367.896094 -220.07853 
L 367.896094 -220.65587 
L 367.896094 -221.233209 
L 367.896094 -221.810549 
L 367.896094 -222.387888 
L 367.896094 -222.965228 
L 367.896094 -223.542567 
L 367.896094 -224.119906 
L 367.896094 -224.697246 
L 367.896094 -225.274585 
L 367.896094 -225.851925 
L 367.896094 -226.429264 
L 367.896094 -227.006604 
L 367.896094 -227.583943 
L 367.896094 -228.161282 
L 367.896094 -228.738622 
L 367.896094 -229.315961 
L 367.896094 -229.893301 
L 367.896094 -230.47064 
L 367.896094 -231.04798 
L 367.896094 -231.625319 
L 367.896094 -232.202658 
L 367.896094 -232.779998 
L 367.896094 -233.357337 
L 367.896094 -233.934677 
L 367.896094 -234.512016 
L 367.896094 -235.089356 
L 367.896094 -235.666695 
L 367.896094 -236.244035 
L 367.896094 -236.821374 
L 367.896094 -237.398713 
L 367.896094 -237.976053 
L 367.896094 -238.553392 
L 585.886443 -238.553392 
L 585.886443 -238.553392 
L 585.773093 -237.976053 
L 582.244255 -237.398713 
L 581.798378 -236.821374 
L 578.493766 -236.244035 
L 575.428555 -235.666695 
L 574.696849 -235.089356 
L 574.35855 -234.512016 
L 573.757525 -233.934677 
L 571.336698 -233.357337 
L 570.71727 -232.779998 
L 567.867117 -232.202658 
L 565.758042 -231.625319 
L 564.027738 -231.04798 
L 563.764107 -230.47064 
L 563.553191 -229.893301 
L 563.553191 -229.315961 
L 561.883245 -228.738622 
L 559.833406 -228.161282 
L 558.938793 -227.583943 
L 554.783654 -227.006604 
L 554.596657 -226.429264 
L 553.974349 -225.851925 
L 551.895118 -225.274585 
L 551.284238 -224.697246 
L 551.165493 -224.119906 
L 549.264702 -223.542567 
L 546.040965 -222.965228 
L 545.304432 -222.387888 
L 545.110685 -221.810549 
L 544.661963 -221.233209 
L 541.469131 -220.65587 
L 539.857616 -220.07853 
L 538.996843 -219.501191 
L 532.325356 -218.923852 
L 525.565899 -218.346512 
L 525.41323 -217.769173 
L 523.960355 -217.191833 
L 523.846517 -216.614494 
L 517.33424 -216.037154 
L 512.554447 -215.459815 
L 509.464889 -214.882476 
L 503.95806 -214.305136 
L 466.351932 -213.727797 
L 439.192263 -213.150457 
L 435.275007 -212.573118 
z
" style="stroke: #0078dd; stroke-opacity: 0.7"/>
    </defs>
    <g clip-path="url(#p3c46b5a50c)">
     <use xlink:href="#m2f107dceee" x="0" y="576" style="fill: #0078dd; fill-opacity: 0.7; stroke: #0078dd; stroke-opacity: 0.7"/>
    </g>
   </g>
   <g id="PolyCollection_6">
    <defs>
     <path id="m96783e0f50" d="M 412.488698 -244.904126 
L 367.896094 -244.904126 
L 367.896094 -245.481465 
L 367.896094 -246.058805 
L 367.896094 -246.636144 
L 367.896094 -247.213484 
L 367.896094 -247.790823 
L 367.896094 -248.368163 
L 367.896094 -248.945502 
L 367.896094 -249.522841 
L 525.879043 -249.522841 
L 525.879043 -249.522841 
L 519.542198 -248.945502 
L 514.846379 -248.368163 
L 514.792732 -247.790823 
L 491.750845 -247.213484 
L 464.593918 -246.636144 
L 460.453347 -246.058805 
L 453.125346 -245.481465 
L 412.488698 -244.904126 
z
" style="stroke: #009ecf; stroke-opacity: 0.7"/>
    </defs>
    <g clip-path="url(#p3c46b5a50c)">
     <use xlink:href="#m96783e0f50" x="0" y="576" style="fill: #009ecf; fill-opacity: 0.7; stroke: #009ecf; stroke-opacity: 0.7"/>
    </g>
   </g>
   <g id="PolyCollection_7">
    <defs>
     <path id="m25525cf61e" d="M 362.515336 -255.873575 
L 367.896094 -255.873575 
L 367.896094 -256.450915 
L 367.896094 -257.028254 
L 367.896094 -257.605594 
L 367.896094 -258.182933 
L 367.896094 -258.760272 
L 367.896094 -259.337612 
L 367.896094 -259.914951 
L 367.896094 -260.492291 
L 367.896094 -261.06963 
L 367.896094 -261.64697 
L 367.896094 -262.224309 
L 367.896094 -262.801648 
L 367.896094 -263.378988 
L 367.896094 -263.956327 
L 367.896094 -264.533667 
L 367.896094 -265.111006 
L 367.896094 -265.688346 
L 367.896094 -266.265685 
L 367.896094 -266.843024 
L 367.896094 -267.420364 
L 367.896094 -267.997703 
L 367.896094 -268.575043 
L 367.896094 -269.152382 
L 367.896094 -269.729722 
L 367.896094 -270.307061 
L 367.896094 -270.8844 
L 367.896094 -271.46174 
L 367.896094 -272.039079 
L 367.896094 -272.616419 
L 367.896094 -273.193758 
L 367.896094 -273.771098 
L 367.896094 -274.348437 
L 367.896094 -274.925777 
L 367.896094 -275.503116 
L 367.896094 -276.080455 
L 367.896094 -276.657795 
L 367.896094 -277.235134 
L 367.896094 -277.812474 
L 367.896094 -278.389813 
L 367.896094 -278.967153 
L 367.896094 -279.544492 
L 367.896094 -280.121831 
L 367.896094 -280.699171 
L 367.896094 -281.27651 
L 367.896094 -281.85385 
L 367.896094 -282.431189 
L 367.896094 -283.008529 
L 367.896094 -283.585868 
L 367.896094 -284.163207 
L 367.896094 -284.740547 
L 367.896094 -285.317886 
L 367.896094 -285.895226 
L 367.896094 -286.472565 
L 367.896094 -287.049905 
L 367.896094 -287.627244 
L 367.896094 -288.204583 
L 367.896094 -288.781923 
L 367.896094 -289.359262 
L 367.896094 -289.936602 
L 367.896094 -290.513941 
L 367.896094 -291.091281 
L 367.896094 -291.66862 
L 367.896094 -292.245959 
L 367.896094 -292.823299 
L 367.896094 -293.400638 
L 526.386355 -293.400638 
L 526.386355 -293.400638 
L 524.603773 -292.823299 
L 519.062612 -292.245959 
L 518.899782 -291.66862 
L 517.443651 -291.091281 
L 517.188128 -290.513941 
L 514.046311 -289.936602 
L 511.460809 -289.359262 
L 510.470407 -288.781923 
L 506.735723 -288.204583 
L 506.563778 -287.627244 
L 506.225205 -287.049905 
L 503.931939 -286.472565 
L 502.991693 -285.895226 
L 502.739261 -285.317886 
L 501.777093 -284.740547 
L 501.777093 -284.163207 
L 501.659841 -283.585868 
L 500.670833 -283.008529 
L 500.352 -282.431189 
L 499.113129 -281.85385 
L 498.938779 -281.27651 
L 498.385808 -280.699171 
L 498.304937 -280.121831 
L 497.48202 -279.544492 
L 497.304485 -278.967153 
L 496.060977 -278.389813 
L 495.561887 -277.812474 
L 495.189163 -277.235134 
L 495.138108 -276.657795 
L 491.865585 -276.080455 
L 490.310568 -275.503116 
L 488.347612 -274.925777 
L 488.00264 -274.348437 
L 486.751907 -273.771098 
L 484.136711 -273.193758 
L 481.660754 -272.616419 
L 477.204626 -272.039079 
L 474.123343 -271.46174 
L 471.241787 -270.8844 
L 468.959556 -270.307061 
L 467.851319 -269.729722 
L 467.747587 -269.152382 
L 467.01905 -268.575043 
L 465.808145 -267.997703 
L 465.442826 -267.420364 
L 462.46475 -266.843024 
L 462.219974 -266.265685 
L 461.198322 -265.688346 
L 460.989032 -265.111006 
L 460.256098 -264.533667 
L 459.725214 -263.956327 
L 457.10399 -263.378988 
L 454.961545 -262.801648 
L 450.654351 -262.224309 
L 447.617749 -261.64697 
L 446.700539 -261.06963 
L 434.317768 -260.492291 
L 433.176077 -259.914951 
L 430.391817 -259.337612 
L 428.654088 -258.760272 
L 402.741044 -258.182933 
L 400.794305 -257.605594 
L 373.873997 -257.028254 
L 371.512293 -256.450915 
L 362.515336 -255.873575 
z
" style="stroke: #00aa98; stroke-opacity: 0.7"/>
    </defs>
    <g clip-path="url(#p3c46b5a50c)">
     <use xlink:href="#m25525cf61e" x="0" y="576" style="fill: #00aa98; fill-opacity: 0.7; stroke: #00aa98; stroke-opacity: 0.7"/>
    </g>
   </g>
   <g id="PolyCollection_8">
    <defs>
     <path id="m206a814c3c" d="M 544.780574 -299.751372 
L 367.896094 -299.751372 
L 367.896094 -300.328712 
L 367.896094 -300.906051 
L 367.896094 -301.48339 
L 367.896094 -302.06073 
L 367.896094 -302.638069 
L 367.896094 -303.215409 
L 367.896094 -303.792748 
L 596.936824 -303.792748 
L 596.936824 -303.792748 
L 589.464517 -303.215409 
L 588.296967 -302.638069 
L 581.072169 -302.06073 
L 577.385271 -301.48339 
L 572.455283 -300.906051 
L 550.494147 -300.328712 
L 544.780574 -299.751372 
z
" style="stroke: #009d1d; stroke-opacity: 0.7"/>
    </defs>
    <g clip-path="url(#p3c46b5a50c)">
     <use xlink:href="#m206a814c3c" x="0" y="576" style="fill: #009d1d; fill-opacity: 0.7; stroke: #009d1d; stroke-opacity: 0.7"/>
    </g>
   </g>
   <g id="PolyCollection_9">
    <defs>
     <path id="m4df096ac29" d="M 376.204148 -310.143482 
L 367.896094 -310.143482 
L 367.896094 -310.720821 
L 367.896094 -311.298161 
L 367.896094 -311.8755 
L 367.896094 -312.45284 
L 367.896094 -313.030179 
L 367.896094 -313.607518 
L 367.896094 -314.184858 
L 367.896094 -314.762197 
L 367.896094 -315.339537 
L 367.896094 -315.916876 
L 367.896094 -316.494216 
L 367.896094 -317.071555 
L 367.896094 -317.648895 
L 367.896094 -318.226234 
L 367.896094 -318.803573 
L 367.896094 -319.380913 
L 367.896094 -319.958252 
L 367.896094 -320.535592 
L 367.896094 -321.112931 
L 505.341903 -321.112931 
L 505.341903 -321.112931 
L 501.849698 -320.535592 
L 501.658269 -319.958252 
L 495.78521 -319.380913 
L 494.820158 -318.803573 
L 492.43409 -318.226234 
L 486.904821 -317.648895 
L 486.428704 -317.071555 
L 484.305658 -316.494216 
L 479.590882 -315.916876 
L 463.249467 -315.339537 
L 461.451589 -314.762197 
L 460.387269 -314.184858 
L 457.770732 -313.607518 
L 455.001755 -313.030179 
L 449.239337 -312.45284 
L 447.57546 -311.8755 
L 444.147376 -311.298161 
L 434.396887 -310.720821 
L 376.204148 -310.143482 
z
" style="stroke: #00bc00; stroke-opacity: 0.7"/>
    </defs>
    <g clip-path="url(#p3c46b5a50c)">
     <use xlink:href="#m4df096ac29" x="0" y="576" style="fill: #00bc00; fill-opacity: 0.7; stroke: #00bc00; stroke-opacity: 0.7"/>
    </g>
   </g>
   <g id="PolyCollection_10">
    <defs>
     <path id="ma121aaffd7" d="M 345.572125 -327.463665 
L 367.896094 -327.463665 
L 367.896094 -328.041004 
L 367.896094 -328.618344 
L 367.896094 -329.195683 
L 367.896094 -329.773023 
L 367.896094 -330.350362 
L 367.896094 -330.927701 
L 367.896094 -331.505041 
L 367.896094 -332.08238 
L 367.896094 -332.65972 
L 367.896094 -333.237059 
L 367.896094 -333.814399 
L 367.896094 -334.391738 
L 367.896094 -334.969077 
L 367.896094 -335.546417 
L 367.896094 -336.123756 
L 367.896094 -336.701096 
L 367.896094 -337.278435 
L 367.896094 -337.855775 
L 367.896094 -338.433114 
L 367.896094 -339.010454 
L 367.896094 -339.587793 
L 367.896094 -340.165132 
L 367.896094 -340.742472 
L 367.896094 -341.319811 
L 367.896094 -341.897151 
L 367.896094 -342.47449 
L 367.896094 -343.05183 
L 367.896094 -343.629169 
L 367.896094 -344.206508 
L 367.896094 -344.783848 
L 367.896094 -345.361187 
L 367.896094 -345.938527 
L 367.896094 -346.515866 
L 367.896094 -347.093206 
L 367.896094 -347.670545 
L 367.896094 -348.247884 
L 367.896094 -348.825224 
L 367.896094 -349.402563 
L 367.896094 -349.979903 
L 367.896094 -350.557242 
L 367.896094 -351.134582 
L 367.896094 -351.711921 
L 367.896094 -352.28926 
L 367.896094 -352.8666 
L 367.896094 -353.443939 
L 367.896094 -354.021279 
L 367.896094 -354.598618 
L 367.896094 -355.175958 
L 367.896094 -355.753297 
L 367.896094 -356.330636 
L 367.896094 -356.907976 
L 367.896094 -357.485315 
L 367.896094 -358.062655 
L 367.896094 -358.639994 
L 367.896094 -359.217334 
L 367.896094 -359.794673 
L 531.377643 -359.794673 
L 531.377643 -359.794673 
L 527.920878 -359.217334 
L 523.79399 -358.639994 
L 521.799554 -358.062655 
L 521.799554 -357.485315 
L 519.117788 -356.907976 
L 518.9536 -356.330636 
L 515.693599 -355.753297 
L 515.420053 -355.175958 
L 515.420053 -354.598618 
L 513.048256 -354.021279 
L 512.744543 -353.443939 
L 511.955918 -352.8666 
L 507.42752 -352.28926 
L 503.62471 -351.711921 
L 500.892008 -351.134582 
L 500.383082 -350.557242 
L 500.256852 -349.979903 
L 499.824393 -349.402563 
L 496.098405 -348.825224 
L 495.629409 -348.247884 
L 490.920728 -347.670545 
L 490.060713 -347.093206 
L 485.484442 -346.515866 
L 485.484442 -345.938527 
L 485.208393 -345.361187 
L 481.148149 -344.783848 
L 480.316749 -344.206508 
L 479.764402 -343.629169 
L 479.471835 -343.05183 
L 477.192966 -342.47449 
L 476.828794 -341.897151 
L 475.528415 -341.319811 
L 475.210479 -340.742472 
L 474.137268 -340.165132 
L 471.117378 -339.587793 
L 469.836034 -339.010454 
L 467.975974 -338.433114 
L 466.898163 -337.855775 
L 466.026917 -337.278435 
L 461.371443 -336.701096 
L 457.433576 -336.123756 
L 455.639254 -335.546417 
L 453.358088 -334.969077 
L 450.730976 -334.391738 
L 450.219516 -333.814399 
L 445.495006 -333.237059 
L 443.353927 -332.65972 
L 437.719497 -332.08238 
L 435.846135 -331.505041 
L 422.73482 -330.927701 
L 417.729623 -330.350362 
L 412.672017 -329.773023 
L 406.12436 -329.195683 
L 404.914527 -328.618344 
L 391.20462 -328.041004 
L 345.572125 -327.463665 
z
" style="stroke: #00e700; stroke-opacity: 0.7"/>
    </defs>
    <g clip-path="url(#p3c46b5a50c)">
     <use xlink:href="#ma121aaffd7" x="0" y="576" style="fill: #00e700; fill-opacity: 0.7; stroke: #00e700; stroke-opacity: 0.7"/>
    </g>
   </g>
   <g id="PolyCollection_11">
    <defs>
     <path id="m3b2e91fd42" d="M 350.16398 -366.145407 
L 367.896094 -366.145407 
L 367.896094 -366.722746 
L 367.896094 -367.300086 
L 367.896094 -367.877425 
L 367.896094 -368.454765 
L 367.896094 -369.032104 
L 367.896094 -369.609443 
L 367.896094 -370.186783 
L 367.896094 -370.764122 
L 367.896094 -371.341462 
L 367.896094 -371.918801 
L 367.896094 -372.496141 
L 367.896094 -373.07348 
L 367.896094 -373.650819 
L 367.896094 -374.228159 
L 367.896094 -374.805498 
L 367.896094 -375.382838 
L 367.896094 -375.960177 
L 367.896094 -376.537517 
L 367.896094 -377.114856 
L 367.896094 -377.692195 
L 367.896094 -378.269535 
L 367.896094 -378.846874 
L 484.271504 -378.846874 
L 484.271504 -378.846874 
L 475.003682 -378.269535 
L 471.2319 -377.692195 
L 471.159744 -377.114856 
L 469.852812 -376.537517 
L 465.814474 -375.960177 
L 452.062825 -375.382838 
L 451.126498 -374.805498 
L 449.716202 -374.228159 
L 448.102872 -373.650819 
L 439.886017 -373.07348 
L 434.559999 -372.496141 
L 433.247638 -371.918801 
L 431.354349 -371.341462 
L 418.714104 -370.764122 
L 415.600554 -370.186783 
L 415.189399 -369.609443 
L 399.635084 -369.032104 
L 397.785785 -368.454765 
L 392.909512 -367.877425 
L 370.900848 -367.300086 
L 360.610389 -366.722746 
L 350.16398 -366.145407 
z
" style="stroke: #67ff00; stroke-opacity: 0.7"/>
    </defs>
    <g clip-path="url(#p3c46b5a50c)">
     <use xlink:href="#m3b2e91fd42" x="0" y="576" style="fill: #67ff00; fill-opacity: 0.7; stroke: #67ff00; stroke-opacity: 0.7"/>
    </g>
   </g>
   <g id="PolyCollection_12">
    <defs>
     <path id="m3b692b4b2b" d="M 464.465524 -385.197608 
L 367.896094 -385.197608 
L 367.896094 -385.774948 
L 367.896094 -386.352287 
L 367.896094 -386.929626 
L 367.896094 -387.506966 
L 367.896094 -388.084305 
L 367.896094 -388.661645 
L 367.896094 -389.238984 
L 367.896094 -389.816324 
L 367.896094 -390.393663 
L 367.896094 -390.971002 
L 367.896094 -391.548342 
L 367.896094 -392.125681 
L 367.896094 -392.703021 
L 367.896094 -393.28036 
L 367.896094 -393.8577 
L 367.896094 -394.435039 
L 367.896094 -395.012378 
L 367.896094 -395.589718 
L 367.896094 -396.167057 
L 367.896094 -396.744397 
L 367.896094 -397.321736 
L 367.896094 -397.899076 
L 367.896094 -398.476415 
L 367.896094 -399.053754 
L 367.896094 -399.631094 
L 367.896094 -400.208433 
L 367.896094 -400.785773 
L 367.896094 -401.363112 
L 367.896094 -401.940452 
L 367.896094 -402.517791 
L 367.896094 -403.095131 
L 367.896094 -403.67247 
L 367.896094 -404.249809 
L 367.896094 -404.827149 
L 367.896094 -405.404488 
L 367.896094 -405.981828 
L 367.896094 -406.559167 
L 367.896094 -407.136507 
L 367.896094 -407.713846 
L 367.896094 -408.291185 
L 367.896094 -408.868525 
L 367.896094 -409.445864 
L 367.896094 -410.023204 
L 367.896094 -410.600543 
L 367.896094 -411.177883 
L 367.896094 -411.755222 
L 367.896094 -412.332561 
L 367.896094 -412.909901 
L 367.896094 -413.48724 
L 367.896094 -414.06458 
L 367.896094 -414.641919 
L 367.896094 -415.219259 
L 367.896094 -415.796598 
L 367.896094 -416.373937 
L 367.896094 -416.951277 
L 367.896094 -417.528616 
L 367.896094 -418.105956 
L 367.896094 -418.683295 
L 367.896094 -419.260635 
L 367.896094 -419.837974 
L 367.896094 -420.415314 
L 367.896094 -420.992653 
L 367.896094 -421.569992 
L 367.896094 -422.147332 
L 367.896094 -422.724671 
L 367.896094 -423.302011 
L 367.896094 -423.87935 
L 367.896094 -424.45669 
L 367.896094 -425.034029 
L 367.896094 -425.611368 
L 367.896094 -426.188708 
L 367.896094 -426.766047 
L 367.896094 -427.343387 
L 367.896094 -427.920726 
L 367.896094 -428.498066 
L 367.896094 -429.075405 
L 367.896094 -429.652744 
L 367.896094 -430.230084 
L 367.896094 -430.807423 
L 367.896094 -431.384763 
L 367.896094 -431.962102 
L 367.896094 -432.539442 
L 367.896094 -433.116781 
L 367.896094 -433.69412 
L 367.896094 -434.27146 
L 367.896094 -434.848799 
L 367.896094 -435.426139 
L 367.896094 -436.003478 
L 367.896094 -436.580818 
L 367.896094 -437.158157 
L 367.896094 -437.735496 
L 367.896094 -438.312836 
L 367.896094 -438.890175 
L 367.896094 -439.467515 
L 367.896094 -440.044854 
L 367.896094 -440.622194 
L 367.896094 -441.199533 
L 367.896094 -441.776873 
L 367.896094 -442.354212 
L 367.896094 -442.931551 
L 367.896094 -443.508891 
L 367.896094 -444.08623 
L 367.896094 -444.66357 
L 367.896094 -445.240909 
L 367.896094 -445.818249 
L 367.896094 -446.395588 
L 367.896094 -446.972927 
L 367.896094 -447.550267 
L 367.896094 -448.127606 
L 367.896094 -448.704946 
L 367.896094 -449.282285 
L 367.896094 -449.859625 
L 367.896094 -450.436964 
L 367.896094 -451.014303 
L 367.896094 -451.591643 
L 367.896094 -452.168982 
L 367.896094 -452.746322 
L 367.896094 -453.323661 
L 367.896094 -453.901001 
L 367.896094 -454.47834 
L 367.896094 -455.055679 
L 367.896094 -455.633019 
L 367.896094 -456.210358 
L 367.896094 -456.787698 
L 367.896094 -457.365037 
L 367.896094 -457.942377 
L 367.896094 -458.519716 
L 367.896094 -459.097055 
L 367.896094 -459.674395 
L 367.896094 -460.251734 
L 367.896094 -460.829074 
L 367.896094 -461.406413 
L 367.896094 -461.983753 
L 367.896094 -462.561092 
L 367.896094 -463.138432 
L 367.896094 -463.715771 
L 367.896094 -464.29311 
L 367.896094 -464.87045 
L 367.896094 -465.447789 
L 367.896094 -466.025129 
L 367.896094 -466.602468 
L 367.896094 -467.179808 
L 367.896094 -467.757147 
L 367.896094 -468.334486 
L 367.896094 -468.911826 
L 367.896094 -469.489165 
L 367.896094 -470.066505 
L 367.896094 -470.643844 
L 367.896094 -471.221184 
L 367.896094 -471.798523 
L 367.896094 -472.375862 
L 367.896094 -472.953202 
L 367.896094 -473.530541 
L 367.896094 -474.107881 
L 367.896094 -474.68522 
L 367.896094 -475.26256 
L 367.896094 -475.839899 
L 367.896094 -476.417238 
L 367.896094 -476.994578 
L 367.896094 -477.571917 
L 367.896094 -478.149257 
L 367.896094 -478.726596 
L 367.896094 -479.303936 
L 367.896094 -479.881275 
L 367.896094 -480.458614 
L 367.896094 -481.035954 
L 367.896094 -481.613293 
L 367.896094 -482.190633 
L 367.896094 -482.767972 
L 367.896094 -483.345312 
L 367.896094 -483.922651 
L 367.896094 -484.499991 
L 367.896094 -485.07733 
L 367.896094 -485.654669 
L 367.896094 -486.232009 
L 367.896094 -486.809348 
L 367.896094 -487.386688 
L 367.896094 -487.964027 
L 367.896094 -488.541367 
L 367.896094 -489.118706 
L 367.896094 -489.696045 
L 367.896094 -490.273385 
L 367.896094 -490.850724 
L 367.896094 -491.428064 
L 367.896094 -492.005403 
L 367.896094 -492.582743 
L 367.896094 -493.160082 
L 367.896094 -493.737421 
L 367.896094 -494.314761 
L 367.896094 -494.8921 
L 367.896094 -495.46944 
L 367.896094 -496.046779 
L 367.896094 -496.624119 
L 367.896094 -497.201458 
L 367.896094 -497.778797 
L 367.896094 -498.356137 
L 367.896094 -498.933476 
L 367.896094 -499.510816 
L 367.896094 -500.088155 
L 367.896094 -500.665495 
L 560.929283 -500.665495 
L 560.929283 -500.665495 
L 555.688598 -500.088155 
L 554.713698 -499.510816 
L 554.344842 -498.933476 
L 553.933624 -498.356137 
L 552.292523 -497.778797 
L 551.225735 -497.201458 
L 551.219826 -496.624119 
L 551.087946 -496.046779 
L 550.899944 -495.46944 
L 550.703696 -494.8921 
L 550.31456 -494.314761 
L 549.869992 -493.737421 
L 549.499518 -493.160082 
L 549.432933 -492.582743 
L 549.127704 -492.005403 
L 548.848838 -491.428064 
L 548.042473 -490.850724 
L 547.62105 -490.273385 
L 547.601352 -489.696045 
L 547.0244 -489.118706 
L 546.461903 -488.541367 
L 546.020564 -487.964027 
L 545.775957 -487.386688 
L 545.331203 -486.809348 
L 545.324895 -486.232009 
L 545.273037 -485.654669 
L 545.217076 -485.07733 
L 544.913081 -484.499991 
L 544.876396 -483.922651 
L 544.632556 -483.345312 
L 544.539882 -482.767972 
L 544.41457 -482.190633 
L 544.225441 -481.613293 
L 543.883147 -481.035954 
L 543.579164 -480.458614 
L 543.566372 -479.881275 
L 543.331775 -479.303936 
L 543.313077 -478.726596 
L 542.390611 -478.149257 
L 542.209575 -477.571917 
L 542.047967 -476.994578 
L 541.647741 -476.417238 
L 540.693171 -475.839899 
L 540.683844 -475.26256 
L 540.599424 -474.68522 
L 540.491514 -474.107881 
L 540.021171 -473.530541 
L 539.693557 -472.953202 
L 539.127748 -472.375862 
L 538.787523 -471.798523 
L 538.675585 -471.221184 
L 538.352295 -470.643844 
L 538.218066 -470.066505 
L 538.161291 -469.489165 
L 538.080481 -468.911826 
L 536.94292 -468.334486 
L 536.910209 -467.757147 
L 536.272382 -467.179808 
L 536.191174 -466.602468 
L 536.061435 -466.025129 
L 535.989284 -465.447789 
L 535.803746 -464.87045 
L 535.140194 -464.29311 
L 535.127773 -463.715771 
L 535.057345 -463.138432 
L 534.465683 -462.561092 
L 533.789939 -461.983753 
L 533.703935 -461.406413 
L 533.703802 -460.829074 
L 533.495091 -460.251734 
L 532.659172 -459.674395 
L 532.579939 -459.097055 
L 532.578297 -458.519716 
L 532.282002 -457.942377 
L 532.26521 -457.365037 
L 532.25392 -456.787698 
L 532.163968 -456.210358 
L 531.901253 -455.633019 
L 531.851519 -455.055679 
L 531.422869 -454.47834 
L 531.419501 -453.901001 
L 531.406802 -453.323661 
L 531.307793 -452.746322 
L 531.30339 -452.168982 
L 531.302851 -451.591643 
L 530.800264 -451.014303 
L 530.593504 -450.436964 
L 530.409134 -449.859625 
L 530.315625 -449.282285 
L 530.299173 -448.704946 
L 529.888812 -448.127606 
L 529.305289 -447.550267 
L 529.153074 -446.972927 
L 528.993882 -446.395588 
L 528.274329 -445.818249 
L 528.261931 -445.240909 
L 528.154388 -444.66357 
L 528.102294 -444.08623 
L 528.033322 -443.508891 
L 527.949418 -442.931551 
L 527.913983 -442.354212 
L 527.881383 -441.776873 
L 527.630757 -441.199533 
L 527.571882 -440.622194 
L 527.140162 -440.044854 
L 527.092972 -439.467515 
L 525.704744 -438.890175 
L 524.709298 -438.312836 
L 524.704928 -437.735496 
L 524.060089 -437.158157 
L 524.051404 -436.580818 
L 523.549049 -436.003478 
L 523.446278 -435.426139 
L 523.321664 -434.848799 
L 523.27725 -434.27146 
L 521.841739 -433.69412 
L 521.816586 -433.116781 
L 521.104843 -432.539442 
L 521.073049 -431.962102 
L 521.012062 -431.384763 
L 519.270367 -430.807423 
L 519.244421 -430.230084 
L 518.615261 -429.652744 
L 517.63007 -429.075405 
L 517.463733 -428.498066 
L 517.215896 -427.920726 
L 516.772359 -427.343387 
L 516.743562 -426.766047 
L 516.65719 -426.188708 
L 516.295451 -425.611368 
L 516.100533 -425.034029 
L 515.836254 -424.45669 
L 515.815314 -423.87935 
L 515.683265 -423.302011 
L 514.641477 -422.724671 
L 514.518201 -422.147332 
L 513.930018 -421.569992 
L 513.639772 -420.992653 
L 513.210646 -420.415314 
L 513.08383 -419.837974 
L 513.00843 -419.260635 
L 512.692511 -418.683295 
L 512.634736 -418.105956 
L 512.633522 -417.528616 
L 512.476664 -416.951277 
L 512.319466 -416.373937 
L 510.521665 -415.796598 
L 509.628533 -415.219259 
L 509.024269 -414.641919 
L 508.950826 -414.06458 
L 508.850011 -413.48724 
L 508.148823 -412.909901 
L 507.912977 -412.332561 
L 507.285967 -411.755222 
L 506.244957 -411.177883 
L 505.724631 -410.600543 
L 505.348207 -410.023204 
L 505.278571 -409.445864 
L 504.584525 -408.868525 
L 504.495387 -408.291185 
L 503.731296 -407.713846 
L 503.502683 -407.136507 
L 502.90572 -406.559167 
L 502.297023 -405.981828 
L 502.212637 -405.404488 
L 501.718957 -404.827149 
L 500.180748 -404.249809 
L 499.983921 -403.67247 
L 499.645747 -403.095131 
L 499.089233 -402.517791 
L 499.039674 -401.940452 
L 498.501848 -401.363112 
L 497.63479 -400.785773 
L 497.517291 -400.208433 
L 496.606161 -399.631094 
L 496.490202 -399.053754 
L 496.230058 -398.476415 
L 495.204781 -397.899076 
L 494.450344 -397.321736 
L 493.38448 -396.744397 
L 493.244752 -396.167057 
L 492.783078 -395.589718 
L 491.584482 -395.012378 
L 490.207173 -394.435039 
L 489.266668 -393.8577 
L 489.012128 -393.28036 
L 488.265901 -392.703021 
L 487.726093 -392.125681 
L 487.68866 -391.548342 
L 485.966031 -390.971002 
L 485.417978 -390.393663 
L 484.204453 -389.816324 
L 482.902293 -389.238984 
L 481.241258 -388.661645 
L 478.48443 -388.084305 
L 476.695045 -387.506966 
L 476.562949 -386.929626 
L 475.99971 -386.352287 
L 472.203646 -385.774948 
L 464.465524 -385.197608 
z
" style="stroke: #e4f100; stroke-opacity: 0.7"/>
    </defs>
    <g clip-path="url(#p3c46b5a50c)">
     <use xlink:href="#m3b692b4b2b" x="0" y="576" style="fill: #e4f100; fill-opacity: 0.7; stroke: #e4f100; stroke-opacity: 0.7"/>
    </g>
   </g>
   <g id="PolyCollection_13">
    <defs>
     <path id="m2036cffee2" d="M 287.538149 -507.016228 
L 367.896094 -507.016228 
L 367.896094 -507.593568 
L 367.896094 -508.170907 
L 367.896094 -508.748247 
L 367.896094 -509.325586 
L 367.896094 -509.902926 
L 367.896094 -510.480265 
L 367.896094 -511.057604 
L 367.896094 -511.634944 
L 367.896094 -512.212283 
L 367.896094 -512.789623 
L 367.896094 -513.366962 
L 367.896094 -513.944302 
L 367.896094 -514.521641 
L 367.896094 -515.09898 
L 367.896094 -515.67632 
L 367.896094 -516.253659 
L 367.896094 -516.830999 
L 367.896094 -517.408338 
L 469.985121 -517.408338 
L 469.985121 -517.408338 
L 458.297008 -516.830999 
L 447.754675 -516.253659 
L 446.275734 -515.67632 
L 445.061871 -515.09898 
L 444.764127 -514.521641 
L 442.754548 -513.944302 
L 438.064104 -513.366962 
L 436.07065 -512.789623 
L 428.912191 -512.212283 
L 414.116258 -511.634944 
L 398.53374 -511.057604 
L 390.431452 -510.480265 
L 370.701953 -509.902926 
L 368.069544 -509.325586 
L 360.6304 -508.748247 
L 350.096949 -508.170907 
L 341.78303 -507.593568 
L 287.538149 -507.016228 
z
" style="stroke: #ffc900; stroke-opacity: 0.7"/>
    </defs>
    <g clip-path="url(#p3c46b5a50c)">
     <use xlink:href="#m2036cffee2" x="0" y="576" style="fill: #ffc900; fill-opacity: 0.7; stroke: #ffc900; stroke-opacity: 0.7"/>
    </g>
   </g>
   <g id="PolyCollection_14">
    <defs>
     <path id="mba58334b8a" d="M 432.113111 -523.759072 
L 367.896094 -523.759072 
L 367.896094 -524.336411 
L 367.896094 -524.913751 
L 367.896094 -525.49109 
L 367.896094 -526.06843 
L 367.896094 -526.645769 
L 490.954887 -526.645769 
L 490.954887 -526.645769 
L 484.496003 -526.06843 
L 482.051513 -525.49109 
L 462.164282 -524.913751 
L 459.950387 -524.336411 
L 432.113111 -523.759072 
z
" style="stroke: #ff6900; stroke-opacity: 0.7"/>
    </defs>
    <g clip-path="url(#p3c46b5a50c)">
     <use xlink:href="#mba58334b8a" x="0" y="576" style="fill: #ff6900; fill-opacity: 0.7; stroke: #ff6900; stroke-opacity: 0.7"/>
    </g>
   </g>
   <g id="PolyCollection_15">
    <defs>
     <path id="m2a08aa3aa2" d="M 576.491314 -532.996503 
L 367.896094 -532.996503 
L 367.896094 -533.573842 
L 367.896094 -534.151182 
L 367.896094 -534.728521 
L 367.896094 -535.305861 
L 367.896094 -535.8832 
L 367.896094 -536.460539 
L 367.896094 -537.037879 
L 367.896094 -537.615218 
L 607.900458 -537.615218 
L 607.900458 -537.615218 
L 607.584972 -537.037879 
L 604.792082 -536.460539 
L 602.719514 -535.8832 
L 584.311808 -535.305861 
L 583.851972 -534.728521 
L 578.795645 -534.151182 
L 576.81701 -533.573842 
L 576.491314 -532.996503 
z
" style="stroke: #ec0000; stroke-opacity: 0.7"/>
    </defs>
    <g clip-path="url(#p3c46b5a50c)">
     <use xlink:href="#m2a08aa3aa2" x="0" y="576" style="fill: #ec0000; fill-opacity: 0.7; stroke: #ec0000; stroke-opacity: 0.7"/>
    </g>
   </g>
   <g id="PolyCollection_16">
    <defs>
     <path id="me9c0e31156" d="M 608.709326 -543.965952 
L 367.896094 -543.965952 
L 367.896094 -544.543291 
L 367.896094 -545.120631 
L 631.557569 -545.120631 
L 631.557569 -545.120631 
L 627.574458 -544.543291 
L 608.709326 -543.965952 
z
" style="stroke: #cf0000; stroke-opacity: 0.7"/>
    </defs>
    <g clip-path="url(#p3c46b5a50c)">
     <use xlink:href="#me9c0e31156" x="0" y="576" style="fill: #cf0000; fill-opacity: 0.7; stroke: #cf0000; stroke-opacity: 0.7"/>
    </g>
   </g>
   <g id="matplotlib.axis_1">
    <g id="xtick_1">
     <g id="line2d_1">
      <defs>
       <path id="m12e3a9073b" d="M 0 0 
L 0 3.5 
" style="stroke: #000000; stroke-width: 0.8"/>
      </defs>
      <g>
       <use xlink:href="#m12e3a9073b" x="42.495313" y="510.648438" style="stroke: #000000; stroke-width: 0.8"/>
      </g>
     </g>
     <g id="text_1">
      <!-- −1.0 -->
      <g transform="translate(18.2125 532.845312) scale(0.2 -0.2)">
       <defs>
        <path id="DejaVuSans-2212" d="M 678 2272 
L 4684 2272 
L 4684 1741 
L 678 1741 
L 678 2272 
z
" transform="scale(0.015625)"/>
        <path id="DejaVuSans-31" d="M 794 531 
L 1825 531 
L 1825 4091 
L 703 3866 
L 703 4441 
L 1819 4666 
L 2450 4666 
L 2450 531 
L 3481 531 
L 3481 0 
L 794 0 
L 794 531 
z
" transform="scale(0.015625)"/>
        <path id="DejaVuSans-2e" d="M 684 794 
L 1344 794 
L 1344 0 
L 684 0 
L 684 794 
z
" transform="scale(0.015625)"/>
        <path id="DejaVuSans-30" d="M 2034 4250 
Q 1547 4250 1301 3770 
Q 1056 3291 1056 2328 
Q 1056 1369 1301 889 
Q 1547 409 2034 409 
Q 2525 409 2770 889 
Q 3016 1369 3016 2328 
Q 3016 3291 2770 3770 
Q 2525 4250 2034 4250 
z
M 2034 4750 
Q 2819 4750 3233 4129 
Q 3647 3509 3647 2328 
Q 3647 1150 3233 529 
Q 2819 -91 2034 -91 
Q 1250 -91 836 529 
Q 422 1150 422 2328 
Q 422 3509 836 4129 
Q 1250 4750 2034 4750 
z
" transform="scale(0.015625)"/>
       </defs>
       <use xlink:href="#DejaVuSans-2212"/>
       <use xlink:href="#DejaVuSans-31" x="83.789062"/>
       <use xlink:href="#DejaVuSans-2e" x="147.412109"/>
       <use xlink:href="#DejaVuSans-30" x="179.199219"/>
      </g>
     </g>
    </g>
    <g id="xtick_2">
     <g id="line2d_2">
      <g>
       <use xlink:href="#m12e3a9073b" x="107.575469" y="510.648438" style="stroke: #000000; stroke-width: 0.8"/>
      </g>
     </g>
     <g id="text_2">
      <!-- −0.8 -->
      <g transform="translate(83.292656 532.845312) scale(0.2 -0.2)">
       <defs>
        <path id="DejaVuSans-38" d="M 2034 2216 
Q 1584 2216 1326 1975 
Q 1069 1734 1069 1313 
Q 1069 891 1326 650 
Q 1584 409 2034 409 
Q 2484 409 2743 651 
Q 3003 894 3003 1313 
Q 3003 1734 2745 1975 
Q 2488 2216 2034 2216 
z
M 1403 2484 
Q 997 2584 770 2862 
Q 544 3141 544 3541 
Q 544 4100 942 4425 
Q 1341 4750 2034 4750 
Q 2731 4750 3128 4425 
Q 3525 4100 3525 3541 
Q 3525 3141 3298 2862 
Q 3072 2584 2669 2484 
Q 3125 2378 3379 2068 
Q 3634 1759 3634 1313 
Q 3634 634 3220 271 
Q 2806 -91 2034 -91 
Q 1263 -91 848 271 
Q 434 634 434 1313 
Q 434 1759 690 2068 
Q 947 2378 1403 2484 
z
M 1172 3481 
Q 1172 3119 1398 2916 
Q 1625 2713 2034 2713 
Q 2441 2713 2670 2916 
Q 2900 3119 2900 3481 
Q 2900 3844 2670 4047 
Q 2441 4250 2034 4250 
Q 1625 4250 1398 4047 
Q 1172 3844 1172 3481 
z
" transform="scale(0.015625)"/>
       </defs>
       <use xlink:href="#DejaVuSans-2212"/>
       <use xlink:href="#DejaVuSans-30" x="83.789062"/>
       <use xlink:href="#DejaVuSans-2e" x="147.412109"/>
       <use xlink:href="#DejaVuSans-38" x="179.199219"/>
      </g>
     </g>
    </g>
    <g id="xtick_3">
     <g id="line2d_3">
      <g>
       <use xlink:href="#m12e3a9073b" x="172.655625" y="510.648438" style="stroke: #000000; stroke-width: 0.8"/>
      </g>
     </g>
     <g id="text_3">
      <!-- −0.6 -->
      <g transform="translate(148.372813 532.845312) scale(0.2 -0.2)">
       <defs>
        <path id="DejaVuSans-36" d="M 2113 2584 
Q 1688 2584 1439 2293 
Q 1191 2003 1191 1497 
Q 1191 994 1439 701 
Q 1688 409 2113 409 
Q 2538 409 2786 701 
Q 3034 994 3034 1497 
Q 3034 2003 2786 2293 
Q 2538 2584 2113 2584 
z
M 3366 4563 
L 3366 3988 
Q 3128 4100 2886 4159 
Q 2644 4219 2406 4219 
Q 1781 4219 1451 3797 
Q 1122 3375 1075 2522 
Q 1259 2794 1537 2939 
Q 1816 3084 2150 3084 
Q 2853 3084 3261 2657 
Q 3669 2231 3669 1497 
Q 3669 778 3244 343 
Q 2819 -91 2113 -91 
Q 1303 -91 875 529 
Q 447 1150 447 2328 
Q 447 3434 972 4092 
Q 1497 4750 2381 4750 
Q 2619 4750 2861 4703 
Q 3103 4656 3366 4563 
z
" transform="scale(0.015625)"/>
       </defs>
       <use xlink:href="#DejaVuSans-2212"/>
       <use xlink:href="#DejaVuSans-30" x="83.789062"/>
       <use xlink:href="#DejaVuSans-2e" x="147.412109"/>
       <use xlink:href="#DejaVuSans-36" x="179.199219"/>
      </g>
     </g>
    </g>
    <g id="xtick_4">
     <g id="line2d_4">
      <g>
       <use xlink:href="#m12e3a9073b" x="237.735781" y="510.648438" style="stroke: #000000; stroke-width: 0.8"/>
      </g>
     </g>
     <g id="text_4">
      <!-- −0.4 -->
      <g transform="translate(213.452969 532.845312) scale(0.2 -0.2)">
       <defs>
        <path id="DejaVuSans-34" d="M 2419 4116 
L 825 1625 
L 2419 1625 
L 2419 4116 
z
M 2253 4666 
L 3047 4666 
L 3047 1625 
L 3713 1625 
L 3713 1100 
L 3047 1100 
L 3047 0 
L 2419 0 
L 2419 1100 
L 313 1100 
L 313 1709 
L 2253 4666 
z
" transform="scale(0.015625)"/>
       </defs>
       <use xlink:href="#DejaVuSans-2212"/>
       <use xlink:href="#DejaVuSans-30" x="83.789062"/>
       <use xlink:href="#DejaVuSans-2e" x="147.412109"/>
       <use xlink:href="#DejaVuSans-34" x="179.199219"/>
      </g>
     </g>
    </g>
    <g id="xtick_5">
     <g id="line2d_5">
      <g>
       <use xlink:href="#m12e3a9073b" x="302.815937" y="510.648438" style="stroke: #000000; stroke-width: 0.8"/>
      </g>
     </g>
     <g id="text_5">
      <!-- −0.2 -->
      <g transform="translate(278.533125 532.845312) scale(0.2 -0.2)">
       <defs>
        <path id="DejaVuSans-32" d="M 1228 531 
L 3431 531 
L 3431 0 
L 469 0 
L 469 531 
Q 828 903 1448 1529 
Q 2069 2156 2228 2338 
Q 2531 2678 2651 2914 
Q 2772 3150 2772 3378 
Q 2772 3750 2511 3984 
Q 2250 4219 1831 4219 
Q 1534 4219 1204 4116 
Q 875 4013 500 3803 
L 500 4441 
Q 881 4594 1212 4672 
Q 1544 4750 1819 4750 
Q 2544 4750 2975 4387 
Q 3406 4025 3406 3419 
Q 3406 3131 3298 2873 
Q 3191 2616 2906 2266 
Q 2828 2175 2409 1742 
Q 1991 1309 1228 531 
z
" transform="scale(0.015625)"/>
       </defs>
       <use xlink:href="#DejaVuSans-2212"/>
       <use xlink:href="#DejaVuSans-30" x="83.789062"/>
       <use xlink:href="#DejaVuSans-2e" x="147.412109"/>
       <use xlink:href="#DejaVuSans-32" x="179.199219"/>
      </g>
     </g>
    </g>
    <g id="xtick_6">
     <g id="line2d_6">
      <g>
       <use xlink:href="#m12e3a9073b" x="367.896094" y="510.648438" style="stroke: #000000; stroke-width: 0.8"/>
      </g>
     </g>
     <g id="text_6">
      <!-- 0.0 -->
      <g transform="translate(351.992969 532.845312) scale(0.2 -0.2)">
       <use xlink:href="#DejaVuSans-30"/>
       <use xlink:href="#DejaVuSans-2e" x="63.623047"/>
       <use xlink:href="#DejaVuSans-30" x="95.410156"/>
      </g>
     </g>
    </g>
    <g id="xtick_7">
     <g id="line2d_7">
      <g>
       <use xlink:href="#m12e3a9073b" x="432.97625" y="510.648438" style="stroke: #000000; stroke-width: 0.8"/>
      </g>
     </g>
     <g id="text_7">
      <!-- 0.2 -->
      <g transform="translate(417.073125 532.845312) scale(0.2 -0.2)">
       <use xlink:href="#DejaVuSans-30"/>
       <use xlink:href="#DejaVuSans-2e" x="63.623047"/>
       <use xlink:href="#DejaVuSans-32" x="95.410156"/>
      </g>
     </g>
    </g>
    <g id="xtick_8">
     <g id="line2d_8">
      <g>
       <use xlink:href="#m12e3a9073b" x="498.056406" y="510.648438" style="stroke: #000000; stroke-width: 0.8"/>
      </g>
     </g>
     <g id="text_8">
      <!-- 0.4 -->
      <g transform="translate(482.153281 532.845312) scale(0.2 -0.2)">
       <use xlink:href="#DejaVuSans-30"/>
       <use xlink:href="#DejaVuSans-2e" x="63.623047"/>
       <use xlink:href="#DejaVuSans-34" x="95.410156"/>
      </g>
     </g>
    </g>
    <g id="xtick_9">
     <g id="line2d_9">
      <g>
       <use xlink:href="#m12e3a9073b" x="563.136562" y="510.648438" style="stroke: #000000; stroke-width: 0.8"/>
      </g>
     </g>
     <g id="text_9">
      <!-- 0.6 -->
      <g transform="translate(547.233437 532.845312) scale(0.2 -0.2)">
       <use xlink:href="#DejaVuSans-30"/>
       <use xlink:href="#DejaVuSans-2e" x="63.623047"/>
       <use xlink:href="#DejaVuSans-36" x="95.410156"/>
      </g>
     </g>
    </g>
    <g id="xtick_10">
     <g id="line2d_10">
      <g>
       <use xlink:href="#m12e3a9073b" x="628.216719" y="510.648438" style="stroke: #000000; stroke-width: 0.8"/>
      </g>
     </g>
     <g id="text_10">
      <!-- 0.8 -->
      <g transform="translate(612.313594 532.845312) scale(0.2 -0.2)">
       <use xlink:href="#DejaVuSans-30"/>
       <use xlink:href="#DejaVuSans-2e" x="63.623047"/>
       <use xlink:href="#DejaVuSans-38" x="95.410156"/>
      </g>
     </g>
    </g>
    <g id="xtick_11">
     <g id="line2d_11">
      <g>
       <use xlink:href="#m12e3a9073b" x="693.296875" y="510.648438" style="stroke: #000000; stroke-width: 0.8"/>
      </g>
     </g>
     <g id="text_11">
      <!-- 1.0 -->
      <g transform="translate(677.39375 532.845312) scale(0.2 -0.2)">
       <use xlink:href="#DejaVuSans-31"/>
       <use xlink:href="#DejaVuSans-2e" x="63.623047"/>
       <use xlink:href="#DejaVuSans-30" x="95.410156"/>
      </g>
     </g>
    </g>
    <g id="text_12">
     <!-- Silhouette coefficient -->
     <g transform="translate(235.021094 560.000781) scale(0.25 -0.25)">
      <defs>
       <path id="DejaVuSans-53" d="M 3425 4513 
L 3425 3897 
Q 3066 4069 2747 4153 
Q 2428 4238 2131 4238 
Q 1616 4238 1336 4038 
Q 1056 3838 1056 3469 
Q 1056 3159 1242 3001 
Q 1428 2844 1947 2747 
L 2328 2669 
Q 3034 2534 3370 2195 
Q 3706 1856 3706 1288 
Q 3706 609 3251 259 
Q 2797 -91 1919 -91 
Q 1588 -91 1214 -16 
Q 841 59 441 206 
L 441 856 
Q 825 641 1194 531 
Q 1563 422 1919 422 
Q 2459 422 2753 634 
Q 3047 847 3047 1241 
Q 3047 1584 2836 1778 
Q 2625 1972 2144 2069 
L 1759 2144 
Q 1053 2284 737 2584 
Q 422 2884 422 3419 
Q 422 4038 858 4394 
Q 1294 4750 2059 4750 
Q 2388 4750 2728 4690 
Q 3069 4631 3425 4513 
z
" transform="scale(0.015625)"/>
       <path id="DejaVuSans-69" d="M 603 3500 
L 1178 3500 
L 1178 0 
L 603 0 
L 603 3500 
z
M 603 4863 
L 1178 4863 
L 1178 4134 
L 603 4134 
L 603 4863 
z
" transform="scale(0.015625)"/>
       <path id="DejaVuSans-6c" d="M 603 4863 
L 1178 4863 
L 1178 0 
L 603 0 
L 603 4863 
z
" transform="scale(0.015625)"/>
       <path id="DejaVuSans-68" d="M 3513 2113 
L 3513 0 
L 2938 0 
L 2938 2094 
Q 2938 2591 2744 2837 
Q 2550 3084 2163 3084 
Q 1697 3084 1428 2787 
Q 1159 2491 1159 1978 
L 1159 0 
L 581 0 
L 581 4863 
L 1159 4863 
L 1159 2956 
Q 1366 3272 1645 3428 
Q 1925 3584 2291 3584 
Q 2894 3584 3203 3211 
Q 3513 2838 3513 2113 
z
" transform="scale(0.015625)"/>
       <path id="DejaVuSans-6f" d="M 1959 3097 
Q 1497 3097 1228 2736 
Q 959 2375 959 1747 
Q 959 1119 1226 758 
Q 1494 397 1959 397 
Q 2419 397 2687 759 
Q 2956 1122 2956 1747 
Q 2956 2369 2687 2733 
Q 2419 3097 1959 3097 
z
M 1959 3584 
Q 2709 3584 3137 3096 
Q 3566 2609 3566 1747 
Q 3566 888 3137 398 
Q 2709 -91 1959 -91 
Q 1206 -91 779 398 
Q 353 888 353 1747 
Q 353 2609 779 3096 
Q 1206 3584 1959 3584 
z
" transform="scale(0.015625)"/>
       <path id="DejaVuSans-75" d="M 544 1381 
L 544 3500 
L 1119 3500 
L 1119 1403 
Q 1119 906 1312 657 
Q 1506 409 1894 409 
Q 2359 409 2629 706 
Q 2900 1003 2900 1516 
L 2900 3500 
L 3475 3500 
L 3475 0 
L 2900 0 
L 2900 538 
Q 2691 219 2414 64 
Q 2138 -91 1772 -91 
Q 1169 -91 856 284 
Q 544 659 544 1381 
z
M 1991 3584 
L 1991 3584 
z
" transform="scale(0.015625)"/>
       <path id="DejaVuSans-65" d="M 3597 1894 
L 3597 1613 
L 953 1613 
Q 991 1019 1311 708 
Q 1631 397 2203 397 
Q 2534 397 2845 478 
Q 3156 559 3463 722 
L 3463 178 
Q 3153 47 2828 -22 
Q 2503 -91 2169 -91 
Q 1331 -91 842 396 
Q 353 884 353 1716 
Q 353 2575 817 3079 
Q 1281 3584 2069 3584 
Q 2775 3584 3186 3129 
Q 3597 2675 3597 1894 
z
M 3022 2063 
Q 3016 2534 2758 2815 
Q 2500 3097 2075 3097 
Q 1594 3097 1305 2825 
Q 1016 2553 972 2059 
L 3022 2063 
z
" transform="scale(0.015625)"/>
       <path id="DejaVuSans-74" d="M 1172 4494 
L 1172 3500 
L 2356 3500 
L 2356 3053 
L 1172 3053 
L 1172 1153 
Q 1172 725 1289 603 
Q 1406 481 1766 481 
L 2356 481 
L 2356 0 
L 1766 0 
Q 1100 0 847 248 
Q 594 497 594 1153 
L 594 3053 
L 172 3053 
L 172 3500 
L 594 3500 
L 594 4494 
L 1172 4494 
z
" transform="scale(0.015625)"/>
       <path id="DejaVuSans-20" transform="scale(0.015625)"/>
       <path id="DejaVuSans-63" d="M 3122 3366 
L 3122 2828 
Q 2878 2963 2633 3030 
Q 2388 3097 2138 3097 
Q 1578 3097 1268 2742 
Q 959 2388 959 1747 
Q 959 1106 1268 751 
Q 1578 397 2138 397 
Q 2388 397 2633 464 
Q 2878 531 3122 666 
L 3122 134 
Q 2881 22 2623 -34 
Q 2366 -91 2075 -91 
Q 1284 -91 818 406 
Q 353 903 353 1747 
Q 353 2603 823 3093 
Q 1294 3584 2113 3584 
Q 2378 3584 2631 3529 
Q 2884 3475 3122 3366 
z
" transform="scale(0.015625)"/>
       <path id="DejaVuSans-66" d="M 2375 4863 
L 2375 4384 
L 1825 4384 
Q 1516 4384 1395 4259 
Q 1275 4134 1275 3809 
L 1275 3500 
L 2222 3500 
L 2222 3053 
L 1275 3053 
L 1275 0 
L 697 0 
L 697 3053 
L 147 3053 
L 147 3500 
L 697 3500 
L 697 3744 
Q 697 4328 969 4595 
Q 1241 4863 1831 4863 
L 2375 4863 
z
" transform="scale(0.015625)"/>
       <path id="DejaVuSans-6e" d="M 3513 2113 
L 3513 0 
L 2938 0 
L 2938 2094 
Q 2938 2591 2744 2837 
Q 2550 3084 2163 3084 
Q 1697 3084 1428 2787 
Q 1159 2491 1159 1978 
L 1159 0 
L 581 0 
L 581 3500 
L 1159 3500 
L 1159 2956 
Q 1366 3272 1645 3428 
Q 1925 3584 2291 3584 
Q 2894 3584 3203 3211 
Q 3513 2838 3513 2113 
z
" transform="scale(0.015625)"/>
      </defs>
      <use xlink:href="#DejaVuSans-53"/>
      <use xlink:href="#DejaVuSans-69" x="63.476562"/>
      <use xlink:href="#DejaVuSans-6c" x="91.259766"/>
      <use xlink:href="#DejaVuSans-68" x="119.042969"/>
      <use xlink:href="#DejaVuSans-6f" x="182.421875"/>
      <use xlink:href="#DejaVuSans-75" x="243.603516"/>
      <use xlink:href="#DejaVuSans-65" x="306.982422"/>
      <use xlink:href="#DejaVuSans-74" x="368.505859"/>
      <use xlink:href="#DejaVuSans-74" x="407.714844"/>
      <use xlink:href="#DejaVuSans-65" x="446.923828"/>
      <use xlink:href="#DejaVuSans-20" x="508.447266"/>
      <use xlink:href="#DejaVuSans-63" x="540.234375"/>
      <use xlink:href="#DejaVuSans-6f" x="595.214844"/>
      <use xlink:href="#DejaVuSans-65" x="656.396484"/>
      <use xlink:href="#DejaVuSans-66" x="717.919922"/>
      <use xlink:href="#DejaVuSans-66" x="753.125"/>
      <use xlink:href="#DejaVuSans-69" x="788.330078"/>
      <use xlink:href="#DejaVuSans-63" x="816.113281"/>
      <use xlink:href="#DejaVuSans-69" x="871.09375"/>
      <use xlink:href="#DejaVuSans-65" x="898.876953"/>
      <use xlink:href="#DejaVuSans-6e" x="960.400391"/>
      <use xlink:href="#DejaVuSans-74" x="1023.779297"/>
     </g>
    </g>
   </g>
   <g id="matplotlib.axis_2">
    <g id="text_13">
     <!-- Predicted label -->
     <g transform="translate(29.796094 360.469396) rotate(-90) scale(0.25 -0.25)">
      <defs>
       <path id="DejaVuSans-50" d="M 1259 4147 
L 1259 2394 
L 2053 2394 
Q 2494 2394 2734 2622 
Q 2975 2850 2975 3272 
Q 2975 3691 2734 3919 
Q 2494 4147 2053 4147 
L 1259 4147 
z
M 628 4666 
L 2053 4666 
Q 2838 4666 3239 4311 
Q 3641 3956 3641 3272 
Q 3641 2581 3239 2228 
Q 2838 1875 2053 1875 
L 1259 1875 
L 1259 0 
L 628 0 
L 628 4666 
z
" transform="scale(0.015625)"/>
       <path id="DejaVuSans-72" d="M 2631 2963 
Q 2534 3019 2420 3045 
Q 2306 3072 2169 3072 
Q 1681 3072 1420 2755 
Q 1159 2438 1159 1844 
L 1159 0 
L 581 0 
L 581 3500 
L 1159 3500 
L 1159 2956 
Q 1341 3275 1631 3429 
Q 1922 3584 2338 3584 
Q 2397 3584 2469 3576 
Q 2541 3569 2628 3553 
L 2631 2963 
z
" transform="scale(0.015625)"/>
       <path id="DejaVuSans-64" d="M 2906 2969 
L 2906 4863 
L 3481 4863 
L 3481 0 
L 2906 0 
L 2906 525 
Q 2725 213 2448 61 
Q 2172 -91 1784 -91 
Q 1150 -91 751 415 
Q 353 922 353 1747 
Q 353 2572 751 3078 
Q 1150 3584 1784 3584 
Q 2172 3584 2448 3432 
Q 2725 3281 2906 2969 
z
M 947 1747 
Q 947 1113 1208 752 
Q 1469 391 1925 391 
Q 2381 391 2643 752 
Q 2906 1113 2906 1747 
Q 2906 2381 2643 2742 
Q 2381 3103 1925 3103 
Q 1469 3103 1208 2742 
Q 947 2381 947 1747 
z
" transform="scale(0.015625)"/>
       <path id="DejaVuSans-61" d="M 2194 1759 
Q 1497 1759 1228 1600 
Q 959 1441 959 1056 
Q 959 750 1161 570 
Q 1363 391 1709 391 
Q 2188 391 2477 730 
Q 2766 1069 2766 1631 
L 2766 1759 
L 2194 1759 
z
M 3341 1997 
L 3341 0 
L 2766 0 
L 2766 531 
Q 2569 213 2275 61 
Q 1981 -91 1556 -91 
Q 1019 -91 701 211 
Q 384 513 384 1019 
Q 384 1609 779 1909 
Q 1175 2209 1959 2209 
L 2766 2209 
L 2766 2266 
Q 2766 2663 2505 2880 
Q 2244 3097 1772 3097 
Q 1472 3097 1187 3025 
Q 903 2953 641 2809 
L 641 3341 
Q 956 3463 1253 3523 
Q 1550 3584 1831 3584 
Q 2591 3584 2966 3190 
Q 3341 2797 3341 1997 
z
" transform="scale(0.015625)"/>
       <path id="DejaVuSans-62" d="M 3116 1747 
Q 3116 2381 2855 2742 
Q 2594 3103 2138 3103 
Q 1681 3103 1420 2742 
Q 1159 2381 1159 1747 
Q 1159 1113 1420 752 
Q 1681 391 2138 391 
Q 2594 391 2855 752 
Q 3116 1113 3116 1747 
z
M 1159 2969 
Q 1341 3281 1617 3432 
Q 1894 3584 2278 3584 
Q 2916 3584 3314 3078 
Q 3713 2572 3713 1747 
Q 3713 922 3314 415 
Q 2916 -91 2278 -91 
Q 1894 -91 1617 61 
Q 1341 213 1159 525 
L 1159 0 
L 581 0 
L 581 4863 
L 1159 4863 
L 1159 2969 
z
" transform="scale(0.015625)"/>
      </defs>
      <use xlink:href="#DejaVuSans-50"/>
      <use xlink:href="#DejaVuSans-72" x="58.552734"/>
      <use xlink:href="#DejaVuSans-65" x="97.416016"/>
      <use xlink:href="#DejaVuSans-64" x="158.939453"/>
      <use xlink:href="#DejaVuSans-69" x="222.416016"/>
      <use xlink:href="#DejaVuSans-63" x="250.199219"/>
      <use xlink:href="#DejaVuSans-74" x="305.179688"/>
      <use xlink:href="#DejaVuSans-65" x="344.388672"/>
      <use xlink:href="#DejaVuSans-64" x="405.912109"/>
      <use xlink:href="#DejaVuSans-20" x="469.388672"/>
      <use xlink:href="#DejaVuSans-6c" x="501.175781"/>
      <use xlink:href="#DejaVuSans-61" x="528.958984"/>
      <use xlink:href="#DejaVuSans-62" x="590.238281"/>
      <use xlink:href="#DejaVuSans-65" x="653.714844"/>
      <use xlink:href="#DejaVuSans-6c" x="715.238281"/>
     </g>
    </g>
   </g>
   <g id="line2d_12">
    <path d="M 498.462639 510.648438 
L 498.462639 24.528635 
" clip-path="url(#p3c46b5a50c)" style="fill: none; stroke: #ff0000; stroke-width: 4; stroke-linecap: square"/>
   </g>
   <g id="patch_3">
    <path d="M 42.495313 510.648438 
L 42.495313 24.528635 
" style="fill: none; stroke: #000000; stroke-width: 0.8; stroke-linejoin: miter; stroke-linecap: square"/>
   </g>
   <g id="patch_4">
    <path d="M 693.296875 510.648438 
L 693.296875 24.528635 
" style="fill: none; stroke: #000000; stroke-width: 0.8; stroke-linejoin: miter; stroke-linecap: square"/>
   </g>
   <g id="patch_5">
    <path d="M 42.495313 510.648438 
L 693.296875 510.648438 
" style="fill: none; stroke: #000000; stroke-width: 0.8; stroke-linejoin: miter; stroke-linecap: square"/>
   </g>
   <g id="patch_6">
    <path d="M 42.495313 24.528635 
L 693.296875 24.528635 
" style="fill: none; stroke: #000000; stroke-width: 0.8; stroke-linejoin: miter; stroke-linecap: square"/>
   </g>
   <g id="text_14">
    <!-- 0 -->
    <g transform="translate(351.626055 479.760778) scale(0.25 -0.25)">
     <use xlink:href="#DejaVuSans-30"/>
    </g>
   </g>
   <g id="text_15">
    <!-- 1 -->
    <g transform="translate(351.626055 419.717477) scale(0.25 -0.25)">
     <use xlink:href="#DejaVuSans-31"/>
    </g>
   </g>
   <g id="text_16">
    <!-- 2 -->
    <g transform="translate(351.626055 383.922432) scale(0.25 -0.25)">
     <use xlink:href="#DejaVuSans-32"/>
    </g>
   </g>
   <g id="text_17">
    <!-- 3 -->
    <g transform="translate(351.626055 373.241653) scale(0.25 -0.25)">
     <defs>
      <path id="DejaVuSans-33" d="M 2597 2516 
Q 3050 2419 3304 2112 
Q 3559 1806 3559 1356 
Q 3559 666 3084 287 
Q 2609 -91 1734 -91 
Q 1441 -91 1130 -33 
Q 819 25 488 141 
L 488 750 
Q 750 597 1062 519 
Q 1375 441 1716 441 
Q 2309 441 2620 675 
Q 2931 909 2931 1356 
Q 2931 1769 2642 2001 
Q 2353 2234 1838 2234 
L 1294 2234 
L 1294 2753 
L 1863 2753 
Q 2328 2753 2575 2939 
Q 2822 3125 2822 3475 
Q 2822 3834 2567 4026 
Q 2313 4219 1838 4219 
Q 1578 4219 1281 4162 
Q 984 4106 628 3988 
L 628 4550 
Q 988 4650 1302 4700 
Q 1616 4750 1894 4750 
Q 2613 4750 3031 4423 
Q 3450 4097 3450 3541 
Q 3450 3153 3228 2886 
Q 3006 2619 2597 2516 
z
" transform="scale(0.015625)"/>
     </defs>
     <use xlink:href="#DejaVuSans-33"/>
    </g>
   </g>
   <g id="text_18">
    <!-- 4 -->
    <g transform="translate(351.626055 350.148075) scale(0.25 -0.25)">
     <use xlink:href="#DejaVuSans-34"/>
    </g>
   </g>
   <g id="text_19">
    <!-- 5 -->
    <g transform="translate(351.626055 328.497847) scale(0.25 -0.25)">
     <defs>
      <path id="DejaVuSans-35" d="M 691 4666 
L 3169 4666 
L 3169 4134 
L 1269 4134 
L 1269 2991 
Q 1406 3038 1543 3061 
Q 1681 3084 1819 3084 
Q 2600 3084 3056 2656 
Q 3513 2228 3513 1497 
Q 3513 744 3044 326 
Q 2575 -91 1722 -91 
Q 1428 -91 1123 -41 
Q 819 9 494 109 
L 494 744 
Q 775 591 1075 516 
Q 1375 441 1709 441 
Q 2250 441 2565 725 
Q 2881 1009 2881 1497 
Q 2881 1984 2565 2268 
Q 2250 2553 1709 2553 
Q 1456 2553 1204 2497 
Q 953 2441 691 2322 
L 691 4666 
z
" transform="scale(0.015625)"/>
     </defs>
     <use xlink:href="#DejaVuSans-35"/>
    </g>
   </g>
   <g id="text_20">
    <!-- 6 -->
    <g transform="translate(351.626055 301.074223) scale(0.25 -0.25)">
     <use xlink:href="#DejaVuSans-36"/>
    </g>
   </g>
   <g id="text_21">
    <!-- 7 -->
    <g transform="translate(351.626055 273.93927) scale(0.25 -0.25)">
     <defs>
      <path id="DejaVuSans-37" d="M 525 4666 
L 3525 4666 
L 3525 4397 
L 1831 0 
L 1172 0 
L 2766 4134 
L 525 4134 
L 525 4666 
z
" transform="scale(0.015625)"/>
     </defs>
     <use xlink:href="#DejaVuSans-37"/>
    </g>
   </g>
   <g id="text_22">
    <!-- 8 -->
    <g transform="translate(351.626055 260.083124) scale(0.25 -0.25)">
     <use xlink:href="#DejaVuSans-38"/>
    </g>
   </g>
   <g id="text_23">
    <!-- 9 -->
    <g transform="translate(351.626055 232.082161) scale(0.25 -0.25)">
     <defs>
      <path id="DejaVuSans-39" d="M 703 97 
L 703 672 
Q 941 559 1184 500 
Q 1428 441 1663 441 
Q 2288 441 2617 861 
Q 2947 1281 2994 2138 
Q 2813 1869 2534 1725 
Q 2256 1581 1919 1581 
Q 1219 1581 811 2004 
Q 403 2428 403 3163 
Q 403 3881 828 4315 
Q 1253 4750 1959 4750 
Q 2769 4750 3195 4129 
Q 3622 3509 3622 2328 
Q 3622 1225 3098 567 
Q 2575 -91 1691 -91 
Q 1453 -91 1209 -44 
Q 966 3 703 97 
z
M 1959 2075 
Q 2384 2075 2632 2365 
Q 2881 2656 2881 3163 
Q 2881 3666 2632 3958 
Q 2384 4250 1959 4250 
Q 1534 4250 1286 3958 
Q 1038 3666 1038 3163 
Q 1038 2656 1286 2365 
Q 1534 2075 1959 2075 
z
" transform="scale(0.015625)"/>
     </defs>
     <use xlink:href="#DejaVuSans-39"/>
    </g>
   </g>
   <g id="text_24">
    <!-- 10 -->
    <g transform="translate(351.626055 203.21519) scale(0.25 -0.25)">
     <use xlink:href="#DejaVuSans-31"/>
     <use xlink:href="#DejaVuSans-30" x="63.623047"/>
    </g>
   </g>
   <g id="text_25">
    <!-- 11 -->
    <g transform="translate(351.626055 132.779779) scale(0.25 -0.25)">
     <use xlink:href="#DejaVuSans-31"/>
     <use xlink:href="#DejaVuSans-31" x="63.623047"/>
    </g>
   </g>
   <g id="text_26">
    <!-- 12 -->
    <g transform="translate(351.626055 63.499047) scale(0.25 -0.25)">
     <use xlink:href="#DejaVuSans-31"/>
     <use xlink:href="#DejaVuSans-32" x="63.623047"/>
    </g>
   </g>
   <g id="text_27">
    <!-- 13 -->
    <g transform="translate(351.626055 50.50891) scale(0.25 -0.25)">
     <use xlink:href="#DejaVuSans-31"/>
     <use xlink:href="#DejaVuSans-33" x="63.623047"/>
    </g>
   </g>
   <g id="text_28">
    <!-- 14 -->
    <g transform="translate(351.626055 40.40547) scale(0.25 -0.25)">
     <use xlink:href="#DejaVuSans-31"/>
     <use xlink:href="#DejaVuSans-34" x="63.623047"/>
    </g>
   </g>
   <g id="text_29">
    <!-- 15 -->
    <g transform="translate(351.626055 31.168039) scale(0.25 -0.25)">
     <use xlink:href="#DejaVuSans-31"/>
     <use xlink:href="#DejaVuSans-35" x="63.623047"/>
    </g>
   </g>
   <g id="text_30">
    <!-- 0.4012 -->
    <g style="fill: #ff0000" transform="translate(514.732678 30.30203) scale(0.25 -0.25)">
     <use xlink:href="#DejaVuSans-30"/>
     <use xlink:href="#DejaVuSans-2e" x="63.623047"/>
     <use xlink:href="#DejaVuSans-34" x="95.410156"/>
     <use xlink:href="#DejaVuSans-30" x="159.033203"/>
     <use xlink:href="#DejaVuSans-31" x="222.65625"/>
     <use xlink:href="#DejaVuSans-32" x="286.279297"/>
    </g>
   </g>
  </g>
 </g>
 <defs>
  <clipPath id="p3c46b5a50c">
   <rect x="42.495313" y="24.528635" width="650.801562" height="486.119802"/>
  </clipPath>
 </defs>
</svg>
