<?xml version="1.0" encoding="utf-8" standalone="no"?>
<!DOCTYPE svg PUBLIC "-//W3C//DTD SVG 1.1//EN"
  "http://www.w3.org/Graphics/SVG/1.1/DTD/svg11.dtd">
<svg xmlns:xlink="http://www.w3.org/1999/xlink" width="720pt" height="432pt" viewBox="0 0 720 432" xmlns="http://www.w3.org/2000/svg" version="1.1">
 <metadata>
  <rdf:RDF xmlns:dc="http://purl.org/dc/elements/1.1/" xmlns:cc="http://creativecommons.org/ns#" xmlns:rdf="http://www.w3.org/1999/02/22-rdf-syntax-ns#">
   <cc:Work>
    <dc:type rdf:resource="http://purl.org/dc/dcmitype/StillImage"/>
    <dc:date>2022-11-03T12:28:04.764637</dc:date>
    <dc:format>image/svg+xml</dc:format>
    <dc:creator>
     <cc:Agent>
      <dc:title>Matplotlib v3.6.1, https://matplotlib.org/</dc:title>
     </cc:Agent>
    </dc:creator>
   </cc:Work>
  </rdf:RDF>
 </metadata>
 <defs>
  <style type="text/css">*{stroke-linejoin: round; stroke-linecap: butt}</style>
 </defs>
 <g id="figure_1">
  <g id="patch_1">
   <path d="M 0 432 
L 720 432 
L 720 0 
L 0 0 
z
" style="fill: #ffffff"/>
  </g>
  <g id="axes_1">
   <g id="patch_2">
    <path d="M 27.978125 390.84375 
L 701.248437 390.84375 
L 701.248437 14.447844 
L 27.978125 14.447844 
z
" style="fill: #ffffff"/>
   </g>
   <g id="PolyCollection_1">
    <defs>
     <path id="m0672cfdfc3" d="M 374.538489 -45.62651 
L 364.613281 -45.62651 
L 364.613281 -46.073536 
L 364.613281 -46.520562 
L 364.613281 -46.967588 
L 364.613281 -47.414614 
L 364.613281 -47.86164 
L 364.613281 -48.308666 
L 364.613281 -48.755692 
L 364.613281 -49.202718 
L 364.613281 -49.649744 
L 364.613281 -50.09677 
L 364.613281 -50.543796 
L 364.613281 -50.990822 
L 364.613281 -51.437848 
L 364.613281 -51.884874 
L 364.613281 -52.3319 
L 364.613281 -52.778926 
L 364.613281 -53.225952 
L 364.613281 -53.672978 
L 364.613281 -54.120004 
L 364.613281 -54.567031 
L 364.613281 -55.014057 
L 364.613281 -55.461083 
L 364.613281 -55.908109 
L 364.613281 -56.355135 
L 364.613281 -56.802161 
L 364.613281 -57.249187 
L 364.613281 -57.696213 
L 364.613281 -58.143239 
L 364.613281 -58.590265 
L 364.613281 -59.037291 
L 364.613281 -59.484317 
L 364.613281 -59.931343 
L 364.613281 -60.378369 
L 364.613281 -60.825395 
L 364.613281 -61.272421 
L 364.613281 -61.719447 
L 364.613281 -62.166473 
L 364.613281 -62.613499 
L 364.613281 -63.060525 
L 364.613281 -63.507551 
L 364.613281 -63.954577 
L 364.613281 -64.401603 
L 364.613281 -64.848629 
L 364.613281 -65.295655 
L 364.613281 -65.742681 
L 364.613281 -66.189707 
L 364.613281 -66.636733 
L 364.613281 -67.083759 
L 364.613281 -67.530785 
L 364.613281 -67.977811 
L 364.613281 -68.424837 
L 364.613281 -68.871863 
L 364.613281 -69.318889 
L 364.613281 -69.765915 
L 364.613281 -70.212941 
L 364.613281 -70.659967 
L 364.613281 -71.106993 
L 364.613281 -71.554019 
L 364.613281 -72.001045 
L 364.613281 -72.448071 
L 364.613281 -72.895097 
L 364.613281 -73.342123 
L 364.613281 -73.789149 
L 364.613281 -74.236175 
L 364.613281 -74.683201 
L 364.613281 -75.130227 
L 364.613281 -75.577253 
L 364.613281 -76.024279 
L 364.613281 -76.471305 
L 364.613281 -76.918331 
L 364.613281 -77.365357 
L 364.613281 -77.812383 
L 364.613281 -78.259409 
L 364.613281 -78.706435 
L 364.613281 -79.153461 
L 364.613281 -79.600487 
L 364.613281 -80.047513 
L 364.613281 -80.494539 
L 364.613281 -80.941566 
L 364.613281 -81.388592 
L 364.613281 -81.835618 
L 364.613281 -82.282644 
L 364.613281 -82.72967 
L 364.613281 -83.176696 
L 364.613281 -83.623722 
L 364.613281 -84.070748 
L 544.563909 -84.070748 
L 544.563909 -84.070748 
L 542.618989 -83.623722 
L 541.479804 -83.176696 
L 540.502869 -82.72967 
L 540.479572 -82.282644 
L 539.854322 -81.835618 
L 538.990361 -81.388592 
L 538.893707 -80.941566 
L 538.888662 -80.494539 
L 538.680392 -80.047513 
L 537.800003 -79.600487 
L 537.202258 -79.153461 
L 537.053952 -78.706435 
L 536.859072 -78.259409 
L 536.817652 -77.812383 
L 536.738273 -77.365357 
L 536.52362 -76.918331 
L 535.667745 -76.471305 
L 535.299775 -76.024279 
L 534.281656 -75.577253 
L 534.133759 -75.130227 
L 533.790962 -74.683201 
L 533.606407 -74.236175 
L 533.504275 -73.789149 
L 533.288263 -73.342123 
L 533.076492 -72.895097 
L 532.123997 -72.448071 
L 531.389529 -72.001045 
L 530.773382 -71.554019 
L 530.634747 -71.106993 
L 530.420922 -70.659967 
L 529.735805 -70.212941 
L 528.694706 -69.765915 
L 528.609758 -69.318889 
L 527.742864 -68.871863 
L 527.721262 -68.424837 
L 527.519819 -67.977811 
L 526.746883 -67.530785 
L 526.463032 -67.083759 
L 526.394542 -66.636733 
L 524.18231 -66.189707 
L 524.079829 -65.742681 
L 523.916211 -65.295655 
L 523.712129 -64.848629 
L 523.570562 -64.401603 
L 523.410127 -63.954577 
L 523.25696 -63.507551 
L 522.57416 -63.060525 
L 522.473861 -62.613499 
L 522.286114 -62.166473 
L 522.119596 -61.719447 
L 521.78961 -61.272421 
L 521.481442 -60.825395 
L 520.405066 -60.378369 
L 520.179067 -59.931343 
L 519.487884 -59.484317 
L 519.288509 -59.037291 
L 515.169019 -58.590265 
L 514.499208 -58.143239 
L 514.353597 -57.696213 
L 514.337406 -57.249187 
L 512.64739 -56.802161 
L 511.603893 -56.355135 
L 510.991773 -55.908109 
L 510.605535 -55.461083 
L 509.673927 -55.014057 
L 508.813101 -54.567031 
L 508.766437 -54.120004 
L 508.594966 -53.672978 
L 507.781606 -53.225952 
L 507.033184 -52.778926 
L 506.264318 -52.3319 
L 504.538543 -51.884874 
L 502.64036 -51.437848 
L 500.847354 -50.990822 
L 500.741471 -50.543796 
L 492.633093 -50.09677 
L 486.020613 -49.649744 
L 480.592743 -49.202718 
L 467.010345 -48.755692 
L 465.448361 -48.308666 
L 464.494251 -47.86164 
L 455.781765 -47.414614 
L 448.209001 -46.967588 
L 448.145822 -46.520562 
L 425.77167 -46.073536 
L 374.538489 -45.62651 
z
" style="stroke: #000000; stroke-opacity: 0.7"/>
    </defs>
    <g clip-path="url(#pc4336314e3)">
     <use xlink:href="#m0672cfdfc3" x="0" y="432" style="fill-opacity: 0.7; stroke: #000000; stroke-opacity: 0.7"/>
    </g>
   </g>
   <g id="PolyCollection_2">
    <defs>
     <path id="m08bfeb36dc" d="M 323.537567 -88.988034 
L 364.613281 -88.988034 
L 364.613281 -89.43506 
L 364.613281 -89.882086 
L 364.613281 -90.329112 
L 364.613281 -90.776138 
L 364.613281 -91.223164 
L 364.613281 -91.67019 
L 364.613281 -92.117216 
L 364.613281 -92.564242 
L 364.613281 -93.011268 
L 364.613281 -93.458294 
L 364.613281 -93.90532 
L 364.613281 -94.352346 
L 364.613281 -94.799372 
L 364.613281 -95.246398 
L 364.613281 -95.693424 
L 364.613281 -96.14045 
L 364.613281 -96.587476 
L 364.613281 -97.034502 
L 364.613281 -97.481528 
L 364.613281 -97.928554 
L 364.613281 -98.37558 
L 364.613281 -98.822606 
L 364.613281 -99.269632 
L 364.613281 -99.716658 
L 364.613281 -100.163684 
L 364.613281 -100.61071 
L 364.613281 -101.057736 
L 364.613281 -101.504762 
L 364.613281 -101.951788 
L 364.613281 -102.398814 
L 364.613281 -102.84584 
L 364.613281 -103.292866 
L 364.613281 -103.739892 
L 364.613281 -104.186918 
L 364.613281 -104.633944 
L 364.613281 -105.08097 
L 364.613281 -105.527996 
L 364.613281 -105.975022 
L 364.613281 -106.422048 
L 364.613281 -106.869075 
L 364.613281 -107.316101 
L 364.613281 -107.763127 
L 364.613281 -108.210153 
L 364.613281 -108.657179 
L 364.613281 -109.104205 
L 364.613281 -109.551231 
L 364.613281 -109.998257 
L 364.613281 -110.445283 
L 364.613281 -110.892309 
L 364.613281 -111.339335 
L 364.613281 -111.786361 
L 364.613281 -112.233387 
L 364.613281 -112.680413 
L 364.613281 -113.127439 
L 364.613281 -113.574465 
L 364.613281 -114.021491 
L 364.613281 -114.468517 
L 364.613281 -114.915543 
L 364.613281 -115.362569 
L 364.613281 -115.809595 
L 364.613281 -116.256621 
L 364.613281 -116.703647 
L 364.613281 -117.150673 
L 364.613281 -117.597699 
L 364.613281 -118.044725 
L 364.613281 -118.491751 
L 364.613281 -118.938777 
L 364.613281 -119.385803 
L 364.613281 -119.832829 
L 364.613281 -120.279855 
L 364.613281 -120.726881 
L 364.613281 -121.173907 
L 364.613281 -121.620933 
L 364.613281 -122.067959 
L 364.613281 -122.514985 
L 364.613281 -122.962011 
L 364.613281 -123.409037 
L 364.613281 -123.856063 
L 364.613281 -124.303089 
L 364.613281 -124.750115 
L 364.613281 -125.197141 
L 364.613281 -125.644167 
L 364.613281 -126.091193 
L 364.613281 -126.538219 
L 364.613281 -126.985245 
L 364.613281 -127.432271 
L 364.613281 -127.879297 
L 364.613281 -128.326323 
L 364.613281 -128.773349 
L 364.613281 -129.220375 
L 364.613281 -129.667401 
L 364.613281 -130.114427 
L 364.613281 -130.561453 
L 364.613281 -131.008479 
L 364.613281 -131.455505 
L 364.613281 -131.902531 
L 364.613281 -132.349557 
L 364.613281 -132.796583 
L 364.613281 -133.24361 
L 364.613281 -133.690636 
L 538.371803 -133.690636 
L 538.371803 -133.690636 
L 533.378477 -133.24361 
L 532.598034 -132.796583 
L 531.418946 -132.349557 
L 527.744986 -131.902531 
L 527.285868 -131.455505 
L 526.929106 -131.008479 
L 525.692749 -130.561453 
L 525.277674 -130.114427 
L 524.378162 -129.667401 
L 523.557221 -129.220375 
L 522.97425 -128.773349 
L 521.712844 -128.326323 
L 520.746615 -127.879297 
L 520.481979 -127.432271 
L 519.984959 -126.985245 
L 518.742938 -126.538219 
L 516.894872 -126.091193 
L 516.195495 -125.644167 
L 515.622084 -125.197141 
L 515.247425 -124.750115 
L 514.396767 -124.303089 
L 512.224297 -123.856063 
L 512.157607 -123.409037 
L 512.074311 -122.962011 
L 512.04625 -122.514985 
L 511.92789 -122.067959 
L 510.020022 -121.620933 
L 509.345418 -121.173907 
L 507.45448 -120.726881 
L 506.936577 -120.279855 
L 506.576015 -119.832829 
L 505.808257 -119.385803 
L 505.302712 -118.938777 
L 504.656504 -118.491751 
L 504.613447 -118.044725 
L 504.358488 -117.597699 
L 502.842251 -117.150673 
L 501.79343 -116.703647 
L 500.398067 -116.256621 
L 498.222748 -115.809595 
L 498.098946 -115.362569 
L 497.005006 -114.915543 
L 495.78536 -114.468517 
L 495.783019 -114.021491 
L 495.368579 -113.574465 
L 495.002912 -113.127439 
L 493.929886 -112.680413 
L 493.639367 -112.233387 
L 493.150285 -111.786361 
L 493.059771 -111.339335 
L 489.675493 -110.892309 
L 488.136444 -110.445283 
L 484.710673 -109.998257 
L 481.115906 -109.551231 
L 478.801053 -109.104205 
L 477.38201 -108.657179 
L 477.086755 -108.210153 
L 476.642763 -107.763127 
L 476.260234 -107.316101 
L 475.142479 -106.869075 
L 474.371712 -106.422048 
L 472.383518 -105.975022 
L 463.714763 -105.527996 
L 462.13292 -105.08097 
L 458.268316 -104.633944 
L 457.199439 -104.186918 
L 456.493096 -103.739892 
L 454.133749 -103.292866 
L 452.96472 -102.84584 
L 447.357931 -102.398814 
L 442.90731 -101.951788 
L 442.377132 -101.504762 
L 442.093142 -101.057736 
L 438.94065 -100.61071 
L 435.246673 -100.163684 
L 434.431476 -99.716658 
L 429.627759 -99.269632 
L 428.408257 -98.822606 
L 428.379207 -98.37558 
L 424.571272 -97.928554 
L 422.812628 -97.481528 
L 422.466003 -97.034502 
L 420.337031 -96.587476 
L 418.440112 -96.14045 
L 414.472673 -95.693424 
L 402.588249 -95.246398 
L 401.726791 -94.799372 
L 399.477773 -94.352346 
L 396.41561 -93.90532 
L 394.283019 -93.458294 
L 390.620291 -93.011268 
L 388.114004 -92.564242 
L 387.186374 -92.117216 
L 381.823971 -91.67019 
L 376.613198 -91.223164 
L 367.990629 -90.776138 
L 356.058329 -90.329112 
L 344.877048 -89.882086 
L 327.60699 -89.43506 
L 323.537567 -88.988034 
z
" style="stroke: #7b008c; stroke-opacity: 0.7"/>
    </defs>
    <g clip-path="url(#pc4336314e3)">
     <use xlink:href="#m08bfeb36dc" x="0" y="432" style="fill: #7b008c; fill-opacity: 0.7; stroke: #7b008c; stroke-opacity: 0.7"/>
    </g>
   </g>
   <g id="PolyCollection_3">
    <defs>
     <path id="m9dcfc8cf65" d="M 366.960362 -138.607922 
L 364.613281 -138.607922 
L 364.613281 -139.054948 
L 364.613281 -139.501974 
L 422.921402 -139.501974 
L 422.921402 -139.501974 
L 419.808932 -139.054948 
L 366.960362 -138.607922 
z
" style="stroke: #4300a2; stroke-opacity: 0.7"/>
    </defs>
    <g clip-path="url(#pc4336314e3)">
     <use xlink:href="#m9dcfc8cf65" x="0" y="432" style="fill: #4300a2; fill-opacity: 0.7; stroke: #4300a2; stroke-opacity: 0.7"/>
    </g>
   </g>
   <g id="PolyCollection_4">
    <defs>
     <path id="m13a625bda3" d="M 435.433299 -144.41926 
L 364.613281 -144.41926 
L 364.613281 -144.866286 
L 364.613281 -145.313312 
L 364.613281 -145.760338 
L 364.613281 -146.207364 
L 364.613281 -146.65439 
L 364.613281 -147.101416 
L 364.613281 -147.548442 
L 364.613281 -147.995468 
L 364.613281 -148.442494 
L 364.613281 -148.88952 
L 364.613281 -149.336546 
L 364.613281 -149.783572 
L 364.613281 -150.230598 
L 488.627043 -150.230598 
L 488.627043 -150.230598 
L 484.731292 -149.783572 
L 483.843716 -149.336546 
L 483.325781 -148.88952 
L 483.087029 -148.442494 
L 482.154756 -147.995468 
L 479.34583 -147.548442 
L 471.720822 -147.101416 
L 464.622429 -146.65439 
L 463.62729 -146.207364 
L 459.369806 -145.760338 
L 459.369806 -145.313312 
L 455.980688 -144.866286 
L 435.433299 -144.41926 
z
" style="stroke: #0000d1; stroke-opacity: 0.7"/>
    </defs>
    <g clip-path="url(#pc4336314e3)">
     <use xlink:href="#m13a625bda3" x="0" y="432" style="fill: #0000d1; fill-opacity: 0.7; stroke: #0000d1; stroke-opacity: 0.7"/>
    </g>
   </g>
   <g id="PolyCollection_5">
    <defs>
     <path id="m0b1772dda5" d="M 434.318433 -155.147884 
L 364.613281 -155.147884 
L 364.613281 -155.59491 
L 364.613281 -156.041936 
L 364.613281 -156.488962 
L 364.613281 -156.935988 
L 364.613281 -157.383014 
L 364.613281 -157.83004 
L 364.613281 -158.277066 
L 364.613281 -158.724092 
L 364.613281 -159.171118 
L 364.613281 -159.618145 
L 364.613281 -160.065171 
L 364.613281 -160.512197 
L 364.613281 -160.959223 
L 364.613281 -161.406249 
L 364.613281 -161.853275 
L 364.613281 -162.300301 
L 364.613281 -162.747327 
L 364.613281 -163.194353 
L 364.613281 -163.641379 
L 364.613281 -164.088405 
L 364.613281 -164.535431 
L 364.613281 -164.982457 
L 364.613281 -165.429483 
L 364.613281 -165.876509 
L 364.613281 -166.323535 
L 364.613281 -166.770561 
L 364.613281 -167.217587 
L 364.613281 -167.664613 
L 364.613281 -168.111639 
L 364.613281 -168.558665 
L 364.613281 -169.005691 
L 364.613281 -169.452717 
L 364.613281 -169.899743 
L 364.613281 -170.346769 
L 364.613281 -170.793795 
L 364.613281 -171.240821 
L 364.613281 -171.687847 
L 364.613281 -172.134873 
L 364.613281 -172.581899 
L 364.613281 -173.028925 
L 364.613281 -173.475951 
L 364.613281 -173.922977 
L 364.613281 -174.370003 
L 364.613281 -174.817029 
L 364.613281 -175.264055 
L 590.129689 -175.264055 
L 590.129689 -175.264055 
L 590.012426 -174.817029 
L 586.361756 -174.370003 
L 585.900485 -173.922977 
L 582.481782 -173.475951 
L 579.310745 -173.028925 
L 578.553777 -172.581899 
L 578.203798 -172.134873 
L 577.582023 -171.687847 
L 575.077618 -171.240821 
L 574.436805 -170.793795 
L 571.488251 -170.346769 
L 569.30636 -169.899743 
L 567.516318 -169.452717 
L 567.243586 -169.005691 
L 567.025388 -168.558665 
L 567.025388 -168.111639 
L 565.297787 -167.664613 
L 563.177178 -167.217587 
L 562.251679 -166.770561 
L 557.953085 -166.323535 
L 557.759631 -165.876509 
L 557.115839 -165.429483 
L 554.964823 -164.982457 
L 554.332852 -164.535431 
L 554.210007 -164.088405 
L 552.243592 -163.641379 
L 548.908556 -163.194353 
L 548.146595 -162.747327 
L 547.946159 -162.300301 
L 547.481945 -161.853275 
L 544.178881 -161.406249 
L 542.511729 -160.959223 
L 541.621239 -160.512197 
L 534.71942 -160.065171 
L 527.726594 -159.618145 
L 527.568654 -159.171118 
L 526.065619 -158.724092 
L 525.947851 -158.277066 
L 519.210739 -157.83004 
L 514.265926 -157.383014 
L 511.069701 -156.935988 
L 505.372751 -156.488962 
L 466.468281 -156.041936 
L 438.370932 -155.59491 
L 434.318433 -155.147884 
z
" style="stroke: #0078dd; stroke-opacity: 0.7"/>
    </defs>
    <g clip-path="url(#pc4336314e3)">
     <use xlink:href="#m0b1772dda5" x="0" y="432" style="fill: #0078dd; fill-opacity: 0.7; stroke: #0078dd; stroke-opacity: 0.7"/>
    </g>
   </g>
   <g id="PolyCollection_6">
    <defs>
     <path id="mfda568f986" d="M 410.745434 -180.181341 
L 364.613281 -180.181341 
L 364.613281 -180.628367 
L 364.613281 -181.075393 
L 364.613281 -181.522419 
L 364.613281 -181.969445 
L 364.613281 -182.416471 
L 364.613281 -182.863497 
L 364.613281 -183.310523 
L 364.613281 -183.757549 
L 528.050549 -183.757549 
L 528.050549 -183.757549 
L 521.494927 -183.310523 
L 516.636986 -182.863497 
L 516.581487 -182.416471 
L 492.744085 -181.969445 
L 464.649572 -181.522419 
L 460.366049 -181.075393 
L 452.78505 -180.628367 
L 410.745434 -180.181341 
z
" style="stroke: #009ecf; stroke-opacity: 0.7"/>
    </defs>
    <g clip-path="url(#pc4336314e3)">
     <use xlink:href="#mfda568f986" x="0" y="432" style="fill: #009ecf; fill-opacity: 0.7; stroke: #009ecf; stroke-opacity: 0.7"/>
    </g>
   </g>
   <g id="PolyCollection_7">
    <defs>
     <path id="mf42024383b" d="M 359.046754 -188.674836 
L 364.613281 -188.674836 
L 364.613281 -189.121862 
L 364.613281 -189.568888 
L 364.613281 -190.015914 
L 364.613281 -190.46294 
L 364.613281 -190.909966 
L 364.613281 -191.356992 
L 364.613281 -191.804018 
L 364.613281 -192.251044 
L 364.613281 -192.69807 
L 364.613281 -193.145096 
L 364.613281 -193.592122 
L 364.613281 -194.039148 
L 364.613281 -194.486174 
L 364.613281 -194.9332 
L 364.613281 -195.380226 
L 364.613281 -195.827252 
L 364.613281 -196.274278 
L 364.613281 -196.721304 
L 364.613281 -197.16833 
L 364.613281 -197.615356 
L 364.613281 -198.062382 
L 364.613281 -198.509408 
L 364.613281 -198.956434 
L 364.613281 -199.40346 
L 364.613281 -199.850486 
L 364.613281 -200.297512 
L 364.613281 -200.744538 
L 364.613281 -201.191564 
L 364.613281 -201.63859 
L 364.613281 -202.085616 
L 364.613281 -202.532642 
L 364.613281 -202.979668 
L 364.613281 -203.426694 
L 364.613281 -203.87372 
L 364.613281 -204.320746 
L 364.613281 -204.767772 
L 364.613281 -205.214798 
L 364.613281 -205.661824 
L 364.613281 -206.10885 
L 364.613281 -206.555876 
L 364.613281 -207.002902 
L 364.613281 -207.449928 
L 364.613281 -207.896954 
L 364.613281 -208.34398 
L 364.613281 -208.791006 
L 364.613281 -209.238032 
L 364.613281 -209.685058 
L 364.613281 -210.132084 
L 364.613281 -210.57911 
L 364.613281 -211.026136 
L 364.613281 -211.473162 
L 364.613281 -211.920188 
L 364.613281 -212.367215 
L 364.613281 -212.814241 
L 364.613281 -213.261267 
L 364.613281 -213.708293 
L 364.613281 -214.155319 
L 364.613281 -214.602345 
L 364.613281 -215.049371 
L 364.613281 -215.496397 
L 364.613281 -215.943423 
L 364.613281 -216.390449 
L 364.613281 -216.837475 
L 364.613281 -217.284501 
L 364.613281 -217.731527 
L 528.575376 -217.731527 
L 528.575376 -217.731527 
L 526.731252 -217.284501 
L 520.998783 -216.837475 
L 520.830331 -216.390449 
L 519.323928 -215.943423 
L 519.059583 -215.496397 
L 515.809296 -215.049371 
L 513.13453 -214.602345 
L 512.109935 -214.155319 
L 508.246312 -213.708293 
L 508.06843 -213.261267 
L 507.718168 -212.814241 
L 505.345727 -212.367215 
L 504.373019 -211.920188 
L 504.111873 -211.473162 
L 503.116486 -211.026136 
L 503.116486 -210.57911 
L 502.995186 -210.132084 
L 501.972033 -209.685058 
L 501.642193 -209.238032 
L 500.360549 -208.791006 
L 500.18018 -208.34398 
L 499.608118 -207.896954 
L 499.524455 -207.449928 
L 498.673127 -207.002902 
L 498.489463 -206.555876 
L 497.203023 -206.10885 
L 496.686702 -205.661824 
L 496.301109 -205.214798 
L 496.248292 -204.767772 
L 492.862786 -204.320746 
L 491.254083 -203.87372 
L 489.223356 -203.426694 
L 488.866474 -202.979668 
L 487.57256 -202.532642 
L 484.867075 -202.085616 
L 482.305636 -201.63859 
L 477.695662 -201.191564 
L 474.507998 -200.744538 
L 471.526957 -200.297512 
L 469.165933 -199.850486 
L 468.019434 -199.40346 
L 467.912121 -198.956434 
L 467.158431 -198.509408 
L 465.90572 -198.062382 
L 465.527788 -197.615356 
L 462.446895 -197.16833 
L 462.193668 -196.721304 
L 461.136744 -196.274278 
L 460.920229 -195.827252 
L 460.16199 -195.380226 
L 459.612777 -194.9332 
L 456.901056 -194.486174 
L 454.684644 -194.039148 
L 450.228745 -193.592122 
L 447.087305 -193.145096 
L 446.138429 -192.69807 
L 433.328146 -192.251044 
L 432.147038 -191.804018 
L 429.266653 -191.356992 
L 427.468929 -190.909966 
L 400.661244 -190.46294 
L 398.647294 -190.015914 
L 370.79757 -189.568888 
L 368.354329 -189.121862 
L 359.046754 -188.674836 
z
" style="stroke: #00aa98; stroke-opacity: 0.7"/>
    </defs>
    <g clip-path="url(#pc4336314e3)">
     <use xlink:href="#mf42024383b" x="0" y="432" style="fill: #00aa98; fill-opacity: 0.7; stroke: #00aa98; stroke-opacity: 0.7"/>
    </g>
   </g>
   <g id="PolyCollection_8">
    <defs>
     <path id="m5d6d33a282" d="M 547.604651 -222.648813 
L 364.613281 -222.648813 
L 364.613281 -223.095839 
L 364.613281 -223.542865 
L 364.613281 -223.989891 
L 364.613281 -224.436917 
L 364.613281 -224.883943 
L 364.613281 -225.330969 
L 364.613281 -225.777995 
L 601.561582 -225.777995 
L 601.561582 -225.777995 
L 593.831295 -225.330969 
L 592.623436 -224.883943 
L 585.149203 -224.436917 
L 581.335017 -223.989891 
L 576.234822 -223.542865 
L 553.515484 -223.095839 
L 547.604651 -222.648813 
z
" style="stroke: #009d1d; stroke-opacity: 0.7"/>
    </defs>
    <g clip-path="url(#pc4336314e3)">
     <use xlink:href="#m5d6d33a282" x="0" y="432" style="fill: #009d1d; fill-opacity: 0.7; stroke: #009d1d; stroke-opacity: 0.7"/>
    </g>
   </g>
   <g id="PolyCollection_9">
    <defs>
     <path id="m9802a2c142" d="M 373.208169 -230.695281 
L 364.613281 -230.695281 
L 364.613281 -231.142307 
L 364.613281 -231.589333 
L 364.613281 -232.036359 
L 364.613281 -232.483385 
L 364.613281 -232.930411 
L 364.613281 -233.377437 
L 364.613281 -233.824463 
L 364.613281 -234.271489 
L 364.613281 -234.718515 
L 364.613281 -235.165541 
L 364.613281 -235.612567 
L 364.613281 -236.059593 
L 364.613281 -236.506619 
L 364.613281 -236.953645 
L 364.613281 -237.400671 
L 364.613281 -237.847697 
L 364.613281 -238.294724 
L 364.613281 -238.74175 
L 364.613281 -239.188776 
L 506.804371 -239.188776 
L 506.804371 -239.188776 
L 503.191598 -238.74175 
L 502.993559 -238.294724 
L 496.917735 -237.847697 
L 495.919365 -237.400671 
L 493.450918 -236.953645 
L 487.730753 -236.506619 
L 487.238199 -236.059593 
L 485.041854 -235.612567 
L 480.164302 -235.165541 
L 463.258704 -234.718515 
L 461.398755 -234.271489 
L 460.29769 -233.824463 
L 457.590817 -233.377437 
L 454.726242 -232.930411 
L 448.764878 -232.483385 
L 447.043556 -232.036359 
L 443.497119 -231.589333 
L 433.409997 -231.142307 
L 373.208169 -230.695281 
z
" style="stroke: #00bc00; stroke-opacity: 0.7"/>
    </defs>
    <g clip-path="url(#pc4336314e3)">
     <use xlink:href="#m9802a2c142" x="0" y="432" style="fill: #00bc00; fill-opacity: 0.7; stroke: #00bc00; stroke-opacity: 0.7"/>
    </g>
   </g>
   <g id="PolyCollection_10">
    <defs>
     <path id="m2d16f0269b" d="M 341.518583 -244.106062 
L 364.613281 -244.106062 
L 364.613281 -244.553088 
L 364.613281 -245.000114 
L 364.613281 -245.44714 
L 364.613281 -245.894166 
L 364.613281 -246.341192 
L 364.613281 -246.788218 
L 364.613281 -247.235244 
L 364.613281 -247.68227 
L 364.613281 -248.129296 
L 364.613281 -248.576322 
L 364.613281 -249.023348 
L 364.613281 -249.470374 
L 364.613281 -249.9174 
L 364.613281 -250.364426 
L 364.613281 -250.811452 
L 364.613281 -251.258478 
L 364.613281 -251.705504 
L 364.613281 -252.15253 
L 364.613281 -252.599556 
L 364.613281 -253.046582 
L 364.613281 -253.493608 
L 364.613281 -253.940634 
L 364.613281 -254.38766 
L 364.613281 -254.834686 
L 364.613281 -255.281712 
L 364.613281 -255.728738 
L 364.613281 -256.175764 
L 364.613281 -256.62279 
L 364.613281 -257.069816 
L 364.613281 -257.516842 
L 364.613281 -257.963868 
L 364.613281 -258.410894 
L 364.613281 -258.85792 
L 364.613281 -259.304946 
L 364.613281 -259.751972 
L 364.613281 -260.198998 
L 364.613281 -260.646024 
L 364.613281 -261.09305 
L 364.613281 -261.540076 
L 364.613281 -261.987102 
L 364.613281 -262.434128 
L 364.613281 -262.881154 
L 364.613281 -263.32818 
L 364.613281 -263.775206 
L 364.613281 -264.222232 
L 364.613281 -264.669259 
L 364.613281 -265.116285 
L 364.613281 -265.563311 
L 364.613281 -266.010337 
L 364.613281 -266.457363 
L 364.613281 -266.904389 
L 364.613281 -267.351415 
L 364.613281 -267.798441 
L 364.613281 -268.245467 
L 364.613281 -268.692493 
L 364.613281 -269.139519 
L 533.738988 -269.139519 
L 533.738988 -269.139519 
L 530.162878 -268.692493 
L 525.893511 -268.245467 
L 523.830217 -267.798441 
L 523.830217 -267.351415 
L 521.055865 -266.904389 
L 520.886008 -266.457363 
L 517.513455 -266.010337 
L 517.230465 -265.563311 
L 517.230465 -265.116285 
L 514.776783 -264.669259 
L 514.462584 -264.222232 
L 513.646732 -263.775206 
L 508.961993 -263.32818 
L 505.027892 -262.881154 
L 502.200844 -262.434128 
L 501.674347 -261.987102 
L 501.543759 -261.540076 
L 501.09637 -261.09305 
L 497.241743 -260.646024 
L 496.756555 -260.198998 
L 491.885308 -259.751972 
L 490.995602 -259.304946 
L 486.261336 -258.85792 
L 486.261336 -258.410894 
L 485.975756 -257.963868 
L 481.775333 -257.516842 
L 480.91523 -257.069816 
L 480.343813 -256.62279 
L 480.041145 -256.175764 
L 477.683599 -255.728738 
L 477.306854 -255.281712 
L 475.96158 -254.834686 
L 475.632667 -254.38766 
L 474.522404 -253.940634 
L 471.398253 -253.493608 
L 470.072671 -253.046582 
L 468.148393 -252.599556 
L 467.03337 -252.15253 
L 466.132045 -251.705504 
L 461.315842 -251.258478 
L 457.242021 -250.811452 
L 455.385751 -250.364426 
L 453.025828 -249.9174 
L 450.308016 -249.470374 
L 449.778898 -249.023348 
L 444.891275 -248.576322 
L 442.676276 -248.129296 
L 436.847319 -247.68227 
L 434.90928 -247.235244 
L 421.345299 -246.788218 
L 416.167299 -246.341192 
L 410.935082 -245.894166 
L 404.161368 -245.44714 
L 402.909766 -245.000114 
L 388.726528 -244.553088 
L 341.518583 -244.106062 
z
" style="stroke: #00e700; stroke-opacity: 0.7"/>
    </defs>
    <g clip-path="url(#pc4336314e3)">
     <use xlink:href="#m2d16f0269b" x="0" y="432" style="fill: #00e700; fill-opacity: 0.7; stroke: #00e700; stroke-opacity: 0.7"/>
    </g>
   </g>
   <g id="PolyCollection_11">
    <defs>
     <path id="m4e17d89be9" d="M 346.268971 -274.056805 
L 364.613281 -274.056805 
L 364.613281 -274.503831 
L 364.613281 -274.950857 
L 364.613281 -275.397883 
L 364.613281 -275.844909 
L 364.613281 -276.291935 
L 364.613281 -276.738961 
L 364.613281 -277.185987 
L 364.613281 -277.633013 
L 364.613281 -278.080039 
L 364.613281 -278.527065 
L 364.613281 -278.974091 
L 364.613281 -279.421117 
L 364.613281 -279.868143 
L 364.613281 -280.315169 
L 364.613281 -280.762195 
L 364.613281 -281.209221 
L 364.613281 -281.656247 
L 364.613281 -282.103273 
L 364.613281 -282.550299 
L 364.613281 -282.997325 
L 364.613281 -283.444351 
L 364.613281 -283.891377 
L 485.006522 -283.891377 
L 485.006522 -283.891377 
L 475.41873 -283.444351 
L 471.516728 -282.997325 
L 471.442081 -282.550299 
L 470.090028 -282.103273 
L 465.912267 -281.656247 
L 451.685847 -281.209221 
L 450.717193 -280.762195 
L 449.258207 -280.315169 
L 447.589177 -279.868143 
L 439.088637 -279.421117 
L 433.57874 -278.974091 
L 432.221071 -278.527065 
L 430.262416 -278.080039 
L 417.18577 -277.633013 
L 413.964725 -277.185987 
L 413.539376 -276.738961 
L 397.448052 -276.291935 
L 395.534906 -275.844909 
L 390.490281 -275.397883 
L 367.721774 -274.950857 
L 357.07604 -274.503831 
L 346.268971 -274.056805 
z
" style="stroke: #67ff00; stroke-opacity: 0.7"/>
    </defs>
    <g clip-path="url(#pc4336314e3)">
     <use xlink:href="#m4e17d89be9" x="0" y="432" style="fill: #67ff00; fill-opacity: 0.7; stroke: #67ff00; stroke-opacity: 0.7"/>
    </g>
   </g>
   <g id="PolyCollection_12">
    <defs>
     <path id="m25e29570ce" d="M 464.516745 -288.808663 
L 364.613281 -288.808663 
L 364.613281 -289.255689 
L 364.613281 -289.702715 
L 364.613281 -290.149741 
L 364.613281 -290.596767 
L 364.613281 -291.043794 
L 364.613281 -291.49082 
L 364.613281 -291.937846 
L 364.613281 -292.384872 
L 364.613281 -292.831898 
L 364.613281 -293.278924 
L 364.613281 -293.72595 
L 364.613281 -294.172976 
L 364.613281 -294.620002 
L 364.613281 -295.067028 
L 364.613281 -295.514054 
L 364.613281 -295.96108 
L 364.613281 -296.408106 
L 364.613281 -296.855132 
L 364.613281 -297.302158 
L 364.613281 -297.749184 
L 364.613281 -298.19621 
L 364.613281 -298.643236 
L 364.613281 -299.090262 
L 364.613281 -299.537288 
L 364.613281 -299.984314 
L 364.613281 -300.43134 
L 364.613281 -300.878366 
L 364.613281 -301.325392 
L 364.613281 -301.772418 
L 364.613281 -302.219444 
L 364.613281 -302.66647 
L 364.613281 -303.113496 
L 364.613281 -303.560522 
L 364.613281 -304.007548 
L 364.613281 -304.454574 
L 364.613281 -304.9016 
L 364.613281 -305.348626 
L 364.613281 -305.795652 
L 364.613281 -306.242678 
L 364.613281 -306.689704 
L 364.613281 -307.13673 
L 364.613281 -307.583756 
L 364.613281 -308.030782 
L 364.613281 -308.477808 
L 364.613281 -308.924834 
L 364.613281 -309.37186 
L 364.613281 -309.818886 
L 364.613281 -310.265912 
L 364.613281 -310.712938 
L 364.613281 -311.159964 
L 364.613281 -311.60699 
L 364.613281 -312.054016 
L 364.613281 -312.501042 
L 364.613281 -312.948068 
L 364.613281 -313.395094 
L 364.613281 -313.84212 
L 364.613281 -314.289146 
L 364.613281 -314.736172 
L 364.613281 -315.183198 
L 364.613281 -315.630224 
L 364.613281 -316.07725 
L 364.613281 -316.524276 
L 364.613281 -316.971302 
L 364.613281 -317.418329 
L 364.613281 -317.865355 
L 364.613281 -318.312381 
L 364.613281 -318.759407 
L 364.613281 -319.206433 
L 364.613281 -319.653459 
L 364.613281 -320.100485 
L 364.613281 -320.547511 
L 364.613281 -320.994537 
L 364.613281 -321.441563 
L 364.613281 -321.888589 
L 364.613281 -322.335615 
L 364.613281 -322.782641 
L 364.613281 -323.229667 
L 364.613281 -323.676693 
L 364.613281 -324.123719 
L 364.613281 -324.570745 
L 364.613281 -325.017771 
L 364.613281 -325.464797 
L 364.613281 -325.911823 
L 364.613281 -326.358849 
L 364.613281 -326.805875 
L 364.613281 -327.252901 
L 364.613281 -327.699927 
L 364.613281 -328.146953 
L 364.613281 -328.593979 
L 364.613281 -329.041005 
L 364.613281 -329.488031 
L 364.613281 -329.935057 
L 364.613281 -330.382083 
L 364.613281 -330.829109 
L 364.613281 -331.276135 
L 364.613281 -331.723161 
L 364.613281 -332.170187 
L 364.613281 -332.617213 
L 364.613281 -333.064239 
L 364.613281 -333.511265 
L 364.613281 -333.958291 
L 364.613281 -334.405317 
L 364.613281 -334.852343 
L 364.613281 -335.299369 
L 364.613281 -335.746395 
L 364.613281 -336.193421 
L 364.613281 -336.640447 
L 364.613281 -337.087473 
L 364.613281 -337.534499 
L 364.613281 -337.981525 
L 364.613281 -338.428551 
L 364.613281 -338.875577 
L 364.613281 -339.322603 
L 364.613281 -339.769629 
L 364.613281 -340.216655 
L 364.613281 -340.663681 
L 364.613281 -341.110707 
L 364.613281 -341.557733 
L 364.613281 -342.004759 
L 364.613281 -342.451785 
L 364.613281 -342.898811 
L 364.613281 -343.345838 
L 364.613281 -343.792864 
L 364.613281 -344.23989 
L 364.613281 -344.686916 
L 364.613281 -345.133942 
L 364.613281 -345.580968 
L 364.613281 -346.027994 
L 364.613281 -346.47502 
L 364.613281 -346.922046 
L 364.613281 -347.369072 
L 364.613281 -347.816098 
L 364.613281 -348.263124 
L 364.613281 -348.71015 
L 364.613281 -349.157176 
L 364.613281 -349.604202 
L 364.613281 -350.051228 
L 364.613281 -350.498254 
L 364.613281 -350.94528 
L 364.613281 -351.392306 
L 364.613281 -351.839332 
L 364.613281 -352.286358 
L 364.613281 -352.733384 
L 364.613281 -353.18041 
L 364.613281 -353.627436 
L 364.613281 -354.074462 
L 364.613281 -354.521488 
L 364.613281 -354.968514 
L 364.613281 -355.41554 
L 364.613281 -355.862566 
L 364.613281 -356.309592 
L 364.613281 -356.756618 
L 364.613281 -357.203644 
L 364.613281 -357.65067 
L 364.613281 -358.097696 
L 364.613281 -358.544722 
L 364.613281 -358.991748 
L 364.613281 -359.438774 
L 364.613281 -359.8858 
L 364.613281 -360.332826 
L 364.613281 -360.779852 
L 364.613281 -361.226878 
L 364.613281 -361.673904 
L 364.613281 -362.12093 
L 364.613281 -362.567956 
L 364.613281 -363.014982 
L 364.613281 -363.462008 
L 364.613281 -363.909034 
L 364.613281 -364.35606 
L 364.613281 -364.803086 
L 364.613281 -365.250112 
L 364.613281 -365.697138 
L 364.613281 -366.144164 
L 364.613281 -366.59119 
L 364.613281 -367.038216 
L 364.613281 -367.485242 
L 364.613281 -367.932268 
L 364.613281 -368.379294 
L 364.613281 -368.82632 
L 364.613281 -369.273346 
L 364.613281 -369.720373 
L 364.613281 -370.167399 
L 364.613281 -370.614425 
L 364.613281 -371.061451 
L 364.613281 -371.508477 
L 364.613281 -371.955503 
L 364.613281 -372.402529 
L 364.613281 -372.849555 
L 364.613281 -373.296581 
L 364.613281 -373.743607 
L 364.613281 -374.190633 
L 364.613281 -374.637659 
L 364.613281 -375.084685 
L 364.613281 -375.531711 
L 364.613281 -375.978737 
L 364.613281 -376.425763 
L 364.613281 -376.872789 
L 364.613281 -377.319815 
L 364.613281 -377.766841 
L 364.613281 -378.213867 
L 564.31089 -378.213867 
L 564.31089 -378.213867 
L 558.889271 -377.766841 
L 557.880713 -377.319815 
L 557.499123 -376.872789 
L 557.073708 -376.425763 
L 555.375948 -375.978737 
L 554.27233 -375.531711 
L 554.266217 -375.084685 
L 554.129783 -374.637659 
L 553.93529 -374.190633 
L 553.732267 -373.743607 
L 553.329696 -373.296581 
L 552.86978 -372.849555 
L 552.486515 -372.402529 
L 552.417631 -371.955503 
L 552.101864 -371.508477 
L 551.813371 -371.061451 
L 550.979166 -370.614425 
L 550.543193 -370.167399 
L 550.522816 -369.720373 
L 549.925944 -369.273346 
L 549.344027 -368.82632 
L 548.887451 -368.379294 
L 548.6344 -367.932268 
L 548.17429 -367.485242 
L 548.167765 -367.038216 
L 548.114116 -366.59119 
L 548.056223 -366.144164 
L 547.741733 -365.697138 
L 547.703781 -365.250112 
L 547.451523 -364.803086 
L 547.35565 -364.35606 
L 547.226011 -363.909034 
L 547.030352 -363.462008 
L 546.67624 -363.014982 
L 546.361762 -362.567956 
L 546.348528 -362.12093 
L 546.105832 -361.673904 
L 546.086489 -361.226878 
L 545.132175 -360.779852 
L 544.944889 -360.332826 
L 544.777701 -359.8858 
L 544.363657 -359.438774 
L 543.376131 -358.991748 
L 543.366482 -358.544722 
L 543.279148 -358.097696 
L 543.167512 -357.65067 
L 542.680931 -357.203644 
L 542.342006 -356.756618 
L 541.756663 -356.309592 
L 541.404691 -355.862566 
L 541.288889 -355.41554 
L 540.954438 -354.968514 
L 540.815574 -354.521488 
L 540.756839 -354.074462 
L 540.673239 -353.627436 
L 539.496404 -353.18041 
L 539.462564 -352.733384 
L 538.802716 -352.286358 
L 538.718704 -351.839332 
L 538.584486 -351.392306 
L 538.509844 -350.94528 
L 538.3179 -350.498254 
L 537.631439 -350.051228 
L 537.618589 -349.604202 
L 537.54573 -349.157176 
L 536.933641 -348.71015 
L 536.234568 -348.263124 
L 536.145594 -347.816098 
L 536.145456 -347.369072 
L 535.92954 -346.922046 
L 535.064761 -346.47502 
L 534.982792 -346.027994 
L 534.981094 -345.580968 
L 534.674569 -345.133942 
L 534.657198 -344.686916 
L 534.645517 -344.23989 
L 534.55246 -343.792864 
L 534.280675 -343.345838 
L 534.229223 -342.898811 
L 533.785774 -342.451785 
L 533.782291 -342.004759 
L 533.769153 -341.557733 
L 533.666726 -341.110707 
L 533.66217 -340.663681 
L 533.661613 -340.216655 
L 533.141675 -339.769629 
L 532.927776 -339.322603 
L 532.73704 -338.875577 
L 532.640303 -338.428551 
L 532.623283 -337.981525 
L 532.198755 -337.534499 
L 531.595086 -337.087473 
L 531.437616 -336.640447 
L 531.272928 -336.193421 
L 530.528533 -335.746395 
L 530.515706 -335.299369 
L 530.40445 -334.852343 
L 530.350558 -334.405317 
L 530.279205 -333.958291 
L 530.192404 -333.511265 
L 530.155745 -333.064239 
L 530.12202 -332.617213 
L 529.862741 -332.170187 
L 529.801834 -331.723161 
L 529.355208 -331.276135 
L 529.30639 -330.829109 
L 527.870233 -330.382083 
L 526.84042 -329.935057 
L 526.835899 -329.488031 
L 526.168797 -329.041005 
L 526.159812 -328.593979 
L 525.640113 -328.146953 
L 525.533794 -327.699927 
L 525.404878 -327.252901 
L 525.35893 -326.805875 
L 523.873859 -326.358849 
L 523.847837 -325.911823 
L 523.111522 -325.464797 
L 523.07863 -325.017771 
L 523.015537 -324.570745 
L 521.213711 -324.123719 
L 521.186869 -323.676693 
L 520.535987 -323.229667 
L 519.516783 -322.782641 
L 519.344704 -322.335615 
L 519.08831 -321.888589 
L 518.62946 -321.441563 
L 518.599669 -320.994537 
L 518.510315 -320.547511 
L 518.136087 -320.100485 
L 517.934439 -319.653459 
L 517.661036 -319.206433 
L 517.639373 -318.759407 
L 517.502765 -318.312381 
L 516.425009 -317.865355 
L 516.297478 -317.418329 
L 515.688988 -316.971302 
L 515.388721 -316.524276 
L 514.94478 -316.07725 
L 514.813585 -315.630224 
L 514.735582 -315.183198 
L 514.408756 -314.736172 
L 514.348987 -314.289146 
L 514.34773 -313.84212 
L 514.185457 -313.395094 
L 514.022831 -312.948068 
L 512.162963 -312.501042 
L 511.238995 -312.054016 
L 510.613869 -311.60699 
L 510.537891 -311.159964 
L 510.433595 -310.712938 
L 509.708199 -310.265912 
L 509.46421 -309.818886 
L 508.815553 -309.37186 
L 507.738603 -308.924834 
L 507.200312 -308.477808 
L 506.810892 -308.030782 
L 506.738852 -307.583756 
L 506.020844 -307.13673 
L 505.928628 -306.689704 
L 505.138158 -306.242678 
L 504.901652 -305.795652 
L 504.284078 -305.348626 
L 503.654366 -304.9016 
L 503.567067 -304.454574 
L 503.056343 -304.007548 
L 501.465028 -303.560522 
L 501.261406 -303.113496 
L 500.911556 -302.66647 
L 500.335829 -302.219444 
L 500.284559 -301.772418 
L 499.728164 -301.325392 
L 498.831171 -300.878366 
L 498.709615 -300.43134 
L 497.767029 -299.984314 
L 497.647067 -299.537288 
L 497.377941 -299.090262 
L 496.317267 -298.643236 
L 495.536783 -298.19621 
L 494.43412 -297.749184 
L 494.289568 -297.302158 
L 493.811955 -296.855132 
L 492.571978 -296.408106 
L 491.147118 -295.96108 
L 490.174142 -295.514054 
L 489.910814 -295.067028 
L 489.138824 -294.620002 
L 488.580379 -294.172976 
L 488.541654 -293.72595 
L 486.759551 -293.278924 
L 486.192578 -292.831898 
L 484.937155 -292.384872 
L 483.590039 -291.937846 
L 481.871657 -291.49082 
L 479.01965 -291.043794 
L 477.168487 -290.596767 
L 477.031831 -290.149741 
L 476.449146 -289.702715 
L 472.522024 -289.255689 
L 464.516745 -288.808663 
z
" style="stroke: #e4f100; stroke-opacity: 0.7"/>
    </defs>
    <g clip-path="url(#pc4336314e3)">
     <use xlink:href="#m25e29570ce" x="0" y="432" style="fill: #e4f100; fill-opacity: 0.7; stroke: #e4f100; stroke-opacity: 0.7"/>
    </g>
   </g>
   <g id="PolyCollection_13">
    <defs>
     <path id="mf3cb454ad0" d="M 281.481 -383.131153 
L 364.613281 -383.131153 
L 364.613281 -383.578179 
L 364.613281 -384.025205 
L 364.613281 -384.472231 
L 364.613281 -384.919257 
L 364.613281 -385.366283 
L 364.613281 -385.813309 
L 364.613281 -386.260335 
L 364.613281 -386.707361 
L 364.613281 -387.154387 
L 364.613281 -387.601413 
L 364.613281 -388.048439 
L 364.613281 -388.495465 
L 364.613281 -388.942491 
L 364.613281 -389.389517 
L 364.613281 -389.836543 
L 364.613281 -390.283569 
L 364.613281 -390.730595 
L 364.613281 -391.177621 
L 470.226905 -391.177621 
L 470.226905 -391.177621 
L 458.135263 -390.730595 
L 447.228959 -390.283569 
L 445.698958 -389.836543 
L 444.443187 -389.389517 
L 444.135163 -388.942491 
L 442.056204 -388.495465 
L 437.203823 -388.048439 
L 435.141546 -387.601413 
L 427.735943 -387.154387 
L 412.429184 -386.707361 
L 396.308684 -386.260335 
L 387.926667 -385.813309 
L 367.516012 -385.366283 
L 364.79272 -384.919257 
L 357.096741 -384.472231 
L 346.199626 -384.025205 
L 337.598671 -383.578179 
L 281.481 -383.131153 
z
" style="stroke: #ffc900; stroke-opacity: 0.7"/>
    </defs>
    <g clip-path="url(#pc4336314e3)">
     <use xlink:href="#mf3cb454ad0" x="0" y="432" style="fill: #ffc900; fill-opacity: 0.7; stroke: #ffc900; stroke-opacity: 0.7"/>
    </g>
   </g>
   <g id="PolyCollection_14">
    <defs>
     <path id="m825ca66e0e" d="M 431.047374 -396.094908 
L 364.613281 -396.094908 
L 364.613281 -396.541934 
L 364.613281 -396.98896 
L 364.613281 -397.435986 
L 364.613281 -397.883012 
L 364.613281 -398.330038 
L 491.920647 -398.330038 
L 491.920647 -398.330038 
L 485.238771 -397.883012 
L 482.709886 -397.435986 
L 462.136053 -396.98896 
L 459.845725 -396.541934 
L 431.047374 -396.094908 
z
" style="stroke: #ff6900; stroke-opacity: 0.7"/>
    </defs>
    <g clip-path="url(#pc4336314e3)">
     <use xlink:href="#m825ca66e0e" x="0" y="432" style="fill: #ff6900; fill-opacity: 0.7; stroke: #ff6900; stroke-opacity: 0.7"/>
    </g>
   </g>
   <g id="PolyCollection_15">
    <defs>
     <path id="m30e62f7380" d="M 580.410195 -403.247324 
L 364.613281 -403.247324 
L 364.613281 -403.69435 
L 364.613281 -404.141376 
L 364.613281 -404.588402 
L 364.613281 -405.035428 
L 364.613281 -405.482454 
L 364.613281 -405.92948 
L 364.613281 -406.376506 
L 364.613281 -406.823532 
L 612.903732 -406.823532 
L 612.903732 -406.823532 
L 612.577354 -406.376506 
L 609.68804 -405.92948 
L 607.543917 -405.482454 
L 588.500691 -405.035428 
L 588.024978 -404.588402 
L 582.794083 -404.141376 
L 580.747137 -403.69435 
L 580.410195 -403.247324 
z
" style="stroke: #ec0000; stroke-opacity: 0.7"/>
    </defs>
    <g clip-path="url(#pc4336314e3)">
     <use xlink:href="#m30e62f7380" x="0" y="432" style="fill: #ec0000; fill-opacity: 0.7; stroke: #ec0000; stroke-opacity: 0.7"/>
    </g>
   </g>
   <g id="PolyCollection_16">
    <defs>
     <path id="m2e72df7874" d="M 613.740526 -411.740818 
L 364.613281 -411.740818 
L 364.613281 -412.187844 
L 364.613281 -412.63487 
L 637.377599 -412.63487 
L 637.377599 -412.63487 
L 633.256972 -412.187844 
L 613.740526 -411.740818 
z
" style="stroke: #cf0000; stroke-opacity: 0.7"/>
    </defs>
    <g clip-path="url(#pc4336314e3)">
     <use xlink:href="#m2e72df7874" x="0" y="432" style="fill: #cf0000; fill-opacity: 0.7; stroke: #cf0000; stroke-opacity: 0.7"/>
    </g>
   </g>
   <g id="matplotlib.axis_1">
    <g id="xtick_1">
     <g id="line2d_1">
      <defs>
       <path id="mb3a77000d7" d="M 0 0 
L 0 3.5 
" style="stroke: #000000; stroke-width: 0.8"/>
      </defs>
      <g>
       <use xlink:href="#mb3a77000d7" x="27.978125" y="390.84375" style="stroke: #000000; stroke-width: 0.8"/>
      </g>
     </g>
     <g id="text_1">
      <!-- −1.0 -->
      <g transform="translate(15.836719 405.442187) scale(0.1 -0.1)">
       <defs>
        <path id="DejaVuSans-2212" d="M 678 2272 
L 4684 2272 
L 4684 1741 
L 678 1741 
L 678 2272 
z
" transform="scale(0.015625)"/>
        <path id="DejaVuSans-31" d="M 794 531 
L 1825 531 
L 1825 4091 
L 703 3866 
L 703 4441 
L 1819 4666 
L 2450 4666 
L 2450 531 
L 3481 531 
L 3481 0 
L 794 0 
L 794 531 
z
" transform="scale(0.015625)"/>
        <path id="DejaVuSans-2e" d="M 684 794 
L 1344 794 
L 1344 0 
L 684 0 
L 684 794 
z
" transform="scale(0.015625)"/>
        <path id="DejaVuSans-30" d="M 2034 4250 
Q 1547 4250 1301 3770 
Q 1056 3291 1056 2328 
Q 1056 1369 1301 889 
Q 1547 409 2034 409 
Q 2525 409 2770 889 
Q 3016 1369 3016 2328 
Q 3016 3291 2770 3770 
Q 2525 4250 2034 4250 
z
M 2034 4750 
Q 2819 4750 3233 4129 
Q 3647 3509 3647 2328 
Q 3647 1150 3233 529 
Q 2819 -91 2034 -91 
Q 1250 -91 836 529 
Q 422 1150 422 2328 
Q 422 3509 836 4129 
Q 1250 4750 2034 4750 
z
" transform="scale(0.015625)"/>
       </defs>
       <use xlink:href="#DejaVuSans-2212"/>
       <use xlink:href="#DejaVuSans-31" x="83.789062"/>
       <use xlink:href="#DejaVuSans-2e" x="147.412109"/>
       <use xlink:href="#DejaVuSans-30" x="179.199219"/>
      </g>
     </g>
    </g>
    <g id="xtick_2">
     <g id="line2d_2">
      <g>
       <use xlink:href="#mb3a77000d7" x="95.305156" y="390.84375" style="stroke: #000000; stroke-width: 0.8"/>
      </g>
     </g>
     <g id="text_2">
      <!-- −0.8 -->
      <g transform="translate(83.16375 405.442187) scale(0.1 -0.1)">
       <defs>
        <path id="DejaVuSans-38" d="M 2034 2216 
Q 1584 2216 1326 1975 
Q 1069 1734 1069 1313 
Q 1069 891 1326 650 
Q 1584 409 2034 409 
Q 2484 409 2743 651 
Q 3003 894 3003 1313 
Q 3003 1734 2745 1975 
Q 2488 2216 2034 2216 
z
M 1403 2484 
Q 997 2584 770 2862 
Q 544 3141 544 3541 
Q 544 4100 942 4425 
Q 1341 4750 2034 4750 
Q 2731 4750 3128 4425 
Q 3525 4100 3525 3541 
Q 3525 3141 3298 2862 
Q 3072 2584 2669 2484 
Q 3125 2378 3379 2068 
Q 3634 1759 3634 1313 
Q 3634 634 3220 271 
Q 2806 -91 2034 -91 
Q 1263 -91 848 271 
Q 434 634 434 1313 
Q 434 1759 690 2068 
Q 947 2378 1403 2484 
z
M 1172 3481 
Q 1172 3119 1398 2916 
Q 1625 2713 2034 2713 
Q 2441 2713 2670 2916 
Q 2900 3119 2900 3481 
Q 2900 3844 2670 4047 
Q 2441 4250 2034 4250 
Q 1625 4250 1398 4047 
Q 1172 3844 1172 3481 
z
" transform="scale(0.015625)"/>
       </defs>
       <use xlink:href="#DejaVuSans-2212"/>
       <use xlink:href="#DejaVuSans-30" x="83.789062"/>
       <use xlink:href="#DejaVuSans-2e" x="147.412109"/>
       <use xlink:href="#DejaVuSans-38" x="179.199219"/>
      </g>
     </g>
    </g>
    <g id="xtick_3">
     <g id="line2d_3">
      <g>
       <use xlink:href="#mb3a77000d7" x="162.632188" y="390.84375" style="stroke: #000000; stroke-width: 0.8"/>
      </g>
     </g>
     <g id="text_3">
      <!-- −0.6 -->
      <g transform="translate(150.490781 405.442187) scale(0.1 -0.1)">
       <defs>
        <path id="DejaVuSans-36" d="M 2113 2584 
Q 1688 2584 1439 2293 
Q 1191 2003 1191 1497 
Q 1191 994 1439 701 
Q 1688 409 2113 409 
Q 2538 409 2786 701 
Q 3034 994 3034 1497 
Q 3034 2003 2786 2293 
Q 2538 2584 2113 2584 
z
M 3366 4563 
L 3366 3988 
Q 3128 4100 2886 4159 
Q 2644 4219 2406 4219 
Q 1781 4219 1451 3797 
Q 1122 3375 1075 2522 
Q 1259 2794 1537 2939 
Q 1816 3084 2150 3084 
Q 2853 3084 3261 2657 
Q 3669 2231 3669 1497 
Q 3669 778 3244 343 
Q 2819 -91 2113 -91 
Q 1303 -91 875 529 
Q 447 1150 447 2328 
Q 447 3434 972 4092 
Q 1497 4750 2381 4750 
Q 2619 4750 2861 4703 
Q 3103 4656 3366 4563 
z
" transform="scale(0.015625)"/>
       </defs>
       <use xlink:href="#DejaVuSans-2212"/>
       <use xlink:href="#DejaVuSans-30" x="83.789062"/>
       <use xlink:href="#DejaVuSans-2e" x="147.412109"/>
       <use xlink:href="#DejaVuSans-36" x="179.199219"/>
      </g>
     </g>
    </g>
    <g id="xtick_4">
     <g id="line2d_4">
      <g>
       <use xlink:href="#mb3a77000d7" x="229.959219" y="390.84375" style="stroke: #000000; stroke-width: 0.8"/>
      </g>
     </g>
     <g id="text_4">
      <!-- −0.4 -->
      <g transform="translate(217.817813 405.442187) scale(0.1 -0.1)">
       <defs>
        <path id="DejaVuSans-34" d="M 2419 4116 
L 825 1625 
L 2419 1625 
L 2419 4116 
z
M 2253 4666 
L 3047 4666 
L 3047 1625 
L 3713 1625 
L 3713 1100 
L 3047 1100 
L 3047 0 
L 2419 0 
L 2419 1100 
L 313 1100 
L 313 1709 
L 2253 4666 
z
" transform="scale(0.015625)"/>
       </defs>
       <use xlink:href="#DejaVuSans-2212"/>
       <use xlink:href="#DejaVuSans-30" x="83.789062"/>
       <use xlink:href="#DejaVuSans-2e" x="147.412109"/>
       <use xlink:href="#DejaVuSans-34" x="179.199219"/>
      </g>
     </g>
    </g>
    <g id="xtick_5">
     <g id="line2d_5">
      <g>
       <use xlink:href="#mb3a77000d7" x="297.28625" y="390.84375" style="stroke: #000000; stroke-width: 0.8"/>
      </g>
     </g>
     <g id="text_5">
      <!-- −0.2 -->
      <g transform="translate(285.144844 405.442187) scale(0.1 -0.1)">
       <defs>
        <path id="DejaVuSans-32" d="M 1228 531 
L 3431 531 
L 3431 0 
L 469 0 
L 469 531 
Q 828 903 1448 1529 
Q 2069 2156 2228 2338 
Q 2531 2678 2651 2914 
Q 2772 3150 2772 3378 
Q 2772 3750 2511 3984 
Q 2250 4219 1831 4219 
Q 1534 4219 1204 4116 
Q 875 4013 500 3803 
L 500 4441 
Q 881 4594 1212 4672 
Q 1544 4750 1819 4750 
Q 2544 4750 2975 4387 
Q 3406 4025 3406 3419 
Q 3406 3131 3298 2873 
Q 3191 2616 2906 2266 
Q 2828 2175 2409 1742 
Q 1991 1309 1228 531 
z
" transform="scale(0.015625)"/>
       </defs>
       <use xlink:href="#DejaVuSans-2212"/>
       <use xlink:href="#DejaVuSans-30" x="83.789062"/>
       <use xlink:href="#DejaVuSans-2e" x="147.412109"/>
       <use xlink:href="#DejaVuSans-32" x="179.199219"/>
      </g>
     </g>
    </g>
    <g id="xtick_6">
     <g id="line2d_6">
      <g>
       <use xlink:href="#mb3a77000d7" x="364.613281" y="390.84375" style="stroke: #000000; stroke-width: 0.8"/>
      </g>
     </g>
     <g id="text_6">
      <!-- 0.0 -->
      <g transform="translate(356.661719 405.442187) scale(0.1 -0.1)">
       <use xlink:href="#DejaVuSans-30"/>
       <use xlink:href="#DejaVuSans-2e" x="63.623047"/>
       <use xlink:href="#DejaVuSans-30" x="95.410156"/>
      </g>
     </g>
    </g>
    <g id="xtick_7">
     <g id="line2d_7">
      <g>
       <use xlink:href="#mb3a77000d7" x="431.940313" y="390.84375" style="stroke: #000000; stroke-width: 0.8"/>
      </g>
     </g>
     <g id="text_7">
      <!-- 0.2 -->
      <g transform="translate(423.98875 405.442187) scale(0.1 -0.1)">
       <use xlink:href="#DejaVuSans-30"/>
       <use xlink:href="#DejaVuSans-2e" x="63.623047"/>
       <use xlink:href="#DejaVuSans-32" x="95.410156"/>
      </g>
     </g>
    </g>
    <g id="xtick_8">
     <g id="line2d_8">
      <g>
       <use xlink:href="#mb3a77000d7" x="499.267344" y="390.84375" style="stroke: #000000; stroke-width: 0.8"/>
      </g>
     </g>
     <g id="text_8">
      <!-- 0.4 -->
      <g transform="translate(491.315781 405.442187) scale(0.1 -0.1)">
       <use xlink:href="#DejaVuSans-30"/>
       <use xlink:href="#DejaVuSans-2e" x="63.623047"/>
       <use xlink:href="#DejaVuSans-34" x="95.410156"/>
      </g>
     </g>
    </g>
    <g id="xtick_9">
     <g id="line2d_9">
      <g>
       <use xlink:href="#mb3a77000d7" x="566.594375" y="390.84375" style="stroke: #000000; stroke-width: 0.8"/>
      </g>
     </g>
     <g id="text_9">
      <!-- 0.6 -->
      <g transform="translate(558.642812 405.442187) scale(0.1 -0.1)">
       <use xlink:href="#DejaVuSans-30"/>
       <use xlink:href="#DejaVuSans-2e" x="63.623047"/>
       <use xlink:href="#DejaVuSans-36" x="95.410156"/>
      </g>
     </g>
    </g>
    <g id="xtick_10">
     <g id="line2d_10">
      <g>
       <use xlink:href="#mb3a77000d7" x="633.921406" y="390.84375" style="stroke: #000000; stroke-width: 0.8"/>
      </g>
     </g>
     <g id="text_10">
      <!-- 0.8 -->
      <g transform="translate(625.969844 405.442187) scale(0.1 -0.1)">
       <use xlink:href="#DejaVuSans-30"/>
       <use xlink:href="#DejaVuSans-2e" x="63.623047"/>
       <use xlink:href="#DejaVuSans-38" x="95.410156"/>
      </g>
     </g>
    </g>
    <g id="xtick_11">
     <g id="line2d_11">
      <g>
       <use xlink:href="#mb3a77000d7" x="701.248437" y="390.84375" style="stroke: #000000; stroke-width: 0.8"/>
      </g>
     </g>
     <g id="text_11">
      <!-- 1.0 -->
      <g transform="translate(693.296875 405.442187) scale(0.1 -0.1)">
       <use xlink:href="#DejaVuSans-31"/>
       <use xlink:href="#DejaVuSans-2e" x="63.623047"/>
       <use xlink:href="#DejaVuSans-30" x="95.410156"/>
      </g>
     </g>
    </g>
    <g id="text_12">
     <!-- Silhouette coefficient -->
     <g transform="translate(311.463281 419.120313) scale(0.1 -0.1)">
      <defs>
       <path id="DejaVuSans-53" d="M 3425 4513 
L 3425 3897 
Q 3066 4069 2747 4153 
Q 2428 4238 2131 4238 
Q 1616 4238 1336 4038 
Q 1056 3838 1056 3469 
Q 1056 3159 1242 3001 
Q 1428 2844 1947 2747 
L 2328 2669 
Q 3034 2534 3370 2195 
Q 3706 1856 3706 1288 
Q 3706 609 3251 259 
Q 2797 -91 1919 -91 
Q 1588 -91 1214 -16 
Q 841 59 441 206 
L 441 856 
Q 825 641 1194 531 
Q 1563 422 1919 422 
Q 2459 422 2753 634 
Q 3047 847 3047 1241 
Q 3047 1584 2836 1778 
Q 2625 1972 2144 2069 
L 1759 2144 
Q 1053 2284 737 2584 
Q 422 2884 422 3419 
Q 422 4038 858 4394 
Q 1294 4750 2059 4750 
Q 2388 4750 2728 4690 
Q 3069 4631 3425 4513 
z
" transform="scale(0.015625)"/>
       <path id="DejaVuSans-69" d="M 603 3500 
L 1178 3500 
L 1178 0 
L 603 0 
L 603 3500 
z
M 603 4863 
L 1178 4863 
L 1178 4134 
L 603 4134 
L 603 4863 
z
" transform="scale(0.015625)"/>
       <path id="DejaVuSans-6c" d="M 603 4863 
L 1178 4863 
L 1178 0 
L 603 0 
L 603 4863 
z
" transform="scale(0.015625)"/>
       <path id="DejaVuSans-68" d="M 3513 2113 
L 3513 0 
L 2938 0 
L 2938 2094 
Q 2938 2591 2744 2837 
Q 2550 3084 2163 3084 
Q 1697 3084 1428 2787 
Q 1159 2491 1159 1978 
L 1159 0 
L 581 0 
L 581 4863 
L 1159 4863 
L 1159 2956 
Q 1366 3272 1645 3428 
Q 1925 3584 2291 3584 
Q 2894 3584 3203 3211 
Q 3513 2838 3513 2113 
z
" transform="scale(0.015625)"/>
       <path id="DejaVuSans-6f" d="M 1959 3097 
Q 1497 3097 1228 2736 
Q 959 2375 959 1747 
Q 959 1119 1226 758 
Q 1494 397 1959 397 
Q 2419 397 2687 759 
Q 2956 1122 2956 1747 
Q 2956 2369 2687 2733 
Q 2419 3097 1959 3097 
z
M 1959 3584 
Q 2709 3584 3137 3096 
Q 3566 2609 3566 1747 
Q 3566 888 3137 398 
Q 2709 -91 1959 -91 
Q 1206 -91 779 398 
Q 353 888 353 1747 
Q 353 2609 779 3096 
Q 1206 3584 1959 3584 
z
" transform="scale(0.015625)"/>
       <path id="DejaVuSans-75" d="M 544 1381 
L 544 3500 
L 1119 3500 
L 1119 1403 
Q 1119 906 1312 657 
Q 1506 409 1894 409 
Q 2359 409 2629 706 
Q 2900 1003 2900 1516 
L 2900 3500 
L 3475 3500 
L 3475 0 
L 2900 0 
L 2900 538 
Q 2691 219 2414 64 
Q 2138 -91 1772 -91 
Q 1169 -91 856 284 
Q 544 659 544 1381 
z
M 1991 3584 
L 1991 3584 
z
" transform="scale(0.015625)"/>
       <path id="DejaVuSans-65" d="M 3597 1894 
L 3597 1613 
L 953 1613 
Q 991 1019 1311 708 
Q 1631 397 2203 397 
Q 2534 397 2845 478 
Q 3156 559 3463 722 
L 3463 178 
Q 3153 47 2828 -22 
Q 2503 -91 2169 -91 
Q 1331 -91 842 396 
Q 353 884 353 1716 
Q 353 2575 817 3079 
Q 1281 3584 2069 3584 
Q 2775 3584 3186 3129 
Q 3597 2675 3597 1894 
z
M 3022 2063 
Q 3016 2534 2758 2815 
Q 2500 3097 2075 3097 
Q 1594 3097 1305 2825 
Q 1016 2553 972 2059 
L 3022 2063 
z
" transform="scale(0.015625)"/>
       <path id="DejaVuSans-74" d="M 1172 4494 
L 1172 3500 
L 2356 3500 
L 2356 3053 
L 1172 3053 
L 1172 1153 
Q 1172 725 1289 603 
Q 1406 481 1766 481 
L 2356 481 
L 2356 0 
L 1766 0 
Q 1100 0 847 248 
Q 594 497 594 1153 
L 594 3053 
L 172 3053 
L 172 3500 
L 594 3500 
L 594 4494 
L 1172 4494 
z
" transform="scale(0.015625)"/>
       <path id="DejaVuSans-20" transform="scale(0.015625)"/>
       <path id="DejaVuSans-63" d="M 3122 3366 
L 3122 2828 
Q 2878 2963 2633 3030 
Q 2388 3097 2138 3097 
Q 1578 3097 1268 2742 
Q 959 2388 959 1747 
Q 959 1106 1268 751 
Q 1578 397 2138 397 
Q 2388 397 2633 464 
Q 2878 531 3122 666 
L 3122 134 
Q 2881 22 2623 -34 
Q 2366 -91 2075 -91 
Q 1284 -91 818 406 
Q 353 903 353 1747 
Q 353 2603 823 3093 
Q 1294 3584 2113 3584 
Q 2378 3584 2631 3529 
Q 2884 3475 3122 3366 
z
" transform="scale(0.015625)"/>
       <path id="DejaVuSans-66" d="M 2375 4863 
L 2375 4384 
L 1825 4384 
Q 1516 4384 1395 4259 
Q 1275 4134 1275 3809 
L 1275 3500 
L 2222 3500 
L 2222 3053 
L 1275 3053 
L 1275 0 
L 697 0 
L 697 3053 
L 147 3053 
L 147 3500 
L 697 3500 
L 697 3744 
Q 697 4328 969 4595 
Q 1241 4863 1831 4863 
L 2375 4863 
z
" transform="scale(0.015625)"/>
       <path id="DejaVuSans-6e" d="M 3513 2113 
L 3513 0 
L 2938 0 
L 2938 2094 
Q 2938 2591 2744 2837 
Q 2550 3084 2163 3084 
Q 1697 3084 1428 2787 
Q 1159 2491 1159 1978 
L 1159 0 
L 581 0 
L 581 3500 
L 1159 3500 
L 1159 2956 
Q 1366 3272 1645 3428 
Q 1925 3584 2291 3584 
Q 2894 3584 3203 3211 
Q 3513 2838 3513 2113 
z
" transform="scale(0.015625)"/>
      </defs>
      <use xlink:href="#DejaVuSans-53"/>
      <use xlink:href="#DejaVuSans-69" x="63.476562"/>
      <use xlink:href="#DejaVuSans-6c" x="91.259766"/>
      <use xlink:href="#DejaVuSans-68" x="119.042969"/>
      <use xlink:href="#DejaVuSans-6f" x="182.421875"/>
      <use xlink:href="#DejaVuSans-75" x="243.603516"/>
      <use xlink:href="#DejaVuSans-65" x="306.982422"/>
      <use xlink:href="#DejaVuSans-74" x="368.505859"/>
      <use xlink:href="#DejaVuSans-74" x="407.714844"/>
      <use xlink:href="#DejaVuSans-65" x="446.923828"/>
      <use xlink:href="#DejaVuSans-20" x="508.447266"/>
      <use xlink:href="#DejaVuSans-63" x="540.234375"/>
      <use xlink:href="#DejaVuSans-6f" x="595.214844"/>
      <use xlink:href="#DejaVuSans-65" x="656.396484"/>
      <use xlink:href="#DejaVuSans-66" x="717.919922"/>
      <use xlink:href="#DejaVuSans-66" x="753.125"/>
      <use xlink:href="#DejaVuSans-69" x="788.330078"/>
      <use xlink:href="#DejaVuSans-63" x="816.113281"/>
      <use xlink:href="#DejaVuSans-69" x="871.09375"/>
      <use xlink:href="#DejaVuSans-65" x="898.876953"/>
      <use xlink:href="#DejaVuSans-6e" x="960.400391"/>
      <use xlink:href="#DejaVuSans-74" x="1023.779297"/>
     </g>
    </g>
   </g>
   <g id="matplotlib.axis_2">
    <g id="text_13">
     <!-- Predicted label -->
     <g transform="translate(18.398438 239.798141) rotate(-90) scale(0.1 -0.1)">
      <defs>
       <path id="DejaVuSans-50" d="M 1259 4147 
L 1259 2394 
L 2053 2394 
Q 2494 2394 2734 2622 
Q 2975 2850 2975 3272 
Q 2975 3691 2734 3919 
Q 2494 4147 2053 4147 
L 1259 4147 
z
M 628 4666 
L 2053 4666 
Q 2838 4666 3239 4311 
Q 3641 3956 3641 3272 
Q 3641 2581 3239 2228 
Q 2838 1875 2053 1875 
L 1259 1875 
L 1259 0 
L 628 0 
L 628 4666 
z
" transform="scale(0.015625)"/>
       <path id="DejaVuSans-72" d="M 2631 2963 
Q 2534 3019 2420 3045 
Q 2306 3072 2169 3072 
Q 1681 3072 1420 2755 
Q 1159 2438 1159 1844 
L 1159 0 
L 581 0 
L 581 3500 
L 1159 3500 
L 1159 2956 
Q 1341 3275 1631 3429 
Q 1922 3584 2338 3584 
Q 2397 3584 2469 3576 
Q 2541 3569 2628 3553 
L 2631 2963 
z
" transform="scale(0.015625)"/>
       <path id="DejaVuSans-64" d="M 2906 2969 
L 2906 4863 
L 3481 4863 
L 3481 0 
L 2906 0 
L 2906 525 
Q 2725 213 2448 61 
Q 2172 -91 1784 -91 
Q 1150 -91 751 415 
Q 353 922 353 1747 
Q 353 2572 751 3078 
Q 1150 3584 1784 3584 
Q 2172 3584 2448 3432 
Q 2725 3281 2906 2969 
z
M 947 1747 
Q 947 1113 1208 752 
Q 1469 391 1925 391 
Q 2381 391 2643 752 
Q 2906 1113 2906 1747 
Q 2906 2381 2643 2742 
Q 2381 3103 1925 3103 
Q 1469 3103 1208 2742 
Q 947 2381 947 1747 
z
" transform="scale(0.015625)"/>
       <path id="DejaVuSans-61" d="M 2194 1759 
Q 1497 1759 1228 1600 
Q 959 1441 959 1056 
Q 959 750 1161 570 
Q 1363 391 1709 391 
Q 2188 391 2477 730 
Q 2766 1069 2766 1631 
L 2766 1759 
L 2194 1759 
z
M 3341 1997 
L 3341 0 
L 2766 0 
L 2766 531 
Q 2569 213 2275 61 
Q 1981 -91 1556 -91 
Q 1019 -91 701 211 
Q 384 513 384 1019 
Q 384 1609 779 1909 
Q 1175 2209 1959 2209 
L 2766 2209 
L 2766 2266 
Q 2766 2663 2505 2880 
Q 2244 3097 1772 3097 
Q 1472 3097 1187 3025 
Q 903 2953 641 2809 
L 641 3341 
Q 956 3463 1253 3523 
Q 1550 3584 1831 3584 
Q 2591 3584 2966 3190 
Q 3341 2797 3341 1997 
z
" transform="scale(0.015625)"/>
       <path id="DejaVuSans-62" d="M 3116 1747 
Q 3116 2381 2855 2742 
Q 2594 3103 2138 3103 
Q 1681 3103 1420 2742 
Q 1159 2381 1159 1747 
Q 1159 1113 1420 752 
Q 1681 391 2138 391 
Q 2594 391 2855 752 
Q 3116 1113 3116 1747 
z
M 1159 2969 
Q 1341 3281 1617 3432 
Q 1894 3584 2278 3584 
Q 2916 3584 3314 3078 
Q 3713 2572 3713 1747 
Q 3713 922 3314 415 
Q 2916 -91 2278 -91 
Q 1894 -91 1617 61 
Q 1341 213 1159 525 
L 1159 0 
L 581 0 
L 581 4863 
L 1159 4863 
L 1159 2969 
z
" transform="scale(0.015625)"/>
      </defs>
      <use xlink:href="#DejaVuSans-50"/>
      <use xlink:href="#DejaVuSans-72" x="58.552734"/>
      <use xlink:href="#DejaVuSans-65" x="97.416016"/>
      <use xlink:href="#DejaVuSans-64" x="158.939453"/>
      <use xlink:href="#DejaVuSans-69" x="222.416016"/>
      <use xlink:href="#DejaVuSans-63" x="250.199219"/>
      <use xlink:href="#DejaVuSans-74" x="305.179688"/>
      <use xlink:href="#DejaVuSans-65" x="344.388672"/>
      <use xlink:href="#DejaVuSans-64" x="405.912109"/>
      <use xlink:href="#DejaVuSans-20" x="469.388672"/>
      <use xlink:href="#DejaVuSans-6c" x="501.175781"/>
      <use xlink:href="#DejaVuSans-61" x="528.958984"/>
      <use xlink:href="#DejaVuSans-62" x="590.238281"/>
      <use xlink:href="#DejaVuSans-65" x="653.714844"/>
      <use xlink:href="#DejaVuSans-6c" x="715.238281"/>
     </g>
    </g>
   </g>
   <g id="line2d_12">
    <path d="M 499.687602 390.84375 
L 499.687602 14.447844 
" clip-path="url(#pc4336314e3)" style="fill: none; stroke: #ff0000; stroke-width: 1.5; stroke-linecap: square"/>
   </g>
   <g id="patch_3">
    <path d="M 27.978125 390.84375 
L 27.978125 14.447844 
" style="fill: none; stroke: #000000; stroke-width: 0.8; stroke-linejoin: miter; stroke-linecap: square"/>
   </g>
   <g id="patch_4">
    <path d="M 701.248437 390.84375 
L 701.248437 14.447844 
" style="fill: none; stroke: #000000; stroke-width: 0.8; stroke-linejoin: miter; stroke-linecap: square"/>
   </g>
   <g id="patch_5">
    <path d="M 27.978125 390.84375 
L 701.248437 390.84375 
" style="fill: none; stroke: #000000; stroke-width: 0.8; stroke-linejoin: miter; stroke-linecap: square"/>
   </g>
   <g id="patch_6">
    <path d="M 27.978125 14.447844 
L 701.248437 14.447844 
" style="fill: none; stroke: #000000; stroke-width: 0.8; stroke-linejoin: miter; stroke-linecap: square"/>
   </g>
   <g id="text_14">
    <!-- 0 -->
    <g transform="translate(347.781523 366.927858) scale(0.1 -0.1)">
     <use xlink:href="#DejaVuSans-30"/>
    </g>
   </g>
   <g id="text_15">
    <!-- 1 -->
    <g transform="translate(347.781523 320.437152) scale(0.1 -0.1)">
     <use xlink:href="#DejaVuSans-31"/>
    </g>
   </g>
   <g id="text_16">
    <!-- 2 -->
    <g transform="translate(347.781523 292.721539) scale(0.1 -0.1)">
     <use xlink:href="#DejaVuSans-32"/>
    </g>
   </g>
   <g id="text_17">
    <!-- 3 -->
    <g transform="translate(347.781523 284.451558) scale(0.1 -0.1)">
     <defs>
      <path id="DejaVuSans-33" d="M 2597 2516 
Q 3050 2419 3304 2112 
Q 3559 1806 3559 1356 
Q 3559 666 3084 287 
Q 2609 -91 1734 -91 
Q 1441 -91 1130 -33 
Q 819 25 488 141 
L 488 750 
Q 750 597 1062 519 
Q 1375 441 1716 441 
Q 2309 441 2620 675 
Q 2931 909 2931 1356 
Q 2931 1769 2642 2001 
Q 2353 2234 1838 2234 
L 1294 2234 
L 1294 2753 
L 1863 2753 
Q 2328 2753 2575 2939 
Q 2822 3125 2822 3475 
Q 2822 3834 2567 4026 
Q 2313 4219 1838 4219 
Q 1578 4219 1281 4162 
Q 984 4106 628 3988 
L 628 4550 
Q 988 4650 1302 4700 
Q 1616 4750 1894 4750 
Q 2613 4750 3031 4423 
Q 3450 4097 3450 3541 
Q 3450 3153 3228 2886 
Q 3006 2619 2597 2516 
z
" transform="scale(0.015625)"/>
     </defs>
     <use xlink:href="#DejaVuSans-33"/>
    </g>
   </g>
   <g id="text_18">
    <!-- 4 -->
    <g transform="translate(347.781523 266.570517) scale(0.1 -0.1)">
     <use xlink:href="#DejaVuSans-34"/>
    </g>
   </g>
   <g id="text_19">
    <!-- 5 -->
    <g transform="translate(347.781523 249.807042) scale(0.1 -0.1)">
     <defs>
      <path id="DejaVuSans-35" d="M 691 4666 
L 3169 4666 
L 3169 4134 
L 1269 4134 
L 1269 2991 
Q 1406 3038 1543 3061 
Q 1681 3084 1819 3084 
Q 2600 3084 3056 2656 
Q 3513 2228 3513 1497 
Q 3513 744 3044 326 
Q 2575 -91 1722 -91 
Q 1428 -91 1123 -41 
Q 819 9 494 109 
L 494 744 
Q 775 591 1075 516 
Q 1375 441 1709 441 
Q 2250 441 2565 725 
Q 2881 1009 2881 1497 
Q 2881 1984 2565 2268 
Q 2250 2553 1709 2553 
Q 1456 2553 1204 2497 
Q 953 2441 691 2322 
L 691 4666 
z
" transform="scale(0.015625)"/>
     </defs>
     <use xlink:href="#DejaVuSans-35"/>
    </g>
   </g>
   <g id="text_20">
    <!-- 6 -->
    <g transform="translate(347.781523 228.573306) scale(0.1 -0.1)">
     <use xlink:href="#DejaVuSans-36"/>
    </g>
   </g>
   <g id="text_21">
    <!-- 7 -->
    <g transform="translate(347.781523 207.563083) scale(0.1 -0.1)">
     <defs>
      <path id="DejaVuSans-37" d="M 525 4666 
L 3525 4666 
L 3525 4397 
L 1831 0 
L 1172 0 
L 2766 4134 
L 525 4134 
L 525 4666 
z
" transform="scale(0.015625)"/>
     </defs>
     <use xlink:href="#DejaVuSans-37"/>
    </g>
   </g>
   <g id="text_22">
    <!-- 8 -->
    <g transform="translate(347.781523 196.834459) scale(0.1 -0.1)">
     <use xlink:href="#DejaVuSans-38"/>
    </g>
   </g>
   <g id="text_23">
    <!-- 9 -->
    <g transform="translate(347.781523 175.153697) scale(0.1 -0.1)">
     <defs>
      <path id="DejaVuSans-39" d="M 703 97 
L 703 672 
Q 941 559 1184 500 
Q 1428 441 1663 441 
Q 2288 441 2617 861 
Q 2947 1281 2994 2138 
Q 2813 1869 2534 1725 
Q 2256 1581 1919 1581 
Q 1219 1581 811 2004 
Q 403 2428 403 3163 
Q 403 3881 828 4315 
Q 1253 4750 1959 4750 
Q 2769 4750 3195 4129 
Q 3622 3509 3622 2328 
Q 3622 1225 3098 567 
Q 2575 -91 1691 -91 
Q 1453 -91 1209 -44 
Q 966 3 703 97 
z
M 1959 2075 
Q 2384 2075 2632 2365 
Q 2881 2656 2881 3163 
Q 2881 3666 2632 3958 
Q 2384 4250 1959 4250 
Q 1534 4250 1286 3958 
Q 1038 3666 1038 3163 
Q 1038 2656 1286 2365 
Q 1534 2075 1959 2075 
z
" transform="scale(0.015625)"/>
     </defs>
     <use xlink:href="#DejaVuSans-39"/>
    </g>
   </g>
   <g id="text_24">
    <!-- 10 -->
    <g transform="translate(347.781523 152.802396) scale(0.1 -0.1)">
     <use xlink:href="#DejaVuSans-31"/>
     <use xlink:href="#DejaVuSans-30" x="63.623047"/>
    </g>
   </g>
   <g id="text_25">
    <!-- 11 -->
    <g transform="translate(347.781523 98.265222) scale(0.1 -0.1)">
     <use xlink:href="#DejaVuSans-31"/>
     <use xlink:href="#DejaVuSans-31" x="63.623047"/>
    </g>
   </g>
   <g id="text_26">
    <!-- 12 -->
    <g transform="translate(347.781523 44.6221) scale(0.1 -0.1)">
     <use xlink:href="#DejaVuSans-31"/>
     <use xlink:href="#DejaVuSans-32" x="63.623047"/>
    </g>
   </g>
   <g id="text_27">
    <!-- 13 -->
    <g transform="translate(347.781523 34.564014) scale(0.1 -0.1)">
     <use xlink:href="#DejaVuSans-31"/>
     <use xlink:href="#DejaVuSans-33" x="63.623047"/>
    </g>
   </g>
   <g id="text_28">
    <!-- 14 -->
    <g transform="translate(347.781523 26.741059) scale(0.1 -0.1)">
     <use xlink:href="#DejaVuSans-31"/>
     <use xlink:href="#DejaVuSans-34" x="63.623047"/>
    </g>
   </g>
   <g id="text_29">
    <!-- 15 -->
    <g transform="translate(347.781523 19.588643) scale(0.1 -0.1)">
     <use xlink:href="#DejaVuSans-31"/>
     <use xlink:href="#DejaVuSans-35" x="63.623047"/>
    </g>
   </g>
   <g id="text_30">
    <!-- 0.4012 -->
    <g style="fill: #ff0000" transform="translate(516.51936 18.918104) scale(0.1 -0.1)">
     <use xlink:href="#DejaVuSans-30"/>
     <use xlink:href="#DejaVuSans-2e" x="63.623047"/>
     <use xlink:href="#DejaVuSans-34" x="95.410156"/>
     <use xlink:href="#DejaVuSans-30" x="159.033203"/>
     <use xlink:href="#DejaVuSans-31" x="222.65625"/>
     <use xlink:href="#DejaVuSans-32" x="286.279297"/>
    </g>
   </g>
  </g>
 </g>
 <defs>
  <clipPath id="pc4336314e3">
   <rect x="27.978125" y="14.447844" width="673.270312" height="376.395906"/>
  </clipPath>
 </defs>
</svg>
