<?xml version="1.0" encoding="utf-8" standalone="no"?>
<!DOCTYPE svg PUBLIC "-//W3C//DTD SVG 1.1//EN"
  "http://www.w3.org/Graphics/SVG/1.1/DTD/svg11.dtd">
<svg xmlns:xlink="http://www.w3.org/1999/xlink" width="720pt" height="720pt" viewBox="0 0 720 720" xmlns="http://www.w3.org/2000/svg" version="1.1">
 <metadata>
  <rdf:RDF xmlns:dc="http://purl.org/dc/elements/1.1/" xmlns:cc="http://creativecommons.org/ns#" xmlns:rdf="http://www.w3.org/1999/02/22-rdf-syntax-ns#">
   <cc:Work>
    <dc:type rdf:resource="http://purl.org/dc/dcmitype/StillImage"/>
    <dc:date>2022-11-17T19:11:18.500944</dc:date>
    <dc:format>image/svg+xml</dc:format>
    <dc:creator>
     <cc:Agent>
      <dc:title>Matplotlib v3.6.1, https://matplotlib.org/</dc:title>
     </cc:Agent>
    </dc:creator>
   </cc:Work>
  </rdf:RDF>
 </metadata>
 <defs>
  <style type="text/css">*{stroke-linejoin: round; stroke-linecap: butt}</style>
 </defs>
 <g id="figure_1">
  <g id="patch_1">
   <path d="M 0 720 
L 720 720 
L 720 0 
L 0 0 
z
" style="fill: #ffffff"/>
  </g>
  <g id="axes_1">
   <g id="patch_2">
    <path d="M 27.978125 678.84375 
L 701.248437 678.84375 
L 701.248437 11.485719 
L 27.978125 11.485719 
z
" style="fill: #ffffff"/>
   </g>
   <g id="PolyCollection_1">
    <defs>
     <path id="m81786c8b4a" d="M 388.563852 -49.477422 
L 364.613281 -49.477422 
L 364.613281 -50.30954 
L 364.613281 -51.141657 
L 364.613281 -51.973774 
L 364.613281 -52.805891 
L 364.613281 -53.638009 
L 364.613281 -54.470126 
L 364.613281 -55.302243 
L 364.613281 -56.13436 
L 364.613281 -56.966478 
L 364.613281 -57.798595 
L 364.613281 -58.630712 
L 364.613281 -59.462829 
L 364.613281 -60.294947 
L 364.613281 -61.127064 
L 364.613281 -61.959181 
L 364.613281 -62.791298 
L 364.613281 -63.623416 
L 364.613281 -64.455533 
L 364.613281 -65.28765 
L 364.613281 -66.119767 
L 364.613281 -66.951885 
L 364.613281 -67.784002 
L 364.613281 -68.616119 
L 364.613281 -69.448236 
L 364.613281 -70.280354 
L 364.613281 -71.112471 
L 364.613281 -71.944588 
L 364.613281 -72.776705 
L 364.613281 -73.608823 
L 364.613281 -74.44094 
L 364.613281 -75.273057 
L 364.613281 -76.105174 
L 364.613281 -76.937292 
L 364.613281 -77.769409 
L 364.613281 -78.601526 
L 364.613281 -79.433643 
L 364.613281 -80.265761 
L 364.613281 -81.097878 
L 364.613281 -81.929995 
L 364.613281 -82.762112 
L 364.613281 -83.59423 
L 364.613281 -84.426347 
L 364.613281 -85.258464 
L 364.613281 -86.090581 
L 364.613281 -86.922698 
L 364.613281 -87.754816 
L 364.613281 -88.586933 
L 364.613281 -89.41905 
L 364.613281 -90.251167 
L 364.613281 -91.083285 
L 364.613281 -91.915402 
L 364.613281 -92.747519 
L 364.613281 -93.579636 
L 364.613281 -94.411754 
L 364.613281 -95.243871 
L 364.613281 -96.075988 
L 364.613281 -96.908105 
L 364.613281 -97.740223 
L 364.613281 -98.57234 
L 364.613281 -99.404457 
L 364.613281 -100.236574 
L 364.613281 -101.068692 
L 364.613281 -101.900809 
L 364.613281 -102.732926 
L 364.613281 -103.565043 
L 364.613281 -104.397161 
L 364.613281 -105.229278 
L 364.613281 -106.061395 
L 364.613281 -106.893512 
L 364.613281 -107.72563 
L 364.613281 -108.557747 
L 364.613281 -109.389864 
L 364.613281 -110.221981 
L 364.613281 -111.054099 
L 364.613281 -111.886216 
L 364.613281 -112.718333 
L 364.613281 -113.55045 
L 364.613281 -114.382568 
L 364.613281 -115.214685 
L 364.613281 -116.046802 
L 364.613281 -116.878919 
L 364.613281 -117.711037 
L 364.613281 -118.543154 
L 364.613281 -119.375271 
L 364.613281 -120.207388 
L 364.613281 -121.039506 
L 364.613281 -121.871623 
L 364.613281 -122.70374 
L 514.967423 -122.70374 
L 514.967423 -122.70374 
L 514.282201 -121.871623 
L 513.905144 -121.039506 
L 513.184717 -120.207388 
L 511.750404 -119.375271 
L 511.73267 -118.543154 
L 511.645714 -117.711037 
L 511.508243 -116.878919 
L 511.34396 -116.046802 
L 508.169954 -115.214685 
L 507.891926 -114.382568 
L 507.421432 -113.55045 
L 504.425082 -112.718333 
L 503.877523 -111.886216 
L 503.746781 -111.054099 
L 502.19625 -110.221981 
L 500.897627 -109.389864 
L 500.464153 -108.557747 
L 500.171687 -107.72563 
L 499.253987 -106.893512 
L 497.868296 -106.061395 
L 497.072338 -105.229278 
L 496.994939 -104.397161 
L 496.820891 -103.565043 
L 495.83055 -102.732926 
L 495.585254 -101.900809 
L 495.468623 -101.068692 
L 495.225725 -100.236574 
L 494.931118 -99.404457 
L 494.179932 -98.57234 
L 493.894324 -97.740223 
L 491.927452 -96.908105 
L 491.510731 -96.075988 
L 491.507931 -95.243871 
L 491.193092 -94.411754 
L 491.190846 -93.579636 
L 490.906898 -92.747519 
L 490.89036 -91.915402 
L 490.862558 -91.083285 
L 490.605197 -90.251167 
L 490.150593 -89.41905 
L 489.551336 -88.586933 
L 488.077578 -87.754816 
L 483.852024 -86.922698 
L 483.108015 -86.090581 
L 483.061042 -85.258464 
L 482.90352 -84.426347 
L 482.89464 -83.59423 
L 482.885006 -82.762112 
L 482.858767 -81.929995 
L 478.276846 -81.097878 
L 477.940208 -80.265761 
L 477.814757 -79.433643 
L 475.616662 -78.601526 
L 470.481538 -77.769409 
L 469.225379 -76.937292 
L 466.997897 -76.105174 
L 463.635493 -75.273057 
L 463.072873 -74.44094 
L 462.623748 -73.608823 
L 461.977566 -72.776705 
L 461.789593 -71.944588 
L 460.64898 -71.112471 
L 457.51968 -70.280354 
L 454.987447 -69.448236 
L 453.923738 -68.616119 
L 453.517737 -67.784002 
L 453.012639 -66.951885 
L 452.628491 -66.119767 
L 451.42006 -65.28765 
L 450.853066 -64.455533 
L 450.078261 -63.623416 
L 448.652568 -62.791298 
L 448.330015 -61.959181 
L 448.278654 -61.127064 
L 447.996034 -60.294947 
L 433.95085 -59.462829 
L 433.776801 -58.630712 
L 432.850634 -57.798595 
L 432.759652 -56.966478 
L 426.936779 -56.13436 
L 418.035692 -55.302243 
L 413.730488 -54.470126 
L 404.186187 -53.638009 
L 400.762796 -52.805891 
L 397.237317 -51.973774 
L 395.415474 -51.141657 
L 395.027686 -50.30954 
L 388.563852 -49.477422 
z
" style="stroke: #000000; stroke-opacity: 0.7"/>
    </defs>
    <g clip-path="url(#pbce0c469c2)">
     <use xlink:href="#m81786c8b4a" x="0" y="720" style="fill-opacity: 0.7; stroke: #000000; stroke-opacity: 0.7"/>
    </g>
   </g>
   <g id="PolyCollection_2">
    <defs>
     <path id="m13a1d5676a" d="M 316.748095 -131.85703 
L 364.613281 -131.85703 
L 364.613281 -132.689147 
L 364.613281 -133.521264 
L 364.613281 -134.353381 
L 364.613281 -135.185499 
L 364.613281 -136.017616 
L 364.613281 -136.849733 
L 364.613281 -137.68185 
L 364.613281 -138.513968 
L 364.613281 -139.346085 
L 364.613281 -140.178202 
L 364.613281 -141.010319 
L 364.613281 -141.842437 
L 364.613281 -142.674554 
L 364.613281 -143.506671 
L 364.613281 -144.338788 
L 364.613281 -145.170906 
L 364.613281 -146.003023 
L 364.613281 -146.83514 
L 364.613281 -147.667257 
L 364.613281 -148.499375 
L 364.613281 -149.331492 
L 364.613281 -150.163609 
L 364.613281 -150.995726 
L 364.613281 -151.827844 
L 364.613281 -152.659961 
L 364.613281 -153.492078 
L 364.613281 -154.324195 
L 364.613281 -155.156313 
L 364.613281 -155.98843 
L 364.613281 -156.820547 
L 364.613281 -157.652664 
L 364.613281 -158.484782 
L 364.613281 -159.316899 
L 364.613281 -160.149016 
L 364.613281 -160.981133 
L 364.613281 -161.813251 
L 364.613281 -162.645368 
L 364.613281 -163.477485 
L 364.613281 -164.309602 
L 364.613281 -165.14172 
L 364.613281 -165.973837 
L 364.613281 -166.805954 
L 364.613281 -167.638071 
L 364.613281 -168.470189 
L 364.613281 -169.302306 
L 364.613281 -170.134423 
L 364.613281 -170.96654 
L 364.613281 -171.798658 
L 364.613281 -172.630775 
L 364.613281 -173.462892 
L 364.613281 -174.295009 
L 364.613281 -175.127126 
L 364.613281 -175.959244 
L 364.613281 -176.791361 
L 364.613281 -177.623478 
L 364.613281 -178.455595 
L 364.613281 -179.287713 
L 364.613281 -180.11983 
L 364.613281 -180.951947 
L 364.613281 -181.784064 
L 364.613281 -182.616182 
L 364.613281 -183.448299 
L 364.613281 -184.280416 
L 364.613281 -185.112533 
L 364.613281 -185.944651 
L 364.613281 -186.776768 
L 364.613281 -187.608885 
L 364.613281 -188.441002 
L 364.613281 -189.27312 
L 364.613281 -190.105237 
L 364.613281 -190.937354 
L 364.613281 -191.769471 
L 364.613281 -192.601589 
L 364.613281 -193.433706 
L 364.613281 -194.265823 
L 364.613281 -195.09794 
L 364.613281 -195.930058 
L 364.613281 -196.762175 
L 364.613281 -197.594292 
L 364.613281 -198.426409 
L 364.613281 -199.258527 
L 364.613281 -200.090644 
L 364.613281 -200.922761 
L 364.613281 -201.754878 
L 364.613281 -202.586996 
L 364.613281 -203.419113 
L 364.613281 -204.25123 
L 364.613281 -205.083347 
L 364.613281 -205.915465 
L 364.613281 -206.747582 
L 364.613281 -207.579699 
L 364.613281 -208.411816 
L 364.613281 -209.243934 
L 364.613281 -210.076051 
L 364.613281 -210.908168 
L 364.613281 -211.740285 
L 364.613281 -212.572403 
L 364.613281 -213.40452 
L 364.613281 -214.236637 
L 364.613281 -215.068754 
L 364.613281 -215.900872 
L 364.613281 -216.732989 
L 364.613281 -217.565106 
L 364.613281 -218.397223 
L 364.613281 -219.22934 
L 364.613281 -220.061458 
L 364.613281 -220.893575 
L 364.613281 -221.725692 
L 364.613281 -222.557809 
L 364.613281 -223.389927 
L 364.613281 -224.222044 
L 497.722293 -224.222044 
L 497.722293 -224.222044 
L 497.163472 -223.389927 
L 497.094387 -222.557809 
L 496.942881 -221.725692 
L 496.509833 -220.893575 
L 496.497523 -220.061458 
L 494.817507 -219.22934 
L 494.654493 -218.397223 
L 494.601059 -217.565106 
L 494.505758 -216.732989 
L 494.199937 -215.900872 
L 493.884665 -215.068754 
L 490.813509 -214.236637 
L 490.732885 -213.40452 
L 490.136903 -212.572403 
L 488.156015 -211.740285 
L 487.769367 -210.908168 
L 487.767267 -210.076051 
L 486.826356 -209.243934 
L 484.755146 -208.411816 
L 484.682775 -207.579699 
L 484.501446 -206.747582 
L 484.489808 -205.915465 
L 484.338513 -205.083347 
L 484.131031 -204.25123 
L 483.901171 -203.419113 
L 482.755844 -202.586996 
L 480.868141 -201.754878 
L 480.061282 -200.922761 
L 479.94419 -200.090644 
L 479.714066 -199.258527 
L 479.350583 -198.426409 
L 479.312499 -197.594292 
L 479.293317 -196.762175 
L 479.147879 -195.930058 
L 478.781401 -195.09794 
L 477.613311 -194.265823 
L 477.499519 -193.433706 
L 476.129856 -192.601589 
L 475.91922 -191.769471 
L 475.902574 -190.937354 
L 475.706432 -190.105237 
L 475.126448 -189.27312 
L 473.805112 -188.441002 
L 471.488837 -187.608885 
L 470.643893 -186.776768 
L 469.956504 -185.944651 
L 468.91895 -185.112533 
L 468.867343 -184.280416 
L 468.17714 -183.448299 
L 467.38603 -182.616182 
L 466.522251 -181.784064 
L 466.501701 -180.951947 
L 462.153259 -180.11983 
L 461.740801 -179.287713 
L 461.45722 -178.455595 
L 459.996738 -177.623478 
L 459.157121 -176.791361 
L 459.062886 -175.959244 
L 458.244292 -175.127126 
L 458.167492 -174.295009 
L 457.480604 -173.462892 
L 455.660479 -172.630775 
L 455.497591 -171.798658 
L 454.496111 -170.96654 
L 453.960775 -170.134423 
L 453.349957 -169.302306 
L 450.520092 -168.470189 
L 450.091293 -167.638071 
L 449.035805 -166.805954 
L 448.897645 -165.973837 
L 446.047038 -165.14172 
L 443.412295 -164.309602 
L 443.352658 -163.477485 
L 443.004343 -162.645368 
L 442.649888 -161.813251 
L 441.388175 -160.981133 
L 439.973551 -160.149016 
L 438.750569 -159.316899 
L 435.654746 -158.484782 
L 433.852985 -157.652664 
L 433.477161 -156.820547 
L 432.852974 -155.98843 
L 426.857096 -155.156313 
L 425.075277 -154.324195 
L 417.303518 -153.492078 
L 416.117795 -152.659961 
L 414.626098 -151.827844 
L 410.541046 -150.995726 
L 407.849227 -150.163609 
L 402.562027 -149.331492 
L 400.726601 -148.499375 
L 400.07329 -147.667257 
L 399.702146 -146.83514 
L 399.591883 -146.003023 
L 399.350286 -145.170906 
L 399.067961 -144.338788 
L 395.259073 -143.506671 
L 388.471059 -142.674554 
L 388.405037 -141.842437 
L 388.03555 -141.010319 
L 385.285335 -140.178202 
L 384.54708 -139.346085 
L 382.485944 -138.513968 
L 378.843521 -137.68185 
L 377.578633 -136.849733 
L 375.164799 -136.017616 
L 373.640055 -135.185499 
L 348.482422 -134.353381 
L 345.907088 -133.521264 
L 335.527144 -132.689147 
L 316.748095 -131.85703 
z
" style="stroke: #820093; stroke-opacity: 0.7"/>
    </defs>
    <g clip-path="url(#pbce0c469c2)">
     <use xlink:href="#m13a1d5676a" x="0" y="720" style="fill: #820093; fill-opacity: 0.7; stroke: #820093; stroke-opacity: 0.7"/>
    </g>
   </g>
   <g id="PolyCollection_3">
    <defs>
     <path id="m03b78eca75" d="M 389.633925 -233.375334 
L 364.613281 -233.375334 
L 364.613281 -234.207451 
L 364.613281 -235.039568 
L 364.613281 -235.871685 
L 364.613281 -236.703803 
L 364.613281 -237.53592 
L 364.613281 -238.368037 
L 364.613281 -239.200154 
L 364.613281 -240.032272 
L 435.74874 -240.032272 
L 435.74874 -240.032272 
L 433.213298 -239.200154 
L 427.175076 -238.368037 
L 422.110626 -237.53592 
L 419.245583 -236.703803 
L 418.548665 -235.871685 
L 399.459966 -235.039568 
L 391.450034 -234.207451 
L 389.633925 -233.375334 
z
" style="stroke: #0000b9; stroke-opacity: 0.7"/>
    </defs>
    <g clip-path="url(#pbce0c469c2)">
     <use xlink:href="#m03b78eca75" x="0" y="720" style="fill: #0000b9; fill-opacity: 0.7; stroke: #0000b9; stroke-opacity: 0.7"/>
    </g>
   </g>
   <g id="PolyCollection_4">
    <defs>
     <path id="m206fd32d99" d="M 435.506095 -249.185561 
L 364.613281 -249.185561 
L 364.613281 -250.017679 
L 364.613281 -250.849796 
L 364.613281 -251.681913 
L 364.613281 -252.51403 
L 364.613281 -253.346148 
L 364.613281 -254.178265 
L 364.613281 -255.010382 
L 364.613281 -255.842499 
L 364.613281 -256.674617 
L 364.613281 -257.506734 
L 364.613281 -258.338851 
L 364.613281 -259.170968 
L 364.613281 -260.003086 
L 488.330879 -260.003086 
L 488.330879 -260.003086 
L 487.818486 -259.170968 
L 482.628758 -258.338851 
L 480.273971 -257.506734 
L 477.39166 -256.674617 
L 477.29777 -255.842499 
L 476.033239 -255.010382 
L 472.852377 -254.178265 
L 465.325914 -253.346148 
L 452.034412 -252.51403 
L 450.128089 -251.681913 
L 449.958669 -250.849796 
L 449.720909 -250.017679 
L 435.506095 -249.185561 
z
" style="stroke: #0078dd; stroke-opacity: 0.7"/>
    </defs>
    <g clip-path="url(#pbce0c469c2)">
     <use xlink:href="#m206fd32d99" x="0" y="720" style="fill: #0078dd; fill-opacity: 0.7; stroke: #0078dd; stroke-opacity: 0.7"/>
    </g>
   </g>
   <g id="PolyCollection_5">
    <defs>
     <path id="md43f322d65" d="M 389.410301 -269.156375 
L 364.613281 -269.156375 
L 364.613281 -269.988492 
L 364.613281 -270.82061 
L 364.613281 -271.652727 
L 364.613281 -272.484844 
L 364.613281 -273.316961 
L 364.613281 -274.149079 
L 364.613281 -274.981196 
L 364.613281 -275.813313 
L 364.613281 -276.64543 
L 364.613281 -277.477548 
L 364.613281 -278.309665 
L 364.613281 -279.141782 
L 364.613281 -279.973899 
L 364.613281 -280.806017 
L 364.613281 -281.638134 
L 364.613281 -282.470251 
L 364.613281 -283.302368 
L 364.613281 -284.134486 
L 364.613281 -284.966603 
L 364.613281 -285.79872 
L 364.613281 -286.630837 
L 364.613281 -287.462955 
L 364.613281 -288.295072 
L 364.613281 -289.127189 
L 364.613281 -289.959306 
L 364.613281 -290.791424 
L 364.613281 -291.623541 
L 364.613281 -292.455658 
L 364.613281 -293.287775 
L 364.613281 -294.119893 
L 364.613281 -294.95201 
L 364.613281 -295.784127 
L 364.613281 -296.616244 
L 364.613281 -297.448362 
L 364.613281 -298.280479 
L 364.613281 -299.112596 
L 364.613281 -299.944713 
L 364.613281 -300.776831 
L 364.613281 -301.608948 
L 364.613281 -302.441065 
L 364.613281 -303.273182 
L 364.613281 -304.1053 
L 364.613281 -304.937417 
L 364.613281 -305.769534 
L 364.613281 -306.601651 
L 364.613281 -307.433768 
L 364.613281 -308.265886 
L 364.613281 -309.098003 
L 364.613281 -309.93012 
L 364.613281 -310.762237 
L 364.613281 -311.594355 
L 364.613281 -312.426472 
L 364.613281 -313.258589 
L 364.613281 -314.090706 
L 364.613281 -314.922824 
L 364.613281 -315.754941 
L 364.613281 -316.587058 
L 364.613281 -317.419175 
L 364.613281 -318.251293 
L 364.613281 -319.08341 
L 364.613281 -319.915527 
L 364.613281 -320.747644 
L 364.613281 -321.579762 
L 364.613281 -322.411879 
L 364.613281 -323.243996 
L 364.613281 -324.076113 
L 364.613281 -324.908231 
L 364.613281 -325.740348 
L 364.613281 -326.572465 
L 364.613281 -327.404582 
L 364.613281 -328.2367 
L 364.613281 -329.068817 
L 364.613281 -329.900934 
L 364.613281 -330.733051 
L 364.613281 -331.565169 
L 364.613281 -332.397286 
L 364.613281 -333.229403 
L 364.613281 -334.06152 
L 364.613281 -334.893638 
L 364.613281 -335.725755 
L 364.613281 -336.557872 
L 364.613281 -337.389989 
L 364.613281 -338.222107 
L 364.613281 -339.054224 
L 364.613281 -339.886341 
L 364.613281 -340.718458 
L 505.649714 -340.718458 
L 505.649714 -340.718458 
L 504.279695 -339.886341 
L 502.159722 -339.054224 
L 501.740276 -338.222107 
L 501.200041 -337.389989 
L 500.013643 -336.557872 
L 499.968111 -335.725755 
L 499.88265 -334.893638 
L 499.701863 -334.06152 
L 499.41907 -333.229403 
L 499.350355 -332.397286 
L 499.070877 -331.565169 
L 498.787699 -330.733051 
L 498.708494 -329.900934 
L 498.251564 -329.068817 
L 497.487996 -328.2367 
L 496.937236 -327.404582 
L 496.903653 -326.572465 
L 495.77942 -325.740348 
L 495.169881 -324.908231 
L 495.046554 -324.076113 
L 494.762225 -323.243996 
L 494.717798 -322.411879 
L 492.996898 -321.579762 
L 492.946843 -320.747644 
L 492.789183 -319.915527 
L 492.716772 -319.08341 
L 492.673997 -318.251293 
L 492.333848 -317.419175 
L 491.618225 -316.587058 
L 491.136346 -315.754941 
L 490.072831 -314.922824 
L 490.024808 -314.090706 
L 489.177002 -313.258589 
L 488.107891 -312.426472 
L 486.848261 -311.594355 
L 486.802817 -310.762237 
L 486.167915 -309.93012 
L 485.64403 -309.098003 
L 485.067863 -308.265886 
L 484.92731 -307.433768 
L 484.632998 -306.601651 
L 484.448537 -305.769534 
L 483.864945 -304.937417 
L 483.772372 -304.1053 
L 482.4766 -303.273182 
L 481.700783 -302.441065 
L 481.425512 -301.608948 
L 481.037374 -300.776831 
L 480.157217 -299.944713 
L 479.563441 -299.112596 
L 479.298657 -298.280479 
L 479.269151 -297.448362 
L 479.13317 -296.616244 
L 479.010636 -295.784127 
L 478.711632 -294.95201 
L 477.86837 -294.119893 
L 477.539358 -293.287775 
L 476.275953 -292.455658 
L 475.823546 -291.623541 
L 475.722336 -290.791424 
L 475.596028 -289.959306 
L 475.330896 -289.127189 
L 475.329323 -288.295072 
L 474.690637 -287.462955 
L 471.812935 -286.630837 
L 470.769568 -285.79872 
L 469.66024 -284.966603 
L 467.218295 -284.134486 
L 466.913138 -283.302368 
L 463.571181 -282.470251 
L 462.224998 -281.638134 
L 460.216159 -280.806017 
L 459.075886 -279.973899 
L 458.623681 -279.141782 
L 457.340706 -278.309665 
L 456.995218 -277.477548 
L 456.4738 -276.64543 
L 454.775559 -275.813313 
L 450.445441 -274.981196 
L 446.096384 -274.149079 
L 445.224852 -273.316961 
L 440.064902 -272.484844 
L 428.403595 -271.652727 
L 422.12481 -270.82061 
L 410.711591 -269.988492 
L 389.410301 -269.156375 
z
" style="stroke: #00a4bb; stroke-opacity: 0.7"/>
    </defs>
    <g clip-path="url(#pbce0c469c2)">
     <use xlink:href="#md43f322d65" x="0" y="720" style="fill: #00a4bb; fill-opacity: 0.7; stroke: #00a4bb; stroke-opacity: 0.7"/>
    </g>
   </g>
   <g id="PolyCollection_6">
    <defs>
     <path id="md7803889a7" d="M 399.123491 -349.871748 
L 364.613281 -349.871748 
L 364.613281 -350.703865 
L 364.613281 -351.535982 
L 364.613281 -352.3681 
L 364.613281 -353.200217 
L 364.613281 -354.032334 
L 364.613281 -354.864451 
L 364.613281 -355.696569 
L 364.613281 -356.528686 
L 364.613281 -357.360803 
L 364.613281 -358.19292 
L 364.613281 -359.025038 
L 364.613281 -359.857155 
L 364.613281 -360.689272 
L 364.613281 -361.521389 
L 364.613281 -362.353507 
L 364.613281 -363.185624 
L 364.613281 -364.017741 
L 364.613281 -364.849858 
L 364.613281 -365.681976 
L 364.613281 -366.514093 
L 364.613281 -367.34621 
L 364.613281 -368.178327 
L 364.613281 -369.010445 
L 364.613281 -369.842562 
L 364.613281 -370.674679 
L 364.613281 -371.506796 
L 364.613281 -372.338914 
L 364.613281 -373.171031 
L 364.613281 -374.003148 
L 364.613281 -374.835265 
L 364.613281 -375.667383 
L 364.613281 -376.4995 
L 364.613281 -377.331617 
L 364.613281 -378.163734 
L 364.613281 -378.995852 
L 364.613281 -379.827969 
L 364.613281 -380.660086 
L 364.613281 -381.492203 
L 364.613281 -382.324321 
L 364.613281 -383.156438 
L 364.613281 -383.988555 
L 364.613281 -384.820672 
L 364.613281 -385.65279 
L 364.613281 -386.484907 
L 364.613281 -387.317024 
L 364.613281 -388.149141 
L 364.613281 -388.981259 
L 364.613281 -389.813376 
L 364.613281 -390.645493 
L 364.613281 -391.47761 
L 364.613281 -392.309728 
L 364.613281 -393.141845 
L 364.613281 -393.973962 
L 364.613281 -394.806079 
L 364.613281 -395.638196 
L 364.613281 -396.470314 
L 364.613281 -397.302431 
L 364.613281 -398.134548 
L 364.613281 -398.966665 
L 364.613281 -399.798783 
L 364.613281 -400.6309 
L 364.613281 -401.463017 
L 364.613281 -402.295134 
L 364.613281 -403.127252 
L 364.613281 -403.959369 
L 364.613281 -404.791486 
L 364.613281 -405.623603 
L 364.613281 -406.455721 
L 364.613281 -407.287838 
L 364.613281 -408.119955 
L 364.613281 -408.952072 
L 364.613281 -409.78419 
L 364.613281 -410.616307 
L 364.613281 -411.448424 
L 364.613281 -412.280541 
L 524.765486 -412.280541 
L 524.765486 -412.280541 
L 524.639032 -411.448424 
L 524.617394 -410.616307 
L 524.579495 -409.78419 
L 523.807143 -408.952072 
L 523.716472 -408.119955 
L 523.497851 -407.287838 
L 523.33696 -406.455721 
L 523.097694 -405.623603 
L 516.213931 -404.791486 
L 516.021282 -403.959369 
L 515.982708 -403.127252 
L 515.91785 -402.295134 
L 515.911297 -401.463017 
L 515.256194 -400.6309 
L 509.243305 -399.798783 
L 509.171693 -398.966665 
L 508.909375 -398.134548 
L 507.674985 -397.302431 
L 506.211588 -396.470314 
L 506.170442 -395.638196 
L 505.510608 -394.806079 
L 505.327774 -393.973962 
L 505.297497 -393.141845 
L 504.874313 -392.309728 
L 504.395393 -391.47761 
L 504.150616 -390.645493 
L 502.685889 -389.813376 
L 501.914455 -388.981259 
L 500.694586 -388.149141 
L 499.616234 -387.317024 
L 497.529262 -386.484907 
L 494.608738 -385.65279 
L 494.574353 -384.820672 
L 493.373835 -383.988555 
L 491.981043 -383.156438 
L 486.425737 -382.324321 
L 486.370499 -381.492203 
L 485.348808 -380.660086 
L 483.958156 -379.827969 
L 483.707607 -378.995852 
L 482.50067 -378.163734 
L 482.091397 -377.331617 
L 481.169756 -376.4995 
L 480.360575 -375.667383 
L 477.228078 -374.835265 
L 477.220144 -374.003148 
L 469.625656 -373.171031 
L 469.55876 -372.338914 
L 468.341322 -371.506796 
L 468.096356 -370.674679 
L 465.365316 -369.842562 
L 463.528011 -369.010445 
L 463.437971 -368.178327 
L 462.235472 -367.34621 
L 462.167752 -366.514093 
L 452.240757 -365.681976 
L 451.684342 -364.849858 
L 451.155445 -364.017741 
L 449.334482 -363.185624 
L 448.776014 -362.353507 
L 447.699775 -361.521389 
L 447.112047 -360.689272 
L 445.547611 -359.857155 
L 444.594237 -359.025038 
L 443.53093 -358.19292 
L 441.091929 -357.360803 
L 440.560912 -356.528686 
L 439.958781 -355.696569 
L 437.486612 -354.864451 
L 434.342572 -354.032334 
L 416.172819 -353.200217 
L 415.358125 -352.3681 
L 412.384956 -351.535982 
L 404.790984 -350.703865 
L 399.123491 -349.871748 
z
" style="stroke: #00a55d; stroke-opacity: 0.7"/>
    </defs>
    <g clip-path="url(#pbce0c469c2)">
     <use xlink:href="#md7803889a7" x="0" y="720" style="fill: #00a55d; fill-opacity: 0.7; stroke: #00a55d; stroke-opacity: 0.7"/>
    </g>
   </g>
   <g id="PolyCollection_7">
    <defs>
     <path id="m885e00657f" d="M 364.039172 -421.433831 
L 364.613281 -421.433831 
L 364.613281 -422.265948 
L 364.613281 -423.098066 
L 364.613281 -423.930183 
L 364.613281 -424.7623 
L 364.613281 -425.594417 
L 364.613281 -426.426535 
L 364.613281 -427.258652 
L 364.613281 -428.090769 
L 364.613281 -428.922886 
L 364.613281 -429.755004 
L 364.613281 -430.587121 
L 364.613281 -431.419238 
L 364.613281 -432.251355 
L 364.613281 -433.083473 
L 364.613281 -433.91559 
L 364.613281 -434.747707 
L 364.613281 -435.579824 
L 364.613281 -436.411942 
L 364.613281 -437.244059 
L 470.19646 -437.244059 
L 470.19646 -437.244059 
L 465.313094 -436.411942 
L 459.117474 -435.579824 
L 457.792444 -434.747707 
L 455.496118 -433.91559 
L 453.538235 -433.083473 
L 451.645159 -432.251355 
L 450.999635 -431.419238 
L 450.611367 -430.587121 
L 440.831345 -429.755004 
L 439.922835 -428.922886 
L 436.523132 -428.090769 
L 435.092446 -427.258652 
L 434.651709 -426.426535 
L 433.064207 -425.594417 
L 431.27465 -424.7623 
L 429.855784 -423.930183 
L 429.707219 -423.098066 
L 428.552172 -422.265948 
L 364.039172 -421.433831 
z
" style="stroke: #00bc00; stroke-opacity: 0.7"/>
    </defs>
    <g clip-path="url(#pbce0c469c2)">
     <use xlink:href="#m885e00657f" x="0" y="720" style="fill: #00bc00; fill-opacity: 0.7; stroke: #00bc00; stroke-opacity: 0.7"/>
    </g>
   </g>
   <g id="PolyCollection_8">
    <defs>
     <path id="mb0dd2bd5cc" d="M 514.609218 -446.397348 
L 364.613281 -446.397348 
L 364.613281 -447.229466 
L 364.613281 -448.061583 
L 364.613281 -448.8937 
L 364.613281 -449.725817 
L 364.613281 -450.557935 
L 364.613281 -451.390052 
L 364.613281 -452.222169 
L 565.89602 -452.222169 
L 565.89602 -452.222169 
L 562.516605 -451.390052 
L 552.571817 -450.557935 
L 547.642555 -449.725817 
L 543.432985 -448.8937 
L 527.105323 -448.061583 
L 520.981703 -447.229466 
L 514.609218 -446.397348 
z
" style="stroke: #00f400; stroke-opacity: 0.7"/>
    </defs>
    <g clip-path="url(#pbce0c469c2)">
     <use xlink:href="#mb0dd2bd5cc" x="0" y="720" style="fill: #00f400; fill-opacity: 0.7; stroke: #00f400; stroke-opacity: 0.7"/>
    </g>
   </g>
   <g id="PolyCollection_9">
    <defs>
     <path id="mc1a0620130" d="M 448.20057 -461.375459 
L 364.613281 -461.375459 
L 364.613281 -462.207576 
L 364.613281 -463.039693 
L 364.613281 -463.871811 
L 364.613281 -464.703928 
L 364.613281 -465.536045 
L 364.613281 -466.368162 
L 364.613281 -467.20028 
L 364.613281 -468.032397 
L 364.613281 -468.864514 
L 364.613281 -469.696631 
L 364.613281 -470.528749 
L 364.613281 -471.360866 
L 364.613281 -472.192983 
L 364.613281 -473.0251 
L 364.613281 -473.857218 
L 364.613281 -474.689335 
L 364.613281 -475.521452 
L 364.613281 -476.353569 
L 364.613281 -477.185687 
L 364.613281 -478.017804 
L 364.613281 -478.849921 
L 364.613281 -479.682038 
L 364.613281 -480.514156 
L 364.613281 -481.346273 
L 364.613281 -482.17839 
L 364.613281 -483.010507 
L 364.613281 -483.842624 
L 364.613281 -484.674742 
L 364.613281 -485.506859 
L 364.613281 -486.338976 
L 364.613281 -487.171093 
L 364.613281 -488.003211 
L 364.613281 -488.835328 
L 364.613281 -489.667445 
L 364.613281 -490.499562 
L 364.613281 -491.33168 
L 364.613281 -492.163797 
L 364.613281 -492.995914 
L 364.613281 -493.828031 
L 364.613281 -494.660149 
L 364.613281 -495.492266 
L 364.613281 -496.324383 
L 364.613281 -497.1565 
L 364.613281 -497.988618 
L 364.613281 -498.820735 
L 364.613281 -499.652852 
L 364.613281 -500.484969 
L 364.613281 -501.317087 
L 364.613281 -502.149204 
L 364.613281 -502.981321 
L 364.613281 -503.813438 
L 364.613281 -504.645556 
L 364.613281 -505.477673 
L 364.613281 -506.30979 
L 364.613281 -507.141907 
L 364.613281 -507.974025 
L 364.613281 -508.806142 
L 364.613281 -509.638259 
L 364.613281 -510.470376 
L 364.613281 -511.302494 
L 364.613281 -512.134611 
L 364.613281 -512.966728 
L 364.613281 -513.798845 
L 364.613281 -514.630963 
L 364.613281 -515.46308 
L 364.613281 -516.295197 
L 364.613281 -517.127314 
L 364.613281 -517.959432 
L 364.613281 -518.791549 
L 364.613281 -519.623666 
L 364.613281 -520.455783 
L 364.613281 -521.287901 
L 364.613281 -522.120018 
L 364.613281 -522.952135 
L 364.613281 -523.784252 
L 364.613281 -524.61637 
L 364.613281 -525.448487 
L 364.613281 -526.280604 
L 364.613281 -527.112721 
L 364.613281 -527.944838 
L 364.613281 -528.776956 
L 364.613281 -529.609073 
L 364.613281 -530.44119 
L 364.613281 -531.273307 
L 364.613281 -532.105425 
L 364.613281 -532.937542 
L 364.613281 -533.769659 
L 364.613281 -534.601776 
L 364.613281 -535.433894 
L 364.613281 -536.266011 
L 364.613281 -537.098128 
L 364.613281 -537.930245 
L 364.613281 -538.762363 
L 364.613281 -539.59448 
L 364.613281 -540.426597 
L 364.613281 -541.258714 
L 364.613281 -542.090832 
L 364.613281 -542.922949 
L 364.613281 -543.755066 
L 364.613281 -544.587183 
L 364.613281 -545.419301 
L 364.613281 -546.251418 
L 364.613281 -547.083535 
L 364.613281 -547.915652 
L 364.613281 -548.74777 
L 364.613281 -549.579887 
L 364.613281 -550.412004 
L 364.613281 -551.244121 
L 364.613281 -552.076239 
L 364.613281 -552.908356 
L 364.613281 -553.740473 
L 364.613281 -554.57259 
L 364.613281 -555.404708 
L 364.613281 -556.236825 
L 364.613281 -557.068942 
L 364.613281 -557.901059 
L 364.613281 -558.733177 
L 364.613281 -559.565294 
L 364.613281 -560.397411 
L 364.613281 -561.229528 
L 364.613281 -562.061646 
L 364.613281 -562.893763 
L 364.613281 -563.72588 
L 364.613281 -564.557997 
L 364.613281 -565.390115 
L 364.613281 -566.222232 
L 364.613281 -567.054349 
L 364.613281 -567.886466 
L 364.613281 -568.718583 
L 364.613281 -569.550701 
L 364.613281 -570.382818 
L 364.613281 -571.214935 
L 364.613281 -572.047052 
L 364.613281 -572.87917 
L 364.613281 -573.711287 
L 364.613281 -574.543404 
L 364.613281 -575.375521 
L 364.613281 -576.207639 
L 364.613281 -577.039756 
L 364.613281 -577.871873 
L 364.613281 -578.70399 
L 364.613281 -579.536108 
L 364.613281 -580.368225 
L 364.613281 -581.200342 
L 364.613281 -582.032459 
L 364.613281 -582.864577 
L 364.613281 -583.696694 
L 364.613281 -584.528811 
L 364.613281 -585.360928 
L 364.613281 -586.193046 
L 364.613281 -587.025163 
L 364.613281 -587.85728 
L 364.613281 -588.689397 
L 364.613281 -589.521515 
L 364.613281 -590.353632 
L 364.613281 -591.185749 
L 364.613281 -592.017866 
L 364.613281 -592.849984 
L 364.613281 -593.682101 
L 364.613281 -594.514218 
L 364.613281 -595.346335 
L 364.613281 -596.178453 
L 364.613281 -597.01057 
L 364.613281 -597.842687 
L 364.613281 -598.674804 
L 364.613281 -599.506922 
L 364.613281 -600.339039 
L 364.613281 -601.171156 
L 364.613281 -602.003273 
L 364.613281 -602.835391 
L 364.613281 -603.667508 
L 364.613281 -604.499625 
L 364.613281 -605.331742 
L 364.613281 -606.16386 
L 364.613281 -606.995977 
L 364.613281 -607.828094 
L 364.613281 -608.660211 
L 364.613281 -609.492329 
L 364.613281 -610.324446 
L 364.613281 -611.156563 
L 364.613281 -611.98868 
L 364.613281 -612.820797 
L 364.613281 -613.652915 
L 364.613281 -614.485032 
L 364.613281 -615.317149 
L 364.613281 -616.149266 
L 364.613281 -616.981384 
L 364.613281 -617.813501 
L 364.613281 -618.645618 
L 364.613281 -619.477735 
L 364.613281 -620.309853 
L 364.613281 -621.14197 
L 364.613281 -621.974087 
L 364.613281 -622.806204 
L 364.613281 -623.638322 
L 364.613281 -624.470439 
L 364.613281 -625.302556 
L 364.613281 -626.134673 
L 364.613281 -626.966791 
L 364.613281 -627.798908 
L 536.220441 -627.798908 
L 536.220441 -627.798908 
L 535.776248 -626.966791 
L 534.676726 -626.134673 
L 533.389426 -625.302556 
L 533.302708 -624.470439 
L 532.4022 -623.638322 
L 532.107169 -622.806204 
L 531.419505 -621.974087 
L 531.382011 -621.14197 
L 530.835995 -620.309853 
L 530.091688 -619.477735 
L 530.005581 -618.645618 
L 529.13704 -617.813501 
L 529.128293 -616.981384 
L 528.23158 -616.149266 
L 527.759212 -615.317149 
L 527.546385 -614.485032 
L 527.191306 -613.652915 
L 527.172606 -612.820797 
L 526.680509 -611.98868 
L 526.273542 -611.156563 
L 525.658837 -610.324446 
L 525.329131 -609.492329 
L 525.172976 -608.660211 
L 524.939844 -607.828094 
L 524.938033 -606.995977 
L 524.86816 -606.16386 
L 524.857674 -605.331742 
L 524.522949 -604.499625 
L 524.159148 -603.667508 
L 523.285146 -602.835391 
L 523.198428 -602.003273 
L 523.165675 -601.171156 
L 522.930616 -600.339039 
L 522.745674 -599.506922 
L 522.625015 -598.674804 
L 522.361913 -597.842687 
L 522.132598 -597.01057 
L 521.706299 -596.178453 
L 521.678949 -595.346335 
L 521.677556 -594.514218 
L 521.575341 -593.682101 
L 521.427936 -592.849984 
L 520.929842 -592.017866 
L 520.764187 -591.185749 
L 520.751181 -590.353632 
L 520.025659 -589.521515 
L 519.918056 -588.689397 
L 519.726957 -587.85728 
L 519.596059 -587.025163 
L 519.071026 -586.193046 
L 518.742724 -585.360928 
L 518.664054 -584.528811 
L 518.586481 -583.696694 
L 518.536924 -582.864577 
L 518.39848 -582.032459 
L 518.326129 -581.200342 
L 518.214047 -580.368225 
L 518.075867 -579.536108 
L 518.050034 -578.70399 
L 517.872615 -577.871873 
L 517.842372 -577.039756 
L 516.75367 -576.207639 
L 516.600253 -575.375521 
L 516.496356 -574.543404 
L 516.434528 -573.711287 
L 516.391207 -572.87917 
L 516.220358 -572.047052 
L 516.035275 -571.214935 
L 515.959199 -570.382818 
L 515.614738 -569.550701 
L 515.474583 -568.718583 
L 515.385257 -567.886466 
L 515.238182 -567.054349 
L 515.193519 -566.222232 
L 514.7991 -565.390115 
L 514.356524 -564.557997 
L 514.327709 -563.72588 
L 514.015655 -562.893763 
L 513.495019 -562.061646 
L 513.475449 -561.229528 
L 512.498387 -560.397411 
L 512.432166 -559.565294 
L 512.288494 -558.733177 
L 511.942837 -557.901059 
L 511.901069 -557.068942 
L 511.878473 -556.236825 
L 511.71886 -555.404708 
L 511.572442 -554.57259 
L 511.477302 -553.740473 
L 511.343496 -552.908356 
L 510.918954 -552.076239 
L 510.890215 -551.244121 
L 510.731209 -550.412004 
L 510.694177 -549.579887 
L 510.520688 -548.74777 
L 510.385507 -547.915652 
L 510.219172 -547.083535 
L 510.177354 -546.251418 
L 509.823719 -545.419301 
L 509.67041 -544.587183 
L 509.584602 -543.755066 
L 509.37527 -542.922949 
L 509.30408 -542.090832 
L 509.263854 -541.258714 
L 509.21874 -540.426597 
L 507.834867 -539.59448 
L 507.73561 -538.762363 
L 507.611943 -537.930245 
L 507.255729 -537.098128 
L 506.985503 -536.266011 
L 506.857618 -535.433894 
L 506.828848 -534.601776 
L 506.564401 -533.769659 
L 506.405546 -532.937542 
L 506.183575 -532.105425 
L 506.049426 -531.273307 
L 505.385334 -530.44119 
L 505.371186 -529.609073 
L 505.352402 -528.776956 
L 505.334951 -527.944838 
L 505.237957 -527.112721 
L 504.976065 -526.280604 
L 504.702536 -525.448487 
L 504.215255 -524.61637 
L 504.194249 -523.784252 
L 504.161189 -522.952135 
L 503.935716 -522.120018 
L 503.50663 -521.287901 
L 502.356431 -520.455783 
L 501.722874 -519.623666 
L 501.403329 -518.791549 
L 501.368707 -517.959432 
L 500.933526 -517.127314 
L 500.829222 -516.295197 
L 500.640994 -515.46308 
L 500.458267 -514.630963 
L 500.330556 -513.798845 
L 499.682318 -512.966728 
L 498.860136 -512.134611 
L 498.704013 -511.302494 
L 498.452872 -510.470376 
L 498.190547 -509.638259 
L 497.939941 -508.806142 
L 497.673102 -507.974025 
L 497.456887 -507.141907 
L 496.943518 -506.30979 
L 496.550711 -505.477673 
L 496.474368 -504.645556 
L 496.381585 -503.813438 
L 496.206224 -502.981321 
L 496.180239 -502.149204 
L 495.73836 -501.317087 
L 495.534932 -500.484969 
L 495.371172 -499.652852 
L 494.430274 -498.820735 
L 494.389483 -497.988618 
L 493.799374 -497.1565 
L 493.130278 -496.324383 
L 492.889507 -495.492266 
L 492.798386 -494.660149 
L 492.598823 -493.828031 
L 491.378267 -492.995914 
L 491.054543 -492.163797 
L 490.700638 -491.33168 
L 489.977287 -490.499562 
L 489.91936 -489.667445 
L 489.751721 -488.835328 
L 488.786395 -488.003211 
L 488.710172 -487.171093 
L 488.536535 -486.338976 
L 488.486995 -485.506859 
L 488.202976 -484.674742 
L 487.142416 -483.842624 
L 487.120904 -483.010507 
L 486.360925 -482.17839 
L 486.202728 -481.346273 
L 486.097685 -480.514156 
L 485.999665 -479.682038 
L 485.923256 -478.849921 
L 485.901932 -478.017804 
L 484.577685 -477.185687 
L 483.950985 -476.353569 
L 479.937253 -475.521452 
L 479.723592 -474.689335 
L 478.063063 -473.857218 
L 477.939841 -473.0251 
L 477.851055 -472.192983 
L 477.501563 -471.360866 
L 476.811217 -470.528749 
L 476.148125 -469.696631 
L 475.513227 -468.864514 
L 472.423403 -468.032397 
L 471.889225 -467.20028 
L 469.249703 -466.368162 
L 467.780911 -465.536045 
L 465.483681 -464.703928 
L 458.830235 -463.871811 
L 457.360326 -463.039693 
L 455.376639 -462.207576 
L 448.20057 -461.375459 
z
" style="stroke: #ccf900; stroke-opacity: 0.7"/>
    </defs>
    <g clip-path="url(#pbce0c469c2)">
     <use xlink:href="#mc1a0620130" x="0" y="720" style="fill: #ccf900; fill-opacity: 0.7; stroke: #ccf900; stroke-opacity: 0.7"/>
    </g>
   </g>
   <g id="PolyCollection_10">
    <defs>
     <path id="mc3e2374cb9" d="M 469.349132 -636.952198 
L 364.613281 -636.952198 
L 364.613281 -637.784315 
L 364.613281 -638.616432 
L 364.613281 -639.448549 
L 364.613281 -640.280667 
L 364.613281 -641.112784 
L 364.613281 -641.944901 
L 364.613281 -642.777018 
L 364.613281 -643.609136 
L 364.613281 -644.441253 
L 364.613281 -645.27337 
L 364.613281 -646.105487 
L 364.613281 -646.937605 
L 364.613281 -647.769722 
L 364.613281 -648.601839 
L 364.613281 -649.433956 
L 364.613281 -650.266074 
L 364.613281 -651.098191 
L 364.613281 -651.930308 
L 364.613281 -652.762425 
L 364.613281 -653.594543 
L 364.613281 -654.42666 
L 364.613281 -655.258777 
L 364.613281 -656.090894 
L 364.613281 -656.923011 
L 364.613281 -657.755129 
L 364.613281 -658.587246 
L 364.613281 -659.419363 
L 364.613281 -660.25148 
L 364.613281 -661.083598 
L 364.613281 -661.915715 
L 364.613281 -662.747832 
L 364.613281 -663.579949 
L 364.613281 -664.412067 
L 364.613281 -665.244184 
L 364.613281 -666.076301 
L 364.613281 -666.908418 
L 364.613281 -667.740536 
L 364.613281 -668.572653 
L 364.613281 -669.40477 
L 364.613281 -670.236887 
L 364.613281 -671.069005 
L 364.613281 -671.901122 
L 364.613281 -672.733239 
L 589.483673 -672.733239 
L 589.483673 -672.733239 
L 589.310717 -671.901122 
L 588.958798 -671.069005 
L 588.928315 -670.236887 
L 588.887823 -669.40477 
L 588.680706 -668.572653 
L 588.546323 -667.740536 
L 588.139858 -666.908418 
L 588.042187 -666.076301 
L 587.705332 -665.244184 
L 587.566667 -664.412067 
L 586.787627 -663.579949 
L 574.646573 -662.747832 
L 574.409215 -661.915715 
L 574.359101 -661.083598 
L 574.16193 -660.25148 
L 574.128524 -659.419363 
L 574.018742 -658.587246 
L 573.755138 -657.755129 
L 573.639415 -656.923011 
L 552.562625 -656.090894 
L 552.483628 -655.258777 
L 552.253512 -654.42666 
L 551.85002 -653.594543 
L 551.188095 -652.762425 
L 542.472664 -651.930308 
L 541.84311 -651.098191 
L 541.48394 -650.266074 
L 541.164033 -649.433956 
L 540.041183 -648.601839 
L 537.360259 -647.769722 
L 536.504678 -646.937605 
L 536.323449 -646.105487 
L 535.847805 -645.27337 
L 527.062517 -644.441253 
L 524.491549 -643.609136 
L 508.557286 -642.777018 
L 504.527975 -641.944901 
L 504.431438 -641.112784 
L 490.659263 -640.280667 
L 489.829424 -639.448549 
L 481.837874 -638.616432 
L 477.094144 -637.784315 
L 469.349132 -636.952198 
z
" style="stroke: #ffc900; stroke-opacity: 0.7"/>
    </defs>
    <g clip-path="url(#pbce0c469c2)">
     <use xlink:href="#mc3e2374cb9" x="0" y="720" style="fill: #ffc900; fill-opacity: 0.7; stroke: #ffc900; stroke-opacity: 0.7"/>
    </g>
   </g>
   <g id="PolyCollection_11">
    <defs>
     <path id="ma7d971e8c3" d="M 543.854958 -681.886529 
L 364.613281 -681.886529 
L 364.613281 -682.718646 
L 364.613281 -683.550763 
L 364.613281 -684.382881 
L 364.613281 -685.214998 
L 364.613281 -686.047115 
L 364.613281 -686.879232 
L 364.613281 -687.71135 
L 364.613281 -688.543467 
L 588.058323 -688.543467 
L 588.058323 -688.543467 
L 587.420915 -687.71135 
L 577.342184 -686.879232 
L 564.129529 -686.047115 
L 561.797013 -685.214998 
L 560.411539 -684.382881 
L 549.067374 -683.550763 
L 544.987837 -682.718646 
L 543.854958 -681.886529 
z
" style="stroke: #ff2d00; stroke-opacity: 0.7"/>
    </defs>
    <g clip-path="url(#pbce0c469c2)">
     <use xlink:href="#ma7d971e8c3" x="0" y="720" style="fill: #ff2d00; fill-opacity: 0.7; stroke: #ff2d00; stroke-opacity: 0.7"/>
    </g>
   </g>
   <g id="PolyCollection_12">
    <defs>
     <path id="md3f88127ad" d="M 582.199257 -697.696757 
L 364.613281 -697.696757 
L 364.613281 -698.528874 
L 364.613281 -699.360991 
L 637.349292 -699.360991 
L 637.349292 -699.360991 
L 636.959411 -698.528874 
L 582.199257 -697.696757 
z
" style="stroke: #d70000; stroke-opacity: 0.7"/>
    </defs>
    <g clip-path="url(#pbce0c469c2)">
     <use xlink:href="#md3f88127ad" x="0" y="720" style="fill: #d70000; fill-opacity: 0.7; stroke: #d70000; stroke-opacity: 0.7"/>
    </g>
   </g>
   <g id="matplotlib.axis_1">
    <g id="xtick_1">
     <g id="line2d_1">
      <defs>
       <path id="m557daf3d4a" d="M 0 0 
L 0 3.5 
" style="stroke: #000000; stroke-width: 0.8"/>
      </defs>
      <g>
       <use xlink:href="#m557daf3d4a" x="27.978125" y="678.84375" style="stroke: #000000; stroke-width: 0.8"/>
      </g>
     </g>
     <g id="text_1">
      <!-- −1.0 -->
      <g transform="translate(15.836719 693.442188) scale(0.1 -0.1)">
       <defs>
        <path id="DejaVuSans-2212" d="M 678 2272 
L 4684 2272 
L 4684 1741 
L 678 1741 
L 678 2272 
z
" transform="scale(0.015625)"/>
        <path id="DejaVuSans-31" d="M 794 531 
L 1825 531 
L 1825 4091 
L 703 3866 
L 703 4441 
L 1819 4666 
L 2450 4666 
L 2450 531 
L 3481 531 
L 3481 0 
L 794 0 
L 794 531 
z
" transform="scale(0.015625)"/>
        <path id="DejaVuSans-2e" d="M 684 794 
L 1344 794 
L 1344 0 
L 684 0 
L 684 794 
z
" transform="scale(0.015625)"/>
        <path id="DejaVuSans-30" d="M 2034 4250 
Q 1547 4250 1301 3770 
Q 1056 3291 1056 2328 
Q 1056 1369 1301 889 
Q 1547 409 2034 409 
Q 2525 409 2770 889 
Q 3016 1369 3016 2328 
Q 3016 3291 2770 3770 
Q 2525 4250 2034 4250 
z
M 2034 4750 
Q 2819 4750 3233 4129 
Q 3647 3509 3647 2328 
Q 3647 1150 3233 529 
Q 2819 -91 2034 -91 
Q 1250 -91 836 529 
Q 422 1150 422 2328 
Q 422 3509 836 4129 
Q 1250 4750 2034 4750 
z
" transform="scale(0.015625)"/>
       </defs>
       <use xlink:href="#DejaVuSans-2212"/>
       <use xlink:href="#DejaVuSans-31" x="83.789062"/>
       <use xlink:href="#DejaVuSans-2e" x="147.412109"/>
       <use xlink:href="#DejaVuSans-30" x="179.199219"/>
      </g>
     </g>
    </g>
    <g id="xtick_2">
     <g id="line2d_2">
      <g>
       <use xlink:href="#m557daf3d4a" x="95.305156" y="678.84375" style="stroke: #000000; stroke-width: 0.8"/>
      </g>
     </g>
     <g id="text_2">
      <!-- −0.8 -->
      <g transform="translate(83.16375 693.442188) scale(0.1 -0.1)">
       <defs>
        <path id="DejaVuSans-38" d="M 2034 2216 
Q 1584 2216 1326 1975 
Q 1069 1734 1069 1313 
Q 1069 891 1326 650 
Q 1584 409 2034 409 
Q 2484 409 2743 651 
Q 3003 894 3003 1313 
Q 3003 1734 2745 1975 
Q 2488 2216 2034 2216 
z
M 1403 2484 
Q 997 2584 770 2862 
Q 544 3141 544 3541 
Q 544 4100 942 4425 
Q 1341 4750 2034 4750 
Q 2731 4750 3128 4425 
Q 3525 4100 3525 3541 
Q 3525 3141 3298 2862 
Q 3072 2584 2669 2484 
Q 3125 2378 3379 2068 
Q 3634 1759 3634 1313 
Q 3634 634 3220 271 
Q 2806 -91 2034 -91 
Q 1263 -91 848 271 
Q 434 634 434 1313 
Q 434 1759 690 2068 
Q 947 2378 1403 2484 
z
M 1172 3481 
Q 1172 3119 1398 2916 
Q 1625 2713 2034 2713 
Q 2441 2713 2670 2916 
Q 2900 3119 2900 3481 
Q 2900 3844 2670 4047 
Q 2441 4250 2034 4250 
Q 1625 4250 1398 4047 
Q 1172 3844 1172 3481 
z
" transform="scale(0.015625)"/>
       </defs>
       <use xlink:href="#DejaVuSans-2212"/>
       <use xlink:href="#DejaVuSans-30" x="83.789062"/>
       <use xlink:href="#DejaVuSans-2e" x="147.412109"/>
       <use xlink:href="#DejaVuSans-38" x="179.199219"/>
      </g>
     </g>
    </g>
    <g id="xtick_3">
     <g id="line2d_3">
      <g>
       <use xlink:href="#m557daf3d4a" x="162.632188" y="678.84375" style="stroke: #000000; stroke-width: 0.8"/>
      </g>
     </g>
     <g id="text_3">
      <!-- −0.6 -->
      <g transform="translate(150.490781 693.442188) scale(0.1 -0.1)">
       <defs>
        <path id="DejaVuSans-36" d="M 2113 2584 
Q 1688 2584 1439 2293 
Q 1191 2003 1191 1497 
Q 1191 994 1439 701 
Q 1688 409 2113 409 
Q 2538 409 2786 701 
Q 3034 994 3034 1497 
Q 3034 2003 2786 2293 
Q 2538 2584 2113 2584 
z
M 3366 4563 
L 3366 3988 
Q 3128 4100 2886 4159 
Q 2644 4219 2406 4219 
Q 1781 4219 1451 3797 
Q 1122 3375 1075 2522 
Q 1259 2794 1537 2939 
Q 1816 3084 2150 3084 
Q 2853 3084 3261 2657 
Q 3669 2231 3669 1497 
Q 3669 778 3244 343 
Q 2819 -91 2113 -91 
Q 1303 -91 875 529 
Q 447 1150 447 2328 
Q 447 3434 972 4092 
Q 1497 4750 2381 4750 
Q 2619 4750 2861 4703 
Q 3103 4656 3366 4563 
z
" transform="scale(0.015625)"/>
       </defs>
       <use xlink:href="#DejaVuSans-2212"/>
       <use xlink:href="#DejaVuSans-30" x="83.789062"/>
       <use xlink:href="#DejaVuSans-2e" x="147.412109"/>
       <use xlink:href="#DejaVuSans-36" x="179.199219"/>
      </g>
     </g>
    </g>
    <g id="xtick_4">
     <g id="line2d_4">
      <g>
       <use xlink:href="#m557daf3d4a" x="229.959219" y="678.84375" style="stroke: #000000; stroke-width: 0.8"/>
      </g>
     </g>
     <g id="text_4">
      <!-- −0.4 -->
      <g transform="translate(217.817813 693.442188) scale(0.1 -0.1)">
       <defs>
        <path id="DejaVuSans-34" d="M 2419 4116 
L 825 1625 
L 2419 1625 
L 2419 4116 
z
M 2253 4666 
L 3047 4666 
L 3047 1625 
L 3713 1625 
L 3713 1100 
L 3047 1100 
L 3047 0 
L 2419 0 
L 2419 1100 
L 313 1100 
L 313 1709 
L 2253 4666 
z
" transform="scale(0.015625)"/>
       </defs>
       <use xlink:href="#DejaVuSans-2212"/>
       <use xlink:href="#DejaVuSans-30" x="83.789062"/>
       <use xlink:href="#DejaVuSans-2e" x="147.412109"/>
       <use xlink:href="#DejaVuSans-34" x="179.199219"/>
      </g>
     </g>
    </g>
    <g id="xtick_5">
     <g id="line2d_5">
      <g>
       <use xlink:href="#m557daf3d4a" x="297.28625" y="678.84375" style="stroke: #000000; stroke-width: 0.8"/>
      </g>
     </g>
     <g id="text_5">
      <!-- −0.2 -->
      <g transform="translate(285.144844 693.442188) scale(0.1 -0.1)">
       <defs>
        <path id="DejaVuSans-32" d="M 1228 531 
L 3431 531 
L 3431 0 
L 469 0 
L 469 531 
Q 828 903 1448 1529 
Q 2069 2156 2228 2338 
Q 2531 2678 2651 2914 
Q 2772 3150 2772 3378 
Q 2772 3750 2511 3984 
Q 2250 4219 1831 4219 
Q 1534 4219 1204 4116 
Q 875 4013 500 3803 
L 500 4441 
Q 881 4594 1212 4672 
Q 1544 4750 1819 4750 
Q 2544 4750 2975 4387 
Q 3406 4025 3406 3419 
Q 3406 3131 3298 2873 
Q 3191 2616 2906 2266 
Q 2828 2175 2409 1742 
Q 1991 1309 1228 531 
z
" transform="scale(0.015625)"/>
       </defs>
       <use xlink:href="#DejaVuSans-2212"/>
       <use xlink:href="#DejaVuSans-30" x="83.789062"/>
       <use xlink:href="#DejaVuSans-2e" x="147.412109"/>
       <use xlink:href="#DejaVuSans-32" x="179.199219"/>
      </g>
     </g>
    </g>
    <g id="xtick_6">
     <g id="line2d_6">
      <g>
       <use xlink:href="#m557daf3d4a" x="364.613281" y="678.84375" style="stroke: #000000; stroke-width: 0.8"/>
      </g>
     </g>
     <g id="text_6">
      <!-- 0.0 -->
      <g transform="translate(356.661719 693.442188) scale(0.1 -0.1)">
       <use xlink:href="#DejaVuSans-30"/>
       <use xlink:href="#DejaVuSans-2e" x="63.623047"/>
       <use xlink:href="#DejaVuSans-30" x="95.410156"/>
      </g>
     </g>
    </g>
    <g id="xtick_7">
     <g id="line2d_7">
      <g>
       <use xlink:href="#m557daf3d4a" x="431.940313" y="678.84375" style="stroke: #000000; stroke-width: 0.8"/>
      </g>
     </g>
     <g id="text_7">
      <!-- 0.2 -->
      <g transform="translate(423.98875 693.442188) scale(0.1 -0.1)">
       <use xlink:href="#DejaVuSans-30"/>
       <use xlink:href="#DejaVuSans-2e" x="63.623047"/>
       <use xlink:href="#DejaVuSans-32" x="95.410156"/>
      </g>
     </g>
    </g>
    <g id="xtick_8">
     <g id="line2d_8">
      <g>
       <use xlink:href="#m557daf3d4a" x="499.267344" y="678.84375" style="stroke: #000000; stroke-width: 0.8"/>
      </g>
     </g>
     <g id="text_8">
      <!-- 0.4 -->
      <g transform="translate(491.315781 693.442188) scale(0.1 -0.1)">
       <use xlink:href="#DejaVuSans-30"/>
       <use xlink:href="#DejaVuSans-2e" x="63.623047"/>
       <use xlink:href="#DejaVuSans-34" x="95.410156"/>
      </g>
     </g>
    </g>
    <g id="xtick_9">
     <g id="line2d_9">
      <g>
       <use xlink:href="#m557daf3d4a" x="566.594375" y="678.84375" style="stroke: #000000; stroke-width: 0.8"/>
      </g>
     </g>
     <g id="text_9">
      <!-- 0.6 -->
      <g transform="translate(558.642812 693.442188) scale(0.1 -0.1)">
       <use xlink:href="#DejaVuSans-30"/>
       <use xlink:href="#DejaVuSans-2e" x="63.623047"/>
       <use xlink:href="#DejaVuSans-36" x="95.410156"/>
      </g>
     </g>
    </g>
    <g id="xtick_10">
     <g id="line2d_10">
      <g>
       <use xlink:href="#m557daf3d4a" x="633.921406" y="678.84375" style="stroke: #000000; stroke-width: 0.8"/>
      </g>
     </g>
     <g id="text_10">
      <!-- 0.8 -->
      <g transform="translate(625.969844 693.442188) scale(0.1 -0.1)">
       <use xlink:href="#DejaVuSans-30"/>
       <use xlink:href="#DejaVuSans-2e" x="63.623047"/>
       <use xlink:href="#DejaVuSans-38" x="95.410156"/>
      </g>
     </g>
    </g>
    <g id="xtick_11">
     <g id="line2d_11">
      <g>
       <use xlink:href="#m557daf3d4a" x="701.248437" y="678.84375" style="stroke: #000000; stroke-width: 0.8"/>
      </g>
     </g>
     <g id="text_11">
      <!-- 1.0 -->
      <g transform="translate(693.296875 693.442188) scale(0.1 -0.1)">
       <use xlink:href="#DejaVuSans-31"/>
       <use xlink:href="#DejaVuSans-2e" x="63.623047"/>
       <use xlink:href="#DejaVuSans-30" x="95.410156"/>
      </g>
     </g>
    </g>
    <g id="text_12">
     <!-- Silhouette coefficient -->
     <g transform="translate(311.463281 707.120313) scale(0.1 -0.1)">
      <defs>
       <path id="DejaVuSans-53" d="M 3425 4513 
L 3425 3897 
Q 3066 4069 2747 4153 
Q 2428 4238 2131 4238 
Q 1616 4238 1336 4038 
Q 1056 3838 1056 3469 
Q 1056 3159 1242 3001 
Q 1428 2844 1947 2747 
L 2328 2669 
Q 3034 2534 3370 2195 
Q 3706 1856 3706 1288 
Q 3706 609 3251 259 
Q 2797 -91 1919 -91 
Q 1588 -91 1214 -16 
Q 841 59 441 206 
L 441 856 
Q 825 641 1194 531 
Q 1563 422 1919 422 
Q 2459 422 2753 634 
Q 3047 847 3047 1241 
Q 3047 1584 2836 1778 
Q 2625 1972 2144 2069 
L 1759 2144 
Q 1053 2284 737 2584 
Q 422 2884 422 3419 
Q 422 4038 858 4394 
Q 1294 4750 2059 4750 
Q 2388 4750 2728 4690 
Q 3069 4631 3425 4513 
z
" transform="scale(0.015625)"/>
       <path id="DejaVuSans-69" d="M 603 3500 
L 1178 3500 
L 1178 0 
L 603 0 
L 603 3500 
z
M 603 4863 
L 1178 4863 
L 1178 4134 
L 603 4134 
L 603 4863 
z
" transform="scale(0.015625)"/>
       <path id="DejaVuSans-6c" d="M 603 4863 
L 1178 4863 
L 1178 0 
L 603 0 
L 603 4863 
z
" transform="scale(0.015625)"/>
       <path id="DejaVuSans-68" d="M 3513 2113 
L 3513 0 
L 2938 0 
L 2938 2094 
Q 2938 2591 2744 2837 
Q 2550 3084 2163 3084 
Q 1697 3084 1428 2787 
Q 1159 2491 1159 1978 
L 1159 0 
L 581 0 
L 581 4863 
L 1159 4863 
L 1159 2956 
Q 1366 3272 1645 3428 
Q 1925 3584 2291 3584 
Q 2894 3584 3203 3211 
Q 3513 2838 3513 2113 
z
" transform="scale(0.015625)"/>
       <path id="DejaVuSans-6f" d="M 1959 3097 
Q 1497 3097 1228 2736 
Q 959 2375 959 1747 
Q 959 1119 1226 758 
Q 1494 397 1959 397 
Q 2419 397 2687 759 
Q 2956 1122 2956 1747 
Q 2956 2369 2687 2733 
Q 2419 3097 1959 3097 
z
M 1959 3584 
Q 2709 3584 3137 3096 
Q 3566 2609 3566 1747 
Q 3566 888 3137 398 
Q 2709 -91 1959 -91 
Q 1206 -91 779 398 
Q 353 888 353 1747 
Q 353 2609 779 3096 
Q 1206 3584 1959 3584 
z
" transform="scale(0.015625)"/>
       <path id="DejaVuSans-75" d="M 544 1381 
L 544 3500 
L 1119 3500 
L 1119 1403 
Q 1119 906 1312 657 
Q 1506 409 1894 409 
Q 2359 409 2629 706 
Q 2900 1003 2900 1516 
L 2900 3500 
L 3475 3500 
L 3475 0 
L 2900 0 
L 2900 538 
Q 2691 219 2414 64 
Q 2138 -91 1772 -91 
Q 1169 -91 856 284 
Q 544 659 544 1381 
z
M 1991 3584 
L 1991 3584 
z
" transform="scale(0.015625)"/>
       <path id="DejaVuSans-65" d="M 3597 1894 
L 3597 1613 
L 953 1613 
Q 991 1019 1311 708 
Q 1631 397 2203 397 
Q 2534 397 2845 478 
Q 3156 559 3463 722 
L 3463 178 
Q 3153 47 2828 -22 
Q 2503 -91 2169 -91 
Q 1331 -91 842 396 
Q 353 884 353 1716 
Q 353 2575 817 3079 
Q 1281 3584 2069 3584 
Q 2775 3584 3186 3129 
Q 3597 2675 3597 1894 
z
M 3022 2063 
Q 3016 2534 2758 2815 
Q 2500 3097 2075 3097 
Q 1594 3097 1305 2825 
Q 1016 2553 972 2059 
L 3022 2063 
z
" transform="scale(0.015625)"/>
       <path id="DejaVuSans-74" d="M 1172 4494 
L 1172 3500 
L 2356 3500 
L 2356 3053 
L 1172 3053 
L 1172 1153 
Q 1172 725 1289 603 
Q 1406 481 1766 481 
L 2356 481 
L 2356 0 
L 1766 0 
Q 1100 0 847 248 
Q 594 497 594 1153 
L 594 3053 
L 172 3053 
L 172 3500 
L 594 3500 
L 594 4494 
L 1172 4494 
z
" transform="scale(0.015625)"/>
       <path id="DejaVuSans-20" transform="scale(0.015625)"/>
       <path id="DejaVuSans-63" d="M 3122 3366 
L 3122 2828 
Q 2878 2963 2633 3030 
Q 2388 3097 2138 3097 
Q 1578 3097 1268 2742 
Q 959 2388 959 1747 
Q 959 1106 1268 751 
Q 1578 397 2138 397 
Q 2388 397 2633 464 
Q 2878 531 3122 666 
L 3122 134 
Q 2881 22 2623 -34 
Q 2366 -91 2075 -91 
Q 1284 -91 818 406 
Q 353 903 353 1747 
Q 353 2603 823 3093 
Q 1294 3584 2113 3584 
Q 2378 3584 2631 3529 
Q 2884 3475 3122 3366 
z
" transform="scale(0.015625)"/>
       <path id="DejaVuSans-66" d="M 2375 4863 
L 2375 4384 
L 1825 4384 
Q 1516 4384 1395 4259 
Q 1275 4134 1275 3809 
L 1275 3500 
L 2222 3500 
L 2222 3053 
L 1275 3053 
L 1275 0 
L 697 0 
L 697 3053 
L 147 3053 
L 147 3500 
L 697 3500 
L 697 3744 
Q 697 4328 969 4595 
Q 1241 4863 1831 4863 
L 2375 4863 
z
" transform="scale(0.015625)"/>
       <path id="DejaVuSans-6e" d="M 3513 2113 
L 3513 0 
L 2938 0 
L 2938 2094 
Q 2938 2591 2744 2837 
Q 2550 3084 2163 3084 
Q 1697 3084 1428 2787 
Q 1159 2491 1159 1978 
L 1159 0 
L 581 0 
L 581 3500 
L 1159 3500 
L 1159 2956 
Q 1366 3272 1645 3428 
Q 1925 3584 2291 3584 
Q 2894 3584 3203 3211 
Q 3513 2838 3513 2113 
z
" transform="scale(0.015625)"/>
      </defs>
      <use xlink:href="#DejaVuSans-53"/>
      <use xlink:href="#DejaVuSans-69" x="63.476562"/>
      <use xlink:href="#DejaVuSans-6c" x="91.259766"/>
      <use xlink:href="#DejaVuSans-68" x="119.042969"/>
      <use xlink:href="#DejaVuSans-6f" x="182.421875"/>
      <use xlink:href="#DejaVuSans-75" x="243.603516"/>
      <use xlink:href="#DejaVuSans-65" x="306.982422"/>
      <use xlink:href="#DejaVuSans-74" x="368.505859"/>
      <use xlink:href="#DejaVuSans-74" x="407.714844"/>
      <use xlink:href="#DejaVuSans-65" x="446.923828"/>
      <use xlink:href="#DejaVuSans-20" x="508.447266"/>
      <use xlink:href="#DejaVuSans-63" x="540.234375"/>
      <use xlink:href="#DejaVuSans-6f" x="595.214844"/>
      <use xlink:href="#DejaVuSans-65" x="656.396484"/>
      <use xlink:href="#DejaVuSans-66" x="717.919922"/>
      <use xlink:href="#DejaVuSans-66" x="753.125"/>
      <use xlink:href="#DejaVuSans-69" x="788.330078"/>
      <use xlink:href="#DejaVuSans-63" x="816.113281"/>
      <use xlink:href="#DejaVuSans-69" x="871.09375"/>
      <use xlink:href="#DejaVuSans-65" x="898.876953"/>
      <use xlink:href="#DejaVuSans-6e" x="960.400391"/>
      <use xlink:href="#DejaVuSans-74" x="1023.779297"/>
     </g>
    </g>
   </g>
   <g id="matplotlib.axis_2">
    <g id="text_13">
     <!-- Predicted label -->
     <g transform="translate(18.398438 382.317078) rotate(-90) scale(0.1 -0.1)">
      <defs>
       <path id="DejaVuSans-50" d="M 1259 4147 
L 1259 2394 
L 2053 2394 
Q 2494 2394 2734 2622 
Q 2975 2850 2975 3272 
Q 2975 3691 2734 3919 
Q 2494 4147 2053 4147 
L 1259 4147 
z
M 628 4666 
L 2053 4666 
Q 2838 4666 3239 4311 
Q 3641 3956 3641 3272 
Q 3641 2581 3239 2228 
Q 2838 1875 2053 1875 
L 1259 1875 
L 1259 0 
L 628 0 
L 628 4666 
z
" transform="scale(0.015625)"/>
       <path id="DejaVuSans-72" d="M 2631 2963 
Q 2534 3019 2420 3045 
Q 2306 3072 2169 3072 
Q 1681 3072 1420 2755 
Q 1159 2438 1159 1844 
L 1159 0 
L 581 0 
L 581 3500 
L 1159 3500 
L 1159 2956 
Q 1341 3275 1631 3429 
Q 1922 3584 2338 3584 
Q 2397 3584 2469 3576 
Q 2541 3569 2628 3553 
L 2631 2963 
z
" transform="scale(0.015625)"/>
       <path id="DejaVuSans-64" d="M 2906 2969 
L 2906 4863 
L 3481 4863 
L 3481 0 
L 2906 0 
L 2906 525 
Q 2725 213 2448 61 
Q 2172 -91 1784 -91 
Q 1150 -91 751 415 
Q 353 922 353 1747 
Q 353 2572 751 3078 
Q 1150 3584 1784 3584 
Q 2172 3584 2448 3432 
Q 2725 3281 2906 2969 
z
M 947 1747 
Q 947 1113 1208 752 
Q 1469 391 1925 391 
Q 2381 391 2643 752 
Q 2906 1113 2906 1747 
Q 2906 2381 2643 2742 
Q 2381 3103 1925 3103 
Q 1469 3103 1208 2742 
Q 947 2381 947 1747 
z
" transform="scale(0.015625)"/>
       <path id="DejaVuSans-61" d="M 2194 1759 
Q 1497 1759 1228 1600 
Q 959 1441 959 1056 
Q 959 750 1161 570 
Q 1363 391 1709 391 
Q 2188 391 2477 730 
Q 2766 1069 2766 1631 
L 2766 1759 
L 2194 1759 
z
M 3341 1997 
L 3341 0 
L 2766 0 
L 2766 531 
Q 2569 213 2275 61 
Q 1981 -91 1556 -91 
Q 1019 -91 701 211 
Q 384 513 384 1019 
Q 384 1609 779 1909 
Q 1175 2209 1959 2209 
L 2766 2209 
L 2766 2266 
Q 2766 2663 2505 2880 
Q 2244 3097 1772 3097 
Q 1472 3097 1187 3025 
Q 903 2953 641 2809 
L 641 3341 
Q 956 3463 1253 3523 
Q 1550 3584 1831 3584 
Q 2591 3584 2966 3190 
Q 3341 2797 3341 1997 
z
" transform="scale(0.015625)"/>
       <path id="DejaVuSans-62" d="M 3116 1747 
Q 3116 2381 2855 2742 
Q 2594 3103 2138 3103 
Q 1681 3103 1420 2742 
Q 1159 2381 1159 1747 
Q 1159 1113 1420 752 
Q 1681 391 2138 391 
Q 2594 391 2855 752 
Q 3116 1113 3116 1747 
z
M 1159 2969 
Q 1341 3281 1617 3432 
Q 1894 3584 2278 3584 
Q 2916 3584 3314 3078 
Q 3713 2572 3713 1747 
Q 3713 922 3314 415 
Q 2916 -91 2278 -91 
Q 1894 -91 1617 61 
Q 1341 213 1159 525 
L 1159 0 
L 581 0 
L 581 4863 
L 1159 4863 
L 1159 2969 
z
" transform="scale(0.015625)"/>
      </defs>
      <use xlink:href="#DejaVuSans-50"/>
      <use xlink:href="#DejaVuSans-72" x="58.552734"/>
      <use xlink:href="#DejaVuSans-65" x="97.416016"/>
      <use xlink:href="#DejaVuSans-64" x="158.939453"/>
      <use xlink:href="#DejaVuSans-69" x="222.416016"/>
      <use xlink:href="#DejaVuSans-63" x="250.199219"/>
      <use xlink:href="#DejaVuSans-74" x="305.179688"/>
      <use xlink:href="#DejaVuSans-65" x="344.388672"/>
      <use xlink:href="#DejaVuSans-64" x="405.912109"/>
      <use xlink:href="#DejaVuSans-20" x="469.388672"/>
      <use xlink:href="#DejaVuSans-6c" x="501.175781"/>
      <use xlink:href="#DejaVuSans-61" x="528.958984"/>
      <use xlink:href="#DejaVuSans-62" x="590.238281"/>
      <use xlink:href="#DejaVuSans-65" x="653.714844"/>
      <use xlink:href="#DejaVuSans-6c" x="715.238281"/>
     </g>
    </g>
   </g>
   <g id="line2d_12">
    <path d="M 487.059365 678.84375 
L 487.059365 11.485719 
" clip-path="url(#pbce0c469c2)" style="fill: none; stroke: #ff0000; stroke-width: 1.5; stroke-linecap: square"/>
   </g>
   <g id="patch_3">
    <path d="M 27.978125 678.84375 
L 27.978125 11.485719 
" style="fill: none; stroke: #000000; stroke-width: 0.8; stroke-linejoin: miter; stroke-linecap: square"/>
   </g>
   <g id="patch_4">
    <path d="M 701.248437 678.84375 
L 701.248437 11.485719 
" style="fill: none; stroke: #000000; stroke-width: 0.8; stroke-linejoin: miter; stroke-linecap: square"/>
   </g>
   <g id="patch_5">
    <path d="M 27.978125 678.84375 
L 701.248437 678.84375 
" style="fill: none; stroke: #000000; stroke-width: 0.8; stroke-linejoin: miter; stroke-linecap: square"/>
   </g>
   <g id="patch_6">
    <path d="M 27.978125 11.485719 
L 701.248437 11.485719 
" style="fill: none; stroke: #000000; stroke-width: 0.8; stroke-linejoin: miter; stroke-linecap: square"/>
   </g>
   <g id="text_14">
    <!-- 0 -->
    <g transform="translate(347.781523 633.49336) scale(0.1 -0.1)">
     <use xlink:href="#DejaVuSans-30"/>
    </g>
   </g>
   <g id="text_15">
    <!-- 1 -->
    <g transform="translate(347.781523 541.544405) scale(0.1 -0.1)">
     <use xlink:href="#DejaVuSans-31"/>
    </g>
   </g>
   <g id="text_16">
    <!-- 2 -->
    <g transform="translate(347.781523 482.880139) scale(0.1 -0.1)">
     <use xlink:href="#DejaVuSans-32"/>
    </g>
   </g>
   <g id="text_17">
    <!-- 3 -->
    <g transform="translate(347.781523 464.989618) scale(0.1 -0.1)">
     <defs>
      <path id="DejaVuSans-33" d="M 2597 2516 
Q 3050 2419 3304 2112 
Q 3559 1806 3559 1356 
Q 3559 666 3084 287 
Q 2609 -91 1734 -91 
Q 1441 -91 1130 -33 
Q 819 25 488 141 
L 488 750 
Q 750 597 1062 519 
Q 1375 441 1716 441 
Q 2309 441 2620 675 
Q 2931 909 2931 1356 
Q 2931 1769 2642 2001 
Q 2353 2234 1838 2234 
L 1294 2234 
L 1294 2753 
L 1863 2753 
Q 2328 2753 2575 2939 
Q 2822 3125 2822 3475 
Q 2822 3834 2567 4026 
Q 2313 4219 1838 4219 
Q 1578 4219 1281 4162 
Q 984 4106 628 3988 
L 628 4550 
Q 988 4650 1302 4700 
Q 1616 4750 1894 4750 
Q 2613 4750 3031 4423 
Q 3450 4097 3450 3541 
Q 3450 3153 3228 2886 
Q 3006 2619 2597 2516 
z
" transform="scale(0.015625)"/>
     </defs>
     <use xlink:href="#DejaVuSans-33"/>
    </g>
   </g>
   <g id="text_18">
    <!-- 4 -->
    <g transform="translate(347.781523 414.646525) scale(0.1 -0.1)">
     <use xlink:href="#DejaVuSans-34"/>
    </g>
   </g>
   <g id="text_19">
    <!-- 5 -->
    <g transform="translate(347.781523 338.507797) scale(0.1 -0.1)">
     <defs>
      <path id="DejaVuSans-35" d="M 691 4666 
L 3169 4666 
L 3169 4134 
L 1269 4134 
L 1269 2991 
Q 1406 3038 1543 3061 
Q 1681 3084 1819 3084 
Q 2600 3084 3056 2656 
Q 3513 2228 3513 1497 
Q 3513 744 3044 326 
Q 2575 -91 1722 -91 
Q 1428 -91 1123 -41 
Q 819 9 494 109 
L 494 744 
Q 775 591 1075 516 
Q 1375 441 1709 441 
Q 2250 441 2565 725 
Q 2881 1009 2881 1497 
Q 2881 1984 2565 2268 
Q 2250 2553 1709 2553 
Q 1456 2553 1204 2497 
Q 953 2441 691 2322 
L 691 4666 
z
" transform="scale(0.015625)"/>
     </defs>
     <use xlink:href="#DejaVuSans-35"/>
    </g>
   </g>
   <g id="text_20">
    <!-- 6 -->
    <g transform="translate(347.781523 290.244996) scale(0.1 -0.1)">
     <use xlink:href="#DejaVuSans-36"/>
    </g>
   </g>
   <g id="text_21">
    <!-- 7 -->
    <g transform="translate(347.781523 270.274183) scale(0.1 -0.1)">
     <defs>
      <path id="DejaVuSans-37" d="M 525 4666 
L 3525 4666 
L 3525 4397 
L 1831 0 
L 1172 0 
L 2766 4134 
L 525 4134 
L 525 4666 
z
" transform="scale(0.015625)"/>
     </defs>
     <use xlink:href="#DejaVuSans-37"/>
    </g>
   </g>
   <g id="text_22">
    <!-- 8 -->
    <g transform="translate(347.781523 174.996758) scale(0.1 -0.1)">
     <use xlink:href="#DejaVuSans-38"/>
    </g>
   </g>
   <g id="text_23">
    <!-- 9 -->
    <g transform="translate(347.781523 64.741223) scale(0.1 -0.1)">
     <defs>
      <path id="DejaVuSans-39" d="M 703 97 
L 703 672 
Q 941 559 1184 500 
Q 1428 441 1663 441 
Q 2288 441 2617 861 
Q 2947 1281 2994 2138 
Q 2813 1869 2534 1725 
Q 2256 1581 1919 1581 
Q 1219 1581 811 2004 
Q 403 2428 403 3163 
Q 403 3881 828 4315 
Q 1253 4750 1959 4750 
Q 2769 4750 3195 4129 
Q 3622 3509 3622 2328 
Q 3622 1225 3098 567 
Q 2575 -91 1691 -91 
Q 1453 -91 1209 -44 
Q 966 3 703 97 
z
M 1959 2075 
Q 2384 2075 2632 2365 
Q 2881 2656 2881 3163 
Q 2881 3666 2632 3958 
Q 2384 4250 1959 4250 
Q 1534 4250 1286 3958 
Q 1038 3666 1038 3163 
Q 1038 2656 1286 2365 
Q 1534 2075 1959 2075 
z
" transform="scale(0.015625)"/>
     </defs>
     <use xlink:href="#DejaVuSans-39"/>
    </g>
   </g>
   <g id="text_24">
    <!-- 10 -->
    <g transform="translate(347.781523 34.368944) scale(0.1 -0.1)">
     <use xlink:href="#DejaVuSans-31"/>
     <use xlink:href="#DejaVuSans-30" x="63.623047"/>
    </g>
   </g>
   <g id="text_25">
    <!-- 11 -->
    <g transform="translate(347.781523 21.055068) scale(0.1 -0.1)">
     <use xlink:href="#DejaVuSans-31"/>
     <use xlink:href="#DejaVuSans-31" x="63.623047"/>
    </g>
   </g>
   <g id="text_26">
    <!-- 0.3637 -->
    <g style="fill: #ff0000" transform="translate(503.891123 19.806892) scale(0.1 -0.1)">
     <use xlink:href="#DejaVuSans-30"/>
     <use xlink:href="#DejaVuSans-2e" x="63.623047"/>
     <use xlink:href="#DejaVuSans-33" x="95.410156"/>
     <use xlink:href="#DejaVuSans-36" x="159.033203"/>
     <use xlink:href="#DejaVuSans-33" x="222.65625"/>
     <use xlink:href="#DejaVuSans-37" x="286.279297"/>
    </g>
   </g>
  </g>
 </g>
 <defs>
  <clipPath id="pbce0c469c2">
   <rect x="27.978125" y="11.485719" width="673.270312" height="667.358031"/>
  </clipPath>
 </defs>
</svg>
