<?xml version="1.0" encoding="utf-8" standalone="no"?>
<!DOCTYPE svg PUBLIC "-//W3C//DTD SVG 1.1//EN"
  "http://www.w3.org/Graphics/SVG/1.1/DTD/svg11.dtd">
<svg xmlns:xlink="http://www.w3.org/1999/xlink" width="720pt" height="576pt" viewBox="0 0 720 576" xmlns="http://www.w3.org/2000/svg" version="1.1">
 <metadata>
  <rdf:RDF xmlns:dc="http://purl.org/dc/elements/1.1/" xmlns:cc="http://creativecommons.org/ns#" xmlns:rdf="http://www.w3.org/1999/02/22-rdf-syntax-ns#">
   <cc:Work>
    <dc:type rdf:resource="http://purl.org/dc/dcmitype/StillImage"/>
    <dc:date>2022-11-21T18:22:19.988632</dc:date>
    <dc:format>image/svg+xml</dc:format>
    <dc:creator>
     <cc:Agent>
      <dc:title>Matplotlib v3.6.1, https://matplotlib.org/</dc:title>
     </cc:Agent>
    </dc:creator>
   </cc:Work>
  </rdf:RDF>
 </metadata>
 <defs>
  <style type="text/css">*{stroke-linejoin: round; stroke-linecap: butt}</style>
 </defs>
 <g id="figure_1">
  <g id="patch_1">
   <path d="M 0 576 
L 720 576 
L 720 0 
L 0 0 
z
" style="fill: #ffffff"/>
  </g>
  <g id="axes_1">
   <g id="patch_2">
    <path d="M 42.495313 510.648438 
L 693.296875 510.648438 
L 693.296875 24.265919 
L 42.495313 24.265919 
z
" style="fill: #ffffff"/>
   </g>
   <g id="PolyCollection_1">
    <defs>
     <path id="m8885403930" d="M 391.047373 -71.416182 
L 367.896094 -71.416182 
L 367.896094 -72.022644 
L 367.896094 -72.629106 
L 367.896094 -73.235568 
L 367.896094 -73.84203 
L 367.896094 -74.448492 
L 367.896094 -75.054954 
L 367.896094 -75.661416 
L 367.896094 -76.267878 
L 367.896094 -76.87434 
L 367.896094 -77.480802 
L 367.896094 -78.087264 
L 367.896094 -78.693726 
L 367.896094 -79.300188 
L 367.896094 -79.90665 
L 367.896094 -80.513112 
L 367.896094 -81.119574 
L 367.896094 -81.726036 
L 367.896094 -82.332498 
L 367.896094 -82.93896 
L 367.896094 -83.545422 
L 367.896094 -84.151884 
L 367.896094 -84.758346 
L 367.896094 -85.364808 
L 367.896094 -85.97127 
L 367.896094 -86.577732 
L 367.896094 -87.184194 
L 367.896094 -87.790656 
L 367.896094 -88.397118 
L 367.896094 -89.00358 
L 367.896094 -89.610042 
L 367.896094 -90.216504 
L 367.896094 -90.822966 
L 367.896094 -91.429428 
L 367.896094 -92.03589 
L 367.896094 -92.642352 
L 367.896094 -93.248814 
L 367.896094 -93.855276 
L 367.896094 -94.461738 
L 367.896094 -95.0682 
L 367.896094 -95.674662 
L 367.896094 -96.281124 
L 367.896094 -96.887586 
L 367.896094 -97.494048 
L 367.896094 -98.10051 
L 367.896094 -98.706972 
L 367.896094 -99.313434 
L 367.896094 -99.919896 
L 367.896094 -100.526358 
L 367.896094 -101.13282 
L 367.896094 -101.739282 
L 367.896094 -102.345744 
L 367.896094 -102.952206 
L 367.896094 -103.558668 
L 367.896094 -104.16513 
L 367.896094 -104.771592 
L 367.896094 -105.378054 
L 367.896094 -105.984516 
L 367.896094 -106.590978 
L 367.896094 -107.19744 
L 367.896094 -107.803902 
L 367.896094 -108.410364 
L 367.896094 -109.016826 
L 367.896094 -109.623288 
L 367.896094 -110.22975 
L 367.896094 -110.836212 
L 367.896094 -111.442674 
L 367.896094 -112.049136 
L 367.896094 -112.655598 
L 367.896094 -113.26206 
L 367.896094 -113.868522 
L 367.896094 -114.474984 
L 367.896094 -115.081446 
L 367.896094 -115.687908 
L 367.896094 -116.29437 
L 367.896094 -116.900832 
L 367.896094 -117.507294 
L 367.896094 -118.113756 
L 367.896094 -118.720218 
L 367.896094 -119.32668 
L 367.896094 -119.933142 
L 367.896094 -120.539604 
L 367.896094 -121.146066 
L 367.896094 -121.752528 
L 367.896094 -122.35899 
L 367.896094 -122.965452 
L 367.896094 -123.571914 
L 367.896094 -124.178376 
L 367.896094 -124.784838 
L 513.232534 -124.784838 
L 513.232534 -124.784838 
L 512.57018 -124.178376 
L 512.205705 -123.571914 
L 511.509321 -122.965452 
L 510.122875 -122.35899 
L 510.105733 -121.752528 
L 510.021679 -121.146066 
L 509.888795 -120.539604 
L 509.729995 -119.933142 
L 506.661914 -119.32668 
L 506.393164 -118.720218 
L 505.938371 -118.113756 
L 503.042017 -117.507294 
L 502.512732 -116.900832 
L 502.386354 -116.29437 
L 500.887567 -115.687908 
L 499.632283 -115.081446 
L 499.213275 -114.474984 
L 498.93057 -113.868522 
L 498.043495 -113.26206 
L 496.704048 -112.655598 
L 495.934653 -112.049136 
L 495.859837 -111.442674 
L 495.691597 -110.836212 
L 494.734307 -110.22975 
L 494.497197 -109.623288 
L 494.384458 -109.016826 
L 494.149667 -108.410364 
L 493.864892 -107.803902 
L 493.138774 -107.19744 
L 492.862698 -106.590978 
L 490.961466 -105.984516 
L 490.558651 -105.378054 
L 490.555945 -104.771592 
L 490.251613 -104.16513 
L 490.249441 -103.558668 
L 489.97497 -102.952206 
L 489.958984 -102.345744 
L 489.93211 -101.739282 
L 489.683337 -101.13282 
L 489.243905 -100.526358 
L 488.664646 -99.919896 
L 487.240072 -99.313434 
L 483.155535 -98.706972 
L 482.436356 -98.10051 
L 482.39095 -97.494048 
L 482.238685 -96.887586 
L 482.230102 -96.281124 
L 482.220789 -95.674662 
L 482.195425 -95.0682 
L 477.766415 -94.461738 
L 477.441011 -93.855276 
L 477.319747 -93.248814 
L 475.195008 -92.642352 
L 470.231256 -92.03589 
L 469.017018 -91.429428 
L 466.863874 -90.822966 
L 463.613682 -90.216504 
L 463.069837 -89.610042 
L 462.635701 -89.00358 
L 462.011084 -88.397118 
L 461.829384 -87.790656 
L 460.726836 -87.184194 
L 457.701968 -86.577732 
L 455.254243 -85.97127 
L 454.226032 -85.364808 
L 453.833581 -84.758346 
L 453.345339 -84.151884 
L 452.974011 -83.545422 
L 451.805909 -82.93896 
L 451.257837 -82.332498 
L 450.508889 -81.726036 
L 449.130775 -81.119574 
L 448.818986 -80.513112 
L 448.76934 -79.90665 
L 448.496151 -79.300188 
L 434.919691 -78.693726 
L 434.75145 -78.087264 
L 433.856192 -77.480802 
L 433.768246 -76.87434 
L 428.139698 -76.267878 
L 419.535662 -75.661416 
L 415.374134 -75.054954 
L 406.14835 -74.448492 
L 402.839207 -73.84203 
L 399.431382 -73.235568 
L 397.670339 -72.629106 
L 397.295492 -72.022644 
L 391.047373 -71.416182 
z
" style="stroke: #000000; stroke-opacity: 0.7"/>
    </defs>
    <g clip-path="url(#p2b38d6f9ed)">
     <use xlink:href="#m8885403930" x="0" y="576" style="fill-opacity: 0.7; stroke: #000000; stroke-opacity: 0.7"/>
    </g>
   </g>
   <g id="PolyCollection_2">
    <defs>
     <path id="m239fbaf057" d="M 321.628291 -131.45592 
L 367.896094 -131.45592 
L 367.896094 -132.062382 
L 367.896094 -132.668844 
L 367.896094 -133.275306 
L 367.896094 -133.881768 
L 367.896094 -134.48823 
L 367.896094 -135.094692 
L 367.896094 -135.701154 
L 367.896094 -136.307616 
L 367.896094 -136.914078 
L 367.896094 -137.52054 
L 367.896094 -138.127002 
L 367.896094 -138.733464 
L 367.896094 -139.339926 
L 367.896094 -139.946388 
L 367.896094 -140.55285 
L 367.896094 -141.159312 
L 367.896094 -141.765774 
L 367.896094 -142.372236 
L 367.896094 -142.978698 
L 367.896094 -143.58516 
L 367.896094 -144.191622 
L 367.896094 -144.798084 
L 367.896094 -145.404546 
L 367.896094 -146.011008 
L 367.896094 -146.61747 
L 367.896094 -147.223932 
L 367.896094 -147.830394 
L 367.896094 -148.436856 
L 367.896094 -149.043318 
L 367.896094 -149.64978 
L 367.896094 -150.256242 
L 367.896094 -150.862704 
L 367.896094 -151.469165 
L 367.896094 -152.075627 
L 367.896094 -152.682089 
L 367.896094 -153.288551 
L 367.896094 -153.895013 
L 367.896094 -154.501475 
L 367.896094 -155.107937 
L 367.896094 -155.714399 
L 367.896094 -156.320861 
L 367.896094 -156.927323 
L 367.896094 -157.533785 
L 367.896094 -158.140247 
L 367.896094 -158.746709 
L 367.896094 -159.353171 
L 367.896094 -159.959633 
L 367.896094 -160.566095 
L 367.896094 -161.172557 
L 367.896094 -161.779019 
L 367.896094 -162.385481 
L 367.896094 -162.991943 
L 367.896094 -163.598405 
L 367.896094 -164.204867 
L 367.896094 -164.811329 
L 367.896094 -165.417791 
L 367.896094 -166.024253 
L 367.896094 -166.630715 
L 367.896094 -167.237177 
L 367.896094 -167.843639 
L 367.896094 -168.450101 
L 367.896094 -169.056563 
L 367.896094 -169.663025 
L 367.896094 -170.269487 
L 367.896094 -170.875949 
L 367.896094 -171.482411 
L 367.896094 -172.088873 
L 367.896094 -172.695335 
L 367.896094 -173.301797 
L 367.896094 -173.908259 
L 367.896094 -174.514721 
L 367.896094 -175.121183 
L 367.896094 -175.727645 
L 367.896094 -176.334107 
L 367.896094 -176.940569 
L 367.896094 -177.547031 
L 367.896094 -178.153493 
L 367.896094 -178.759955 
L 367.896094 -179.366417 
L 367.896094 -179.972879 
L 367.896094 -180.579341 
L 367.896094 -181.185803 
L 367.896094 -181.792265 
L 367.896094 -182.398727 
L 367.896094 -183.005189 
L 367.896094 -183.611651 
L 367.896094 -184.218113 
L 367.896094 -184.824575 
L 367.896094 -185.431037 
L 367.896094 -186.037499 
L 367.896094 -186.643961 
L 367.896094 -187.250423 
L 367.896094 -187.856885 
L 367.896094 -188.463347 
L 367.896094 -189.069809 
L 367.896094 -189.676271 
L 367.896094 -190.282733 
L 367.896094 -190.889195 
L 367.896094 -191.495657 
L 367.896094 -192.102119 
L 367.896094 -192.708581 
L 367.896094 -193.315043 
L 367.896094 -193.921505 
L 367.896094 -194.527967 
L 367.896094 -195.134429 
L 367.896094 -195.740891 
L 367.896094 -196.347353 
L 367.896094 -196.953815 
L 367.896094 -197.560277 
L 367.896094 -198.166739 
L 367.896094 -198.773201 
L 496.562917 -198.773201 
L 496.562917 -198.773201 
L 496.022746 -198.166739 
L 495.955967 -197.560277 
L 495.809517 -196.953815 
L 495.39092 -196.347353 
L 495.379021 -195.740891 
L 493.755072 -195.134429 
L 493.597498 -194.527967 
L 493.545847 -193.921505 
L 493.453727 -193.315043 
L 493.158112 -192.708581 
L 492.853361 -192.102119 
L 489.884698 -191.495657 
L 489.806764 -190.889195 
L 489.230672 -190.282733 
L 487.315891 -189.676271 
L 486.942146 -189.069809 
L 486.940117 -188.463347 
L 486.030606 -187.856885 
L 484.028517 -187.250423 
L 483.958561 -186.643961 
L 483.783285 -186.037499 
L 483.772034 -185.431037 
L 483.625788 -184.824575 
L 483.425231 -184.218113 
L 483.203042 -183.611651 
L 482.095937 -183.005189 
L 480.271232 -182.398727 
L 479.4913 -181.792265 
L 479.378116 -181.185803 
L 479.155671 -180.579341 
L 478.804319 -179.972879 
L 478.767505 -179.366417 
L 478.748964 -178.759955 
L 478.60838 -178.153493 
L 478.254132 -177.547031 
L 477.125024 -176.940569 
L 477.01503 -176.334107 
L 475.691076 -175.727645 
L 475.487469 -175.121183 
L 475.471379 -174.514721 
L 475.281782 -173.908259 
L 474.721154 -173.301797 
L 473.443914 -172.695335 
L 471.20494 -172.088873 
L 470.388193 -171.482411 
L 469.723744 -170.875949 
L 468.720816 -170.269487 
L 468.670931 -169.663025 
L 468.003762 -169.056563 
L 467.239053 -168.450101 
L 466.404101 -167.843639 
L 466.384237 -167.237177 
L 462.180914 -166.630715 
L 461.78222 -166.024253 
L 461.508103 -165.417791 
L 460.096361 -164.811329 
L 459.284764 -164.204867 
L 459.193674 -163.598405 
L 458.402398 -162.991943 
L 458.328162 -162.385481 
L 457.664197 -161.779019 
L 455.904814 -161.172557 
L 455.747361 -160.566095 
L 454.779303 -159.959633 
L 454.261833 -159.353171 
L 453.6714 -158.746709 
L 450.935975 -158.140247 
L 450.521486 -157.533785 
L 449.501222 -156.927323 
L 449.367673 -156.320861 
L 446.612198 -155.714399 
L 444.065383 -155.107937 
L 444.007736 -154.501475 
L 443.671045 -153.895013 
L 443.328419 -153.288551 
L 442.108813 -152.682089 
L 440.741399 -152.075627 
L 439.559231 -151.469165 
L 436.566723 -150.862704 
L 434.825092 -150.256242 
L 434.46181 -149.64978 
L 433.858454 -149.043318 
L 428.062673 -148.436856 
L 426.340319 -147.830394 
L 418.827923 -147.223932 
L 417.681771 -146.61747 
L 416.239855 -146.011008 
L 412.291132 -145.404546 
L 409.689145 -144.798084 
L 404.578393 -144.191622 
L 402.80422 -143.58516 
L 402.172712 -142.978698 
L 401.813953 -142.372236 
L 401.70737 -141.765774 
L 401.473835 -141.159312 
L 401.200933 -140.55285 
L 397.519157 -139.946388 
L 390.957676 -139.339926 
L 390.893858 -138.733464 
L 390.536702 -138.127002 
L 387.878268 -137.52054 
L 387.164651 -136.914078 
L 385.1723 -136.307616 
L 381.651434 -135.701154 
L 380.428759 -135.094692 
L 378.095481 -134.48823 
L 376.621621 -133.881768 
L 352.303562 -133.275306 
L 349.814174 -132.668844 
L 339.780635 -132.062382 
L 321.628291 -131.45592 
z
" style="stroke: #820093; stroke-opacity: 0.7"/>
    </defs>
    <g clip-path="url(#p2b38d6f9ed)">
     <use xlink:href="#m239fbaf057" x="0" y="576" style="fill: #820093; fill-opacity: 0.7; stroke: #820093; stroke-opacity: 0.7"/>
    </g>
   </g>
   <g id="PolyCollection_3">
    <defs>
     <path id="m8e114ba40e" d="M 392.081734 -205.444283 
L 367.896094 -205.444283 
L 367.896094 -206.050745 
L 367.896094 -206.657207 
L 367.896094 -207.263669 
L 367.896094 -207.870131 
L 367.896094 -208.476593 
L 367.896094 -209.083055 
L 367.896094 -209.689517 
L 367.896094 -210.295979 
L 436.65758 -210.295979 
L 436.65758 -210.295979 
L 434.206753 -209.689517 
L 428.370041 -209.083055 
L 423.474605 -208.476593 
L 420.705176 -207.870131 
L 420.031516 -207.263669 
L 401.579855 -206.657207 
L 393.837236 -206.050745 
L 392.081734 -205.444283 
z
" style="stroke: #0000b9; stroke-opacity: 0.7"/>
    </defs>
    <g clip-path="url(#p2b38d6f9ed)">
     <use xlink:href="#m8e114ba40e" x="0" y="576" style="fill: #0000b9; fill-opacity: 0.7; stroke: #0000b9; stroke-opacity: 0.7"/>
    </g>
   </g>
   <g id="PolyCollection_4">
    <defs>
     <path id="m3c64bb5af8" d="M 436.423033 -216.967061 
L 367.896094 -216.967061 
L 367.896094 -217.573523 
L 367.896094 -218.179985 
L 367.896094 -218.786447 
L 367.896094 -219.392909 
L 367.896094 -219.999371 
L 367.896094 -220.605833 
L 367.896094 -221.212295 
L 367.896094 -221.818757 
L 367.896094 -222.425219 
L 367.896094 -223.031681 
L 367.896094 -223.638143 
L 367.896094 -224.244605 
L 367.896094 -224.851067 
L 487.484919 -224.851067 
L 487.484919 -224.851067 
L 486.989626 -224.244605 
L 481.973093 -223.638143 
L 479.69689 -223.031681 
L 476.91077 -222.425219 
L 476.820013 -221.818757 
L 475.597683 -221.212295 
L 472.522974 -220.605833 
L 465.247688 -219.999371 
L 452.399758 -219.392909 
L 450.557054 -218.786447 
L 450.393288 -218.179985 
L 450.163462 -217.573523 
L 436.423033 -216.967061 
z
" style="stroke: #0078dd; stroke-opacity: 0.7"/>
    </defs>
    <g clip-path="url(#p2b38d6f9ed)">
     <use xlink:href="#m3c64bb5af8" x="0" y="576" style="fill: #0078dd; fill-opacity: 0.7; stroke: #0078dd; stroke-opacity: 0.7"/>
    </g>
   </g>
   <g id="PolyCollection_5">
    <defs>
     <path id="mb5a865bb35" d="M 391.865573 -231.522149 
L 367.896094 -231.522149 
L 367.896094 -232.128611 
L 367.896094 -232.735073 
L 367.896094 -233.341535 
L 367.896094 -233.947997 
L 367.896094 -234.554459 
L 367.896094 -235.160921 
L 367.896094 -235.767383 
L 367.896094 -236.373845 
L 367.896094 -236.980306 
L 367.896094 -237.586768 
L 367.896094 -238.19323 
L 367.896094 -238.799692 
L 367.896094 -239.406154 
L 367.896094 -240.012616 
L 367.896094 -240.619078 
L 367.896094 -241.22554 
L 367.896094 -241.832002 
L 367.896094 -242.438464 
L 367.896094 -243.044926 
L 367.896094 -243.651388 
L 367.896094 -244.25785 
L 367.896094 -244.864312 
L 367.896094 -245.470774 
L 367.896094 -246.077236 
L 367.896094 -246.683698 
L 367.896094 -247.29016 
L 367.896094 -247.896622 
L 367.896094 -248.503084 
L 367.896094 -249.109546 
L 367.896094 -249.716008 
L 367.896094 -250.32247 
L 367.896094 -250.928932 
L 367.896094 -251.535394 
L 367.896094 -252.141856 
L 367.896094 -252.748318 
L 367.896094 -253.35478 
L 367.896094 -253.961242 
L 367.896094 -254.567704 
L 367.896094 -255.174166 
L 367.896094 -255.780628 
L 367.896094 -256.38709 
L 367.896094 -256.993552 
L 367.896094 -257.600014 
L 367.896094 -258.206476 
L 367.896094 -258.812938 
L 367.896094 -259.4194 
L 367.896094 -260.025862 
L 367.896094 -260.632324 
L 367.896094 -261.238786 
L 367.896094 -261.845248 
L 367.896094 -262.45171 
L 367.896094 -263.058172 
L 367.896094 -263.664634 
L 367.896094 -264.271096 
L 367.896094 -264.877558 
L 367.896094 -265.48402 
L 367.896094 -266.090482 
L 367.896094 -266.696944 
L 367.896094 -267.303406 
L 367.896094 -267.909868 
L 367.896094 -268.51633 
L 367.896094 -269.122792 
L 367.896094 -269.729254 
L 367.896094 -270.335716 
L 367.896094 -270.942178 
L 367.896094 -271.54864 
L 367.896094 -272.155102 
L 367.896094 -272.761564 
L 367.896094 -273.368026 
L 367.896094 -273.974488 
L 367.896094 -274.58095 
L 367.896094 -275.187412 
L 367.896094 -275.793874 
L 367.896094 -276.400336 
L 367.896094 -277.006798 
L 367.896094 -277.61326 
L 367.896094 -278.219722 
L 367.896094 -278.826184 
L 367.896094 -279.432646 
L 367.896094 -280.039108 
L 367.896094 -280.64557 
L 367.896094 -281.252032 
L 367.896094 -281.858494 
L 367.896094 -282.464956 
L 367.896094 -283.071418 
L 367.896094 -283.67788 
L 504.225781 -283.67788 
L 504.225781 -283.67788 
L 502.901482 -283.071418 
L 500.852259 -282.464956 
L 500.44681 -281.858494 
L 499.924604 -281.252032 
L 498.7778 -280.64557 
L 498.733787 -280.039108 
L 498.651178 -279.432646 
L 498.476425 -278.826184 
L 498.203069 -278.219722 
L 498.136647 -277.61326 
L 497.866496 -277.006798 
L 497.592769 -276.400336 
L 497.516207 -275.793874 
L 497.074525 -275.187412 
L 496.33644 -274.58095 
L 495.80406 -273.974488 
L 495.771598 -273.368026 
L 494.684884 -272.761564 
L 494.095687 -272.155102 
L 493.976475 -271.54864 
L 493.701635 -270.942178 
L 493.65869 -270.335716 
L 491.995221 -269.729254 
L 491.946837 -269.122792 
L 491.794438 -268.51633 
L 491.724444 -267.909868 
L 491.683097 -267.303406 
L 491.354299 -266.696944 
L 490.662558 -266.090482 
L 490.196761 -265.48402 
L 489.168738 -264.877558 
L 489.122317 -264.271096 
L 488.302805 -263.664634 
L 487.269373 -263.058172 
L 486.05178 -262.45171 
L 486.007852 -261.845248 
L 485.394139 -261.238786 
L 484.887737 -260.632324 
L 484.330799 -260.025862 
L 484.194936 -259.4194 
L 483.910446 -258.812938 
L 483.732141 -258.206476 
L 483.168025 -257.600014 
L 483.078542 -256.993552 
L 481.826013 -256.38709 
L 481.076086 -255.780628 
L 480.810002 -255.174166 
L 480.434817 -254.567704 
L 479.584033 -253.961242 
L 479.010073 -253.35478 
L 478.754125 -252.748318 
L 478.725604 -252.141856 
L 478.594162 -251.535394 
L 478.475717 -250.928932 
L 478.186691 -250.32247 
L 477.371571 -249.716008 
L 477.053539 -249.109546 
L 475.832297 -248.503084 
L 475.394988 -247.896622 
L 475.297155 -247.29016 
L 475.175063 -246.683698 
L 474.918779 -246.077236 
L 474.917258 -245.470774 
L 474.299887 -244.864312 
L 471.518222 -244.25785 
L 470.509674 -243.651388 
L 469.437367 -243.044926 
L 467.076916 -242.438464 
L 466.781943 -241.832002 
L 463.551516 -241.22554 
L 462.250258 -240.619078 
L 460.30846 -240.012616 
L 459.20624 -239.406154 
L 458.769127 -238.799692 
L 457.528967 -238.19323 
L 457.195009 -237.586768 
L 456.690992 -236.980306 
L 455.049426 -236.373845 
L 450.863815 -235.767383 
L 446.659897 -235.160921 
L 445.817451 -234.554459 
L 440.829701 -233.947997 
L 429.557562 -233.341535 
L 423.488316 -232.735073 
L 412.455985 -232.128611 
L 391.865573 -231.522149 
z
" style="stroke: #00a4bb; stroke-opacity: 0.7"/>
    </defs>
    <g clip-path="url(#p2b38d6f9ed)">
     <use xlink:href="#mb5a865bb35" x="0" y="576" style="fill: #00a4bb; fill-opacity: 0.7; stroke: #00a4bb; stroke-opacity: 0.7"/>
    </g>
   </g>
   <g id="PolyCollection_6">
    <defs>
     <path id="m8d1e3f4237" d="M 401.25461 -290.348962 
L 367.896094 -290.348962 
L 367.896094 -290.955424 
L 367.896094 -291.561886 
L 367.896094 -292.168348 
L 367.896094 -292.77481 
L 367.896094 -293.381272 
L 367.896094 -293.987734 
L 367.896094 -294.594196 
L 367.896094 -295.200658 
L 367.896094 -295.80712 
L 367.896094 -296.413582 
L 367.896094 -297.020044 
L 367.896094 -297.626506 
L 367.896094 -298.232968 
L 367.896094 -298.83943 
L 367.896094 -299.445892 
L 367.896094 -300.052354 
L 367.896094 -300.658816 
L 367.896094 -301.265278 
L 367.896094 -301.87174 
L 367.896094 -302.478202 
L 367.896094 -303.084664 
L 367.896094 -303.691126 
L 367.896094 -304.297588 
L 367.896094 -304.90405 
L 367.896094 -305.510512 
L 367.896094 -306.116974 
L 367.896094 -306.723436 
L 367.896094 -307.329898 
L 367.896094 -307.93636 
L 367.896094 -308.542822 
L 367.896094 -309.149284 
L 367.896094 -309.755746 
L 367.896094 -310.362208 
L 367.896094 -310.96867 
L 367.896094 -311.575132 
L 367.896094 -312.181594 
L 367.896094 -312.788056 
L 367.896094 -313.394518 
L 367.896094 -314.00098 
L 367.896094 -314.607442 
L 367.896094 -315.213904 
L 367.896094 -315.820366 
L 367.896094 -316.426828 
L 367.896094 -317.03329 
L 367.896094 -317.639752 
L 367.896094 -318.246214 
L 367.896094 -318.852676 
L 367.896094 -319.459138 
L 367.896094 -320.0656 
L 367.896094 -320.672062 
L 367.896094 -321.278524 
L 367.896094 -321.884986 
L 367.896094 -322.491447 
L 367.896094 -323.097909 
L 367.896094 -323.704371 
L 367.896094 -324.310833 
L 367.896094 -324.917295 
L 367.896094 -325.523757 
L 367.896094 -326.130219 
L 367.896094 -326.736681 
L 367.896094 -327.343143 
L 367.896094 -327.949605 
L 367.896094 -328.556067 
L 367.896094 -329.162529 
L 367.896094 -329.768991 
L 367.896094 -330.375453 
L 367.896094 -330.981915 
L 367.896094 -331.588377 
L 367.896094 -332.194839 
L 367.896094 -332.801301 
L 367.896094 -333.407763 
L 367.896094 -334.014225 
L 367.896094 -334.620687 
L 367.896094 -335.227149 
L 367.896094 -335.833611 
L 522.70361 -335.833611 
L 522.70361 -335.833611 
L 522.581377 -335.227149 
L 522.560461 -334.620687 
L 522.523826 -334.014225 
L 521.77725 -333.407763 
L 521.689604 -332.801301 
L 521.478279 -332.194839 
L 521.322758 -331.588377 
L 521.091477 -330.981915 
L 514.437443 -330.375453 
L 514.251223 -329.768991 
L 514.213936 -329.162529 
L 514.151242 -328.556067 
L 514.144909 -327.949605 
L 513.511668 -327.343143 
L 507.699445 -326.736681 
L 507.630222 -326.130219 
L 507.376658 -325.523757 
L 506.183463 -324.917295 
L 504.768903 -324.310833 
L 504.729131 -323.704371 
L 504.091317 -323.097909 
L 503.914585 -322.491447 
L 503.885318 -321.884986 
L 503.476257 -321.278524 
L 503.01332 -320.672062 
L 502.776712 -320.0656 
L 501.360866 -319.459138 
L 500.615176 -318.852676 
L 499.436018 -318.246214 
L 498.393653 -317.639752 
L 496.376328 -317.03329 
L 493.55327 -316.426828 
L 493.520033 -315.820366 
L 492.359579 -315.213904 
L 491.013268 -314.607442 
L 485.643356 -314.00098 
L 485.589962 -313.394518 
L 484.602367 -312.788056 
L 483.258125 -312.181594 
L 483.015938 -311.575132 
L 481.849279 -310.96867 
L 481.453665 -310.362208 
L 480.562781 -309.755746 
L 479.780605 -309.149284 
L 476.752647 -308.542822 
L 476.744978 -307.93636 
L 469.403937 -307.329898 
L 469.339273 -306.723436 
L 468.162465 -306.116974 
L 467.925674 -305.510512 
L 465.285775 -304.90405 
L 463.509786 -304.297588 
L 463.422751 -303.691126 
L 462.260383 -303.084664 
L 462.194923 -302.478202 
L 452.599217 -301.87174 
L 452.061371 -301.265278 
L 451.550124 -300.658816 
L 449.789931 -300.052354 
L 449.250101 -299.445892 
L 448.209779 -298.83943 
L 447.641665 -298.232968 
L 446.129439 -297.626506 
L 445.20788 -297.020044 
L 444.180059 -296.413582 
L 441.822454 -295.80712 
L 441.309158 -295.200658 
L 440.727122 -294.594196 
L 438.337456 -293.987734 
L 435.29834 -293.381272 
L 417.734958 -292.77481 
L 416.947452 -292.168348 
L 414.073505 -291.561886 
L 406.732964 -290.955424 
L 401.25461 -290.348962 
z
" style="stroke: #00a55d; stroke-opacity: 0.7"/>
    </defs>
    <g clip-path="url(#p2b38d6f9ed)">
     <use xlink:href="#m8d1e3f4237" x="0" y="576" style="fill: #00a55d; fill-opacity: 0.7; stroke: #00a55d; stroke-opacity: 0.7"/>
    </g>
   </g>
   <g id="PolyCollection_7">
    <defs>
     <path id="mbd5daa00a5" d="M 367.341144 -342.504693 
L 367.896094 -342.504693 
L 367.896094 -343.111155 
L 367.896094 -343.717617 
L 367.896094 -344.324079 
L 367.896094 -344.930541 
L 367.896094 -345.537003 
L 367.896094 -346.143465 
L 367.896094 -346.749927 
L 367.896094 -347.356389 
L 367.896094 -347.962851 
L 367.896094 -348.569313 
L 367.896094 -349.175775 
L 367.896094 -349.782237 
L 367.896094 -350.388699 
L 367.896094 -350.995161 
L 367.896094 -351.601623 
L 367.896094 -352.208085 
L 367.896094 -352.814547 
L 367.896094 -353.421009 
L 367.896094 -354.027471 
L 469.955692 -354.027471 
L 469.955692 -354.027471 
L 465.235297 -353.421009 
L 459.24644 -352.814547 
L 457.96563 -352.208085 
L 455.745938 -351.601623 
L 453.853395 -350.995161 
L 452.023495 -350.388699 
L 451.399514 -349.782237 
L 451.024203 -349.175775 
L 441.570566 -348.569313 
L 440.692375 -347.962851 
L 437.406129 -347.356389 
L 436.023189 -346.749927 
L 435.59716 -346.143465 
L 434.062637 -345.537003 
L 432.332802 -344.930541 
L 430.961287 -344.324079 
L 430.817681 -343.717617 
L 429.701181 -343.111155 
L 367.341144 -342.504693 
z
" style="stroke: #00bc00; stroke-opacity: 0.7"/>
    </defs>
    <g clip-path="url(#p2b38d6f9ed)">
     <use xlink:href="#mbd5daa00a5" x="0" y="576" style="fill: #00bc00; fill-opacity: 0.7; stroke: #00bc00; stroke-opacity: 0.7"/>
    </g>
   </g>
   <g id="PolyCollection_8">
    <defs>
     <path id="m3c3507a4e4" d="M 512.886283 -360.698553 
L 367.896094 -360.698553 
L 367.896094 -361.305015 
L 367.896094 -361.911477 
L 367.896094 -362.517939 
L 367.896094 -363.124401 
L 367.896094 -363.730863 
L 367.896094 -364.337325 
L 367.896094 -364.943787 
L 562.461514 -364.943787 
L 562.461514 -364.943787 
L 559.194878 -364.337325 
L 549.581973 -363.730863 
L 544.817213 -363.124401 
L 540.748127 -362.517939 
L 524.965361 -361.911477 
L 519.046102 -361.305015 
L 512.886283 -360.698553 
z
" style="stroke: #00f400; stroke-opacity: 0.7"/>
    </defs>
    <g clip-path="url(#p2b38d6f9ed)">
     <use xlink:href="#m3c3507a4e4" x="0" y="576" style="fill: #00f400; fill-opacity: 0.7; stroke: #00f400; stroke-opacity: 0.7"/>
    </g>
   </g>
   <g id="PolyCollection_9">
    <defs>
     <path id="m6cff68b6fd" d="M 448.693861 -371.614869 
L 367.896094 -371.614869 
L 367.896094 -372.221331 
L 367.896094 -372.827793 
L 367.896094 -373.434255 
L 367.896094 -374.040717 
L 367.896094 -374.647179 
L 367.896094 -375.253641 
L 367.896094 -375.860103 
L 367.896094 -376.466565 
L 367.896094 -377.073027 
L 367.896094 -377.679489 
L 367.896094 -378.285951 
L 367.896094 -378.892413 
L 367.896094 -379.498875 
L 367.896094 -380.105337 
L 367.896094 -380.711799 
L 367.896094 -381.318261 
L 367.896094 -381.924723 
L 367.896094 -382.531185 
L 367.896094 -383.137647 
L 367.896094 -383.744109 
L 367.896094 -384.350571 
L 367.896094 -384.957033 
L 367.896094 -385.563495 
L 367.896094 -386.169957 
L 367.896094 -386.776419 
L 367.896094 -387.382881 
L 367.896094 -387.989343 
L 367.896094 -388.595805 
L 367.896094 -389.202267 
L 367.896094 -389.808729 
L 367.896094 -390.415191 
L 367.896094 -391.021653 
L 367.896094 -391.628115 
L 367.896094 -392.234577 
L 367.896094 -392.841039 
L 367.896094 -393.447501 
L 367.896094 -394.053963 
L 367.896094 -394.660425 
L 367.896094 -395.266887 
L 367.896094 -395.873349 
L 367.896094 -396.479811 
L 367.896094 -397.086273 
L 367.896094 -397.692735 
L 367.896094 -398.299197 
L 367.896094 -398.905659 
L 367.896094 -399.512121 
L 367.896094 -400.118583 
L 367.896094 -400.725045 
L 367.896094 -401.331507 
L 367.896094 -401.937969 
L 367.896094 -402.544431 
L 367.896094 -403.150893 
L 367.896094 -403.757355 
L 367.896094 -404.363817 
L 367.896094 -404.970279 
L 367.896094 -405.576741 
L 367.896094 -406.183203 
L 367.896094 -406.789665 
L 367.896094 -407.396127 
L 367.896094 -408.002588 
L 367.896094 -408.60905 
L 367.896094 -409.215512 
L 367.896094 -409.821974 
L 367.896094 -410.428436 
L 367.896094 -411.034898 
L 367.896094 -411.64136 
L 367.896094 -412.247822 
L 367.896094 -412.854284 
L 367.896094 -413.460746 
L 367.896094 -414.067208 
L 367.896094 -414.67367 
L 367.896094 -415.280132 
L 367.896094 -415.886594 
L 367.896094 -416.493056 
L 367.896094 -417.099518 
L 367.896094 -417.70598 
L 367.896094 -418.312442 
L 367.896094 -418.918904 
L 367.896094 -419.525366 
L 367.896094 -420.131828 
L 367.896094 -420.73829 
L 367.896094 -421.344752 
L 367.896094 -421.951214 
L 367.896094 -422.557676 
L 367.896094 -423.164138 
L 367.896094 -423.7706 
L 367.896094 -424.377062 
L 367.896094 -424.983524 
L 367.896094 -425.589986 
L 367.896094 -426.196448 
L 367.896094 -426.80291 
L 367.896094 -427.409372 
L 367.896094 -428.015834 
L 367.896094 -428.622296 
L 367.896094 -429.228758 
L 367.896094 -429.83522 
L 367.896094 -430.441682 
L 367.896094 -431.048144 
L 367.896094 -431.654606 
L 367.896094 -432.261068 
L 367.896094 -432.86753 
L 367.896094 -433.473992 
L 367.896094 -434.080454 
L 367.896094 -434.686916 
L 367.896094 -435.293378 
L 367.896094 -435.89984 
L 367.896094 -436.506302 
L 367.896094 -437.112764 
L 367.896094 -437.719226 
L 367.896094 -438.325688 
L 367.896094 -438.93215 
L 367.896094 -439.538612 
L 367.896094 -440.145074 
L 367.896094 -440.751536 
L 367.896094 -441.357998 
L 367.896094 -441.96446 
L 367.896094 -442.570922 
L 367.896094 -443.177384 
L 367.896094 -443.783846 
L 367.896094 -444.390308 
L 367.896094 -444.99677 
L 367.896094 -445.603232 
L 367.896094 -446.209694 
L 367.896094 -446.816156 
L 367.896094 -447.422618 
L 367.896094 -448.02908 
L 367.896094 -448.635542 
L 367.896094 -449.242004 
L 367.896094 -449.848466 
L 367.896094 -450.454928 
L 367.896094 -451.06139 
L 367.896094 -451.667852 
L 367.896094 -452.274314 
L 367.896094 -452.880776 
L 367.896094 -453.487238 
L 367.896094 -454.0937 
L 367.896094 -454.700162 
L 367.896094 -455.306624 
L 367.896094 -455.913086 
L 367.896094 -456.519548 
L 367.896094 -457.12601 
L 367.896094 -457.732472 
L 367.896094 -458.338934 
L 367.896094 -458.945396 
L 367.896094 -459.551858 
L 367.896094 -460.15832 
L 367.896094 -460.764782 
L 367.896094 -461.371244 
L 367.896094 -461.977706 
L 367.896094 -462.584168 
L 367.896094 -463.19063 
L 367.896094 -463.797092 
L 367.896094 -464.403554 
L 367.896094 -465.010016 
L 367.896094 -465.616478 
L 367.896094 -466.22294 
L 367.896094 -466.829402 
L 367.896094 -467.435864 
L 367.896094 -468.042326 
L 367.896094 -468.648788 
L 367.896094 -469.25525 
L 367.896094 -469.861712 
L 367.896094 -470.468174 
L 367.896094 -471.074636 
L 367.896094 -471.681098 
L 367.896094 -472.28756 
L 367.896094 -472.894022 
L 367.896094 -473.500484 
L 367.896094 -474.106946 
L 367.896094 -474.713408 
L 367.896094 -475.31987 
L 367.896094 -475.926332 
L 367.896094 -476.532794 
L 367.896094 -477.139256 
L 367.896094 -477.745718 
L 367.896094 -478.35218 
L 367.896094 -478.958642 
L 367.896094 -479.565104 
L 367.896094 -480.171566 
L 367.896094 -480.778028 
L 367.896094 -481.38449 
L 367.896094 -481.990952 
L 367.896094 -482.597414 
L 367.896094 -483.203876 
L 367.896094 -483.810338 
L 367.896094 -484.4168 
L 367.896094 -485.023262 
L 367.896094 -485.629724 
L 367.896094 -486.236186 
L 367.896094 -486.842648 
L 367.896094 -487.44911 
L 367.896094 -488.055572 
L 367.896094 -488.662034 
L 367.896094 -489.268496 
L 367.896094 -489.874958 
L 367.896094 -490.48142 
L 367.896094 -491.087882 
L 367.896094 -491.694344 
L 367.896094 -492.300806 
L 367.896094 -492.907268 
L 533.776284 -492.907268 
L 533.776284 -492.907268 
L 533.346915 -492.300806 
L 532.284087 -491.694344 
L 531.039747 -491.087882 
L 530.955923 -490.48142 
L 530.085467 -489.874958 
L 529.800283 -489.268496 
L 529.135568 -488.662034 
L 529.099325 -488.055572 
L 528.571531 -487.44911 
L 527.852064 -486.842648 
L 527.76883 -486.236186 
L 526.929275 -485.629724 
L 526.92082 -485.023262 
L 526.054032 -484.4168 
L 525.597429 -483.810338 
L 525.391703 -483.203876 
L 525.048475 -482.597414 
L 525.030399 -481.990952 
L 524.554724 -481.38449 
L 524.161338 -480.778028 
L 523.567148 -480.171566 
L 523.248445 -479.565104 
L 523.097501 -478.958642 
L 522.872149 -478.35218 
L 522.870399 -477.745718 
L 522.802858 -477.139256 
L 522.792722 -476.532794 
L 522.469167 -475.926332 
L 522.117507 -475.31987 
L 521.272673 -474.713408 
L 521.188849 -474.106946 
L 521.157189 -473.500484 
L 520.929975 -472.894022 
L 520.751205 -472.28756 
L 520.634572 -471.681098 
L 520.38025 -471.074636 
L 520.158588 -470.468174 
L 519.746516 -469.861712 
L 519.720079 -469.25525 
L 519.718733 -468.648788 
L 519.619929 -468.042326 
L 519.477443 -467.435864 
L 518.995972 -466.829402 
L 518.835845 -466.22294 
L 518.823273 -465.616478 
L 518.121964 -465.010016 
L 518.017952 -464.403554 
L 517.83323 -463.797092 
L 517.706701 -463.19063 
L 517.199189 -462.584168 
L 516.881843 -461.977706 
L 516.805799 -461.371244 
L 516.730814 -460.764782 
L 516.682911 -460.15832 
L 516.549088 -459.551858 
L 516.479151 -458.945396 
L 516.37081 -458.338934 
L 516.237241 -457.732472 
L 516.21227 -457.12601 
L 516.040773 -456.519548 
L 516.011538 -455.913086 
L 514.95917 -455.306624 
L 514.810872 -454.700162 
L 514.710443 -454.0937 
L 514.650677 -453.487238 
L 514.608802 -452.880776 
L 514.443655 -452.274314 
L 514.264749 -451.667852 
L 514.191212 -451.06139 
L 513.858247 -450.454928 
L 513.722768 -449.848466 
L 513.636423 -449.242004 
L 513.494257 -448.635542 
L 513.451084 -448.02908 
L 513.069828 -447.422618 
L 512.642022 -446.816156 
L 512.614168 -446.209694 
L 512.312528 -445.603232 
L 511.809268 -444.99677 
L 511.790351 -444.390308 
L 510.845896 -443.783846 
L 510.781884 -443.177384 
L 510.643007 -442.570922 
L 510.308886 -441.96446 
L 510.268512 -441.357998 
L 510.24667 -440.751536 
L 510.092383 -440.145074 
L 509.950852 -439.538612 
L 509.858887 -438.93215 
L 509.729547 -438.325688 
L 509.319172 -437.719226 
L 509.291393 -437.112764 
L 509.137693 -436.506302 
L 509.101897 -435.89984 
L 508.934197 -435.293378 
L 508.803528 -434.686916 
L 508.642744 -434.080454 
L 508.602321 -433.473992 
L 508.260489 -432.86753 
L 508.112296 -432.261068 
L 508.029351 -431.654606 
L 507.827005 -431.048144 
L 507.758191 -430.441682 
L 507.719307 -429.83522 
L 507.675699 -429.228758 
L 506.338009 -428.622296 
L 506.242065 -428.015834 
L 506.122525 -427.409372 
L 505.778199 -426.80291 
L 505.516991 -426.196448 
L 505.393374 -425.589986 
L 505.365564 -424.983524 
L 505.109942 -424.377062 
L 504.956388 -423.7706 
L 504.741825 -423.164138 
L 504.612153 -422.557676 
L 503.970223 -421.951214 
L 503.956548 -421.344752 
L 503.93839 -420.73829 
L 503.921522 -420.131828 
L 503.827765 -419.525366 
L 503.574613 -418.918904 
L 503.310213 -418.312442 
L 502.839193 -417.70598 
L 502.818888 -417.099518 
L 502.786931 -416.493056 
L 502.568983 -415.886594 
L 502.154217 -415.280132 
L 501.042403 -414.67367 
L 500.42999 -414.067208 
L 500.121109 -413.460746 
L 500.087642 -412.854284 
L 499.666984 -412.247822 
L 499.566161 -411.64136 
L 499.384214 -411.034898 
L 499.207586 -410.428436 
L 499.084136 -409.821974 
L 498.457531 -409.215512 
L 497.662789 -408.60905 
L 497.511875 -408.002588 
L 497.269116 -407.396127 
L 497.015545 -406.789665 
L 496.773302 -406.183203 
L 496.515369 -405.576741 
L 496.306369 -404.970279 
L 495.810133 -404.363817 
L 495.430435 -403.757355 
L 495.356639 -403.150893 
L 495.266952 -402.544431 
L 495.097444 -401.937969 
L 495.072326 -401.331507 
L 494.645194 -400.725045 
L 494.448555 -400.118583 
L 494.290259 -399.512121 
L 493.380761 -398.905659 
L 493.341332 -398.299197 
L 492.770917 -397.692735 
L 492.12415 -397.086273 
L 491.891414 -396.479811 
L 491.803334 -395.873349 
L 491.610431 -395.266887 
L 490.430608 -394.660425 
L 490.117687 -394.053963 
L 489.775594 -393.447501 
L 489.076382 -392.841039 
L 489.020389 -392.234577 
L 488.858344 -391.628115 
L 487.925233 -391.021653 
L 487.851554 -390.415191 
L 487.683712 -389.808729 
L 487.635826 -389.202267 
L 487.361285 -388.595805 
L 486.336119 -387.989343 
L 486.315325 -387.382881 
L 485.580708 -386.776419 
L 485.427791 -386.169957 
L 485.326253 -385.563495 
L 485.231504 -384.957033 
L 485.157644 -384.350571 
L 485.137032 -383.744109 
L 483.856979 -383.137647 
L 483.251193 -382.531185 
L 479.37141 -381.924723 
L 479.164879 -381.318261 
L 477.559766 -380.711799 
L 477.440657 -380.105337 
L 477.354834 -379.498875 
L 477.017005 -378.892413 
L 476.349698 -378.285951 
L 475.708735 -377.679489 
L 475.095025 -377.073027 
L 472.108316 -376.466565 
L 471.591966 -375.860103 
L 469.040531 -375.253641 
L 467.620756 -374.647179 
L 465.400191 -374.040717 
L 458.968787 -373.434255 
L 457.547933 -372.827793 
L 455.630446 -372.221331 
L 448.693861 -371.614869 
z
" style="stroke: #ccf900; stroke-opacity: 0.7"/>
    </defs>
    <g clip-path="url(#p2b38d6f9ed)">
     <use xlink:href="#m6cff68b6fd" x="0" y="576" style="fill: #ccf900; fill-opacity: 0.7; stroke: #ccf900; stroke-opacity: 0.7"/>
    </g>
   </g>
   <g id="PolyCollection_10">
    <defs>
     <path id="m68382a6c71" d="M 469.136641 -499.578349 
L 367.896094 -499.578349 
L 367.896094 -500.184811 
L 367.896094 -500.791273 
L 367.896094 -501.397735 
L 367.896094 -502.004197 
L 367.896094 -502.610659 
L 367.896094 -503.217121 
L 367.896094 -503.823583 
L 367.896094 -504.430045 
L 367.896094 -505.036507 
L 367.896094 -505.642969 
L 367.896094 -506.249431 
L 367.896094 -506.855893 
L 367.896094 -507.462355 
L 367.896094 -508.068817 
L 367.896094 -508.675279 
L 367.896094 -509.281741 
L 367.896094 -509.888203 
L 367.896094 -510.494665 
L 367.896094 -511.101127 
L 367.896094 -511.707589 
L 367.896094 -512.314051 
L 367.896094 -512.920513 
L 367.896094 -513.526975 
L 367.896094 -514.133437 
L 367.896094 -514.739899 
L 367.896094 -515.346361 
L 367.896094 -515.952823 
L 367.896094 -516.559285 
L 367.896094 -517.165747 
L 367.896094 -517.772209 
L 367.896094 -518.378671 
L 367.896094 -518.985133 
L 367.896094 -519.591595 
L 367.896094 -520.198057 
L 367.896094 -520.804519 
L 367.896094 -521.410981 
L 367.896094 -522.017443 
L 367.896094 -522.623905 
L 367.896094 -523.230367 
L 367.896094 -523.836829 
L 367.896094 -524.443291 
L 367.896094 -525.049753 
L 367.896094 -525.656215 
L 585.261986 -525.656215 
L 585.261986 -525.656215 
L 585.094802 -525.049753 
L 584.754628 -524.443291 
L 584.725162 -523.836829 
L 584.686021 -523.230367 
L 584.485816 -522.623905 
L 584.355918 -522.017443 
L 583.963017 -521.410981 
L 583.868606 -520.804519 
L 583.542993 -520.198057 
L 583.408956 -519.591595 
L 582.655914 -518.985133 
L 570.920038 -518.378671 
L 570.690601 -517.772209 
L 570.642159 -517.165747 
L 570.451569 -516.559285 
L 570.419277 -515.952823 
L 570.31316 -515.346361 
L 570.058353 -514.739899 
L 569.946492 -514.133437 
L 549.573088 -513.526975 
L 549.496727 -512.920513 
L 549.274291 -512.314051 
L 548.884264 -511.707589 
L 548.244429 -511.101127 
L 539.819855 -510.494665 
L 539.21131 -509.888203 
L 538.864127 -509.281741 
L 538.554896 -508.675279 
L 537.469518 -508.068817 
L 534.878064 -507.462355 
L 534.051035 -506.855893 
L 533.875854 -506.249431 
L 533.416084 -505.642969 
L 524.923984 -505.036507 
L 522.438815 -504.430045 
L 507.03632 -503.823583 
L 503.141477 -503.217121 
L 503.048162 -502.610659 
L 489.735599 -502.004197 
L 488.933454 -501.397735 
L 481.208603 -500.791273 
L 476.623183 -500.184811 
L 469.136641 -499.578349 
z
" style="stroke: #ffc900; stroke-opacity: 0.7"/>
    </defs>
    <g clip-path="url(#p2b38d6f9ed)">
     <use xlink:href="#m68382a6c71" x="0" y="576" style="fill: #ffc900; fill-opacity: 0.7; stroke: #ffc900; stroke-opacity: 0.7"/>
    </g>
   </g>
   <g id="PolyCollection_11">
    <defs>
     <path id="m5b64b55ced" d="M 541.156018 -532.327297 
L 367.896094 -532.327297 
L 367.896094 -532.933759 
L 367.896094 -533.540221 
L 367.896094 -534.146683 
L 367.896094 -534.753145 
L 367.896094 -535.359607 
L 367.896094 -535.966069 
L 367.896094 -536.572531 
L 367.896094 -537.178993 
L 583.884204 -537.178993 
L 583.884204 -537.178993 
L 583.268068 -536.572531 
L 573.52569 -535.966069 
L 560.753975 -535.359607 
L 558.4993 -534.753145 
L 557.160064 -534.146683 
L 546.194482 -533.540221 
L 542.25109 -532.933759 
L 541.156018 -532.327297 
z
" style="stroke: #ff2d00; stroke-opacity: 0.7"/>
    </defs>
    <g clip-path="url(#p2b38d6f9ed)">
     <use xlink:href="#m5b64b55ced" x="0" y="576" style="fill: #ff2d00; fill-opacity: 0.7; stroke: #ff2d00; stroke-opacity: 0.7"/>
    </g>
   </g>
   <g id="PolyCollection_12">
    <defs>
     <path id="m25dfc0096b" d="M 578.22067 -543.850075 
L 367.896094 -543.850075 
L 367.896094 -544.456537 
L 367.896094 -545.062999 
L 631.530207 -545.062999 
L 631.530207 -545.062999 
L 631.153337 -544.456537 
L 578.22067 -543.850075 
z
" style="stroke: #d70000; stroke-opacity: 0.7"/>
    </defs>
    <g clip-path="url(#p2b38d6f9ed)">
     <use xlink:href="#m25dfc0096b" x="0" y="576" style="fill: #d70000; fill-opacity: 0.7; stroke: #d70000; stroke-opacity: 0.7"/>
    </g>
   </g>
   <g id="matplotlib.axis_1">
    <g id="xtick_1">
     <g id="line2d_1">
      <defs>
       <path id="m45f19059bc" d="M 0 0 
L 0 3.5 
" style="stroke: #000000; stroke-width: 0.8"/>
      </defs>
      <g>
       <use xlink:href="#m45f19059bc" x="42.495313" y="510.648438" style="stroke: #000000; stroke-width: 0.8"/>
      </g>
     </g>
     <g id="text_1">
      <!-- −1.0 -->
      <g transform="translate(18.2125 532.845312) scale(0.2 -0.2)">
       <defs>
        <path id="DejaVuSans-2212" d="M 678 2272 
L 4684 2272 
L 4684 1741 
L 678 1741 
L 678 2272 
z
" transform="scale(0.015625)"/>
        <path id="DejaVuSans-31" d="M 794 531 
L 1825 531 
L 1825 4091 
L 703 3866 
L 703 4441 
L 1819 4666 
L 2450 4666 
L 2450 531 
L 3481 531 
L 3481 0 
L 794 0 
L 794 531 
z
" transform="scale(0.015625)"/>
        <path id="DejaVuSans-2e" d="M 684 794 
L 1344 794 
L 1344 0 
L 684 0 
L 684 794 
z
" transform="scale(0.015625)"/>
        <path id="DejaVuSans-30" d="M 2034 4250 
Q 1547 4250 1301 3770 
Q 1056 3291 1056 2328 
Q 1056 1369 1301 889 
Q 1547 409 2034 409 
Q 2525 409 2770 889 
Q 3016 1369 3016 2328 
Q 3016 3291 2770 3770 
Q 2525 4250 2034 4250 
z
M 2034 4750 
Q 2819 4750 3233 4129 
Q 3647 3509 3647 2328 
Q 3647 1150 3233 529 
Q 2819 -91 2034 -91 
Q 1250 -91 836 529 
Q 422 1150 422 2328 
Q 422 3509 836 4129 
Q 1250 4750 2034 4750 
z
" transform="scale(0.015625)"/>
       </defs>
       <use xlink:href="#DejaVuSans-2212"/>
       <use xlink:href="#DejaVuSans-31" x="83.789062"/>
       <use xlink:href="#DejaVuSans-2e" x="147.412109"/>
       <use xlink:href="#DejaVuSans-30" x="179.199219"/>
      </g>
     </g>
    </g>
    <g id="xtick_2">
     <g id="line2d_2">
      <g>
       <use xlink:href="#m45f19059bc" x="107.575469" y="510.648438" style="stroke: #000000; stroke-width: 0.8"/>
      </g>
     </g>
     <g id="text_2">
      <!-- −0.8 -->
      <g transform="translate(83.292656 532.845312) scale(0.2 -0.2)">
       <defs>
        <path id="DejaVuSans-38" d="M 2034 2216 
Q 1584 2216 1326 1975 
Q 1069 1734 1069 1313 
Q 1069 891 1326 650 
Q 1584 409 2034 409 
Q 2484 409 2743 651 
Q 3003 894 3003 1313 
Q 3003 1734 2745 1975 
Q 2488 2216 2034 2216 
z
M 1403 2484 
Q 997 2584 770 2862 
Q 544 3141 544 3541 
Q 544 4100 942 4425 
Q 1341 4750 2034 4750 
Q 2731 4750 3128 4425 
Q 3525 4100 3525 3541 
Q 3525 3141 3298 2862 
Q 3072 2584 2669 2484 
Q 3125 2378 3379 2068 
Q 3634 1759 3634 1313 
Q 3634 634 3220 271 
Q 2806 -91 2034 -91 
Q 1263 -91 848 271 
Q 434 634 434 1313 
Q 434 1759 690 2068 
Q 947 2378 1403 2484 
z
M 1172 3481 
Q 1172 3119 1398 2916 
Q 1625 2713 2034 2713 
Q 2441 2713 2670 2916 
Q 2900 3119 2900 3481 
Q 2900 3844 2670 4047 
Q 2441 4250 2034 4250 
Q 1625 4250 1398 4047 
Q 1172 3844 1172 3481 
z
" transform="scale(0.015625)"/>
       </defs>
       <use xlink:href="#DejaVuSans-2212"/>
       <use xlink:href="#DejaVuSans-30" x="83.789062"/>
       <use xlink:href="#DejaVuSans-2e" x="147.412109"/>
       <use xlink:href="#DejaVuSans-38" x="179.199219"/>
      </g>
     </g>
    </g>
    <g id="xtick_3">
     <g id="line2d_3">
      <g>
       <use xlink:href="#m45f19059bc" x="172.655625" y="510.648438" style="stroke: #000000; stroke-width: 0.8"/>
      </g>
     </g>
     <g id="text_3">
      <!-- −0.6 -->
      <g transform="translate(148.372813 532.845312) scale(0.2 -0.2)">
       <defs>
        <path id="DejaVuSans-36" d="M 2113 2584 
Q 1688 2584 1439 2293 
Q 1191 2003 1191 1497 
Q 1191 994 1439 701 
Q 1688 409 2113 409 
Q 2538 409 2786 701 
Q 3034 994 3034 1497 
Q 3034 2003 2786 2293 
Q 2538 2584 2113 2584 
z
M 3366 4563 
L 3366 3988 
Q 3128 4100 2886 4159 
Q 2644 4219 2406 4219 
Q 1781 4219 1451 3797 
Q 1122 3375 1075 2522 
Q 1259 2794 1537 2939 
Q 1816 3084 2150 3084 
Q 2853 3084 3261 2657 
Q 3669 2231 3669 1497 
Q 3669 778 3244 343 
Q 2819 -91 2113 -91 
Q 1303 -91 875 529 
Q 447 1150 447 2328 
Q 447 3434 972 4092 
Q 1497 4750 2381 4750 
Q 2619 4750 2861 4703 
Q 3103 4656 3366 4563 
z
" transform="scale(0.015625)"/>
       </defs>
       <use xlink:href="#DejaVuSans-2212"/>
       <use xlink:href="#DejaVuSans-30" x="83.789062"/>
       <use xlink:href="#DejaVuSans-2e" x="147.412109"/>
       <use xlink:href="#DejaVuSans-36" x="179.199219"/>
      </g>
     </g>
    </g>
    <g id="xtick_4">
     <g id="line2d_4">
      <g>
       <use xlink:href="#m45f19059bc" x="237.735781" y="510.648438" style="stroke: #000000; stroke-width: 0.8"/>
      </g>
     </g>
     <g id="text_4">
      <!-- −0.4 -->
      <g transform="translate(213.452969 532.845312) scale(0.2 -0.2)">
       <defs>
        <path id="DejaVuSans-34" d="M 2419 4116 
L 825 1625 
L 2419 1625 
L 2419 4116 
z
M 2253 4666 
L 3047 4666 
L 3047 1625 
L 3713 1625 
L 3713 1100 
L 3047 1100 
L 3047 0 
L 2419 0 
L 2419 1100 
L 313 1100 
L 313 1709 
L 2253 4666 
z
" transform="scale(0.015625)"/>
       </defs>
       <use xlink:href="#DejaVuSans-2212"/>
       <use xlink:href="#DejaVuSans-30" x="83.789062"/>
       <use xlink:href="#DejaVuSans-2e" x="147.412109"/>
       <use xlink:href="#DejaVuSans-34" x="179.199219"/>
      </g>
     </g>
    </g>
    <g id="xtick_5">
     <g id="line2d_5">
      <g>
       <use xlink:href="#m45f19059bc" x="302.815937" y="510.648438" style="stroke: #000000; stroke-width: 0.8"/>
      </g>
     </g>
     <g id="text_5">
      <!-- −0.2 -->
      <g transform="translate(278.533125 532.845312) scale(0.2 -0.2)">
       <defs>
        <path id="DejaVuSans-32" d="M 1228 531 
L 3431 531 
L 3431 0 
L 469 0 
L 469 531 
Q 828 903 1448 1529 
Q 2069 2156 2228 2338 
Q 2531 2678 2651 2914 
Q 2772 3150 2772 3378 
Q 2772 3750 2511 3984 
Q 2250 4219 1831 4219 
Q 1534 4219 1204 4116 
Q 875 4013 500 3803 
L 500 4441 
Q 881 4594 1212 4672 
Q 1544 4750 1819 4750 
Q 2544 4750 2975 4387 
Q 3406 4025 3406 3419 
Q 3406 3131 3298 2873 
Q 3191 2616 2906 2266 
Q 2828 2175 2409 1742 
Q 1991 1309 1228 531 
z
" transform="scale(0.015625)"/>
       </defs>
       <use xlink:href="#DejaVuSans-2212"/>
       <use xlink:href="#DejaVuSans-30" x="83.789062"/>
       <use xlink:href="#DejaVuSans-2e" x="147.412109"/>
       <use xlink:href="#DejaVuSans-32" x="179.199219"/>
      </g>
     </g>
    </g>
    <g id="xtick_6">
     <g id="line2d_6">
      <g>
       <use xlink:href="#m45f19059bc" x="367.896094" y="510.648438" style="stroke: #000000; stroke-width: 0.8"/>
      </g>
     </g>
     <g id="text_6">
      <!-- 0.0 -->
      <g transform="translate(351.992969 532.845312) scale(0.2 -0.2)">
       <use xlink:href="#DejaVuSans-30"/>
       <use xlink:href="#DejaVuSans-2e" x="63.623047"/>
       <use xlink:href="#DejaVuSans-30" x="95.410156"/>
      </g>
     </g>
    </g>
    <g id="xtick_7">
     <g id="line2d_7">
      <g>
       <use xlink:href="#m45f19059bc" x="432.97625" y="510.648438" style="stroke: #000000; stroke-width: 0.8"/>
      </g>
     </g>
     <g id="text_7">
      <!-- 0.2 -->
      <g transform="translate(417.073125 532.845312) scale(0.2 -0.2)">
       <use xlink:href="#DejaVuSans-30"/>
       <use xlink:href="#DejaVuSans-2e" x="63.623047"/>
       <use xlink:href="#DejaVuSans-32" x="95.410156"/>
      </g>
     </g>
    </g>
    <g id="xtick_8">
     <g id="line2d_8">
      <g>
       <use xlink:href="#m45f19059bc" x="498.056406" y="510.648438" style="stroke: #000000; stroke-width: 0.8"/>
      </g>
     </g>
     <g id="text_8">
      <!-- 0.4 -->
      <g transform="translate(482.153281 532.845312) scale(0.2 -0.2)">
       <use xlink:href="#DejaVuSans-30"/>
       <use xlink:href="#DejaVuSans-2e" x="63.623047"/>
       <use xlink:href="#DejaVuSans-34" x="95.410156"/>
      </g>
     </g>
    </g>
    <g id="xtick_9">
     <g id="line2d_9">
      <g>
       <use xlink:href="#m45f19059bc" x="563.136562" y="510.648438" style="stroke: #000000; stroke-width: 0.8"/>
      </g>
     </g>
     <g id="text_9">
      <!-- 0.6 -->
      <g transform="translate(547.233437 532.845312) scale(0.2 -0.2)">
       <use xlink:href="#DejaVuSans-30"/>
       <use xlink:href="#DejaVuSans-2e" x="63.623047"/>
       <use xlink:href="#DejaVuSans-36" x="95.410156"/>
      </g>
     </g>
    </g>
    <g id="xtick_10">
     <g id="line2d_10">
      <g>
       <use xlink:href="#m45f19059bc" x="628.216719" y="510.648438" style="stroke: #000000; stroke-width: 0.8"/>
      </g>
     </g>
     <g id="text_10">
      <!-- 0.8 -->
      <g transform="translate(612.313594 532.845312) scale(0.2 -0.2)">
       <use xlink:href="#DejaVuSans-30"/>
       <use xlink:href="#DejaVuSans-2e" x="63.623047"/>
       <use xlink:href="#DejaVuSans-38" x="95.410156"/>
      </g>
     </g>
    </g>
    <g id="xtick_11">
     <g id="line2d_11">
      <g>
       <use xlink:href="#m45f19059bc" x="693.296875" y="510.648438" style="stroke: #000000; stroke-width: 0.8"/>
      </g>
     </g>
     <g id="text_11">
      <!-- 1.0 -->
      <g transform="translate(677.39375 532.845312) scale(0.2 -0.2)">
       <use xlink:href="#DejaVuSans-31"/>
       <use xlink:href="#DejaVuSans-2e" x="63.623047"/>
       <use xlink:href="#DejaVuSans-30" x="95.410156"/>
      </g>
     </g>
    </g>
    <g id="text_12">
     <!-- Silhouette coefficient -->
     <g transform="translate(235.021094 560.000781) scale(0.25 -0.25)">
      <defs>
       <path id="DejaVuSans-53" d="M 3425 4513 
L 3425 3897 
Q 3066 4069 2747 4153 
Q 2428 4238 2131 4238 
Q 1616 4238 1336 4038 
Q 1056 3838 1056 3469 
Q 1056 3159 1242 3001 
Q 1428 2844 1947 2747 
L 2328 2669 
Q 3034 2534 3370 2195 
Q 3706 1856 3706 1288 
Q 3706 609 3251 259 
Q 2797 -91 1919 -91 
Q 1588 -91 1214 -16 
Q 841 59 441 206 
L 441 856 
Q 825 641 1194 531 
Q 1563 422 1919 422 
Q 2459 422 2753 634 
Q 3047 847 3047 1241 
Q 3047 1584 2836 1778 
Q 2625 1972 2144 2069 
L 1759 2144 
Q 1053 2284 737 2584 
Q 422 2884 422 3419 
Q 422 4038 858 4394 
Q 1294 4750 2059 4750 
Q 2388 4750 2728 4690 
Q 3069 4631 3425 4513 
z
" transform="scale(0.015625)"/>
       <path id="DejaVuSans-69" d="M 603 3500 
L 1178 3500 
L 1178 0 
L 603 0 
L 603 3500 
z
M 603 4863 
L 1178 4863 
L 1178 4134 
L 603 4134 
L 603 4863 
z
" transform="scale(0.015625)"/>
       <path id="DejaVuSans-6c" d="M 603 4863 
L 1178 4863 
L 1178 0 
L 603 0 
L 603 4863 
z
" transform="scale(0.015625)"/>
       <path id="DejaVuSans-68" d="M 3513 2113 
L 3513 0 
L 2938 0 
L 2938 2094 
Q 2938 2591 2744 2837 
Q 2550 3084 2163 3084 
Q 1697 3084 1428 2787 
Q 1159 2491 1159 1978 
L 1159 0 
L 581 0 
L 581 4863 
L 1159 4863 
L 1159 2956 
Q 1366 3272 1645 3428 
Q 1925 3584 2291 3584 
Q 2894 3584 3203 3211 
Q 3513 2838 3513 2113 
z
" transform="scale(0.015625)"/>
       <path id="DejaVuSans-6f" d="M 1959 3097 
Q 1497 3097 1228 2736 
Q 959 2375 959 1747 
Q 959 1119 1226 758 
Q 1494 397 1959 397 
Q 2419 397 2687 759 
Q 2956 1122 2956 1747 
Q 2956 2369 2687 2733 
Q 2419 3097 1959 3097 
z
M 1959 3584 
Q 2709 3584 3137 3096 
Q 3566 2609 3566 1747 
Q 3566 888 3137 398 
Q 2709 -91 1959 -91 
Q 1206 -91 779 398 
Q 353 888 353 1747 
Q 353 2609 779 3096 
Q 1206 3584 1959 3584 
z
" transform="scale(0.015625)"/>
       <path id="DejaVuSans-75" d="M 544 1381 
L 544 3500 
L 1119 3500 
L 1119 1403 
Q 1119 906 1312 657 
Q 1506 409 1894 409 
Q 2359 409 2629 706 
Q 2900 1003 2900 1516 
L 2900 3500 
L 3475 3500 
L 3475 0 
L 2900 0 
L 2900 538 
Q 2691 219 2414 64 
Q 2138 -91 1772 -91 
Q 1169 -91 856 284 
Q 544 659 544 1381 
z
M 1991 3584 
L 1991 3584 
z
" transform="scale(0.015625)"/>
       <path id="DejaVuSans-65" d="M 3597 1894 
L 3597 1613 
L 953 1613 
Q 991 1019 1311 708 
Q 1631 397 2203 397 
Q 2534 397 2845 478 
Q 3156 559 3463 722 
L 3463 178 
Q 3153 47 2828 -22 
Q 2503 -91 2169 -91 
Q 1331 -91 842 396 
Q 353 884 353 1716 
Q 353 2575 817 3079 
Q 1281 3584 2069 3584 
Q 2775 3584 3186 3129 
Q 3597 2675 3597 1894 
z
M 3022 2063 
Q 3016 2534 2758 2815 
Q 2500 3097 2075 3097 
Q 1594 3097 1305 2825 
Q 1016 2553 972 2059 
L 3022 2063 
z
" transform="scale(0.015625)"/>
       <path id="DejaVuSans-74" d="M 1172 4494 
L 1172 3500 
L 2356 3500 
L 2356 3053 
L 1172 3053 
L 1172 1153 
Q 1172 725 1289 603 
Q 1406 481 1766 481 
L 2356 481 
L 2356 0 
L 1766 0 
Q 1100 0 847 248 
Q 594 497 594 1153 
L 594 3053 
L 172 3053 
L 172 3500 
L 594 3500 
L 594 4494 
L 1172 4494 
z
" transform="scale(0.015625)"/>
       <path id="DejaVuSans-20" transform="scale(0.015625)"/>
       <path id="DejaVuSans-63" d="M 3122 3366 
L 3122 2828 
Q 2878 2963 2633 3030 
Q 2388 3097 2138 3097 
Q 1578 3097 1268 2742 
Q 959 2388 959 1747 
Q 959 1106 1268 751 
Q 1578 397 2138 397 
Q 2388 397 2633 464 
Q 2878 531 3122 666 
L 3122 134 
Q 2881 22 2623 -34 
Q 2366 -91 2075 -91 
Q 1284 -91 818 406 
Q 353 903 353 1747 
Q 353 2603 823 3093 
Q 1294 3584 2113 3584 
Q 2378 3584 2631 3529 
Q 2884 3475 3122 3366 
z
" transform="scale(0.015625)"/>
       <path id="DejaVuSans-66" d="M 2375 4863 
L 2375 4384 
L 1825 4384 
Q 1516 4384 1395 4259 
Q 1275 4134 1275 3809 
L 1275 3500 
L 2222 3500 
L 2222 3053 
L 1275 3053 
L 1275 0 
L 697 0 
L 697 3053 
L 147 3053 
L 147 3500 
L 697 3500 
L 697 3744 
Q 697 4328 969 4595 
Q 1241 4863 1831 4863 
L 2375 4863 
z
" transform="scale(0.015625)"/>
       <path id="DejaVuSans-6e" d="M 3513 2113 
L 3513 0 
L 2938 0 
L 2938 2094 
Q 2938 2591 2744 2837 
Q 2550 3084 2163 3084 
Q 1697 3084 1428 2787 
Q 1159 2491 1159 1978 
L 1159 0 
L 581 0 
L 581 3500 
L 1159 3500 
L 1159 2956 
Q 1366 3272 1645 3428 
Q 1925 3584 2291 3584 
Q 2894 3584 3203 3211 
Q 3513 2838 3513 2113 
z
" transform="scale(0.015625)"/>
      </defs>
      <use xlink:href="#DejaVuSans-53"/>
      <use xlink:href="#DejaVuSans-69" x="63.476562"/>
      <use xlink:href="#DejaVuSans-6c" x="91.259766"/>
      <use xlink:href="#DejaVuSans-68" x="119.042969"/>
      <use xlink:href="#DejaVuSans-6f" x="182.421875"/>
      <use xlink:href="#DejaVuSans-75" x="243.603516"/>
      <use xlink:href="#DejaVuSans-65" x="306.982422"/>
      <use xlink:href="#DejaVuSans-74" x="368.505859"/>
      <use xlink:href="#DejaVuSans-74" x="407.714844"/>
      <use xlink:href="#DejaVuSans-65" x="446.923828"/>
      <use xlink:href="#DejaVuSans-20" x="508.447266"/>
      <use xlink:href="#DejaVuSans-63" x="540.234375"/>
      <use xlink:href="#DejaVuSans-6f" x="595.214844"/>
      <use xlink:href="#DejaVuSans-65" x="656.396484"/>
      <use xlink:href="#DejaVuSans-66" x="717.919922"/>
      <use xlink:href="#DejaVuSans-66" x="753.125"/>
      <use xlink:href="#DejaVuSans-69" x="788.330078"/>
      <use xlink:href="#DejaVuSans-63" x="816.113281"/>
      <use xlink:href="#DejaVuSans-69" x="871.09375"/>
      <use xlink:href="#DejaVuSans-65" x="898.876953"/>
      <use xlink:href="#DejaVuSans-6e" x="960.400391"/>
      <use xlink:href="#DejaVuSans-74" x="1023.779297"/>
     </g>
    </g>
   </g>
   <g id="matplotlib.axis_2">
    <g id="text_13">
     <!-- Predicted label -->
     <g transform="translate(29.796094 360.338038) rotate(-90) scale(0.25 -0.25)">
      <defs>
       <path id="DejaVuSans-50" d="M 1259 4147 
L 1259 2394 
L 2053 2394 
Q 2494 2394 2734 2622 
Q 2975 2850 2975 3272 
Q 2975 3691 2734 3919 
Q 2494 4147 2053 4147 
L 1259 4147 
z
M 628 4666 
L 2053 4666 
Q 2838 4666 3239 4311 
Q 3641 3956 3641 3272 
Q 3641 2581 3239 2228 
Q 2838 1875 2053 1875 
L 1259 1875 
L 1259 0 
L 628 0 
L 628 4666 
z
" transform="scale(0.015625)"/>
       <path id="DejaVuSans-72" d="M 2631 2963 
Q 2534 3019 2420 3045 
Q 2306 3072 2169 3072 
Q 1681 3072 1420 2755 
Q 1159 2438 1159 1844 
L 1159 0 
L 581 0 
L 581 3500 
L 1159 3500 
L 1159 2956 
Q 1341 3275 1631 3429 
Q 1922 3584 2338 3584 
Q 2397 3584 2469 3576 
Q 2541 3569 2628 3553 
L 2631 2963 
z
" transform="scale(0.015625)"/>
       <path id="DejaVuSans-64" d="M 2906 2969 
L 2906 4863 
L 3481 4863 
L 3481 0 
L 2906 0 
L 2906 525 
Q 2725 213 2448 61 
Q 2172 -91 1784 -91 
Q 1150 -91 751 415 
Q 353 922 353 1747 
Q 353 2572 751 3078 
Q 1150 3584 1784 3584 
Q 2172 3584 2448 3432 
Q 2725 3281 2906 2969 
z
M 947 1747 
Q 947 1113 1208 752 
Q 1469 391 1925 391 
Q 2381 391 2643 752 
Q 2906 1113 2906 1747 
Q 2906 2381 2643 2742 
Q 2381 3103 1925 3103 
Q 1469 3103 1208 2742 
Q 947 2381 947 1747 
z
" transform="scale(0.015625)"/>
       <path id="DejaVuSans-61" d="M 2194 1759 
Q 1497 1759 1228 1600 
Q 959 1441 959 1056 
Q 959 750 1161 570 
Q 1363 391 1709 391 
Q 2188 391 2477 730 
Q 2766 1069 2766 1631 
L 2766 1759 
L 2194 1759 
z
M 3341 1997 
L 3341 0 
L 2766 0 
L 2766 531 
Q 2569 213 2275 61 
Q 1981 -91 1556 -91 
Q 1019 -91 701 211 
Q 384 513 384 1019 
Q 384 1609 779 1909 
Q 1175 2209 1959 2209 
L 2766 2209 
L 2766 2266 
Q 2766 2663 2505 2880 
Q 2244 3097 1772 3097 
Q 1472 3097 1187 3025 
Q 903 2953 641 2809 
L 641 3341 
Q 956 3463 1253 3523 
Q 1550 3584 1831 3584 
Q 2591 3584 2966 3190 
Q 3341 2797 3341 1997 
z
" transform="scale(0.015625)"/>
       <path id="DejaVuSans-62" d="M 3116 1747 
Q 3116 2381 2855 2742 
Q 2594 3103 2138 3103 
Q 1681 3103 1420 2742 
Q 1159 2381 1159 1747 
Q 1159 1113 1420 752 
Q 1681 391 2138 391 
Q 2594 391 2855 752 
Q 3116 1113 3116 1747 
z
M 1159 2969 
Q 1341 3281 1617 3432 
Q 1894 3584 2278 3584 
Q 2916 3584 3314 3078 
Q 3713 2572 3713 1747 
Q 3713 922 3314 415 
Q 2916 -91 2278 -91 
Q 1894 -91 1617 61 
Q 1341 213 1159 525 
L 1159 0 
L 581 0 
L 581 4863 
L 1159 4863 
L 1159 2969 
z
" transform="scale(0.015625)"/>
      </defs>
      <use xlink:href="#DejaVuSans-50"/>
      <use xlink:href="#DejaVuSans-72" x="58.552734"/>
      <use xlink:href="#DejaVuSans-65" x="97.416016"/>
      <use xlink:href="#DejaVuSans-64" x="158.939453"/>
      <use xlink:href="#DejaVuSans-69" x="222.416016"/>
      <use xlink:href="#DejaVuSans-63" x="250.199219"/>
      <use xlink:href="#DejaVuSans-74" x="305.179688"/>
      <use xlink:href="#DejaVuSans-65" x="344.388672"/>
      <use xlink:href="#DejaVuSans-64" x="405.912109"/>
      <use xlink:href="#DejaVuSans-20" x="469.388672"/>
      <use xlink:href="#DejaVuSans-6c" x="501.175781"/>
      <use xlink:href="#DejaVuSans-61" x="528.958984"/>
      <use xlink:href="#DejaVuSans-62" x="590.238281"/>
      <use xlink:href="#DejaVuSans-65" x="653.714844"/>
      <use xlink:href="#DejaVuSans-6c" x="715.238281"/>
     </g>
    </g>
   </g>
   <g id="line2d_12">
    <path d="M 486.255839 510.648438 
L 486.255839 24.265919 
" clip-path="url(#p2b38d6f9ed)" style="fill: none; stroke: #ff0000; stroke-width: 4; stroke-linecap: square"/>
   </g>
   <g id="patch_3">
    <path d="M 42.495313 510.648438 
L 42.495313 24.265919 
" style="fill: none; stroke: #000000; stroke-width: 0.8; stroke-linejoin: miter; stroke-linecap: square"/>
   </g>
   <g id="patch_4">
    <path d="M 693.296875 510.648438 
L 693.296875 24.265919 
" style="fill: none; stroke: #000000; stroke-width: 0.8; stroke-linejoin: miter; stroke-linecap: square"/>
   </g>
   <g id="patch_5">
    <path d="M 42.495313 510.648438 
L 693.296875 510.648438 
" style="fill: none; stroke: #000000; stroke-width: 0.8; stroke-linejoin: miter; stroke-linecap: square"/>
   </g>
   <g id="patch_6">
    <path d="M 42.495313 24.265919 
L 693.296875 24.265919 
" style="fill: none; stroke: #000000; stroke-width: 0.8; stroke-linejoin: miter; stroke-linecap: square"/>
   </g>
   <g id="text_14">
    <!-- 0 -->
    <g transform="translate(351.626055 477.596259) scale(0.25 -0.25)">
     <use xlink:href="#DejaVuSans-30"/>
    </g>
   </g>
   <g id="text_15">
    <!-- 1 -->
    <g transform="translate(351.626055 410.582209) scale(0.25 -0.25)">
     <use xlink:href="#DejaVuSans-31"/>
    </g>
   </g>
   <g id="text_16">
    <!-- 2 -->
    <g transform="translate(351.626055 367.826638) scale(0.25 -0.25)">
     <use xlink:href="#DejaVuSans-32"/>
    </g>
   </g>
   <g id="text_17">
    <!-- 3 -->
    <g transform="translate(351.626055 354.787705) scale(0.25 -0.25)">
     <defs>
      <path id="DejaVuSans-33" d="M 2597 2516 
Q 3050 2419 3304 2112 
Q 3559 1806 3559 1356 
Q 3559 666 3084 287 
Q 2609 -91 1734 -91 
Q 1441 -91 1130 -33 
Q 819 25 488 141 
L 488 750 
Q 750 597 1062 519 
Q 1375 441 1716 441 
Q 2309 441 2620 675 
Q 2931 909 2931 1356 
Q 2931 1769 2642 2001 
Q 2353 2234 1838 2234 
L 1294 2234 
L 1294 2753 
L 1863 2753 
Q 2328 2753 2575 2939 
Q 2822 3125 2822 3475 
Q 2822 3834 2567 4026 
Q 2313 4219 1838 4219 
Q 1578 4219 1281 4162 
Q 984 4106 628 3988 
L 628 4550 
Q 988 4650 1302 4700 
Q 1616 4750 1894 4750 
Q 2613 4750 3031 4423 
Q 3450 4097 3450 3541 
Q 3450 3153 3228 2886 
Q 3006 2619 2597 2516 
z
" transform="scale(0.015625)"/>
     </defs>
     <use xlink:href="#DejaVuSans-33"/>
    </g>
   </g>
   <g id="text_18">
    <!-- 4 -->
    <g transform="translate(351.626055 318.096755) scale(0.25 -0.25)">
     <use xlink:href="#DejaVuSans-34"/>
    </g>
   </g>
   <g id="text_19">
    <!-- 5 -->
    <g transform="translate(351.626055 262.605482) scale(0.25 -0.25)">
     <defs>
      <path id="DejaVuSans-35" d="M 691 4666 
L 3169 4666 
L 3169 4134 
L 1269 4134 
L 1269 2991 
Q 1406 3038 1543 3061 
Q 1681 3084 1819 3084 
Q 2600 3084 3056 2656 
Q 3513 2228 3513 1497 
Q 3513 744 3044 326 
Q 2575 -91 1722 -91 
Q 1428 -91 1123 -41 
Q 819 9 494 109 
L 494 744 
Q 775 591 1075 516 
Q 1375 441 1709 441 
Q 2250 441 2565 725 
Q 2881 1009 2881 1497 
Q 2881 1984 2565 2268 
Q 2250 2553 1709 2553 
Q 1456 2553 1204 2497 
Q 953 2441 691 2322 
L 691 4666 
z
" transform="scale(0.015625)"/>
     </defs>
     <use xlink:href="#DejaVuSans-35"/>
    </g>
   </g>
   <g id="text_20">
    <!-- 6 -->
    <g transform="translate(351.626055 227.430687) scale(0.25 -0.25)">
     <use xlink:href="#DejaVuSans-36"/>
    </g>
   </g>
   <g id="text_21">
    <!-- 7 -->
    <g transform="translate(351.626055 212.875599) scale(0.25 -0.25)">
     <defs>
      <path id="DejaVuSans-37" d="M 525 4666 
L 3525 4666 
L 3525 4397 
L 1831 0 
L 1172 0 
L 2766 4134 
L 525 4134 
L 525 4666 
z
" transform="scale(0.015625)"/>
     </defs>
     <use xlink:href="#DejaVuSans-37"/>
    </g>
   </g>
   <g id="text_22">
    <!-- 8 -->
    <g transform="translate(351.626055 143.435701) scale(0.25 -0.25)">
     <use xlink:href="#DejaVuSans-38"/>
    </g>
   </g>
   <g id="text_23">
    <!-- 9 -->
    <g transform="translate(351.626055 63.079487) scale(0.25 -0.25)">
     <defs>
      <path id="DejaVuSans-39" d="M 703 97 
L 703 672 
Q 941 559 1184 500 
Q 1428 441 1663 441 
Q 2288 441 2617 861 
Q 2947 1281 2994 2138 
Q 2813 1869 2534 1725 
Q 2256 1581 1919 1581 
Q 1219 1581 811 2004 
Q 403 2428 403 3163 
Q 403 3881 828 4315 
Q 1253 4750 1959 4750 
Q 2769 4750 3195 4129 
Q 3622 3509 3622 2328 
Q 3622 1225 3098 567 
Q 2575 -91 1691 -91 
Q 1453 -91 1209 -44 
Q 966 3 703 97 
z
M 1959 2075 
Q 2384 2075 2632 2365 
Q 2881 2656 2881 3163 
Q 2881 3666 2632 3958 
Q 2384 4250 1959 4250 
Q 1534 4250 1286 3958 
Q 1038 3666 1038 3163 
Q 1038 2656 1286 2365 
Q 1534 2075 1959 2075 
z
" transform="scale(0.015625)"/>
     </defs>
     <use xlink:href="#DejaVuSans-39"/>
    </g>
   </g>
   <g id="text_24">
    <!-- 10 -->
    <g transform="translate(351.626055 40.943624) scale(0.25 -0.25)">
     <use xlink:href="#DejaVuSans-31"/>
     <use xlink:href="#DejaVuSans-30" x="63.623047"/>
    </g>
   </g>
   <g id="text_25">
    <!-- 11 -->
    <g transform="translate(351.626055 31.240232) scale(0.25 -0.25)">
     <use xlink:href="#DejaVuSans-31"/>
     <use xlink:href="#DejaVuSans-31" x="63.623047"/>
    </g>
   </g>
   <g id="text_26">
    <!-- 0.3637 -->
    <g style="fill: #ff0000" transform="translate(502.525878 30.330539) scale(0.25 -0.25)">
     <use xlink:href="#DejaVuSans-30"/>
     <use xlink:href="#DejaVuSans-2e" x="63.623047"/>
     <use xlink:href="#DejaVuSans-33" x="95.410156"/>
     <use xlink:href="#DejaVuSans-36" x="159.033203"/>
     <use xlink:href="#DejaVuSans-33" x="222.65625"/>
     <use xlink:href="#DejaVuSans-37" x="286.279297"/>
    </g>
   </g>
  </g>
 </g>
 <defs>
  <clipPath id="p2b38d6f9ed">
   <rect x="42.495313" y="24.265919" width="650.801562" height="486.382518"/>
  </clipPath>
 </defs>
</svg>
