<?xml version="1.0" encoding="utf-8" standalone="no"?>
<!DOCTYPE svg PUBLIC "-//W3C//DTD SVG 1.1//EN"
  "http://www.w3.org/Graphics/SVG/1.1/DTD/svg11.dtd">
<svg xmlns:xlink="http://www.w3.org/1999/xlink" width="720pt" height="432pt" viewBox="0 0 720 432" xmlns="http://www.w3.org/2000/svg" version="1.1">
 <metadata>
  <rdf:RDF xmlns:dc="http://purl.org/dc/elements/1.1/" xmlns:cc="http://creativecommons.org/ns#" xmlns:rdf="http://www.w3.org/1999/02/22-rdf-syntax-ns#">
   <cc:Work>
    <dc:type rdf:resource="http://purl.org/dc/dcmitype/StillImage"/>
    <dc:date>2022-11-03T14:04:21.265425</dc:date>
    <dc:format>image/svg+xml</dc:format>
    <dc:creator>
     <cc:Agent>
      <dc:title>Matplotlib v3.6.1, https://matplotlib.org/</dc:title>
     </cc:Agent>
    </dc:creator>
   </cc:Work>
  </rdf:RDF>
 </metadata>
 <defs>
  <style type="text/css">*{stroke-linejoin: round; stroke-linecap: butt}</style>
 </defs>
 <g id="figure_1">
  <g id="patch_1">
   <path d="M 0 432 
L 720 432 
L 720 0 
L 0 0 
z
" style="fill: #ffffff"/>
  </g>
  <g id="axes_1">
   <g id="patch_2">
    <path d="M 27.978125 390.84375 
L 701.248437 390.84375 
L 701.248437 14.250807 
L 27.978125 14.250807 
z
" style="fill: #ffffff"/>
   </g>
   <g id="PolyCollection_1">
    <defs>
     <path id="m25651859dd" d="M 388.563852 -45.851923 
L 364.613281 -45.851923 
L 364.613281 -46.32149 
L 364.613281 -46.791057 
L 364.613281 -47.260624 
L 364.613281 -47.730192 
L 364.613281 -48.199759 
L 364.613281 -48.669326 
L 364.613281 -49.138893 
L 364.613281 -49.608461 
L 364.613281 -50.078028 
L 364.613281 -50.547595 
L 364.613281 -51.017162 
L 364.613281 -51.48673 
L 364.613281 -51.956297 
L 364.613281 -52.425864 
L 364.613281 -52.895432 
L 364.613281 -53.364999 
L 364.613281 -53.834566 
L 364.613281 -54.304133 
L 364.613281 -54.773701 
L 364.613281 -55.243268 
L 364.613281 -55.712835 
L 364.613281 -56.182402 
L 364.613281 -56.65197 
L 364.613281 -57.121537 
L 364.613281 -57.591104 
L 364.613281 -58.060671 
L 364.613281 -58.530239 
L 364.613281 -58.999806 
L 364.613281 -59.469373 
L 364.613281 -59.93894 
L 364.613281 -60.408508 
L 364.613281 -60.878075 
L 364.613281 -61.347642 
L 364.613281 -61.817209 
L 364.613281 -62.286777 
L 364.613281 -62.756344 
L 364.613281 -63.225911 
L 364.613281 -63.695479 
L 364.613281 -64.165046 
L 364.613281 -64.634613 
L 364.613281 -65.10418 
L 364.613281 -65.573748 
L 364.613281 -66.043315 
L 364.613281 -66.512882 
L 364.613281 -66.982449 
L 364.613281 -67.452017 
L 364.613281 -67.921584 
L 364.613281 -68.391151 
L 364.613281 -68.860718 
L 364.613281 -69.330286 
L 364.613281 -69.799853 
L 364.613281 -70.26942 
L 364.613281 -70.738987 
L 364.613281 -71.208555 
L 364.613281 -71.678122 
L 364.613281 -72.147689 
L 364.613281 -72.617256 
L 364.613281 -73.086824 
L 364.613281 -73.556391 
L 364.613281 -74.025958 
L 364.613281 -74.495526 
L 364.613281 -74.965093 
L 364.613281 -75.43466 
L 364.613281 -75.904227 
L 364.613281 -76.373795 
L 364.613281 -76.843362 
L 364.613281 -77.312929 
L 364.613281 -77.782496 
L 364.613281 -78.252064 
L 364.613281 -78.721631 
L 364.613281 -79.191198 
L 364.613281 -79.660765 
L 364.613281 -80.130333 
L 364.613281 -80.5999 
L 364.613281 -81.069467 
L 364.613281 -81.539034 
L 364.613281 -82.008602 
L 364.613281 -82.478169 
L 364.613281 -82.947736 
L 364.613281 -83.417304 
L 364.613281 -83.886871 
L 364.613281 -84.356438 
L 364.613281 -84.826005 
L 364.613281 -85.295573 
L 364.613281 -85.76514 
L 364.613281 -86.234707 
L 364.613281 -86.704274 
L 364.613281 -87.173842 
L 514.967423 -87.173842 
L 514.967423 -87.173842 
L 514.282201 -86.704274 
L 513.905144 -86.234707 
L 513.184717 -85.76514 
L 511.750404 -85.295573 
L 511.73267 -84.826005 
L 511.645714 -84.356438 
L 511.508243 -83.886871 
L 511.34396 -83.417304 
L 508.169954 -82.947736 
L 507.891926 -82.478169 
L 507.421432 -82.008602 
L 504.425082 -81.539034 
L 503.877523 -81.069467 
L 503.746781 -80.5999 
L 502.19625 -80.130333 
L 500.897627 -79.660765 
L 500.464153 -79.191198 
L 500.171687 -78.721631 
L 499.253987 -78.252064 
L 497.868296 -77.782496 
L 497.072338 -77.312929 
L 496.994939 -76.843362 
L 496.820891 -76.373795 
L 495.83055 -75.904227 
L 495.585254 -75.43466 
L 495.468623 -74.965093 
L 495.225725 -74.495526 
L 494.931118 -74.025958 
L 494.179932 -73.556391 
L 493.894324 -73.086824 
L 491.927452 -72.617256 
L 491.510731 -72.147689 
L 491.507931 -71.678122 
L 491.193092 -71.208555 
L 491.190846 -70.738987 
L 490.906898 -70.26942 
L 490.89036 -69.799853 
L 490.862558 -69.330286 
L 490.605197 -68.860718 
L 490.150593 -68.391151 
L 489.551336 -67.921584 
L 488.077578 -67.452017 
L 483.852024 -66.982449 
L 483.108015 -66.512882 
L 483.061042 -66.043315 
L 482.90352 -65.573748 
L 482.89464 -65.10418 
L 482.885006 -64.634613 
L 482.858767 -64.165046 
L 478.276846 -63.695479 
L 477.940208 -63.225911 
L 477.814757 -62.756344 
L 475.616662 -62.286777 
L 470.481538 -61.817209 
L 469.225379 -61.347642 
L 466.997897 -60.878075 
L 463.635493 -60.408508 
L 463.072873 -59.93894 
L 462.623748 -59.469373 
L 461.977566 -58.999806 
L 461.789593 -58.530239 
L 460.64898 -58.060671 
L 457.51968 -57.591104 
L 454.987447 -57.121537 
L 453.923738 -56.65197 
L 453.517737 -56.182402 
L 453.012639 -55.712835 
L 452.628491 -55.243268 
L 451.42006 -54.773701 
L 450.853066 -54.304133 
L 450.078261 -53.834566 
L 448.652568 -53.364999 
L 448.330015 -52.895432 
L 448.278654 -52.425864 
L 447.996034 -51.956297 
L 433.95085 -51.48673 
L 433.776801 -51.017162 
L 432.850634 -50.547595 
L 432.759652 -50.078028 
L 426.936779 -49.608461 
L 418.035692 -49.138893 
L 413.730488 -48.669326 
L 404.186187 -48.199759 
L 400.762796 -47.730192 
L 397.237317 -47.260624 
L 395.415474 -46.791057 
L 395.027686 -46.32149 
L 388.563852 -45.851923 
z
" style="stroke: #000000; stroke-opacity: 0.7"/>
    </defs>
    <g clip-path="url(#p07e2d8b23a)">
     <use xlink:href="#m25651859dd" x="0" y="432" style="fill-opacity: 0.7; stroke: #000000; stroke-opacity: 0.7"/>
    </g>
   </g>
   <g id="PolyCollection_2">
    <defs>
     <path id="m654846aa7e" d="M 316.748095 -92.339081 
L 364.613281 -92.339081 
L 364.613281 -92.808649 
L 364.613281 -93.278216 
L 364.613281 -93.747783 
L 364.613281 -94.217351 
L 364.613281 -94.686918 
L 364.613281 -95.156485 
L 364.613281 -95.626052 
L 364.613281 -96.09562 
L 364.613281 -96.565187 
L 364.613281 -97.034754 
L 364.613281 -97.504321 
L 364.613281 -97.973889 
L 364.613281 -98.443456 
L 364.613281 -98.913023 
L 364.613281 -99.38259 
L 364.613281 -99.852158 
L 364.613281 -100.321725 
L 364.613281 -100.791292 
L 364.613281 -101.260859 
L 364.613281 -101.730427 
L 364.613281 -102.199994 
L 364.613281 -102.669561 
L 364.613281 -103.139128 
L 364.613281 -103.608696 
L 364.613281 -104.078263 
L 364.613281 -104.54783 
L 364.613281 -105.017398 
L 364.613281 -105.486965 
L 364.613281 -105.956532 
L 364.613281 -106.426099 
L 364.613281 -106.895667 
L 364.613281 -107.365234 
L 364.613281 -107.834801 
L 364.613281 -108.304368 
L 364.613281 -108.773936 
L 364.613281 -109.243503 
L 364.613281 -109.71307 
L 364.613281 -110.182637 
L 364.613281 -110.652205 
L 364.613281 -111.121772 
L 364.613281 -111.591339 
L 364.613281 -112.060906 
L 364.613281 -112.530474 
L 364.613281 -113.000041 
L 364.613281 -113.469608 
L 364.613281 -113.939175 
L 364.613281 -114.408743 
L 364.613281 -114.87831 
L 364.613281 -115.347877 
L 364.613281 -115.817445 
L 364.613281 -116.287012 
L 364.613281 -116.756579 
L 364.613281 -117.226146 
L 364.613281 -117.695714 
L 364.613281 -118.165281 
L 364.613281 -118.634848 
L 364.613281 -119.104415 
L 364.613281 -119.573983 
L 364.613281 -120.04355 
L 364.613281 -120.513117 
L 364.613281 -120.982684 
L 364.613281 -121.452252 
L 364.613281 -121.921819 
L 364.613281 -122.391386 
L 364.613281 -122.860953 
L 364.613281 -123.330521 
L 364.613281 -123.800088 
L 364.613281 -124.269655 
L 364.613281 -124.739222 
L 364.613281 -125.20879 
L 364.613281 -125.678357 
L 364.613281 -126.147924 
L 364.613281 -126.617492 
L 364.613281 -127.087059 
L 364.613281 -127.556626 
L 364.613281 -128.026193 
L 364.613281 -128.495761 
L 364.613281 -128.965328 
L 364.613281 -129.434895 
L 364.613281 -129.904462 
L 364.613281 -130.37403 
L 364.613281 -130.843597 
L 364.613281 -131.313164 
L 364.613281 -131.782731 
L 364.613281 -132.252299 
L 364.613281 -132.721866 
L 364.613281 -133.191433 
L 364.613281 -133.661 
L 364.613281 -134.130568 
L 364.613281 -134.600135 
L 364.613281 -135.069702 
L 364.613281 -135.539269 
L 364.613281 -136.008837 
L 364.613281 -136.478404 
L 364.613281 -136.947971 
L 364.613281 -137.417539 
L 364.613281 -137.887106 
L 364.613281 -138.356673 
L 364.613281 -138.82624 
L 364.613281 -139.295808 
L 364.613281 -139.765375 
L 364.613281 -140.234942 
L 364.613281 -140.704509 
L 364.613281 -141.174077 
L 364.613281 -141.643644 
L 364.613281 -142.113211 
L 364.613281 -142.582778 
L 364.613281 -143.052346 
L 364.613281 -143.521913 
L 364.613281 -143.99148 
L 364.613281 -144.461047 
L 497.722293 -144.461047 
L 497.722293 -144.461047 
L 497.163472 -143.99148 
L 497.094387 -143.521913 
L 496.942881 -143.052346 
L 496.509833 -142.582778 
L 496.497523 -142.113211 
L 494.817507 -141.643644 
L 494.654493 -141.174077 
L 494.601059 -140.704509 
L 494.505758 -140.234942 
L 494.199937 -139.765375 
L 493.884665 -139.295808 
L 490.813509 -138.82624 
L 490.732885 -138.356673 
L 490.136903 -137.887106 
L 488.156015 -137.417539 
L 487.769367 -136.947971 
L 487.767267 -136.478404 
L 486.826356 -136.008837 
L 484.755146 -135.539269 
L 484.682775 -135.069702 
L 484.501446 -134.600135 
L 484.489808 -134.130568 
L 484.338513 -133.661 
L 484.131031 -133.191433 
L 483.901171 -132.721866 
L 482.755844 -132.252299 
L 480.868141 -131.782731 
L 480.061282 -131.313164 
L 479.94419 -130.843597 
L 479.714066 -130.37403 
L 479.350583 -129.904462 
L 479.312499 -129.434895 
L 479.293317 -128.965328 
L 479.147879 -128.495761 
L 478.781401 -128.026193 
L 477.613311 -127.556626 
L 477.499519 -127.087059 
L 476.129856 -126.617492 
L 475.91922 -126.147924 
L 475.902574 -125.678357 
L 475.706432 -125.20879 
L 475.126448 -124.739222 
L 473.805112 -124.269655 
L 471.488837 -123.800088 
L 470.643893 -123.330521 
L 469.956504 -122.860953 
L 468.91895 -122.391386 
L 468.867343 -121.921819 
L 468.17714 -121.452252 
L 467.38603 -120.982684 
L 466.522251 -120.513117 
L 466.501701 -120.04355 
L 462.153259 -119.573983 
L 461.740801 -119.104415 
L 461.45722 -118.634848 
L 459.996738 -118.165281 
L 459.157121 -117.695714 
L 459.062886 -117.226146 
L 458.244292 -116.756579 
L 458.167492 -116.287012 
L 457.480604 -115.817445 
L 455.660479 -115.347877 
L 455.497591 -114.87831 
L 454.496111 -114.408743 
L 453.960775 -113.939175 
L 453.349957 -113.469608 
L 450.520092 -113.000041 
L 450.091293 -112.530474 
L 449.035805 -112.060906 
L 448.897645 -111.591339 
L 446.047038 -111.121772 
L 443.412295 -110.652205 
L 443.352658 -110.182637 
L 443.004343 -109.71307 
L 442.649888 -109.243503 
L 441.388175 -108.773936 
L 439.973551 -108.304368 
L 438.750569 -107.834801 
L 435.654746 -107.365234 
L 433.852985 -106.895667 
L 433.477161 -106.426099 
L 432.852974 -105.956532 
L 426.857096 -105.486965 
L 425.075277 -105.017398 
L 417.303518 -104.54783 
L 416.117795 -104.078263 
L 414.626098 -103.608696 
L 410.541046 -103.139128 
L 407.849227 -102.669561 
L 402.562027 -102.199994 
L 400.726601 -101.730427 
L 400.07329 -101.260859 
L 399.702146 -100.791292 
L 399.591883 -100.321725 
L 399.350286 -99.852158 
L 399.067961 -99.38259 
L 395.259073 -98.913023 
L 388.471059 -98.443456 
L 388.405037 -97.973889 
L 388.03555 -97.504321 
L 385.285335 -97.034754 
L 384.54708 -96.565187 
L 382.485944 -96.09562 
L 378.843521 -95.626052 
L 377.578633 -95.156485 
L 375.164799 -94.686918 
L 373.640055 -94.217351 
L 348.482422 -93.747783 
L 345.907088 -93.278216 
L 335.527144 -92.808649 
L 316.748095 -92.339081 
z
" style="stroke: #820093; stroke-opacity: 0.7"/>
    </defs>
    <g clip-path="url(#p07e2d8b23a)">
     <use xlink:href="#m654846aa7e" x="0" y="432" style="fill: #820093; fill-opacity: 0.7; stroke: #820093; stroke-opacity: 0.7"/>
    </g>
   </g>
   <g id="PolyCollection_3">
    <defs>
     <path id="m711952a41f" d="M 389.633925 -149.626287 
L 364.613281 -149.626287 
L 364.613281 -150.095855 
L 364.613281 -150.565422 
L 364.613281 -151.034989 
L 364.613281 -151.504556 
L 364.613281 -151.974124 
L 364.613281 -152.443691 
L 364.613281 -152.913258 
L 364.613281 -153.382825 
L 435.74874 -153.382825 
L 435.74874 -153.382825 
L 433.213298 -152.913258 
L 427.175076 -152.443691 
L 422.110626 -151.974124 
L 419.245583 -151.504556 
L 418.548665 -151.034989 
L 399.459966 -150.565422 
L 391.450034 -150.095855 
L 389.633925 -149.626287 
z
" style="stroke: #0000b9; stroke-opacity: 0.7"/>
    </defs>
    <g clip-path="url(#p07e2d8b23a)">
     <use xlink:href="#m711952a41f" x="0" y="432" style="fill: #0000b9; fill-opacity: 0.7; stroke: #0000b9; stroke-opacity: 0.7"/>
    </g>
   </g>
   <g id="PolyCollection_4">
    <defs>
     <path id="m4309e79efb" d="M 435.506095 -158.548065 
L 364.613281 -158.548065 
L 364.613281 -159.017633 
L 364.613281 -159.4872 
L 364.613281 -159.956767 
L 364.613281 -160.426334 
L 364.613281 -160.895902 
L 364.613281 -161.365469 
L 364.613281 -161.835036 
L 364.613281 -162.304603 
L 364.613281 -162.774171 
L 364.613281 -163.243738 
L 364.613281 -163.713305 
L 364.613281 -164.182872 
L 364.613281 -164.65244 
L 488.330879 -164.65244 
L 488.330879 -164.65244 
L 487.818486 -164.182872 
L 482.628758 -163.713305 
L 480.273971 -163.243738 
L 477.39166 -162.774171 
L 477.29777 -162.304603 
L 476.033239 -161.835036 
L 472.852377 -161.365469 
L 465.325914 -160.895902 
L 452.034412 -160.426334 
L 450.128089 -159.956767 
L 449.958669 -159.4872 
L 449.720909 -159.017633 
L 435.506095 -158.548065 
z
" style="stroke: #0078dd; stroke-opacity: 0.7"/>
    </defs>
    <g clip-path="url(#p07e2d8b23a)">
     <use xlink:href="#m4309e79efb" x="0" y="432" style="fill: #0078dd; fill-opacity: 0.7; stroke: #0078dd; stroke-opacity: 0.7"/>
    </g>
   </g>
   <g id="PolyCollection_5">
    <defs>
     <path id="m66cce1c41d" d="M 389.410301 -169.81768 
L 364.613281 -169.81768 
L 364.613281 -170.287247 
L 364.613281 -170.756814 
L 364.613281 -171.226381 
L 364.613281 -171.695949 
L 364.613281 -172.165516 
L 364.613281 -172.635083 
L 364.613281 -173.10465 
L 364.613281 -173.574218 
L 364.613281 -174.043785 
L 364.613281 -174.513352 
L 364.613281 -174.982919 
L 364.613281 -175.452487 
L 364.613281 -175.922054 
L 364.613281 -176.391621 
L 364.613281 -176.861188 
L 364.613281 -177.330756 
L 364.613281 -177.800323 
L 364.613281 -178.26989 
L 364.613281 -178.739458 
L 364.613281 -179.209025 
L 364.613281 -179.678592 
L 364.613281 -180.148159 
L 364.613281 -180.617727 
L 364.613281 -181.087294 
L 364.613281 -181.556861 
L 364.613281 -182.026428 
L 364.613281 -182.495996 
L 364.613281 -182.965563 
L 364.613281 -183.43513 
L 364.613281 -183.904697 
L 364.613281 -184.374265 
L 364.613281 -184.843832 
L 364.613281 -185.313399 
L 364.613281 -185.782966 
L 364.613281 -186.252534 
L 364.613281 -186.722101 
L 364.613281 -187.191668 
L 364.613281 -187.661235 
L 364.613281 -188.130803 
L 364.613281 -188.60037 
L 364.613281 -189.069937 
L 364.613281 -189.539505 
L 364.613281 -190.009072 
L 364.613281 -190.478639 
L 364.613281 -190.948206 
L 364.613281 -191.417774 
L 364.613281 -191.887341 
L 364.613281 -192.356908 
L 364.613281 -192.826475 
L 364.613281 -193.296043 
L 364.613281 -193.76561 
L 364.613281 -194.235177 
L 364.613281 -194.704744 
L 364.613281 -195.174312 
L 364.613281 -195.643879 
L 364.613281 -196.113446 
L 364.613281 -196.583013 
L 364.613281 -197.052581 
L 364.613281 -197.522148 
L 364.613281 -197.991715 
L 364.613281 -198.461282 
L 364.613281 -198.93085 
L 364.613281 -199.400417 
L 364.613281 -199.869984 
L 364.613281 -200.339552 
L 364.613281 -200.809119 
L 364.613281 -201.278686 
L 364.613281 -201.748253 
L 364.613281 -202.217821 
L 364.613281 -202.687388 
L 364.613281 -203.156955 
L 364.613281 -203.626522 
L 364.613281 -204.09609 
L 364.613281 -204.565657 
L 364.613281 -205.035224 
L 364.613281 -205.504791 
L 364.613281 -205.974359 
L 364.613281 -206.443926 
L 364.613281 -206.913493 
L 364.613281 -207.38306 
L 364.613281 -207.852628 
L 364.613281 -208.322195 
L 364.613281 -208.791762 
L 364.613281 -209.261329 
L 364.613281 -209.730897 
L 364.613281 -210.200464 
L 505.649714 -210.200464 
L 505.649714 -210.200464 
L 504.279695 -209.730897 
L 502.159722 -209.261329 
L 501.740276 -208.791762 
L 501.200041 -208.322195 
L 500.013643 -207.852628 
L 499.968111 -207.38306 
L 499.88265 -206.913493 
L 499.701863 -206.443926 
L 499.41907 -205.974359 
L 499.350355 -205.504791 
L 499.070877 -205.035224 
L 498.787699 -204.565657 
L 498.708494 -204.09609 
L 498.251564 -203.626522 
L 497.487996 -203.156955 
L 496.937236 -202.687388 
L 496.903653 -202.217821 
L 495.77942 -201.748253 
L 495.169881 -201.278686 
L 495.046554 -200.809119 
L 494.762225 -200.339552 
L 494.717798 -199.869984 
L 492.996898 -199.400417 
L 492.946843 -198.93085 
L 492.789183 -198.461282 
L 492.716772 -197.991715 
L 492.673997 -197.522148 
L 492.333848 -197.052581 
L 491.618225 -196.583013 
L 491.136346 -196.113446 
L 490.072831 -195.643879 
L 490.024808 -195.174312 
L 489.177002 -194.704744 
L 488.107891 -194.235177 
L 486.848261 -193.76561 
L 486.802817 -193.296043 
L 486.167915 -192.826475 
L 485.64403 -192.356908 
L 485.067863 -191.887341 
L 484.92731 -191.417774 
L 484.632998 -190.948206 
L 484.448537 -190.478639 
L 483.864945 -190.009072 
L 483.772372 -189.539505 
L 482.4766 -189.069937 
L 481.700783 -188.60037 
L 481.425512 -188.130803 
L 481.037374 -187.661235 
L 480.157217 -187.191668 
L 479.563441 -186.722101 
L 479.298657 -186.252534 
L 479.269151 -185.782966 
L 479.13317 -185.313399 
L 479.010636 -184.843832 
L 478.711632 -184.374265 
L 477.86837 -183.904697 
L 477.539358 -183.43513 
L 476.275953 -182.965563 
L 475.823546 -182.495996 
L 475.722336 -182.026428 
L 475.596028 -181.556861 
L 475.330896 -181.087294 
L 475.329323 -180.617727 
L 474.690637 -180.148159 
L 471.812935 -179.678592 
L 470.769568 -179.209025 
L 469.66024 -178.739458 
L 467.218295 -178.26989 
L 466.913138 -177.800323 
L 463.571181 -177.330756 
L 462.224998 -176.861188 
L 460.216159 -176.391621 
L 459.075886 -175.922054 
L 458.623681 -175.452487 
L 457.340706 -174.982919 
L 456.995218 -174.513352 
L 456.4738 -174.043785 
L 454.775559 -173.574218 
L 450.445441 -173.10465 
L 446.096384 -172.635083 
L 445.224852 -172.165516 
L 440.064902 -171.695949 
L 428.403595 -171.226381 
L 422.12481 -170.756814 
L 410.711591 -170.287247 
L 389.410301 -169.81768 
z
" style="stroke: #00a4bb; stroke-opacity: 0.7"/>
    </defs>
    <g clip-path="url(#p07e2d8b23a)">
     <use xlink:href="#m66cce1c41d" x="0" y="432" style="fill: #00a4bb; fill-opacity: 0.7; stroke: #00a4bb; stroke-opacity: 0.7"/>
    </g>
   </g>
   <g id="PolyCollection_6">
    <defs>
     <path id="m4b6f84d130" d="M 399.123491 -215.365704 
L 364.613281 -215.365704 
L 364.613281 -215.835271 
L 364.613281 -216.304838 
L 364.613281 -216.774406 
L 364.613281 -217.243973 
L 364.613281 -217.71354 
L 364.613281 -218.183107 
L 364.613281 -218.652675 
L 364.613281 -219.122242 
L 364.613281 -219.591809 
L 364.613281 -220.061376 
L 364.613281 -220.530944 
L 364.613281 -221.000511 
L 364.613281 -221.470078 
L 364.613281 -221.939646 
L 364.613281 -222.409213 
L 364.613281 -222.87878 
L 364.613281 -223.348347 
L 364.613281 -223.817915 
L 364.613281 -224.287482 
L 364.613281 -224.757049 
L 364.613281 -225.226616 
L 364.613281 -225.696184 
L 364.613281 -226.165751 
L 364.613281 -226.635318 
L 364.613281 -227.104885 
L 364.613281 -227.574453 
L 364.613281 -228.04402 
L 364.613281 -228.513587 
L 364.613281 -228.983154 
L 364.613281 -229.452722 
L 364.613281 -229.922289 
L 364.613281 -230.391856 
L 364.613281 -230.861423 
L 364.613281 -231.330991 
L 364.613281 -231.800558 
L 364.613281 -232.270125 
L 364.613281 -232.739693 
L 364.613281 -233.20926 
L 364.613281 -233.678827 
L 364.613281 -234.148394 
L 364.613281 -234.617962 
L 364.613281 -235.087529 
L 364.613281 -235.557096 
L 364.613281 -236.026663 
L 364.613281 -236.496231 
L 364.613281 -236.965798 
L 364.613281 -237.435365 
L 364.613281 -237.904932 
L 364.613281 -238.3745 
L 364.613281 -238.844067 
L 364.613281 -239.313634 
L 364.613281 -239.783201 
L 364.613281 -240.252769 
L 364.613281 -240.722336 
L 364.613281 -241.191903 
L 364.613281 -241.661471 
L 364.613281 -242.131038 
L 364.613281 -242.600605 
L 364.613281 -243.070172 
L 364.613281 -243.53974 
L 364.613281 -244.009307 
L 364.613281 -244.478874 
L 364.613281 -244.948441 
L 364.613281 -245.418009 
L 364.613281 -245.887576 
L 364.613281 -246.357143 
L 364.613281 -246.82671 
L 364.613281 -247.296278 
L 364.613281 -247.765845 
L 364.613281 -248.235412 
L 364.613281 -248.704979 
L 364.613281 -249.174547 
L 364.613281 -249.644114 
L 364.613281 -250.113681 
L 364.613281 -250.583248 
L 524.765486 -250.583248 
L 524.765486 -250.583248 
L 524.639032 -250.113681 
L 524.617394 -249.644114 
L 524.579495 -249.174547 
L 523.807143 -248.704979 
L 523.716472 -248.235412 
L 523.497851 -247.765845 
L 523.33696 -247.296278 
L 523.097694 -246.82671 
L 516.213931 -246.357143 
L 516.021282 -245.887576 
L 515.982708 -245.418009 
L 515.91785 -244.948441 
L 515.911297 -244.478874 
L 515.256194 -244.009307 
L 509.243305 -243.53974 
L 509.171693 -243.070172 
L 508.909375 -242.600605 
L 507.674985 -242.131038 
L 506.211588 -241.661471 
L 506.170442 -241.191903 
L 505.510608 -240.722336 
L 505.327774 -240.252769 
L 505.297497 -239.783201 
L 504.874313 -239.313634 
L 504.395393 -238.844067 
L 504.150616 -238.3745 
L 502.685889 -237.904932 
L 501.914455 -237.435365 
L 500.694586 -236.965798 
L 499.616234 -236.496231 
L 497.529262 -236.026663 
L 494.608738 -235.557096 
L 494.574353 -235.087529 
L 493.373835 -234.617962 
L 491.981043 -234.148394 
L 486.425737 -233.678827 
L 486.370499 -233.20926 
L 485.348808 -232.739693 
L 483.958156 -232.270125 
L 483.707607 -231.800558 
L 482.50067 -231.330991 
L 482.091397 -230.861423 
L 481.169756 -230.391856 
L 480.360575 -229.922289 
L 477.228078 -229.452722 
L 477.220144 -228.983154 
L 469.625656 -228.513587 
L 469.55876 -228.04402 
L 468.341322 -227.574453 
L 468.096356 -227.104885 
L 465.365316 -226.635318 
L 463.528011 -226.165751 
L 463.437971 -225.696184 
L 462.235472 -225.226616 
L 462.167752 -224.757049 
L 452.240757 -224.287482 
L 451.684342 -223.817915 
L 451.155445 -223.348347 
L 449.334482 -222.87878 
L 448.776014 -222.409213 
L 447.699775 -221.939646 
L 447.112047 -221.470078 
L 445.547611 -221.000511 
L 444.594237 -220.530944 
L 443.53093 -220.061376 
L 441.091929 -219.591809 
L 440.560912 -219.122242 
L 439.958781 -218.652675 
L 437.486612 -218.183107 
L 434.342572 -217.71354 
L 416.172819 -217.243973 
L 415.358125 -216.774406 
L 412.384956 -216.304838 
L 404.790984 -215.835271 
L 399.123491 -215.365704 
z
" style="stroke: #00a55d; stroke-opacity: 0.7"/>
    </defs>
    <g clip-path="url(#p07e2d8b23a)">
     <use xlink:href="#m4b6f84d130" x="0" y="432" style="fill: #00a55d; fill-opacity: 0.7; stroke: #00a55d; stroke-opacity: 0.7"/>
    </g>
   </g>
   <g id="PolyCollection_7">
    <defs>
     <path id="m544bb73fcc" d="M 364.039172 -255.748488 
L 364.613281 -255.748488 
L 364.613281 -256.218056 
L 364.613281 -256.687623 
L 364.613281 -257.15719 
L 364.613281 -257.626757 
L 364.613281 -258.096325 
L 364.613281 -258.565892 
L 364.613281 -259.035459 
L 364.613281 -259.505026 
L 364.613281 -259.974594 
L 364.613281 -260.444161 
L 364.613281 -260.913728 
L 364.613281 -261.383295 
L 364.613281 -261.852863 
L 364.613281 -262.32243 
L 364.613281 -262.791997 
L 364.613281 -263.261565 
L 364.613281 -263.731132 
L 364.613281 -264.200699 
L 364.613281 -264.670266 
L 470.19646 -264.670266 
L 470.19646 -264.670266 
L 465.313094 -264.200699 
L 459.117474 -263.731132 
L 457.792444 -263.261565 
L 455.496118 -262.791997 
L 453.538235 -262.32243 
L 451.645159 -261.852863 
L 450.999635 -261.383295 
L 450.611367 -260.913728 
L 440.831345 -260.444161 
L 439.922835 -259.974594 
L 436.523132 -259.505026 
L 435.092446 -259.035459 
L 434.651709 -258.565892 
L 433.064207 -258.096325 
L 431.27465 -257.626757 
L 429.855784 -257.15719 
L 429.707219 -256.687623 
L 428.552172 -256.218056 
L 364.039172 -255.748488 
z
" style="stroke: #00bc00; stroke-opacity: 0.7"/>
    </defs>
    <g clip-path="url(#p07e2d8b23a)">
     <use xlink:href="#m544bb73fcc" x="0" y="432" style="fill: #00bc00; fill-opacity: 0.7; stroke: #00bc00; stroke-opacity: 0.7"/>
    </g>
   </g>
   <g id="PolyCollection_8">
    <defs>
     <path id="m1ea34bad86" d="M 514.609218 -269.835506 
L 364.613281 -269.835506 
L 364.613281 -270.305073 
L 364.613281 -270.774641 
L 364.613281 -271.244208 
L 364.613281 -271.713775 
L 364.613281 -272.183342 
L 364.613281 -272.65291 
L 364.613281 -273.122477 
L 565.89602 -273.122477 
L 565.89602 -273.122477 
L 562.516605 -272.65291 
L 552.571817 -272.183342 
L 547.642555 -271.713775 
L 543.432985 -271.244208 
L 527.105323 -270.774641 
L 520.981703 -270.305073 
L 514.609218 -269.835506 
z
" style="stroke: #00f400; stroke-opacity: 0.7"/>
    </defs>
    <g clip-path="url(#p07e2d8b23a)">
     <use xlink:href="#m1ea34bad86" x="0" y="432" style="fill: #00f400; fill-opacity: 0.7; stroke: #00f400; stroke-opacity: 0.7"/>
    </g>
   </g>
   <g id="PolyCollection_9">
    <defs>
     <path id="m720dd9f425" d="M 448.20057 -278.287717 
L 364.613281 -278.287717 
L 364.613281 -278.757284 
L 364.613281 -279.226851 
L 364.613281 -279.696419 
L 364.613281 -280.165986 
L 364.613281 -280.635553 
L 364.613281 -281.10512 
L 364.613281 -281.574688 
L 364.613281 -282.044255 
L 364.613281 -282.513822 
L 364.613281 -282.983389 
L 364.613281 -283.452957 
L 364.613281 -283.922524 
L 364.613281 -284.392091 
L 364.613281 -284.861659 
L 364.613281 -285.331226 
L 364.613281 -285.800793 
L 364.613281 -286.27036 
L 364.613281 -286.739928 
L 364.613281 -287.209495 
L 364.613281 -287.679062 
L 364.613281 -288.148629 
L 364.613281 -288.618197 
L 364.613281 -289.087764 
L 364.613281 -289.557331 
L 364.613281 -290.026898 
L 364.613281 -290.496466 
L 364.613281 -290.966033 
L 364.613281 -291.4356 
L 364.613281 -291.905167 
L 364.613281 -292.374735 
L 364.613281 -292.844302 
L 364.613281 -293.313869 
L 364.613281 -293.783436 
L 364.613281 -294.253004 
L 364.613281 -294.722571 
L 364.613281 -295.192138 
L 364.613281 -295.661706 
L 364.613281 -296.131273 
L 364.613281 -296.60084 
L 364.613281 -297.070407 
L 364.613281 -297.539975 
L 364.613281 -298.009542 
L 364.613281 -298.479109 
L 364.613281 -298.948676 
L 364.613281 -299.418244 
L 364.613281 -299.887811 
L 364.613281 -300.357378 
L 364.613281 -300.826945 
L 364.613281 -301.296513 
L 364.613281 -301.76608 
L 364.613281 -302.235647 
L 364.613281 -302.705214 
L 364.613281 -303.174782 
L 364.613281 -303.644349 
L 364.613281 -304.113916 
L 364.613281 -304.583483 
L 364.613281 -305.053051 
L 364.613281 -305.522618 
L 364.613281 -305.992185 
L 364.613281 -306.461753 
L 364.613281 -306.93132 
L 364.613281 -307.400887 
L 364.613281 -307.870454 
L 364.613281 -308.340022 
L 364.613281 -308.809589 
L 364.613281 -309.279156 
L 364.613281 -309.748723 
L 364.613281 -310.218291 
L 364.613281 -310.687858 
L 364.613281 -311.157425 
L 364.613281 -311.626992 
L 364.613281 -312.09656 
L 364.613281 -312.566127 
L 364.613281 -313.035694 
L 364.613281 -313.505261 
L 364.613281 -313.974829 
L 364.613281 -314.444396 
L 364.613281 -314.913963 
L 364.613281 -315.38353 
L 364.613281 -315.853098 
L 364.613281 -316.322665 
L 364.613281 -316.792232 
L 364.613281 -317.2618 
L 364.613281 -317.731367 
L 364.613281 -318.200934 
L 364.613281 -318.670501 
L 364.613281 -319.140069 
L 364.613281 -319.609636 
L 364.613281 -320.079203 
L 364.613281 -320.54877 
L 364.613281 -321.018338 
L 364.613281 -321.487905 
L 364.613281 -321.957472 
L 364.613281 -322.427039 
L 364.613281 -322.896607 
L 364.613281 -323.366174 
L 364.613281 -323.835741 
L 364.613281 -324.305308 
L 364.613281 -324.774876 
L 364.613281 -325.244443 
L 364.613281 -325.71401 
L 364.613281 -326.183578 
L 364.613281 -326.653145 
L 364.613281 -327.122712 
L 364.613281 -327.592279 
L 364.613281 -328.061847 
L 364.613281 -328.531414 
L 364.613281 -329.000981 
L 364.613281 -329.470548 
L 364.613281 -329.940116 
L 364.613281 -330.409683 
L 364.613281 -330.87925 
L 364.613281 -331.348817 
L 364.613281 -331.818385 
L 364.613281 -332.287952 
L 364.613281 -332.757519 
L 364.613281 -333.227086 
L 364.613281 -333.696654 
L 364.613281 -334.166221 
L 364.613281 -334.635788 
L 364.613281 -335.105355 
L 364.613281 -335.574923 
L 364.613281 -336.04449 
L 364.613281 -336.514057 
L 364.613281 -336.983625 
L 364.613281 -337.453192 
L 364.613281 -337.922759 
L 364.613281 -338.392326 
L 364.613281 -338.861894 
L 364.613281 -339.331461 
L 364.613281 -339.801028 
L 364.613281 -340.270595 
L 364.613281 -340.740163 
L 364.613281 -341.20973 
L 364.613281 -341.679297 
L 364.613281 -342.148864 
L 364.613281 -342.618432 
L 364.613281 -343.087999 
L 364.613281 -343.557566 
L 364.613281 -344.027133 
L 364.613281 -344.496701 
L 364.613281 -344.966268 
L 364.613281 -345.435835 
L 364.613281 -345.905402 
L 364.613281 -346.37497 
L 364.613281 -346.844537 
L 364.613281 -347.314104 
L 364.613281 -347.783672 
L 364.613281 -348.253239 
L 364.613281 -348.722806 
L 364.613281 -349.192373 
L 364.613281 -349.661941 
L 364.613281 -350.131508 
L 364.613281 -350.601075 
L 364.613281 -351.070642 
L 364.613281 -351.54021 
L 364.613281 -352.009777 
L 364.613281 -352.479344 
L 364.613281 -352.948911 
L 364.613281 -353.418479 
L 364.613281 -353.888046 
L 364.613281 -354.357613 
L 364.613281 -354.82718 
L 364.613281 -355.296748 
L 364.613281 -355.766315 
L 364.613281 -356.235882 
L 364.613281 -356.705449 
L 364.613281 -357.175017 
L 364.613281 -357.644584 
L 364.613281 -358.114151 
L 364.613281 -358.583719 
L 364.613281 -359.053286 
L 364.613281 -359.522853 
L 364.613281 -359.99242 
L 364.613281 -360.461988 
L 364.613281 -360.931555 
L 364.613281 -361.401122 
L 364.613281 -361.870689 
L 364.613281 -362.340257 
L 364.613281 -362.809824 
L 364.613281 -363.279391 
L 364.613281 -363.748958 
L 364.613281 -364.218526 
L 364.613281 -364.688093 
L 364.613281 -365.15766 
L 364.613281 -365.627227 
L 364.613281 -366.096795 
L 364.613281 -366.566362 
L 364.613281 -367.035929 
L 364.613281 -367.505496 
L 364.613281 -367.975064 
L 364.613281 -368.444631 
L 364.613281 -368.914198 
L 364.613281 -369.383766 
L 364.613281 -369.853333 
L 364.613281 -370.3229 
L 364.613281 -370.792467 
L 364.613281 -371.262035 
L 364.613281 -371.731602 
L 364.613281 -372.201169 
L 536.220441 -372.201169 
L 536.220441 -372.201169 
L 535.776248 -371.731602 
L 534.676726 -371.262035 
L 533.389426 -370.792467 
L 533.302708 -370.3229 
L 532.4022 -369.853333 
L 532.107169 -369.383766 
L 531.419505 -368.914198 
L 531.382011 -368.444631 
L 530.835995 -367.975064 
L 530.091688 -367.505496 
L 530.005581 -367.035929 
L 529.13704 -366.566362 
L 529.128293 -366.096795 
L 528.23158 -365.627227 
L 527.759212 -365.15766 
L 527.546385 -364.688093 
L 527.191306 -364.218526 
L 527.172606 -363.748958 
L 526.680509 -363.279391 
L 526.273542 -362.809824 
L 525.658837 -362.340257 
L 525.329131 -361.870689 
L 525.172976 -361.401122 
L 524.939844 -360.931555 
L 524.938033 -360.461988 
L 524.86816 -359.99242 
L 524.857674 -359.522853 
L 524.522949 -359.053286 
L 524.159148 -358.583719 
L 523.285146 -358.114151 
L 523.198428 -357.644584 
L 523.165675 -357.175017 
L 522.930616 -356.705449 
L 522.745674 -356.235882 
L 522.625015 -355.766315 
L 522.361913 -355.296748 
L 522.132598 -354.82718 
L 521.706299 -354.357613 
L 521.678949 -353.888046 
L 521.677556 -353.418479 
L 521.575341 -352.948911 
L 521.427936 -352.479344 
L 520.929842 -352.009777 
L 520.764187 -351.54021 
L 520.751181 -351.070642 
L 520.025659 -350.601075 
L 519.918056 -350.131508 
L 519.726957 -349.661941 
L 519.596059 -349.192373 
L 519.071026 -348.722806 
L 518.742724 -348.253239 
L 518.664054 -347.783672 
L 518.586481 -347.314104 
L 518.536924 -346.844537 
L 518.39848 -346.37497 
L 518.326129 -345.905402 
L 518.214047 -345.435835 
L 518.075867 -344.966268 
L 518.050034 -344.496701 
L 517.872615 -344.027133 
L 517.842372 -343.557566 
L 516.75367 -343.087999 
L 516.600253 -342.618432 
L 516.496356 -342.148864 
L 516.434528 -341.679297 
L 516.391207 -341.20973 
L 516.220358 -340.740163 
L 516.035275 -340.270595 
L 515.959199 -339.801028 
L 515.614738 -339.331461 
L 515.474583 -338.861894 
L 515.385257 -338.392326 
L 515.238182 -337.922759 
L 515.193519 -337.453192 
L 514.7991 -336.983625 
L 514.356524 -336.514057 
L 514.327709 -336.04449 
L 514.015655 -335.574923 
L 513.495019 -335.105355 
L 513.475449 -334.635788 
L 512.498387 -334.166221 
L 512.432166 -333.696654 
L 512.288494 -333.227086 
L 511.942837 -332.757519 
L 511.901069 -332.287952 
L 511.878473 -331.818385 
L 511.71886 -331.348817 
L 511.572442 -330.87925 
L 511.477302 -330.409683 
L 511.343496 -329.940116 
L 510.918954 -329.470548 
L 510.890215 -329.000981 
L 510.731209 -328.531414 
L 510.694177 -328.061847 
L 510.520688 -327.592279 
L 510.385507 -327.122712 
L 510.219172 -326.653145 
L 510.177354 -326.183578 
L 509.823719 -325.71401 
L 509.67041 -325.244443 
L 509.584602 -324.774876 
L 509.37527 -324.305308 
L 509.30408 -323.835741 
L 509.263854 -323.366174 
L 509.21874 -322.896607 
L 507.834867 -322.427039 
L 507.73561 -321.957472 
L 507.611943 -321.487905 
L 507.255729 -321.018338 
L 506.985503 -320.54877 
L 506.857618 -320.079203 
L 506.828848 -319.609636 
L 506.564401 -319.140069 
L 506.405546 -318.670501 
L 506.183575 -318.200934 
L 506.049426 -317.731367 
L 505.385334 -317.2618 
L 505.371186 -316.792232 
L 505.352402 -316.322665 
L 505.334951 -315.853098 
L 505.237957 -315.38353 
L 504.976065 -314.913963 
L 504.702536 -314.444396 
L 504.215255 -313.974829 
L 504.194249 -313.505261 
L 504.161189 -313.035694 
L 503.935716 -312.566127 
L 503.50663 -312.09656 
L 502.356431 -311.626992 
L 501.722874 -311.157425 
L 501.403329 -310.687858 
L 501.368707 -310.218291 
L 500.933526 -309.748723 
L 500.829222 -309.279156 
L 500.640994 -308.809589 
L 500.458267 -308.340022 
L 500.330556 -307.870454 
L 499.682318 -307.400887 
L 498.860136 -306.93132 
L 498.704013 -306.461753 
L 498.452872 -305.992185 
L 498.190547 -305.522618 
L 497.939941 -305.053051 
L 497.673102 -304.583483 
L 497.456887 -304.113916 
L 496.943518 -303.644349 
L 496.550711 -303.174782 
L 496.474368 -302.705214 
L 496.381585 -302.235647 
L 496.206224 -301.76608 
L 496.180239 -301.296513 
L 495.73836 -300.826945 
L 495.534932 -300.357378 
L 495.371172 -299.887811 
L 494.430274 -299.418244 
L 494.389483 -298.948676 
L 493.799374 -298.479109 
L 493.130278 -298.009542 
L 492.889507 -297.539975 
L 492.798386 -297.070407 
L 492.598823 -296.60084 
L 491.378267 -296.131273 
L 491.054543 -295.661706 
L 490.700638 -295.192138 
L 489.977287 -294.722571 
L 489.91936 -294.253004 
L 489.751721 -293.783436 
L 488.786395 -293.313869 
L 488.710172 -292.844302 
L 488.536535 -292.374735 
L 488.486995 -291.905167 
L 488.202976 -291.4356 
L 487.142416 -290.966033 
L 487.120904 -290.496466 
L 486.360925 -290.026898 
L 486.202728 -289.557331 
L 486.097685 -289.087764 
L 485.999665 -288.618197 
L 485.923256 -288.148629 
L 485.901932 -287.679062 
L 484.577685 -287.209495 
L 483.950985 -286.739928 
L 479.937253 -286.27036 
L 479.723592 -285.800793 
L 478.063063 -285.331226 
L 477.939841 -284.861659 
L 477.851055 -284.392091 
L 477.501563 -283.922524 
L 476.811217 -283.452957 
L 476.148125 -282.983389 
L 475.513227 -282.513822 
L 472.423403 -282.044255 
L 471.889225 -281.574688 
L 469.249703 -281.10512 
L 467.780911 -280.635553 
L 465.483681 -280.165986 
L 458.830235 -279.696419 
L 457.360326 -279.226851 
L 455.376639 -278.757284 
L 448.20057 -278.287717 
z
" style="stroke: #ccf900; stroke-opacity: 0.7"/>
    </defs>
    <g clip-path="url(#p07e2d8b23a)">
     <use xlink:href="#m720dd9f425" x="0" y="432" style="fill: #ccf900; fill-opacity: 0.7; stroke: #ccf900; stroke-opacity: 0.7"/>
    </g>
   </g>
   <g id="PolyCollection_10">
    <defs>
     <path id="m436fd099b5" d="M 469.349132 -377.366409 
L 364.613281 -377.366409 
L 364.613281 -377.835976 
L 364.613281 -378.305543 
L 364.613281 -378.775111 
L 364.613281 -379.244678 
L 364.613281 -379.714245 
L 364.613281 -380.183813 
L 364.613281 -380.65338 
L 364.613281 -381.122947 
L 364.613281 -381.592514 
L 364.613281 -382.062082 
L 364.613281 -382.531649 
L 364.613281 -383.001216 
L 364.613281 -383.470783 
L 364.613281 -383.940351 
L 364.613281 -384.409918 
L 364.613281 -384.879485 
L 364.613281 -385.349052 
L 364.613281 -385.81862 
L 364.613281 -386.288187 
L 364.613281 -386.757754 
L 364.613281 -387.227321 
L 364.613281 -387.696889 
L 364.613281 -388.166456 
L 364.613281 -388.636023 
L 364.613281 -389.10559 
L 364.613281 -389.575158 
L 364.613281 -390.044725 
L 364.613281 -390.514292 
L 364.613281 -390.98386 
L 364.613281 -391.453427 
L 364.613281 -391.922994 
L 364.613281 -392.392561 
L 364.613281 -392.862129 
L 364.613281 -393.331696 
L 364.613281 -393.801263 
L 364.613281 -394.27083 
L 364.613281 -394.740398 
L 364.613281 -395.209965 
L 364.613281 -395.679532 
L 364.613281 -396.149099 
L 364.613281 -396.618667 
L 364.613281 -397.088234 
L 364.613281 -397.557801 
L 589.483673 -397.557801 
L 589.483673 -397.557801 
L 589.310717 -397.088234 
L 588.958798 -396.618667 
L 588.928315 -396.149099 
L 588.887823 -395.679532 
L 588.680706 -395.209965 
L 588.546323 -394.740398 
L 588.139858 -394.27083 
L 588.042187 -393.801263 
L 587.705332 -393.331696 
L 587.566667 -392.862129 
L 586.787627 -392.392561 
L 574.646573 -391.922994 
L 574.409215 -391.453427 
L 574.359101 -390.98386 
L 574.16193 -390.514292 
L 574.128524 -390.044725 
L 574.018742 -389.575158 
L 573.755138 -389.10559 
L 573.639415 -388.636023 
L 552.562625 -388.166456 
L 552.483628 -387.696889 
L 552.253512 -387.227321 
L 551.85002 -386.757754 
L 551.188095 -386.288187 
L 542.472664 -385.81862 
L 541.84311 -385.349052 
L 541.48394 -384.879485 
L 541.164033 -384.409918 
L 540.041183 -383.940351 
L 537.360259 -383.470783 
L 536.504678 -383.001216 
L 536.323449 -382.531649 
L 535.847805 -382.062082 
L 527.062517 -381.592514 
L 524.491549 -381.122947 
L 508.557286 -380.65338 
L 504.527975 -380.183813 
L 504.431438 -379.714245 
L 490.659263 -379.244678 
L 489.829424 -378.775111 
L 481.837874 -378.305543 
L 477.094144 -377.835976 
L 469.349132 -377.366409 
z
" style="stroke: #ffc900; stroke-opacity: 0.7"/>
    </defs>
    <g clip-path="url(#p07e2d8b23a)">
     <use xlink:href="#m436fd099b5" x="0" y="432" style="fill: #ffc900; fill-opacity: 0.7; stroke: #ffc900; stroke-opacity: 0.7"/>
    </g>
   </g>
   <g id="PolyCollection_11">
    <defs>
     <path id="mf9c8ba9c4c" d="M 543.854958 -402.723041 
L 364.613281 -402.723041 
L 364.613281 -403.192608 
L 364.613281 -403.662176 
L 364.613281 -404.131743 
L 364.613281 -404.60131 
L 364.613281 -405.070877 
L 364.613281 -405.540445 
L 364.613281 -406.010012 
L 364.613281 -406.479579 
L 588.058323 -406.479579 
L 588.058323 -406.479579 
L 587.420915 -406.010012 
L 577.342184 -405.540445 
L 564.129529 -405.070877 
L 561.797013 -404.60131 
L 560.411539 -404.131743 
L 549.067374 -403.662176 
L 544.987837 -403.192608 
L 543.854958 -402.723041 
z
" style="stroke: #ff2d00; stroke-opacity: 0.7"/>
    </defs>
    <g clip-path="url(#p07e2d8b23a)">
     <use xlink:href="#mf9c8ba9c4c" x="0" y="432" style="fill: #ff2d00; fill-opacity: 0.7; stroke: #ff2d00; stroke-opacity: 0.7"/>
    </g>
   </g>
   <g id="PolyCollection_12">
    <defs>
     <path id="m2a0ebf1c37" d="M 582.199257 -411.644819 
L 364.613281 -411.644819 
L 364.613281 -412.114386 
L 364.613281 -412.583954 
L 637.349292 -412.583954 
L 637.349292 -412.583954 
L 636.959411 -412.114386 
L 582.199257 -411.644819 
z
" style="stroke: #d70000; stroke-opacity: 0.7"/>
    </defs>
    <g clip-path="url(#p07e2d8b23a)">
     <use xlink:href="#m2a0ebf1c37" x="0" y="432" style="fill: #d70000; fill-opacity: 0.7; stroke: #d70000; stroke-opacity: 0.7"/>
    </g>
   </g>
   <g id="matplotlib.axis_1">
    <g id="xtick_1">
     <g id="line2d_1">
      <defs>
       <path id="mf105541397" d="M 0 0 
L 0 3.5 
" style="stroke: #000000; stroke-width: 0.8"/>
      </defs>
      <g>
       <use xlink:href="#mf105541397" x="27.978125" y="390.84375" style="stroke: #000000; stroke-width: 0.8"/>
      </g>
     </g>
     <g id="text_1">
      <!-- −1.0 -->
      <g transform="translate(15.836719 405.442187) scale(0.1 -0.1)">
       <defs>
        <path id="DejaVuSans-2212" d="M 678 2272 
L 4684 2272 
L 4684 1741 
L 678 1741 
L 678 2272 
z
" transform="scale(0.015625)"/>
        <path id="DejaVuSans-31" d="M 794 531 
L 1825 531 
L 1825 4091 
L 703 3866 
L 703 4441 
L 1819 4666 
L 2450 4666 
L 2450 531 
L 3481 531 
L 3481 0 
L 794 0 
L 794 531 
z
" transform="scale(0.015625)"/>
        <path id="DejaVuSans-2e" d="M 684 794 
L 1344 794 
L 1344 0 
L 684 0 
L 684 794 
z
" transform="scale(0.015625)"/>
        <path id="DejaVuSans-30" d="M 2034 4250 
Q 1547 4250 1301 3770 
Q 1056 3291 1056 2328 
Q 1056 1369 1301 889 
Q 1547 409 2034 409 
Q 2525 409 2770 889 
Q 3016 1369 3016 2328 
Q 3016 3291 2770 3770 
Q 2525 4250 2034 4250 
z
M 2034 4750 
Q 2819 4750 3233 4129 
Q 3647 3509 3647 2328 
Q 3647 1150 3233 529 
Q 2819 -91 2034 -91 
Q 1250 -91 836 529 
Q 422 1150 422 2328 
Q 422 3509 836 4129 
Q 1250 4750 2034 4750 
z
" transform="scale(0.015625)"/>
       </defs>
       <use xlink:href="#DejaVuSans-2212"/>
       <use xlink:href="#DejaVuSans-31" x="83.789062"/>
       <use xlink:href="#DejaVuSans-2e" x="147.412109"/>
       <use xlink:href="#DejaVuSans-30" x="179.199219"/>
      </g>
     </g>
    </g>
    <g id="xtick_2">
     <g id="line2d_2">
      <g>
       <use xlink:href="#mf105541397" x="95.305156" y="390.84375" style="stroke: #000000; stroke-width: 0.8"/>
      </g>
     </g>
     <g id="text_2">
      <!-- −0.8 -->
      <g transform="translate(83.16375 405.442187) scale(0.1 -0.1)">
       <defs>
        <path id="DejaVuSans-38" d="M 2034 2216 
Q 1584 2216 1326 1975 
Q 1069 1734 1069 1313 
Q 1069 891 1326 650 
Q 1584 409 2034 409 
Q 2484 409 2743 651 
Q 3003 894 3003 1313 
Q 3003 1734 2745 1975 
Q 2488 2216 2034 2216 
z
M 1403 2484 
Q 997 2584 770 2862 
Q 544 3141 544 3541 
Q 544 4100 942 4425 
Q 1341 4750 2034 4750 
Q 2731 4750 3128 4425 
Q 3525 4100 3525 3541 
Q 3525 3141 3298 2862 
Q 3072 2584 2669 2484 
Q 3125 2378 3379 2068 
Q 3634 1759 3634 1313 
Q 3634 634 3220 271 
Q 2806 -91 2034 -91 
Q 1263 -91 848 271 
Q 434 634 434 1313 
Q 434 1759 690 2068 
Q 947 2378 1403 2484 
z
M 1172 3481 
Q 1172 3119 1398 2916 
Q 1625 2713 2034 2713 
Q 2441 2713 2670 2916 
Q 2900 3119 2900 3481 
Q 2900 3844 2670 4047 
Q 2441 4250 2034 4250 
Q 1625 4250 1398 4047 
Q 1172 3844 1172 3481 
z
" transform="scale(0.015625)"/>
       </defs>
       <use xlink:href="#DejaVuSans-2212"/>
       <use xlink:href="#DejaVuSans-30" x="83.789062"/>
       <use xlink:href="#DejaVuSans-2e" x="147.412109"/>
       <use xlink:href="#DejaVuSans-38" x="179.199219"/>
      </g>
     </g>
    </g>
    <g id="xtick_3">
     <g id="line2d_3">
      <g>
       <use xlink:href="#mf105541397" x="162.632188" y="390.84375" style="stroke: #000000; stroke-width: 0.8"/>
      </g>
     </g>
     <g id="text_3">
      <!-- −0.6 -->
      <g transform="translate(150.490781 405.442187) scale(0.1 -0.1)">
       <defs>
        <path id="DejaVuSans-36" d="M 2113 2584 
Q 1688 2584 1439 2293 
Q 1191 2003 1191 1497 
Q 1191 994 1439 701 
Q 1688 409 2113 409 
Q 2538 409 2786 701 
Q 3034 994 3034 1497 
Q 3034 2003 2786 2293 
Q 2538 2584 2113 2584 
z
M 3366 4563 
L 3366 3988 
Q 3128 4100 2886 4159 
Q 2644 4219 2406 4219 
Q 1781 4219 1451 3797 
Q 1122 3375 1075 2522 
Q 1259 2794 1537 2939 
Q 1816 3084 2150 3084 
Q 2853 3084 3261 2657 
Q 3669 2231 3669 1497 
Q 3669 778 3244 343 
Q 2819 -91 2113 -91 
Q 1303 -91 875 529 
Q 447 1150 447 2328 
Q 447 3434 972 4092 
Q 1497 4750 2381 4750 
Q 2619 4750 2861 4703 
Q 3103 4656 3366 4563 
z
" transform="scale(0.015625)"/>
       </defs>
       <use xlink:href="#DejaVuSans-2212"/>
       <use xlink:href="#DejaVuSans-30" x="83.789062"/>
       <use xlink:href="#DejaVuSans-2e" x="147.412109"/>
       <use xlink:href="#DejaVuSans-36" x="179.199219"/>
      </g>
     </g>
    </g>
    <g id="xtick_4">
     <g id="line2d_4">
      <g>
       <use xlink:href="#mf105541397" x="229.959219" y="390.84375" style="stroke: #000000; stroke-width: 0.8"/>
      </g>
     </g>
     <g id="text_4">
      <!-- −0.4 -->
      <g transform="translate(217.817813 405.442187) scale(0.1 -0.1)">
       <defs>
        <path id="DejaVuSans-34" d="M 2419 4116 
L 825 1625 
L 2419 1625 
L 2419 4116 
z
M 2253 4666 
L 3047 4666 
L 3047 1625 
L 3713 1625 
L 3713 1100 
L 3047 1100 
L 3047 0 
L 2419 0 
L 2419 1100 
L 313 1100 
L 313 1709 
L 2253 4666 
z
" transform="scale(0.015625)"/>
       </defs>
       <use xlink:href="#DejaVuSans-2212"/>
       <use xlink:href="#DejaVuSans-30" x="83.789062"/>
       <use xlink:href="#DejaVuSans-2e" x="147.412109"/>
       <use xlink:href="#DejaVuSans-34" x="179.199219"/>
      </g>
     </g>
    </g>
    <g id="xtick_5">
     <g id="line2d_5">
      <g>
       <use xlink:href="#mf105541397" x="297.28625" y="390.84375" style="stroke: #000000; stroke-width: 0.8"/>
      </g>
     </g>
     <g id="text_5">
      <!-- −0.2 -->
      <g transform="translate(285.144844 405.442187) scale(0.1 -0.1)">
       <defs>
        <path id="DejaVuSans-32" d="M 1228 531 
L 3431 531 
L 3431 0 
L 469 0 
L 469 531 
Q 828 903 1448 1529 
Q 2069 2156 2228 2338 
Q 2531 2678 2651 2914 
Q 2772 3150 2772 3378 
Q 2772 3750 2511 3984 
Q 2250 4219 1831 4219 
Q 1534 4219 1204 4116 
Q 875 4013 500 3803 
L 500 4441 
Q 881 4594 1212 4672 
Q 1544 4750 1819 4750 
Q 2544 4750 2975 4387 
Q 3406 4025 3406 3419 
Q 3406 3131 3298 2873 
Q 3191 2616 2906 2266 
Q 2828 2175 2409 1742 
Q 1991 1309 1228 531 
z
" transform="scale(0.015625)"/>
       </defs>
       <use xlink:href="#DejaVuSans-2212"/>
       <use xlink:href="#DejaVuSans-30" x="83.789062"/>
       <use xlink:href="#DejaVuSans-2e" x="147.412109"/>
       <use xlink:href="#DejaVuSans-32" x="179.199219"/>
      </g>
     </g>
    </g>
    <g id="xtick_6">
     <g id="line2d_6">
      <g>
       <use xlink:href="#mf105541397" x="364.613281" y="390.84375" style="stroke: #000000; stroke-width: 0.8"/>
      </g>
     </g>
     <g id="text_6">
      <!-- 0.0 -->
      <g transform="translate(356.661719 405.442187) scale(0.1 -0.1)">
       <use xlink:href="#DejaVuSans-30"/>
       <use xlink:href="#DejaVuSans-2e" x="63.623047"/>
       <use xlink:href="#DejaVuSans-30" x="95.410156"/>
      </g>
     </g>
    </g>
    <g id="xtick_7">
     <g id="line2d_7">
      <g>
       <use xlink:href="#mf105541397" x="431.940313" y="390.84375" style="stroke: #000000; stroke-width: 0.8"/>
      </g>
     </g>
     <g id="text_7">
      <!-- 0.2 -->
      <g transform="translate(423.98875 405.442187) scale(0.1 -0.1)">
       <use xlink:href="#DejaVuSans-30"/>
       <use xlink:href="#DejaVuSans-2e" x="63.623047"/>
       <use xlink:href="#DejaVuSans-32" x="95.410156"/>
      </g>
     </g>
    </g>
    <g id="xtick_8">
     <g id="line2d_8">
      <g>
       <use xlink:href="#mf105541397" x="499.267344" y="390.84375" style="stroke: #000000; stroke-width: 0.8"/>
      </g>
     </g>
     <g id="text_8">
      <!-- 0.4 -->
      <g transform="translate(491.315781 405.442187) scale(0.1 -0.1)">
       <use xlink:href="#DejaVuSans-30"/>
       <use xlink:href="#DejaVuSans-2e" x="63.623047"/>
       <use xlink:href="#DejaVuSans-34" x="95.410156"/>
      </g>
     </g>
    </g>
    <g id="xtick_9">
     <g id="line2d_9">
      <g>
       <use xlink:href="#mf105541397" x="566.594375" y="390.84375" style="stroke: #000000; stroke-width: 0.8"/>
      </g>
     </g>
     <g id="text_9">
      <!-- 0.6 -->
      <g transform="translate(558.642812 405.442187) scale(0.1 -0.1)">
       <use xlink:href="#DejaVuSans-30"/>
       <use xlink:href="#DejaVuSans-2e" x="63.623047"/>
       <use xlink:href="#DejaVuSans-36" x="95.410156"/>
      </g>
     </g>
    </g>
    <g id="xtick_10">
     <g id="line2d_10">
      <g>
       <use xlink:href="#mf105541397" x="633.921406" y="390.84375" style="stroke: #000000; stroke-width: 0.8"/>
      </g>
     </g>
     <g id="text_10">
      <!-- 0.8 -->
      <g transform="translate(625.969844 405.442187) scale(0.1 -0.1)">
       <use xlink:href="#DejaVuSans-30"/>
       <use xlink:href="#DejaVuSans-2e" x="63.623047"/>
       <use xlink:href="#DejaVuSans-38" x="95.410156"/>
      </g>
     </g>
    </g>
    <g id="xtick_11">
     <g id="line2d_11">
      <g>
       <use xlink:href="#mf105541397" x="701.248437" y="390.84375" style="stroke: #000000; stroke-width: 0.8"/>
      </g>
     </g>
     <g id="text_11">
      <!-- 1.0 -->
      <g transform="translate(693.296875 405.442187) scale(0.1 -0.1)">
       <use xlink:href="#DejaVuSans-31"/>
       <use xlink:href="#DejaVuSans-2e" x="63.623047"/>
       <use xlink:href="#DejaVuSans-30" x="95.410156"/>
      </g>
     </g>
    </g>
    <g id="text_12">
     <!-- Silhouette coefficient -->
     <g transform="translate(311.463281 419.120313) scale(0.1 -0.1)">
      <defs>
       <path id="DejaVuSans-53" d="M 3425 4513 
L 3425 3897 
Q 3066 4069 2747 4153 
Q 2428 4238 2131 4238 
Q 1616 4238 1336 4038 
Q 1056 3838 1056 3469 
Q 1056 3159 1242 3001 
Q 1428 2844 1947 2747 
L 2328 2669 
Q 3034 2534 3370 2195 
Q 3706 1856 3706 1288 
Q 3706 609 3251 259 
Q 2797 -91 1919 -91 
Q 1588 -91 1214 -16 
Q 841 59 441 206 
L 441 856 
Q 825 641 1194 531 
Q 1563 422 1919 422 
Q 2459 422 2753 634 
Q 3047 847 3047 1241 
Q 3047 1584 2836 1778 
Q 2625 1972 2144 2069 
L 1759 2144 
Q 1053 2284 737 2584 
Q 422 2884 422 3419 
Q 422 4038 858 4394 
Q 1294 4750 2059 4750 
Q 2388 4750 2728 4690 
Q 3069 4631 3425 4513 
z
" transform="scale(0.015625)"/>
       <path id="DejaVuSans-69" d="M 603 3500 
L 1178 3500 
L 1178 0 
L 603 0 
L 603 3500 
z
M 603 4863 
L 1178 4863 
L 1178 4134 
L 603 4134 
L 603 4863 
z
" transform="scale(0.015625)"/>
       <path id="DejaVuSans-6c" d="M 603 4863 
L 1178 4863 
L 1178 0 
L 603 0 
L 603 4863 
z
" transform="scale(0.015625)"/>
       <path id="DejaVuSans-68" d="M 3513 2113 
L 3513 0 
L 2938 0 
L 2938 2094 
Q 2938 2591 2744 2837 
Q 2550 3084 2163 3084 
Q 1697 3084 1428 2787 
Q 1159 2491 1159 1978 
L 1159 0 
L 581 0 
L 581 4863 
L 1159 4863 
L 1159 2956 
Q 1366 3272 1645 3428 
Q 1925 3584 2291 3584 
Q 2894 3584 3203 3211 
Q 3513 2838 3513 2113 
z
" transform="scale(0.015625)"/>
       <path id="DejaVuSans-6f" d="M 1959 3097 
Q 1497 3097 1228 2736 
Q 959 2375 959 1747 
Q 959 1119 1226 758 
Q 1494 397 1959 397 
Q 2419 397 2687 759 
Q 2956 1122 2956 1747 
Q 2956 2369 2687 2733 
Q 2419 3097 1959 3097 
z
M 1959 3584 
Q 2709 3584 3137 3096 
Q 3566 2609 3566 1747 
Q 3566 888 3137 398 
Q 2709 -91 1959 -91 
Q 1206 -91 779 398 
Q 353 888 353 1747 
Q 353 2609 779 3096 
Q 1206 3584 1959 3584 
z
" transform="scale(0.015625)"/>
       <path id="DejaVuSans-75" d="M 544 1381 
L 544 3500 
L 1119 3500 
L 1119 1403 
Q 1119 906 1312 657 
Q 1506 409 1894 409 
Q 2359 409 2629 706 
Q 2900 1003 2900 1516 
L 2900 3500 
L 3475 3500 
L 3475 0 
L 2900 0 
L 2900 538 
Q 2691 219 2414 64 
Q 2138 -91 1772 -91 
Q 1169 -91 856 284 
Q 544 659 544 1381 
z
M 1991 3584 
L 1991 3584 
z
" transform="scale(0.015625)"/>
       <path id="DejaVuSans-65" d="M 3597 1894 
L 3597 1613 
L 953 1613 
Q 991 1019 1311 708 
Q 1631 397 2203 397 
Q 2534 397 2845 478 
Q 3156 559 3463 722 
L 3463 178 
Q 3153 47 2828 -22 
Q 2503 -91 2169 -91 
Q 1331 -91 842 396 
Q 353 884 353 1716 
Q 353 2575 817 3079 
Q 1281 3584 2069 3584 
Q 2775 3584 3186 3129 
Q 3597 2675 3597 1894 
z
M 3022 2063 
Q 3016 2534 2758 2815 
Q 2500 3097 2075 3097 
Q 1594 3097 1305 2825 
Q 1016 2553 972 2059 
L 3022 2063 
z
" transform="scale(0.015625)"/>
       <path id="DejaVuSans-74" d="M 1172 4494 
L 1172 3500 
L 2356 3500 
L 2356 3053 
L 1172 3053 
L 1172 1153 
Q 1172 725 1289 603 
Q 1406 481 1766 481 
L 2356 481 
L 2356 0 
L 1766 0 
Q 1100 0 847 248 
Q 594 497 594 1153 
L 594 3053 
L 172 3053 
L 172 3500 
L 594 3500 
L 594 4494 
L 1172 4494 
z
" transform="scale(0.015625)"/>
       <path id="DejaVuSans-20" transform="scale(0.015625)"/>
       <path id="DejaVuSans-63" d="M 3122 3366 
L 3122 2828 
Q 2878 2963 2633 3030 
Q 2388 3097 2138 3097 
Q 1578 3097 1268 2742 
Q 959 2388 959 1747 
Q 959 1106 1268 751 
Q 1578 397 2138 397 
Q 2388 397 2633 464 
Q 2878 531 3122 666 
L 3122 134 
Q 2881 22 2623 -34 
Q 2366 -91 2075 -91 
Q 1284 -91 818 406 
Q 353 903 353 1747 
Q 353 2603 823 3093 
Q 1294 3584 2113 3584 
Q 2378 3584 2631 3529 
Q 2884 3475 3122 3366 
z
" transform="scale(0.015625)"/>
       <path id="DejaVuSans-66" d="M 2375 4863 
L 2375 4384 
L 1825 4384 
Q 1516 4384 1395 4259 
Q 1275 4134 1275 3809 
L 1275 3500 
L 2222 3500 
L 2222 3053 
L 1275 3053 
L 1275 0 
L 697 0 
L 697 3053 
L 147 3053 
L 147 3500 
L 697 3500 
L 697 3744 
Q 697 4328 969 4595 
Q 1241 4863 1831 4863 
L 2375 4863 
z
" transform="scale(0.015625)"/>
       <path id="DejaVuSans-6e" d="M 3513 2113 
L 3513 0 
L 2938 0 
L 2938 2094 
Q 2938 2591 2744 2837 
Q 2550 3084 2163 3084 
Q 1697 3084 1428 2787 
Q 1159 2491 1159 1978 
L 1159 0 
L 581 0 
L 581 3500 
L 1159 3500 
L 1159 2956 
Q 1366 3272 1645 3428 
Q 1925 3584 2291 3584 
Q 2894 3584 3203 3211 
Q 3513 2838 3513 2113 
z
" transform="scale(0.015625)"/>
      </defs>
      <use xlink:href="#DejaVuSans-53"/>
      <use xlink:href="#DejaVuSans-69" x="63.476562"/>
      <use xlink:href="#DejaVuSans-6c" x="91.259766"/>
      <use xlink:href="#DejaVuSans-68" x="119.042969"/>
      <use xlink:href="#DejaVuSans-6f" x="182.421875"/>
      <use xlink:href="#DejaVuSans-75" x="243.603516"/>
      <use xlink:href="#DejaVuSans-65" x="306.982422"/>
      <use xlink:href="#DejaVuSans-74" x="368.505859"/>
      <use xlink:href="#DejaVuSans-74" x="407.714844"/>
      <use xlink:href="#DejaVuSans-65" x="446.923828"/>
      <use xlink:href="#DejaVuSans-20" x="508.447266"/>
      <use xlink:href="#DejaVuSans-63" x="540.234375"/>
      <use xlink:href="#DejaVuSans-6f" x="595.214844"/>
      <use xlink:href="#DejaVuSans-65" x="656.396484"/>
      <use xlink:href="#DejaVuSans-66" x="717.919922"/>
      <use xlink:href="#DejaVuSans-66" x="753.125"/>
      <use xlink:href="#DejaVuSans-69" x="788.330078"/>
      <use xlink:href="#DejaVuSans-63" x="816.113281"/>
      <use xlink:href="#DejaVuSans-69" x="871.09375"/>
      <use xlink:href="#DejaVuSans-65" x="898.876953"/>
      <use xlink:href="#DejaVuSans-6e" x="960.400391"/>
      <use xlink:href="#DejaVuSans-74" x="1023.779297"/>
     </g>
    </g>
   </g>
   <g id="matplotlib.axis_2">
    <g id="text_13">
     <!-- Predicted label -->
     <g transform="translate(18.398438 239.699622) rotate(-90) scale(0.1 -0.1)">
      <defs>
       <path id="DejaVuSans-50" d="M 1259 4147 
L 1259 2394 
L 2053 2394 
Q 2494 2394 2734 2622 
Q 2975 2850 2975 3272 
Q 2975 3691 2734 3919 
Q 2494 4147 2053 4147 
L 1259 4147 
z
M 628 4666 
L 2053 4666 
Q 2838 4666 3239 4311 
Q 3641 3956 3641 3272 
Q 3641 2581 3239 2228 
Q 2838 1875 2053 1875 
L 1259 1875 
L 1259 0 
L 628 0 
L 628 4666 
z
" transform="scale(0.015625)"/>
       <path id="DejaVuSans-72" d="M 2631 2963 
Q 2534 3019 2420 3045 
Q 2306 3072 2169 3072 
Q 1681 3072 1420 2755 
Q 1159 2438 1159 1844 
L 1159 0 
L 581 0 
L 581 3500 
L 1159 3500 
L 1159 2956 
Q 1341 3275 1631 3429 
Q 1922 3584 2338 3584 
Q 2397 3584 2469 3576 
Q 2541 3569 2628 3553 
L 2631 2963 
z
" transform="scale(0.015625)"/>
       <path id="DejaVuSans-64" d="M 2906 2969 
L 2906 4863 
L 3481 4863 
L 3481 0 
L 2906 0 
L 2906 525 
Q 2725 213 2448 61 
Q 2172 -91 1784 -91 
Q 1150 -91 751 415 
Q 353 922 353 1747 
Q 353 2572 751 3078 
Q 1150 3584 1784 3584 
Q 2172 3584 2448 3432 
Q 2725 3281 2906 2969 
z
M 947 1747 
Q 947 1113 1208 752 
Q 1469 391 1925 391 
Q 2381 391 2643 752 
Q 2906 1113 2906 1747 
Q 2906 2381 2643 2742 
Q 2381 3103 1925 3103 
Q 1469 3103 1208 2742 
Q 947 2381 947 1747 
z
" transform="scale(0.015625)"/>
       <path id="DejaVuSans-61" d="M 2194 1759 
Q 1497 1759 1228 1600 
Q 959 1441 959 1056 
Q 959 750 1161 570 
Q 1363 391 1709 391 
Q 2188 391 2477 730 
Q 2766 1069 2766 1631 
L 2766 1759 
L 2194 1759 
z
M 3341 1997 
L 3341 0 
L 2766 0 
L 2766 531 
Q 2569 213 2275 61 
Q 1981 -91 1556 -91 
Q 1019 -91 701 211 
Q 384 513 384 1019 
Q 384 1609 779 1909 
Q 1175 2209 1959 2209 
L 2766 2209 
L 2766 2266 
Q 2766 2663 2505 2880 
Q 2244 3097 1772 3097 
Q 1472 3097 1187 3025 
Q 903 2953 641 2809 
L 641 3341 
Q 956 3463 1253 3523 
Q 1550 3584 1831 3584 
Q 2591 3584 2966 3190 
Q 3341 2797 3341 1997 
z
" transform="scale(0.015625)"/>
       <path id="DejaVuSans-62" d="M 3116 1747 
Q 3116 2381 2855 2742 
Q 2594 3103 2138 3103 
Q 1681 3103 1420 2742 
Q 1159 2381 1159 1747 
Q 1159 1113 1420 752 
Q 1681 391 2138 391 
Q 2594 391 2855 752 
Q 3116 1113 3116 1747 
z
M 1159 2969 
Q 1341 3281 1617 3432 
Q 1894 3584 2278 3584 
Q 2916 3584 3314 3078 
Q 3713 2572 3713 1747 
Q 3713 922 3314 415 
Q 2916 -91 2278 -91 
Q 1894 -91 1617 61 
Q 1341 213 1159 525 
L 1159 0 
L 581 0 
L 581 4863 
L 1159 4863 
L 1159 2969 
z
" transform="scale(0.015625)"/>
      </defs>
      <use xlink:href="#DejaVuSans-50"/>
      <use xlink:href="#DejaVuSans-72" x="58.552734"/>
      <use xlink:href="#DejaVuSans-65" x="97.416016"/>
      <use xlink:href="#DejaVuSans-64" x="158.939453"/>
      <use xlink:href="#DejaVuSans-69" x="222.416016"/>
      <use xlink:href="#DejaVuSans-63" x="250.199219"/>
      <use xlink:href="#DejaVuSans-74" x="305.179688"/>
      <use xlink:href="#DejaVuSans-65" x="344.388672"/>
      <use xlink:href="#DejaVuSans-64" x="405.912109"/>
      <use xlink:href="#DejaVuSans-20" x="469.388672"/>
      <use xlink:href="#DejaVuSans-6c" x="501.175781"/>
      <use xlink:href="#DejaVuSans-61" x="528.958984"/>
      <use xlink:href="#DejaVuSans-62" x="590.238281"/>
      <use xlink:href="#DejaVuSans-65" x="653.714844"/>
      <use xlink:href="#DejaVuSans-6c" x="715.238281"/>
     </g>
    </g>
   </g>
   <g id="line2d_12">
    <path d="M 487.059365 390.84375 
L 487.059365 14.250807 
" clip-path="url(#p07e2d8b23a)" style="fill: none; stroke: #ff0000; stroke-width: 1.5; stroke-linecap: square"/>
   </g>
   <g id="patch_3">
    <path d="M 27.978125 390.84375 
L 27.978125 14.250807 
" style="fill: none; stroke: #000000; stroke-width: 0.8; stroke-linejoin: miter; stroke-linecap: square"/>
   </g>
   <g id="patch_4">
    <path d="M 701.248437 390.84375 
L 701.248437 14.250807 
" style="fill: none; stroke: #000000; stroke-width: 0.8; stroke-linejoin: miter; stroke-linecap: square"/>
   </g>
   <g id="patch_5">
    <path d="M 27.978125 390.84375 
L 701.248437 390.84375 
" style="fill: none; stroke: #000000; stroke-width: 0.8; stroke-linejoin: miter; stroke-linecap: square"/>
   </g>
   <g id="patch_6">
    <path d="M 27.978125 14.250807 
L 701.248437 14.250807 
" style="fill: none; stroke: #000000; stroke-width: 0.8; stroke-linejoin: miter; stroke-linecap: square"/>
   </g>
   <g id="text_14">
    <!-- 0 -->
    <g transform="translate(347.781523 365.252334) scale(0.1 -0.1)">
     <use xlink:href="#DejaVuSans-30"/>
    </g>
   </g>
   <g id="text_15">
    <!-- 1 -->
    <g transform="translate(347.781523 313.365152) scale(0.1 -0.1)">
     <use xlink:href="#DejaVuSans-31"/>
    </g>
   </g>
   <g id="text_16">
    <!-- 2 -->
    <g transform="translate(347.781523 280.26066) scale(0.1 -0.1)">
     <use xlink:href="#DejaVuSans-32"/>
    </g>
   </g>
   <g id="text_17">
    <!-- 3 -->
    <g transform="translate(347.781523 270.164964) scale(0.1 -0.1)">
     <defs>
      <path id="DejaVuSans-33" d="M 2597 2516 
Q 3050 2419 3304 2112 
Q 3559 1806 3559 1356 
Q 3559 666 3084 287 
Q 2609 -91 1734 -91 
Q 1441 -91 1130 -33 
Q 819 25 488 141 
L 488 750 
Q 750 597 1062 519 
Q 1375 441 1716 441 
Q 2309 441 2620 675 
Q 2931 909 2931 1356 
Q 2931 1769 2642 2001 
Q 2353 2234 1838 2234 
L 1294 2234 
L 1294 2753 
L 1863 2753 
Q 2328 2753 2575 2939 
Q 2822 3125 2822 3475 
Q 2822 3834 2567 4026 
Q 2313 4219 1838 4219 
Q 1578 4219 1281 4162 
Q 984 4106 628 3988 
L 628 4550 
Q 988 4650 1302 4700 
Q 1616 4750 1894 4750 
Q 2613 4750 3031 4423 
Q 3450 4097 3450 3541 
Q 3450 3153 3228 2886 
Q 3006 2619 2597 2516 
z
" transform="scale(0.015625)"/>
     </defs>
     <use xlink:href="#DejaVuSans-33"/>
    </g>
   </g>
   <g id="text_18">
    <!-- 4 -->
    <g transform="translate(347.781523 241.756145) scale(0.1 -0.1)">
     <use xlink:href="#DejaVuSans-34"/>
    </g>
   </g>
   <g id="text_19">
    <!-- 5 -->
    <g transform="translate(347.781523 198.79074) scale(0.1 -0.1)">
     <defs>
      <path id="DejaVuSans-35" d="M 691 4666 
L 3169 4666 
L 3169 4134 
L 1269 4134 
L 1269 2991 
Q 1406 3038 1543 3061 
Q 1681 3084 1819 3084 
Q 2600 3084 3056 2656 
Q 3513 2228 3513 1497 
Q 3513 744 3044 326 
Q 2575 -91 1722 -91 
Q 1428 -91 1123 -41 
Q 819 9 494 109 
L 494 744 
Q 775 591 1075 516 
Q 1375 441 1709 441 
Q 2250 441 2565 725 
Q 2881 1009 2881 1497 
Q 2881 1984 2565 2268 
Q 2250 2553 1709 2553 
Q 1456 2553 1204 2497 
Q 953 2441 691 2322 
L 691 4666 
z
" transform="scale(0.015625)"/>
     </defs>
     <use xlink:href="#DejaVuSans-35"/>
    </g>
   </g>
   <g id="text_20">
    <!-- 6 -->
    <g transform="translate(347.781523 171.555839) scale(0.1 -0.1)">
     <use xlink:href="#DejaVuSans-36"/>
    </g>
   </g>
   <g id="text_21">
    <!-- 7 -->
    <g transform="translate(347.781523 160.286225) scale(0.1 -0.1)">
     <defs>
      <path id="DejaVuSans-37" d="M 525 4666 
L 3525 4666 
L 3525 4397 
L 1831 0 
L 1172 0 
L 2766 4134 
L 525 4134 
L 525 4666 
z
" transform="scale(0.015625)"/>
     </defs>
     <use xlink:href="#DejaVuSans-37"/>
    </g>
   </g>
   <g id="text_22">
    <!-- 8 -->
    <g transform="translate(347.781523 106.520773) scale(0.1 -0.1)">
     <use xlink:href="#DejaVuSans-38"/>
    </g>
   </g>
   <g id="text_23">
    <!-- 9 -->
    <g transform="translate(347.781523 44.303111) scale(0.1 -0.1)">
     <defs>
      <path id="DejaVuSans-39" d="M 703 97 
L 703 672 
Q 941 559 1184 500 
Q 1428 441 1663 441 
Q 2288 441 2617 861 
Q 2947 1281 2994 2138 
Q 2813 1869 2534 1725 
Q 2256 1581 1919 1581 
Q 1219 1581 811 2004 
Q 403 2428 403 3163 
Q 403 3881 828 4315 
Q 1253 4750 1959 4750 
Q 2769 4750 3195 4129 
Q 3622 3509 3622 2328 
Q 3622 1225 3098 567 
Q 2575 -91 1691 -91 
Q 1453 -91 1209 -44 
Q 966 3 703 97 
z
M 1959 2075 
Q 2384 2075 2632 2365 
Q 2881 2656 2881 3163 
Q 2881 3666 2632 3958 
Q 2384 4250 1959 4250 
Q 1534 4250 1286 3958 
Q 1038 3666 1038 3163 
Q 1038 2656 1286 2365 
Q 1534 2075 1959 2075 
z
" transform="scale(0.015625)"/>
     </defs>
     <use xlink:href="#DejaVuSans-39"/>
    </g>
   </g>
   <g id="text_24">
    <!-- 10 -->
    <g transform="translate(347.781523 27.163906) scale(0.1 -0.1)">
     <use xlink:href="#DejaVuSans-31"/>
     <use xlink:href="#DejaVuSans-30" x="63.623047"/>
    </g>
   </g>
   <g id="text_25">
    <!-- 11 -->
    <g transform="translate(347.781523 19.65083) scale(0.1 -0.1)">
     <use xlink:href="#DejaVuSans-31"/>
     <use xlink:href="#DejaVuSans-31" x="63.623047"/>
    </g>
   </g>
   <g id="text_26">
    <!-- 0.3637 -->
    <g style="fill: #ff0000" transform="translate(503.891123 18.946479) scale(0.1 -0.1)">
     <use xlink:href="#DejaVuSans-30"/>
     <use xlink:href="#DejaVuSans-2e" x="63.623047"/>
     <use xlink:href="#DejaVuSans-33" x="95.410156"/>
     <use xlink:href="#DejaVuSans-36" x="159.033203"/>
     <use xlink:href="#DejaVuSans-33" x="222.65625"/>
     <use xlink:href="#DejaVuSans-37" x="286.279297"/>
    </g>
   </g>
  </g>
 </g>
 <defs>
  <clipPath id="p07e2d8b23a">
   <rect x="27.978125" y="14.250807" width="673.270312" height="376.592943"/>
  </clipPath>
 </defs>
</svg>
