<?xml version="1.0" encoding="utf-8" standalone="no"?>
<!DOCTYPE svg PUBLIC "-//W3C//DTD SVG 1.1//EN"
  "http://www.w3.org/Graphics/SVG/1.1/DTD/svg11.dtd">
<svg xmlns:xlink="http://www.w3.org/1999/xlink" width="720pt" height="432pt" viewBox="0 0 720 432" xmlns="http://www.w3.org/2000/svg" version="1.1">
 <metadata>
  <rdf:RDF xmlns:dc="http://purl.org/dc/elements/1.1/" xmlns:cc="http://creativecommons.org/ns#" xmlns:rdf="http://www.w3.org/1999/02/22-rdf-syntax-ns#">
   <cc:Work>
    <dc:type rdf:resource="http://purl.org/dc/dcmitype/StillImage"/>
    <dc:date>2022-11-03T12:28:04.945498</dc:date>
    <dc:format>image/svg+xml</dc:format>
    <dc:creator>
     <cc:Agent>
      <dc:title>Matplotlib v3.6.1, https://matplotlib.org/</dc:title>
     </cc:Agent>
    </dc:creator>
   </cc:Work>
  </rdf:RDF>
 </metadata>
 <defs>
  <style type="text/css">*{stroke-linejoin: round; stroke-linecap: butt}</style>
 </defs>
 <g id="figure_1">
  <g id="patch_1">
   <path d="M 0 432 
L 720 432 
L 720 0 
L 0 0 
z
" style="fill: #ffffff"/>
  </g>
  <g id="axes_1">
   <g id="patch_2">
    <path d="M 27.978125 390.84375 
L 701.248437 390.84375 
L 701.248437 13.975033 
L 27.978125 13.975033 
z
" style="fill: #ffffff"/>
   </g>
   <g id="PolyCollection_1">
    <defs>
     <path id="m063f10f3db" d="M 364.325817 -46.167802 
L 364.613281 -46.167802 
L 364.613281 -46.668957 
L 364.613281 -47.170113 
L 364.613281 -47.671268 
L 364.613281 -48.172423 
L 364.613281 -48.673578 
L 364.613281 -49.174733 
L 364.613281 -49.675889 
L 364.613281 -50.177044 
L 364.613281 -50.678199 
L 364.613281 -51.179354 
L 364.613281 -51.680509 
L 364.613281 -52.181665 
L 364.613281 -52.68282 
L 364.613281 -53.183975 
L 364.613281 -53.68513 
L 364.613281 -54.186285 
L 364.613281 -54.687441 
L 364.613281 -55.188596 
L 364.613281 -55.689751 
L 364.613281 -56.190906 
L 364.613281 -56.692061 
L 364.613281 -57.193217 
L 364.613281 -57.694372 
L 364.613281 -58.195527 
L 364.613281 -58.696682 
L 364.613281 -59.197838 
L 364.613281 -59.698993 
L 364.613281 -60.200148 
L 364.613281 -60.701303 
L 364.613281 -61.202458 
L 364.613281 -61.703614 
L 364.613281 -62.204769 
L 364.613281 -62.705924 
L 364.613281 -63.207079 
L 364.613281 -63.708234 
L 364.613281 -64.20939 
L 364.613281 -64.710545 
L 364.613281 -65.2117 
L 364.613281 -65.712855 
L 364.613281 -66.21401 
L 364.613281 -66.715166 
L 364.613281 -67.216321 
L 364.613281 -67.717476 
L 364.613281 -68.218631 
L 364.613281 -68.719786 
L 364.613281 -69.220942 
L 364.613281 -69.722097 
L 364.613281 -70.223252 
L 364.613281 -70.724407 
L 364.613281 -71.225563 
L 364.613281 -71.726718 
L 364.613281 -72.227873 
L 364.613281 -72.729028 
L 364.613281 -73.230183 
L 364.613281 -73.731339 
L 364.613281 -74.232494 
L 364.613281 -74.733649 
L 364.613281 -75.234804 
L 364.613281 -75.735959 
L 364.613281 -76.237115 
L 364.613281 -76.73827 
L 364.613281 -77.239425 
L 364.613281 -77.74058 
L 364.613281 -78.241735 
L 364.613281 -78.742891 
L 364.613281 -79.244046 
L 364.613281 -79.745201 
L 364.613281 -80.246356 
L 364.613281 -80.747511 
L 364.613281 -81.248667 
L 364.613281 -81.749822 
L 364.613281 -82.250977 
L 364.613281 -82.752132 
L 364.613281 -83.253288 
L 364.613281 -83.754443 
L 364.613281 -84.255598 
L 364.613281 -84.756753 
L 364.613281 -85.257908 
L 364.613281 -85.759064 
L 364.613281 -86.260219 
L 364.613281 -86.761374 
L 364.613281 -87.262529 
L 364.613281 -87.763684 
L 364.613281 -88.26484 
L 364.613281 -88.765995 
L 364.613281 -89.26715 
L 364.613281 -89.768305 
L 364.613281 -90.26946 
L 364.613281 -90.770616 
L 364.613281 -91.271771 
L 364.613281 -91.772926 
L 364.613281 -92.274081 
L 364.613281 -92.775236 
L 364.613281 -93.276392 
L 364.613281 -93.777547 
L 364.613281 -94.278702 
L 364.613281 -94.779857 
L 364.613281 -95.281013 
L 364.613281 -95.782168 
L 364.613281 -96.283323 
L 364.613281 -96.784478 
L 364.613281 -97.285633 
L 364.613281 -97.786789 
L 364.613281 -98.287944 
L 364.613281 -98.789099 
L 364.613281 -99.290254 
L 364.613281 -99.791409 
L 364.613281 -100.292565 
L 364.613281 -100.79372 
L 364.613281 -101.294875 
L 364.613281 -101.79603 
L 364.613281 -102.297185 
L 364.613281 -102.798341 
L 364.613281 -103.299496 
L 364.613281 -103.800651 
L 364.613281 -104.301806 
L 364.613281 -104.802961 
L 364.613281 -105.304117 
L 364.613281 -105.805272 
L 364.613281 -106.306427 
L 364.613281 -106.807582 
L 364.613281 -107.308738 
L 364.613281 -107.809893 
L 364.613281 -108.311048 
L 364.613281 -108.812203 
L 364.613281 -109.313358 
L 364.613281 -109.814514 
L 364.613281 -110.315669 
L 364.613281 -110.816824 
L 364.613281 -111.317979 
L 364.613281 -111.819134 
L 364.613281 -112.32029 
L 364.613281 -112.821445 
L 364.613281 -113.3226 
L 364.613281 -113.823755 
L 364.613281 -114.32491 
L 364.613281 -114.826066 
L 364.613281 -115.327221 
L 364.613281 -115.828376 
L 364.613281 -116.329531 
L 364.613281 -116.830686 
L 364.613281 -117.331842 
L 364.613281 -117.832997 
L 364.613281 -118.334152 
L 364.662106 -118.334152 
L 364.662106 -118.334152 
L 364.658833 -117.832997 
L 364.658539 -117.331842 
L 364.65829 -116.830686 
L 364.657879 -116.329531 
L 364.657742 -115.828376 
L 364.657111 -115.327221 
L 364.65704 -114.826066 
L 364.657024 -114.32491 
L 364.656722 -113.823755 
L 364.656637 -113.3226 
L 364.656566 -112.821445 
L 364.655892 -112.32029 
L 364.654901 -111.819134 
L 364.654678 -111.317979 
L 364.654662 -110.816824 
L 364.654614 -110.315669 
L 364.654009 -109.814514 
L 364.653571 -109.313358 
L 364.653285 -108.812203 
L 364.652871 -108.311048 
L 364.652197 -107.809893 
L 364.652197 -107.308738 
L 364.652112 -106.807582 
L 364.651761 -106.306427 
L 364.65175 -105.805272 
L 364.650943 -105.304117 
L 364.650644 -104.802961 
L 364.65028 -104.301806 
L 364.64996 -103.800651 
L 364.649489 -103.299496 
L 364.649202 -102.798341 
L 364.648488 -102.297185 
L 364.648472 -101.79603 
L 364.648354 -101.294875 
L 364.648014 -100.79372 
L 364.644887 -100.292565 
L 364.639509 -99.791409 
L 364.638847 -99.290254 
L 364.637427 -98.789099 
L 364.635174 -98.287944 
L 364.631187 -97.786789 
L 364.631126 -97.285633 
L 364.629456 -96.784478 
L 364.62892 -96.283323 
L 364.628753 -95.782168 
L 364.628723 -95.281013 
L 364.62861 -94.779857 
L 364.628502 -94.278702 
L 364.627665 -93.777547 
L 364.627505 -93.276392 
L 364.626965 -92.775236 
L 364.626865 -92.274081 
L 364.626749 -91.772926 
L 364.625176 -91.271771 
L 364.625035 -90.770616 
L 364.62473 -90.26946 
L 364.624355 -89.768305 
L 364.624152 -89.26715 
L 364.624046 -88.765995 
L 364.62404 -88.26484 
L 364.623525 -87.763684 
L 364.623491 -87.262529 
L 364.623005 -86.761374 
L 364.622858 -86.260219 
L 364.622621 -85.759064 
L 364.622355 -85.257908 
L 364.621672 -84.756753 
L 364.621564 -84.255598 
L 364.620889 -83.754443 
L 364.620833 -83.253288 
L 364.620833 -82.752132 
L 364.62071 -82.250977 
L 364.620679 -81.749822 
L 364.620566 -81.248667 
L 364.61674 -80.747511 
L 364.616298 -80.246356 
L 364.616093 -79.745201 
L 364.613719 -79.244046 
L 364.612207 -78.742891 
L 364.611786 -78.241735 
L 364.605984 -77.74058 
L 364.604357 -77.239425 
L 364.602776 -76.73827 
L 364.598368 -76.237115 
L 364.597221 -75.735959 
L 364.58711 -75.234804 
L 364.578661 -74.733649 
L 364.576793 -74.232494 
L 364.576612 -73.731339 
L 364.572044 -73.230183 
L 364.570836 -72.729028 
L 364.570059 -72.227873 
L 364.569692 -71.726718 
L 364.56774 -71.225563 
L 364.565223 -70.724407 
L 364.565076 -70.223252 
L 364.562248 -69.722097 
L 364.560187 -69.220942 
L 364.557022 -68.719786 
L 364.556915 -68.218631 
L 364.553858 -67.717476 
L 364.552608 -67.216321 
L 364.548257 -66.715166 
L 364.546229 -66.21401 
L 364.543803 -65.712855 
L 364.542706 -65.2117 
L 364.539642 -64.710545 
L 364.527556 -64.20939 
L 364.526882 -63.708234 
L 364.524194 -63.207079 
L 364.522037 -62.705924 
L 364.515876 -62.204769 
L 364.513823 -61.703614 
L 364.513564 -61.202458 
L 364.512088 -60.701303 
L 364.511511 -60.200148 
L 364.511279 -59.698993 
L 364.510905 -59.197838 
L 364.510504 -58.696682 
L 364.509899 -58.195527 
L 364.509319 -57.694372 
L 364.504792 -57.193217 
L 364.502901 -56.692061 
L 364.5022 -56.190906 
L 364.501981 -55.689751 
L 364.500051 -55.188596 
L 364.498973 -54.687441 
L 364.493224 -54.186285 
L 364.492749 -53.68513 
L 364.46876 -53.183975 
L 364.467529 -52.68282 
L 364.464836 -52.181665 
L 364.461853 -51.680509 
L 364.461789 -51.179354 
L 364.438151 -50.678199 
L 364.437602 -50.177044 
L 364.424021 -49.675889 
L 364.422093 -49.174733 
L 364.412729 -48.673578 
L 364.404383 -48.172423 
L 364.372346 -47.671268 
L 364.367789 -47.170113 
L 364.340044 -46.668957 
L 364.325817 -46.167802 
z
" style="stroke: #000000; stroke-opacity: 0.7"/>
    </defs>
    <g clip-path="url(#p472d8bf2f3)">
     <use xlink:href="#m063f10f3db" x="0" y="432" style="fill-opacity: 0.7; stroke: #000000; stroke-opacity: 0.7"/>
    </g>
   </g>
   <g id="PolyCollection_2">
    <defs>
     <path id="mfa326ed33c" d="M 364.718497 -123.846859 
L 364.613281 -123.846859 
L 364.613281 -124.348015 
L 364.613281 -124.84917 
L 364.613281 -125.350325 
L 364.613281 -125.85148 
L 364.613281 -126.352635 
L 364.613281 -126.853791 
L 364.613281 -127.354946 
L 364.613281 -127.856101 
L 364.613281 -128.357256 
L 364.613281 -128.858411 
L 364.613281 -129.359567 
L 364.613281 -129.860722 
L 364.613281 -130.361877 
L 364.613281 -130.863032 
L 364.613281 -131.364188 
L 364.613281 -131.865343 
L 364.613281 -132.366498 
L 364.613281 -132.867653 
L 364.613281 -133.368808 
L 364.613281 -133.869964 
L 364.613281 -134.371119 
L 364.613281 -134.872274 
L 364.613281 -135.373429 
L 364.613281 -135.874584 
L 364.613281 -136.37574 
L 364.613281 -136.876895 
L 364.613281 -137.37805 
L 364.613281 -137.879205 
L 364.613281 -138.38036 
L 364.613281 -138.881516 
L 364.613281 -139.382671 
L 364.613281 -139.883826 
L 364.613281 -140.384981 
L 364.613281 -140.886136 
L 364.613281 -141.387292 
L 364.613281 -141.888447 
L 364.613281 -142.389602 
L 364.613281 -142.890757 
L 364.613281 -143.391913 
L 364.613281 -143.893068 
L 364.613281 -144.394223 
L 364.613281 -144.895378 
L 364.613281 -145.396533 
L 364.613281 -145.897689 
L 364.613281 -146.398844 
L 364.613281 -146.899999 
L 364.613281 -147.401154 
L 364.613281 -147.902309 
L 364.613281 -148.403465 
L 364.613281 -148.90462 
L 364.613281 -149.405775 
L 364.613281 -149.90693 
L 364.613281 -150.408085 
L 364.613281 -150.909241 
L 364.613281 -151.410396 
L 364.613281 -151.911551 
L 364.613281 -152.412706 
L 364.613281 -152.913861 
L 364.613281 -153.415017 
L 364.613281 -153.916172 
L 364.613281 -154.417327 
L 364.613281 -154.918482 
L 364.613281 -155.419638 
L 364.613281 -155.920793 
L 364.613281 -156.421948 
L 364.613281 -156.923103 
L 364.613281 -157.424258 
L 364.613281 -157.925414 
L 364.613281 -158.426569 
L 364.613281 -158.927724 
L 364.613281 -159.428879 
L 364.613281 -159.930034 
L 364.613281 -160.43119 
L 364.613281 -160.932345 
L 364.613281 -161.4335 
L 364.613281 -161.934655 
L 364.613281 -162.43581 
L 364.613281 -162.936966 
L 364.613281 -163.438121 
L 364.613281 -163.939276 
L 364.613281 -164.440431 
L 364.613281 -164.941586 
L 364.613281 -165.442742 
L 364.613281 -165.943897 
L 364.613281 -166.445052 
L 364.613281 -166.946207 
L 364.613281 -167.447363 
L 364.613281 -167.948518 
L 364.613281 -168.449673 
L 364.613281 -168.950828 
L 364.613281 -169.451983 
L 364.613281 -169.953139 
L 364.613281 -170.454294 
L 364.613281 -170.955449 
L 364.613281 -171.456604 
L 364.613281 -171.957759 
L 364.613281 -172.458915 
L 364.613281 -172.96007 
L 364.613281 -173.461225 
L 364.613281 -173.96238 
L 364.942914 -173.96238 
L 364.942914 -173.96238 
L 364.929648 -173.461225 
L 364.929571 -172.96007 
L 364.926773 -172.458915 
L 364.92581 -171.957759 
L 364.913992 -171.456604 
L 364.912634 -170.955449 
L 364.911659 -170.454294 
L 364.91052 -169.953139 
L 364.905498 -169.451983 
L 364.904636 -168.950828 
L 364.904336 -168.449673 
L 364.903873 -167.948518 
L 364.903024 -167.447363 
L 364.902909 -166.946207 
L 364.900598 -166.445052 
L 364.899736 -165.943897 
L 364.899341 -165.442742 
L 364.898667 -164.941586 
L 364.898185 -164.440431 
L 364.897036 -163.939276 
L 364.895993 -163.438121 
L 364.893423 -162.936966 
L 364.893052 -162.43581 
L 364.892457 -161.934655 
L 364.891565 -161.4335 
L 364.890702 -160.932345 
L 364.888962 -160.43119 
L 364.886577 -159.930034 
L 364.883543 -159.428879 
L 364.883199 -158.927724 
L 364.881412 -158.426569 
L 364.880333 -157.925414 
L 364.877568 -157.424258 
L 364.877408 -156.923103 
L 364.877291 -156.421948 
L 364.873679 -155.920793 
L 364.873172 -155.419638 
L 364.872653 -154.918482 
L 364.871575 -154.417327 
L 364.870223 -153.916172 
L 364.866958 -153.415017 
L 364.866894 -152.913861 
L 364.866192 -152.412706 
L 364.86583 -151.911551 
L 364.86367 -151.410396 
L 364.863288 -150.909241 
L 364.861359 -150.408085 
L 364.860983 -149.90693 
L 364.860381 -149.405775 
L 364.858835 -148.90462 
L 364.857893 -148.403465 
L 364.857181 -147.902309 
L 364.856847 -147.401154 
L 364.855715 -146.899999 
L 364.854599 -146.398844 
L 364.854048 -145.897689 
L 364.853605 -145.396533 
L 364.853461 -144.895378 
L 364.852815 -144.394223 
L 364.851584 -143.893068 
L 364.850874 -143.391913 
L 364.85044 -142.890757 
L 364.847663 -142.389602 
L 364.846903 -141.888447 
L 364.845257 -141.387292 
L 364.841592 -140.886136 
L 364.840447 -140.384981 
L 364.840396 -139.883826 
L 364.838942 -139.382671 
L 364.838191 -138.881516 
L 364.836574 -138.38036 
L 364.833586 -137.879205 
L 364.833103 -137.37805 
L 364.830602 -136.876895 
L 364.828488 -136.37574 
L 364.823865 -135.874584 
L 364.812246 -135.373429 
L 364.811906 -134.872274 
L 364.811219 -134.371119 
L 364.80912 -133.869964 
L 364.808329 -133.368808 
L 364.808069 -132.867653 
L 364.799579 -132.366498 
L 364.796875 -131.865343 
L 364.791521 -131.364188 
L 364.788555 -130.863032 
L 364.787759 -130.361877 
L 364.787228 -129.860722 
L 364.78335 -129.359567 
L 364.782141 -128.858411 
L 364.76681 -128.357256 
L 364.763409 -127.856101 
L 364.7617 -127.354946 
L 364.756814 -126.853791 
L 364.750919 -126.352635 
L 364.74945 -125.85148 
L 364.74733 -125.350325 
L 364.747044 -124.84917 
L 364.734981 -124.348015 
L 364.718497 -123.846859 
z
" style="stroke: #1800a7; stroke-opacity: 0.7"/>
    </defs>
    <g clip-path="url(#p472d8bf2f3)">
     <use xlink:href="#mfa326ed33c" x="0" y="432" style="fill: #1800a7; fill-opacity: 0.7; stroke: #1800a7; stroke-opacity: 0.7"/>
    </g>
   </g>
   <g id="PolyCollection_3">
    <defs>
     <path id="m210af41895" d="M 364.678157 -179.475088 
L 364.613281 -179.475088 
L 364.613281 -179.976243 
L 364.613281 -180.477398 
L 364.613281 -180.978553 
L 364.613281 -181.479708 
L 364.613281 -181.980864 
L 364.613281 -182.482019 
L 364.613281 -182.983174 
L 364.613281 -183.484329 
L 364.613281 -183.985484 
L 364.613281 -184.48664 
L 364.613281 -184.987795 
L 364.613281 -185.48895 
L 364.613281 -185.990105 
L 364.613281 -186.49126 
L 364.613281 -186.992416 
L 364.613281 -187.493571 
L 364.613281 -187.994726 
L 364.613281 -188.495881 
L 364.613281 -188.997036 
L 364.613281 -189.498192 
L 364.613281 -189.999347 
L 364.613281 -190.500502 
L 364.613281 -191.001657 
L 364.613281 -191.502813 
L 364.613281 -192.003968 
L 364.613281 -192.505123 
L 364.613281 -193.006278 
L 364.613281 -193.507433 
L 364.613281 -194.008589 
L 364.613281 -194.509744 
L 364.613281 -195.010899 
L 364.613281 -195.512054 
L 364.613281 -196.013209 
L 364.613281 -196.514365 
L 364.613281 -197.01552 
L 364.613281 -197.516675 
L 364.613281 -198.01783 
L 364.613281 -198.518985 
L 364.613281 -199.020141 
L 364.613281 -199.521296 
L 364.613281 -200.022451 
L 364.613281 -200.523606 
L 364.613281 -201.024761 
L 364.613281 -201.525917 
L 364.613281 -202.027072 
L 364.613281 -202.528227 
L 364.613281 -203.029382 
L 364.613281 -203.530538 
L 364.613281 -204.031693 
L 364.613281 -204.532848 
L 364.613281 -205.034003 
L 364.613281 -205.535158 
L 364.613281 -206.036314 
L 364.613281 -206.537469 
L 364.613281 -207.038624 
L 364.613281 -207.539779 
L 364.613281 -208.040934 
L 364.613281 -208.54209 
L 364.613281 -209.043245 
L 364.613281 -209.5444 
L 364.613281 -210.045555 
L 364.613281 -210.54671 
L 364.613281 -211.047866 
L 364.613281 -211.549021 
L 364.613281 -212.050176 
L 364.613281 -212.551331 
L 364.613281 -213.052486 
L 364.613281 -213.553642 
L 364.613281 -214.054797 
L 364.613281 -214.555952 
L 364.613281 -215.057107 
L 364.613281 -215.558263 
L 364.613281 -216.059418 
L 364.613281 -216.560573 
L 364.613281 -217.061728 
L 364.613281 -217.562883 
L 364.613281 -218.064039 
L 364.613281 -218.565194 
L 364.613281 -219.066349 
L 364.613281 -219.567504 
L 364.613281 -220.068659 
L 364.613281 -220.569815 
L 364.613281 -221.07097 
L 364.613281 -221.572125 
L 364.613281 -222.07328 
L 364.613281 -222.574435 
L 364.953064 -222.574435 
L 364.953064 -222.574435 
L 364.94368 -222.07328 
L 364.938766 -221.572125 
L 364.936423 -221.07097 
L 364.928933 -220.569815 
L 364.92799 -220.068659 
L 364.92336 -219.567504 
L 364.91456 -219.066349 
L 364.913604 -218.565194 
L 364.912365 -218.064039 
L 364.911326 -217.562883 
L 364.90964 -217.061728 
L 364.906583 -216.560573 
L 364.905462 -216.059418 
L 364.905095 -215.558263 
L 364.902977 -215.057107 
L 364.90235 -214.555952 
L 364.901346 -214.054797 
L 364.900309 -213.553642 
L 364.900078 -213.052486 
L 364.899336 -212.551331 
L 364.893488 -212.050176 
L 364.893349 -211.549021 
L 364.891571 -211.047866 
L 364.890208 -210.54671 
L 364.889421 -210.045555 
L 364.888768 -209.5444 
L 364.887672 -209.043245 
L 364.88742 -208.54209 
L 364.886615 -208.040934 
L 364.886348 -207.539779 
L 364.885704 -207.038624 
L 364.884137 -206.537469 
L 364.882298 -206.036314 
L 364.879176 -205.535158 
L 364.876914 -205.034003 
L 364.875406 -204.532848 
L 364.875089 -204.031693 
L 364.874706 -203.530538 
L 364.874622 -203.029382 
L 364.872163 -202.528227 
L 364.870449 -202.027072 
L 364.86993 -201.525917 
L 364.868341 -201.024761 
L 364.866736 -200.523606 
L 364.865103 -200.022451 
L 364.864972 -199.521296 
L 364.864576 -199.020141 
L 364.863852 -198.518985 
L 364.862858 -198.01783 
L 364.862054 -197.516675 
L 364.8595 -197.01552 
L 364.857036 -196.514365 
L 364.856997 -196.013209 
L 364.855811 -195.512054 
L 364.85248 -195.010899 
L 364.850173 -194.509744 
L 364.847056 -194.008589 
L 364.842672 -193.507433 
L 364.842004 -193.006278 
L 364.841829 -192.505123 
L 364.841641 -192.003968 
L 364.840511 -191.502813 
L 364.837476 -191.001657 
L 364.83551 -190.500502 
L 364.833588 -189.999347 
L 364.833477 -189.498192 
L 364.830159 -188.997036 
L 364.826335 -188.495881 
L 364.825335 -187.994726 
L 364.825026 -187.493571 
L 364.821623 -186.992416 
L 364.819664 -186.49126 
L 364.810453 -185.990105 
L 364.805583 -185.48895 
L 364.804273 -184.987795 
L 364.802079 -184.48664 
L 364.796256 -183.985484 
L 364.794696 -183.484329 
L 364.794292 -182.983174 
L 364.791894 -182.482019 
L 364.776075 -181.980864 
L 364.769715 -181.479708 
L 364.755459 -180.978553 
L 364.752637 -180.477398 
L 364.74302 -179.976243 
L 364.678157 -179.475088 
z
" style="stroke: #0090dd; stroke-opacity: 0.7"/>
    </defs>
    <g clip-path="url(#p472d8bf2f3)">
     <use xlink:href="#m210af41895" x="0" y="432" style="fill: #0090dd; fill-opacity: 0.7; stroke: #0090dd; stroke-opacity: 0.7"/>
    </g>
   </g>
   <g id="PolyCollection_4">
    <defs>
     <path id="mb2a8a32e18" d="M 364.896455 -228.087143 
L 364.613281 -228.087143 
L 364.613281 -228.588298 
L 364.613281 -229.089453 
L 364.613281 -229.590608 
L 364.613281 -230.091764 
L 364.613281 -230.592919 
L 364.613281 -231.094074 
L 364.613281 -231.595229 
L 364.988234 -231.595229 
L 364.988234 -231.595229 
L 364.983613 -231.094074 
L 364.971111 -230.592919 
L 364.96476 -230.091764 
L 364.963738 -229.590608 
L 364.958537 -229.089453 
L 364.932071 -228.588298 
L 364.896455 -228.087143 
z
" style="stroke: #00a13d; stroke-opacity: 0.7"/>
    </defs>
    <g clip-path="url(#p472d8bf2f3)">
     <use xlink:href="#mb2a8a32e18" x="0" y="432" style="fill: #00a13d; fill-opacity: 0.7; stroke: #00a13d; stroke-opacity: 0.7"/>
    </g>
   </g>
   <g id="PolyCollection_5">
    <defs>
     <path id="mfb5ccb2a09" d="M 364.713201 -237.107937 
L 364.613281 -237.107937 
L 364.613281 -237.609092 
L 364.613281 -238.110247 
L 364.613281 -238.611402 
L 364.613281 -239.112557 
L 364.613281 -239.613713 
L 364.613281 -240.114868 
L 364.613281 -240.616023 
L 364.613281 -241.117178 
L 364.613281 -241.618333 
L 364.613281 -242.119489 
L 364.613281 -242.620644 
L 364.613281 -243.121799 
L 364.613281 -243.622954 
L 364.613281 -244.124109 
L 364.613281 -244.625265 
L 364.613281 -245.12642 
L 364.613281 -245.627575 
L 364.613281 -246.12873 
L 364.613281 -246.629885 
L 364.613281 -247.131041 
L 364.613281 -247.632196 
L 364.613281 -248.133351 
L 364.613281 -248.634506 
L 364.613281 -249.135662 
L 364.613281 -249.636817 
L 364.613281 -250.137972 
L 364.613281 -250.639127 
L 364.613281 -251.140282 
L 364.613281 -251.641438 
L 364.613281 -252.142593 
L 364.613281 -252.643748 
L 364.613281 -253.144903 
L 364.613281 -253.646058 
L 364.613281 -254.147214 
L 364.613281 -254.648369 
L 364.613281 -255.149524 
L 364.613281 -255.650679 
L 364.613281 -256.151834 
L 364.613281 -256.65299 
L 364.613281 -257.154145 
L 364.613281 -257.6553 
L 364.613281 -258.156455 
L 364.613281 -258.65761 
L 364.613281 -259.158766 
L 364.613281 -259.659921 
L 364.613281 -260.161076 
L 364.613281 -260.662231 
L 364.613281 -261.163387 
L 364.613281 -261.664542 
L 364.613281 -262.165697 
L 364.613281 -262.666852 
L 364.613281 -263.168007 
L 364.613281 -263.669163 
L 364.613281 -264.170318 
L 364.613281 -264.671473 
L 364.613281 -265.172628 
L 364.613281 -265.673783 
L 364.613281 -266.174939 
L 364.613281 -266.676094 
L 364.844879 -266.676094 
L 364.844879 -266.676094 
L 364.833364 -266.174939 
L 364.830301 -265.673783 
L 364.8299 -265.172628 
L 364.822778 -264.671473 
L 364.822159 -264.170318 
L 364.821885 -263.669163 
L 364.819065 -263.168007 
L 364.818744 -262.666852 
L 364.818147 -262.165697 
L 364.817998 -261.664542 
L 364.81627 -261.163387 
L 364.813974 -260.662231 
L 364.813664 -260.161076 
L 364.813182 -259.659921 
L 364.813182 -259.158766 
L 364.811092 -258.65761 
L 364.811092 -258.156455 
L 364.811025 -257.6553 
L 364.809219 -257.154145 
L 364.809038 -256.65299 
L 364.809029 -256.151834 
L 364.808412 -255.650679 
L 364.807406 -255.149524 
L 364.807018 -254.648369 
L 364.804687 -254.147214 
L 364.802332 -253.646058 
L 364.800826 -253.144903 
L 364.7994 -252.643748 
L 364.7994 -252.142593 
L 364.799093 -251.641438 
L 364.798771 -251.140282 
L 364.798624 -250.639127 
L 364.796705 -250.137972 
L 364.795306 -249.636817 
L 364.79378 -249.135662 
L 364.791833 -248.634506 
L 364.791349 -248.133351 
L 364.791342 -247.632196 
L 364.790071 -247.131041 
L 364.788103 -246.629885 
L 364.786374 -246.12873 
L 364.785864 -245.627575 
L 364.783114 -245.12642 
L 364.78188 -244.625265 
L 364.779963 -244.124109 
L 364.777716 -243.622954 
L 364.777508 -243.121799 
L 364.775195 -242.620644 
L 364.775049 -242.119489 
L 364.774812 -241.618333 
L 364.772534 -241.117178 
L 364.771681 -240.616023 
L 364.769944 -240.114868 
L 364.768171 -239.613713 
L 364.766498 -239.112557 
L 364.761912 -238.611402 
L 364.756834 -238.110247 
L 364.755718 -237.609092 
L 364.713201 -237.107937 
z
" style="stroke: #00ec00; stroke-opacity: 0.7"/>
    </defs>
    <g clip-path="url(#p472d8bf2f3)">
     <use xlink:href="#mfb5ccb2a09" x="0" y="432" style="fill: #00ec00; fill-opacity: 0.7; stroke: #00ec00; stroke-opacity: 0.7"/>
    </g>
   </g>
   <g id="PolyCollection_6">
    <defs>
     <path id="m11c35b62fe" d="M 365.581109 -272.188801 
L 364.613281 -272.188801 
L 364.613281 -272.689956 
L 364.613281 -273.191112 
L 364.613281 -273.692267 
L 364.613281 -274.193422 
L 364.613281 -274.694577 
L 364.613281 -275.195732 
L 364.613281 -275.696888 
L 364.613281 -276.198043 
L 364.613281 -276.699198 
L 364.613281 -277.200353 
L 364.613281 -277.701508 
L 364.613281 -278.202664 
L 364.613281 -278.703819 
L 364.613281 -279.204974 
L 364.613281 -279.706129 
L 364.613281 -280.207284 
L 364.613281 -280.70844 
L 364.613281 -281.209595 
L 364.613281 -281.71075 
L 364.613281 -282.211905 
L 364.613281 -282.71306 
L 364.613281 -283.214216 
L 364.613281 -283.715371 
L 364.613281 -284.216526 
L 364.613281 -284.717681 
L 364.613281 -285.218837 
L 364.613281 -285.719992 
L 364.613281 -286.221147 
L 364.613281 -286.722302 
L 364.613281 -287.223457 
L 364.613281 -287.724613 
L 364.613281 -288.225768 
L 364.613281 -288.726923 
L 364.613281 -289.228078 
L 364.613281 -289.729233 
L 364.613281 -290.230389 
L 364.613281 -290.731544 
L 364.613281 -291.232699 
L 364.613281 -291.733854 
L 364.613281 -292.235009 
L 364.613281 -292.736165 
L 364.613281 -293.23732 
L 364.613281 -293.738475 
L 364.613281 -294.23963 
L 364.613281 -294.740785 
L 364.613281 -295.241941 
L 364.613281 -295.743096 
L 364.613281 -296.244251 
L 364.613281 -296.745406 
L 364.613281 -297.246562 
L 364.613281 -297.747717 
L 364.613281 -298.248872 
L 364.613281 -298.750027 
L 364.613281 -299.251182 
L 364.613281 -299.752338 
L 364.613281 -300.253493 
L 364.613281 -300.754648 
L 364.613281 -301.255803 
L 364.613281 -301.756958 
L 364.613281 -302.258114 
L 364.613281 -302.759269 
L 364.613281 -303.260424 
L 364.613281 -303.761579 
L 364.613281 -304.262734 
L 364.613281 -304.76389 
L 364.613281 -305.265045 
L 364.613281 -305.7662 
L 364.613281 -306.267355 
L 364.613281 -306.76851 
L 364.613281 -307.269666 
L 364.613281 -307.770821 
L 364.613281 -308.271976 
L 364.613281 -308.773131 
L 364.613281 -309.274287 
L 364.613281 -309.775442 
L 364.613281 -310.276597 
L 364.613281 -310.777752 
L 364.613281 -311.278907 
L 364.613281 -311.780063 
L 364.613281 -312.281218 
L 364.613281 -312.782373 
L 364.613281 -313.283528 
L 364.613281 -313.784683 
L 364.613281 -314.285839 
L 364.613281 -314.786994 
L 364.613281 -315.288149 
L 364.613281 -315.789304 
L 364.613281 -316.290459 
L 364.613281 -316.791615 
L 364.613281 -317.29277 
L 364.613281 -317.793925 
L 364.613281 -318.29508 
L 364.613281 -318.796235 
L 364.613281 -319.297391 
L 364.613281 -319.798546 
L 364.613281 -320.299701 
L 364.613281 -320.800856 
L 364.613281 -321.302012 
L 364.613281 -321.803167 
L 364.613281 -322.304322 
L 364.613281 -322.805477 
L 364.613281 -323.306632 
L 364.613281 -323.807788 
L 364.613281 -324.308943 
L 364.613281 -324.810098 
L 364.613281 -325.311253 
L 364.613281 -325.812408 
L 364.613281 -326.313564 
L 364.613281 -326.814719 
L 364.613281 -327.315874 
L 364.613281 -327.817029 
L 364.613281 -328.318184 
L 364.613281 -328.81934 
L 364.613281 -329.320495 
L 364.613281 -329.82165 
L 364.613281 -330.322805 
L 364.613281 -330.82396 
L 364.613281 -331.325116 
L 364.613281 -331.826271 
L 364.613281 -332.327426 
L 364.613281 -332.828581 
L 364.613281 -333.329737 
L 364.613281 -333.830892 
L 364.613281 -334.332047 
L 364.613281 -334.833202 
L 364.613281 -335.334357 
L 364.613281 -335.835513 
L 364.613281 -336.336668 
L 364.613281 -336.837823 
L 364.613281 -337.338978 
L 364.613281 -337.840133 
L 364.613281 -338.341289 
L 364.613281 -338.842444 
L 364.613281 -339.343599 
L 364.613281 -339.844754 
L 364.613281 -340.345909 
L 364.613281 -340.847065 
L 364.613281 -341.34822 
L 364.613281 -341.849375 
L 364.613281 -342.35053 
L 364.613281 -342.851685 
L 364.613281 -343.352841 
L 364.613281 -343.853996 
L 364.613281 -344.355151 
L 364.613281 -344.856306 
L 364.613281 -345.357462 
L 364.613281 -345.858617 
L 364.613281 -346.359772 
L 364.613281 -346.860927 
L 364.613281 -347.362082 
L 364.613281 -347.863238 
L 364.613281 -348.364393 
L 364.613281 -348.865548 
L 364.613281 -349.366703 
L 364.613281 -349.867858 
L 364.613281 -350.369014 
L 364.613281 -350.870169 
L 364.613281 -351.371324 
L 364.613281 -351.872479 
L 364.613281 -352.373634 
L 364.613281 -352.87479 
L 364.613281 -353.375945 
L 364.613281 -353.8771 
L 364.613281 -354.378255 
L 364.613281 -354.87941 
L 364.613281 -355.380566 
L 364.613281 -355.881721 
L 364.613281 -356.382876 
L 364.613281 -356.884031 
L 364.613281 -357.385187 
L 364.613281 -357.886342 
L 364.613281 -358.387497 
L 364.613281 -358.888652 
L 364.613281 -359.389807 
L 364.613281 -359.890963 
L 364.613281 -360.392118 
L 364.613281 -360.893273 
L 364.613281 -361.394428 
L 364.613281 -361.895583 
L 364.613281 -362.396739 
L 364.613281 -362.897894 
L 364.613281 -363.399049 
L 364.613281 -363.900204 
L 364.613281 -364.401359 
L 364.613281 -364.902515 
L 364.613281 -365.40367 
L 364.613281 -365.904825 
L 364.613281 -366.40598 
L 364.613281 -366.907135 
L 364.613281 -367.408291 
L 364.613281 -367.909446 
L 364.613281 -368.410601 
L 364.613281 -368.911756 
L 364.613281 -369.412912 
L 364.613281 -369.914067 
L 364.613281 -370.415222 
L 364.613281 -370.916377 
L 364.613281 -371.417532 
L 364.613281 -371.918688 
L 364.613281 -372.419843 
L 366.250659 -372.419843 
L 366.250659 -372.419843 
L 366.231858 -371.918688 
L 366.226422 -371.417532 
L 366.222016 -370.916377 
L 366.186896 -370.415222 
L 366.17052 -369.914067 
L 366.156859 -369.412912 
L 366.155128 -368.911756 
L 366.15069 -368.410601 
L 366.14958 -367.909446 
L 366.146692 -367.408291 
L 366.144008 -366.907135 
L 366.142303 -366.40598 
L 366.138351 -365.904825 
L 366.136418 -365.40367 
L 366.134959 -364.902515 
L 366.134024 -364.401359 
L 366.132336 -363.900204 
L 366.129737 -363.399049 
L 366.126328 -362.897894 
L 366.117956 -362.396739 
L 366.115014 -361.895583 
L 366.113952 -361.394428 
L 366.113743 -360.893273 
L 366.110737 -360.392118 
L 366.106874 -359.890963 
L 366.106383 -359.389807 
L 366.105719 -358.888652 
L 366.105474 -358.387497 
L 366.102311 -357.886342 
L 366.100064 -357.385187 
L 366.092629 -356.884031 
L 366.09116 -356.382876 
L 366.09086 -355.881721 
L 366.090057 -355.380566 
L 366.089306 -354.87941 
L 366.088847 -354.378255 
L 366.085122 -353.8771 
L 366.081504 -353.375945 
L 366.081196 -352.87479 
L 366.078377 -352.373634 
L 366.076622 -351.872479 
L 366.076155 -351.371324 
L 366.075051 -350.870169 
L 366.071474 -350.369014 
L 366.07021 -349.867858 
L 366.068816 -349.366703 
L 366.068793 -348.865548 
L 366.067108 -348.364393 
L 366.065873 -347.863238 
L 366.065431 -347.362082 
L 366.064509 -346.860927 
L 366.061764 -346.359772 
L 366.060418 -345.858617 
L 366.060267 -345.357462 
L 366.059627 -344.856306 
L 366.058784 -344.355151 
L 366.05852 -343.853996 
L 366.05824 -343.352841 
L 366.054263 -342.851685 
L 366.052919 -342.35053 
L 366.052032 -341.849375 
L 366.048734 -341.34822 
L 366.048631 -340.847065 
L 366.046046 -340.345909 
L 366.045836 -339.844754 
L 366.045514 -339.343599 
L 366.044997 -338.842444 
L 366.043676 -338.341289 
L 366.043172 -337.840133 
L 366.042388 -337.338978 
L 366.041462 -336.837823 
L 366.041423 -336.336668 
L 366.040803 -335.835513 
L 366.040591 -335.334357 
L 366.039831 -334.833202 
L 366.039482 -334.332047 
L 366.039194 -333.830892 
L 366.037779 -333.329737 
L 366.037623 -332.828581 
L 366.036918 -332.327426 
L 366.035534 -331.826271 
L 366.034505 -331.325116 
L 366.033684 -330.82396 
L 366.031805 -330.322805 
L 366.029802 -329.82165 
L 366.029241 -329.320495 
L 366.026897 -328.81934 
L 366.023885 -328.318184 
L 366.022562 -327.817029 
L 366.021479 -327.315874 
L 366.021286 -326.814719 
L 366.020237 -326.313564 
L 366.020172 -325.812408 
L 366.018154 -325.311253 
L 366.017029 -324.810098 
L 366.01495 -324.308943 
L 366.010169 -323.807788 
L 366.008259 -323.306632 
L 366.007149 -322.805477 
L 366.006986 -322.304322 
L 366.006749 -321.803167 
L 366.005669 -321.302012 
L 366.000372 -320.800856 
L 365.999462 -320.299701 
L 365.996758 -319.798546 
L 365.996571 -319.297391 
L 365.996444 -318.796235 
L 365.996129 -318.29508 
L 365.99373 -317.793925 
L 365.992953 -317.29277 
L 365.99232 -316.791615 
L 365.984326 -316.290459 
L 365.982302 -315.789304 
L 365.981332 -315.288149 
L 365.981037 -314.786994 
L 365.980585 -314.285839 
L 365.975503 -313.784683 
L 365.974837 -313.283528 
L 365.973415 -312.782373 
L 365.972717 -312.281218 
L 365.972125 -311.780063 
L 365.97196 -311.278907 
L 365.970073 -310.777752 
L 365.969237 -310.276597 
L 365.963458 -309.775442 
L 365.963138 -309.274287 
L 365.962381 -308.773131 
L 365.954053 -308.271976 
L 365.952748 -307.770821 
L 365.952051 -307.269666 
L 365.946994 -306.76851 
L 365.946721 -306.267355 
L 365.939191 -305.7662 
L 365.937489 -305.265045 
L 365.935955 -304.76389 
L 365.933725 -304.262734 
L 365.933006 -303.761579 
L 365.932347 -303.260424 
L 365.932114 -302.759269 
L 365.928724 -302.258114 
L 365.926548 -301.756958 
L 365.925806 -301.255803 
L 365.92513 -300.754648 
L 365.920827 -300.253493 
L 365.91837 -299.752338 
L 365.917695 -299.251182 
L 365.917291 -298.750027 
L 365.914835 -298.248872 
L 365.911112 -297.747717 
L 365.907907 -297.246562 
L 365.894847 -296.745406 
L 365.891571 -296.244251 
L 365.889991 -295.743096 
L 365.889609 -295.241941 
L 365.887731 -294.740785 
L 365.883154 -294.23963 
L 365.880706 -293.738475 
L 365.876576 -293.23732 
L 365.876483 -292.736165 
L 365.864972 -292.235009 
L 365.862422 -291.733854 
L 365.859938 -291.232699 
L 365.854251 -290.731544 
L 365.853923 -290.230389 
L 365.841672 -289.729233 
L 365.840101 -289.228078 
L 365.836505 -288.726923 
L 365.825268 -288.225768 
L 365.819894 -287.724613 
L 365.815578 -287.223457 
L 365.807422 -286.722302 
L 365.805885 -286.221147 
L 365.805561 -285.719992 
L 365.801852 -285.218837 
L 365.801205 -284.717681 
L 365.790567 -284.216526 
L 365.783556 -283.715371 
L 365.782169 -283.214216 
L 365.780159 -282.71306 
L 365.778596 -282.211905 
L 365.773394 -281.71075 
L 365.765263 -281.209595 
L 365.75185 -280.70844 
L 365.750136 -280.207284 
L 365.748761 -279.706129 
L 365.747899 -279.204974 
L 365.747079 -278.703819 
L 365.74451 -278.202664 
L 365.728837 -277.701508 
L 365.692551 -277.200353 
L 365.68466 -276.699198 
L 365.661783 -276.198043 
L 365.659005 -275.696888 
L 365.632951 -275.195732 
L 365.627112 -274.694577 
L 365.622227 -274.193422 
L 365.611526 -273.692267 
L 365.597323 -273.191112 
L 365.593607 -272.689956 
L 365.581109 -272.188801 
z
" style="stroke: #f3e500; stroke-opacity: 0.7"/>
    </defs>
    <g clip-path="url(#p472d8bf2f3)">
     <use xlink:href="#m11c35b62fe" x="0" y="432" style="fill: #f3e500; fill-opacity: 0.7; stroke: #f3e500; stroke-opacity: 0.7"/>
    </g>
   </g>
   <g id="PolyCollection_7">
    <defs>
     <path id="mf0c80f48ec" d="M 364.715228 -377.93255 
L 364.613281 -377.93255 
L 364.613281 -378.433705 
L 364.613281 -378.93486 
L 364.613281 -379.436016 
L 364.613281 -379.937171 
L 364.613281 -380.438326 
L 364.613281 -380.939481 
L 364.613281 -381.440637 
L 364.613281 -381.941792 
L 364.613281 -382.442947 
L 364.613281 -382.944102 
L 364.613281 -383.445257 
L 364.613281 -383.946413 
L 364.613281 -384.447568 
L 364.613281 -384.948723 
L 364.613281 -385.449878 
L 364.613281 -385.951033 
L 364.613281 -386.452189 
L 364.613281 -386.953344 
L 364.613281 -387.454499 
L 364.613281 -387.955654 
L 364.613281 -388.456809 
L 364.613281 -388.957965 
L 364.613281 -389.45912 
L 364.613281 -389.960275 
L 364.613281 -390.46143 
L 364.613281 -390.962585 
L 364.613281 -391.463741 
L 364.613281 -391.964896 
L 364.613281 -392.466051 
L 364.613281 -392.967206 
L 364.613281 -393.468362 
L 364.613281 -393.969517 
L 364.613281 -394.470672 
L 364.613281 -394.971827 
L 364.613281 -395.472982 
L 364.613281 -395.974138 
L 364.613281 -396.475293 
L 364.613281 -396.976448 
L 364.613281 -397.477603 
L 364.613281 -397.978758 
L 364.613281 -398.479914 
L 364.613281 -398.981069 
L 364.613281 -399.482224 
L 364.613281 -399.983379 
L 364.613281 -400.484534 
L 364.613281 -400.98569 
L 364.613281 -401.486845 
L 364.613281 -401.988 
L 364.613281 -402.489155 
L 364.613281 -402.990311 
L 364.613281 -403.491466 
L 364.613281 -403.992621 
L 364.613281 -404.493776 
L 364.613281 -404.994931 
L 364.613281 -405.496087 
L 364.613281 -405.997242 
L 364.613281 -406.498397 
L 364.613281 -406.999552 
L 364.613281 -407.500707 
L 364.613281 -408.001863 
L 364.613281 -408.503018 
L 364.613281 -409.004173 
L 364.613281 -409.505328 
L 364.613281 -410.006483 
L 364.613281 -410.507639 
L 364.613281 -411.008794 
L 364.613281 -411.509949 
L 364.613281 -412.011104 
L 364.613281 -412.512259 
L 364.922718 -412.512259 
L 364.922718 -412.512259 
L 364.914715 -412.011104 
L 364.912196 -411.509949 
L 364.909717 -411.008794 
L 364.906227 -410.507639 
L 364.90462 -410.006483 
L 364.89564 -409.505328 
L 364.895299 -409.004173 
L 364.894089 -408.503018 
L 364.893134 -408.001863 
L 364.889502 -407.500707 
L 364.885055 -406.999552 
L 364.884754 -406.498397 
L 364.884425 -405.997242 
L 364.882274 -405.496087 
L 364.88036 -404.994931 
L 364.879617 -404.493776 
L 364.878826 -403.992621 
L 364.878595 -403.491466 
L 364.877413 -402.990311 
L 364.872992 -402.489155 
L 364.871104 -401.988 
L 364.866485 -401.486845 
L 364.862278 -400.98569 
L 364.86143 -400.484534 
L 364.859734 -399.983379 
L 364.859331 -399.482224 
L 364.858893 -398.981069 
L 364.858799 -398.479914 
L 364.856948 -397.978758 
L 364.856539 -397.477603 
L 364.855051 -396.976448 
L 364.854179 -396.475293 
L 364.850699 -395.974138 
L 364.848696 -395.472982 
L 364.846357 -394.971827 
L 364.845694 -394.470672 
L 364.845541 -393.969517 
L 364.838628 -393.468362 
L 364.837851 -392.967206 
L 364.835988 -392.466051 
L 364.831646 -391.964896 
L 364.831039 -391.463741 
L 364.826586 -390.962585 
L 364.824889 -390.46143 
L 364.8239 -389.960275 
L 364.821806 -389.45912 
L 364.809055 -388.957965 
L 364.808537 -388.456809 
L 364.808436 -387.955654 
L 364.808436 -387.454499 
L 364.805206 -386.953344 
L 364.801028 -386.452189 
L 364.800706 -385.951033 
L 364.791463 -385.449878 
L 364.7911 -384.948723 
L 364.791071 -384.447568 
L 364.787145 -383.946413 
L 364.77866 -383.445257 
L 364.771257 -382.944102 
L 364.770247 -382.442947 
L 364.767697 -381.941792 
L 364.765872 -381.440637 
L 364.762236 -380.939481 
L 364.761199 -380.438326 
L 364.760752 -379.937171 
L 364.754232 -379.436016 
L 364.743826 -378.93486 
L 364.734699 -378.433705 
L 364.715228 -377.93255 
z
" style="stroke: #f90000; stroke-opacity: 0.7"/>
    </defs>
    <g clip-path="url(#p472d8bf2f3)">
     <use xlink:href="#mf0c80f48ec" x="0" y="432" style="fill: #f90000; fill-opacity: 0.7; stroke: #f90000; stroke-opacity: 0.7"/>
    </g>
   </g>
   <g id="matplotlib.axis_1">
    <g id="xtick_1">
     <g id="line2d_1">
      <defs>
       <path id="m06d38a0261" d="M 0 0 
L 0 3.5 
" style="stroke: #000000; stroke-width: 0.8"/>
      </defs>
      <g>
       <use xlink:href="#m06d38a0261" x="27.978125" y="390.84375" style="stroke: #000000; stroke-width: 0.8"/>
      </g>
     </g>
     <g id="text_1">
      <!-- −1.0 -->
      <g transform="translate(15.836719 405.442187) scale(0.1 -0.1)">
       <defs>
        <path id="DejaVuSans-2212" d="M 678 2272 
L 4684 2272 
L 4684 1741 
L 678 1741 
L 678 2272 
z
" transform="scale(0.015625)"/>
        <path id="DejaVuSans-31" d="M 794 531 
L 1825 531 
L 1825 4091 
L 703 3866 
L 703 4441 
L 1819 4666 
L 2450 4666 
L 2450 531 
L 3481 531 
L 3481 0 
L 794 0 
L 794 531 
z
" transform="scale(0.015625)"/>
        <path id="DejaVuSans-2e" d="M 684 794 
L 1344 794 
L 1344 0 
L 684 0 
L 684 794 
z
" transform="scale(0.015625)"/>
        <path id="DejaVuSans-30" d="M 2034 4250 
Q 1547 4250 1301 3770 
Q 1056 3291 1056 2328 
Q 1056 1369 1301 889 
Q 1547 409 2034 409 
Q 2525 409 2770 889 
Q 3016 1369 3016 2328 
Q 3016 3291 2770 3770 
Q 2525 4250 2034 4250 
z
M 2034 4750 
Q 2819 4750 3233 4129 
Q 3647 3509 3647 2328 
Q 3647 1150 3233 529 
Q 2819 -91 2034 -91 
Q 1250 -91 836 529 
Q 422 1150 422 2328 
Q 422 3509 836 4129 
Q 1250 4750 2034 4750 
z
" transform="scale(0.015625)"/>
       </defs>
       <use xlink:href="#DejaVuSans-2212"/>
       <use xlink:href="#DejaVuSans-31" x="83.789062"/>
       <use xlink:href="#DejaVuSans-2e" x="147.412109"/>
       <use xlink:href="#DejaVuSans-30" x="179.199219"/>
      </g>
     </g>
    </g>
    <g id="xtick_2">
     <g id="line2d_2">
      <g>
       <use xlink:href="#m06d38a0261" x="95.305156" y="390.84375" style="stroke: #000000; stroke-width: 0.8"/>
      </g>
     </g>
     <g id="text_2">
      <!-- −0.8 -->
      <g transform="translate(83.16375 405.442187) scale(0.1 -0.1)">
       <defs>
        <path id="DejaVuSans-38" d="M 2034 2216 
Q 1584 2216 1326 1975 
Q 1069 1734 1069 1313 
Q 1069 891 1326 650 
Q 1584 409 2034 409 
Q 2484 409 2743 651 
Q 3003 894 3003 1313 
Q 3003 1734 2745 1975 
Q 2488 2216 2034 2216 
z
M 1403 2484 
Q 997 2584 770 2862 
Q 544 3141 544 3541 
Q 544 4100 942 4425 
Q 1341 4750 2034 4750 
Q 2731 4750 3128 4425 
Q 3525 4100 3525 3541 
Q 3525 3141 3298 2862 
Q 3072 2584 2669 2484 
Q 3125 2378 3379 2068 
Q 3634 1759 3634 1313 
Q 3634 634 3220 271 
Q 2806 -91 2034 -91 
Q 1263 -91 848 271 
Q 434 634 434 1313 
Q 434 1759 690 2068 
Q 947 2378 1403 2484 
z
M 1172 3481 
Q 1172 3119 1398 2916 
Q 1625 2713 2034 2713 
Q 2441 2713 2670 2916 
Q 2900 3119 2900 3481 
Q 2900 3844 2670 4047 
Q 2441 4250 2034 4250 
Q 1625 4250 1398 4047 
Q 1172 3844 1172 3481 
z
" transform="scale(0.015625)"/>
       </defs>
       <use xlink:href="#DejaVuSans-2212"/>
       <use xlink:href="#DejaVuSans-30" x="83.789062"/>
       <use xlink:href="#DejaVuSans-2e" x="147.412109"/>
       <use xlink:href="#DejaVuSans-38" x="179.199219"/>
      </g>
     </g>
    </g>
    <g id="xtick_3">
     <g id="line2d_3">
      <g>
       <use xlink:href="#m06d38a0261" x="162.632188" y="390.84375" style="stroke: #000000; stroke-width: 0.8"/>
      </g>
     </g>
     <g id="text_3">
      <!-- −0.6 -->
      <g transform="translate(150.490781 405.442187) scale(0.1 -0.1)">
       <defs>
        <path id="DejaVuSans-36" d="M 2113 2584 
Q 1688 2584 1439 2293 
Q 1191 2003 1191 1497 
Q 1191 994 1439 701 
Q 1688 409 2113 409 
Q 2538 409 2786 701 
Q 3034 994 3034 1497 
Q 3034 2003 2786 2293 
Q 2538 2584 2113 2584 
z
M 3366 4563 
L 3366 3988 
Q 3128 4100 2886 4159 
Q 2644 4219 2406 4219 
Q 1781 4219 1451 3797 
Q 1122 3375 1075 2522 
Q 1259 2794 1537 2939 
Q 1816 3084 2150 3084 
Q 2853 3084 3261 2657 
Q 3669 2231 3669 1497 
Q 3669 778 3244 343 
Q 2819 -91 2113 -91 
Q 1303 -91 875 529 
Q 447 1150 447 2328 
Q 447 3434 972 4092 
Q 1497 4750 2381 4750 
Q 2619 4750 2861 4703 
Q 3103 4656 3366 4563 
z
" transform="scale(0.015625)"/>
       </defs>
       <use xlink:href="#DejaVuSans-2212"/>
       <use xlink:href="#DejaVuSans-30" x="83.789062"/>
       <use xlink:href="#DejaVuSans-2e" x="147.412109"/>
       <use xlink:href="#DejaVuSans-36" x="179.199219"/>
      </g>
     </g>
    </g>
    <g id="xtick_4">
     <g id="line2d_4">
      <g>
       <use xlink:href="#m06d38a0261" x="229.959219" y="390.84375" style="stroke: #000000; stroke-width: 0.8"/>
      </g>
     </g>
     <g id="text_4">
      <!-- −0.4 -->
      <g transform="translate(217.817813 405.442187) scale(0.1 -0.1)">
       <defs>
        <path id="DejaVuSans-34" d="M 2419 4116 
L 825 1625 
L 2419 1625 
L 2419 4116 
z
M 2253 4666 
L 3047 4666 
L 3047 1625 
L 3713 1625 
L 3713 1100 
L 3047 1100 
L 3047 0 
L 2419 0 
L 2419 1100 
L 313 1100 
L 313 1709 
L 2253 4666 
z
" transform="scale(0.015625)"/>
       </defs>
       <use xlink:href="#DejaVuSans-2212"/>
       <use xlink:href="#DejaVuSans-30" x="83.789062"/>
       <use xlink:href="#DejaVuSans-2e" x="147.412109"/>
       <use xlink:href="#DejaVuSans-34" x="179.199219"/>
      </g>
     </g>
    </g>
    <g id="xtick_5">
     <g id="line2d_5">
      <g>
       <use xlink:href="#m06d38a0261" x="297.28625" y="390.84375" style="stroke: #000000; stroke-width: 0.8"/>
      </g>
     </g>
     <g id="text_5">
      <!-- −0.2 -->
      <g transform="translate(285.144844 405.442187) scale(0.1 -0.1)">
       <defs>
        <path id="DejaVuSans-32" d="M 1228 531 
L 3431 531 
L 3431 0 
L 469 0 
L 469 531 
Q 828 903 1448 1529 
Q 2069 2156 2228 2338 
Q 2531 2678 2651 2914 
Q 2772 3150 2772 3378 
Q 2772 3750 2511 3984 
Q 2250 4219 1831 4219 
Q 1534 4219 1204 4116 
Q 875 4013 500 3803 
L 500 4441 
Q 881 4594 1212 4672 
Q 1544 4750 1819 4750 
Q 2544 4750 2975 4387 
Q 3406 4025 3406 3419 
Q 3406 3131 3298 2873 
Q 3191 2616 2906 2266 
Q 2828 2175 2409 1742 
Q 1991 1309 1228 531 
z
" transform="scale(0.015625)"/>
       </defs>
       <use xlink:href="#DejaVuSans-2212"/>
       <use xlink:href="#DejaVuSans-30" x="83.789062"/>
       <use xlink:href="#DejaVuSans-2e" x="147.412109"/>
       <use xlink:href="#DejaVuSans-32" x="179.199219"/>
      </g>
     </g>
    </g>
    <g id="xtick_6">
     <g id="line2d_6">
      <g>
       <use xlink:href="#m06d38a0261" x="364.613281" y="390.84375" style="stroke: #000000; stroke-width: 0.8"/>
      </g>
     </g>
     <g id="text_6">
      <!-- 0.0 -->
      <g transform="translate(356.661719 405.442187) scale(0.1 -0.1)">
       <use xlink:href="#DejaVuSans-30"/>
       <use xlink:href="#DejaVuSans-2e" x="63.623047"/>
       <use xlink:href="#DejaVuSans-30" x="95.410156"/>
      </g>
     </g>
    </g>
    <g id="xtick_7">
     <g id="line2d_7">
      <g>
       <use xlink:href="#m06d38a0261" x="431.940313" y="390.84375" style="stroke: #000000; stroke-width: 0.8"/>
      </g>
     </g>
     <g id="text_7">
      <!-- 0.2 -->
      <g transform="translate(423.98875 405.442187) scale(0.1 -0.1)">
       <use xlink:href="#DejaVuSans-30"/>
       <use xlink:href="#DejaVuSans-2e" x="63.623047"/>
       <use xlink:href="#DejaVuSans-32" x="95.410156"/>
      </g>
     </g>
    </g>
    <g id="xtick_8">
     <g id="line2d_8">
      <g>
       <use xlink:href="#m06d38a0261" x="499.267344" y="390.84375" style="stroke: #000000; stroke-width: 0.8"/>
      </g>
     </g>
     <g id="text_8">
      <!-- 0.4 -->
      <g transform="translate(491.315781 405.442187) scale(0.1 -0.1)">
       <use xlink:href="#DejaVuSans-30"/>
       <use xlink:href="#DejaVuSans-2e" x="63.623047"/>
       <use xlink:href="#DejaVuSans-34" x="95.410156"/>
      </g>
     </g>
    </g>
    <g id="xtick_9">
     <g id="line2d_9">
      <g>
       <use xlink:href="#m06d38a0261" x="566.594375" y="390.84375" style="stroke: #000000; stroke-width: 0.8"/>
      </g>
     </g>
     <g id="text_9">
      <!-- 0.6 -->
      <g transform="translate(558.642812 405.442187) scale(0.1 -0.1)">
       <use xlink:href="#DejaVuSans-30"/>
       <use xlink:href="#DejaVuSans-2e" x="63.623047"/>
       <use xlink:href="#DejaVuSans-36" x="95.410156"/>
      </g>
     </g>
    </g>
    <g id="xtick_10">
     <g id="line2d_10">
      <g>
       <use xlink:href="#m06d38a0261" x="633.921406" y="390.84375" style="stroke: #000000; stroke-width: 0.8"/>
      </g>
     </g>
     <g id="text_10">
      <!-- 0.8 -->
      <g transform="translate(625.969844 405.442187) scale(0.1 -0.1)">
       <use xlink:href="#DejaVuSans-30"/>
       <use xlink:href="#DejaVuSans-2e" x="63.623047"/>
       <use xlink:href="#DejaVuSans-38" x="95.410156"/>
      </g>
     </g>
    </g>
    <g id="xtick_11">
     <g id="line2d_11">
      <g>
       <use xlink:href="#m06d38a0261" x="701.248437" y="390.84375" style="stroke: #000000; stroke-width: 0.8"/>
      </g>
     </g>
     <g id="text_11">
      <!-- 1.0 -->
      <g transform="translate(693.296875 405.442187) scale(0.1 -0.1)">
       <use xlink:href="#DejaVuSans-31"/>
       <use xlink:href="#DejaVuSans-2e" x="63.623047"/>
       <use xlink:href="#DejaVuSans-30" x="95.410156"/>
      </g>
     </g>
    </g>
    <g id="text_12">
     <!-- Silhouette coefficient -->
     <g transform="translate(311.463281 419.120313) scale(0.1 -0.1)">
      <defs>
       <path id="DejaVuSans-53" d="M 3425 4513 
L 3425 3897 
Q 3066 4069 2747 4153 
Q 2428 4238 2131 4238 
Q 1616 4238 1336 4038 
Q 1056 3838 1056 3469 
Q 1056 3159 1242 3001 
Q 1428 2844 1947 2747 
L 2328 2669 
Q 3034 2534 3370 2195 
Q 3706 1856 3706 1288 
Q 3706 609 3251 259 
Q 2797 -91 1919 -91 
Q 1588 -91 1214 -16 
Q 841 59 441 206 
L 441 856 
Q 825 641 1194 531 
Q 1563 422 1919 422 
Q 2459 422 2753 634 
Q 3047 847 3047 1241 
Q 3047 1584 2836 1778 
Q 2625 1972 2144 2069 
L 1759 2144 
Q 1053 2284 737 2584 
Q 422 2884 422 3419 
Q 422 4038 858 4394 
Q 1294 4750 2059 4750 
Q 2388 4750 2728 4690 
Q 3069 4631 3425 4513 
z
" transform="scale(0.015625)"/>
       <path id="DejaVuSans-69" d="M 603 3500 
L 1178 3500 
L 1178 0 
L 603 0 
L 603 3500 
z
M 603 4863 
L 1178 4863 
L 1178 4134 
L 603 4134 
L 603 4863 
z
" transform="scale(0.015625)"/>
       <path id="DejaVuSans-6c" d="M 603 4863 
L 1178 4863 
L 1178 0 
L 603 0 
L 603 4863 
z
" transform="scale(0.015625)"/>
       <path id="DejaVuSans-68" d="M 3513 2113 
L 3513 0 
L 2938 0 
L 2938 2094 
Q 2938 2591 2744 2837 
Q 2550 3084 2163 3084 
Q 1697 3084 1428 2787 
Q 1159 2491 1159 1978 
L 1159 0 
L 581 0 
L 581 4863 
L 1159 4863 
L 1159 2956 
Q 1366 3272 1645 3428 
Q 1925 3584 2291 3584 
Q 2894 3584 3203 3211 
Q 3513 2838 3513 2113 
z
" transform="scale(0.015625)"/>
       <path id="DejaVuSans-6f" d="M 1959 3097 
Q 1497 3097 1228 2736 
Q 959 2375 959 1747 
Q 959 1119 1226 758 
Q 1494 397 1959 397 
Q 2419 397 2687 759 
Q 2956 1122 2956 1747 
Q 2956 2369 2687 2733 
Q 2419 3097 1959 3097 
z
M 1959 3584 
Q 2709 3584 3137 3096 
Q 3566 2609 3566 1747 
Q 3566 888 3137 398 
Q 2709 -91 1959 -91 
Q 1206 -91 779 398 
Q 353 888 353 1747 
Q 353 2609 779 3096 
Q 1206 3584 1959 3584 
z
" transform="scale(0.015625)"/>
       <path id="DejaVuSans-75" d="M 544 1381 
L 544 3500 
L 1119 3500 
L 1119 1403 
Q 1119 906 1312 657 
Q 1506 409 1894 409 
Q 2359 409 2629 706 
Q 2900 1003 2900 1516 
L 2900 3500 
L 3475 3500 
L 3475 0 
L 2900 0 
L 2900 538 
Q 2691 219 2414 64 
Q 2138 -91 1772 -91 
Q 1169 -91 856 284 
Q 544 659 544 1381 
z
M 1991 3584 
L 1991 3584 
z
" transform="scale(0.015625)"/>
       <path id="DejaVuSans-65" d="M 3597 1894 
L 3597 1613 
L 953 1613 
Q 991 1019 1311 708 
Q 1631 397 2203 397 
Q 2534 397 2845 478 
Q 3156 559 3463 722 
L 3463 178 
Q 3153 47 2828 -22 
Q 2503 -91 2169 -91 
Q 1331 -91 842 396 
Q 353 884 353 1716 
Q 353 2575 817 3079 
Q 1281 3584 2069 3584 
Q 2775 3584 3186 3129 
Q 3597 2675 3597 1894 
z
M 3022 2063 
Q 3016 2534 2758 2815 
Q 2500 3097 2075 3097 
Q 1594 3097 1305 2825 
Q 1016 2553 972 2059 
L 3022 2063 
z
" transform="scale(0.015625)"/>
       <path id="DejaVuSans-74" d="M 1172 4494 
L 1172 3500 
L 2356 3500 
L 2356 3053 
L 1172 3053 
L 1172 1153 
Q 1172 725 1289 603 
Q 1406 481 1766 481 
L 2356 481 
L 2356 0 
L 1766 0 
Q 1100 0 847 248 
Q 594 497 594 1153 
L 594 3053 
L 172 3053 
L 172 3500 
L 594 3500 
L 594 4494 
L 1172 4494 
z
" transform="scale(0.015625)"/>
       <path id="DejaVuSans-20" transform="scale(0.015625)"/>
       <path id="DejaVuSans-63" d="M 3122 3366 
L 3122 2828 
Q 2878 2963 2633 3030 
Q 2388 3097 2138 3097 
Q 1578 3097 1268 2742 
Q 959 2388 959 1747 
Q 959 1106 1268 751 
Q 1578 397 2138 397 
Q 2388 397 2633 464 
Q 2878 531 3122 666 
L 3122 134 
Q 2881 22 2623 -34 
Q 2366 -91 2075 -91 
Q 1284 -91 818 406 
Q 353 903 353 1747 
Q 353 2603 823 3093 
Q 1294 3584 2113 3584 
Q 2378 3584 2631 3529 
Q 2884 3475 3122 3366 
z
" transform="scale(0.015625)"/>
       <path id="DejaVuSans-66" d="M 2375 4863 
L 2375 4384 
L 1825 4384 
Q 1516 4384 1395 4259 
Q 1275 4134 1275 3809 
L 1275 3500 
L 2222 3500 
L 2222 3053 
L 1275 3053 
L 1275 0 
L 697 0 
L 697 3053 
L 147 3053 
L 147 3500 
L 697 3500 
L 697 3744 
Q 697 4328 969 4595 
Q 1241 4863 1831 4863 
L 2375 4863 
z
" transform="scale(0.015625)"/>
       <path id="DejaVuSans-6e" d="M 3513 2113 
L 3513 0 
L 2938 0 
L 2938 2094 
Q 2938 2591 2744 2837 
Q 2550 3084 2163 3084 
Q 1697 3084 1428 2787 
Q 1159 2491 1159 1978 
L 1159 0 
L 581 0 
L 581 3500 
L 1159 3500 
L 1159 2956 
Q 1366 3272 1645 3428 
Q 1925 3584 2291 3584 
Q 2894 3584 3203 3211 
Q 3513 2838 3513 2113 
z
" transform="scale(0.015625)"/>
      </defs>
      <use xlink:href="#DejaVuSans-53"/>
      <use xlink:href="#DejaVuSans-69" x="63.476562"/>
      <use xlink:href="#DejaVuSans-6c" x="91.259766"/>
      <use xlink:href="#DejaVuSans-68" x="119.042969"/>
      <use xlink:href="#DejaVuSans-6f" x="182.421875"/>
      <use xlink:href="#DejaVuSans-75" x="243.603516"/>
      <use xlink:href="#DejaVuSans-65" x="306.982422"/>
      <use xlink:href="#DejaVuSans-74" x="368.505859"/>
      <use xlink:href="#DejaVuSans-74" x="407.714844"/>
      <use xlink:href="#DejaVuSans-65" x="446.923828"/>
      <use xlink:href="#DejaVuSans-20" x="508.447266"/>
      <use xlink:href="#DejaVuSans-63" x="540.234375"/>
      <use xlink:href="#DejaVuSans-6f" x="595.214844"/>
      <use xlink:href="#DejaVuSans-65" x="656.396484"/>
      <use xlink:href="#DejaVuSans-66" x="717.919922"/>
      <use xlink:href="#DejaVuSans-66" x="753.125"/>
      <use xlink:href="#DejaVuSans-69" x="788.330078"/>
      <use xlink:href="#DejaVuSans-63" x="816.113281"/>
      <use xlink:href="#DejaVuSans-69" x="871.09375"/>
      <use xlink:href="#DejaVuSans-65" x="898.876953"/>
      <use xlink:href="#DejaVuSans-6e" x="960.400391"/>
      <use xlink:href="#DejaVuSans-74" x="1023.779297"/>
     </g>
    </g>
   </g>
   <g id="matplotlib.axis_2">
    <g id="text_13">
     <!-- Predicted label -->
     <g transform="translate(18.398438 239.561735) rotate(-90) scale(0.1 -0.1)">
      <defs>
       <path id="DejaVuSans-50" d="M 1259 4147 
L 1259 2394 
L 2053 2394 
Q 2494 2394 2734 2622 
Q 2975 2850 2975 3272 
Q 2975 3691 2734 3919 
Q 2494 4147 2053 4147 
L 1259 4147 
z
M 628 4666 
L 2053 4666 
Q 2838 4666 3239 4311 
Q 3641 3956 3641 3272 
Q 3641 2581 3239 2228 
Q 2838 1875 2053 1875 
L 1259 1875 
L 1259 0 
L 628 0 
L 628 4666 
z
" transform="scale(0.015625)"/>
       <path id="DejaVuSans-72" d="M 2631 2963 
Q 2534 3019 2420 3045 
Q 2306 3072 2169 3072 
Q 1681 3072 1420 2755 
Q 1159 2438 1159 1844 
L 1159 0 
L 581 0 
L 581 3500 
L 1159 3500 
L 1159 2956 
Q 1341 3275 1631 3429 
Q 1922 3584 2338 3584 
Q 2397 3584 2469 3576 
Q 2541 3569 2628 3553 
L 2631 2963 
z
" transform="scale(0.015625)"/>
       <path id="DejaVuSans-64" d="M 2906 2969 
L 2906 4863 
L 3481 4863 
L 3481 0 
L 2906 0 
L 2906 525 
Q 2725 213 2448 61 
Q 2172 -91 1784 -91 
Q 1150 -91 751 415 
Q 353 922 353 1747 
Q 353 2572 751 3078 
Q 1150 3584 1784 3584 
Q 2172 3584 2448 3432 
Q 2725 3281 2906 2969 
z
M 947 1747 
Q 947 1113 1208 752 
Q 1469 391 1925 391 
Q 2381 391 2643 752 
Q 2906 1113 2906 1747 
Q 2906 2381 2643 2742 
Q 2381 3103 1925 3103 
Q 1469 3103 1208 2742 
Q 947 2381 947 1747 
z
" transform="scale(0.015625)"/>
       <path id="DejaVuSans-61" d="M 2194 1759 
Q 1497 1759 1228 1600 
Q 959 1441 959 1056 
Q 959 750 1161 570 
Q 1363 391 1709 391 
Q 2188 391 2477 730 
Q 2766 1069 2766 1631 
L 2766 1759 
L 2194 1759 
z
M 3341 1997 
L 3341 0 
L 2766 0 
L 2766 531 
Q 2569 213 2275 61 
Q 1981 -91 1556 -91 
Q 1019 -91 701 211 
Q 384 513 384 1019 
Q 384 1609 779 1909 
Q 1175 2209 1959 2209 
L 2766 2209 
L 2766 2266 
Q 2766 2663 2505 2880 
Q 2244 3097 1772 3097 
Q 1472 3097 1187 3025 
Q 903 2953 641 2809 
L 641 3341 
Q 956 3463 1253 3523 
Q 1550 3584 1831 3584 
Q 2591 3584 2966 3190 
Q 3341 2797 3341 1997 
z
" transform="scale(0.015625)"/>
       <path id="DejaVuSans-62" d="M 3116 1747 
Q 3116 2381 2855 2742 
Q 2594 3103 2138 3103 
Q 1681 3103 1420 2742 
Q 1159 2381 1159 1747 
Q 1159 1113 1420 752 
Q 1681 391 2138 391 
Q 2594 391 2855 752 
Q 3116 1113 3116 1747 
z
M 1159 2969 
Q 1341 3281 1617 3432 
Q 1894 3584 2278 3584 
Q 2916 3584 3314 3078 
Q 3713 2572 3713 1747 
Q 3713 922 3314 415 
Q 2916 -91 2278 -91 
Q 1894 -91 1617 61 
Q 1341 213 1159 525 
L 1159 0 
L 581 0 
L 581 4863 
L 1159 4863 
L 1159 2969 
z
" transform="scale(0.015625)"/>
      </defs>
      <use xlink:href="#DejaVuSans-50"/>
      <use xlink:href="#DejaVuSans-72" x="58.552734"/>
      <use xlink:href="#DejaVuSans-65" x="97.416016"/>
      <use xlink:href="#DejaVuSans-64" x="158.939453"/>
      <use xlink:href="#DejaVuSans-69" x="222.416016"/>
      <use xlink:href="#DejaVuSans-63" x="250.199219"/>
      <use xlink:href="#DejaVuSans-74" x="305.179688"/>
      <use xlink:href="#DejaVuSans-65" x="344.388672"/>
      <use xlink:href="#DejaVuSans-64" x="405.912109"/>
      <use xlink:href="#DejaVuSans-20" x="469.388672"/>
      <use xlink:href="#DejaVuSans-6c" x="501.175781"/>
      <use xlink:href="#DejaVuSans-61" x="528.958984"/>
      <use xlink:href="#DejaVuSans-62" x="590.238281"/>
      <use xlink:href="#DejaVuSans-65" x="653.714844"/>
      <use xlink:href="#DejaVuSans-6c" x="715.238281"/>
     </g>
    </g>
   </g>
   <g id="line2d_12">
    <path d="M 365.125629 390.84375 
L 365.125629 13.975033 
" clip-path="url(#p472d8bf2f3)" style="fill: none; stroke: #ff0000; stroke-width: 1.5; stroke-linecap: square"/>
   </g>
   <g id="patch_3">
    <path d="M 27.978125 390.84375 
L 27.978125 13.975033 
" style="fill: none; stroke: #000000; stroke-width: 0.8; stroke-linejoin: miter; stroke-linecap: square"/>
   </g>
   <g id="patch_4">
    <path d="M 701.248437 390.84375 
L 701.248437 13.975033 
" style="fill: none; stroke: #000000; stroke-width: 0.8; stroke-linejoin: miter; stroke-linecap: square"/>
   </g>
   <g id="patch_5">
    <path d="M 27.978125 390.84375 
L 701.248437 390.84375 
" style="fill: none; stroke: #000000; stroke-width: 0.8; stroke-linejoin: miter; stroke-linecap: square"/>
   </g>
   <g id="patch_6">
    <path d="M 27.978125 13.975033 
L 701.248437 13.975033 
" style="fill: none; stroke: #000000; stroke-width: 0.8; stroke-linejoin: miter; stroke-linecap: square"/>
   </g>
   <g id="text_14">
    <!-- 0 -->
    <g transform="translate(347.781523 349.498445) scale(0.1 -0.1)">
     <use xlink:href="#DejaVuSans-30"/>
    </g>
   </g>
   <g id="text_15">
    <!-- 1 -->
    <g transform="translate(347.781523 282.844803) scale(0.1 -0.1)">
     <use xlink:href="#DejaVuSans-31"/>
    </g>
   </g>
   <g id="text_16">
    <!-- 2 -->
    <g transform="translate(347.781523 230.724661) scale(0.1 -0.1)">
     <use xlink:href="#DejaVuSans-32"/>
    </g>
   </g>
   <g id="text_17">
    <!-- 3 -->
    <g transform="translate(347.781523 201.908236) scale(0.1 -0.1)">
     <defs>
      <path id="DejaVuSans-33" d="M 2597 2516 
Q 3050 2419 3304 2112 
Q 3559 1806 3559 1356 
Q 3559 666 3084 287 
Q 2609 -91 1734 -91 
Q 1441 -91 1130 -33 
Q 819 25 488 141 
L 488 750 
Q 750 597 1062 519 
Q 1375 441 1716 441 
Q 2309 441 2620 675 
Q 2931 909 2931 1356 
Q 2931 1769 2642 2001 
Q 2353 2234 1838 2234 
L 1294 2234 
L 1294 2753 
L 1863 2753 
Q 2328 2753 2575 2939 
Q 2822 3125 2822 3475 
Q 2822 3834 2567 4026 
Q 2313 4219 1838 4219 
Q 1578 4219 1281 4162 
Q 984 4106 628 3988 
L 628 4550 
Q 988 4650 1302 4700 
Q 1616 4750 1894 4750 
Q 2613 4750 3031 4423 
Q 3450 4097 3450 3541 
Q 3450 3153 3228 2886 
Q 3006 2619 2597 2516 
z
" transform="scale(0.015625)"/>
     </defs>
     <use xlink:href="#DejaVuSans-33"/>
    </g>
   </g>
   <g id="text_18">
    <!-- 4 -->
    <g transform="translate(347.781523 179.857407) scale(0.1 -0.1)">
     <use xlink:href="#DejaVuSans-34"/>
    </g>
   </g>
   <g id="text_19">
    <!-- 5 -->
    <g transform="translate(347.781523 109.4451) scale(0.1 -0.1)">
     <defs>
      <path id="DejaVuSans-35" d="M 691 4666 
L 3169 4666 
L 3169 4134 
L 1269 4134 
L 1269 2991 
Q 1406 3038 1543 3061 
Q 1681 3084 1819 3084 
Q 2600 3084 3056 2656 
Q 3513 2228 3513 1497 
Q 3513 744 3044 326 
Q 2575 -91 1722 -91 
Q 1428 -91 1123 -41 
Q 819 9 494 109 
L 494 744 
Q 775 591 1075 516 
Q 1375 441 1709 441 
Q 2250 441 2565 725 
Q 2881 1009 2881 1497 
Q 2881 1984 2565 2268 
Q 2250 2553 1709 2553 
Q 1456 2553 1204 2497 
Q 953 2441 691 2322 
L 691 4666 
z
" transform="scale(0.015625)"/>
     </defs>
     <use xlink:href="#DejaVuSans-35"/>
    </g>
   </g>
   <g id="text_20">
    <!-- 6 -->
    <g transform="translate(347.781523 36.527018) scale(0.1 -0.1)">
     <use xlink:href="#DejaVuSans-36"/>
    </g>
   </g>
   <g id="text_21">
    <!-- 0.0015 -->
    <g style="fill: #ff0000" transform="translate(381.957387 18.986585) scale(0.1 -0.1)">
     <use xlink:href="#DejaVuSans-30"/>
     <use xlink:href="#DejaVuSans-2e" x="63.623047"/>
     <use xlink:href="#DejaVuSans-30" x="95.410156"/>
     <use xlink:href="#DejaVuSans-30" x="159.033203"/>
     <use xlink:href="#DejaVuSans-31" x="222.65625"/>
     <use xlink:href="#DejaVuSans-35" x="286.279297"/>
    </g>
   </g>
  </g>
 </g>
 <defs>
  <clipPath id="p472d8bf2f3">
   <rect x="27.978125" y="13.975033" width="673.270312" height="376.868717"/>
  </clipPath>
 </defs>
</svg>
