<?xml version="1.0" encoding="utf-8" standalone="no"?>
<!DOCTYPE svg PUBLIC "-//W3C//DTD SVG 1.1//EN"
  "http://www.w3.org/Graphics/SVG/1.1/DTD/svg11.dtd">
<svg xmlns:xlink="http://www.w3.org/1999/xlink" width="720pt" height="576pt" viewBox="0 0 720 576" xmlns="http://www.w3.org/2000/svg" version="1.1">
 <metadata>
  <rdf:RDF xmlns:dc="http://purl.org/dc/elements/1.1/" xmlns:cc="http://creativecommons.org/ns#" xmlns:rdf="http://www.w3.org/1999/02/22-rdf-syntax-ns#">
   <cc:Work>
    <dc:type rdf:resource="http://purl.org/dc/dcmitype/StillImage"/>
    <dc:date>2022-11-21T18:18:01.312083</dc:date>
    <dc:format>image/svg+xml</dc:format>
    <dc:creator>
     <cc:Agent>
      <dc:title>Matplotlib v3.6.1, https://matplotlib.org/</dc:title>
     </cc:Agent>
    </dc:creator>
   </cc:Work>
  </rdf:RDF>
 </metadata>
 <defs>
  <style type="text/css">*{stroke-linejoin: round; stroke-linecap: butt}</style>
 </defs>
 <g id="figure_1">
  <g id="patch_1">
   <path d="M 0 576 
L 720 576 
L 720 0 
L 0 0 
z
" style="fill: #ffffff"/>
  </g>
  <g id="axes_1">
   <g id="patch_2">
    <path d="M 42.495313 510.648438 
L 693.296875 510.648438 
L 693.296875 23.898221 
L 42.495313 23.898221 
z
" style="fill: #ffffff"/>
   </g>
   <g id="PolyCollection_1">
    <defs>
     <path id="m08c4bf634a" d="M 367.618223 -71.824305 
L 367.896094 -71.824305 
L 367.896094 -72.471579 
L 367.896094 -73.118853 
L 367.896094 -73.766127 
L 367.896094 -74.413402 
L 367.896094 -75.060676 
L 367.896094 -75.70795 
L 367.896094 -76.355224 
L 367.896094 -77.002499 
L 367.896094 -77.649773 
L 367.896094 -78.297047 
L 367.896094 -78.944321 
L 367.896094 -79.591595 
L 367.896094 -80.23887 
L 367.896094 -80.886144 
L 367.896094 -81.533418 
L 367.896094 -82.180692 
L 367.896094 -82.827967 
L 367.896094 -83.475241 
L 367.896094 -84.122515 
L 367.896094 -84.769789 
L 367.896094 -85.417063 
L 367.896094 -86.064338 
L 367.896094 -86.711612 
L 367.896094 -87.358886 
L 367.896094 -88.00616 
L 367.896094 -88.653435 
L 367.896094 -89.300709 
L 367.896094 -89.947983 
L 367.896094 -90.595257 
L 367.896094 -91.242531 
L 367.896094 -91.889806 
L 367.896094 -92.53708 
L 367.896094 -93.184354 
L 367.896094 -93.831628 
L 367.896094 -94.478903 
L 367.896094 -95.126177 
L 367.896094 -95.773451 
L 367.896094 -96.420725 
L 367.896094 -97.067999 
L 367.896094 -97.715274 
L 367.896094 -98.362548 
L 367.896094 -99.009822 
L 367.896094 -99.657096 
L 367.896094 -100.304371 
L 367.896094 -100.951645 
L 367.896094 -101.598919 
L 367.896094 -102.246193 
L 367.896094 -102.893467 
L 367.896094 -103.540742 
L 367.896094 -104.188016 
L 367.896094 -104.83529 
L 367.896094 -105.482564 
L 367.896094 -106.129839 
L 367.896094 -106.777113 
L 367.896094 -107.424387 
L 367.896094 -108.071661 
L 367.896094 -108.718935 
L 367.896094 -109.36621 
L 367.896094 -110.013484 
L 367.896094 -110.660758 
L 367.896094 -111.308032 
L 367.896094 -111.955307 
L 367.896094 -112.602581 
L 367.896094 -113.249855 
L 367.896094 -113.897129 
L 367.896094 -114.544403 
L 367.896094 -115.191678 
L 367.896094 -115.838952 
L 367.896094 -116.486226 
L 367.896094 -117.1335 
L 367.896094 -117.780775 
L 367.896094 -118.428049 
L 367.896094 -119.075323 
L 367.896094 -119.722597 
L 367.896094 -120.369871 
L 367.896094 -121.017146 
L 367.896094 -121.66442 
L 367.896094 -122.311694 
L 367.896094 -122.958968 
L 367.896094 -123.606243 
L 367.896094 -124.253517 
L 367.896094 -124.900791 
L 367.896094 -125.548065 
L 367.896094 -126.19534 
L 367.896094 -126.842614 
L 367.896094 -127.489888 
L 367.896094 -128.137162 
L 367.896094 -128.784436 
L 367.896094 -129.431711 
L 367.896094 -130.078985 
L 367.896094 -130.726259 
L 367.896094 -131.373533 
L 367.896094 -132.020808 
L 367.896094 -132.668082 
L 367.896094 -133.315356 
L 367.896094 -133.96263 
L 367.896094 -134.609904 
L 367.896094 -135.257179 
L 367.896094 -135.904453 
L 367.896094 -136.551727 
L 367.896094 -137.199001 
L 367.896094 -137.846276 
L 367.896094 -138.49355 
L 367.896094 -139.140824 
L 367.896094 -139.788098 
L 367.896094 -140.435372 
L 367.896094 -141.082647 
L 367.896094 -141.729921 
L 367.896094 -142.377195 
L 367.896094 -143.024469 
L 367.896094 -143.671744 
L 367.896094 -144.319018 
L 367.896094 -144.966292 
L 367.896094 -145.613566 
L 367.896094 -146.26084 
L 367.896094 -146.908115 
L 367.896094 -147.555389 
L 367.896094 -148.202663 
L 367.896094 -148.849937 
L 367.896094 -149.497212 
L 367.896094 -150.144486 
L 367.896094 -150.79176 
L 367.896094 -151.439034 
L 367.896094 -152.086308 
L 367.896094 -152.733583 
L 367.896094 -153.380857 
L 367.896094 -154.028131 
L 367.896094 -154.675405 
L 367.896094 -155.32268 
L 367.896094 -155.969954 
L 367.896094 -156.617228 
L 367.896094 -157.264502 
L 367.896094 -157.911776 
L 367.896094 -158.559051 
L 367.896094 -159.206325 
L 367.896094 -159.853599 
L 367.896094 -160.500873 
L 367.896094 -161.148148 
L 367.896094 -161.795422 
L 367.896094 -162.442696 
L 367.896094 -163.08997 
L 367.896094 -163.737244 
L 367.896094 -164.384519 
L 367.896094 -165.031793 
L 367.943289 -165.031793 
L 367.943289 -165.031793 
L 367.940125 -164.384519 
L 367.939841 -163.737244 
L 367.939601 -163.08997 
L 367.939203 -162.442696 
L 367.93907 -161.795422 
L 367.938461 -161.148148 
L 367.938392 -160.500873 
L 367.938377 -159.853599 
L 367.938085 -159.206325 
L 367.938003 -158.559051 
L 367.937934 -157.911776 
L 367.937282 -157.264502 
L 367.936325 -156.617228 
L 367.936109 -155.969954 
L 367.936094 -155.32268 
L 367.936047 -154.675405 
L 367.935462 -154.028131 
L 367.935039 -153.380857 
L 367.934762 -152.733583 
L 367.934362 -152.086308 
L 367.933711 -151.439034 
L 367.933711 -150.79176 
L 367.933629 -150.144486 
L 367.93329 -149.497212 
L 367.933279 -148.849937 
L 367.932498 -148.202663 
L 367.93221 -147.555389 
L 367.931858 -146.908115 
L 367.931549 -146.26084 
L 367.931094 -145.613566 
L 367.930816 -144.966292 
L 367.930126 -144.319018 
L 367.93011 -143.671744 
L 367.929996 -143.024469 
L 367.929668 -142.377195 
L 367.926645 -141.729921 
L 367.921446 -141.082647 
L 367.920806 -140.435372 
L 367.919434 -139.788098 
L 367.917256 -139.140824 
L 367.913402 -138.49355 
L 367.913343 -137.846276 
L 367.911729 -137.199001 
L 367.911211 -136.551727 
L 367.911049 -135.904453 
L 367.91102 -135.257179 
L 367.910911 -134.609904 
L 367.910806 -133.96263 
L 367.909997 -133.315356 
L 367.909843 -132.668082 
L 367.909321 -132.020808 
L 367.909224 -131.373533 
L 367.909113 -130.726259 
L 367.907592 -130.078985 
L 367.907456 -129.431711 
L 367.90716 -128.784436 
L 367.906798 -128.137162 
L 367.906602 -127.489888 
L 367.906499 -126.842614 
L 367.906493 -126.19534 
L 367.905996 -125.548065 
L 367.905962 -124.900791 
L 367.905493 -124.253517 
L 367.905351 -123.606243 
L 367.905121 -122.958968 
L 367.904864 -122.311694 
L 367.904204 -121.66442 
L 367.9041 -121.017146 
L 367.903447 -120.369871 
L 367.903393 -119.722597 
L 367.903393 -119.075323 
L 367.903275 -118.428049 
L 367.903245 -117.780775 
L 367.903135 -117.1335 
L 367.899437 -116.486226 
L 367.89901 -115.838952 
L 367.898812 -115.191678 
L 367.896517 -114.544403 
L 367.895056 -113.897129 
L 367.894649 -113.249855 
L 367.88904 -112.602581 
L 367.887467 -111.955307 
L 367.885939 -111.308032 
L 367.881679 -110.660758 
L 367.880569 -110.013484 
L 367.870796 -109.36621 
L 367.862629 -108.718935 
L 367.860823 -108.071661 
L 367.860648 -107.424387 
L 367.856233 -106.777113 
L 367.855065 -106.129839 
L 367.854314 -105.482564 
L 367.853959 -104.83529 
L 367.852073 -104.188016 
L 367.849639 -103.540742 
L 367.849498 -102.893467 
L 367.846764 -102.246193 
L 367.844771 -101.598919 
L 367.841712 -100.951645 
L 367.841609 -100.304371 
L 367.838653 -99.657096 
L 367.837445 -99.009822 
L 367.833239 -98.362548 
L 367.831279 -97.715274 
L 367.828934 -97.067999 
L 367.827873 -96.420725 
L 367.824912 -95.773451 
L 367.81323 -95.126177 
L 367.812578 -94.478903 
L 367.809979 -93.831628 
L 367.807894 -93.184354 
L 367.801939 -92.53708 
L 367.799954 -91.889806 
L 367.799704 -91.242531 
L 367.798277 -90.595257 
L 367.79772 -89.947983 
L 367.797496 -89.300709 
L 367.797134 -88.653435 
L 367.796747 -88.00616 
L 367.796162 -87.358886 
L 367.795601 -86.711612 
L 367.791225 -86.064338 
L 367.789397 -85.417063 
L 367.78872 -84.769789 
L 367.788508 -84.122515 
L 367.786643 -83.475241 
L 367.7856 -82.827967 
L 367.780044 -82.180692 
L 367.779584 -81.533418 
L 367.756396 -80.886144 
L 367.755205 -80.23887 
L 367.752603 -79.591595 
L 367.749719 -78.944321 
L 367.749657 -78.297047 
L 367.726808 -77.649773 
L 367.726277 -77.002499 
L 367.713149 -76.355224 
L 367.711286 -75.70795 
L 367.702234 -75.060676 
L 367.694167 -74.413402 
L 367.663199 -73.766127 
L 367.658794 -73.118853 
L 367.631975 -72.471579 
L 367.618223 -71.824305 
z
" style="stroke: #000000; stroke-opacity: 0.7"/>
    </defs>
    <g clip-path="url(#pec4fc6b216)">
     <use xlink:href="#m08c4bf634a" x="0" y="576" style="fill-opacity: 0.7; stroke: #000000; stroke-opacity: 0.7"/>
    </g>
   </g>
   <g id="PolyCollection_2">
    <defs>
     <path id="m4f4ea8512d" d="M 367.997798 -172.151809 
L 367.896094 -172.151809 
L 367.896094 -172.799084 
L 367.896094 -173.446358 
L 367.896094 -174.093632 
L 367.896094 -174.740906 
L 367.896094 -175.38818 
L 367.896094 -176.035455 
L 367.896094 -176.682729 
L 367.896094 -177.330003 
L 367.896094 -177.977277 
L 367.896094 -178.624552 
L 367.896094 -179.271826 
L 367.896094 -179.9191 
L 367.896094 -180.566374 
L 367.896094 -181.213649 
L 367.896094 -181.860923 
L 367.896094 -182.508197 
L 367.896094 -183.155471 
L 367.896094 -183.802745 
L 367.896094 -184.45002 
L 367.896094 -185.097294 
L 367.896094 -185.744568 
L 367.896094 -186.391842 
L 367.896094 -187.039117 
L 367.896094 -187.686391 
L 367.896094 -188.333665 
L 367.896094 -188.980939 
L 367.896094 -189.628213 
L 367.896094 -190.275488 
L 367.896094 -190.922762 
L 367.896094 -191.570036 
L 367.896094 -192.21731 
L 367.896094 -192.864585 
L 367.896094 -193.511859 
L 367.896094 -194.159133 
L 367.896094 -194.806407 
L 367.896094 -195.453681 
L 367.896094 -196.100956 
L 367.896094 -196.74823 
L 367.896094 -197.395504 
L 367.896094 -198.042778 
L 367.896094 -198.690053 
L 367.896094 -199.337327 
L 367.896094 -199.984601 
L 367.896094 -200.631875 
L 367.896094 -201.279149 
L 367.896094 -201.926424 
L 367.896094 -202.573698 
L 367.896094 -203.220972 
L 367.896094 -203.868246 
L 367.896094 -204.515521 
L 367.896094 -205.162795 
L 367.896094 -205.810069 
L 367.896094 -206.457343 
L 367.896094 -207.104617 
L 367.896094 -207.751892 
L 367.896094 -208.399166 
L 367.896094 -209.04644 
L 367.896094 -209.693714 
L 367.896094 -210.340989 
L 367.896094 -210.988263 
L 367.896094 -211.635537 
L 367.896094 -212.282811 
L 367.896094 -212.930085 
L 367.896094 -213.57736 
L 367.896094 -214.224634 
L 367.896094 -214.871908 
L 367.896094 -215.519182 
L 367.896094 -216.166457 
L 367.896094 -216.813731 
L 367.896094 -217.461005 
L 367.896094 -218.108279 
L 367.896094 -218.755553 
L 367.896094 -219.402828 
L 367.896094 -220.050102 
L 367.896094 -220.697376 
L 367.896094 -221.34465 
L 367.896094 -221.991925 
L 367.896094 -222.639199 
L 367.896094 -223.286473 
L 367.896094 -223.933747 
L 367.896094 -224.581021 
L 367.896094 -225.228296 
L 367.896094 -225.87557 
L 367.896094 -226.522844 
L 367.896094 -227.170118 
L 367.896094 -227.817393 
L 367.896094 -228.464667 
L 367.896094 -229.111941 
L 367.896094 -229.759215 
L 367.896094 -230.406489 
L 367.896094 -231.053764 
L 367.896094 -231.701038 
L 367.896094 -232.348312 
L 367.896094 -232.995586 
L 367.896094 -233.642861 
L 367.896094 -234.290135 
L 367.896094 -234.937409 
L 367.896094 -235.584683 
L 367.896094 -236.231958 
L 367.896094 -236.879232 
L 368.214726 -236.879232 
L 368.214726 -236.879232 
L 368.201903 -236.231958 
L 368.201828 -235.584683 
L 368.199124 -234.937409 
L 368.198193 -234.290135 
L 368.186769 -233.642861 
L 368.185457 -232.995586 
L 368.184514 -232.348312 
L 368.183413 -231.701038 
L 368.178559 -231.053764 
L 368.177725 -230.406489 
L 368.177435 -229.759215 
L 368.176988 -229.111941 
L 368.176167 -228.464667 
L 368.176056 -227.817393 
L 368.173822 -227.170118 
L 368.172989 -226.522844 
L 368.172607 -225.87557 
L 368.171956 -225.228296 
L 368.17149 -224.581021 
L 368.170379 -223.933747 
L 368.169371 -223.286473 
L 368.166886 -222.639199 
L 368.166528 -221.991925 
L 368.165953 -221.34465 
L 368.165091 -220.697376 
L 368.164256 -220.050102 
L 368.162574 -219.402828 
L 368.160269 -218.755553 
L 368.157336 -218.108279 
L 368.157003 -217.461005 
L 368.155277 -216.813731 
L 368.154233 -216.166457 
L 368.151561 -215.519182 
L 368.151406 -214.871908 
L 368.151293 -214.224634 
L 368.147802 -213.57736 
L 368.147312 -212.930085 
L 368.146809 -212.282811 
L 368.145767 -211.635537 
L 368.144461 -210.988263 
L 368.141305 -210.340989 
L 368.141243 -209.693714 
L 368.140565 -209.04644 
L 368.140214 -208.399166 
L 368.138126 -207.751892 
L 368.137757 -207.104617 
L 368.135892 -206.457343 
L 368.135529 -205.810069 
L 368.134947 -205.162795 
L 368.133453 -204.515521 
L 368.132542 -203.868246 
L 368.131854 -203.220972 
L 368.131531 -202.573698 
L 368.130437 -201.926424 
L 368.129358 -201.279149 
L 368.128826 -200.631875 
L 368.128398 -199.984601 
L 368.128258 -199.337327 
L 368.127634 -198.690053 
L 368.126444 -198.042778 
L 368.125757 -197.395504 
L 368.125338 -196.74823 
L 368.122654 -196.100956 
L 368.121919 -195.453681 
L 368.120328 -194.806407 
L 368.116785 -194.159133 
L 368.115678 -193.511859 
L 368.115629 -192.864585 
L 368.114224 -192.21731 
L 368.113497 -191.570036 
L 368.111934 -190.922762 
L 368.109046 -190.275488 
L 368.108579 -189.628213 
L 368.106162 -188.980939 
L 368.104118 -188.333665 
L 368.099649 -187.686391 
L 368.088418 -187.039117 
L 368.08809 -186.391842 
L 368.087426 -185.744568 
L 368.085397 -185.097294 
L 368.084632 -184.45002 
L 368.084381 -183.802745 
L 368.076174 -183.155471 
L 368.07356 -182.508197 
L 368.068386 -181.860923 
L 368.065518 -181.213649 
L 368.064748 -180.566374 
L 368.064235 -179.9191 
L 368.060487 -179.271826 
L 368.059318 -178.624552 
L 368.044499 -177.977277 
L 368.041211 -177.330003 
L 368.039559 -176.682729 
L 368.034836 -176.035455 
L 368.029139 -175.38818 
L 368.027718 -174.740906 
L 368.025669 -174.093632 
L 368.025392 -173.446358 
L 368.013732 -172.799084 
L 367.997798 -172.151809 
z
" style="stroke: #1800a7; stroke-opacity: 0.7"/>
    </defs>
    <g clip-path="url(#pec4fc6b216)">
     <use xlink:href="#m4f4ea8512d" x="0" y="576" style="fill: #1800a7; fill-opacity: 0.7; stroke: #1800a7; stroke-opacity: 0.7"/>
    </g>
   </g>
   <g id="PolyCollection_3">
    <defs>
     <path id="m2c3dc1228a" d="M 367.958805 -243.999248 
L 367.896094 -243.999248 
L 367.896094 -244.646522 
L 367.896094 -245.293797 
L 367.896094 -245.941071 
L 367.896094 -246.588345 
L 367.896094 -247.235619 
L 367.896094 -247.882894 
L 367.896094 -248.530168 
L 367.896094 -249.177442 
L 367.896094 -249.824716 
L 367.896094 -250.47199 
L 367.896094 -251.119265 
L 367.896094 -251.766539 
L 367.896094 -252.413813 
L 367.896094 -253.061087 
L 367.896094 -253.708362 
L 367.896094 -254.355636 
L 367.896094 -255.00291 
L 367.896094 -255.650184 
L 367.896094 -256.297458 
L 367.896094 -256.944733 
L 367.896094 -257.592007 
L 367.896094 -258.239281 
L 367.896094 -258.886555 
L 367.896094 -259.53383 
L 367.896094 -260.181104 
L 367.896094 -260.828378 
L 367.896094 -261.475652 
L 367.896094 -262.122926 
L 367.896094 -262.770201 
L 367.896094 -263.417475 
L 367.896094 -264.064749 
L 367.896094 -264.712023 
L 367.896094 -265.359298 
L 367.896094 -266.006572 
L 367.896094 -266.653846 
L 367.896094 -267.30112 
L 367.896094 -267.948394 
L 367.896094 -268.595669 
L 367.896094 -269.242943 
L 367.896094 -269.890217 
L 367.896094 -270.537491 
L 367.896094 -271.184766 
L 367.896094 -271.83204 
L 367.896094 -272.479314 
L 367.896094 -273.126588 
L 367.896094 -273.773862 
L 367.896094 -274.421137 
L 367.896094 -275.068411 
L 367.896094 -275.715685 
L 367.896094 -276.362959 
L 367.896094 -277.010234 
L 367.896094 -277.657508 
L 367.896094 -278.304782 
L 367.896094 -278.952056 
L 367.896094 -279.59933 
L 367.896094 -280.246605 
L 367.896094 -280.893879 
L 367.896094 -281.541153 
L 367.896094 -282.188427 
L 367.896094 -282.835702 
L 367.896094 -283.482976 
L 367.896094 -284.13025 
L 367.896094 -284.777524 
L 367.896094 -285.424798 
L 367.896094 -286.072073 
L 367.896094 -286.719347 
L 367.896094 -287.366621 
L 367.896094 -288.013895 
L 367.896094 -288.66117 
L 367.896094 -289.308444 
L 367.896094 -289.955718 
L 367.896094 -290.602992 
L 367.896094 -291.250267 
L 367.896094 -291.897541 
L 367.896094 -292.544815 
L 367.896094 -293.192089 
L 367.896094 -293.839363 
L 367.896094 -294.486638 
L 367.896094 -295.133912 
L 367.896094 -295.781186 
L 367.896094 -296.42846 
L 367.896094 -297.075735 
L 367.896094 -297.723009 
L 367.896094 -298.370283 
L 367.896094 -299.017557 
L 367.896094 -299.664831 
L 368.224537 -299.664831 
L 368.224537 -299.664831 
L 368.215466 -299.017557 
L 368.210716 -298.370283 
L 368.208451 -297.723009 
L 368.201212 -297.075735 
L 368.2003 -296.42846 
L 368.195824 -295.781186 
L 368.187318 -295.133912 
L 368.186394 -294.486638 
L 368.185196 -293.839363 
L 368.184192 -293.192089 
L 368.182562 -292.544815 
L 368.179608 -291.897541 
L 368.178524 -291.250267 
L 368.178169 -290.602992 
L 368.176122 -289.955718 
L 368.175516 -289.308444 
L 368.174545 -288.66117 
L 368.173543 -288.013895 
L 368.173319 -287.366621 
L 368.172602 -286.719347 
L 368.166949 -286.072073 
L 368.166815 -285.424798 
L 368.165096 -284.777524 
L 368.163779 -284.13025 
L 368.163018 -283.482976 
L 368.162387 -282.835702 
L 368.161327 -282.188427 
L 368.161083 -281.541153 
L 368.160306 -280.893879 
L 368.160047 -280.246605 
L 368.159425 -279.59933 
L 368.15791 -278.952056 
L 368.156133 -278.304782 
L 368.153115 -277.657508 
L 368.150928 -277.010234 
L 368.14947 -276.362959 
L 368.149164 -275.715685 
L 368.148794 -275.068411 
L 368.148713 -274.421137 
L 368.146336 -273.773862 
L 368.14468 -273.126588 
L 368.144178 -272.479314 
L 368.142641 -271.83204 
L 368.14109 -271.184766 
L 368.139511 -270.537491 
L 368.139385 -269.890217 
L 368.139002 -269.242943 
L 368.138302 -268.595669 
L 368.137342 -267.948394 
L 368.136565 -267.30112 
L 368.134095 -266.653846 
L 368.131713 -266.006572 
L 368.131677 -265.359298 
L 368.130529 -264.712023 
L 368.127309 -264.064749 
L 368.12508 -263.417475 
L 368.122067 -262.770201 
L 368.117829 -262.122926 
L 368.117184 -261.475652 
L 368.117014 -260.828378 
L 368.116832 -260.181104 
L 368.11574 -259.53383 
L 368.112806 -258.886555 
L 368.110906 -258.239281 
L 368.109048 -257.592007 
L 368.108941 -256.944733 
L 368.105734 -256.297458 
L 368.102038 -255.650184 
L 368.101071 -255.00291 
L 368.100772 -254.355636 
L 368.097483 -253.708362 
L 368.095589 -253.061087 
L 368.086685 -252.413813 
L 368.081978 -251.766539 
L 368.080711 -251.119265 
L 368.07859 -250.47199 
L 368.072963 -249.824716 
L 368.071454 -249.177442 
L 368.071064 -248.530168 
L 368.068746 -247.882894 
L 368.053455 -247.235619 
L 368.047307 -246.588345 
L 368.033527 -245.941071 
L 368.030799 -245.293797 
L 368.021503 -244.646522 
L 367.958805 -243.999248 
z
" style="stroke: #0090dd; stroke-opacity: 0.7"/>
    </defs>
    <g clip-path="url(#pec4fc6b216)">
     <use xlink:href="#m2c3dc1228a" x="0" y="576" style="fill: #0090dd; fill-opacity: 0.7; stroke: #0090dd; stroke-opacity: 0.7"/>
    </g>
   </g>
   <g id="PolyCollection_4">
    <defs>
     <path id="m8296209d71" d="M 368.169817 -306.784848 
L 367.896094 -306.784848 
L 367.896094 -307.432122 
L 367.896094 -308.079396 
L 367.896094 -308.726671 
L 367.896094 -309.373945 
L 367.896094 -310.021219 
L 367.896094 -310.668493 
L 367.896094 -311.315767 
L 368.258533 -311.315767 
L 368.258533 -311.315767 
L 368.254066 -310.668493 
L 368.241981 -310.021219 
L 368.235843 -309.373945 
L 368.234855 -308.726671 
L 368.229828 -308.079396 
L 368.204245 -307.432122 
L 368.169817 -306.784848 
z
" style="stroke: #00a13d; stroke-opacity: 0.7"/>
    </defs>
    <g clip-path="url(#pec4fc6b216)">
     <use xlink:href="#m8296209d71" x="0" y="576" style="fill: #00a13d; fill-opacity: 0.7; stroke: #00a13d; stroke-opacity: 0.7"/>
    </g>
   </g>
   <g id="PolyCollection_5">
    <defs>
     <path id="m3022342d2c" d="M 367.992679 -318.435784 
L 367.896094 -318.435784 
L 367.896094 -319.083058 
L 367.896094 -319.730332 
L 367.896094 -320.377607 
L 367.896094 -321.024881 
L 367.896094 -321.672155 
L 367.896094 -322.319429 
L 367.896094 -322.966703 
L 367.896094 -323.613978 
L 367.896094 -324.261252 
L 367.896094 -324.908526 
L 367.896094 -325.5558 
L 367.896094 -326.203075 
L 367.896094 -326.850349 
L 367.896094 -327.497623 
L 367.896094 -328.144897 
L 367.896094 -328.792171 
L 367.896094 -329.439446 
L 367.896094 -330.08672 
L 367.896094 -330.733994 
L 367.896094 -331.381268 
L 367.896094 -332.028543 
L 367.896094 -332.675817 
L 367.896094 -333.323091 
L 367.896094 -333.970365 
L 367.896094 -334.617639 
L 367.896094 -335.264914 
L 367.896094 -335.912188 
L 367.896094 -336.559462 
L 367.896094 -337.206736 
L 367.896094 -337.854011 
L 367.896094 -338.501285 
L 367.896094 -339.148559 
L 367.896094 -339.795833 
L 367.896094 -340.443107 
L 367.896094 -341.090382 
L 367.896094 -341.737656 
L 367.896094 -342.38493 
L 367.896094 -343.032204 
L 367.896094 -343.679479 
L 367.896094 -344.326753 
L 367.896094 -344.974027 
L 367.896094 -345.621301 
L 367.896094 -346.268576 
L 367.896094 -346.91585 
L 367.896094 -347.563124 
L 367.896094 -348.210398 
L 367.896094 -348.857672 
L 367.896094 -349.504947 
L 367.896094 -350.152221 
L 367.896094 -350.799495 
L 367.896094 -351.446769 
L 367.896094 -352.094044 
L 367.896094 -352.741318 
L 367.896094 -353.388592 
L 367.896094 -354.035866 
L 367.896094 -354.68314 
L 367.896094 -355.330415 
L 367.896094 -355.977689 
L 367.896094 -356.624963 
L 368.119962 -356.624963 
L 368.119962 -356.624963 
L 368.108831 -355.977689 
L 368.105871 -355.330415 
L 368.105483 -354.68314 
L 368.098599 -354.035866 
L 368.098001 -353.388592 
L 368.097736 -352.741318 
L 368.09501 -352.094044 
L 368.0947 -351.446769 
L 368.094122 -350.799495 
L 368.093979 -350.152221 
L 368.092308 -349.504947 
L 368.090089 -348.857672 
L 368.08979 -348.210398 
L 368.089323 -347.563124 
L 368.089323 -346.91585 
L 368.087303 -346.268576 
L 368.087303 -345.621301 
L 368.087238 -344.974027 
L 368.085492 -344.326753 
L 368.085318 -343.679479 
L 368.085308 -343.032204 
L 368.084713 -342.38493 
L 368.08374 -341.737656 
L 368.083365 -341.090382 
L 368.081112 -340.443107 
L 368.078835 -339.795833 
L 368.077379 -339.148559 
L 368.076001 -338.501285 
L 368.076001 -337.854011 
L 368.075704 -337.206736 
L 368.075394 -336.559462 
L 368.075251 -335.912188 
L 368.073396 -335.264914 
L 368.072044 -334.617639 
L 368.070569 -333.970365 
L 368.068687 -333.323091 
L 368.068219 -332.675817 
L 368.068212 -332.028543 
L 368.066984 -331.381268 
L 368.065081 -330.733994 
L 368.063409 -330.08672 
L 368.062917 -329.439446 
L 368.060259 -328.792171 
L 368.059066 -328.144897 
L 368.057212 -327.497623 
L 368.055041 -326.850349 
L 368.05484 -326.203075 
L 368.052604 -325.5558 
L 368.052463 -324.908526 
L 368.052233 -324.261252 
L 368.050032 -323.613978 
L 368.049207 -322.966703 
L 368.047528 -322.319429 
L 368.045814 -321.672155 
L 368.044198 -321.024881 
L 368.039764 -320.377607 
L 368.034856 -319.730332 
L 368.033777 -319.083058 
L 367.992679 -318.435784 
z
" style="stroke: #00ec00; stroke-opacity: 0.7"/>
    </defs>
    <g clip-path="url(#pec4fc6b216)">
     <use xlink:href="#m3022342d2c" x="0" y="576" style="fill: #00ec00; fill-opacity: 0.7; stroke: #00ec00; stroke-opacity: 0.7"/>
    </g>
   </g>
   <g id="PolyCollection_6">
    <defs>
     <path id="m7e67237865" d="M 368.831623 -363.74498 
L 367.896094 -363.74498 
L 367.896094 -364.392254 
L 367.896094 -365.039528 
L 367.896094 -365.686802 
L 367.896094 -366.334076 
L 367.896094 -366.981351 
L 367.896094 -367.628625 
L 367.896094 -368.275899 
L 367.896094 -368.923173 
L 367.896094 -369.570448 
L 367.896094 -370.217722 
L 367.896094 -370.864996 
L 367.896094 -371.51227 
L 367.896094 -372.159544 
L 367.896094 -372.806819 
L 367.896094 -373.454093 
L 367.896094 -374.101367 
L 367.896094 -374.748641 
L 367.896094 -375.395916 
L 367.896094 -376.04319 
L 367.896094 -376.690464 
L 367.896094 -377.337738 
L 367.896094 -377.985012 
L 367.896094 -378.632287 
L 367.896094 -379.279561 
L 367.896094 -379.926835 
L 367.896094 -380.574109 
L 367.896094 -381.221384 
L 367.896094 -381.868658 
L 367.896094 -382.515932 
L 367.896094 -383.163206 
L 367.896094 -383.81048 
L 367.896094 -384.457755 
L 367.896094 -385.105029 
L 367.896094 -385.752303 
L 367.896094 -386.399577 
L 367.896094 -387.046852 
L 367.896094 -387.694126 
L 367.896094 -388.3414 
L 367.896094 -388.988674 
L 367.896094 -389.635948 
L 367.896094 -390.283223 
L 367.896094 -390.930497 
L 367.896094 -391.577771 
L 367.896094 -392.225045 
L 367.896094 -392.87232 
L 367.896094 -393.519594 
L 367.896094 -394.166868 
L 367.896094 -394.814142 
L 367.896094 -395.461416 
L 367.896094 -396.108691 
L 367.896094 -396.755965 
L 367.896094 -397.403239 
L 367.896094 -398.050513 
L 367.896094 -398.697788 
L 367.896094 -399.345062 
L 367.896094 -399.992336 
L 367.896094 -400.63961 
L 367.896094 -401.286885 
L 367.896094 -401.934159 
L 367.896094 -402.581433 
L 367.896094 -403.228707 
L 367.896094 -403.875981 
L 367.896094 -404.523256 
L 367.896094 -405.17053 
L 367.896094 -405.817804 
L 367.896094 -406.465078 
L 367.896094 -407.112353 
L 367.896094 -407.759627 
L 367.896094 -408.406901 
L 367.896094 -409.054175 
L 367.896094 -409.701449 
L 367.896094 -410.348724 
L 367.896094 -410.995998 
L 367.896094 -411.643272 
L 367.896094 -412.290546 
L 367.896094 -412.937821 
L 367.896094 -413.585095 
L 367.896094 -414.232369 
L 367.896094 -414.879643 
L 367.896094 -415.526917 
L 367.896094 -416.174192 
L 367.896094 -416.821466 
L 367.896094 -417.46874 
L 367.896094 -418.116014 
L 367.896094 -418.763289 
L 367.896094 -419.410563 
L 367.896094 -420.057837 
L 367.896094 -420.705111 
L 367.896094 -421.352385 
L 367.896094 -421.99966 
L 367.896094 -422.646934 
L 367.896094 -423.294208 
L 367.896094 -423.941482 
L 367.896094 -424.588757 
L 367.896094 -425.236031 
L 367.896094 -425.883305 
L 367.896094 -426.530579 
L 367.896094 -427.177853 
L 367.896094 -427.825128 
L 367.896094 -428.472402 
L 367.896094 -429.119676 
L 367.896094 -429.76695 
L 367.896094 -430.414225 
L 367.896094 -431.061499 
L 367.896094 -431.708773 
L 367.896094 -432.356047 
L 367.896094 -433.003321 
L 367.896094 -433.650596 
L 367.896094 -434.29787 
L 367.896094 -434.945144 
L 367.896094 -435.592418 
L 367.896094 -436.239693 
L 367.896094 -436.886967 
L 367.896094 -437.534241 
L 367.896094 -438.181515 
L 367.896094 -438.828789 
L 367.896094 -439.476064 
L 367.896094 -440.123338 
L 367.896094 -440.770612 
L 367.896094 -441.417886 
L 367.896094 -442.065161 
L 367.896094 -442.712435 
L 367.896094 -443.359709 
L 367.896094 -444.006983 
L 367.896094 -444.654257 
L 367.896094 -445.301532 
L 367.896094 -445.948806 
L 367.896094 -446.59608 
L 367.896094 -447.243354 
L 367.896094 -447.890629 
L 367.896094 -448.537903 
L 367.896094 -449.185177 
L 367.896094 -449.832451 
L 367.896094 -450.479725 
L 367.896094 -451.127 
L 367.896094 -451.774274 
L 367.896094 -452.421548 
L 367.896094 -453.068822 
L 367.896094 -453.716097 
L 367.896094 -454.363371 
L 367.896094 -455.010645 
L 367.896094 -455.657919 
L 367.896094 -456.305194 
L 367.896094 -456.952468 
L 367.896094 -457.599742 
L 367.896094 -458.247016 
L 367.896094 -458.89429 
L 367.896094 -459.541565 
L 367.896094 -460.188839 
L 367.896094 -460.836113 
L 367.896094 -461.483387 
L 367.896094 -462.130662 
L 367.896094 -462.777936 
L 367.896094 -463.42521 
L 367.896094 -464.072484 
L 367.896094 -464.719758 
L 367.896094 -465.367033 
L 367.896094 -466.014307 
L 367.896094 -466.661581 
L 367.896094 -467.308855 
L 367.896094 -467.95613 
L 367.896094 -468.603404 
L 367.896094 -469.250678 
L 367.896094 -469.897952 
L 367.896094 -470.545226 
L 367.896094 -471.192501 
L 367.896094 -471.839775 
L 367.896094 -472.487049 
L 367.896094 -473.134323 
L 367.896094 -473.781598 
L 367.896094 -474.428872 
L 367.896094 -475.076146 
L 367.896094 -475.72342 
L 367.896094 -476.370694 
L 367.896094 -477.017969 
L 367.896094 -477.665243 
L 367.896094 -478.312517 
L 367.896094 -478.959791 
L 367.896094 -479.607066 
L 367.896094 -480.25434 
L 367.896094 -480.901614 
L 367.896094 -481.548888 
L 367.896094 -482.196162 
L 367.896094 -482.843437 
L 367.896094 -483.490711 
L 367.896094 -484.137985 
L 367.896094 -484.785259 
L 367.896094 -485.432534 
L 367.896094 -486.079808 
L 367.896094 -486.727082 
L 367.896094 -487.374356 
L 367.896094 -488.02163 
L 367.896094 -488.668905 
L 367.896094 -489.316179 
L 367.896094 -489.963453 
L 367.896094 -490.610727 
L 367.896094 -491.258002 
L 367.896094 -491.905276 
L 367.896094 -492.55255 
L 367.896094 -493.199824 
L 369.478828 -493.199824 
L 369.478828 -493.199824 
L 369.460655 -492.55255 
L 369.4554 -491.905276 
L 369.451141 -491.258002 
L 369.417193 -490.610727 
L 369.401363 -489.963453 
L 369.388159 -489.316179 
L 369.386485 -488.668905 
L 369.382196 -488.02163 
L 369.381122 -487.374356 
L 369.378331 -486.727082 
L 369.375736 -486.079808 
L 369.374088 -485.432534 
L 369.370268 -484.785259 
L 369.3684 -484.137985 
L 369.366989 -483.490711 
L 369.366086 -482.843437 
L 369.364454 -482.196162 
L 369.361941 -481.548888 
L 369.358646 -480.901614 
L 369.350554 -480.25434 
L 369.34771 -479.607066 
L 369.346683 -478.959791 
L 369.346481 -478.312517 
L 369.343575 -477.665243 
L 369.339842 -477.017969 
L 369.339367 -476.370694 
L 369.338725 -475.72342 
L 369.338488 -475.076146 
L 369.33543 -474.428872 
L 369.333259 -473.781598 
L 369.326072 -473.134323 
L 369.324652 -472.487049 
L 369.324362 -471.839775 
L 369.323585 -471.192501 
L 369.32286 -470.545226 
L 369.322416 -469.897952 
L 369.318816 -469.250678 
L 369.315318 -468.603404 
L 369.31502 -467.95613 
L 369.312295 -467.308855 
L 369.310599 -466.661581 
L 369.310148 -466.014307 
L 369.30908 -465.367033 
L 369.305623 -464.719758 
L 369.304401 -464.072484 
L 369.303054 -463.42521 
L 369.303031 -462.777936 
L 369.301403 -462.130662 
L 369.300209 -461.483387 
L 369.299781 -460.836113 
L 369.298891 -460.188839 
L 369.296237 -459.541565 
L 369.294935 -458.89429 
L 369.294789 -458.247016 
L 369.294172 -457.599742 
L 369.293356 -456.952468 
L 369.293101 -456.305194 
L 369.292831 -455.657919 
L 369.288986 -455.010645 
L 369.287687 -454.363371 
L 369.286829 -453.716097 
L 369.283642 -453.068822 
L 369.283542 -452.421548 
L 369.281044 -451.774274 
L 369.28084 -451.127 
L 369.28053 -450.479725 
L 369.280029 -449.832451 
L 369.278752 -449.185177 
L 369.278266 -448.537903 
L 369.277507 -447.890629 
L 369.276612 -447.243354 
L 369.276574 -446.59608 
L 369.275976 -445.948806 
L 369.27577 -445.301532 
L 369.275036 -444.654257 
L 369.274699 -444.006983 
L 369.27442 -443.359709 
L 369.273053 -442.712435 
L 369.272901 -442.065161 
L 369.27222 -441.417886 
L 369.270882 -440.770612 
L 369.269887 -440.123338 
L 369.269094 -439.476064 
L 369.267277 -438.828789 
L 369.265342 -438.181515 
L 369.2648 -437.534241 
L 369.262533 -436.886967 
L 369.259622 -436.239693 
L 369.258343 -435.592418 
L 369.257296 -434.945144 
L 369.25711 -434.29787 
L 369.256096 -433.650596 
L 369.256033 -433.003321 
L 369.254082 -432.356047 
L 369.252995 -431.708773 
L 369.250986 -431.061499 
L 369.246363 -430.414225 
L 369.244518 -429.76695 
L 369.243445 -429.119676 
L 369.243287 -428.472402 
L 369.243058 -427.825128 
L 369.242013 -427.177853 
L 369.236893 -426.530579 
L 369.236014 -425.883305 
L 369.2334 -425.236031 
L 369.23322 -424.588757 
L 369.233097 -423.941482 
L 369.232792 -423.294208 
L 369.230474 -422.646934 
L 369.229723 -421.99966 
L 369.229111 -421.352385 
L 369.221383 -420.705111 
L 369.219427 -420.057837 
L 369.218489 -419.410563 
L 369.218204 -418.763289 
L 369.217767 -418.116014 
L 369.212855 -417.46874 
L 369.212211 -416.821466 
L 369.210836 -416.174192 
L 369.210161 -415.526917 
L 369.20959 -414.879643 
L 369.20943 -414.232369 
L 369.207606 -413.585095 
L 369.206798 -412.937821 
L 369.201212 -412.290546 
L 369.200902 -411.643272 
L 369.200171 -410.995998 
L 369.192121 -410.348724 
L 369.190859 -409.701449 
L 369.190185 -409.054175 
L 369.185297 -408.406901 
L 369.185033 -407.759627 
L 369.177754 -407.112353 
L 369.176109 -406.465078 
L 369.174626 -405.817804 
L 369.172471 -405.17053 
L 369.171776 -404.523256 
L 369.171139 -403.875981 
L 369.170914 -403.228707 
L 369.167636 -402.581433 
L 369.165533 -401.934159 
L 369.164816 -401.286885 
L 369.164162 -400.63961 
L 369.160003 -399.992336 
L 369.157629 -399.345062 
L 369.156976 -398.697788 
L 369.156586 -398.050513 
L 369.154212 -397.403239 
L 369.150613 -396.755965 
L 369.147514 -396.108691 
L 369.13489 -395.461416 
L 369.131724 -394.814142 
L 369.130197 -394.166868 
L 369.129827 -393.519594 
L 369.128012 -392.87232 
L 369.123587 -392.225045 
L 369.121222 -391.577771 
L 369.117229 -390.930497 
L 369.117139 -390.283223 
L 369.106012 -389.635948 
L 369.103547 -388.988674 
L 369.101147 -388.3414 
L 369.095649 -387.694126 
L 369.095333 -387.046852 
L 369.08349 -386.399577 
L 369.081971 -385.752303 
L 369.078496 -385.105029 
L 369.067633 -384.457755 
L 369.062438 -383.81048 
L 369.058266 -383.163206 
L 369.050383 -382.515932 
L 369.048898 -381.868658 
L 369.048584 -381.221384 
L 369.044999 -380.574109 
L 369.044373 -379.926835 
L 369.03409 -379.279561 
L 369.027313 -378.632287 
L 369.025972 -377.985012 
L 369.02403 -377.337738 
L 369.022519 -376.690464 
L 369.017491 -376.04319 
L 369.009631 -375.395916 
L 368.996665 -374.748641 
L 368.995009 -374.101367 
L 368.99368 -373.454093 
L 368.992847 -372.806819 
L 368.992054 -372.159544 
L 368.989571 -371.51227 
L 368.97442 -370.864996 
L 368.939345 -370.217722 
L 368.931718 -369.570448 
L 368.909604 -368.923173 
L 368.906919 -368.275899 
L 368.881734 -367.628625 
L 368.876091 -366.981351 
L 368.871368 -366.334076 
L 368.861025 -365.686802 
L 368.847295 -365.039528 
L 368.843704 -364.392254 
L 368.831623 -363.74498 
z
" style="stroke: #f3e500; stroke-opacity: 0.7"/>
    </defs>
    <g clip-path="url(#pec4fc6b216)">
     <use xlink:href="#m7e67237865" x="0" y="576" style="fill: #f3e500; fill-opacity: 0.7; stroke: #f3e500; stroke-opacity: 0.7"/>
    </g>
   </g>
   <g id="PolyCollection_7">
    <defs>
     <path id="m106596229f" d="M 367.994638 -500.319841 
L 367.896094 -500.319841 
L 367.896094 -500.967115 
L 367.896094 -501.614389 
L 367.896094 -502.261663 
L 367.896094 -502.908938 
L 367.896094 -503.556212 
L 367.896094 -504.203486 
L 367.896094 -504.85076 
L 367.896094 -505.498034 
L 367.896094 -506.145309 
L 367.896094 -506.792583 
L 367.896094 -507.439857 
L 367.896094 -508.087131 
L 367.896094 -508.734406 
L 367.896094 -509.38168 
L 367.896094 -510.028954 
L 367.896094 -510.676228 
L 367.896094 -511.323503 
L 367.896094 -511.970777 
L 367.896094 -512.618051 
L 367.896094 -513.265325 
L 367.896094 -513.912599 
L 367.896094 -514.559874 
L 367.896094 -515.207148 
L 367.896094 -515.854422 
L 367.896094 -516.501696 
L 367.896094 -517.148971 
L 367.896094 -517.796245 
L 367.896094 -518.443519 
L 367.896094 -519.090793 
L 367.896094 -519.738067 
L 367.896094 -520.385342 
L 367.896094 -521.032616 
L 367.896094 -521.67989 
L 367.896094 -522.327164 
L 367.896094 -522.974439 
L 367.896094 -523.621713 
L 367.896094 -524.268987 
L 367.896094 -524.916261 
L 367.896094 -525.563535 
L 367.896094 -526.21081 
L 367.896094 -526.858084 
L 367.896094 -527.505358 
L 367.896094 -528.152632 
L 367.896094 -528.799907 
L 367.896094 -529.447181 
L 367.896094 -530.094455 
L 367.896094 -530.741729 
L 367.896094 -531.389003 
L 367.896094 -532.036278 
L 367.896094 -532.683552 
L 367.896094 -533.330826 
L 367.896094 -533.9781 
L 367.896094 -534.625375 
L 367.896094 -535.272649 
L 367.896094 -535.919923 
L 367.896094 -536.567197 
L 367.896094 -537.214471 
L 367.896094 -537.861746 
L 367.896094 -538.50902 
L 367.896094 -539.156294 
L 367.896094 -539.803568 
L 367.896094 -540.450843 
L 367.896094 -541.098117 
L 367.896094 -541.745391 
L 367.896094 -542.392665 
L 367.896094 -543.039939 
L 367.896094 -543.687214 
L 367.896094 -544.334488 
L 367.896094 -544.981762 
L 368.195203 -544.981762 
L 368.195203 -544.981762 
L 368.187468 -544.334488 
L 368.185033 -543.687214 
L 368.182637 -543.039939 
L 368.179263 -542.392665 
L 368.17771 -541.745391 
L 368.169029 -541.098117 
L 368.1687 -540.450843 
L 368.16753 -539.803568 
L 368.166607 -539.156294 
L 368.163096 -538.50902 
L 368.158798 -537.861746 
L 368.158507 -537.214471 
L 368.158189 -536.567197 
L 368.15611 -535.919923 
L 368.154259 -535.272649 
L 368.153541 -534.625375 
L 368.152776 -533.9781 
L 368.152553 -533.330826 
L 368.15141 -532.683552 
L 368.147137 -532.036278 
L 368.145312 -531.389003 
L 368.140847 -530.741729 
L 368.136781 -530.094455 
L 368.135961 -529.447181 
L 368.134322 -528.799907 
L 368.133932 -528.152632 
L 368.133509 -527.505358 
L 368.133418 -526.858084 
L 368.131628 -526.21081 
L 368.131234 -525.563535 
L 368.129795 -524.916261 
L 368.128952 -524.268987 
L 368.125589 -523.621713 
L 368.123652 -522.974439 
L 368.121391 -522.327164 
L 368.120751 -521.67989 
L 368.120602 -521.032616 
L 368.11392 -520.385342 
L 368.113169 -519.738067 
L 368.111368 -519.090793 
L 368.107171 -518.443519 
L 368.106585 -517.796245 
L 368.10228 -517.148971 
L 368.10064 -516.501696 
L 368.099683 -515.854422 
L 368.09766 -515.207148 
L 368.085334 -514.559874 
L 368.084833 -513.912599 
L 368.084735 -513.265325 
L 368.084735 -512.618051 
L 368.081614 -511.970777 
L 368.077575 -511.323503 
L 368.077264 -510.676228 
L 368.068329 -510.028954 
L 368.067979 -509.38168 
L 368.06795 -508.734406 
L 368.064155 -508.087131 
L 368.055953 -507.439857 
L 368.048798 -506.792583 
L 368.047821 -506.145309 
L 368.045356 -505.498034 
L 368.043592 -504.85076 
L 368.040078 -504.203486 
L 368.039075 -503.556212 
L 368.038643 -502.908938 
L 368.032341 -502.261663 
L 368.022282 -501.614389 
L 368.013459 -500.967115 
L 367.994638 -500.319841 
z
" style="stroke: #f90000; stroke-opacity: 0.7"/>
    </defs>
    <g clip-path="url(#pec4fc6b216)">
     <use xlink:href="#m106596229f" x="0" y="576" style="fill: #f90000; fill-opacity: 0.7; stroke: #f90000; stroke-opacity: 0.7"/>
    </g>
   </g>
   <g id="matplotlib.axis_1">
    <g id="xtick_1">
     <g id="line2d_1">
      <defs>
       <path id="mce01550059" d="M 0 0 
L 0 3.5 
" style="stroke: #000000; stroke-width: 0.8"/>
      </defs>
      <g>
       <use xlink:href="#mce01550059" x="42.495313" y="510.648438" style="stroke: #000000; stroke-width: 0.8"/>
      </g>
     </g>
     <g id="text_1">
      <!-- −1.0 -->
      <g transform="translate(18.2125 532.845312) scale(0.2 -0.2)">
       <defs>
        <path id="DejaVuSans-2212" d="M 678 2272 
L 4684 2272 
L 4684 1741 
L 678 1741 
L 678 2272 
z
" transform="scale(0.015625)"/>
        <path id="DejaVuSans-31" d="M 794 531 
L 1825 531 
L 1825 4091 
L 703 3866 
L 703 4441 
L 1819 4666 
L 2450 4666 
L 2450 531 
L 3481 531 
L 3481 0 
L 794 0 
L 794 531 
z
" transform="scale(0.015625)"/>
        <path id="DejaVuSans-2e" d="M 684 794 
L 1344 794 
L 1344 0 
L 684 0 
L 684 794 
z
" transform="scale(0.015625)"/>
        <path id="DejaVuSans-30" d="M 2034 4250 
Q 1547 4250 1301 3770 
Q 1056 3291 1056 2328 
Q 1056 1369 1301 889 
Q 1547 409 2034 409 
Q 2525 409 2770 889 
Q 3016 1369 3016 2328 
Q 3016 3291 2770 3770 
Q 2525 4250 2034 4250 
z
M 2034 4750 
Q 2819 4750 3233 4129 
Q 3647 3509 3647 2328 
Q 3647 1150 3233 529 
Q 2819 -91 2034 -91 
Q 1250 -91 836 529 
Q 422 1150 422 2328 
Q 422 3509 836 4129 
Q 1250 4750 2034 4750 
z
" transform="scale(0.015625)"/>
       </defs>
       <use xlink:href="#DejaVuSans-2212"/>
       <use xlink:href="#DejaVuSans-31" x="83.789062"/>
       <use xlink:href="#DejaVuSans-2e" x="147.412109"/>
       <use xlink:href="#DejaVuSans-30" x="179.199219"/>
      </g>
     </g>
    </g>
    <g id="xtick_2">
     <g id="line2d_2">
      <g>
       <use xlink:href="#mce01550059" x="107.575469" y="510.648438" style="stroke: #000000; stroke-width: 0.8"/>
      </g>
     </g>
     <g id="text_2">
      <!-- −0.8 -->
      <g transform="translate(83.292656 532.845312) scale(0.2 -0.2)">
       <defs>
        <path id="DejaVuSans-38" d="M 2034 2216 
Q 1584 2216 1326 1975 
Q 1069 1734 1069 1313 
Q 1069 891 1326 650 
Q 1584 409 2034 409 
Q 2484 409 2743 651 
Q 3003 894 3003 1313 
Q 3003 1734 2745 1975 
Q 2488 2216 2034 2216 
z
M 1403 2484 
Q 997 2584 770 2862 
Q 544 3141 544 3541 
Q 544 4100 942 4425 
Q 1341 4750 2034 4750 
Q 2731 4750 3128 4425 
Q 3525 4100 3525 3541 
Q 3525 3141 3298 2862 
Q 3072 2584 2669 2484 
Q 3125 2378 3379 2068 
Q 3634 1759 3634 1313 
Q 3634 634 3220 271 
Q 2806 -91 2034 -91 
Q 1263 -91 848 271 
Q 434 634 434 1313 
Q 434 1759 690 2068 
Q 947 2378 1403 2484 
z
M 1172 3481 
Q 1172 3119 1398 2916 
Q 1625 2713 2034 2713 
Q 2441 2713 2670 2916 
Q 2900 3119 2900 3481 
Q 2900 3844 2670 4047 
Q 2441 4250 2034 4250 
Q 1625 4250 1398 4047 
Q 1172 3844 1172 3481 
z
" transform="scale(0.015625)"/>
       </defs>
       <use xlink:href="#DejaVuSans-2212"/>
       <use xlink:href="#DejaVuSans-30" x="83.789062"/>
       <use xlink:href="#DejaVuSans-2e" x="147.412109"/>
       <use xlink:href="#DejaVuSans-38" x="179.199219"/>
      </g>
     </g>
    </g>
    <g id="xtick_3">
     <g id="line2d_3">
      <g>
       <use xlink:href="#mce01550059" x="172.655625" y="510.648438" style="stroke: #000000; stroke-width: 0.8"/>
      </g>
     </g>
     <g id="text_3">
      <!-- −0.6 -->
      <g transform="translate(148.372813 532.845312) scale(0.2 -0.2)">
       <defs>
        <path id="DejaVuSans-36" d="M 2113 2584 
Q 1688 2584 1439 2293 
Q 1191 2003 1191 1497 
Q 1191 994 1439 701 
Q 1688 409 2113 409 
Q 2538 409 2786 701 
Q 3034 994 3034 1497 
Q 3034 2003 2786 2293 
Q 2538 2584 2113 2584 
z
M 3366 4563 
L 3366 3988 
Q 3128 4100 2886 4159 
Q 2644 4219 2406 4219 
Q 1781 4219 1451 3797 
Q 1122 3375 1075 2522 
Q 1259 2794 1537 2939 
Q 1816 3084 2150 3084 
Q 2853 3084 3261 2657 
Q 3669 2231 3669 1497 
Q 3669 778 3244 343 
Q 2819 -91 2113 -91 
Q 1303 -91 875 529 
Q 447 1150 447 2328 
Q 447 3434 972 4092 
Q 1497 4750 2381 4750 
Q 2619 4750 2861 4703 
Q 3103 4656 3366 4563 
z
" transform="scale(0.015625)"/>
       </defs>
       <use xlink:href="#DejaVuSans-2212"/>
       <use xlink:href="#DejaVuSans-30" x="83.789062"/>
       <use xlink:href="#DejaVuSans-2e" x="147.412109"/>
       <use xlink:href="#DejaVuSans-36" x="179.199219"/>
      </g>
     </g>
    </g>
    <g id="xtick_4">
     <g id="line2d_4">
      <g>
       <use xlink:href="#mce01550059" x="237.735781" y="510.648438" style="stroke: #000000; stroke-width: 0.8"/>
      </g>
     </g>
     <g id="text_4">
      <!-- −0.4 -->
      <g transform="translate(213.452969 532.845312) scale(0.2 -0.2)">
       <defs>
        <path id="DejaVuSans-34" d="M 2419 4116 
L 825 1625 
L 2419 1625 
L 2419 4116 
z
M 2253 4666 
L 3047 4666 
L 3047 1625 
L 3713 1625 
L 3713 1100 
L 3047 1100 
L 3047 0 
L 2419 0 
L 2419 1100 
L 313 1100 
L 313 1709 
L 2253 4666 
z
" transform="scale(0.015625)"/>
       </defs>
       <use xlink:href="#DejaVuSans-2212"/>
       <use xlink:href="#DejaVuSans-30" x="83.789062"/>
       <use xlink:href="#DejaVuSans-2e" x="147.412109"/>
       <use xlink:href="#DejaVuSans-34" x="179.199219"/>
      </g>
     </g>
    </g>
    <g id="xtick_5">
     <g id="line2d_5">
      <g>
       <use xlink:href="#mce01550059" x="302.815937" y="510.648438" style="stroke: #000000; stroke-width: 0.8"/>
      </g>
     </g>
     <g id="text_5">
      <!-- −0.2 -->
      <g transform="translate(278.533125 532.845312) scale(0.2 -0.2)">
       <defs>
        <path id="DejaVuSans-32" d="M 1228 531 
L 3431 531 
L 3431 0 
L 469 0 
L 469 531 
Q 828 903 1448 1529 
Q 2069 2156 2228 2338 
Q 2531 2678 2651 2914 
Q 2772 3150 2772 3378 
Q 2772 3750 2511 3984 
Q 2250 4219 1831 4219 
Q 1534 4219 1204 4116 
Q 875 4013 500 3803 
L 500 4441 
Q 881 4594 1212 4672 
Q 1544 4750 1819 4750 
Q 2544 4750 2975 4387 
Q 3406 4025 3406 3419 
Q 3406 3131 3298 2873 
Q 3191 2616 2906 2266 
Q 2828 2175 2409 1742 
Q 1991 1309 1228 531 
z
" transform="scale(0.015625)"/>
       </defs>
       <use xlink:href="#DejaVuSans-2212"/>
       <use xlink:href="#DejaVuSans-30" x="83.789062"/>
       <use xlink:href="#DejaVuSans-2e" x="147.412109"/>
       <use xlink:href="#DejaVuSans-32" x="179.199219"/>
      </g>
     </g>
    </g>
    <g id="xtick_6">
     <g id="line2d_6">
      <g>
       <use xlink:href="#mce01550059" x="367.896094" y="510.648438" style="stroke: #000000; stroke-width: 0.8"/>
      </g>
     </g>
     <g id="text_6">
      <!-- 0.0 -->
      <g transform="translate(351.992969 532.845312) scale(0.2 -0.2)">
       <use xlink:href="#DejaVuSans-30"/>
       <use xlink:href="#DejaVuSans-2e" x="63.623047"/>
       <use xlink:href="#DejaVuSans-30" x="95.410156"/>
      </g>
     </g>
    </g>
    <g id="xtick_7">
     <g id="line2d_7">
      <g>
       <use xlink:href="#mce01550059" x="432.97625" y="510.648438" style="stroke: #000000; stroke-width: 0.8"/>
      </g>
     </g>
     <g id="text_7">
      <!-- 0.2 -->
      <g transform="translate(417.073125 532.845312) scale(0.2 -0.2)">
       <use xlink:href="#DejaVuSans-30"/>
       <use xlink:href="#DejaVuSans-2e" x="63.623047"/>
       <use xlink:href="#DejaVuSans-32" x="95.410156"/>
      </g>
     </g>
    </g>
    <g id="xtick_8">
     <g id="line2d_8">
      <g>
       <use xlink:href="#mce01550059" x="498.056406" y="510.648438" style="stroke: #000000; stroke-width: 0.8"/>
      </g>
     </g>
     <g id="text_8">
      <!-- 0.4 -->
      <g transform="translate(482.153281 532.845312) scale(0.2 -0.2)">
       <use xlink:href="#DejaVuSans-30"/>
       <use xlink:href="#DejaVuSans-2e" x="63.623047"/>
       <use xlink:href="#DejaVuSans-34" x="95.410156"/>
      </g>
     </g>
    </g>
    <g id="xtick_9">
     <g id="line2d_9">
      <g>
       <use xlink:href="#mce01550059" x="563.136562" y="510.648438" style="stroke: #000000; stroke-width: 0.8"/>
      </g>
     </g>
     <g id="text_9">
      <!-- 0.6 -->
      <g transform="translate(547.233437 532.845312) scale(0.2 -0.2)">
       <use xlink:href="#DejaVuSans-30"/>
       <use xlink:href="#DejaVuSans-2e" x="63.623047"/>
       <use xlink:href="#DejaVuSans-36" x="95.410156"/>
      </g>
     </g>
    </g>
    <g id="xtick_10">
     <g id="line2d_10">
      <g>
       <use xlink:href="#mce01550059" x="628.216719" y="510.648438" style="stroke: #000000; stroke-width: 0.8"/>
      </g>
     </g>
     <g id="text_10">
      <!-- 0.8 -->
      <g transform="translate(612.313594 532.845312) scale(0.2 -0.2)">
       <use xlink:href="#DejaVuSans-30"/>
       <use xlink:href="#DejaVuSans-2e" x="63.623047"/>
       <use xlink:href="#DejaVuSans-38" x="95.410156"/>
      </g>
     </g>
    </g>
    <g id="xtick_11">
     <g id="line2d_11">
      <g>
       <use xlink:href="#mce01550059" x="693.296875" y="510.648438" style="stroke: #000000; stroke-width: 0.8"/>
      </g>
     </g>
     <g id="text_11">
      <!-- 1.0 -->
      <g transform="translate(677.39375 532.845312) scale(0.2 -0.2)">
       <use xlink:href="#DejaVuSans-31"/>
       <use xlink:href="#DejaVuSans-2e" x="63.623047"/>
       <use xlink:href="#DejaVuSans-30" x="95.410156"/>
      </g>
     </g>
    </g>
    <g id="text_12">
     <!-- Silhouette coefficient -->
     <g transform="translate(235.021094 560.000781) scale(0.25 -0.25)">
      <defs>
       <path id="DejaVuSans-53" d="M 3425 4513 
L 3425 3897 
Q 3066 4069 2747 4153 
Q 2428 4238 2131 4238 
Q 1616 4238 1336 4038 
Q 1056 3838 1056 3469 
Q 1056 3159 1242 3001 
Q 1428 2844 1947 2747 
L 2328 2669 
Q 3034 2534 3370 2195 
Q 3706 1856 3706 1288 
Q 3706 609 3251 259 
Q 2797 -91 1919 -91 
Q 1588 -91 1214 -16 
Q 841 59 441 206 
L 441 856 
Q 825 641 1194 531 
Q 1563 422 1919 422 
Q 2459 422 2753 634 
Q 3047 847 3047 1241 
Q 3047 1584 2836 1778 
Q 2625 1972 2144 2069 
L 1759 2144 
Q 1053 2284 737 2584 
Q 422 2884 422 3419 
Q 422 4038 858 4394 
Q 1294 4750 2059 4750 
Q 2388 4750 2728 4690 
Q 3069 4631 3425 4513 
z
" transform="scale(0.015625)"/>
       <path id="DejaVuSans-69" d="M 603 3500 
L 1178 3500 
L 1178 0 
L 603 0 
L 603 3500 
z
M 603 4863 
L 1178 4863 
L 1178 4134 
L 603 4134 
L 603 4863 
z
" transform="scale(0.015625)"/>
       <path id="DejaVuSans-6c" d="M 603 4863 
L 1178 4863 
L 1178 0 
L 603 0 
L 603 4863 
z
" transform="scale(0.015625)"/>
       <path id="DejaVuSans-68" d="M 3513 2113 
L 3513 0 
L 2938 0 
L 2938 2094 
Q 2938 2591 2744 2837 
Q 2550 3084 2163 3084 
Q 1697 3084 1428 2787 
Q 1159 2491 1159 1978 
L 1159 0 
L 581 0 
L 581 4863 
L 1159 4863 
L 1159 2956 
Q 1366 3272 1645 3428 
Q 1925 3584 2291 3584 
Q 2894 3584 3203 3211 
Q 3513 2838 3513 2113 
z
" transform="scale(0.015625)"/>
       <path id="DejaVuSans-6f" d="M 1959 3097 
Q 1497 3097 1228 2736 
Q 959 2375 959 1747 
Q 959 1119 1226 758 
Q 1494 397 1959 397 
Q 2419 397 2687 759 
Q 2956 1122 2956 1747 
Q 2956 2369 2687 2733 
Q 2419 3097 1959 3097 
z
M 1959 3584 
Q 2709 3584 3137 3096 
Q 3566 2609 3566 1747 
Q 3566 888 3137 398 
Q 2709 -91 1959 -91 
Q 1206 -91 779 398 
Q 353 888 353 1747 
Q 353 2609 779 3096 
Q 1206 3584 1959 3584 
z
" transform="scale(0.015625)"/>
       <path id="DejaVuSans-75" d="M 544 1381 
L 544 3500 
L 1119 3500 
L 1119 1403 
Q 1119 906 1312 657 
Q 1506 409 1894 409 
Q 2359 409 2629 706 
Q 2900 1003 2900 1516 
L 2900 3500 
L 3475 3500 
L 3475 0 
L 2900 0 
L 2900 538 
Q 2691 219 2414 64 
Q 2138 -91 1772 -91 
Q 1169 -91 856 284 
Q 544 659 544 1381 
z
M 1991 3584 
L 1991 3584 
z
" transform="scale(0.015625)"/>
       <path id="DejaVuSans-65" d="M 3597 1894 
L 3597 1613 
L 953 1613 
Q 991 1019 1311 708 
Q 1631 397 2203 397 
Q 2534 397 2845 478 
Q 3156 559 3463 722 
L 3463 178 
Q 3153 47 2828 -22 
Q 2503 -91 2169 -91 
Q 1331 -91 842 396 
Q 353 884 353 1716 
Q 353 2575 817 3079 
Q 1281 3584 2069 3584 
Q 2775 3584 3186 3129 
Q 3597 2675 3597 1894 
z
M 3022 2063 
Q 3016 2534 2758 2815 
Q 2500 3097 2075 3097 
Q 1594 3097 1305 2825 
Q 1016 2553 972 2059 
L 3022 2063 
z
" transform="scale(0.015625)"/>
       <path id="DejaVuSans-74" d="M 1172 4494 
L 1172 3500 
L 2356 3500 
L 2356 3053 
L 1172 3053 
L 1172 1153 
Q 1172 725 1289 603 
Q 1406 481 1766 481 
L 2356 481 
L 2356 0 
L 1766 0 
Q 1100 0 847 248 
Q 594 497 594 1153 
L 594 3053 
L 172 3053 
L 172 3500 
L 594 3500 
L 594 4494 
L 1172 4494 
z
" transform="scale(0.015625)"/>
       <path id="DejaVuSans-20" transform="scale(0.015625)"/>
       <path id="DejaVuSans-63" d="M 3122 3366 
L 3122 2828 
Q 2878 2963 2633 3030 
Q 2388 3097 2138 3097 
Q 1578 3097 1268 2742 
Q 959 2388 959 1747 
Q 959 1106 1268 751 
Q 1578 397 2138 397 
Q 2388 397 2633 464 
Q 2878 531 3122 666 
L 3122 134 
Q 2881 22 2623 -34 
Q 2366 -91 2075 -91 
Q 1284 -91 818 406 
Q 353 903 353 1747 
Q 353 2603 823 3093 
Q 1294 3584 2113 3584 
Q 2378 3584 2631 3529 
Q 2884 3475 3122 3366 
z
" transform="scale(0.015625)"/>
       <path id="DejaVuSans-66" d="M 2375 4863 
L 2375 4384 
L 1825 4384 
Q 1516 4384 1395 4259 
Q 1275 4134 1275 3809 
L 1275 3500 
L 2222 3500 
L 2222 3053 
L 1275 3053 
L 1275 0 
L 697 0 
L 697 3053 
L 147 3053 
L 147 3500 
L 697 3500 
L 697 3744 
Q 697 4328 969 4595 
Q 1241 4863 1831 4863 
L 2375 4863 
z
" transform="scale(0.015625)"/>
       <path id="DejaVuSans-6e" d="M 3513 2113 
L 3513 0 
L 2938 0 
L 2938 2094 
Q 2938 2591 2744 2837 
Q 2550 3084 2163 3084 
Q 1697 3084 1428 2787 
Q 1159 2491 1159 1978 
L 1159 0 
L 581 0 
L 581 3500 
L 1159 3500 
L 1159 2956 
Q 1366 3272 1645 3428 
Q 1925 3584 2291 3584 
Q 2894 3584 3203 3211 
Q 3513 2838 3513 2113 
z
" transform="scale(0.015625)"/>
      </defs>
      <use xlink:href="#DejaVuSans-53"/>
      <use xlink:href="#DejaVuSans-69" x="63.476562"/>
      <use xlink:href="#DejaVuSans-6c" x="91.259766"/>
      <use xlink:href="#DejaVuSans-68" x="119.042969"/>
      <use xlink:href="#DejaVuSans-6f" x="182.421875"/>
      <use xlink:href="#DejaVuSans-75" x="243.603516"/>
      <use xlink:href="#DejaVuSans-65" x="306.982422"/>
      <use xlink:href="#DejaVuSans-74" x="368.505859"/>
      <use xlink:href="#DejaVuSans-74" x="407.714844"/>
      <use xlink:href="#DejaVuSans-65" x="446.923828"/>
      <use xlink:href="#DejaVuSans-20" x="508.447266"/>
      <use xlink:href="#DejaVuSans-63" x="540.234375"/>
      <use xlink:href="#DejaVuSans-6f" x="595.214844"/>
      <use xlink:href="#DejaVuSans-65" x="656.396484"/>
      <use xlink:href="#DejaVuSans-66" x="717.919922"/>
      <use xlink:href="#DejaVuSans-66" x="753.125"/>
      <use xlink:href="#DejaVuSans-69" x="788.330078"/>
      <use xlink:href="#DejaVuSans-63" x="816.113281"/>
      <use xlink:href="#DejaVuSans-69" x="871.09375"/>
      <use xlink:href="#DejaVuSans-65" x="898.876953"/>
      <use xlink:href="#DejaVuSans-6e" x="960.400391"/>
      <use xlink:href="#DejaVuSans-74" x="1023.779297"/>
     </g>
    </g>
   </g>
   <g id="matplotlib.axis_2">
    <g id="text_13">
     <!-- Predicted label -->
     <g transform="translate(29.796094 360.154189) rotate(-90) scale(0.25 -0.25)">
      <defs>
       <path id="DejaVuSans-50" d="M 1259 4147 
L 1259 2394 
L 2053 2394 
Q 2494 2394 2734 2622 
Q 2975 2850 2975 3272 
Q 2975 3691 2734 3919 
Q 2494 4147 2053 4147 
L 1259 4147 
z
M 628 4666 
L 2053 4666 
Q 2838 4666 3239 4311 
Q 3641 3956 3641 3272 
Q 3641 2581 3239 2228 
Q 2838 1875 2053 1875 
L 1259 1875 
L 1259 0 
L 628 0 
L 628 4666 
z
" transform="scale(0.015625)"/>
       <path id="DejaVuSans-72" d="M 2631 2963 
Q 2534 3019 2420 3045 
Q 2306 3072 2169 3072 
Q 1681 3072 1420 2755 
Q 1159 2438 1159 1844 
L 1159 0 
L 581 0 
L 581 3500 
L 1159 3500 
L 1159 2956 
Q 1341 3275 1631 3429 
Q 1922 3584 2338 3584 
Q 2397 3584 2469 3576 
Q 2541 3569 2628 3553 
L 2631 2963 
z
" transform="scale(0.015625)"/>
       <path id="DejaVuSans-64" d="M 2906 2969 
L 2906 4863 
L 3481 4863 
L 3481 0 
L 2906 0 
L 2906 525 
Q 2725 213 2448 61 
Q 2172 -91 1784 -91 
Q 1150 -91 751 415 
Q 353 922 353 1747 
Q 353 2572 751 3078 
Q 1150 3584 1784 3584 
Q 2172 3584 2448 3432 
Q 2725 3281 2906 2969 
z
M 947 1747 
Q 947 1113 1208 752 
Q 1469 391 1925 391 
Q 2381 391 2643 752 
Q 2906 1113 2906 1747 
Q 2906 2381 2643 2742 
Q 2381 3103 1925 3103 
Q 1469 3103 1208 2742 
Q 947 2381 947 1747 
z
" transform="scale(0.015625)"/>
       <path id="DejaVuSans-61" d="M 2194 1759 
Q 1497 1759 1228 1600 
Q 959 1441 959 1056 
Q 959 750 1161 570 
Q 1363 391 1709 391 
Q 2188 391 2477 730 
Q 2766 1069 2766 1631 
L 2766 1759 
L 2194 1759 
z
M 3341 1997 
L 3341 0 
L 2766 0 
L 2766 531 
Q 2569 213 2275 61 
Q 1981 -91 1556 -91 
Q 1019 -91 701 211 
Q 384 513 384 1019 
Q 384 1609 779 1909 
Q 1175 2209 1959 2209 
L 2766 2209 
L 2766 2266 
Q 2766 2663 2505 2880 
Q 2244 3097 1772 3097 
Q 1472 3097 1187 3025 
Q 903 2953 641 2809 
L 641 3341 
Q 956 3463 1253 3523 
Q 1550 3584 1831 3584 
Q 2591 3584 2966 3190 
Q 3341 2797 3341 1997 
z
" transform="scale(0.015625)"/>
       <path id="DejaVuSans-62" d="M 3116 1747 
Q 3116 2381 2855 2742 
Q 2594 3103 2138 3103 
Q 1681 3103 1420 2742 
Q 1159 2381 1159 1747 
Q 1159 1113 1420 752 
Q 1681 391 2138 391 
Q 2594 391 2855 752 
Q 3116 1113 3116 1747 
z
M 1159 2969 
Q 1341 3281 1617 3432 
Q 1894 3584 2278 3584 
Q 2916 3584 3314 3078 
Q 3713 2572 3713 1747 
Q 3713 922 3314 415 
Q 2916 -91 2278 -91 
Q 1894 -91 1617 61 
Q 1341 213 1159 525 
L 1159 0 
L 581 0 
L 581 4863 
L 1159 4863 
L 1159 2969 
z
" transform="scale(0.015625)"/>
      </defs>
      <use xlink:href="#DejaVuSans-50"/>
      <use xlink:href="#DejaVuSans-72" x="58.552734"/>
      <use xlink:href="#DejaVuSans-65" x="97.416016"/>
      <use xlink:href="#DejaVuSans-64" x="158.939453"/>
      <use xlink:href="#DejaVuSans-69" x="222.416016"/>
      <use xlink:href="#DejaVuSans-63" x="250.199219"/>
      <use xlink:href="#DejaVuSans-74" x="305.179688"/>
      <use xlink:href="#DejaVuSans-65" x="344.388672"/>
      <use xlink:href="#DejaVuSans-64" x="405.912109"/>
      <use xlink:href="#DejaVuSans-20" x="469.388672"/>
      <use xlink:href="#DejaVuSans-6c" x="501.175781"/>
      <use xlink:href="#DejaVuSans-61" x="528.958984"/>
      <use xlink:href="#DejaVuSans-62" x="590.238281"/>
      <use xlink:href="#DejaVuSans-65" x="653.714844"/>
      <use xlink:href="#DejaVuSans-6c" x="715.238281"/>
     </g>
    </g>
   </g>
   <g id="line2d_12">
    <path d="M 368.391343 510.648438 
L 368.391343 23.898221 
" clip-path="url(#pec4fc6b216)" style="fill: none; stroke: #ff0000; stroke-width: 4; stroke-linecap: square"/>
   </g>
   <g id="patch_3">
    <path d="M 42.495313 510.648438 
L 42.495313 23.898221 
" style="fill: none; stroke: #000000; stroke-width: 0.8; stroke-linejoin: miter; stroke-linecap: square"/>
   </g>
   <g id="patch_4">
    <path d="M 693.296875 510.648438 
L 693.296875 23.898221 
" style="fill: none; stroke: #000000; stroke-width: 0.8; stroke-linejoin: miter; stroke-linecap: square"/>
   </g>
   <g id="patch_5">
    <path d="M 42.495313 510.648438 
L 693.296875 510.648438 
" style="fill: none; stroke: #000000; stroke-width: 0.8; stroke-linejoin: miter; stroke-linecap: square"/>
   </g>
   <g id="patch_6">
    <path d="M 42.495313 23.898221 
L 693.296875 23.898221 
" style="fill: none; stroke: #000000; stroke-width: 0.8; stroke-linejoin: miter; stroke-linecap: square"/>
   </g>
   <g id="text_14">
    <!-- 0 -->
    <g transform="translate(351.626055 457.248314) scale(0.25 -0.25)">
     <use xlink:href="#DejaVuSans-30"/>
    </g>
   </g>
   <g id="text_15">
    <!-- 1 -->
    <g transform="translate(351.626055 371.160842) scale(0.25 -0.25)">
     <use xlink:href="#DejaVuSans-31"/>
    </g>
   </g>
   <g id="text_16">
    <!-- 2 -->
    <g transform="translate(351.626055 303.844323) scale(0.25 -0.25)">
     <use xlink:href="#DejaVuSans-32"/>
    </g>
   </g>
   <g id="text_17">
    <!-- 3 -->
    <g transform="translate(351.626055 266.626055) scale(0.25 -0.25)">
     <defs>
      <path id="DejaVuSans-33" d="M 2597 2516 
Q 3050 2419 3304 2112 
Q 3559 1806 3559 1356 
Q 3559 666 3084 287 
Q 2609 -91 1734 -91 
Q 1441 -91 1130 -33 
Q 819 25 488 141 
L 488 750 
Q 750 597 1062 519 
Q 1375 441 1716 441 
Q 2309 441 2620 675 
Q 2931 909 2931 1356 
Q 2931 1769 2642 2001 
Q 2353 2234 1838 2234 
L 1294 2234 
L 1294 2753 
L 1863 2753 
Q 2328 2753 2575 2939 
Q 2822 3125 2822 3475 
Q 2822 3834 2567 4026 
Q 2313 4219 1838 4219 
Q 1578 4219 1281 4162 
Q 984 4106 628 3988 
L 628 4550 
Q 988 4650 1302 4700 
Q 1616 4750 1894 4750 
Q 2613 4750 3031 4423 
Q 3450 4097 3450 3541 
Q 3450 3153 3228 2886 
Q 3006 2619 2597 2516 
z
" transform="scale(0.015625)"/>
     </defs>
     <use xlink:href="#DejaVuSans-33"/>
    </g>
   </g>
   <g id="text_18">
    <!-- 4 -->
    <g transform="translate(351.626055 238.145989) scale(0.25 -0.25)">
     <use xlink:href="#DejaVuSans-34"/>
    </g>
   </g>
   <g id="text_19">
    <!-- 5 -->
    <g transform="translate(351.626055 147.203961) scale(0.25 -0.25)">
     <defs>
      <path id="DejaVuSans-35" d="M 691 4666 
L 3169 4666 
L 3169 4134 
L 1269 4134 
L 1269 2991 
Q 1406 3038 1543 3061 
Q 1681 3084 1819 3084 
Q 2600 3084 3056 2656 
Q 3513 2228 3513 1497 
Q 3513 744 3044 326 
Q 2575 -91 1722 -91 
Q 1428 -91 1123 -41 
Q 819 9 494 109 
L 494 744 
Q 775 591 1075 516 
Q 1375 441 1709 441 
Q 2250 441 2565 725 
Q 2881 1009 2881 1497 
Q 2881 1984 2565 2268 
Q 2250 2553 1709 2553 
Q 1456 2553 1204 2497 
Q 953 2441 691 2322 
L 691 4666 
z
" transform="scale(0.015625)"/>
     </defs>
     <use xlink:href="#DejaVuSans-35"/>
    </g>
   </g>
   <g id="text_20">
    <!-- 6 -->
    <g transform="translate(351.626055 53.025561) scale(0.25 -0.25)">
     <use xlink:href="#DejaVuSans-36"/>
    </g>
   </g>
   <g id="text_21">
    <!-- 0.0015 -->
    <g style="fill: #ff0000" transform="translate(384.661382 30.370964) scale(0.25 -0.25)">
     <use xlink:href="#DejaVuSans-30"/>
     <use xlink:href="#DejaVuSans-2e" x="63.623047"/>
     <use xlink:href="#DejaVuSans-30" x="95.410156"/>
     <use xlink:href="#DejaVuSans-30" x="159.033203"/>
     <use xlink:href="#DejaVuSans-31" x="222.65625"/>
     <use xlink:href="#DejaVuSans-35" x="286.279297"/>
    </g>
   </g>
  </g>
 </g>
 <defs>
  <clipPath id="pec4fc6b216">
   <rect x="42.495313" y="23.898221" width="650.801562" height="486.750216"/>
  </clipPath>
 </defs>
</svg>
