<?xml version="1.0" encoding="utf-8" standalone="no"?>
<!DOCTYPE svg PUBLIC "-//W3C//DTD SVG 1.1//EN"
  "http://www.w3.org/Graphics/SVG/1.1/DTD/svg11.dtd">
<svg xmlns:xlink="http://www.w3.org/1999/xlink" width="720pt" height="720pt" viewBox="0 0 720 720" xmlns="http://www.w3.org/2000/svg" version="1.1">
 <metadata>
  <rdf:RDF xmlns:dc="http://purl.org/dc/elements/1.1/" xmlns:cc="http://creativecommons.org/ns#" xmlns:rdf="http://www.w3.org/1999/02/22-rdf-syntax-ns#">
   <cc:Work>
    <dc:type rdf:resource="http://purl.org/dc/dcmitype/StillImage"/>
    <dc:date>2022-11-17T19:06:49.921991</dc:date>
    <dc:format>image/svg+xml</dc:format>
    <dc:creator>
     <cc:Agent>
      <dc:title>Matplotlib v3.6.1, https://matplotlib.org/</dc:title>
     </cc:Agent>
    </dc:creator>
   </cc:Work>
  </rdf:RDF>
 </metadata>
 <defs>
  <style type="text/css">*{stroke-linejoin: round; stroke-linecap: butt}</style>
 </defs>
 <g id="figure_1">
  <g id="patch_1">
   <path d="M 0 720 
L 720 720 
L 720 0 
L 0 0 
z
" style="fill: #ffffff"/>
  </g>
  <g id="axes_1">
   <g id="patch_2">
    <path d="M 27.978125 678.84375 
L 701.248437 678.84375 
L 701.248437 11.026097 
L 27.978125 11.026097 
z
" style="fill: #ffffff"/>
   </g>
   <g id="PolyCollection_1">
    <defs>
     <path id="madbfdc5de5" d="M 364.325817 -50.036804 
L 364.613281 -50.036804 
L 364.613281 -50.924859 
L 364.613281 -51.812915 
L 364.613281 -52.70097 
L 364.613281 -53.589025 
L 364.613281 -54.477081 
L 364.613281 -55.365136 
L 364.613281 -56.253192 
L 364.613281 -57.141247 
L 364.613281 -58.029302 
L 364.613281 -58.917358 
L 364.613281 -59.805413 
L 364.613281 -60.693469 
L 364.613281 -61.581524 
L 364.613281 -62.469579 
L 364.613281 -63.357635 
L 364.613281 -64.24569 
L 364.613281 -65.133746 
L 364.613281 -66.021801 
L 364.613281 -66.909856 
L 364.613281 -67.797912 
L 364.613281 -68.685967 
L 364.613281 -69.574022 
L 364.613281 -70.462078 
L 364.613281 -71.350133 
L 364.613281 -72.238189 
L 364.613281 -73.126244 
L 364.613281 -74.014299 
L 364.613281 -74.902355 
L 364.613281 -75.79041 
L 364.613281 -76.678466 
L 364.613281 -77.566521 
L 364.613281 -78.454576 
L 364.613281 -79.342632 
L 364.613281 -80.230687 
L 364.613281 -81.118743 
L 364.613281 -82.006798 
L 364.613281 -82.894853 
L 364.613281 -83.782909 
L 364.613281 -84.670964 
L 364.613281 -85.559019 
L 364.613281 -86.447075 
L 364.613281 -87.33513 
L 364.613281 -88.223186 
L 364.613281 -89.111241 
L 364.613281 -89.999296 
L 364.613281 -90.887352 
L 364.613281 -91.775407 
L 364.613281 -92.663463 
L 364.613281 -93.551518 
L 364.613281 -94.439573 
L 364.613281 -95.327629 
L 364.613281 -96.215684 
L 364.613281 -97.10374 
L 364.613281 -97.991795 
L 364.613281 -98.87985 
L 364.613281 -99.767906 
L 364.613281 -100.655961 
L 364.613281 -101.544016 
L 364.613281 -102.432072 
L 364.613281 -103.320127 
L 364.613281 -104.208183 
L 364.613281 -105.096238 
L 364.613281 -105.984293 
L 364.613281 -106.872349 
L 364.613281 -107.760404 
L 364.613281 -108.64846 
L 364.613281 -109.536515 
L 364.613281 -110.42457 
L 364.613281 -111.312626 
L 364.613281 -112.200681 
L 364.613281 -113.088737 
L 364.613281 -113.976792 
L 364.613281 -114.864847 
L 364.613281 -115.752903 
L 364.613281 -116.640958 
L 364.613281 -117.529013 
L 364.613281 -118.417069 
L 364.613281 -119.305124 
L 364.613281 -120.19318 
L 364.613281 -121.081235 
L 364.613281 -121.96929 
L 364.613281 -122.857346 
L 364.613281 -123.745401 
L 364.613281 -124.633457 
L 364.613281 -125.521512 
L 364.613281 -126.409567 
L 364.613281 -127.297623 
L 364.613281 -128.185678 
L 364.613281 -129.073734 
L 364.613281 -129.961789 
L 364.613281 -130.849844 
L 364.613281 -131.7379 
L 364.613281 -132.625955 
L 364.613281 -133.514011 
L 364.613281 -134.402066 
L 364.613281 -135.290121 
L 364.613281 -136.178177 
L 364.613281 -137.066232 
L 364.613281 -137.954287 
L 364.613281 -138.842343 
L 364.613281 -139.730398 
L 364.613281 -140.618454 
L 364.613281 -141.506509 
L 364.613281 -142.394564 
L 364.613281 -143.28262 
L 364.613281 -144.170675 
L 364.613281 -145.058731 
L 364.613281 -145.946786 
L 364.613281 -146.834841 
L 364.613281 -147.722897 
L 364.613281 -148.610952 
L 364.613281 -149.499008 
L 364.613281 -150.387063 
L 364.613281 -151.275118 
L 364.613281 -152.163174 
L 364.613281 -153.051229 
L 364.613281 -153.939284 
L 364.613281 -154.82734 
L 364.613281 -155.715395 
L 364.613281 -156.603451 
L 364.613281 -157.491506 
L 364.613281 -158.379561 
L 364.613281 -159.267617 
L 364.613281 -160.155672 
L 364.613281 -161.043728 
L 364.613281 -161.931783 
L 364.613281 -162.819838 
L 364.613281 -163.707894 
L 364.613281 -164.595949 
L 364.613281 -165.484005 
L 364.613281 -166.37206 
L 364.613281 -167.260115 
L 364.613281 -168.148171 
L 364.613281 -169.036226 
L 364.613281 -169.924281 
L 364.613281 -170.812337 
L 364.613281 -171.700392 
L 364.613281 -172.588448 
L 364.613281 -173.476503 
L 364.613281 -174.364558 
L 364.613281 -175.252614 
L 364.613281 -176.140669 
L 364.613281 -177.028725 
L 364.613281 -177.91678 
L 364.662106 -177.91678 
L 364.662106 -177.91678 
L 364.658833 -177.028725 
L 364.658539 -176.140669 
L 364.65829 -175.252614 
L 364.657879 -174.364558 
L 364.657742 -173.476503 
L 364.657111 -172.588448 
L 364.65704 -171.700392 
L 364.657024 -170.812337 
L 364.656722 -169.924281 
L 364.656637 -169.036226 
L 364.656566 -168.148171 
L 364.655892 -167.260115 
L 364.654901 -166.37206 
L 364.654678 -165.484005 
L 364.654662 -164.595949 
L 364.654614 -163.707894 
L 364.654009 -162.819838 
L 364.653571 -161.931783 
L 364.653285 -161.043728 
L 364.652871 -160.155672 
L 364.652197 -159.267617 
L 364.652197 -158.379561 
L 364.652112 -157.491506 
L 364.651761 -156.603451 
L 364.65175 -155.715395 
L 364.650943 -154.82734 
L 364.650644 -153.939284 
L 364.65028 -153.051229 
L 364.64996 -152.163174 
L 364.649489 -151.275118 
L 364.649202 -150.387063 
L 364.648488 -149.499008 
L 364.648472 -148.610952 
L 364.648354 -147.722897 
L 364.648014 -146.834841 
L 364.644887 -145.946786 
L 364.639509 -145.058731 
L 364.638847 -144.170675 
L 364.637427 -143.28262 
L 364.635174 -142.394564 
L 364.631187 -141.506509 
L 364.631126 -140.618454 
L 364.629456 -139.730398 
L 364.62892 -138.842343 
L 364.628753 -137.954287 
L 364.628723 -137.066232 
L 364.62861 -136.178177 
L 364.628502 -135.290121 
L 364.627665 -134.402066 
L 364.627505 -133.514011 
L 364.626965 -132.625955 
L 364.626865 -131.7379 
L 364.626749 -130.849844 
L 364.625176 -129.961789 
L 364.625035 -129.073734 
L 364.62473 -128.185678 
L 364.624355 -127.297623 
L 364.624152 -126.409567 
L 364.624046 -125.521512 
L 364.62404 -124.633457 
L 364.623525 -123.745401 
L 364.623491 -122.857346 
L 364.623005 -121.96929 
L 364.622858 -121.081235 
L 364.622621 -120.19318 
L 364.622355 -119.305124 
L 364.621672 -118.417069 
L 364.621564 -117.529013 
L 364.620889 -116.640958 
L 364.620833 -115.752903 
L 364.620833 -114.864847 
L 364.62071 -113.976792 
L 364.620679 -113.088737 
L 364.620566 -112.200681 
L 364.61674 -111.312626 
L 364.616298 -110.42457 
L 364.616093 -109.536515 
L 364.613719 -108.64846 
L 364.612207 -107.760404 
L 364.611786 -106.872349 
L 364.605984 -105.984293 
L 364.604357 -105.096238 
L 364.602776 -104.208183 
L 364.598368 -103.320127 
L 364.597221 -102.432072 
L 364.58711 -101.544016 
L 364.578661 -100.655961 
L 364.576793 -99.767906 
L 364.576612 -98.87985 
L 364.572044 -97.991795 
L 364.570836 -97.10374 
L 364.570059 -96.215684 
L 364.569692 -95.327629 
L 364.56774 -94.439573 
L 364.565223 -93.551518 
L 364.565076 -92.663463 
L 364.562248 -91.775407 
L 364.560187 -90.887352 
L 364.557022 -89.999296 
L 364.556915 -89.111241 
L 364.553858 -88.223186 
L 364.552608 -87.33513 
L 364.548257 -86.447075 
L 364.546229 -85.559019 
L 364.543803 -84.670964 
L 364.542706 -83.782909 
L 364.539642 -82.894853 
L 364.527556 -82.006798 
L 364.526882 -81.118743 
L 364.524194 -80.230687 
L 364.522037 -79.342632 
L 364.515876 -78.454576 
L 364.513823 -77.566521 
L 364.513564 -76.678466 
L 364.512088 -75.79041 
L 364.511511 -74.902355 
L 364.511279 -74.014299 
L 364.510905 -73.126244 
L 364.510504 -72.238189 
L 364.509899 -71.350133 
L 364.509319 -70.462078 
L 364.504792 -69.574022 
L 364.502901 -68.685967 
L 364.5022 -67.797912 
L 364.501981 -66.909856 
L 364.500051 -66.021801 
L 364.498973 -65.133746 
L 364.493224 -64.24569 
L 364.492749 -63.357635 
L 364.46876 -62.469579 
L 364.467529 -61.581524 
L 364.464836 -60.693469 
L 364.461853 -59.805413 
L 364.461789 -58.917358 
L 364.438151 -58.029302 
L 364.437602 -57.141247 
L 364.424021 -56.253192 
L 364.422093 -55.365136 
L 364.412729 -54.477081 
L 364.404383 -53.589025 
L 364.372346 -52.70097 
L 364.367789 -51.812915 
L 364.340044 -50.924859 
L 364.325817 -50.036804 
z
" style="stroke: #000000; stroke-opacity: 0.7"/>
    </defs>
    <g clip-path="url(#peb7d4f00d8)">
     <use xlink:href="#madbfdc5de5" x="0" y="720" style="fill-opacity: 0.7; stroke: #000000; stroke-opacity: 0.7"/>
    </g>
   </g>
   <g id="PolyCollection_2">
    <defs>
     <path id="m9ea5e960a0" d="M 364.718497 -187.685389 
L 364.613281 -187.685389 
L 364.613281 -188.573445 
L 364.613281 -189.4615 
L 364.613281 -190.349555 
L 364.613281 -191.237611 
L 364.613281 -192.125666 
L 364.613281 -193.013722 
L 364.613281 -193.901777 
L 364.613281 -194.789832 
L 364.613281 -195.677888 
L 364.613281 -196.565943 
L 364.613281 -197.453999 
L 364.613281 -198.342054 
L 364.613281 -199.230109 
L 364.613281 -200.118165 
L 364.613281 -201.00622 
L 364.613281 -201.894276 
L 364.613281 -202.782331 
L 364.613281 -203.670386 
L 364.613281 -204.558442 
L 364.613281 -205.446497 
L 364.613281 -206.334552 
L 364.613281 -207.222608 
L 364.613281 -208.110663 
L 364.613281 -208.998719 
L 364.613281 -209.886774 
L 364.613281 -210.774829 
L 364.613281 -211.662885 
L 364.613281 -212.55094 
L 364.613281 -213.438996 
L 364.613281 -214.327051 
L 364.613281 -215.215106 
L 364.613281 -216.103162 
L 364.613281 -216.991217 
L 364.613281 -217.879273 
L 364.613281 -218.767328 
L 364.613281 -219.655383 
L 364.613281 -220.543439 
L 364.613281 -221.431494 
L 364.613281 -222.319549 
L 364.613281 -223.207605 
L 364.613281 -224.09566 
L 364.613281 -224.983716 
L 364.613281 -225.871771 
L 364.613281 -226.759826 
L 364.613281 -227.647882 
L 364.613281 -228.535937 
L 364.613281 -229.423993 
L 364.613281 -230.312048 
L 364.613281 -231.200103 
L 364.613281 -232.088159 
L 364.613281 -232.976214 
L 364.613281 -233.86427 
L 364.613281 -234.752325 
L 364.613281 -235.64038 
L 364.613281 -236.528436 
L 364.613281 -237.416491 
L 364.613281 -238.304546 
L 364.613281 -239.192602 
L 364.613281 -240.080657 
L 364.613281 -240.968713 
L 364.613281 -241.856768 
L 364.613281 -242.744823 
L 364.613281 -243.632879 
L 364.613281 -244.520934 
L 364.613281 -245.40899 
L 364.613281 -246.297045 
L 364.613281 -247.1851 
L 364.613281 -248.073156 
L 364.613281 -248.961211 
L 364.613281 -249.849267 
L 364.613281 -250.737322 
L 364.613281 -251.625377 
L 364.613281 -252.513433 
L 364.613281 -253.401488 
L 364.613281 -254.289543 
L 364.613281 -255.177599 
L 364.613281 -256.065654 
L 364.613281 -256.95371 
L 364.613281 -257.841765 
L 364.613281 -258.72982 
L 364.613281 -259.617876 
L 364.613281 -260.505931 
L 364.613281 -261.393987 
L 364.613281 -262.282042 
L 364.613281 -263.170097 
L 364.613281 -264.058153 
L 364.613281 -264.946208 
L 364.613281 -265.834264 
L 364.613281 -266.722319 
L 364.613281 -267.610374 
L 364.613281 -268.49843 
L 364.613281 -269.386485 
L 364.613281 -270.27454 
L 364.613281 -271.162596 
L 364.613281 -272.050651 
L 364.613281 -272.938707 
L 364.613281 -273.826762 
L 364.613281 -274.714817 
L 364.613281 -275.602873 
L 364.613281 -276.490928 
L 364.942914 -276.490928 
L 364.942914 -276.490928 
L 364.929648 -275.602873 
L 364.929571 -274.714817 
L 364.926773 -273.826762 
L 364.92581 -272.938707 
L 364.913992 -272.050651 
L 364.912634 -271.162596 
L 364.911659 -270.27454 
L 364.91052 -269.386485 
L 364.905498 -268.49843 
L 364.904636 -267.610374 
L 364.904336 -266.722319 
L 364.903873 -265.834264 
L 364.903024 -264.946208 
L 364.902909 -264.058153 
L 364.900598 -263.170097 
L 364.899736 -262.282042 
L 364.899341 -261.393987 
L 364.898667 -260.505931 
L 364.898185 -259.617876 
L 364.897036 -258.72982 
L 364.895993 -257.841765 
L 364.893423 -256.95371 
L 364.893052 -256.065654 
L 364.892457 -255.177599 
L 364.891565 -254.289543 
L 364.890702 -253.401488 
L 364.888962 -252.513433 
L 364.886577 -251.625377 
L 364.883543 -250.737322 
L 364.883199 -249.849267 
L 364.881412 -248.961211 
L 364.880333 -248.073156 
L 364.877568 -247.1851 
L 364.877408 -246.297045 
L 364.877291 -245.40899 
L 364.873679 -244.520934 
L 364.873172 -243.632879 
L 364.872653 -242.744823 
L 364.871575 -241.856768 
L 364.870223 -240.968713 
L 364.866958 -240.080657 
L 364.866894 -239.192602 
L 364.866192 -238.304546 
L 364.86583 -237.416491 
L 364.86367 -236.528436 
L 364.863288 -235.64038 
L 364.861359 -234.752325 
L 364.860983 -233.86427 
L 364.860381 -232.976214 
L 364.858835 -232.088159 
L 364.857893 -231.200103 
L 364.857181 -230.312048 
L 364.856847 -229.423993 
L 364.855715 -228.535937 
L 364.854599 -227.647882 
L 364.854048 -226.759826 
L 364.853605 -225.871771 
L 364.853461 -224.983716 
L 364.852815 -224.09566 
L 364.851584 -223.207605 
L 364.850874 -222.319549 
L 364.85044 -221.431494 
L 364.847663 -220.543439 
L 364.846903 -219.655383 
L 364.845257 -218.767328 
L 364.841592 -217.879273 
L 364.840447 -216.991217 
L 364.840396 -216.103162 
L 364.838942 -215.215106 
L 364.838191 -214.327051 
L 364.836574 -213.438996 
L 364.833586 -212.55094 
L 364.833103 -211.662885 
L 364.830602 -210.774829 
L 364.828488 -209.886774 
L 364.823865 -208.998719 
L 364.812246 -208.110663 
L 364.811906 -207.222608 
L 364.811219 -206.334552 
L 364.80912 -205.446497 
L 364.808329 -204.558442 
L 364.808069 -203.670386 
L 364.799579 -202.782331 
L 364.796875 -201.894276 
L 364.791521 -201.00622 
L 364.788555 -200.118165 
L 364.787759 -199.230109 
L 364.787228 -198.342054 
L 364.78335 -197.453999 
L 364.782141 -196.565943 
L 364.76681 -195.677888 
L 364.763409 -194.789832 
L 364.7617 -193.901777 
L 364.756814 -193.013722 
L 364.750919 -192.125666 
L 364.74945 -191.237611 
L 364.74733 -190.349555 
L 364.747044 -189.4615 
L 364.734981 -188.573445 
L 364.718497 -187.685389 
z
" style="stroke: #1800a7; stroke-opacity: 0.7"/>
    </defs>
    <g clip-path="url(#peb7d4f00d8)">
     <use xlink:href="#m9ea5e960a0" x="0" y="720" style="fill: #1800a7; fill-opacity: 0.7; stroke: #1800a7; stroke-opacity: 0.7"/>
    </g>
   </g>
   <g id="PolyCollection_3">
    <defs>
     <path id="md6aef3cab7" d="M 364.678157 -286.259538 
L 364.613281 -286.259538 
L 364.613281 -287.147593 
L 364.613281 -288.035648 
L 364.613281 -288.923704 
L 364.613281 -289.811759 
L 364.613281 -290.699814 
L 364.613281 -291.58787 
L 364.613281 -292.475925 
L 364.613281 -293.363981 
L 364.613281 -294.252036 
L 364.613281 -295.140091 
L 364.613281 -296.028147 
L 364.613281 -296.916202 
L 364.613281 -297.804258 
L 364.613281 -298.692313 
L 364.613281 -299.580368 
L 364.613281 -300.468424 
L 364.613281 -301.356479 
L 364.613281 -302.244535 
L 364.613281 -303.13259 
L 364.613281 -304.020645 
L 364.613281 -304.908701 
L 364.613281 -305.796756 
L 364.613281 -306.684811 
L 364.613281 -307.572867 
L 364.613281 -308.460922 
L 364.613281 -309.348978 
L 364.613281 -310.237033 
L 364.613281 -311.125088 
L 364.613281 -312.013144 
L 364.613281 -312.901199 
L 364.613281 -313.789255 
L 364.613281 -314.67731 
L 364.613281 -315.565365 
L 364.613281 -316.453421 
L 364.613281 -317.341476 
L 364.613281 -318.229532 
L 364.613281 -319.117587 
L 364.613281 -320.005642 
L 364.613281 -320.893698 
L 364.613281 -321.781753 
L 364.613281 -322.669808 
L 364.613281 -323.557864 
L 364.613281 -324.445919 
L 364.613281 -325.333975 
L 364.613281 -326.22203 
L 364.613281 -327.110085 
L 364.613281 -327.998141 
L 364.613281 -328.886196 
L 364.613281 -329.774252 
L 364.613281 -330.662307 
L 364.613281 -331.550362 
L 364.613281 -332.438418 
L 364.613281 -333.326473 
L 364.613281 -334.214529 
L 364.613281 -335.102584 
L 364.613281 -335.990639 
L 364.613281 -336.878695 
L 364.613281 -337.76675 
L 364.613281 -338.654805 
L 364.613281 -339.542861 
L 364.613281 -340.430916 
L 364.613281 -341.318972 
L 364.613281 -342.207027 
L 364.613281 -343.095082 
L 364.613281 -343.983138 
L 364.613281 -344.871193 
L 364.613281 -345.759249 
L 364.613281 -346.647304 
L 364.613281 -347.535359 
L 364.613281 -348.423415 
L 364.613281 -349.31147 
L 364.613281 -350.199526 
L 364.613281 -351.087581 
L 364.613281 -351.975636 
L 364.613281 -352.863692 
L 364.613281 -353.751747 
L 364.613281 -354.639803 
L 364.613281 -355.527858 
L 364.613281 -356.415913 
L 364.613281 -357.303969 
L 364.613281 -358.192024 
L 364.613281 -359.080079 
L 364.613281 -359.968135 
L 364.613281 -360.85619 
L 364.613281 -361.744246 
L 364.613281 -362.632301 
L 364.953064 -362.632301 
L 364.953064 -362.632301 
L 364.94368 -361.744246 
L 364.938766 -360.85619 
L 364.936423 -359.968135 
L 364.928933 -359.080079 
L 364.92799 -358.192024 
L 364.92336 -357.303969 
L 364.91456 -356.415913 
L 364.913604 -355.527858 
L 364.912365 -354.639803 
L 364.911326 -353.751747 
L 364.90964 -352.863692 
L 364.906583 -351.975636 
L 364.905462 -351.087581 
L 364.905095 -350.199526 
L 364.902977 -349.31147 
L 364.90235 -348.423415 
L 364.901346 -347.535359 
L 364.900309 -346.647304 
L 364.900078 -345.759249 
L 364.899336 -344.871193 
L 364.893488 -343.983138 
L 364.893349 -343.095082 
L 364.891571 -342.207027 
L 364.890208 -341.318972 
L 364.889421 -340.430916 
L 364.888768 -339.542861 
L 364.887672 -338.654805 
L 364.88742 -337.76675 
L 364.886615 -336.878695 
L 364.886348 -335.990639 
L 364.885704 -335.102584 
L 364.884137 -334.214529 
L 364.882298 -333.326473 
L 364.879176 -332.438418 
L 364.876914 -331.550362 
L 364.875406 -330.662307 
L 364.875089 -329.774252 
L 364.874706 -328.886196 
L 364.874622 -327.998141 
L 364.872163 -327.110085 
L 364.870449 -326.22203 
L 364.86993 -325.333975 
L 364.868341 -324.445919 
L 364.866736 -323.557864 
L 364.865103 -322.669808 
L 364.864972 -321.781753 
L 364.864576 -320.893698 
L 364.863852 -320.005642 
L 364.862858 -319.117587 
L 364.862054 -318.229532 
L 364.8595 -317.341476 
L 364.857036 -316.453421 
L 364.856997 -315.565365 
L 364.855811 -314.67731 
L 364.85248 -313.789255 
L 364.850173 -312.901199 
L 364.847056 -312.013144 
L 364.842672 -311.125088 
L 364.842004 -310.237033 
L 364.841829 -309.348978 
L 364.841641 -308.460922 
L 364.840511 -307.572867 
L 364.837476 -306.684811 
L 364.83551 -305.796756 
L 364.833588 -304.908701 
L 364.833477 -304.020645 
L 364.830159 -303.13259 
L 364.826335 -302.244535 
L 364.825335 -301.356479 
L 364.825026 -300.468424 
L 364.821623 -299.580368 
L 364.819664 -298.692313 
L 364.810453 -297.804258 
L 364.805583 -296.916202 
L 364.804273 -296.028147 
L 364.802079 -295.140091 
L 364.796256 -294.252036 
L 364.794696 -293.363981 
L 364.794292 -292.475925 
L 364.791894 -291.58787 
L 364.776075 -290.699814 
L 364.769715 -289.811759 
L 364.755459 -288.923704 
L 364.752637 -288.035648 
L 364.74302 -287.147593 
L 364.678157 -286.259538 
z
" style="stroke: #0090dd; stroke-opacity: 0.7"/>
    </defs>
    <g clip-path="url(#peb7d4f00d8)">
     <use xlink:href="#md6aef3cab7" x="0" y="720" style="fill: #0090dd; fill-opacity: 0.7; stroke: #0090dd; stroke-opacity: 0.7"/>
    </g>
   </g>
   <g id="PolyCollection_4">
    <defs>
     <path id="m402bfa71f7" d="M 364.896455 -372.40091 
L 364.613281 -372.40091 
L 364.613281 -373.288966 
L 364.613281 -374.177021 
L 364.613281 -375.065076 
L 364.613281 -375.953132 
L 364.613281 -376.841187 
L 364.613281 -377.729243 
L 364.613281 -378.617298 
L 364.988234 -378.617298 
L 364.988234 -378.617298 
L 364.983613 -377.729243 
L 364.971111 -376.841187 
L 364.96476 -375.953132 
L 364.963738 -375.065076 
L 364.958537 -374.177021 
L 364.932071 -373.288966 
L 364.896455 -372.40091 
z
" style="stroke: #00a13d; stroke-opacity: 0.7"/>
    </defs>
    <g clip-path="url(#peb7d4f00d8)">
     <use xlink:href="#m402bfa71f7" x="0" y="720" style="fill: #00a13d; fill-opacity: 0.7; stroke: #00a13d; stroke-opacity: 0.7"/>
    </g>
   </g>
   <g id="PolyCollection_5">
    <defs>
     <path id="m1809e92b18" d="M 364.713201 -388.385907 
L 364.613281 -388.385907 
L 364.613281 -389.273963 
L 364.613281 -390.162018 
L 364.613281 -391.050073 
L 364.613281 -391.938129 
L 364.613281 -392.826184 
L 364.613281 -393.71424 
L 364.613281 -394.602295 
L 364.613281 -395.49035 
L 364.613281 -396.378406 
L 364.613281 -397.266461 
L 364.613281 -398.154517 
L 364.613281 -399.042572 
L 364.613281 -399.930627 
L 364.613281 -400.818683 
L 364.613281 -401.706738 
L 364.613281 -402.594794 
L 364.613281 -403.482849 
L 364.613281 -404.370904 
L 364.613281 -405.25896 
L 364.613281 -406.147015 
L 364.613281 -407.03507 
L 364.613281 -407.923126 
L 364.613281 -408.811181 
L 364.613281 -409.699237 
L 364.613281 -410.587292 
L 364.613281 -411.475347 
L 364.613281 -412.363403 
L 364.613281 -413.251458 
L 364.613281 -414.139514 
L 364.613281 -415.027569 
L 364.613281 -415.915624 
L 364.613281 -416.80368 
L 364.613281 -417.691735 
L 364.613281 -418.579791 
L 364.613281 -419.467846 
L 364.613281 -420.355901 
L 364.613281 -421.243957 
L 364.613281 -422.132012 
L 364.613281 -423.020067 
L 364.613281 -423.908123 
L 364.613281 -424.796178 
L 364.613281 -425.684234 
L 364.613281 -426.572289 
L 364.613281 -427.460344 
L 364.613281 -428.3484 
L 364.613281 -429.236455 
L 364.613281 -430.124511 
L 364.613281 -431.012566 
L 364.613281 -431.900621 
L 364.613281 -432.788677 
L 364.613281 -433.676732 
L 364.613281 -434.564788 
L 364.613281 -435.452843 
L 364.613281 -436.340898 
L 364.613281 -437.228954 
L 364.613281 -438.117009 
L 364.613281 -439.005065 
L 364.613281 -439.89312 
L 364.613281 -440.781175 
L 364.844879 -440.781175 
L 364.844879 -440.781175 
L 364.833364 -439.89312 
L 364.830301 -439.005065 
L 364.8299 -438.117009 
L 364.822778 -437.228954 
L 364.822159 -436.340898 
L 364.821885 -435.452843 
L 364.819065 -434.564788 
L 364.818744 -433.676732 
L 364.818147 -432.788677 
L 364.817998 -431.900621 
L 364.81627 -431.012566 
L 364.813974 -430.124511 
L 364.813664 -429.236455 
L 364.813182 -428.3484 
L 364.813182 -427.460344 
L 364.811092 -426.572289 
L 364.811092 -425.684234 
L 364.811025 -424.796178 
L 364.809219 -423.908123 
L 364.809038 -423.020067 
L 364.809029 -422.132012 
L 364.808412 -421.243957 
L 364.807406 -420.355901 
L 364.807018 -419.467846 
L 364.804687 -418.579791 
L 364.802332 -417.691735 
L 364.800826 -416.80368 
L 364.7994 -415.915624 
L 364.7994 -415.027569 
L 364.799093 -414.139514 
L 364.798771 -413.251458 
L 364.798624 -412.363403 
L 364.796705 -411.475347 
L 364.795306 -410.587292 
L 364.79378 -409.699237 
L 364.791833 -408.811181 
L 364.791349 -407.923126 
L 364.791342 -407.03507 
L 364.790071 -406.147015 
L 364.788103 -405.25896 
L 364.786374 -404.370904 
L 364.785864 -403.482849 
L 364.783114 -402.594794 
L 364.78188 -401.706738 
L 364.779963 -400.818683 
L 364.777716 -399.930627 
L 364.777508 -399.042572 
L 364.775195 -398.154517 
L 364.775049 -397.266461 
L 364.774812 -396.378406 
L 364.772534 -395.49035 
L 364.771681 -394.602295 
L 364.769944 -393.71424 
L 364.768171 -392.826184 
L 364.766498 -391.938129 
L 364.761912 -391.050073 
L 364.756834 -390.162018 
L 364.755718 -389.273963 
L 364.713201 -388.385907 
z
" style="stroke: #00ec00; stroke-opacity: 0.7"/>
    </defs>
    <g clip-path="url(#peb7d4f00d8)">
     <use xlink:href="#m1809e92b18" x="0" y="720" style="fill: #00ec00; fill-opacity: 0.7; stroke: #00ec00; stroke-opacity: 0.7"/>
    </g>
   </g>
   <g id="PolyCollection_6">
    <defs>
     <path id="m2559d276c3" d="M 365.581109 -450.549785 
L 364.613281 -450.549785 
L 364.613281 -451.43784 
L 364.613281 -452.325895 
L 364.613281 -453.213951 
L 364.613281 -454.102006 
L 364.613281 -454.990062 
L 364.613281 -455.878117 
L 364.613281 -456.766172 
L 364.613281 -457.654228 
L 364.613281 -458.542283 
L 364.613281 -459.430338 
L 364.613281 -460.318394 
L 364.613281 -461.206449 
L 364.613281 -462.094505 
L 364.613281 -462.98256 
L 364.613281 -463.870615 
L 364.613281 -464.758671 
L 364.613281 -465.646726 
L 364.613281 -466.534782 
L 364.613281 -467.422837 
L 364.613281 -468.310892 
L 364.613281 -469.198948 
L 364.613281 -470.087003 
L 364.613281 -470.975059 
L 364.613281 -471.863114 
L 364.613281 -472.751169 
L 364.613281 -473.639225 
L 364.613281 -474.52728 
L 364.613281 -475.415335 
L 364.613281 -476.303391 
L 364.613281 -477.191446 
L 364.613281 -478.079502 
L 364.613281 -478.967557 
L 364.613281 -479.855612 
L 364.613281 -480.743668 
L 364.613281 -481.631723 
L 364.613281 -482.519779 
L 364.613281 -483.407834 
L 364.613281 -484.295889 
L 364.613281 -485.183945 
L 364.613281 -486.072 
L 364.613281 -486.960056 
L 364.613281 -487.848111 
L 364.613281 -488.736166 
L 364.613281 -489.624222 
L 364.613281 -490.512277 
L 364.613281 -491.400332 
L 364.613281 -492.288388 
L 364.613281 -493.176443 
L 364.613281 -494.064499 
L 364.613281 -494.952554 
L 364.613281 -495.840609 
L 364.613281 -496.728665 
L 364.613281 -497.61672 
L 364.613281 -498.504776 
L 364.613281 -499.392831 
L 364.613281 -500.280886 
L 364.613281 -501.168942 
L 364.613281 -502.056997 
L 364.613281 -502.945053 
L 364.613281 -503.833108 
L 364.613281 -504.721163 
L 364.613281 -505.609219 
L 364.613281 -506.497274 
L 364.613281 -507.38533 
L 364.613281 -508.273385 
L 364.613281 -509.16144 
L 364.613281 -510.049496 
L 364.613281 -510.937551 
L 364.613281 -511.825606 
L 364.613281 -512.713662 
L 364.613281 -513.601717 
L 364.613281 -514.489773 
L 364.613281 -515.377828 
L 364.613281 -516.265883 
L 364.613281 -517.153939 
L 364.613281 -518.041994 
L 364.613281 -518.93005 
L 364.613281 -519.818105 
L 364.613281 -520.70616 
L 364.613281 -521.594216 
L 364.613281 -522.482271 
L 364.613281 -523.370327 
L 364.613281 -524.258382 
L 364.613281 -525.146437 
L 364.613281 -526.034493 
L 364.613281 -526.922548 
L 364.613281 -527.810603 
L 364.613281 -528.698659 
L 364.613281 -529.586714 
L 364.613281 -530.47477 
L 364.613281 -531.362825 
L 364.613281 -532.25088 
L 364.613281 -533.138936 
L 364.613281 -534.026991 
L 364.613281 -534.915047 
L 364.613281 -535.803102 
L 364.613281 -536.691157 
L 364.613281 -537.579213 
L 364.613281 -538.467268 
L 364.613281 -539.355324 
L 364.613281 -540.243379 
L 364.613281 -541.131434 
L 364.613281 -542.01949 
L 364.613281 -542.907545 
L 364.613281 -543.7956 
L 364.613281 -544.683656 
L 364.613281 -545.571711 
L 364.613281 -546.459767 
L 364.613281 -547.347822 
L 364.613281 -548.235877 
L 364.613281 -549.123933 
L 364.613281 -550.011988 
L 364.613281 -550.900044 
L 364.613281 -551.788099 
L 364.613281 -552.676154 
L 364.613281 -553.56421 
L 364.613281 -554.452265 
L 364.613281 -555.340321 
L 364.613281 -556.228376 
L 364.613281 -557.116431 
L 364.613281 -558.004487 
L 364.613281 -558.892542 
L 364.613281 -559.780597 
L 364.613281 -560.668653 
L 364.613281 -561.556708 
L 364.613281 -562.444764 
L 364.613281 -563.332819 
L 364.613281 -564.220874 
L 364.613281 -565.10893 
L 364.613281 -565.996985 
L 364.613281 -566.885041 
L 364.613281 -567.773096 
L 364.613281 -568.661151 
L 364.613281 -569.549207 
L 364.613281 -570.437262 
L 364.613281 -571.325318 
L 364.613281 -572.213373 
L 364.613281 -573.101428 
L 364.613281 -573.989484 
L 364.613281 -574.877539 
L 364.613281 -575.765594 
L 364.613281 -576.65365 
L 364.613281 -577.541705 
L 364.613281 -578.429761 
L 364.613281 -579.317816 
L 364.613281 -580.205871 
L 364.613281 -581.093927 
L 364.613281 -581.981982 
L 364.613281 -582.870038 
L 364.613281 -583.758093 
L 364.613281 -584.646148 
L 364.613281 -585.534204 
L 364.613281 -586.422259 
L 364.613281 -587.310315 
L 364.613281 -588.19837 
L 364.613281 -589.086425 
L 364.613281 -589.974481 
L 364.613281 -590.862536 
L 364.613281 -591.750592 
L 364.613281 -592.638647 
L 364.613281 -593.526702 
L 364.613281 -594.414758 
L 364.613281 -595.302813 
L 364.613281 -596.190868 
L 364.613281 -597.078924 
L 364.613281 -597.966979 
L 364.613281 -598.855035 
L 364.613281 -599.74309 
L 364.613281 -600.631145 
L 364.613281 -601.519201 
L 364.613281 -602.407256 
L 364.613281 -603.295312 
L 364.613281 -604.183367 
L 364.613281 -605.071422 
L 364.613281 -605.959478 
L 364.613281 -606.847533 
L 364.613281 -607.735589 
L 364.613281 -608.623644 
L 364.613281 -609.511699 
L 364.613281 -610.399755 
L 364.613281 -611.28781 
L 364.613281 -612.175865 
L 364.613281 -613.063921 
L 364.613281 -613.951976 
L 364.613281 -614.840032 
L 364.613281 -615.728087 
L 364.613281 -616.616142 
L 364.613281 -617.504198 
L 364.613281 -618.392253 
L 364.613281 -619.280309 
L 364.613281 -620.168364 
L 364.613281 -621.056419 
L 364.613281 -621.944475 
L 364.613281 -622.83253 
L 364.613281 -623.720586 
L 364.613281 -624.608641 
L 364.613281 -625.496696 
L 364.613281 -626.384752 
L 364.613281 -627.272807 
L 364.613281 -628.160862 
L 366.250659 -628.160862 
L 366.250659 -628.160862 
L 366.231858 -627.272807 
L 366.226422 -626.384752 
L 366.222016 -625.496696 
L 366.186896 -624.608641 
L 366.17052 -623.720586 
L 366.156859 -622.83253 
L 366.155128 -621.944475 
L 366.15069 -621.056419 
L 366.14958 -620.168364 
L 366.146692 -619.280309 
L 366.144008 -618.392253 
L 366.142303 -617.504198 
L 366.138351 -616.616142 
L 366.136418 -615.728087 
L 366.134959 -614.840032 
L 366.134024 -613.951976 
L 366.132336 -613.063921 
L 366.129737 -612.175865 
L 366.126328 -611.28781 
L 366.117956 -610.399755 
L 366.115014 -609.511699 
L 366.113952 -608.623644 
L 366.113743 -607.735589 
L 366.110737 -606.847533 
L 366.106874 -605.959478 
L 366.106383 -605.071422 
L 366.105719 -604.183367 
L 366.105474 -603.295312 
L 366.102311 -602.407256 
L 366.100064 -601.519201 
L 366.092629 -600.631145 
L 366.09116 -599.74309 
L 366.09086 -598.855035 
L 366.090057 -597.966979 
L 366.089306 -597.078924 
L 366.088847 -596.190868 
L 366.085122 -595.302813 
L 366.081504 -594.414758 
L 366.081196 -593.526702 
L 366.078377 -592.638647 
L 366.076622 -591.750592 
L 366.076155 -590.862536 
L 366.075051 -589.974481 
L 366.071474 -589.086425 
L 366.07021 -588.19837 
L 366.068816 -587.310315 
L 366.068793 -586.422259 
L 366.067108 -585.534204 
L 366.065873 -584.646148 
L 366.065431 -583.758093 
L 366.064509 -582.870038 
L 366.061764 -581.981982 
L 366.060418 -581.093927 
L 366.060267 -580.205871 
L 366.059627 -579.317816 
L 366.058784 -578.429761 
L 366.05852 -577.541705 
L 366.05824 -576.65365 
L 366.054263 -575.765594 
L 366.052919 -574.877539 
L 366.052032 -573.989484 
L 366.048734 -573.101428 
L 366.048631 -572.213373 
L 366.046046 -571.325318 
L 366.045836 -570.437262 
L 366.045514 -569.549207 
L 366.044997 -568.661151 
L 366.043676 -567.773096 
L 366.043172 -566.885041 
L 366.042388 -565.996985 
L 366.041462 -565.10893 
L 366.041423 -564.220874 
L 366.040803 -563.332819 
L 366.040591 -562.444764 
L 366.039831 -561.556708 
L 366.039482 -560.668653 
L 366.039194 -559.780597 
L 366.037779 -558.892542 
L 366.037623 -558.004487 
L 366.036918 -557.116431 
L 366.035534 -556.228376 
L 366.034505 -555.340321 
L 366.033684 -554.452265 
L 366.031805 -553.56421 
L 366.029802 -552.676154 
L 366.029241 -551.788099 
L 366.026897 -550.900044 
L 366.023885 -550.011988 
L 366.022562 -549.123933 
L 366.021479 -548.235877 
L 366.021286 -547.347822 
L 366.020237 -546.459767 
L 366.020172 -545.571711 
L 366.018154 -544.683656 
L 366.017029 -543.7956 
L 366.01495 -542.907545 
L 366.010169 -542.01949 
L 366.008259 -541.131434 
L 366.007149 -540.243379 
L 366.006986 -539.355324 
L 366.006749 -538.467268 
L 366.005669 -537.579213 
L 366.000372 -536.691157 
L 365.999462 -535.803102 
L 365.996758 -534.915047 
L 365.996571 -534.026991 
L 365.996444 -533.138936 
L 365.996129 -532.25088 
L 365.99373 -531.362825 
L 365.992953 -530.47477 
L 365.99232 -529.586714 
L 365.984326 -528.698659 
L 365.982302 -527.810603 
L 365.981332 -526.922548 
L 365.981037 -526.034493 
L 365.980585 -525.146437 
L 365.975503 -524.258382 
L 365.974837 -523.370327 
L 365.973415 -522.482271 
L 365.972717 -521.594216 
L 365.972125 -520.70616 
L 365.97196 -519.818105 
L 365.970073 -518.93005 
L 365.969237 -518.041994 
L 365.963458 -517.153939 
L 365.963138 -516.265883 
L 365.962381 -515.377828 
L 365.954053 -514.489773 
L 365.952748 -513.601717 
L 365.952051 -512.713662 
L 365.946994 -511.825606 
L 365.946721 -510.937551 
L 365.939191 -510.049496 
L 365.937489 -509.16144 
L 365.935955 -508.273385 
L 365.933725 -507.38533 
L 365.933006 -506.497274 
L 365.932347 -505.609219 
L 365.932114 -504.721163 
L 365.928724 -503.833108 
L 365.926548 -502.945053 
L 365.925806 -502.056997 
L 365.92513 -501.168942 
L 365.920827 -500.280886 
L 365.91837 -499.392831 
L 365.917695 -498.504776 
L 365.917291 -497.61672 
L 365.914835 -496.728665 
L 365.911112 -495.840609 
L 365.907907 -494.952554 
L 365.894847 -494.064499 
L 365.891571 -493.176443 
L 365.889991 -492.288388 
L 365.889609 -491.400332 
L 365.887731 -490.512277 
L 365.883154 -489.624222 
L 365.880706 -488.736166 
L 365.876576 -487.848111 
L 365.876483 -486.960056 
L 365.864972 -486.072 
L 365.862422 -485.183945 
L 365.859938 -484.295889 
L 365.854251 -483.407834 
L 365.853923 -482.519779 
L 365.841672 -481.631723 
L 365.840101 -480.743668 
L 365.836505 -479.855612 
L 365.825268 -478.967557 
L 365.819894 -478.079502 
L 365.815578 -477.191446 
L 365.807422 -476.303391 
L 365.805885 -475.415335 
L 365.805561 -474.52728 
L 365.801852 -473.639225 
L 365.801205 -472.751169 
L 365.790567 -471.863114 
L 365.783556 -470.975059 
L 365.782169 -470.087003 
L 365.780159 -469.198948 
L 365.778596 -468.310892 
L 365.773394 -467.422837 
L 365.765263 -466.534782 
L 365.75185 -465.646726 
L 365.750136 -464.758671 
L 365.748761 -463.870615 
L 365.747899 -462.98256 
L 365.747079 -462.094505 
L 365.74451 -461.206449 
L 365.728837 -460.318394 
L 365.692551 -459.430338 
L 365.68466 -458.542283 
L 365.661783 -457.654228 
L 365.659005 -456.766172 
L 365.632951 -455.878117 
L 365.627112 -454.990062 
L 365.622227 -454.102006 
L 365.611526 -453.213951 
L 365.597323 -452.325895 
L 365.593607 -451.43784 
L 365.581109 -450.549785 
z
" style="stroke: #f3e500; stroke-opacity: 0.7"/>
    </defs>
    <g clip-path="url(#peb7d4f00d8)">
     <use xlink:href="#m2559d276c3" x="0" y="720" style="fill: #f3e500; fill-opacity: 0.7; stroke: #f3e500; stroke-opacity: 0.7"/>
    </g>
   </g>
   <g id="PolyCollection_7">
    <defs>
     <path id="mc9b4c452d5" d="M 364.715228 -637.929472 
L 364.613281 -637.929472 
L 364.613281 -638.817527 
L 364.613281 -639.705583 
L 364.613281 -640.593638 
L 364.613281 -641.481693 
L 364.613281 -642.369749 
L 364.613281 -643.257804 
L 364.613281 -644.145859 
L 364.613281 -645.033915 
L 364.613281 -645.92197 
L 364.613281 -646.810026 
L 364.613281 -647.698081 
L 364.613281 -648.586136 
L 364.613281 -649.474192 
L 364.613281 -650.362247 
L 364.613281 -651.250303 
L 364.613281 -652.138358 
L 364.613281 -653.026413 
L 364.613281 -653.914469 
L 364.613281 -654.802524 
L 364.613281 -655.69058 
L 364.613281 -656.578635 
L 364.613281 -657.46669 
L 364.613281 -658.354746 
L 364.613281 -659.242801 
L 364.613281 -660.130857 
L 364.613281 -661.018912 
L 364.613281 -661.906967 
L 364.613281 -662.795023 
L 364.613281 -663.683078 
L 364.613281 -664.571133 
L 364.613281 -665.459189 
L 364.613281 -666.347244 
L 364.613281 -667.2353 
L 364.613281 -668.123355 
L 364.613281 -669.01141 
L 364.613281 -669.899466 
L 364.613281 -670.787521 
L 364.613281 -671.675577 
L 364.613281 -672.563632 
L 364.613281 -673.451687 
L 364.613281 -674.339743 
L 364.613281 -675.227798 
L 364.613281 -676.115854 
L 364.613281 -677.003909 
L 364.613281 -677.891964 
L 364.613281 -678.78002 
L 364.613281 -679.668075 
L 364.613281 -680.55613 
L 364.613281 -681.444186 
L 364.613281 -682.332241 
L 364.613281 -683.220297 
L 364.613281 -684.108352 
L 364.613281 -684.996407 
L 364.613281 -685.884463 
L 364.613281 -686.772518 
L 364.613281 -687.660574 
L 364.613281 -688.548629 
L 364.613281 -689.436684 
L 364.613281 -690.32474 
L 364.613281 -691.212795 
L 364.613281 -692.100851 
L 364.613281 -692.988906 
L 364.613281 -693.876961 
L 364.613281 -694.765017 
L 364.613281 -695.653072 
L 364.613281 -696.541127 
L 364.613281 -697.429183 
L 364.613281 -698.317238 
L 364.613281 -699.205294 
L 364.922718 -699.205294 
L 364.922718 -699.205294 
L 364.914715 -698.317238 
L 364.912196 -697.429183 
L 364.909717 -696.541127 
L 364.906227 -695.653072 
L 364.90462 -694.765017 
L 364.89564 -693.876961 
L 364.895299 -692.988906 
L 364.894089 -692.100851 
L 364.893134 -691.212795 
L 364.889502 -690.32474 
L 364.885055 -689.436684 
L 364.884754 -688.548629 
L 364.884425 -687.660574 
L 364.882274 -686.772518 
L 364.88036 -685.884463 
L 364.879617 -684.996407 
L 364.878826 -684.108352 
L 364.878595 -683.220297 
L 364.877413 -682.332241 
L 364.872992 -681.444186 
L 364.871104 -680.55613 
L 364.866485 -679.668075 
L 364.862278 -678.78002 
L 364.86143 -677.891964 
L 364.859734 -677.003909 
L 364.859331 -676.115854 
L 364.858893 -675.227798 
L 364.858799 -674.339743 
L 364.856948 -673.451687 
L 364.856539 -672.563632 
L 364.855051 -671.675577 
L 364.854179 -670.787521 
L 364.850699 -669.899466 
L 364.848696 -669.01141 
L 364.846357 -668.123355 
L 364.845694 -667.2353 
L 364.845541 -666.347244 
L 364.838628 -665.459189 
L 364.837851 -664.571133 
L 364.835988 -663.683078 
L 364.831646 -662.795023 
L 364.831039 -661.906967 
L 364.826586 -661.018912 
L 364.824889 -660.130857 
L 364.8239 -659.242801 
L 364.821806 -658.354746 
L 364.809055 -657.46669 
L 364.808537 -656.578635 
L 364.808436 -655.69058 
L 364.808436 -654.802524 
L 364.805206 -653.914469 
L 364.801028 -653.026413 
L 364.800706 -652.138358 
L 364.791463 -651.250303 
L 364.7911 -650.362247 
L 364.791071 -649.474192 
L 364.787145 -648.586136 
L 364.77866 -647.698081 
L 364.771257 -646.810026 
L 364.770247 -645.92197 
L 364.767697 -645.033915 
L 364.765872 -644.145859 
L 364.762236 -643.257804 
L 364.761199 -642.369749 
L 364.760752 -641.481693 
L 364.754232 -640.593638 
L 364.743826 -639.705583 
L 364.734699 -638.817527 
L 364.715228 -637.929472 
z
" style="stroke: #f90000; stroke-opacity: 0.7"/>
    </defs>
    <g clip-path="url(#peb7d4f00d8)">
     <use xlink:href="#mc9b4c452d5" x="0" y="720" style="fill: #f90000; fill-opacity: 0.7; stroke: #f90000; stroke-opacity: 0.7"/>
    </g>
   </g>
   <g id="matplotlib.axis_1">
    <g id="xtick_1">
     <g id="line2d_1">
      <defs>
       <path id="m81f9a1fe96" d="M 0 0 
L 0 3.5 
" style="stroke: #000000; stroke-width: 0.8"/>
      </defs>
      <g>
       <use xlink:href="#m81f9a1fe96" x="27.978125" y="678.84375" style="stroke: #000000; stroke-width: 0.8"/>
      </g>
     </g>
     <g id="text_1">
      <!-- −1.0 -->
      <g transform="translate(15.836719 693.442188) scale(0.1 -0.1)">
       <defs>
        <path id="DejaVuSans-2212" d="M 678 2272 
L 4684 2272 
L 4684 1741 
L 678 1741 
L 678 2272 
z
" transform="scale(0.015625)"/>
        <path id="DejaVuSans-31" d="M 794 531 
L 1825 531 
L 1825 4091 
L 703 3866 
L 703 4441 
L 1819 4666 
L 2450 4666 
L 2450 531 
L 3481 531 
L 3481 0 
L 794 0 
L 794 531 
z
" transform="scale(0.015625)"/>
        <path id="DejaVuSans-2e" d="M 684 794 
L 1344 794 
L 1344 0 
L 684 0 
L 684 794 
z
" transform="scale(0.015625)"/>
        <path id="DejaVuSans-30" d="M 2034 4250 
Q 1547 4250 1301 3770 
Q 1056 3291 1056 2328 
Q 1056 1369 1301 889 
Q 1547 409 2034 409 
Q 2525 409 2770 889 
Q 3016 1369 3016 2328 
Q 3016 3291 2770 3770 
Q 2525 4250 2034 4250 
z
M 2034 4750 
Q 2819 4750 3233 4129 
Q 3647 3509 3647 2328 
Q 3647 1150 3233 529 
Q 2819 -91 2034 -91 
Q 1250 -91 836 529 
Q 422 1150 422 2328 
Q 422 3509 836 4129 
Q 1250 4750 2034 4750 
z
" transform="scale(0.015625)"/>
       </defs>
       <use xlink:href="#DejaVuSans-2212"/>
       <use xlink:href="#DejaVuSans-31" x="83.789062"/>
       <use xlink:href="#DejaVuSans-2e" x="147.412109"/>
       <use xlink:href="#DejaVuSans-30" x="179.199219"/>
      </g>
     </g>
    </g>
    <g id="xtick_2">
     <g id="line2d_2">
      <g>
       <use xlink:href="#m81f9a1fe96" x="95.305156" y="678.84375" style="stroke: #000000; stroke-width: 0.8"/>
      </g>
     </g>
     <g id="text_2">
      <!-- −0.8 -->
      <g transform="translate(83.16375 693.442188) scale(0.1 -0.1)">
       <defs>
        <path id="DejaVuSans-38" d="M 2034 2216 
Q 1584 2216 1326 1975 
Q 1069 1734 1069 1313 
Q 1069 891 1326 650 
Q 1584 409 2034 409 
Q 2484 409 2743 651 
Q 3003 894 3003 1313 
Q 3003 1734 2745 1975 
Q 2488 2216 2034 2216 
z
M 1403 2484 
Q 997 2584 770 2862 
Q 544 3141 544 3541 
Q 544 4100 942 4425 
Q 1341 4750 2034 4750 
Q 2731 4750 3128 4425 
Q 3525 4100 3525 3541 
Q 3525 3141 3298 2862 
Q 3072 2584 2669 2484 
Q 3125 2378 3379 2068 
Q 3634 1759 3634 1313 
Q 3634 634 3220 271 
Q 2806 -91 2034 -91 
Q 1263 -91 848 271 
Q 434 634 434 1313 
Q 434 1759 690 2068 
Q 947 2378 1403 2484 
z
M 1172 3481 
Q 1172 3119 1398 2916 
Q 1625 2713 2034 2713 
Q 2441 2713 2670 2916 
Q 2900 3119 2900 3481 
Q 2900 3844 2670 4047 
Q 2441 4250 2034 4250 
Q 1625 4250 1398 4047 
Q 1172 3844 1172 3481 
z
" transform="scale(0.015625)"/>
       </defs>
       <use xlink:href="#DejaVuSans-2212"/>
       <use xlink:href="#DejaVuSans-30" x="83.789062"/>
       <use xlink:href="#DejaVuSans-2e" x="147.412109"/>
       <use xlink:href="#DejaVuSans-38" x="179.199219"/>
      </g>
     </g>
    </g>
    <g id="xtick_3">
     <g id="line2d_3">
      <g>
       <use xlink:href="#m81f9a1fe96" x="162.632188" y="678.84375" style="stroke: #000000; stroke-width: 0.8"/>
      </g>
     </g>
     <g id="text_3">
      <!-- −0.6 -->
      <g transform="translate(150.490781 693.442188) scale(0.1 -0.1)">
       <defs>
        <path id="DejaVuSans-36" d="M 2113 2584 
Q 1688 2584 1439 2293 
Q 1191 2003 1191 1497 
Q 1191 994 1439 701 
Q 1688 409 2113 409 
Q 2538 409 2786 701 
Q 3034 994 3034 1497 
Q 3034 2003 2786 2293 
Q 2538 2584 2113 2584 
z
M 3366 4563 
L 3366 3988 
Q 3128 4100 2886 4159 
Q 2644 4219 2406 4219 
Q 1781 4219 1451 3797 
Q 1122 3375 1075 2522 
Q 1259 2794 1537 2939 
Q 1816 3084 2150 3084 
Q 2853 3084 3261 2657 
Q 3669 2231 3669 1497 
Q 3669 778 3244 343 
Q 2819 -91 2113 -91 
Q 1303 -91 875 529 
Q 447 1150 447 2328 
Q 447 3434 972 4092 
Q 1497 4750 2381 4750 
Q 2619 4750 2861 4703 
Q 3103 4656 3366 4563 
z
" transform="scale(0.015625)"/>
       </defs>
       <use xlink:href="#DejaVuSans-2212"/>
       <use xlink:href="#DejaVuSans-30" x="83.789062"/>
       <use xlink:href="#DejaVuSans-2e" x="147.412109"/>
       <use xlink:href="#DejaVuSans-36" x="179.199219"/>
      </g>
     </g>
    </g>
    <g id="xtick_4">
     <g id="line2d_4">
      <g>
       <use xlink:href="#m81f9a1fe96" x="229.959219" y="678.84375" style="stroke: #000000; stroke-width: 0.8"/>
      </g>
     </g>
     <g id="text_4">
      <!-- −0.4 -->
      <g transform="translate(217.817813 693.442188) scale(0.1 -0.1)">
       <defs>
        <path id="DejaVuSans-34" d="M 2419 4116 
L 825 1625 
L 2419 1625 
L 2419 4116 
z
M 2253 4666 
L 3047 4666 
L 3047 1625 
L 3713 1625 
L 3713 1100 
L 3047 1100 
L 3047 0 
L 2419 0 
L 2419 1100 
L 313 1100 
L 313 1709 
L 2253 4666 
z
" transform="scale(0.015625)"/>
       </defs>
       <use xlink:href="#DejaVuSans-2212"/>
       <use xlink:href="#DejaVuSans-30" x="83.789062"/>
       <use xlink:href="#DejaVuSans-2e" x="147.412109"/>
       <use xlink:href="#DejaVuSans-34" x="179.199219"/>
      </g>
     </g>
    </g>
    <g id="xtick_5">
     <g id="line2d_5">
      <g>
       <use xlink:href="#m81f9a1fe96" x="297.28625" y="678.84375" style="stroke: #000000; stroke-width: 0.8"/>
      </g>
     </g>
     <g id="text_5">
      <!-- −0.2 -->
      <g transform="translate(285.144844 693.442188) scale(0.1 -0.1)">
       <defs>
        <path id="DejaVuSans-32" d="M 1228 531 
L 3431 531 
L 3431 0 
L 469 0 
L 469 531 
Q 828 903 1448 1529 
Q 2069 2156 2228 2338 
Q 2531 2678 2651 2914 
Q 2772 3150 2772 3378 
Q 2772 3750 2511 3984 
Q 2250 4219 1831 4219 
Q 1534 4219 1204 4116 
Q 875 4013 500 3803 
L 500 4441 
Q 881 4594 1212 4672 
Q 1544 4750 1819 4750 
Q 2544 4750 2975 4387 
Q 3406 4025 3406 3419 
Q 3406 3131 3298 2873 
Q 3191 2616 2906 2266 
Q 2828 2175 2409 1742 
Q 1991 1309 1228 531 
z
" transform="scale(0.015625)"/>
       </defs>
       <use xlink:href="#DejaVuSans-2212"/>
       <use xlink:href="#DejaVuSans-30" x="83.789062"/>
       <use xlink:href="#DejaVuSans-2e" x="147.412109"/>
       <use xlink:href="#DejaVuSans-32" x="179.199219"/>
      </g>
     </g>
    </g>
    <g id="xtick_6">
     <g id="line2d_6">
      <g>
       <use xlink:href="#m81f9a1fe96" x="364.613281" y="678.84375" style="stroke: #000000; stroke-width: 0.8"/>
      </g>
     </g>
     <g id="text_6">
      <!-- 0.0 -->
      <g transform="translate(356.661719 693.442188) scale(0.1 -0.1)">
       <use xlink:href="#DejaVuSans-30"/>
       <use xlink:href="#DejaVuSans-2e" x="63.623047"/>
       <use xlink:href="#DejaVuSans-30" x="95.410156"/>
      </g>
     </g>
    </g>
    <g id="xtick_7">
     <g id="line2d_7">
      <g>
       <use xlink:href="#m81f9a1fe96" x="431.940313" y="678.84375" style="stroke: #000000; stroke-width: 0.8"/>
      </g>
     </g>
     <g id="text_7">
      <!-- 0.2 -->
      <g transform="translate(423.98875 693.442188) scale(0.1 -0.1)">
       <use xlink:href="#DejaVuSans-30"/>
       <use xlink:href="#DejaVuSans-2e" x="63.623047"/>
       <use xlink:href="#DejaVuSans-32" x="95.410156"/>
      </g>
     </g>
    </g>
    <g id="xtick_8">
     <g id="line2d_8">
      <g>
       <use xlink:href="#m81f9a1fe96" x="499.267344" y="678.84375" style="stroke: #000000; stroke-width: 0.8"/>
      </g>
     </g>
     <g id="text_8">
      <!-- 0.4 -->
      <g transform="translate(491.315781 693.442188) scale(0.1 -0.1)">
       <use xlink:href="#DejaVuSans-30"/>
       <use xlink:href="#DejaVuSans-2e" x="63.623047"/>
       <use xlink:href="#DejaVuSans-34" x="95.410156"/>
      </g>
     </g>
    </g>
    <g id="xtick_9">
     <g id="line2d_9">
      <g>
       <use xlink:href="#m81f9a1fe96" x="566.594375" y="678.84375" style="stroke: #000000; stroke-width: 0.8"/>
      </g>
     </g>
     <g id="text_9">
      <!-- 0.6 -->
      <g transform="translate(558.642812 693.442188) scale(0.1 -0.1)">
       <use xlink:href="#DejaVuSans-30"/>
       <use xlink:href="#DejaVuSans-2e" x="63.623047"/>
       <use xlink:href="#DejaVuSans-36" x="95.410156"/>
      </g>
     </g>
    </g>
    <g id="xtick_10">
     <g id="line2d_10">
      <g>
       <use xlink:href="#m81f9a1fe96" x="633.921406" y="678.84375" style="stroke: #000000; stroke-width: 0.8"/>
      </g>
     </g>
     <g id="text_10">
      <!-- 0.8 -->
      <g transform="translate(625.969844 693.442188) scale(0.1 -0.1)">
       <use xlink:href="#DejaVuSans-30"/>
       <use xlink:href="#DejaVuSans-2e" x="63.623047"/>
       <use xlink:href="#DejaVuSans-38" x="95.410156"/>
      </g>
     </g>
    </g>
    <g id="xtick_11">
     <g id="line2d_11">
      <g>
       <use xlink:href="#m81f9a1fe96" x="701.248437" y="678.84375" style="stroke: #000000; stroke-width: 0.8"/>
      </g>
     </g>
     <g id="text_11">
      <!-- 1.0 -->
      <g transform="translate(693.296875 693.442188) scale(0.1 -0.1)">
       <use xlink:href="#DejaVuSans-31"/>
       <use xlink:href="#DejaVuSans-2e" x="63.623047"/>
       <use xlink:href="#DejaVuSans-30" x="95.410156"/>
      </g>
     </g>
    </g>
    <g id="text_12">
     <!-- Silhouette coefficient -->
     <g transform="translate(311.463281 707.120313) scale(0.1 -0.1)">
      <defs>
       <path id="DejaVuSans-53" d="M 3425 4513 
L 3425 3897 
Q 3066 4069 2747 4153 
Q 2428 4238 2131 4238 
Q 1616 4238 1336 4038 
Q 1056 3838 1056 3469 
Q 1056 3159 1242 3001 
Q 1428 2844 1947 2747 
L 2328 2669 
Q 3034 2534 3370 2195 
Q 3706 1856 3706 1288 
Q 3706 609 3251 259 
Q 2797 -91 1919 -91 
Q 1588 -91 1214 -16 
Q 841 59 441 206 
L 441 856 
Q 825 641 1194 531 
Q 1563 422 1919 422 
Q 2459 422 2753 634 
Q 3047 847 3047 1241 
Q 3047 1584 2836 1778 
Q 2625 1972 2144 2069 
L 1759 2144 
Q 1053 2284 737 2584 
Q 422 2884 422 3419 
Q 422 4038 858 4394 
Q 1294 4750 2059 4750 
Q 2388 4750 2728 4690 
Q 3069 4631 3425 4513 
z
" transform="scale(0.015625)"/>
       <path id="DejaVuSans-69" d="M 603 3500 
L 1178 3500 
L 1178 0 
L 603 0 
L 603 3500 
z
M 603 4863 
L 1178 4863 
L 1178 4134 
L 603 4134 
L 603 4863 
z
" transform="scale(0.015625)"/>
       <path id="DejaVuSans-6c" d="M 603 4863 
L 1178 4863 
L 1178 0 
L 603 0 
L 603 4863 
z
" transform="scale(0.015625)"/>
       <path id="DejaVuSans-68" d="M 3513 2113 
L 3513 0 
L 2938 0 
L 2938 2094 
Q 2938 2591 2744 2837 
Q 2550 3084 2163 3084 
Q 1697 3084 1428 2787 
Q 1159 2491 1159 1978 
L 1159 0 
L 581 0 
L 581 4863 
L 1159 4863 
L 1159 2956 
Q 1366 3272 1645 3428 
Q 1925 3584 2291 3584 
Q 2894 3584 3203 3211 
Q 3513 2838 3513 2113 
z
" transform="scale(0.015625)"/>
       <path id="DejaVuSans-6f" d="M 1959 3097 
Q 1497 3097 1228 2736 
Q 959 2375 959 1747 
Q 959 1119 1226 758 
Q 1494 397 1959 397 
Q 2419 397 2687 759 
Q 2956 1122 2956 1747 
Q 2956 2369 2687 2733 
Q 2419 3097 1959 3097 
z
M 1959 3584 
Q 2709 3584 3137 3096 
Q 3566 2609 3566 1747 
Q 3566 888 3137 398 
Q 2709 -91 1959 -91 
Q 1206 -91 779 398 
Q 353 888 353 1747 
Q 353 2609 779 3096 
Q 1206 3584 1959 3584 
z
" transform="scale(0.015625)"/>
       <path id="DejaVuSans-75" d="M 544 1381 
L 544 3500 
L 1119 3500 
L 1119 1403 
Q 1119 906 1312 657 
Q 1506 409 1894 409 
Q 2359 409 2629 706 
Q 2900 1003 2900 1516 
L 2900 3500 
L 3475 3500 
L 3475 0 
L 2900 0 
L 2900 538 
Q 2691 219 2414 64 
Q 2138 -91 1772 -91 
Q 1169 -91 856 284 
Q 544 659 544 1381 
z
M 1991 3584 
L 1991 3584 
z
" transform="scale(0.015625)"/>
       <path id="DejaVuSans-65" d="M 3597 1894 
L 3597 1613 
L 953 1613 
Q 991 1019 1311 708 
Q 1631 397 2203 397 
Q 2534 397 2845 478 
Q 3156 559 3463 722 
L 3463 178 
Q 3153 47 2828 -22 
Q 2503 -91 2169 -91 
Q 1331 -91 842 396 
Q 353 884 353 1716 
Q 353 2575 817 3079 
Q 1281 3584 2069 3584 
Q 2775 3584 3186 3129 
Q 3597 2675 3597 1894 
z
M 3022 2063 
Q 3016 2534 2758 2815 
Q 2500 3097 2075 3097 
Q 1594 3097 1305 2825 
Q 1016 2553 972 2059 
L 3022 2063 
z
" transform="scale(0.015625)"/>
       <path id="DejaVuSans-74" d="M 1172 4494 
L 1172 3500 
L 2356 3500 
L 2356 3053 
L 1172 3053 
L 1172 1153 
Q 1172 725 1289 603 
Q 1406 481 1766 481 
L 2356 481 
L 2356 0 
L 1766 0 
Q 1100 0 847 248 
Q 594 497 594 1153 
L 594 3053 
L 172 3053 
L 172 3500 
L 594 3500 
L 594 4494 
L 1172 4494 
z
" transform="scale(0.015625)"/>
       <path id="DejaVuSans-20" transform="scale(0.015625)"/>
       <path id="DejaVuSans-63" d="M 3122 3366 
L 3122 2828 
Q 2878 2963 2633 3030 
Q 2388 3097 2138 3097 
Q 1578 3097 1268 2742 
Q 959 2388 959 1747 
Q 959 1106 1268 751 
Q 1578 397 2138 397 
Q 2388 397 2633 464 
Q 2878 531 3122 666 
L 3122 134 
Q 2881 22 2623 -34 
Q 2366 -91 2075 -91 
Q 1284 -91 818 406 
Q 353 903 353 1747 
Q 353 2603 823 3093 
Q 1294 3584 2113 3584 
Q 2378 3584 2631 3529 
Q 2884 3475 3122 3366 
z
" transform="scale(0.015625)"/>
       <path id="DejaVuSans-66" d="M 2375 4863 
L 2375 4384 
L 1825 4384 
Q 1516 4384 1395 4259 
Q 1275 4134 1275 3809 
L 1275 3500 
L 2222 3500 
L 2222 3053 
L 1275 3053 
L 1275 0 
L 697 0 
L 697 3053 
L 147 3053 
L 147 3500 
L 697 3500 
L 697 3744 
Q 697 4328 969 4595 
Q 1241 4863 1831 4863 
L 2375 4863 
z
" transform="scale(0.015625)"/>
       <path id="DejaVuSans-6e" d="M 3513 2113 
L 3513 0 
L 2938 0 
L 2938 2094 
Q 2938 2591 2744 2837 
Q 2550 3084 2163 3084 
Q 1697 3084 1428 2787 
Q 1159 2491 1159 1978 
L 1159 0 
L 581 0 
L 581 3500 
L 1159 3500 
L 1159 2956 
Q 1366 3272 1645 3428 
Q 1925 3584 2291 3584 
Q 2894 3584 3203 3211 
Q 3513 2838 3513 2113 
z
" transform="scale(0.015625)"/>
      </defs>
      <use xlink:href="#DejaVuSans-53"/>
      <use xlink:href="#DejaVuSans-69" x="63.476562"/>
      <use xlink:href="#DejaVuSans-6c" x="91.259766"/>
      <use xlink:href="#DejaVuSans-68" x="119.042969"/>
      <use xlink:href="#DejaVuSans-6f" x="182.421875"/>
      <use xlink:href="#DejaVuSans-75" x="243.603516"/>
      <use xlink:href="#DejaVuSans-65" x="306.982422"/>
      <use xlink:href="#DejaVuSans-74" x="368.505859"/>
      <use xlink:href="#DejaVuSans-74" x="407.714844"/>
      <use xlink:href="#DejaVuSans-65" x="446.923828"/>
      <use xlink:href="#DejaVuSans-20" x="508.447266"/>
      <use xlink:href="#DejaVuSans-63" x="540.234375"/>
      <use xlink:href="#DejaVuSans-6f" x="595.214844"/>
      <use xlink:href="#DejaVuSans-65" x="656.396484"/>
      <use xlink:href="#DejaVuSans-66" x="717.919922"/>
      <use xlink:href="#DejaVuSans-66" x="753.125"/>
      <use xlink:href="#DejaVuSans-69" x="788.330078"/>
      <use xlink:href="#DejaVuSans-63" x="816.113281"/>
      <use xlink:href="#DejaVuSans-69" x="871.09375"/>
      <use xlink:href="#DejaVuSans-65" x="898.876953"/>
      <use xlink:href="#DejaVuSans-6e" x="960.400391"/>
      <use xlink:href="#DejaVuSans-74" x="1023.779297"/>
     </g>
    </g>
   </g>
   <g id="matplotlib.axis_2">
    <g id="text_13">
     <!-- Predicted label -->
     <g transform="translate(18.398438 382.087267) rotate(-90) scale(0.1 -0.1)">
      <defs>
       <path id="DejaVuSans-50" d="M 1259 4147 
L 1259 2394 
L 2053 2394 
Q 2494 2394 2734 2622 
Q 2975 2850 2975 3272 
Q 2975 3691 2734 3919 
Q 2494 4147 2053 4147 
L 1259 4147 
z
M 628 4666 
L 2053 4666 
Q 2838 4666 3239 4311 
Q 3641 3956 3641 3272 
Q 3641 2581 3239 2228 
Q 2838 1875 2053 1875 
L 1259 1875 
L 1259 0 
L 628 0 
L 628 4666 
z
" transform="scale(0.015625)"/>
       <path id="DejaVuSans-72" d="M 2631 2963 
Q 2534 3019 2420 3045 
Q 2306 3072 2169 3072 
Q 1681 3072 1420 2755 
Q 1159 2438 1159 1844 
L 1159 0 
L 581 0 
L 581 3500 
L 1159 3500 
L 1159 2956 
Q 1341 3275 1631 3429 
Q 1922 3584 2338 3584 
Q 2397 3584 2469 3576 
Q 2541 3569 2628 3553 
L 2631 2963 
z
" transform="scale(0.015625)"/>
       <path id="DejaVuSans-64" d="M 2906 2969 
L 2906 4863 
L 3481 4863 
L 3481 0 
L 2906 0 
L 2906 525 
Q 2725 213 2448 61 
Q 2172 -91 1784 -91 
Q 1150 -91 751 415 
Q 353 922 353 1747 
Q 353 2572 751 3078 
Q 1150 3584 1784 3584 
Q 2172 3584 2448 3432 
Q 2725 3281 2906 2969 
z
M 947 1747 
Q 947 1113 1208 752 
Q 1469 391 1925 391 
Q 2381 391 2643 752 
Q 2906 1113 2906 1747 
Q 2906 2381 2643 2742 
Q 2381 3103 1925 3103 
Q 1469 3103 1208 2742 
Q 947 2381 947 1747 
z
" transform="scale(0.015625)"/>
       <path id="DejaVuSans-61" d="M 2194 1759 
Q 1497 1759 1228 1600 
Q 959 1441 959 1056 
Q 959 750 1161 570 
Q 1363 391 1709 391 
Q 2188 391 2477 730 
Q 2766 1069 2766 1631 
L 2766 1759 
L 2194 1759 
z
M 3341 1997 
L 3341 0 
L 2766 0 
L 2766 531 
Q 2569 213 2275 61 
Q 1981 -91 1556 -91 
Q 1019 -91 701 211 
Q 384 513 384 1019 
Q 384 1609 779 1909 
Q 1175 2209 1959 2209 
L 2766 2209 
L 2766 2266 
Q 2766 2663 2505 2880 
Q 2244 3097 1772 3097 
Q 1472 3097 1187 3025 
Q 903 2953 641 2809 
L 641 3341 
Q 956 3463 1253 3523 
Q 1550 3584 1831 3584 
Q 2591 3584 2966 3190 
Q 3341 2797 3341 1997 
z
" transform="scale(0.015625)"/>
       <path id="DejaVuSans-62" d="M 3116 1747 
Q 3116 2381 2855 2742 
Q 2594 3103 2138 3103 
Q 1681 3103 1420 2742 
Q 1159 2381 1159 1747 
Q 1159 1113 1420 752 
Q 1681 391 2138 391 
Q 2594 391 2855 752 
Q 3116 1113 3116 1747 
z
M 1159 2969 
Q 1341 3281 1617 3432 
Q 1894 3584 2278 3584 
Q 2916 3584 3314 3078 
Q 3713 2572 3713 1747 
Q 3713 922 3314 415 
Q 2916 -91 2278 -91 
Q 1894 -91 1617 61 
Q 1341 213 1159 525 
L 1159 0 
L 581 0 
L 581 4863 
L 1159 4863 
L 1159 2969 
z
" transform="scale(0.015625)"/>
      </defs>
      <use xlink:href="#DejaVuSans-50"/>
      <use xlink:href="#DejaVuSans-72" x="58.552734"/>
      <use xlink:href="#DejaVuSans-65" x="97.416016"/>
      <use xlink:href="#DejaVuSans-64" x="158.939453"/>
      <use xlink:href="#DejaVuSans-69" x="222.416016"/>
      <use xlink:href="#DejaVuSans-63" x="250.199219"/>
      <use xlink:href="#DejaVuSans-74" x="305.179688"/>
      <use xlink:href="#DejaVuSans-65" x="344.388672"/>
      <use xlink:href="#DejaVuSans-64" x="405.912109"/>
      <use xlink:href="#DejaVuSans-20" x="469.388672"/>
      <use xlink:href="#DejaVuSans-6c" x="501.175781"/>
      <use xlink:href="#DejaVuSans-61" x="528.958984"/>
      <use xlink:href="#DejaVuSans-62" x="590.238281"/>
      <use xlink:href="#DejaVuSans-65" x="653.714844"/>
      <use xlink:href="#DejaVuSans-6c" x="715.238281"/>
     </g>
    </g>
   </g>
   <g id="line2d_12">
    <path d="M 365.125629 678.84375 
L 365.125629 11.026097 
" clip-path="url(#peb7d4f00d8)" style="fill: none; stroke: #ff0000; stroke-width: 1.5; stroke-linecap: square"/>
   </g>
   <g id="patch_3">
    <path d="M 27.978125 678.84375 
L 27.978125 11.026097 
" style="fill: none; stroke: #000000; stroke-width: 0.8; stroke-linejoin: miter; stroke-linecap: square"/>
   </g>
   <g id="patch_4">
    <path d="M 701.248437 678.84375 
L 701.248437 11.026097 
" style="fill: none; stroke: #000000; stroke-width: 0.8; stroke-linejoin: miter; stroke-linecap: square"/>
   </g>
   <g id="patch_5">
    <path d="M 27.978125 678.84375 
L 701.248437 678.84375 
" style="fill: none; stroke: #000000; stroke-width: 0.8; stroke-linejoin: miter; stroke-linecap: square"/>
   </g>
   <g id="patch_6">
    <path d="M 27.978125 11.026097 
L 701.248437 11.026097 
" style="fill: none; stroke: #000000; stroke-width: 0.8; stroke-linejoin: miter; stroke-linecap: square"/>
   </g>
   <g id="text_14">
    <!-- 0 -->
    <g transform="translate(347.781523 605.57918) scale(0.1 -0.1)">
     <use xlink:href="#DejaVuSans-30"/>
    </g>
   </g>
   <g id="text_15">
    <!-- 1 -->
    <g transform="translate(347.781523 487.467814) scale(0.1 -0.1)">
     <use xlink:href="#DejaVuSans-31"/>
    </g>
   </g>
   <g id="text_16">
    <!-- 2 -->
    <g transform="translate(347.781523 395.110053) scale(0.1 -0.1)">
     <use xlink:href="#DejaVuSans-32"/>
    </g>
   </g>
   <g id="text_17">
    <!-- 3 -->
    <g transform="translate(347.781523 344.046868) scale(0.1 -0.1)">
     <defs>
      <path id="DejaVuSans-33" d="M 2597 2516 
Q 3050 2419 3304 2112 
Q 3559 1806 3559 1356 
Q 3559 666 3084 287 
Q 2609 -91 1734 -91 
Q 1441 -91 1130 -33 
Q 819 25 488 141 
L 488 750 
Q 750 597 1062 519 
Q 1375 441 1716 441 
Q 2309 441 2620 675 
Q 2931 909 2931 1356 
Q 2931 1769 2642 2001 
Q 2353 2234 1838 2234 
L 1294 2234 
L 1294 2753 
L 1863 2753 
Q 2328 2753 2575 2939 
Q 2822 3125 2822 3475 
Q 2822 3834 2567 4026 
Q 2313 4219 1838 4219 
Q 1578 4219 1281 4162 
Q 984 4106 628 3988 
L 628 4550 
Q 988 4650 1302 4700 
Q 1616 4750 1894 4750 
Q 2613 4750 3031 4423 
Q 3450 4097 3450 3541 
Q 3450 3153 3228 2886 
Q 3006 2619 2597 2516 
z
" transform="scale(0.015625)"/>
     </defs>
     <use xlink:href="#DejaVuSans-33"/>
    </g>
   </g>
   <g id="text_18">
    <!-- 4 -->
    <g transform="translate(347.781523 304.972431) scale(0.1 -0.1)">
     <use xlink:href="#DejaVuSans-34"/>
    </g>
   </g>
   <g id="text_19">
    <!-- 5 -->
    <g transform="translate(347.781523 180.200649) scale(0.1 -0.1)">
     <defs>
      <path id="DejaVuSans-35" d="M 691 4666 
L 3169 4666 
L 3169 4134 
L 1269 4134 
L 1269 2991 
Q 1406 3038 1543 3061 
Q 1681 3084 1819 3084 
Q 2600 3084 3056 2656 
Q 3513 2228 3513 1497 
Q 3513 744 3044 326 
Q 2575 -91 1722 -91 
Q 1428 -91 1123 -41 
Q 819 9 494 109 
L 494 744 
Q 775 591 1075 516 
Q 1375 441 1709 441 
Q 2250 441 2565 725 
Q 2881 1009 2881 1497 
Q 2881 1984 2565 2268 
Q 2250 2553 1709 2553 
Q 1456 2553 1204 2497 
Q 953 2441 691 2322 
L 691 4666 
z
" transform="scale(0.015625)"/>
     </defs>
     <use xlink:href="#DejaVuSans-35"/>
    </g>
   </g>
   <g id="text_20">
    <!-- 6 -->
    <g transform="translate(347.781523 50.98859) scale(0.1 -0.1)">
     <use xlink:href="#DejaVuSans-36"/>
    </g>
   </g>
   <g id="text_21">
    <!-- 0.0015 -->
    <g style="fill: #ff0000" transform="translate(381.957387 19.906651) scale(0.1 -0.1)">
     <use xlink:href="#DejaVuSans-30"/>
     <use xlink:href="#DejaVuSans-2e" x="63.623047"/>
     <use xlink:href="#DejaVuSans-30" x="95.410156"/>
     <use xlink:href="#DejaVuSans-30" x="159.033203"/>
     <use xlink:href="#DejaVuSans-31" x="222.65625"/>
     <use xlink:href="#DejaVuSans-35" x="286.279297"/>
    </g>
   </g>
  </g>
 </g>
 <defs>
  <clipPath id="peb7d4f00d8">
   <rect x="27.978125" y="11.026097" width="673.270312" height="667.817653"/>
  </clipPath>
 </defs>
</svg>
