<?xml version="1.0" encoding="utf-8" standalone="no"?>
<!DOCTYPE svg PUBLIC "-//W3C//DTD SVG 1.1//EN"
  "http://www.w3.org/Graphics/SVG/1.1/DTD/svg11.dtd">
<svg xmlns:xlink="http://www.w3.org/1999/xlink" width="720pt" height="720pt" viewBox="0 0 720 720" xmlns="http://www.w3.org/2000/svg" version="1.1">
 <metadata>
  <rdf:RDF xmlns:dc="http://purl.org/dc/elements/1.1/" xmlns:cc="http://creativecommons.org/ns#" xmlns:rdf="http://www.w3.org/1999/02/22-rdf-syntax-ns#">
   <cc:Work>
    <dc:type rdf:resource="http://purl.org/dc/dcmitype/StillImage"/>
    <dc:date>2022-11-17T19:11:18.631415</dc:date>
    <dc:format>image/svg+xml</dc:format>
    <dc:creator>
     <cc:Agent>
      <dc:title>Matplotlib v3.6.1, https://matplotlib.org/</dc:title>
     </cc:Agent>
    </dc:creator>
   </cc:Work>
  </rdf:RDF>
 </metadata>
 <defs>
  <style type="text/css">*{stroke-linejoin: round; stroke-linecap: butt}</style>
 </defs>
 <g id="figure_1">
  <g id="patch_1">
   <path d="M 0 720 
L 720 720 
L 720 0 
L 0 0 
z
" style="fill: #ffffff"/>
  </g>
  <g id="axes_1">
   <g id="patch_2">
    <path d="M 27.978125 678.84375 
L 701.248437 678.84375 
L 701.248437 11.734976 
L 27.978125 11.734976 
z
" style="fill: #ffffff"/>
   </g>
   <g id="PolyCollection_1">
    <defs>
     <path id="m9689ba5979" d="M 307.862974 -49.174384 
L 364.613281 -49.174384 
L 364.613281 -49.976198 
L 364.613281 -50.778011 
L 364.613281 -51.579825 
L 364.613281 -52.381638 
L 364.613281 -53.183451 
L 364.613281 -53.985265 
L 364.613281 -54.787078 
L 364.613281 -55.588892 
L 364.613281 -56.390705 
L 364.613281 -57.192519 
L 364.613281 -57.994332 
L 364.613281 -58.796145 
L 364.613281 -59.597959 
L 364.613281 -60.399772 
L 364.613281 -61.201586 
L 364.613281 -62.003399 
L 364.613281 -62.805213 
L 364.613281 -63.607026 
L 364.613281 -64.408839 
L 364.613281 -65.210653 
L 364.613281 -66.012466 
L 364.613281 -66.81428 
L 364.613281 -67.616093 
L 364.613281 -68.417907 
L 364.613281 -69.21972 
L 364.613281 -70.021533 
L 364.613281 -70.823347 
L 364.613281 -71.62516 
L 364.613281 -72.426974 
L 364.613281 -73.228787 
L 364.613281 -74.030601 
L 364.613281 -74.832414 
L 364.613281 -75.634228 
L 364.613281 -76.436041 
L 364.613281 -77.237854 
L 364.613281 -78.039668 
L 364.613281 -78.841481 
L 364.613281 -79.643295 
L 364.613281 -80.445108 
L 364.613281 -81.246922 
L 364.613281 -82.048735 
L 364.613281 -82.850548 
L 364.613281 -83.652362 
L 364.613281 -84.454175 
L 364.613281 -85.255989 
L 364.613281 -86.057802 
L 364.613281 -86.859616 
L 364.613281 -87.661429 
L 364.613281 -88.463242 
L 364.613281 -89.265056 
L 364.613281 -90.066869 
L 364.613281 -90.868683 
L 364.613281 -91.670496 
L 364.613281 -92.47231 
L 364.613281 -93.274123 
L 364.613281 -94.075936 
L 364.613281 -94.87775 
L 364.613281 -95.679563 
L 364.613281 -96.481377 
L 364.613281 -97.28319 
L 364.613281 -98.085004 
L 364.613281 -98.886817 
L 364.613281 -99.68863 
L 364.613281 -100.490444 
L 364.613281 -101.292257 
L 364.613281 -102.094071 
L 364.613281 -102.895884 
L 364.613281 -103.697698 
L 364.613281 -104.499511 
L 364.613281 -105.301324 
L 364.613281 -106.103138 
L 364.613281 -106.904951 
L 364.613281 -107.706765 
L 364.613281 -108.508578 
L 364.613281 -109.310392 
L 364.613281 -110.112205 
L 364.613281 -110.914018 
L 364.613281 -111.715832 
L 364.613281 -112.517645 
L 364.613281 -113.319459 
L 364.613281 -114.121272 
L 364.613281 -114.923086 
L 364.613281 -115.724899 
L 364.613281 -116.526712 
L 364.613281 -117.328526 
L 364.613281 -118.130339 
L 364.613281 -118.932153 
L 364.613281 -119.733966 
L 364.613281 -120.53578 
L 364.613281 -121.337593 
L 364.613281 -122.139406 
L 364.613281 -122.94122 
L 364.613281 -123.743033 
L 364.613281 -124.544847 
L 364.613281 -125.34666 
L 364.613281 -126.148474 
L 364.613281 -126.950287 
L 364.613281 -127.7521 
L 364.613281 -128.553914 
L 364.613281 -129.355727 
L 364.613281 -130.157541 
L 364.613281 -130.959354 
L 364.613281 -131.761168 
L 364.613281 -132.562981 
L 364.613281 -133.364794 
L 364.613281 -134.166608 
L 364.613281 -134.968421 
L 364.613281 -135.770235 
L 364.613281 -136.572048 
L 364.613281 -137.373862 
L 364.613281 -138.175675 
L 364.613281 -138.977489 
L 364.613281 -139.779302 
L 364.613281 -140.581115 
L 364.613281 -141.382929 
L 364.613281 -142.184742 
L 364.613281 -142.986556 
L 364.613281 -143.788369 
L 364.613281 -144.590183 
L 364.613281 -145.391996 
L 364.613281 -146.193809 
L 364.613281 -146.995623 
L 364.613281 -147.797436 
L 364.613281 -148.59925 
L 364.613281 -149.401063 
L 364.613281 -150.202877 
L 364.613281 -151.00469 
L 364.613281 -151.806503 
L 364.613281 -152.608317 
L 364.613281 -153.41013 
L 364.613281 -154.211944 
L 364.613281 -155.013757 
L 364.613281 -155.815571 
L 364.613281 -156.617384 
L 364.613281 -157.419197 
L 364.613281 -158.221011 
L 450.396457 -158.221011 
L 450.396457 -158.221011 
L 450.302379 -157.419197 
L 447.675104 -156.617384 
L 447.319416 -155.815571 
L 445.494859 -155.013757 
L 444.067994 -154.211944 
L 443.754265 -153.41013 
L 443.448816 -152.608317 
L 441.209569 -151.806503 
L 440.628311 -151.00469 
L 440.439116 -150.202877 
L 439.91173 -149.401063 
L 439.531105 -148.59925 
L 438.890213 -147.797436 
L 438.780059 -146.995623 
L 438.59644 -146.193809 
L 438.236812 -145.391996 
L 437.999294 -144.590183 
L 437.37148 -143.788369 
L 436.55832 -142.986556 
L 436.544855 -142.184742 
L 435.735305 -141.382929 
L 435.225094 -140.581115 
L 435.147419 -139.779302 
L 434.248461 -138.977489 
L 433.80739 -138.175675 
L 433.193633 -137.373862 
L 431.547449 -136.572048 
L 431.392092 -135.770235 
L 431.280071 -134.968421 
L 430.676076 -134.166608 
L 430.64733 -133.364794 
L 430.572617 -132.562981 
L 430.267725 -131.761168 
L 428.644061 -130.959354 
L 428.377895 -130.157541 
L 428.368089 -129.355727 
L 427.93336 -128.553914 
L 427.690009 -127.7521 
L 427.513225 -126.950287 
L 427.463916 -126.148474 
L 427.423557 -125.34666 
L 427.249208 -124.544847 
L 427.212368 -123.743033 
L 427.162118 -122.94122 
L 426.49398 -122.139406 
L 425.439242 -121.337593 
L 425.410073 -120.53578 
L 423.020532 -119.733966 
L 422.843875 -118.932153 
L 421.611947 -118.130339 
L 420.847423 -117.328526 
L 420.789502 -116.526712 
L 420.745768 -115.724899 
L 420.57785 -114.923086 
L 420.113471 -114.121272 
L 419.67462 -113.319459 
L 419.511887 -112.517645 
L 419.428257 -111.715832 
L 419.074395 -110.914018 
L 418.305166 -110.112205 
L 417.937861 -109.310392 
L 417.664107 -108.508578 
L 417.596254 -107.706765 
L 417.534054 -106.904951 
L 417.299856 -106.103138 
L 416.730959 -105.301324 
L 416.623941 -104.499511 
L 414.623265 -103.697698 
L 414.112943 -102.895884 
L 413.847628 -102.094071 
L 413.463892 -101.292257 
L 412.661697 -100.490444 
L 412.4311 -99.68863 
L 412.38362 -98.886817 
L 412.178378 -98.085004 
L 411.794624 -97.28319 
L 411.766 -96.481377 
L 411.207585 -95.679563 
L 411.138769 -94.87775 
L 410.958518 -94.075936 
L 410.693964 -93.274123 
L 410.392064 -92.47231 
L 410.261591 -91.670496 
L 409.61733 -90.868683 
L 408.802534 -90.066869 
L 408.502444 -89.265056 
L 407.564167 -88.463242 
L 407.520761 -87.661429 
L 407.385054 -86.859616 
L 406.942819 -86.057802 
L 406.018461 -85.255989 
L 405.025471 -84.454175 
L 405.012713 -83.652362 
L 404.673986 -82.850548 
L 403.938814 -82.048735 
L 403.400013 -81.246922 
L 401.585053 -80.445108 
L 400.942376 -79.643295 
L 400.366381 -78.841481 
L 399.119392 -78.039668 
L 397.932958 -77.237854 
L 394.287485 -76.436041 
L 394.251413 -75.634228 
L 393.057314 -74.832414 
L 391.283697 -74.030601 
L 391.20862 -73.228787 
L 389.958911 -72.426974 
L 389.503014 -71.62516 
L 389.493358 -70.823347 
L 387.571947 -70.021533 
L 386.972699 -69.21972 
L 386.615735 -68.417907 
L 385.576811 -67.616093 
L 385.493934 -66.81428 
L 383.982057 -66.012466 
L 382.650104 -65.210653 
L 381.781059 -64.408839 
L 379.447869 -63.607026 
L 378.113319 -62.805213 
L 374.411496 -62.003399 
L 374.283126 -61.201586 
L 373.446255 -60.399772 
L 371.151383 -59.597959 
L 370.445959 -58.796145 
L 362.18479 -57.994332 
L 362.176255 -57.192519 
L 361.468755 -56.390705 
L 359.885116 -55.588892 
L 357.318892 -54.787078 
L 352.953083 -53.985265 
L 350.47399 -53.183451 
L 348.756432 -52.381638 
L 347.684509 -51.579825 
L 337.118264 -50.778011 
L 315.464591 -49.976198 
L 307.862974 -49.174384 
z
" style="stroke: #000000; stroke-opacity: 0.7"/>
    </defs>
    <g clip-path="url(#pfbe0d4d276)">
     <use xlink:href="#m9689ba5979" x="0" y="720" style="fill-opacity: 0.7; stroke: #000000; stroke-opacity: 0.7"/>
    </g>
   </g>
   <g id="PolyCollection_2">
    <defs>
     <path id="mbf0ba5dec5" d="M 387.41726 -167.040959 
L 364.613281 -167.040959 
L 364.613281 -167.842772 
L 364.613281 -168.644585 
L 364.613281 -169.446399 
L 422.221742 -169.446399 
L 422.221742 -169.446399 
L 403.055509 -168.644585 
L 397.713478 -167.842772 
L 387.41726 -167.040959 
z
" style="stroke: #7d008e; stroke-opacity: 0.7"/>
    </defs>
    <g clip-path="url(#pfbe0d4d276)">
     <use xlink:href="#mbf0ba5dec5" x="0" y="720" style="fill: #7d008e; fill-opacity: 0.7; stroke: #7d008e; stroke-opacity: 0.7"/>
    </g>
   </g>
   <g id="PolyCollection_3">
    <defs>
     <path id="m39e15de99a" d="M 400.368349 -178.266347 
L 364.613281 -178.266347 
L 364.613281 -179.06816 
L 405.800878 -179.06816 
L 405.800878 -179.06816 
L 400.368349 -178.266347 
z
" style="stroke: #2d00a4; stroke-opacity: 0.7"/>
    </defs>
    <g clip-path="url(#pfbe0d4d276)">
     <use xlink:href="#m39e15de99a" x="0" y="720" style="fill: #2d00a4; fill-opacity: 0.7; stroke: #2d00a4; stroke-opacity: 0.7"/>
    </g>
   </g>
   <g id="PolyCollection_4">
    <defs>
     <path id="me451457884" d="M 399.366332 -187.888108 
L 364.613281 -187.888108 
L 364.613281 -188.689921 
L 364.613281 -189.491735 
L 364.613281 -190.293548 
L 433.901928 -190.293548 
L 433.901928 -190.293548 
L 424.155515 -189.491735 
L 418.477889 -188.689921 
L 399.366332 -187.888108 
z
" style="stroke: #0000dd; stroke-opacity: 0.7"/>
    </defs>
    <g clip-path="url(#pfbe0d4d276)">
     <use xlink:href="#me451457884" x="0" y="720" style="fill: #0000dd; fill-opacity: 0.7; stroke: #0000dd; stroke-opacity: 0.7"/>
    </g>
   </g>
   <g id="PolyCollection_5">
    <defs>
     <path id="m0cdc08a2fa" d="M 348.290367 -199.113496 
L 364.613281 -199.113496 
L 364.613281 -199.915309 
L 364.613281 -200.717123 
L 364.613281 -201.518936 
L 364.613281 -202.320749 
L 364.613281 -203.122563 
L 364.613281 -203.924376 
L 364.613281 -204.72619 
L 364.613281 -205.528003 
L 364.613281 -206.329817 
L 364.613281 -207.13163 
L 364.613281 -207.933444 
L 364.613281 -208.735257 
L 364.613281 -209.53707 
L 364.613281 -210.338884 
L 364.613281 -211.140697 
L 364.613281 -211.942511 
L 364.613281 -212.744324 
L 364.613281 -213.546138 
L 428.519102 -213.546138 
L 428.519102 -213.546138 
L 421.81825 -212.744324 
L 413.803532 -211.942511 
L 413.158808 -211.140697 
L 412.089293 -210.338884 
L 406.502798 -209.53707 
L 401.292268 -208.735257 
L 400.746888 -207.933444 
L 399.288028 -207.13163 
L 398.633716 -206.329817 
L 392.614876 -205.528003 
L 390.226271 -204.72619 
L 389.842082 -203.924376 
L 387.81006 -203.122563 
L 387.116489 -202.320749 
L 384.797626 -201.518936 
L 380.4811 -200.717123 
L 349.025156 -199.915309 
L 348.290367 -199.113496 
z
" style="stroke: #0082dd; stroke-opacity: 0.7"/>
    </defs>
    <g clip-path="url(#pfbe0d4d276)">
     <use xlink:href="#m0cdc08a2fa" x="0" y="720" style="fill: #0082dd; fill-opacity: 0.7; stroke: #0082dd; stroke-opacity: 0.7"/>
    </g>
   </g>
   <g id="PolyCollection_6">
    <defs>
     <path id="m367a188332" d="M 560.347386 -222.366085 
L 364.613281 -222.366085 
L 364.613281 -223.167899 
L 364.613281 -223.969712 
L 364.613281 -224.771526 
L 364.613281 -225.573339 
L 364.613281 -226.375152 
L 364.613281 -227.176966 
L 364.613281 -227.978779 
L 364.613281 -228.780593 
L 364.613281 -229.582406 
L 364.613281 -230.38422 
L 364.613281 -231.186033 
L 364.613281 -231.987846 
L 364.613281 -232.78966 
L 364.613281 -233.591473 
L 364.613281 -234.393287 
L 364.613281 -235.1951 
L 364.613281 -235.996914 
L 364.613281 -236.798727 
L 364.613281 -237.60054 
L 364.613281 -238.402354 
L 364.613281 -239.204167 
L 364.613281 -240.005981 
L 364.613281 -240.807794 
L 364.613281 -241.609608 
L 364.613281 -242.411421 
L 364.613281 -243.213234 
L 364.613281 -244.015048 
L 364.613281 -244.816861 
L 364.613281 -245.618675 
L 364.613281 -246.420488 
L 364.613281 -247.222302 
L 364.613281 -248.024115 
L 364.613281 -248.825928 
L 364.613281 -249.627742 
L 364.613281 -250.429555 
L 364.613281 -251.231369 
L 364.613281 -252.033182 
L 364.613281 -252.834996 
L 364.613281 -253.636809 
L 364.613281 -254.438622 
L 364.613281 -255.240436 
L 364.613281 -256.042249 
L 364.613281 -256.844063 
L 364.613281 -257.645876 
L 364.613281 -258.44769 
L 364.613281 -259.249503 
L 364.613281 -260.051316 
L 364.613281 -260.85313 
L 364.613281 -261.654943 
L 364.613281 -262.456757 
L 364.613281 -263.25857 
L 364.613281 -264.060384 
L 364.613281 -264.862197 
L 364.613281 -265.66401 
L 364.613281 -266.465824 
L 364.613281 -267.267637 
L 364.613281 -268.069451 
L 364.613281 -268.871264 
L 364.613281 -269.673078 
L 364.613281 -270.474891 
L 364.613281 -271.276705 
L 364.613281 -272.078518 
L 364.613281 -272.880331 
L 364.613281 -273.682145 
L 364.613281 -274.483958 
L 364.613281 -275.285772 
L 364.613281 -276.087585 
L 364.613281 -276.889399 
L 364.613281 -277.691212 
L 364.613281 -278.493025 
L 364.613281 -279.294839 
L 364.613281 -280.096652 
L 364.613281 -280.898466 
L 364.613281 -281.700279 
L 364.613281 -282.502093 
L 364.613281 -283.303906 
L 364.613281 -284.105719 
L 364.613281 -284.907533 
L 364.613281 -285.709346 
L 364.613281 -286.51116 
L 364.613281 -287.312973 
L 364.613281 -288.114787 
L 364.613281 -288.9166 
L 364.613281 -289.718413 
L 364.613281 -290.520227 
L 364.613281 -291.32204 
L 364.613281 -292.123854 
L 364.613281 -292.925667 
L 364.613281 -293.727481 
L 364.613281 -294.529294 
L 364.613281 -295.331107 
L 364.613281 -296.132921 
L 364.613281 -296.934734 
L 364.613281 -297.736548 
L 364.613281 -298.538361 
L 364.613281 -299.340175 
L 364.613281 -300.141988 
L 364.613281 -300.943801 
L 364.613281 -301.745615 
L 364.613281 -302.547428 
L 364.613281 -303.349242 
L 364.613281 -304.151055 
L 364.613281 -304.952869 
L 364.613281 -305.754682 
L 364.613281 -306.556495 
L 364.613281 -307.358309 
L 364.613281 -308.160122 
L 364.613281 -308.961936 
L 364.613281 -309.763749 
L 364.613281 -310.565563 
L 364.613281 -311.367376 
L 364.613281 -312.169189 
L 364.613281 -312.971003 
L 364.613281 -313.772816 
L 364.613281 -314.57463 
L 364.613281 -315.376443 
L 364.613281 -316.178257 
L 364.613281 -316.98007 
L 364.613281 -317.781883 
L 364.613281 -318.583697 
L 364.613281 -319.38551 
L 364.613281 -320.187324 
L 364.613281 -320.989137 
L 364.613281 -321.790951 
L 364.613281 -322.592764 
L 364.613281 -323.394577 
L 364.613281 -324.196391 
L 364.613281 -324.998204 
L 364.613281 -325.800018 
L 364.613281 -326.601831 
L 364.613281 -327.403645 
L 364.613281 -328.205458 
L 364.613281 -329.007271 
L 364.613281 -329.809085 
L 364.613281 -330.610898 
L 364.613281 -331.412712 
L 364.613281 -332.214525 
L 364.613281 -333.016339 
L 364.613281 -333.818152 
L 364.613281 -334.619966 
L 364.613281 -335.421779 
L 364.613281 -336.223592 
L 364.613281 -337.025406 
L 364.613281 -337.827219 
L 364.613281 -338.629033 
L 364.613281 -339.430846 
L 364.613281 -340.23266 
L 364.613281 -341.034473 
L 364.613281 -341.836286 
L 364.613281 -342.6381 
L 364.613281 -343.439913 
L 364.613281 -344.241727 
L 364.613281 -345.04354 
L 364.613281 -345.845354 
L 364.613281 -346.647167 
L 364.613281 -347.44898 
L 364.613281 -348.250794 
L 364.613281 -349.052607 
L 364.613281 -349.854421 
L 364.613281 -350.656234 
L 364.613281 -351.458048 
L 364.613281 -352.259861 
L 364.613281 -353.061674 
L 364.613281 -353.863488 
L 364.613281 -354.665301 
L 364.613281 -355.467115 
L 364.613281 -356.268928 
L 364.613281 -357.070742 
L 364.613281 -357.872555 
L 364.613281 -358.674368 
L 364.613281 -359.476182 
L 364.613281 -360.277995 
L 364.613281 -361.079809 
L 364.613281 -361.881622 
L 364.613281 -362.683436 
L 364.613281 -363.485249 
L 364.613281 -364.287062 
L 364.613281 -365.088876 
L 364.613281 -365.890689 
L 364.613281 -366.692503 
L 364.613281 -367.494316 
L 364.613281 -368.29613 
L 364.613281 -369.097943 
L 364.613281 -369.899756 
L 364.613281 -370.70157 
L 364.613281 -371.503383 
L 364.613281 -372.305197 
L 364.613281 -373.10701 
L 364.613281 -373.908824 
L 364.613281 -374.710637 
L 364.613281 -375.51245 
L 364.613281 -376.314264 
L 364.613281 -377.116077 
L 364.613281 -377.917891 
L 364.613281 -378.719704 
L 364.613281 -379.521518 
L 364.613281 -380.323331 
L 364.613281 -381.125144 
L 364.613281 -381.926958 
L 364.613281 -382.728771 
L 364.613281 -383.530585 
L 364.613281 -384.332398 
L 364.613281 -385.134212 
L 364.613281 -385.936025 
L 364.613281 -386.737838 
L 364.613281 -387.539652 
L 364.613281 -388.341465 
L 364.613281 -389.143279 
L 364.613281 -389.945092 
L 364.613281 -390.746906 
L 364.613281 -391.548719 
L 364.613281 -392.350532 
L 364.613281 -393.152346 
L 364.613281 -393.954159 
L 364.613281 -394.755973 
L 364.613281 -395.557786 
L 364.613281 -396.3596 
L 364.613281 -397.161413 
L 364.613281 -397.963226 
L 364.613281 -398.76504 
L 364.613281 -399.566853 
L 364.613281 -400.368667 
L 364.613281 -401.17048 
L 364.613281 -401.972294 
L 364.613281 -402.774107 
L 364.613281 -403.575921 
L 364.613281 -404.377734 
L 364.613281 -405.179547 
L 364.613281 -405.981361 
L 364.613281 -406.783174 
L 364.613281 -407.584988 
L 364.613281 -408.386801 
L 364.613281 -409.188615 
L 364.613281 -409.990428 
L 364.613281 -410.792241 
L 364.613281 -411.594055 
L 364.613281 -412.395868 
L 364.613281 -413.197682 
L 364.613281 -413.999495 
L 364.613281 -414.801309 
L 364.613281 -415.603122 
L 364.613281 -416.404935 
L 364.613281 -417.206749 
L 364.613281 -418.008562 
L 364.613281 -418.810376 
L 364.613281 -419.612189 
L 364.613281 -420.414003 
L 364.613281 -421.215816 
L 364.613281 -422.017629 
L 364.613281 -422.819443 
L 364.613281 -423.621256 
L 364.613281 -424.42307 
L 364.613281 -425.224883 
L 364.613281 -426.026697 
L 364.613281 -426.82851 
L 364.613281 -427.630323 
L 364.613281 -428.432137 
L 364.613281 -429.23395 
L 364.613281 -430.035764 
L 364.613281 -430.837577 
L 364.613281 -431.639391 
L 364.613281 -432.441204 
L 364.613281 -433.243017 
L 364.613281 -434.044831 
L 364.613281 -434.846644 
L 364.613281 -435.648458 
L 364.613281 -436.450271 
L 364.613281 -437.252085 
L 364.613281 -438.053898 
L 364.613281 -438.855711 
L 364.613281 -439.657525 
L 364.613281 -440.459338 
L 364.613281 -441.261152 
L 364.613281 -442.062965 
L 364.613281 -442.864779 
L 364.613281 -443.666592 
L 364.613281 -444.468405 
L 364.613281 -445.270219 
L 364.613281 -446.072032 
L 364.613281 -446.873846 
L 364.613281 -447.675659 
L 364.613281 -448.477473 
L 364.613281 -449.279286 
L 364.613281 -450.081099 
L 364.613281 -450.882913 
L 364.613281 -451.684726 
L 364.613281 -452.48654 
L 364.613281 -453.288353 
L 364.613281 -454.090167 
L 364.613281 -454.89198 
L 364.613281 -455.693793 
L 364.613281 -456.495607 
L 364.613281 -457.29742 
L 364.613281 -458.099234 
L 364.613281 -458.901047 
L 364.613281 -459.702861 
L 364.613281 -460.504674 
L 364.613281 -461.306487 
L 364.613281 -462.108301 
L 364.613281 -462.910114 
L 364.613281 -463.711928 
L 364.613281 -464.513741 
L 364.613281 -465.315555 
L 364.613281 -466.117368 
L 364.613281 -466.919182 
L 364.613281 -467.720995 
L 364.613281 -468.522808 
L 364.613281 -469.324622 
L 364.613281 -470.126435 
L 364.613281 -470.928249 
L 364.613281 -471.730062 
L 364.613281 -472.531876 
L 364.613281 -473.333689 
L 364.613281 -474.135502 
L 364.613281 -474.937316 
L 364.613281 -475.739129 
L 364.613281 -476.540943 
L 364.613281 -477.342756 
L 364.613281 -478.14457 
L 364.613281 -478.946383 
L 364.613281 -479.748196 
L 364.613281 -480.55001 
L 364.613281 -481.351823 
L 364.613281 -482.153637 
L 364.613281 -482.95545 
L 364.613281 -483.757264 
L 364.613281 -484.559077 
L 364.613281 -485.36089 
L 364.613281 -486.162704 
L 364.613281 -486.964517 
L 364.613281 -487.766331 
L 364.613281 -488.568144 
L 364.613281 -489.369958 
L 364.613281 -490.171771 
L 364.613281 -490.973584 
L 364.613281 -491.775398 
L 364.613281 -492.577211 
L 364.613281 -493.379025 
L 364.613281 -494.180838 
L 364.613281 -494.982652 
L 364.613281 -495.784465 
L 364.613281 -496.586278 
L 364.613281 -497.388092 
L 364.613281 -498.189905 
L 364.613281 -498.991719 
L 364.613281 -499.793532 
L 364.613281 -500.595346 
L 364.613281 -501.397159 
L 364.613281 -502.198972 
L 364.613281 -503.000786 
L 364.613281 -503.802599 
L 364.613281 -504.604413 
L 364.613281 -505.406226 
L 364.613281 -506.20804 
L 364.613281 -507.009853 
L 364.613281 -507.811666 
L 364.613281 -508.61348 
L 364.613281 -509.415293 
L 364.613281 -510.217107 
L 364.613281 -511.01892 
L 364.613281 -511.820734 
L 364.613281 -512.622547 
L 364.613281 -513.42436 
L 364.613281 -514.226174 
L 364.613281 -515.027987 
L 364.613281 -515.829801 
L 364.613281 -516.631614 
L 364.613281 -517.433428 
L 364.613281 -518.235241 
L 364.613281 -519.037054 
L 364.613281 -519.838868 
L 364.613281 -520.640681 
L 364.613281 -521.442495 
L 364.613281 -522.244308 
L 364.613281 -523.046122 
L 364.613281 -523.847935 
L 364.613281 -524.649748 
L 364.613281 -525.451562 
L 364.613281 -526.253375 
L 364.613281 -527.055189 
L 364.613281 -527.857002 
L 364.613281 -528.658816 
L 364.613281 -529.460629 
L 364.613281 -530.262443 
L 364.613281 -531.064256 
L 364.613281 -531.866069 
L 364.613281 -532.667883 
L 364.613281 -533.469696 
L 364.613281 -534.27151 
L 364.613281 -535.073323 
L 364.613281 -535.875137 
L 364.613281 -536.67695 
L 364.613281 -537.478763 
L 364.613281 -538.280577 
L 364.613281 -539.08239 
L 364.613281 -539.884204 
L 364.613281 -540.686017 
L 364.613281 -541.487831 
L 364.613281 -542.289644 
L 364.613281 -543.091457 
L 364.613281 -543.893271 
L 364.613281 -544.695084 
L 364.613281 -545.496898 
L 364.613281 -546.298711 
L 364.613281 -547.100525 
L 364.613281 -547.902338 
L 364.613281 -548.704151 
L 364.613281 -549.505965 
L 364.613281 -550.307778 
L 364.613281 -551.109592 
L 364.613281 -551.911405 
L 364.613281 -552.713219 
L 364.613281 -553.515032 
L 364.613281 -554.316845 
L 364.613281 -555.118659 
L 364.613281 -555.920472 
L 364.613281 -556.722286 
L 364.613281 -557.524099 
L 364.613281 -558.325913 
L 364.613281 -559.127726 
L 364.613281 -559.929539 
L 364.613281 -560.731353 
L 364.613281 -561.533166 
L 364.613281 -562.33498 
L 364.613281 -563.136793 
L 364.613281 -563.938607 
L 364.613281 -564.74042 
L 364.613281 -565.542233 
L 364.613281 -566.344047 
L 364.613281 -567.14586 
L 364.613281 -567.947674 
L 364.613281 -568.749487 
L 364.613281 -569.551301 
L 364.613281 -570.353114 
L 364.613281 -571.154927 
L 364.613281 -571.956741 
L 364.613281 -572.758554 
L 364.613281 -573.560368 
L 364.613281 -574.362181 
L 364.613281 -575.163995 
L 364.613281 -575.965808 
L 364.613281 -576.767621 
L 364.613281 -577.569435 
L 364.613281 -578.371248 
L 364.613281 -579.173062 
L 364.613281 -579.974875 
L 364.613281 -580.776689 
L 364.613281 -581.578502 
L 364.613281 -582.380315 
L 364.613281 -583.182129 
L 364.613281 -583.983942 
L 364.613281 -584.785756 
L 364.613281 -585.587569 
L 364.613281 -586.389383 
L 364.613281 -587.191196 
L 364.613281 -587.993009 
L 364.613281 -588.794823 
L 364.613281 -589.596636 
L 364.613281 -590.39845 
L 364.613281 -591.200263 
L 364.613281 -592.002077 
L 364.613281 -592.80389 
L 364.613281 -593.605704 
L 364.613281 -594.407517 
L 364.613281 -595.20933 
L 364.613281 -596.011144 
L 364.613281 -596.812957 
L 364.613281 -597.614771 
L 364.613281 -598.416584 
L 364.613281 -599.218398 
L 639.486974 -599.218398 
L 639.486974 -599.218398 
L 639.383492 -598.416584 
L 638.33488 -597.614771 
L 638.113202 -596.812957 
L 637.772372 -596.011144 
L 637.734539 -595.20933 
L 637.726039 -594.407517 
L 637.483115 -593.605704 
L 637.391858 -592.80389 
L 637.165728 -592.002077 
L 636.672978 -591.200263 
L 636.106076 -590.39845 
L 636.075813 -589.596636 
L 635.984988 -588.794823 
L 635.91545 -587.993009 
L 635.909995 -587.191196 
L 635.889265 -586.389383 
L 635.808824 -585.587569 
L 635.704542 -584.785756 
L 635.623024 -583.983942 
L 635.612729 -583.182129 
L 635.536748 -582.380315 
L 635.189562 -581.578502 
L 635.163745 -580.776689 
L 635.033717 -579.974875 
L 634.923614 -579.173062 
L 634.858396 -578.371248 
L 634.842394 -577.569435 
L 634.798835 -576.767621 
L 634.582379 -575.965808 
L 634.556444 -575.163995 
L 634.506501 -574.362181 
L 634.502441 -573.560368 
L 634.446238 -572.758554 
L 634.431098 -571.956741 
L 634.340483 -571.154927 
L 634.336095 -570.353114 
L 634.236199 -569.551301 
L 634.203185 -568.749487 
L 634.118 -567.947674 
L 634.117352 -567.14586 
L 634.101024 -566.344047 
L 634.031893 -565.542233 
L 634.007623 -564.74042 
L 633.943472 -563.938607 
L 633.908158 -563.136793 
L 633.84493 -562.33498 
L 633.839187 -561.533166 
L 633.761939 -560.731353 
L 633.757782 -559.929539 
L 633.752505 -559.127726 
L 633.678796 -558.325913 
L 633.619967 -557.524099 
L 633.619507 -556.722286 
L 633.605505 -555.920472 
L 633.600276 -555.118659 
L 633.457821 -554.316845 
L 633.445581 -553.515032 
L 633.440978 -552.713219 
L 633.392567 -551.911405 
L 633.313583 -551.109592 
L 633.214967 -550.307778 
L 633.118127 -549.505965 
L 633.108881 -548.704151 
L 633.088206 -547.902338 
L 632.891621 -547.100525 
L 632.840999 -546.298711 
L 632.821917 -545.496898 
L 632.768815 -544.695084 
L 632.758481 -543.893271 
L 632.733485 -543.091457 
L 632.714291 -542.289644 
L 632.706529 -541.487831 
L 632.663896 -540.686017 
L 632.656781 -539.884204 
L 632.625316 -539.08239 
L 632.622781 -538.280577 
L 632.599065 -537.478763 
L 632.547262 -536.67695 
L 632.528888 -535.875137 
L 632.481413 -535.073323 
L 632.462767 -534.27151 
L 632.392023 -533.469696 
L 632.379892 -532.667883 
L 632.339933 -531.866069 
L 632.311441 -531.064256 
L 632.25945 -530.262443 
L 632.188395 -529.460629 
L 632.129199 -528.658816 
L 632.07827 -527.857002 
L 632.02459 -527.055189 
L 632.013973 -526.253375 
L 631.995126 -525.451562 
L 631.958097 -524.649748 
L 631.954349 -523.847935 
L 631.952738 -523.046122 
L 631.906967 -522.244308 
L 631.89192 -521.442495 
L 631.867544 -520.640681 
L 631.753001 -519.838868 
L 631.721053 -519.037054 
L 631.715417 -518.235241 
L 631.691715 -517.433428 
L 631.668016 -516.631614 
L 631.597901 -515.829801 
L 631.493206 -515.027987 
L 631.466382 -514.226174 
L 631.413152 -513.42436 
L 631.225789 -512.622547 
L 631.190043 -511.820734 
L 631.13369 -511.01892 
L 631.050097 -510.217107 
L 631.035252 -509.415293 
L 630.943762 -508.61348 
L 630.840544 -507.811666 
L 630.752998 -507.009853 
L 630.623197 -506.20804 
L 630.600409 -505.406226 
L 630.561892 -504.604413 
L 630.501893 -503.802599 
L 630.373188 -503.000786 
L 630.345256 -502.198972 
L 630.33807 -501.397159 
L 630.331835 -500.595346 
L 630.249655 -499.793532 
L 630.221619 -498.991719 
L 630.192318 -498.189905 
L 630.161532 -497.388092 
L 630.145086 -496.586278 
L 630.093998 -495.784465 
L 630.030183 -494.982652 
L 629.830483 -494.180838 
L 629.815229 -493.379025 
L 629.796485 -492.577211 
L 629.795293 -491.775398 
L 629.763971 -490.973584 
L 629.705499 -490.171771 
L 629.704598 -489.369958 
L 629.69194 -488.568144 
L 629.585595 -487.766331 
L 629.56808 -486.964517 
L 629.567332 -486.162704 
L 629.465997 -485.36089 
L 629.430128 -484.559077 
L 629.385314 -483.757264 
L 629.378274 -482.95545 
L 629.366982 -482.153637 
L 629.295329 -481.351823 
L 629.276628 -480.55001 
L 629.14669 -479.748196 
L 629.119377 -478.946383 
L 629.029713 -478.14457 
L 628.856385 -477.342756 
L 628.780337 -476.540943 
L 628.772293 -475.739129 
L 628.679065 -474.937316 
L 628.665791 -474.135502 
L 628.621204 -473.333689 
L 628.506357 -472.531876 
L 628.495951 -471.730062 
L 628.483586 -470.928249 
L 628.464515 -470.126435 
L 628.413252 -469.324622 
L 628.236343 -468.522808 
L 628.19561 -467.720995 
L 628.104842 -466.919182 
L 628.098678 -466.117368 
L 628.056025 -465.315555 
L 627.993965 -464.513741 
L 627.96401 -463.711928 
L 627.833304 -462.910114 
L 627.794121 -462.108301 
L 627.759816 -461.306487 
L 627.679284 -460.504674 
L 627.519572 -459.702861 
L 627.438847 -458.901047 
L 627.403847 -458.099234 
L 627.371156 -457.29742 
L 627.032499 -456.495607 
L 627.006404 -455.693793 
L 626.994224 -454.89198 
L 626.868606 -454.090167 
L 626.834686 -453.288353 
L 626.755606 -452.48654 
L 626.733372 -451.684726 
L 626.713171 -450.882913 
L 626.676947 -450.081099 
L 626.593617 -449.279286 
L 626.584019 -448.477473 
L 626.538629 -447.675659 
L 626.43493 -446.873846 
L 626.399606 -446.072032 
L 626.353331 -445.270219 
L 626.341519 -444.468405 
L 626.236864 -443.666592 
L 626.206139 -442.864779 
L 626.122997 -442.062965 
L 626.013809 -441.261152 
L 626.013792 -440.459338 
L 625.995475 -439.657525 
L 625.943419 -438.855711 
L 625.892914 -438.053898 
L 625.769281 -437.252085 
L 625.677744 -436.450271 
L 625.642469 -435.648458 
L 625.605059 -434.846644 
L 625.552546 -434.044831 
L 625.496418 -433.243017 
L 625.434546 -432.441204 
L 625.372079 -431.639391 
L 625.297225 -430.837577 
L 625.286593 -430.035764 
L 625.256364 -429.23395 
L 625.234462 -428.432137 
L 625.179542 -427.630323 
L 625.151936 -426.82851 
L 625.102143 -426.026697 
L 625.073863 -425.224883 
L 625.031441 -424.42307 
L 625.024293 -423.621256 
L 625.021238 -422.819443 
L 624.878547 -422.017629 
L 624.8225 -421.215816 
L 624.820206 -420.414003 
L 624.791156 -419.612189 
L 624.704635 -418.810376 
L 624.703594 -418.008562 
L 624.557781 -417.206749 
L 624.375022 -416.404935 
L 624.317791 -415.603122 
L 624.308732 -414.801309 
L 624.26824 -413.999495 
L 624.232175 -413.197682 
L 624.179827 -412.395868 
L 624.071563 -411.594055 
L 624.038865 -410.792241 
L 623.965941 -409.990428 
L 623.960757 -409.188615 
L 623.888726 -408.386801 
L 623.833666 -407.584988 
L 623.796302 -406.783174 
L 623.650083 -405.981361 
L 623.591467 -405.179547 
L 623.431413 -404.377734 
L 623.377585 -403.575921 
L 623.366943 -402.774107 
L 623.316066 -401.972294 
L 623.264152 -401.17048 
L 623.147964 -400.368667 
L 623.117869 -399.566853 
L 622.804301 -398.76504 
L 622.794872 -397.963226 
L 622.775633 -397.161413 
L 622.57314 -396.3596 
L 622.519863 -395.557786 
L 622.477402 -394.755973 
L 622.364338 -393.954159 
L 622.353162 -393.152346 
L 622.218285 -392.350532 
L 622.182845 -391.548719 
L 621.950764 -390.746906 
L 621.855398 -389.945092 
L 621.82504 -389.143279 
L 621.626548 -388.341465 
L 621.605923 -387.539652 
L 621.491989 -386.737838 
L 621.448193 -385.936025 
L 621.444191 -385.134212 
L 621.310948 -384.332398 
L 621.286409 -383.530585 
L 621.260654 -382.728771 
L 621.235097 -381.926958 
L 621.104293 -381.125144 
L 621.088042 -380.323331 
L 621.03641 -379.521518 
L 620.957721 -378.719704 
L 620.871328 -377.917891 
L 620.780148 -377.116077 
L 620.697302 -376.314264 
L 620.467981 -375.51245 
L 620.458498 -374.710637 
L 620.3998 -373.908824 
L 620.396411 -373.10701 
L 620.386262 -372.305197 
L 620.352698 -371.503383 
L 620.34258 -370.70157 
L 620.326663 -369.899756 
L 620.313781 -369.097943 
L 620.174166 -368.29613 
L 620.073551 -367.494316 
L 619.955192 -366.692503 
L 619.941429 -365.890689 
L 619.928487 -365.088876 
L 619.841454 -364.287062 
L 619.814781 -363.485249 
L 619.791749 -362.683436 
L 619.791746 -361.881622 
L 619.669482 -361.079809 
L 619.666255 -360.277995 
L 619.489275 -359.476182 
L 619.475744 -358.674368 
L 619.451032 -357.872555 
L 619.3642 -357.070742 
L 619.329358 -356.268928 
L 619.260225 -355.467115 
L 619.221042 -354.665301 
L 619.148881 -353.863488 
L 619.085853 -353.061674 
L 619.037876 -352.259861 
L 618.987054 -351.458048 
L 618.977478 -350.656234 
L 618.966961 -349.854421 
L 618.906924 -349.052607 
L 618.888639 -348.250794 
L 618.855801 -347.44898 
L 618.810063 -346.647167 
L 618.667827 -345.845354 
L 618.633955 -345.04354 
L 618.504708 -344.241727 
L 618.486038 -343.439913 
L 618.442789 -342.6381 
L 618.434905 -341.836286 
L 618.399593 -341.034473 
L 618.107554 -340.23266 
L 618.020772 -339.430846 
L 618.007336 -338.629033 
L 617.757158 -337.827219 
L 617.755644 -337.025406 
L 617.740522 -336.223592 
L 617.721648 -335.421779 
L 617.705416 -334.619966 
L 617.556131 -333.818152 
L 617.089179 -333.016339 
L 617.060912 -332.214525 
L 617.010254 -331.412712 
L 616.889059 -330.610898 
L 616.443029 -329.809085 
L 616.240407 -329.007271 
L 616.238912 -328.205458 
L 616.210286 -327.403645 
L 616.192931 -326.601831 
L 616.188327 -325.800018 
L 616.094018 -324.998204 
L 616.041554 -324.196391 
L 616.017686 -323.394577 
L 615.950534 -322.592764 
L 615.884576 -321.790951 
L 615.877655 -320.989137 
L 615.741647 -320.187324 
L 615.710376 -319.38551 
L 615.694083 -318.583697 
L 615.548944 -317.781883 
L 615.385565 -316.98007 
L 615.376974 -316.178257 
L 615.316155 -315.376443 
L 615.236984 -314.57463 
L 615.194394 -313.772816 
L 614.975485 -312.971003 
L 614.956084 -312.169189 
L 614.919128 -311.367376 
L 614.888957 -310.565563 
L 614.857143 -309.763749 
L 614.82129 -308.961936 
L 614.814756 -308.160122 
L 614.027666 -307.358309 
L 613.963968 -306.556495 
L 613.906598 -305.754682 
L 613.813822 -304.952869 
L 613.753649 -304.151055 
L 613.600145 -303.349242 
L 613.424812 -302.547428 
L 613.336448 -301.745615 
L 613.132472 -300.943801 
L 613.036244 -300.141988 
L 612.939784 -299.340175 
L 612.847001 -298.538361 
L 612.831877 -297.736548 
L 612.750311 -296.934734 
L 612.634016 -296.132921 
L 612.541459 -295.331107 
L 612.406921 -294.529294 
L 612.155409 -293.727481 
L 611.599165 -292.925667 
L 611.567563 -292.123854 
L 611.540128 -291.32204 
L 611.513258 -290.520227 
L 611.333285 -289.718413 
L 611.302463 -288.9166 
L 611.11924 -288.114787 
L 610.941099 -287.312973 
L 610.77363 -286.51116 
L 610.267683 -285.709346 
L 610.258569 -284.907533 
L 610.043723 -284.105719 
L 609.966248 -283.303906 
L 609.459344 -282.502093 
L 609.448432 -281.700279 
L 608.884241 -280.898466 
L 608.472299 -280.096652 
L 608.326947 -279.294839 
L 607.82019 -278.493025 
L 607.522617 -277.691212 
L 607.27765 -276.889399 
L 607.181195 -276.087585 
L 606.893062 -275.285772 
L 606.553285 -274.483958 
L 606.46491 -273.682145 
L 606.317494 -272.880331 
L 606.078348 -272.078518 
L 605.94433 -271.276705 
L 605.868388 -270.474891 
L 605.701601 -269.673078 
L 605.171133 -268.871264 
L 605.117552 -268.069451 
L 605.11491 -267.267637 
L 605.097101 -266.465824 
L 604.990943 -265.66401 
L 604.990473 -264.862197 
L 604.54262 -264.060384 
L 604.374742 -263.25857 
L 604.304218 -262.456757 
L 603.91873 -261.654943 
L 603.599607 -260.85313 
L 603.588973 -260.051316 
L 602.69751 -259.249503 
L 602.635227 -258.44769 
L 602.492276 -257.645876 
L 602.408 -256.844063 
L 602.085395 -256.042249 
L 601.844358 -255.240436 
L 601.746282 -254.438622 
L 601.002658 -253.636809 
L 600.736466 -252.834996 
L 600.704017 -252.033182 
L 600.562785 -251.231369 
L 600.489972 -250.429555 
L 600.435272 -249.627742 
L 599.794807 -248.825928 
L 599.443729 -248.024115 
L 599.116071 -247.222302 
L 597.706882 -246.420488 
L 596.756628 -245.618675 
L 596.055588 -244.816861 
L 595.683946 -244.015048 
L 595.514487 -243.213234 
L 595.281047 -242.411421 
L 595.122937 -241.609608 
L 594.327589 -240.807794 
L 593.926805 -240.005981 
L 592.904481 -239.204167 
L 592.745081 -238.402354 
L 592.736332 -237.60054 
L 591.804254 -236.798727 
L 591.123531 -235.996914 
L 591.011504 -235.1951 
L 590.899288 -234.393287 
L 590.429167 -233.591473 
L 589.879717 -232.78966 
L 587.073739 -231.987846 
L 586.259918 -231.186033 
L 584.723682 -230.38422 
L 582.578621 -229.582406 
L 581.530415 -228.780593 
L 579.893915 -227.978779 
L 578.198272 -227.176966 
L 577.767965 -226.375152 
L 577.46615 -225.573339 
L 573.098392 -224.771526 
L 572.780567 -223.969712 
L 570.621982 -223.167899 
L 560.347386 -222.366085 
z
" style="stroke: #00a4bb; stroke-opacity: 0.7"/>
    </defs>
    <g clip-path="url(#pfbe0d4d276)">
     <use xlink:href="#m367a188332" x="0" y="720" style="fill: #00a4bb; fill-opacity: 0.7; stroke: #00a4bb; stroke-opacity: 0.7"/>
    </g>
   </g>
   <g id="PolyCollection_7">
    <defs>
     <path id="ma40e0d945a" d="M 364.613281 -608.038345 
L 364.613281 -608.038345 
L 364.613281 -608.038345 
L 364.613281 -608.038345 
z
" style="stroke: #00aa88; stroke-opacity: 0.7"/>
    </defs>
    <g clip-path="url(#pfbe0d4d276)">
     <use xlink:href="#ma40e0d945a" x="0" y="720" style="fill: #00aa88; fill-opacity: 0.7; stroke: #00aa88; stroke-opacity: 0.7"/>
    </g>
   </g>
   <g id="PolyCollection_8">
    <defs>
     <path id="mb080c2f247" d="M 368.042408 -616.858293 
L 364.613281 -616.858293 
L 364.613281 -617.660106 
L 364.613281 -618.46192 
L 364.613281 -619.263733 
L 420.225119 -619.263733 
L 420.225119 -619.263733 
L 416.514968 -618.46192 
L 398.299007 -617.660106 
L 368.042408 -616.858293 
z
" style="stroke: #00a400; stroke-opacity: 0.7"/>
    </defs>
    <g clip-path="url(#pfbe0d4d276)">
     <use xlink:href="#mb080c2f247" x="0" y="720" style="fill: #00a400; fill-opacity: 0.7; stroke: #00a400; stroke-opacity: 0.7"/>
    </g>
   </g>
   <g id="PolyCollection_9">
    <defs>
     <path id="me8a26bb522" d="M 366.635562 -628.083681 
L 364.613281 -628.083681 
L 364.613281 -628.885494 
L 364.613281 -629.687308 
L 364.613281 -630.489121 
L 364.613281 -631.290935 
L 364.613281 -632.092748 
L 364.613281 -632.894562 
L 364.613281 -633.696375 
L 364.613281 -634.498188 
L 364.613281 -635.300002 
L 364.613281 -636.101815 
L 417.291573 -636.101815 
L 417.291573 -636.101815 
L 413.537831 -635.300002 
L 406.817314 -634.498188 
L 404.610242 -633.696375 
L 403.386619 -632.894562 
L 399.532565 -632.092748 
L 397.214082 -631.290935 
L 396.900563 -630.489121 
L 393.393894 -629.687308 
L 369.679469 -628.885494 
L 366.635562 -628.083681 
z
" style="stroke: #00d200; stroke-opacity: 0.7"/>
    </defs>
    <g clip-path="url(#pfbe0d4d276)">
     <use xlink:href="#me8a26bb522" x="0" y="720" style="fill: #00d200; fill-opacity: 0.7; stroke: #00d200; stroke-opacity: 0.7"/>
    </g>
   </g>
   <g id="PolyCollection_10">
    <defs>
     <path id="m417435fda5" d="M 364.613281 -644.921763 
L 364.613281 -644.921763 
L 364.613281 -644.921763 
L 364.613281 -644.921763 
z
" style="stroke: #00ff00; stroke-opacity: 0.7"/>
    </defs>
    <g clip-path="url(#pfbe0d4d276)">
     <use xlink:href="#m417435fda5" x="0" y="720" style="fill: #00ff00; fill-opacity: 0.7; stroke: #00ff00; stroke-opacity: 0.7"/>
    </g>
   </g>
   <g id="PolyCollection_11">
    <defs>
     <path id="m465c3d14de" d="M 340.904783 -653.741711 
L 364.613281 -653.741711 
L 364.613281 -654.543524 
L 364.613281 -655.345338 
L 364.613281 -656.147151 
L 364.613281 -656.948964 
L 364.613281 -657.750778 
L 364.613281 -658.552591 
L 364.613281 -659.354405 
L 364.613281 -660.156218 
L 364.613281 -660.958032 
L 364.613281 -661.759845 
L 364.613281 -662.561659 
L 364.613281 -663.363472 
L 364.613281 -664.165285 
L 424.852831 -664.165285 
L 424.852831 -664.165285 
L 419.184227 -663.363472 
L 415.823685 -662.561659 
L 409.59006 -661.759845 
L 408.401808 -660.958032 
L 407.489047 -660.156218 
L 406.092366 -659.354405 
L 405.772241 -658.552591 
L 404.049886 -657.750778 
L 397.44802 -656.948964 
L 379.507194 -656.147151 
L 377.01377 -655.345338 
L 372.497788 -654.543524 
L 340.904783 -653.741711 
z
" style="stroke: #ccf900; stroke-opacity: 0.7"/>
    </defs>
    <g clip-path="url(#pfbe0d4d276)">
     <use xlink:href="#m465c3d14de" x="0" y="720" style="fill: #ccf900; fill-opacity: 0.7; stroke: #ccf900; stroke-opacity: 0.7"/>
    </g>
   </g>
   <g id="PolyCollection_12">
    <defs>
     <path id="m092a02e368" d="M 364.613281 -672.985233 
L 364.613281 -672.985233 
L 364.613281 -672.985233 
L 364.613281 -672.985233 
z
" style="stroke: #f9d700; stroke-opacity: 0.7"/>
    </defs>
    <g clip-path="url(#pfbe0d4d276)">
     <use xlink:href="#m092a02e368" x="0" y="720" style="fill: #f9d700; fill-opacity: 0.7; stroke: #f9d700; stroke-opacity: 0.7"/>
    </g>
   </g>
   <g id="PolyCollection_13">
    <defs>
     <path id="m05422f3f5d" d="M 364.613281 -681.805181 
L 364.613281 -681.805181 
L 364.613281 -681.805181 
L 364.613281 -681.805181 
z
" style="stroke: #ff9900; stroke-opacity: 0.7"/>
    </defs>
    <g clip-path="url(#pfbe0d4d276)">
     <use xlink:href="#m05422f3f5d" x="0" y="720" style="fill: #ff9900; fill-opacity: 0.7; stroke: #ff9900; stroke-opacity: 0.7"/>
    </g>
   </g>
   <g id="PolyCollection_14">
    <defs>
     <path id="mcf7f82dbda" d="M 364.613281 -690.625129 
L 364.613281 -690.625129 
L 364.613281 -690.625129 
L 364.613281 -690.625129 
z
" style="stroke: #f40000; stroke-opacity: 0.7"/>
    </defs>
    <g clip-path="url(#pfbe0d4d276)">
     <use xlink:href="#mcf7f82dbda" x="0" y="720" style="fill: #f40000; fill-opacity: 0.7; stroke: #f40000; stroke-opacity: 0.7"/>
    </g>
   </g>
   <g id="PolyCollection_15">
    <defs>
     <path id="mcb184802a3" d="M 364.613281 -699.445076 
L 364.613281 -699.445076 
L 364.613281 -699.445076 
L 364.613281 -699.445076 
z
" style="stroke: #d20000; stroke-opacity: 0.7"/>
    </defs>
    <g clip-path="url(#pfbe0d4d276)">
     <use xlink:href="#mcb184802a3" x="0" y="720" style="fill: #d20000; fill-opacity: 0.7; stroke: #d20000; stroke-opacity: 0.7"/>
    </g>
   </g>
   <g id="matplotlib.axis_1">
    <g id="xtick_1">
     <g id="line2d_1">
      <defs>
       <path id="me719a7f563" d="M 0 0 
L 0 3.5 
" style="stroke: #000000; stroke-width: 0.8"/>
      </defs>
      <g>
       <use xlink:href="#me719a7f563" x="27.978125" y="678.84375" style="stroke: #000000; stroke-width: 0.8"/>
      </g>
     </g>
     <g id="text_1">
      <!-- −1.0 -->
      <g transform="translate(15.836719 693.442188) scale(0.1 -0.1)">
       <defs>
        <path id="DejaVuSans-2212" d="M 678 2272 
L 4684 2272 
L 4684 1741 
L 678 1741 
L 678 2272 
z
" transform="scale(0.015625)"/>
        <path id="DejaVuSans-31" d="M 794 531 
L 1825 531 
L 1825 4091 
L 703 3866 
L 703 4441 
L 1819 4666 
L 2450 4666 
L 2450 531 
L 3481 531 
L 3481 0 
L 794 0 
L 794 531 
z
" transform="scale(0.015625)"/>
        <path id="DejaVuSans-2e" d="M 684 794 
L 1344 794 
L 1344 0 
L 684 0 
L 684 794 
z
" transform="scale(0.015625)"/>
        <path id="DejaVuSans-30" d="M 2034 4250 
Q 1547 4250 1301 3770 
Q 1056 3291 1056 2328 
Q 1056 1369 1301 889 
Q 1547 409 2034 409 
Q 2525 409 2770 889 
Q 3016 1369 3016 2328 
Q 3016 3291 2770 3770 
Q 2525 4250 2034 4250 
z
M 2034 4750 
Q 2819 4750 3233 4129 
Q 3647 3509 3647 2328 
Q 3647 1150 3233 529 
Q 2819 -91 2034 -91 
Q 1250 -91 836 529 
Q 422 1150 422 2328 
Q 422 3509 836 4129 
Q 1250 4750 2034 4750 
z
" transform="scale(0.015625)"/>
       </defs>
       <use xlink:href="#DejaVuSans-2212"/>
       <use xlink:href="#DejaVuSans-31" x="83.789062"/>
       <use xlink:href="#DejaVuSans-2e" x="147.412109"/>
       <use xlink:href="#DejaVuSans-30" x="179.199219"/>
      </g>
     </g>
    </g>
    <g id="xtick_2">
     <g id="line2d_2">
      <g>
       <use xlink:href="#me719a7f563" x="95.305156" y="678.84375" style="stroke: #000000; stroke-width: 0.8"/>
      </g>
     </g>
     <g id="text_2">
      <!-- −0.8 -->
      <g transform="translate(83.16375 693.442188) scale(0.1 -0.1)">
       <defs>
        <path id="DejaVuSans-38" d="M 2034 2216 
Q 1584 2216 1326 1975 
Q 1069 1734 1069 1313 
Q 1069 891 1326 650 
Q 1584 409 2034 409 
Q 2484 409 2743 651 
Q 3003 894 3003 1313 
Q 3003 1734 2745 1975 
Q 2488 2216 2034 2216 
z
M 1403 2484 
Q 997 2584 770 2862 
Q 544 3141 544 3541 
Q 544 4100 942 4425 
Q 1341 4750 2034 4750 
Q 2731 4750 3128 4425 
Q 3525 4100 3525 3541 
Q 3525 3141 3298 2862 
Q 3072 2584 2669 2484 
Q 3125 2378 3379 2068 
Q 3634 1759 3634 1313 
Q 3634 634 3220 271 
Q 2806 -91 2034 -91 
Q 1263 -91 848 271 
Q 434 634 434 1313 
Q 434 1759 690 2068 
Q 947 2378 1403 2484 
z
M 1172 3481 
Q 1172 3119 1398 2916 
Q 1625 2713 2034 2713 
Q 2441 2713 2670 2916 
Q 2900 3119 2900 3481 
Q 2900 3844 2670 4047 
Q 2441 4250 2034 4250 
Q 1625 4250 1398 4047 
Q 1172 3844 1172 3481 
z
" transform="scale(0.015625)"/>
       </defs>
       <use xlink:href="#DejaVuSans-2212"/>
       <use xlink:href="#DejaVuSans-30" x="83.789062"/>
       <use xlink:href="#DejaVuSans-2e" x="147.412109"/>
       <use xlink:href="#DejaVuSans-38" x="179.199219"/>
      </g>
     </g>
    </g>
    <g id="xtick_3">
     <g id="line2d_3">
      <g>
       <use xlink:href="#me719a7f563" x="162.632188" y="678.84375" style="stroke: #000000; stroke-width: 0.8"/>
      </g>
     </g>
     <g id="text_3">
      <!-- −0.6 -->
      <g transform="translate(150.490781 693.442188) scale(0.1 -0.1)">
       <defs>
        <path id="DejaVuSans-36" d="M 2113 2584 
Q 1688 2584 1439 2293 
Q 1191 2003 1191 1497 
Q 1191 994 1439 701 
Q 1688 409 2113 409 
Q 2538 409 2786 701 
Q 3034 994 3034 1497 
Q 3034 2003 2786 2293 
Q 2538 2584 2113 2584 
z
M 3366 4563 
L 3366 3988 
Q 3128 4100 2886 4159 
Q 2644 4219 2406 4219 
Q 1781 4219 1451 3797 
Q 1122 3375 1075 2522 
Q 1259 2794 1537 2939 
Q 1816 3084 2150 3084 
Q 2853 3084 3261 2657 
Q 3669 2231 3669 1497 
Q 3669 778 3244 343 
Q 2819 -91 2113 -91 
Q 1303 -91 875 529 
Q 447 1150 447 2328 
Q 447 3434 972 4092 
Q 1497 4750 2381 4750 
Q 2619 4750 2861 4703 
Q 3103 4656 3366 4563 
z
" transform="scale(0.015625)"/>
       </defs>
       <use xlink:href="#DejaVuSans-2212"/>
       <use xlink:href="#DejaVuSans-30" x="83.789062"/>
       <use xlink:href="#DejaVuSans-2e" x="147.412109"/>
       <use xlink:href="#DejaVuSans-36" x="179.199219"/>
      </g>
     </g>
    </g>
    <g id="xtick_4">
     <g id="line2d_4">
      <g>
       <use xlink:href="#me719a7f563" x="229.959219" y="678.84375" style="stroke: #000000; stroke-width: 0.8"/>
      </g>
     </g>
     <g id="text_4">
      <!-- −0.4 -->
      <g transform="translate(217.817813 693.442188) scale(0.1 -0.1)">
       <defs>
        <path id="DejaVuSans-34" d="M 2419 4116 
L 825 1625 
L 2419 1625 
L 2419 4116 
z
M 2253 4666 
L 3047 4666 
L 3047 1625 
L 3713 1625 
L 3713 1100 
L 3047 1100 
L 3047 0 
L 2419 0 
L 2419 1100 
L 313 1100 
L 313 1709 
L 2253 4666 
z
" transform="scale(0.015625)"/>
       </defs>
       <use xlink:href="#DejaVuSans-2212"/>
       <use xlink:href="#DejaVuSans-30" x="83.789062"/>
       <use xlink:href="#DejaVuSans-2e" x="147.412109"/>
       <use xlink:href="#DejaVuSans-34" x="179.199219"/>
      </g>
     </g>
    </g>
    <g id="xtick_5">
     <g id="line2d_5">
      <g>
       <use xlink:href="#me719a7f563" x="297.28625" y="678.84375" style="stroke: #000000; stroke-width: 0.8"/>
      </g>
     </g>
     <g id="text_5">
      <!-- −0.2 -->
      <g transform="translate(285.144844 693.442188) scale(0.1 -0.1)">
       <defs>
        <path id="DejaVuSans-32" d="M 1228 531 
L 3431 531 
L 3431 0 
L 469 0 
L 469 531 
Q 828 903 1448 1529 
Q 2069 2156 2228 2338 
Q 2531 2678 2651 2914 
Q 2772 3150 2772 3378 
Q 2772 3750 2511 3984 
Q 2250 4219 1831 4219 
Q 1534 4219 1204 4116 
Q 875 4013 500 3803 
L 500 4441 
Q 881 4594 1212 4672 
Q 1544 4750 1819 4750 
Q 2544 4750 2975 4387 
Q 3406 4025 3406 3419 
Q 3406 3131 3298 2873 
Q 3191 2616 2906 2266 
Q 2828 2175 2409 1742 
Q 1991 1309 1228 531 
z
" transform="scale(0.015625)"/>
       </defs>
       <use xlink:href="#DejaVuSans-2212"/>
       <use xlink:href="#DejaVuSans-30" x="83.789062"/>
       <use xlink:href="#DejaVuSans-2e" x="147.412109"/>
       <use xlink:href="#DejaVuSans-32" x="179.199219"/>
      </g>
     </g>
    </g>
    <g id="xtick_6">
     <g id="line2d_6">
      <g>
       <use xlink:href="#me719a7f563" x="364.613281" y="678.84375" style="stroke: #000000; stroke-width: 0.8"/>
      </g>
     </g>
     <g id="text_6">
      <!-- 0.0 -->
      <g transform="translate(356.661719 693.442188) scale(0.1 -0.1)">
       <use xlink:href="#DejaVuSans-30"/>
       <use xlink:href="#DejaVuSans-2e" x="63.623047"/>
       <use xlink:href="#DejaVuSans-30" x="95.410156"/>
      </g>
     </g>
    </g>
    <g id="xtick_7">
     <g id="line2d_7">
      <g>
       <use xlink:href="#me719a7f563" x="431.940313" y="678.84375" style="stroke: #000000; stroke-width: 0.8"/>
      </g>
     </g>
     <g id="text_7">
      <!-- 0.2 -->
      <g transform="translate(423.98875 693.442188) scale(0.1 -0.1)">
       <use xlink:href="#DejaVuSans-30"/>
       <use xlink:href="#DejaVuSans-2e" x="63.623047"/>
       <use xlink:href="#DejaVuSans-32" x="95.410156"/>
      </g>
     </g>
    </g>
    <g id="xtick_8">
     <g id="line2d_8">
      <g>
       <use xlink:href="#me719a7f563" x="499.267344" y="678.84375" style="stroke: #000000; stroke-width: 0.8"/>
      </g>
     </g>
     <g id="text_8">
      <!-- 0.4 -->
      <g transform="translate(491.315781 693.442188) scale(0.1 -0.1)">
       <use xlink:href="#DejaVuSans-30"/>
       <use xlink:href="#DejaVuSans-2e" x="63.623047"/>
       <use xlink:href="#DejaVuSans-34" x="95.410156"/>
      </g>
     </g>
    </g>
    <g id="xtick_9">
     <g id="line2d_9">
      <g>
       <use xlink:href="#me719a7f563" x="566.594375" y="678.84375" style="stroke: #000000; stroke-width: 0.8"/>
      </g>
     </g>
     <g id="text_9">
      <!-- 0.6 -->
      <g transform="translate(558.642812 693.442188) scale(0.1 -0.1)">
       <use xlink:href="#DejaVuSans-30"/>
       <use xlink:href="#DejaVuSans-2e" x="63.623047"/>
       <use xlink:href="#DejaVuSans-36" x="95.410156"/>
      </g>
     </g>
    </g>
    <g id="xtick_10">
     <g id="line2d_10">
      <g>
       <use xlink:href="#me719a7f563" x="633.921406" y="678.84375" style="stroke: #000000; stroke-width: 0.8"/>
      </g>
     </g>
     <g id="text_10">
      <!-- 0.8 -->
      <g transform="translate(625.969844 693.442188) scale(0.1 -0.1)">
       <use xlink:href="#DejaVuSans-30"/>
       <use xlink:href="#DejaVuSans-2e" x="63.623047"/>
       <use xlink:href="#DejaVuSans-38" x="95.410156"/>
      </g>
     </g>
    </g>
    <g id="xtick_11">
     <g id="line2d_11">
      <g>
       <use xlink:href="#me719a7f563" x="701.248437" y="678.84375" style="stroke: #000000; stroke-width: 0.8"/>
      </g>
     </g>
     <g id="text_11">
      <!-- 1.0 -->
      <g transform="translate(693.296875 693.442188) scale(0.1 -0.1)">
       <use xlink:href="#DejaVuSans-31"/>
       <use xlink:href="#DejaVuSans-2e" x="63.623047"/>
       <use xlink:href="#DejaVuSans-30" x="95.410156"/>
      </g>
     </g>
    </g>
    <g id="text_12">
     <!-- Silhouette coefficient -->
     <g transform="translate(311.463281 707.120313) scale(0.1 -0.1)">
      <defs>
       <path id="DejaVuSans-53" d="M 3425 4513 
L 3425 3897 
Q 3066 4069 2747 4153 
Q 2428 4238 2131 4238 
Q 1616 4238 1336 4038 
Q 1056 3838 1056 3469 
Q 1056 3159 1242 3001 
Q 1428 2844 1947 2747 
L 2328 2669 
Q 3034 2534 3370 2195 
Q 3706 1856 3706 1288 
Q 3706 609 3251 259 
Q 2797 -91 1919 -91 
Q 1588 -91 1214 -16 
Q 841 59 441 206 
L 441 856 
Q 825 641 1194 531 
Q 1563 422 1919 422 
Q 2459 422 2753 634 
Q 3047 847 3047 1241 
Q 3047 1584 2836 1778 
Q 2625 1972 2144 2069 
L 1759 2144 
Q 1053 2284 737 2584 
Q 422 2884 422 3419 
Q 422 4038 858 4394 
Q 1294 4750 2059 4750 
Q 2388 4750 2728 4690 
Q 3069 4631 3425 4513 
z
" transform="scale(0.015625)"/>
       <path id="DejaVuSans-69" d="M 603 3500 
L 1178 3500 
L 1178 0 
L 603 0 
L 603 3500 
z
M 603 4863 
L 1178 4863 
L 1178 4134 
L 603 4134 
L 603 4863 
z
" transform="scale(0.015625)"/>
       <path id="DejaVuSans-6c" d="M 603 4863 
L 1178 4863 
L 1178 0 
L 603 0 
L 603 4863 
z
" transform="scale(0.015625)"/>
       <path id="DejaVuSans-68" d="M 3513 2113 
L 3513 0 
L 2938 0 
L 2938 2094 
Q 2938 2591 2744 2837 
Q 2550 3084 2163 3084 
Q 1697 3084 1428 2787 
Q 1159 2491 1159 1978 
L 1159 0 
L 581 0 
L 581 4863 
L 1159 4863 
L 1159 2956 
Q 1366 3272 1645 3428 
Q 1925 3584 2291 3584 
Q 2894 3584 3203 3211 
Q 3513 2838 3513 2113 
z
" transform="scale(0.015625)"/>
       <path id="DejaVuSans-6f" d="M 1959 3097 
Q 1497 3097 1228 2736 
Q 959 2375 959 1747 
Q 959 1119 1226 758 
Q 1494 397 1959 397 
Q 2419 397 2687 759 
Q 2956 1122 2956 1747 
Q 2956 2369 2687 2733 
Q 2419 3097 1959 3097 
z
M 1959 3584 
Q 2709 3584 3137 3096 
Q 3566 2609 3566 1747 
Q 3566 888 3137 398 
Q 2709 -91 1959 -91 
Q 1206 -91 779 398 
Q 353 888 353 1747 
Q 353 2609 779 3096 
Q 1206 3584 1959 3584 
z
" transform="scale(0.015625)"/>
       <path id="DejaVuSans-75" d="M 544 1381 
L 544 3500 
L 1119 3500 
L 1119 1403 
Q 1119 906 1312 657 
Q 1506 409 1894 409 
Q 2359 409 2629 706 
Q 2900 1003 2900 1516 
L 2900 3500 
L 3475 3500 
L 3475 0 
L 2900 0 
L 2900 538 
Q 2691 219 2414 64 
Q 2138 -91 1772 -91 
Q 1169 -91 856 284 
Q 544 659 544 1381 
z
M 1991 3584 
L 1991 3584 
z
" transform="scale(0.015625)"/>
       <path id="DejaVuSans-65" d="M 3597 1894 
L 3597 1613 
L 953 1613 
Q 991 1019 1311 708 
Q 1631 397 2203 397 
Q 2534 397 2845 478 
Q 3156 559 3463 722 
L 3463 178 
Q 3153 47 2828 -22 
Q 2503 -91 2169 -91 
Q 1331 -91 842 396 
Q 353 884 353 1716 
Q 353 2575 817 3079 
Q 1281 3584 2069 3584 
Q 2775 3584 3186 3129 
Q 3597 2675 3597 1894 
z
M 3022 2063 
Q 3016 2534 2758 2815 
Q 2500 3097 2075 3097 
Q 1594 3097 1305 2825 
Q 1016 2553 972 2059 
L 3022 2063 
z
" transform="scale(0.015625)"/>
       <path id="DejaVuSans-74" d="M 1172 4494 
L 1172 3500 
L 2356 3500 
L 2356 3053 
L 1172 3053 
L 1172 1153 
Q 1172 725 1289 603 
Q 1406 481 1766 481 
L 2356 481 
L 2356 0 
L 1766 0 
Q 1100 0 847 248 
Q 594 497 594 1153 
L 594 3053 
L 172 3053 
L 172 3500 
L 594 3500 
L 594 4494 
L 1172 4494 
z
" transform="scale(0.015625)"/>
       <path id="DejaVuSans-20" transform="scale(0.015625)"/>
       <path id="DejaVuSans-63" d="M 3122 3366 
L 3122 2828 
Q 2878 2963 2633 3030 
Q 2388 3097 2138 3097 
Q 1578 3097 1268 2742 
Q 959 2388 959 1747 
Q 959 1106 1268 751 
Q 1578 397 2138 397 
Q 2388 397 2633 464 
Q 2878 531 3122 666 
L 3122 134 
Q 2881 22 2623 -34 
Q 2366 -91 2075 -91 
Q 1284 -91 818 406 
Q 353 903 353 1747 
Q 353 2603 823 3093 
Q 1294 3584 2113 3584 
Q 2378 3584 2631 3529 
Q 2884 3475 3122 3366 
z
" transform="scale(0.015625)"/>
       <path id="DejaVuSans-66" d="M 2375 4863 
L 2375 4384 
L 1825 4384 
Q 1516 4384 1395 4259 
Q 1275 4134 1275 3809 
L 1275 3500 
L 2222 3500 
L 2222 3053 
L 1275 3053 
L 1275 0 
L 697 0 
L 697 3053 
L 147 3053 
L 147 3500 
L 697 3500 
L 697 3744 
Q 697 4328 969 4595 
Q 1241 4863 1831 4863 
L 2375 4863 
z
" transform="scale(0.015625)"/>
       <path id="DejaVuSans-6e" d="M 3513 2113 
L 3513 0 
L 2938 0 
L 2938 2094 
Q 2938 2591 2744 2837 
Q 2550 3084 2163 3084 
Q 1697 3084 1428 2787 
Q 1159 2491 1159 1978 
L 1159 0 
L 581 0 
L 581 3500 
L 1159 3500 
L 1159 2956 
Q 1366 3272 1645 3428 
Q 1925 3584 2291 3584 
Q 2894 3584 3203 3211 
Q 3513 2838 3513 2113 
z
" transform="scale(0.015625)"/>
      </defs>
      <use xlink:href="#DejaVuSans-53"/>
      <use xlink:href="#DejaVuSans-69" x="63.476562"/>
      <use xlink:href="#DejaVuSans-6c" x="91.259766"/>
      <use xlink:href="#DejaVuSans-68" x="119.042969"/>
      <use xlink:href="#DejaVuSans-6f" x="182.421875"/>
      <use xlink:href="#DejaVuSans-75" x="243.603516"/>
      <use xlink:href="#DejaVuSans-65" x="306.982422"/>
      <use xlink:href="#DejaVuSans-74" x="368.505859"/>
      <use xlink:href="#DejaVuSans-74" x="407.714844"/>
      <use xlink:href="#DejaVuSans-65" x="446.923828"/>
      <use xlink:href="#DejaVuSans-20" x="508.447266"/>
      <use xlink:href="#DejaVuSans-63" x="540.234375"/>
      <use xlink:href="#DejaVuSans-6f" x="595.214844"/>
      <use xlink:href="#DejaVuSans-65" x="656.396484"/>
      <use xlink:href="#DejaVuSans-66" x="717.919922"/>
      <use xlink:href="#DejaVuSans-66" x="753.125"/>
      <use xlink:href="#DejaVuSans-69" x="788.330078"/>
      <use xlink:href="#DejaVuSans-63" x="816.113281"/>
      <use xlink:href="#DejaVuSans-69" x="871.09375"/>
      <use xlink:href="#DejaVuSans-65" x="898.876953"/>
      <use xlink:href="#DejaVuSans-6e" x="960.400391"/>
      <use xlink:href="#DejaVuSans-74" x="1023.779297"/>
     </g>
    </g>
   </g>
   <g id="matplotlib.axis_2">
    <g id="text_13">
     <!-- Predicted label -->
     <g transform="translate(18.398438 382.441707) rotate(-90) scale(0.1 -0.1)">
      <defs>
       <path id="DejaVuSans-50" d="M 1259 4147 
L 1259 2394 
L 2053 2394 
Q 2494 2394 2734 2622 
Q 2975 2850 2975 3272 
Q 2975 3691 2734 3919 
Q 2494 4147 2053 4147 
L 1259 4147 
z
M 628 4666 
L 2053 4666 
Q 2838 4666 3239 4311 
Q 3641 3956 3641 3272 
Q 3641 2581 3239 2228 
Q 2838 1875 2053 1875 
L 1259 1875 
L 1259 0 
L 628 0 
L 628 4666 
z
" transform="scale(0.015625)"/>
       <path id="DejaVuSans-72" d="M 2631 2963 
Q 2534 3019 2420 3045 
Q 2306 3072 2169 3072 
Q 1681 3072 1420 2755 
Q 1159 2438 1159 1844 
L 1159 0 
L 581 0 
L 581 3500 
L 1159 3500 
L 1159 2956 
Q 1341 3275 1631 3429 
Q 1922 3584 2338 3584 
Q 2397 3584 2469 3576 
Q 2541 3569 2628 3553 
L 2631 2963 
z
" transform="scale(0.015625)"/>
       <path id="DejaVuSans-64" d="M 2906 2969 
L 2906 4863 
L 3481 4863 
L 3481 0 
L 2906 0 
L 2906 525 
Q 2725 213 2448 61 
Q 2172 -91 1784 -91 
Q 1150 -91 751 415 
Q 353 922 353 1747 
Q 353 2572 751 3078 
Q 1150 3584 1784 3584 
Q 2172 3584 2448 3432 
Q 2725 3281 2906 2969 
z
M 947 1747 
Q 947 1113 1208 752 
Q 1469 391 1925 391 
Q 2381 391 2643 752 
Q 2906 1113 2906 1747 
Q 2906 2381 2643 2742 
Q 2381 3103 1925 3103 
Q 1469 3103 1208 2742 
Q 947 2381 947 1747 
z
" transform="scale(0.015625)"/>
       <path id="DejaVuSans-61" d="M 2194 1759 
Q 1497 1759 1228 1600 
Q 959 1441 959 1056 
Q 959 750 1161 570 
Q 1363 391 1709 391 
Q 2188 391 2477 730 
Q 2766 1069 2766 1631 
L 2766 1759 
L 2194 1759 
z
M 3341 1997 
L 3341 0 
L 2766 0 
L 2766 531 
Q 2569 213 2275 61 
Q 1981 -91 1556 -91 
Q 1019 -91 701 211 
Q 384 513 384 1019 
Q 384 1609 779 1909 
Q 1175 2209 1959 2209 
L 2766 2209 
L 2766 2266 
Q 2766 2663 2505 2880 
Q 2244 3097 1772 3097 
Q 1472 3097 1187 3025 
Q 903 2953 641 2809 
L 641 3341 
Q 956 3463 1253 3523 
Q 1550 3584 1831 3584 
Q 2591 3584 2966 3190 
Q 3341 2797 3341 1997 
z
" transform="scale(0.015625)"/>
       <path id="DejaVuSans-62" d="M 3116 1747 
Q 3116 2381 2855 2742 
Q 2594 3103 2138 3103 
Q 1681 3103 1420 2742 
Q 1159 2381 1159 1747 
Q 1159 1113 1420 752 
Q 1681 391 2138 391 
Q 2594 391 2855 752 
Q 3116 1113 3116 1747 
z
M 1159 2969 
Q 1341 3281 1617 3432 
Q 1894 3584 2278 3584 
Q 2916 3584 3314 3078 
Q 3713 2572 3713 1747 
Q 3713 922 3314 415 
Q 2916 -91 2278 -91 
Q 1894 -91 1617 61 
Q 1341 213 1159 525 
L 1159 0 
L 581 0 
L 581 4863 
L 1159 4863 
L 1159 2969 
z
" transform="scale(0.015625)"/>
      </defs>
      <use xlink:href="#DejaVuSans-50"/>
      <use xlink:href="#DejaVuSans-72" x="58.552734"/>
      <use xlink:href="#DejaVuSans-65" x="97.416016"/>
      <use xlink:href="#DejaVuSans-64" x="158.939453"/>
      <use xlink:href="#DejaVuSans-69" x="222.416016"/>
      <use xlink:href="#DejaVuSans-63" x="250.199219"/>
      <use xlink:href="#DejaVuSans-74" x="305.179688"/>
      <use xlink:href="#DejaVuSans-65" x="344.388672"/>
      <use xlink:href="#DejaVuSans-64" x="405.912109"/>
      <use xlink:href="#DejaVuSans-20" x="469.388672"/>
      <use xlink:href="#DejaVuSans-6c" x="501.175781"/>
      <use xlink:href="#DejaVuSans-61" x="528.958984"/>
      <use xlink:href="#DejaVuSans-62" x="590.238281"/>
      <use xlink:href="#DejaVuSans-65" x="653.714844"/>
      <use xlink:href="#DejaVuSans-6c" x="715.238281"/>
     </g>
    </g>
   </g>
   <g id="line2d_12">
    <path d="M 556.441398 678.84375 
L 556.441398 11.734976 
" clip-path="url(#pfbe0d4d276)" style="fill: none; stroke: #ff0000; stroke-width: 1.5; stroke-linecap: square"/>
   </g>
   <g id="patch_3">
    <path d="M 27.978125 678.84375 
L 27.978125 11.734976 
" style="fill: none; stroke: #000000; stroke-width: 0.8; stroke-linejoin: miter; stroke-linecap: square"/>
   </g>
   <g id="patch_4">
    <path d="M 701.248437 678.84375 
L 701.248437 11.734976 
" style="fill: none; stroke: #000000; stroke-width: 0.8; stroke-linejoin: miter; stroke-linecap: square"/>
   </g>
   <g id="patch_5">
    <path d="M 27.978125 678.84375 
L 701.248437 678.84375 
" style="fill: none; stroke: #000000; stroke-width: 0.8; stroke-linejoin: miter; stroke-linecap: square"/>
   </g>
   <g id="patch_6">
    <path d="M 27.978125 11.734976 
L 701.248437 11.734976 
" style="fill: none; stroke: #000000; stroke-width: 0.8; stroke-linejoin: miter; stroke-linecap: square"/>
   </g>
   <g id="text_14">
    <!-- 0 -->
    <g transform="translate(347.781523 615.901396) scale(0.1 -0.1)">
     <use xlink:href="#DejaVuSans-30"/>
    </g>
   </g>
   <g id="text_15">
    <!-- 1 -->
    <g transform="translate(347.781523 551.355415) scale(0.1 -0.1)">
     <use xlink:href="#DejaVuSans-31"/>
    </g>
   </g>
   <g id="text_16">
    <!-- 2 -->
    <g transform="translate(347.781523 540.93184) scale(0.1 -0.1)">
     <use xlink:href="#DejaVuSans-32"/>
    </g>
   </g>
   <g id="text_17">
    <!-- 3 -->
    <g transform="translate(347.781523 530.508265) scale(0.1 -0.1)">
     <defs>
      <path id="DejaVuSans-33" d="M 2597 2516 
Q 3050 2419 3304 2112 
Q 3559 1806 3559 1356 
Q 3559 666 3084 287 
Q 2609 -91 1734 -91 
Q 1441 -91 1130 -33 
Q 819 25 488 141 
L 488 750 
Q 750 597 1062 519 
Q 1375 441 1716 441 
Q 2309 441 2620 675 
Q 2931 909 2931 1356 
Q 2931 1769 2642 2001 
Q 2353 2234 1838 2234 
L 1294 2234 
L 1294 2753 
L 1863 2753 
Q 2328 2753 2575 2939 
Q 2822 3125 2822 3475 
Q 2822 3834 2567 4026 
Q 2313 4219 1838 4219 
Q 1578 4219 1281 4162 
Q 984 4106 628 3988 
L 628 4550 
Q 988 4650 1302 4700 
Q 1616 4750 1894 4750 
Q 2613 4750 3031 4423 
Q 3450 4097 3450 3541 
Q 3450 3153 3228 2886 
Q 3006 2619 2597 2516 
z
" transform="scale(0.015625)"/>
     </defs>
     <use xlink:href="#DejaVuSans-33"/>
    </g>
   </g>
   <g id="text_18">
    <!-- 4 -->
    <g transform="translate(347.781523 513.269277) scale(0.1 -0.1)">
     <use xlink:href="#DejaVuSans-34"/>
    </g>
   </g>
   <g id="text_19">
    <!-- 5 -->
    <g transform="translate(347.781523 308.806852) scale(0.1 -0.1)">
     <defs>
      <path id="DejaVuSans-35" d="M 691 4666 
L 3169 4666 
L 3169 4134 
L 1269 4134 
L 1269 2991 
Q 1406 3038 1543 3061 
Q 1681 3084 1819 3084 
Q 2600 3084 3056 2656 
Q 3513 2228 3513 1497 
Q 3513 744 3044 326 
Q 2575 -91 1722 -91 
Q 1428 -91 1123 -41 
Q 819 9 494 109 
L 494 744 
Q 775 591 1075 516 
Q 1375 441 1709 441 
Q 2250 441 2565 725 
Q 2881 1009 2881 1497 
Q 2881 1984 2565 2268 
Q 2250 2553 1709 2553 
Q 1456 2553 1204 2497 
Q 953 2441 691 2322 
L 691 4666 
z
" transform="scale(0.015625)"/>
     </defs>
     <use xlink:href="#DejaVuSans-35"/>
    </g>
   </g>
   <g id="text_20">
    <!-- 6 -->
    <g transform="translate(347.781523 111.560748) scale(0.1 -0.1)">
     <use xlink:href="#DejaVuSans-36"/>
    </g>
   </g>
   <g id="text_21">
    <!-- 7 -->
    <g transform="translate(347.781523 101.53808) scale(0.1 -0.1)">
     <defs>
      <path id="DejaVuSans-37" d="M 525 4666 
L 3525 4666 
L 3525 4397 
L 1831 0 
L 1172 0 
L 2766 4134 
L 525 4134 
L 525 4666 
z
" transform="scale(0.015625)"/>
     </defs>
     <use xlink:href="#DejaVuSans-37"/>
    </g>
   </g>
   <g id="text_22">
    <!-- 8 -->
    <g transform="translate(347.781523 87.506345) scale(0.1 -0.1)">
     <use xlink:href="#DejaVuSans-38"/>
    </g>
   </g>
   <g id="text_23">
    <!-- 9 -->
    <g transform="translate(347.781523 74.67733) scale(0.1 -0.1)">
     <defs>
      <path id="DejaVuSans-39" d="M 703 97 
L 703 672 
Q 941 559 1184 500 
Q 1428 441 1663 441 
Q 2288 441 2617 861 
Q 2947 1281 2994 2138 
Q 2813 1869 2534 1725 
Q 2256 1581 1919 1581 
Q 1219 1581 811 2004 
Q 403 2428 403 3163 
Q 403 3881 828 4315 
Q 1253 4750 1959 4750 
Q 2769 4750 3195 4129 
Q 3622 3509 3622 2328 
Q 3622 1225 3098 567 
Q 2575 -91 1691 -91 
Q 1453 -91 1209 -44 
Q 966 3 703 97 
z
M 1959 2075 
Q 2384 2075 2632 2365 
Q 2881 2656 2881 3163 
Q 2881 3666 2632 3958 
Q 2384 4250 1959 4250 
Q 1534 4250 1286 3958 
Q 1038 3666 1038 3163 
Q 1038 2656 1286 2365 
Q 1534 2075 1959 2075 
z
" transform="scale(0.015625)"/>
     </defs>
     <use xlink:href="#DejaVuSans-39"/>
    </g>
   </g>
   <g id="text_24">
    <!-- 10 -->
    <g transform="translate(347.781523 60.645595) scale(0.1 -0.1)">
     <use xlink:href="#DejaVuSans-31"/>
     <use xlink:href="#DejaVuSans-30" x="63.623047"/>
    </g>
   </g>
   <g id="text_25">
    <!-- 11 -->
    <g transform="translate(347.781523 46.61386) scale(0.1 -0.1)">
     <use xlink:href="#DejaVuSans-31"/>
     <use xlink:href="#DejaVuSans-31" x="63.623047"/>
    </g>
   </g>
   <g id="text_26">
    <!-- 12 -->
    <g transform="translate(347.781523 37.793912) scale(0.1 -0.1)">
     <use xlink:href="#DejaVuSans-31"/>
     <use xlink:href="#DejaVuSans-32" x="63.623047"/>
    </g>
   </g>
   <g id="text_27">
    <!-- 13 -->
    <g transform="translate(347.781523 28.973965) scale(0.1 -0.1)">
     <use xlink:href="#DejaVuSans-31"/>
     <use xlink:href="#DejaVuSans-33" x="63.623047"/>
    </g>
   </g>
   <g id="text_28">
    <!-- 14 -->
    <g transform="translate(347.781523 20.154017) scale(0.1 -0.1)">
     <use xlink:href="#DejaVuSans-31"/>
     <use xlink:href="#DejaVuSans-34" x="63.623047"/>
    </g>
   </g>
   <g id="text_29">
    <!-- 0.5698 -->
    <g style="fill: #ff0000" transform="translate(573.273156 19.75311) scale(0.1 -0.1)">
     <use xlink:href="#DejaVuSans-30"/>
     <use xlink:href="#DejaVuSans-2e" x="63.623047"/>
     <use xlink:href="#DejaVuSans-35" x="95.410156"/>
     <use xlink:href="#DejaVuSans-36" x="159.033203"/>
     <use xlink:href="#DejaVuSans-39" x="222.65625"/>
     <use xlink:href="#DejaVuSans-38" x="286.279297"/>
    </g>
   </g>
  </g>
 </g>
 <defs>
  <clipPath id="pfbe0d4d276">
   <rect x="27.978125" y="11.734976" width="673.270312" height="667.108774"/>
  </clipPath>
 </defs>
</svg>
