<?xml version="1.0" encoding="utf-8" standalone="no"?>
<!DOCTYPE svg PUBLIC "-//W3C//DTD SVG 1.1//EN"
  "http://www.w3.org/Graphics/SVG/1.1/DTD/svg11.dtd">
<svg xmlns:xlink="http://www.w3.org/1999/xlink" width="720pt" height="720pt" viewBox="0 0 720 720" xmlns="http://www.w3.org/2000/svg" version="1.1">
 <metadata>
  <rdf:RDF xmlns:dc="http://purl.org/dc/elements/1.1/" xmlns:cc="http://creativecommons.org/ns#" xmlns:rdf="http://www.w3.org/1999/02/22-rdf-syntax-ns#">
   <cc:Work>
    <dc:type rdf:resource="http://purl.org/dc/dcmitype/StillImage"/>
    <dc:date>2022-11-17T19:06:50.024113</dc:date>
    <dc:format>image/svg+xml</dc:format>
    <dc:creator>
     <cc:Agent>
      <dc:title>Matplotlib v3.6.1, https://matplotlib.org/</dc:title>
     </cc:Agent>
    </dc:creator>
   </cc:Work>
  </rdf:RDF>
 </metadata>
 <defs>
  <style type="text/css">*{stroke-linejoin: round; stroke-linecap: butt}</style>
 </defs>
 <g id="figure_1">
  <g id="patch_1">
   <path d="M 0 720 
L 720 720 
L 720 0 
L 0 0 
z
" style="fill: #ffffff"/>
  </g>
  <g id="axes_1">
   <g id="patch_2">
    <path d="M 27.978125 678.84375 
L 701.248437 678.84375 
L 701.248437 10.8 
L 27.978125 10.8 
z
" style="fill: #ffffff"/>
   </g>
   <g id="PolyCollection_1">
    <defs>
     <path id="mda21de2a8c" d="M 405.067234 -50.672543 
L 364.613281 -50.672543 
L 364.613281 -51.624172 
L 364.613281 -52.575801 
L 364.613281 -53.527431 
L 364.613281 -54.47906 
L 364.613281 -55.430689 
L 364.613281 -56.382318 
L 364.613281 -57.333948 
L 364.613281 -58.285577 
L 364.613281 -59.237206 
L 364.613281 -60.188835 
L 364.613281 -61.140465 
L 364.613281 -62.092094 
L 364.613281 -63.043723 
L 364.613281 -63.995353 
L 364.613281 -64.946982 
L 364.613281 -65.898611 
L 364.613281 -66.85024 
L 364.613281 -67.80187 
L 364.613281 -68.753499 
L 364.613281 -69.705128 
L 364.613281 -70.656757 
L 364.613281 -71.608387 
L 364.613281 -72.560016 
L 364.613281 -73.511645 
L 364.613281 -74.463275 
L 364.613281 -75.414904 
L 364.613281 -76.366533 
L 364.613281 -77.318162 
L 364.613281 -78.269792 
L 364.613281 -79.221421 
L 364.613281 -80.17305 
L 364.613281 -81.124679 
L 364.613281 -82.076309 
L 364.613281 -83.027938 
L 364.613281 -83.979567 
L 364.613281 -84.931197 
L 364.613281 -85.882826 
L 364.613281 -86.834455 
L 364.613281 -87.786084 
L 364.613281 -88.737714 
L 364.613281 -89.689343 
L 364.613281 -90.640972 
L 364.613281 -91.592601 
L 364.613281 -92.544231 
L 364.613281 -93.49586 
L 364.613281 -94.447489 
L 364.613281 -95.399119 
L 364.613281 -96.350748 
L 364.613281 -97.302377 
L 364.613281 -98.254006 
L 364.613281 -99.205636 
L 364.613281 -100.157265 
L 364.613281 -101.108894 
L 364.613281 -102.060524 
L 364.613281 -103.012153 
L 364.613281 -103.963782 
L 364.613281 -104.915411 
L 364.613281 -105.867041 
L 364.613281 -106.81867 
L 364.613281 -107.770299 
L 364.613281 -108.721928 
L 364.613281 -109.673558 
L 364.613281 -110.625187 
L 364.613281 -111.576816 
L 364.613281 -112.528446 
L 364.613281 -113.480075 
L 364.613281 -114.431704 
L 364.613281 -115.383333 
L 364.613281 -116.334963 
L 364.613281 -117.286592 
L 364.613281 -118.238221 
L 364.613281 -119.18985 
L 364.613281 -120.14148 
L 364.613281 -121.093109 
L 364.613281 -122.044738 
L 364.613281 -122.996368 
L 364.613281 -123.947997 
L 364.613281 -124.899626 
L 364.613281 -125.851255 
L 364.613281 -126.802885 
L 364.613281 -127.754514 
L 364.613281 -128.706143 
L 364.613281 -129.657772 
L 364.613281 -130.609402 
L 364.613281 -131.561031 
L 364.613281 -132.51266 
L 364.613281 -133.46429 
L 364.613281 -134.415919 
L 364.613281 -135.367548 
L 364.613281 -136.319177 
L 364.613281 -137.270807 
L 364.613281 -138.222436 
L 364.613281 -139.174065 
L 364.613281 -140.125694 
L 364.613281 -141.077324 
L 364.613281 -142.028953 
L 364.613281 -142.980582 
L 364.613281 -143.932212 
L 364.613281 -144.883841 
L 364.613281 -145.83547 
L 364.613281 -146.787099 
L 364.613281 -147.738729 
L 364.613281 -148.690358 
L 364.613281 -149.641987 
L 364.613281 -150.593616 
L 364.613281 -151.545246 
L 364.613281 -152.496875 
L 364.613281 -153.448504 
L 364.613281 -154.400134 
L 364.613281 -155.351763 
L 364.613281 -156.303392 
L 364.613281 -157.255021 
L 364.613281 -158.206651 
L 364.613281 -159.15828 
L 364.613281 -160.109909 
L 364.613281 -161.061538 
L 364.613281 -162.013168 
L 364.613281 -162.964797 
L 364.613281 -163.916426 
L 364.613281 -164.868056 
L 364.613281 -165.819685 
L 364.613281 -166.771314 
L 364.613281 -167.722943 
L 364.613281 -168.674573 
L 364.613281 -169.626202 
L 364.613281 -170.577831 
L 364.613281 -171.52946 
L 364.613281 -172.48109 
L 364.613281 -173.432719 
L 364.613281 -174.384348 
L 364.613281 -175.335978 
L 364.613281 -176.287607 
L 364.613281 -177.239236 
L 364.613281 -178.190865 
L 364.613281 -179.142495 
L 364.613281 -180.094124 
L 364.613281 -181.045753 
L 364.613281 -181.997382 
L 364.613281 -182.949012 
L 364.613281 -183.900641 
L 364.613281 -184.85227 
L 364.613281 -185.8039 
L 364.613281 -186.755529 
L 364.613281 -187.707158 
L 364.613281 -188.658787 
L 364.613281 -189.610417 
L 364.613281 -190.562046 
L 364.613281 -191.513675 
L 364.613281 -192.465304 
L 364.613281 -193.416934 
L 364.613281 -194.368563 
L 364.613281 -195.320192 
L 364.613281 -196.271822 
L 364.613281 -197.223451 
L 364.613281 -198.17508 
L 364.613281 -199.126709 
L 364.613281 -200.078339 
L 364.613281 -201.029968 
L 364.613281 -201.981597 
L 364.613281 -202.933226 
L 364.613281 -203.884856 
L 364.613281 -204.836485 
L 364.613281 -205.788114 
L 364.613281 -206.739744 
L 364.613281 -207.691373 
L 364.613281 -208.643002 
L 364.613281 -209.594631 
L 364.613281 -210.546261 
L 364.613281 -211.49789 
L 364.613281 -212.449519 
L 364.613281 -213.401149 
L 364.613281 -214.352778 
L 364.613281 -215.304407 
L 364.613281 -216.256036 
L 364.613281 -217.207666 
L 364.613281 -218.159295 
L 364.613281 -219.110924 
L 364.613281 -220.062553 
L 364.613281 -221.014183 
L 364.613281 -221.965812 
L 364.613281 -222.917441 
L 364.613281 -223.869071 
L 364.613281 -224.8207 
L 364.613281 -225.772329 
L 364.613281 -226.723958 
L 364.613281 -227.675588 
L 364.613281 -228.627217 
L 364.613281 -229.578846 
L 364.613281 -230.530475 
L 364.613281 -231.482105 
L 364.613281 -232.433734 
L 364.613281 -233.385363 
L 364.613281 -234.336993 
L 364.613281 -235.288622 
L 364.613281 -236.240251 
L 364.613281 -237.19188 
L 364.613281 -238.14351 
L 364.613281 -239.095139 
L 364.613281 -240.046768 
L 364.613281 -240.998397 
L 542.893751 -240.998397 
L 542.893751 -240.998397 
L 541.633614 -240.046768 
L 540.363921 -239.095139 
L 540.298597 -238.14351 
L 540.145421 -237.19188 
L 539.787639 -236.240251 
L 537.813091 -235.288622 
L 537.346906 -234.336993 
L 537.303368 -233.385363 
L 536.526014 -232.433734 
L 535.871461 -231.482105 
L 535.608014 -230.530475 
L 535.526552 -229.578846 
L 534.107109 -228.627217 
L 533.893939 -227.675588 
L 533.86314 -226.723958 
L 533.721622 -225.772329 
L 532.747304 -224.8207 
L 532.410869 -223.869071 
L 532.282358 -222.917441 
L 530.135492 -221.965812 
L 530.071695 -221.014183 
L 529.45036 -220.062553 
L 529.403509 -219.110924 
L 529.025841 -218.159295 
L 528.902684 -217.207666 
L 528.536157 -216.256036 
L 528.254506 -215.304407 
L 528.206181 -214.352778 
L 528.076146 -213.401149 
L 527.616 -212.449519 
L 527.413039 -211.49789 
L 526.96416 -210.546261 
L 526.777002 -209.594631 
L 526.282292 -208.643002 
L 526.243002 -207.691373 
L 526.072515 -206.739744 
L 525.851958 -205.788114 
L 525.830563 -204.836485 
L 525.747331 -203.884856 
L 525.715655 -202.933226 
L 525.700269 -201.981597 
L 525.641578 -201.029968 
L 525.640737 -200.078339 
L 525.176823 -199.126709 
L 524.936031 -198.17508 
L 524.913265 -197.223451 
L 524.848301 -196.271822 
L 524.811295 -195.320192 
L 524.534908 -194.368563 
L 524.353565 -193.416934 
L 524.320339 -192.465304 
L 524.191651 -191.513675 
L 523.930916 -190.562046 
L 523.341996 -189.610417 
L 523.329648 -188.658787 
L 523.02622 -187.707158 
L 522.707754 -186.755529 
L 522.638072 -185.8039 
L 522.473385 -184.85227 
L 522.211383 -183.900641 
L 522.121432 -182.949012 
L 522.002635 -181.997382 
L 521.969597 -181.045753 
L 521.787954 -180.094124 
L 521.582382 -179.142495 
L 520.924847 -178.190865 
L 520.729993 -177.239236 
L 520.687438 -176.287607 
L 520.554517 -175.335978 
L 520.40876 -174.384348 
L 520.329151 -173.432719 
L 520.158394 -172.48109 
L 519.960259 -171.52946 
L 519.819386 -170.577831 
L 519.598127 -169.626202 
L 519.164066 -168.674573 
L 518.865106 -167.722943 
L 518.690271 -166.771314 
L 518.101252 -165.819685 
L 517.192692 -164.868056 
L 516.897582 -163.916426 
L 516.263889 -162.964797 
L 516.075874 -162.013168 
L 516.047531 -161.061538 
L 515.783375 -160.109909 
L 515.159577 -159.15828 
L 515.111344 -158.206651 
L 515.057405 -157.255021 
L 514.719573 -156.303392 
L 514.344019 -155.351763 
L 514.178156 -154.400134 
L 513.844105 -153.448504 
L 513.766958 -152.496875 
L 513.708757 -151.545246 
L 513.504096 -150.593616 
L 513.258513 -149.641987 
L 513.117724 -148.690358 
L 512.991008 -147.738729 
L 512.427387 -146.787099 
L 511.968844 -145.83547 
L 511.579543 -144.883841 
L 510.633891 -143.932212 
L 510.032224 -142.980582 
L 509.776459 -142.028953 
L 509.738397 -141.077324 
L 509.723306 -140.125694 
L 509.688254 -139.174065 
L 509.029931 -138.222436 
L 508.661834 -137.270807 
L 508.567135 -136.319177 
L 508.458668 -135.367548 
L 508.257724 -134.415919 
L 508.142334 -133.46429 
L 508.037313 -132.51266 
L 507.804213 -131.561031 
L 507.206721 -130.609402 
L 506.10516 -129.657772 
L 505.976916 -128.706143 
L 505.30025 -127.754514 
L 505.00222 -126.802885 
L 504.793176 -125.851255 
L 504.647214 -124.899626 
L 504.420427 -123.947997 
L 504.08444 -122.996368 
L 503.824272 -122.044738 
L 503.332772 -121.093109 
L 503.331998 -120.14148 
L 502.950024 -119.18985 
L 502.947636 -118.238221 
L 502.561448 -117.286592 
L 502.551589 -116.334963 
L 502.175557 -115.383333 
L 501.636687 -114.431704 
L 501.513559 -113.480075 
L 500.106363 -112.528446 
L 499.713159 -111.576816 
L 499.168449 -110.625187 
L 498.70242 -109.673558 
L 498.662535 -108.721928 
L 498.415637 -107.770299 
L 497.9861 -106.81867 
L 497.01349 -105.867041 
L 496.963901 -104.915411 
L 496.632699 -103.963782 
L 496.357538 -103.012153 
L 495.514463 -102.060524 
L 495.452088 -101.108894 
L 495.085416 -100.157265 
L 492.07267 -99.205636 
L 492.036547 -98.254006 
L 491.351263 -97.302377 
L 491.197364 -96.350748 
L 489.916082 -95.399119 
L 488.531727 -94.447489 
L 487.895028 -93.49586 
L 487.603957 -92.544231 
L 487.514717 -91.592601 
L 486.019988 -90.640972 
L 485.207126 -89.689343 
L 483.618993 -88.737714 
L 483.49965 -87.786084 
L 482.214487 -86.834455 
L 481.872165 -85.882826 
L 480.716121 -84.931197 
L 480.243242 -83.979567 
L 478.619607 -83.027938 
L 477.234876 -82.076309 
L 477.172156 -81.124679 
L 477.081294 -80.17305 
L 475.566723 -79.221421 
L 474.920447 -78.269792 
L 474.844514 -77.318162 
L 474.714723 -76.366533 
L 474.134003 -75.414904 
L 471.751866 -74.463275 
L 469.126322 -73.511645 
L 468.805095 -72.560016 
L 467.829362 -71.608387 
L 466.619585 -70.656757 
L 465.783265 -69.705128 
L 465.167747 -68.753499 
L 464.613348 -67.80187 
L 464.354707 -66.85024 
L 462.523179 -65.898611 
L 459.732628 -64.946982 
L 458.218472 -63.995353 
L 458.157109 -63.043723 
L 456.976634 -62.092094 
L 456.873579 -61.140465 
L 456.243624 -60.188835 
L 452.295042 -59.237206 
L 452.074481 -58.285577 
L 445.0086 -57.333948 
L 442.218219 -56.382318 
L 438.391743 -55.430689 
L 430.121002 -54.47906 
L 421.498767 -53.527431 
L 419.868138 -52.575801 
L 407.310362 -51.624172 
L 405.067234 -50.672543 
z
" style="stroke: #000000; stroke-opacity: 0.7"/>
    </defs>
    <g clip-path="url(#p6b139ae37d)">
     <use xlink:href="#mda21de2a8c" x="0" y="720" style="fill-opacity: 0.7; stroke: #000000; stroke-opacity: 0.7"/>
    </g>
   </g>
   <g id="PolyCollection_2">
    <defs>
     <path id="m9871045735" d="M 557.351587 -251.466319 
L 364.613281 -251.466319 
L 364.613281 -252.417949 
L 364.613281 -253.369578 
L 364.613281 -254.321207 
L 364.613281 -255.272837 
L 364.613281 -256.224466 
L 364.613281 -257.176095 
L 364.613281 -258.127724 
L 364.613281 -259.079354 
L 364.613281 -260.030983 
L 364.613281 -260.982612 
L 364.613281 -261.934241 
L 364.613281 -262.885871 
L 364.613281 -263.8375 
L 364.613281 -264.789129 
L 364.613281 -265.740759 
L 364.613281 -266.692388 
L 364.613281 -267.644017 
L 364.613281 -268.595646 
L 364.613281 -269.547276 
L 364.613281 -270.498905 
L 364.613281 -271.450534 
L 364.613281 -272.402163 
L 364.613281 -273.353793 
L 364.613281 -274.305422 
L 364.613281 -275.257051 
L 364.613281 -276.208681 
L 364.613281 -277.16031 
L 364.613281 -278.111939 
L 364.613281 -279.063568 
L 364.613281 -280.015198 
L 364.613281 -280.966827 
L 364.613281 -281.918456 
L 364.613281 -282.870085 
L 364.613281 -283.821715 
L 364.613281 -284.773344 
L 364.613281 -285.724973 
L 364.613281 -286.676603 
L 364.613281 -287.628232 
L 364.613281 -288.579861 
L 364.613281 -289.53149 
L 364.613281 -290.48312 
L 364.613281 -291.434749 
L 364.613281 -292.386378 
L 364.613281 -293.338007 
L 364.613281 -294.289637 
L 364.613281 -295.241266 
L 364.613281 -296.192895 
L 364.613281 -297.144525 
L 364.613281 -298.096154 
L 364.613281 -299.047783 
L 364.613281 -299.999412 
L 364.613281 -300.951042 
L 364.613281 -301.902671 
L 364.613281 -302.8543 
L 364.613281 -303.805929 
L 364.613281 -304.757559 
L 364.613281 -305.709188 
L 364.613281 -306.660817 
L 364.613281 -307.612447 
L 364.613281 -308.564076 
L 364.613281 -309.515705 
L 364.613281 -310.467334 
L 364.613281 -311.418964 
L 364.613281 -312.370593 
L 364.613281 -313.322222 
L 364.613281 -314.273851 
L 364.613281 -315.225481 
L 364.613281 -316.17711 
L 364.613281 -317.128739 
L 364.613281 -318.080369 
L 364.613281 -319.031998 
L 364.613281 -319.983627 
L 364.613281 -320.935256 
L 364.613281 -321.886886 
L 364.613281 -322.838515 
L 364.613281 -323.790144 
L 364.613281 -324.741774 
L 364.613281 -325.693403 
L 364.613281 -326.645032 
L 364.613281 -327.596661 
L 364.613281 -328.548291 
L 364.613281 -329.49992 
L 364.613281 -330.451549 
L 364.613281 -331.403178 
L 364.613281 -332.354808 
L 364.613281 -333.306437 
L 364.613281 -334.258066 
L 364.613281 -335.209696 
L 364.613281 -336.161325 
L 364.613281 -337.112954 
L 364.613281 -338.064583 
L 364.613281 -339.016213 
L 364.613281 -339.967842 
L 364.613281 -340.919471 
L 364.613281 -341.8711 
L 364.613281 -342.82273 
L 364.613281 -343.774359 
L 364.613281 -344.725988 
L 364.613281 -345.677618 
L 364.613281 -346.629247 
L 364.613281 -347.580876 
L 364.613281 -348.532505 
L 364.613281 -349.484135 
L 364.613281 -350.435764 
L 364.613281 -351.387393 
L 364.613281 -352.339022 
L 364.613281 -353.290652 
L 364.613281 -354.242281 
L 364.613281 -355.19391 
L 364.613281 -356.14554 
L 364.613281 -357.097169 
L 364.613281 -358.048798 
L 364.613281 -359.000427 
L 364.613281 -359.952057 
L 364.613281 -360.903686 
L 364.613281 -361.855315 
L 364.613281 -362.806944 
L 364.613281 -363.758574 
L 364.613281 -364.710203 
L 364.613281 -365.661832 
L 364.613281 -366.613462 
L 364.613281 -367.565091 
L 364.613281 -368.51672 
L 364.613281 -369.468349 
L 364.613281 -370.419979 
L 364.613281 -371.371608 
L 364.613281 -372.323237 
L 364.613281 -373.274866 
L 364.613281 -374.226496 
L 364.613281 -375.178125 
L 364.613281 -376.129754 
L 364.613281 -377.081384 
L 364.613281 -378.033013 
L 364.613281 -378.984642 
L 364.613281 -379.936271 
L 364.613281 -380.887901 
L 364.613281 -381.83953 
L 364.613281 -382.791159 
L 364.613281 -383.742788 
L 364.613281 -384.694418 
L 364.613281 -385.646047 
L 364.613281 -386.597676 
L 364.613281 -387.549306 
L 364.613281 -388.500935 
L 364.613281 -389.452564 
L 364.613281 -390.404193 
L 364.613281 -391.355823 
L 364.613281 -392.307452 
L 364.613281 -393.259081 
L 364.613281 -394.21071 
L 364.613281 -395.16234 
L 364.613281 -396.113969 
L 364.613281 -397.065598 
L 364.613281 -398.017228 
L 364.613281 -398.968857 
L 364.613281 -399.920486 
L 364.613281 -400.872115 
L 364.613281 -401.823745 
L 364.613281 -402.775374 
L 364.613281 -403.727003 
L 364.613281 -404.678632 
L 364.613281 -405.630262 
L 364.613281 -406.581891 
L 364.613281 -407.53352 
L 364.613281 -408.48515 
L 364.613281 -409.436779 
L 364.613281 -410.388408 
L 364.613281 -411.340037 
L 364.613281 -412.291667 
L 364.613281 -413.243296 
L 364.613281 -414.194925 
L 364.613281 -415.146554 
L 364.613281 -416.098184 
L 364.613281 -417.049813 
L 364.613281 -418.001442 
L 364.613281 -418.953072 
L 364.613281 -419.904701 
L 364.613281 -420.85633 
L 364.613281 -421.807959 
L 364.613281 -422.759589 
L 364.613281 -423.711218 
L 364.613281 -424.662847 
L 364.613281 -425.614476 
L 364.613281 -426.566106 
L 364.613281 -427.517735 
L 364.613281 -428.469364 
L 364.613281 -429.420994 
L 364.613281 -430.372623 
L 364.613281 -431.324252 
L 364.613281 -432.275881 
L 364.613281 -433.227511 
L 364.613281 -434.17914 
L 364.613281 -435.130769 
L 364.613281 -436.082399 
L 364.613281 -437.034028 
L 364.613281 -437.985657 
L 364.613281 -438.937286 
L 364.613281 -439.888916 
L 364.613281 -440.840545 
L 364.613281 -441.792174 
L 364.613281 -442.743803 
L 364.613281 -443.695433 
L 364.613281 -444.647062 
L 364.613281 -445.598691 
L 364.613281 -446.550321 
L 364.613281 -447.50195 
L 364.613281 -448.453579 
L 364.613281 -449.405208 
L 364.613281 -450.356838 
L 364.613281 -451.308467 
L 364.613281 -452.260096 
L 364.613281 -453.211725 
L 364.613281 -454.163355 
L 364.613281 -455.114984 
L 364.613281 -456.066613 
L 364.613281 -457.018243 
L 364.613281 -457.969872 
L 364.613281 -458.921501 
L 364.613281 -459.87313 
L 364.613281 -460.82476 
L 364.613281 -461.776389 
L 364.613281 -462.728018 
L 364.613281 -463.679647 
L 364.613281 -464.631277 
L 364.613281 -465.582906 
L 364.613281 -466.534535 
L 364.613281 -467.486165 
L 364.613281 -468.437794 
L 364.613281 -469.389423 
L 364.613281 -470.341052 
L 364.613281 -471.292682 
L 364.613281 -472.244311 
L 364.613281 -473.19594 
L 364.613281 -474.147569 
L 364.613281 -475.099199 
L 364.613281 -476.050828 
L 364.613281 -477.002457 
L 364.613281 -477.954087 
L 364.613281 -478.905716 
L 364.613281 -479.857345 
L 364.613281 -480.808974 
L 364.613281 -481.760604 
L 364.613281 -482.712233 
L 364.613281 -483.663862 
L 364.613281 -484.615491 
L 364.613281 -485.567121 
L 364.613281 -486.51875 
L 364.613281 -487.470379 
L 364.613281 -488.422009 
L 364.613281 -489.373638 
L 364.613281 -490.325267 
L 364.613281 -491.276896 
L 364.613281 -492.228526 
L 364.613281 -493.180155 
L 364.613281 -494.131784 
L 364.613281 -495.083413 
L 364.613281 -496.035043 
L 364.613281 -496.986672 
L 364.613281 -497.938301 
L 364.613281 -498.889931 
L 364.613281 -499.84156 
L 364.613281 -500.793189 
L 364.613281 -501.744818 
L 364.613281 -502.696448 
L 364.613281 -503.648077 
L 364.613281 -504.599706 
L 364.613281 -505.551335 
L 364.613281 -506.502965 
L 364.613281 -507.454594 
L 364.613281 -508.406223 
L 364.613281 -509.357853 
L 364.613281 -510.309482 
L 364.613281 -511.261111 
L 364.613281 -512.21274 
L 364.613281 -513.16437 
L 364.613281 -514.115999 
L 364.613281 -515.067628 
L 364.613281 -516.019257 
L 364.613281 -516.970887 
L 364.613281 -517.922516 
L 364.613281 -518.874145 
L 364.613281 -519.825775 
L 364.613281 -520.777404 
L 364.613281 -521.729033 
L 364.613281 -522.680662 
L 364.613281 -523.632292 
L 364.613281 -524.583921 
L 364.613281 -525.53555 
L 364.613281 -526.487179 
L 364.613281 -527.438809 
L 364.613281 -528.390438 
L 364.613281 -529.342067 
L 364.613281 -530.293697 
L 364.613281 -531.245326 
L 364.613281 -532.196955 
L 364.613281 -533.148584 
L 364.613281 -534.100214 
L 364.613281 -535.051843 
L 364.613281 -536.003472 
L 364.613281 -536.955101 
L 364.613281 -537.906731 
L 364.613281 -538.85836 
L 364.613281 -539.809989 
L 364.613281 -540.761619 
L 364.613281 -541.713248 
L 364.613281 -542.664877 
L 364.613281 -543.616506 
L 364.613281 -544.568136 
L 364.613281 -545.519765 
L 364.613281 -546.471394 
L 364.613281 -547.423024 
L 364.613281 -548.374653 
L 364.613281 -549.326282 
L 364.613281 -550.277911 
L 364.613281 -551.229541 
L 364.613281 -552.18117 
L 364.613281 -553.132799 
L 364.613281 -554.084428 
L 364.613281 -555.036058 
L 364.613281 -555.987687 
L 364.613281 -556.939316 
L 364.613281 -557.890946 
L 364.613281 -558.842575 
L 364.613281 -559.794204 
L 364.613281 -560.745833 
L 364.613281 -561.697463 
L 364.613281 -562.649092 
L 364.613281 -563.600721 
L 364.613281 -564.55235 
L 364.613281 -565.50398 
L 364.613281 -566.455609 
L 364.613281 -567.407238 
L 364.613281 -568.358868 
L 364.613281 -569.310497 
L 364.613281 -570.262126 
L 364.613281 -571.213755 
L 364.613281 -572.165385 
L 364.613281 -573.117014 
L 364.613281 -574.068643 
L 364.613281 -575.020272 
L 364.613281 -575.971902 
L 364.613281 -576.923531 
L 364.613281 -577.87516 
L 364.613281 -578.82679 
L 364.613281 -579.778419 
L 364.613281 -580.730048 
L 364.613281 -581.681677 
L 364.613281 -582.633307 
L 364.613281 -583.584936 
L 364.613281 -584.536565 
L 364.613281 -585.488194 
L 364.613281 -586.439824 
L 364.613281 -587.391453 
L 364.613281 -588.343082 
L 364.613281 -589.294712 
L 364.613281 -590.246341 
L 364.613281 -591.19797 
L 364.613281 -592.149599 
L 364.613281 -593.101229 
L 364.613281 -594.052858 
L 364.613281 -595.004487 
L 364.613281 -595.956116 
L 364.613281 -596.907746 
L 364.613281 -597.859375 
L 364.613281 -598.811004 
L 364.613281 -599.762634 
L 364.613281 -600.714263 
L 364.613281 -601.665892 
L 364.613281 -602.617521 
L 364.613281 -603.569151 
L 364.613281 -604.52078 
L 364.613281 -605.472409 
L 364.613281 -606.424038 
L 364.613281 -607.375668 
L 364.613281 -608.327297 
L 364.613281 -609.278926 
L 364.613281 -610.230556 
L 364.613281 -611.182185 
L 364.613281 -612.133814 
L 364.613281 -613.085443 
L 364.613281 -614.037073 
L 364.613281 -614.988702 
L 364.613281 -615.940331 
L 364.613281 -616.89196 
L 364.613281 -617.84359 
L 364.613281 -618.795219 
L 364.613281 -619.746848 
L 364.613281 -620.698478 
L 364.613281 -621.650107 
L 364.613281 -622.601736 
L 364.613281 -623.553365 
L 364.613281 -624.504995 
L 364.613281 -625.456624 
L 364.613281 -626.408253 
L 364.613281 -627.359882 
L 364.613281 -628.311512 
L 364.613281 -629.263141 
L 364.613281 -630.21477 
L 364.613281 -631.1664 
L 364.613281 -632.118029 
L 364.613281 -633.069658 
L 364.613281 -634.021287 
L 364.613281 -634.972917 
L 364.613281 -635.924546 
L 364.613281 -636.876175 
L 364.613281 -637.827804 
L 364.613281 -638.779434 
L 364.613281 -639.731063 
L 364.613281 -640.682692 
L 364.613281 -641.634322 
L 364.613281 -642.585951 
L 364.613281 -643.53758 
L 364.613281 -644.489209 
L 364.613281 -645.440839 
L 364.613281 -646.392468 
L 364.613281 -647.344097 
L 364.613281 -648.295726 
L 364.613281 -649.247356 
L 364.613281 -650.198985 
L 364.613281 -651.150614 
L 364.613281 -652.102244 
L 364.613281 -653.053873 
L 364.613281 -654.005502 
L 364.613281 -654.957131 
L 364.613281 -655.908761 
L 364.613281 -656.86039 
L 364.613281 -657.812019 
L 364.613281 -658.763649 
L 364.613281 -659.715278 
L 364.613281 -660.666907 
L 364.613281 -661.618536 
L 364.613281 -662.570166 
L 364.613281 -663.521795 
L 364.613281 -664.473424 
L 364.613281 -665.425053 
L 364.613281 -666.376683 
L 364.613281 -667.328312 
L 364.613281 -668.279941 
L 364.613281 -669.231571 
L 364.613281 -670.1832 
L 364.613281 -671.134829 
L 364.613281 -672.086458 
L 364.613281 -673.038088 
L 364.613281 -673.989717 
L 364.613281 -674.941346 
L 364.613281 -675.892975 
L 364.613281 -676.844605 
L 364.613281 -677.796234 
L 364.613281 -678.747863 
L 364.613281 -679.699493 
L 364.613281 -680.651122 
L 364.613281 -681.602751 
L 364.613281 -682.55438 
L 364.613281 -683.50601 
L 364.613281 -684.457639 
L 364.613281 -685.409268 
L 364.613281 -686.360897 
L 364.613281 -687.312527 
L 364.613281 -688.264156 
L 364.613281 -689.215785 
L 364.613281 -690.167415 
L 364.613281 -691.119044 
L 364.613281 -692.070673 
L 364.613281 -693.022302 
L 364.613281 -693.973932 
L 364.613281 -694.925561 
L 364.613281 -695.87719 
L 364.613281 -696.828819 
L 364.613281 -697.780449 
L 364.613281 -698.732078 
L 623.878147 -698.732078 
L 623.878147 -698.732078 
L 623.721015 -697.780449 
L 623.467281 -696.828819 
L 623.391418 -695.87719 
L 622.88715 -694.925561 
L 622.385598 -693.973932 
L 621.712486 -693.022302 
L 621.448729 -692.070673 
L 621.160309 -691.119044 
L 620.756172 -690.167415 
L 620.543096 -689.215785 
L 620.501075 -688.264156 
L 620.471212 -687.312527 
L 620.341933 -686.360897 
L 620.273714 -685.409268 
L 620.201313 -684.457639 
L 620.065256 -683.50601 
L 619.954996 -682.55438 
L 619.751803 -681.602751 
L 619.624855 -680.651122 
L 619.599615 -679.699493 
L 619.179014 -678.747863 
L 619.082926 -677.796234 
L 619.052224 -676.844605 
L 618.98445 -675.892975 
L 618.830878 -674.941346 
L 618.526351 -673.989717 
L 618.470191 -673.038088 
L 618.379846 -672.086458 
L 618.340622 -671.134829 
L 618.325375 -670.1832 
L 618.290372 -669.231571 
L 618.170215 -668.279941 
L 618.158497 -667.328312 
L 617.885362 -666.376683 
L 617.829348 -665.425053 
L 617.732164 -664.473424 
L 617.683425 -663.521795 
L 617.576139 -662.570166 
L 617.467626 -661.618536 
L 617.422119 -660.666907 
L 617.388583 -659.715278 
L 617.334244 -658.763649 
L 617.167061 -657.812019 
L 617.026672 -656.86039 
L 617.016102 -655.908761 
L 616.945258 -654.957131 
L 616.945045 -654.005502 
L 616.923912 -653.053873 
L 616.921942 -652.102244 
L 616.815184 -651.150614 
L 616.790929 -650.198985 
L 616.790929 -649.247356 
L 616.734748 -648.295726 
L 616.663321 -647.344097 
L 616.472384 -646.392468 
L 616.360526 -645.440839 
L 616.287522 -644.489209 
L 616.172164 -643.53758 
L 616.133871 -642.585951 
L 615.936851 -641.634322 
L 615.936851 -640.682692 
L 615.915041 -639.731063 
L 615.837503 -638.779434 
L 615.835349 -637.827804 
L 615.832678 -636.876175 
L 615.770471 -635.924546 
L 615.770471 -634.972917 
L 615.701232 -634.021287 
L 615.58439 -633.069658 
L 615.498524 -632.118029 
L 615.432743 -631.1664 
L 615.310087 -630.21477 
L 615.294837 -629.263141 
L 615.278704 -628.311512 
L 615.252806 -627.359882 
L 615.224524 -626.408253 
L 615.214391 -625.456624 
L 615.214391 -624.504995 
L 615.153617 -623.553365 
L 615.136638 -622.601736 
L 615.103151 -621.650107 
L 614.988484 -620.698478 
L 614.944088 -619.746848 
L 614.903531 -618.795219 
L 614.889246 -617.84359 
L 614.871874 -616.89196 
L 614.801804 -615.940331 
L 614.771029 -614.988702 
L 614.713769 -614.037073 
L 614.682239 -613.085443 
L 614.536102 -612.133814 
L 614.456226 -611.182185 
L 614.410645 -610.230556 
L 614.160949 -609.278926 
L 614.051323 -608.327297 
L 613.992244 -607.375668 
L 613.980688 -606.424038 
L 613.96518 -605.472409 
L 613.95398 -604.52078 
L 613.861015 -603.569151 
L 613.848148 -602.617521 
L 613.845294 -601.665892 
L 613.844797 -600.714263 
L 613.838387 -599.762634 
L 613.727972 -598.811004 
L 613.720755 -597.859375 
L 613.6525 -596.907746 
L 613.606859 -595.956116 
L 613.431336 -595.004487 
L 613.342768 -594.052858 
L 613.291132 -593.101229 
L 613.288092 -592.149599 
L 613.288092 -591.19797 
L 613.081938 -590.246341 
L 613.063221 -589.294712 
L 613.042338 -588.343082 
L 612.875569 -587.391453 
L 612.855806 -586.439824 
L 612.784641 -585.488194 
L 612.723858 -584.536565 
L 612.666612 -583.584936 
L 612.664608 -582.633307 
L 612.619588 -581.681677 
L 612.507219 -580.730048 
L 612.490485 -579.778419 
L 612.267738 -578.82679 
L 612.15668 -577.87516 
L 612.136813 -576.923531 
L 612.108245 -575.971902 
L 611.982418 -575.020272 
L 611.967655 -574.068643 
L 611.951529 -573.117014 
L 611.91715 -572.165385 
L 611.851029 -571.213755 
L 611.771954 -570.262126 
L 611.677122 -569.310497 
L 611.674942 -568.358868 
L 611.497814 -567.407238 
L 611.373386 -566.455609 
L 611.321415 -565.50398 
L 611.317713 -564.55235 
L 611.005183 -563.600721 
L 610.93915 -562.649092 
L 610.901247 -561.697463 
L 610.882719 -560.745833 
L 610.878404 -559.794204 
L 610.825489 -558.842575 
L 610.801768 -557.890946 
L 610.791474 -556.939316 
L 610.769504 -555.987687 
L 610.666051 -555.036058 
L 610.582715 -554.084428 
L 610.486055 -553.132799 
L 610.296979 -552.18117 
L 610.242838 -551.229541 
L 610.200443 -550.277911 
L 610.158665 -549.326282 
L 610.063654 -548.374653 
L 610.044458 -547.423024 
L 609.937093 -546.471394 
L 609.919208 -545.519765 
L 609.889823 -544.568136 
L 609.705543 -543.616506 
L 609.695127 -542.664877 
L 609.653254 -541.713248 
L 609.64189 -540.761619 
L 609.446711 -539.809989 
L 609.268043 -538.85836 
L 609.176127 -537.906731 
L 609.115484 -536.955101 
L 608.972705 -536.003472 
L 608.754935 -535.051843 
L 608.729615 -534.100214 
L 608.641021 -533.148584 
L 608.583735 -532.196955 
L 608.534019 -531.245326 
L 608.510071 -530.293697 
L 608.473617 -529.342067 
L 608.425642 -528.390438 
L 608.421796 -527.438809 
L 608.353093 -526.487179 
L 608.240474 -525.53555 
L 608.044849 -524.583921 
L 608.003743 -523.632292 
L 608.002735 -522.680662 
L 607.713543 -521.729033 
L 607.512587 -520.777404 
L 607.481568 -519.825775 
L 607.469563 -518.874145 
L 607.390454 -517.922516 
L 607.311107 -516.970887 
L 607.295361 -516.019257 
L 607.273662 -515.067628 
L 607.271375 -514.115999 
L 607.187868 -513.16437 
L 607.098046 -512.21274 
L 606.917743 -511.261111 
L 606.899338 -510.309482 
L 606.813845 -509.357853 
L 606.742381 -508.406223 
L 606.538184 -507.454594 
L 606.531801 -506.502965 
L 606.355069 -505.551335 
L 606.306661 -504.599706 
L 606.282757 -503.648077 
L 606.131331 -502.696448 
L 606.110288 -501.744818 
L 606.06529 -500.793189 
L 605.997634 -499.84156 
L 605.932182 -498.889931 
L 605.899433 -497.938301 
L 605.844868 -496.986672 
L 605.638708 -496.035043 
L 605.612301 -495.083413 
L 605.609607 -494.131784 
L 605.324867 -493.180155 
L 605.245455 -492.228526 
L 605.210692 -491.276896 
L 605.169443 -490.325267 
L 605.115083 -489.373638 
L 604.964879 -488.422009 
L 604.865758 -487.470379 
L 604.862413 -486.51875 
L 604.814442 -485.567121 
L 604.780797 -484.615491 
L 604.767626 -483.663862 
L 604.735815 -482.712233 
L 604.550458 -481.760604 
L 604.478584 -480.808974 
L 604.434235 -479.857345 
L 604.394431 -478.905716 
L 604.393068 -477.954087 
L 604.325688 -477.002457 
L 604.225001 -476.050828 
L 604.221191 -475.099199 
L 604.16433 -474.147569 
L 604.153039 -473.19594 
L 604.126475 -472.244311 
L 604.070519 -471.292682 
L 604.009283 -470.341052 
L 603.870742 -469.389423 
L 603.866665 -468.437794 
L 603.861418 -467.486165 
L 603.856413 -466.534535 
L 603.775226 -465.582906 
L 603.771312 -464.631277 
L 603.716181 -463.679647 
L 603.645145 -462.728018 
L 603.644613 -461.776389 
L 603.559339 -460.82476 
L 603.512295 -459.87313 
L 603.502762 -458.921501 
L 603.471129 -457.969872 
L 603.382908 -457.018243 
L 603.357867 -456.066613 
L 603.329348 -455.114984 
L 603.265354 -454.163355 
L 603.206284 -453.211725 
L 603.19145 -452.260096 
L 603.189179 -451.308467 
L 603.131659 -450.356838 
L 603.067019 -449.405208 
L 602.917276 -448.453579 
L 602.885183 -447.50195 
L 602.809133 -446.550321 
L 602.807509 -445.598691 
L 602.800479 -444.647062 
L 602.781152 -443.695433 
L 602.725799 -442.743803 
L 602.616895 -441.792174 
L 602.435812 -440.840545 
L 602.095001 -439.888916 
L 602.041158 -438.937286 
L 602.029644 -437.985657 
L 601.905197 -437.034028 
L 601.797763 -436.082399 
L 601.797763 -435.130769 
L 601.784628 -434.17914 
L 601.759412 -433.227511 
L 601.744881 -432.275881 
L 601.577968 -431.324252 
L 601.534281 -430.372623 
L 601.408041 -429.420994 
L 601.344058 -428.469364 
L 601.285625 -427.517735 
L 601.171836 -426.566106 
L 600.918552 -425.614476 
L 600.806495 -424.662847 
L 600.710299 -423.711218 
L 600.554737 -422.759589 
L 600.490591 -421.807959 
L 600.41977 -420.85633 
L 600.225073 -419.904701 
L 600.001905 -418.953072 
L 599.932931 -418.001442 
L 599.916208 -417.049813 
L 599.661846 -416.098184 
L 599.542256 -415.146554 
L 599.518695 -414.194925 
L 599.49046 -413.243296 
L 599.433072 -412.291667 
L 599.381381 -411.340037 
L 599.159768 -410.388408 
L 599.131559 -409.436779 
L 599.117981 -408.48515 
L 599.073673 -407.53352 
L 598.969672 -406.581891 
L 598.951533 -405.630262 
L 598.816958 -404.678632 
L 598.790382 -403.727003 
L 598.771973 -402.775374 
L 598.704919 -401.823745 
L 598.687843 -400.872115 
L 598.672108 -399.920486 
L 598.565174 -398.968857 
L 598.559523 -398.017228 
L 598.48023 -397.065598 
L 598.194043 -396.113969 
L 598.079752 -395.16234 
L 598.013611 -394.21071 
L 597.870833 -393.259081 
L 597.688501 -392.307452 
L 597.669333 -391.355823 
L 597.566599 -390.404193 
L 597.540596 -389.452564 
L 597.498961 -388.500935 
L 597.494292 -387.549306 
L 597.428558 -386.597676 
L 597.187658 -385.646047 
L 597.170244 -384.694418 
L 597.16752 -383.742788 
L 596.669177 -382.791159 
L 596.52075 -381.83953 
L 596.339439 -380.887901 
L 596.013387 -379.936271 
L 595.753762 -378.984642 
L 595.736573 -378.033013 
L 595.733295 -377.081384 
L 595.626003 -376.129754 
L 595.60958 -375.178125 
L 595.504095 -374.226496 
L 595.351949 -373.274866 
L 595.282363 -372.323237 
L 595.246162 -371.371608 
L 595.112206 -370.419979 
L 595.110485 -369.468349 
L 595.052048 -368.51672 
L 594.936691 -367.565091 
L 594.854143 -366.613462 
L 594.66104 -365.661832 
L 594.645854 -364.710203 
L 594.570797 -363.758574 
L 594.557982 -362.806944 
L 594.41987 -361.855315 
L 594.301607 -360.903686 
L 594.294648 -359.952057 
L 594.169736 -359.000427 
L 594.143617 -358.048798 
L 593.995713 -357.097169 
L 593.900001 -356.14554 
L 593.864748 -355.19391 
L 593.783371 -354.242281 
L 593.715106 -353.290652 
L 593.629385 -352.339022 
L 593.548727 -351.387393 
L 593.389154 -350.435764 
L 593.353371 -349.484135 
L 593.322901 -348.532505 
L 593.143282 -347.580876 
L 593.092928 -346.629247 
L 593.06712 -345.677618 
L 593.03415 -344.725988 
L 593.02177 -343.774359 
L 592.923603 -342.82273 
L 592.873878 -341.8711 
L 592.843749 -340.919471 
L 592.810931 -339.967842 
L 592.564608 -339.016213 
L 592.446536 -338.064583 
L 592.44542 -337.112954 
L 592.175384 -336.161325 
L 591.954615 -335.209696 
L 591.599316 -334.258066 
L 591.567586 -333.306437 
L 591.423538 -332.354808 
L 591.31425 -331.403178 
L 591.183054 -330.451549 
L 591.065479 -329.49992 
L 590.993977 -328.548291 
L 590.90732 -327.596661 
L 590.833139 -326.645032 
L 590.820636 -325.693403 
L 590.800008 -324.741774 
L 590.795369 -323.790144 
L 590.752124 -322.838515 
L 590.677449 -321.886886 
L 590.657502 -320.935256 
L 590.650202 -319.983627 
L 590.368468 -319.031998 
L 589.91611 -318.080369 
L 589.87433 -317.128739 
L 589.465896 -316.17711 
L 589.428127 -315.225481 
L 589.268579 -314.273851 
L 589.211134 -313.322222 
L 588.769038 -312.370593 
L 588.721666 -311.418964 
L 588.550808 -310.467334 
L 588.490083 -309.515705 
L 588.234963 -308.564076 
L 588.111254 -307.612447 
L 588.098669 -306.660817 
L 588.088894 -305.709188 
L 588.017054 -304.757559 
L 587.738285 -303.805929 
L 587.588644 -302.8543 
L 587.478938 -301.902671 
L 587.471734 -300.951042 
L 587.432323 -299.999412 
L 587.371293 -299.047783 
L 587.16727 -298.096154 
L 587.089553 -297.144525 
L 586.921759 -296.192895 
L 586.737605 -295.241266 
L 586.63351 -294.289637 
L 586.518907 -293.338007 
L 586.370736 -292.386378 
L 586.099453 -291.434749 
L 585.976418 -290.48312 
L 585.811429 -289.53149 
L 585.734118 -288.579861 
L 585.681016 -287.628232 
L 585.514101 -286.676603 
L 585.454682 -285.724973 
L 585.294233 -284.773344 
L 585.181156 -283.821715 
L 584.963491 -282.870085 
L 584.894283 -281.918456 
L 584.845823 -280.966827 
L 584.748121 -280.015198 
L 584.58197 -279.063568 
L 584.451311 -278.111939 
L 584.284426 -277.16031 
L 584.273765 -276.208681 
L 584.251652 -275.257051 
L 583.667181 -274.305422 
L 583.192669 -273.353793 
L 582.733086 -272.402163 
L 582.59707 -271.450534 
L 582.345987 -270.498905 
L 582.344362 -269.547276 
L 581.998626 -268.595646 
L 581.761589 -267.644017 
L 580.50784 -266.692388 
L 580.349451 -265.740759 
L 580.188981 -264.789129 
L 579.779875 -263.8375 
L 578.643614 -262.885871 
L 578.077997 -261.934241 
L 576.527279 -260.982612 
L 576.201056 -260.030983 
L 574.963924 -259.079354 
L 574.601402 -258.127724 
L 574.276816 -257.176095 
L 573.308153 -256.224466 
L 572.643586 -255.272837 
L 572.227831 -254.321207 
L 570.851894 -253.369578 
L 564.082847 -252.417949 
L 557.351587 -251.466319 
z
" style="stroke: #00bc00; stroke-opacity: 0.7"/>
    </defs>
    <g clip-path="url(#p6b139ae37d)">
     <use xlink:href="#m9871045735" x="0" y="720" style="fill: #00bc00; fill-opacity: 0.7; stroke: #00bc00; stroke-opacity: 0.7"/>
    </g>
   </g>
   <g id="matplotlib.axis_1">
    <g id="xtick_1">
     <g id="line2d_1">
      <defs>
       <path id="mb680ecb83d" d="M 0 0 
L 0 3.5 
" style="stroke: #000000; stroke-width: 0.8"/>
      </defs>
      <g>
       <use xlink:href="#mb680ecb83d" x="27.978125" y="678.84375" style="stroke: #000000; stroke-width: 0.8"/>
      </g>
     </g>
     <g id="text_1">
      <!-- −1.0 -->
      <g transform="translate(15.836719 693.442188) scale(0.1 -0.1)">
       <defs>
        <path id="DejaVuSans-2212" d="M 678 2272 
L 4684 2272 
L 4684 1741 
L 678 1741 
L 678 2272 
z
" transform="scale(0.015625)"/>
        <path id="DejaVuSans-31" d="M 794 531 
L 1825 531 
L 1825 4091 
L 703 3866 
L 703 4441 
L 1819 4666 
L 2450 4666 
L 2450 531 
L 3481 531 
L 3481 0 
L 794 0 
L 794 531 
z
" transform="scale(0.015625)"/>
        <path id="DejaVuSans-2e" d="M 684 794 
L 1344 794 
L 1344 0 
L 684 0 
L 684 794 
z
" transform="scale(0.015625)"/>
        <path id="DejaVuSans-30" d="M 2034 4250 
Q 1547 4250 1301 3770 
Q 1056 3291 1056 2328 
Q 1056 1369 1301 889 
Q 1547 409 2034 409 
Q 2525 409 2770 889 
Q 3016 1369 3016 2328 
Q 3016 3291 2770 3770 
Q 2525 4250 2034 4250 
z
M 2034 4750 
Q 2819 4750 3233 4129 
Q 3647 3509 3647 2328 
Q 3647 1150 3233 529 
Q 2819 -91 2034 -91 
Q 1250 -91 836 529 
Q 422 1150 422 2328 
Q 422 3509 836 4129 
Q 1250 4750 2034 4750 
z
" transform="scale(0.015625)"/>
       </defs>
       <use xlink:href="#DejaVuSans-2212"/>
       <use xlink:href="#DejaVuSans-31" x="83.789062"/>
       <use xlink:href="#DejaVuSans-2e" x="147.412109"/>
       <use xlink:href="#DejaVuSans-30" x="179.199219"/>
      </g>
     </g>
    </g>
    <g id="xtick_2">
     <g id="line2d_2">
      <g>
       <use xlink:href="#mb680ecb83d" x="95.305156" y="678.84375" style="stroke: #000000; stroke-width: 0.8"/>
      </g>
     </g>
     <g id="text_2">
      <!-- −0.8 -->
      <g transform="translate(83.16375 693.442188) scale(0.1 -0.1)">
       <defs>
        <path id="DejaVuSans-38" d="M 2034 2216 
Q 1584 2216 1326 1975 
Q 1069 1734 1069 1313 
Q 1069 891 1326 650 
Q 1584 409 2034 409 
Q 2484 409 2743 651 
Q 3003 894 3003 1313 
Q 3003 1734 2745 1975 
Q 2488 2216 2034 2216 
z
M 1403 2484 
Q 997 2584 770 2862 
Q 544 3141 544 3541 
Q 544 4100 942 4425 
Q 1341 4750 2034 4750 
Q 2731 4750 3128 4425 
Q 3525 4100 3525 3541 
Q 3525 3141 3298 2862 
Q 3072 2584 2669 2484 
Q 3125 2378 3379 2068 
Q 3634 1759 3634 1313 
Q 3634 634 3220 271 
Q 2806 -91 2034 -91 
Q 1263 -91 848 271 
Q 434 634 434 1313 
Q 434 1759 690 2068 
Q 947 2378 1403 2484 
z
M 1172 3481 
Q 1172 3119 1398 2916 
Q 1625 2713 2034 2713 
Q 2441 2713 2670 2916 
Q 2900 3119 2900 3481 
Q 2900 3844 2670 4047 
Q 2441 4250 2034 4250 
Q 1625 4250 1398 4047 
Q 1172 3844 1172 3481 
z
" transform="scale(0.015625)"/>
       </defs>
       <use xlink:href="#DejaVuSans-2212"/>
       <use xlink:href="#DejaVuSans-30" x="83.789062"/>
       <use xlink:href="#DejaVuSans-2e" x="147.412109"/>
       <use xlink:href="#DejaVuSans-38" x="179.199219"/>
      </g>
     </g>
    </g>
    <g id="xtick_3">
     <g id="line2d_3">
      <g>
       <use xlink:href="#mb680ecb83d" x="162.632188" y="678.84375" style="stroke: #000000; stroke-width: 0.8"/>
      </g>
     </g>
     <g id="text_3">
      <!-- −0.6 -->
      <g transform="translate(150.490781 693.442188) scale(0.1 -0.1)">
       <defs>
        <path id="DejaVuSans-36" d="M 2113 2584 
Q 1688 2584 1439 2293 
Q 1191 2003 1191 1497 
Q 1191 994 1439 701 
Q 1688 409 2113 409 
Q 2538 409 2786 701 
Q 3034 994 3034 1497 
Q 3034 2003 2786 2293 
Q 2538 2584 2113 2584 
z
M 3366 4563 
L 3366 3988 
Q 3128 4100 2886 4159 
Q 2644 4219 2406 4219 
Q 1781 4219 1451 3797 
Q 1122 3375 1075 2522 
Q 1259 2794 1537 2939 
Q 1816 3084 2150 3084 
Q 2853 3084 3261 2657 
Q 3669 2231 3669 1497 
Q 3669 778 3244 343 
Q 2819 -91 2113 -91 
Q 1303 -91 875 529 
Q 447 1150 447 2328 
Q 447 3434 972 4092 
Q 1497 4750 2381 4750 
Q 2619 4750 2861 4703 
Q 3103 4656 3366 4563 
z
" transform="scale(0.015625)"/>
       </defs>
       <use xlink:href="#DejaVuSans-2212"/>
       <use xlink:href="#DejaVuSans-30" x="83.789062"/>
       <use xlink:href="#DejaVuSans-2e" x="147.412109"/>
       <use xlink:href="#DejaVuSans-36" x="179.199219"/>
      </g>
     </g>
    </g>
    <g id="xtick_4">
     <g id="line2d_4">
      <g>
       <use xlink:href="#mb680ecb83d" x="229.959219" y="678.84375" style="stroke: #000000; stroke-width: 0.8"/>
      </g>
     </g>
     <g id="text_4">
      <!-- −0.4 -->
      <g transform="translate(217.817813 693.442188) scale(0.1 -0.1)">
       <defs>
        <path id="DejaVuSans-34" d="M 2419 4116 
L 825 1625 
L 2419 1625 
L 2419 4116 
z
M 2253 4666 
L 3047 4666 
L 3047 1625 
L 3713 1625 
L 3713 1100 
L 3047 1100 
L 3047 0 
L 2419 0 
L 2419 1100 
L 313 1100 
L 313 1709 
L 2253 4666 
z
" transform="scale(0.015625)"/>
       </defs>
       <use xlink:href="#DejaVuSans-2212"/>
       <use xlink:href="#DejaVuSans-30" x="83.789062"/>
       <use xlink:href="#DejaVuSans-2e" x="147.412109"/>
       <use xlink:href="#DejaVuSans-34" x="179.199219"/>
      </g>
     </g>
    </g>
    <g id="xtick_5">
     <g id="line2d_5">
      <g>
       <use xlink:href="#mb680ecb83d" x="297.28625" y="678.84375" style="stroke: #000000; stroke-width: 0.8"/>
      </g>
     </g>
     <g id="text_5">
      <!-- −0.2 -->
      <g transform="translate(285.144844 693.442188) scale(0.1 -0.1)">
       <defs>
        <path id="DejaVuSans-32" d="M 1228 531 
L 3431 531 
L 3431 0 
L 469 0 
L 469 531 
Q 828 903 1448 1529 
Q 2069 2156 2228 2338 
Q 2531 2678 2651 2914 
Q 2772 3150 2772 3378 
Q 2772 3750 2511 3984 
Q 2250 4219 1831 4219 
Q 1534 4219 1204 4116 
Q 875 4013 500 3803 
L 500 4441 
Q 881 4594 1212 4672 
Q 1544 4750 1819 4750 
Q 2544 4750 2975 4387 
Q 3406 4025 3406 3419 
Q 3406 3131 3298 2873 
Q 3191 2616 2906 2266 
Q 2828 2175 2409 1742 
Q 1991 1309 1228 531 
z
" transform="scale(0.015625)"/>
       </defs>
       <use xlink:href="#DejaVuSans-2212"/>
       <use xlink:href="#DejaVuSans-30" x="83.789062"/>
       <use xlink:href="#DejaVuSans-2e" x="147.412109"/>
       <use xlink:href="#DejaVuSans-32" x="179.199219"/>
      </g>
     </g>
    </g>
    <g id="xtick_6">
     <g id="line2d_6">
      <g>
       <use xlink:href="#mb680ecb83d" x="364.613281" y="678.84375" style="stroke: #000000; stroke-width: 0.8"/>
      </g>
     </g>
     <g id="text_6">
      <!-- 0.0 -->
      <g transform="translate(356.661719 693.442188) scale(0.1 -0.1)">
       <use xlink:href="#DejaVuSans-30"/>
       <use xlink:href="#DejaVuSans-2e" x="63.623047"/>
       <use xlink:href="#DejaVuSans-30" x="95.410156"/>
      </g>
     </g>
    </g>
    <g id="xtick_7">
     <g id="line2d_7">
      <g>
       <use xlink:href="#mb680ecb83d" x="431.940313" y="678.84375" style="stroke: #000000; stroke-width: 0.8"/>
      </g>
     </g>
     <g id="text_7">
      <!-- 0.2 -->
      <g transform="translate(423.98875 693.442188) scale(0.1 -0.1)">
       <use xlink:href="#DejaVuSans-30"/>
       <use xlink:href="#DejaVuSans-2e" x="63.623047"/>
       <use xlink:href="#DejaVuSans-32" x="95.410156"/>
      </g>
     </g>
    </g>
    <g id="xtick_8">
     <g id="line2d_8">
      <g>
       <use xlink:href="#mb680ecb83d" x="499.267344" y="678.84375" style="stroke: #000000; stroke-width: 0.8"/>
      </g>
     </g>
     <g id="text_8">
      <!-- 0.4 -->
      <g transform="translate(491.315781 693.442188) scale(0.1 -0.1)">
       <use xlink:href="#DejaVuSans-30"/>
       <use xlink:href="#DejaVuSans-2e" x="63.623047"/>
       <use xlink:href="#DejaVuSans-34" x="95.410156"/>
      </g>
     </g>
    </g>
    <g id="xtick_9">
     <g id="line2d_9">
      <g>
       <use xlink:href="#mb680ecb83d" x="566.594375" y="678.84375" style="stroke: #000000; stroke-width: 0.8"/>
      </g>
     </g>
     <g id="text_9">
      <!-- 0.6 -->
      <g transform="translate(558.642812 693.442188) scale(0.1 -0.1)">
       <use xlink:href="#DejaVuSans-30"/>
       <use xlink:href="#DejaVuSans-2e" x="63.623047"/>
       <use xlink:href="#DejaVuSans-36" x="95.410156"/>
      </g>
     </g>
    </g>
    <g id="xtick_10">
     <g id="line2d_10">
      <g>
       <use xlink:href="#mb680ecb83d" x="633.921406" y="678.84375" style="stroke: #000000; stroke-width: 0.8"/>
      </g>
     </g>
     <g id="text_10">
      <!-- 0.8 -->
      <g transform="translate(625.969844 693.442188) scale(0.1 -0.1)">
       <use xlink:href="#DejaVuSans-30"/>
       <use xlink:href="#DejaVuSans-2e" x="63.623047"/>
       <use xlink:href="#DejaVuSans-38" x="95.410156"/>
      </g>
     </g>
    </g>
    <g id="xtick_11">
     <g id="line2d_11">
      <g>
       <use xlink:href="#mb680ecb83d" x="701.248437" y="678.84375" style="stroke: #000000; stroke-width: 0.8"/>
      </g>
     </g>
     <g id="text_11">
      <!-- 1.0 -->
      <g transform="translate(693.296875 693.442188) scale(0.1 -0.1)">
       <use xlink:href="#DejaVuSans-31"/>
       <use xlink:href="#DejaVuSans-2e" x="63.623047"/>
       <use xlink:href="#DejaVuSans-30" x="95.410156"/>
      </g>
     </g>
    </g>
    <g id="text_12">
     <!-- Silhouette coefficient -->
     <g transform="translate(311.463281 707.120313) scale(0.1 -0.1)">
      <defs>
       <path id="DejaVuSans-53" d="M 3425 4513 
L 3425 3897 
Q 3066 4069 2747 4153 
Q 2428 4238 2131 4238 
Q 1616 4238 1336 4038 
Q 1056 3838 1056 3469 
Q 1056 3159 1242 3001 
Q 1428 2844 1947 2747 
L 2328 2669 
Q 3034 2534 3370 2195 
Q 3706 1856 3706 1288 
Q 3706 609 3251 259 
Q 2797 -91 1919 -91 
Q 1588 -91 1214 -16 
Q 841 59 441 206 
L 441 856 
Q 825 641 1194 531 
Q 1563 422 1919 422 
Q 2459 422 2753 634 
Q 3047 847 3047 1241 
Q 3047 1584 2836 1778 
Q 2625 1972 2144 2069 
L 1759 2144 
Q 1053 2284 737 2584 
Q 422 2884 422 3419 
Q 422 4038 858 4394 
Q 1294 4750 2059 4750 
Q 2388 4750 2728 4690 
Q 3069 4631 3425 4513 
z
" transform="scale(0.015625)"/>
       <path id="DejaVuSans-69" d="M 603 3500 
L 1178 3500 
L 1178 0 
L 603 0 
L 603 3500 
z
M 603 4863 
L 1178 4863 
L 1178 4134 
L 603 4134 
L 603 4863 
z
" transform="scale(0.015625)"/>
       <path id="DejaVuSans-6c" d="M 603 4863 
L 1178 4863 
L 1178 0 
L 603 0 
L 603 4863 
z
" transform="scale(0.015625)"/>
       <path id="DejaVuSans-68" d="M 3513 2113 
L 3513 0 
L 2938 0 
L 2938 2094 
Q 2938 2591 2744 2837 
Q 2550 3084 2163 3084 
Q 1697 3084 1428 2787 
Q 1159 2491 1159 1978 
L 1159 0 
L 581 0 
L 581 4863 
L 1159 4863 
L 1159 2956 
Q 1366 3272 1645 3428 
Q 1925 3584 2291 3584 
Q 2894 3584 3203 3211 
Q 3513 2838 3513 2113 
z
" transform="scale(0.015625)"/>
       <path id="DejaVuSans-6f" d="M 1959 3097 
Q 1497 3097 1228 2736 
Q 959 2375 959 1747 
Q 959 1119 1226 758 
Q 1494 397 1959 397 
Q 2419 397 2687 759 
Q 2956 1122 2956 1747 
Q 2956 2369 2687 2733 
Q 2419 3097 1959 3097 
z
M 1959 3584 
Q 2709 3584 3137 3096 
Q 3566 2609 3566 1747 
Q 3566 888 3137 398 
Q 2709 -91 1959 -91 
Q 1206 -91 779 398 
Q 353 888 353 1747 
Q 353 2609 779 3096 
Q 1206 3584 1959 3584 
z
" transform="scale(0.015625)"/>
       <path id="DejaVuSans-75" d="M 544 1381 
L 544 3500 
L 1119 3500 
L 1119 1403 
Q 1119 906 1312 657 
Q 1506 409 1894 409 
Q 2359 409 2629 706 
Q 2900 1003 2900 1516 
L 2900 3500 
L 3475 3500 
L 3475 0 
L 2900 0 
L 2900 538 
Q 2691 219 2414 64 
Q 2138 -91 1772 -91 
Q 1169 -91 856 284 
Q 544 659 544 1381 
z
M 1991 3584 
L 1991 3584 
z
" transform="scale(0.015625)"/>
       <path id="DejaVuSans-65" d="M 3597 1894 
L 3597 1613 
L 953 1613 
Q 991 1019 1311 708 
Q 1631 397 2203 397 
Q 2534 397 2845 478 
Q 3156 559 3463 722 
L 3463 178 
Q 3153 47 2828 -22 
Q 2503 -91 2169 -91 
Q 1331 -91 842 396 
Q 353 884 353 1716 
Q 353 2575 817 3079 
Q 1281 3584 2069 3584 
Q 2775 3584 3186 3129 
Q 3597 2675 3597 1894 
z
M 3022 2063 
Q 3016 2534 2758 2815 
Q 2500 3097 2075 3097 
Q 1594 3097 1305 2825 
Q 1016 2553 972 2059 
L 3022 2063 
z
" transform="scale(0.015625)"/>
       <path id="DejaVuSans-74" d="M 1172 4494 
L 1172 3500 
L 2356 3500 
L 2356 3053 
L 1172 3053 
L 1172 1153 
Q 1172 725 1289 603 
Q 1406 481 1766 481 
L 2356 481 
L 2356 0 
L 1766 0 
Q 1100 0 847 248 
Q 594 497 594 1153 
L 594 3053 
L 172 3053 
L 172 3500 
L 594 3500 
L 594 4494 
L 1172 4494 
z
" transform="scale(0.015625)"/>
       <path id="DejaVuSans-20" transform="scale(0.015625)"/>
       <path id="DejaVuSans-63" d="M 3122 3366 
L 3122 2828 
Q 2878 2963 2633 3030 
Q 2388 3097 2138 3097 
Q 1578 3097 1268 2742 
Q 959 2388 959 1747 
Q 959 1106 1268 751 
Q 1578 397 2138 397 
Q 2388 397 2633 464 
Q 2878 531 3122 666 
L 3122 134 
Q 2881 22 2623 -34 
Q 2366 -91 2075 -91 
Q 1284 -91 818 406 
Q 353 903 353 1747 
Q 353 2603 823 3093 
Q 1294 3584 2113 3584 
Q 2378 3584 2631 3529 
Q 2884 3475 3122 3366 
z
" transform="scale(0.015625)"/>
       <path id="DejaVuSans-66" d="M 2375 4863 
L 2375 4384 
L 1825 4384 
Q 1516 4384 1395 4259 
Q 1275 4134 1275 3809 
L 1275 3500 
L 2222 3500 
L 2222 3053 
L 1275 3053 
L 1275 0 
L 697 0 
L 697 3053 
L 147 3053 
L 147 3500 
L 697 3500 
L 697 3744 
Q 697 4328 969 4595 
Q 1241 4863 1831 4863 
L 2375 4863 
z
" transform="scale(0.015625)"/>
       <path id="DejaVuSans-6e" d="M 3513 2113 
L 3513 0 
L 2938 0 
L 2938 2094 
Q 2938 2591 2744 2837 
Q 2550 3084 2163 3084 
Q 1697 3084 1428 2787 
Q 1159 2491 1159 1978 
L 1159 0 
L 581 0 
L 581 3500 
L 1159 3500 
L 1159 2956 
Q 1366 3272 1645 3428 
Q 1925 3584 2291 3584 
Q 2894 3584 3203 3211 
Q 3513 2838 3513 2113 
z
" transform="scale(0.015625)"/>
      </defs>
      <use xlink:href="#DejaVuSans-53"/>
      <use xlink:href="#DejaVuSans-69" x="63.476562"/>
      <use xlink:href="#DejaVuSans-6c" x="91.259766"/>
      <use xlink:href="#DejaVuSans-68" x="119.042969"/>
      <use xlink:href="#DejaVuSans-6f" x="182.421875"/>
      <use xlink:href="#DejaVuSans-75" x="243.603516"/>
      <use xlink:href="#DejaVuSans-65" x="306.982422"/>
      <use xlink:href="#DejaVuSans-74" x="368.505859"/>
      <use xlink:href="#DejaVuSans-74" x="407.714844"/>
      <use xlink:href="#DejaVuSans-65" x="446.923828"/>
      <use xlink:href="#DejaVuSans-20" x="508.447266"/>
      <use xlink:href="#DejaVuSans-63" x="540.234375"/>
      <use xlink:href="#DejaVuSans-6f" x="595.214844"/>
      <use xlink:href="#DejaVuSans-65" x="656.396484"/>
      <use xlink:href="#DejaVuSans-66" x="717.919922"/>
      <use xlink:href="#DejaVuSans-66" x="753.125"/>
      <use xlink:href="#DejaVuSans-69" x="788.330078"/>
      <use xlink:href="#DejaVuSans-63" x="816.113281"/>
      <use xlink:href="#DejaVuSans-69" x="871.09375"/>
      <use xlink:href="#DejaVuSans-65" x="898.876953"/>
      <use xlink:href="#DejaVuSans-6e" x="960.400391"/>
      <use xlink:href="#DejaVuSans-74" x="1023.779297"/>
     </g>
    </g>
   </g>
   <g id="matplotlib.axis_2">
    <g id="text_13">
     <!-- Predicted label -->
     <g transform="translate(18.398438 381.974219) rotate(-90) scale(0.1 -0.1)">
      <defs>
       <path id="DejaVuSans-50" d="M 1259 4147 
L 1259 2394 
L 2053 2394 
Q 2494 2394 2734 2622 
Q 2975 2850 2975 3272 
Q 2975 3691 2734 3919 
Q 2494 4147 2053 4147 
L 1259 4147 
z
M 628 4666 
L 2053 4666 
Q 2838 4666 3239 4311 
Q 3641 3956 3641 3272 
Q 3641 2581 3239 2228 
Q 2838 1875 2053 1875 
L 1259 1875 
L 1259 0 
L 628 0 
L 628 4666 
z
" transform="scale(0.015625)"/>
       <path id="DejaVuSans-72" d="M 2631 2963 
Q 2534 3019 2420 3045 
Q 2306 3072 2169 3072 
Q 1681 3072 1420 2755 
Q 1159 2438 1159 1844 
L 1159 0 
L 581 0 
L 581 3500 
L 1159 3500 
L 1159 2956 
Q 1341 3275 1631 3429 
Q 1922 3584 2338 3584 
Q 2397 3584 2469 3576 
Q 2541 3569 2628 3553 
L 2631 2963 
z
" transform="scale(0.015625)"/>
       <path id="DejaVuSans-64" d="M 2906 2969 
L 2906 4863 
L 3481 4863 
L 3481 0 
L 2906 0 
L 2906 525 
Q 2725 213 2448 61 
Q 2172 -91 1784 -91 
Q 1150 -91 751 415 
Q 353 922 353 1747 
Q 353 2572 751 3078 
Q 1150 3584 1784 3584 
Q 2172 3584 2448 3432 
Q 2725 3281 2906 2969 
z
M 947 1747 
Q 947 1113 1208 752 
Q 1469 391 1925 391 
Q 2381 391 2643 752 
Q 2906 1113 2906 1747 
Q 2906 2381 2643 2742 
Q 2381 3103 1925 3103 
Q 1469 3103 1208 2742 
Q 947 2381 947 1747 
z
" transform="scale(0.015625)"/>
       <path id="DejaVuSans-61" d="M 2194 1759 
Q 1497 1759 1228 1600 
Q 959 1441 959 1056 
Q 959 750 1161 570 
Q 1363 391 1709 391 
Q 2188 391 2477 730 
Q 2766 1069 2766 1631 
L 2766 1759 
L 2194 1759 
z
M 3341 1997 
L 3341 0 
L 2766 0 
L 2766 531 
Q 2569 213 2275 61 
Q 1981 -91 1556 -91 
Q 1019 -91 701 211 
Q 384 513 384 1019 
Q 384 1609 779 1909 
Q 1175 2209 1959 2209 
L 2766 2209 
L 2766 2266 
Q 2766 2663 2505 2880 
Q 2244 3097 1772 3097 
Q 1472 3097 1187 3025 
Q 903 2953 641 2809 
L 641 3341 
Q 956 3463 1253 3523 
Q 1550 3584 1831 3584 
Q 2591 3584 2966 3190 
Q 3341 2797 3341 1997 
z
" transform="scale(0.015625)"/>
       <path id="DejaVuSans-62" d="M 3116 1747 
Q 3116 2381 2855 2742 
Q 2594 3103 2138 3103 
Q 1681 3103 1420 2742 
Q 1159 2381 1159 1747 
Q 1159 1113 1420 752 
Q 1681 391 2138 391 
Q 2594 391 2855 752 
Q 3116 1113 3116 1747 
z
M 1159 2969 
Q 1341 3281 1617 3432 
Q 1894 3584 2278 3584 
Q 2916 3584 3314 3078 
Q 3713 2572 3713 1747 
Q 3713 922 3314 415 
Q 2916 -91 2278 -91 
Q 1894 -91 1617 61 
Q 1341 213 1159 525 
L 1159 0 
L 581 0 
L 581 4863 
L 1159 4863 
L 1159 2969 
z
" transform="scale(0.015625)"/>
      </defs>
      <use xlink:href="#DejaVuSans-50"/>
      <use xlink:href="#DejaVuSans-72" x="58.552734"/>
      <use xlink:href="#DejaVuSans-65" x="97.416016"/>
      <use xlink:href="#DejaVuSans-64" x="158.939453"/>
      <use xlink:href="#DejaVuSans-69" x="222.416016"/>
      <use xlink:href="#DejaVuSans-63" x="250.199219"/>
      <use xlink:href="#DejaVuSans-74" x="305.179688"/>
      <use xlink:href="#DejaVuSans-65" x="344.388672"/>
      <use xlink:href="#DejaVuSans-64" x="405.912109"/>
      <use xlink:href="#DejaVuSans-20" x="469.388672"/>
      <use xlink:href="#DejaVuSans-6c" x="501.175781"/>
      <use xlink:href="#DejaVuSans-61" x="528.958984"/>
      <use xlink:href="#DejaVuSans-62" x="590.238281"/>
      <use xlink:href="#DejaVuSans-65" x="653.714844"/>
      <use xlink:href="#DejaVuSans-6c" x="715.238281"/>
     </g>
    </g>
   </g>
   <g id="line2d_12">
    <path d="M 573.667879 678.84375 
L 573.667879 10.8 
" clip-path="url(#p6b139ae37d)" style="fill: none; stroke: #ff0000; stroke-width: 1.5; stroke-linecap: square"/>
   </g>
   <g id="patch_3">
    <path d="M 27.978125 678.84375 
L 27.978125 10.8 
" style="fill: none; stroke: #000000; stroke-width: 0.8; stroke-linejoin: miter; stroke-linecap: square"/>
   </g>
   <g id="patch_4">
    <path d="M 701.248437 678.84375 
L 701.248437 10.8 
" style="fill: none; stroke: #000000; stroke-width: 0.8; stroke-linejoin: miter; stroke-linecap: square"/>
   </g>
   <g id="patch_5">
    <path d="M 27.978125 678.84375 
L 701.248437 678.84375 
" style="fill: none; stroke: #000000; stroke-width: 0.8; stroke-linejoin: miter; stroke-linecap: square"/>
   </g>
   <g id="patch_6">
    <path d="M 27.978125 10.8 
L 701.248437 10.8 
" style="fill: none; stroke: #000000; stroke-width: 0.8; stroke-linejoin: miter; stroke-linecap: square"/>
   </g>
   <g id="text_14">
    <!-- 0 -->
    <g transform="translate(347.781523 573.688715) scale(0.1 -0.1)">
     <use xlink:href="#DejaVuSans-30"/>
    </g>
   </g>
   <g id="text_15">
    <!-- 1 -->
    <g transform="translate(347.781523 244.424987) scale(0.1 -0.1)">
     <use xlink:href="#DejaVuSans-31"/>
    </g>
   </g>
   <g id="text_16">
    <!-- 0.6210 -->
    <g style="fill: #ff0000" transform="translate(590.499637 20.316293) scale(0.1 -0.1)">
     <use xlink:href="#DejaVuSans-30"/>
     <use xlink:href="#DejaVuSans-2e" x="63.623047"/>
     <use xlink:href="#DejaVuSans-36" x="95.410156"/>
     <use xlink:href="#DejaVuSans-32" x="159.033203"/>
     <use xlink:href="#DejaVuSans-31" x="222.65625"/>
     <use xlink:href="#DejaVuSans-30" x="286.279297"/>
    </g>
   </g>
  </g>
 </g>
 <defs>
  <clipPath id="p6b139ae37d">
   <rect x="27.978125" y="10.8" width="673.270312" height="668.04375"/>
  </clipPath>
 </defs>
</svg>
