<?xml version="1.0" encoding="utf-8" standalone="no"?>
<!DOCTYPE svg PUBLIC "-//W3C//DTD SVG 1.1//EN"
  "http://www.w3.org/Graphics/SVG/1.1/DTD/svg11.dtd">
<svg xmlns:xlink="http://www.w3.org/1999/xlink" width="720pt" height="432pt" viewBox="0 0 720 432" xmlns="http://www.w3.org/2000/svg" version="1.1">
 <metadata>
  <rdf:RDF xmlns:dc="http://purl.org/dc/elements/1.1/" xmlns:cc="http://creativecommons.org/ns#" xmlns:rdf="http://www.w3.org/1999/02/22-rdf-syntax-ns#">
   <cc:Work>
    <dc:type rdf:resource="http://purl.org/dc/dcmitype/StillImage"/>
    <dc:date>2022-11-04T12:59:53.779415</dc:date>
    <dc:format>image/svg+xml</dc:format>
    <dc:creator>
     <cc:Agent>
      <dc:title>Matplotlib v3.6.1, https://matplotlib.org/</dc:title>
     </cc:Agent>
    </dc:creator>
   </cc:Work>
  </rdf:RDF>
 </metadata>
 <defs>
  <style type="text/css">*{stroke-linejoin: round; stroke-linecap: butt}</style>
 </defs>
 <g id="figure_1">
  <g id="patch_1">
   <path d="M 0 432 
L 720 432 
L 720 0 
L 0 0 
z
" style="fill: #ffffff"/>
  </g>
  <g id="axes_1">
   <g id="patch_2">
    <path d="M 27.978125 390.84375 
L 701.248437 390.84375 
L 701.248437 14.033083 
L 27.978125 14.033083 
z
" style="fill: #ffffff"/>
   </g>
   <g id="PolyCollection_1">
    <defs>
     <path id="m879845c2da" d="M 364.418051 -46.101272 
L 364.613281 -46.101272 
L 364.613281 -46.595774 
L 364.613281 -47.090276 
L 364.613281 -47.584778 
L 364.613281 -48.079281 
L 364.613281 -48.573783 
L 364.613281 -49.068285 
L 364.613281 -49.562787 
L 364.613281 -50.057289 
L 364.613281 -50.551792 
L 364.613281 -51.046294 
L 364.613281 -51.540796 
L 364.613281 -52.035298 
L 364.613281 -52.5298 
L 364.613281 -53.024302 
L 364.613281 -53.518805 
L 364.613281 -54.013307 
L 364.613281 -54.507809 
L 364.613281 -55.002311 
L 364.613281 -55.496813 
L 364.613281 -55.991316 
L 364.613281 -56.485818 
L 364.613281 -56.98032 
L 364.613281 -57.474822 
L 364.613281 -57.969324 
L 364.613281 -58.463827 
L 364.613281 -58.958329 
L 364.613281 -59.452831 
L 364.613281 -59.947333 
L 364.613281 -60.441835 
L 364.613281 -60.936337 
L 364.613281 -61.43084 
L 364.613281 -61.925342 
L 364.613281 -62.419844 
L 364.613281 -62.914346 
L 364.613281 -63.408848 
L 364.613281 -63.903351 
L 364.613281 -64.397853 
L 364.613281 -64.892355 
L 364.613281 -65.386857 
L 364.613281 -65.881359 
L 364.613281 -66.375862 
L 364.613281 -66.870364 
L 364.613281 -67.364866 
L 364.613281 -67.859368 
L 364.613281 -68.35387 
L 364.613281 -68.848372 
L 364.613281 -69.342875 
L 364.613281 -69.837377 
L 364.613281 -70.331879 
L 364.613281 -70.826381 
L 364.613281 -71.320883 
L 364.613281 -71.815386 
L 364.613281 -72.309888 
L 364.613281 -72.80439 
L 364.613281 -73.298892 
L 364.613281 -73.793394 
L 364.613281 -74.287897 
L 364.613281 -74.782399 
L 364.613281 -75.276901 
L 364.613281 -75.771403 
L 364.613281 -76.265905 
L 364.613281 -76.760407 
L 364.613281 -77.25491 
L 364.613281 -77.749412 
L 364.613281 -78.243914 
L 364.613281 -78.738416 
L 364.613281 -79.232918 
L 364.613281 -79.727421 
L 364.613281 -80.221923 
L 364.613281 -80.716425 
L 364.613281 -81.210927 
L 364.613281 -81.705429 
L 364.613281 -82.199932 
L 364.613281 -82.694434 
L 364.613281 -83.188936 
L 364.613281 -83.683438 
L 364.613281 -84.17794 
L 364.613281 -84.672442 
L 364.613281 -85.166945 
L 364.613281 -85.661447 
L 364.613281 -86.155949 
L 364.613281 -86.650451 
L 364.613281 -87.144953 
L 364.613281 -87.639456 
L 364.613281 -88.133958 
L 364.613281 -88.62846 
L 364.613281 -89.122962 
L 364.613281 -89.617464 
L 364.613281 -90.111967 
L 364.613281 -90.606469 
L 364.613281 -91.100971 
L 364.613281 -91.595473 
L 364.613281 -92.089975 
L 364.613281 -92.584477 
L 364.613281 -93.07898 
L 364.613281 -93.573482 
L 364.613281 -94.067984 
L 364.613281 -94.562486 
L 364.613281 -95.056988 
L 364.613281 -95.551491 
L 364.613281 -96.045993 
L 364.613281 -96.540495 
L 364.613281 -97.034997 
L 364.613281 -97.529499 
L 364.613281 -98.024002 
L 364.613281 -98.518504 
L 364.613281 -99.013006 
L 364.613281 -99.507508 
L 364.613281 -100.00201 
L 364.613281 -100.496512 
L 364.613281 -100.991015 
L 364.613281 -101.485517 
L 364.613281 -101.980019 
L 364.613281 -102.474521 
L 364.613281 -102.969023 
L 364.613281 -103.463526 
L 364.613281 -103.958028 
L 364.613281 -104.45253 
L 364.613281 -104.947032 
L 364.613281 -105.441534 
L 364.613281 -105.936037 
L 364.613281 -106.430539 
L 364.613281 -106.925041 
L 364.613281 -107.419543 
L 364.674064 -107.419543 
L 364.674064 -107.419543 
L 364.671977 -106.925041 
L 364.671582 -106.430539 
L 364.671568 -105.936037 
L 364.670996 -105.441534 
L 364.670454 -104.947032 
L 364.670315 -104.45253 
L 364.670133 -103.958028 
L 364.670013 -103.463526 
L 364.669434 -102.969023 
L 364.669252 -102.474521 
L 364.66895 -101.980019 
L 364.667955 -101.485517 
L 364.667287 -100.991015 
L 364.66601 -100.496512 
L 364.665992 -100.00201 
L 364.66552 -99.507508 
L 364.665401 -99.013006 
L 364.664902 -98.518504 
L 364.664594 -98.024002 
L 364.663952 -97.529499 
L 364.662763 -97.034997 
L 364.662763 -96.540495 
L 364.66258 -96.045993 
L 364.662435 -95.551491 
L 364.66197 -95.056988 
L 364.66166 -94.562486 
L 364.660962 -94.067984 
L 364.660861 -93.573482 
L 364.659892 -93.07898 
L 364.659728 -92.584477 
L 364.658715 -92.089975 
L 364.658229 -91.595473 
L 364.658004 -91.100971 
L 364.657884 -90.606469 
L 364.657161 -90.111967 
L 364.65256 -89.617464 
L 364.648244 -89.122962 
L 364.646741 -88.62846 
L 364.64214 -88.133958 
L 364.639973 -87.639456 
L 364.639488 -87.144953 
L 364.639147 -86.650451 
L 364.638009 -86.155949 
L 364.636211 -85.661447 
L 364.635567 -85.166945 
L 364.635196 -84.672442 
L 364.635185 -84.17794 
L 364.634272 -83.683438 
L 364.633164 -83.188936 
L 364.632194 -82.694434 
L 364.6321 -82.199932 
L 364.631004 -81.705429 
L 364.630938 -81.210927 
L 364.630042 -80.716425 
L 364.629816 -80.221923 
L 364.629585 -79.727421 
L 364.629498 -79.232918 
L 364.628392 -78.738416 
L 364.627909 -78.243914 
L 364.627401 -77.749412 
L 364.627143 -77.25491 
L 364.627013 -76.760407 
L 364.626444 -76.265905 
L 364.626396 -75.771403 
L 364.625313 -75.276901 
L 364.625192 -74.782399 
L 364.62462 -74.287897 
L 364.624343 -73.793394 
L 364.62393 -73.298892 
L 364.623436 -72.80439 
L 364.623308 -72.309888 
L 364.623308 -71.815386 
L 364.623116 -71.320883 
L 364.622579 -70.826381 
L 364.620989 -70.331879 
L 364.620264 -69.837377 
L 364.616823 -69.342875 
L 364.616074 -68.848372 
L 364.61454 -68.35387 
L 364.612719 -67.859368 
L 364.609131 -67.364866 
L 364.608052 -66.870364 
L 364.607434 -66.375862 
L 364.601734 -65.881359 
L 364.588232 -65.386857 
L 364.58 -64.892355 
L 364.5784 -64.397853 
L 364.573294 -63.903351 
L 364.57204 -63.408848 
L 364.571234 -62.914346 
L 364.568179 -62.419844 
L 364.568081 -61.925342 
L 364.56632 -61.43084 
L 364.564581 -60.936337 
L 364.560624 -60.441835 
L 364.555369 -59.947333 
L 364.55222 -59.452831 
L 364.548383 -58.958329 
L 364.545637 -58.463827 
L 364.543464 -57.969324 
L 364.530732 -57.474822 
L 364.527562 -56.98032 
L 364.527081 -56.485818 
L 364.526326 -55.991316 
L 364.518889 -55.496813 
L 364.515148 -55.002311 
L 364.512976 -54.507809 
L 364.512918 -54.013307 
L 364.512798 -53.518805 
L 364.511607 -53.024302 
L 364.511213 -52.5298 
L 364.510798 -52.035298 
L 364.507676 -51.540796 
L 364.502886 -51.046294 
L 364.502362 -50.551792 
L 364.502065 -50.057289 
L 364.497762 -49.562787 
L 364.496552 -49.068285 
L 364.471467 -48.573783 
L 364.471209 -48.079281 
L 364.464428 -47.584778 
L 364.441505 -47.090276 
L 364.429466 -46.595774 
L 364.418051 -46.101272 
z
" style="stroke: #000000; stroke-opacity: 0.7"/>
    </defs>
    <g clip-path="url(#p31bfddf817)">
     <use xlink:href="#m879845c2da" x="0" y="432" style="fill-opacity: 0.7; stroke: #000000; stroke-opacity: 0.7"/>
    </g>
   </g>
   <g id="PolyCollection_2">
    <defs>
     <path id="m8b9c2977e4" d="M 364.677858 -112.859067 
L 364.613281 -112.859067 
L 364.613281 -113.353569 
L 364.613281 -113.848072 
L 364.613281 -114.342574 
L 364.613281 -114.837076 
L 364.613281 -115.331578 
L 364.613281 -115.82608 
L 364.613281 -116.320582 
L 364.613281 -116.815085 
L 364.613281 -117.309587 
L 364.613281 -117.804089 
L 364.613281 -118.298591 
L 364.613281 -118.793093 
L 364.613281 -119.287596 
L 364.613281 -119.782098 
L 364.613281 -120.2766 
L 364.613281 -120.771102 
L 364.613281 -121.265604 
L 364.613281 -121.760107 
L 364.613281 -122.254609 
L 364.613281 -122.749111 
L 364.613281 -123.243613 
L 364.613281 -123.738115 
L 364.613281 -124.232617 
L 364.613281 -124.72712 
L 364.613281 -125.221622 
L 364.613281 -125.716124 
L 364.613281 -126.210626 
L 364.613281 -126.705128 
L 364.613281 -127.199631 
L 364.613281 -127.694133 
L 364.613281 -128.188635 
L 364.613281 -128.683137 
L 364.613281 -129.177639 
L 364.613281 -129.672142 
L 364.613281 -130.166644 
L 364.613281 -130.661146 
L 364.613281 -131.155648 
L 364.613281 -131.65015 
L 364.613281 -132.144652 
L 364.613281 -132.639155 
L 364.613281 -133.133657 
L 364.613281 -133.628159 
L 364.613281 -134.122661 
L 364.613281 -134.617163 
L 364.613281 -135.111666 
L 364.613281 -135.606168 
L 364.613281 -136.10067 
L 364.613281 -136.595172 
L 364.613281 -137.089674 
L 364.613281 -137.584177 
L 364.613281 -138.078679 
L 364.613281 -138.573181 
L 364.613281 -139.067683 
L 364.613281 -139.562185 
L 364.613281 -140.056687 
L 364.613281 -140.55119 
L 364.613281 -141.045692 
L 364.613281 -141.540194 
L 364.613281 -142.034696 
L 364.613281 -142.529198 
L 364.613281 -143.023701 
L 364.613281 -143.518203 
L 364.613281 -144.012705 
L 364.613281 -144.507207 
L 364.613281 -145.001709 
L 364.613281 -145.496212 
L 364.613281 -145.990714 
L 364.613281 -146.485216 
L 364.613281 -146.979718 
L 364.613281 -147.47422 
L 364.613281 -147.968722 
L 364.613281 -148.463225 
L 364.613281 -148.957727 
L 364.613281 -149.452229 
L 364.613281 -149.946731 
L 364.613281 -150.441233 
L 364.613281 -150.935736 
L 364.613281 -151.430238 
L 364.613281 -151.92474 
L 364.613281 -152.419242 
L 364.613281 -152.913744 
L 364.613281 -153.408247 
L 364.613281 -153.902749 
L 364.613281 -154.397251 
L 364.613281 -154.891753 
L 364.613281 -155.386255 
L 364.952899 -155.386255 
L 364.952899 -155.386255 
L 364.943628 -154.891753 
L 364.938482 -154.397251 
L 364.936179 -153.902749 
L 364.928817 -153.408247 
L 364.927789 -152.913744 
L 364.923189 -152.419242 
L 364.914346 -151.92474 
L 364.913256 -151.430238 
L 364.912033 -150.935736 
L 364.911058 -150.441233 
L 364.909393 -149.946731 
L 364.906517 -149.452229 
L 364.905182 -148.957727 
L 364.904931 -148.463225 
L 364.9027 -147.968722 
L 364.902009 -147.47422 
L 364.901012 -146.979718 
L 364.900185 -146.485216 
L 364.899855 -145.990714 
L 364.899088 -145.496212 
L 364.893631 -145.001709 
L 364.892994 -144.507207 
L 364.891455 -144.012705 
L 364.890129 -143.518203 
L 364.889119 -143.023701 
L 364.888858 -142.529198 
L 364.887502 -142.034696 
L 364.887315 -141.540194 
L 364.88662 -141.045692 
L 364.885999 -140.55119 
L 364.885339 -140.056687 
L 364.883797 -139.562185 
L 364.882029 -139.067683 
L 364.879216 -138.573181 
L 364.876727 -138.078679 
L 364.875122 -137.584177 
L 364.874983 -137.089674 
L 364.874676 -136.595172 
L 364.874644 -136.10067 
L 364.871934 -135.606168 
L 364.870104 -135.111666 
L 364.869559 -134.617163 
L 364.868198 -134.122661 
L 364.866755 -133.628159 
L 364.864924 -133.133657 
L 364.864778 -132.639155 
L 364.864376 -132.144652 
L 364.863688 -131.65015 
L 364.862765 -131.155648 
L 364.861917 -130.661146 
L 364.859371 -130.166644 
L 364.856957 -129.672142 
L 364.85667 -129.177639 
L 364.855668 -128.683137 
L 364.852332 -128.188635 
L 364.849934 -127.694133 
L 364.846951 -127.199631 
L 364.842568 -126.705128 
L 364.841897 -126.210626 
L 364.84171 -125.716124 
L 364.84151 -125.221622 
L 364.840216 -124.72712 
L 364.837237 -124.232617 
L 364.835425 -123.738115 
L 364.833435 -123.243613 
L 364.833215 -122.749111 
L 364.830011 -122.254609 
L 364.826227 -121.760107 
L 364.825005 -121.265604 
L 364.82476 -120.771102 
L 364.821606 -120.2766 
L 364.819508 -119.782098 
L 364.810448 -119.287596 
L 364.805121 -118.793093 
L 364.804321 -118.298591 
L 364.801951 -117.804089 
L 364.79611 -117.309587 
L 364.79457 -116.815085 
L 364.794116 -116.320582 
L 364.792059 -115.82608 
L 364.775993 -115.331578 
L 364.76973 -114.837076 
L 364.755594 -114.342574 
L 364.752562 -113.848072 
L 364.743239 -113.353569 
L 364.677858 -112.859067 
z
" style="stroke: #4300a2; stroke-opacity: 0.7"/>
    </defs>
    <g clip-path="url(#p31bfddf817)">
     <use xlink:href="#m8b9c2977e4" x="0" y="432" style="fill: #4300a2; fill-opacity: 0.7; stroke: #4300a2; stroke-opacity: 0.7"/>
    </g>
   </g>
   <g id="PolyCollection_3">
    <defs>
     <path id="mb4f3105f0f" d="M 364.540324 -160.825779 
L 364.613281 -160.825779 
L 364.613281 -161.320282 
L 364.613281 -161.814784 
L 364.613281 -162.309286 
L 364.613281 -162.803788 
L 364.613281 -163.29829 
L 364.613281 -163.792792 
L 364.613281 -164.287295 
L 364.613281 -164.781797 
L 364.613281 -165.276299 
L 364.613281 -165.770801 
L 364.613281 -166.265303 
L 364.613281 -166.759806 
L 364.613281 -167.254308 
L 364.613281 -167.74881 
L 364.613281 -168.243312 
L 364.613281 -168.737814 
L 364.613281 -169.232317 
L 364.613281 -169.726819 
L 364.613281 -170.221321 
L 364.613281 -170.715823 
L 364.613281 -171.210325 
L 364.613281 -171.704827 
L 364.613281 -172.19933 
L 364.613281 -172.693832 
L 364.613281 -173.188334 
L 364.613281 -173.682836 
L 364.613281 -174.177338 
L 364.613281 -174.671841 
L 364.613281 -175.166343 
L 364.613281 -175.660845 
L 364.613281 -176.155347 
L 364.613281 -176.649849 
L 364.613281 -177.144352 
L 364.613281 -177.638854 
L 364.613281 -178.133356 
L 364.613281 -178.627858 
L 364.613281 -179.12236 
L 364.613281 -179.616862 
L 364.613281 -180.111365 
L 364.613281 -180.605867 
L 364.613281 -181.100369 
L 364.613281 -181.594871 
L 364.613281 -182.089373 
L 364.613281 -182.583876 
L 364.613281 -183.078378 
L 364.613281 -183.57288 
L 364.613281 -184.067382 
L 364.613281 -184.561884 
L 364.613281 -185.056387 
L 364.613281 -185.550889 
L 364.613281 -186.045391 
L 364.613281 -186.539893 
L 364.730136 -186.539893 
L 364.730136 -186.539893 
L 364.72874 -186.045391 
L 364.725838 -185.550889 
L 364.724479 -185.056387 
L 364.722468 -184.561884 
L 364.720553 -184.067382 
L 364.719744 -183.57288 
L 364.718238 -183.078378 
L 364.717693 -182.583876 
L 364.717465 -182.089373 
L 364.711258 -181.594871 
L 364.710712 -181.100369 
L 364.710579 -180.605867 
L 364.709864 -180.111365 
L 364.70935 -179.616862 
L 364.70935 -179.12236 
L 364.709182 -178.627858 
L 364.707897 -178.133356 
L 364.705862 -177.638854 
L 364.701163 -177.144352 
L 364.695655 -176.649849 
L 364.692351 -176.155347 
L 364.688868 -175.660845 
L 364.685339 -175.166343 
L 364.681254 -174.671841 
L 364.679133 -174.177338 
L 364.678216 -173.682836 
L 364.673724 -173.188334 
L 364.673285 -172.693832 
L 364.670865 -172.19933 
L 364.670652 -171.704827 
L 364.669244 -171.210325 
L 364.669002 -170.715823 
L 364.666271 -170.221321 
L 364.659736 -169.726819 
L 364.657128 -169.232317 
L 364.652682 -168.737814 
L 364.649033 -168.243312 
L 364.643212 -167.74881 
L 364.641819 -167.254308 
L 364.636198 -166.759806 
L 364.630761 -166.265303 
L 364.627128 -165.770801 
L 364.622426 -165.276299 
L 364.620406 -164.781797 
L 364.619928 -164.287295 
L 364.616917 -163.792792 
L 364.611372 -163.29829 
L 364.608581 -162.803788 
L 364.606781 -162.309286 
L 364.597159 -161.814784 
L 364.588127 -161.320282 
L 364.540324 -160.825779 
z
" style="stroke: #0078dd; stroke-opacity: 0.7"/>
    </defs>
    <g clip-path="url(#p31bfddf817)">
     <use xlink:href="#mb4f3105f0f" x="0" y="432" style="fill: #0078dd; fill-opacity: 0.7; stroke: #0078dd; stroke-opacity: 0.7"/>
    </g>
   </g>
   <g id="PolyCollection_4">
    <defs>
     <path id="m07f6bc8e37" d="M 364.717561 -191.979417 
L 364.613281 -191.979417 
L 364.613281 -192.473919 
L 364.613281 -192.968422 
L 364.613281 -193.462924 
L 364.613281 -193.957426 
L 364.613281 -194.451928 
L 364.613281 -194.94643 
L 364.613281 -195.440932 
L 364.613281 -195.935435 
L 364.613281 -196.429937 
L 364.613281 -196.924439 
L 364.613281 -197.418941 
L 364.613281 -197.913443 
L 364.613281 -198.407946 
L 364.613281 -198.902448 
L 364.613281 -199.39695 
L 364.613281 -199.891452 
L 364.613281 -200.385954 
L 364.613281 -200.880457 
L 364.613281 -201.374959 
L 364.613281 -201.869461 
L 364.613281 -202.363963 
L 364.613281 -202.858465 
L 364.613281 -203.352967 
L 364.613281 -203.84747 
L 364.613281 -204.341972 
L 364.613281 -204.836474 
L 364.613281 -205.330976 
L 364.613281 -205.825478 
L 364.613281 -206.319981 
L 364.613281 -206.814483 
L 364.613281 -207.308985 
L 364.613281 -207.803487 
L 364.613281 -208.297989 
L 364.613281 -208.792492 
L 364.613281 -209.286994 
L 364.613281 -209.781496 
L 364.613281 -210.275998 
L 364.613281 -210.7705 
L 364.613281 -211.265002 
L 364.613281 -211.759505 
L 364.613281 -212.254007 
L 364.613281 -212.748509 
L 364.613281 -213.243011 
L 364.613281 -213.737513 
L 364.613281 -214.232016 
L 364.613281 -214.726518 
L 364.613281 -215.22102 
L 364.613281 -215.715522 
L 364.613281 -216.210024 
L 364.613281 -216.704527 
L 364.613281 -217.199029 
L 364.613281 -217.693531 
L 364.613281 -218.188033 
L 364.613281 -218.682535 
L 364.613281 -219.177037 
L 364.613281 -219.67154 
L 364.613281 -220.166042 
L 364.613281 -220.660544 
L 364.613281 -221.155046 
L 364.613281 -221.649548 
L 364.613281 -222.144051 
L 364.613281 -222.638553 
L 364.613281 -223.133055 
L 364.613281 -223.627557 
L 364.613281 -224.122059 
L 364.613281 -224.616562 
L 364.613281 -225.111064 
L 364.613281 -225.605566 
L 364.613281 -226.100068 
L 364.613281 -226.59457 
L 364.613281 -227.089072 
L 364.613281 -227.583575 
L 364.613281 -228.078077 
L 364.613281 -228.572579 
L 364.613281 -229.067081 
L 364.613281 -229.561583 
L 364.613281 -230.056086 
L 364.613281 -230.550588 
L 364.613281 -231.04509 
L 364.613281 -231.539592 
L 364.613281 -232.034094 
L 364.613281 -232.528597 
L 364.613281 -233.023099 
L 364.613281 -233.517601 
L 364.613281 -234.012103 
L 364.613281 -234.506605 
L 364.613281 -235.001107 
L 364.613281 -235.49561 
L 364.613281 -235.990112 
L 364.613281 -236.484614 
L 364.613281 -236.979116 
L 364.613281 -237.473618 
L 364.613281 -237.968121 
L 364.613281 -238.462623 
L 364.613281 -238.957125 
L 364.613281 -239.451627 
L 364.613281 -239.946129 
L 364.613281 -240.440632 
L 364.613281 -240.935134 
L 364.613281 -241.429636 
L 364.940083 -241.429636 
L 364.940083 -241.429636 
L 364.928187 -240.935134 
L 364.928085 -240.440632 
L 364.924932 -239.946129 
L 364.924238 -239.451627 
L 364.912456 -238.957125 
L 364.911048 -238.462623 
L 364.910359 -237.968121 
L 364.90926 -237.473618 
L 364.903938 -236.979116 
L 364.903455 -236.484614 
L 364.902699 -235.990112 
L 364.901781 -235.49561 
L 364.901192 -235.001107 
L 364.901123 -234.506605 
L 364.899845 -234.012103 
L 364.89844 -233.517601 
L 364.89837 -233.023099 
L 364.897342 -232.528597 
L 364.897065 -232.034094 
L 364.894697 -231.539592 
L 364.894603 -231.04509 
L 364.892564 -230.550588 
L 364.891363 -230.056086 
L 364.89013 -229.561583 
L 364.889509 -229.067081 
L 364.887996 -228.572579 
L 364.886689 -228.078077 
L 364.885319 -227.583575 
L 364.882499 -227.089072 
L 364.880098 -226.59457 
L 364.879443 -226.100068 
L 364.876694 -225.605566 
L 364.876252 -225.111064 
L 364.875908 -224.616562 
L 364.874988 -224.122059 
L 364.872951 -223.627557 
L 364.872675 -223.133055 
L 364.871408 -222.638553 
L 364.870787 -222.144051 
L 364.869686 -221.649548 
L 364.866252 -221.155046 
L 364.865702 -220.660544 
L 364.864812 -220.166042 
L 364.862955 -219.67154 
L 364.862236 -219.177037 
L 364.861026 -218.682535 
L 364.860859 -218.188033 
L 364.860242 -217.693531 
L 364.859555 -217.199029 
L 364.85784 -216.704527 
L 364.857458 -216.210024 
L 364.856052 -215.715522 
L 364.855575 -215.22102 
L 364.853785 -214.726518 
L 364.85296 -214.232016 
L 364.852549 -213.737513 
L 364.852409 -213.243011 
L 364.852313 -212.748509 
L 364.850831 -212.254007 
L 364.850451 -211.759505 
L 364.849007 -211.265002 
L 364.846847 -210.7705 
L 364.845647 -210.275998 
L 364.839981 -209.781496 
L 364.83977 -209.286994 
L 364.839565 -208.792492 
L 364.837401 -208.297989 
L 364.83705 -207.803487 
L 364.835957 -207.308985 
L 364.832756 -206.814483 
L 364.832317 -206.319981 
L 364.83176 -205.825478 
L 364.830152 -205.330976 
L 364.828193 -204.836474 
L 364.824114 -204.341972 
L 364.823182 -203.84747 
L 364.811159 -203.352967 
L 364.809925 -202.858465 
L 364.807279 -202.363963 
L 364.799769 -201.869461 
L 364.79941 -201.374959 
L 364.798178 -200.880457 
L 364.79719 -200.385954 
L 364.787471 -199.891452 
L 364.787118 -199.39695 
L 364.785574 -198.902448 
L 364.784994 -198.407946 
L 364.784069 -197.913443 
L 364.78241 -197.418941 
L 364.769296 -196.924439 
L 364.760463 -196.429937 
L 364.755654 -195.935435 
L 364.752876 -195.440932 
L 364.749472 -194.94643 
L 364.748927 -194.451928 
L 364.747344 -193.957426 
L 364.746242 -193.462924 
L 364.745933 -192.968422 
L 364.734048 -192.473919 
L 364.717561 -191.979417 
z
" style="stroke: #00aa98; stroke-opacity: 0.7"/>
    </defs>
    <g clip-path="url(#p31bfddf817)">
     <use xlink:href="#m07f6bc8e37" x="0" y="432" style="fill: #00aa98; fill-opacity: 0.7; stroke: #00aa98; stroke-opacity: 0.7"/>
    </g>
   </g>
   <g id="PolyCollection_5">
    <defs>
     <path id="mea3a664610" d="M 364.712526 -246.86916 
L 364.613281 -246.86916 
L 364.613281 -247.363662 
L 364.613281 -247.858164 
L 364.613281 -248.352667 
L 364.613281 -248.847169 
L 364.613281 -249.341671 
L 364.613281 -249.836173 
L 364.613281 -250.330675 
L 364.613281 -250.825177 
L 364.613281 -251.31968 
L 364.613281 -251.814182 
L 364.613281 -252.308684 
L 364.613281 -252.803186 
L 364.613281 -253.297688 
L 364.613281 -253.792191 
L 364.613281 -254.286693 
L 364.613281 -254.781195 
L 364.613281 -255.275697 
L 364.613281 -255.770199 
L 364.613281 -256.264702 
L 364.613281 -256.759204 
L 364.613281 -257.253706 
L 364.613281 -257.748208 
L 364.613281 -258.24271 
L 364.613281 -258.737212 
L 364.613281 -259.231715 
L 364.613281 -259.726217 
L 364.613281 -260.220719 
L 364.613281 -260.715221 
L 364.613281 -261.209723 
L 364.613281 -261.704226 
L 364.613281 -262.198728 
L 364.613281 -262.69323 
L 364.613281 -263.187732 
L 364.613281 -263.682234 
L 364.613281 -264.176737 
L 364.613281 -264.671239 
L 364.613281 -265.165741 
L 364.613281 -265.660243 
L 364.613281 -266.154745 
L 364.613281 -266.649247 
L 364.613281 -267.14375 
L 364.613281 -267.638252 
L 364.613281 -268.132754 
L 364.613281 -268.627256 
L 364.613281 -269.121758 
L 364.613281 -269.616261 
L 364.613281 -270.110763 
L 364.613281 -270.605265 
L 364.613281 -271.099767 
L 364.613281 -271.594269 
L 364.613281 -272.088772 
L 364.613281 -272.583274 
L 364.613281 -273.077776 
L 364.613281 -273.572278 
L 364.613281 -274.06678 
L 364.613281 -274.561282 
L 364.613281 -275.055785 
L 364.613281 -275.550287 
L 364.613281 -276.044789 
L 364.613281 -276.539291 
L 364.841121 -276.539291 
L 364.841121 -276.539291 
L 364.829613 -276.044789 
L 364.827211 -275.550287 
L 364.826178 -275.055785 
L 364.819925 -274.561282 
L 364.819011 -274.06678 
L 364.81891 -273.572278 
L 364.816034 -273.077776 
L 364.815576 -272.583274 
L 364.814705 -272.088772 
L 364.81376 -271.594269 
L 364.81316 -271.099767 
L 364.811257 -270.605265 
L 364.810822 -270.110763 
L 364.810593 -269.616261 
L 364.810593 -269.121758 
L 364.808452 -268.627256 
L 364.807845 -268.132754 
L 364.807845 -267.638252 
L 364.806977 -267.14375 
L 364.806977 -266.649247 
L 364.805948 -266.154745 
L 364.80571 -265.660243 
L 364.805066 -265.165741 
L 364.804985 -264.671239 
L 364.80166 -264.176737 
L 364.798602 -263.682234 
L 364.798461 -263.187732 
L 364.797057 -262.69323 
L 364.797057 -262.198728 
L 364.796386 -261.704226 
L 364.796049 -261.209723 
L 364.796026 -260.715221 
L 364.794757 -260.220719 
L 364.792686 -259.726217 
L 364.791531 -259.231715 
L 364.788768 -258.737212 
L 364.788621 -258.24271 
L 364.788549 -257.748208 
L 364.78729 -257.253706 
L 364.785596 -256.759204 
L 364.784107 -256.264702 
L 364.78366 -255.770199 
L 364.780832 -255.275697 
L 364.779709 -254.781195 
L 364.777717 -254.286693 
L 364.775578 -253.792191 
L 364.775531 -253.297688 
L 364.773288 -252.803186 
L 364.772897 -252.308684 
L 364.772862 -251.814182 
L 364.770217 -251.31968 
L 364.769027 -250.825177 
L 364.768076 -250.330675 
L 364.766016 -249.836173 
L 364.764826 -249.341671 
L 364.759889 -248.847169 
L 364.754989 -248.352667 
L 364.754029 -247.858164 
L 364.720852 -247.363662 
L 364.712526 -246.86916 
z
" style="stroke: #00bc00; stroke-opacity: 0.7"/>
    </defs>
    <g clip-path="url(#p31bfddf817)">
     <use xlink:href="#mea3a664610" x="0" y="432" style="fill: #00bc00; fill-opacity: 0.7; stroke: #00bc00; stroke-opacity: 0.7"/>
    </g>
   </g>
   <g id="PolyCollection_6">
    <defs>
     <path id="mdba3f67a14" d="M 365.585648 -281.978815 
L 364.613281 -281.978815 
L 364.613281 -282.473317 
L 364.613281 -282.96782 
L 364.613281 -283.462322 
L 364.613281 -283.956824 
L 364.613281 -284.451326 
L 364.613281 -284.945828 
L 364.613281 -285.440331 
L 364.613281 -285.934833 
L 364.613281 -286.429335 
L 364.613281 -286.923837 
L 364.613281 -287.418339 
L 364.613281 -287.912842 
L 364.613281 -288.407344 
L 364.613281 -288.901846 
L 364.613281 -289.396348 
L 364.613281 -289.89085 
L 364.613281 -290.385352 
L 364.613281 -290.879855 
L 364.613281 -291.374357 
L 364.613281 -291.868859 
L 364.613281 -292.363361 
L 364.613281 -292.857863 
L 364.613281 -293.352366 
L 364.613281 -293.846868 
L 364.613281 -294.34137 
L 364.613281 -294.835872 
L 364.613281 -295.330374 
L 364.613281 -295.824877 
L 364.613281 -296.319379 
L 364.613281 -296.813881 
L 364.613281 -297.308383 
L 364.613281 -297.802885 
L 364.613281 -298.297387 
L 364.613281 -298.79189 
L 364.613281 -299.286392 
L 364.613281 -299.780894 
L 364.613281 -300.275396 
L 364.613281 -300.769898 
L 364.613281 -301.264401 
L 364.613281 -301.758903 
L 364.613281 -302.253405 
L 364.613281 -302.747907 
L 364.613281 -303.242409 
L 364.613281 -303.736912 
L 364.613281 -304.231414 
L 364.613281 -304.725916 
L 364.613281 -305.220418 
L 364.613281 -305.71492 
L 364.613281 -306.209422 
L 364.613281 -306.703925 
L 364.613281 -307.198427 
L 364.613281 -307.692929 
L 364.613281 -308.187431 
L 364.613281 -308.681933 
L 364.613281 -309.176436 
L 364.613281 -309.670938 
L 364.613281 -310.16544 
L 364.613281 -310.659942 
L 364.613281 -311.154444 
L 364.613281 -311.648947 
L 364.613281 -312.143449 
L 364.613281 -312.637951 
L 364.613281 -313.132453 
L 364.613281 -313.626955 
L 364.613281 -314.121457 
L 364.613281 -314.61596 
L 364.613281 -315.110462 
L 364.613281 -315.604964 
L 364.613281 -316.099466 
L 364.613281 -316.593968 
L 364.613281 -317.088471 
L 364.613281 -317.582973 
L 364.613281 -318.077475 
L 364.613281 -318.571977 
L 364.613281 -319.066479 
L 364.613281 -319.560982 
L 364.613281 -320.055484 
L 364.613281 -320.549986 
L 364.613281 -321.044488 
L 364.613281 -321.53899 
L 364.613281 -322.033492 
L 364.613281 -322.527995 
L 364.613281 -323.022497 
L 364.613281 -323.516999 
L 364.613281 -324.011501 
L 364.613281 -324.506003 
L 364.613281 -325.000506 
L 364.613281 -325.495008 
L 364.613281 -325.98951 
L 364.613281 -326.484012 
L 364.613281 -326.978514 
L 364.613281 -327.473017 
L 364.613281 -327.967519 
L 364.613281 -328.462021 
L 364.613281 -328.956523 
L 364.613281 -329.451025 
L 364.613281 -329.945527 
L 364.613281 -330.44003 
L 364.613281 -330.934532 
L 364.613281 -331.429034 
L 364.613281 -331.923536 
L 364.613281 -332.418038 
L 364.613281 -332.912541 
L 364.613281 -333.407043 
L 364.613281 -333.901545 
L 364.613281 -334.396047 
L 364.613281 -334.890549 
L 364.613281 -335.385052 
L 364.613281 -335.879554 
L 364.613281 -336.374056 
L 364.613281 -336.868558 
L 364.613281 -337.36306 
L 364.613281 -337.857562 
L 364.613281 -338.352065 
L 364.613281 -338.846567 
L 364.613281 -339.341069 
L 364.613281 -339.835571 
L 364.613281 -340.330073 
L 364.613281 -340.824576 
L 364.613281 -341.319078 
L 364.613281 -341.81358 
L 364.613281 -342.308082 
L 364.613281 -342.802584 
L 364.613281 -343.297087 
L 364.613281 -343.791589 
L 364.613281 -344.286091 
L 364.613281 -344.780593 
L 364.613281 -345.275095 
L 364.613281 -345.769597 
L 364.613281 -346.2641 
L 364.613281 -346.758602 
L 364.613281 -347.253104 
L 364.613281 -347.747606 
L 364.613281 -348.242108 
L 364.613281 -348.736611 
L 364.613281 -349.231113 
L 364.613281 -349.725615 
L 364.613281 -350.220117 
L 364.613281 -350.714619 
L 364.613281 -351.209122 
L 364.613281 -351.703624 
L 364.613281 -352.198126 
L 364.613281 -352.692628 
L 364.613281 -353.18713 
L 364.613281 -353.681632 
L 364.613281 -354.176135 
L 364.613281 -354.670637 
L 364.613281 -355.165139 
L 364.613281 -355.659641 
L 364.613281 -356.154143 
L 364.613281 -356.648646 
L 364.613281 -357.143148 
L 364.613281 -357.63765 
L 364.613281 -358.132152 
L 364.613281 -358.626654 
L 364.613281 -359.121157 
L 364.613281 -359.615659 
L 364.613281 -360.110161 
L 364.613281 -360.604663 
L 364.613281 -361.099165 
L 364.613281 -361.593667 
L 364.613281 -362.08817 
L 364.613281 -362.582672 
L 364.613281 -363.077174 
L 364.613281 -363.571676 
L 364.613281 -364.066178 
L 364.613281 -364.560681 
L 364.613281 -365.055183 
L 364.613281 -365.549685 
L 364.613281 -366.044187 
L 364.613281 -366.538689 
L 364.613281 -367.033192 
L 364.613281 -367.527694 
L 364.613281 -368.022196 
L 364.613281 -368.516698 
L 364.613281 -369.0112 
L 364.613281 -369.505702 
L 364.613281 -370.000205 
L 364.613281 -370.494707 
L 364.613281 -370.989209 
L 364.613281 -371.483711 
L 364.613281 -371.978213 
L 364.613281 -372.472716 
L 364.613281 -372.967218 
L 364.613281 -373.46172 
L 364.613281 -373.956222 
L 364.613281 -374.450724 
L 364.613281 -374.945227 
L 364.613281 -375.439729 
L 364.613281 -375.934231 
L 364.613281 -376.428733 
L 364.613281 -376.923235 
L 364.613281 -377.417737 
L 364.613281 -377.91224 
L 364.613281 -378.406742 
L 364.613281 -378.901244 
L 364.613281 -379.395746 
L 364.613281 -379.890248 
L 364.613281 -380.384751 
L 364.613281 -380.879253 
L 366.2598 -380.879253 
L 366.2598 -380.879253 
L 366.239016 -380.384751 
L 366.23455 -379.890248 
L 366.229311 -379.395746 
L 366.194272 -378.901244 
L 366.177231 -378.406742 
L 366.165106 -377.91224 
L 366.162358 -377.417737 
L 366.157511 -376.923235 
L 366.154868 -376.428733 
L 366.1537 -375.934231 
L 366.150777 -375.439729 
L 366.148461 -374.945227 
L 366.145231 -374.450724 
L 366.142899 -373.956222 
L 366.140347 -373.46172 
L 366.140172 -372.967218 
L 366.137969 -372.472716 
L 366.13764 -371.978213 
L 366.13345 -371.483711 
L 366.125822 -370.989209 
L 366.121329 -370.494707 
L 366.121237 -370.000205 
L 366.117512 -369.505702 
L 366.117495 -369.0112 
L 366.112879 -368.516698 
L 366.112446 -368.022196 
L 366.111935 -367.527694 
L 366.110646 -367.033192 
L 366.108771 -366.538689 
L 366.106052 -366.044187 
L 366.098185 -365.549685 
L 366.097335 -365.055183 
L 366.095628 -364.560681 
L 366.095335 -364.066178 
L 366.095123 -363.571676 
L 366.095076 -363.077174 
L 366.09321 -362.582672 
L 366.087337 -362.08817 
L 366.086628 -361.593667 
L 366.083129 -361.099165 
L 366.083057 -360.604663 
L 366.08119 -360.110161 
L 366.079938 -359.615659 
L 366.076494 -359.121157 
L 366.075463 -358.626654 
L 366.074786 -358.132152 
L 366.074356 -357.63765 
L 366.07291 -357.143148 
L 366.071427 -356.648646 
L 366.070642 -356.154143 
L 366.069881 -355.659641 
L 366.068464 -355.165139 
L 366.067904 -354.670637 
L 366.06655 -354.176135 
L 366.066284 -353.681632 
L 366.06589 -353.18713 
L 366.065466 -352.692628 
L 366.064484 -352.198126 
L 366.059367 -351.703624 
L 366.057463 -351.209122 
L 366.056655 -350.714619 
L 366.053966 -350.220117 
L 366.053966 -349.725615 
L 366.05236 -349.231113 
L 366.051784 -348.736611 
L 366.051097 -348.242108 
L 366.050852 -347.747606 
L 366.049292 -347.253104 
L 366.049191 -346.758602 
L 366.047833 -346.2641 
L 366.04748 -345.769597 
L 366.047293 -345.275095 
L 366.047157 -344.780593 
L 366.04635 -344.286091 
L 366.043626 -343.791589 
L 366.043601 -343.297087 
L 366.043562 -342.802584 
L 366.043308 -342.308082 
L 366.041994 -341.81358 
L 366.040606 -341.319078 
L 366.040029 -340.824576 
L 366.039882 -340.330073 
L 366.038964 -339.835571 
L 366.037725 -339.341069 
L 366.034387 -338.846567 
L 366.034166 -338.352065 
L 366.031479 -337.857562 
L 366.028204 -337.36306 
L 366.028132 -336.868558 
L 366.026966 -336.374056 
L 366.026128 -335.879554 
L 366.025921 -335.385052 
L 366.02516 -334.890549 
L 366.023223 -334.396047 
L 366.021885 -333.901545 
L 366.019323 -333.407043 
L 366.014907 -332.912541 
L 366.013546 -332.418038 
L 366.013323 -331.923536 
L 366.011972 -331.429034 
L 366.011827 -330.934532 
L 366.011388 -330.44003 
L 366.004978 -329.945527 
L 366.004581 -329.451025 
L 366.003139 -328.956523 
L 366.001681 -328.462021 
L 366.001609 -327.967519 
L 366.00157 -327.473017 
L 365.99915 -326.978514 
L 365.998088 -326.484012 
L 365.997752 -325.98951 
L 365.988606 -325.495008 
L 365.987384 -325.000506 
L 365.987085 -324.506003 
L 365.986627 -324.011501 
L 365.984837 -323.516999 
L 365.979942 -323.022497 
L 365.979119 -322.527995 
L 365.978525 -322.033492 
L 365.977831 -321.53899 
L 365.97713 -321.044488 
L 365.976213 -320.549986 
L 365.975761 -320.055484 
L 365.97443 -319.560982 
L 365.968152 -319.066479 
L 365.967916 -318.571977 
L 365.966916 -318.077475 
L 365.959403 -317.582973 
L 365.958702 -317.088471 
L 365.958595 -316.593968 
L 365.953647 -316.099466 
L 365.951584 -315.604964 
L 365.944124 -315.110462 
L 365.943724 -314.61596 
L 365.942658 -314.121457 
L 365.940893 -313.626955 
L 365.9381 -313.132453 
L 365.937203 -312.637951 
L 365.936227 -312.143449 
L 365.934669 -311.648947 
L 365.931042 -311.154444 
L 365.930928 -310.659942 
L 365.930392 -310.16544 
L 365.925473 -309.670938 
L 365.923092 -309.176436 
L 365.922712 -308.681933 
L 365.922176 -308.187431 
L 365.921169 -307.692929 
L 365.918311 -307.198427 
L 365.914867 -306.703925 
L 365.899736 -306.209422 
L 365.89922 -305.71492 
L 365.896031 -305.220418 
L 365.894117 -304.725916 
L 365.892513 -304.231414 
L 365.888942 -303.736912 
L 365.885356 -303.242409 
L 365.882129 -302.747907 
L 365.880461 -302.253405 
L 365.869161 -301.758903 
L 365.869124 -301.264401 
L 365.865499 -300.769898 
L 365.85941 -300.275396 
L 365.858136 -299.780894 
L 365.847856 -299.286392 
L 365.847682 -298.79189 
L 365.842321 -298.297387 
L 365.830276 -297.802885 
L 365.824162 -297.308383 
L 365.822285 -296.813881 
L 365.812912 -296.319379 
L 365.812887 -295.824877 
L 365.811148 -295.330374 
L 365.807552 -294.835872 
L 365.80709 -294.34137 
L 365.797161 -293.846868 
L 365.789991 -293.352366 
L 365.788056 -292.857863 
L 365.785706 -292.363361 
L 365.783461 -291.868859 
L 365.780805 -291.374357 
L 365.770409 -290.879855 
L 365.757448 -290.385352 
L 365.754635 -289.89085 
L 365.753958 -289.396348 
L 365.752361 -288.901846 
L 365.752062 -288.407344 
L 365.749175 -287.912842 
L 365.734205 -287.418339 
L 365.697291 -286.923837 
L 365.68949 -286.429335 
L 365.666751 -285.934833 
L 365.665707 -285.440331 
L 365.638176 -284.945828 
L 365.631843 -284.451326 
L 365.627303 -283.956824 
L 365.616912 -283.462322 
L 365.602269 -282.96782 
L 365.598408 -282.473317 
L 365.585648 -281.978815 
z
" style="stroke: #67ff00; stroke-opacity: 0.7"/>
    </defs>
    <g clip-path="url(#p31bfddf817)">
     <use xlink:href="#mdba3f67a14" x="0" y="432" style="fill: #67ff00; fill-opacity: 0.7; stroke: #67ff00; stroke-opacity: 0.7"/>
    </g>
   </g>
   <g id="PolyCollection_7">
    <defs>
     <path id="mad7cb3ed25" d="M 364.606183 -386.318777 
L 364.613281 -386.318777 
L 364.613281 -386.813279 
L 364.613281 -387.307781 
L 364.613281 -387.802283 
L 364.613281 -388.296786 
L 364.613281 -388.791288 
L 364.613281 -389.28579 
L 364.613281 -389.780292 
L 364.613281 -390.274794 
L 364.613281 -390.769297 
L 364.613281 -391.263799 
L 364.613281 -391.758301 
L 364.613281 -392.252803 
L 364.613281 -392.747305 
L 364.613281 -393.241807 
L 364.613281 -393.73631 
L 364.613281 -394.230812 
L 364.613281 -394.725314 
L 364.613281 -395.219816 
L 364.613281 -395.714318 
L 364.613281 -396.208821 
L 364.613281 -396.703323 
L 364.613281 -397.197825 
L 364.613281 -397.692327 
L 364.613281 -398.186829 
L 364.613281 -398.681332 
L 364.613281 -399.175834 
L 364.613281 -399.670336 
L 364.613281 -400.164838 
L 364.613281 -400.65934 
L 364.613281 -401.153842 
L 364.613281 -401.648345 
L 364.613281 -402.142847 
L 364.613281 -402.637349 
L 364.613281 -403.131851 
L 364.613281 -403.626353 
L 364.794845 -403.626353 
L 364.794845 -403.626353 
L 364.773637 -403.131851 
L 364.763997 -402.637349 
L 364.754203 -402.142847 
L 364.751209 -401.648345 
L 364.746863 -401.153842 
L 364.739692 -400.65934 
L 364.731479 -400.164838 
L 364.718374 -399.670336 
L 364.718253 -399.175834 
L 364.717131 -398.681332 
L 364.713637 -398.186829 
L 364.709691 -397.692327 
L 364.709679 -397.197825 
L 364.696122 -396.703323 
L 364.693013 -396.208821 
L 364.692816 -395.714318 
L 364.677403 -395.219816 
L 364.673582 -394.725314 
L 364.672689 -394.230812 
L 364.671823 -393.73631 
L 364.671772 -393.241807 
L 364.671672 -392.747305 
L 364.666628 -392.252803 
L 364.658963 -391.758301 
L 364.651331 -391.263799 
L 364.638586 -390.769297 
L 364.634493 -390.274794 
L 364.621695 -389.780292 
L 364.619952 -389.28579 
L 364.616117 -388.791288 
L 364.615792 -388.296786 
L 364.614375 -387.802283 
L 364.610372 -387.307781 
L 364.60712 -386.813279 
L 364.606183 -386.318777 
z
" style="stroke: #ffc900; stroke-opacity: 0.7"/>
    </defs>
    <g clip-path="url(#p31bfddf817)">
     <use xlink:href="#mad7cb3ed25" x="0" y="432" style="fill: #ffc900; fill-opacity: 0.7; stroke: #ffc900; stroke-opacity: 0.7"/>
    </g>
   </g>
   <g id="PolyCollection_8">
    <defs>
     <path id="mb885498851" d="M 364.896586 -409.065877 
L 364.613281 -409.065877 
L 364.613281 -409.56038 
L 364.613281 -410.054882 
L 364.613281 -410.549384 
L 364.613281 -411.043886 
L 364.613281 -411.538388 
L 364.613281 -412.032891 
L 364.613281 -412.527393 
L 364.988323 -412.527393 
L 364.988323 -412.527393 
L 364.974651 -412.032891 
L 364.970008 -411.538388 
L 364.964856 -411.043886 
L 364.962647 -410.549384 
L 364.958625 -410.054882 
L 364.923124 -409.56038 
L 364.896586 -409.065877 
z
" style="stroke: #ec0000; stroke-opacity: 0.7"/>
    </defs>
    <g clip-path="url(#p31bfddf817)">
     <use xlink:href="#mb885498851" x="0" y="432" style="fill: #ec0000; fill-opacity: 0.7; stroke: #ec0000; stroke-opacity: 0.7"/>
    </g>
   </g>
   <g id="matplotlib.axis_1">
    <g id="xtick_1">
     <g id="line2d_1">
      <defs>
       <path id="m7b2b104f6b" d="M 0 0 
L 0 3.5 
" style="stroke: #000000; stroke-width: 0.8"/>
      </defs>
      <g>
       <use xlink:href="#m7b2b104f6b" x="27.978125" y="390.84375" style="stroke: #000000; stroke-width: 0.8"/>
      </g>
     </g>
     <g id="text_1">
      <!-- −1.0 -->
      <g transform="translate(15.836719 405.442187) scale(0.1 -0.1)">
       <defs>
        <path id="DejaVuSans-2212" d="M 678 2272 
L 4684 2272 
L 4684 1741 
L 678 1741 
L 678 2272 
z
" transform="scale(0.015625)"/>
        <path id="DejaVuSans-31" d="M 794 531 
L 1825 531 
L 1825 4091 
L 703 3866 
L 703 4441 
L 1819 4666 
L 2450 4666 
L 2450 531 
L 3481 531 
L 3481 0 
L 794 0 
L 794 531 
z
" transform="scale(0.015625)"/>
        <path id="DejaVuSans-2e" d="M 684 794 
L 1344 794 
L 1344 0 
L 684 0 
L 684 794 
z
" transform="scale(0.015625)"/>
        <path id="DejaVuSans-30" d="M 2034 4250 
Q 1547 4250 1301 3770 
Q 1056 3291 1056 2328 
Q 1056 1369 1301 889 
Q 1547 409 2034 409 
Q 2525 409 2770 889 
Q 3016 1369 3016 2328 
Q 3016 3291 2770 3770 
Q 2525 4250 2034 4250 
z
M 2034 4750 
Q 2819 4750 3233 4129 
Q 3647 3509 3647 2328 
Q 3647 1150 3233 529 
Q 2819 -91 2034 -91 
Q 1250 -91 836 529 
Q 422 1150 422 2328 
Q 422 3509 836 4129 
Q 1250 4750 2034 4750 
z
" transform="scale(0.015625)"/>
       </defs>
       <use xlink:href="#DejaVuSans-2212"/>
       <use xlink:href="#DejaVuSans-31" x="83.789062"/>
       <use xlink:href="#DejaVuSans-2e" x="147.412109"/>
       <use xlink:href="#DejaVuSans-30" x="179.199219"/>
      </g>
     </g>
    </g>
    <g id="xtick_2">
     <g id="line2d_2">
      <g>
       <use xlink:href="#m7b2b104f6b" x="95.305156" y="390.84375" style="stroke: #000000; stroke-width: 0.8"/>
      </g>
     </g>
     <g id="text_2">
      <!-- −0.8 -->
      <g transform="translate(83.16375 405.442187) scale(0.1 -0.1)">
       <defs>
        <path id="DejaVuSans-38" d="M 2034 2216 
Q 1584 2216 1326 1975 
Q 1069 1734 1069 1313 
Q 1069 891 1326 650 
Q 1584 409 2034 409 
Q 2484 409 2743 651 
Q 3003 894 3003 1313 
Q 3003 1734 2745 1975 
Q 2488 2216 2034 2216 
z
M 1403 2484 
Q 997 2584 770 2862 
Q 544 3141 544 3541 
Q 544 4100 942 4425 
Q 1341 4750 2034 4750 
Q 2731 4750 3128 4425 
Q 3525 4100 3525 3541 
Q 3525 3141 3298 2862 
Q 3072 2584 2669 2484 
Q 3125 2378 3379 2068 
Q 3634 1759 3634 1313 
Q 3634 634 3220 271 
Q 2806 -91 2034 -91 
Q 1263 -91 848 271 
Q 434 634 434 1313 
Q 434 1759 690 2068 
Q 947 2378 1403 2484 
z
M 1172 3481 
Q 1172 3119 1398 2916 
Q 1625 2713 2034 2713 
Q 2441 2713 2670 2916 
Q 2900 3119 2900 3481 
Q 2900 3844 2670 4047 
Q 2441 4250 2034 4250 
Q 1625 4250 1398 4047 
Q 1172 3844 1172 3481 
z
" transform="scale(0.015625)"/>
       </defs>
       <use xlink:href="#DejaVuSans-2212"/>
       <use xlink:href="#DejaVuSans-30" x="83.789062"/>
       <use xlink:href="#DejaVuSans-2e" x="147.412109"/>
       <use xlink:href="#DejaVuSans-38" x="179.199219"/>
      </g>
     </g>
    </g>
    <g id="xtick_3">
     <g id="line2d_3">
      <g>
       <use xlink:href="#m7b2b104f6b" x="162.632188" y="390.84375" style="stroke: #000000; stroke-width: 0.8"/>
      </g>
     </g>
     <g id="text_3">
      <!-- −0.6 -->
      <g transform="translate(150.490781 405.442187) scale(0.1 -0.1)">
       <defs>
        <path id="DejaVuSans-36" d="M 2113 2584 
Q 1688 2584 1439 2293 
Q 1191 2003 1191 1497 
Q 1191 994 1439 701 
Q 1688 409 2113 409 
Q 2538 409 2786 701 
Q 3034 994 3034 1497 
Q 3034 2003 2786 2293 
Q 2538 2584 2113 2584 
z
M 3366 4563 
L 3366 3988 
Q 3128 4100 2886 4159 
Q 2644 4219 2406 4219 
Q 1781 4219 1451 3797 
Q 1122 3375 1075 2522 
Q 1259 2794 1537 2939 
Q 1816 3084 2150 3084 
Q 2853 3084 3261 2657 
Q 3669 2231 3669 1497 
Q 3669 778 3244 343 
Q 2819 -91 2113 -91 
Q 1303 -91 875 529 
Q 447 1150 447 2328 
Q 447 3434 972 4092 
Q 1497 4750 2381 4750 
Q 2619 4750 2861 4703 
Q 3103 4656 3366 4563 
z
" transform="scale(0.015625)"/>
       </defs>
       <use xlink:href="#DejaVuSans-2212"/>
       <use xlink:href="#DejaVuSans-30" x="83.789062"/>
       <use xlink:href="#DejaVuSans-2e" x="147.412109"/>
       <use xlink:href="#DejaVuSans-36" x="179.199219"/>
      </g>
     </g>
    </g>
    <g id="xtick_4">
     <g id="line2d_4">
      <g>
       <use xlink:href="#m7b2b104f6b" x="229.959219" y="390.84375" style="stroke: #000000; stroke-width: 0.8"/>
      </g>
     </g>
     <g id="text_4">
      <!-- −0.4 -->
      <g transform="translate(217.817813 405.442187) scale(0.1 -0.1)">
       <defs>
        <path id="DejaVuSans-34" d="M 2419 4116 
L 825 1625 
L 2419 1625 
L 2419 4116 
z
M 2253 4666 
L 3047 4666 
L 3047 1625 
L 3713 1625 
L 3713 1100 
L 3047 1100 
L 3047 0 
L 2419 0 
L 2419 1100 
L 313 1100 
L 313 1709 
L 2253 4666 
z
" transform="scale(0.015625)"/>
       </defs>
       <use xlink:href="#DejaVuSans-2212"/>
       <use xlink:href="#DejaVuSans-30" x="83.789062"/>
       <use xlink:href="#DejaVuSans-2e" x="147.412109"/>
       <use xlink:href="#DejaVuSans-34" x="179.199219"/>
      </g>
     </g>
    </g>
    <g id="xtick_5">
     <g id="line2d_5">
      <g>
       <use xlink:href="#m7b2b104f6b" x="297.28625" y="390.84375" style="stroke: #000000; stroke-width: 0.8"/>
      </g>
     </g>
     <g id="text_5">
      <!-- −0.2 -->
      <g transform="translate(285.144844 405.442187) scale(0.1 -0.1)">
       <defs>
        <path id="DejaVuSans-32" d="M 1228 531 
L 3431 531 
L 3431 0 
L 469 0 
L 469 531 
Q 828 903 1448 1529 
Q 2069 2156 2228 2338 
Q 2531 2678 2651 2914 
Q 2772 3150 2772 3378 
Q 2772 3750 2511 3984 
Q 2250 4219 1831 4219 
Q 1534 4219 1204 4116 
Q 875 4013 500 3803 
L 500 4441 
Q 881 4594 1212 4672 
Q 1544 4750 1819 4750 
Q 2544 4750 2975 4387 
Q 3406 4025 3406 3419 
Q 3406 3131 3298 2873 
Q 3191 2616 2906 2266 
Q 2828 2175 2409 1742 
Q 1991 1309 1228 531 
z
" transform="scale(0.015625)"/>
       </defs>
       <use xlink:href="#DejaVuSans-2212"/>
       <use xlink:href="#DejaVuSans-30" x="83.789062"/>
       <use xlink:href="#DejaVuSans-2e" x="147.412109"/>
       <use xlink:href="#DejaVuSans-32" x="179.199219"/>
      </g>
     </g>
    </g>
    <g id="xtick_6">
     <g id="line2d_6">
      <g>
       <use xlink:href="#m7b2b104f6b" x="364.613281" y="390.84375" style="stroke: #000000; stroke-width: 0.8"/>
      </g>
     </g>
     <g id="text_6">
      <!-- 0.0 -->
      <g transform="translate(356.661719 405.442187) scale(0.1 -0.1)">
       <use xlink:href="#DejaVuSans-30"/>
       <use xlink:href="#DejaVuSans-2e" x="63.623047"/>
       <use xlink:href="#DejaVuSans-30" x="95.410156"/>
      </g>
     </g>
    </g>
    <g id="xtick_7">
     <g id="line2d_7">
      <g>
       <use xlink:href="#m7b2b104f6b" x="431.940313" y="390.84375" style="stroke: #000000; stroke-width: 0.8"/>
      </g>
     </g>
     <g id="text_7">
      <!-- 0.2 -->
      <g transform="translate(423.98875 405.442187) scale(0.1 -0.1)">
       <use xlink:href="#DejaVuSans-30"/>
       <use xlink:href="#DejaVuSans-2e" x="63.623047"/>
       <use xlink:href="#DejaVuSans-32" x="95.410156"/>
      </g>
     </g>
    </g>
    <g id="xtick_8">
     <g id="line2d_8">
      <g>
       <use xlink:href="#m7b2b104f6b" x="499.267344" y="390.84375" style="stroke: #000000; stroke-width: 0.8"/>
      </g>
     </g>
     <g id="text_8">
      <!-- 0.4 -->
      <g transform="translate(491.315781 405.442187) scale(0.1 -0.1)">
       <use xlink:href="#DejaVuSans-30"/>
       <use xlink:href="#DejaVuSans-2e" x="63.623047"/>
       <use xlink:href="#DejaVuSans-34" x="95.410156"/>
      </g>
     </g>
    </g>
    <g id="xtick_9">
     <g id="line2d_9">
      <g>
       <use xlink:href="#m7b2b104f6b" x="566.594375" y="390.84375" style="stroke: #000000; stroke-width: 0.8"/>
      </g>
     </g>
     <g id="text_9">
      <!-- 0.6 -->
      <g transform="translate(558.642812 405.442187) scale(0.1 -0.1)">
       <use xlink:href="#DejaVuSans-30"/>
       <use xlink:href="#DejaVuSans-2e" x="63.623047"/>
       <use xlink:href="#DejaVuSans-36" x="95.410156"/>
      </g>
     </g>
    </g>
    <g id="xtick_10">
     <g id="line2d_10">
      <g>
       <use xlink:href="#m7b2b104f6b" x="633.921406" y="390.84375" style="stroke: #000000; stroke-width: 0.8"/>
      </g>
     </g>
     <g id="text_10">
      <!-- 0.8 -->
      <g transform="translate(625.969844 405.442187) scale(0.1 -0.1)">
       <use xlink:href="#DejaVuSans-30"/>
       <use xlink:href="#DejaVuSans-2e" x="63.623047"/>
       <use xlink:href="#DejaVuSans-38" x="95.410156"/>
      </g>
     </g>
    </g>
    <g id="xtick_11">
     <g id="line2d_11">
      <g>
       <use xlink:href="#m7b2b104f6b" x="701.248437" y="390.84375" style="stroke: #000000; stroke-width: 0.8"/>
      </g>
     </g>
     <g id="text_11">
      <!-- 1.0 -->
      <g transform="translate(693.296875 405.442187) scale(0.1 -0.1)">
       <use xlink:href="#DejaVuSans-31"/>
       <use xlink:href="#DejaVuSans-2e" x="63.623047"/>
       <use xlink:href="#DejaVuSans-30" x="95.410156"/>
      </g>
     </g>
    </g>
    <g id="text_12">
     <!-- Silhouette coefficient -->
     <g transform="translate(311.463281 419.120313) scale(0.1 -0.1)">
      <defs>
       <path id="DejaVuSans-53" d="M 3425 4513 
L 3425 3897 
Q 3066 4069 2747 4153 
Q 2428 4238 2131 4238 
Q 1616 4238 1336 4038 
Q 1056 3838 1056 3469 
Q 1056 3159 1242 3001 
Q 1428 2844 1947 2747 
L 2328 2669 
Q 3034 2534 3370 2195 
Q 3706 1856 3706 1288 
Q 3706 609 3251 259 
Q 2797 -91 1919 -91 
Q 1588 -91 1214 -16 
Q 841 59 441 206 
L 441 856 
Q 825 641 1194 531 
Q 1563 422 1919 422 
Q 2459 422 2753 634 
Q 3047 847 3047 1241 
Q 3047 1584 2836 1778 
Q 2625 1972 2144 2069 
L 1759 2144 
Q 1053 2284 737 2584 
Q 422 2884 422 3419 
Q 422 4038 858 4394 
Q 1294 4750 2059 4750 
Q 2388 4750 2728 4690 
Q 3069 4631 3425 4513 
z
" transform="scale(0.015625)"/>
       <path id="DejaVuSans-69" d="M 603 3500 
L 1178 3500 
L 1178 0 
L 603 0 
L 603 3500 
z
M 603 4863 
L 1178 4863 
L 1178 4134 
L 603 4134 
L 603 4863 
z
" transform="scale(0.015625)"/>
       <path id="DejaVuSans-6c" d="M 603 4863 
L 1178 4863 
L 1178 0 
L 603 0 
L 603 4863 
z
" transform="scale(0.015625)"/>
       <path id="DejaVuSans-68" d="M 3513 2113 
L 3513 0 
L 2938 0 
L 2938 2094 
Q 2938 2591 2744 2837 
Q 2550 3084 2163 3084 
Q 1697 3084 1428 2787 
Q 1159 2491 1159 1978 
L 1159 0 
L 581 0 
L 581 4863 
L 1159 4863 
L 1159 2956 
Q 1366 3272 1645 3428 
Q 1925 3584 2291 3584 
Q 2894 3584 3203 3211 
Q 3513 2838 3513 2113 
z
" transform="scale(0.015625)"/>
       <path id="DejaVuSans-6f" d="M 1959 3097 
Q 1497 3097 1228 2736 
Q 959 2375 959 1747 
Q 959 1119 1226 758 
Q 1494 397 1959 397 
Q 2419 397 2687 759 
Q 2956 1122 2956 1747 
Q 2956 2369 2687 2733 
Q 2419 3097 1959 3097 
z
M 1959 3584 
Q 2709 3584 3137 3096 
Q 3566 2609 3566 1747 
Q 3566 888 3137 398 
Q 2709 -91 1959 -91 
Q 1206 -91 779 398 
Q 353 888 353 1747 
Q 353 2609 779 3096 
Q 1206 3584 1959 3584 
z
" transform="scale(0.015625)"/>
       <path id="DejaVuSans-75" d="M 544 1381 
L 544 3500 
L 1119 3500 
L 1119 1403 
Q 1119 906 1312 657 
Q 1506 409 1894 409 
Q 2359 409 2629 706 
Q 2900 1003 2900 1516 
L 2900 3500 
L 3475 3500 
L 3475 0 
L 2900 0 
L 2900 538 
Q 2691 219 2414 64 
Q 2138 -91 1772 -91 
Q 1169 -91 856 284 
Q 544 659 544 1381 
z
M 1991 3584 
L 1991 3584 
z
" transform="scale(0.015625)"/>
       <path id="DejaVuSans-65" d="M 3597 1894 
L 3597 1613 
L 953 1613 
Q 991 1019 1311 708 
Q 1631 397 2203 397 
Q 2534 397 2845 478 
Q 3156 559 3463 722 
L 3463 178 
Q 3153 47 2828 -22 
Q 2503 -91 2169 -91 
Q 1331 -91 842 396 
Q 353 884 353 1716 
Q 353 2575 817 3079 
Q 1281 3584 2069 3584 
Q 2775 3584 3186 3129 
Q 3597 2675 3597 1894 
z
M 3022 2063 
Q 3016 2534 2758 2815 
Q 2500 3097 2075 3097 
Q 1594 3097 1305 2825 
Q 1016 2553 972 2059 
L 3022 2063 
z
" transform="scale(0.015625)"/>
       <path id="DejaVuSans-74" d="M 1172 4494 
L 1172 3500 
L 2356 3500 
L 2356 3053 
L 1172 3053 
L 1172 1153 
Q 1172 725 1289 603 
Q 1406 481 1766 481 
L 2356 481 
L 2356 0 
L 1766 0 
Q 1100 0 847 248 
Q 594 497 594 1153 
L 594 3053 
L 172 3053 
L 172 3500 
L 594 3500 
L 594 4494 
L 1172 4494 
z
" transform="scale(0.015625)"/>
       <path id="DejaVuSans-20" transform="scale(0.015625)"/>
       <path id="DejaVuSans-63" d="M 3122 3366 
L 3122 2828 
Q 2878 2963 2633 3030 
Q 2388 3097 2138 3097 
Q 1578 3097 1268 2742 
Q 959 2388 959 1747 
Q 959 1106 1268 751 
Q 1578 397 2138 397 
Q 2388 397 2633 464 
Q 2878 531 3122 666 
L 3122 134 
Q 2881 22 2623 -34 
Q 2366 -91 2075 -91 
Q 1284 -91 818 406 
Q 353 903 353 1747 
Q 353 2603 823 3093 
Q 1294 3584 2113 3584 
Q 2378 3584 2631 3529 
Q 2884 3475 3122 3366 
z
" transform="scale(0.015625)"/>
       <path id="DejaVuSans-66" d="M 2375 4863 
L 2375 4384 
L 1825 4384 
Q 1516 4384 1395 4259 
Q 1275 4134 1275 3809 
L 1275 3500 
L 2222 3500 
L 2222 3053 
L 1275 3053 
L 1275 0 
L 697 0 
L 697 3053 
L 147 3053 
L 147 3500 
L 697 3500 
L 697 3744 
Q 697 4328 969 4595 
Q 1241 4863 1831 4863 
L 2375 4863 
z
" transform="scale(0.015625)"/>
       <path id="DejaVuSans-6e" d="M 3513 2113 
L 3513 0 
L 2938 0 
L 2938 2094 
Q 2938 2591 2744 2837 
Q 2550 3084 2163 3084 
Q 1697 3084 1428 2787 
Q 1159 2491 1159 1978 
L 1159 0 
L 581 0 
L 581 3500 
L 1159 3500 
L 1159 2956 
Q 1366 3272 1645 3428 
Q 1925 3584 2291 3584 
Q 2894 3584 3203 3211 
Q 3513 2838 3513 2113 
z
" transform="scale(0.015625)"/>
      </defs>
      <use xlink:href="#DejaVuSans-53"/>
      <use xlink:href="#DejaVuSans-69" x="63.476562"/>
      <use xlink:href="#DejaVuSans-6c" x="91.259766"/>
      <use xlink:href="#DejaVuSans-68" x="119.042969"/>
      <use xlink:href="#DejaVuSans-6f" x="182.421875"/>
      <use xlink:href="#DejaVuSans-75" x="243.603516"/>
      <use xlink:href="#DejaVuSans-65" x="306.982422"/>
      <use xlink:href="#DejaVuSans-74" x="368.505859"/>
      <use xlink:href="#DejaVuSans-74" x="407.714844"/>
      <use xlink:href="#DejaVuSans-65" x="446.923828"/>
      <use xlink:href="#DejaVuSans-20" x="508.447266"/>
      <use xlink:href="#DejaVuSans-63" x="540.234375"/>
      <use xlink:href="#DejaVuSans-6f" x="595.214844"/>
      <use xlink:href="#DejaVuSans-65" x="656.396484"/>
      <use xlink:href="#DejaVuSans-66" x="717.919922"/>
      <use xlink:href="#DejaVuSans-66" x="753.125"/>
      <use xlink:href="#DejaVuSans-69" x="788.330078"/>
      <use xlink:href="#DejaVuSans-63" x="816.113281"/>
      <use xlink:href="#DejaVuSans-69" x="871.09375"/>
      <use xlink:href="#DejaVuSans-65" x="898.876953"/>
      <use xlink:href="#DejaVuSans-6e" x="960.400391"/>
      <use xlink:href="#DejaVuSans-74" x="1023.779297"/>
     </g>
    </g>
   </g>
   <g id="matplotlib.axis_2">
    <g id="text_13">
     <!-- Predicted label -->
     <g transform="translate(18.398438 239.59076) rotate(-90) scale(0.1 -0.1)">
      <defs>
       <path id="DejaVuSans-50" d="M 1259 4147 
L 1259 2394 
L 2053 2394 
Q 2494 2394 2734 2622 
Q 2975 2850 2975 3272 
Q 2975 3691 2734 3919 
Q 2494 4147 2053 4147 
L 1259 4147 
z
M 628 4666 
L 2053 4666 
Q 2838 4666 3239 4311 
Q 3641 3956 3641 3272 
Q 3641 2581 3239 2228 
Q 2838 1875 2053 1875 
L 1259 1875 
L 1259 0 
L 628 0 
L 628 4666 
z
" transform="scale(0.015625)"/>
       <path id="DejaVuSans-72" d="M 2631 2963 
Q 2534 3019 2420 3045 
Q 2306 3072 2169 3072 
Q 1681 3072 1420 2755 
Q 1159 2438 1159 1844 
L 1159 0 
L 581 0 
L 581 3500 
L 1159 3500 
L 1159 2956 
Q 1341 3275 1631 3429 
Q 1922 3584 2338 3584 
Q 2397 3584 2469 3576 
Q 2541 3569 2628 3553 
L 2631 2963 
z
" transform="scale(0.015625)"/>
       <path id="DejaVuSans-64" d="M 2906 2969 
L 2906 4863 
L 3481 4863 
L 3481 0 
L 2906 0 
L 2906 525 
Q 2725 213 2448 61 
Q 2172 -91 1784 -91 
Q 1150 -91 751 415 
Q 353 922 353 1747 
Q 353 2572 751 3078 
Q 1150 3584 1784 3584 
Q 2172 3584 2448 3432 
Q 2725 3281 2906 2969 
z
M 947 1747 
Q 947 1113 1208 752 
Q 1469 391 1925 391 
Q 2381 391 2643 752 
Q 2906 1113 2906 1747 
Q 2906 2381 2643 2742 
Q 2381 3103 1925 3103 
Q 1469 3103 1208 2742 
Q 947 2381 947 1747 
z
" transform="scale(0.015625)"/>
       <path id="DejaVuSans-61" d="M 2194 1759 
Q 1497 1759 1228 1600 
Q 959 1441 959 1056 
Q 959 750 1161 570 
Q 1363 391 1709 391 
Q 2188 391 2477 730 
Q 2766 1069 2766 1631 
L 2766 1759 
L 2194 1759 
z
M 3341 1997 
L 3341 0 
L 2766 0 
L 2766 531 
Q 2569 213 2275 61 
Q 1981 -91 1556 -91 
Q 1019 -91 701 211 
Q 384 513 384 1019 
Q 384 1609 779 1909 
Q 1175 2209 1959 2209 
L 2766 2209 
L 2766 2266 
Q 2766 2663 2505 2880 
Q 2244 3097 1772 3097 
Q 1472 3097 1187 3025 
Q 903 2953 641 2809 
L 641 3341 
Q 956 3463 1253 3523 
Q 1550 3584 1831 3584 
Q 2591 3584 2966 3190 
Q 3341 2797 3341 1997 
z
" transform="scale(0.015625)"/>
       <path id="DejaVuSans-62" d="M 3116 1747 
Q 3116 2381 2855 2742 
Q 2594 3103 2138 3103 
Q 1681 3103 1420 2742 
Q 1159 2381 1159 1747 
Q 1159 1113 1420 752 
Q 1681 391 2138 391 
Q 2594 391 2855 752 
Q 3116 1113 3116 1747 
z
M 1159 2969 
Q 1341 3281 1617 3432 
Q 1894 3584 2278 3584 
Q 2916 3584 3314 3078 
Q 3713 2572 3713 1747 
Q 3713 922 3314 415 
Q 2916 -91 2278 -91 
Q 1894 -91 1617 61 
Q 1341 213 1159 525 
L 1159 0 
L 581 0 
L 581 4863 
L 1159 4863 
L 1159 2969 
z
" transform="scale(0.015625)"/>
      </defs>
      <use xlink:href="#DejaVuSans-50"/>
      <use xlink:href="#DejaVuSans-72" x="58.552734"/>
      <use xlink:href="#DejaVuSans-65" x="97.416016"/>
      <use xlink:href="#DejaVuSans-64" x="158.939453"/>
      <use xlink:href="#DejaVuSans-69" x="222.416016"/>
      <use xlink:href="#DejaVuSans-63" x="250.199219"/>
      <use xlink:href="#DejaVuSans-74" x="305.179688"/>
      <use xlink:href="#DejaVuSans-65" x="344.388672"/>
      <use xlink:href="#DejaVuSans-64" x="405.912109"/>
      <use xlink:href="#DejaVuSans-20" x="469.388672"/>
      <use xlink:href="#DejaVuSans-6c" x="501.175781"/>
      <use xlink:href="#DejaVuSans-61" x="528.958984"/>
      <use xlink:href="#DejaVuSans-62" x="590.238281"/>
      <use xlink:href="#DejaVuSans-65" x="653.714844"/>
      <use xlink:href="#DejaVuSans-6c" x="715.238281"/>
     </g>
    </g>
   </g>
   <g id="line2d_12">
    <path d="M 365.116905 390.84375 
L 365.116905 14.033083 
" clip-path="url(#p31bfddf817)" style="fill: none; stroke: #ff0000; stroke-width: 1.5; stroke-linecap: square"/>
   </g>
   <g id="patch_3">
    <path d="M 27.978125 390.84375 
L 27.978125 14.033083 
" style="fill: none; stroke: #000000; stroke-width: 0.8; stroke-linejoin: miter; stroke-linecap: square"/>
   </g>
   <g id="patch_4">
    <path d="M 701.248437 390.84375 
L 701.248437 14.033083 
" style="fill: none; stroke: #000000; stroke-width: 0.8; stroke-linejoin: miter; stroke-linecap: square"/>
   </g>
   <g id="patch_5">
    <path d="M 27.978125 390.84375 
L 701.248437 390.84375 
" style="fill: none; stroke: #000000; stroke-width: 0.8; stroke-linejoin: miter; stroke-linecap: square"/>
   </g>
   <g id="patch_6">
    <path d="M 27.978125 14.033083 
L 701.248437 14.033083 
" style="fill: none; stroke: #000000; stroke-width: 0.8; stroke-linejoin: miter; stroke-linecap: square"/>
   </g>
   <g id="text_14">
    <!-- 0 -->
    <g transform="translate(347.781523 354.992341) scale(0.1 -0.1)">
     <use xlink:href="#DejaVuSans-30"/>
    </g>
   </g>
   <g id="text_15">
    <!-- 1 -->
    <g transform="translate(347.781523 297.630088) scale(0.1 -0.1)">
     <use xlink:href="#DejaVuSans-31"/>
    </g>
   </g>
   <g id="text_16">
    <!-- 2 -->
    <g transform="translate(347.781523 258.069913) scale(0.1 -0.1)">
     <use xlink:href="#DejaVuSans-32"/>
    </g>
   </g>
   <g id="text_17">
    <!-- 3 -->
    <g transform="translate(347.781523 215.048222) scale(0.1 -0.1)">
     <defs>
      <path id="DejaVuSans-33" d="M 2597 2516 
Q 3050 2419 3304 2112 
Q 3559 1806 3559 1356 
Q 3559 666 3084 287 
Q 2609 -91 1734 -91 
Q 1441 -91 1130 -33 
Q 819 25 488 141 
L 488 750 
Q 750 597 1062 519 
Q 1375 441 1716 441 
Q 2309 441 2620 675 
Q 2931 909 2931 1356 
Q 2931 1769 2642 2001 
Q 2353 2234 1838 2234 
L 1294 2234 
L 1294 2753 
L 1863 2753 
Q 2328 2753 2575 2939 
Q 2822 3125 2822 3475 
Q 2822 3834 2567 4026 
Q 2313 4219 1838 4219 
Q 1578 4219 1281 4162 
Q 984 4106 628 3988 
L 628 4550 
Q 988 4650 1302 4700 
Q 1616 4750 1894 4750 
Q 2613 4750 3031 4423 
Q 3450 4097 3450 3541 
Q 3450 3153 3228 2886 
Q 3006 2619 2597 2516 
z
" transform="scale(0.015625)"/>
     </defs>
     <use xlink:href="#DejaVuSans-33"/>
    </g>
   </g>
   <g id="text_18">
    <!-- 4 -->
    <g transform="translate(347.781523 170.048523) scale(0.1 -0.1)">
     <use xlink:href="#DejaVuSans-34"/>
    </g>
   </g>
   <g id="text_19">
    <!-- 5 -->
    <g transform="translate(347.781523 100.323715) scale(0.1 -0.1)">
     <defs>
      <path id="DejaVuSans-35" d="M 691 4666 
L 3169 4666 
L 3169 4134 
L 1269 4134 
L 1269 2991 
Q 1406 3038 1543 3061 
Q 1681 3084 1819 3084 
Q 2600 3084 3056 2656 
Q 3513 2228 3513 1497 
Q 3513 744 3044 326 
Q 2575 -91 1722 -91 
Q 1428 -91 1123 -41 
Q 819 9 494 109 
L 494 744 
Q 775 591 1075 516 
Q 1375 441 1709 441 
Q 2250 441 2565 725 
Q 2881 1009 2881 1497 
Q 2881 1984 2565 2268 
Q 2250 2553 1709 2553 
Q 1456 2553 1204 2497 
Q 953 2441 691 2322 
L 691 4666 
z
" transform="scale(0.015625)"/>
     </defs>
     <use xlink:href="#DejaVuSans-35"/>
    </g>
   </g>
   <g id="text_20">
    <!-- 6 -->
    <g transform="translate(347.781523 36.780184) scale(0.1 -0.1)">
     <use xlink:href="#DejaVuSans-36"/>
    </g>
   </g>
   <g id="text_21">
    <!-- 7 -->
    <g transform="translate(347.781523 20.956114) scale(0.1 -0.1)">
     <defs>
      <path id="DejaVuSans-37" d="M 525 4666 
L 3525 4666 
L 3525 4397 
L 1831 0 
L 1172 0 
L 2766 4134 
L 525 4134 
L 525 4666 
z
" transform="scale(0.015625)"/>
     </defs>
     <use xlink:href="#DejaVuSans-37"/>
    </g>
   </g>
   <g id="text_22">
    <!-- 0.0015 -->
    <g style="fill: #ff0000" transform="translate(381.948663 18.978105) scale(0.1 -0.1)">
     <use xlink:href="#DejaVuSans-30"/>
     <use xlink:href="#DejaVuSans-2e" x="63.623047"/>
     <use xlink:href="#DejaVuSans-30" x="95.410156"/>
     <use xlink:href="#DejaVuSans-30" x="159.033203"/>
     <use xlink:href="#DejaVuSans-31" x="222.65625"/>
     <use xlink:href="#DejaVuSans-35" x="286.279297"/>
    </g>
   </g>
  </g>
 </g>
 <defs>
  <clipPath id="p31bfddf817">
   <rect x="27.978125" y="14.033083" width="673.270312" height="376.810667"/>
  </clipPath>
 </defs>
</svg>
