<?xml version="1.0" encoding="utf-8" standalone="no"?>
<!DOCTYPE svg PUBLIC "-//W3C//DTD SVG 1.1//EN"
  "http://www.w3.org/Graphics/SVG/1.1/DTD/svg11.dtd">
<svg xmlns:xlink="http://www.w3.org/1999/xlink" width="720pt" height="576pt" viewBox="0 0 720 576" xmlns="http://www.w3.org/2000/svg" version="1.1">
 <metadata>
  <rdf:RDF xmlns:dc="http://purl.org/dc/elements/1.1/" xmlns:cc="http://creativecommons.org/ns#" xmlns:rdf="http://www.w3.org/1999/02/22-rdf-syntax-ns#">
   <cc:Work>
    <dc:type rdf:resource="http://purl.org/dc/dcmitype/StillImage"/>
    <dc:date>2022-11-21T18:18:01.518309</dc:date>
    <dc:format>image/svg+xml</dc:format>
    <dc:creator>
     <cc:Agent>
      <dc:title>Matplotlib v3.6.1, https://matplotlib.org/</dc:title>
     </cc:Agent>
    </dc:creator>
   </cc:Work>
  </rdf:RDF>
 </metadata>
 <defs>
  <style type="text/css">*{stroke-linejoin: round; stroke-linecap: butt}</style>
 </defs>
 <g id="figure_1">
  <g id="patch_1">
   <path d="M 0 576 
L 720 576 
L 720 0 
L 0 0 
z
" style="fill: #ffffff"/>
  </g>
  <g id="axes_1">
   <g id="patch_2">
    <path d="M 42.495313 510.648438 
L 693.296875 510.648438 
L 693.296875 23.975621 
L 42.495313 23.975621 
z
" style="fill: #ffffff"/>
   </g>
   <g id="PolyCollection_1">
    <defs>
     <path id="m76bca5846e" d="M 367.707379 -71.738345 
L 367.896094 -71.738345 
L 367.896094 -72.377023 
L 367.896094 -73.015701 
L 367.896094 -73.65438 
L 367.896094 -74.293058 
L 367.896094 -74.931736 
L 367.896094 -75.570414 
L 367.896094 -76.209093 
L 367.896094 -76.847771 
L 367.896094 -77.486449 
L 367.896094 -78.125127 
L 367.896094 -78.763805 
L 367.896094 -79.402484 
L 367.896094 -80.041162 
L 367.896094 -80.67984 
L 367.896094 -81.318518 
L 367.896094 -81.957197 
L 367.896094 -82.595875 
L 367.896094 -83.234553 
L 367.896094 -83.873231 
L 367.896094 -84.51191 
L 367.896094 -85.150588 
L 367.896094 -85.789266 
L 367.896094 -86.427944 
L 367.896094 -87.066623 
L 367.896094 -87.705301 
L 367.896094 -88.343979 
L 367.896094 -88.982657 
L 367.896094 -89.621335 
L 367.896094 -90.260014 
L 367.896094 -90.898692 
L 367.896094 -91.53737 
L 367.896094 -92.176048 
L 367.896094 -92.814727 
L 367.896094 -93.453405 
L 367.896094 -94.092083 
L 367.896094 -94.730761 
L 367.896094 -95.36944 
L 367.896094 -96.008118 
L 367.896094 -96.646796 
L 367.896094 -97.285474 
L 367.896094 -97.924153 
L 367.896094 -98.562831 
L 367.896094 -99.201509 
L 367.896094 -99.840187 
L 367.896094 -100.478866 
L 367.896094 -101.117544 
L 367.896094 -101.756222 
L 367.896094 -102.3949 
L 367.896094 -103.033578 
L 367.896094 -103.672257 
L 367.896094 -104.310935 
L 367.896094 -104.949613 
L 367.896094 -105.588291 
L 367.896094 -106.22697 
L 367.896094 -106.865648 
L 367.896094 -107.504326 
L 367.896094 -108.143004 
L 367.896094 -108.781683 
L 367.896094 -109.420361 
L 367.896094 -110.059039 
L 367.896094 -110.697717 
L 367.896094 -111.336396 
L 367.896094 -111.975074 
L 367.896094 -112.613752 
L 367.896094 -113.25243 
L 367.896094 -113.891108 
L 367.896094 -114.529787 
L 367.896094 -115.168465 
L 367.896094 -115.807143 
L 367.896094 -116.445821 
L 367.896094 -117.0845 
L 367.896094 -117.723178 
L 367.896094 -118.361856 
L 367.896094 -119.000534 
L 367.896094 -119.639213 
L 367.896094 -120.277891 
L 367.896094 -120.916569 
L 367.896094 -121.555247 
L 367.896094 -122.193926 
L 367.896094 -122.832604 
L 367.896094 -123.471282 
L 367.896094 -124.10996 
L 367.896094 -124.748638 
L 367.896094 -125.387317 
L 367.896094 -126.025995 
L 367.896094 -126.664673 
L 367.896094 -127.303351 
L 367.896094 -127.94203 
L 367.896094 -128.580708 
L 367.896094 -129.219386 
L 367.896094 -129.858064 
L 367.896094 -130.496743 
L 367.896094 -131.135421 
L 367.896094 -131.774099 
L 367.896094 -132.412777 
L 367.896094 -133.051456 
L 367.896094 -133.690134 
L 367.896094 -134.328812 
L 367.896094 -134.96749 
L 367.896094 -135.606169 
L 367.896094 -136.244847 
L 367.896094 -136.883525 
L 367.896094 -137.522203 
L 367.896094 -138.160881 
L 367.896094 -138.79956 
L 367.896094 -139.438238 
L 367.896094 -140.076916 
L 367.896094 -140.715594 
L 367.896094 -141.354273 
L 367.896094 -141.992951 
L 367.896094 -142.631629 
L 367.896094 -143.270307 
L 367.896094 -143.908986 
L 367.896094 -144.547664 
L 367.896094 -145.186342 
L 367.896094 -145.82502 
L 367.896094 -146.463699 
L 367.896094 -147.102377 
L 367.896094 -147.741055 
L 367.896094 -148.379733 
L 367.896094 -149.018411 
L 367.896094 -149.65709 
L 367.896094 -150.295768 
L 367.896094 -150.934446 
L 367.954848 -150.934446 
L 367.954848 -150.934446 
L 367.952831 -150.295768 
L 367.952448 -149.65709 
L 367.952435 -149.018411 
L 367.951882 -148.379733 
L 367.951359 -147.741055 
L 367.951224 -147.102377 
L 367.951048 -146.463699 
L 367.950932 -145.82502 
L 367.950373 -145.186342 
L 367.950196 -144.547664 
L 367.949905 -143.908986 
L 367.948943 -143.270307 
L 367.948297 -142.631629 
L 367.947062 -141.992951 
L 367.947046 -141.354273 
L 367.946589 -140.715594 
L 367.946474 -140.076916 
L 367.945992 -139.438238 
L 367.945694 -138.79956 
L 367.945073 -138.160881 
L 367.943924 -137.522203 
L 367.943924 -136.883525 
L 367.943747 -136.244847 
L 367.943607 -135.606169 
L 367.943157 -134.96749 
L 367.942858 -134.328812 
L 367.942183 -133.690134 
L 367.942085 -133.051456 
L 367.941149 -132.412777 
L 367.94099 -131.774099 
L 367.940011 -131.135421 
L 367.939542 -130.496743 
L 367.939324 -129.858064 
L 367.939208 -129.219386 
L 367.938509 -128.580708 
L 367.934061 -127.94203 
L 367.92989 -127.303351 
L 367.928437 -126.664673 
L 367.923989 -126.025995 
L 367.921894 -125.387317 
L 367.921426 -124.748638 
L 367.921096 -124.10996 
L 367.919997 -123.471282 
L 367.918258 -122.832604 
L 367.917635 -122.193926 
L 367.917277 -121.555247 
L 367.917266 -120.916569 
L 367.916384 -120.277891 
L 367.915313 -119.639213 
L 367.914376 -119.000534 
L 367.914284 -118.361856 
L 367.913225 -117.723178 
L 367.913161 -117.0845 
L 367.912295 -116.445821 
L 367.912077 -115.807143 
L 367.911853 -115.168465 
L 367.911769 -114.529787 
L 367.9107 -113.891108 
L 367.910233 -113.25243 
L 367.909742 -112.613752 
L 367.909493 -111.975074 
L 367.909367 -111.336396 
L 367.908818 -110.697717 
L 367.908771 -110.059039 
L 367.907724 -109.420361 
L 367.907607 -108.781683 
L 367.907054 -108.143004 
L 367.906786 -107.504326 
L 367.906387 -106.865648 
L 367.90591 -106.22697 
L 367.905786 -105.588291 
L 367.905786 -104.949613 
L 367.9056 -104.310935 
L 367.905081 -103.672257 
L 367.903544 -103.033578 
L 367.902843 -102.3949 
L 367.899518 -101.756222 
L 367.898793 -101.117544 
L 367.897311 -100.478866 
L 367.895551 -99.840187 
L 367.892082 -99.201509 
L 367.891039 -98.562831 
L 367.890441 -97.924153 
L 367.884932 -97.285474 
L 367.87188 -96.646796 
L 367.863923 -96.008118 
L 367.862376 -95.36944 
L 367.857441 -94.730761 
L 367.856229 -94.092083 
L 367.85545 -93.453405 
L 367.852496 -92.814727 
L 367.852402 -92.176048 
L 367.8507 -91.53737 
L 367.849019 -90.898692 
L 367.845194 -90.260014 
L 367.840114 -89.621335 
L 367.83707 -88.982657 
L 367.833361 -88.343979 
L 367.830707 -87.705301 
L 367.828606 -87.066623 
L 367.816299 -86.427944 
L 367.813235 -85.789266 
L 367.81277 -85.150588 
L 367.81204 -84.51191 
L 367.804851 -83.873231 
L 367.801235 -83.234553 
L 367.799136 -82.595875 
L 367.79908 -81.957197 
L 367.798964 -81.318518 
L 367.797813 -80.67984 
L 367.797432 -80.041162 
L 367.79703 -79.402484 
L 367.794013 -78.763805 
L 367.789383 -78.125127 
L 367.788876 -77.486449 
L 367.788589 -76.847771 
L 367.78443 -76.209093 
L 367.78326 -75.570414 
L 367.759012 -74.931736 
L 367.758762 -74.293058 
L 367.752208 -73.65438 
L 367.73005 -73.015701 
L 367.718413 -72.377023 
L 367.707379 -71.738345 
z
" style="stroke: #000000; stroke-opacity: 0.7"/>
    </defs>
    <g clip-path="url(#p2d024b50ed)">
     <use xlink:href="#m76bca5846e" x="0" y="576" style="fill-opacity: 0.7; stroke: #000000; stroke-opacity: 0.7"/>
    </g>
   </g>
   <g id="PolyCollection_2">
    <defs>
     <path id="me5274e3845" d="M 367.958516 -157.959907 
L 367.896094 -157.959907 
L 367.896094 -158.598585 
L 367.896094 -159.237263 
L 367.896094 -159.875941 
L 367.896094 -160.51462 
L 367.896094 -161.153298 
L 367.896094 -161.791976 
L 367.896094 -162.430654 
L 367.896094 -163.069333 
L 367.896094 -163.708011 
L 367.896094 -164.346689 
L 367.896094 -164.985367 
L 367.896094 -165.624046 
L 367.896094 -166.262724 
L 367.896094 -166.901402 
L 367.896094 -167.54008 
L 367.896094 -168.178759 
L 367.896094 -168.817437 
L 367.896094 -169.456115 
L 367.896094 -170.094793 
L 367.896094 -170.733472 
L 367.896094 -171.37215 
L 367.896094 -172.010828 
L 367.896094 -172.649506 
L 367.896094 -173.288184 
L 367.896094 -173.926863 
L 367.896094 -174.565541 
L 367.896094 -175.204219 
L 367.896094 -175.842897 
L 367.896094 -176.481576 
L 367.896094 -177.120254 
L 367.896094 -177.758932 
L 367.896094 -178.39761 
L 367.896094 -179.036289 
L 367.896094 -179.674967 
L 367.896094 -180.313645 
L 367.896094 -180.952323 
L 367.896094 -181.591002 
L 367.896094 -182.22968 
L 367.896094 -182.868358 
L 367.896094 -183.507036 
L 367.896094 -184.145714 
L 367.896094 -184.784393 
L 367.896094 -185.423071 
L 367.896094 -186.061749 
L 367.896094 -186.700427 
L 367.896094 -187.339106 
L 367.896094 -187.977784 
L 367.896094 -188.616462 
L 367.896094 -189.25514 
L 367.896094 -189.893819 
L 367.896094 -190.532497 
L 367.896094 -191.171175 
L 367.896094 -191.809853 
L 367.896094 -192.448532 
L 367.896094 -193.08721 
L 367.896094 -193.725888 
L 367.896094 -194.364566 
L 367.896094 -195.003245 
L 367.896094 -195.641923 
L 367.896094 -196.280601 
L 367.896094 -196.919279 
L 367.896094 -197.557957 
L 367.896094 -198.196636 
L 367.896094 -198.835314 
L 367.896094 -199.473992 
L 367.896094 -200.11267 
L 367.896094 -200.751349 
L 367.896094 -201.390027 
L 367.896094 -202.028705 
L 367.896094 -202.667383 
L 367.896094 -203.306062 
L 367.896094 -203.94474 
L 367.896094 -204.583418 
L 367.896094 -205.222096 
L 367.896094 -205.860775 
L 367.896094 -206.499453 
L 367.896094 -207.138131 
L 367.896094 -207.776809 
L 367.896094 -208.415487 
L 367.896094 -209.054166 
L 367.896094 -209.692844 
L 367.896094 -210.331522 
L 367.896094 -210.9702 
L 367.896094 -211.608879 
L 367.896094 -212.247557 
L 367.896094 -212.886235 
L 368.224378 -212.886235 
L 368.224378 -212.886235 
L 368.215416 -212.247557 
L 368.210441 -211.608879 
L 368.208215 -210.9702 
L 368.201099 -210.331522 
L 368.200105 -209.692844 
L 368.195659 -209.054166 
L 368.187111 -208.415487 
L 368.186057 -207.776809 
L 368.184875 -207.138131 
L 368.183933 -206.499453 
L 368.182324 -205.860775 
L 368.179543 -205.222096 
L 368.178253 -204.583418 
L 368.17801 -203.94474 
L 368.175854 -203.306062 
L 368.175186 -202.667383 
L 368.174222 -202.028705 
L 368.173423 -201.390027 
L 368.173104 -200.751349 
L 368.172362 -200.11267 
L 368.167087 -199.473992 
L 368.166472 -198.835314 
L 368.164984 -198.196636 
L 368.163702 -197.557957 
L 368.162726 -196.919279 
L 368.162474 -196.280601 
L 368.161163 -195.641923 
L 368.160983 -195.003245 
L 368.160311 -194.364566 
L 368.15971 -193.725888 
L 368.159072 -193.08721 
L 368.157582 -192.448532 
L 368.155873 -191.809853 
L 368.153153 -191.171175 
L 368.150748 -190.532497 
L 368.149197 -189.893819 
L 368.149062 -189.25514 
L 368.148765 -188.616462 
L 368.148734 -187.977784 
L 368.146114 -187.339106 
L 368.144346 -186.700427 
L 368.143819 -186.061749 
L 368.142503 -185.423071 
L 368.141109 -184.784393 
L 368.139339 -184.145714 
L 368.139197 -183.507036 
L 368.138809 -182.868358 
L 368.138144 -182.22968 
L 368.137252 -181.591002 
L 368.136432 -180.952323 
L 368.133971 -180.313645 
L 368.131638 -179.674967 
L 368.13136 -179.036289 
L 368.130391 -178.39761 
L 368.127166 -177.758932 
L 368.124849 -177.120254 
L 368.121965 -176.481576 
L 368.117729 -175.842897 
L 368.11708 -175.204219 
L 368.116899 -174.565541 
L 368.116706 -173.926863 
L 368.115455 -173.288184 
L 368.112575 -172.649506 
L 368.110824 -172.010828 
L 368.1089 -171.37215 
L 368.108687 -170.733472 
L 368.10559 -170.094793 
L 368.101933 -169.456115 
L 368.100752 -168.817437 
L 368.100515 -168.178759 
L 368.097466 -167.54008 
L 368.095438 -166.901402 
L 368.086681 -166.262724 
L 368.081531 -165.624046 
L 368.080758 -164.985367 
L 368.078467 -164.346689 
L 368.072821 -163.708011 
L 368.071333 -163.069333 
L 368.070893 -162.430654 
L 368.068906 -161.791976 
L 368.053376 -161.153298 
L 368.047321 -160.51462 
L 368.033657 -159.875941 
L 368.030726 -159.237263 
L 368.021714 -158.598585 
L 367.958516 -157.959907 
z
" style="stroke: #4300a2; stroke-opacity: 0.7"/>
    </defs>
    <g clip-path="url(#p2d024b50ed)">
     <use xlink:href="#me5274e3845" x="0" y="576" style="fill: #4300a2; fill-opacity: 0.7; stroke: #4300a2; stroke-opacity: 0.7"/>
    </g>
   </g>
   <g id="PolyCollection_3">
    <defs>
     <path id="mdd3378f81e" d="M 367.825571 -219.911696 
L 367.896094 -219.911696 
L 367.896094 -220.550374 
L 367.896094 -221.189052 
L 367.896094 -221.82773 
L 367.896094 -222.466409 
L 367.896094 -223.105087 
L 367.896094 -223.743765 
L 367.896094 -224.382443 
L 367.896094 -225.021122 
L 367.896094 -225.6598 
L 367.896094 -226.298478 
L 367.896094 -226.937156 
L 367.896094 -227.575835 
L 367.896094 -228.214513 
L 367.896094 -228.853191 
L 367.896094 -229.491869 
L 367.896094 -230.130548 
L 367.896094 -230.769226 
L 367.896094 -231.407904 
L 367.896094 -232.046582 
L 367.896094 -232.68526 
L 367.896094 -233.323939 
L 367.896094 -233.962617 
L 367.896094 -234.601295 
L 367.896094 -235.239973 
L 367.896094 -235.878652 
L 367.896094 -236.51733 
L 367.896094 -237.156008 
L 367.896094 -237.794686 
L 367.896094 -238.433365 
L 367.896094 -239.072043 
L 367.896094 -239.710721 
L 367.896094 -240.349399 
L 367.896094 -240.988078 
L 367.896094 -241.626756 
L 367.896094 -242.265434 
L 367.896094 -242.904112 
L 367.896094 -243.54279 
L 367.896094 -244.181469 
L 367.896094 -244.820147 
L 367.896094 -245.458825 
L 367.896094 -246.097503 
L 367.896094 -246.736182 
L 367.896094 -247.37486 
L 367.896094 -248.013538 
L 367.896094 -248.652216 
L 367.896094 -249.290895 
L 367.896094 -249.929573 
L 367.896094 -250.568251 
L 367.896094 -251.206929 
L 367.896094 -251.845608 
L 367.896094 -252.484286 
L 367.896094 -253.122964 
L 368.009049 -253.122964 
L 368.009049 -253.122964 
L 368.007699 -252.484286 
L 368.004894 -251.845608 
L 368.003581 -251.206929 
L 368.001637 -250.568251 
L 367.999785 -249.929573 
L 367.999003 -249.290895 
L 367.997548 -248.652216 
L 367.997021 -248.013538 
L 367.996801 -247.37486 
L 367.990801 -246.736182 
L 367.990273 -246.097503 
L 367.990144 -245.458825 
L 367.989453 -244.820147 
L 367.988956 -244.181469 
L 367.988956 -243.54279 
L 367.988794 -242.904112 
L 367.987552 -242.265434 
L 367.985585 -241.626756 
L 367.981043 -240.988078 
L 367.975719 -240.349399 
L 367.972525 -239.710721 
L 367.969158 -239.072043 
L 367.965746 -238.433365 
L 367.961798 -237.794686 
L 367.959748 -237.156008 
L 367.958862 -236.51733 
L 367.95452 -235.878652 
L 367.954095 -235.239973 
L 367.951756 -234.601295 
L 367.95155 -233.962617 
L 367.950189 -233.323939 
L 367.949955 -232.68526 
L 367.947315 -232.046582 
L 367.940998 -231.407904 
L 367.938477 -230.769226 
L 367.93418 -230.130548 
L 367.930653 -229.491869 
L 367.925025 -228.853191 
L 367.923679 -228.214513 
L 367.918246 -227.575835 
L 367.91299 -226.937156 
L 367.909478 -226.298478 
L 367.904933 -225.6598 
L 367.90298 -225.021122 
L 367.902519 -224.382443 
L 367.899608 -223.743765 
L 367.894248 -223.105087 
L 367.89155 -222.466409 
L 367.88981 -221.82773 
L 367.880509 -221.189052 
L 367.871779 -220.550374 
L 367.825571 -219.911696 
z
" style="stroke: #0078dd; stroke-opacity: 0.7"/>
    </defs>
    <g clip-path="url(#p2d024b50ed)">
     <use xlink:href="#mdd3378f81e" x="0" y="576" style="fill: #0078dd; fill-opacity: 0.7; stroke: #0078dd; stroke-opacity: 0.7"/>
    </g>
   </g>
   <g id="PolyCollection_4">
    <defs>
     <path id="m6b2af9fe9d" d="M 367.996894 -260.148425 
L 367.896094 -260.148425 
L 367.896094 -260.787103 
L 367.896094 -261.425781 
L 367.896094 -262.064459 
L 367.896094 -262.703138 
L 367.896094 -263.341816 
L 367.896094 -263.980494 
L 367.896094 -264.619172 
L 367.896094 -265.257851 
L 367.896094 -265.896529 
L 367.896094 -266.535207 
L 367.896094 -267.173885 
L 367.896094 -267.812563 
L 367.896094 -268.451242 
L 367.896094 -269.08992 
L 367.896094 -269.728598 
L 367.896094 -270.367276 
L 367.896094 -271.005955 
L 367.896094 -271.644633 
L 367.896094 -272.283311 
L 367.896094 -272.921989 
L 367.896094 -273.560668 
L 367.896094 -274.199346 
L 367.896094 -274.838024 
L 367.896094 -275.476702 
L 367.896094 -276.115381 
L 367.896094 -276.754059 
L 367.896094 -277.392737 
L 367.896094 -278.031415 
L 367.896094 -278.670093 
L 367.896094 -279.308772 
L 367.896094 -279.94745 
L 367.896094 -280.586128 
L 367.896094 -281.224806 
L 367.896094 -281.863485 
L 367.896094 -282.502163 
L 367.896094 -283.140841 
L 367.896094 -283.779519 
L 367.896094 -284.418198 
L 367.896094 -285.056876 
L 367.896094 -285.695554 
L 367.896094 -286.334232 
L 367.896094 -286.972911 
L 367.896094 -287.611589 
L 367.896094 -288.250267 
L 367.896094 -288.888945 
L 367.896094 -289.527624 
L 367.896094 -290.166302 
L 367.896094 -290.80498 
L 367.896094 -291.443658 
L 367.896094 -292.082336 
L 367.896094 -292.721015 
L 367.896094 -293.359693 
L 367.896094 -293.998371 
L 367.896094 -294.637049 
L 367.896094 -295.275728 
L 367.896094 -295.914406 
L 367.896094 -296.553084 
L 367.896094 -297.191762 
L 367.896094 -297.830441 
L 367.896094 -298.469119 
L 367.896094 -299.107797 
L 367.896094 -299.746475 
L 367.896094 -300.385154 
L 367.896094 -301.023832 
L 367.896094 -301.66251 
L 367.896094 -302.301188 
L 367.896094 -302.939866 
L 367.896094 -303.578545 
L 367.896094 -304.217223 
L 367.896094 -304.855901 
L 367.896094 -305.494579 
L 367.896094 -306.133258 
L 367.896094 -306.771936 
L 367.896094 -307.410614 
L 367.896094 -308.049292 
L 367.896094 -308.687971 
L 367.896094 -309.326649 
L 367.896094 -309.965327 
L 367.896094 -310.604005 
L 367.896094 -311.242684 
L 367.896094 -311.881362 
L 367.896094 -312.52004 
L 367.896094 -313.158718 
L 367.896094 -313.797396 
L 367.896094 -314.436075 
L 367.896094 -315.074753 
L 367.896094 -315.713431 
L 367.896094 -316.352109 
L 367.896094 -316.990788 
L 367.896094 -317.629466 
L 367.896094 -318.268144 
L 367.896094 -318.906822 
L 367.896094 -319.545501 
L 367.896094 -320.184179 
L 367.896094 -320.822857 
L 367.896094 -321.461535 
L 367.896094 -322.100214 
L 367.896094 -322.738892 
L 367.896094 -323.37757 
L 367.896094 -324.016248 
L 368.211989 -324.016248 
L 368.211989 -324.016248 
L 368.200491 -323.37757 
L 368.200391 -322.738892 
L 368.197344 -322.100214 
L 368.196673 -321.461535 
L 368.185284 -320.822857 
L 368.183923 -320.184179 
L 368.183258 -319.545501 
L 368.182195 -318.906822 
L 368.17705 -318.268144 
L 368.176583 -317.629466 
L 368.175853 -316.990788 
L 368.174965 -316.352109 
L 368.174396 -315.713431 
L 368.174329 -315.074753 
L 368.173094 -314.436075 
L 368.171736 -313.797396 
L 368.171668 -313.158718 
L 368.170674 -312.52004 
L 368.170407 -311.881362 
L 368.168117 -311.242684 
L 368.168027 -310.604005 
L 368.166057 -309.965327 
L 368.164896 -309.326649 
L 368.163703 -308.687971 
L 368.163103 -308.049292 
L 368.161641 -307.410614 
L 368.160377 -306.771936 
L 368.159053 -306.133258 
L 368.156327 -305.494579 
L 368.154007 -304.855901 
L 368.153373 -304.217223 
L 368.150716 -303.578545 
L 368.150288 -302.939866 
L 368.149956 -302.301188 
L 368.149067 -301.66251 
L 368.147097 -301.023832 
L 368.146831 -300.385154 
L 368.145606 -299.746475 
L 368.145006 -299.107797 
L 368.143942 -298.469119 
L 368.140622 -297.830441 
L 368.140091 -297.191762 
L 368.13923 -296.553084 
L 368.137435 -295.914406 
L 368.13674 -295.275728 
L 368.135571 -294.637049 
L 368.135409 -293.998371 
L 368.134813 -293.359693 
L 368.134149 -292.721015 
L 368.132491 -292.082336 
L 368.132122 -291.443658 
L 368.130762 -290.80498 
L 368.130302 -290.166302 
L 368.128571 -289.527624 
L 368.127774 -288.888945 
L 368.127377 -288.250267 
L 368.127241 -287.611589 
L 368.127149 -286.972911 
L 368.125716 -286.334232 
L 368.125349 -285.695554 
L 368.123953 -285.056876 
L 368.121865 -284.418198 
L 368.120705 -283.779519 
L 368.115228 -283.140841 
L 368.115024 -282.502163 
L 368.114826 -281.863485 
L 368.112734 -281.224806 
L 368.112395 -280.586128 
L 368.111339 -279.94745 
L 368.108244 -279.308772 
L 368.10782 -278.670093 
L 368.107281 -278.031415 
L 368.105727 -277.392737 
L 368.103834 -276.754059 
L 368.09989 -276.115381 
L 368.098989 -275.476702 
L 368.087368 -274.838024 
L 368.086175 -274.199346 
L 368.083617 -273.560668 
L 368.076358 -272.921989 
L 368.076011 -272.283311 
L 368.07482 -271.644633 
L 368.073865 -271.005955 
L 368.064471 -270.367276 
L 368.064129 -269.728598 
L 368.062637 -269.08992 
L 368.062076 -268.451242 
L 368.061182 -267.812563 
L 368.059578 -267.173885 
L 368.046902 -266.535207 
L 368.038363 -265.896529 
L 368.033715 -265.257851 
L 368.03103 -264.619172 
L 368.027739 -263.980494 
L 368.027213 -263.341816 
L 368.025683 -262.703138 
L 368.024617 -262.064459 
L 368.024319 -261.425781 
L 368.01283 -260.787103 
L 367.996894 -260.148425 
z
" style="stroke: #00aa98; stroke-opacity: 0.7"/>
    </defs>
    <g clip-path="url(#p2d024b50ed)">
     <use xlink:href="#m6b2af9fe9d" x="0" y="576" style="fill: #00aa98; fill-opacity: 0.7; stroke: #00aa98; stroke-opacity: 0.7"/>
    </g>
   </g>
   <g id="PolyCollection_5">
    <defs>
     <path id="maafe1d0967" d="M 367.992026 -331.041709 
L 367.896094 -331.041709 
L 367.896094 -331.680387 
L 367.896094 -332.319065 
L 367.896094 -332.957744 
L 367.896094 -333.596422 
L 367.896094 -334.2351 
L 367.896094 -334.873778 
L 367.896094 -335.512457 
L 367.896094 -336.151135 
L 367.896094 -336.789813 
L 367.896094 -337.428491 
L 367.896094 -338.067169 
L 367.896094 -338.705848 
L 367.896094 -339.344526 
L 367.896094 -339.983204 
L 367.896094 -340.621882 
L 367.896094 -341.260561 
L 367.896094 -341.899239 
L 367.896094 -342.537917 
L 367.896094 -343.176595 
L 367.896094 -343.815274 
L 367.896094 -344.453952 
L 367.896094 -345.09263 
L 367.896094 -345.731308 
L 367.896094 -346.369987 
L 367.896094 -347.008665 
L 367.896094 -347.647343 
L 367.896094 -348.286021 
L 367.896094 -348.924699 
L 367.896094 -349.563378 
L 367.896094 -350.202056 
L 367.896094 -350.840734 
L 367.896094 -351.479412 
L 367.896094 -352.118091 
L 367.896094 -352.756769 
L 367.896094 -353.395447 
L 367.896094 -354.034125 
L 367.896094 -354.672804 
L 367.896094 -355.311482 
L 367.896094 -355.95016 
L 367.896094 -356.588838 
L 367.896094 -357.227517 
L 367.896094 -357.866195 
L 367.896094 -358.504873 
L 367.896094 -359.143551 
L 367.896094 -359.78223 
L 367.896094 -360.420908 
L 367.896094 -361.059586 
L 367.896094 -361.698264 
L 367.896094 -362.336942 
L 367.896094 -362.975621 
L 367.896094 -363.614299 
L 367.896094 -364.252977 
L 367.896094 -364.891655 
L 367.896094 -365.530334 
L 367.896094 -366.169012 
L 367.896094 -366.80769 
L 367.896094 -367.446368 
L 367.896094 -368.085047 
L 367.896094 -368.723725 
L 367.896094 -369.362403 
L 368.11633 -369.362403 
L 368.11633 -369.362403 
L 368.105206 -368.723725 
L 368.102884 -368.085047 
L 368.101886 -367.446368 
L 368.095842 -366.80769 
L 368.094957 -366.169012 
L 368.09486 -365.530334 
L 368.09208 -364.891655 
L 368.091637 -364.252977 
L 368.090796 -363.614299 
L 368.089882 -362.975621 
L 368.089302 -362.336942 
L 368.087462 -361.698264 
L 368.087042 -361.059586 
L 368.086821 -360.420908 
L 368.086821 -359.78223 
L 368.084751 -359.143551 
L 368.084164 -358.504873 
L 368.084164 -357.866195 
L 368.083325 -357.227517 
L 368.083325 -356.588838 
L 368.08233 -355.95016 
L 368.082101 -355.311482 
L 368.081478 -354.672804 
L 368.081399 -354.034125 
L 368.078186 -353.395447 
L 368.07523 -352.756769 
L 368.075093 -352.118091 
L 368.073736 -351.479412 
L 368.073736 -350.840734 
L 368.073087 -350.202056 
L 368.072762 -349.563378 
L 368.07274 -348.924699 
L 368.071513 -348.286021 
L 368.069511 -347.647343 
L 368.068395 -347.008665 
L 368.065724 -346.369987 
L 368.065581 -345.731308 
L 368.065513 -345.09263 
L 368.064295 -344.453952 
L 368.062658 -343.815274 
L 368.061218 -343.176595 
L 368.060787 -342.537917 
L 368.058053 -341.899239 
L 368.056967 -341.260561 
L 368.055042 -340.621882 
L 368.052974 -339.983204 
L 368.052929 -339.344526 
L 368.05076 -338.705848 
L 368.050383 -338.067169 
L 368.050349 -337.428491 
L 368.047792 -336.789813 
L 368.046642 -336.151135 
L 368.045723 -335.512457 
L 368.043731 -334.873778 
L 368.042581 -334.2351 
L 368.037809 -333.596422 
L 368.033072 -332.957744 
L 368.032144 -332.319065 
L 368.000075 -331.680387 
L 367.992026 -331.041709 
z
" style="stroke: #00bc00; stroke-opacity: 0.7"/>
    </defs>
    <g clip-path="url(#p2d024b50ed)">
     <use xlink:href="#maafe1d0967" x="0" y="576" style="fill: #00bc00; fill-opacity: 0.7; stroke: #00bc00; stroke-opacity: 0.7"/>
    </g>
   </g>
   <g id="PolyCollection_6">
    <defs>
     <path id="m60eabfff39" d="M 368.83601 -376.387864 
L 367.896094 -376.387864 
L 367.896094 -377.026542 
L 367.896094 -377.66522 
L 367.896094 -378.303898 
L 367.896094 -378.942577 
L 367.896094 -379.581255 
L 367.896094 -380.219933 
L 367.896094 -380.858611 
L 367.896094 -381.49729 
L 367.896094 -382.135968 
L 367.896094 -382.774646 
L 367.896094 -383.413324 
L 367.896094 -384.052002 
L 367.896094 -384.690681 
L 367.896094 -385.329359 
L 367.896094 -385.968037 
L 367.896094 -386.606715 
L 367.896094 -387.245394 
L 367.896094 -387.884072 
L 367.896094 -388.52275 
L 367.896094 -389.161428 
L 367.896094 -389.800107 
L 367.896094 -390.438785 
L 367.896094 -391.077463 
L 367.896094 -391.716141 
L 367.896094 -392.35482 
L 367.896094 -392.993498 
L 367.896094 -393.632176 
L 367.896094 -394.270854 
L 367.896094 -394.909533 
L 367.896094 -395.548211 
L 367.896094 -396.186889 
L 367.896094 -396.825567 
L 367.896094 -397.464245 
L 367.896094 -398.102924 
L 367.896094 -398.741602 
L 367.896094 -399.38028 
L 367.896094 -400.018958 
L 367.896094 -400.657637 
L 367.896094 -401.296315 
L 367.896094 -401.934993 
L 367.896094 -402.573671 
L 367.896094 -403.21235 
L 367.896094 -403.851028 
L 367.896094 -404.489706 
L 367.896094 -405.128384 
L 367.896094 -405.767063 
L 367.896094 -406.405741 
L 367.896094 -407.044419 
L 367.896094 -407.683097 
L 367.896094 -408.321775 
L 367.896094 -408.960454 
L 367.896094 -409.599132 
L 367.896094 -410.23781 
L 367.896094 -410.876488 
L 367.896094 -411.515167 
L 367.896094 -412.153845 
L 367.896094 -412.792523 
L 367.896094 -413.431201 
L 367.896094 -414.06988 
L 367.896094 -414.708558 
L 367.896094 -415.347236 
L 367.896094 -415.985914 
L 367.896094 -416.624593 
L 367.896094 -417.263271 
L 367.896094 -417.901949 
L 367.896094 -418.540627 
L 367.896094 -419.179306 
L 367.896094 -419.817984 
L 367.896094 -420.456662 
L 367.896094 -421.09534 
L 367.896094 -421.734018 
L 367.896094 -422.372697 
L 367.896094 -423.011375 
L 367.896094 -423.650053 
L 367.896094 -424.288731 
L 367.896094 -424.92741 
L 367.896094 -425.566088 
L 367.896094 -426.204766 
L 367.896094 -426.843444 
L 367.896094 -427.482123 
L 367.896094 -428.120801 
L 367.896094 -428.759479 
L 367.896094 -429.398157 
L 367.896094 -430.036836 
L 367.896094 -430.675514 
L 367.896094 -431.314192 
L 367.896094 -431.95287 
L 367.896094 -432.591548 
L 367.896094 -433.230227 
L 367.896094 -433.868905 
L 367.896094 -434.507583 
L 367.896094 -435.146261 
L 367.896094 -435.78494 
L 367.896094 -436.423618 
L 367.896094 -437.062296 
L 367.896094 -437.700974 
L 367.896094 -438.339653 
L 367.896094 -438.978331 
L 367.896094 -439.617009 
L 367.896094 -440.255687 
L 367.896094 -440.894366 
L 367.896094 -441.533044 
L 367.896094 -442.171722 
L 367.896094 -442.8104 
L 367.896094 -443.449078 
L 367.896094 -444.087757 
L 367.896094 -444.726435 
L 367.896094 -445.365113 
L 367.896094 -446.003791 
L 367.896094 -446.64247 
L 367.896094 -447.281148 
L 367.896094 -447.919826 
L 367.896094 -448.558504 
L 367.896094 -449.197183 
L 367.896094 -449.835861 
L 367.896094 -450.474539 
L 367.896094 -451.113217 
L 367.896094 -451.751896 
L 367.896094 -452.390574 
L 367.896094 -453.029252 
L 367.896094 -453.66793 
L 367.896094 -454.306609 
L 367.896094 -454.945287 
L 367.896094 -455.583965 
L 367.896094 -456.222643 
L 367.896094 -456.861321 
L 367.896094 -457.5 
L 367.896094 -458.138678 
L 367.896094 -458.777356 
L 367.896094 -459.416034 
L 367.896094 -460.054713 
L 367.896094 -460.693391 
L 367.896094 -461.332069 
L 367.896094 -461.970747 
L 367.896094 -462.609426 
L 367.896094 -463.248104 
L 367.896094 -463.886782 
L 367.896094 -464.52546 
L 367.896094 -465.164139 
L 367.896094 -465.802817 
L 367.896094 -466.441495 
L 367.896094 -467.080173 
L 367.896094 -467.718851 
L 367.896094 -468.35753 
L 367.896094 -468.996208 
L 367.896094 -469.634886 
L 367.896094 -470.273564 
L 367.896094 -470.912243 
L 367.896094 -471.550921 
L 367.896094 -472.189599 
L 367.896094 -472.828277 
L 367.896094 -473.466956 
L 367.896094 -474.105634 
L 367.896094 -474.744312 
L 367.896094 -475.38299 
L 367.896094 -476.021669 
L 367.896094 -476.660347 
L 367.896094 -477.299025 
L 367.896094 -477.937703 
L 367.896094 -478.576381 
L 367.896094 -479.21506 
L 367.896094 -479.853738 
L 367.896094 -480.492416 
L 367.896094 -481.131094 
L 367.896094 -481.769773 
L 367.896094 -482.408451 
L 367.896094 -483.047129 
L 367.896094 -483.685807 
L 367.896094 -484.324486 
L 367.896094 -484.963164 
L 367.896094 -485.601842 
L 367.896094 -486.24052 
L 367.896094 -486.879199 
L 367.896094 -487.517877 
L 367.896094 -488.156555 
L 367.896094 -488.795233 
L 367.896094 -489.433912 
L 367.896094 -490.07259 
L 367.896094 -490.711268 
L 367.896094 -491.349946 
L 367.896094 -491.988624 
L 367.896094 -492.627303 
L 367.896094 -493.265981 
L 367.896094 -493.904659 
L 367.896094 -494.543337 
L 367.896094 -495.182016 
L 367.896094 -495.820694 
L 367.896094 -496.459372 
L 367.896094 -497.09805 
L 367.896094 -497.736729 
L 367.896094 -498.375407 
L 367.896094 -499.014085 
L 367.896094 -499.652763 
L 367.896094 -500.291442 
L 367.896094 -500.93012 
L 367.896094 -501.568798 
L 367.896094 -502.207476 
L 367.896094 -502.846154 
L 367.896094 -503.484833 
L 367.896094 -504.123511 
L 369.487664 -504.123511 
L 369.487664 -504.123511 
L 369.467573 -503.484833 
L 369.463257 -502.846154 
L 369.458193 -502.207476 
L 369.424323 -501.568798 
L 369.407851 -500.93012 
L 369.39613 -500.291442 
L 369.393474 -499.652763 
L 369.388789 -499.014085 
L 369.386234 -498.375407 
L 369.385105 -497.736729 
L 369.382279 -497.09805 
L 369.380041 -496.459372 
L 369.376918 -495.820694 
L 369.374664 -495.182016 
L 369.372198 -494.543337 
L 369.372028 -493.904659 
L 369.369899 -493.265981 
L 369.369581 -492.627303 
L 369.365531 -491.988624 
L 369.358157 -491.349946 
L 369.353814 -490.711268 
L 369.353725 -490.07259 
L 369.350124 -489.433912 
L 369.350108 -488.795233 
L 369.345646 -488.156555 
L 369.345228 -487.517877 
L 369.344733 -486.879199 
L 369.343488 -486.24052 
L 369.341675 -485.601842 
L 369.339047 -484.963164 
L 369.331443 -484.324486 
L 369.330621 -483.685807 
L 369.328971 -483.047129 
L 369.328687 -482.408451 
L 369.328482 -481.769773 
L 369.328438 -481.131094 
L 369.326634 -480.492416 
L 369.320956 -479.853738 
L 369.320271 -479.21506 
L 369.316889 -478.576381 
L 369.316819 -477.937703 
L 369.315015 -477.299025 
L 369.313804 -476.660347 
L 369.310475 -476.021669 
L 369.309479 -475.38299 
L 369.308824 -474.744312 
L 369.308409 -474.105634 
L 369.307011 -473.466956 
L 369.305577 -472.828277 
L 369.304819 -472.189599 
L 369.304083 -471.550921 
L 369.302714 -470.912243 
L 369.302172 -470.273564 
L 369.300863 -469.634886 
L 369.300606 -468.996208 
L 369.300226 -468.35753 
L 369.299815 -467.718851 
L 369.298866 -467.080173 
L 369.29392 -466.441495 
L 369.292079 -465.802817 
L 369.291299 -465.164139 
L 369.288699 -464.52546 
L 369.288699 -463.886782 
L 369.287147 -463.248104 
L 369.28659 -462.609426 
L 369.285926 -461.970747 
L 369.285689 -461.332069 
L 369.284182 -460.693391 
L 369.284084 -460.054713 
L 369.282771 -459.416034 
L 369.282429 -458.777356 
L 369.282249 -458.138678 
L 369.282118 -457.5 
L 369.281337 -456.861321 
L 369.278704 -456.222643 
L 369.278681 -455.583965 
L 369.278642 -454.945287 
L 369.278396 -454.306609 
L 369.277127 -453.66793 
L 369.275785 -453.029252 
L 369.275227 -452.390574 
L 369.275085 -451.751896 
L 369.274198 -451.113217 
L 369.273001 -450.474539 
L 369.269774 -449.835861 
L 369.26956 -449.197183 
L 369.266962 -448.558504 
L 369.263797 -447.919826 
L 369.263727 -447.281148 
L 369.2626 -446.64247 
L 369.26179 -446.003791 
L 369.26159 -445.365113 
L 369.260854 -444.726435 
L 369.258983 -444.087757 
L 369.257689 -443.449078 
L 369.255212 -442.8104 
L 369.250944 -442.171722 
L 369.249628 -441.533044 
L 369.249412 -440.894366 
L 369.248107 -440.255687 
L 369.247966 -439.617009 
L 369.247542 -438.978331 
L 369.241346 -438.339653 
L 369.240962 -437.700974 
L 369.239569 -437.062296 
L 369.238159 -436.423618 
L 369.23809 -435.78494 
L 369.238052 -435.146261 
L 369.235712 -434.507583 
L 369.234686 -433.868905 
L 369.234362 -433.230227 
L 369.225521 -432.591548 
L 369.224339 -431.95287 
L 369.22405 -431.314192 
L 369.223607 -430.675514 
L 369.221877 -430.036836 
L 369.217145 -429.398157 
L 369.21635 -428.759479 
L 369.215776 -428.120801 
L 369.215105 -427.482123 
L 369.214427 -426.843444 
L 369.213541 -426.204766 
L 369.213104 -425.566088 
L 369.211817 -424.92741 
L 369.205749 -424.288731 
L 369.205521 -423.650053 
L 369.204555 -423.011375 
L 369.197292 -422.372697 
L 369.196615 -421.734018 
L 369.196511 -421.09534 
L 369.191728 -420.456662 
L 369.189733 -419.817984 
L 369.182522 -419.179306 
L 369.182136 -418.540627 
L 369.181106 -417.901949 
L 369.179399 -417.263271 
L 369.1767 -416.624593 
L 369.175833 -415.985914 
L 369.17489 -415.347236 
L 369.173383 -414.708558 
L 369.169878 -414.06988 
L 369.169767 -413.431201 
L 369.16925 -412.792523 
L 369.164495 -412.153845 
L 369.162192 -411.515167 
L 369.161826 -410.876488 
L 369.161308 -410.23781 
L 369.160334 -409.599132 
L 369.157571 -408.960454 
L 369.154242 -408.321775 
L 369.139616 -407.683097 
L 369.139117 -407.044419 
L 369.136035 -406.405741 
L 369.134185 -405.767063 
L 369.132635 -405.128384 
L 369.129182 -404.489706 
L 369.125716 -403.851028 
L 369.122597 -403.21235 
L 369.120985 -402.573671 
L 369.110062 -401.934993 
L 369.110026 -401.296315 
L 369.106522 -400.657637 
L 369.100636 -400.018958 
L 369.099405 -399.38028 
L 369.089468 -398.741602 
L 369.089299 -398.102924 
L 369.084118 -397.464245 
L 369.072475 -396.825567 
L 369.066565 -396.186889 
L 369.06475 -395.548211 
L 369.05569 -394.909533 
L 369.055665 -394.270854 
L 369.053985 -393.632176 
L 369.050509 -392.993498 
L 369.050062 -392.35482 
L 369.040464 -391.716141 
L 369.033534 -391.077463 
L 369.031664 -390.438785 
L 369.029392 -389.800107 
L 369.027222 -389.161428 
L 369.024654 -388.52275 
L 369.014605 -387.884072 
L 369.002077 -387.245394 
L 368.999358 -386.606715 
L 368.998703 -385.968037 
L 368.99716 -385.329359 
L 368.996871 -384.690681 
L 368.99408 -384.052002 
L 368.97961 -383.413324 
L 368.943927 -382.774646 
L 368.936387 -382.135968 
L 368.914407 -381.49729 
L 368.913397 -380.858611 
L 368.886785 -380.219933 
L 368.880664 -379.581255 
L 368.876275 -378.942577 
L 368.866231 -378.303898 
L 368.852077 -377.66522 
L 368.848344 -377.026542 
L 368.83601 -376.387864 
z
" style="stroke: #67ff00; stroke-opacity: 0.7"/>
    </defs>
    <g clip-path="url(#p2d024b50ed)">
     <use xlink:href="#m60eabfff39" x="0" y="576" style="fill: #67ff00; fill-opacity: 0.7; stroke: #67ff00; stroke-opacity: 0.7"/>
    </g>
   </g>
   <g id="PolyCollection_7">
    <defs>
     <path id="m560027c03b" d="M 367.889233 -511.148972 
L 367.896094 -511.148972 
L 367.896094 -511.78765 
L 367.896094 -512.426328 
L 367.896094 -513.065006 
L 367.896094 -513.703685 
L 367.896094 -514.342363 
L 367.896094 -514.981041 
L 367.896094 -515.619719 
L 367.896094 -516.258397 
L 367.896094 -516.897076 
L 367.896094 -517.535754 
L 367.896094 -518.174432 
L 367.896094 -518.81311 
L 367.896094 -519.451789 
L 367.896094 -520.090467 
L 367.896094 -520.729145 
L 367.896094 -521.367823 
L 367.896094 -522.006502 
L 367.896094 -522.64518 
L 367.896094 -523.283858 
L 367.896094 -523.922536 
L 367.896094 -524.561215 
L 367.896094 -525.199893 
L 367.896094 -525.838571 
L 367.896094 -526.477249 
L 367.896094 -527.115927 
L 367.896094 -527.754606 
L 367.896094 -528.393284 
L 367.896094 -529.031962 
L 367.896094 -529.67064 
L 367.896094 -530.309319 
L 367.896094 -530.947997 
L 367.896094 -531.586675 
L 367.896094 -532.225353 
L 367.896094 -532.864032 
L 367.896094 -533.50271 
L 368.071598 -533.50271 
L 368.071598 -533.50271 
L 368.051098 -532.864032 
L 368.041779 -532.225353 
L 368.032313 -531.586675 
L 368.029419 -530.947997 
L 368.025218 -530.309319 
L 368.018286 -529.67064 
L 368.010347 -529.031962 
L 367.997679 -528.393284 
L 367.997563 -527.754606 
L 367.996478 -527.115927 
L 367.993101 -526.477249 
L 367.989286 -525.838571 
L 367.989274 -525.199893 
L 367.97617 -524.561215 
L 367.973164 -523.922536 
L 367.972974 -523.283858 
L 367.958075 -522.64518 
L 367.954382 -522.006502 
L 367.953519 -521.367823 
L 367.952681 -520.729145 
L 367.952633 -520.090467 
L 367.952536 -519.451789 
L 367.94766 -518.81311 
L 367.940251 -518.174432 
L 367.932874 -517.535754 
L 367.920554 -516.897076 
L 367.916598 -516.258397 
L 367.904227 -515.619719 
L 367.902542 -514.981041 
L 367.898835 -514.342363 
L 367.898521 -513.703685 
L 367.897151 -513.065006 
L 367.893282 -512.426328 
L 367.890138 -511.78765 
L 367.889233 -511.148972 
z
" style="stroke: #ffc900; stroke-opacity: 0.7"/>
    </defs>
    <g clip-path="url(#p2d024b50ed)">
     <use xlink:href="#m560027c03b" x="0" y="576" style="fill: #ffc900; fill-opacity: 0.7; stroke: #ffc900; stroke-opacity: 0.7"/>
    </g>
   </g>
   <g id="PolyCollection_8">
    <defs>
     <path id="m345f6e666e" d="M 368.169944 -540.52817 
L 367.896094 -540.52817 
L 367.896094 -541.166849 
L 367.896094 -541.805527 
L 367.896094 -542.444205 
L 367.896094 -543.082883 
L 367.896094 -543.721562 
L 367.896094 -544.36024 
L 367.896094 -544.998918 
L 368.258619 -544.998918 
L 368.258619 -544.998918 
L 368.245403 -544.36024 
L 368.240915 -543.721562 
L 368.235935 -543.082883 
L 368.2338 -542.444205 
L 368.229912 -541.805527 
L 368.195596 -541.166849 
L 368.169944 -540.52817 
z
" style="stroke: #ec0000; stroke-opacity: 0.7"/>
    </defs>
    <g clip-path="url(#p2d024b50ed)">
     <use xlink:href="#m345f6e666e" x="0" y="576" style="fill: #ec0000; fill-opacity: 0.7; stroke: #ec0000; stroke-opacity: 0.7"/>
    </g>
   </g>
   <g id="matplotlib.axis_1">
    <g id="xtick_1">
     <g id="line2d_1">
      <defs>
       <path id="mbc8287f090" d="M 0 0 
L 0 3.5 
" style="stroke: #000000; stroke-width: 0.8"/>
      </defs>
      <g>
       <use xlink:href="#mbc8287f090" x="42.495313" y="510.648438" style="stroke: #000000; stroke-width: 0.8"/>
      </g>
     </g>
     <g id="text_1">
      <!-- −1.0 -->
      <g transform="translate(18.2125 532.845312) scale(0.2 -0.2)">
       <defs>
        <path id="DejaVuSans-2212" d="M 678 2272 
L 4684 2272 
L 4684 1741 
L 678 1741 
L 678 2272 
z
" transform="scale(0.015625)"/>
        <path id="DejaVuSans-31" d="M 794 531 
L 1825 531 
L 1825 4091 
L 703 3866 
L 703 4441 
L 1819 4666 
L 2450 4666 
L 2450 531 
L 3481 531 
L 3481 0 
L 794 0 
L 794 531 
z
" transform="scale(0.015625)"/>
        <path id="DejaVuSans-2e" d="M 684 794 
L 1344 794 
L 1344 0 
L 684 0 
L 684 794 
z
" transform="scale(0.015625)"/>
        <path id="DejaVuSans-30" d="M 2034 4250 
Q 1547 4250 1301 3770 
Q 1056 3291 1056 2328 
Q 1056 1369 1301 889 
Q 1547 409 2034 409 
Q 2525 409 2770 889 
Q 3016 1369 3016 2328 
Q 3016 3291 2770 3770 
Q 2525 4250 2034 4250 
z
M 2034 4750 
Q 2819 4750 3233 4129 
Q 3647 3509 3647 2328 
Q 3647 1150 3233 529 
Q 2819 -91 2034 -91 
Q 1250 -91 836 529 
Q 422 1150 422 2328 
Q 422 3509 836 4129 
Q 1250 4750 2034 4750 
z
" transform="scale(0.015625)"/>
       </defs>
       <use xlink:href="#DejaVuSans-2212"/>
       <use xlink:href="#DejaVuSans-31" x="83.789062"/>
       <use xlink:href="#DejaVuSans-2e" x="147.412109"/>
       <use xlink:href="#DejaVuSans-30" x="179.199219"/>
      </g>
     </g>
    </g>
    <g id="xtick_2">
     <g id="line2d_2">
      <g>
       <use xlink:href="#mbc8287f090" x="107.575469" y="510.648438" style="stroke: #000000; stroke-width: 0.8"/>
      </g>
     </g>
     <g id="text_2">
      <!-- −0.8 -->
      <g transform="translate(83.292656 532.845312) scale(0.2 -0.2)">
       <defs>
        <path id="DejaVuSans-38" d="M 2034 2216 
Q 1584 2216 1326 1975 
Q 1069 1734 1069 1313 
Q 1069 891 1326 650 
Q 1584 409 2034 409 
Q 2484 409 2743 651 
Q 3003 894 3003 1313 
Q 3003 1734 2745 1975 
Q 2488 2216 2034 2216 
z
M 1403 2484 
Q 997 2584 770 2862 
Q 544 3141 544 3541 
Q 544 4100 942 4425 
Q 1341 4750 2034 4750 
Q 2731 4750 3128 4425 
Q 3525 4100 3525 3541 
Q 3525 3141 3298 2862 
Q 3072 2584 2669 2484 
Q 3125 2378 3379 2068 
Q 3634 1759 3634 1313 
Q 3634 634 3220 271 
Q 2806 -91 2034 -91 
Q 1263 -91 848 271 
Q 434 634 434 1313 
Q 434 1759 690 2068 
Q 947 2378 1403 2484 
z
M 1172 3481 
Q 1172 3119 1398 2916 
Q 1625 2713 2034 2713 
Q 2441 2713 2670 2916 
Q 2900 3119 2900 3481 
Q 2900 3844 2670 4047 
Q 2441 4250 2034 4250 
Q 1625 4250 1398 4047 
Q 1172 3844 1172 3481 
z
" transform="scale(0.015625)"/>
       </defs>
       <use xlink:href="#DejaVuSans-2212"/>
       <use xlink:href="#DejaVuSans-30" x="83.789062"/>
       <use xlink:href="#DejaVuSans-2e" x="147.412109"/>
       <use xlink:href="#DejaVuSans-38" x="179.199219"/>
      </g>
     </g>
    </g>
    <g id="xtick_3">
     <g id="line2d_3">
      <g>
       <use xlink:href="#mbc8287f090" x="172.655625" y="510.648438" style="stroke: #000000; stroke-width: 0.8"/>
      </g>
     </g>
     <g id="text_3">
      <!-- −0.6 -->
      <g transform="translate(148.372813 532.845312) scale(0.2 -0.2)">
       <defs>
        <path id="DejaVuSans-36" d="M 2113 2584 
Q 1688 2584 1439 2293 
Q 1191 2003 1191 1497 
Q 1191 994 1439 701 
Q 1688 409 2113 409 
Q 2538 409 2786 701 
Q 3034 994 3034 1497 
Q 3034 2003 2786 2293 
Q 2538 2584 2113 2584 
z
M 3366 4563 
L 3366 3988 
Q 3128 4100 2886 4159 
Q 2644 4219 2406 4219 
Q 1781 4219 1451 3797 
Q 1122 3375 1075 2522 
Q 1259 2794 1537 2939 
Q 1816 3084 2150 3084 
Q 2853 3084 3261 2657 
Q 3669 2231 3669 1497 
Q 3669 778 3244 343 
Q 2819 -91 2113 -91 
Q 1303 -91 875 529 
Q 447 1150 447 2328 
Q 447 3434 972 4092 
Q 1497 4750 2381 4750 
Q 2619 4750 2861 4703 
Q 3103 4656 3366 4563 
z
" transform="scale(0.015625)"/>
       </defs>
       <use xlink:href="#DejaVuSans-2212"/>
       <use xlink:href="#DejaVuSans-30" x="83.789062"/>
       <use xlink:href="#DejaVuSans-2e" x="147.412109"/>
       <use xlink:href="#DejaVuSans-36" x="179.199219"/>
      </g>
     </g>
    </g>
    <g id="xtick_4">
     <g id="line2d_4">
      <g>
       <use xlink:href="#mbc8287f090" x="237.735781" y="510.648438" style="stroke: #000000; stroke-width: 0.8"/>
      </g>
     </g>
     <g id="text_4">
      <!-- −0.4 -->
      <g transform="translate(213.452969 532.845312) scale(0.2 -0.2)">
       <defs>
        <path id="DejaVuSans-34" d="M 2419 4116 
L 825 1625 
L 2419 1625 
L 2419 4116 
z
M 2253 4666 
L 3047 4666 
L 3047 1625 
L 3713 1625 
L 3713 1100 
L 3047 1100 
L 3047 0 
L 2419 0 
L 2419 1100 
L 313 1100 
L 313 1709 
L 2253 4666 
z
" transform="scale(0.015625)"/>
       </defs>
       <use xlink:href="#DejaVuSans-2212"/>
       <use xlink:href="#DejaVuSans-30" x="83.789062"/>
       <use xlink:href="#DejaVuSans-2e" x="147.412109"/>
       <use xlink:href="#DejaVuSans-34" x="179.199219"/>
      </g>
     </g>
    </g>
    <g id="xtick_5">
     <g id="line2d_5">
      <g>
       <use xlink:href="#mbc8287f090" x="302.815937" y="510.648438" style="stroke: #000000; stroke-width: 0.8"/>
      </g>
     </g>
     <g id="text_5">
      <!-- −0.2 -->
      <g transform="translate(278.533125 532.845312) scale(0.2 -0.2)">
       <defs>
        <path id="DejaVuSans-32" d="M 1228 531 
L 3431 531 
L 3431 0 
L 469 0 
L 469 531 
Q 828 903 1448 1529 
Q 2069 2156 2228 2338 
Q 2531 2678 2651 2914 
Q 2772 3150 2772 3378 
Q 2772 3750 2511 3984 
Q 2250 4219 1831 4219 
Q 1534 4219 1204 4116 
Q 875 4013 500 3803 
L 500 4441 
Q 881 4594 1212 4672 
Q 1544 4750 1819 4750 
Q 2544 4750 2975 4387 
Q 3406 4025 3406 3419 
Q 3406 3131 3298 2873 
Q 3191 2616 2906 2266 
Q 2828 2175 2409 1742 
Q 1991 1309 1228 531 
z
" transform="scale(0.015625)"/>
       </defs>
       <use xlink:href="#DejaVuSans-2212"/>
       <use xlink:href="#DejaVuSans-30" x="83.789062"/>
       <use xlink:href="#DejaVuSans-2e" x="147.412109"/>
       <use xlink:href="#DejaVuSans-32" x="179.199219"/>
      </g>
     </g>
    </g>
    <g id="xtick_6">
     <g id="line2d_6">
      <g>
       <use xlink:href="#mbc8287f090" x="367.896094" y="510.648438" style="stroke: #000000; stroke-width: 0.8"/>
      </g>
     </g>
     <g id="text_6">
      <!-- 0.0 -->
      <g transform="translate(351.992969 532.845312) scale(0.2 -0.2)">
       <use xlink:href="#DejaVuSans-30"/>
       <use xlink:href="#DejaVuSans-2e" x="63.623047"/>
       <use xlink:href="#DejaVuSans-30" x="95.410156"/>
      </g>
     </g>
    </g>
    <g id="xtick_7">
     <g id="line2d_7">
      <g>
       <use xlink:href="#mbc8287f090" x="432.97625" y="510.648438" style="stroke: #000000; stroke-width: 0.8"/>
      </g>
     </g>
     <g id="text_7">
      <!-- 0.2 -->
      <g transform="translate(417.073125 532.845312) scale(0.2 -0.2)">
       <use xlink:href="#DejaVuSans-30"/>
       <use xlink:href="#DejaVuSans-2e" x="63.623047"/>
       <use xlink:href="#DejaVuSans-32" x="95.410156"/>
      </g>
     </g>
    </g>
    <g id="xtick_8">
     <g id="line2d_8">
      <g>
       <use xlink:href="#mbc8287f090" x="498.056406" y="510.648438" style="stroke: #000000; stroke-width: 0.8"/>
      </g>
     </g>
     <g id="text_8">
      <!-- 0.4 -->
      <g transform="translate(482.153281 532.845312) scale(0.2 -0.2)">
       <use xlink:href="#DejaVuSans-30"/>
       <use xlink:href="#DejaVuSans-2e" x="63.623047"/>
       <use xlink:href="#DejaVuSans-34" x="95.410156"/>
      </g>
     </g>
    </g>
    <g id="xtick_9">
     <g id="line2d_9">
      <g>
       <use xlink:href="#mbc8287f090" x="563.136562" y="510.648438" style="stroke: #000000; stroke-width: 0.8"/>
      </g>
     </g>
     <g id="text_9">
      <!-- 0.6 -->
      <g transform="translate(547.233437 532.845312) scale(0.2 -0.2)">
       <use xlink:href="#DejaVuSans-30"/>
       <use xlink:href="#DejaVuSans-2e" x="63.623047"/>
       <use xlink:href="#DejaVuSans-36" x="95.410156"/>
      </g>
     </g>
    </g>
    <g id="xtick_10">
     <g id="line2d_10">
      <g>
       <use xlink:href="#mbc8287f090" x="628.216719" y="510.648438" style="stroke: #000000; stroke-width: 0.8"/>
      </g>
     </g>
     <g id="text_10">
      <!-- 0.8 -->
      <g transform="translate(612.313594 532.845312) scale(0.2 -0.2)">
       <use xlink:href="#DejaVuSans-30"/>
       <use xlink:href="#DejaVuSans-2e" x="63.623047"/>
       <use xlink:href="#DejaVuSans-38" x="95.410156"/>
      </g>
     </g>
    </g>
    <g id="xtick_11">
     <g id="line2d_11">
      <g>
       <use xlink:href="#mbc8287f090" x="693.296875" y="510.648438" style="stroke: #000000; stroke-width: 0.8"/>
      </g>
     </g>
     <g id="text_11">
      <!-- 1.0 -->
      <g transform="translate(677.39375 532.845312) scale(0.2 -0.2)">
       <use xlink:href="#DejaVuSans-31"/>
       <use xlink:href="#DejaVuSans-2e" x="63.623047"/>
       <use xlink:href="#DejaVuSans-30" x="95.410156"/>
      </g>
     </g>
    </g>
    <g id="text_12">
     <!-- Silhouette coefficient -->
     <g transform="translate(235.021094 560.000781) scale(0.25 -0.25)">
      <defs>
       <path id="DejaVuSans-53" d="M 3425 4513 
L 3425 3897 
Q 3066 4069 2747 4153 
Q 2428 4238 2131 4238 
Q 1616 4238 1336 4038 
Q 1056 3838 1056 3469 
Q 1056 3159 1242 3001 
Q 1428 2844 1947 2747 
L 2328 2669 
Q 3034 2534 3370 2195 
Q 3706 1856 3706 1288 
Q 3706 609 3251 259 
Q 2797 -91 1919 -91 
Q 1588 -91 1214 -16 
Q 841 59 441 206 
L 441 856 
Q 825 641 1194 531 
Q 1563 422 1919 422 
Q 2459 422 2753 634 
Q 3047 847 3047 1241 
Q 3047 1584 2836 1778 
Q 2625 1972 2144 2069 
L 1759 2144 
Q 1053 2284 737 2584 
Q 422 2884 422 3419 
Q 422 4038 858 4394 
Q 1294 4750 2059 4750 
Q 2388 4750 2728 4690 
Q 3069 4631 3425 4513 
z
" transform="scale(0.015625)"/>
       <path id="DejaVuSans-69" d="M 603 3500 
L 1178 3500 
L 1178 0 
L 603 0 
L 603 3500 
z
M 603 4863 
L 1178 4863 
L 1178 4134 
L 603 4134 
L 603 4863 
z
" transform="scale(0.015625)"/>
       <path id="DejaVuSans-6c" d="M 603 4863 
L 1178 4863 
L 1178 0 
L 603 0 
L 603 4863 
z
" transform="scale(0.015625)"/>
       <path id="DejaVuSans-68" d="M 3513 2113 
L 3513 0 
L 2938 0 
L 2938 2094 
Q 2938 2591 2744 2837 
Q 2550 3084 2163 3084 
Q 1697 3084 1428 2787 
Q 1159 2491 1159 1978 
L 1159 0 
L 581 0 
L 581 4863 
L 1159 4863 
L 1159 2956 
Q 1366 3272 1645 3428 
Q 1925 3584 2291 3584 
Q 2894 3584 3203 3211 
Q 3513 2838 3513 2113 
z
" transform="scale(0.015625)"/>
       <path id="DejaVuSans-6f" d="M 1959 3097 
Q 1497 3097 1228 2736 
Q 959 2375 959 1747 
Q 959 1119 1226 758 
Q 1494 397 1959 397 
Q 2419 397 2687 759 
Q 2956 1122 2956 1747 
Q 2956 2369 2687 2733 
Q 2419 3097 1959 3097 
z
M 1959 3584 
Q 2709 3584 3137 3096 
Q 3566 2609 3566 1747 
Q 3566 888 3137 398 
Q 2709 -91 1959 -91 
Q 1206 -91 779 398 
Q 353 888 353 1747 
Q 353 2609 779 3096 
Q 1206 3584 1959 3584 
z
" transform="scale(0.015625)"/>
       <path id="DejaVuSans-75" d="M 544 1381 
L 544 3500 
L 1119 3500 
L 1119 1403 
Q 1119 906 1312 657 
Q 1506 409 1894 409 
Q 2359 409 2629 706 
Q 2900 1003 2900 1516 
L 2900 3500 
L 3475 3500 
L 3475 0 
L 2900 0 
L 2900 538 
Q 2691 219 2414 64 
Q 2138 -91 1772 -91 
Q 1169 -91 856 284 
Q 544 659 544 1381 
z
M 1991 3584 
L 1991 3584 
z
" transform="scale(0.015625)"/>
       <path id="DejaVuSans-65" d="M 3597 1894 
L 3597 1613 
L 953 1613 
Q 991 1019 1311 708 
Q 1631 397 2203 397 
Q 2534 397 2845 478 
Q 3156 559 3463 722 
L 3463 178 
Q 3153 47 2828 -22 
Q 2503 -91 2169 -91 
Q 1331 -91 842 396 
Q 353 884 353 1716 
Q 353 2575 817 3079 
Q 1281 3584 2069 3584 
Q 2775 3584 3186 3129 
Q 3597 2675 3597 1894 
z
M 3022 2063 
Q 3016 2534 2758 2815 
Q 2500 3097 2075 3097 
Q 1594 3097 1305 2825 
Q 1016 2553 972 2059 
L 3022 2063 
z
" transform="scale(0.015625)"/>
       <path id="DejaVuSans-74" d="M 1172 4494 
L 1172 3500 
L 2356 3500 
L 2356 3053 
L 1172 3053 
L 1172 1153 
Q 1172 725 1289 603 
Q 1406 481 1766 481 
L 2356 481 
L 2356 0 
L 1766 0 
Q 1100 0 847 248 
Q 594 497 594 1153 
L 594 3053 
L 172 3053 
L 172 3500 
L 594 3500 
L 594 4494 
L 1172 4494 
z
" transform="scale(0.015625)"/>
       <path id="DejaVuSans-20" transform="scale(0.015625)"/>
       <path id="DejaVuSans-63" d="M 3122 3366 
L 3122 2828 
Q 2878 2963 2633 3030 
Q 2388 3097 2138 3097 
Q 1578 3097 1268 2742 
Q 959 2388 959 1747 
Q 959 1106 1268 751 
Q 1578 397 2138 397 
Q 2388 397 2633 464 
Q 2878 531 3122 666 
L 3122 134 
Q 2881 22 2623 -34 
Q 2366 -91 2075 -91 
Q 1284 -91 818 406 
Q 353 903 353 1747 
Q 353 2603 823 3093 
Q 1294 3584 2113 3584 
Q 2378 3584 2631 3529 
Q 2884 3475 3122 3366 
z
" transform="scale(0.015625)"/>
       <path id="DejaVuSans-66" d="M 2375 4863 
L 2375 4384 
L 1825 4384 
Q 1516 4384 1395 4259 
Q 1275 4134 1275 3809 
L 1275 3500 
L 2222 3500 
L 2222 3053 
L 1275 3053 
L 1275 0 
L 697 0 
L 697 3053 
L 147 3053 
L 147 3500 
L 697 3500 
L 697 3744 
Q 697 4328 969 4595 
Q 1241 4863 1831 4863 
L 2375 4863 
z
" transform="scale(0.015625)"/>
       <path id="DejaVuSans-6e" d="M 3513 2113 
L 3513 0 
L 2938 0 
L 2938 2094 
Q 2938 2591 2744 2837 
Q 2550 3084 2163 3084 
Q 1697 3084 1428 2787 
Q 1159 2491 1159 1978 
L 1159 0 
L 581 0 
L 581 3500 
L 1159 3500 
L 1159 2956 
Q 1366 3272 1645 3428 
Q 1925 3584 2291 3584 
Q 2894 3584 3203 3211 
Q 3513 2838 3513 2113 
z
" transform="scale(0.015625)"/>
      </defs>
      <use xlink:href="#DejaVuSans-53"/>
      <use xlink:href="#DejaVuSans-69" x="63.476562"/>
      <use xlink:href="#DejaVuSans-6c" x="91.259766"/>
      <use xlink:href="#DejaVuSans-68" x="119.042969"/>
      <use xlink:href="#DejaVuSans-6f" x="182.421875"/>
      <use xlink:href="#DejaVuSans-75" x="243.603516"/>
      <use xlink:href="#DejaVuSans-65" x="306.982422"/>
      <use xlink:href="#DejaVuSans-74" x="368.505859"/>
      <use xlink:href="#DejaVuSans-74" x="407.714844"/>
      <use xlink:href="#DejaVuSans-65" x="446.923828"/>
      <use xlink:href="#DejaVuSans-20" x="508.447266"/>
      <use xlink:href="#DejaVuSans-63" x="540.234375"/>
      <use xlink:href="#DejaVuSans-6f" x="595.214844"/>
      <use xlink:href="#DejaVuSans-65" x="656.396484"/>
      <use xlink:href="#DejaVuSans-66" x="717.919922"/>
      <use xlink:href="#DejaVuSans-66" x="753.125"/>
      <use xlink:href="#DejaVuSans-69" x="788.330078"/>
      <use xlink:href="#DejaVuSans-63" x="816.113281"/>
      <use xlink:href="#DejaVuSans-69" x="871.09375"/>
      <use xlink:href="#DejaVuSans-65" x="898.876953"/>
      <use xlink:href="#DejaVuSans-6e" x="960.400391"/>
      <use xlink:href="#DejaVuSans-74" x="1023.779297"/>
     </g>
    </g>
   </g>
   <g id="matplotlib.axis_2">
    <g id="text_13">
     <!-- Predicted label -->
     <g transform="translate(29.796094 360.192889) rotate(-90) scale(0.25 -0.25)">
      <defs>
       <path id="DejaVuSans-50" d="M 1259 4147 
L 1259 2394 
L 2053 2394 
Q 2494 2394 2734 2622 
Q 2975 2850 2975 3272 
Q 2975 3691 2734 3919 
Q 2494 4147 2053 4147 
L 1259 4147 
z
M 628 4666 
L 2053 4666 
Q 2838 4666 3239 4311 
Q 3641 3956 3641 3272 
Q 3641 2581 3239 2228 
Q 2838 1875 2053 1875 
L 1259 1875 
L 1259 0 
L 628 0 
L 628 4666 
z
" transform="scale(0.015625)"/>
       <path id="DejaVuSans-72" d="M 2631 2963 
Q 2534 3019 2420 3045 
Q 2306 3072 2169 3072 
Q 1681 3072 1420 2755 
Q 1159 2438 1159 1844 
L 1159 0 
L 581 0 
L 581 3500 
L 1159 3500 
L 1159 2956 
Q 1341 3275 1631 3429 
Q 1922 3584 2338 3584 
Q 2397 3584 2469 3576 
Q 2541 3569 2628 3553 
L 2631 2963 
z
" transform="scale(0.015625)"/>
       <path id="DejaVuSans-64" d="M 2906 2969 
L 2906 4863 
L 3481 4863 
L 3481 0 
L 2906 0 
L 2906 525 
Q 2725 213 2448 61 
Q 2172 -91 1784 -91 
Q 1150 -91 751 415 
Q 353 922 353 1747 
Q 353 2572 751 3078 
Q 1150 3584 1784 3584 
Q 2172 3584 2448 3432 
Q 2725 3281 2906 2969 
z
M 947 1747 
Q 947 1113 1208 752 
Q 1469 391 1925 391 
Q 2381 391 2643 752 
Q 2906 1113 2906 1747 
Q 2906 2381 2643 2742 
Q 2381 3103 1925 3103 
Q 1469 3103 1208 2742 
Q 947 2381 947 1747 
z
" transform="scale(0.015625)"/>
       <path id="DejaVuSans-61" d="M 2194 1759 
Q 1497 1759 1228 1600 
Q 959 1441 959 1056 
Q 959 750 1161 570 
Q 1363 391 1709 391 
Q 2188 391 2477 730 
Q 2766 1069 2766 1631 
L 2766 1759 
L 2194 1759 
z
M 3341 1997 
L 3341 0 
L 2766 0 
L 2766 531 
Q 2569 213 2275 61 
Q 1981 -91 1556 -91 
Q 1019 -91 701 211 
Q 384 513 384 1019 
Q 384 1609 779 1909 
Q 1175 2209 1959 2209 
L 2766 2209 
L 2766 2266 
Q 2766 2663 2505 2880 
Q 2244 3097 1772 3097 
Q 1472 3097 1187 3025 
Q 903 2953 641 2809 
L 641 3341 
Q 956 3463 1253 3523 
Q 1550 3584 1831 3584 
Q 2591 3584 2966 3190 
Q 3341 2797 3341 1997 
z
" transform="scale(0.015625)"/>
       <path id="DejaVuSans-62" d="M 3116 1747 
Q 3116 2381 2855 2742 
Q 2594 3103 2138 3103 
Q 1681 3103 1420 2742 
Q 1159 2381 1159 1747 
Q 1159 1113 1420 752 
Q 1681 391 2138 391 
Q 2594 391 2855 752 
Q 3116 1113 3116 1747 
z
M 1159 2969 
Q 1341 3281 1617 3432 
Q 1894 3584 2278 3584 
Q 2916 3584 3314 3078 
Q 3713 2572 3713 1747 
Q 3713 922 3314 415 
Q 2916 -91 2278 -91 
Q 1894 -91 1617 61 
Q 1341 213 1159 525 
L 1159 0 
L 581 0 
L 581 4863 
L 1159 4863 
L 1159 2969 
z
" transform="scale(0.015625)"/>
      </defs>
      <use xlink:href="#DejaVuSans-50"/>
      <use xlink:href="#DejaVuSans-72" x="58.552734"/>
      <use xlink:href="#DejaVuSans-65" x="97.416016"/>
      <use xlink:href="#DejaVuSans-64" x="158.939453"/>
      <use xlink:href="#DejaVuSans-69" x="222.416016"/>
      <use xlink:href="#DejaVuSans-63" x="250.199219"/>
      <use xlink:href="#DejaVuSans-74" x="305.179688"/>
      <use xlink:href="#DejaVuSans-65" x="344.388672"/>
      <use xlink:href="#DejaVuSans-64" x="405.912109"/>
      <use xlink:href="#DejaVuSans-20" x="469.388672"/>
      <use xlink:href="#DejaVuSans-6c" x="501.175781"/>
      <use xlink:href="#DejaVuSans-61" x="528.958984"/>
      <use xlink:href="#DejaVuSans-62" x="590.238281"/>
      <use xlink:href="#DejaVuSans-65" x="653.714844"/>
      <use xlink:href="#DejaVuSans-6c" x="715.238281"/>
     </g>
    </g>
   </g>
   <g id="line2d_12">
    <path d="M 368.38291 510.648438 
L 368.38291 23.975621 
" clip-path="url(#p2d024b50ed)" style="fill: none; stroke: #ff0000; stroke-width: 4; stroke-linecap: square"/>
   </g>
   <g id="patch_3">
    <path d="M 42.495313 510.648438 
L 42.495313 23.975621 
" style="fill: none; stroke: #000000; stroke-width: 0.8; stroke-linejoin: miter; stroke-linecap: square"/>
   </g>
   <g id="patch_4">
    <path d="M 693.296875 510.648438 
L 693.296875 23.975621 
" style="fill: none; stroke: #000000; stroke-width: 0.8; stroke-linejoin: miter; stroke-linecap: square"/>
   </g>
   <g id="patch_5">
    <path d="M 42.495313 510.648438 
L 693.296875 510.648438 
" style="fill: none; stroke: #000000; stroke-width: 0.8; stroke-linejoin: miter; stroke-linecap: square"/>
   </g>
   <g id="patch_6">
    <path d="M 42.495313 23.975621 
L 693.296875 23.975621 
" style="fill: none; stroke: #000000; stroke-width: 0.8; stroke-linejoin: miter; stroke-linecap: square"/>
   </g>
   <g id="text_14">
    <!-- 0 -->
    <g transform="translate(351.626055 464.344265) scale(0.25 -0.25)">
     <use xlink:href="#DejaVuSans-30"/>
    </g>
   </g>
   <g id="text_15">
    <!-- 1 -->
    <g transform="translate(351.626055 390.25759) scale(0.25 -0.25)">
     <use xlink:href="#DejaVuSans-31"/>
    </g>
   </g>
   <g id="text_16">
    <!-- 2 -->
    <g transform="translate(351.626055 339.163331) scale(0.25 -0.25)">
     <use xlink:href="#DejaVuSans-32"/>
    </g>
   </g>
   <g id="text_17">
    <!-- 3 -->
    <g transform="translate(351.626055 283.598324) scale(0.25 -0.25)">
     <defs>
      <path id="DejaVuSans-33" d="M 2597 2516 
Q 3050 2419 3304 2112 
Q 3559 1806 3559 1356 
Q 3559 666 3084 287 
Q 2609 -91 1734 -91 
Q 1441 -91 1130 -33 
Q 819 25 488 141 
L 488 750 
Q 750 597 1062 519 
Q 1375 441 1716 441 
Q 2309 441 2620 675 
Q 2931 909 2931 1356 
Q 2931 1769 2642 2001 
Q 2353 2234 1838 2234 
L 1294 2234 
L 1294 2753 
L 1863 2753 
Q 2328 2753 2575 2939 
Q 2822 3125 2822 3475 
Q 2822 3834 2567 4026 
Q 2313 4219 1838 4219 
Q 1578 4219 1281 4162 
Q 984 4106 628 3988 
L 628 4550 
Q 988 4650 1302 4700 
Q 1616 4750 1894 4750 
Q 2613 4750 3031 4423 
Q 3450 4097 3450 3541 
Q 3450 3153 3228 2886 
Q 3006 2619 2597 2516 
z
" transform="scale(0.015625)"/>
     </defs>
     <use xlink:href="#DejaVuSans-33"/>
    </g>
   </g>
   <g id="text_18">
    <!-- 4 -->
    <g transform="translate(351.626055 225.478605) scale(0.25 -0.25)">
     <use xlink:href="#DejaVuSans-34"/>
    </g>
   </g>
   <g id="text_19">
    <!-- 5 -->
    <g transform="translate(351.626055 135.424974) scale(0.25 -0.25)">
     <defs>
      <path id="DejaVuSans-35" d="M 691 4666 
L 3169 4666 
L 3169 4134 
L 1269 4134 
L 1269 2991 
Q 1406 3038 1543 3061 
Q 1681 3084 1819 3084 
Q 2600 3084 3056 2656 
Q 3513 2228 3513 1497 
Q 3513 744 3044 326 
Q 2575 -91 1722 -91 
Q 1428 -91 1123 -41 
Q 819 9 494 109 
L 494 744 
Q 775 591 1075 516 
Q 1375 441 1709 441 
Q 2250 441 2565 725 
Q 2881 1009 2881 1497 
Q 2881 1984 2565 2268 
Q 2250 2553 1709 2553 
Q 1456 2553 1204 2497 
Q 953 2441 691 2322 
L 691 4666 
z
" transform="scale(0.015625)"/>
     </defs>
     <use xlink:href="#DejaVuSans-35"/>
    </g>
   </g>
   <g id="text_20">
    <!-- 6 -->
    <g transform="translate(351.626055 53.35482) scale(0.25 -0.25)">
     <use xlink:href="#DejaVuSans-36"/>
    </g>
   </g>
   <g id="text_21">
    <!-- 7 -->
    <g transform="translate(351.626055 32.917117) scale(0.25 -0.25)">
     <defs>
      <path id="DejaVuSans-37" d="M 525 4666 
L 3525 4666 
L 3525 4397 
L 1831 0 
L 1172 0 
L 2766 4134 
L 525 4134 
L 525 4666 
z
" transform="scale(0.015625)"/>
     </defs>
     <use xlink:href="#DejaVuSans-37"/>
    </g>
   </g>
   <g id="text_22">
    <!-- 0.0015 -->
    <g style="fill: #ff0000" transform="translate(384.652949 30.362404) scale(0.25 -0.25)">
     <use xlink:href="#DejaVuSans-30"/>
     <use xlink:href="#DejaVuSans-2e" x="63.623047"/>
     <use xlink:href="#DejaVuSans-30" x="95.410156"/>
     <use xlink:href="#DejaVuSans-30" x="159.033203"/>
     <use xlink:href="#DejaVuSans-31" x="222.65625"/>
     <use xlink:href="#DejaVuSans-35" x="286.279297"/>
    </g>
   </g>
  </g>
 </g>
 <defs>
  <clipPath id="p2d024b50ed">
   <rect x="42.495313" y="23.975621" width="650.801562" height="486.672816"/>
  </clipPath>
 </defs>
</svg>
