<?xml version="1.0" encoding="utf-8" standalone="no"?>
<!DOCTYPE svg PUBLIC "-//W3C//DTD SVG 1.1//EN"
  "http://www.w3.org/Graphics/SVG/1.1/DTD/svg11.dtd">
<svg xmlns:xlink="http://www.w3.org/1999/xlink" width="720pt" height="720pt" viewBox="0 0 720 720" xmlns="http://www.w3.org/2000/svg" version="1.1">
 <metadata>
  <rdf:RDF xmlns:dc="http://purl.org/dc/elements/1.1/" xmlns:cc="http://creativecommons.org/ns#" xmlns:rdf="http://www.w3.org/1999/02/22-rdf-syntax-ns#">
   <cc:Work>
    <dc:type rdf:resource="http://purl.org/dc/dcmitype/StillImage"/>
    <dc:date>2022-11-17T19:06:50.130590</dc:date>
    <dc:format>image/svg+xml</dc:format>
    <dc:creator>
     <cc:Agent>
      <dc:title>Matplotlib v3.6.1, https://matplotlib.org/</dc:title>
     </cc:Agent>
    </dc:creator>
   </cc:Work>
  </rdf:RDF>
 </metadata>
 <defs>
  <style type="text/css">*{stroke-linejoin: round; stroke-linecap: butt}</style>
 </defs>
 <g id="figure_1">
  <g id="patch_1">
   <path d="M 0 720 
L 720 720 
L 720 0 
L 0 0 
z
" style="fill: #ffffff"/>
  </g>
  <g id="axes_1">
   <g id="patch_2">
    <path d="M 27.978125 678.84375 
L 701.248437 678.84375 
L 701.248437 11.122847 
L 27.978125 11.122847 
z
" style="fill: #ffffff"/>
   </g>
   <g id="PolyCollection_1">
    <defs>
     <path id="me1f1c8839b" d="M 364.418051 -49.918992 
L 364.613281 -49.918992 
L 364.613281 -50.795266 
L 364.613281 -51.67154 
L 364.613281 -52.547814 
L 364.613281 -53.424088 
L 364.613281 -54.300362 
L 364.613281 -55.176636 
L 364.613281 -56.052911 
L 364.613281 -56.929185 
L 364.613281 -57.805459 
L 364.613281 -58.681733 
L 364.613281 -59.558007 
L 364.613281 -60.434281 
L 364.613281 -61.310555 
L 364.613281 -62.18683 
L 364.613281 -63.063104 
L 364.613281 -63.939378 
L 364.613281 -64.815652 
L 364.613281 -65.691926 
L 364.613281 -66.5682 
L 364.613281 -67.444475 
L 364.613281 -68.320749 
L 364.613281 -69.197023 
L 364.613281 -70.073297 
L 364.613281 -70.949571 
L 364.613281 -71.825845 
L 364.613281 -72.702119 
L 364.613281 -73.578394 
L 364.613281 -74.454668 
L 364.613281 -75.330942 
L 364.613281 -76.207216 
L 364.613281 -77.08349 
L 364.613281 -77.959764 
L 364.613281 -78.836038 
L 364.613281 -79.712313 
L 364.613281 -80.588587 
L 364.613281 -81.464861 
L 364.613281 -82.341135 
L 364.613281 -83.217409 
L 364.613281 -84.093683 
L 364.613281 -84.969958 
L 364.613281 -85.846232 
L 364.613281 -86.722506 
L 364.613281 -87.59878 
L 364.613281 -88.475054 
L 364.613281 -89.351328 
L 364.613281 -90.227602 
L 364.613281 -91.103877 
L 364.613281 -91.980151 
L 364.613281 -92.856425 
L 364.613281 -93.732699 
L 364.613281 -94.608973 
L 364.613281 -95.485247 
L 364.613281 -96.361522 
L 364.613281 -97.237796 
L 364.613281 -98.11407 
L 364.613281 -98.990344 
L 364.613281 -99.866618 
L 364.613281 -100.742892 
L 364.613281 -101.619166 
L 364.613281 -102.495441 
L 364.613281 -103.371715 
L 364.613281 -104.247989 
L 364.613281 -105.124263 
L 364.613281 -106.000537 
L 364.613281 -106.876811 
L 364.613281 -107.753085 
L 364.613281 -108.62936 
L 364.613281 -109.505634 
L 364.613281 -110.381908 
L 364.613281 -111.258182 
L 364.613281 -112.134456 
L 364.613281 -113.01073 
L 364.613281 -113.887005 
L 364.613281 -114.763279 
L 364.613281 -115.639553 
L 364.613281 -116.515827 
L 364.613281 -117.392101 
L 364.613281 -118.268375 
L 364.613281 -119.144649 
L 364.613281 -120.020924 
L 364.613281 -120.897198 
L 364.613281 -121.773472 
L 364.613281 -122.649746 
L 364.613281 -123.52602 
L 364.613281 -124.402294 
L 364.613281 -125.278568 
L 364.613281 -126.154843 
L 364.613281 -127.031117 
L 364.613281 -127.907391 
L 364.613281 -128.783665 
L 364.613281 -129.659939 
L 364.613281 -130.536213 
L 364.613281 -131.412488 
L 364.613281 -132.288762 
L 364.613281 -133.165036 
L 364.613281 -134.04131 
L 364.613281 -134.917584 
L 364.613281 -135.793858 
L 364.613281 -136.670132 
L 364.613281 -137.546407 
L 364.613281 -138.422681 
L 364.613281 -139.298955 
L 364.613281 -140.175229 
L 364.613281 -141.051503 
L 364.613281 -141.927777 
L 364.613281 -142.804052 
L 364.613281 -143.680326 
L 364.613281 -144.5566 
L 364.613281 -145.432874 
L 364.613281 -146.309148 
L 364.613281 -147.185422 
L 364.613281 -148.061696 
L 364.613281 -148.937971 
L 364.613281 -149.814245 
L 364.613281 -150.690519 
L 364.613281 -151.566793 
L 364.613281 -152.443067 
L 364.613281 -153.319341 
L 364.613281 -154.195615 
L 364.613281 -155.07189 
L 364.613281 -155.948164 
L 364.613281 -156.824438 
L 364.613281 -157.700712 
L 364.613281 -158.576986 
L 364.674064 -158.576986 
L 364.674064 -158.576986 
L 364.671977 -157.700712 
L 364.671582 -156.824438 
L 364.671568 -155.948164 
L 364.670996 -155.07189 
L 364.670454 -154.195615 
L 364.670315 -153.319341 
L 364.670133 -152.443067 
L 364.670013 -151.566793 
L 364.669434 -150.690519 
L 364.669252 -149.814245 
L 364.66895 -148.937971 
L 364.667955 -148.061696 
L 364.667287 -147.185422 
L 364.66601 -146.309148 
L 364.665992 -145.432874 
L 364.66552 -144.5566 
L 364.665401 -143.680326 
L 364.664902 -142.804052 
L 364.664594 -141.927777 
L 364.663952 -141.051503 
L 364.662763 -140.175229 
L 364.662763 -139.298955 
L 364.66258 -138.422681 
L 364.662435 -137.546407 
L 364.66197 -136.670132 
L 364.66166 -135.793858 
L 364.660962 -134.917584 
L 364.660861 -134.04131 
L 364.659892 -133.165036 
L 364.659728 -132.288762 
L 364.658715 -131.412488 
L 364.658229 -130.536213 
L 364.658004 -129.659939 
L 364.657884 -128.783665 
L 364.657161 -127.907391 
L 364.65256 -127.031117 
L 364.648244 -126.154843 
L 364.646741 -125.278568 
L 364.64214 -124.402294 
L 364.639973 -123.52602 
L 364.639488 -122.649746 
L 364.639147 -121.773472 
L 364.638009 -120.897198 
L 364.636211 -120.020924 
L 364.635567 -119.144649 
L 364.635196 -118.268375 
L 364.635185 -117.392101 
L 364.634272 -116.515827 
L 364.633164 -115.639553 
L 364.632194 -114.763279 
L 364.6321 -113.887005 
L 364.631004 -113.01073 
L 364.630938 -112.134456 
L 364.630042 -111.258182 
L 364.629816 -110.381908 
L 364.629585 -109.505634 
L 364.629498 -108.62936 
L 364.628392 -107.753085 
L 364.627909 -106.876811 
L 364.627401 -106.000537 
L 364.627143 -105.124263 
L 364.627013 -104.247989 
L 364.626444 -103.371715 
L 364.626396 -102.495441 
L 364.625313 -101.619166 
L 364.625192 -100.742892 
L 364.62462 -99.866618 
L 364.624343 -98.990344 
L 364.62393 -98.11407 
L 364.623436 -97.237796 
L 364.623308 -96.361522 
L 364.623308 -95.485247 
L 364.623116 -94.608973 
L 364.622579 -93.732699 
L 364.620989 -92.856425 
L 364.620264 -91.980151 
L 364.616823 -91.103877 
L 364.616074 -90.227602 
L 364.61454 -89.351328 
L 364.612719 -88.475054 
L 364.609131 -87.59878 
L 364.608052 -86.722506 
L 364.607434 -85.846232 
L 364.601734 -84.969958 
L 364.588232 -84.093683 
L 364.58 -83.217409 
L 364.5784 -82.341135 
L 364.573294 -81.464861 
L 364.57204 -80.588587 
L 364.571234 -79.712313 
L 364.568179 -78.836038 
L 364.568081 -77.959764 
L 364.56632 -77.08349 
L 364.564581 -76.207216 
L 364.560624 -75.330942 
L 364.555369 -74.454668 
L 364.55222 -73.578394 
L 364.548383 -72.702119 
L 364.545637 -71.825845 
L 364.543464 -70.949571 
L 364.530732 -70.073297 
L 364.527562 -69.197023 
L 364.527081 -68.320749 
L 364.526326 -67.444475 
L 364.518889 -66.5682 
L 364.515148 -65.691926 
L 364.512976 -64.815652 
L 364.512918 -63.939378 
L 364.512798 -63.063104 
L 364.511607 -62.18683 
L 364.511213 -61.310555 
L 364.510798 -60.434281 
L 364.507676 -59.558007 
L 364.502886 -58.681733 
L 364.502362 -57.805459 
L 364.502065 -56.929185 
L 364.497762 -56.052911 
L 364.496552 -55.176636 
L 364.471467 -54.300362 
L 364.471209 -53.424088 
L 364.464428 -52.547814 
L 364.441505 -51.67154 
L 364.429466 -50.795266 
L 364.418051 -49.918992 
z
" style="stroke: #000000; stroke-opacity: 0.7"/>
    </defs>
    <g clip-path="url(#p04b27bad2e)">
     <use xlink:href="#me1f1c8839b" x="0" y="720" style="fill-opacity: 0.7; stroke: #000000; stroke-opacity: 0.7"/>
    </g>
   </g>
   <g id="PolyCollection_2">
    <defs>
     <path id="md9c8b6e839" d="M 364.677858 -168.216002 
L 364.613281 -168.216002 
L 364.613281 -169.092276 
L 364.613281 -169.96855 
L 364.613281 -170.844824 
L 364.613281 -171.721098 
L 364.613281 -172.597373 
L 364.613281 -173.473647 
L 364.613281 -174.349921 
L 364.613281 -175.226195 
L 364.613281 -176.102469 
L 364.613281 -176.978743 
L 364.613281 -177.855018 
L 364.613281 -178.731292 
L 364.613281 -179.607566 
L 364.613281 -180.48384 
L 364.613281 -181.360114 
L 364.613281 -182.236388 
L 364.613281 -183.112662 
L 364.613281 -183.988937 
L 364.613281 -184.865211 
L 364.613281 -185.741485 
L 364.613281 -186.617759 
L 364.613281 -187.494033 
L 364.613281 -188.370307 
L 364.613281 -189.246582 
L 364.613281 -190.122856 
L 364.613281 -190.99913 
L 364.613281 -191.875404 
L 364.613281 -192.751678 
L 364.613281 -193.627952 
L 364.613281 -194.504226 
L 364.613281 -195.380501 
L 364.613281 -196.256775 
L 364.613281 -197.133049 
L 364.613281 -198.009323 
L 364.613281 -198.885597 
L 364.613281 -199.761871 
L 364.613281 -200.638145 
L 364.613281 -201.51442 
L 364.613281 -202.390694 
L 364.613281 -203.266968 
L 364.613281 -204.143242 
L 364.613281 -205.019516 
L 364.613281 -205.89579 
L 364.613281 -206.772065 
L 364.613281 -207.648339 
L 364.613281 -208.524613 
L 364.613281 -209.400887 
L 364.613281 -210.277161 
L 364.613281 -211.153435 
L 364.613281 -212.029709 
L 364.613281 -212.905984 
L 364.613281 -213.782258 
L 364.613281 -214.658532 
L 364.613281 -215.534806 
L 364.613281 -216.41108 
L 364.613281 -217.287354 
L 364.613281 -218.163628 
L 364.613281 -219.039903 
L 364.613281 -219.916177 
L 364.613281 -220.792451 
L 364.613281 -221.668725 
L 364.613281 -222.544999 
L 364.613281 -223.421273 
L 364.613281 -224.297548 
L 364.613281 -225.173822 
L 364.613281 -226.050096 
L 364.613281 -226.92637 
L 364.613281 -227.802644 
L 364.613281 -228.678918 
L 364.613281 -229.555192 
L 364.613281 -230.431467 
L 364.613281 -231.307741 
L 364.613281 -232.184015 
L 364.613281 -233.060289 
L 364.613281 -233.936563 
L 364.613281 -234.812837 
L 364.613281 -235.689112 
L 364.613281 -236.565386 
L 364.613281 -237.44166 
L 364.613281 -238.317934 
L 364.613281 -239.194208 
L 364.613281 -240.070482 
L 364.613281 -240.946756 
L 364.613281 -241.823031 
L 364.613281 -242.699305 
L 364.613281 -243.575579 
L 364.952899 -243.575579 
L 364.952899 -243.575579 
L 364.943628 -242.699305 
L 364.938482 -241.823031 
L 364.936179 -240.946756 
L 364.928817 -240.070482 
L 364.927789 -239.194208 
L 364.923189 -238.317934 
L 364.914346 -237.44166 
L 364.913256 -236.565386 
L 364.912033 -235.689112 
L 364.911058 -234.812837 
L 364.909393 -233.936563 
L 364.906517 -233.060289 
L 364.905182 -232.184015 
L 364.904931 -231.307741 
L 364.9027 -230.431467 
L 364.902009 -229.555192 
L 364.901012 -228.678918 
L 364.900185 -227.802644 
L 364.899855 -226.92637 
L 364.899088 -226.050096 
L 364.893631 -225.173822 
L 364.892994 -224.297548 
L 364.891455 -223.421273 
L 364.890129 -222.544999 
L 364.889119 -221.668725 
L 364.888858 -220.792451 
L 364.887502 -219.916177 
L 364.887315 -219.039903 
L 364.88662 -218.163628 
L 364.885999 -217.287354 
L 364.885339 -216.41108 
L 364.883797 -215.534806 
L 364.882029 -214.658532 
L 364.879216 -213.782258 
L 364.876727 -212.905984 
L 364.875122 -212.029709 
L 364.874983 -211.153435 
L 364.874676 -210.277161 
L 364.874644 -209.400887 
L 364.871934 -208.524613 
L 364.870104 -207.648339 
L 364.869559 -206.772065 
L 364.868198 -205.89579 
L 364.866755 -205.019516 
L 364.864924 -204.143242 
L 364.864778 -203.266968 
L 364.864376 -202.390694 
L 364.863688 -201.51442 
L 364.862765 -200.638145 
L 364.861917 -199.761871 
L 364.859371 -198.885597 
L 364.856957 -198.009323 
L 364.85667 -197.133049 
L 364.855668 -196.256775 
L 364.852332 -195.380501 
L 364.849934 -194.504226 
L 364.846951 -193.627952 
L 364.842568 -192.751678 
L 364.841897 -191.875404 
L 364.84171 -190.99913 
L 364.84151 -190.122856 
L 364.840216 -189.246582 
L 364.837237 -188.370307 
L 364.835425 -187.494033 
L 364.833435 -186.617759 
L 364.833215 -185.741485 
L 364.830011 -184.865211 
L 364.826227 -183.988937 
L 364.825005 -183.112662 
L 364.82476 -182.236388 
L 364.821606 -181.360114 
L 364.819508 -180.48384 
L 364.810448 -179.607566 
L 364.805121 -178.731292 
L 364.804321 -177.855018 
L 364.801951 -176.978743 
L 364.79611 -176.102469 
L 364.79457 -175.226195 
L 364.794116 -174.349921 
L 364.792059 -173.473647 
L 364.775993 -172.597373 
L 364.76973 -171.721098 
L 364.755594 -170.844824 
L 364.752562 -169.96855 
L 364.743239 -169.092276 
L 364.677858 -168.216002 
z
" style="stroke: #4300a2; stroke-opacity: 0.7"/>
    </defs>
    <g clip-path="url(#p04b27bad2e)">
     <use xlink:href="#md9c8b6e839" x="0" y="720" style="fill: #4300a2; fill-opacity: 0.7; stroke: #4300a2; stroke-opacity: 0.7"/>
    </g>
   </g>
   <g id="PolyCollection_3">
    <defs>
     <path id="me653aa41d5" d="M 364.540324 -253.214595 
L 364.613281 -253.214595 
L 364.613281 -254.090869 
L 364.613281 -254.967143 
L 364.613281 -255.843417 
L 364.613281 -256.719691 
L 364.613281 -257.595965 
L 364.613281 -258.472239 
L 364.613281 -259.348514 
L 364.613281 -260.224788 
L 364.613281 -261.101062 
L 364.613281 -261.977336 
L 364.613281 -262.85361 
L 364.613281 -263.729884 
L 364.613281 -264.606159 
L 364.613281 -265.482433 
L 364.613281 -266.358707 
L 364.613281 -267.234981 
L 364.613281 -268.111255 
L 364.613281 -268.987529 
L 364.613281 -269.863803 
L 364.613281 -270.740078 
L 364.613281 -271.616352 
L 364.613281 -272.492626 
L 364.613281 -273.3689 
L 364.613281 -274.245174 
L 364.613281 -275.121448 
L 364.613281 -275.997722 
L 364.613281 -276.873997 
L 364.613281 -277.750271 
L 364.613281 -278.626545 
L 364.613281 -279.502819 
L 364.613281 -280.379093 
L 364.613281 -281.255367 
L 364.613281 -282.131642 
L 364.613281 -283.007916 
L 364.613281 -283.88419 
L 364.613281 -284.760464 
L 364.613281 -285.636738 
L 364.613281 -286.513012 
L 364.613281 -287.389286 
L 364.613281 -288.265561 
L 364.613281 -289.141835 
L 364.613281 -290.018109 
L 364.613281 -290.894383 
L 364.613281 -291.770657 
L 364.613281 -292.646931 
L 364.613281 -293.523205 
L 364.613281 -294.39948 
L 364.613281 -295.275754 
L 364.613281 -296.152028 
L 364.613281 -297.028302 
L 364.613281 -297.904576 
L 364.613281 -298.78085 
L 364.730136 -298.78085 
L 364.730136 -298.78085 
L 364.72874 -297.904576 
L 364.725838 -297.028302 
L 364.724479 -296.152028 
L 364.722468 -295.275754 
L 364.720553 -294.39948 
L 364.719744 -293.523205 
L 364.718238 -292.646931 
L 364.717693 -291.770657 
L 364.717465 -290.894383 
L 364.711258 -290.018109 
L 364.710712 -289.141835 
L 364.710579 -288.265561 
L 364.709864 -287.389286 
L 364.70935 -286.513012 
L 364.70935 -285.636738 
L 364.709182 -284.760464 
L 364.707897 -283.88419 
L 364.705862 -283.007916 
L 364.701163 -282.131642 
L 364.695655 -281.255367 
L 364.692351 -280.379093 
L 364.688868 -279.502819 
L 364.685339 -278.626545 
L 364.681254 -277.750271 
L 364.679133 -276.873997 
L 364.678216 -275.997722 
L 364.673724 -275.121448 
L 364.673285 -274.245174 
L 364.670865 -273.3689 
L 364.670652 -272.492626 
L 364.669244 -271.616352 
L 364.669002 -270.740078 
L 364.666271 -269.863803 
L 364.659736 -268.987529 
L 364.657128 -268.111255 
L 364.652682 -267.234981 
L 364.649033 -266.358707 
L 364.643212 -265.482433 
L 364.641819 -264.606159 
L 364.636198 -263.729884 
L 364.630761 -262.85361 
L 364.627128 -261.977336 
L 364.622426 -261.101062 
L 364.620406 -260.224788 
L 364.619928 -259.348514 
L 364.616917 -258.472239 
L 364.611372 -257.595965 
L 364.608581 -256.719691 
L 364.606781 -255.843417 
L 364.597159 -254.967143 
L 364.588127 -254.090869 
L 364.540324 -253.214595 
z
" style="stroke: #0078dd; stroke-opacity: 0.7"/>
    </defs>
    <g clip-path="url(#p04b27bad2e)">
     <use xlink:href="#me653aa41d5" x="0" y="720" style="fill: #0078dd; fill-opacity: 0.7; stroke: #0078dd; stroke-opacity: 0.7"/>
    </g>
   </g>
   <g id="PolyCollection_4">
    <defs>
     <path id="m0c6933cc2a" d="M 364.717561 -308.419866 
L 364.613281 -308.419866 
L 364.613281 -309.29614 
L 364.613281 -310.172414 
L 364.613281 -311.048689 
L 364.613281 -311.924963 
L 364.613281 -312.801237 
L 364.613281 -313.677511 
L 364.613281 -314.553785 
L 364.613281 -315.430059 
L 364.613281 -316.306333 
L 364.613281 -317.182608 
L 364.613281 -318.058882 
L 364.613281 -318.935156 
L 364.613281 -319.81143 
L 364.613281 -320.687704 
L 364.613281 -321.563978 
L 364.613281 -322.440252 
L 364.613281 -323.316527 
L 364.613281 -324.192801 
L 364.613281 -325.069075 
L 364.613281 -325.945349 
L 364.613281 -326.821623 
L 364.613281 -327.697897 
L 364.613281 -328.574172 
L 364.613281 -329.450446 
L 364.613281 -330.32672 
L 364.613281 -331.202994 
L 364.613281 -332.079268 
L 364.613281 -332.955542 
L 364.613281 -333.831816 
L 364.613281 -334.708091 
L 364.613281 -335.584365 
L 364.613281 -336.460639 
L 364.613281 -337.336913 
L 364.613281 -338.213187 
L 364.613281 -339.089461 
L 364.613281 -339.965735 
L 364.613281 -340.84201 
L 364.613281 -341.718284 
L 364.613281 -342.594558 
L 364.613281 -343.470832 
L 364.613281 -344.347106 
L 364.613281 -345.22338 
L 364.613281 -346.099655 
L 364.613281 -346.975929 
L 364.613281 -347.852203 
L 364.613281 -348.728477 
L 364.613281 -349.604751 
L 364.613281 -350.481025 
L 364.613281 -351.357299 
L 364.613281 -352.233574 
L 364.613281 -353.109848 
L 364.613281 -353.986122 
L 364.613281 -354.862396 
L 364.613281 -355.73867 
L 364.613281 -356.614944 
L 364.613281 -357.491219 
L 364.613281 -358.367493 
L 364.613281 -359.243767 
L 364.613281 -360.120041 
L 364.613281 -360.996315 
L 364.613281 -361.872589 
L 364.613281 -362.748863 
L 364.613281 -363.625138 
L 364.613281 -364.501412 
L 364.613281 -365.377686 
L 364.613281 -366.25396 
L 364.613281 -367.130234 
L 364.613281 -368.006508 
L 364.613281 -368.882782 
L 364.613281 -369.759057 
L 364.613281 -370.635331 
L 364.613281 -371.511605 
L 364.613281 -372.387879 
L 364.613281 -373.264153 
L 364.613281 -374.140427 
L 364.613281 -375.016702 
L 364.613281 -375.892976 
L 364.613281 -376.76925 
L 364.613281 -377.645524 
L 364.613281 -378.521798 
L 364.613281 -379.398072 
L 364.613281 -380.274346 
L 364.613281 -381.150621 
L 364.613281 -382.026895 
L 364.613281 -382.903169 
L 364.613281 -383.779443 
L 364.613281 -384.655717 
L 364.613281 -385.531991 
L 364.613281 -386.408265 
L 364.613281 -387.28454 
L 364.613281 -388.160814 
L 364.613281 -389.037088 
L 364.613281 -389.913362 
L 364.613281 -390.789636 
L 364.613281 -391.66591 
L 364.613281 -392.542185 
L 364.613281 -393.418459 
L 364.613281 -394.294733 
L 364.613281 -395.171007 
L 364.613281 -396.047281 
L 364.940083 -396.047281 
L 364.940083 -396.047281 
L 364.928187 -395.171007 
L 364.928085 -394.294733 
L 364.924932 -393.418459 
L 364.924238 -392.542185 
L 364.912456 -391.66591 
L 364.911048 -390.789636 
L 364.910359 -389.913362 
L 364.90926 -389.037088 
L 364.903938 -388.160814 
L 364.903455 -387.28454 
L 364.902699 -386.408265 
L 364.901781 -385.531991 
L 364.901192 -384.655717 
L 364.901123 -383.779443 
L 364.899845 -382.903169 
L 364.89844 -382.026895 
L 364.89837 -381.150621 
L 364.897342 -380.274346 
L 364.897065 -379.398072 
L 364.894697 -378.521798 
L 364.894603 -377.645524 
L 364.892564 -376.76925 
L 364.891363 -375.892976 
L 364.89013 -375.016702 
L 364.889509 -374.140427 
L 364.887996 -373.264153 
L 364.886689 -372.387879 
L 364.885319 -371.511605 
L 364.882499 -370.635331 
L 364.880098 -369.759057 
L 364.879443 -368.882782 
L 364.876694 -368.006508 
L 364.876252 -367.130234 
L 364.875908 -366.25396 
L 364.874988 -365.377686 
L 364.872951 -364.501412 
L 364.872675 -363.625138 
L 364.871408 -362.748863 
L 364.870787 -361.872589 
L 364.869686 -360.996315 
L 364.866252 -360.120041 
L 364.865702 -359.243767 
L 364.864812 -358.367493 
L 364.862955 -357.491219 
L 364.862236 -356.614944 
L 364.861026 -355.73867 
L 364.860859 -354.862396 
L 364.860242 -353.986122 
L 364.859555 -353.109848 
L 364.85784 -352.233574 
L 364.857458 -351.357299 
L 364.856052 -350.481025 
L 364.855575 -349.604751 
L 364.853785 -348.728477 
L 364.85296 -347.852203 
L 364.852549 -346.975929 
L 364.852409 -346.099655 
L 364.852313 -345.22338 
L 364.850831 -344.347106 
L 364.850451 -343.470832 
L 364.849007 -342.594558 
L 364.846847 -341.718284 
L 364.845647 -340.84201 
L 364.839981 -339.965735 
L 364.83977 -339.089461 
L 364.839565 -338.213187 
L 364.837401 -337.336913 
L 364.83705 -336.460639 
L 364.835957 -335.584365 
L 364.832756 -334.708091 
L 364.832317 -333.831816 
L 364.83176 -332.955542 
L 364.830152 -332.079268 
L 364.828193 -331.202994 
L 364.824114 -330.32672 
L 364.823182 -329.450446 
L 364.811159 -328.574172 
L 364.809925 -327.697897 
L 364.807279 -326.821623 
L 364.799769 -325.945349 
L 364.79941 -325.069075 
L 364.798178 -324.192801 
L 364.79719 -323.316527 
L 364.787471 -322.440252 
L 364.787118 -321.563978 
L 364.785574 -320.687704 
L 364.784994 -319.81143 
L 364.784069 -318.935156 
L 364.78241 -318.058882 
L 364.769296 -317.182608 
L 364.760463 -316.306333 
L 364.755654 -315.430059 
L 364.752876 -314.553785 
L 364.749472 -313.677511 
L 364.748927 -312.801237 
L 364.747344 -311.924963 
L 364.746242 -311.048689 
L 364.745933 -310.172414 
L 364.734048 -309.29614 
L 364.717561 -308.419866 
z
" style="stroke: #00aa98; stroke-opacity: 0.7"/>
    </defs>
    <g clip-path="url(#p04b27bad2e)">
     <use xlink:href="#m0c6933cc2a" x="0" y="720" style="fill: #00aa98; fill-opacity: 0.7; stroke: #00aa98; stroke-opacity: 0.7"/>
    </g>
   </g>
   <g id="PolyCollection_5">
    <defs>
     <path id="m65eb0e563e" d="M 364.712526 -405.686297 
L 364.613281 -405.686297 
L 364.613281 -406.562571 
L 364.613281 -407.438845 
L 364.613281 -408.315119 
L 364.613281 -409.191393 
L 364.613281 -410.067668 
L 364.613281 -410.943942 
L 364.613281 -411.820216 
L 364.613281 -412.69649 
L 364.613281 -413.572764 
L 364.613281 -414.449038 
L 364.613281 -415.325312 
L 364.613281 -416.201587 
L 364.613281 -417.077861 
L 364.613281 -417.954135 
L 364.613281 -418.830409 
L 364.613281 -419.706683 
L 364.613281 -420.582957 
L 364.613281 -421.459232 
L 364.613281 -422.335506 
L 364.613281 -423.21178 
L 364.613281 -424.088054 
L 364.613281 -424.964328 
L 364.613281 -425.840602 
L 364.613281 -426.716876 
L 364.613281 -427.593151 
L 364.613281 -428.469425 
L 364.613281 -429.345699 
L 364.613281 -430.221973 
L 364.613281 -431.098247 
L 364.613281 -431.974521 
L 364.613281 -432.850795 
L 364.613281 -433.72707 
L 364.613281 -434.603344 
L 364.613281 -435.479618 
L 364.613281 -436.355892 
L 364.613281 -437.232166 
L 364.613281 -438.10844 
L 364.613281 -438.984715 
L 364.613281 -439.860989 
L 364.613281 -440.737263 
L 364.613281 -441.613537 
L 364.613281 -442.489811 
L 364.613281 -443.366085 
L 364.613281 -444.242359 
L 364.613281 -445.118634 
L 364.613281 -445.994908 
L 364.613281 -446.871182 
L 364.613281 -447.747456 
L 364.613281 -448.62373 
L 364.613281 -449.500004 
L 364.613281 -450.376279 
L 364.613281 -451.252553 
L 364.613281 -452.128827 
L 364.613281 -453.005101 
L 364.613281 -453.881375 
L 364.613281 -454.757649 
L 364.613281 -455.633923 
L 364.613281 -456.510198 
L 364.613281 -457.386472 
L 364.613281 -458.262746 
L 364.841121 -458.262746 
L 364.841121 -458.262746 
L 364.829613 -457.386472 
L 364.827211 -456.510198 
L 364.826178 -455.633923 
L 364.819925 -454.757649 
L 364.819011 -453.881375 
L 364.81891 -453.005101 
L 364.816034 -452.128827 
L 364.815576 -451.252553 
L 364.814705 -450.376279 
L 364.81376 -449.500004 
L 364.81316 -448.62373 
L 364.811257 -447.747456 
L 364.810822 -446.871182 
L 364.810593 -445.994908 
L 364.810593 -445.118634 
L 364.808452 -444.242359 
L 364.807845 -443.366085 
L 364.807845 -442.489811 
L 364.806977 -441.613537 
L 364.806977 -440.737263 
L 364.805948 -439.860989 
L 364.80571 -438.984715 
L 364.805066 -438.10844 
L 364.804985 -437.232166 
L 364.80166 -436.355892 
L 364.798602 -435.479618 
L 364.798461 -434.603344 
L 364.797057 -433.72707 
L 364.797057 -432.850795 
L 364.796386 -431.974521 
L 364.796049 -431.098247 
L 364.796026 -430.221973 
L 364.794757 -429.345699 
L 364.792686 -428.469425 
L 364.791531 -427.593151 
L 364.788768 -426.716876 
L 364.788621 -425.840602 
L 364.788549 -424.964328 
L 364.78729 -424.088054 
L 364.785596 -423.21178 
L 364.784107 -422.335506 
L 364.78366 -421.459232 
L 364.780832 -420.582957 
L 364.779709 -419.706683 
L 364.777717 -418.830409 
L 364.775578 -417.954135 
L 364.775531 -417.077861 
L 364.773288 -416.201587 
L 364.772897 -415.325312 
L 364.772862 -414.449038 
L 364.770217 -413.572764 
L 364.769027 -412.69649 
L 364.768076 -411.820216 
L 364.766016 -410.943942 
L 364.764826 -410.067668 
L 364.759889 -409.191393 
L 364.754989 -408.315119 
L 364.754029 -407.438845 
L 364.720852 -406.562571 
L 364.712526 -405.686297 
z
" style="stroke: #00bc00; stroke-opacity: 0.7"/>
    </defs>
    <g clip-path="url(#p04b27bad2e)">
     <use xlink:href="#m65eb0e563e" x="0" y="720" style="fill: #00bc00; fill-opacity: 0.7; stroke: #00bc00; stroke-opacity: 0.7"/>
    </g>
   </g>
   <g id="PolyCollection_6">
    <defs>
     <path id="m857bc370cb" d="M 365.585648 -467.901762 
L 364.613281 -467.901762 
L 364.613281 -468.778036 
L 364.613281 -469.65431 
L 364.613281 -470.530584 
L 364.613281 -471.406858 
L 364.613281 -472.283132 
L 364.613281 -473.159406 
L 364.613281 -474.035681 
L 364.613281 -474.911955 
L 364.613281 -475.788229 
L 364.613281 -476.664503 
L 364.613281 -477.540777 
L 364.613281 -478.417051 
L 364.613281 -479.293325 
L 364.613281 -480.1696 
L 364.613281 -481.045874 
L 364.613281 -481.922148 
L 364.613281 -482.798422 
L 364.613281 -483.674696 
L 364.613281 -484.55097 
L 364.613281 -485.427245 
L 364.613281 -486.303519 
L 364.613281 -487.179793 
L 364.613281 -488.056067 
L 364.613281 -488.932341 
L 364.613281 -489.808615 
L 364.613281 -490.684889 
L 364.613281 -491.561164 
L 364.613281 -492.437438 
L 364.613281 -493.313712 
L 364.613281 -494.189986 
L 364.613281 -495.06626 
L 364.613281 -495.942534 
L 364.613281 -496.818809 
L 364.613281 -497.695083 
L 364.613281 -498.571357 
L 364.613281 -499.447631 
L 364.613281 -500.323905 
L 364.613281 -501.200179 
L 364.613281 -502.076453 
L 364.613281 -502.952728 
L 364.613281 -503.829002 
L 364.613281 -504.705276 
L 364.613281 -505.58155 
L 364.613281 -506.457824 
L 364.613281 -507.334098 
L 364.613281 -508.210372 
L 364.613281 -509.086647 
L 364.613281 -509.962921 
L 364.613281 -510.839195 
L 364.613281 -511.715469 
L 364.613281 -512.591743 
L 364.613281 -513.468017 
L 364.613281 -514.344292 
L 364.613281 -515.220566 
L 364.613281 -516.09684 
L 364.613281 -516.973114 
L 364.613281 -517.849388 
L 364.613281 -518.725662 
L 364.613281 -519.601936 
L 364.613281 -520.478211 
L 364.613281 -521.354485 
L 364.613281 -522.230759 
L 364.613281 -523.107033 
L 364.613281 -523.983307 
L 364.613281 -524.859581 
L 364.613281 -525.735855 
L 364.613281 -526.61213 
L 364.613281 -527.488404 
L 364.613281 -528.364678 
L 364.613281 -529.240952 
L 364.613281 -530.117226 
L 364.613281 -530.9935 
L 364.613281 -531.869775 
L 364.613281 -532.746049 
L 364.613281 -533.622323 
L 364.613281 -534.498597 
L 364.613281 -535.374871 
L 364.613281 -536.251145 
L 364.613281 -537.127419 
L 364.613281 -538.003694 
L 364.613281 -538.879968 
L 364.613281 -539.756242 
L 364.613281 -540.632516 
L 364.613281 -541.50879 
L 364.613281 -542.385064 
L 364.613281 -543.261339 
L 364.613281 -544.137613 
L 364.613281 -545.013887 
L 364.613281 -545.890161 
L 364.613281 -546.766435 
L 364.613281 -547.642709 
L 364.613281 -548.518983 
L 364.613281 -549.395258 
L 364.613281 -550.271532 
L 364.613281 -551.147806 
L 364.613281 -552.02408 
L 364.613281 -552.900354 
L 364.613281 -553.776628 
L 364.613281 -554.652902 
L 364.613281 -555.529177 
L 364.613281 -556.405451 
L 364.613281 -557.281725 
L 364.613281 -558.157999 
L 364.613281 -559.034273 
L 364.613281 -559.910547 
L 364.613281 -560.786822 
L 364.613281 -561.663096 
L 364.613281 -562.53937 
L 364.613281 -563.415644 
L 364.613281 -564.291918 
L 364.613281 -565.168192 
L 364.613281 -566.044466 
L 364.613281 -566.920741 
L 364.613281 -567.797015 
L 364.613281 -568.673289 
L 364.613281 -569.549563 
L 364.613281 -570.425837 
L 364.613281 -571.302111 
L 364.613281 -572.178385 
L 364.613281 -573.05466 
L 364.613281 -573.930934 
L 364.613281 -574.807208 
L 364.613281 -575.683482 
L 364.613281 -576.559756 
L 364.613281 -577.43603 
L 364.613281 -578.312305 
L 364.613281 -579.188579 
L 364.613281 -580.064853 
L 364.613281 -580.941127 
L 364.613281 -581.817401 
L 364.613281 -582.693675 
L 364.613281 -583.569949 
L 364.613281 -584.446224 
L 364.613281 -585.322498 
L 364.613281 -586.198772 
L 364.613281 -587.075046 
L 364.613281 -587.95132 
L 364.613281 -588.827594 
L 364.613281 -589.703869 
L 364.613281 -590.580143 
L 364.613281 -591.456417 
L 364.613281 -592.332691 
L 364.613281 -593.208965 
L 364.613281 -594.085239 
L 364.613281 -594.961513 
L 364.613281 -595.837788 
L 364.613281 -596.714062 
L 364.613281 -597.590336 
L 364.613281 -598.46661 
L 364.613281 -599.342884 
L 364.613281 -600.219158 
L 364.613281 -601.095432 
L 364.613281 -601.971707 
L 364.613281 -602.847981 
L 364.613281 -603.724255 
L 364.613281 -604.600529 
L 364.613281 -605.476803 
L 364.613281 -606.353077 
L 364.613281 -607.229352 
L 364.613281 -608.105626 
L 364.613281 -608.9819 
L 364.613281 -609.858174 
L 364.613281 -610.734448 
L 364.613281 -611.610722 
L 364.613281 -612.486996 
L 364.613281 -613.363271 
L 364.613281 -614.239545 
L 364.613281 -615.115819 
L 364.613281 -615.992093 
L 364.613281 -616.868367 
L 364.613281 -617.744641 
L 364.613281 -618.620915 
L 364.613281 -619.49719 
L 364.613281 -620.373464 
L 364.613281 -621.249738 
L 364.613281 -622.126012 
L 364.613281 -623.002286 
L 364.613281 -623.87856 
L 364.613281 -624.754835 
L 364.613281 -625.631109 
L 364.613281 -626.507383 
L 364.613281 -627.383657 
L 364.613281 -628.259931 
L 364.613281 -629.136205 
L 364.613281 -630.012479 
L 364.613281 -630.888754 
L 364.613281 -631.765028 
L 364.613281 -632.641302 
L 364.613281 -633.517576 
L 364.613281 -634.39385 
L 364.613281 -635.270124 
L 364.613281 -636.146399 
L 364.613281 -637.022673 
L 364.613281 -637.898947 
L 364.613281 -638.775221 
L 364.613281 -639.651495 
L 364.613281 -640.527769 
L 364.613281 -641.404043 
L 364.613281 -642.280318 
L 364.613281 -643.156592 
L 366.2598 -643.156592 
L 366.2598 -643.156592 
L 366.239016 -642.280318 
L 366.23455 -641.404043 
L 366.229311 -640.527769 
L 366.194272 -639.651495 
L 366.177231 -638.775221 
L 366.165106 -637.898947 
L 366.162358 -637.022673 
L 366.157511 -636.146399 
L 366.154868 -635.270124 
L 366.1537 -634.39385 
L 366.150777 -633.517576 
L 366.148461 -632.641302 
L 366.145231 -631.765028 
L 366.142899 -630.888754 
L 366.140347 -630.012479 
L 366.140172 -629.136205 
L 366.137969 -628.259931 
L 366.13764 -627.383657 
L 366.13345 -626.507383 
L 366.125822 -625.631109 
L 366.121329 -624.754835 
L 366.121237 -623.87856 
L 366.117512 -623.002286 
L 366.117495 -622.126012 
L 366.112879 -621.249738 
L 366.112446 -620.373464 
L 366.111935 -619.49719 
L 366.110646 -618.620915 
L 366.108771 -617.744641 
L 366.106052 -616.868367 
L 366.098185 -615.992093 
L 366.097335 -615.115819 
L 366.095628 -614.239545 
L 366.095335 -613.363271 
L 366.095123 -612.486996 
L 366.095076 -611.610722 
L 366.09321 -610.734448 
L 366.087337 -609.858174 
L 366.086628 -608.9819 
L 366.083129 -608.105626 
L 366.083057 -607.229352 
L 366.08119 -606.353077 
L 366.079938 -605.476803 
L 366.076494 -604.600529 
L 366.075463 -603.724255 
L 366.074786 -602.847981 
L 366.074356 -601.971707 
L 366.07291 -601.095432 
L 366.071427 -600.219158 
L 366.070642 -599.342884 
L 366.069881 -598.46661 
L 366.068464 -597.590336 
L 366.067904 -596.714062 
L 366.06655 -595.837788 
L 366.066284 -594.961513 
L 366.06589 -594.085239 
L 366.065466 -593.208965 
L 366.064484 -592.332691 
L 366.059367 -591.456417 
L 366.057463 -590.580143 
L 366.056655 -589.703869 
L 366.053966 -588.827594 
L 366.053966 -587.95132 
L 366.05236 -587.075046 
L 366.051784 -586.198772 
L 366.051097 -585.322498 
L 366.050852 -584.446224 
L 366.049292 -583.569949 
L 366.049191 -582.693675 
L 366.047833 -581.817401 
L 366.04748 -580.941127 
L 366.047293 -580.064853 
L 366.047157 -579.188579 
L 366.04635 -578.312305 
L 366.043626 -577.43603 
L 366.043601 -576.559756 
L 366.043562 -575.683482 
L 366.043308 -574.807208 
L 366.041994 -573.930934 
L 366.040606 -573.05466 
L 366.040029 -572.178385 
L 366.039882 -571.302111 
L 366.038964 -570.425837 
L 366.037725 -569.549563 
L 366.034387 -568.673289 
L 366.034166 -567.797015 
L 366.031479 -566.920741 
L 366.028204 -566.044466 
L 366.028132 -565.168192 
L 366.026966 -564.291918 
L 366.026128 -563.415644 
L 366.025921 -562.53937 
L 366.02516 -561.663096 
L 366.023223 -560.786822 
L 366.021885 -559.910547 
L 366.019323 -559.034273 
L 366.014907 -558.157999 
L 366.013546 -557.281725 
L 366.013323 -556.405451 
L 366.011972 -555.529177 
L 366.011827 -554.652902 
L 366.011388 -553.776628 
L 366.004978 -552.900354 
L 366.004581 -552.02408 
L 366.003139 -551.147806 
L 366.001681 -550.271532 
L 366.001609 -549.395258 
L 366.00157 -548.518983 
L 365.99915 -547.642709 
L 365.998088 -546.766435 
L 365.997752 -545.890161 
L 365.988606 -545.013887 
L 365.987384 -544.137613 
L 365.987085 -543.261339 
L 365.986627 -542.385064 
L 365.984837 -541.50879 
L 365.979942 -540.632516 
L 365.979119 -539.756242 
L 365.978525 -538.879968 
L 365.977831 -538.003694 
L 365.97713 -537.127419 
L 365.976213 -536.251145 
L 365.975761 -535.374871 
L 365.97443 -534.498597 
L 365.968152 -533.622323 
L 365.967916 -532.746049 
L 365.966916 -531.869775 
L 365.959403 -530.9935 
L 365.958702 -530.117226 
L 365.958595 -529.240952 
L 365.953647 -528.364678 
L 365.951584 -527.488404 
L 365.944124 -526.61213 
L 365.943724 -525.735855 
L 365.942658 -524.859581 
L 365.940893 -523.983307 
L 365.9381 -523.107033 
L 365.937203 -522.230759 
L 365.936227 -521.354485 
L 365.934669 -520.478211 
L 365.931042 -519.601936 
L 365.930928 -518.725662 
L 365.930392 -517.849388 
L 365.925473 -516.973114 
L 365.923092 -516.09684 
L 365.922712 -515.220566 
L 365.922176 -514.344292 
L 365.921169 -513.468017 
L 365.918311 -512.591743 
L 365.914867 -511.715469 
L 365.899736 -510.839195 
L 365.89922 -509.962921 
L 365.896031 -509.086647 
L 365.894117 -508.210372 
L 365.892513 -507.334098 
L 365.888942 -506.457824 
L 365.885356 -505.58155 
L 365.882129 -504.705276 
L 365.880461 -503.829002 
L 365.869161 -502.952728 
L 365.869124 -502.076453 
L 365.865499 -501.200179 
L 365.85941 -500.323905 
L 365.858136 -499.447631 
L 365.847856 -498.571357 
L 365.847682 -497.695083 
L 365.842321 -496.818809 
L 365.830276 -495.942534 
L 365.824162 -495.06626 
L 365.822285 -494.189986 
L 365.812912 -493.313712 
L 365.812887 -492.437438 
L 365.811148 -491.561164 
L 365.807552 -490.684889 
L 365.80709 -489.808615 
L 365.797161 -488.932341 
L 365.789991 -488.056067 
L 365.788056 -487.179793 
L 365.785706 -486.303519 
L 365.783461 -485.427245 
L 365.780805 -484.55097 
L 365.770409 -483.674696 
L 365.757448 -482.798422 
L 365.754635 -481.922148 
L 365.753958 -481.045874 
L 365.752361 -480.1696 
L 365.752062 -479.293325 
L 365.749175 -478.417051 
L 365.734205 -477.540777 
L 365.697291 -476.664503 
L 365.68949 -475.788229 
L 365.666751 -474.911955 
L 365.665707 -474.035681 
L 365.638176 -473.159406 
L 365.631843 -472.283132 
L 365.627303 -471.406858 
L 365.616912 -470.530584 
L 365.602269 -469.65431 
L 365.598408 -468.778036 
L 365.585648 -467.901762 
z
" style="stroke: #67ff00; stroke-opacity: 0.7"/>
    </defs>
    <g clip-path="url(#p04b27bad2e)">
     <use xlink:href="#m857bc370cb" x="0" y="720" style="fill: #67ff00; fill-opacity: 0.7; stroke: #67ff00; stroke-opacity: 0.7"/>
    </g>
   </g>
   <g id="PolyCollection_7">
    <defs>
     <path id="m15ee6e17f3" d="M 364.606183 -652.795607 
L 364.613281 -652.795607 
L 364.613281 -653.671882 
L 364.613281 -654.548156 
L 364.613281 -655.42443 
L 364.613281 -656.300704 
L 364.613281 -657.176978 
L 364.613281 -658.053252 
L 364.613281 -658.929526 
L 364.613281 -659.805801 
L 364.613281 -660.682075 
L 364.613281 -661.558349 
L 364.613281 -662.434623 
L 364.613281 -663.310897 
L 364.613281 -664.187171 
L 364.613281 -665.063446 
L 364.613281 -665.93972 
L 364.613281 -666.815994 
L 364.613281 -667.692268 
L 364.613281 -668.568542 
L 364.613281 -669.444816 
L 364.613281 -670.32109 
L 364.613281 -671.197365 
L 364.613281 -672.073639 
L 364.613281 -672.949913 
L 364.613281 -673.826187 
L 364.613281 -674.702461 
L 364.613281 -675.578735 
L 364.613281 -676.455009 
L 364.613281 -677.331284 
L 364.613281 -678.207558 
L 364.613281 -679.083832 
L 364.613281 -679.960106 
L 364.613281 -680.83638 
L 364.613281 -681.712654 
L 364.613281 -682.588929 
L 364.613281 -683.465203 
L 364.794845 -683.465203 
L 364.794845 -683.465203 
L 364.773637 -682.588929 
L 364.763997 -681.712654 
L 364.754203 -680.83638 
L 364.751209 -679.960106 
L 364.746863 -679.083832 
L 364.739692 -678.207558 
L 364.731479 -677.331284 
L 364.718374 -676.455009 
L 364.718253 -675.578735 
L 364.717131 -674.702461 
L 364.713637 -673.826187 
L 364.709691 -672.949913 
L 364.709679 -672.073639 
L 364.696122 -671.197365 
L 364.693013 -670.32109 
L 364.692816 -669.444816 
L 364.677403 -668.568542 
L 364.673582 -667.692268 
L 364.672689 -666.815994 
L 364.671823 -665.93972 
L 364.671772 -665.063446 
L 364.671672 -664.187171 
L 364.666628 -663.310897 
L 364.658963 -662.434623 
L 364.651331 -661.558349 
L 364.638586 -660.682075 
L 364.634493 -659.805801 
L 364.621695 -658.929526 
L 364.619952 -658.053252 
L 364.616117 -657.176978 
L 364.615792 -656.300704 
L 364.614375 -655.42443 
L 364.610372 -654.548156 
L 364.60712 -653.671882 
L 364.606183 -652.795607 
z
" style="stroke: #ffc900; stroke-opacity: 0.7"/>
    </defs>
    <g clip-path="url(#p04b27bad2e)">
     <use xlink:href="#m15ee6e17f3" x="0" y="720" style="fill: #ffc900; fill-opacity: 0.7; stroke: #ffc900; stroke-opacity: 0.7"/>
    </g>
   </g>
   <g id="PolyCollection_8">
    <defs>
     <path id="m84ae3928d7" d="M 364.896586 -693.104218 
L 364.613281 -693.104218 
L 364.613281 -693.980492 
L 364.613281 -694.856767 
L 364.613281 -695.733041 
L 364.613281 -696.609315 
L 364.613281 -697.485589 
L 364.613281 -698.361863 
L 364.613281 -699.238137 
L 364.988323 -699.238137 
L 364.988323 -699.238137 
L 364.974651 -698.361863 
L 364.970008 -697.485589 
L 364.964856 -696.609315 
L 364.962647 -695.733041 
L 364.958625 -694.856767 
L 364.923124 -693.980492 
L 364.896586 -693.104218 
z
" style="stroke: #ec0000; stroke-opacity: 0.7"/>
    </defs>
    <g clip-path="url(#p04b27bad2e)">
     <use xlink:href="#m84ae3928d7" x="0" y="720" style="fill: #ec0000; fill-opacity: 0.7; stroke: #ec0000; stroke-opacity: 0.7"/>
    </g>
   </g>
   <g id="matplotlib.axis_1">
    <g id="xtick_1">
     <g id="line2d_1">
      <defs>
       <path id="m39363a406f" d="M 0 0 
L 0 3.5 
" style="stroke: #000000; stroke-width: 0.8"/>
      </defs>
      <g>
       <use xlink:href="#m39363a406f" x="27.978125" y="678.84375" style="stroke: #000000; stroke-width: 0.8"/>
      </g>
     </g>
     <g id="text_1">
      <!-- −1.0 -->
      <g transform="translate(15.836719 693.442188) scale(0.1 -0.1)">
       <defs>
        <path id="DejaVuSans-2212" d="M 678 2272 
L 4684 2272 
L 4684 1741 
L 678 1741 
L 678 2272 
z
" transform="scale(0.015625)"/>
        <path id="DejaVuSans-31" d="M 794 531 
L 1825 531 
L 1825 4091 
L 703 3866 
L 703 4441 
L 1819 4666 
L 2450 4666 
L 2450 531 
L 3481 531 
L 3481 0 
L 794 0 
L 794 531 
z
" transform="scale(0.015625)"/>
        <path id="DejaVuSans-2e" d="M 684 794 
L 1344 794 
L 1344 0 
L 684 0 
L 684 794 
z
" transform="scale(0.015625)"/>
        <path id="DejaVuSans-30" d="M 2034 4250 
Q 1547 4250 1301 3770 
Q 1056 3291 1056 2328 
Q 1056 1369 1301 889 
Q 1547 409 2034 409 
Q 2525 409 2770 889 
Q 3016 1369 3016 2328 
Q 3016 3291 2770 3770 
Q 2525 4250 2034 4250 
z
M 2034 4750 
Q 2819 4750 3233 4129 
Q 3647 3509 3647 2328 
Q 3647 1150 3233 529 
Q 2819 -91 2034 -91 
Q 1250 -91 836 529 
Q 422 1150 422 2328 
Q 422 3509 836 4129 
Q 1250 4750 2034 4750 
z
" transform="scale(0.015625)"/>
       </defs>
       <use xlink:href="#DejaVuSans-2212"/>
       <use xlink:href="#DejaVuSans-31" x="83.789062"/>
       <use xlink:href="#DejaVuSans-2e" x="147.412109"/>
       <use xlink:href="#DejaVuSans-30" x="179.199219"/>
      </g>
     </g>
    </g>
    <g id="xtick_2">
     <g id="line2d_2">
      <g>
       <use xlink:href="#m39363a406f" x="95.305156" y="678.84375" style="stroke: #000000; stroke-width: 0.8"/>
      </g>
     </g>
     <g id="text_2">
      <!-- −0.8 -->
      <g transform="translate(83.16375 693.442188) scale(0.1 -0.1)">
       <defs>
        <path id="DejaVuSans-38" d="M 2034 2216 
Q 1584 2216 1326 1975 
Q 1069 1734 1069 1313 
Q 1069 891 1326 650 
Q 1584 409 2034 409 
Q 2484 409 2743 651 
Q 3003 894 3003 1313 
Q 3003 1734 2745 1975 
Q 2488 2216 2034 2216 
z
M 1403 2484 
Q 997 2584 770 2862 
Q 544 3141 544 3541 
Q 544 4100 942 4425 
Q 1341 4750 2034 4750 
Q 2731 4750 3128 4425 
Q 3525 4100 3525 3541 
Q 3525 3141 3298 2862 
Q 3072 2584 2669 2484 
Q 3125 2378 3379 2068 
Q 3634 1759 3634 1313 
Q 3634 634 3220 271 
Q 2806 -91 2034 -91 
Q 1263 -91 848 271 
Q 434 634 434 1313 
Q 434 1759 690 2068 
Q 947 2378 1403 2484 
z
M 1172 3481 
Q 1172 3119 1398 2916 
Q 1625 2713 2034 2713 
Q 2441 2713 2670 2916 
Q 2900 3119 2900 3481 
Q 2900 3844 2670 4047 
Q 2441 4250 2034 4250 
Q 1625 4250 1398 4047 
Q 1172 3844 1172 3481 
z
" transform="scale(0.015625)"/>
       </defs>
       <use xlink:href="#DejaVuSans-2212"/>
       <use xlink:href="#DejaVuSans-30" x="83.789062"/>
       <use xlink:href="#DejaVuSans-2e" x="147.412109"/>
       <use xlink:href="#DejaVuSans-38" x="179.199219"/>
      </g>
     </g>
    </g>
    <g id="xtick_3">
     <g id="line2d_3">
      <g>
       <use xlink:href="#m39363a406f" x="162.632188" y="678.84375" style="stroke: #000000; stroke-width: 0.8"/>
      </g>
     </g>
     <g id="text_3">
      <!-- −0.6 -->
      <g transform="translate(150.490781 693.442188) scale(0.1 -0.1)">
       <defs>
        <path id="DejaVuSans-36" d="M 2113 2584 
Q 1688 2584 1439 2293 
Q 1191 2003 1191 1497 
Q 1191 994 1439 701 
Q 1688 409 2113 409 
Q 2538 409 2786 701 
Q 3034 994 3034 1497 
Q 3034 2003 2786 2293 
Q 2538 2584 2113 2584 
z
M 3366 4563 
L 3366 3988 
Q 3128 4100 2886 4159 
Q 2644 4219 2406 4219 
Q 1781 4219 1451 3797 
Q 1122 3375 1075 2522 
Q 1259 2794 1537 2939 
Q 1816 3084 2150 3084 
Q 2853 3084 3261 2657 
Q 3669 2231 3669 1497 
Q 3669 778 3244 343 
Q 2819 -91 2113 -91 
Q 1303 -91 875 529 
Q 447 1150 447 2328 
Q 447 3434 972 4092 
Q 1497 4750 2381 4750 
Q 2619 4750 2861 4703 
Q 3103 4656 3366 4563 
z
" transform="scale(0.015625)"/>
       </defs>
       <use xlink:href="#DejaVuSans-2212"/>
       <use xlink:href="#DejaVuSans-30" x="83.789062"/>
       <use xlink:href="#DejaVuSans-2e" x="147.412109"/>
       <use xlink:href="#DejaVuSans-36" x="179.199219"/>
      </g>
     </g>
    </g>
    <g id="xtick_4">
     <g id="line2d_4">
      <g>
       <use xlink:href="#m39363a406f" x="229.959219" y="678.84375" style="stroke: #000000; stroke-width: 0.8"/>
      </g>
     </g>
     <g id="text_4">
      <!-- −0.4 -->
      <g transform="translate(217.817813 693.442188) scale(0.1 -0.1)">
       <defs>
        <path id="DejaVuSans-34" d="M 2419 4116 
L 825 1625 
L 2419 1625 
L 2419 4116 
z
M 2253 4666 
L 3047 4666 
L 3047 1625 
L 3713 1625 
L 3713 1100 
L 3047 1100 
L 3047 0 
L 2419 0 
L 2419 1100 
L 313 1100 
L 313 1709 
L 2253 4666 
z
" transform="scale(0.015625)"/>
       </defs>
       <use xlink:href="#DejaVuSans-2212"/>
       <use xlink:href="#DejaVuSans-30" x="83.789062"/>
       <use xlink:href="#DejaVuSans-2e" x="147.412109"/>
       <use xlink:href="#DejaVuSans-34" x="179.199219"/>
      </g>
     </g>
    </g>
    <g id="xtick_5">
     <g id="line2d_5">
      <g>
       <use xlink:href="#m39363a406f" x="297.28625" y="678.84375" style="stroke: #000000; stroke-width: 0.8"/>
      </g>
     </g>
     <g id="text_5">
      <!-- −0.2 -->
      <g transform="translate(285.144844 693.442188) scale(0.1 -0.1)">
       <defs>
        <path id="DejaVuSans-32" d="M 1228 531 
L 3431 531 
L 3431 0 
L 469 0 
L 469 531 
Q 828 903 1448 1529 
Q 2069 2156 2228 2338 
Q 2531 2678 2651 2914 
Q 2772 3150 2772 3378 
Q 2772 3750 2511 3984 
Q 2250 4219 1831 4219 
Q 1534 4219 1204 4116 
Q 875 4013 500 3803 
L 500 4441 
Q 881 4594 1212 4672 
Q 1544 4750 1819 4750 
Q 2544 4750 2975 4387 
Q 3406 4025 3406 3419 
Q 3406 3131 3298 2873 
Q 3191 2616 2906 2266 
Q 2828 2175 2409 1742 
Q 1991 1309 1228 531 
z
" transform="scale(0.015625)"/>
       </defs>
       <use xlink:href="#DejaVuSans-2212"/>
       <use xlink:href="#DejaVuSans-30" x="83.789062"/>
       <use xlink:href="#DejaVuSans-2e" x="147.412109"/>
       <use xlink:href="#DejaVuSans-32" x="179.199219"/>
      </g>
     </g>
    </g>
    <g id="xtick_6">
     <g id="line2d_6">
      <g>
       <use xlink:href="#m39363a406f" x="364.613281" y="678.84375" style="stroke: #000000; stroke-width: 0.8"/>
      </g>
     </g>
     <g id="text_6">
      <!-- 0.0 -->
      <g transform="translate(356.661719 693.442188) scale(0.1 -0.1)">
       <use xlink:href="#DejaVuSans-30"/>
       <use xlink:href="#DejaVuSans-2e" x="63.623047"/>
       <use xlink:href="#DejaVuSans-30" x="95.410156"/>
      </g>
     </g>
    </g>
    <g id="xtick_7">
     <g id="line2d_7">
      <g>
       <use xlink:href="#m39363a406f" x="431.940313" y="678.84375" style="stroke: #000000; stroke-width: 0.8"/>
      </g>
     </g>
     <g id="text_7">
      <!-- 0.2 -->
      <g transform="translate(423.98875 693.442188) scale(0.1 -0.1)">
       <use xlink:href="#DejaVuSans-30"/>
       <use xlink:href="#DejaVuSans-2e" x="63.623047"/>
       <use xlink:href="#DejaVuSans-32" x="95.410156"/>
      </g>
     </g>
    </g>
    <g id="xtick_8">
     <g id="line2d_8">
      <g>
       <use xlink:href="#m39363a406f" x="499.267344" y="678.84375" style="stroke: #000000; stroke-width: 0.8"/>
      </g>
     </g>
     <g id="text_8">
      <!-- 0.4 -->
      <g transform="translate(491.315781 693.442188) scale(0.1 -0.1)">
       <use xlink:href="#DejaVuSans-30"/>
       <use xlink:href="#DejaVuSans-2e" x="63.623047"/>
       <use xlink:href="#DejaVuSans-34" x="95.410156"/>
      </g>
     </g>
    </g>
    <g id="xtick_9">
     <g id="line2d_9">
      <g>
       <use xlink:href="#m39363a406f" x="566.594375" y="678.84375" style="stroke: #000000; stroke-width: 0.8"/>
      </g>
     </g>
     <g id="text_9">
      <!-- 0.6 -->
      <g transform="translate(558.642812 693.442188) scale(0.1 -0.1)">
       <use xlink:href="#DejaVuSans-30"/>
       <use xlink:href="#DejaVuSans-2e" x="63.623047"/>
       <use xlink:href="#DejaVuSans-36" x="95.410156"/>
      </g>
     </g>
    </g>
    <g id="xtick_10">
     <g id="line2d_10">
      <g>
       <use xlink:href="#m39363a406f" x="633.921406" y="678.84375" style="stroke: #000000; stroke-width: 0.8"/>
      </g>
     </g>
     <g id="text_10">
      <!-- 0.8 -->
      <g transform="translate(625.969844 693.442188) scale(0.1 -0.1)">
       <use xlink:href="#DejaVuSans-30"/>
       <use xlink:href="#DejaVuSans-2e" x="63.623047"/>
       <use xlink:href="#DejaVuSans-38" x="95.410156"/>
      </g>
     </g>
    </g>
    <g id="xtick_11">
     <g id="line2d_11">
      <g>
       <use xlink:href="#m39363a406f" x="701.248437" y="678.84375" style="stroke: #000000; stroke-width: 0.8"/>
      </g>
     </g>
     <g id="text_11">
      <!-- 1.0 -->
      <g transform="translate(693.296875 693.442188) scale(0.1 -0.1)">
       <use xlink:href="#DejaVuSans-31"/>
       <use xlink:href="#DejaVuSans-2e" x="63.623047"/>
       <use xlink:href="#DejaVuSans-30" x="95.410156"/>
      </g>
     </g>
    </g>
    <g id="text_12">
     <!-- Silhouette coefficient -->
     <g transform="translate(311.463281 707.120313) scale(0.1 -0.1)">
      <defs>
       <path id="DejaVuSans-53" d="M 3425 4513 
L 3425 3897 
Q 3066 4069 2747 4153 
Q 2428 4238 2131 4238 
Q 1616 4238 1336 4038 
Q 1056 3838 1056 3469 
Q 1056 3159 1242 3001 
Q 1428 2844 1947 2747 
L 2328 2669 
Q 3034 2534 3370 2195 
Q 3706 1856 3706 1288 
Q 3706 609 3251 259 
Q 2797 -91 1919 -91 
Q 1588 -91 1214 -16 
Q 841 59 441 206 
L 441 856 
Q 825 641 1194 531 
Q 1563 422 1919 422 
Q 2459 422 2753 634 
Q 3047 847 3047 1241 
Q 3047 1584 2836 1778 
Q 2625 1972 2144 2069 
L 1759 2144 
Q 1053 2284 737 2584 
Q 422 2884 422 3419 
Q 422 4038 858 4394 
Q 1294 4750 2059 4750 
Q 2388 4750 2728 4690 
Q 3069 4631 3425 4513 
z
" transform="scale(0.015625)"/>
       <path id="DejaVuSans-69" d="M 603 3500 
L 1178 3500 
L 1178 0 
L 603 0 
L 603 3500 
z
M 603 4863 
L 1178 4863 
L 1178 4134 
L 603 4134 
L 603 4863 
z
" transform="scale(0.015625)"/>
       <path id="DejaVuSans-6c" d="M 603 4863 
L 1178 4863 
L 1178 0 
L 603 0 
L 603 4863 
z
" transform="scale(0.015625)"/>
       <path id="DejaVuSans-68" d="M 3513 2113 
L 3513 0 
L 2938 0 
L 2938 2094 
Q 2938 2591 2744 2837 
Q 2550 3084 2163 3084 
Q 1697 3084 1428 2787 
Q 1159 2491 1159 1978 
L 1159 0 
L 581 0 
L 581 4863 
L 1159 4863 
L 1159 2956 
Q 1366 3272 1645 3428 
Q 1925 3584 2291 3584 
Q 2894 3584 3203 3211 
Q 3513 2838 3513 2113 
z
" transform="scale(0.015625)"/>
       <path id="DejaVuSans-6f" d="M 1959 3097 
Q 1497 3097 1228 2736 
Q 959 2375 959 1747 
Q 959 1119 1226 758 
Q 1494 397 1959 397 
Q 2419 397 2687 759 
Q 2956 1122 2956 1747 
Q 2956 2369 2687 2733 
Q 2419 3097 1959 3097 
z
M 1959 3584 
Q 2709 3584 3137 3096 
Q 3566 2609 3566 1747 
Q 3566 888 3137 398 
Q 2709 -91 1959 -91 
Q 1206 -91 779 398 
Q 353 888 353 1747 
Q 353 2609 779 3096 
Q 1206 3584 1959 3584 
z
" transform="scale(0.015625)"/>
       <path id="DejaVuSans-75" d="M 544 1381 
L 544 3500 
L 1119 3500 
L 1119 1403 
Q 1119 906 1312 657 
Q 1506 409 1894 409 
Q 2359 409 2629 706 
Q 2900 1003 2900 1516 
L 2900 3500 
L 3475 3500 
L 3475 0 
L 2900 0 
L 2900 538 
Q 2691 219 2414 64 
Q 2138 -91 1772 -91 
Q 1169 -91 856 284 
Q 544 659 544 1381 
z
M 1991 3584 
L 1991 3584 
z
" transform="scale(0.015625)"/>
       <path id="DejaVuSans-65" d="M 3597 1894 
L 3597 1613 
L 953 1613 
Q 991 1019 1311 708 
Q 1631 397 2203 397 
Q 2534 397 2845 478 
Q 3156 559 3463 722 
L 3463 178 
Q 3153 47 2828 -22 
Q 2503 -91 2169 -91 
Q 1331 -91 842 396 
Q 353 884 353 1716 
Q 353 2575 817 3079 
Q 1281 3584 2069 3584 
Q 2775 3584 3186 3129 
Q 3597 2675 3597 1894 
z
M 3022 2063 
Q 3016 2534 2758 2815 
Q 2500 3097 2075 3097 
Q 1594 3097 1305 2825 
Q 1016 2553 972 2059 
L 3022 2063 
z
" transform="scale(0.015625)"/>
       <path id="DejaVuSans-74" d="M 1172 4494 
L 1172 3500 
L 2356 3500 
L 2356 3053 
L 1172 3053 
L 1172 1153 
Q 1172 725 1289 603 
Q 1406 481 1766 481 
L 2356 481 
L 2356 0 
L 1766 0 
Q 1100 0 847 248 
Q 594 497 594 1153 
L 594 3053 
L 172 3053 
L 172 3500 
L 594 3500 
L 594 4494 
L 1172 4494 
z
" transform="scale(0.015625)"/>
       <path id="DejaVuSans-20" transform="scale(0.015625)"/>
       <path id="DejaVuSans-63" d="M 3122 3366 
L 3122 2828 
Q 2878 2963 2633 3030 
Q 2388 3097 2138 3097 
Q 1578 3097 1268 2742 
Q 959 2388 959 1747 
Q 959 1106 1268 751 
Q 1578 397 2138 397 
Q 2388 397 2633 464 
Q 2878 531 3122 666 
L 3122 134 
Q 2881 22 2623 -34 
Q 2366 -91 2075 -91 
Q 1284 -91 818 406 
Q 353 903 353 1747 
Q 353 2603 823 3093 
Q 1294 3584 2113 3584 
Q 2378 3584 2631 3529 
Q 2884 3475 3122 3366 
z
" transform="scale(0.015625)"/>
       <path id="DejaVuSans-66" d="M 2375 4863 
L 2375 4384 
L 1825 4384 
Q 1516 4384 1395 4259 
Q 1275 4134 1275 3809 
L 1275 3500 
L 2222 3500 
L 2222 3053 
L 1275 3053 
L 1275 0 
L 697 0 
L 697 3053 
L 147 3053 
L 147 3500 
L 697 3500 
L 697 3744 
Q 697 4328 969 4595 
Q 1241 4863 1831 4863 
L 2375 4863 
z
" transform="scale(0.015625)"/>
       <path id="DejaVuSans-6e" d="M 3513 2113 
L 3513 0 
L 2938 0 
L 2938 2094 
Q 2938 2591 2744 2837 
Q 2550 3084 2163 3084 
Q 1697 3084 1428 2787 
Q 1159 2491 1159 1978 
L 1159 0 
L 581 0 
L 581 3500 
L 1159 3500 
L 1159 2956 
Q 1366 3272 1645 3428 
Q 1925 3584 2291 3584 
Q 2894 3584 3203 3211 
Q 3513 2838 3513 2113 
z
" transform="scale(0.015625)"/>
      </defs>
      <use xlink:href="#DejaVuSans-53"/>
      <use xlink:href="#DejaVuSans-69" x="63.476562"/>
      <use xlink:href="#DejaVuSans-6c" x="91.259766"/>
      <use xlink:href="#DejaVuSans-68" x="119.042969"/>
      <use xlink:href="#DejaVuSans-6f" x="182.421875"/>
      <use xlink:href="#DejaVuSans-75" x="243.603516"/>
      <use xlink:href="#DejaVuSans-65" x="306.982422"/>
      <use xlink:href="#DejaVuSans-74" x="368.505859"/>
      <use xlink:href="#DejaVuSans-74" x="407.714844"/>
      <use xlink:href="#DejaVuSans-65" x="446.923828"/>
      <use xlink:href="#DejaVuSans-20" x="508.447266"/>
      <use xlink:href="#DejaVuSans-63" x="540.234375"/>
      <use xlink:href="#DejaVuSans-6f" x="595.214844"/>
      <use xlink:href="#DejaVuSans-65" x="656.396484"/>
      <use xlink:href="#DejaVuSans-66" x="717.919922"/>
      <use xlink:href="#DejaVuSans-66" x="753.125"/>
      <use xlink:href="#DejaVuSans-69" x="788.330078"/>
      <use xlink:href="#DejaVuSans-63" x="816.113281"/>
      <use xlink:href="#DejaVuSans-69" x="871.09375"/>
      <use xlink:href="#DejaVuSans-65" x="898.876953"/>
      <use xlink:href="#DejaVuSans-6e" x="960.400391"/>
      <use xlink:href="#DejaVuSans-74" x="1023.779297"/>
     </g>
    </g>
   </g>
   <g id="matplotlib.axis_2">
    <g id="text_13">
     <!-- Predicted label -->
     <g transform="translate(18.398438 382.135642) rotate(-90) scale(0.1 -0.1)">
      <defs>
       <path id="DejaVuSans-50" d="M 1259 4147 
L 1259 2394 
L 2053 2394 
Q 2494 2394 2734 2622 
Q 2975 2850 2975 3272 
Q 2975 3691 2734 3919 
Q 2494 4147 2053 4147 
L 1259 4147 
z
M 628 4666 
L 2053 4666 
Q 2838 4666 3239 4311 
Q 3641 3956 3641 3272 
Q 3641 2581 3239 2228 
Q 2838 1875 2053 1875 
L 1259 1875 
L 1259 0 
L 628 0 
L 628 4666 
z
" transform="scale(0.015625)"/>
       <path id="DejaVuSans-72" d="M 2631 2963 
Q 2534 3019 2420 3045 
Q 2306 3072 2169 3072 
Q 1681 3072 1420 2755 
Q 1159 2438 1159 1844 
L 1159 0 
L 581 0 
L 581 3500 
L 1159 3500 
L 1159 2956 
Q 1341 3275 1631 3429 
Q 1922 3584 2338 3584 
Q 2397 3584 2469 3576 
Q 2541 3569 2628 3553 
L 2631 2963 
z
" transform="scale(0.015625)"/>
       <path id="DejaVuSans-64" d="M 2906 2969 
L 2906 4863 
L 3481 4863 
L 3481 0 
L 2906 0 
L 2906 525 
Q 2725 213 2448 61 
Q 2172 -91 1784 -91 
Q 1150 -91 751 415 
Q 353 922 353 1747 
Q 353 2572 751 3078 
Q 1150 3584 1784 3584 
Q 2172 3584 2448 3432 
Q 2725 3281 2906 2969 
z
M 947 1747 
Q 947 1113 1208 752 
Q 1469 391 1925 391 
Q 2381 391 2643 752 
Q 2906 1113 2906 1747 
Q 2906 2381 2643 2742 
Q 2381 3103 1925 3103 
Q 1469 3103 1208 2742 
Q 947 2381 947 1747 
z
" transform="scale(0.015625)"/>
       <path id="DejaVuSans-61" d="M 2194 1759 
Q 1497 1759 1228 1600 
Q 959 1441 959 1056 
Q 959 750 1161 570 
Q 1363 391 1709 391 
Q 2188 391 2477 730 
Q 2766 1069 2766 1631 
L 2766 1759 
L 2194 1759 
z
M 3341 1997 
L 3341 0 
L 2766 0 
L 2766 531 
Q 2569 213 2275 61 
Q 1981 -91 1556 -91 
Q 1019 -91 701 211 
Q 384 513 384 1019 
Q 384 1609 779 1909 
Q 1175 2209 1959 2209 
L 2766 2209 
L 2766 2266 
Q 2766 2663 2505 2880 
Q 2244 3097 1772 3097 
Q 1472 3097 1187 3025 
Q 903 2953 641 2809 
L 641 3341 
Q 956 3463 1253 3523 
Q 1550 3584 1831 3584 
Q 2591 3584 2966 3190 
Q 3341 2797 3341 1997 
z
" transform="scale(0.015625)"/>
       <path id="DejaVuSans-62" d="M 3116 1747 
Q 3116 2381 2855 2742 
Q 2594 3103 2138 3103 
Q 1681 3103 1420 2742 
Q 1159 2381 1159 1747 
Q 1159 1113 1420 752 
Q 1681 391 2138 391 
Q 2594 391 2855 752 
Q 3116 1113 3116 1747 
z
M 1159 2969 
Q 1341 3281 1617 3432 
Q 1894 3584 2278 3584 
Q 2916 3584 3314 3078 
Q 3713 2572 3713 1747 
Q 3713 922 3314 415 
Q 2916 -91 2278 -91 
Q 1894 -91 1617 61 
Q 1341 213 1159 525 
L 1159 0 
L 581 0 
L 581 4863 
L 1159 4863 
L 1159 2969 
z
" transform="scale(0.015625)"/>
      </defs>
      <use xlink:href="#DejaVuSans-50"/>
      <use xlink:href="#DejaVuSans-72" x="58.552734"/>
      <use xlink:href="#DejaVuSans-65" x="97.416016"/>
      <use xlink:href="#DejaVuSans-64" x="158.939453"/>
      <use xlink:href="#DejaVuSans-69" x="222.416016"/>
      <use xlink:href="#DejaVuSans-63" x="250.199219"/>
      <use xlink:href="#DejaVuSans-74" x="305.179688"/>
      <use xlink:href="#DejaVuSans-65" x="344.388672"/>
      <use xlink:href="#DejaVuSans-64" x="405.912109"/>
      <use xlink:href="#DejaVuSans-20" x="469.388672"/>
      <use xlink:href="#DejaVuSans-6c" x="501.175781"/>
      <use xlink:href="#DejaVuSans-61" x="528.958984"/>
      <use xlink:href="#DejaVuSans-62" x="590.238281"/>
      <use xlink:href="#DejaVuSans-65" x="653.714844"/>
      <use xlink:href="#DejaVuSans-6c" x="715.238281"/>
     </g>
    </g>
   </g>
   <g id="line2d_12">
    <path d="M 365.116905 678.84375 
L 365.116905 11.122847 
" clip-path="url(#p04b27bad2e)" style="fill: none; stroke: #ff0000; stroke-width: 1.5; stroke-linecap: square"/>
   </g>
   <g id="patch_3">
    <path d="M 27.978125 678.84375 
L 27.978125 11.122847 
" style="fill: none; stroke: #000000; stroke-width: 0.8; stroke-linejoin: miter; stroke-linecap: square"/>
   </g>
   <g id="patch_4">
    <path d="M 701.248437 678.84375 
L 701.248437 11.122847 
" style="fill: none; stroke: #000000; stroke-width: 0.8; stroke-linejoin: miter; stroke-linecap: square"/>
   </g>
   <g id="patch_5">
    <path d="M 27.978125 678.84375 
L 701.248437 678.84375 
" style="fill: none; stroke: #000000; stroke-width: 0.8; stroke-linejoin: miter; stroke-linecap: square"/>
   </g>
   <g id="patch_6">
    <path d="M 27.978125 11.122847 
L 701.248437 11.122847 
" style="fill: none; stroke: #000000; stroke-width: 0.8; stroke-linejoin: miter; stroke-linecap: square"/>
   </g>
   <g id="text_14">
    <!-- 0 -->
    <g transform="translate(347.781523 615.313874) scale(0.1 -0.1)">
     <use xlink:href="#DejaVuSans-30"/>
    </g>
   </g>
   <g id="text_15">
    <!-- 1 -->
    <g transform="translate(347.781523 513.666073) scale(0.1 -0.1)">
     <use xlink:href="#DejaVuSans-31"/>
    </g>
   </g>
   <g id="text_16">
    <!-- 2 -->
    <g transform="translate(347.781523 443.56414) scale(0.1 -0.1)">
     <use xlink:href="#DejaVuSans-32"/>
    </g>
   </g>
   <g id="text_17">
    <!-- 3 -->
    <g transform="translate(347.781523 367.328289) scale(0.1 -0.1)">
     <defs>
      <path id="DejaVuSans-33" d="M 2597 2516 
Q 3050 2419 3304 2112 
Q 3559 1806 3559 1356 
Q 3559 666 3084 287 
Q 2609 -91 1734 -91 
Q 1441 -91 1130 -33 
Q 819 25 488 141 
L 488 750 
Q 750 597 1062 519 
Q 1375 441 1716 441 
Q 2309 441 2620 675 
Q 2931 909 2931 1356 
Q 2931 1769 2642 2001 
Q 2353 2234 1838 2234 
L 1294 2234 
L 1294 2753 
L 1863 2753 
Q 2328 2753 2575 2939 
Q 2822 3125 2822 3475 
Q 2822 3834 2567 4026 
Q 2313 4219 1838 4219 
Q 1578 4219 1281 4162 
Q 984 4106 628 3988 
L 628 4550 
Q 988 4650 1302 4700 
Q 1616 4750 1894 4750 
Q 2613 4750 3031 4423 
Q 3450 4097 3450 3541 
Q 3450 3153 3228 2886 
Q 3006 2619 2597 2516 
z
" transform="scale(0.015625)"/>
     </defs>
     <use xlink:href="#DejaVuSans-33"/>
    </g>
   </g>
   <g id="text_18">
    <!-- 4 -->
    <g transform="translate(347.781523 287.587342) scale(0.1 -0.1)">
     <use xlink:href="#DejaVuSans-34"/>
    </g>
   </g>
   <g id="text_19">
    <!-- 5 -->
    <g transform="translate(347.781523 164.032686) scale(0.1 -0.1)">
     <defs>
      <path id="DejaVuSans-35" d="M 691 4666 
L 3169 4666 
L 3169 4134 
L 1269 4134 
L 1269 2991 
Q 1406 3038 1543 3061 
Q 1681 3084 1819 3084 
Q 2600 3084 3056 2656 
Q 3513 2228 3513 1497 
Q 3513 744 3044 326 
Q 2575 -91 1722 -91 
Q 1428 -91 1123 -41 
Q 819 9 494 109 
L 494 744 
Q 775 591 1075 516 
Q 1375 441 1709 441 
Q 2250 441 2565 725 
Q 2881 1009 2881 1497 
Q 2881 1984 2565 2268 
Q 2250 2553 1709 2553 
Q 1456 2553 1204 2497 
Q 953 2441 691 2322 
L 691 4666 
z
" transform="scale(0.015625)"/>
     </defs>
     <use xlink:href="#DejaVuSans-35"/>
    </g>
   </g>
   <g id="text_20">
    <!-- 6 -->
    <g transform="translate(347.781523 51.431458) scale(0.1 -0.1)">
     <use xlink:href="#DejaVuSans-36"/>
    </g>
   </g>
   <g id="text_21">
    <!-- 7 -->
    <g transform="translate(347.781523 23.390685) scale(0.1 -0.1)">
     <defs>
      <path id="DejaVuSans-37" d="M 525 4666 
L 3525 4666 
L 3525 4397 
L 1831 0 
L 1172 0 
L 2766 4134 
L 525 4134 
L 525 4666 
z
" transform="scale(0.015625)"/>
     </defs>
     <use xlink:href="#DejaVuSans-37"/>
    </g>
   </g>
   <g id="text_22">
    <!-- 0.0015 -->
    <g style="fill: #ff0000" transform="translate(381.948663 19.885588) scale(0.1 -0.1)">
     <use xlink:href="#DejaVuSans-30"/>
     <use xlink:href="#DejaVuSans-2e" x="63.623047"/>
     <use xlink:href="#DejaVuSans-30" x="95.410156"/>
     <use xlink:href="#DejaVuSans-30" x="159.033203"/>
     <use xlink:href="#DejaVuSans-31" x="222.65625"/>
     <use xlink:href="#DejaVuSans-35" x="286.279297"/>
    </g>
   </g>
  </g>
 </g>
 <defs>
  <clipPath id="p04b27bad2e">
   <rect x="27.978125" y="11.122847" width="673.270312" height="667.720903"/>
  </clipPath>
 </defs>
</svg>
