<?xml version="1.0" encoding="utf-8" standalone="no"?>
<!DOCTYPE svg PUBLIC "-//W3C//DTD SVG 1.1//EN"
  "http://www.w3.org/Graphics/SVG/1.1/DTD/svg11.dtd">
<svg xmlns:xlink="http://www.w3.org/1999/xlink" width="720pt" height="720pt" viewBox="0 0 720 720" xmlns="http://www.w3.org/2000/svg" version="1.1">
 <metadata>
  <rdf:RDF xmlns:dc="http://purl.org/dc/elements/1.1/" xmlns:cc="http://creativecommons.org/ns#" xmlns:rdf="http://www.w3.org/1999/02/22-rdf-syntax-ns#">
   <cc:Work>
    <dc:type rdf:resource="http://purl.org/dc/dcmitype/StillImage"/>
    <dc:date>2022-11-17T19:06:50.354300</dc:date>
    <dc:format>image/svg+xml</dc:format>
    <dc:creator>
     <cc:Agent>
      <dc:title>Matplotlib v3.6.1, https://matplotlib.org/</dc:title>
     </cc:Agent>
    </dc:creator>
   </cc:Work>
  </rdf:RDF>
 </metadata>
 <defs>
  <style type="text/css">*{stroke-linejoin: round; stroke-linecap: butt}</style>
 </defs>
 <g id="figure_1">
  <g id="patch_1">
   <path d="M 0 720 
L 720 720 
L 720 0 
L 0 0 
z
" style="fill: #ffffff"/>
  </g>
  <g id="axes_1">
   <g id="patch_2">
    <path d="M 27.978125 678.84375 
L 701.248437 678.84375 
L 701.248437 11.814114 
L 27.978125 11.814114 
z
" style="fill: #ffffff"/>
   </g>
   <g id="PolyCollection_1">
    <defs>
     <path id="mf86d739bfe" d="M 369.864051 -49.078217 
L 364.613281 -49.078217 
L 364.613281 -49.870414 
L 364.613281 -50.662611 
L 364.613281 -51.454807 
L 364.613281 -52.247004 
L 364.613281 -53.039201 
L 364.613281 -53.831397 
L 364.613281 -54.623594 
L 364.613281 -55.415791 
L 364.613281 -56.207988 
L 364.613281 -57.000184 
L 364.613281 -57.792381 
L 364.613281 -58.584578 
L 364.613281 -59.376774 
L 364.613281 -60.168971 
L 364.613281 -60.961168 
L 364.613281 -61.753365 
L 364.613281 -62.545561 
L 364.613281 -63.337758 
L 364.613281 -64.129955 
L 364.613281 -64.922152 
L 364.613281 -65.714348 
L 364.613281 -66.506545 
L 364.613281 -67.298742 
L 364.613281 -68.090938 
L 364.613281 -68.883135 
L 364.613281 -69.675332 
L 364.613281 -70.467529 
L 364.613281 -71.259725 
L 364.613281 -72.051922 
L 364.613281 -72.844119 
L 364.613281 -73.636315 
L 364.613281 -74.428512 
L 364.613281 -75.220709 
L 364.613281 -76.012906 
L 364.613281 -76.805102 
L 364.613281 -77.597299 
L 364.613281 -78.389496 
L 364.613281 -79.181692 
L 364.613281 -79.973889 
L 364.613281 -80.766086 
L 364.613281 -81.558283 
L 364.613281 -82.350479 
L 364.613281 -83.142676 
L 364.613281 -83.934873 
L 364.613281 -84.727069 
L 364.613281 -85.519266 
L 364.613281 -86.311463 
L 364.613281 -87.10366 
L 364.613281 -87.895856 
L 364.613281 -88.688053 
L 364.613281 -89.48025 
L 364.613281 -90.272446 
L 364.613281 -91.064643 
L 364.613281 -91.85684 
L 364.613281 -92.649037 
L 364.613281 -93.441233 
L 364.613281 -94.23343 
L 364.613281 -95.025627 
L 364.613281 -95.817823 
L 364.613281 -96.61002 
L 364.613281 -97.402217 
L 364.613281 -98.194414 
L 364.613281 -98.98661 
L 364.613281 -99.778807 
L 364.613281 -100.571004 
L 364.613281 -101.3632 
L 364.613281 -102.155397 
L 364.613281 -102.947594 
L 364.613281 -103.739791 
L 364.613281 -104.531987 
L 364.613281 -105.324184 
L 364.613281 -106.116381 
L 364.613281 -106.908577 
L 364.613281 -107.700774 
L 364.613281 -108.492971 
L 364.613281 -109.285168 
L 364.613281 -110.077364 
L 364.613281 -110.869561 
L 364.613281 -111.661758 
L 364.613281 -112.453955 
L 364.613281 -113.246151 
L 364.613281 -114.038348 
L 364.613281 -114.830545 
L 364.613281 -115.622741 
L 364.613281 -116.414938 
L 364.613281 -117.207135 
L 493.801012 -117.207135 
L 493.801012 -117.207135 
L 492.320327 -116.414938 
L 490.753164 -115.622741 
L 490.374094 -114.830545 
L 488.785709 -114.038348 
L 488.571977 -113.246151 
L 488.088116 -112.453955 
L 487.803896 -111.661758 
L 487.587722 -110.869561 
L 487.366882 -110.077364 
L 487.360751 -109.285168 
L 487.186184 -108.492971 
L 486.700362 -107.700774 
L 486.375205 -106.908577 
L 486.316841 -106.116381 
L 485.583924 -105.324184 
L 485.333418 -104.531987 
L 484.373276 -103.739791 
L 484.322076 -102.947594 
L 483.83189 -102.155397 
L 483.758809 -101.3632 
L 483.605583 -100.571004 
L 483.086967 -99.778807 
L 482.855907 -98.98661 
L 482.350028 -98.194414 
L 482.324297 -97.402217 
L 481.024023 -96.61002 
L 480.636446 -95.817823 
L 480.590215 -95.025627 
L 479.813083 -94.23343 
L 479.804236 -93.441233 
L 478.112577 -92.649037 
L 477.9416 -91.85684 
L 477.539164 -91.064643 
L 477.037418 -90.272446 
L 476.686683 -89.48025 
L 476.267709 -88.688053 
L 475.968773 -87.895856 
L 475.785222 -87.10366 
L 475.543967 -86.311463 
L 475.499005 -85.519266 
L 474.993101 -84.727069 
L 474.634714 -83.934873 
L 473.353971 -83.142676 
L 473.145312 -82.350479 
L 473.064549 -81.558283 
L 472.817249 -80.766086 
L 472.252024 -79.973889 
L 472.248227 -79.181692 
L 472.238586 -78.389496 
L 471.583237 -77.597299 
L 471.374976 -76.805102 
L 471.287983 -76.012906 
L 470.70535 -75.220709 
L 469.394198 -74.428512 
L 469.392106 -73.636315 
L 469.10698 -72.844119 
L 467.289834 -72.051922 
L 465.27746 -71.259725 
L 464.675829 -70.467529 
L 464.122652 -69.675332 
L 463.009721 -68.883135 
L 461.856253 -68.090938 
L 461.124976 -67.298742 
L 461.083121 -66.506545 
L 460.212366 -65.714348 
L 460.061663 -64.922152 
L 459.711836 -64.129955 
L 459.229834 -63.337758 
L 458.557308 -62.545561 
L 457.641317 -61.753365 
L 457.368715 -60.961168 
L 457.197699 -60.168971 
L 454.635722 -59.376774 
L 453.019273 -58.584578 
L 452.666462 -57.792381 
L 446.432024 -57.000184 
L 441.108727 -56.207988 
L 437.602965 -55.415791 
L 426.61932 -54.623594 
L 425.78597 -53.831397 
L 425.779788 -53.039201 
L 420.093156 -52.247004 
L 414.493742 -51.454807 
L 413.074336 -50.662611 
L 399.715415 -49.870414 
L 369.864051 -49.078217 
z
" style="stroke: #000000; stroke-opacity: 0.7"/>
    </defs>
    <g clip-path="url(#p202120373c)">
     <use xlink:href="#mf86d739bfe" x="0" y="720" style="fill-opacity: 0.7; stroke: #000000; stroke-opacity: 0.7"/>
    </g>
   </g>
   <g id="PolyCollection_2">
    <defs>
     <path id="m8d370789b7" d="M 341.167102 -125.921299 
L 364.613281 -125.921299 
L 364.613281 -126.713495 
L 364.613281 -127.505692 
L 364.613281 -128.297889 
L 364.613281 -129.090086 
L 364.613281 -129.882282 
L 364.613281 -130.674479 
L 364.613281 -131.466676 
L 364.613281 -132.258872 
L 364.613281 -133.051069 
L 364.613281 -133.843266 
L 364.613281 -134.635463 
L 364.613281 -135.427659 
L 364.613281 -136.219856 
L 364.613281 -137.012053 
L 364.613281 -137.804249 
L 364.613281 -138.596446 
L 364.613281 -139.388643 
L 364.613281 -140.18084 
L 364.613281 -140.973036 
L 364.613281 -141.765233 
L 364.613281 -142.55743 
L 364.613281 -143.349626 
L 364.613281 -144.141823 
L 364.613281 -144.93402 
L 364.613281 -145.726217 
L 364.613281 -146.518413 
L 364.613281 -147.31061 
L 364.613281 -148.102807 
L 364.613281 -148.895003 
L 364.613281 -149.6872 
L 364.613281 -150.479397 
L 364.613281 -151.271594 
L 364.613281 -152.06379 
L 364.613281 -152.855987 
L 364.613281 -153.648184 
L 364.613281 -154.440381 
L 364.613281 -155.232577 
L 364.613281 -156.024774 
L 364.613281 -156.816971 
L 364.613281 -157.609167 
L 364.613281 -158.401364 
L 364.613281 -159.193561 
L 364.613281 -159.985758 
L 364.613281 -160.777954 
L 364.613281 -161.570151 
L 364.613281 -162.362348 
L 364.613281 -163.154544 
L 364.613281 -163.946741 
L 364.613281 -164.738938 
L 364.613281 -165.531135 
L 364.613281 -166.323331 
L 364.613281 -167.115528 
L 364.613281 -167.907725 
L 364.613281 -168.699921 
L 364.613281 -169.492118 
L 364.613281 -170.284315 
L 364.613281 -171.076512 
L 364.613281 -171.868708 
L 364.613281 -172.660905 
L 364.613281 -173.453102 
L 364.613281 -174.245298 
L 364.613281 -175.037495 
L 364.613281 -175.829692 
L 364.613281 -176.621889 
L 364.613281 -177.414085 
L 364.613281 -178.206282 
L 364.613281 -178.998479 
L 364.613281 -179.790675 
L 364.613281 -180.582872 
L 364.613281 -181.375069 
L 364.613281 -182.167266 
L 364.613281 -182.959462 
L 364.613281 -183.751659 
L 364.613281 -184.543856 
L 364.613281 -185.336052 
L 364.613281 -186.128249 
L 364.613281 -186.920446 
L 364.613281 -187.712643 
L 364.613281 -188.504839 
L 364.613281 -189.297036 
L 364.613281 -190.089233 
L 364.613281 -190.881429 
L 364.613281 -191.673626 
L 364.613281 -192.465823 
L 364.613281 -193.25802 
L 364.613281 -194.050216 
L 364.613281 -194.842413 
L 364.613281 -195.63461 
L 364.613281 -196.426806 
L 364.613281 -197.219003 
L 364.613281 -198.0112 
L 364.613281 -198.803397 
L 364.613281 -199.595593 
L 364.613281 -200.38779 
L 364.613281 -201.179987 
L 364.613281 -201.972184 
L 364.613281 -202.76438 
L 364.613281 -203.556577 
L 364.613281 -204.348774 
L 364.613281 -205.14097 
L 492.454554 -205.14097 
L 492.454554 -205.14097 
L 486.62646 -204.348774 
L 486.237358 -203.556577 
L 483.518912 -202.76438 
L 481.460814 -201.972184 
L 481.0005 -201.179987 
L 480.375123 -200.38779 
L 479.631575 -199.595593 
L 479.178562 -198.803397 
L 477.783695 -198.0112 
L 476.867657 -197.219003 
L 476.700611 -196.426806 
L 476.082311 -195.63461 
L 475.097527 -194.842413 
L 474.807054 -194.050216 
L 473.93668 -193.25802 
L 473.409219 -192.465823 
L 472.797136 -191.673626 
L 472.217435 -190.881429 
L 470.428223 -190.089233 
L 470.249174 -189.297036 
L 469.620686 -188.504839 
L 469.2604 -187.712643 
L 468.95002 -186.920446 
L 467.775439 -186.128249 
L 466.177557 -185.336052 
L 465.560488 -184.543856 
L 465.439802 -183.751659 
L 464.42752 -182.959462 
L 464.181917 -182.167266 
L 463.490982 -181.375069 
L 462.615648 -180.582872 
L 462.116632 -179.790675 
L 461.845362 -178.998479 
L 460.961465 -178.206282 
L 460.664148 -177.414085 
L 460.36854 -176.621889 
L 459.693598 -175.829692 
L 458.906322 -175.037495 
L 457.216875 -174.245298 
L 456.650532 -173.453102 
L 456.242411 -172.660905 
L 456.002813 -171.868708 
L 455.468133 -171.076512 
L 454.88205 -170.284315 
L 452.602256 -169.492118 
L 452.375469 -168.699921 
L 451.886411 -167.907725 
L 451.090105 -167.115528 
L 449.915203 -166.323331 
L 449.690499 -165.531135 
L 448.681673 -164.738938 
L 447.532995 -163.946741 
L 446.464428 -163.154544 
L 443.405528 -162.362348 
L 442.52568 -161.570151 
L 439.037751 -160.777954 
L 438.225777 -159.985758 
L 437.687986 -159.193561 
L 436.517423 -158.401364 
L 436.028599 -157.609167 
L 435.929325 -156.816971 
L 434.150217 -156.024774 
L 426.631648 -155.232577 
L 426.427038 -154.440381 
L 426.21577 -153.648184 
L 423.85651 -152.855987 
L 422.321547 -152.06379 
L 421.31464 -151.271594 
L 420.462674 -150.479397 
L 420.124169 -149.6872 
L 413.904546 -148.895003 
L 412.768854 -148.102807 
L 411.08632 -147.31061 
L 410.756638 -146.518413 
L 408.507967 -145.726217 
L 407.961217 -144.93402 
L 404.623034 -144.141823 
L 404.522102 -143.349626 
L 404.513036 -142.55743 
L 404.300707 -141.765233 
L 402.155214 -140.973036 
L 401.41693 -140.18084 
L 399.805523 -139.388643 
L 398.370243 -138.596446 
L 396.849221 -137.804249 
L 388.488128 -137.012053 
L 387.565469 -136.219856 
L 385.977471 -135.427659 
L 385.867834 -134.635463 
L 385.243463 -133.843266 
L 382.288133 -133.051069 
L 380.86594 -132.258872 
L 379.097105 -131.466676 
L 376.186135 -130.674479 
L 372.390937 -129.882282 
L 366.51955 -129.090086 
L 360.892318 -128.297889 
L 354.702375 -127.505692 
L 343.370229 -126.713495 
L 341.167102 -125.921299 
z
" style="stroke: #7b008c; stroke-opacity: 0.7"/>
    </defs>
    <g clip-path="url(#p202120373c)">
     <use xlink:href="#m8d370789b7" x="0" y="720" style="fill: #7b008c; fill-opacity: 0.7; stroke: #7b008c; stroke-opacity: 0.7"/>
    </g>
   </g>
   <g id="PolyCollection_3">
    <defs>
     <path id="ma899f1777b" d="M 365.66194 -213.855134 
L 364.613281 -213.855134 
L 364.613281 -214.647331 
L 364.613281 -215.439528 
L 400.287203 -215.439528 
L 400.287203 -215.439528 
L 398.538896 -214.647331 
L 365.66194 -213.855134 
z
" style="stroke: #4300a2; stroke-opacity: 0.7"/>
    </defs>
    <g clip-path="url(#p202120373c)">
     <use xlink:href="#ma899f1777b" x="0" y="720" style="fill: #4300a2; fill-opacity: 0.7; stroke: #4300a2; stroke-opacity: 0.7"/>
    </g>
   </g>
   <g id="PolyCollection_4">
    <defs>
     <path id="m6e3b703d1a" d="M 412.032404 -224.153692 
L 364.613281 -224.153692 
L 364.613281 -224.945888 
L 364.613281 -225.738085 
L 364.613281 -226.530282 
L 364.613281 -227.322478 
L 364.613281 -228.114675 
L 364.613281 -228.906872 
L 364.613281 -229.699069 
L 364.613281 -230.491265 
L 364.613281 -231.283462 
L 364.613281 -232.075659 
L 364.613281 -232.867855 
L 364.613281 -233.660052 
L 364.613281 -234.452249 
L 450.316673 -234.452249 
L 450.316673 -234.452249 
L 447.380032 -233.660052 
L 446.888773 -232.867855 
L 446.708331 -232.075659 
L 446.589998 -231.283462 
L 445.102475 -230.491265 
L 444.475681 -229.699069 
L 439.485775 -228.906872 
L 439.485775 -228.114675 
L 436.24551 -227.322478 
L 434.298728 -226.530282 
L 428.067167 -225.738085 
L 424.85225 -224.945888 
L 412.032404 -224.153692 
z
" style="stroke: #0000d1; stroke-opacity: 0.7"/>
    </defs>
    <g clip-path="url(#p202120373c)">
     <use xlink:href="#m6e3b703d1a" x="0" y="720" style="fill: #0000d1; fill-opacity: 0.7; stroke: #0000d1; stroke-opacity: 0.7"/>
    </g>
   </g>
   <g id="PolyCollection_5">
    <defs>
     <path id="m589f950a03" d="M 407.318176 -243.166413 
L 364.613281 -243.166413 
L 364.613281 -243.958609 
L 364.613281 -244.750806 
L 364.613281 -245.543003 
L 364.613281 -246.3352 
L 364.613281 -247.127396 
L 364.613281 -247.919593 
L 364.613281 -248.71179 
L 364.613281 -249.503987 
L 364.613281 -250.296183 
L 364.613281 -251.08838 
L 364.613281 -251.880577 
L 364.613281 -252.672773 
L 364.613281 -253.46497 
L 364.613281 -254.257167 
L 364.613281 -255.049364 
L 364.613281 -255.84156 
L 364.613281 -256.633757 
L 364.613281 -257.425954 
L 364.613281 -258.21815 
L 364.613281 -259.010347 
L 364.613281 -259.802544 
L 364.613281 -260.594741 
L 364.613281 -261.386937 
L 364.613281 -262.179134 
L 364.613281 -262.971331 
L 364.613281 -263.763527 
L 364.613281 -264.555724 
L 364.613281 -265.347921 
L 364.613281 -266.140118 
L 364.613281 -266.932314 
L 364.613281 -267.724511 
L 364.613281 -268.516708 
L 364.613281 -269.308904 
L 364.613281 -270.101101 
L 364.613281 -270.893298 
L 364.613281 -271.685495 
L 364.613281 -272.477691 
L 364.613281 -273.269888 
L 364.613281 -274.062085 
L 364.613281 -274.854281 
L 364.613281 -275.646478 
L 364.613281 -276.438675 
L 364.613281 -277.230872 
L 364.613281 -278.023068 
L 364.613281 -278.815265 
L 542.289032 -278.815265 
L 542.289032 -278.815265 
L 542.283338 -278.023068 
L 538.186453 -277.230872 
L 537.649836 -276.438675 
L 533.592601 -275.646478 
L 529.898574 -274.854281 
L 528.698951 -274.062085 
L 527.726767 -273.269888 
L 527.394311 -272.477691 
L 524.786293 -271.685495 
L 524.35792 -270.893298 
L 520.781374 -270.101101 
L 517.500712 -269.308904 
L 516.286147 -268.516708 
L 516.286147 -267.724511 
L 515.623839 -266.932314 
L 515.036357 -266.140118 
L 513.404043 -265.347921 
L 511.273809 -264.555724 
L 510.65442 -263.763527 
L 506.679417 -262.971331 
L 505.779604 -262.179134 
L 505.209856 -261.386937 
L 502.95693 -260.594741 
L 502.479689 -259.802544 
L 502.239282 -259.010347 
L 500.62909 -258.21815 
L 496.461986 -257.425954 
L 495.618361 -256.633757 
L 495.557188 -255.84156 
L 494.90477 -255.049364 
L 492.531644 -254.257167 
L 490.777325 -253.46497 
L 489.660704 -252.672773 
L 484.056956 -251.880577 
L 478.395988 -251.08838 
L 475.899543 -250.296183 
L 474.903711 -249.503987 
L 474.743017 -248.71179 
L 468.527071 -247.919593 
L 465.411625 -247.127396 
L 461.393309 -246.3352 
L 456.655431 -245.543003 
L 429.286083 -244.750806 
L 407.720103 -243.958609 
L 407.318176 -243.166413 
z
" style="stroke: #0078dd; stroke-opacity: 0.7"/>
    </defs>
    <g clip-path="url(#p202120373c)">
     <use xlink:href="#m589f950a03" x="0" y="720" style="fill: #0078dd; fill-opacity: 0.7; stroke: #0078dd; stroke-opacity: 0.7"/>
    </g>
   </g>
   <g id="PolyCollection_6">
    <defs>
     <path id="m3a87e2c3c7" d="M 390.221588 -287.529429 
L 364.613281 -287.529429 
L 364.613281 -288.321626 
L 364.613281 -289.113822 
L 364.613281 -289.906019 
L 364.613281 -290.698216 
L 364.613281 -291.490413 
L 364.613281 -292.282609 
L 364.613281 -293.074806 
L 364.613281 -293.867003 
L 496.649398 -293.867003 
L 496.649398 -293.867003 
L 489.7168 -293.074806 
L 484.057306 -292.282609 
L 474.556649 -291.490413 
L 448.857673 -290.698216 
L 428.808044 -289.906019 
L 424.295704 -289.113822 
L 420.378018 -288.321626 
L 390.221588 -287.529429 
z
" style="stroke: #009ecf; stroke-opacity: 0.7"/>
    </defs>
    <g clip-path="url(#p202120373c)">
     <use xlink:href="#m3a87e2c3c7" x="0" y="720" style="fill: #009ecf; fill-opacity: 0.7; stroke: #009ecf; stroke-opacity: 0.7"/>
    </g>
   </g>
   <g id="PolyCollection_7">
    <defs>
     <path id="mda9655f2ad" d="M 363.515383 -302.581167 
L 364.613281 -302.581167 
L 364.613281 -303.373363 
L 364.613281 -304.16556 
L 364.613281 -304.957757 
L 364.613281 -305.749953 
L 364.613281 -306.54215 
L 364.613281 -307.334347 
L 364.613281 -308.126544 
L 364.613281 -308.91874 
L 364.613281 -309.710937 
L 364.613281 -310.503134 
L 364.613281 -311.29533 
L 364.613281 -312.087527 
L 364.613281 -312.879724 
L 364.613281 -313.671921 
L 364.613281 -314.464117 
L 364.613281 -315.256314 
L 364.613281 -316.048511 
L 364.613281 -316.840707 
L 364.613281 -317.632904 
L 364.613281 -318.425101 
L 364.613281 -319.217298 
L 364.613281 -320.009494 
L 364.613281 -320.801691 
L 364.613281 -321.593888 
L 364.613281 -322.386084 
L 364.613281 -323.178281 
L 364.613281 -323.970478 
L 364.613281 -324.762675 
L 364.613281 -325.554871 
L 364.613281 -326.347068 
L 364.613281 -327.139265 
L 364.613281 -327.931461 
L 364.613281 -328.723658 
L 364.613281 -329.515855 
L 364.613281 -330.308052 
L 364.613281 -331.100248 
L 364.613281 -331.892445 
L 364.613281 -332.684642 
L 364.613281 -333.476838 
L 364.613281 -334.269035 
L 364.613281 -335.061232 
L 364.613281 -335.853429 
L 364.613281 -336.645625 
L 364.613281 -337.437822 
L 364.613281 -338.230019 
L 364.613281 -339.022216 
L 364.613281 -339.814412 
L 364.613281 -340.606609 
L 364.613281 -341.398806 
L 364.613281 -342.191002 
L 364.613281 -342.983199 
L 364.613281 -343.775396 
L 364.613281 -344.567593 
L 364.613281 -345.359789 
L 364.613281 -346.151986 
L 364.613281 -346.944183 
L 364.613281 -347.736379 
L 364.613281 -348.528576 
L 364.613281 -349.320773 
L 364.613281 -350.11297 
L 364.613281 -350.905166 
L 364.613281 -351.697363 
L 364.613281 -352.48956 
L 364.613281 -353.281756 
L 364.613281 -354.073953 
L 486.994153 -354.073953 
L 486.994153 -354.073953 
L 485.958729 -353.281756 
L 481.870014 -352.48956 
L 480.538089 -351.697363 
L 478.384822 -350.905166 
L 478.335398 -350.11297 
L 476.419513 -349.320773 
L 473.021988 -348.528576 
L 472.8859 -347.736379 
L 469.698554 -346.944183 
L 468.517438 -346.151986 
L 467.434655 -345.359789 
L 465.566207 -344.567593 
L 465.110271 -343.775396 
L 465.110271 -342.983199 
L 464.995506 -342.191002 
L 464.253725 -341.398806 
L 463.999184 -340.606609 
L 462.786471 -339.814412 
L 461.971733 -339.022216 
L 461.51692 -338.230019 
L 461.415066 -337.437822 
L 461.127898 -336.645625 
L 461.093537 -335.853429 
L 459.640875 -335.061232 
L 459.044615 -334.269035 
L 459.01712 -333.476838 
L 458.412872 -332.684642 
L 457.661455 -331.892445 
L 456.83401 -331.100248 
L 456.53926 -330.308052 
L 454.802726 -329.515855 
L 454.250941 -328.723658 
L 450.751855 -327.931461 
L 448.928954 -327.139265 
L 448.894928 -326.347068 
L 447.670353 -325.554871 
L 444.062832 -324.762675 
L 442.153691 -323.970478 
L 439.608639 -323.178281 
L 439.281668 -322.386084 
L 437.932249 -321.593888 
L 436.183109 -320.801691 
L 436.159805 -320.009494 
L 434.601298 -319.217298 
L 434.574819 -318.425101 
L 434.499175 -317.632904 
L 433.143662 -316.840707 
L 432.415637 -316.048511 
L 431.896167 -315.256314 
L 431.887307 -314.464117 
L 429.443711 -313.671921 
L 427.150596 -312.879724 
L 426.587692 -312.087527 
L 423.177607 -311.29533 
L 420.900036 -310.503134 
L 418.758255 -309.710937 
L 413.197793 -308.91874 
L 407.974857 -308.126544 
L 406.113026 -307.334347 
L 403.284252 -306.54215 
L 389.874107 -305.749953 
L 386.469434 -304.957757 
L 369.234391 -304.16556 
L 369.022403 -303.373363 
L 363.515383 -302.581167 
z
" style="stroke: #00aa98; stroke-opacity: 0.7"/>
    </defs>
    <g clip-path="url(#p202120373c)">
     <use xlink:href="#mda9655f2ad" x="0" y="720" style="fill: #00aa98; fill-opacity: 0.7; stroke: #00aa98; stroke-opacity: 0.7"/>
    </g>
   </g>
   <g id="PolyCollection_8">
    <defs>
     <path id="m700447b672" d="M 491.956977 -362.788117 
L 364.613281 -362.788117 
L 364.613281 -363.580314 
L 364.613281 -364.37251 
L 364.613281 -365.164707 
L 364.613281 -365.956904 
L 364.613281 -366.749101 
L 364.613281 -367.541297 
L 364.613281 -368.333494 
L 550.704291 -368.333494 
L 550.704291 -368.333494 
L 541.941252 -367.541297 
L 537.745775 -366.749101 
L 531.185566 -365.956904 
L 528.277387 -365.164707 
L 521.365385 -364.37251 
L 500.117525 -363.580314 
L 491.956977 -362.788117 
z
" style="stroke: #009d1d; stroke-opacity: 0.7"/>
    </defs>
    <g clip-path="url(#p202120373c)">
     <use xlink:href="#m700447b672" x="0" y="720" style="fill: #009d1d; fill-opacity: 0.7; stroke: #009d1d; stroke-opacity: 0.7"/>
    </g>
   </g>
   <g id="PolyCollection_9">
    <defs>
     <path id="m473bbe5c7a" d="M 371.990112 -377.047658 
L 364.613281 -377.047658 
L 364.613281 -377.839855 
L 364.613281 -378.632051 
L 364.613281 -379.424248 
L 364.613281 -380.216445 
L 364.613281 -381.008642 
L 364.613281 -381.800838 
L 364.613281 -382.593035 
L 364.613281 -383.385232 
L 364.613281 -384.177428 
L 364.613281 -384.969625 
L 364.613281 -385.761822 
L 364.613281 -386.554019 
L 364.613281 -387.346215 
L 364.613281 -388.138412 
L 364.613281 -388.930609 
L 364.613281 -389.722805 
L 364.613281 -390.515002 
L 364.613281 -391.307199 
L 364.613281 -392.099396 
L 466.510561 -392.099396 
L 466.510561 -392.099396 
L 464.246756 -391.307199 
L 463.113711 -390.515002 
L 461.129492 -389.722805 
L 459.109287 -388.930609 
L 457.517285 -388.138412 
L 447.489231 -387.346215 
L 444.43608 -386.554019 
L 441.198839 -385.761822 
L 435.993156 -384.969625 
L 427.073393 -384.177428 
L 426.557032 -383.385232 
L 424.867217 -382.593035 
L 419.69454 -381.800838 
L 419.5647 -381.008642 
L 419.561358 -380.216445 
L 418.830234 -379.424248 
L 411.632464 -378.632051 
L 406.029069 -377.839855 
L 371.990112 -377.047658 
z
" style="stroke: #00bc00; stroke-opacity: 0.7"/>
    </defs>
    <g clip-path="url(#p202120373c)">
     <use xlink:href="#m473bbe5c7a" x="0" y="720" style="fill: #00bc00; fill-opacity: 0.7; stroke: #00bc00; stroke-opacity: 0.7"/>
    </g>
   </g>
   <g id="PolyCollection_10">
    <defs>
     <path id="mba2db24e28" d="M 350.996558 -400.813559 
L 364.613281 -400.813559 
L 364.613281 -401.605756 
L 364.613281 -402.397953 
L 364.613281 -403.19015 
L 364.613281 -403.982346 
L 364.613281 -404.774543 
L 364.613281 -405.56674 
L 364.613281 -406.358936 
L 364.613281 -407.151133 
L 364.613281 -407.94333 
L 364.613281 -408.735527 
L 364.613281 -409.527723 
L 364.613281 -410.31992 
L 364.613281 -411.112117 
L 364.613281 -411.904313 
L 364.613281 -412.69651 
L 364.613281 -413.488707 
L 364.613281 -414.280904 
L 364.613281 -415.0731 
L 364.613281 -415.865297 
L 364.613281 -416.657494 
L 364.613281 -417.44969 
L 364.613281 -418.241887 
L 364.613281 -419.034084 
L 364.613281 -419.826281 
L 364.613281 -420.618477 
L 364.613281 -421.410674 
L 364.613281 -422.202871 
L 364.613281 -422.995067 
L 364.613281 -423.787264 
L 364.613281 -424.579461 
L 364.613281 -425.371658 
L 364.613281 -426.163854 
L 364.613281 -426.956051 
L 364.613281 -427.748248 
L 364.613281 -428.540445 
L 364.613281 -429.332641 
L 364.613281 -430.124838 
L 364.613281 -430.917035 
L 364.613281 -431.709231 
L 364.613281 -432.501428 
L 364.613281 -433.293625 
L 364.613281 -434.085822 
L 364.613281 -434.878018 
L 364.613281 -435.670215 
L 364.613281 -436.462412 
L 364.613281 -437.254608 
L 364.613281 -438.046805 
L 364.613281 -438.839002 
L 364.613281 -439.631199 
L 364.613281 -440.423395 
L 364.613281 -441.215592 
L 364.613281 -442.007789 
L 364.613281 -442.799985 
L 364.613281 -443.592182 
L 364.613281 -444.384379 
L 364.613281 -445.176576 
L 494.365073 -445.176576 
L 494.365073 -445.176576 
L 490.437612 -444.384379 
L 488.76921 -443.592182 
L 484.585205 -442.799985 
L 484.585205 -442.007789 
L 483.440056 -441.215592 
L 481.668928 -440.423395 
L 481.668928 -439.631199 
L 478.963949 -438.839002 
L 478.623034 -438.046805 
L 474.512904 -437.254608 
L 473.979458 -436.462412 
L 473.844348 -435.670215 
L 473.648226 -434.878018 
L 467.878873 -434.085822 
L 465.121453 -433.293625 
L 461.787884 -432.501428 
L 460.828251 -431.709231 
L 460.779692 -430.917035 
L 459.452776 -430.124838 
L 458.168068 -429.332641 
L 457.716901 -428.540445 
L 455.646788 -427.748248 
L 455.646788 -426.956051 
L 454.688239 -426.163854 
L 451.347198 -425.371658 
L 450.24829 -424.579461 
L 450.056564 -423.787264 
L 448.428087 -422.995067 
L 446.414897 -422.202871 
L 443.225161 -421.410674 
L 443.011252 -420.618477 
L 441.757195 -419.826281 
L 441.450985 -419.034084 
L 438.447624 -418.241887 
L 437.349425 -417.44969 
L 437.051475 -416.657494 
L 434.2586 -415.865297 
L 432.460041 -415.0731 
L 431.886102 -414.280904 
L 429.624195 -413.488707 
L 428.012019 -412.69651 
L 425.256174 -411.904313 
L 424.088007 -411.112117 
L 423.349922 -410.31992 
L 420.958879 -409.527723 
L 419.801393 -408.735527 
L 417.144179 -407.94333 
L 414.568542 -407.151133 
L 414.532684 -406.358936 
L 406.804337 -405.56674 
L 397.070581 -404.774543 
L 393.485984 -403.982346 
L 390.661216 -403.19015 
L 389.581341 -402.397953 
L 378.530328 -401.605756 
L 350.996558 -400.813559 
z
" style="stroke: #00e700; stroke-opacity: 0.7"/>
    </defs>
    <g clip-path="url(#p202120373c)">
     <use xlink:href="#mba2db24e28" x="0" y="720" style="fill: #00e700; fill-opacity: 0.7; stroke: #00e700; stroke-opacity: 0.7"/>
    </g>
   </g>
   <g id="PolyCollection_11">
    <defs>
     <path id="m4a41233544" d="M 352.076647 -453.890739 
L 364.613281 -453.890739 
L 364.613281 -454.682936 
L 364.613281 -455.475133 
L 364.613281 -456.26733 
L 364.613281 -457.059526 
L 364.613281 -457.851723 
L 364.613281 -458.64392 
L 364.613281 -459.436116 
L 364.613281 -460.228313 
L 364.613281 -461.02051 
L 364.613281 -461.812707 
L 364.613281 -462.604903 
L 364.613281 -463.3971 
L 364.613281 -464.189297 
L 364.613281 -464.981493 
L 364.613281 -465.77369 
L 364.613281 -466.565887 
L 364.613281 -467.358084 
L 364.613281 -468.15028 
L 364.613281 -468.942477 
L 364.613281 -469.734674 
L 364.613281 -470.526871 
L 364.613281 -471.319067 
L 443.893089 -471.319067 
L 443.893089 -471.319067 
L 436.789524 -470.526871 
L 436.510793 -469.734674 
L 434.910124 -468.942477 
L 432.249075 -468.15028 
L 432.046779 -467.358084 
L 426.802252 -466.565887 
L 421.673434 -465.77369 
L 421.376684 -464.981493 
L 419.434306 -464.189297 
L 415.103458 -463.3971 
L 409.185321 -462.604903 
L 407.80986 -461.812707 
L 403.980907 -461.02051 
L 401.405671 -460.228313 
L 395.978138 -459.436116 
L 394.263585 -458.64392 
L 391.059828 -457.851723 
L 390.015177 -457.059526 
L 383.853593 -456.26733 
L 365.60476 -455.475133 
L 362.341084 -454.682936 
L 352.076647 -453.890739 
z
" style="stroke: #67ff00; stroke-opacity: 0.7"/>
    </defs>
    <g clip-path="url(#p202120373c)">
     <use xlink:href="#m4a41233544" x="0" y="720" style="fill: #67ff00; fill-opacity: 0.7; stroke: #67ff00; stroke-opacity: 0.7"/>
    </g>
   </g>
   <g id="PolyCollection_12">
    <defs>
     <path id="m220115c7be" d="M 426.814379 -480.033231 
L 364.613281 -480.033231 
L 364.613281 -480.825428 
L 364.613281 -481.617625 
L 364.613281 -482.409821 
L 364.613281 -483.202018 
L 364.613281 -483.994215 
L 364.613281 -484.786411 
L 364.613281 -485.578608 
L 364.613281 -486.370805 
L 364.613281 -487.163002 
L 364.613281 -487.955198 
L 364.613281 -488.747395 
L 364.613281 -489.539592 
L 364.613281 -490.331788 
L 364.613281 -491.123985 
L 364.613281 -491.916182 
L 364.613281 -492.708379 
L 364.613281 -493.500575 
L 364.613281 -494.292772 
L 364.613281 -495.084969 
L 364.613281 -495.877165 
L 364.613281 -496.669362 
L 364.613281 -497.461559 
L 364.613281 -498.253756 
L 364.613281 -499.045952 
L 364.613281 -499.838149 
L 364.613281 -500.630346 
L 364.613281 -501.422542 
L 364.613281 -502.214739 
L 364.613281 -503.006936 
L 364.613281 -503.799133 
L 364.613281 -504.591329 
L 364.613281 -505.383526 
L 364.613281 -506.175723 
L 364.613281 -506.967919 
L 364.613281 -507.760116 
L 364.613281 -508.552313 
L 364.613281 -509.34451 
L 364.613281 -510.136706 
L 364.613281 -510.928903 
L 364.613281 -511.7211 
L 364.613281 -512.513296 
L 364.613281 -513.305493 
L 364.613281 -514.09769 
L 364.613281 -514.889887 
L 364.613281 -515.682083 
L 364.613281 -516.47428 
L 364.613281 -517.266477 
L 364.613281 -518.058674 
L 364.613281 -518.85087 
L 364.613281 -519.643067 
L 364.613281 -520.435264 
L 364.613281 -521.22746 
L 364.613281 -522.019657 
L 364.613281 -522.811854 
L 364.613281 -523.604051 
L 364.613281 -524.396247 
L 364.613281 -525.188444 
L 364.613281 -525.980641 
L 364.613281 -526.772837 
L 364.613281 -527.565034 
L 364.613281 -528.357231 
L 364.613281 -529.149428 
L 364.613281 -529.941624 
L 364.613281 -530.733821 
L 364.613281 -531.526018 
L 364.613281 -532.318214 
L 364.613281 -533.110411 
L 364.613281 -533.902608 
L 364.613281 -534.694805 
L 364.613281 -535.487001 
L 364.613281 -536.279198 
L 364.613281 -537.071395 
L 364.613281 -537.863591 
L 364.613281 -538.655788 
L 364.613281 -539.447985 
L 364.613281 -540.240182 
L 364.613281 -541.032378 
L 364.613281 -541.824575 
L 364.613281 -542.616772 
L 364.613281 -543.408968 
L 364.613281 -544.201165 
L 364.613281 -544.993362 
L 364.613281 -545.785559 
L 364.613281 -546.577755 
L 364.613281 -547.369952 
L 364.613281 -548.162149 
L 364.613281 -548.954345 
L 364.613281 -549.746542 
L 364.613281 -550.538739 
L 364.613281 -551.330936 
L 364.613281 -552.123132 
L 364.613281 -552.915329 
L 364.613281 -553.707526 
L 364.613281 -554.499722 
L 364.613281 -555.291919 
L 364.613281 -556.084116 
L 364.613281 -556.876313 
L 364.613281 -557.668509 
L 364.613281 -558.460706 
L 364.613281 -559.252903 
L 364.613281 -560.045099 
L 364.613281 -560.837296 
L 364.613281 -561.629493 
L 364.613281 -562.42169 
L 364.613281 -563.213886 
L 364.613281 -564.006083 
L 364.613281 -564.79828 
L 364.613281 -565.590477 
L 364.613281 -566.382673 
L 364.613281 -567.17487 
L 364.613281 -567.967067 
L 364.613281 -568.759263 
L 364.613281 -569.55146 
L 364.613281 -570.343657 
L 364.613281 -571.135854 
L 364.613281 -571.92805 
L 364.613281 -572.720247 
L 364.613281 -573.512444 
L 364.613281 -574.30464 
L 364.613281 -575.096837 
L 364.613281 -575.889034 
L 364.613281 -576.681231 
L 364.613281 -577.473427 
L 364.613281 -578.265624 
L 364.613281 -579.057821 
L 364.613281 -579.850017 
L 364.613281 -580.642214 
L 364.613281 -581.434411 
L 364.613281 -582.226608 
L 364.613281 -583.018804 
L 364.613281 -583.811001 
L 364.613281 -584.603198 
L 364.613281 -585.395394 
L 364.613281 -586.187591 
L 364.613281 -586.979788 
L 364.613281 -587.771985 
L 364.613281 -588.564181 
L 364.613281 -589.356378 
L 364.613281 -590.148575 
L 364.613281 -590.940771 
L 364.613281 -591.732968 
L 364.613281 -592.525165 
L 364.613281 -593.317362 
L 364.613281 -594.109558 
L 364.613281 -594.901755 
L 364.613281 -595.693952 
L 364.613281 -596.486148 
L 364.613281 -597.278345 
L 364.613281 -598.070542 
L 364.613281 -598.862739 
L 364.613281 -599.654935 
L 364.613281 -600.447132 
L 364.613281 -601.239329 
L 364.613281 -602.031525 
L 364.613281 -602.823722 
L 364.613281 -603.615919 
L 364.613281 -604.408116 
L 364.613281 -605.200312 
L 364.613281 -605.992509 
L 364.613281 -606.784706 
L 364.613281 -607.576903 
L 364.613281 -608.369099 
L 364.613281 -609.161296 
L 364.613281 -609.953493 
L 364.613281 -610.745689 
L 364.613281 -611.537886 
L 364.613281 -612.330083 
L 364.613281 -613.12228 
L 364.613281 -613.914476 
L 364.613281 -614.706673 
L 364.613281 -615.49887 
L 364.613281 -616.291066 
L 364.613281 -617.083263 
L 364.613281 -617.87546 
L 364.613281 -618.667657 
L 364.613281 -619.459853 
L 364.613281 -620.25205 
L 364.613281 -621.044247 
L 364.613281 -621.836443 
L 364.613281 -622.62864 
L 364.613281 -623.420837 
L 364.613281 -624.213034 
L 364.613281 -625.00523 
L 364.613281 -625.797427 
L 364.613281 -626.589624 
L 364.613281 -627.38182 
L 364.613281 -628.174017 
L 364.613281 -628.966214 
L 364.613281 -629.758411 
L 364.613281 -630.550607 
L 364.613281 -631.342804 
L 364.613281 -632.135001 
L 364.613281 -632.927197 
L 364.613281 -633.719394 
L 364.613281 -634.511591 
L 364.613281 -635.303788 
L 364.613281 -636.095984 
L 364.613281 -636.888181 
L 364.613281 -637.680378 
L 364.613281 -638.472574 
L 511.107701 -638.472574 
L 511.107701 -638.472574 
L 504.846174 -637.680378 
L 504.018979 -636.888181 
L 503.762465 -636.095984 
L 503.027437 -635.303788 
L 501.751614 -634.511591 
L 500.87207 -633.719394 
L 500.710025 -632.927197 
L 500.575546 -632.135001 
L 500.071456 -631.342804 
L 500.005775 -630.550607 
L 499.891526 -629.758411 
L 499.565172 -628.966214 
L 499.032324 -628.174017 
L 498.554451 -627.38182 
L 497.965589 -626.589624 
L 497.909944 -625.797427 
L 497.560039 -625.00523 
L 496.689136 -624.213034 
L 495.741024 -623.420837 
L 495.385152 -622.62864 
L 495.192766 -621.836443 
L 494.885991 -621.044247 
L 494.528274 -620.25205 
L 494.510607 -619.459853 
L 494.431702 -618.667657 
L 494.383352 -617.87546 
L 494.380709 -617.083263 
L 494.227682 -616.291066 
L 493.892087 -615.49887 
L 493.705494 -614.706673 
L 493.563966 -613.914476 
L 493.550893 -613.12228 
L 493.343858 -612.330083 
L 493.302897 -611.537886 
L 492.944623 -610.745689 
L 492.745441 -609.953493 
L 492.295796 -609.161296 
L 492.14497 -608.369099 
L 491.808709 -607.576903 
L 491.253902 -606.784706 
L 491.198858 -605.992509 
L 489.875207 -605.200312 
L 489.740465 -604.408116 
L 489.55667 -603.615919 
L 489.180883 -602.823722 
L 489.037683 -602.031525 
L 488.908554 -601.239329 
L 488.462432 -600.447132 
L 488.149505 -599.654935 
L 488.119812 -598.862739 
L 487.59049 -598.070542 
L 487.181313 -597.278345 
L 486.798208 -596.486148 
L 486.766273 -595.693952 
L 486.129632 -594.901755 
L 485.873325 -594.109558 
L 485.860328 -593.317362 
L 485.176101 -592.525165 
L 485.161306 -591.732968 
L 485.01452 -590.940771 
L 484.516527 -590.148575 
L 483.775905 -589.356378 
L 483.764477 -588.564181 
L 483.57923 -587.771985 
L 483.333922 -586.979788 
L 482.825889 -586.187591 
L 482.778293 -585.395394 
L 482.670247 -584.603198 
L 482.244302 -583.811001 
L 482.116482 -583.018804 
L 482.10755 -582.226608 
L 481.979126 -581.434411 
L 481.840567 -580.642214 
L 481.646301 -579.850017 
L 481.098559 -579.057821 
L 481.07943 -578.265624 
L 481.066323 -577.473427 
L 480.848695 -576.681231 
L 480.84547 -575.889034 
L 480.652223 -575.096837 
L 480.412002 -574.30464 
L 480.209715 -573.512444 
L 480.178476 -572.720247 
L 480.028533 -571.92805 
L 479.846233 -571.135854 
L 479.813958 -570.343657 
L 479.788982 -569.55146 
L 479.609571 -568.759263 
L 479.268374 -567.967067 
L 479.006725 -567.17487 
L 478.966704 -566.382673 
L 478.472214 -565.590477 
L 478.375027 -564.79828 
L 478.196938 -564.006083 
L 477.977331 -563.213886 
L 477.785503 -562.42169 
L 477.457832 -561.629493 
L 476.956937 -560.837296 
L 476.694801 -560.045099 
L 476.394381 -559.252903 
L 476.323571 -558.460706 
L 476.301144 -557.668509 
L 476.289503 -556.876313 
L 476.230896 -556.084116 
L 476.206148 -555.291919 
L 475.503203 -554.499722 
L 475.008418 -553.707526 
L 474.214061 -552.915329 
L 473.659659 -552.123132 
L 473.658194 -551.330936 
L 473.532601 -550.538739 
L 473.228014 -549.746542 
L 472.787946 -548.954345 
L 472.667999 -548.162149 
L 472.029618 -547.369952 
L 471.902495 -546.577755 
L 471.687451 -545.785559 
L 470.861071 -544.993362 
L 470.626237 -544.201165 
L 470.584899 -543.408968 
L 470.208343 -542.616772 
L 469.264837 -541.824575 
L 468.838877 -541.032378 
L 468.290084 -540.240182 
L 467.92089 -539.447985 
L 467.555732 -538.655788 
L 467.175974 -537.863591 
L 466.753705 -537.071395 
L 466.665814 -536.279198 
L 466.63524 -535.487001 
L 466.335578 -534.694805 
L 466.24003 -533.902608 
L 466.04112 -533.110411 
L 466.008505 -532.318214 
L 465.901657 -531.526018 
L 465.549732 -530.733821 
L 465.521984 -529.941624 
L 465.508717 -529.149428 
L 464.549459 -528.357231 
L 464.134471 -527.565034 
L 463.48513 -526.772837 
L 463.411545 -525.980641 
L 462.916569 -525.188444 
L 462.806424 -524.396247 
L 462.589166 -523.604051 
L 462.478652 -522.811854 
L 462.146034 -522.019657 
L 460.784619 -521.22746 
L 460.453329 -520.435264 
L 459.884978 -519.643067 
L 459.688818 -518.85087 
L 459.405714 -518.058674 
L 459.401173 -517.266477 
L 459.221397 -516.47428 
L 458.793334 -515.682083 
L 458.387295 -514.889887 
L 458.32638 -514.09769 
L 458.193815 -513.305493 
L 457.340746 -512.513296 
L 456.987559 -511.7211 
L 456.258638 -510.928903 
L 455.889342 -510.136706 
L 455.308315 -509.34451 
L 454.882069 -508.552313 
L 454.604459 -507.760116 
L 453.538908 -506.967919 
L 453.094256 -506.175723 
L 452.412972 -505.383526 
L 452.299245 -504.591329 
L 452.247856 -503.799133 
L 451.988462 -503.006936 
L 451.824269 -502.214739 
L 451.61252 -501.422542 
L 451.249019 -500.630346 
L 451.216113 -499.838149 
L 450.134943 -499.045952 
L 449.797614 -498.253756 
L 449.151863 -497.461559 
L 448.27216 -496.669362 
L 447.370724 -495.877165 
L 447.265746 -495.084969 
L 447.200741 -494.292772 
L 446.179148 -493.500575 
L 445.050678 -492.708379 
L 444.98613 -491.916182 
L 444.710211 -491.123985 
L 443.442329 -490.331788 
L 443.306026 -489.539592 
L 442.174807 -488.747395 
L 442.115734 -487.955198 
L 441.415209 -487.163002 
L 441.234998 -486.370805 
L 441.190635 -485.578608 
L 438.395655 -484.786411 
L 437.827967 -483.994215 
L 437.534583 -483.202018 
L 434.567259 -482.409821 
L 434.333981 -481.617625 
L 433.50208 -480.825428 
L 426.814379 -480.033231 
z
" style="stroke: #e4f100; stroke-opacity: 0.7"/>
    </defs>
    <g clip-path="url(#p202120373c)">
     <use xlink:href="#m220115c7be" x="0" y="720" style="fill: #e4f100; fill-opacity: 0.7; stroke: #e4f100; stroke-opacity: 0.7"/>
    </g>
   </g>
   <g id="PolyCollection_13">
    <defs>
     <path id="m36919eeef5" d="M 312.015722 -647.186738 
L 364.613281 -647.186738 
L 364.613281 -647.978935 
L 364.613281 -648.771132 
L 364.613281 -649.563328 
L 364.613281 -650.355525 
L 364.613281 -651.147722 
L 364.613281 -651.939919 
L 364.613281 -652.732115 
L 364.613281 -653.524312 
L 364.613281 -654.316509 
L 364.613281 -655.108706 
L 364.613281 -655.900902 
L 364.613281 -656.693099 
L 364.613281 -657.485296 
L 364.613281 -658.277492 
L 364.613281 -659.069689 
L 364.613281 -659.861886 
L 364.613281 -660.654083 
L 364.613281 -661.446279 
L 435.326974 -661.446279 
L 435.326974 -661.446279 
L 427.031977 -660.654083 
L 425.641429 -659.861886 
L 425.066107 -659.069689 
L 423.96759 -658.277492 
L 420.27683 -657.485296 
L 419.228262 -656.693099 
L 410.912082 -655.900902 
L 408.963056 -655.108706 
L 408.60435 -654.316509 
L 401.913372 -653.524312 
L 384.826564 -652.732115 
L 377.602408 -651.939919 
L 373.877336 -651.147722 
L 370.322121 -650.355525 
L 369.031597 -649.563328 
L 359.284009 -648.771132 
L 353.685517 -647.978935 
L 312.015722 -647.186738 
z
" style="stroke: #ffc900; stroke-opacity: 0.7"/>
    </defs>
    <g clip-path="url(#p202120373c)">
     <use xlink:href="#m36919eeef5" x="0" y="720" style="fill: #ffc900; fill-opacity: 0.7; stroke: #ffc900; stroke-opacity: 0.7"/>
    </g>
   </g>
   <g id="PolyCollection_14">
    <defs>
     <path id="m7c3a8a0a0a" d="M 405.364137 -670.160443 
L 364.613281 -670.160443 
L 364.613281 -670.95264 
L 364.613281 -671.744837 
L 364.613281 -672.537033 
L 364.613281 -673.32923 
L 364.613281 -674.121427 
L 446.002244 -674.121427 
L 446.002244 -674.121427 
L 445.735429 -673.32923 
L 441.948174 -672.537033 
L 429.079583 -671.744837 
L 425.054139 -670.95264 
L 405.364137 -670.160443 
z
" style="stroke: #ff6900; stroke-opacity: 0.7"/>
    </defs>
    <g clip-path="url(#p202120373c)">
     <use xlink:href="#m7c3a8a0a0a" x="0" y="720" style="fill: #ff6900; fill-opacity: 0.7; stroke: #ff6900; stroke-opacity: 0.7"/>
    </g>
   </g>
   <g id="PolyCollection_15">
    <defs>
     <path id="mf5bcb6b616" d="M 526.373196 -682.835591 
L 364.613281 -682.835591 
L 364.613281 -683.627787 
L 364.613281 -684.419984 
L 364.613281 -685.212181 
L 364.613281 -686.004377 
L 364.613281 -686.796574 
L 364.613281 -687.588771 
L 364.613281 -688.380968 
L 364.613281 -689.173164 
L 564.478336 -689.173164 
L 564.478336 -689.173164 
L 563.722641 -688.380968 
L 559.842966 -687.588771 
L 558.113229 -686.796574 
L 535.826319 -686.004377 
L 534.662777 -685.212181 
L 528.815416 -684.419984 
L 528.148191 -683.627787 
L 526.373196 -682.835591 
z
" style="stroke: #ec0000; stroke-opacity: 0.7"/>
    </defs>
    <g clip-path="url(#p202120373c)">
     <use xlink:href="#mf5bcb6b616" x="0" y="720" style="fill: #ec0000; fill-opacity: 0.7; stroke: #ec0000; stroke-opacity: 0.7"/>
    </g>
   </g>
   <g id="PolyCollection_16">
    <defs>
     <path id="mabbb0f1924" d="M 565.611485 -697.887328 
L 364.613281 -697.887328 
L 364.613281 -698.679525 
L 364.613281 -699.471722 
L 597.558637 -699.471722 
L 597.558637 -699.471722 
L 592.370228 -698.679525 
L 565.611485 -697.887328 
z
" style="stroke: #cf0000; stroke-opacity: 0.7"/>
    </defs>
    <g clip-path="url(#p202120373c)">
     <use xlink:href="#mabbb0f1924" x="0" y="720" style="fill: #cf0000; fill-opacity: 0.7; stroke: #cf0000; stroke-opacity: 0.7"/>
    </g>
   </g>
   <g id="matplotlib.axis_1">
    <g id="xtick_1">
     <g id="line2d_1">
      <defs>
       <path id="md239f868d7" d="M 0 0 
L 0 3.5 
" style="stroke: #000000; stroke-width: 0.8"/>
      </defs>
      <g>
       <use xlink:href="#md239f868d7" x="27.978125" y="678.84375" style="stroke: #000000; stroke-width: 0.8"/>
      </g>
     </g>
     <g id="text_1">
      <!-- −1.0 -->
      <g transform="translate(15.836719 693.442188) scale(0.1 -0.1)">
       <defs>
        <path id="DejaVuSans-2212" d="M 678 2272 
L 4684 2272 
L 4684 1741 
L 678 1741 
L 678 2272 
z
" transform="scale(0.015625)"/>
        <path id="DejaVuSans-31" d="M 794 531 
L 1825 531 
L 1825 4091 
L 703 3866 
L 703 4441 
L 1819 4666 
L 2450 4666 
L 2450 531 
L 3481 531 
L 3481 0 
L 794 0 
L 794 531 
z
" transform="scale(0.015625)"/>
        <path id="DejaVuSans-2e" d="M 684 794 
L 1344 794 
L 1344 0 
L 684 0 
L 684 794 
z
" transform="scale(0.015625)"/>
        <path id="DejaVuSans-30" d="M 2034 4250 
Q 1547 4250 1301 3770 
Q 1056 3291 1056 2328 
Q 1056 1369 1301 889 
Q 1547 409 2034 409 
Q 2525 409 2770 889 
Q 3016 1369 3016 2328 
Q 3016 3291 2770 3770 
Q 2525 4250 2034 4250 
z
M 2034 4750 
Q 2819 4750 3233 4129 
Q 3647 3509 3647 2328 
Q 3647 1150 3233 529 
Q 2819 -91 2034 -91 
Q 1250 -91 836 529 
Q 422 1150 422 2328 
Q 422 3509 836 4129 
Q 1250 4750 2034 4750 
z
" transform="scale(0.015625)"/>
       </defs>
       <use xlink:href="#DejaVuSans-2212"/>
       <use xlink:href="#DejaVuSans-31" x="83.789062"/>
       <use xlink:href="#DejaVuSans-2e" x="147.412109"/>
       <use xlink:href="#DejaVuSans-30" x="179.199219"/>
      </g>
     </g>
    </g>
    <g id="xtick_2">
     <g id="line2d_2">
      <g>
       <use xlink:href="#md239f868d7" x="95.305156" y="678.84375" style="stroke: #000000; stroke-width: 0.8"/>
      </g>
     </g>
     <g id="text_2">
      <!-- −0.8 -->
      <g transform="translate(83.16375 693.442188) scale(0.1 -0.1)">
       <defs>
        <path id="DejaVuSans-38" d="M 2034 2216 
Q 1584 2216 1326 1975 
Q 1069 1734 1069 1313 
Q 1069 891 1326 650 
Q 1584 409 2034 409 
Q 2484 409 2743 651 
Q 3003 894 3003 1313 
Q 3003 1734 2745 1975 
Q 2488 2216 2034 2216 
z
M 1403 2484 
Q 997 2584 770 2862 
Q 544 3141 544 3541 
Q 544 4100 942 4425 
Q 1341 4750 2034 4750 
Q 2731 4750 3128 4425 
Q 3525 4100 3525 3541 
Q 3525 3141 3298 2862 
Q 3072 2584 2669 2484 
Q 3125 2378 3379 2068 
Q 3634 1759 3634 1313 
Q 3634 634 3220 271 
Q 2806 -91 2034 -91 
Q 1263 -91 848 271 
Q 434 634 434 1313 
Q 434 1759 690 2068 
Q 947 2378 1403 2484 
z
M 1172 3481 
Q 1172 3119 1398 2916 
Q 1625 2713 2034 2713 
Q 2441 2713 2670 2916 
Q 2900 3119 2900 3481 
Q 2900 3844 2670 4047 
Q 2441 4250 2034 4250 
Q 1625 4250 1398 4047 
Q 1172 3844 1172 3481 
z
" transform="scale(0.015625)"/>
       </defs>
       <use xlink:href="#DejaVuSans-2212"/>
       <use xlink:href="#DejaVuSans-30" x="83.789062"/>
       <use xlink:href="#DejaVuSans-2e" x="147.412109"/>
       <use xlink:href="#DejaVuSans-38" x="179.199219"/>
      </g>
     </g>
    </g>
    <g id="xtick_3">
     <g id="line2d_3">
      <g>
       <use xlink:href="#md239f868d7" x="162.632188" y="678.84375" style="stroke: #000000; stroke-width: 0.8"/>
      </g>
     </g>
     <g id="text_3">
      <!-- −0.6 -->
      <g transform="translate(150.490781 693.442188) scale(0.1 -0.1)">
       <defs>
        <path id="DejaVuSans-36" d="M 2113 2584 
Q 1688 2584 1439 2293 
Q 1191 2003 1191 1497 
Q 1191 994 1439 701 
Q 1688 409 2113 409 
Q 2538 409 2786 701 
Q 3034 994 3034 1497 
Q 3034 2003 2786 2293 
Q 2538 2584 2113 2584 
z
M 3366 4563 
L 3366 3988 
Q 3128 4100 2886 4159 
Q 2644 4219 2406 4219 
Q 1781 4219 1451 3797 
Q 1122 3375 1075 2522 
Q 1259 2794 1537 2939 
Q 1816 3084 2150 3084 
Q 2853 3084 3261 2657 
Q 3669 2231 3669 1497 
Q 3669 778 3244 343 
Q 2819 -91 2113 -91 
Q 1303 -91 875 529 
Q 447 1150 447 2328 
Q 447 3434 972 4092 
Q 1497 4750 2381 4750 
Q 2619 4750 2861 4703 
Q 3103 4656 3366 4563 
z
" transform="scale(0.015625)"/>
       </defs>
       <use xlink:href="#DejaVuSans-2212"/>
       <use xlink:href="#DejaVuSans-30" x="83.789062"/>
       <use xlink:href="#DejaVuSans-2e" x="147.412109"/>
       <use xlink:href="#DejaVuSans-36" x="179.199219"/>
      </g>
     </g>
    </g>
    <g id="xtick_4">
     <g id="line2d_4">
      <g>
       <use xlink:href="#md239f868d7" x="229.959219" y="678.84375" style="stroke: #000000; stroke-width: 0.8"/>
      </g>
     </g>
     <g id="text_4">
      <!-- −0.4 -->
      <g transform="translate(217.817813 693.442188) scale(0.1 -0.1)">
       <defs>
        <path id="DejaVuSans-34" d="M 2419 4116 
L 825 1625 
L 2419 1625 
L 2419 4116 
z
M 2253 4666 
L 3047 4666 
L 3047 1625 
L 3713 1625 
L 3713 1100 
L 3047 1100 
L 3047 0 
L 2419 0 
L 2419 1100 
L 313 1100 
L 313 1709 
L 2253 4666 
z
" transform="scale(0.015625)"/>
       </defs>
       <use xlink:href="#DejaVuSans-2212"/>
       <use xlink:href="#DejaVuSans-30" x="83.789062"/>
       <use xlink:href="#DejaVuSans-2e" x="147.412109"/>
       <use xlink:href="#DejaVuSans-34" x="179.199219"/>
      </g>
     </g>
    </g>
    <g id="xtick_5">
     <g id="line2d_5">
      <g>
       <use xlink:href="#md239f868d7" x="297.28625" y="678.84375" style="stroke: #000000; stroke-width: 0.8"/>
      </g>
     </g>
     <g id="text_5">
      <!-- −0.2 -->
      <g transform="translate(285.144844 693.442188) scale(0.1 -0.1)">
       <defs>
        <path id="DejaVuSans-32" d="M 1228 531 
L 3431 531 
L 3431 0 
L 469 0 
L 469 531 
Q 828 903 1448 1529 
Q 2069 2156 2228 2338 
Q 2531 2678 2651 2914 
Q 2772 3150 2772 3378 
Q 2772 3750 2511 3984 
Q 2250 4219 1831 4219 
Q 1534 4219 1204 4116 
Q 875 4013 500 3803 
L 500 4441 
Q 881 4594 1212 4672 
Q 1544 4750 1819 4750 
Q 2544 4750 2975 4387 
Q 3406 4025 3406 3419 
Q 3406 3131 3298 2873 
Q 3191 2616 2906 2266 
Q 2828 2175 2409 1742 
Q 1991 1309 1228 531 
z
" transform="scale(0.015625)"/>
       </defs>
       <use xlink:href="#DejaVuSans-2212"/>
       <use xlink:href="#DejaVuSans-30" x="83.789062"/>
       <use xlink:href="#DejaVuSans-2e" x="147.412109"/>
       <use xlink:href="#DejaVuSans-32" x="179.199219"/>
      </g>
     </g>
    </g>
    <g id="xtick_6">
     <g id="line2d_6">
      <g>
       <use xlink:href="#md239f868d7" x="364.613281" y="678.84375" style="stroke: #000000; stroke-width: 0.8"/>
      </g>
     </g>
     <g id="text_6">
      <!-- 0.0 -->
      <g transform="translate(356.661719 693.442188) scale(0.1 -0.1)">
       <use xlink:href="#DejaVuSans-30"/>
       <use xlink:href="#DejaVuSans-2e" x="63.623047"/>
       <use xlink:href="#DejaVuSans-30" x="95.410156"/>
      </g>
     </g>
    </g>
    <g id="xtick_7">
     <g id="line2d_7">
      <g>
       <use xlink:href="#md239f868d7" x="431.940313" y="678.84375" style="stroke: #000000; stroke-width: 0.8"/>
      </g>
     </g>
     <g id="text_7">
      <!-- 0.2 -->
      <g transform="translate(423.98875 693.442188) scale(0.1 -0.1)">
       <use xlink:href="#DejaVuSans-30"/>
       <use xlink:href="#DejaVuSans-2e" x="63.623047"/>
       <use xlink:href="#DejaVuSans-32" x="95.410156"/>
      </g>
     </g>
    </g>
    <g id="xtick_8">
     <g id="line2d_8">
      <g>
       <use xlink:href="#md239f868d7" x="499.267344" y="678.84375" style="stroke: #000000; stroke-width: 0.8"/>
      </g>
     </g>
     <g id="text_8">
      <!-- 0.4 -->
      <g transform="translate(491.315781 693.442188) scale(0.1 -0.1)">
       <use xlink:href="#DejaVuSans-30"/>
       <use xlink:href="#DejaVuSans-2e" x="63.623047"/>
       <use xlink:href="#DejaVuSans-34" x="95.410156"/>
      </g>
     </g>
    </g>
    <g id="xtick_9">
     <g id="line2d_9">
      <g>
       <use xlink:href="#md239f868d7" x="566.594375" y="678.84375" style="stroke: #000000; stroke-width: 0.8"/>
      </g>
     </g>
     <g id="text_9">
      <!-- 0.6 -->
      <g transform="translate(558.642812 693.442188) scale(0.1 -0.1)">
       <use xlink:href="#DejaVuSans-30"/>
       <use xlink:href="#DejaVuSans-2e" x="63.623047"/>
       <use xlink:href="#DejaVuSans-36" x="95.410156"/>
      </g>
     </g>
    </g>
    <g id="xtick_10">
     <g id="line2d_10">
      <g>
       <use xlink:href="#md239f868d7" x="633.921406" y="678.84375" style="stroke: #000000; stroke-width: 0.8"/>
      </g>
     </g>
     <g id="text_10">
      <!-- 0.8 -->
      <g transform="translate(625.969844 693.442188) scale(0.1 -0.1)">
       <use xlink:href="#DejaVuSans-30"/>
       <use xlink:href="#DejaVuSans-2e" x="63.623047"/>
       <use xlink:href="#DejaVuSans-38" x="95.410156"/>
      </g>
     </g>
    </g>
    <g id="xtick_11">
     <g id="line2d_11">
      <g>
       <use xlink:href="#md239f868d7" x="701.248437" y="678.84375" style="stroke: #000000; stroke-width: 0.8"/>
      </g>
     </g>
     <g id="text_11">
      <!-- 1.0 -->
      <g transform="translate(693.296875 693.442188) scale(0.1 -0.1)">
       <use xlink:href="#DejaVuSans-31"/>
       <use xlink:href="#DejaVuSans-2e" x="63.623047"/>
       <use xlink:href="#DejaVuSans-30" x="95.410156"/>
      </g>
     </g>
    </g>
    <g id="text_12">
     <!-- Silhouette coefficient -->
     <g transform="translate(311.463281 707.120313) scale(0.1 -0.1)">
      <defs>
       <path id="DejaVuSans-53" d="M 3425 4513 
L 3425 3897 
Q 3066 4069 2747 4153 
Q 2428 4238 2131 4238 
Q 1616 4238 1336 4038 
Q 1056 3838 1056 3469 
Q 1056 3159 1242 3001 
Q 1428 2844 1947 2747 
L 2328 2669 
Q 3034 2534 3370 2195 
Q 3706 1856 3706 1288 
Q 3706 609 3251 259 
Q 2797 -91 1919 -91 
Q 1588 -91 1214 -16 
Q 841 59 441 206 
L 441 856 
Q 825 641 1194 531 
Q 1563 422 1919 422 
Q 2459 422 2753 634 
Q 3047 847 3047 1241 
Q 3047 1584 2836 1778 
Q 2625 1972 2144 2069 
L 1759 2144 
Q 1053 2284 737 2584 
Q 422 2884 422 3419 
Q 422 4038 858 4394 
Q 1294 4750 2059 4750 
Q 2388 4750 2728 4690 
Q 3069 4631 3425 4513 
z
" transform="scale(0.015625)"/>
       <path id="DejaVuSans-69" d="M 603 3500 
L 1178 3500 
L 1178 0 
L 603 0 
L 603 3500 
z
M 603 4863 
L 1178 4863 
L 1178 4134 
L 603 4134 
L 603 4863 
z
" transform="scale(0.015625)"/>
       <path id="DejaVuSans-6c" d="M 603 4863 
L 1178 4863 
L 1178 0 
L 603 0 
L 603 4863 
z
" transform="scale(0.015625)"/>
       <path id="DejaVuSans-68" d="M 3513 2113 
L 3513 0 
L 2938 0 
L 2938 2094 
Q 2938 2591 2744 2837 
Q 2550 3084 2163 3084 
Q 1697 3084 1428 2787 
Q 1159 2491 1159 1978 
L 1159 0 
L 581 0 
L 581 4863 
L 1159 4863 
L 1159 2956 
Q 1366 3272 1645 3428 
Q 1925 3584 2291 3584 
Q 2894 3584 3203 3211 
Q 3513 2838 3513 2113 
z
" transform="scale(0.015625)"/>
       <path id="DejaVuSans-6f" d="M 1959 3097 
Q 1497 3097 1228 2736 
Q 959 2375 959 1747 
Q 959 1119 1226 758 
Q 1494 397 1959 397 
Q 2419 397 2687 759 
Q 2956 1122 2956 1747 
Q 2956 2369 2687 2733 
Q 2419 3097 1959 3097 
z
M 1959 3584 
Q 2709 3584 3137 3096 
Q 3566 2609 3566 1747 
Q 3566 888 3137 398 
Q 2709 -91 1959 -91 
Q 1206 -91 779 398 
Q 353 888 353 1747 
Q 353 2609 779 3096 
Q 1206 3584 1959 3584 
z
" transform="scale(0.015625)"/>
       <path id="DejaVuSans-75" d="M 544 1381 
L 544 3500 
L 1119 3500 
L 1119 1403 
Q 1119 906 1312 657 
Q 1506 409 1894 409 
Q 2359 409 2629 706 
Q 2900 1003 2900 1516 
L 2900 3500 
L 3475 3500 
L 3475 0 
L 2900 0 
L 2900 538 
Q 2691 219 2414 64 
Q 2138 -91 1772 -91 
Q 1169 -91 856 284 
Q 544 659 544 1381 
z
M 1991 3584 
L 1991 3584 
z
" transform="scale(0.015625)"/>
       <path id="DejaVuSans-65" d="M 3597 1894 
L 3597 1613 
L 953 1613 
Q 991 1019 1311 708 
Q 1631 397 2203 397 
Q 2534 397 2845 478 
Q 3156 559 3463 722 
L 3463 178 
Q 3153 47 2828 -22 
Q 2503 -91 2169 -91 
Q 1331 -91 842 396 
Q 353 884 353 1716 
Q 353 2575 817 3079 
Q 1281 3584 2069 3584 
Q 2775 3584 3186 3129 
Q 3597 2675 3597 1894 
z
M 3022 2063 
Q 3016 2534 2758 2815 
Q 2500 3097 2075 3097 
Q 1594 3097 1305 2825 
Q 1016 2553 972 2059 
L 3022 2063 
z
" transform="scale(0.015625)"/>
       <path id="DejaVuSans-74" d="M 1172 4494 
L 1172 3500 
L 2356 3500 
L 2356 3053 
L 1172 3053 
L 1172 1153 
Q 1172 725 1289 603 
Q 1406 481 1766 481 
L 2356 481 
L 2356 0 
L 1766 0 
Q 1100 0 847 248 
Q 594 497 594 1153 
L 594 3053 
L 172 3053 
L 172 3500 
L 594 3500 
L 594 4494 
L 1172 4494 
z
" transform="scale(0.015625)"/>
       <path id="DejaVuSans-20" transform="scale(0.015625)"/>
       <path id="DejaVuSans-63" d="M 3122 3366 
L 3122 2828 
Q 2878 2963 2633 3030 
Q 2388 3097 2138 3097 
Q 1578 3097 1268 2742 
Q 959 2388 959 1747 
Q 959 1106 1268 751 
Q 1578 397 2138 397 
Q 2388 397 2633 464 
Q 2878 531 3122 666 
L 3122 134 
Q 2881 22 2623 -34 
Q 2366 -91 2075 -91 
Q 1284 -91 818 406 
Q 353 903 353 1747 
Q 353 2603 823 3093 
Q 1294 3584 2113 3584 
Q 2378 3584 2631 3529 
Q 2884 3475 3122 3366 
z
" transform="scale(0.015625)"/>
       <path id="DejaVuSans-66" d="M 2375 4863 
L 2375 4384 
L 1825 4384 
Q 1516 4384 1395 4259 
Q 1275 4134 1275 3809 
L 1275 3500 
L 2222 3500 
L 2222 3053 
L 1275 3053 
L 1275 0 
L 697 0 
L 697 3053 
L 147 3053 
L 147 3500 
L 697 3500 
L 697 3744 
Q 697 4328 969 4595 
Q 1241 4863 1831 4863 
L 2375 4863 
z
" transform="scale(0.015625)"/>
       <path id="DejaVuSans-6e" d="M 3513 2113 
L 3513 0 
L 2938 0 
L 2938 2094 
Q 2938 2591 2744 2837 
Q 2550 3084 2163 3084 
Q 1697 3084 1428 2787 
Q 1159 2491 1159 1978 
L 1159 0 
L 581 0 
L 581 3500 
L 1159 3500 
L 1159 2956 
Q 1366 3272 1645 3428 
Q 1925 3584 2291 3584 
Q 2894 3584 3203 3211 
Q 3513 2838 3513 2113 
z
" transform="scale(0.015625)"/>
      </defs>
      <use xlink:href="#DejaVuSans-53"/>
      <use xlink:href="#DejaVuSans-69" x="63.476562"/>
      <use xlink:href="#DejaVuSans-6c" x="91.259766"/>
      <use xlink:href="#DejaVuSans-68" x="119.042969"/>
      <use xlink:href="#DejaVuSans-6f" x="182.421875"/>
      <use xlink:href="#DejaVuSans-75" x="243.603516"/>
      <use xlink:href="#DejaVuSans-65" x="306.982422"/>
      <use xlink:href="#DejaVuSans-74" x="368.505859"/>
      <use xlink:href="#DejaVuSans-74" x="407.714844"/>
      <use xlink:href="#DejaVuSans-65" x="446.923828"/>
      <use xlink:href="#DejaVuSans-20" x="508.447266"/>
      <use xlink:href="#DejaVuSans-63" x="540.234375"/>
      <use xlink:href="#DejaVuSans-6f" x="595.214844"/>
      <use xlink:href="#DejaVuSans-65" x="656.396484"/>
      <use xlink:href="#DejaVuSans-66" x="717.919922"/>
      <use xlink:href="#DejaVuSans-66" x="753.125"/>
      <use xlink:href="#DejaVuSans-69" x="788.330078"/>
      <use xlink:href="#DejaVuSans-63" x="816.113281"/>
      <use xlink:href="#DejaVuSans-69" x="871.09375"/>
      <use xlink:href="#DejaVuSans-65" x="898.876953"/>
      <use xlink:href="#DejaVuSans-6e" x="960.400391"/>
      <use xlink:href="#DejaVuSans-74" x="1023.779297"/>
     </g>
    </g>
   </g>
   <g id="matplotlib.axis_2">
    <g id="text_13">
     <!-- Predicted label -->
     <g transform="translate(18.398438 382.481276) rotate(-90) scale(0.1 -0.1)">
      <defs>
       <path id="DejaVuSans-50" d="M 1259 4147 
L 1259 2394 
L 2053 2394 
Q 2494 2394 2734 2622 
Q 2975 2850 2975 3272 
Q 2975 3691 2734 3919 
Q 2494 4147 2053 4147 
L 1259 4147 
z
M 628 4666 
L 2053 4666 
Q 2838 4666 3239 4311 
Q 3641 3956 3641 3272 
Q 3641 2581 3239 2228 
Q 2838 1875 2053 1875 
L 1259 1875 
L 1259 0 
L 628 0 
L 628 4666 
z
" transform="scale(0.015625)"/>
       <path id="DejaVuSans-72" d="M 2631 2963 
Q 2534 3019 2420 3045 
Q 2306 3072 2169 3072 
Q 1681 3072 1420 2755 
Q 1159 2438 1159 1844 
L 1159 0 
L 581 0 
L 581 3500 
L 1159 3500 
L 1159 2956 
Q 1341 3275 1631 3429 
Q 1922 3584 2338 3584 
Q 2397 3584 2469 3576 
Q 2541 3569 2628 3553 
L 2631 2963 
z
" transform="scale(0.015625)"/>
       <path id="DejaVuSans-64" d="M 2906 2969 
L 2906 4863 
L 3481 4863 
L 3481 0 
L 2906 0 
L 2906 525 
Q 2725 213 2448 61 
Q 2172 -91 1784 -91 
Q 1150 -91 751 415 
Q 353 922 353 1747 
Q 353 2572 751 3078 
Q 1150 3584 1784 3584 
Q 2172 3584 2448 3432 
Q 2725 3281 2906 2969 
z
M 947 1747 
Q 947 1113 1208 752 
Q 1469 391 1925 391 
Q 2381 391 2643 752 
Q 2906 1113 2906 1747 
Q 2906 2381 2643 2742 
Q 2381 3103 1925 3103 
Q 1469 3103 1208 2742 
Q 947 2381 947 1747 
z
" transform="scale(0.015625)"/>
       <path id="DejaVuSans-61" d="M 2194 1759 
Q 1497 1759 1228 1600 
Q 959 1441 959 1056 
Q 959 750 1161 570 
Q 1363 391 1709 391 
Q 2188 391 2477 730 
Q 2766 1069 2766 1631 
L 2766 1759 
L 2194 1759 
z
M 3341 1997 
L 3341 0 
L 2766 0 
L 2766 531 
Q 2569 213 2275 61 
Q 1981 -91 1556 -91 
Q 1019 -91 701 211 
Q 384 513 384 1019 
Q 384 1609 779 1909 
Q 1175 2209 1959 2209 
L 2766 2209 
L 2766 2266 
Q 2766 2663 2505 2880 
Q 2244 3097 1772 3097 
Q 1472 3097 1187 3025 
Q 903 2953 641 2809 
L 641 3341 
Q 956 3463 1253 3523 
Q 1550 3584 1831 3584 
Q 2591 3584 2966 3190 
Q 3341 2797 3341 1997 
z
" transform="scale(0.015625)"/>
       <path id="DejaVuSans-62" d="M 3116 1747 
Q 3116 2381 2855 2742 
Q 2594 3103 2138 3103 
Q 1681 3103 1420 2742 
Q 1159 2381 1159 1747 
Q 1159 1113 1420 752 
Q 1681 391 2138 391 
Q 2594 391 2855 752 
Q 3116 1113 3116 1747 
z
M 1159 2969 
Q 1341 3281 1617 3432 
Q 1894 3584 2278 3584 
Q 2916 3584 3314 3078 
Q 3713 2572 3713 1747 
Q 3713 922 3314 415 
Q 2916 -91 2278 -91 
Q 1894 -91 1617 61 
Q 1341 213 1159 525 
L 1159 0 
L 581 0 
L 581 4863 
L 1159 4863 
L 1159 2969 
z
" transform="scale(0.015625)"/>
      </defs>
      <use xlink:href="#DejaVuSans-50"/>
      <use xlink:href="#DejaVuSans-72" x="58.552734"/>
      <use xlink:href="#DejaVuSans-65" x="97.416016"/>
      <use xlink:href="#DejaVuSans-64" x="158.939453"/>
      <use xlink:href="#DejaVuSans-69" x="222.416016"/>
      <use xlink:href="#DejaVuSans-63" x="250.199219"/>
      <use xlink:href="#DejaVuSans-74" x="305.179688"/>
      <use xlink:href="#DejaVuSans-65" x="344.388672"/>
      <use xlink:href="#DejaVuSans-64" x="405.912109"/>
      <use xlink:href="#DejaVuSans-20" x="469.388672"/>
      <use xlink:href="#DejaVuSans-6c" x="501.175781"/>
      <use xlink:href="#DejaVuSans-61" x="528.958984"/>
      <use xlink:href="#DejaVuSans-62" x="590.238281"/>
      <use xlink:href="#DejaVuSans-65" x="653.714844"/>
      <use xlink:href="#DejaVuSans-6c" x="715.238281"/>
     </g>
    </g>
   </g>
   <g id="line2d_12">
    <path d="M 458.621184 678.84375 
L 458.621184 11.814114 
" clip-path="url(#p202120373c)" style="fill: none; stroke: #ff0000; stroke-width: 1.5; stroke-linecap: square"/>
   </g>
   <g id="patch_3">
    <path d="M 27.978125 678.84375 
L 27.978125 11.814114 
" style="fill: none; stroke: #000000; stroke-width: 0.8; stroke-linejoin: miter; stroke-linecap: square"/>
   </g>
   <g id="patch_4">
    <path d="M 701.248437 678.84375 
L 701.248437 11.814114 
" style="fill: none; stroke: #000000; stroke-width: 0.8; stroke-linejoin: miter; stroke-linecap: square"/>
   </g>
   <g id="patch_5">
    <path d="M 27.978125 678.84375 
L 701.248437 678.84375 
" style="fill: none; stroke: #000000; stroke-width: 0.8; stroke-linejoin: miter; stroke-linecap: square"/>
   </g>
   <g id="patch_6">
    <path d="M 27.978125 11.814114 
L 701.248437 11.814114 
" style="fill: none; stroke: #000000; stroke-width: 0.8; stroke-linejoin: miter; stroke-linecap: square"/>
   </g>
   <g id="text_14">
    <!-- 0 -->
    <g transform="translate(347.781523 636.461226) scale(0.1 -0.1)">
     <use xlink:href="#DejaVuSans-30"/>
    </g>
   </g>
   <g id="text_15">
    <!-- 1 -->
    <g transform="translate(347.781523 554.072767) scale(0.1 -0.1)">
     <use xlink:href="#DejaVuSans-31"/>
    </g>
   </g>
   <g id="text_16">
    <!-- 2 -->
    <g transform="translate(347.781523 504.956571) scale(0.1 -0.1)">
     <use xlink:href="#DejaVuSans-32"/>
    </g>
   </g>
   <g id="text_17">
    <!-- 3 -->
    <g transform="translate(347.781523 490.300931) scale(0.1 -0.1)">
     <defs>
      <path id="DejaVuSans-33" d="M 2597 2516 
Q 3050 2419 3304 2112 
Q 3559 1806 3559 1356 
Q 3559 666 3084 287 
Q 2609 -91 1734 -91 
Q 1441 -91 1130 -33 
Q 819 25 488 141 
L 488 750 
Q 750 597 1062 519 
Q 1375 441 1716 441 
Q 2309 441 2620 675 
Q 2931 909 2931 1356 
Q 2931 1769 2642 2001 
Q 2353 2234 1838 2234 
L 1294 2234 
L 1294 2753 
L 1863 2753 
Q 2328 2753 2575 2939 
Q 2822 3125 2822 3475 
Q 2822 3834 2567 4026 
Q 2313 4219 1838 4219 
Q 1578 4219 1281 4162 
Q 984 4106 628 3988 
L 628 4550 
Q 988 4650 1302 4700 
Q 1616 4750 1894 4750 
Q 2613 4750 3031 4423 
Q 3450 4097 3450 3541 
Q 3450 3153 3228 2886 
Q 3006 2619 2597 2516 
z
" transform="scale(0.015625)"/>
     </defs>
     <use xlink:href="#DejaVuSans-33"/>
    </g>
   </g>
   <g id="text_18">
    <!-- 4 -->
    <g transform="translate(347.781523 458.613063) scale(0.1 -0.1)">
     <use xlink:href="#DejaVuSans-34"/>
    </g>
   </g>
   <g id="text_19">
    <!-- 5 -->
    <g transform="translate(347.781523 428.905686) scale(0.1 -0.1)">
     <defs>
      <path id="DejaVuSans-35" d="M 691 4666 
L 3169 4666 
L 3169 4134 
L 1269 4134 
L 1269 2991 
Q 1406 3038 1543 3061 
Q 1681 3084 1819 3084 
Q 2600 3084 3056 2656 
Q 3513 2228 3513 1497 
Q 3513 744 3044 326 
Q 2575 -91 1722 -91 
Q 1428 -91 1123 -41 
Q 819 9 494 109 
L 494 744 
Q 775 591 1075 516 
Q 1375 441 1709 441 
Q 2250 441 2565 725 
Q 2881 1009 2881 1497 
Q 2881 1984 2565 2268 
Q 2250 2553 1709 2553 
Q 1456 2553 1204 2497 
Q 953 2441 691 2322 
L 691 4666 
z
" transform="scale(0.015625)"/>
     </defs>
     <use xlink:href="#DejaVuSans-35"/>
    </g>
   </g>
   <g id="text_20">
    <!-- 6 -->
    <g transform="translate(347.781523 391.276342) scale(0.1 -0.1)">
     <use xlink:href="#DejaVuSans-36"/>
    </g>
   </g>
   <g id="text_21">
    <!-- 7 -->
    <g transform="translate(347.781523 354.043096) scale(0.1 -0.1)">
     <defs>
      <path id="DejaVuSans-37" d="M 525 4666 
L 3525 4666 
L 3525 4397 
L 1831 0 
L 1172 0 
L 2766 4134 
L 525 4134 
L 525 4666 
z
" transform="scale(0.015625)"/>
     </defs>
     <use xlink:href="#DejaVuSans-37"/>
    </g>
   </g>
   <g id="text_22">
    <!-- 8 -->
    <g transform="translate(347.781523 335.030375) scale(0.1 -0.1)">
     <use xlink:href="#DejaVuSans-38"/>
    </g>
   </g>
   <g id="text_23">
    <!-- 9 -->
    <g transform="translate(347.781523 296.608834) scale(0.1 -0.1)">
     <defs>
      <path id="DejaVuSans-39" d="M 703 97 
L 703 672 
Q 941 559 1184 500 
Q 1428 441 1663 441 
Q 2288 441 2617 861 
Q 2947 1281 2994 2138 
Q 2813 1869 2534 1725 
Q 2256 1581 1919 1581 
Q 1219 1581 811 2004 
Q 403 2428 403 3163 
Q 403 3881 828 4315 
Q 1253 4750 1959 4750 
Q 2769 4750 3195 4129 
Q 3622 3509 3622 2328 
Q 3622 1225 3098 567 
Q 2575 -91 1691 -91 
Q 1453 -91 1209 -44 
Q 966 3 703 97 
z
M 1959 2075 
Q 2384 2075 2632 2365 
Q 2881 2656 2881 3163 
Q 2881 3666 2632 3958 
Q 2384 4250 1959 4250 
Q 1534 4250 1286 3958 
Q 1038 3666 1038 3163 
Q 1038 2656 1286 2365 
Q 1534 2075 1959 2075 
z
" transform="scale(0.015625)"/>
     </defs>
     <use xlink:href="#DejaVuSans-39"/>
    </g>
   </g>
   <g id="text_24">
    <!-- 10 -->
    <g transform="translate(347.781523 256.998998) scale(0.1 -0.1)">
     <use xlink:href="#DejaVuSans-31"/>
     <use xlink:href="#DejaVuSans-30" x="63.623047"/>
    </g>
   </g>
   <g id="text_25">
    <!-- 11 -->
    <g transform="translate(347.781523 160.350999) scale(0.1 -0.1)">
     <use xlink:href="#DejaVuSans-31"/>
     <use xlink:href="#DejaVuSans-31" x="63.623047"/>
    </g>
   </g>
   <g id="text_26">
    <!-- 12 -->
    <g transform="translate(347.781523 65.287393) scale(0.1 -0.1)">
     <use xlink:href="#DejaVuSans-31"/>
     <use xlink:href="#DejaVuSans-32" x="63.623047"/>
    </g>
   </g>
   <g id="text_27">
    <!-- 13 -->
    <g transform="translate(347.781523 47.462967) scale(0.1 -0.1)">
     <use xlink:href="#DejaVuSans-31"/>
     <use xlink:href="#DejaVuSans-33" x="63.623047"/>
    </g>
   </g>
   <g id="text_28">
    <!-- 14 -->
    <g transform="translate(347.781523 33.599524) scale(0.1 -0.1)">
     <use xlink:href="#DejaVuSans-31"/>
     <use xlink:href="#DejaVuSans-34" x="63.623047"/>
    </g>
   </g>
   <g id="text_29">
    <!-- 15 -->
    <g transform="translate(347.781523 20.924377) scale(0.1 -0.1)">
     <use xlink:href="#DejaVuSans-31"/>
     <use xlink:href="#DejaVuSans-35" x="63.623047"/>
    </g>
   </g>
   <g id="text_30">
    <!-- 0.2793 -->
    <g style="fill: #ff0000" transform="translate(475.452941 19.736082) scale(0.1 -0.1)">
     <use xlink:href="#DejaVuSans-30"/>
     <use xlink:href="#DejaVuSans-2e" x="63.623047"/>
     <use xlink:href="#DejaVuSans-32" x="95.410156"/>
     <use xlink:href="#DejaVuSans-37" x="159.033203"/>
     <use xlink:href="#DejaVuSans-39" x="222.65625"/>
     <use xlink:href="#DejaVuSans-33" x="286.279297"/>
    </g>
   </g>
  </g>
 </g>
 <defs>
  <clipPath id="p202120373c">
   <rect x="27.978125" y="11.814114" width="673.270312" height="667.029636"/>
  </clipPath>
 </defs>
</svg>
