<?xml version="1.0" encoding="utf-8" standalone="no"?>
<!DOCTYPE svg PUBLIC "-//W3C//DTD SVG 1.1//EN"
  "http://www.w3.org/Graphics/SVG/1.1/DTD/svg11.dtd">
<svg xmlns:xlink="http://www.w3.org/1999/xlink" width="720pt" height="576pt" viewBox="0 0 720 576" xmlns="http://www.w3.org/2000/svg" version="1.1">
 <metadata>
  <rdf:RDF xmlns:dc="http://purl.org/dc/elements/1.1/" xmlns:cc="http://creativecommons.org/ns#" xmlns:rdf="http://www.w3.org/1999/02/22-rdf-syntax-ns#">
   <cc:Work>
    <dc:type rdf:resource="http://purl.org/dc/dcmitype/StillImage"/>
    <dc:date>2022-11-21T18:18:01.737743</dc:date>
    <dc:format>image/svg+xml</dc:format>
    <dc:creator>
     <cc:Agent>
      <dc:title>Matplotlib v3.6.1, https://matplotlib.org/</dc:title>
     </cc:Agent>
    </dc:creator>
   </cc:Work>
  </rdf:RDF>
 </metadata>
 <defs>
  <style type="text/css">*{stroke-linejoin: round; stroke-linecap: butt}</style>
 </defs>
 <g id="figure_1">
  <g id="patch_1">
   <path d="M 0 576 
L 720 576 
L 720 0 
L 0 0 
z
" style="fill: #ffffff"/>
  </g>
  <g id="axes_1">
   <g id="patch_2">
    <path d="M 42.495313 510.648438 
L 693.296875 510.648438 
L 693.296875 24.528635 
L 42.495313 24.528635 
z
" style="fill: #ffffff"/>
   </g>
   <g id="PolyCollection_1">
    <defs>
     <path id="mf65bfc8ecb" d="M 372.971632 -71.124957 
L 367.896094 -71.124957 
L 367.896094 -71.702296 
L 367.896094 -72.279636 
L 367.896094 -72.856975 
L 367.896094 -73.434315 
L 367.896094 -74.011654 
L 367.896094 -74.588993 
L 367.896094 -75.166333 
L 367.896094 -75.743672 
L 367.896094 -76.321012 
L 367.896094 -76.898351 
L 367.896094 -77.475691 
L 367.896094 -78.05303 
L 367.896094 -78.630369 
L 367.896094 -79.207709 
L 367.896094 -79.785048 
L 367.896094 -80.362388 
L 367.896094 -80.939727 
L 367.896094 -81.517067 
L 367.896094 -82.094406 
L 367.896094 -82.671745 
L 367.896094 -83.249085 
L 367.896094 -83.826424 
L 367.896094 -84.403764 
L 367.896094 -84.981103 
L 367.896094 -85.558443 
L 367.896094 -86.135782 
L 367.896094 -86.713122 
L 367.896094 -87.290461 
L 367.896094 -87.8678 
L 367.896094 -88.44514 
L 367.896094 -89.022479 
L 367.896094 -89.599819 
L 367.896094 -90.177158 
L 367.896094 -90.754498 
L 367.896094 -91.331837 
L 367.896094 -91.909176 
L 367.896094 -92.486516 
L 367.896094 -93.063855 
L 367.896094 -93.641195 
L 367.896094 -94.218534 
L 367.896094 -94.795874 
L 367.896094 -95.373213 
L 367.896094 -95.950552 
L 367.896094 -96.527892 
L 367.896094 -97.105231 
L 367.896094 -97.682571 
L 367.896094 -98.25991 
L 367.896094 -98.83725 
L 367.896094 -99.414589 
L 367.896094 -99.991928 
L 367.896094 -100.569268 
L 367.896094 -101.146607 
L 367.896094 -101.723947 
L 367.896094 -102.301286 
L 367.896094 -102.878626 
L 367.896094 -103.455965 
L 367.896094 -104.033304 
L 367.896094 -104.610644 
L 367.896094 -105.187983 
L 367.896094 -105.765323 
L 367.896094 -106.342662 
L 367.896094 -106.920002 
L 367.896094 -107.497341 
L 367.896094 -108.074681 
L 367.896094 -108.65202 
L 367.896094 -109.229359 
L 367.896094 -109.806699 
L 367.896094 -110.384038 
L 367.896094 -110.961378 
L 367.896094 -111.538717 
L 367.896094 -112.116057 
L 367.896094 -112.693396 
L 367.896094 -113.270735 
L 367.896094 -113.848075 
L 367.896094 -114.425414 
L 367.896094 -115.002754 
L 367.896094 -115.580093 
L 367.896094 -116.157433 
L 367.896094 -116.734772 
L 367.896094 -117.312111 
L 367.896094 -117.889451 
L 367.896094 -118.46679 
L 367.896094 -119.04413 
L 367.896094 -119.621469 
L 367.896094 -120.198809 
L 367.896094 -120.776148 
L 492.7725 -120.776148 
L 492.7725 -120.776148 
L 491.341229 -120.198809 
L 489.826366 -119.621469 
L 489.459947 -119.04413 
L 487.92457 -118.46679 
L 487.717971 -117.889451 
L 487.250257 -117.312111 
L 486.975523 -116.734772 
L 486.766563 -116.157433 
L 486.553094 -115.580093 
L 486.547167 -115.002754 
L 486.378426 -114.425414 
L 485.908817 -113.848075 
L 485.594511 -113.270735 
L 485.538095 -112.693396 
L 484.829637 -112.116057 
L 484.587491 -111.538717 
L 483.659392 -110.961378 
L 483.6099 -110.384038 
L 483.136073 -109.806699 
L 483.065431 -109.229359 
L 482.917318 -108.65202 
L 482.41601 -108.074681 
L 482.192661 -107.497341 
L 481.703665 -106.920002 
L 481.678793 -106.342662 
L 480.421912 -105.765323 
L 480.047269 -105.187983 
L 480.002581 -104.610644 
L 479.251384 -104.033304 
L 479.242832 -103.455965 
L 477.607628 -102.878626 
L 477.442357 -102.301286 
L 477.053351 -101.723947 
L 476.56835 -101.146607 
L 476.22932 -100.569268 
L 475.824328 -99.991928 
L 475.535369 -99.414589 
L 475.357943 -98.83725 
L 475.124739 -98.25991 
L 475.081278 -97.682571 
L 474.592257 -97.105231 
L 474.24583 -96.527892 
L 473.007828 -95.950552 
L 472.806134 -95.373213 
L 472.728066 -94.795874 
L 472.489018 -94.218534 
L 471.942657 -93.641195 
L 471.938987 -93.063855 
L 471.929667 -92.486516 
L 471.296189 -91.909176 
L 471.094878 -91.331837 
L 471.010788 -90.754498 
L 470.447599 -90.177158 
L 469.180203 -89.599819 
L 469.178182 -89.022479 
L 468.902571 -88.44514 
L 467.146068 -87.8678 
L 465.200851 -87.290461 
L 464.619299 -86.713122 
L 464.084583 -86.135782 
L 463.008793 -85.558443 
L 461.893819 -84.981103 
L 461.186947 -84.403764 
L 461.146488 -83.826424 
L 460.304793 -83.249085 
L 460.159119 -82.671745 
L 459.820967 -82.094406 
L 459.355051 -81.517067 
L 458.704969 -80.939727 
L 457.819546 -80.362388 
L 457.556041 -79.785048 
L 457.390733 -79.207709 
L 454.914256 -78.630369 
L 453.351752 -78.05303 
L 453.010715 -77.475691 
L 446.984336 -76.898351 
L 441.838692 -76.321012 
L 438.449925 -75.743672 
L 427.832833 -75.166333 
L 427.027294 -74.588993 
L 427.021318 -74.011654 
L 421.524464 -73.434315 
L 416.111916 -72.856975 
L 414.739879 -72.279636 
L 401.82678 -71.702296 
L 372.971632 -71.124957 
z
" style="stroke: #000000; stroke-opacity: 0.7"/>
    </defs>
    <g clip-path="url(#p0dc7db2cc6)">
     <use xlink:href="#mf65bfc8ecb" x="0" y="576" style="fill-opacity: 0.7; stroke: #000000; stroke-opacity: 0.7"/>
    </g>
   </g>
   <g id="PolyCollection_2">
    <defs>
     <path id="m3b194a4015" d="M 345.232373 -127.126882 
L 367.896094 -127.126882 
L 367.896094 -127.704221 
L 367.896094 -128.281561 
L 367.896094 -128.8589 
L 367.896094 -129.43624 
L 367.896094 -130.013579 
L 367.896094 -130.590918 
L 367.896094 -131.168258 
L 367.896094 -131.745597 
L 367.896094 -132.322937 
L 367.896094 -132.900276 
L 367.896094 -133.477616 
L 367.896094 -134.054955 
L 367.896094 -134.632294 
L 367.896094 -135.209634 
L 367.896094 -135.786973 
L 367.896094 -136.364313 
L 367.896094 -136.941652 
L 367.896094 -137.518992 
L 367.896094 -138.096331 
L 367.896094 -138.67367 
L 367.896094 -139.25101 
L 367.896094 -139.828349 
L 367.896094 -140.405689 
L 367.896094 -140.983028 
L 367.896094 -141.560368 
L 367.896094 -142.137707 
L 367.896094 -142.715046 
L 367.896094 -143.292386 
L 367.896094 -143.869725 
L 367.896094 -144.447065 
L 367.896094 -145.024404 
L 367.896094 -145.601744 
L 367.896094 -146.179083 
L 367.896094 -146.756422 
L 367.896094 -147.333762 
L 367.896094 -147.911101 
L 367.896094 -148.488441 
L 367.896094 -149.06578 
L 367.896094 -149.64312 
L 367.896094 -150.220459 
L 367.896094 -150.797799 
L 367.896094 -151.375138 
L 367.896094 -151.952477 
L 367.896094 -152.529817 
L 367.896094 -153.107156 
L 367.896094 -153.684496 
L 367.896094 -154.261835 
L 367.896094 -154.839175 
L 367.896094 -155.416514 
L 367.896094 -155.993853 
L 367.896094 -156.571193 
L 367.896094 -157.148532 
L 367.896094 -157.725872 
L 367.896094 -158.303211 
L 367.896094 -158.880551 
L 367.896094 -159.45789 
L 367.896094 -160.035229 
L 367.896094 -160.612569 
L 367.896094 -161.189908 
L 367.896094 -161.767248 
L 367.896094 -162.344587 
L 367.896094 -162.921927 
L 367.896094 -163.499266 
L 367.896094 -164.076605 
L 367.896094 -164.653945 
L 367.896094 -165.231284 
L 367.896094 -165.808624 
L 367.896094 -166.385963 
L 367.896094 -166.963303 
L 367.896094 -167.540642 
L 367.896094 -168.117981 
L 367.896094 -168.695321 
L 367.896094 -169.27266 
L 367.896094 -169.85 
L 367.896094 -170.427339 
L 367.896094 -171.004679 
L 367.896094 -171.582018 
L 367.896094 -172.159358 
L 367.896094 -172.736697 
L 367.896094 -173.314036 
L 367.896094 -173.891376 
L 367.896094 -174.468715 
L 367.896094 -175.046055 
L 367.896094 -175.623394 
L 367.896094 -176.200734 
L 367.896094 -176.778073 
L 367.896094 -177.355412 
L 367.896094 -177.932752 
L 367.896094 -178.510091 
L 367.896094 -179.087431 
L 367.896094 -179.66477 
L 367.896094 -180.24211 
L 367.896094 -180.819449 
L 367.896094 -181.396788 
L 367.896094 -181.974128 
L 367.896094 -182.551467 
L 367.896094 -183.128807 
L 367.896094 -183.706146 
L 367.896094 -184.283486 
L 367.896094 -184.860825 
L 491.470977 -184.860825 
L 491.470977 -184.860825 
L 485.837382 -184.283486 
L 485.461265 -183.706146 
L 482.83354 -183.128807 
L 480.844126 -182.551467 
L 480.399173 -181.974128 
L 479.794667 -181.396788 
L 479.075933 -180.819449 
L 478.638038 -180.24211 
L 477.289721 -179.66477 
L 476.404254 -179.087431 
L 476.242783 -178.510091 
L 475.645117 -177.932752 
L 474.693198 -177.355412 
L 474.412419 -176.778073 
L 473.571092 -176.200734 
L 473.061233 -175.623394 
L 472.469577 -175.046055 
L 471.909222 -174.468715 
L 470.179721 -173.891376 
L 470.006647 -173.314036 
L 469.399134 -172.736697 
L 469.050871 -172.159358 
L 468.750849 -171.582018 
L 467.615467 -171.004679 
L 466.07091 -170.427339 
L 465.474435 -169.85 
L 465.357776 -169.27266 
L 464.379276 -168.695321 
L 464.14187 -168.117981 
L 463.473993 -167.540642 
L 462.627871 -166.963303 
L 462.145509 -166.385963 
L 461.883292 -165.808624 
L 461.028893 -165.231284 
L 460.741497 -164.653945 
L 460.455755 -164.076605 
L 459.803338 -163.499266 
L 459.042335 -162.921927 
L 457.409269 -162.344587 
L 456.861826 -161.767248 
L 456.467325 -161.189908 
L 456.235724 -160.612569 
L 455.718887 -160.035229 
L 455.152363 -159.45789 
L 452.948652 -158.880551 
L 452.729433 -158.303211 
L 452.256696 -157.725872 
L 451.486965 -157.148532 
L 450.351273 -156.571193 
L 450.134067 -155.993853 
L 449.158908 -155.416514 
L 448.048565 -154.839175 
L 447.015659 -154.261835 
L 444.058842 -153.684496 
L 443.208357 -153.107156 
L 439.836829 -152.529817 
L 439.051953 -151.952477 
L 438.532109 -151.375138 
L 437.40061 -150.797799 
L 436.9281 -150.220459 
L 436.832139 -149.64312 
L 435.112404 -149.06578 
L 427.844749 -148.488441 
L 427.646967 -147.911101 
L 427.442751 -147.333762 
L 425.162225 -146.756422 
L 423.678487 -146.179083 
L 422.705183 -145.601744 
L 421.88165 -145.024404 
L 421.554441 -144.447065 
L 415.542384 -143.869725 
L 414.444592 -143.292386 
L 412.818208 -142.715046 
L 412.499528 -142.137707 
L 410.325902 -141.560368 
L 409.797398 -140.983028 
L 406.570619 -140.405689 
L 406.473056 -139.828349 
L 406.464292 -139.25101 
L 406.259049 -138.67367 
L 404.185156 -138.096331 
L 403.471511 -137.518992 
L 401.91388 -136.941652 
L 400.526499 -136.364313 
L 399.056237 -135.786973 
L 390.974176 -135.209634 
L 390.082309 -134.632294 
L 388.547305 -134.054955 
L 388.441328 -133.477616 
L 387.837794 -132.900276 
L 384.981091 -132.322937 
L 383.60636 -131.745597 
L 381.896555 -131.168258 
L 379.082731 -130.590918 
L 375.414189 -130.013579 
L 369.738745 -129.43624 
L 364.299309 -128.8589 
L 358.31594 -128.281561 
L 347.361977 -127.704221 
L 345.232373 -127.126882 
z
" style="stroke: #7b008c; stroke-opacity: 0.7"/>
    </defs>
    <g clip-path="url(#p0dc7db2cc6)">
     <use xlink:href="#m3b194a4015" x="0" y="576" style="fill: #7b008c; fill-opacity: 0.7; stroke: #7b008c; stroke-opacity: 0.7"/>
    </g>
   </g>
   <g id="PolyCollection_3">
    <defs>
     <path id="md03f84b0af" d="M 368.909756 -191.211559 
L 367.896094 -191.211559 
L 367.896094 -191.788898 
L 367.896094 -192.366238 
L 402.379485 -192.366238 
L 402.379485 -192.366238 
L 400.689524 -191.788898 
L 368.909756 -191.211559 
z
" style="stroke: #4300a2; stroke-opacity: 0.7"/>
    </defs>
    <g clip-path="url(#p0dc7db2cc6)">
     <use xlink:href="#md03f84b0af" x="0" y="576" style="fill: #4300a2; fill-opacity: 0.7; stroke: #4300a2; stroke-opacity: 0.7"/>
    </g>
   </g>
   <g id="PolyCollection_4">
    <defs>
     <path id="m799c1f7350" d="M 413.732719 -198.716971 
L 367.896094 -198.716971 
L 367.896094 -199.294311 
L 367.896094 -199.87165 
L 367.896094 -200.44899 
L 367.896094 -201.026329 
L 367.896094 -201.603669 
L 367.896094 -202.181008 
L 367.896094 -202.758347 
L 367.896094 -203.335687 
L 367.896094 -203.913026 
L 367.896094 -204.490366 
L 367.896094 -205.067705 
L 367.896094 -205.645045 
L 367.896094 -206.222384 
L 450.739345 -206.222384 
L 450.739345 -206.222384 
L 447.900707 -205.645045 
L 447.425843 -205.067705 
L 447.251422 -204.490366 
L 447.137038 -203.913026 
L 445.699157 -203.335687 
L 445.093282 -202.758347 
L 440.269901 -202.181008 
L 440.269901 -201.603669 
L 437.137772 -201.026329 
L 435.255959 -200.44899 
L 429.232361 -199.87165 
L 426.124735 -199.294311 
L 413.732719 -198.716971 
z
" style="stroke: #0000d1; stroke-opacity: 0.7"/>
    </defs>
    <g clip-path="url(#p0dc7db2cc6)">
     <use xlink:href="#m799c1f7350" x="0" y="576" style="fill: #0000d1; fill-opacity: 0.7; stroke: #0000d1; stroke-opacity: 0.7"/>
    </g>
   </g>
   <g id="PolyCollection_5">
    <defs>
     <path id="m317212113b" d="M 409.175817 -212.573118 
L 367.896094 -212.573118 
L 367.896094 -213.150457 
L 367.896094 -213.727797 
L 367.896094 -214.305136 
L 367.896094 -214.882476 
L 367.896094 -215.459815 
L 367.896094 -216.037154 
L 367.896094 -216.614494 
L 367.896094 -217.191833 
L 367.896094 -217.769173 
L 367.896094 -218.346512 
L 367.896094 -218.923852 
L 367.896094 -219.501191 
L 367.896094 -220.07853 
L 367.896094 -220.65587 
L 367.896094 -221.233209 
L 367.896094 -221.810549 
L 367.896094 -222.387888 
L 367.896094 -222.965228 
L 367.896094 -223.542567 
L 367.896094 -224.119906 
L 367.896094 -224.697246 
L 367.896094 -225.274585 
L 367.896094 -225.851925 
L 367.896094 -226.429264 
L 367.896094 -227.006604 
L 367.896094 -227.583943 
L 367.896094 -228.161282 
L 367.896094 -228.738622 
L 367.896094 -229.315961 
L 367.896094 -229.893301 
L 367.896094 -230.47064 
L 367.896094 -231.04798 
L 367.896094 -231.625319 
L 367.896094 -232.202658 
L 367.896094 -232.779998 
L 367.896094 -233.357337 
L 367.896094 -233.934677 
L 367.896094 -234.512016 
L 367.896094 -235.089356 
L 367.896094 -235.666695 
L 367.896094 -236.244035 
L 367.896094 -236.821374 
L 367.896094 -237.398713 
L 367.896094 -237.976053 
L 367.896094 -238.553392 
L 539.642351 -238.553392 
L 539.642351 -238.553392 
L 539.636847 -237.976053 
L 535.676685 -237.398713 
L 535.157977 -236.821374 
L 531.236142 -236.244035 
L 527.665394 -235.666695 
L 526.505806 -235.089356 
L 525.566066 -234.512016 
L 525.244704 -233.934677 
L 522.723723 -233.357337 
L 522.309646 -232.779998 
L 518.852458 -232.202658 
L 515.681281 -231.625319 
L 514.507249 -231.04798 
L 514.507249 -230.47064 
L 513.867043 -229.893301 
L 513.299167 -229.315961 
L 511.721328 -228.738622 
L 509.662185 -228.161282 
L 509.063467 -227.583943 
L 505.22112 -227.006604 
L 504.351336 -226.429264 
L 503.800601 -225.851925 
L 501.622861 -225.274585 
L 501.161548 -224.697246 
L 500.929163 -224.119906 
L 499.372708 -223.542567 
L 495.34467 -222.965228 
L 494.529199 -222.387888 
L 494.470068 -221.810549 
L 493.839423 -221.233209 
L 491.545494 -220.65587 
L 489.849721 -220.07853 
L 488.770365 -219.501191 
L 483.353628 -218.923852 
L 477.881581 -218.346512 
L 475.468449 -217.769173 
L 474.50585 -217.191833 
L 474.350519 -216.614494 
L 468.342015 -216.037154 
L 465.330539 -215.459815 
L 461.446325 -214.882476 
L 456.866562 -214.305136 
L 430.410599 -213.727797 
L 409.564331 -213.150457 
L 409.175817 -212.573118 
z
" style="stroke: #0078dd; stroke-opacity: 0.7"/>
    </defs>
    <g clip-path="url(#p0dc7db2cc6)">
     <use xlink:href="#m317212113b" x="0" y="576" style="fill: #0078dd; fill-opacity: 0.7; stroke: #0078dd; stroke-opacity: 0.7"/>
    </g>
   </g>
   <g id="PolyCollection_6">
    <defs>
     <path id="m01e465df9b" d="M 392.649786 -244.904126 
L 367.896094 -244.904126 
L 367.896094 -245.481465 
L 367.896094 -246.058805 
L 367.896094 -246.636144 
L 367.896094 -247.213484 
L 367.896094 -247.790823 
L 367.896094 -248.368163 
L 367.896094 -248.945502 
L 367.896094 -249.522841 
L 495.525828 -249.522841 
L 495.525828 -249.522841 
L 488.824588 -248.945502 
L 483.353966 -248.368163 
L 474.170371 -247.790823 
L 449.329035 -247.213484 
L 429.948513 -246.636144 
L 425.586761 -246.058805 
L 421.799819 -245.481465 
L 392.649786 -244.904126 
z
" style="stroke: #009ecf; stroke-opacity: 0.7"/>
    </defs>
    <g clip-path="url(#p0dc7db2cc6)">
     <use xlink:href="#m01e465df9b" x="0" y="576" style="fill: #009ecf; fill-opacity: 0.7; stroke: #009ecf; stroke-opacity: 0.7"/>
    </g>
   </g>
   <g id="PolyCollection_7">
    <defs>
     <path id="m9e79742396" d="M 366.834835 -255.873575 
L 367.896094 -255.873575 
L 367.896094 -256.450915 
L 367.896094 -257.028254 
L 367.896094 -257.605594 
L 367.896094 -258.182933 
L 367.896094 -258.760272 
L 367.896094 -259.337612 
L 367.896094 -259.914951 
L 367.896094 -260.492291 
L 367.896094 -261.06963 
L 367.896094 -261.64697 
L 367.896094 -262.224309 
L 367.896094 -262.801648 
L 367.896094 -263.378988 
L 367.896094 -263.956327 
L 367.896094 -264.533667 
L 367.896094 -265.111006 
L 367.896094 -265.688346 
L 367.896094 -266.265685 
L 367.896094 -266.843024 
L 367.896094 -267.420364 
L 367.896094 -267.997703 
L 367.896094 -268.575043 
L 367.896094 -269.152382 
L 367.896094 -269.729722 
L 367.896094 -270.307061 
L 367.896094 -270.8844 
L 367.896094 -271.46174 
L 367.896094 -272.039079 
L 367.896094 -272.616419 
L 367.896094 -273.193758 
L 367.896094 -273.771098 
L 367.896094 -274.348437 
L 367.896094 -274.925777 
L 367.896094 -275.503116 
L 367.896094 -276.080455 
L 367.896094 -276.657795 
L 367.896094 -277.235134 
L 367.896094 -277.812474 
L 367.896094 -278.389813 
L 367.896094 -278.967153 
L 367.896094 -279.544492 
L 367.896094 -280.121831 
L 367.896094 -280.699171 
L 367.896094 -281.27651 
L 367.896094 -281.85385 
L 367.896094 -282.431189 
L 367.896094 -283.008529 
L 367.896094 -283.585868 
L 367.896094 -284.163207 
L 367.896094 -284.740547 
L 367.896094 -285.317886 
L 367.896094 -285.895226 
L 367.896094 -286.472565 
L 367.896094 -287.049905 
L 367.896094 -287.627244 
L 367.896094 -288.204583 
L 367.896094 -288.781923 
L 367.896094 -289.359262 
L 367.896094 -289.936602 
L 367.896094 -290.513941 
L 367.896094 -291.091281 
L 367.896094 -291.66862 
L 367.896094 -292.245959 
L 367.896094 -292.823299 
L 367.896094 -293.400638 
L 486.192804 -293.400638 
L 486.192804 -293.400638 
L 485.191934 -292.823299 
L 481.23967 -292.245959 
L 479.952194 -291.66862 
L 477.870788 -291.091281 
L 477.823013 -290.513941 
L 475.971066 -289.936602 
L 472.686925 -289.359262 
L 472.555379 -288.781923 
L 469.474403 -288.204583 
L 468.332703 -287.627244 
L 467.286055 -287.049905 
L 465.479962 -286.472565 
L 465.039243 -285.895226 
L 465.039243 -285.317886 
L 464.928308 -284.740547 
L 464.211282 -284.163207 
L 463.965235 -283.585868 
L 462.792993 -283.008529 
L 462.005446 -282.431189 
L 461.565811 -281.85385 
L 461.467355 -281.27651 
L 461.189772 -280.699171 
L 461.156557 -280.121831 
L 459.752374 -279.544492 
L 459.176013 -278.967153 
L 459.149435 -278.389813 
L 458.565353 -277.812474 
L 457.839012 -277.235134 
L 457.039181 -276.657795 
L 456.754268 -276.080455 
L 455.075687 -275.503116 
L 454.542316 -274.925777 
L 451.160004 -274.348437 
L 449.397937 -273.771098 
L 449.365047 -273.193758 
L 448.181339 -272.616419 
L 444.69421 -272.039079 
L 442.848782 -271.46174 
L 440.388665 -270.8844 
L 440.072606 -270.307061 
L 438.76822 -269.729722 
L 437.077453 -269.152382 
L 437.054927 -268.575043 
L 435.548432 -267.997703 
L 435.522836 -267.420364 
L 435.449716 -266.843024 
L 434.13944 -266.265685 
L 433.435712 -265.688346 
L 432.933578 -265.111006 
L 432.925014 -264.533667 
L 430.562967 -263.956327 
L 428.346379 -263.378988 
L 427.80226 -262.801648 
L 424.505978 -262.224309 
L 422.304416 -261.64697 
L 420.234111 -261.06963 
L 414.859216 -260.492291 
L 409.810583 -259.914951 
L 408.010886 -259.337612 
L 405.276516 -258.760272 
L 392.313901 -258.182933 
L 389.02285 -257.605594 
L 372.362985 -257.028254 
L 372.158072 -256.450915 
L 366.834835 -255.873575 
z
" style="stroke: #00aa98; stroke-opacity: 0.7"/>
    </defs>
    <g clip-path="url(#p0dc7db2cc6)">
     <use xlink:href="#m9e79742396" x="0" y="576" style="fill: #00aa98; fill-opacity: 0.7; stroke: #00aa98; stroke-opacity: 0.7"/>
    </g>
   </g>
   <g id="PolyCollection_8">
    <defs>
     <path id="mb010a640e1" d="M 490.990005 -299.751372 
L 367.896094 -299.751372 
L 367.896094 -300.328712 
L 367.896094 -300.906051 
L 367.896094 -301.48339 
L 367.896094 -302.06073 
L 367.896094 -302.638069 
L 367.896094 -303.215409 
L 367.896094 -303.792748 
L 547.776772 -303.792748 
L 547.776772 -303.792748 
L 539.306177 -303.215409 
L 535.250714 -302.638069 
L 528.909436 -302.06073 
L 526.09831 -301.48339 
L 519.416979 -300.906051 
L 498.878215 -300.328712 
L 490.990005 -299.751372 
z
" style="stroke: #009d1d; stroke-opacity: 0.7"/>
    </defs>
    <g clip-path="url(#p0dc7db2cc6)">
     <use xlink:href="#mb010a640e1" x="0" y="576" style="fill: #009d1d; fill-opacity: 0.7; stroke: #009d1d; stroke-opacity: 0.7"/>
    </g>
   </g>
   <g id="PolyCollection_9">
    <defs>
     <path id="md46fc515ae" d="M 375.02674 -310.143482 
L 367.896094 -310.143482 
L 367.896094 -310.720821 
L 367.896094 -311.298161 
L 367.896094 -311.8755 
L 367.896094 -312.45284 
L 367.896094 -313.030179 
L 367.896094 -313.607518 
L 367.896094 -314.184858 
L 367.896094 -314.762197 
L 367.896094 -315.339537 
L 367.896094 -315.916876 
L 367.896094 -316.494216 
L 367.896094 -317.071555 
L 367.896094 -317.648895 
L 367.896094 -318.226234 
L 367.896094 -318.803573 
L 367.896094 -319.380913 
L 367.896094 -319.958252 
L 367.896094 -320.535592 
L 367.896094 -321.112931 
L 466.392801 -321.112931 
L 466.392801 -321.112931 
L 464.204545 -320.535592 
L 463.109313 -319.958252 
L 461.191312 -319.380913 
L 459.238526 -318.803573 
L 457.699654 -318.226234 
L 448.006261 -317.648895 
L 445.055002 -317.071555 
L 441.925796 -316.494216 
L 436.89384 -315.916876 
L 428.271752 -315.339537 
L 427.772624 -314.762197 
L 426.139202 -314.184858 
L 421.13915 -313.607518 
L 421.013643 -313.030179 
L 421.010413 -312.45284 
L 420.303689 -311.8755 
L 413.346126 -311.298161 
L 407.929731 -310.720821 
L 375.02674 -310.143482 
z
" style="stroke: #00bc00; stroke-opacity: 0.7"/>
    </defs>
    <g clip-path="url(#p0dc7db2cc6)">
     <use xlink:href="#md46fc515ae" x="0" y="576" style="fill: #00bc00; fill-opacity: 0.7; stroke: #00bc00; stroke-opacity: 0.7"/>
    </g>
   </g>
   <g id="PolyCollection_10">
    <defs>
     <path id="mdd76ae3dee" d="M 354.733796 -327.463665 
L 367.896094 -327.463665 
L 367.896094 -328.041004 
L 367.896094 -328.618344 
L 367.896094 -329.195683 
L 367.896094 -329.773023 
L 367.896094 -330.350362 
L 367.896094 -330.927701 
L 367.896094 -331.505041 
L 367.896094 -332.08238 
L 367.896094 -332.65972 
L 367.896094 -333.237059 
L 367.896094 -333.814399 
L 367.896094 -334.391738 
L 367.896094 -334.969077 
L 367.896094 -335.546417 
L 367.896094 -336.123756 
L 367.896094 -336.701096 
L 367.896094 -337.278435 
L 367.896094 -337.855775 
L 367.896094 -338.433114 
L 367.896094 -339.010454 
L 367.896094 -339.587793 
L 367.896094 -340.165132 
L 367.896094 -340.742472 
L 367.896094 -341.319811 
L 367.896094 -341.897151 
L 367.896094 -342.47449 
L 367.896094 -343.05183 
L 367.896094 -343.629169 
L 367.896094 -344.206508 
L 367.896094 -344.783848 
L 367.896094 -345.361187 
L 367.896094 -345.938527 
L 367.896094 -346.515866 
L 367.896094 -347.093206 
L 367.896094 -347.670545 
L 367.896094 -348.247884 
L 367.896094 -348.825224 
L 367.896094 -349.402563 
L 367.896094 -349.979903 
L 367.896094 -350.557242 
L 367.896094 -351.134582 
L 367.896094 -351.711921 
L 367.896094 -352.28926 
L 367.896094 -352.8666 
L 367.896094 -353.443939 
L 367.896094 -354.021279 
L 367.896094 -354.598618 
L 367.896094 -355.175958 
L 367.896094 -355.753297 
L 367.896094 -356.330636 
L 367.896094 -356.907976 
L 367.896094 -357.485315 
L 367.896094 -358.062655 
L 367.896094 -358.639994 
L 367.896094 -359.217334 
L 367.896094 -359.794673 
L 493.317737 -359.794673 
L 493.317737 -359.794673 
L 489.521345 -359.217334 
L 487.908622 -358.639994 
L 483.864248 -358.062655 
L 483.864248 -357.485315 
L 482.757316 -356.907976 
L 481.045295 -356.330636 
L 481.045295 -355.753297 
L 478.430587 -355.175958 
L 478.10105 -354.598618 
L 474.128086 -354.021279 
L 473.612441 -353.443939 
L 473.481841 -352.8666 
L 473.292264 -352.28926 
L 467.715449 -351.711921 
L 465.050051 -351.134582 
L 461.827732 -350.557242 
L 460.900124 -349.979903 
L 460.853186 -349.402563 
L 459.570553 -348.825224 
L 458.328718 -348.247884 
L 457.892607 -347.670545 
L 455.891579 -347.093206 
L 455.891579 -346.515866 
L 454.96502 -345.938527 
L 451.735478 -345.361187 
L 450.673244 -344.783848 
L 450.487915 -344.206508 
L 448.913785 -343.629169 
L 446.967781 -343.05183 
L 443.884494 -342.47449 
L 443.677724 -341.897151 
L 442.465518 -341.319811 
L 442.169527 -340.742472 
L 439.266396 -340.165132 
L 438.204846 -339.587793 
L 437.91684 -339.010454 
L 435.21717 -338.433114 
L 433.478634 -337.855775 
L 432.923849 -337.278435 
L 430.737428 -336.701096 
L 429.179053 -336.123756 
L 426.515178 -335.546417 
L 425.385996 -334.969077 
L 424.672543 -334.391738 
L 422.361295 -333.814399 
L 421.242438 -333.237059 
L 418.673901 -332.65972 
L 416.18422 -332.08238 
L 416.149559 -331.505041 
L 408.679127 -330.927701 
L 399.270211 -330.350362 
L 395.80524 -329.773023 
L 393.074743 -329.195683 
L 392.030905 -328.618344 
L 381.348693 -328.041004 
L 354.733796 -327.463665 
z
" style="stroke: #00e700; stroke-opacity: 0.7"/>
    </defs>
    <g clip-path="url(#p0dc7db2cc6)">
     <use xlink:href="#mdd76ae3dee" x="0" y="576" style="fill: #00e700; fill-opacity: 0.7; stroke: #00e700; stroke-opacity: 0.7"/>
    </g>
   </g>
   <g id="PolyCollection_11">
    <defs>
     <path id="m073dc8757b" d="M 355.777839 -366.145407 
L 367.896094 -366.145407 
L 367.896094 -366.722746 
L 367.896094 -367.300086 
L 367.896094 -367.877425 
L 367.896094 -368.454765 
L 367.896094 -369.032104 
L 367.896094 -369.609443 
L 367.896094 -370.186783 
L 367.896094 -370.764122 
L 367.896094 -371.341462 
L 367.896094 -371.918801 
L 367.896094 -372.496141 
L 367.896094 -373.07348 
L 367.896094 -373.650819 
L 367.896094 -374.228159 
L 367.896094 -374.805498 
L 367.896094 -375.382838 
L 367.896094 -375.960177 
L 367.896094 -376.537517 
L 367.896094 -377.114856 
L 367.896094 -377.692195 
L 367.896094 -378.269535 
L 367.896094 -378.846874 
L 444.530131 -378.846874 
L 444.530131 -378.846874 
L 437.663631 -378.269535 
L 437.394202 -377.692195 
L 435.846952 -377.114856 
L 433.274708 -376.537517 
L 433.079163 -375.960177 
L 428.00966 -375.382838 
L 423.052004 -374.805498 
L 422.765157 -374.228159 
L 420.887601 -373.650819 
L 416.701285 -373.07348 
L 410.980651 -372.496141 
L 409.651093 -371.918801 
L 405.949921 -371.341462 
L 403.460628 -370.764122 
L 398.214225 -370.186783 
L 396.556892 -369.609443 
L 393.460051 -369.032104 
L 392.450263 -368.454765 
L 386.494307 -367.877425 
L 368.854484 -367.300086 
L 365.699725 -366.722746 
L 355.777839 -366.145407 
z
" style="stroke: #67ff00; stroke-opacity: 0.7"/>
    </defs>
    <g clip-path="url(#p0dc7db2cc6)">
     <use xlink:href="#m073dc8757b" x="0" y="576" style="fill: #67ff00; fill-opacity: 0.7; stroke: #67ff00; stroke-opacity: 0.7"/>
    </g>
   </g>
   <g id="PolyCollection_12">
    <defs>
     <path id="mc022c182da" d="M 428.021382 -385.197608 
L 367.896094 -385.197608 
L 367.896094 -385.774948 
L 367.896094 -386.352287 
L 367.896094 -386.929626 
L 367.896094 -387.506966 
L 367.896094 -388.084305 
L 367.896094 -388.661645 
L 367.896094 -389.238984 
L 367.896094 -389.816324 
L 367.896094 -390.393663 
L 367.896094 -390.971002 
L 367.896094 -391.548342 
L 367.896094 -392.125681 
L 367.896094 -392.703021 
L 367.896094 -393.28036 
L 367.896094 -393.8577 
L 367.896094 -394.435039 
L 367.896094 -395.012378 
L 367.896094 -395.589718 
L 367.896094 -396.167057 
L 367.896094 -396.744397 
L 367.896094 -397.321736 
L 367.896094 -397.899076 
L 367.896094 -398.476415 
L 367.896094 -399.053754 
L 367.896094 -399.631094 
L 367.896094 -400.208433 
L 367.896094 -400.785773 
L 367.896094 -401.363112 
L 367.896094 -401.940452 
L 367.896094 -402.517791 
L 367.896094 -403.095131 
L 367.896094 -403.67247 
L 367.896094 -404.249809 
L 367.896094 -404.827149 
L 367.896094 -405.404488 
L 367.896094 -405.981828 
L 367.896094 -406.559167 
L 367.896094 -407.136507 
L 367.896094 -407.713846 
L 367.896094 -408.291185 
L 367.896094 -408.868525 
L 367.896094 -409.445864 
L 367.896094 -410.023204 
L 367.896094 -410.600543 
L 367.896094 -411.177883 
L 367.896094 -411.755222 
L 367.896094 -412.332561 
L 367.896094 -412.909901 
L 367.896094 -413.48724 
L 367.896094 -414.06458 
L 367.896094 -414.641919 
L 367.896094 -415.219259 
L 367.896094 -415.796598 
L 367.896094 -416.373937 
L 367.896094 -416.951277 
L 367.896094 -417.528616 
L 367.896094 -418.105956 
L 367.896094 -418.683295 
L 367.896094 -419.260635 
L 367.896094 -419.837974 
L 367.896094 -420.415314 
L 367.896094 -420.992653 
L 367.896094 -421.569992 
L 367.896094 -422.147332 
L 367.896094 -422.724671 
L 367.896094 -423.302011 
L 367.896094 -423.87935 
L 367.896094 -424.45669 
L 367.896094 -425.034029 
L 367.896094 -425.611368 
L 367.896094 -426.188708 
L 367.896094 -426.766047 
L 367.896094 -427.343387 
L 367.896094 -427.920726 
L 367.896094 -428.498066 
L 367.896094 -429.075405 
L 367.896094 -429.652744 
L 367.896094 -430.230084 
L 367.896094 -430.807423 
L 367.896094 -431.384763 
L 367.896094 -431.962102 
L 367.896094 -432.539442 
L 367.896094 -433.116781 
L 367.896094 -433.69412 
L 367.896094 -434.27146 
L 367.896094 -434.848799 
L 367.896094 -435.426139 
L 367.896094 -436.003478 
L 367.896094 -436.580818 
L 367.896094 -437.158157 
L 367.896094 -437.735496 
L 367.896094 -438.312836 
L 367.896094 -438.890175 
L 367.896094 -439.467515 
L 367.896094 -440.044854 
L 367.896094 -440.622194 
L 367.896094 -441.199533 
L 367.896094 -441.776873 
L 367.896094 -442.354212 
L 367.896094 -442.931551 
L 367.896094 -443.508891 
L 367.896094 -444.08623 
L 367.896094 -444.66357 
L 367.896094 -445.240909 
L 367.896094 -445.818249 
L 367.896094 -446.395588 
L 367.896094 -446.972927 
L 367.896094 -447.550267 
L 367.896094 -448.127606 
L 367.896094 -448.704946 
L 367.896094 -449.282285 
L 367.896094 -449.859625 
L 367.896094 -450.436964 
L 367.896094 -451.014303 
L 367.896094 -451.591643 
L 367.896094 -452.168982 
L 367.896094 -452.746322 
L 367.896094 -453.323661 
L 367.896094 -453.901001 
L 367.896094 -454.47834 
L 367.896094 -455.055679 
L 367.896094 -455.633019 
L 367.896094 -456.210358 
L 367.896094 -456.787698 
L 367.896094 -457.365037 
L 367.896094 -457.942377 
L 367.896094 -458.519716 
L 367.896094 -459.097055 
L 367.896094 -459.674395 
L 367.896094 -460.251734 
L 367.896094 -460.829074 
L 367.896094 -461.406413 
L 367.896094 -461.983753 
L 367.896094 -462.561092 
L 367.896094 -463.138432 
L 367.896094 -463.715771 
L 367.896094 -464.29311 
L 367.896094 -464.87045 
L 367.896094 -465.447789 
L 367.896094 -466.025129 
L 367.896094 -466.602468 
L 367.896094 -467.179808 
L 367.896094 -467.757147 
L 367.896094 -468.334486 
L 367.896094 -468.911826 
L 367.896094 -469.489165 
L 367.896094 -470.066505 
L 367.896094 -470.643844 
L 367.896094 -471.221184 
L 367.896094 -471.798523 
L 367.896094 -472.375862 
L 367.896094 -472.953202 
L 367.896094 -473.530541 
L 367.896094 -474.107881 
L 367.896094 -474.68522 
L 367.896094 -475.26256 
L 367.896094 -475.839899 
L 367.896094 -476.417238 
L 367.896094 -476.994578 
L 367.896094 -477.571917 
L 367.896094 -478.149257 
L 367.896094 -478.726596 
L 367.896094 -479.303936 
L 367.896094 -479.881275 
L 367.896094 -480.458614 
L 367.896094 -481.035954 
L 367.896094 -481.613293 
L 367.896094 -482.190633 
L 367.896094 -482.767972 
L 367.896094 -483.345312 
L 367.896094 -483.922651 
L 367.896094 -484.499991 
L 367.896094 -485.07733 
L 367.896094 -485.654669 
L 367.896094 -486.232009 
L 367.896094 -486.809348 
L 367.896094 -487.386688 
L 367.896094 -487.964027 
L 367.896094 -488.541367 
L 367.896094 -489.118706 
L 367.896094 -489.696045 
L 367.896094 -490.273385 
L 367.896094 -490.850724 
L 367.896094 -491.428064 
L 367.896094 -492.005403 
L 367.896094 -492.582743 
L 367.896094 -493.160082 
L 367.896094 -493.737421 
L 367.896094 -494.314761 
L 367.896094 -494.8921 
L 367.896094 -495.46944 
L 367.896094 -496.046779 
L 367.896094 -496.624119 
L 367.896094 -497.201458 
L 367.896094 -497.778797 
L 367.896094 -498.356137 
L 367.896094 -498.933476 
L 367.896094 -499.510816 
L 367.896094 -500.088155 
L 367.896094 -500.665495 
L 509.501621 -500.665495 
L 509.501621 -500.665495 
L 503.449057 -500.088155 
L 502.649467 -499.510816 
L 502.401513 -498.933476 
L 501.691016 -498.356137 
L 500.45777 -497.778797 
L 499.607579 -497.201458 
L 499.450942 -496.624119 
L 499.320951 -496.046779 
L 498.833683 -495.46944 
L 498.770195 -494.8921 
L 498.659758 -494.314761 
L 498.344296 -493.737421 
L 497.82923 -493.160082 
L 497.367305 -492.582743 
L 496.798095 -492.005403 
L 496.744306 -491.428064 
L 496.406079 -490.850724 
L 495.56424 -490.273385 
L 494.647769 -489.696045 
L 494.303773 -489.118706 
L 494.117808 -488.541367 
L 493.82127 -487.964027 
L 493.475492 -487.386688 
L 493.458414 -486.809348 
L 493.382142 -486.232009 
L 493.335406 -485.654669 
L 493.332851 -485.07733 
L 493.184931 -484.499991 
L 492.860536 -483.922651 
L 492.68017 -483.345312 
L 492.543365 -482.767972 
L 492.530729 -482.190633 
L 492.330602 -481.613293 
L 492.291008 -481.035954 
L 491.944691 -480.458614 
L 491.752156 -479.881275 
L 491.317516 -479.303936 
L 491.171725 -478.726596 
L 490.846685 -478.149257 
L 490.310393 -477.571917 
L 490.257187 -476.994578 
L 488.977709 -476.417238 
L 488.847464 -475.839899 
L 488.669802 -475.26256 
L 488.306557 -474.68522 
L 488.168135 -474.107881 
L 488.043315 -473.530541 
L 487.612082 -472.953202 
L 487.309598 -472.375862 
L 487.280896 -471.798523 
L 486.769239 -471.221184 
L 486.373717 -470.643844 
L 486.003397 -470.066505 
L 485.972528 -469.489165 
L 485.357133 -468.911826 
L 485.10938 -468.334486 
L 485.096817 -467.757147 
L 484.435425 -467.179808 
L 484.421123 -466.602468 
L 484.279236 -466.025129 
L 483.797862 -465.447789 
L 483.081956 -464.87045 
L 483.07091 -464.29311 
L 482.891844 -463.715771 
L 482.654723 -463.138432 
L 482.163645 -462.561092 
L 482.117637 -461.983753 
L 482.013197 -461.406413 
L 481.601467 -460.829074 
L 481.477912 -460.251734 
L 481.469279 -459.674395 
L 481.345141 -459.097055 
L 481.211205 -458.519716 
L 481.023423 -457.942377 
L 480.493961 -457.365037 
L 480.475469 -456.787698 
L 480.4628 -456.210358 
L 480.252435 -455.633019 
L 480.249318 -455.055679 
L 480.062519 -454.47834 
L 479.830316 -453.901001 
L 479.634779 -453.323661 
L 479.604583 -452.746322 
L 479.459644 -452.168982 
L 479.283427 -451.591643 
L 479.252229 -451.014303 
L 479.228087 -450.436964 
L 479.054664 -449.859625 
L 478.724853 -449.282285 
L 478.471936 -448.704946 
L 478.433251 -448.127606 
L 477.955263 -447.550267 
L 477.86132 -446.972927 
L 477.689173 -446.395588 
L 477.476895 -445.818249 
L 477.291469 -445.240909 
L 476.974733 -444.66357 
L 476.490555 -444.08623 
L 476.237167 -443.508891 
L 475.946772 -442.931551 
L 475.878326 -442.354212 
L 475.856648 -441.776873 
L 475.845395 -441.199533 
L 475.788743 -440.622194 
L 475.764822 -440.044854 
L 475.085336 -439.467515 
L 474.607063 -438.890175 
L 473.839215 -438.312836 
L 473.303315 -437.735496 
L 473.3019 -437.158157 
L 473.180497 -436.580818 
L 472.886076 -436.003478 
L 472.460694 -435.426139 
L 472.34475 -434.848799 
L 471.727673 -434.27146 
L 471.604792 -433.69412 
L 471.396925 -433.116781 
L 470.598123 -432.539442 
L 470.371126 -431.962102 
L 470.331168 -431.384763 
L 469.967178 -430.807423 
L 469.055159 -430.230084 
L 468.643415 -429.652744 
L 468.112936 -429.075405 
L 467.756064 -428.498066 
L 467.403092 -427.920726 
L 467.036007 -427.343387 
L 466.627831 -426.766047 
L 466.542873 -426.188708 
L 466.51332 -425.611368 
L 466.223657 -425.034029 
L 466.131299 -424.45669 
L 465.939027 -423.87935 
L 465.907499 -423.302011 
L 465.804217 -422.724671 
L 465.464038 -422.147332 
L 465.437216 -421.569992 
L 465.424391 -420.992653 
L 464.497146 -420.415314 
L 464.096007 -419.837974 
L 463.468336 -419.260635 
L 463.397207 -418.683295 
L 462.91875 -418.105956 
L 462.812281 -417.528616 
L 462.602273 -416.951277 
L 462.495447 -416.373937 
L 462.173929 -415.796598 
L 460.857948 -415.219259 
L 460.537714 -414.641919 
L 459.988331 -414.06458 
L 459.798717 -413.48724 
L 459.525061 -412.909901 
L 459.520671 -412.332561 
L 459.346895 -411.755222 
L 458.933117 -411.177883 
L 458.540629 -410.600543 
L 458.481747 -410.023204 
L 458.353606 -409.445864 
L 457.529006 -408.868525 
L 457.187606 -408.291185 
L 456.483011 -407.713846 
L 456.126039 -407.136507 
L 455.564402 -406.559167 
L 455.152382 -405.981828 
L 454.884036 -405.404488 
L 453.854045 -404.827149 
L 453.424232 -404.249809 
L 452.765685 -403.67247 
L 452.655753 -403.095131 
L 452.606079 -402.517791 
L 452.355341 -401.940452 
L 452.196629 -401.363112 
L 451.991946 -400.785773 
L 451.640575 -400.208433 
L 451.608768 -399.631094 
L 450.56368 -399.053754 
L 450.237608 -398.476415 
L 449.613408 -397.899076 
L 448.763062 -397.321736 
L 447.891709 -396.744397 
L 447.790235 -396.167057 
L 447.727399 -395.589718 
L 446.7399 -395.012378 
L 445.649089 -394.435039 
L 445.586695 -393.8577 
L 445.319984 -393.28036 
L 444.094415 -392.703021 
L 443.962661 -392.125681 
L 442.869193 -391.548342 
L 442.812092 -390.971002 
L 442.134945 -390.393663 
L 441.960748 -389.816324 
L 441.917866 -389.238984 
L 439.216162 -388.661645 
L 438.667419 -388.084305 
L 438.383826 -387.506966 
L 435.515529 -386.929626 
L 435.290036 -386.352287 
L 434.485898 -385.774948 
L 428.021382 -385.197608 
z
" style="stroke: #e4f100; stroke-opacity: 0.7"/>
    </defs>
    <g clip-path="url(#p0dc7db2cc6)">
     <use xlink:href="#mc022c182da" x="0" y="576" style="fill: #e4f100; fill-opacity: 0.7; stroke: #e4f100; stroke-opacity: 0.7"/>
    </g>
   </g>
   <g id="PolyCollection_13">
    <defs>
     <path id="m76ddb1bf05" d="M 317.053849 -507.016228 
L 367.896094 -507.016228 
L 367.896094 -507.593568 
L 367.896094 -508.170907 
L 367.896094 -508.748247 
L 367.896094 -509.325586 
L 367.896094 -509.902926 
L 367.896094 -510.480265 
L 367.896094 -511.057604 
L 367.896094 -511.634944 
L 367.896094 -512.212283 
L 367.896094 -512.789623 
L 367.896094 -513.366962 
L 367.896094 -513.944302 
L 367.896094 -514.521641 
L 367.896094 -515.09898 
L 367.896094 -515.67632 
L 367.896094 -516.253659 
L 367.896094 -516.830999 
L 367.896094 -517.408338 
L 436.24989 -517.408338 
L 436.24989 -517.408338 
L 428.231718 -516.830999 
L 426.887576 -516.253659 
L 426.331454 -515.67632 
L 425.269597 -515.09898 
L 421.702008 -514.521641 
L 420.688433 -513.944302 
L 412.649785 -513.366962 
L 410.765803 -512.789623 
L 410.419068 -512.212283 
L 403.951386 -511.634944 
L 387.434807 -511.057604 
L 380.45174 -510.480265 
L 376.850984 -509.902926 
L 373.414415 -509.325586 
L 372.166959 -508.748247 
L 362.744673 -508.170907 
L 357.333017 -507.593568 
L 317.053849 -507.016228 
z
" style="stroke: #ffc900; stroke-opacity: 0.7"/>
    </defs>
    <g clip-path="url(#p0dc7db2cc6)">
     <use xlink:href="#m76ddb1bf05" x="0" y="576" style="fill: #ffc900; fill-opacity: 0.7; stroke: #ffc900; stroke-opacity: 0.7"/>
    </g>
   </g>
   <g id="PolyCollection_14">
    <defs>
     <path id="mcfd47a34fe" d="M 407.286989 -523.759072 
L 367.896094 -523.759072 
L 367.896094 -524.336411 
L 367.896094 -524.913751 
L 367.896094 -525.49109 
L 367.896094 -526.06843 
L 367.896094 -526.645769 
L 446.568899 -526.645769 
L 446.568899 -526.645769 
L 446.310988 -526.06843 
L 442.650124 -525.49109 
L 430.21099 -524.913751 
L 426.319886 -524.336411 
L 407.286989 -523.759072 
z
" style="stroke: #ff6900; stroke-opacity: 0.7"/>
    </defs>
    <g clip-path="url(#p0dc7db2cc6)">
     <use xlink:href="#mcfd47a34fe" x="0" y="576" style="fill: #ff6900; fill-opacity: 0.7; stroke: #ff6900; stroke-opacity: 0.7"/>
    </g>
   </g>
   <g id="PolyCollection_15">
    <defs>
     <path id="m79a8fd74c0" d="M 524.257667 -532.996503 
L 367.896094 -532.996503 
L 367.896094 -533.573842 
L 367.896094 -534.151182 
L 367.896094 -534.728521 
L 367.896094 -535.305861 
L 367.896094 -535.8832 
L 367.896094 -536.460539 
L 367.896094 -537.037879 
L 367.896094 -537.615218 
L 561.091141 -537.615218 
L 561.091141 -537.615218 
L 560.360666 -537.037879 
L 556.610465 -536.460539 
L 554.938454 -535.8832 
L 533.395315 -535.305861 
L 532.270603 -534.728521 
L 526.618384 -534.151182 
L 525.973426 -533.573842 
L 524.257667 -532.996503 
z
" style="stroke: #ec0000; stroke-opacity: 0.7"/>
    </defs>
    <g clip-path="url(#p0dc7db2cc6)">
     <use xlink:href="#m79a8fd74c0" x="0" y="576" style="fill: #ec0000; fill-opacity: 0.7; stroke: #ec0000; stroke-opacity: 0.7"/>
    </g>
   </g>
   <g id="PolyCollection_16">
    <defs>
     <path id="m54b4144a33" d="M 562.186474 -543.965952 
L 367.896094 -543.965952 
L 367.896094 -544.543291 
L 367.896094 -545.120631 
L 593.067468 -545.120631 
L 593.067468 -545.120631 
L 588.052209 -544.543291 
L 562.186474 -543.965952 
z
" style="stroke: #cf0000; stroke-opacity: 0.7"/>
    </defs>
    <g clip-path="url(#p0dc7db2cc6)">
     <use xlink:href="#m54b4144a33" x="0" y="576" style="fill: #cf0000; fill-opacity: 0.7; stroke: #cf0000; stroke-opacity: 0.7"/>
    </g>
   </g>
   <g id="matplotlib.axis_1">
    <g id="xtick_1">
     <g id="line2d_1">
      <defs>
       <path id="m0ed8272a29" d="M 0 0 
L 0 3.5 
" style="stroke: #000000; stroke-width: 0.8"/>
      </defs>
      <g>
       <use xlink:href="#m0ed8272a29" x="42.495313" y="510.648438" style="stroke: #000000; stroke-width: 0.8"/>
      </g>
     </g>
     <g id="text_1">
      <!-- −1.0 -->
      <g transform="translate(18.2125 532.845312) scale(0.2 -0.2)">
       <defs>
        <path id="DejaVuSans-2212" d="M 678 2272 
L 4684 2272 
L 4684 1741 
L 678 1741 
L 678 2272 
z
" transform="scale(0.015625)"/>
        <path id="DejaVuSans-31" d="M 794 531 
L 1825 531 
L 1825 4091 
L 703 3866 
L 703 4441 
L 1819 4666 
L 2450 4666 
L 2450 531 
L 3481 531 
L 3481 0 
L 794 0 
L 794 531 
z
" transform="scale(0.015625)"/>
        <path id="DejaVuSans-2e" d="M 684 794 
L 1344 794 
L 1344 0 
L 684 0 
L 684 794 
z
" transform="scale(0.015625)"/>
        <path id="DejaVuSans-30" d="M 2034 4250 
Q 1547 4250 1301 3770 
Q 1056 3291 1056 2328 
Q 1056 1369 1301 889 
Q 1547 409 2034 409 
Q 2525 409 2770 889 
Q 3016 1369 3016 2328 
Q 3016 3291 2770 3770 
Q 2525 4250 2034 4250 
z
M 2034 4750 
Q 2819 4750 3233 4129 
Q 3647 3509 3647 2328 
Q 3647 1150 3233 529 
Q 2819 -91 2034 -91 
Q 1250 -91 836 529 
Q 422 1150 422 2328 
Q 422 3509 836 4129 
Q 1250 4750 2034 4750 
z
" transform="scale(0.015625)"/>
       </defs>
       <use xlink:href="#DejaVuSans-2212"/>
       <use xlink:href="#DejaVuSans-31" x="83.789062"/>
       <use xlink:href="#DejaVuSans-2e" x="147.412109"/>
       <use xlink:href="#DejaVuSans-30" x="179.199219"/>
      </g>
     </g>
    </g>
    <g id="xtick_2">
     <g id="line2d_2">
      <g>
       <use xlink:href="#m0ed8272a29" x="107.575469" y="510.648438" style="stroke: #000000; stroke-width: 0.8"/>
      </g>
     </g>
     <g id="text_2">
      <!-- −0.8 -->
      <g transform="translate(83.292656 532.845312) scale(0.2 -0.2)">
       <defs>
        <path id="DejaVuSans-38" d="M 2034 2216 
Q 1584 2216 1326 1975 
Q 1069 1734 1069 1313 
Q 1069 891 1326 650 
Q 1584 409 2034 409 
Q 2484 409 2743 651 
Q 3003 894 3003 1313 
Q 3003 1734 2745 1975 
Q 2488 2216 2034 2216 
z
M 1403 2484 
Q 997 2584 770 2862 
Q 544 3141 544 3541 
Q 544 4100 942 4425 
Q 1341 4750 2034 4750 
Q 2731 4750 3128 4425 
Q 3525 4100 3525 3541 
Q 3525 3141 3298 2862 
Q 3072 2584 2669 2484 
Q 3125 2378 3379 2068 
Q 3634 1759 3634 1313 
Q 3634 634 3220 271 
Q 2806 -91 2034 -91 
Q 1263 -91 848 271 
Q 434 634 434 1313 
Q 434 1759 690 2068 
Q 947 2378 1403 2484 
z
M 1172 3481 
Q 1172 3119 1398 2916 
Q 1625 2713 2034 2713 
Q 2441 2713 2670 2916 
Q 2900 3119 2900 3481 
Q 2900 3844 2670 4047 
Q 2441 4250 2034 4250 
Q 1625 4250 1398 4047 
Q 1172 3844 1172 3481 
z
" transform="scale(0.015625)"/>
       </defs>
       <use xlink:href="#DejaVuSans-2212"/>
       <use xlink:href="#DejaVuSans-30" x="83.789062"/>
       <use xlink:href="#DejaVuSans-2e" x="147.412109"/>
       <use xlink:href="#DejaVuSans-38" x="179.199219"/>
      </g>
     </g>
    </g>
    <g id="xtick_3">
     <g id="line2d_3">
      <g>
       <use xlink:href="#m0ed8272a29" x="172.655625" y="510.648438" style="stroke: #000000; stroke-width: 0.8"/>
      </g>
     </g>
     <g id="text_3">
      <!-- −0.6 -->
      <g transform="translate(148.372813 532.845312) scale(0.2 -0.2)">
       <defs>
        <path id="DejaVuSans-36" d="M 2113 2584 
Q 1688 2584 1439 2293 
Q 1191 2003 1191 1497 
Q 1191 994 1439 701 
Q 1688 409 2113 409 
Q 2538 409 2786 701 
Q 3034 994 3034 1497 
Q 3034 2003 2786 2293 
Q 2538 2584 2113 2584 
z
M 3366 4563 
L 3366 3988 
Q 3128 4100 2886 4159 
Q 2644 4219 2406 4219 
Q 1781 4219 1451 3797 
Q 1122 3375 1075 2522 
Q 1259 2794 1537 2939 
Q 1816 3084 2150 3084 
Q 2853 3084 3261 2657 
Q 3669 2231 3669 1497 
Q 3669 778 3244 343 
Q 2819 -91 2113 -91 
Q 1303 -91 875 529 
Q 447 1150 447 2328 
Q 447 3434 972 4092 
Q 1497 4750 2381 4750 
Q 2619 4750 2861 4703 
Q 3103 4656 3366 4563 
z
" transform="scale(0.015625)"/>
       </defs>
       <use xlink:href="#DejaVuSans-2212"/>
       <use xlink:href="#DejaVuSans-30" x="83.789062"/>
       <use xlink:href="#DejaVuSans-2e" x="147.412109"/>
       <use xlink:href="#DejaVuSans-36" x="179.199219"/>
      </g>
     </g>
    </g>
    <g id="xtick_4">
     <g id="line2d_4">
      <g>
       <use xlink:href="#m0ed8272a29" x="237.735781" y="510.648438" style="stroke: #000000; stroke-width: 0.8"/>
      </g>
     </g>
     <g id="text_4">
      <!-- −0.4 -->
      <g transform="translate(213.452969 532.845312) scale(0.2 -0.2)">
       <defs>
        <path id="DejaVuSans-34" d="M 2419 4116 
L 825 1625 
L 2419 1625 
L 2419 4116 
z
M 2253 4666 
L 3047 4666 
L 3047 1625 
L 3713 1625 
L 3713 1100 
L 3047 1100 
L 3047 0 
L 2419 0 
L 2419 1100 
L 313 1100 
L 313 1709 
L 2253 4666 
z
" transform="scale(0.015625)"/>
       </defs>
       <use xlink:href="#DejaVuSans-2212"/>
       <use xlink:href="#DejaVuSans-30" x="83.789062"/>
       <use xlink:href="#DejaVuSans-2e" x="147.412109"/>
       <use xlink:href="#DejaVuSans-34" x="179.199219"/>
      </g>
     </g>
    </g>
    <g id="xtick_5">
     <g id="line2d_5">
      <g>
       <use xlink:href="#m0ed8272a29" x="302.815937" y="510.648438" style="stroke: #000000; stroke-width: 0.8"/>
      </g>
     </g>
     <g id="text_5">
      <!-- −0.2 -->
      <g transform="translate(278.533125 532.845312) scale(0.2 -0.2)">
       <defs>
        <path id="DejaVuSans-32" d="M 1228 531 
L 3431 531 
L 3431 0 
L 469 0 
L 469 531 
Q 828 903 1448 1529 
Q 2069 2156 2228 2338 
Q 2531 2678 2651 2914 
Q 2772 3150 2772 3378 
Q 2772 3750 2511 3984 
Q 2250 4219 1831 4219 
Q 1534 4219 1204 4116 
Q 875 4013 500 3803 
L 500 4441 
Q 881 4594 1212 4672 
Q 1544 4750 1819 4750 
Q 2544 4750 2975 4387 
Q 3406 4025 3406 3419 
Q 3406 3131 3298 2873 
Q 3191 2616 2906 2266 
Q 2828 2175 2409 1742 
Q 1991 1309 1228 531 
z
" transform="scale(0.015625)"/>
       </defs>
       <use xlink:href="#DejaVuSans-2212"/>
       <use xlink:href="#DejaVuSans-30" x="83.789062"/>
       <use xlink:href="#DejaVuSans-2e" x="147.412109"/>
       <use xlink:href="#DejaVuSans-32" x="179.199219"/>
      </g>
     </g>
    </g>
    <g id="xtick_6">
     <g id="line2d_6">
      <g>
       <use xlink:href="#m0ed8272a29" x="367.896094" y="510.648438" style="stroke: #000000; stroke-width: 0.8"/>
      </g>
     </g>
     <g id="text_6">
      <!-- 0.0 -->
      <g transform="translate(351.992969 532.845312) scale(0.2 -0.2)">
       <use xlink:href="#DejaVuSans-30"/>
       <use xlink:href="#DejaVuSans-2e" x="63.623047"/>
       <use xlink:href="#DejaVuSans-30" x="95.410156"/>
      </g>
     </g>
    </g>
    <g id="xtick_7">
     <g id="line2d_7">
      <g>
       <use xlink:href="#m0ed8272a29" x="432.97625" y="510.648438" style="stroke: #000000; stroke-width: 0.8"/>
      </g>
     </g>
     <g id="text_7">
      <!-- 0.2 -->
      <g transform="translate(417.073125 532.845312) scale(0.2 -0.2)">
       <use xlink:href="#DejaVuSans-30"/>
       <use xlink:href="#DejaVuSans-2e" x="63.623047"/>
       <use xlink:href="#DejaVuSans-32" x="95.410156"/>
      </g>
     </g>
    </g>
    <g id="xtick_8">
     <g id="line2d_8">
      <g>
       <use xlink:href="#m0ed8272a29" x="498.056406" y="510.648438" style="stroke: #000000; stroke-width: 0.8"/>
      </g>
     </g>
     <g id="text_8">
      <!-- 0.4 -->
      <g transform="translate(482.153281 532.845312) scale(0.2 -0.2)">
       <use xlink:href="#DejaVuSans-30"/>
       <use xlink:href="#DejaVuSans-2e" x="63.623047"/>
       <use xlink:href="#DejaVuSans-34" x="95.410156"/>
      </g>
     </g>
    </g>
    <g id="xtick_9">
     <g id="line2d_9">
      <g>
       <use xlink:href="#m0ed8272a29" x="563.136562" y="510.648438" style="stroke: #000000; stroke-width: 0.8"/>
      </g>
     </g>
     <g id="text_9">
      <!-- 0.6 -->
      <g transform="translate(547.233437 532.845312) scale(0.2 -0.2)">
       <use xlink:href="#DejaVuSans-30"/>
       <use xlink:href="#DejaVuSans-2e" x="63.623047"/>
       <use xlink:href="#DejaVuSans-36" x="95.410156"/>
      </g>
     </g>
    </g>
    <g id="xtick_10">
     <g id="line2d_10">
      <g>
       <use xlink:href="#m0ed8272a29" x="628.216719" y="510.648438" style="stroke: #000000; stroke-width: 0.8"/>
      </g>
     </g>
     <g id="text_10">
      <!-- 0.8 -->
      <g transform="translate(612.313594 532.845312) scale(0.2 -0.2)">
       <use xlink:href="#DejaVuSans-30"/>
       <use xlink:href="#DejaVuSans-2e" x="63.623047"/>
       <use xlink:href="#DejaVuSans-38" x="95.410156"/>
      </g>
     </g>
    </g>
    <g id="xtick_11">
     <g id="line2d_11">
      <g>
       <use xlink:href="#m0ed8272a29" x="693.296875" y="510.648438" style="stroke: #000000; stroke-width: 0.8"/>
      </g>
     </g>
     <g id="text_11">
      <!-- 1.0 -->
      <g transform="translate(677.39375 532.845312) scale(0.2 -0.2)">
       <use xlink:href="#DejaVuSans-31"/>
       <use xlink:href="#DejaVuSans-2e" x="63.623047"/>
       <use xlink:href="#DejaVuSans-30" x="95.410156"/>
      </g>
     </g>
    </g>
    <g id="text_12">
     <!-- Silhouette coefficient -->
     <g transform="translate(235.021094 560.000781) scale(0.25 -0.25)">
      <defs>
       <path id="DejaVuSans-53" d="M 3425 4513 
L 3425 3897 
Q 3066 4069 2747 4153 
Q 2428 4238 2131 4238 
Q 1616 4238 1336 4038 
Q 1056 3838 1056 3469 
Q 1056 3159 1242 3001 
Q 1428 2844 1947 2747 
L 2328 2669 
Q 3034 2534 3370 2195 
Q 3706 1856 3706 1288 
Q 3706 609 3251 259 
Q 2797 -91 1919 -91 
Q 1588 -91 1214 -16 
Q 841 59 441 206 
L 441 856 
Q 825 641 1194 531 
Q 1563 422 1919 422 
Q 2459 422 2753 634 
Q 3047 847 3047 1241 
Q 3047 1584 2836 1778 
Q 2625 1972 2144 2069 
L 1759 2144 
Q 1053 2284 737 2584 
Q 422 2884 422 3419 
Q 422 4038 858 4394 
Q 1294 4750 2059 4750 
Q 2388 4750 2728 4690 
Q 3069 4631 3425 4513 
z
" transform="scale(0.015625)"/>
       <path id="DejaVuSans-69" d="M 603 3500 
L 1178 3500 
L 1178 0 
L 603 0 
L 603 3500 
z
M 603 4863 
L 1178 4863 
L 1178 4134 
L 603 4134 
L 603 4863 
z
" transform="scale(0.015625)"/>
       <path id="DejaVuSans-6c" d="M 603 4863 
L 1178 4863 
L 1178 0 
L 603 0 
L 603 4863 
z
" transform="scale(0.015625)"/>
       <path id="DejaVuSans-68" d="M 3513 2113 
L 3513 0 
L 2938 0 
L 2938 2094 
Q 2938 2591 2744 2837 
Q 2550 3084 2163 3084 
Q 1697 3084 1428 2787 
Q 1159 2491 1159 1978 
L 1159 0 
L 581 0 
L 581 4863 
L 1159 4863 
L 1159 2956 
Q 1366 3272 1645 3428 
Q 1925 3584 2291 3584 
Q 2894 3584 3203 3211 
Q 3513 2838 3513 2113 
z
" transform="scale(0.015625)"/>
       <path id="DejaVuSans-6f" d="M 1959 3097 
Q 1497 3097 1228 2736 
Q 959 2375 959 1747 
Q 959 1119 1226 758 
Q 1494 397 1959 397 
Q 2419 397 2687 759 
Q 2956 1122 2956 1747 
Q 2956 2369 2687 2733 
Q 2419 3097 1959 3097 
z
M 1959 3584 
Q 2709 3584 3137 3096 
Q 3566 2609 3566 1747 
Q 3566 888 3137 398 
Q 2709 -91 1959 -91 
Q 1206 -91 779 398 
Q 353 888 353 1747 
Q 353 2609 779 3096 
Q 1206 3584 1959 3584 
z
" transform="scale(0.015625)"/>
       <path id="DejaVuSans-75" d="M 544 1381 
L 544 3500 
L 1119 3500 
L 1119 1403 
Q 1119 906 1312 657 
Q 1506 409 1894 409 
Q 2359 409 2629 706 
Q 2900 1003 2900 1516 
L 2900 3500 
L 3475 3500 
L 3475 0 
L 2900 0 
L 2900 538 
Q 2691 219 2414 64 
Q 2138 -91 1772 -91 
Q 1169 -91 856 284 
Q 544 659 544 1381 
z
M 1991 3584 
L 1991 3584 
z
" transform="scale(0.015625)"/>
       <path id="DejaVuSans-65" d="M 3597 1894 
L 3597 1613 
L 953 1613 
Q 991 1019 1311 708 
Q 1631 397 2203 397 
Q 2534 397 2845 478 
Q 3156 559 3463 722 
L 3463 178 
Q 3153 47 2828 -22 
Q 2503 -91 2169 -91 
Q 1331 -91 842 396 
Q 353 884 353 1716 
Q 353 2575 817 3079 
Q 1281 3584 2069 3584 
Q 2775 3584 3186 3129 
Q 3597 2675 3597 1894 
z
M 3022 2063 
Q 3016 2534 2758 2815 
Q 2500 3097 2075 3097 
Q 1594 3097 1305 2825 
Q 1016 2553 972 2059 
L 3022 2063 
z
" transform="scale(0.015625)"/>
       <path id="DejaVuSans-74" d="M 1172 4494 
L 1172 3500 
L 2356 3500 
L 2356 3053 
L 1172 3053 
L 1172 1153 
Q 1172 725 1289 603 
Q 1406 481 1766 481 
L 2356 481 
L 2356 0 
L 1766 0 
Q 1100 0 847 248 
Q 594 497 594 1153 
L 594 3053 
L 172 3053 
L 172 3500 
L 594 3500 
L 594 4494 
L 1172 4494 
z
" transform="scale(0.015625)"/>
       <path id="DejaVuSans-20" transform="scale(0.015625)"/>
       <path id="DejaVuSans-63" d="M 3122 3366 
L 3122 2828 
Q 2878 2963 2633 3030 
Q 2388 3097 2138 3097 
Q 1578 3097 1268 2742 
Q 959 2388 959 1747 
Q 959 1106 1268 751 
Q 1578 397 2138 397 
Q 2388 397 2633 464 
Q 2878 531 3122 666 
L 3122 134 
Q 2881 22 2623 -34 
Q 2366 -91 2075 -91 
Q 1284 -91 818 406 
Q 353 903 353 1747 
Q 353 2603 823 3093 
Q 1294 3584 2113 3584 
Q 2378 3584 2631 3529 
Q 2884 3475 3122 3366 
z
" transform="scale(0.015625)"/>
       <path id="DejaVuSans-66" d="M 2375 4863 
L 2375 4384 
L 1825 4384 
Q 1516 4384 1395 4259 
Q 1275 4134 1275 3809 
L 1275 3500 
L 2222 3500 
L 2222 3053 
L 1275 3053 
L 1275 0 
L 697 0 
L 697 3053 
L 147 3053 
L 147 3500 
L 697 3500 
L 697 3744 
Q 697 4328 969 4595 
Q 1241 4863 1831 4863 
L 2375 4863 
z
" transform="scale(0.015625)"/>
       <path id="DejaVuSans-6e" d="M 3513 2113 
L 3513 0 
L 2938 0 
L 2938 2094 
Q 2938 2591 2744 2837 
Q 2550 3084 2163 3084 
Q 1697 3084 1428 2787 
Q 1159 2491 1159 1978 
L 1159 0 
L 581 0 
L 581 3500 
L 1159 3500 
L 1159 2956 
Q 1366 3272 1645 3428 
Q 1925 3584 2291 3584 
Q 2894 3584 3203 3211 
Q 3513 2838 3513 2113 
z
" transform="scale(0.015625)"/>
      </defs>
      <use xlink:href="#DejaVuSans-53"/>
      <use xlink:href="#DejaVuSans-69" x="63.476562"/>
      <use xlink:href="#DejaVuSans-6c" x="91.259766"/>
      <use xlink:href="#DejaVuSans-68" x="119.042969"/>
      <use xlink:href="#DejaVuSans-6f" x="182.421875"/>
      <use xlink:href="#DejaVuSans-75" x="243.603516"/>
      <use xlink:href="#DejaVuSans-65" x="306.982422"/>
      <use xlink:href="#DejaVuSans-74" x="368.505859"/>
      <use xlink:href="#DejaVuSans-74" x="407.714844"/>
      <use xlink:href="#DejaVuSans-65" x="446.923828"/>
      <use xlink:href="#DejaVuSans-20" x="508.447266"/>
      <use xlink:href="#DejaVuSans-63" x="540.234375"/>
      <use xlink:href="#DejaVuSans-6f" x="595.214844"/>
      <use xlink:href="#DejaVuSans-65" x="656.396484"/>
      <use xlink:href="#DejaVuSans-66" x="717.919922"/>
      <use xlink:href="#DejaVuSans-66" x="753.125"/>
      <use xlink:href="#DejaVuSans-69" x="788.330078"/>
      <use xlink:href="#DejaVuSans-63" x="816.113281"/>
      <use xlink:href="#DejaVuSans-69" x="871.09375"/>
      <use xlink:href="#DejaVuSans-65" x="898.876953"/>
      <use xlink:href="#DejaVuSans-6e" x="960.400391"/>
      <use xlink:href="#DejaVuSans-74" x="1023.779297"/>
     </g>
    </g>
   </g>
   <g id="matplotlib.axis_2">
    <g id="text_13">
     <!-- Predicted label -->
     <g transform="translate(29.796094 360.469396) rotate(-90) scale(0.25 -0.25)">
      <defs>
       <path id="DejaVuSans-50" d="M 1259 4147 
L 1259 2394 
L 2053 2394 
Q 2494 2394 2734 2622 
Q 2975 2850 2975 3272 
Q 2975 3691 2734 3919 
Q 2494 4147 2053 4147 
L 1259 4147 
z
M 628 4666 
L 2053 4666 
Q 2838 4666 3239 4311 
Q 3641 3956 3641 3272 
Q 3641 2581 3239 2228 
Q 2838 1875 2053 1875 
L 1259 1875 
L 1259 0 
L 628 0 
L 628 4666 
z
" transform="scale(0.015625)"/>
       <path id="DejaVuSans-72" d="M 2631 2963 
Q 2534 3019 2420 3045 
Q 2306 3072 2169 3072 
Q 1681 3072 1420 2755 
Q 1159 2438 1159 1844 
L 1159 0 
L 581 0 
L 581 3500 
L 1159 3500 
L 1159 2956 
Q 1341 3275 1631 3429 
Q 1922 3584 2338 3584 
Q 2397 3584 2469 3576 
Q 2541 3569 2628 3553 
L 2631 2963 
z
" transform="scale(0.015625)"/>
       <path id="DejaVuSans-64" d="M 2906 2969 
L 2906 4863 
L 3481 4863 
L 3481 0 
L 2906 0 
L 2906 525 
Q 2725 213 2448 61 
Q 2172 -91 1784 -91 
Q 1150 -91 751 415 
Q 353 922 353 1747 
Q 353 2572 751 3078 
Q 1150 3584 1784 3584 
Q 2172 3584 2448 3432 
Q 2725 3281 2906 2969 
z
M 947 1747 
Q 947 1113 1208 752 
Q 1469 391 1925 391 
Q 2381 391 2643 752 
Q 2906 1113 2906 1747 
Q 2906 2381 2643 2742 
Q 2381 3103 1925 3103 
Q 1469 3103 1208 2742 
Q 947 2381 947 1747 
z
" transform="scale(0.015625)"/>
       <path id="DejaVuSans-61" d="M 2194 1759 
Q 1497 1759 1228 1600 
Q 959 1441 959 1056 
Q 959 750 1161 570 
Q 1363 391 1709 391 
Q 2188 391 2477 730 
Q 2766 1069 2766 1631 
L 2766 1759 
L 2194 1759 
z
M 3341 1997 
L 3341 0 
L 2766 0 
L 2766 531 
Q 2569 213 2275 61 
Q 1981 -91 1556 -91 
Q 1019 -91 701 211 
Q 384 513 384 1019 
Q 384 1609 779 1909 
Q 1175 2209 1959 2209 
L 2766 2209 
L 2766 2266 
Q 2766 2663 2505 2880 
Q 2244 3097 1772 3097 
Q 1472 3097 1187 3025 
Q 903 2953 641 2809 
L 641 3341 
Q 956 3463 1253 3523 
Q 1550 3584 1831 3584 
Q 2591 3584 2966 3190 
Q 3341 2797 3341 1997 
z
" transform="scale(0.015625)"/>
       <path id="DejaVuSans-62" d="M 3116 1747 
Q 3116 2381 2855 2742 
Q 2594 3103 2138 3103 
Q 1681 3103 1420 2742 
Q 1159 2381 1159 1747 
Q 1159 1113 1420 752 
Q 1681 391 2138 391 
Q 2594 391 2855 752 
Q 3116 1113 3116 1747 
z
M 1159 2969 
Q 1341 3281 1617 3432 
Q 1894 3584 2278 3584 
Q 2916 3584 3314 3078 
Q 3713 2572 3713 1747 
Q 3713 922 3314 415 
Q 2916 -91 2278 -91 
Q 1894 -91 1617 61 
Q 1341 213 1159 525 
L 1159 0 
L 581 0 
L 581 4863 
L 1159 4863 
L 1159 2969 
z
" transform="scale(0.015625)"/>
      </defs>
      <use xlink:href="#DejaVuSans-50"/>
      <use xlink:href="#DejaVuSans-72" x="58.552734"/>
      <use xlink:href="#DejaVuSans-65" x="97.416016"/>
      <use xlink:href="#DejaVuSans-64" x="158.939453"/>
      <use xlink:href="#DejaVuSans-69" x="222.416016"/>
      <use xlink:href="#DejaVuSans-63" x="250.199219"/>
      <use xlink:href="#DejaVuSans-74" x="305.179688"/>
      <use xlink:href="#DejaVuSans-65" x="344.388672"/>
      <use xlink:href="#DejaVuSans-64" x="405.912109"/>
      <use xlink:href="#DejaVuSans-20" x="469.388672"/>
      <use xlink:href="#DejaVuSans-6c" x="501.175781"/>
      <use xlink:href="#DejaVuSans-61" x="528.958984"/>
      <use xlink:href="#DejaVuSans-62" x="590.238281"/>
      <use xlink:href="#DejaVuSans-65" x="653.714844"/>
      <use xlink:href="#DejaVuSans-6c" x="715.238281"/>
     </g>
    </g>
   </g>
   <g id="line2d_12">
    <path d="M 458.766712 510.648438 
L 458.766712 24.528635 
" clip-path="url(#p0dc7db2cc6)" style="fill: none; stroke: #ff0000; stroke-width: 4; stroke-linecap: square"/>
   </g>
   <g id="patch_3">
    <path d="M 42.495313 510.648438 
L 42.495313 24.528635 
" style="fill: none; stroke: #000000; stroke-width: 0.8; stroke-linejoin: miter; stroke-linecap: square"/>
   </g>
   <g id="patch_4">
    <path d="M 693.296875 510.648438 
L 693.296875 24.528635 
" style="fill: none; stroke: #000000; stroke-width: 0.8; stroke-linejoin: miter; stroke-linecap: square"/>
   </g>
   <g id="patch_5">
    <path d="M 42.495313 510.648438 
L 693.296875 510.648438 
" style="fill: none; stroke: #000000; stroke-width: 0.8; stroke-linejoin: miter; stroke-linecap: square"/>
   </g>
   <g id="patch_6">
    <path d="M 42.495313 24.528635 
L 693.296875 24.528635 
" style="fill: none; stroke: #000000; stroke-width: 0.8; stroke-linejoin: miter; stroke-linecap: square"/>
   </g>
   <g id="text_14">
    <!-- 0 -->
    <g transform="translate(351.626055 479.760778) scale(0.25 -0.25)">
     <use xlink:href="#DejaVuSans-30"/>
    </g>
   </g>
   <g id="text_15">
    <!-- 1 -->
    <g transform="translate(351.626055 419.717477) scale(0.25 -0.25)">
     <use xlink:href="#DejaVuSans-31"/>
    </g>
   </g>
   <g id="text_16">
    <!-- 2 -->
    <g transform="translate(351.626055 383.922432) scale(0.25 -0.25)">
     <use xlink:href="#DejaVuSans-32"/>
    </g>
   </g>
   <g id="text_17">
    <!-- 3 -->
    <g transform="translate(351.626055 373.241653) scale(0.25 -0.25)">
     <defs>
      <path id="DejaVuSans-33" d="M 2597 2516 
Q 3050 2419 3304 2112 
Q 3559 1806 3559 1356 
Q 3559 666 3084 287 
Q 2609 -91 1734 -91 
Q 1441 -91 1130 -33 
Q 819 25 488 141 
L 488 750 
Q 750 597 1062 519 
Q 1375 441 1716 441 
Q 2309 441 2620 675 
Q 2931 909 2931 1356 
Q 2931 1769 2642 2001 
Q 2353 2234 1838 2234 
L 1294 2234 
L 1294 2753 
L 1863 2753 
Q 2328 2753 2575 2939 
Q 2822 3125 2822 3475 
Q 2822 3834 2567 4026 
Q 2313 4219 1838 4219 
Q 1578 4219 1281 4162 
Q 984 4106 628 3988 
L 628 4550 
Q 988 4650 1302 4700 
Q 1616 4750 1894 4750 
Q 2613 4750 3031 4423 
Q 3450 4097 3450 3541 
Q 3450 3153 3228 2886 
Q 3006 2619 2597 2516 
z
" transform="scale(0.015625)"/>
     </defs>
     <use xlink:href="#DejaVuSans-33"/>
    </g>
   </g>
   <g id="text_18">
    <!-- 4 -->
    <g transform="translate(351.626055 350.148075) scale(0.25 -0.25)">
     <use xlink:href="#DejaVuSans-34"/>
    </g>
   </g>
   <g id="text_19">
    <!-- 5 -->
    <g transform="translate(351.626055 328.497847) scale(0.25 -0.25)">
     <defs>
      <path id="DejaVuSans-35" d="M 691 4666 
L 3169 4666 
L 3169 4134 
L 1269 4134 
L 1269 2991 
Q 1406 3038 1543 3061 
Q 1681 3084 1819 3084 
Q 2600 3084 3056 2656 
Q 3513 2228 3513 1497 
Q 3513 744 3044 326 
Q 2575 -91 1722 -91 
Q 1428 -91 1123 -41 
Q 819 9 494 109 
L 494 744 
Q 775 591 1075 516 
Q 1375 441 1709 441 
Q 2250 441 2565 725 
Q 2881 1009 2881 1497 
Q 2881 1984 2565 2268 
Q 2250 2553 1709 2553 
Q 1456 2553 1204 2497 
Q 953 2441 691 2322 
L 691 4666 
z
" transform="scale(0.015625)"/>
     </defs>
     <use xlink:href="#DejaVuSans-35"/>
    </g>
   </g>
   <g id="text_20">
    <!-- 6 -->
    <g transform="translate(351.626055 301.074223) scale(0.25 -0.25)">
     <use xlink:href="#DejaVuSans-36"/>
    </g>
   </g>
   <g id="text_21">
    <!-- 7 -->
    <g transform="translate(351.626055 273.93927) scale(0.25 -0.25)">
     <defs>
      <path id="DejaVuSans-37" d="M 525 4666 
L 3525 4666 
L 3525 4397 
L 1831 0 
L 1172 0 
L 2766 4134 
L 525 4134 
L 525 4666 
z
" transform="scale(0.015625)"/>
     </defs>
     <use xlink:href="#DejaVuSans-37"/>
    </g>
   </g>
   <g id="text_22">
    <!-- 8 -->
    <g transform="translate(351.626055 260.083124) scale(0.25 -0.25)">
     <use xlink:href="#DejaVuSans-38"/>
    </g>
   </g>
   <g id="text_23">
    <!-- 9 -->
    <g transform="translate(351.626055 232.082161) scale(0.25 -0.25)">
     <defs>
      <path id="DejaVuSans-39" d="M 703 97 
L 703 672 
Q 941 559 1184 500 
Q 1428 441 1663 441 
Q 2288 441 2617 861 
Q 2947 1281 2994 2138 
Q 2813 1869 2534 1725 
Q 2256 1581 1919 1581 
Q 1219 1581 811 2004 
Q 403 2428 403 3163 
Q 403 3881 828 4315 
Q 1253 4750 1959 4750 
Q 2769 4750 3195 4129 
Q 3622 3509 3622 2328 
Q 3622 1225 3098 567 
Q 2575 -91 1691 -91 
Q 1453 -91 1209 -44 
Q 966 3 703 97 
z
M 1959 2075 
Q 2384 2075 2632 2365 
Q 2881 2656 2881 3163 
Q 2881 3666 2632 3958 
Q 2384 4250 1959 4250 
Q 1534 4250 1286 3958 
Q 1038 3666 1038 3163 
Q 1038 2656 1286 2365 
Q 1534 2075 1959 2075 
z
" transform="scale(0.015625)"/>
     </defs>
     <use xlink:href="#DejaVuSans-39"/>
    </g>
   </g>
   <g id="text_24">
    <!-- 10 -->
    <g transform="translate(351.626055 203.21519) scale(0.25 -0.25)">
     <use xlink:href="#DejaVuSans-31"/>
     <use xlink:href="#DejaVuSans-30" x="63.623047"/>
    </g>
   </g>
   <g id="text_25">
    <!-- 11 -->
    <g transform="translate(351.626055 132.779779) scale(0.25 -0.25)">
     <use xlink:href="#DejaVuSans-31"/>
     <use xlink:href="#DejaVuSans-31" x="63.623047"/>
    </g>
   </g>
   <g id="text_26">
    <!-- 12 -->
    <g transform="translate(351.626055 63.499047) scale(0.25 -0.25)">
     <use xlink:href="#DejaVuSans-31"/>
     <use xlink:href="#DejaVuSans-32" x="63.623047"/>
    </g>
   </g>
   <g id="text_27">
    <!-- 13 -->
    <g transform="translate(351.626055 50.50891) scale(0.25 -0.25)">
     <use xlink:href="#DejaVuSans-31"/>
     <use xlink:href="#DejaVuSans-33" x="63.623047"/>
    </g>
   </g>
   <g id="text_28">
    <!-- 14 -->
    <g transform="translate(351.626055 40.40547) scale(0.25 -0.25)">
     <use xlink:href="#DejaVuSans-31"/>
     <use xlink:href="#DejaVuSans-34" x="63.623047"/>
    </g>
   </g>
   <g id="text_29">
    <!-- 15 -->
    <g transform="translate(351.626055 31.168039) scale(0.25 -0.25)">
     <use xlink:href="#DejaVuSans-31"/>
     <use xlink:href="#DejaVuSans-35" x="63.623047"/>
    </g>
   </g>
   <g id="text_30">
    <!-- 0.2793 -->
    <g style="fill: #ff0000" transform="translate(475.036751 30.30203) scale(0.25 -0.25)">
     <use xlink:href="#DejaVuSans-30"/>
     <use xlink:href="#DejaVuSans-2e" x="63.623047"/>
     <use xlink:href="#DejaVuSans-32" x="95.410156"/>
     <use xlink:href="#DejaVuSans-37" x="159.033203"/>
     <use xlink:href="#DejaVuSans-39" x="222.65625"/>
     <use xlink:href="#DejaVuSans-33" x="286.279297"/>
    </g>
   </g>
  </g>
 </g>
 <defs>
  <clipPath id="p0dc7db2cc6">
   <rect x="42.495313" y="24.528635" width="650.801562" height="486.119802"/>
  </clipPath>
 </defs>
</svg>
