<?xml version="1.0" encoding="utf-8" standalone="no"?>
<!DOCTYPE svg PUBLIC "-//W3C//DTD SVG 1.1//EN"
  "http://www.w3.org/Graphics/SVG/1.1/DTD/svg11.dtd">
<svg xmlns:xlink="http://www.w3.org/1999/xlink" width="720pt" height="432pt" viewBox="0 0 720 432" xmlns="http://www.w3.org/2000/svg" version="1.1">
 <metadata>
  <rdf:RDF xmlns:dc="http://purl.org/dc/elements/1.1/" xmlns:cc="http://creativecommons.org/ns#" xmlns:rdf="http://www.w3.org/1999/02/22-rdf-syntax-ns#">
   <cc:Work>
    <dc:type rdf:resource="http://purl.org/dc/dcmitype/StillImage"/>
    <dc:date>2022-11-03T12:28:05.681795</dc:date>
    <dc:format>image/svg+xml</dc:format>
    <dc:creator>
     <cc:Agent>
      <dc:title>Matplotlib v3.6.1, https://matplotlib.org/</dc:title>
     </cc:Agent>
    </dc:creator>
   </cc:Work>
  </rdf:RDF>
 </metadata>
 <defs>
  <style type="text/css">*{stroke-linejoin: round; stroke-linecap: butt}</style>
 </defs>
 <g id="figure_1">
  <g id="patch_1">
   <path d="M 0 432 
L 720 432 
L 720 0 
L 0 0 
z
" style="fill: #ffffff"/>
  </g>
  <g id="axes_1">
   <g id="patch_2">
    <path d="M 27.978125 390.84375 
L 701.248437 390.84375 
L 701.248437 14.447844 
L 27.978125 14.447844 
z
" style="fill: #ffffff"/>
   </g>
   <g id="PolyCollection_1">
    <defs>
     <path id="mb6f013d1b7" d="M 369.864051 -45.62651 
L 364.613281 -45.62651 
L 364.613281 -46.073536 
L 364.613281 -46.520562 
L 364.613281 -46.967588 
L 364.613281 -47.414614 
L 364.613281 -47.86164 
L 364.613281 -48.308666 
L 364.613281 -48.755692 
L 364.613281 -49.202718 
L 364.613281 -49.649744 
L 364.613281 -50.09677 
L 364.613281 -50.543796 
L 364.613281 -50.990822 
L 364.613281 -51.437848 
L 364.613281 -51.884874 
L 364.613281 -52.3319 
L 364.613281 -52.778926 
L 364.613281 -53.225952 
L 364.613281 -53.672978 
L 364.613281 -54.120004 
L 364.613281 -54.567031 
L 364.613281 -55.014057 
L 364.613281 -55.461083 
L 364.613281 -55.908109 
L 364.613281 -56.355135 
L 364.613281 -56.802161 
L 364.613281 -57.249187 
L 364.613281 -57.696213 
L 364.613281 -58.143239 
L 364.613281 -58.590265 
L 364.613281 -59.037291 
L 364.613281 -59.484317 
L 364.613281 -59.931343 
L 364.613281 -60.378369 
L 364.613281 -60.825395 
L 364.613281 -61.272421 
L 364.613281 -61.719447 
L 364.613281 -62.166473 
L 364.613281 -62.613499 
L 364.613281 -63.060525 
L 364.613281 -63.507551 
L 364.613281 -63.954577 
L 364.613281 -64.401603 
L 364.613281 -64.848629 
L 364.613281 -65.295655 
L 364.613281 -65.742681 
L 364.613281 -66.189707 
L 364.613281 -66.636733 
L 364.613281 -67.083759 
L 364.613281 -67.530785 
L 364.613281 -67.977811 
L 364.613281 -68.424837 
L 364.613281 -68.871863 
L 364.613281 -69.318889 
L 364.613281 -69.765915 
L 364.613281 -70.212941 
L 364.613281 -70.659967 
L 364.613281 -71.106993 
L 364.613281 -71.554019 
L 364.613281 -72.001045 
L 364.613281 -72.448071 
L 364.613281 -72.895097 
L 364.613281 -73.342123 
L 364.613281 -73.789149 
L 364.613281 -74.236175 
L 364.613281 -74.683201 
L 364.613281 -75.130227 
L 364.613281 -75.577253 
L 364.613281 -76.024279 
L 364.613281 -76.471305 
L 364.613281 -76.918331 
L 364.613281 -77.365357 
L 364.613281 -77.812383 
L 364.613281 -78.259409 
L 364.613281 -78.706435 
L 364.613281 -79.153461 
L 364.613281 -79.600487 
L 364.613281 -80.047513 
L 364.613281 -80.494539 
L 364.613281 -80.941566 
L 364.613281 -81.388592 
L 364.613281 -81.835618 
L 364.613281 -82.282644 
L 364.613281 -82.72967 
L 364.613281 -83.176696 
L 364.613281 -83.623722 
L 364.613281 -84.070748 
L 493.801012 -84.070748 
L 493.801012 -84.070748 
L 492.320327 -83.623722 
L 490.753164 -83.176696 
L 490.374094 -82.72967 
L 488.785709 -82.282644 
L 488.571977 -81.835618 
L 488.088116 -81.388592 
L 487.803896 -80.941566 
L 487.587722 -80.494539 
L 487.366882 -80.047513 
L 487.360751 -79.600487 
L 487.186184 -79.153461 
L 486.700362 -78.706435 
L 486.375205 -78.259409 
L 486.316841 -77.812383 
L 485.583924 -77.365357 
L 485.333418 -76.918331 
L 484.373276 -76.471305 
L 484.322076 -76.024279 
L 483.83189 -75.577253 
L 483.758809 -75.130227 
L 483.605583 -74.683201 
L 483.086967 -74.236175 
L 482.855907 -73.789149 
L 482.350028 -73.342123 
L 482.324297 -72.895097 
L 481.024023 -72.448071 
L 480.636446 -72.001045 
L 480.590215 -71.554019 
L 479.813083 -71.106993 
L 479.804236 -70.659967 
L 478.112577 -70.212941 
L 477.9416 -69.765915 
L 477.539164 -69.318889 
L 477.037418 -68.871863 
L 476.686683 -68.424837 
L 476.267709 -67.977811 
L 475.968773 -67.530785 
L 475.785222 -67.083759 
L 475.543967 -66.636733 
L 475.499005 -66.189707 
L 474.993101 -65.742681 
L 474.634714 -65.295655 
L 473.353971 -64.848629 
L 473.145312 -64.401603 
L 473.064549 -63.954577 
L 472.817249 -63.507551 
L 472.252024 -63.060525 
L 472.248227 -62.613499 
L 472.238586 -62.166473 
L 471.583237 -61.719447 
L 471.374976 -61.272421 
L 471.287983 -60.825395 
L 470.70535 -60.378369 
L 469.394198 -59.931343 
L 469.392106 -59.484317 
L 469.10698 -59.037291 
L 467.289834 -58.590265 
L 465.27746 -58.143239 
L 464.675829 -57.696213 
L 464.122652 -57.249187 
L 463.009721 -56.802161 
L 461.856253 -56.355135 
L 461.124976 -55.908109 
L 461.083121 -55.461083 
L 460.212366 -55.014057 
L 460.061663 -54.567031 
L 459.711836 -54.120004 
L 459.229834 -53.672978 
L 458.557308 -53.225952 
L 457.641317 -52.778926 
L 457.368715 -52.3319 
L 457.197699 -51.884874 
L 454.635722 -51.437848 
L 453.019273 -50.990822 
L 452.666462 -50.543796 
L 446.432024 -50.09677 
L 441.108727 -49.649744 
L 437.602965 -49.202718 
L 426.61932 -48.755692 
L 425.78597 -48.308666 
L 425.779788 -47.86164 
L 420.093156 -47.414614 
L 414.493742 -46.967588 
L 413.074336 -46.520562 
L 399.715415 -46.073536 
L 369.864051 -45.62651 
z
" style="stroke: #000000; stroke-opacity: 0.7"/>
    </defs>
    <g clip-path="url(#p96760710b7)">
     <use xlink:href="#mb6f013d1b7" x="0" y="432" style="fill-opacity: 0.7; stroke: #000000; stroke-opacity: 0.7"/>
    </g>
   </g>
   <g id="PolyCollection_2">
    <defs>
     <path id="mcb44f73d17" d="M 341.167102 -88.988034 
L 364.613281 -88.988034 
L 364.613281 -89.43506 
L 364.613281 -89.882086 
L 364.613281 -90.329112 
L 364.613281 -90.776138 
L 364.613281 -91.223164 
L 364.613281 -91.67019 
L 364.613281 -92.117216 
L 364.613281 -92.564242 
L 364.613281 -93.011268 
L 364.613281 -93.458294 
L 364.613281 -93.90532 
L 364.613281 -94.352346 
L 364.613281 -94.799372 
L 364.613281 -95.246398 
L 364.613281 -95.693424 
L 364.613281 -96.14045 
L 364.613281 -96.587476 
L 364.613281 -97.034502 
L 364.613281 -97.481528 
L 364.613281 -97.928554 
L 364.613281 -98.37558 
L 364.613281 -98.822606 
L 364.613281 -99.269632 
L 364.613281 -99.716658 
L 364.613281 -100.163684 
L 364.613281 -100.61071 
L 364.613281 -101.057736 
L 364.613281 -101.504762 
L 364.613281 -101.951788 
L 364.613281 -102.398814 
L 364.613281 -102.84584 
L 364.613281 -103.292866 
L 364.613281 -103.739892 
L 364.613281 -104.186918 
L 364.613281 -104.633944 
L 364.613281 -105.08097 
L 364.613281 -105.527996 
L 364.613281 -105.975022 
L 364.613281 -106.422048 
L 364.613281 -106.869075 
L 364.613281 -107.316101 
L 364.613281 -107.763127 
L 364.613281 -108.210153 
L 364.613281 -108.657179 
L 364.613281 -109.104205 
L 364.613281 -109.551231 
L 364.613281 -109.998257 
L 364.613281 -110.445283 
L 364.613281 -110.892309 
L 364.613281 -111.339335 
L 364.613281 -111.786361 
L 364.613281 -112.233387 
L 364.613281 -112.680413 
L 364.613281 -113.127439 
L 364.613281 -113.574465 
L 364.613281 -114.021491 
L 364.613281 -114.468517 
L 364.613281 -114.915543 
L 364.613281 -115.362569 
L 364.613281 -115.809595 
L 364.613281 -116.256621 
L 364.613281 -116.703647 
L 364.613281 -117.150673 
L 364.613281 -117.597699 
L 364.613281 -118.044725 
L 364.613281 -118.491751 
L 364.613281 -118.938777 
L 364.613281 -119.385803 
L 364.613281 -119.832829 
L 364.613281 -120.279855 
L 364.613281 -120.726881 
L 364.613281 -121.173907 
L 364.613281 -121.620933 
L 364.613281 -122.067959 
L 364.613281 -122.514985 
L 364.613281 -122.962011 
L 364.613281 -123.409037 
L 364.613281 -123.856063 
L 364.613281 -124.303089 
L 364.613281 -124.750115 
L 364.613281 -125.197141 
L 364.613281 -125.644167 
L 364.613281 -126.091193 
L 364.613281 -126.538219 
L 364.613281 -126.985245 
L 364.613281 -127.432271 
L 364.613281 -127.879297 
L 364.613281 -128.326323 
L 364.613281 -128.773349 
L 364.613281 -129.220375 
L 364.613281 -129.667401 
L 364.613281 -130.114427 
L 364.613281 -130.561453 
L 364.613281 -131.008479 
L 364.613281 -131.455505 
L 364.613281 -131.902531 
L 364.613281 -132.349557 
L 364.613281 -132.796583 
L 364.613281 -133.24361 
L 364.613281 -133.690636 
L 492.454554 -133.690636 
L 492.454554 -133.690636 
L 486.62646 -133.24361 
L 486.237358 -132.796583 
L 483.518912 -132.349557 
L 481.460814 -131.902531 
L 481.0005 -131.455505 
L 480.375123 -131.008479 
L 479.631575 -130.561453 
L 479.178562 -130.114427 
L 477.783695 -129.667401 
L 476.867657 -129.220375 
L 476.700611 -128.773349 
L 476.082311 -128.326323 
L 475.097527 -127.879297 
L 474.807054 -127.432271 
L 473.93668 -126.985245 
L 473.409219 -126.538219 
L 472.797136 -126.091193 
L 472.217435 -125.644167 
L 470.428223 -125.197141 
L 470.249174 -124.750115 
L 469.620686 -124.303089 
L 469.2604 -123.856063 
L 468.95002 -123.409037 
L 467.775439 -122.962011 
L 466.177557 -122.514985 
L 465.560488 -122.067959 
L 465.439802 -121.620933 
L 464.42752 -121.173907 
L 464.181917 -120.726881 
L 463.490982 -120.279855 
L 462.615648 -119.832829 
L 462.116632 -119.385803 
L 461.845362 -118.938777 
L 460.961465 -118.491751 
L 460.664148 -118.044725 
L 460.36854 -117.597699 
L 459.693598 -117.150673 
L 458.906322 -116.703647 
L 457.216875 -116.256621 
L 456.650532 -115.809595 
L 456.242411 -115.362569 
L 456.002813 -114.915543 
L 455.468133 -114.468517 
L 454.88205 -114.021491 
L 452.602256 -113.574465 
L 452.375469 -113.127439 
L 451.886411 -112.680413 
L 451.090105 -112.233387 
L 449.915203 -111.786361 
L 449.690499 -111.339335 
L 448.681673 -110.892309 
L 447.532995 -110.445283 
L 446.464428 -109.998257 
L 443.405528 -109.551231 
L 442.52568 -109.104205 
L 439.037751 -108.657179 
L 438.225777 -108.210153 
L 437.687986 -107.763127 
L 436.517423 -107.316101 
L 436.028599 -106.869075 
L 435.929325 -106.422048 
L 434.150217 -105.975022 
L 426.631648 -105.527996 
L 426.427038 -105.08097 
L 426.21577 -104.633944 
L 423.85651 -104.186918 
L 422.321547 -103.739892 
L 421.31464 -103.292866 
L 420.462674 -102.84584 
L 420.124169 -102.398814 
L 413.904546 -101.951788 
L 412.768854 -101.504762 
L 411.08632 -101.057736 
L 410.756638 -100.61071 
L 408.507967 -100.163684 
L 407.961217 -99.716658 
L 404.623034 -99.269632 
L 404.522102 -98.822606 
L 404.513036 -98.37558 
L 404.300707 -97.928554 
L 402.155214 -97.481528 
L 401.41693 -97.034502 
L 399.805523 -96.587476 
L 398.370243 -96.14045 
L 396.849221 -95.693424 
L 388.488128 -95.246398 
L 387.565469 -94.799372 
L 385.977471 -94.352346 
L 385.867834 -93.90532 
L 385.243463 -93.458294 
L 382.288133 -93.011268 
L 380.86594 -92.564242 
L 379.097105 -92.117216 
L 376.186135 -91.67019 
L 372.390937 -91.223164 
L 366.51955 -90.776138 
L 360.892318 -90.329112 
L 354.702375 -89.882086 
L 343.370229 -89.43506 
L 341.167102 -88.988034 
z
" style="stroke: #7b008c; stroke-opacity: 0.7"/>
    </defs>
    <g clip-path="url(#p96760710b7)">
     <use xlink:href="#mcb44f73d17" x="0" y="432" style="fill: #7b008c; fill-opacity: 0.7; stroke: #7b008c; stroke-opacity: 0.7"/>
    </g>
   </g>
   <g id="PolyCollection_3">
    <defs>
     <path id="m01f247609a" d="M 365.66194 -138.607922 
L 364.613281 -138.607922 
L 364.613281 -139.054948 
L 364.613281 -139.501974 
L 400.287203 -139.501974 
L 400.287203 -139.501974 
L 398.538896 -139.054948 
L 365.66194 -138.607922 
z
" style="stroke: #4300a2; stroke-opacity: 0.7"/>
    </defs>
    <g clip-path="url(#p96760710b7)">
     <use xlink:href="#m01f247609a" x="0" y="432" style="fill: #4300a2; fill-opacity: 0.7; stroke: #4300a2; stroke-opacity: 0.7"/>
    </g>
   </g>
   <g id="PolyCollection_4">
    <defs>
     <path id="mc8d8d8fdba" d="M 412.032404 -144.41926 
L 364.613281 -144.41926 
L 364.613281 -144.866286 
L 364.613281 -145.313312 
L 364.613281 -145.760338 
L 364.613281 -146.207364 
L 364.613281 -146.65439 
L 364.613281 -147.101416 
L 364.613281 -147.548442 
L 364.613281 -147.995468 
L 364.613281 -148.442494 
L 364.613281 -148.88952 
L 364.613281 -149.336546 
L 364.613281 -149.783572 
L 364.613281 -150.230598 
L 450.316673 -150.230598 
L 450.316673 -150.230598 
L 447.380032 -149.783572 
L 446.888773 -149.336546 
L 446.708331 -148.88952 
L 446.589998 -148.442494 
L 445.102475 -147.995468 
L 444.475681 -147.548442 
L 439.485775 -147.101416 
L 439.485775 -146.65439 
L 436.24551 -146.207364 
L 434.298728 -145.760338 
L 428.067167 -145.313312 
L 424.85225 -144.866286 
L 412.032404 -144.41926 
z
" style="stroke: #0000d1; stroke-opacity: 0.7"/>
    </defs>
    <g clip-path="url(#p96760710b7)">
     <use xlink:href="#mc8d8d8fdba" x="0" y="432" style="fill: #0000d1; fill-opacity: 0.7; stroke: #0000d1; stroke-opacity: 0.7"/>
    </g>
   </g>
   <g id="PolyCollection_5">
    <defs>
     <path id="m4ee846c04b" d="M 407.318176 -155.147884 
L 364.613281 -155.147884 
L 364.613281 -155.59491 
L 364.613281 -156.041936 
L 364.613281 -156.488962 
L 364.613281 -156.935988 
L 364.613281 -157.383014 
L 364.613281 -157.83004 
L 364.613281 -158.277066 
L 364.613281 -158.724092 
L 364.613281 -159.171118 
L 364.613281 -159.618145 
L 364.613281 -160.065171 
L 364.613281 -160.512197 
L 364.613281 -160.959223 
L 364.613281 -161.406249 
L 364.613281 -161.853275 
L 364.613281 -162.300301 
L 364.613281 -162.747327 
L 364.613281 -163.194353 
L 364.613281 -163.641379 
L 364.613281 -164.088405 
L 364.613281 -164.535431 
L 364.613281 -164.982457 
L 364.613281 -165.429483 
L 364.613281 -165.876509 
L 364.613281 -166.323535 
L 364.613281 -166.770561 
L 364.613281 -167.217587 
L 364.613281 -167.664613 
L 364.613281 -168.111639 
L 364.613281 -168.558665 
L 364.613281 -169.005691 
L 364.613281 -169.452717 
L 364.613281 -169.899743 
L 364.613281 -170.346769 
L 364.613281 -170.793795 
L 364.613281 -171.240821 
L 364.613281 -171.687847 
L 364.613281 -172.134873 
L 364.613281 -172.581899 
L 364.613281 -173.028925 
L 364.613281 -173.475951 
L 364.613281 -173.922977 
L 364.613281 -174.370003 
L 364.613281 -174.817029 
L 364.613281 -175.264055 
L 542.289032 -175.264055 
L 542.289032 -175.264055 
L 542.283338 -174.817029 
L 538.186453 -174.370003 
L 537.649836 -173.922977 
L 533.592601 -173.475951 
L 529.898574 -173.028925 
L 528.698951 -172.581899 
L 527.726767 -172.134873 
L 527.394311 -171.687847 
L 524.786293 -171.240821 
L 524.35792 -170.793795 
L 520.781374 -170.346769 
L 517.500712 -169.899743 
L 516.286147 -169.452717 
L 516.286147 -169.005691 
L 515.623839 -168.558665 
L 515.036357 -168.111639 
L 513.404043 -167.664613 
L 511.273809 -167.217587 
L 510.65442 -166.770561 
L 506.679417 -166.323535 
L 505.779604 -165.876509 
L 505.209856 -165.429483 
L 502.95693 -164.982457 
L 502.479689 -164.535431 
L 502.239282 -164.088405 
L 500.62909 -163.641379 
L 496.461986 -163.194353 
L 495.618361 -162.747327 
L 495.557188 -162.300301 
L 494.90477 -161.853275 
L 492.531644 -161.406249 
L 490.777325 -160.959223 
L 489.660704 -160.512197 
L 484.056956 -160.065171 
L 478.395988 -159.618145 
L 475.899543 -159.171118 
L 474.903711 -158.724092 
L 474.743017 -158.277066 
L 468.527071 -157.83004 
L 465.411625 -157.383014 
L 461.393309 -156.935988 
L 456.655431 -156.488962 
L 429.286083 -156.041936 
L 407.720103 -155.59491 
L 407.318176 -155.147884 
z
" style="stroke: #0078dd; stroke-opacity: 0.7"/>
    </defs>
    <g clip-path="url(#p96760710b7)">
     <use xlink:href="#m4ee846c04b" x="0" y="432" style="fill: #0078dd; fill-opacity: 0.7; stroke: #0078dd; stroke-opacity: 0.7"/>
    </g>
   </g>
   <g id="PolyCollection_6">
    <defs>
     <path id="me247d2dcc0" d="M 390.221588 -180.181341 
L 364.613281 -180.181341 
L 364.613281 -180.628367 
L 364.613281 -181.075393 
L 364.613281 -181.522419 
L 364.613281 -181.969445 
L 364.613281 -182.416471 
L 364.613281 -182.863497 
L 364.613281 -183.310523 
L 364.613281 -183.757549 
L 496.649398 -183.757549 
L 496.649398 -183.757549 
L 489.7168 -183.310523 
L 484.057306 -182.863497 
L 474.556649 -182.416471 
L 448.857673 -181.969445 
L 428.808044 -181.522419 
L 424.295704 -181.075393 
L 420.378018 -180.628367 
L 390.221588 -180.181341 
z
" style="stroke: #009ecf; stroke-opacity: 0.7"/>
    </defs>
    <g clip-path="url(#p96760710b7)">
     <use xlink:href="#me247d2dcc0" x="0" y="432" style="fill: #009ecf; fill-opacity: 0.7; stroke: #009ecf; stroke-opacity: 0.7"/>
    </g>
   </g>
   <g id="PolyCollection_7">
    <defs>
     <path id="m59bb151dad" d="M 363.515383 -188.674836 
L 364.613281 -188.674836 
L 364.613281 -189.121862 
L 364.613281 -189.568888 
L 364.613281 -190.015914 
L 364.613281 -190.46294 
L 364.613281 -190.909966 
L 364.613281 -191.356992 
L 364.613281 -191.804018 
L 364.613281 -192.251044 
L 364.613281 -192.69807 
L 364.613281 -193.145096 
L 364.613281 -193.592122 
L 364.613281 -194.039148 
L 364.613281 -194.486174 
L 364.613281 -194.9332 
L 364.613281 -195.380226 
L 364.613281 -195.827252 
L 364.613281 -196.274278 
L 364.613281 -196.721304 
L 364.613281 -197.16833 
L 364.613281 -197.615356 
L 364.613281 -198.062382 
L 364.613281 -198.509408 
L 364.613281 -198.956434 
L 364.613281 -199.40346 
L 364.613281 -199.850486 
L 364.613281 -200.297512 
L 364.613281 -200.744538 
L 364.613281 -201.191564 
L 364.613281 -201.63859 
L 364.613281 -202.085616 
L 364.613281 -202.532642 
L 364.613281 -202.979668 
L 364.613281 -203.426694 
L 364.613281 -203.87372 
L 364.613281 -204.320746 
L 364.613281 -204.767772 
L 364.613281 -205.214798 
L 364.613281 -205.661824 
L 364.613281 -206.10885 
L 364.613281 -206.555876 
L 364.613281 -207.002902 
L 364.613281 -207.449928 
L 364.613281 -207.896954 
L 364.613281 -208.34398 
L 364.613281 -208.791006 
L 364.613281 -209.238032 
L 364.613281 -209.685058 
L 364.613281 -210.132084 
L 364.613281 -210.57911 
L 364.613281 -211.026136 
L 364.613281 -211.473162 
L 364.613281 -211.920188 
L 364.613281 -212.367215 
L 364.613281 -212.814241 
L 364.613281 -213.261267 
L 364.613281 -213.708293 
L 364.613281 -214.155319 
L 364.613281 -214.602345 
L 364.613281 -215.049371 
L 364.613281 -215.496397 
L 364.613281 -215.943423 
L 364.613281 -216.390449 
L 364.613281 -216.837475 
L 364.613281 -217.284501 
L 364.613281 -217.731527 
L 486.994153 -217.731527 
L 486.994153 -217.731527 
L 485.958729 -217.284501 
L 481.870014 -216.837475 
L 480.538089 -216.390449 
L 478.384822 -215.943423 
L 478.335398 -215.496397 
L 476.419513 -215.049371 
L 473.021988 -214.602345 
L 472.8859 -214.155319 
L 469.698554 -213.708293 
L 468.517438 -213.261267 
L 467.434655 -212.814241 
L 465.566207 -212.367215 
L 465.110271 -211.920188 
L 465.110271 -211.473162 
L 464.995506 -211.026136 
L 464.253725 -210.57911 
L 463.999184 -210.132084 
L 462.786471 -209.685058 
L 461.971733 -209.238032 
L 461.51692 -208.791006 
L 461.415066 -208.34398 
L 461.127898 -207.896954 
L 461.093537 -207.449928 
L 459.640875 -207.002902 
L 459.044615 -206.555876 
L 459.01712 -206.10885 
L 458.412872 -205.661824 
L 457.661455 -205.214798 
L 456.83401 -204.767772 
L 456.53926 -204.320746 
L 454.802726 -203.87372 
L 454.250941 -203.426694 
L 450.751855 -202.979668 
L 448.928954 -202.532642 
L 448.894928 -202.085616 
L 447.670353 -201.63859 
L 444.062832 -201.191564 
L 442.153691 -200.744538 
L 439.608639 -200.297512 
L 439.281668 -199.850486 
L 437.932249 -199.40346 
L 436.183109 -198.956434 
L 436.159805 -198.509408 
L 434.601298 -198.062382 
L 434.574819 -197.615356 
L 434.499175 -197.16833 
L 433.143662 -196.721304 
L 432.415637 -196.274278 
L 431.896167 -195.827252 
L 431.887307 -195.380226 
L 429.443711 -194.9332 
L 427.150596 -194.486174 
L 426.587692 -194.039148 
L 423.177607 -193.592122 
L 420.900036 -193.145096 
L 418.758255 -192.69807 
L 413.197793 -192.251044 
L 407.974857 -191.804018 
L 406.113026 -191.356992 
L 403.284252 -190.909966 
L 389.874107 -190.46294 
L 386.469434 -190.015914 
L 369.234391 -189.568888 
L 369.022403 -189.121862 
L 363.515383 -188.674836 
z
" style="stroke: #00aa98; stroke-opacity: 0.7"/>
    </defs>
    <g clip-path="url(#p96760710b7)">
     <use xlink:href="#m59bb151dad" x="0" y="432" style="fill: #00aa98; fill-opacity: 0.7; stroke: #00aa98; stroke-opacity: 0.7"/>
    </g>
   </g>
   <g id="PolyCollection_8">
    <defs>
     <path id="m013bea94dc" d="M 491.956977 -222.648813 
L 364.613281 -222.648813 
L 364.613281 -223.095839 
L 364.613281 -223.542865 
L 364.613281 -223.989891 
L 364.613281 -224.436917 
L 364.613281 -224.883943 
L 364.613281 -225.330969 
L 364.613281 -225.777995 
L 550.704291 -225.777995 
L 550.704291 -225.777995 
L 541.941252 -225.330969 
L 537.745775 -224.883943 
L 531.185566 -224.436917 
L 528.277387 -223.989891 
L 521.365385 -223.542865 
L 500.117525 -223.095839 
L 491.956977 -222.648813 
z
" style="stroke: #009d1d; stroke-opacity: 0.7"/>
    </defs>
    <g clip-path="url(#p96760710b7)">
     <use xlink:href="#m013bea94dc" x="0" y="432" style="fill: #009d1d; fill-opacity: 0.7; stroke: #009d1d; stroke-opacity: 0.7"/>
    </g>
   </g>
   <g id="PolyCollection_9">
    <defs>
     <path id="me55e8c272c" d="M 371.990112 -230.695281 
L 364.613281 -230.695281 
L 364.613281 -231.142307 
L 364.613281 -231.589333 
L 364.613281 -232.036359 
L 364.613281 -232.483385 
L 364.613281 -232.930411 
L 364.613281 -233.377437 
L 364.613281 -233.824463 
L 364.613281 -234.271489 
L 364.613281 -234.718515 
L 364.613281 -235.165541 
L 364.613281 -235.612567 
L 364.613281 -236.059593 
L 364.613281 -236.506619 
L 364.613281 -236.953645 
L 364.613281 -237.400671 
L 364.613281 -237.847697 
L 364.613281 -238.294724 
L 364.613281 -238.74175 
L 364.613281 -239.188776 
L 466.510561 -239.188776 
L 466.510561 -239.188776 
L 464.246756 -238.74175 
L 463.113711 -238.294724 
L 461.129492 -237.847697 
L 459.109287 -237.400671 
L 457.517285 -236.953645 
L 447.489231 -236.506619 
L 444.43608 -236.059593 
L 441.198839 -235.612567 
L 435.993156 -235.165541 
L 427.073393 -234.718515 
L 426.557032 -234.271489 
L 424.867217 -233.824463 
L 419.69454 -233.377437 
L 419.5647 -232.930411 
L 419.561358 -232.483385 
L 418.830234 -232.036359 
L 411.632464 -231.589333 
L 406.029069 -231.142307 
L 371.990112 -230.695281 
z
" style="stroke: #00bc00; stroke-opacity: 0.7"/>
    </defs>
    <g clip-path="url(#p96760710b7)">
     <use xlink:href="#me55e8c272c" x="0" y="432" style="fill: #00bc00; fill-opacity: 0.7; stroke: #00bc00; stroke-opacity: 0.7"/>
    </g>
   </g>
   <g id="PolyCollection_10">
    <defs>
     <path id="m8d97340b70" d="M 350.996558 -244.106062 
L 364.613281 -244.106062 
L 364.613281 -244.553088 
L 364.613281 -245.000114 
L 364.613281 -245.44714 
L 364.613281 -245.894166 
L 364.613281 -246.341192 
L 364.613281 -246.788218 
L 364.613281 -247.235244 
L 364.613281 -247.68227 
L 364.613281 -248.129296 
L 364.613281 -248.576322 
L 364.613281 -249.023348 
L 364.613281 -249.470374 
L 364.613281 -249.9174 
L 364.613281 -250.364426 
L 364.613281 -250.811452 
L 364.613281 -251.258478 
L 364.613281 -251.705504 
L 364.613281 -252.15253 
L 364.613281 -252.599556 
L 364.613281 -253.046582 
L 364.613281 -253.493608 
L 364.613281 -253.940634 
L 364.613281 -254.38766 
L 364.613281 -254.834686 
L 364.613281 -255.281712 
L 364.613281 -255.728738 
L 364.613281 -256.175764 
L 364.613281 -256.62279 
L 364.613281 -257.069816 
L 364.613281 -257.516842 
L 364.613281 -257.963868 
L 364.613281 -258.410894 
L 364.613281 -258.85792 
L 364.613281 -259.304946 
L 364.613281 -259.751972 
L 364.613281 -260.198998 
L 364.613281 -260.646024 
L 364.613281 -261.09305 
L 364.613281 -261.540076 
L 364.613281 -261.987102 
L 364.613281 -262.434128 
L 364.613281 -262.881154 
L 364.613281 -263.32818 
L 364.613281 -263.775206 
L 364.613281 -264.222232 
L 364.613281 -264.669259 
L 364.613281 -265.116285 
L 364.613281 -265.563311 
L 364.613281 -266.010337 
L 364.613281 -266.457363 
L 364.613281 -266.904389 
L 364.613281 -267.351415 
L 364.613281 -267.798441 
L 364.613281 -268.245467 
L 364.613281 -268.692493 
L 364.613281 -269.139519 
L 494.365073 -269.139519 
L 494.365073 -269.139519 
L 490.437612 -268.692493 
L 488.76921 -268.245467 
L 484.585205 -267.798441 
L 484.585205 -267.351415 
L 483.440056 -266.904389 
L 481.668928 -266.457363 
L 481.668928 -266.010337 
L 478.963949 -265.563311 
L 478.623034 -265.116285 
L 474.512904 -264.669259 
L 473.979458 -264.222232 
L 473.844348 -263.775206 
L 473.648226 -263.32818 
L 467.878873 -262.881154 
L 465.121453 -262.434128 
L 461.787884 -261.987102 
L 460.828251 -261.540076 
L 460.779692 -261.09305 
L 459.452776 -260.646024 
L 458.168068 -260.198998 
L 457.716901 -259.751972 
L 455.646788 -259.304946 
L 455.646788 -258.85792 
L 454.688239 -258.410894 
L 451.347198 -257.963868 
L 450.24829 -257.516842 
L 450.056564 -257.069816 
L 448.428087 -256.62279 
L 446.414897 -256.175764 
L 443.225161 -255.728738 
L 443.011252 -255.281712 
L 441.757195 -254.834686 
L 441.450985 -254.38766 
L 438.447624 -253.940634 
L 437.349425 -253.493608 
L 437.051475 -253.046582 
L 434.2586 -252.599556 
L 432.460041 -252.15253 
L 431.886102 -251.705504 
L 429.624195 -251.258478 
L 428.012019 -250.811452 
L 425.256174 -250.364426 
L 424.088007 -249.9174 
L 423.349922 -249.470374 
L 420.958879 -249.023348 
L 419.801393 -248.576322 
L 417.144179 -248.129296 
L 414.568542 -247.68227 
L 414.532684 -247.235244 
L 406.804337 -246.788218 
L 397.070581 -246.341192 
L 393.485984 -245.894166 
L 390.661216 -245.44714 
L 389.581341 -245.000114 
L 378.530328 -244.553088 
L 350.996558 -244.106062 
z
" style="stroke: #00e700; stroke-opacity: 0.7"/>
    </defs>
    <g clip-path="url(#p96760710b7)">
     <use xlink:href="#m8d97340b70" x="0" y="432" style="fill: #00e700; fill-opacity: 0.7; stroke: #00e700; stroke-opacity: 0.7"/>
    </g>
   </g>
   <g id="PolyCollection_11">
    <defs>
     <path id="mac327629c7" d="M 352.076647 -274.056805 
L 364.613281 -274.056805 
L 364.613281 -274.503831 
L 364.613281 -274.950857 
L 364.613281 -275.397883 
L 364.613281 -275.844909 
L 364.613281 -276.291935 
L 364.613281 -276.738961 
L 364.613281 -277.185987 
L 364.613281 -277.633013 
L 364.613281 -278.080039 
L 364.613281 -278.527065 
L 364.613281 -278.974091 
L 364.613281 -279.421117 
L 364.613281 -279.868143 
L 364.613281 -280.315169 
L 364.613281 -280.762195 
L 364.613281 -281.209221 
L 364.613281 -281.656247 
L 364.613281 -282.103273 
L 364.613281 -282.550299 
L 364.613281 -282.997325 
L 364.613281 -283.444351 
L 364.613281 -283.891377 
L 443.893089 -283.891377 
L 443.893089 -283.891377 
L 436.789524 -283.444351 
L 436.510793 -282.997325 
L 434.910124 -282.550299 
L 432.249075 -282.103273 
L 432.046779 -281.656247 
L 426.802252 -281.209221 
L 421.673434 -280.762195 
L 421.376684 -280.315169 
L 419.434306 -279.868143 
L 415.103458 -279.421117 
L 409.185321 -278.974091 
L 407.80986 -278.527065 
L 403.980907 -278.080039 
L 401.405671 -277.633013 
L 395.978138 -277.185987 
L 394.263585 -276.738961 
L 391.059828 -276.291935 
L 390.015177 -275.844909 
L 383.853593 -275.397883 
L 365.60476 -274.950857 
L 362.341084 -274.503831 
L 352.076647 -274.056805 
z
" style="stroke: #67ff00; stroke-opacity: 0.7"/>
    </defs>
    <g clip-path="url(#p96760710b7)">
     <use xlink:href="#mac327629c7" x="0" y="432" style="fill: #67ff00; fill-opacity: 0.7; stroke: #67ff00; stroke-opacity: 0.7"/>
    </g>
   </g>
   <g id="PolyCollection_12">
    <defs>
     <path id="mfb924e5a64" d="M 426.814379 -288.808663 
L 364.613281 -288.808663 
L 364.613281 -289.255689 
L 364.613281 -289.702715 
L 364.613281 -290.149741 
L 364.613281 -290.596767 
L 364.613281 -291.043794 
L 364.613281 -291.49082 
L 364.613281 -291.937846 
L 364.613281 -292.384872 
L 364.613281 -292.831898 
L 364.613281 -293.278924 
L 364.613281 -293.72595 
L 364.613281 -294.172976 
L 364.613281 -294.620002 
L 364.613281 -295.067028 
L 364.613281 -295.514054 
L 364.613281 -295.96108 
L 364.613281 -296.408106 
L 364.613281 -296.855132 
L 364.613281 -297.302158 
L 364.613281 -297.749184 
L 364.613281 -298.19621 
L 364.613281 -298.643236 
L 364.613281 -299.090262 
L 364.613281 -299.537288 
L 364.613281 -299.984314 
L 364.613281 -300.43134 
L 364.613281 -300.878366 
L 364.613281 -301.325392 
L 364.613281 -301.772418 
L 364.613281 -302.219444 
L 364.613281 -302.66647 
L 364.613281 -303.113496 
L 364.613281 -303.560522 
L 364.613281 -304.007548 
L 364.613281 -304.454574 
L 364.613281 -304.9016 
L 364.613281 -305.348626 
L 364.613281 -305.795652 
L 364.613281 -306.242678 
L 364.613281 -306.689704 
L 364.613281 -307.13673 
L 364.613281 -307.583756 
L 364.613281 -308.030782 
L 364.613281 -308.477808 
L 364.613281 -308.924834 
L 364.613281 -309.37186 
L 364.613281 -309.818886 
L 364.613281 -310.265912 
L 364.613281 -310.712938 
L 364.613281 -311.159964 
L 364.613281 -311.60699 
L 364.613281 -312.054016 
L 364.613281 -312.501042 
L 364.613281 -312.948068 
L 364.613281 -313.395094 
L 364.613281 -313.84212 
L 364.613281 -314.289146 
L 364.613281 -314.736172 
L 364.613281 -315.183198 
L 364.613281 -315.630224 
L 364.613281 -316.07725 
L 364.613281 -316.524276 
L 364.613281 -316.971302 
L 364.613281 -317.418329 
L 364.613281 -317.865355 
L 364.613281 -318.312381 
L 364.613281 -318.759407 
L 364.613281 -319.206433 
L 364.613281 -319.653459 
L 364.613281 -320.100485 
L 364.613281 -320.547511 
L 364.613281 -320.994537 
L 364.613281 -321.441563 
L 364.613281 -321.888589 
L 364.613281 -322.335615 
L 364.613281 -322.782641 
L 364.613281 -323.229667 
L 364.613281 -323.676693 
L 364.613281 -324.123719 
L 364.613281 -324.570745 
L 364.613281 -325.017771 
L 364.613281 -325.464797 
L 364.613281 -325.911823 
L 364.613281 -326.358849 
L 364.613281 -326.805875 
L 364.613281 -327.252901 
L 364.613281 -327.699927 
L 364.613281 -328.146953 
L 364.613281 -328.593979 
L 364.613281 -329.041005 
L 364.613281 -329.488031 
L 364.613281 -329.935057 
L 364.613281 -330.382083 
L 364.613281 -330.829109 
L 364.613281 -331.276135 
L 364.613281 -331.723161 
L 364.613281 -332.170187 
L 364.613281 -332.617213 
L 364.613281 -333.064239 
L 364.613281 -333.511265 
L 364.613281 -333.958291 
L 364.613281 -334.405317 
L 364.613281 -334.852343 
L 364.613281 -335.299369 
L 364.613281 -335.746395 
L 364.613281 -336.193421 
L 364.613281 -336.640447 
L 364.613281 -337.087473 
L 364.613281 -337.534499 
L 364.613281 -337.981525 
L 364.613281 -338.428551 
L 364.613281 -338.875577 
L 364.613281 -339.322603 
L 364.613281 -339.769629 
L 364.613281 -340.216655 
L 364.613281 -340.663681 
L 364.613281 -341.110707 
L 364.613281 -341.557733 
L 364.613281 -342.004759 
L 364.613281 -342.451785 
L 364.613281 -342.898811 
L 364.613281 -343.345838 
L 364.613281 -343.792864 
L 364.613281 -344.23989 
L 364.613281 -344.686916 
L 364.613281 -345.133942 
L 364.613281 -345.580968 
L 364.613281 -346.027994 
L 364.613281 -346.47502 
L 364.613281 -346.922046 
L 364.613281 -347.369072 
L 364.613281 -347.816098 
L 364.613281 -348.263124 
L 364.613281 -348.71015 
L 364.613281 -349.157176 
L 364.613281 -349.604202 
L 364.613281 -350.051228 
L 364.613281 -350.498254 
L 364.613281 -350.94528 
L 364.613281 -351.392306 
L 364.613281 -351.839332 
L 364.613281 -352.286358 
L 364.613281 -352.733384 
L 364.613281 -353.18041 
L 364.613281 -353.627436 
L 364.613281 -354.074462 
L 364.613281 -354.521488 
L 364.613281 -354.968514 
L 364.613281 -355.41554 
L 364.613281 -355.862566 
L 364.613281 -356.309592 
L 364.613281 -356.756618 
L 364.613281 -357.203644 
L 364.613281 -357.65067 
L 364.613281 -358.097696 
L 364.613281 -358.544722 
L 364.613281 -358.991748 
L 364.613281 -359.438774 
L 364.613281 -359.8858 
L 364.613281 -360.332826 
L 364.613281 -360.779852 
L 364.613281 -361.226878 
L 364.613281 -361.673904 
L 364.613281 -362.12093 
L 364.613281 -362.567956 
L 364.613281 -363.014982 
L 364.613281 -363.462008 
L 364.613281 -363.909034 
L 364.613281 -364.35606 
L 364.613281 -364.803086 
L 364.613281 -365.250112 
L 364.613281 -365.697138 
L 364.613281 -366.144164 
L 364.613281 -366.59119 
L 364.613281 -367.038216 
L 364.613281 -367.485242 
L 364.613281 -367.932268 
L 364.613281 -368.379294 
L 364.613281 -368.82632 
L 364.613281 -369.273346 
L 364.613281 -369.720373 
L 364.613281 -370.167399 
L 364.613281 -370.614425 
L 364.613281 -371.061451 
L 364.613281 -371.508477 
L 364.613281 -371.955503 
L 364.613281 -372.402529 
L 364.613281 -372.849555 
L 364.613281 -373.296581 
L 364.613281 -373.743607 
L 364.613281 -374.190633 
L 364.613281 -374.637659 
L 364.613281 -375.084685 
L 364.613281 -375.531711 
L 364.613281 -375.978737 
L 364.613281 -376.425763 
L 364.613281 -376.872789 
L 364.613281 -377.319815 
L 364.613281 -377.766841 
L 364.613281 -378.213867 
L 511.107701 -378.213867 
L 511.107701 -378.213867 
L 504.846174 -377.766841 
L 504.018979 -377.319815 
L 503.762465 -376.872789 
L 503.027437 -376.425763 
L 501.751614 -375.978737 
L 500.87207 -375.531711 
L 500.710025 -375.084685 
L 500.575546 -374.637659 
L 500.071456 -374.190633 
L 500.005775 -373.743607 
L 499.891526 -373.296581 
L 499.565172 -372.849555 
L 499.032324 -372.402529 
L 498.554451 -371.955503 
L 497.965589 -371.508477 
L 497.909944 -371.061451 
L 497.560039 -370.614425 
L 496.689136 -370.167399 
L 495.741024 -369.720373 
L 495.385152 -369.273346 
L 495.192766 -368.82632 
L 494.885991 -368.379294 
L 494.528274 -367.932268 
L 494.510607 -367.485242 
L 494.431702 -367.038216 
L 494.383352 -366.59119 
L 494.380709 -366.144164 
L 494.227682 -365.697138 
L 493.892087 -365.250112 
L 493.705494 -364.803086 
L 493.563966 -364.35606 
L 493.550893 -363.909034 
L 493.343858 -363.462008 
L 493.302897 -363.014982 
L 492.944623 -362.567956 
L 492.745441 -362.12093 
L 492.295796 -361.673904 
L 492.14497 -361.226878 
L 491.808709 -360.779852 
L 491.253902 -360.332826 
L 491.198858 -359.8858 
L 489.875207 -359.438774 
L 489.740465 -358.991748 
L 489.55667 -358.544722 
L 489.180883 -358.097696 
L 489.037683 -357.65067 
L 488.908554 -357.203644 
L 488.462432 -356.756618 
L 488.149505 -356.309592 
L 488.119812 -355.862566 
L 487.59049 -355.41554 
L 487.181313 -354.968514 
L 486.798208 -354.521488 
L 486.766273 -354.074462 
L 486.129632 -353.627436 
L 485.873325 -353.18041 
L 485.860328 -352.733384 
L 485.176101 -352.286358 
L 485.161306 -351.839332 
L 485.01452 -351.392306 
L 484.516527 -350.94528 
L 483.775905 -350.498254 
L 483.764477 -350.051228 
L 483.57923 -349.604202 
L 483.333922 -349.157176 
L 482.825889 -348.71015 
L 482.778293 -348.263124 
L 482.670247 -347.816098 
L 482.244302 -347.369072 
L 482.116482 -346.922046 
L 482.10755 -346.47502 
L 481.979126 -346.027994 
L 481.840567 -345.580968 
L 481.646301 -345.133942 
L 481.098559 -344.686916 
L 481.07943 -344.23989 
L 481.066323 -343.792864 
L 480.848695 -343.345838 
L 480.84547 -342.898811 
L 480.652223 -342.451785 
L 480.412002 -342.004759 
L 480.209715 -341.557733 
L 480.178476 -341.110707 
L 480.028533 -340.663681 
L 479.846233 -340.216655 
L 479.813958 -339.769629 
L 479.788982 -339.322603 
L 479.609571 -338.875577 
L 479.268374 -338.428551 
L 479.006725 -337.981525 
L 478.966704 -337.534499 
L 478.472214 -337.087473 
L 478.375027 -336.640447 
L 478.196938 -336.193421 
L 477.977331 -335.746395 
L 477.785503 -335.299369 
L 477.457832 -334.852343 
L 476.956937 -334.405317 
L 476.694801 -333.958291 
L 476.394381 -333.511265 
L 476.323571 -333.064239 
L 476.301144 -332.617213 
L 476.289503 -332.170187 
L 476.230896 -331.723161 
L 476.206148 -331.276135 
L 475.503203 -330.829109 
L 475.008418 -330.382083 
L 474.214061 -329.935057 
L 473.659659 -329.488031 
L 473.658194 -329.041005 
L 473.532601 -328.593979 
L 473.228014 -328.146953 
L 472.787946 -327.699927 
L 472.667999 -327.252901 
L 472.029618 -326.805875 
L 471.902495 -326.358849 
L 471.687451 -325.911823 
L 470.861071 -325.464797 
L 470.626237 -325.017771 
L 470.584899 -324.570745 
L 470.208343 -324.123719 
L 469.264837 -323.676693 
L 468.838877 -323.229667 
L 468.290084 -322.782641 
L 467.92089 -322.335615 
L 467.555732 -321.888589 
L 467.175974 -321.441563 
L 466.753705 -320.994537 
L 466.665814 -320.547511 
L 466.63524 -320.100485 
L 466.335578 -319.653459 
L 466.24003 -319.206433 
L 466.04112 -318.759407 
L 466.008505 -318.312381 
L 465.901657 -317.865355 
L 465.549732 -317.418329 
L 465.521984 -316.971302 
L 465.508717 -316.524276 
L 464.549459 -316.07725 
L 464.134471 -315.630224 
L 463.48513 -315.183198 
L 463.411545 -314.736172 
L 462.916569 -314.289146 
L 462.806424 -313.84212 
L 462.589166 -313.395094 
L 462.478652 -312.948068 
L 462.146034 -312.501042 
L 460.784619 -312.054016 
L 460.453329 -311.60699 
L 459.884978 -311.159964 
L 459.688818 -310.712938 
L 459.405714 -310.265912 
L 459.401173 -309.818886 
L 459.221397 -309.37186 
L 458.793334 -308.924834 
L 458.387295 -308.477808 
L 458.32638 -308.030782 
L 458.193815 -307.583756 
L 457.340746 -307.13673 
L 456.987559 -306.689704 
L 456.258638 -306.242678 
L 455.889342 -305.795652 
L 455.308315 -305.348626 
L 454.882069 -304.9016 
L 454.604459 -304.454574 
L 453.538908 -304.007548 
L 453.094256 -303.560522 
L 452.412972 -303.113496 
L 452.299245 -302.66647 
L 452.247856 -302.219444 
L 451.988462 -301.772418 
L 451.824269 -301.325392 
L 451.61252 -300.878366 
L 451.249019 -300.43134 
L 451.216113 -299.984314 
L 450.134943 -299.537288 
L 449.797614 -299.090262 
L 449.151863 -298.643236 
L 448.27216 -298.19621 
L 447.370724 -297.749184 
L 447.265746 -297.302158 
L 447.200741 -296.855132 
L 446.179148 -296.408106 
L 445.050678 -295.96108 
L 444.98613 -295.514054 
L 444.710211 -295.067028 
L 443.442329 -294.620002 
L 443.306026 -294.172976 
L 442.174807 -293.72595 
L 442.115734 -293.278924 
L 441.415209 -292.831898 
L 441.234998 -292.384872 
L 441.190635 -291.937846 
L 438.395655 -291.49082 
L 437.827967 -291.043794 
L 437.534583 -290.596767 
L 434.567259 -290.149741 
L 434.333981 -289.702715 
L 433.50208 -289.255689 
L 426.814379 -288.808663 
z
" style="stroke: #e4f100; stroke-opacity: 0.7"/>
    </defs>
    <g clip-path="url(#p96760710b7)">
     <use xlink:href="#mfb924e5a64" x="0" y="432" style="fill: #e4f100; fill-opacity: 0.7; stroke: #e4f100; stroke-opacity: 0.7"/>
    </g>
   </g>
   <g id="PolyCollection_13">
    <defs>
     <path id="m4bf8673425" d="M 312.015722 -383.131153 
L 364.613281 -383.131153 
L 364.613281 -383.578179 
L 364.613281 -384.025205 
L 364.613281 -384.472231 
L 364.613281 -384.919257 
L 364.613281 -385.366283 
L 364.613281 -385.813309 
L 364.613281 -386.260335 
L 364.613281 -386.707361 
L 364.613281 -387.154387 
L 364.613281 -387.601413 
L 364.613281 -388.048439 
L 364.613281 -388.495465 
L 364.613281 -388.942491 
L 364.613281 -389.389517 
L 364.613281 -389.836543 
L 364.613281 -390.283569 
L 364.613281 -390.730595 
L 364.613281 -391.177621 
L 435.326974 -391.177621 
L 435.326974 -391.177621 
L 427.031977 -390.730595 
L 425.641429 -390.283569 
L 425.066107 -389.836543 
L 423.96759 -389.389517 
L 420.27683 -388.942491 
L 419.228262 -388.495465 
L 410.912082 -388.048439 
L 408.963056 -387.601413 
L 408.60435 -387.154387 
L 401.913372 -386.707361 
L 384.826564 -386.260335 
L 377.602408 -385.813309 
L 373.877336 -385.366283 
L 370.322121 -384.919257 
L 369.031597 -384.472231 
L 359.284009 -384.025205 
L 353.685517 -383.578179 
L 312.015722 -383.131153 
z
" style="stroke: #ffc900; stroke-opacity: 0.7"/>
    </defs>
    <g clip-path="url(#p96760710b7)">
     <use xlink:href="#m4bf8673425" x="0" y="432" style="fill: #ffc900; fill-opacity: 0.7; stroke: #ffc900; stroke-opacity: 0.7"/>
    </g>
   </g>
   <g id="PolyCollection_14">
    <defs>
     <path id="mabf251a428" d="M 405.364137 -396.094908 
L 364.613281 -396.094908 
L 364.613281 -396.541934 
L 364.613281 -396.98896 
L 364.613281 -397.435986 
L 364.613281 -397.883012 
L 364.613281 -398.330038 
L 446.002244 -398.330038 
L 446.002244 -398.330038 
L 445.735429 -397.883012 
L 441.948174 -397.435986 
L 429.079583 -396.98896 
L 425.054139 -396.541934 
L 405.364137 -396.094908 
z
" style="stroke: #ff6900; stroke-opacity: 0.7"/>
    </defs>
    <g clip-path="url(#p96760710b7)">
     <use xlink:href="#mabf251a428" x="0" y="432" style="fill: #ff6900; fill-opacity: 0.7; stroke: #ff6900; stroke-opacity: 0.7"/>
    </g>
   </g>
   <g id="PolyCollection_15">
    <defs>
     <path id="mae7b0cbde5" d="M 526.373196 -403.247324 
L 364.613281 -403.247324 
L 364.613281 -403.69435 
L 364.613281 -404.141376 
L 364.613281 -404.588402 
L 364.613281 -405.035428 
L 364.613281 -405.482454 
L 364.613281 -405.92948 
L 364.613281 -406.376506 
L 364.613281 -406.823532 
L 564.478336 -406.823532 
L 564.478336 -406.823532 
L 563.722641 -406.376506 
L 559.842966 -405.92948 
L 558.113229 -405.482454 
L 535.826319 -405.035428 
L 534.662777 -404.588402 
L 528.815416 -404.141376 
L 528.148191 -403.69435 
L 526.373196 -403.247324 
z
" style="stroke: #ec0000; stroke-opacity: 0.7"/>
    </defs>
    <g clip-path="url(#p96760710b7)">
     <use xlink:href="#mae7b0cbde5" x="0" y="432" style="fill: #ec0000; fill-opacity: 0.7; stroke: #ec0000; stroke-opacity: 0.7"/>
    </g>
   </g>
   <g id="PolyCollection_16">
    <defs>
     <path id="m304eb4b7dd" d="M 565.611485 -411.740818 
L 364.613281 -411.740818 
L 364.613281 -412.187844 
L 364.613281 -412.63487 
L 597.558637 -412.63487 
L 597.558637 -412.63487 
L 592.370228 -412.187844 
L 565.611485 -411.740818 
z
" style="stroke: #cf0000; stroke-opacity: 0.7"/>
    </defs>
    <g clip-path="url(#p96760710b7)">
     <use xlink:href="#m304eb4b7dd" x="0" y="432" style="fill: #cf0000; fill-opacity: 0.7; stroke: #cf0000; stroke-opacity: 0.7"/>
    </g>
   </g>
   <g id="matplotlib.axis_1">
    <g id="xtick_1">
     <g id="line2d_1">
      <defs>
       <path id="m3e76deb233" d="M 0 0 
L 0 3.5 
" style="stroke: #000000; stroke-width: 0.8"/>
      </defs>
      <g>
       <use xlink:href="#m3e76deb233" x="27.978125" y="390.84375" style="stroke: #000000; stroke-width: 0.8"/>
      </g>
     </g>
     <g id="text_1">
      <!-- −1.0 -->
      <g transform="translate(15.836719 405.442187) scale(0.1 -0.1)">
       <defs>
        <path id="DejaVuSans-2212" d="M 678 2272 
L 4684 2272 
L 4684 1741 
L 678 1741 
L 678 2272 
z
" transform="scale(0.015625)"/>
        <path id="DejaVuSans-31" d="M 794 531 
L 1825 531 
L 1825 4091 
L 703 3866 
L 703 4441 
L 1819 4666 
L 2450 4666 
L 2450 531 
L 3481 531 
L 3481 0 
L 794 0 
L 794 531 
z
" transform="scale(0.015625)"/>
        <path id="DejaVuSans-2e" d="M 684 794 
L 1344 794 
L 1344 0 
L 684 0 
L 684 794 
z
" transform="scale(0.015625)"/>
        <path id="DejaVuSans-30" d="M 2034 4250 
Q 1547 4250 1301 3770 
Q 1056 3291 1056 2328 
Q 1056 1369 1301 889 
Q 1547 409 2034 409 
Q 2525 409 2770 889 
Q 3016 1369 3016 2328 
Q 3016 3291 2770 3770 
Q 2525 4250 2034 4250 
z
M 2034 4750 
Q 2819 4750 3233 4129 
Q 3647 3509 3647 2328 
Q 3647 1150 3233 529 
Q 2819 -91 2034 -91 
Q 1250 -91 836 529 
Q 422 1150 422 2328 
Q 422 3509 836 4129 
Q 1250 4750 2034 4750 
z
" transform="scale(0.015625)"/>
       </defs>
       <use xlink:href="#DejaVuSans-2212"/>
       <use xlink:href="#DejaVuSans-31" x="83.789062"/>
       <use xlink:href="#DejaVuSans-2e" x="147.412109"/>
       <use xlink:href="#DejaVuSans-30" x="179.199219"/>
      </g>
     </g>
    </g>
    <g id="xtick_2">
     <g id="line2d_2">
      <g>
       <use xlink:href="#m3e76deb233" x="95.305156" y="390.84375" style="stroke: #000000; stroke-width: 0.8"/>
      </g>
     </g>
     <g id="text_2">
      <!-- −0.8 -->
      <g transform="translate(83.16375 405.442187) scale(0.1 -0.1)">
       <defs>
        <path id="DejaVuSans-38" d="M 2034 2216 
Q 1584 2216 1326 1975 
Q 1069 1734 1069 1313 
Q 1069 891 1326 650 
Q 1584 409 2034 409 
Q 2484 409 2743 651 
Q 3003 894 3003 1313 
Q 3003 1734 2745 1975 
Q 2488 2216 2034 2216 
z
M 1403 2484 
Q 997 2584 770 2862 
Q 544 3141 544 3541 
Q 544 4100 942 4425 
Q 1341 4750 2034 4750 
Q 2731 4750 3128 4425 
Q 3525 4100 3525 3541 
Q 3525 3141 3298 2862 
Q 3072 2584 2669 2484 
Q 3125 2378 3379 2068 
Q 3634 1759 3634 1313 
Q 3634 634 3220 271 
Q 2806 -91 2034 -91 
Q 1263 -91 848 271 
Q 434 634 434 1313 
Q 434 1759 690 2068 
Q 947 2378 1403 2484 
z
M 1172 3481 
Q 1172 3119 1398 2916 
Q 1625 2713 2034 2713 
Q 2441 2713 2670 2916 
Q 2900 3119 2900 3481 
Q 2900 3844 2670 4047 
Q 2441 4250 2034 4250 
Q 1625 4250 1398 4047 
Q 1172 3844 1172 3481 
z
" transform="scale(0.015625)"/>
       </defs>
       <use xlink:href="#DejaVuSans-2212"/>
       <use xlink:href="#DejaVuSans-30" x="83.789062"/>
       <use xlink:href="#DejaVuSans-2e" x="147.412109"/>
       <use xlink:href="#DejaVuSans-38" x="179.199219"/>
      </g>
     </g>
    </g>
    <g id="xtick_3">
     <g id="line2d_3">
      <g>
       <use xlink:href="#m3e76deb233" x="162.632188" y="390.84375" style="stroke: #000000; stroke-width: 0.8"/>
      </g>
     </g>
     <g id="text_3">
      <!-- −0.6 -->
      <g transform="translate(150.490781 405.442187) scale(0.1 -0.1)">
       <defs>
        <path id="DejaVuSans-36" d="M 2113 2584 
Q 1688 2584 1439 2293 
Q 1191 2003 1191 1497 
Q 1191 994 1439 701 
Q 1688 409 2113 409 
Q 2538 409 2786 701 
Q 3034 994 3034 1497 
Q 3034 2003 2786 2293 
Q 2538 2584 2113 2584 
z
M 3366 4563 
L 3366 3988 
Q 3128 4100 2886 4159 
Q 2644 4219 2406 4219 
Q 1781 4219 1451 3797 
Q 1122 3375 1075 2522 
Q 1259 2794 1537 2939 
Q 1816 3084 2150 3084 
Q 2853 3084 3261 2657 
Q 3669 2231 3669 1497 
Q 3669 778 3244 343 
Q 2819 -91 2113 -91 
Q 1303 -91 875 529 
Q 447 1150 447 2328 
Q 447 3434 972 4092 
Q 1497 4750 2381 4750 
Q 2619 4750 2861 4703 
Q 3103 4656 3366 4563 
z
" transform="scale(0.015625)"/>
       </defs>
       <use xlink:href="#DejaVuSans-2212"/>
       <use xlink:href="#DejaVuSans-30" x="83.789062"/>
       <use xlink:href="#DejaVuSans-2e" x="147.412109"/>
       <use xlink:href="#DejaVuSans-36" x="179.199219"/>
      </g>
     </g>
    </g>
    <g id="xtick_4">
     <g id="line2d_4">
      <g>
       <use xlink:href="#m3e76deb233" x="229.959219" y="390.84375" style="stroke: #000000; stroke-width: 0.8"/>
      </g>
     </g>
     <g id="text_4">
      <!-- −0.4 -->
      <g transform="translate(217.817813 405.442187) scale(0.1 -0.1)">
       <defs>
        <path id="DejaVuSans-34" d="M 2419 4116 
L 825 1625 
L 2419 1625 
L 2419 4116 
z
M 2253 4666 
L 3047 4666 
L 3047 1625 
L 3713 1625 
L 3713 1100 
L 3047 1100 
L 3047 0 
L 2419 0 
L 2419 1100 
L 313 1100 
L 313 1709 
L 2253 4666 
z
" transform="scale(0.015625)"/>
       </defs>
       <use xlink:href="#DejaVuSans-2212"/>
       <use xlink:href="#DejaVuSans-30" x="83.789062"/>
       <use xlink:href="#DejaVuSans-2e" x="147.412109"/>
       <use xlink:href="#DejaVuSans-34" x="179.199219"/>
      </g>
     </g>
    </g>
    <g id="xtick_5">
     <g id="line2d_5">
      <g>
       <use xlink:href="#m3e76deb233" x="297.28625" y="390.84375" style="stroke: #000000; stroke-width: 0.8"/>
      </g>
     </g>
     <g id="text_5">
      <!-- −0.2 -->
      <g transform="translate(285.144844 405.442187) scale(0.1 -0.1)">
       <defs>
        <path id="DejaVuSans-32" d="M 1228 531 
L 3431 531 
L 3431 0 
L 469 0 
L 469 531 
Q 828 903 1448 1529 
Q 2069 2156 2228 2338 
Q 2531 2678 2651 2914 
Q 2772 3150 2772 3378 
Q 2772 3750 2511 3984 
Q 2250 4219 1831 4219 
Q 1534 4219 1204 4116 
Q 875 4013 500 3803 
L 500 4441 
Q 881 4594 1212 4672 
Q 1544 4750 1819 4750 
Q 2544 4750 2975 4387 
Q 3406 4025 3406 3419 
Q 3406 3131 3298 2873 
Q 3191 2616 2906 2266 
Q 2828 2175 2409 1742 
Q 1991 1309 1228 531 
z
" transform="scale(0.015625)"/>
       </defs>
       <use xlink:href="#DejaVuSans-2212"/>
       <use xlink:href="#DejaVuSans-30" x="83.789062"/>
       <use xlink:href="#DejaVuSans-2e" x="147.412109"/>
       <use xlink:href="#DejaVuSans-32" x="179.199219"/>
      </g>
     </g>
    </g>
    <g id="xtick_6">
     <g id="line2d_6">
      <g>
       <use xlink:href="#m3e76deb233" x="364.613281" y="390.84375" style="stroke: #000000; stroke-width: 0.8"/>
      </g>
     </g>
     <g id="text_6">
      <!-- 0.0 -->
      <g transform="translate(356.661719 405.442187) scale(0.1 -0.1)">
       <use xlink:href="#DejaVuSans-30"/>
       <use xlink:href="#DejaVuSans-2e" x="63.623047"/>
       <use xlink:href="#DejaVuSans-30" x="95.410156"/>
      </g>
     </g>
    </g>
    <g id="xtick_7">
     <g id="line2d_7">
      <g>
       <use xlink:href="#m3e76deb233" x="431.940313" y="390.84375" style="stroke: #000000; stroke-width: 0.8"/>
      </g>
     </g>
     <g id="text_7">
      <!-- 0.2 -->
      <g transform="translate(423.98875 405.442187) scale(0.1 -0.1)">
       <use xlink:href="#DejaVuSans-30"/>
       <use xlink:href="#DejaVuSans-2e" x="63.623047"/>
       <use xlink:href="#DejaVuSans-32" x="95.410156"/>
      </g>
     </g>
    </g>
    <g id="xtick_8">
     <g id="line2d_8">
      <g>
       <use xlink:href="#m3e76deb233" x="499.267344" y="390.84375" style="stroke: #000000; stroke-width: 0.8"/>
      </g>
     </g>
     <g id="text_8">
      <!-- 0.4 -->
      <g transform="translate(491.315781 405.442187) scale(0.1 -0.1)">
       <use xlink:href="#DejaVuSans-30"/>
       <use xlink:href="#DejaVuSans-2e" x="63.623047"/>
       <use xlink:href="#DejaVuSans-34" x="95.410156"/>
      </g>
     </g>
    </g>
    <g id="xtick_9">
     <g id="line2d_9">
      <g>
       <use xlink:href="#m3e76deb233" x="566.594375" y="390.84375" style="stroke: #000000; stroke-width: 0.8"/>
      </g>
     </g>
     <g id="text_9">
      <!-- 0.6 -->
      <g transform="translate(558.642812 405.442187) scale(0.1 -0.1)">
       <use xlink:href="#DejaVuSans-30"/>
       <use xlink:href="#DejaVuSans-2e" x="63.623047"/>
       <use xlink:href="#DejaVuSans-36" x="95.410156"/>
      </g>
     </g>
    </g>
    <g id="xtick_10">
     <g id="line2d_10">
      <g>
       <use xlink:href="#m3e76deb233" x="633.921406" y="390.84375" style="stroke: #000000; stroke-width: 0.8"/>
      </g>
     </g>
     <g id="text_10">
      <!-- 0.8 -->
      <g transform="translate(625.969844 405.442187) scale(0.1 -0.1)">
       <use xlink:href="#DejaVuSans-30"/>
       <use xlink:href="#DejaVuSans-2e" x="63.623047"/>
       <use xlink:href="#DejaVuSans-38" x="95.410156"/>
      </g>
     </g>
    </g>
    <g id="xtick_11">
     <g id="line2d_11">
      <g>
       <use xlink:href="#m3e76deb233" x="701.248437" y="390.84375" style="stroke: #000000; stroke-width: 0.8"/>
      </g>
     </g>
     <g id="text_11">
      <!-- 1.0 -->
      <g transform="translate(693.296875 405.442187) scale(0.1 -0.1)">
       <use xlink:href="#DejaVuSans-31"/>
       <use xlink:href="#DejaVuSans-2e" x="63.623047"/>
       <use xlink:href="#DejaVuSans-30" x="95.410156"/>
      </g>
     </g>
    </g>
    <g id="text_12">
     <!-- Silhouette coefficient -->
     <g transform="translate(311.463281 419.120313) scale(0.1 -0.1)">
      <defs>
       <path id="DejaVuSans-53" d="M 3425 4513 
L 3425 3897 
Q 3066 4069 2747 4153 
Q 2428 4238 2131 4238 
Q 1616 4238 1336 4038 
Q 1056 3838 1056 3469 
Q 1056 3159 1242 3001 
Q 1428 2844 1947 2747 
L 2328 2669 
Q 3034 2534 3370 2195 
Q 3706 1856 3706 1288 
Q 3706 609 3251 259 
Q 2797 -91 1919 -91 
Q 1588 -91 1214 -16 
Q 841 59 441 206 
L 441 856 
Q 825 641 1194 531 
Q 1563 422 1919 422 
Q 2459 422 2753 634 
Q 3047 847 3047 1241 
Q 3047 1584 2836 1778 
Q 2625 1972 2144 2069 
L 1759 2144 
Q 1053 2284 737 2584 
Q 422 2884 422 3419 
Q 422 4038 858 4394 
Q 1294 4750 2059 4750 
Q 2388 4750 2728 4690 
Q 3069 4631 3425 4513 
z
" transform="scale(0.015625)"/>
       <path id="DejaVuSans-69" d="M 603 3500 
L 1178 3500 
L 1178 0 
L 603 0 
L 603 3500 
z
M 603 4863 
L 1178 4863 
L 1178 4134 
L 603 4134 
L 603 4863 
z
" transform="scale(0.015625)"/>
       <path id="DejaVuSans-6c" d="M 603 4863 
L 1178 4863 
L 1178 0 
L 603 0 
L 603 4863 
z
" transform="scale(0.015625)"/>
       <path id="DejaVuSans-68" d="M 3513 2113 
L 3513 0 
L 2938 0 
L 2938 2094 
Q 2938 2591 2744 2837 
Q 2550 3084 2163 3084 
Q 1697 3084 1428 2787 
Q 1159 2491 1159 1978 
L 1159 0 
L 581 0 
L 581 4863 
L 1159 4863 
L 1159 2956 
Q 1366 3272 1645 3428 
Q 1925 3584 2291 3584 
Q 2894 3584 3203 3211 
Q 3513 2838 3513 2113 
z
" transform="scale(0.015625)"/>
       <path id="DejaVuSans-6f" d="M 1959 3097 
Q 1497 3097 1228 2736 
Q 959 2375 959 1747 
Q 959 1119 1226 758 
Q 1494 397 1959 397 
Q 2419 397 2687 759 
Q 2956 1122 2956 1747 
Q 2956 2369 2687 2733 
Q 2419 3097 1959 3097 
z
M 1959 3584 
Q 2709 3584 3137 3096 
Q 3566 2609 3566 1747 
Q 3566 888 3137 398 
Q 2709 -91 1959 -91 
Q 1206 -91 779 398 
Q 353 888 353 1747 
Q 353 2609 779 3096 
Q 1206 3584 1959 3584 
z
" transform="scale(0.015625)"/>
       <path id="DejaVuSans-75" d="M 544 1381 
L 544 3500 
L 1119 3500 
L 1119 1403 
Q 1119 906 1312 657 
Q 1506 409 1894 409 
Q 2359 409 2629 706 
Q 2900 1003 2900 1516 
L 2900 3500 
L 3475 3500 
L 3475 0 
L 2900 0 
L 2900 538 
Q 2691 219 2414 64 
Q 2138 -91 1772 -91 
Q 1169 -91 856 284 
Q 544 659 544 1381 
z
M 1991 3584 
L 1991 3584 
z
" transform="scale(0.015625)"/>
       <path id="DejaVuSans-65" d="M 3597 1894 
L 3597 1613 
L 953 1613 
Q 991 1019 1311 708 
Q 1631 397 2203 397 
Q 2534 397 2845 478 
Q 3156 559 3463 722 
L 3463 178 
Q 3153 47 2828 -22 
Q 2503 -91 2169 -91 
Q 1331 -91 842 396 
Q 353 884 353 1716 
Q 353 2575 817 3079 
Q 1281 3584 2069 3584 
Q 2775 3584 3186 3129 
Q 3597 2675 3597 1894 
z
M 3022 2063 
Q 3016 2534 2758 2815 
Q 2500 3097 2075 3097 
Q 1594 3097 1305 2825 
Q 1016 2553 972 2059 
L 3022 2063 
z
" transform="scale(0.015625)"/>
       <path id="DejaVuSans-74" d="M 1172 4494 
L 1172 3500 
L 2356 3500 
L 2356 3053 
L 1172 3053 
L 1172 1153 
Q 1172 725 1289 603 
Q 1406 481 1766 481 
L 2356 481 
L 2356 0 
L 1766 0 
Q 1100 0 847 248 
Q 594 497 594 1153 
L 594 3053 
L 172 3053 
L 172 3500 
L 594 3500 
L 594 4494 
L 1172 4494 
z
" transform="scale(0.015625)"/>
       <path id="DejaVuSans-20" transform="scale(0.015625)"/>
       <path id="DejaVuSans-63" d="M 3122 3366 
L 3122 2828 
Q 2878 2963 2633 3030 
Q 2388 3097 2138 3097 
Q 1578 3097 1268 2742 
Q 959 2388 959 1747 
Q 959 1106 1268 751 
Q 1578 397 2138 397 
Q 2388 397 2633 464 
Q 2878 531 3122 666 
L 3122 134 
Q 2881 22 2623 -34 
Q 2366 -91 2075 -91 
Q 1284 -91 818 406 
Q 353 903 353 1747 
Q 353 2603 823 3093 
Q 1294 3584 2113 3584 
Q 2378 3584 2631 3529 
Q 2884 3475 3122 3366 
z
" transform="scale(0.015625)"/>
       <path id="DejaVuSans-66" d="M 2375 4863 
L 2375 4384 
L 1825 4384 
Q 1516 4384 1395 4259 
Q 1275 4134 1275 3809 
L 1275 3500 
L 2222 3500 
L 2222 3053 
L 1275 3053 
L 1275 0 
L 697 0 
L 697 3053 
L 147 3053 
L 147 3500 
L 697 3500 
L 697 3744 
Q 697 4328 969 4595 
Q 1241 4863 1831 4863 
L 2375 4863 
z
" transform="scale(0.015625)"/>
       <path id="DejaVuSans-6e" d="M 3513 2113 
L 3513 0 
L 2938 0 
L 2938 2094 
Q 2938 2591 2744 2837 
Q 2550 3084 2163 3084 
Q 1697 3084 1428 2787 
Q 1159 2491 1159 1978 
L 1159 0 
L 581 0 
L 581 3500 
L 1159 3500 
L 1159 2956 
Q 1366 3272 1645 3428 
Q 1925 3584 2291 3584 
Q 2894 3584 3203 3211 
Q 3513 2838 3513 2113 
z
" transform="scale(0.015625)"/>
      </defs>
      <use xlink:href="#DejaVuSans-53"/>
      <use xlink:href="#DejaVuSans-69" x="63.476562"/>
      <use xlink:href="#DejaVuSans-6c" x="91.259766"/>
      <use xlink:href="#DejaVuSans-68" x="119.042969"/>
      <use xlink:href="#DejaVuSans-6f" x="182.421875"/>
      <use xlink:href="#DejaVuSans-75" x="243.603516"/>
      <use xlink:href="#DejaVuSans-65" x="306.982422"/>
      <use xlink:href="#DejaVuSans-74" x="368.505859"/>
      <use xlink:href="#DejaVuSans-74" x="407.714844"/>
      <use xlink:href="#DejaVuSans-65" x="446.923828"/>
      <use xlink:href="#DejaVuSans-20" x="508.447266"/>
      <use xlink:href="#DejaVuSans-63" x="540.234375"/>
      <use xlink:href="#DejaVuSans-6f" x="595.214844"/>
      <use xlink:href="#DejaVuSans-65" x="656.396484"/>
      <use xlink:href="#DejaVuSans-66" x="717.919922"/>
      <use xlink:href="#DejaVuSans-66" x="753.125"/>
      <use xlink:href="#DejaVuSans-69" x="788.330078"/>
      <use xlink:href="#DejaVuSans-63" x="816.113281"/>
      <use xlink:href="#DejaVuSans-69" x="871.09375"/>
      <use xlink:href="#DejaVuSans-65" x="898.876953"/>
      <use xlink:href="#DejaVuSans-6e" x="960.400391"/>
      <use xlink:href="#DejaVuSans-74" x="1023.779297"/>
     </g>
    </g>
   </g>
   <g id="matplotlib.axis_2">
    <g id="text_13">
     <!-- Predicted label -->
     <g transform="translate(18.398438 239.798141) rotate(-90) scale(0.1 -0.1)">
      <defs>
       <path id="DejaVuSans-50" d="M 1259 4147 
L 1259 2394 
L 2053 2394 
Q 2494 2394 2734 2622 
Q 2975 2850 2975 3272 
Q 2975 3691 2734 3919 
Q 2494 4147 2053 4147 
L 1259 4147 
z
M 628 4666 
L 2053 4666 
Q 2838 4666 3239 4311 
Q 3641 3956 3641 3272 
Q 3641 2581 3239 2228 
Q 2838 1875 2053 1875 
L 1259 1875 
L 1259 0 
L 628 0 
L 628 4666 
z
" transform="scale(0.015625)"/>
       <path id="DejaVuSans-72" d="M 2631 2963 
Q 2534 3019 2420 3045 
Q 2306 3072 2169 3072 
Q 1681 3072 1420 2755 
Q 1159 2438 1159 1844 
L 1159 0 
L 581 0 
L 581 3500 
L 1159 3500 
L 1159 2956 
Q 1341 3275 1631 3429 
Q 1922 3584 2338 3584 
Q 2397 3584 2469 3576 
Q 2541 3569 2628 3553 
L 2631 2963 
z
" transform="scale(0.015625)"/>
       <path id="DejaVuSans-64" d="M 2906 2969 
L 2906 4863 
L 3481 4863 
L 3481 0 
L 2906 0 
L 2906 525 
Q 2725 213 2448 61 
Q 2172 -91 1784 -91 
Q 1150 -91 751 415 
Q 353 922 353 1747 
Q 353 2572 751 3078 
Q 1150 3584 1784 3584 
Q 2172 3584 2448 3432 
Q 2725 3281 2906 2969 
z
M 947 1747 
Q 947 1113 1208 752 
Q 1469 391 1925 391 
Q 2381 391 2643 752 
Q 2906 1113 2906 1747 
Q 2906 2381 2643 2742 
Q 2381 3103 1925 3103 
Q 1469 3103 1208 2742 
Q 947 2381 947 1747 
z
" transform="scale(0.015625)"/>
       <path id="DejaVuSans-61" d="M 2194 1759 
Q 1497 1759 1228 1600 
Q 959 1441 959 1056 
Q 959 750 1161 570 
Q 1363 391 1709 391 
Q 2188 391 2477 730 
Q 2766 1069 2766 1631 
L 2766 1759 
L 2194 1759 
z
M 3341 1997 
L 3341 0 
L 2766 0 
L 2766 531 
Q 2569 213 2275 61 
Q 1981 -91 1556 -91 
Q 1019 -91 701 211 
Q 384 513 384 1019 
Q 384 1609 779 1909 
Q 1175 2209 1959 2209 
L 2766 2209 
L 2766 2266 
Q 2766 2663 2505 2880 
Q 2244 3097 1772 3097 
Q 1472 3097 1187 3025 
Q 903 2953 641 2809 
L 641 3341 
Q 956 3463 1253 3523 
Q 1550 3584 1831 3584 
Q 2591 3584 2966 3190 
Q 3341 2797 3341 1997 
z
" transform="scale(0.015625)"/>
       <path id="DejaVuSans-62" d="M 3116 1747 
Q 3116 2381 2855 2742 
Q 2594 3103 2138 3103 
Q 1681 3103 1420 2742 
Q 1159 2381 1159 1747 
Q 1159 1113 1420 752 
Q 1681 391 2138 391 
Q 2594 391 2855 752 
Q 3116 1113 3116 1747 
z
M 1159 2969 
Q 1341 3281 1617 3432 
Q 1894 3584 2278 3584 
Q 2916 3584 3314 3078 
Q 3713 2572 3713 1747 
Q 3713 922 3314 415 
Q 2916 -91 2278 -91 
Q 1894 -91 1617 61 
Q 1341 213 1159 525 
L 1159 0 
L 581 0 
L 581 4863 
L 1159 4863 
L 1159 2969 
z
" transform="scale(0.015625)"/>
      </defs>
      <use xlink:href="#DejaVuSans-50"/>
      <use xlink:href="#DejaVuSans-72" x="58.552734"/>
      <use xlink:href="#DejaVuSans-65" x="97.416016"/>
      <use xlink:href="#DejaVuSans-64" x="158.939453"/>
      <use xlink:href="#DejaVuSans-69" x="222.416016"/>
      <use xlink:href="#DejaVuSans-63" x="250.199219"/>
      <use xlink:href="#DejaVuSans-74" x="305.179688"/>
      <use xlink:href="#DejaVuSans-65" x="344.388672"/>
      <use xlink:href="#DejaVuSans-64" x="405.912109"/>
      <use xlink:href="#DejaVuSans-20" x="469.388672"/>
      <use xlink:href="#DejaVuSans-6c" x="501.175781"/>
      <use xlink:href="#DejaVuSans-61" x="528.958984"/>
      <use xlink:href="#DejaVuSans-62" x="590.238281"/>
      <use xlink:href="#DejaVuSans-65" x="653.714844"/>
      <use xlink:href="#DejaVuSans-6c" x="715.238281"/>
     </g>
    </g>
   </g>
   <g id="line2d_12">
    <path d="M 458.621184 390.84375 
L 458.621184 14.447844 
" clip-path="url(#p96760710b7)" style="fill: none; stroke: #ff0000; stroke-width: 1.5; stroke-linecap: square"/>
   </g>
   <g id="patch_3">
    <path d="M 27.978125 390.84375 
L 27.978125 14.447844 
" style="fill: none; stroke: #000000; stroke-width: 0.8; stroke-linejoin: miter; stroke-linecap: square"/>
   </g>
   <g id="patch_4">
    <path d="M 701.248437 390.84375 
L 701.248437 14.447844 
" style="fill: none; stroke: #000000; stroke-width: 0.8; stroke-linejoin: miter; stroke-linecap: square"/>
   </g>
   <g id="patch_5">
    <path d="M 27.978125 390.84375 
L 701.248437 390.84375 
" style="fill: none; stroke: #000000; stroke-width: 0.8; stroke-linejoin: miter; stroke-linecap: square"/>
   </g>
   <g id="patch_6">
    <path d="M 27.978125 14.447844 
L 701.248437 14.447844 
" style="fill: none; stroke: #000000; stroke-width: 0.8; stroke-linejoin: miter; stroke-linecap: square"/>
   </g>
   <g id="text_14">
    <!-- 0 -->
    <g transform="translate(347.781523 366.927858) scale(0.1 -0.1)">
     <use xlink:href="#DejaVuSans-30"/>
    </g>
   </g>
   <g id="text_15">
    <!-- 1 -->
    <g transform="translate(347.781523 320.437152) scale(0.1 -0.1)">
     <use xlink:href="#DejaVuSans-31"/>
    </g>
   </g>
   <g id="text_16">
    <!-- 2 -->
    <g transform="translate(347.781523 292.721539) scale(0.1 -0.1)">
     <use xlink:href="#DejaVuSans-32"/>
    </g>
   </g>
   <g id="text_17">
    <!-- 3 -->
    <g transform="translate(347.781523 284.451558) scale(0.1 -0.1)">
     <defs>
      <path id="DejaVuSans-33" d="M 2597 2516 
Q 3050 2419 3304 2112 
Q 3559 1806 3559 1356 
Q 3559 666 3084 287 
Q 2609 -91 1734 -91 
Q 1441 -91 1130 -33 
Q 819 25 488 141 
L 488 750 
Q 750 597 1062 519 
Q 1375 441 1716 441 
Q 2309 441 2620 675 
Q 2931 909 2931 1356 
Q 2931 1769 2642 2001 
Q 2353 2234 1838 2234 
L 1294 2234 
L 1294 2753 
L 1863 2753 
Q 2328 2753 2575 2939 
Q 2822 3125 2822 3475 
Q 2822 3834 2567 4026 
Q 2313 4219 1838 4219 
Q 1578 4219 1281 4162 
Q 984 4106 628 3988 
L 628 4550 
Q 988 4650 1302 4700 
Q 1616 4750 1894 4750 
Q 2613 4750 3031 4423 
Q 3450 4097 3450 3541 
Q 3450 3153 3228 2886 
Q 3006 2619 2597 2516 
z
" transform="scale(0.015625)"/>
     </defs>
     <use xlink:href="#DejaVuSans-33"/>
    </g>
   </g>
   <g id="text_18">
    <!-- 4 -->
    <g transform="translate(347.781523 266.570517) scale(0.1 -0.1)">
     <use xlink:href="#DejaVuSans-34"/>
    </g>
   </g>
   <g id="text_19">
    <!-- 5 -->
    <g transform="translate(347.781523 249.807042) scale(0.1 -0.1)">
     <defs>
      <path id="DejaVuSans-35" d="M 691 4666 
L 3169 4666 
L 3169 4134 
L 1269 4134 
L 1269 2991 
Q 1406 3038 1543 3061 
Q 1681 3084 1819 3084 
Q 2600 3084 3056 2656 
Q 3513 2228 3513 1497 
Q 3513 744 3044 326 
Q 2575 -91 1722 -91 
Q 1428 -91 1123 -41 
Q 819 9 494 109 
L 494 744 
Q 775 591 1075 516 
Q 1375 441 1709 441 
Q 2250 441 2565 725 
Q 2881 1009 2881 1497 
Q 2881 1984 2565 2268 
Q 2250 2553 1709 2553 
Q 1456 2553 1204 2497 
Q 953 2441 691 2322 
L 691 4666 
z
" transform="scale(0.015625)"/>
     </defs>
     <use xlink:href="#DejaVuSans-35"/>
    </g>
   </g>
   <g id="text_20">
    <!-- 6 -->
    <g transform="translate(347.781523 228.573306) scale(0.1 -0.1)">
     <use xlink:href="#DejaVuSans-36"/>
    </g>
   </g>
   <g id="text_21">
    <!-- 7 -->
    <g transform="translate(347.781523 207.563083) scale(0.1 -0.1)">
     <defs>
      <path id="DejaVuSans-37" d="M 525 4666 
L 3525 4666 
L 3525 4397 
L 1831 0 
L 1172 0 
L 2766 4134 
L 525 4134 
L 525 4666 
z
" transform="scale(0.015625)"/>
     </defs>
     <use xlink:href="#DejaVuSans-37"/>
    </g>
   </g>
   <g id="text_22">
    <!-- 8 -->
    <g transform="translate(347.781523 196.834459) scale(0.1 -0.1)">
     <use xlink:href="#DejaVuSans-38"/>
    </g>
   </g>
   <g id="text_23">
    <!-- 9 -->
    <g transform="translate(347.781523 175.153697) scale(0.1 -0.1)">
     <defs>
      <path id="DejaVuSans-39" d="M 703 97 
L 703 672 
Q 941 559 1184 500 
Q 1428 441 1663 441 
Q 2288 441 2617 861 
Q 2947 1281 2994 2138 
Q 2813 1869 2534 1725 
Q 2256 1581 1919 1581 
Q 1219 1581 811 2004 
Q 403 2428 403 3163 
Q 403 3881 828 4315 
Q 1253 4750 1959 4750 
Q 2769 4750 3195 4129 
Q 3622 3509 3622 2328 
Q 3622 1225 3098 567 
Q 2575 -91 1691 -91 
Q 1453 -91 1209 -44 
Q 966 3 703 97 
z
M 1959 2075 
Q 2384 2075 2632 2365 
Q 2881 2656 2881 3163 
Q 2881 3666 2632 3958 
Q 2384 4250 1959 4250 
Q 1534 4250 1286 3958 
Q 1038 3666 1038 3163 
Q 1038 2656 1286 2365 
Q 1534 2075 1959 2075 
z
" transform="scale(0.015625)"/>
     </defs>
     <use xlink:href="#DejaVuSans-39"/>
    </g>
   </g>
   <g id="text_24">
    <!-- 10 -->
    <g transform="translate(347.781523 152.802396) scale(0.1 -0.1)">
     <use xlink:href="#DejaVuSans-31"/>
     <use xlink:href="#DejaVuSans-30" x="63.623047"/>
    </g>
   </g>
   <g id="text_25">
    <!-- 11 -->
    <g transform="translate(347.781523 98.265222) scale(0.1 -0.1)">
     <use xlink:href="#DejaVuSans-31"/>
     <use xlink:href="#DejaVuSans-31" x="63.623047"/>
    </g>
   </g>
   <g id="text_26">
    <!-- 12 -->
    <g transform="translate(347.781523 44.6221) scale(0.1 -0.1)">
     <use xlink:href="#DejaVuSans-31"/>
     <use xlink:href="#DejaVuSans-32" x="63.623047"/>
    </g>
   </g>
   <g id="text_27">
    <!-- 13 -->
    <g transform="translate(347.781523 34.564014) scale(0.1 -0.1)">
     <use xlink:href="#DejaVuSans-31"/>
     <use xlink:href="#DejaVuSans-33" x="63.623047"/>
    </g>
   </g>
   <g id="text_28">
    <!-- 14 -->
    <g transform="translate(347.781523 26.741059) scale(0.1 -0.1)">
     <use xlink:href="#DejaVuSans-31"/>
     <use xlink:href="#DejaVuSans-34" x="63.623047"/>
    </g>
   </g>
   <g id="text_29">
    <!-- 15 -->
    <g transform="translate(347.781523 19.588643) scale(0.1 -0.1)">
     <use xlink:href="#DejaVuSans-31"/>
     <use xlink:href="#DejaVuSans-35" x="63.623047"/>
    </g>
   </g>
   <g id="text_30">
    <!-- 0.2793 -->
    <g style="fill: #ff0000" transform="translate(475.452941 18.918104) scale(0.1 -0.1)">
     <use xlink:href="#DejaVuSans-30"/>
     <use xlink:href="#DejaVuSans-2e" x="63.623047"/>
     <use xlink:href="#DejaVuSans-32" x="95.410156"/>
     <use xlink:href="#DejaVuSans-37" x="159.033203"/>
     <use xlink:href="#DejaVuSans-39" x="222.65625"/>
     <use xlink:href="#DejaVuSans-33" x="286.279297"/>
    </g>
   </g>
  </g>
 </g>
 <defs>
  <clipPath id="p96760710b7">
   <rect x="27.978125" y="14.447844" width="673.270312" height="376.395906"/>
  </clipPath>
 </defs>
</svg>
