<?xml version="1.0" encoding="utf-8" standalone="no"?>
<!DOCTYPE svg PUBLIC "-//W3C//DTD SVG 1.1//EN"
  "http://www.w3.org/Graphics/SVG/1.1/DTD/svg11.dtd">
<svg xmlns:xlink="http://www.w3.org/1999/xlink" width="720pt" height="576pt" viewBox="0 0 720 576" xmlns="http://www.w3.org/2000/svg" version="1.1">
 <metadata>
  <rdf:RDF xmlns:dc="http://purl.org/dc/elements/1.1/" xmlns:cc="http://creativecommons.org/ns#" xmlns:rdf="http://www.w3.org/1999/02/22-rdf-syntax-ns#">
   <cc:Work>
    <dc:type rdf:resource="http://purl.org/dc/dcmitype/StillImage"/>
    <dc:date>2022-11-21T18:22:20.250851</dc:date>
    <dc:format>image/svg+xml</dc:format>
    <dc:creator>
     <cc:Agent>
      <dc:title>Matplotlib v3.6.1, https://matplotlib.org/</dc:title>
     </cc:Agent>
    </dc:creator>
   </cc:Work>
  </rdf:RDF>
 </metadata>
 <defs>
  <style type="text/css">*{stroke-linejoin: round; stroke-linecap: butt}</style>
 </defs>
 <g id="figure_1">
  <g id="patch_1">
   <path d="M 0 576 
L 720 576 
L 720 0 
L 0 0 
z
" style="fill: #ffffff"/>
  </g>
  <g id="axes_1">
   <g id="patch_2">
    <path d="M 42.495313 510.648438 
L 691.81252 510.648438 
L 691.81252 24.465325 
L 42.495313 24.465325 
z
" style="fill: #ffffff"/>
   </g>
   <g id="PolyCollection_1">
    <defs>
     <path id="m2b183dad45" d="M 258.733925 -71.19511 
L 362.717853 -71.19511 
L 362.717853 -71.779464 
L 362.717853 -72.363819 
L 362.717853 -72.948174 
L 362.717853 -73.532528 
L 362.717853 -74.116883 
L 362.717853 -74.701238 
L 362.717853 -75.285592 
L 362.717853 -75.869947 
L 362.717853 -76.454302 
L 362.717853 -77.038657 
L 362.717853 -77.623011 
L 362.717853 -78.207366 
L 362.717853 -78.791721 
L 362.717853 -79.376075 
L 362.717853 -79.96043 
L 362.717853 -80.544785 
L 362.717853 -81.129139 
L 362.717853 -81.713494 
L 362.717853 -82.297849 
L 362.717853 -82.882204 
L 362.717853 -83.466558 
L 362.717853 -84.050913 
L 362.717853 -84.635268 
L 362.717853 -85.219622 
L 362.717853 -85.803977 
L 362.717853 -86.388332 
L 362.717853 -86.972687 
L 362.717853 -87.557041 
L 362.717853 -88.141396 
L 362.717853 -88.725751 
L 362.717853 -89.310105 
L 362.717853 -89.89446 
L 362.717853 -90.478815 
L 362.717853 -91.063169 
L 362.717853 -91.647524 
L 362.717853 -92.231879 
L 362.717853 -92.816234 
L 362.717853 -93.400588 
L 362.717853 -93.984943 
L 362.717853 -94.569298 
L 362.717853 -95.153652 
L 362.717853 -95.738007 
L 362.717853 -96.322362 
L 362.717853 -96.906716 
L 362.717853 -97.491071 
L 362.717853 -98.075426 
L 362.717853 -98.659781 
L 362.717853 -99.244135 
L 362.717853 -99.82849 
L 362.717853 -100.412845 
L 362.717853 -100.997199 
L 362.717853 -101.581554 
L 362.717853 -102.165909 
L 362.717853 -102.750263 
L 362.717853 -103.334618 
L 362.717853 -103.918973 
L 362.717853 -104.503328 
L 362.717853 -105.087682 
L 362.717853 -105.672037 
L 362.717853 -106.256392 
L 362.717853 -106.840746 
L 362.717853 -107.425101 
L 362.717853 -108.009456 
L 362.717853 -108.593811 
L 362.717853 -109.178165 
L 362.717853 -109.76252 
L 362.717853 -110.346875 
L 362.717853 -110.931229 
L 362.717853 -111.515584 
L 362.717853 -112.099939 
L 362.717853 -112.684293 
L 362.717853 -113.268648 
L 362.717853 -113.853003 
L 362.717853 -114.437358 
L 362.717853 -115.021712 
L 362.717853 -115.606067 
L 362.717853 -116.190422 
L 362.717853 -116.774776 
L 362.717853 -117.359131 
L 362.717853 -117.943486 
L 362.717853 -118.52784 
L 362.717853 -119.112195 
L 362.717853 -119.69655 
L 362.717853 -120.280905 
L 362.717853 -120.865259 
L 362.717853 -121.449614 
L 362.717853 -122.033969 
L 362.717853 -122.618323 
L 362.717853 -123.202678 
L 362.717853 -123.787033 
L 362.717853 -124.371388 
L 362.717853 -124.955742 
L 362.717853 -125.540097 
L 362.717853 -126.124452 
L 362.717853 -126.708806 
L 362.717853 -127.293161 
L 362.717853 -127.877516 
L 362.717853 -128.46187 
L 362.717853 -129.046225 
L 362.717853 -129.63058 
L 362.717853 -130.214935 
L 362.717853 -130.799289 
L 362.717853 -131.383644 
L 362.717853 -131.967999 
L 362.717853 -132.552353 
L 362.717853 -133.136708 
L 362.717853 -133.721063 
L 362.717853 -134.305417 
L 362.717853 -134.889772 
L 362.717853 -135.474127 
L 362.717853 -136.058482 
L 362.717853 -136.642836 
L 362.717853 -137.227191 
L 362.717853 -137.811546 
L 362.717853 -138.3959 
L 362.717853 -138.980255 
L 362.717853 -139.56461 
L 362.717853 -140.148964 
L 362.717853 -140.733319 
L 362.717853 -141.317674 
L 362.717853 -141.902029 
L 362.717853 -142.486383 
L 362.717853 -143.070738 
L 362.717853 -143.655093 
L 362.717853 -144.239447 
L 362.717853 -144.823802 
L 362.717853 -145.408157 
L 362.717853 -145.992512 
L 362.717853 -146.576866 
L 362.717853 -147.161221 
L 362.717853 -147.745576 
L 362.717853 -148.32993 
L 362.717853 -148.914285 
L 362.717853 -149.49864 
L 362.717853 -150.082994 
L 362.717853 -150.667349 
L 504.912232 -150.667349 
L 504.912232 -150.667349 
L 500.710894 -150.082994 
L 500.535976 -149.49864 
L 499.192615 -148.914285 
L 496.226026 -148.32993 
L 495.535373 -147.745576 
L 491.674388 -147.161221 
L 489.593776 -146.576866 
L 489.497832 -145.992512 
L 488.913831 -145.408157 
L 488.671249 -144.823802 
L 488.666644 -144.239447 
L 487.873406 -143.655093 
L 487.521298 -143.070738 
L 486.114613 -142.486383 
L 486.034283 -141.902029 
L 485.778129 -141.317674 
L 485.064683 -140.733319 
L 483.524348 -140.148964 
L 482.315657 -139.56461 
L 481.957657 -138.980255 
L 481.802212 -138.3959 
L 481.208892 -137.811546 
L 480.910632 -137.227191 
L 477.354479 -136.642836 
L 477.249046 -136.058482 
L 476.950957 -135.474127 
L 476.123131 -134.889772 
L 474.883503 -134.305417 
L 474.192675 -133.721063 
L 474.053838 -133.136708 
L 473.4873 -132.552353 
L 472.963398 -131.967999 
L 472.55996 -131.383644 
L 472.190025 -130.799289 
L 471.407768 -130.214935 
L 471.321015 -129.63058 
L 471.180236 -129.046225 
L 471.127109 -128.46187 
L 471.079441 -127.877516 
L 470.963627 -127.293161 
L 470.876 -126.708806 
L 470.782739 -126.124452 
L 470.191711 -125.540097 
L 469.970263 -124.955742 
L 469.966771 -124.371388 
L 468.642325 -123.787033 
L 466.455255 -123.202678 
L 463.88463 -122.618323 
L 461.217694 -122.033969 
L 460.949414 -121.449614 
L 460.320567 -120.865259 
L 459.536294 -120.280905 
L 458.324193 -119.69655 
L 457.97273 -119.112195 
L 457.079975 -118.52784 
L 456.667847 -117.943486 
L 456.305295 -117.359131 
L 455.314924 -116.774776 
L 454.671562 -116.190422 
L 454.217487 -115.606067 
L 453.351738 -115.021712 
L 452.862607 -114.437358 
L 452.150463 -113.853003 
L 450.817716 -113.268648 
L 449.795126 -112.684293 
L 449.770449 -112.099939 
L 449.543688 -111.515584 
L 449.206012 -110.931229 
L 449.184682 -110.346875 
L 449.09752 -109.76252 
L 447.956717 -109.178165 
L 447.912731 -108.593811 
L 447.546285 -108.009456 
L 446.815846 -107.425101 
L 446.594864 -106.840746 
L 445.758106 -106.256392 
L 443.49484 -105.672037 
L 442.997795 -105.087682 
L 441.964692 -104.503328 
L 441.900707 -103.918973 
L 441.605217 -103.334618 
L 441.215313 -102.750263 
L 440.426881 -102.165909 
L 440.237901 -101.581554 
L 440.016247 -100.997199 
L 439.26932 -100.412845 
L 438.580987 -99.82849 
L 438.031879 -99.244135 
L 437.314095 -98.659781 
L 437.288733 -98.075426 
L 436.533321 -97.491071 
L 434.74115 -96.906716 
L 433.255994 -96.322362 
L 432.612754 -95.738007 
L 432.375828 -95.153652 
L 430.164198 -94.569298 
L 428.915396 -93.984943 
L 428.76991 -93.400588 
L 422.544445 -92.816234 
L 422.298774 -92.231879 
L 419.925557 -91.647524 
L 419.447446 -91.063169 
L 416.727483 -90.478815 
L 412.804172 -89.89446 
L 410.101332 -89.310105 
L 409.812044 -88.725751 
L 409.481026 -88.141396 
L 408.232789 -87.557041 
L 406.731036 -86.972687 
L 405.176758 -86.388332 
L 404.568307 -85.803977 
L 404.202621 -85.219622 
L 403.093017 -84.635268 
L 399.590776 -84.050913 
L 394.735907 -83.466558 
L 389.942115 -82.882204 
L 389.449369 -82.297849 
L 385.326541 -81.713494 
L 383.210736 -81.129139 
L 382.693336 -80.544785 
L 380.6782 -79.96043 
L 380.387396 -79.376075 
L 376.283665 -78.791721 
L 367.646704 -78.207366 
L 358.868583 -77.623011 
L 354.987673 -77.038657 
L 353.099864 -76.454302 
L 351.757897 -75.869947 
L 350.356664 -75.285592 
L 340.50738 -74.701238 
L 335.148172 -74.116883 
L 333.295502 -73.532528 
L 326.212425 -72.948174 
L 315.840189 -72.363819 
L 269.262757 -71.779464 
L 258.733925 -71.19511 
z
" style="stroke: #000000; stroke-opacity: 0.7"/>
    </defs>
    <g clip-path="url(#pbac54cdbc2)">
     <use xlink:href="#m2b183dad45" x="0" y="576" style="fill-opacity: 0.7; stroke: #000000; stroke-opacity: 0.7"/>
    </g>
   </g>
   <g id="PolyCollection_2">
    <defs>
     <path id="md74a802ea5" d="M 396.263172 -157.095251 
L 362.717853 -157.095251 
L 362.717853 -157.679606 
L 362.717853 -158.26396 
L 362.717853 -158.848315 
L 462.570433 -158.848315 
L 462.570433 -158.848315 
L 423.340628 -158.26396 
L 421.476446 -157.679606 
L 396.263172 -157.095251 
z
" style="stroke: #7d008e; stroke-opacity: 0.7"/>
    </defs>
    <g clip-path="url(#pbac54cdbc2)">
     <use xlink:href="#md74a802ea5" x="0" y="576" style="fill: #7d008e; fill-opacity: 0.7; stroke: #7d008e; stroke-opacity: 0.7"/>
    </g>
   </g>
   <g id="PolyCollection_3">
    <defs>
     <path id="m69f6138998" d="M 427.129016 -165.276217 
L 362.717853 -165.276217 
L 362.717853 -165.860571 
L 436.283206 -165.860571 
L 436.283206 -165.860571 
L 427.129016 -165.276217 
z
" style="stroke: #2d00a4; stroke-opacity: 0.7"/>
    </defs>
    <g clip-path="url(#pbac54cdbc2)">
     <use xlink:href="#m69f6138998" x="0" y="576" style="fill: #2d00a4; fill-opacity: 0.7; stroke: #2d00a4; stroke-opacity: 0.7"/>
    </g>
   </g>
   <g id="PolyCollection_4">
    <defs>
     <path id="m5c4ddbb441" d="M 426.109511 -172.288473 
L 362.717853 -172.288473 
L 362.717853 -172.872828 
L 362.717853 -173.457183 
L 362.717853 -174.041537 
L 480.633234 -174.041537 
L 480.633234 -174.041537 
L 466.198599 -173.457183 
L 456.403505 -172.872828 
L 426.109511 -172.288473 
z
" style="stroke: #0000dd; stroke-opacity: 0.7"/>
    </defs>
    <g clip-path="url(#pbac54cdbc2)">
     <use xlink:href="#m5c4ddbb441" x="0" y="576" style="fill: #0000dd; fill-opacity: 0.7; stroke: #0000dd; stroke-opacity: 0.7"/>
    </g>
   </g>
   <g id="PolyCollection_5">
    <defs>
     <path id="mb60550b865" d="M 324.391605 -180.469439 
L 362.717853 -180.469439 
L 362.717853 -181.053794 
L 362.717853 -181.638148 
L 362.717853 -182.222503 
L 362.717853 -182.806858 
L 362.717853 -183.391213 
L 362.717853 -183.975567 
L 362.717853 -184.559922 
L 362.717853 -185.144277 
L 362.717853 -185.728631 
L 362.717853 -186.312986 
L 362.717853 -186.897341 
L 362.717853 -187.481695 
L 362.717853 -188.06605 
L 362.717853 -188.650405 
L 362.717853 -189.23476 
L 362.717853 -189.819114 
L 362.717853 -190.403469 
L 362.717853 -190.987824 
L 469.67932 -190.987824 
L 469.67932 -190.987824 
L 460.441905 -190.403469 
L 449.292044 -189.819114 
L 446.957522 -189.23476 
L 442.39466 -188.650405 
L 435.286363 -188.06605 
L 428.300223 -187.481695 
L 424.65222 -186.897341 
L 421.688781 -186.312986 
L 417.835903 -185.728631 
L 409.432825 -185.144277 
L 408.996703 -184.559922 
L 408.940894 -183.975567 
L 400.352834 -183.391213 
L 399.535566 -182.806858 
L 394.775994 -182.222503 
L 390.745436 -181.638148 
L 325.741774 -181.053794 
L 324.391605 -180.469439 
z
" style="stroke: #0082dd; stroke-opacity: 0.7"/>
    </defs>
    <g clip-path="url(#pbac54cdbc2)">
     <use xlink:href="#mb60550b865" x="0" y="576" style="fill: #0082dd; fill-opacity: 0.7; stroke: #0082dd; stroke-opacity: 0.7"/>
    </g>
   </g>
   <g id="PolyCollection_6">
    <defs>
     <path id="m66a932995e" d="M 627.086734 -197.415725 
L 362.717853 -197.415725 
L 362.717853 -198.00008 
L 362.717853 -198.584435 
L 362.717853 -199.16879 
L 362.717853 -199.753144 
L 362.717853 -200.337499 
L 362.717853 -200.921854 
L 362.717853 -201.506208 
L 362.717853 -202.090563 
L 362.717853 -202.674918 
L 362.717853 -203.259272 
L 362.717853 -203.843627 
L 362.717853 -204.427982 
L 362.717853 -205.012337 
L 362.717853 -205.596691 
L 362.717853 -206.181046 
L 362.717853 -206.765401 
L 362.717853 -207.349755 
L 362.717853 -207.93411 
L 362.717853 -208.518465 
L 362.717853 -209.102819 
L 362.717853 -209.687174 
L 362.717853 -210.271529 
L 362.717853 -210.855884 
L 362.717853 -211.440238 
L 362.717853 -212.024593 
L 362.717853 -212.608948 
L 362.717853 -213.193302 
L 362.717853 -213.777657 
L 362.717853 -214.362012 
L 362.717853 -214.946366 
L 362.717853 -215.530721 
L 362.717853 -216.115076 
L 362.717853 -216.699431 
L 362.717853 -217.283785 
L 362.717853 -217.86814 
L 362.717853 -218.452495 
L 362.717853 -219.036849 
L 362.717853 -219.621204 
L 362.717853 -220.205559 
L 362.717853 -220.789914 
L 362.717853 -221.374268 
L 362.717853 -221.958623 
L 362.717853 -222.542978 
L 362.717853 -223.127332 
L 362.717853 -223.711687 
L 362.717853 -224.296042 
L 362.717853 -224.880396 
L 362.717853 -225.464751 
L 362.717853 -226.049106 
L 362.717853 -226.633461 
L 362.717853 -227.217815 
L 362.717853 -227.80217 
L 362.717853 -228.386525 
L 362.717853 -228.970879 
L 362.717853 -229.555234 
L 362.717853 -230.139589 
L 362.717853 -230.723943 
L 362.717853 -231.308298 
L 362.717853 -231.892653 
L 362.717853 -232.477008 
L 362.717853 -233.061362 
L 362.717853 -233.645717 
L 362.717853 -234.230072 
L 362.717853 -234.814426 
L 362.717853 -235.398781 
L 362.717853 -235.983136 
L 362.717853 -236.567491 
L 362.717853 -237.151845 
L 362.717853 -237.7362 
L 362.717853 -238.320555 
L 362.717853 -238.904909 
L 362.717853 -239.489264 
L 362.717853 -240.073619 
L 362.717853 -240.657973 
L 362.717853 -241.242328 
L 362.717853 -241.826683 
L 362.717853 -242.411038 
L 362.717853 -242.995392 
L 362.717853 -243.579747 
L 362.717853 -244.164102 
L 362.717853 -244.748456 
L 362.717853 -245.332811 
L 362.717853 -245.917166 
L 362.717853 -246.50152 
L 362.717853 -247.085875 
L 362.717853 -247.67023 
L 362.717853 -248.254585 
L 362.717853 -248.838939 
L 362.717853 -249.423294 
L 362.717853 -250.007649 
L 362.717853 -250.592003 
L 362.717853 -251.176358 
L 362.717853 -251.760713 
L 362.717853 -252.345067 
L 362.717853 -252.929422 
L 362.717853 -253.513777 
L 362.717853 -254.098132 
L 362.717853 -254.682486 
L 362.717853 -255.266841 
L 362.717853 -255.851196 
L 362.717853 -256.43555 
L 362.717853 -257.019905 
L 362.717853 -257.60426 
L 362.717853 -258.188615 
L 362.717853 -258.772969 
L 362.717853 -259.357324 
L 362.717853 -259.941679 
L 362.717853 -260.526033 
L 362.717853 -261.110388 
L 362.717853 -261.694743 
L 362.717853 -262.279097 
L 362.717853 -262.863452 
L 362.717853 -263.447807 
L 362.717853 -264.032162 
L 362.717853 -264.616516 
L 362.717853 -265.200871 
L 362.717853 -265.785226 
L 362.717853 -266.36958 
L 362.717853 -266.953935 
L 362.717853 -267.53829 
L 362.717853 -268.122644 
L 362.717853 -268.706999 
L 362.717853 -269.291354 
L 362.717853 -269.875709 
L 362.717853 -270.460063 
L 362.717853 -271.044418 
L 362.717853 -271.628773 
L 362.717853 -272.213127 
L 362.717853 -272.797482 
L 362.717853 -273.381837 
L 362.717853 -273.966192 
L 362.717853 -274.550546 
L 362.717853 -275.134901 
L 362.717853 -275.719256 
L 362.717853 -276.30361 
L 362.717853 -276.887965 
L 362.717853 -277.47232 
L 362.717853 -278.056674 
L 362.717853 -278.641029 
L 362.717853 -279.225384 
L 362.717853 -279.809739 
L 362.717853 -280.394093 
L 362.717853 -280.978448 
L 362.717853 -281.562803 
L 362.717853 -282.147157 
L 362.717853 -282.731512 
L 362.717853 -283.315867 
L 362.717853 -283.900221 
L 362.717853 -284.484576 
L 362.717853 -285.068931 
L 362.717853 -285.653286 
L 362.717853 -286.23764 
L 362.717853 -286.821995 
L 362.717853 -287.40635 
L 362.717853 -287.990704 
L 362.717853 -288.575059 
L 362.717853 -289.159414 
L 362.717853 -289.743768 
L 362.717853 -290.328123 
L 362.717853 -290.912478 
L 362.717853 -291.496833 
L 362.717853 -292.081187 
L 362.717853 -292.665542 
L 362.717853 -293.249897 
L 362.717853 -293.834251 
L 362.717853 -294.418606 
L 362.717853 -295.002961 
L 362.717853 -295.587316 
L 362.717853 -296.17167 
L 362.717853 -296.756025 
L 362.717853 -297.34038 
L 362.717853 -297.924734 
L 362.717853 -298.509089 
L 362.717853 -299.093444 
L 362.717853 -299.677798 
L 362.717853 -300.262153 
L 362.717853 -300.846508 
L 362.717853 -301.430863 
L 362.717853 -302.015217 
L 362.717853 -302.599572 
L 362.717853 -303.183927 
L 362.717853 -303.768281 
L 362.717853 -304.352636 
L 362.717853 -304.936991 
L 362.717853 -305.521345 
L 362.717853 -306.1057 
L 362.717853 -306.690055 
L 362.717853 -307.27441 
L 362.717853 -307.858764 
L 362.717853 -308.443119 
L 362.717853 -309.027474 
L 362.717853 -309.611828 
L 362.717853 -310.196183 
L 362.717853 -310.780538 
L 362.717853 -311.364893 
L 362.717853 -311.949247 
L 362.717853 -312.533602 
L 362.717853 -313.117957 
L 362.717853 -313.702311 
L 362.717853 -314.286666 
L 362.717853 -314.871021 
L 362.717853 -315.455375 
L 362.717853 -316.03973 
L 362.717853 -316.624085 
L 362.717853 -317.20844 
L 362.717853 -317.792794 
L 362.717853 -318.377149 
L 362.717853 -318.961504 
L 362.717853 -319.545858 
L 362.717853 -320.130213 
L 362.717853 -320.714568 
L 362.717853 -321.298922 
L 362.717853 -321.883277 
L 362.717853 -322.467632 
L 362.717853 -323.051987 
L 362.717853 -323.636341 
L 362.717853 -324.220696 
L 362.717853 -324.805051 
L 362.717853 -325.389405 
L 362.717853 -325.97376 
L 362.717853 -326.558115 
L 362.717853 -327.142469 
L 362.717853 -327.726824 
L 362.717853 -328.311179 
L 362.717853 -328.895534 
L 362.717853 -329.479888 
L 362.717853 -330.064243 
L 362.717853 -330.648598 
L 362.717853 -331.232952 
L 362.717853 -331.817307 
L 362.717853 -332.401662 
L 362.717853 -332.986017 
L 362.717853 -333.570371 
L 362.717853 -334.154726 
L 362.717853 -334.739081 
L 362.717853 -335.323435 
L 362.717853 -335.90779 
L 362.717853 -336.492145 
L 362.717853 -337.076499 
L 362.717853 -337.660854 
L 362.717853 -338.245209 
L 362.717853 -338.829564 
L 362.717853 -339.413918 
L 362.717853 -339.998273 
L 362.717853 -340.582628 
L 362.717853 -341.166982 
L 362.717853 -341.751337 
L 362.717853 -342.335692 
L 362.717853 -342.920046 
L 362.717853 -343.504401 
L 362.717853 -344.088756 
L 362.717853 -344.673111 
L 362.717853 -345.257465 
L 362.717853 -345.84182 
L 362.717853 -346.426175 
L 362.717853 -347.010529 
L 362.717853 -347.594884 
L 362.717853 -348.179239 
L 362.717853 -348.763594 
L 362.717853 -349.347948 
L 362.717853 -349.932303 
L 362.717853 -350.516658 
L 362.717853 -351.101012 
L 362.717853 -351.685367 
L 362.717853 -352.269722 
L 362.717853 -352.854076 
L 362.717853 -353.438431 
L 362.717853 -354.022786 
L 362.717853 -354.607141 
L 362.717853 -355.191495 
L 362.717853 -355.77585 
L 362.717853 -356.360205 
L 362.717853 -356.944559 
L 362.717853 -357.528914 
L 362.717853 -358.113269 
L 362.717853 -358.697623 
L 362.717853 -359.281978 
L 362.717853 -359.866333 
L 362.717853 -360.450688 
L 362.717853 -361.035042 
L 362.717853 -361.619397 
L 362.717853 -362.203752 
L 362.717853 -362.788106 
L 362.717853 -363.372461 
L 362.717853 -363.956816 
L 362.717853 -364.54117 
L 362.717853 -365.125525 
L 362.717853 -365.70988 
L 362.717853 -366.294235 
L 362.717853 -366.878589 
L 362.717853 -367.462944 
L 362.717853 -368.047299 
L 362.717853 -368.631653 
L 362.717853 -369.216008 
L 362.717853 -369.800363 
L 362.717853 -370.384718 
L 362.717853 -370.969072 
L 362.717853 -371.553427 
L 362.717853 -372.137782 
L 362.717853 -372.722136 
L 362.717853 -373.306491 
L 362.717853 -373.890846 
L 362.717853 -374.4752 
L 362.717853 -375.059555 
L 362.717853 -375.64391 
L 362.717853 -376.228265 
L 362.717853 -376.812619 
L 362.717853 -377.396974 
L 362.717853 -377.981329 
L 362.717853 -378.565683 
L 362.717853 -379.150038 
L 362.717853 -379.734393 
L 362.717853 -380.318747 
L 362.717853 -380.903102 
L 362.717853 -381.487457 
L 362.717853 -382.071812 
L 362.717853 -382.656166 
L 362.717853 -383.240521 
L 362.717853 -383.824876 
L 362.717853 -384.40923 
L 362.717853 -384.993585 
L 362.717853 -385.57794 
L 362.717853 -386.162295 
L 362.717853 -386.746649 
L 362.717853 -387.331004 
L 362.717853 -387.915359 
L 362.717853 -388.499713 
L 362.717853 -389.084068 
L 362.717853 -389.668423 
L 362.717853 -390.252777 
L 362.717853 -390.837132 
L 362.717853 -391.421487 
L 362.717853 -392.005842 
L 362.717853 -392.590196 
L 362.717853 -393.174551 
L 362.717853 -393.758906 
L 362.717853 -394.34326 
L 362.717853 -394.927615 
L 362.717853 -395.51197 
L 362.717853 -396.096324 
L 362.717853 -396.680679 
L 362.717853 -397.265034 
L 362.717853 -397.849389 
L 362.717853 -398.433743 
L 362.717853 -399.018098 
L 362.717853 -399.602453 
L 362.717853 -400.186807 
L 362.717853 -400.771162 
L 362.717853 -401.355517 
L 362.717853 -401.939871 
L 362.717853 -402.524226 
L 362.717853 -403.108581 
L 362.717853 -403.692936 
L 362.717853 -404.27729 
L 362.717853 -404.861645 
L 362.717853 -405.446 
L 362.717853 -406.030354 
L 362.717853 -406.614709 
L 362.717853 -407.199064 
L 362.717853 -407.783419 
L 362.717853 -408.367773 
L 362.717853 -408.952128 
L 362.717853 -409.536483 
L 362.717853 -410.120837 
L 362.717853 -410.705192 
L 362.717853 -411.289547 
L 362.717853 -411.873901 
L 362.717853 -412.458256 
L 362.717853 -413.042611 
L 362.717853 -413.626966 
L 362.717853 -414.21132 
L 362.717853 -414.795675 
L 362.717853 -415.38003 
L 362.717853 -415.964384 
L 362.717853 -416.548739 
L 362.717853 -417.133094 
L 362.717853 -417.717448 
L 362.717853 -418.301803 
L 362.717853 -418.886158 
L 362.717853 -419.470513 
L 362.717853 -420.054867 
L 362.717853 -420.639222 
L 362.717853 -421.223577 
L 362.717853 -421.807931 
L 362.717853 -422.392286 
L 362.717853 -422.976641 
L 362.717853 -423.560996 
L 362.717853 -424.14535 
L 362.717853 -424.729705 
L 362.717853 -425.31406 
L 362.717853 -425.898414 
L 362.717853 -426.482769 
L 362.717853 -427.067124 
L 362.717853 -427.651478 
L 362.717853 -428.235833 
L 362.717853 -428.820188 
L 362.717853 -429.404543 
L 362.717853 -429.988897 
L 362.717853 -430.573252 
L 362.717853 -431.157607 
L 362.717853 -431.741961 
L 362.717853 -432.326316 
L 362.717853 -432.910671 
L 362.717853 -433.495025 
L 362.717853 -434.07938 
L 362.717853 -434.663735 
L 362.717853 -435.24809 
L 362.717853 -435.832444 
L 362.717853 -436.416799 
L 362.717853 -437.001154 
L 362.717853 -437.585508 
L 362.717853 -438.169863 
L 362.717853 -438.754218 
L 362.717853 -439.338572 
L 362.717853 -439.922927 
L 362.717853 -440.507282 
L 362.717853 -441.091637 
L 362.717853 -441.675991 
L 362.717853 -442.260346 
L 362.717853 -442.844701 
L 362.717853 -443.429055 
L 362.717853 -444.01341 
L 362.717853 -444.597765 
L 362.717853 -445.18212 
L 362.717853 -445.766474 
L 362.717853 -446.350829 
L 362.717853 -446.935184 
L 362.717853 -447.519538 
L 362.717853 -448.103893 
L 362.717853 -448.688248 
L 362.717853 -449.272602 
L 362.717853 -449.856957 
L 362.717853 -450.441312 
L 362.717853 -451.025667 
L 362.717853 -451.610021 
L 362.717853 -452.194376 
L 362.717853 -452.778731 
L 362.717853 -453.363085 
L 362.717853 -453.94744 
L 362.717853 -454.531795 
L 362.717853 -455.116149 
L 362.717853 -455.700504 
L 362.717853 -456.284859 
L 362.717853 -456.869214 
L 362.717853 -457.453568 
L 362.717853 -458.037923 
L 362.717853 -458.622278 
L 362.717853 -459.206632 
L 362.717853 -459.790987 
L 362.717853 -460.375342 
L 362.717853 -460.959696 
L 362.717853 -461.544051 
L 362.717853 -462.128406 
L 362.717853 -462.712761 
L 362.717853 -463.297115 
L 362.717853 -463.88147 
L 362.717853 -464.465825 
L 362.717853 -465.050179 
L 362.717853 -465.634534 
L 362.717853 -466.218889 
L 362.717853 -466.803244 
L 362.717853 -467.387598 
L 362.717853 -467.971953 
L 362.717853 -468.556308 
L 362.717853 -469.140662 
L 362.717853 -469.725017 
L 362.717853 -470.309372 
L 362.717853 -470.893726 
L 362.717853 -471.478081 
L 362.717853 -472.062436 
L 671.18973 -472.062436 
L 671.18973 -472.062436 
L 671.123213 -471.478081 
L 670.752608 -470.893726 
L 670.729723 -470.309372 
L 670.623927 -469.725017 
L 670.560005 -469.140662 
L 670.551643 -468.556308 
L 670.527248 -467.971953 
L 670.495621 -467.387598 
L 670.368023 -466.803244 
L 670.246233 -466.218889 
L 670.041071 -465.634534 
L 670.027661 -465.050179 
L 669.98478 -464.465825 
L 669.965613 -463.88147 
L 669.958663 -463.297115 
L 669.88551 -462.712761 
L 669.851858 -462.128406 
L 669.847434 -461.544051 
L 669.793799 -460.959696 
L 669.783786 -460.375342 
L 669.780951 -459.790987 
L 669.698637 -459.206632 
L 669.667435 -458.622278 
L 669.630739 -458.037923 
L 669.618566 -457.453568 
L 669.590853 -456.869214 
L 669.560999 -456.284859 
L 669.526286 -455.700504 
L 669.520449 -455.116149 
L 669.495803 -454.531795 
L 669.47056 -453.94744 
L 669.44663 -453.363085 
L 669.401312 -452.778731 
L 669.390958 -452.194376 
L 669.371554 -451.610021 
L 669.341603 -451.025667 
L 669.305792 -450.441312 
L 669.305 -449.856957 
L 669.279842 -449.272602 
L 669.269963 -448.688248 
L 669.160048 -448.103893 
L 669.15468 -447.519538 
L 669.137771 -446.935184 
L 669.127644 -446.350829 
L 669.119797 -445.766474 
L 669.116754 -445.18212 
L 669.095988 -444.597765 
L 669.089539 -444.01341 
L 669.078465 -443.429055 
L 669.029375 -442.844701 
L 669.019413 -442.260346 
L 668.997821 -441.675991 
L 668.98384 -441.091637 
L 668.960133 -440.507282 
L 668.955386 -439.922927 
L 668.953407 -439.338572 
L 668.931878 -438.754218 
L 668.903235 -438.169863 
L 668.901771 -437.585508 
L 668.891653 -437.001154 
L 668.872954 -436.416799 
L 668.866087 -435.832444 
L 668.85645 -435.24809 
L 668.852094 -434.663735 
L 668.814133 -434.07938 
L 668.798077 -433.495025 
L 668.777996 -432.910671 
L 668.777662 -432.326316 
L 668.749069 -431.741961 
L 668.740338 -431.157607 
L 668.730915 -430.573252 
L 668.71533 -429.988897 
L 668.714756 -429.404543 
L 668.70608 -428.820188 
L 668.696627 -428.235833 
L 668.648116 -427.651478 
L 668.615861 -427.067124 
L 668.596896 -426.482769 
L 668.590289 -425.898414 
L 668.589255 -425.31406 
L 668.585552 -424.729705 
L 668.574696 -424.14535 
L 668.565267 -423.560996 
L 668.549803 -422.976641 
L 668.539682 -422.392286 
L 668.536576 -421.807931 
L 668.532764 -421.223577 
L 668.5151 -420.639222 
L 668.511499 -420.054867 
L 668.504831 -419.470513 
L 668.504322 -418.886158 
L 668.500456 -418.301803 
L 668.497133 -417.717448 
L 668.47783 -417.133094 
L 668.434415 -416.548739 
L 668.426383 -415.964384 
L 668.415373 -415.38003 
L 668.415183 -414.795675 
L 668.409579 -414.21132 
L 668.399745 -413.626966 
L 668.389339 -413.042611 
L 668.376871 -412.458256 
L 668.332911 -411.873901 
L 668.313183 -411.289547 
L 668.299878 -410.705192 
L 668.280483 -410.120837 
L 668.243408 -409.536483 
L 668.205982 -408.952128 
L 668.20032 -408.367773 
L 668.188262 -407.783419 
L 668.178291 -407.199064 
L 668.150744 -406.614709 
L 668.09758 -406.030354 
L 668.042873 -405.446 
L 668.037527 -404.861645 
L 668.007978 -404.27729 
L 667.991132 -403.692936 
L 667.943561 -403.108581 
L 667.905737 -402.524226 
L 667.905529 -401.939871 
L 667.896126 -401.355517 
L 667.888477 -400.771162 
L 667.87156 -400.186807 
L 667.837119 -399.602453 
L 667.80864 -399.018098 
L 667.806754 -398.433743 
L 667.796505 -397.849389 
L 667.780712 -397.265034 
L 667.778527 -396.680679 
L 667.775724 -396.096324 
L 667.764433 -395.51197 
L 667.740071 -394.927615 
L 667.711305 -394.34326 
L 667.682799 -393.758906 
L 667.682613 -393.174551 
L 667.670914 -392.590196 
L 667.636555 -392.005842 
L 667.632597 -391.421487 
L 667.605455 -390.837132 
L 667.604573 -390.252777 
L 667.599374 -389.668423 
L 667.559551 -389.084068 
L 667.529949 -388.499713 
L 667.525505 -387.915359 
L 667.490728 -387.331004 
L 667.467673 -386.746649 
L 667.445637 -386.162295 
L 667.414948 -385.57794 
L 667.389181 -384.993585 
L 667.386312 -384.40923 
L 667.366415 -383.824876 
L 667.324312 -383.240521 
L 667.318587 -382.656166 
L 667.311382 -382.071812 
L 667.303543 -381.487457 
L 667.28289 -380.903102 
L 667.271182 -380.318747 
L 667.238391 -379.734393 
L 667.206219 -379.150038 
L 667.197726 -378.565683 
L 667.158102 -377.981329 
L 667.150805 -377.396974 
L 667.138618 -376.812619 
L 667.132003 -376.228265 
L 667.082935 -375.64391 
L 667.077159 -375.059555 
L 667.055789 -374.4752 
L 667.042314 -373.890846 
L 667.03876 -373.306491 
L 666.997369 -372.722136 
L 666.983483 -372.137782 
L 666.940778 -371.553427 
L 666.92752 -370.969072 
L 666.923051 -370.384718 
L 666.81353 -369.800363 
L 666.812199 -369.216008 
L 666.671383 -368.631653 
L 666.663209 -368.047299 
L 666.638424 -367.462944 
L 666.580027 -366.878589 
L 666.571401 -366.294235 
L 666.546646 -365.70988 
L 666.535062 -365.125525 
L 666.48801 -364.54117 
L 666.476302 -363.956816 
L 666.435342 -363.372461 
L 666.389939 -362.788106 
L 666.386526 -362.203752 
L 666.383646 -361.619397 
L 666.382559 -361.035042 
L 666.377207 -360.450688 
L 666.370093 -359.866333 
L 666.314278 -359.281978 
L 666.296785 -358.697623 
L 666.270585 -358.113269 
L 666.23178 -357.528914 
L 666.189466 -356.944559 
L 666.175542 -356.360205 
L 666.167201 -355.77585 
L 666.165745 -355.191495 
L 666.150588 -354.607141 
L 666.126774 -354.022786 
L 666.116968 -353.438431 
L 666.116529 -352.854076 
L 666.100811 -352.269722 
L 666.094286 -351.685367 
L 666.066014 -351.101012 
L 666.051479 -350.516658 
L 666.017664 -349.932303 
L 665.997495 -349.347948 
L 665.992127 -348.763594 
L 665.990044 -348.179239 
L 665.95252 -347.594884 
L 665.951914 -347.010529 
L 665.884901 -346.426175 
L 665.87673 -345.84182 
L 665.866514 -345.257465 
L 665.837426 -344.673111 
L 665.806726 -344.088756 
L 665.777025 -343.504401 
L 665.776179 -342.920046 
L 665.772148 -342.335692 
L 665.751515 -341.751337 
L 665.750541 -341.166982 
L 665.674372 -340.582628 
L 665.661354 -339.998273 
L 665.657506 -339.413918 
L 665.625177 -338.829564 
L 665.601474 -338.245209 
L 665.58655 -337.660854 
L 665.530011 -337.076499 
L 665.498316 -336.492145 
L 665.495322 -335.90779 
L 665.489771 -335.323435 
L 665.478578 -334.739081 
L 665.454504 -334.154726 
L 665.33939 -333.570371 
L 665.273528 -332.986017 
L 665.257388 -332.401662 
L 665.255869 -331.817307 
L 665.175267 -331.232952 
L 665.164972 -330.648598 
L 665.114559 -330.064243 
L 665.102137 -329.479888 
L 665.100198 -328.895534 
L 665.100012 -328.311179 
L 665.072924 -327.726824 
L 665.015491 -327.142469 
L 664.945394 -326.558115 
L 664.917563 -325.97376 
L 664.913963 -325.389405 
L 664.907731 -324.805051 
L 664.901547 -324.220696 
L 664.645397 -323.636341 
L 664.622779 -323.051987 
L 664.517767 -322.467632 
L 664.500353 -321.883277 
L 664.452292 -321.298922 
L 664.443327 -320.714568 
L 664.412755 -320.130213 
L 664.376701 -319.545858 
L 664.336142 -318.961504 
L 664.261445 -318.377149 
L 664.252369 -317.792794 
L 664.252152 -317.20844 
L 664.233118 -316.624085 
L 664.156283 -316.03973 
L 664.109444 -315.455375 
L 664.070816 -314.871021 
L 664.057486 -314.286666 
L 664.01824 -313.702311 
L 663.995427 -313.117957 
L 663.990206 -312.533602 
L 663.959892 -311.949247 
L 663.933986 -311.364893 
L 663.931746 -310.780538 
L 663.931187 -310.196183 
L 663.92876 -309.611828 
L 663.890234 -309.027474 
L 663.876551 -308.443119 
L 663.826336 -307.858764 
L 663.787903 -307.27441 
L 663.773318 -306.690055 
L 663.769665 -306.1057 
L 663.732168 -305.521345 
L 663.717428 -304.936991 
L 663.693773 -304.352636 
L 663.688466 -303.768281 
L 663.673388 -303.183927 
L 663.636646 -302.599572 
L 663.624638 -302.015217 
L 663.617363 -301.430863 
L 663.611754 -300.846508 
L 663.603203 -300.262153 
L 663.594007 -299.677798 
L 663.587758 -299.093444 
L 663.579295 -298.509089 
L 663.533471 -297.924734 
L 663.493586 -297.34038 
L 663.46074 -296.756025 
L 663.432242 -296.17167 
L 663.391232 -295.587316 
L 663.388044 -295.002961 
L 663.381932 -294.418606 
L 663.334854 -293.834251 
L 663.332195 -293.249897 
L 663.317551 -292.665542 
L 663.295085 -292.081187 
L 663.257358 -291.496833 
L 663.196974 -290.912478 
L 663.160905 -290.328123 
L 663.096038 -289.743768 
L 663.064772 -289.159414 
L 663.022194 -288.575059 
L 663.016414 -287.990704 
L 663.007979 -287.40635 
L 662.996649 -286.821995 
L 662.975201 -286.23764 
L 662.929321 -285.653286 
L 662.907035 -285.068931 
L 662.883262 -284.484576 
L 662.873232 -283.900221 
L 662.863213 -283.315867 
L 662.836031 -282.731512 
L 662.780973 -282.147157 
L 662.718939 -281.562803 
L 662.604986 -280.978448 
L 662.420881 -280.394093 
L 662.420628 -279.809739 
L 662.401357 -279.225384 
L 662.292116 -278.641029 
L 662.203713 -278.056674 
L 662.154 -277.47232 
L 662.145229 -276.887965 
L 662.145214 -276.30361 
L 662.126823 -275.719256 
L 662.124629 -275.134901 
L 662.118125 -274.550546 
L 662.017903 -273.966192 
L 661.90299 -273.381837 
L 661.901192 -272.797482 
L 661.892477 -272.213127 
L 661.849277 -271.628773 
L 661.83478 -271.044418 
L 661.798577 -270.460063 
L 661.736357 -269.875709 
L 661.733326 -269.291354 
L 661.703369 -268.706999 
L 661.684392 -268.122644 
L 661.663843 -267.53829 
L 661.627683 -266.953935 
L 661.623147 -266.36958 
L 661.616854 -265.785226 
L 661.520503 -265.200871 
L 661.498201 -264.616516 
L 661.49803 -264.032162 
L 661.46191 -263.447807 
L 661.449529 -262.863452 
L 661.42845 -262.279097 
L 661.425135 -261.694743 
L 661.330688 -261.110388 
L 661.278138 -260.526033 
L 661.24737 -259.941679 
L 660.856319 -259.357324 
L 660.847276 -258.772969 
L 660.71992 -258.188615 
L 660.692483 -257.60426 
L 660.636251 -257.019905 
L 660.612514 -256.43555 
L 660.578454 -255.851196 
L 660.574008 -255.266841 
L 660.486421 -254.682486 
L 660.456161 -254.098132 
L 660.444542 -253.513777 
L 660.350421 -252.929422 
L 660.270783 -252.345067 
L 660.232239 -251.760713 
L 660.185772 -251.176358 
L 660.183107 -250.592003 
L 660.017898 -250.007649 
L 659.987968 -249.423294 
L 659.945858 -248.838939 
L 659.933342 -248.254585 
L 659.891984 -247.67023 
L 659.844845 -247.085875 
L 659.755126 -246.50152 
L 659.52896 -245.917166 
L 659.444604 -245.332811 
L 659.29443 -244.748456 
L 659.235768 -244.164102 
L 659.159095 -243.579747 
L 659.087551 -242.995392 
L 659.066548 -242.411038 
L 658.631785 -241.826683 
L 658.454742 -241.242328 
L 658.41824 -240.657973 
L 658.379897 -240.073619 
L 658.219715 -239.489264 
L 657.918894 -238.904909 
L 657.882502 -238.320555 
L 657.827878 -237.7362 
L 657.638176 -237.151845 
L 657.603483 -236.567491 
L 657.426573 -235.983136 
L 656.964592 -235.398781 
L 656.94522 -234.814426 
L 656.869119 -234.230072 
L 656.774103 -233.645717 
L 656.750448 -233.061362 
L 656.747601 -232.477008 
L 656.643178 -231.892653 
L 656.617506 -231.308298 
L 656.555093 -230.723943 
L 656.516268 -230.139589 
L 656.462451 -229.555234 
L 656.392218 -228.970879 
L 656.054498 -228.386525 
L 656.01752 -227.80217 
L 655.796241 -227.217815 
L 655.710003 -226.633461 
L 655.604742 -226.049106 
L 655.48313 -225.464751 
L 655.286963 -224.880396 
L 655.169211 -224.296042 
L 655.165662 -223.711687 
L 655.074176 -223.127332 
L 655.062332 -222.542978 
L 654.862915 -221.958623 
L 654.809484 -221.374268 
L 654.781103 -220.789914 
L 654.457969 -220.205559 
L 654.284022 -219.621204 
L 654.238793 -219.036849 
L 654.088001 -218.452495 
L 653.721677 -217.86814 
L 653.693326 -217.283785 
L 653.654521 -216.699431 
L 653.298175 -216.115076 
L 653.215211 -215.530721 
L 652.304447 -214.946366 
L 651.877936 -214.362012 
L 651.330258 -213.777657 
L 651.217736 -213.193302 
L 651.128979 -212.608948 
L 651.100344 -212.024593 
L 650.869666 -211.440238 
L 650.416685 -210.855884 
L 650.159873 -210.271529 
L 649.701336 -209.687174 
L 649.643042 -209.102819 
L 649.466132 -208.518465 
L 648.923967 -207.93411 
L 648.589225 -207.349755 
L 648.379337 -206.765401 
L 648.283686 -206.181046 
L 648.229295 -205.596691 
L 647.811381 -205.012337 
L 646.074675 -204.427982 
L 645.604461 -203.843627 
L 644.633944 -203.259272 
L 643.163161 -202.674918 
L 642.60095 -202.090563 
L 641.379246 -201.506208 
L 640.343466 -200.921854 
L 639.796449 -200.337499 
L 639.694153 -199.753144 
L 636.59637 -199.16879 
L 636.468318 -198.584435 
L 634.692184 -198.00008 
L 627.086734 -197.415725 
z
" style="stroke: #00a4bb; stroke-opacity: 0.7"/>
    </defs>
    <g clip-path="url(#pbac54cdbc2)">
     <use xlink:href="#m66a932995e" x="0" y="576" style="fill: #00a4bb; fill-opacity: 0.7; stroke: #00a4bb; stroke-opacity: 0.7"/>
    </g>
   </g>
   <g id="PolyCollection_7">
    <defs>
     <path id="m933f81fc5e" d="M 362.717853 -478.490338 
L 362.717853 -478.490338 
L 362.717853 -478.490338 
L 362.717853 -478.490338 
z
" style="stroke: #00aa88; stroke-opacity: 0.7"/>
    </defs>
    <g clip-path="url(#pbac54cdbc2)">
     <use xlink:href="#m933f81fc5e" x="0" y="576" style="fill: #00aa88; fill-opacity: 0.7; stroke: #00aa88; stroke-opacity: 0.7"/>
    </g>
   </g>
   <g id="PolyCollection_8">
    <defs>
     <path id="me1ed1d2e1c" d="M 372.809715 -484.918239 
L 362.717853 -484.918239 
L 362.717853 -485.502594 
L 362.717853 -486.086949 
L 362.717853 -486.671303 
L 457.455241 -486.671303 
L 457.455241 -486.671303 
L 451.476325 -486.086949 
L 424.692345 -485.502594 
L 372.809715 -484.918239 
z
" style="stroke: #00a400; stroke-opacity: 0.7"/>
    </defs>
    <g clip-path="url(#pbac54cdbc2)">
     <use xlink:href="#me1ed1d2e1c" x="0" y="576" style="fill: #00a400; fill-opacity: 0.7; stroke: #00a400; stroke-opacity: 0.7"/>
    </g>
   </g>
   <g id="PolyCollection_9">
    <defs>
     <path id="mbed60e7f99" d="M 364.523445 -493.099205 
L 362.717853 -493.099205 
L 362.717853 -493.68356 
L 362.717853 -494.267915 
L 362.717853 -494.852269 
L 362.717853 -495.436624 
L 362.717853 -496.020979 
L 362.717853 -496.605333 
L 362.717853 -497.189688 
L 362.717853 -497.774043 
L 362.717853 -498.358397 
L 362.717853 -498.942752 
L 452.02 -498.942752 
L 452.02 -498.942752 
L 447.507828 -498.358397 
L 432.752782 -497.774043 
L 431.02759 -497.189688 
L 428.725554 -496.605333 
L 420.762191 -496.020979 
L 418.372026 -495.436624 
L 418.104364 -494.852269 
L 413.920224 -494.267915 
L 368.957197 -493.68356 
L 364.523445 -493.099205 
z
" style="stroke: #00d200; stroke-opacity: 0.7"/>
    </defs>
    <g clip-path="url(#pbac54cdbc2)">
     <use xlink:href="#mbed60e7f99" x="0" y="576" style="fill: #00d200; fill-opacity: 0.7; stroke: #00d200; stroke-opacity: 0.7"/>
    </g>
   </g>
   <g id="PolyCollection_10">
    <defs>
     <path id="me440f6a955" d="M 362.717853 -505.370654 
L 362.717853 -505.370654 
L 362.717853 -505.370654 
L 362.717853 -505.370654 
z
" style="stroke: #00ff00; stroke-opacity: 0.7"/>
    </defs>
    <g clip-path="url(#pbac54cdbc2)">
     <use xlink:href="#me440f6a955" x="0" y="576" style="fill: #00ff00; fill-opacity: 0.7; stroke: #00ff00; stroke-opacity: 0.7"/>
    </g>
   </g>
   <g id="PolyCollection_11">
    <defs>
     <path id="m7cfee68753" d="M 318.658273 -511.798556 
L 362.717853 -511.798556 
L 362.717853 -512.38291 
L 362.717853 -512.967265 
L 362.717853 -513.55162 
L 362.717853 -514.135974 
L 362.717853 -514.720329 
L 362.717853 -515.304684 
L 362.717853 -515.889039 
L 362.717853 -516.473393 
L 362.717853 -517.057748 
L 362.717853 -517.642103 
L 362.717853 -518.226457 
L 362.717853 -518.810812 
L 362.717853 -519.395167 
L 459.910051 -519.395167 
L 459.910051 -519.395167 
L 454.376078 -518.810812 
L 444.694119 -518.226457 
L 441.43621 -517.642103 
L 440.485997 -517.057748 
L 438.679476 -516.473393 
L 434.960773 -515.889039 
L 433.035654 -515.304684 
L 429.520973 -514.720329 
L 419.609745 -514.135974 
L 390.156281 -513.55162 
L 382.301299 -512.967265 
L 376.169408 -512.38291 
L 318.658273 -511.798556 
z
" style="stroke: #ccf900; stroke-opacity: 0.7"/>
    </defs>
    <g clip-path="url(#pbac54cdbc2)">
     <use xlink:href="#m7cfee68753" x="0" y="576" style="fill: #ccf900; fill-opacity: 0.7; stroke: #ccf900; stroke-opacity: 0.7"/>
    </g>
   </g>
   <g id="PolyCollection_12">
    <defs>
     <path id="m43f1c85e4f" d="M 362.717853 -525.823069 
L 362.717853 -525.823069 
L 362.717853 -525.823069 
L 362.717853 -525.823069 
z
" style="stroke: #f9d700; stroke-opacity: 0.7"/>
    </defs>
    <g clip-path="url(#pbac54cdbc2)">
     <use xlink:href="#m43f1c85e4f" x="0" y="576" style="fill: #f9d700; fill-opacity: 0.7; stroke: #f9d700; stroke-opacity: 0.7"/>
    </g>
   </g>
   <g id="PolyCollection_13">
    <defs>
     <path id="ma208e47ddd" d="M 362.717853 -532.25097 
L 362.717853 -532.25097 
L 362.717853 -532.25097 
L 362.717853 -532.25097 
z
" style="stroke: #ff9900; stroke-opacity: 0.7"/>
    </defs>
    <g clip-path="url(#pbac54cdbc2)">
     <use xlink:href="#ma208e47ddd" x="0" y="576" style="fill: #ff9900; fill-opacity: 0.7; stroke: #ff9900; stroke-opacity: 0.7"/>
    </g>
   </g>
   <g id="PolyCollection_14">
    <defs>
     <path id="m681c90cc02" d="M 362.717853 -538.678872 
L 362.717853 -538.678872 
L 362.717853 -538.678872 
L 362.717853 -538.678872 
z
" style="stroke: #f40000; stroke-opacity: 0.7"/>
    </defs>
    <g clip-path="url(#pbac54cdbc2)">
     <use xlink:href="#m681c90cc02" x="0" y="576" style="fill: #f40000; fill-opacity: 0.7; stroke: #f40000; stroke-opacity: 0.7"/>
    </g>
   </g>
   <g id="PolyCollection_15">
    <defs>
     <path id="m3acca5b9ee" d="M 362.717853 -545.106774 
L 362.717853 -545.106774 
L 362.717853 -545.106774 
L 362.717853 -545.106774 
z
" style="stroke: #d20000; stroke-opacity: 0.7"/>
    </defs>
    <g clip-path="url(#pbac54cdbc2)">
     <use xlink:href="#m3acca5b9ee" x="0" y="576" style="fill: #d20000; fill-opacity: 0.7; stroke: #d20000; stroke-opacity: 0.7"/>
    </g>
   </g>
   <g id="matplotlib.axis_1">
    <g id="xtick_1">
     <g id="line2d_1">
      <defs>
       <path id="m2ec7dcc06d" d="M 0 0 
L 0 3.5 
" style="stroke: #000000; stroke-width: 0.8"/>
      </defs>
      <g>
       <use xlink:href="#m2ec7dcc06d" x="42.495313" y="510.648438" style="stroke: #000000; stroke-width: 0.8"/>
      </g>
     </g>
     <g id="text_1">
      <!-- −1.0 -->
      <g transform="translate(18.2125 532.845312) scale(0.2 -0.2)">
       <defs>
        <path id="DejaVuSans-2212" d="M 678 2272 
L 4684 2272 
L 4684 1741 
L 678 1741 
L 678 2272 
z
" transform="scale(0.015625)"/>
        <path id="DejaVuSans-31" d="M 794 531 
L 1825 531 
L 1825 4091 
L 703 3866 
L 703 4441 
L 1819 4666 
L 2450 4666 
L 2450 531 
L 3481 531 
L 3481 0 
L 794 0 
L 794 531 
z
" transform="scale(0.015625)"/>
        <path id="DejaVuSans-2e" d="M 684 794 
L 1344 794 
L 1344 0 
L 684 0 
L 684 794 
z
" transform="scale(0.015625)"/>
        <path id="DejaVuSans-30" d="M 2034 4250 
Q 1547 4250 1301 3770 
Q 1056 3291 1056 2328 
Q 1056 1369 1301 889 
Q 1547 409 2034 409 
Q 2525 409 2770 889 
Q 3016 1369 3016 2328 
Q 3016 3291 2770 3770 
Q 2525 4250 2034 4250 
z
M 2034 4750 
Q 2819 4750 3233 4129 
Q 3647 3509 3647 2328 
Q 3647 1150 3233 529 
Q 2819 -91 2034 -91 
Q 1250 -91 836 529 
Q 422 1150 422 2328 
Q 422 3509 836 4129 
Q 1250 4750 2034 4750 
z
" transform="scale(0.015625)"/>
       </defs>
       <use xlink:href="#DejaVuSans-2212"/>
       <use xlink:href="#DejaVuSans-31" x="83.789062"/>
       <use xlink:href="#DejaVuSans-2e" x="147.412109"/>
       <use xlink:href="#DejaVuSans-30" x="179.199219"/>
      </g>
     </g>
    </g>
    <g id="xtick_2">
     <g id="line2d_2">
      <g>
       <use xlink:href="#m2ec7dcc06d" x="106.539821" y="510.648438" style="stroke: #000000; stroke-width: 0.8"/>
      </g>
     </g>
     <g id="text_2">
      <!-- −0.8 -->
      <g transform="translate(82.257008 532.845312) scale(0.2 -0.2)">
       <defs>
        <path id="DejaVuSans-38" d="M 2034 2216 
Q 1584 2216 1326 1975 
Q 1069 1734 1069 1313 
Q 1069 891 1326 650 
Q 1584 409 2034 409 
Q 2484 409 2743 651 
Q 3003 894 3003 1313 
Q 3003 1734 2745 1975 
Q 2488 2216 2034 2216 
z
M 1403 2484 
Q 997 2584 770 2862 
Q 544 3141 544 3541 
Q 544 4100 942 4425 
Q 1341 4750 2034 4750 
Q 2731 4750 3128 4425 
Q 3525 4100 3525 3541 
Q 3525 3141 3298 2862 
Q 3072 2584 2669 2484 
Q 3125 2378 3379 2068 
Q 3634 1759 3634 1313 
Q 3634 634 3220 271 
Q 2806 -91 2034 -91 
Q 1263 -91 848 271 
Q 434 634 434 1313 
Q 434 1759 690 2068 
Q 947 2378 1403 2484 
z
M 1172 3481 
Q 1172 3119 1398 2916 
Q 1625 2713 2034 2713 
Q 2441 2713 2670 2916 
Q 2900 3119 2900 3481 
Q 2900 3844 2670 4047 
Q 2441 4250 2034 4250 
Q 1625 4250 1398 4047 
Q 1172 3844 1172 3481 
z
" transform="scale(0.015625)"/>
       </defs>
       <use xlink:href="#DejaVuSans-2212"/>
       <use xlink:href="#DejaVuSans-30" x="83.789062"/>
       <use xlink:href="#DejaVuSans-2e" x="147.412109"/>
       <use xlink:href="#DejaVuSans-38" x="179.199219"/>
      </g>
     </g>
    </g>
    <g id="xtick_3">
     <g id="line2d_3">
      <g>
       <use xlink:href="#m2ec7dcc06d" x="170.584329" y="510.648438" style="stroke: #000000; stroke-width: 0.8"/>
      </g>
     </g>
     <g id="text_3">
      <!-- −0.6 -->
      <g transform="translate(146.301516 532.845312) scale(0.2 -0.2)">
       <defs>
        <path id="DejaVuSans-36" d="M 2113 2584 
Q 1688 2584 1439 2293 
Q 1191 2003 1191 1497 
Q 1191 994 1439 701 
Q 1688 409 2113 409 
Q 2538 409 2786 701 
Q 3034 994 3034 1497 
Q 3034 2003 2786 2293 
Q 2538 2584 2113 2584 
z
M 3366 4563 
L 3366 3988 
Q 3128 4100 2886 4159 
Q 2644 4219 2406 4219 
Q 1781 4219 1451 3797 
Q 1122 3375 1075 2522 
Q 1259 2794 1537 2939 
Q 1816 3084 2150 3084 
Q 2853 3084 3261 2657 
Q 3669 2231 3669 1497 
Q 3669 778 3244 343 
Q 2819 -91 2113 -91 
Q 1303 -91 875 529 
Q 447 1150 447 2328 
Q 447 3434 972 4092 
Q 1497 4750 2381 4750 
Q 2619 4750 2861 4703 
Q 3103 4656 3366 4563 
z
" transform="scale(0.015625)"/>
       </defs>
       <use xlink:href="#DejaVuSans-2212"/>
       <use xlink:href="#DejaVuSans-30" x="83.789062"/>
       <use xlink:href="#DejaVuSans-2e" x="147.412109"/>
       <use xlink:href="#DejaVuSans-36" x="179.199219"/>
      </g>
     </g>
    </g>
    <g id="xtick_4">
     <g id="line2d_4">
      <g>
       <use xlink:href="#m2ec7dcc06d" x="234.628837" y="510.648438" style="stroke: #000000; stroke-width: 0.8"/>
      </g>
     </g>
     <g id="text_4">
      <!-- −0.4 -->
      <g transform="translate(210.346024 532.845312) scale(0.2 -0.2)">
       <defs>
        <path id="DejaVuSans-34" d="M 2419 4116 
L 825 1625 
L 2419 1625 
L 2419 4116 
z
M 2253 4666 
L 3047 4666 
L 3047 1625 
L 3713 1625 
L 3713 1100 
L 3047 1100 
L 3047 0 
L 2419 0 
L 2419 1100 
L 313 1100 
L 313 1709 
L 2253 4666 
z
" transform="scale(0.015625)"/>
       </defs>
       <use xlink:href="#DejaVuSans-2212"/>
       <use xlink:href="#DejaVuSans-30" x="83.789062"/>
       <use xlink:href="#DejaVuSans-2e" x="147.412109"/>
       <use xlink:href="#DejaVuSans-34" x="179.199219"/>
      </g>
     </g>
    </g>
    <g id="xtick_5">
     <g id="line2d_5">
      <g>
       <use xlink:href="#m2ec7dcc06d" x="298.673345" y="510.648438" style="stroke: #000000; stroke-width: 0.8"/>
      </g>
     </g>
     <g id="text_5">
      <!-- −0.2 -->
      <g transform="translate(274.390533 532.845312) scale(0.2 -0.2)">
       <defs>
        <path id="DejaVuSans-32" d="M 1228 531 
L 3431 531 
L 3431 0 
L 469 0 
L 469 531 
Q 828 903 1448 1529 
Q 2069 2156 2228 2338 
Q 2531 2678 2651 2914 
Q 2772 3150 2772 3378 
Q 2772 3750 2511 3984 
Q 2250 4219 1831 4219 
Q 1534 4219 1204 4116 
Q 875 4013 500 3803 
L 500 4441 
Q 881 4594 1212 4672 
Q 1544 4750 1819 4750 
Q 2544 4750 2975 4387 
Q 3406 4025 3406 3419 
Q 3406 3131 3298 2873 
Q 3191 2616 2906 2266 
Q 2828 2175 2409 1742 
Q 1991 1309 1228 531 
z
" transform="scale(0.015625)"/>
       </defs>
       <use xlink:href="#DejaVuSans-2212"/>
       <use xlink:href="#DejaVuSans-30" x="83.789062"/>
       <use xlink:href="#DejaVuSans-2e" x="147.412109"/>
       <use xlink:href="#DejaVuSans-32" x="179.199219"/>
      </g>
     </g>
    </g>
    <g id="xtick_6">
     <g id="line2d_6">
      <g>
       <use xlink:href="#m2ec7dcc06d" x="362.717853" y="510.648438" style="stroke: #000000; stroke-width: 0.8"/>
      </g>
     </g>
     <g id="text_6">
      <!-- 0.0 -->
      <g transform="translate(346.814728 532.845312) scale(0.2 -0.2)">
       <use xlink:href="#DejaVuSans-30"/>
       <use xlink:href="#DejaVuSans-2e" x="63.623047"/>
       <use xlink:href="#DejaVuSans-30" x="95.410156"/>
      </g>
     </g>
    </g>
    <g id="xtick_7">
     <g id="line2d_7">
      <g>
       <use xlink:href="#m2ec7dcc06d" x="426.762361" y="510.648438" style="stroke: #000000; stroke-width: 0.8"/>
      </g>
     </g>
     <g id="text_7">
      <!-- 0.2 -->
      <g transform="translate(410.859236 532.845312) scale(0.2 -0.2)">
       <use xlink:href="#DejaVuSans-30"/>
       <use xlink:href="#DejaVuSans-2e" x="63.623047"/>
       <use xlink:href="#DejaVuSans-32" x="95.410156"/>
      </g>
     </g>
    </g>
    <g id="xtick_8">
     <g id="line2d_8">
      <g>
       <use xlink:href="#m2ec7dcc06d" x="490.80687" y="510.648438" style="stroke: #000000; stroke-width: 0.8"/>
      </g>
     </g>
     <g id="text_8">
      <!-- 0.4 -->
      <g transform="translate(474.903745 532.845312) scale(0.2 -0.2)">
       <use xlink:href="#DejaVuSans-30"/>
       <use xlink:href="#DejaVuSans-2e" x="63.623047"/>
       <use xlink:href="#DejaVuSans-34" x="95.410156"/>
      </g>
     </g>
    </g>
    <g id="xtick_9">
     <g id="line2d_9">
      <g>
       <use xlink:href="#m2ec7dcc06d" x="554.851378" y="510.648438" style="stroke: #000000; stroke-width: 0.8"/>
      </g>
     </g>
     <g id="text_9">
      <!-- 0.6 -->
      <g transform="translate(538.948253 532.845312) scale(0.2 -0.2)">
       <use xlink:href="#DejaVuSans-30"/>
       <use xlink:href="#DejaVuSans-2e" x="63.623047"/>
       <use xlink:href="#DejaVuSans-36" x="95.410156"/>
      </g>
     </g>
    </g>
    <g id="xtick_10">
     <g id="line2d_10">
      <g>
       <use xlink:href="#m2ec7dcc06d" x="618.895886" y="510.648438" style="stroke: #000000; stroke-width: 0.8"/>
      </g>
     </g>
     <g id="text_10">
      <!-- 0.8 -->
      <g transform="translate(602.992761 532.845312) scale(0.2 -0.2)">
       <use xlink:href="#DejaVuSans-30"/>
       <use xlink:href="#DejaVuSans-2e" x="63.623047"/>
       <use xlink:href="#DejaVuSans-38" x="95.410156"/>
      </g>
     </g>
    </g>
    <g id="xtick_11">
     <g id="line2d_11">
      <g>
       <use xlink:href="#m2ec7dcc06d" x="682.940394" y="510.648438" style="stroke: #000000; stroke-width: 0.8"/>
      </g>
     </g>
     <g id="text_11">
      <!-- 1.0 -->
      <g transform="translate(667.037269 532.845312) scale(0.2 -0.2)">
       <use xlink:href="#DejaVuSans-31"/>
       <use xlink:href="#DejaVuSans-2e" x="63.623047"/>
       <use xlink:href="#DejaVuSans-30" x="95.410156"/>
      </g>
     </g>
    </g>
    <g id="text_12">
     <!-- Silhouette coefficient -->
     <g transform="translate(234.278916 560.000781) scale(0.25 -0.25)">
      <defs>
       <path id="DejaVuSans-53" d="M 3425 4513 
L 3425 3897 
Q 3066 4069 2747 4153 
Q 2428 4238 2131 4238 
Q 1616 4238 1336 4038 
Q 1056 3838 1056 3469 
Q 1056 3159 1242 3001 
Q 1428 2844 1947 2747 
L 2328 2669 
Q 3034 2534 3370 2195 
Q 3706 1856 3706 1288 
Q 3706 609 3251 259 
Q 2797 -91 1919 -91 
Q 1588 -91 1214 -16 
Q 841 59 441 206 
L 441 856 
Q 825 641 1194 531 
Q 1563 422 1919 422 
Q 2459 422 2753 634 
Q 3047 847 3047 1241 
Q 3047 1584 2836 1778 
Q 2625 1972 2144 2069 
L 1759 2144 
Q 1053 2284 737 2584 
Q 422 2884 422 3419 
Q 422 4038 858 4394 
Q 1294 4750 2059 4750 
Q 2388 4750 2728 4690 
Q 3069 4631 3425 4513 
z
" transform="scale(0.015625)"/>
       <path id="DejaVuSans-69" d="M 603 3500 
L 1178 3500 
L 1178 0 
L 603 0 
L 603 3500 
z
M 603 4863 
L 1178 4863 
L 1178 4134 
L 603 4134 
L 603 4863 
z
" transform="scale(0.015625)"/>
       <path id="DejaVuSans-6c" d="M 603 4863 
L 1178 4863 
L 1178 0 
L 603 0 
L 603 4863 
z
" transform="scale(0.015625)"/>
       <path id="DejaVuSans-68" d="M 3513 2113 
L 3513 0 
L 2938 0 
L 2938 2094 
Q 2938 2591 2744 2837 
Q 2550 3084 2163 3084 
Q 1697 3084 1428 2787 
Q 1159 2491 1159 1978 
L 1159 0 
L 581 0 
L 581 4863 
L 1159 4863 
L 1159 2956 
Q 1366 3272 1645 3428 
Q 1925 3584 2291 3584 
Q 2894 3584 3203 3211 
Q 3513 2838 3513 2113 
z
" transform="scale(0.015625)"/>
       <path id="DejaVuSans-6f" d="M 1959 3097 
Q 1497 3097 1228 2736 
Q 959 2375 959 1747 
Q 959 1119 1226 758 
Q 1494 397 1959 397 
Q 2419 397 2687 759 
Q 2956 1122 2956 1747 
Q 2956 2369 2687 2733 
Q 2419 3097 1959 3097 
z
M 1959 3584 
Q 2709 3584 3137 3096 
Q 3566 2609 3566 1747 
Q 3566 888 3137 398 
Q 2709 -91 1959 -91 
Q 1206 -91 779 398 
Q 353 888 353 1747 
Q 353 2609 779 3096 
Q 1206 3584 1959 3584 
z
" transform="scale(0.015625)"/>
       <path id="DejaVuSans-75" d="M 544 1381 
L 544 3500 
L 1119 3500 
L 1119 1403 
Q 1119 906 1312 657 
Q 1506 409 1894 409 
Q 2359 409 2629 706 
Q 2900 1003 2900 1516 
L 2900 3500 
L 3475 3500 
L 3475 0 
L 2900 0 
L 2900 538 
Q 2691 219 2414 64 
Q 2138 -91 1772 -91 
Q 1169 -91 856 284 
Q 544 659 544 1381 
z
M 1991 3584 
L 1991 3584 
z
" transform="scale(0.015625)"/>
       <path id="DejaVuSans-65" d="M 3597 1894 
L 3597 1613 
L 953 1613 
Q 991 1019 1311 708 
Q 1631 397 2203 397 
Q 2534 397 2845 478 
Q 3156 559 3463 722 
L 3463 178 
Q 3153 47 2828 -22 
Q 2503 -91 2169 -91 
Q 1331 -91 842 396 
Q 353 884 353 1716 
Q 353 2575 817 3079 
Q 1281 3584 2069 3584 
Q 2775 3584 3186 3129 
Q 3597 2675 3597 1894 
z
M 3022 2063 
Q 3016 2534 2758 2815 
Q 2500 3097 2075 3097 
Q 1594 3097 1305 2825 
Q 1016 2553 972 2059 
L 3022 2063 
z
" transform="scale(0.015625)"/>
       <path id="DejaVuSans-74" d="M 1172 4494 
L 1172 3500 
L 2356 3500 
L 2356 3053 
L 1172 3053 
L 1172 1153 
Q 1172 725 1289 603 
Q 1406 481 1766 481 
L 2356 481 
L 2356 0 
L 1766 0 
Q 1100 0 847 248 
Q 594 497 594 1153 
L 594 3053 
L 172 3053 
L 172 3500 
L 594 3500 
L 594 4494 
L 1172 4494 
z
" transform="scale(0.015625)"/>
       <path id="DejaVuSans-20" transform="scale(0.015625)"/>
       <path id="DejaVuSans-63" d="M 3122 3366 
L 3122 2828 
Q 2878 2963 2633 3030 
Q 2388 3097 2138 3097 
Q 1578 3097 1268 2742 
Q 959 2388 959 1747 
Q 959 1106 1268 751 
Q 1578 397 2138 397 
Q 2388 397 2633 464 
Q 2878 531 3122 666 
L 3122 134 
Q 2881 22 2623 -34 
Q 2366 -91 2075 -91 
Q 1284 -91 818 406 
Q 353 903 353 1747 
Q 353 2603 823 3093 
Q 1294 3584 2113 3584 
Q 2378 3584 2631 3529 
Q 2884 3475 3122 3366 
z
" transform="scale(0.015625)"/>
       <path id="DejaVuSans-66" d="M 2375 4863 
L 2375 4384 
L 1825 4384 
Q 1516 4384 1395 4259 
Q 1275 4134 1275 3809 
L 1275 3500 
L 2222 3500 
L 2222 3053 
L 1275 3053 
L 1275 0 
L 697 0 
L 697 3053 
L 147 3053 
L 147 3500 
L 697 3500 
L 697 3744 
Q 697 4328 969 4595 
Q 1241 4863 1831 4863 
L 2375 4863 
z
" transform="scale(0.015625)"/>
       <path id="DejaVuSans-6e" d="M 3513 2113 
L 3513 0 
L 2938 0 
L 2938 2094 
Q 2938 2591 2744 2837 
Q 2550 3084 2163 3084 
Q 1697 3084 1428 2787 
Q 1159 2491 1159 1978 
L 1159 0 
L 581 0 
L 581 3500 
L 1159 3500 
L 1159 2956 
Q 1366 3272 1645 3428 
Q 1925 3584 2291 3584 
Q 2894 3584 3203 3211 
Q 3513 2838 3513 2113 
z
" transform="scale(0.015625)"/>
      </defs>
      <use xlink:href="#DejaVuSans-53"/>
      <use xlink:href="#DejaVuSans-69" x="63.476562"/>
      <use xlink:href="#DejaVuSans-6c" x="91.259766"/>
      <use xlink:href="#DejaVuSans-68" x="119.042969"/>
      <use xlink:href="#DejaVuSans-6f" x="182.421875"/>
      <use xlink:href="#DejaVuSans-75" x="243.603516"/>
      <use xlink:href="#DejaVuSans-65" x="306.982422"/>
      <use xlink:href="#DejaVuSans-74" x="368.505859"/>
      <use xlink:href="#DejaVuSans-74" x="407.714844"/>
      <use xlink:href="#DejaVuSans-65" x="446.923828"/>
      <use xlink:href="#DejaVuSans-20" x="508.447266"/>
      <use xlink:href="#DejaVuSans-63" x="540.234375"/>
      <use xlink:href="#DejaVuSans-6f" x="595.214844"/>
      <use xlink:href="#DejaVuSans-65" x="656.396484"/>
      <use xlink:href="#DejaVuSans-66" x="717.919922"/>
      <use xlink:href="#DejaVuSans-66" x="753.125"/>
      <use xlink:href="#DejaVuSans-69" x="788.330078"/>
      <use xlink:href="#DejaVuSans-63" x="816.113281"/>
      <use xlink:href="#DejaVuSans-69" x="871.09375"/>
      <use xlink:href="#DejaVuSans-65" x="898.876953"/>
      <use xlink:href="#DejaVuSans-6e" x="960.400391"/>
      <use xlink:href="#DejaVuSans-74" x="1023.779297"/>
     </g>
    </g>
   </g>
   <g id="matplotlib.axis_2">
    <g id="text_13">
     <!-- Predicted label -->
     <g transform="translate(29.796094 360.43774) rotate(-90) scale(0.25 -0.25)">
      <defs>
       <path id="DejaVuSans-50" d="M 1259 4147 
L 1259 2394 
L 2053 2394 
Q 2494 2394 2734 2622 
Q 2975 2850 2975 3272 
Q 2975 3691 2734 3919 
Q 2494 4147 2053 4147 
L 1259 4147 
z
M 628 4666 
L 2053 4666 
Q 2838 4666 3239 4311 
Q 3641 3956 3641 3272 
Q 3641 2581 3239 2228 
Q 2838 1875 2053 1875 
L 1259 1875 
L 1259 0 
L 628 0 
L 628 4666 
z
" transform="scale(0.015625)"/>
       <path id="DejaVuSans-72" d="M 2631 2963 
Q 2534 3019 2420 3045 
Q 2306 3072 2169 3072 
Q 1681 3072 1420 2755 
Q 1159 2438 1159 1844 
L 1159 0 
L 581 0 
L 581 3500 
L 1159 3500 
L 1159 2956 
Q 1341 3275 1631 3429 
Q 1922 3584 2338 3584 
Q 2397 3584 2469 3576 
Q 2541 3569 2628 3553 
L 2631 2963 
z
" transform="scale(0.015625)"/>
       <path id="DejaVuSans-64" d="M 2906 2969 
L 2906 4863 
L 3481 4863 
L 3481 0 
L 2906 0 
L 2906 525 
Q 2725 213 2448 61 
Q 2172 -91 1784 -91 
Q 1150 -91 751 415 
Q 353 922 353 1747 
Q 353 2572 751 3078 
Q 1150 3584 1784 3584 
Q 2172 3584 2448 3432 
Q 2725 3281 2906 2969 
z
M 947 1747 
Q 947 1113 1208 752 
Q 1469 391 1925 391 
Q 2381 391 2643 752 
Q 2906 1113 2906 1747 
Q 2906 2381 2643 2742 
Q 2381 3103 1925 3103 
Q 1469 3103 1208 2742 
Q 947 2381 947 1747 
z
" transform="scale(0.015625)"/>
       <path id="DejaVuSans-61" d="M 2194 1759 
Q 1497 1759 1228 1600 
Q 959 1441 959 1056 
Q 959 750 1161 570 
Q 1363 391 1709 391 
Q 2188 391 2477 730 
Q 2766 1069 2766 1631 
L 2766 1759 
L 2194 1759 
z
M 3341 1997 
L 3341 0 
L 2766 0 
L 2766 531 
Q 2569 213 2275 61 
Q 1981 -91 1556 -91 
Q 1019 -91 701 211 
Q 384 513 384 1019 
Q 384 1609 779 1909 
Q 1175 2209 1959 2209 
L 2766 2209 
L 2766 2266 
Q 2766 2663 2505 2880 
Q 2244 3097 1772 3097 
Q 1472 3097 1187 3025 
Q 903 2953 641 2809 
L 641 3341 
Q 956 3463 1253 3523 
Q 1550 3584 1831 3584 
Q 2591 3584 2966 3190 
Q 3341 2797 3341 1997 
z
" transform="scale(0.015625)"/>
       <path id="DejaVuSans-62" d="M 3116 1747 
Q 3116 2381 2855 2742 
Q 2594 3103 2138 3103 
Q 1681 3103 1420 2742 
Q 1159 2381 1159 1747 
Q 1159 1113 1420 752 
Q 1681 391 2138 391 
Q 2594 391 2855 752 
Q 3116 1113 3116 1747 
z
M 1159 2969 
Q 1341 3281 1617 3432 
Q 1894 3584 2278 3584 
Q 2916 3584 3314 3078 
Q 3713 2572 3713 1747 
Q 3713 922 3314 415 
Q 2916 -91 2278 -91 
Q 1894 -91 1617 61 
Q 1341 213 1159 525 
L 1159 0 
L 581 0 
L 581 4863 
L 1159 4863 
L 1159 2969 
z
" transform="scale(0.015625)"/>
      </defs>
      <use xlink:href="#DejaVuSans-50"/>
      <use xlink:href="#DejaVuSans-72" x="58.552734"/>
      <use xlink:href="#DejaVuSans-65" x="97.416016"/>
      <use xlink:href="#DejaVuSans-64" x="158.939453"/>
      <use xlink:href="#DejaVuSans-69" x="222.416016"/>
      <use xlink:href="#DejaVuSans-63" x="250.199219"/>
      <use xlink:href="#DejaVuSans-74" x="305.179688"/>
      <use xlink:href="#DejaVuSans-65" x="344.388672"/>
      <use xlink:href="#DejaVuSans-64" x="405.912109"/>
      <use xlink:href="#DejaVuSans-20" x="469.388672"/>
      <use xlink:href="#DejaVuSans-6c" x="501.175781"/>
      <use xlink:href="#DejaVuSans-61" x="528.958984"/>
      <use xlink:href="#DejaVuSans-62" x="590.238281"/>
      <use xlink:href="#DejaVuSans-65" x="653.714844"/>
      <use xlink:href="#DejaVuSans-6c" x="715.238281"/>
     </g>
    </g>
   </g>
   <g id="line2d_12">
    <path d="M 594.242168 510.648438 
L 594.242168 24.465325 
" clip-path="url(#pbac54cdbc2)" style="fill: none; stroke: #ff0000; stroke-width: 4; stroke-linecap: square"/>
   </g>
   <g id="patch_3">
    <path d="M 42.495313 510.648438 
L 42.495313 24.465325 
" style="fill: none; stroke: #000000; stroke-width: 0.8; stroke-linejoin: miter; stroke-linecap: square"/>
   </g>
   <g id="patch_4">
    <path d="M 691.81252 510.648438 
L 691.81252 24.465325 
" style="fill: none; stroke: #000000; stroke-width: 0.8; stroke-linejoin: miter; stroke-linecap: square"/>
   </g>
   <g id="patch_5">
    <path d="M 42.495313 510.648438 
L 691.81252 510.648438 
" style="fill: none; stroke: #000000; stroke-width: 0.8; stroke-linejoin: miter; stroke-linecap: square"/>
   </g>
   <g id="patch_6">
    <path d="M 42.495313 24.465325 
L 691.81252 24.465325 
" style="fill: none; stroke: #000000; stroke-width: 0.8; stroke-linejoin: miter; stroke-linecap: square"/>
   </g>
   <g id="text_14">
    <!-- 0 -->
    <g transform="translate(346.706726 464.776593) scale(0.25 -0.25)">
     <use xlink:href="#DejaVuSans-30"/>
    </g>
   </g>
   <g id="text_15">
    <!-- 1 -->
    <g transform="translate(346.706726 417.73604) scale(0.25 -0.25)">
     <use xlink:href="#DejaVuSans-31"/>
    </g>
   </g>
   <g id="text_16">
    <!-- 2 -->
    <g transform="translate(346.706726 410.139429) scale(0.25 -0.25)">
     <use xlink:href="#DejaVuSans-32"/>
    </g>
   </g>
   <g id="text_17">
    <!-- 3 -->
    <g transform="translate(346.706726 402.542817) scale(0.25 -0.25)">
     <defs>
      <path id="DejaVuSans-33" d="M 2597 2516 
Q 3050 2419 3304 2112 
Q 3559 1806 3559 1356 
Q 3559 666 3084 287 
Q 2609 -91 1734 -91 
Q 1441 -91 1130 -33 
Q 819 25 488 141 
L 488 750 
Q 750 597 1062 519 
Q 1375 441 1716 441 
Q 2309 441 2620 675 
Q 2931 909 2931 1356 
Q 2931 1769 2642 2001 
Q 2353 2234 1838 2234 
L 1294 2234 
L 1294 2753 
L 1863 2753 
Q 2328 2753 2575 2939 
Q 2822 3125 2822 3475 
Q 2822 3834 2567 4026 
Q 2313 4219 1838 4219 
Q 1578 4219 1281 4162 
Q 984 4106 628 3988 
L 628 4550 
Q 988 4650 1302 4700 
Q 1616 4750 1894 4750 
Q 2613 4750 3031 4423 
Q 3450 4097 3450 3541 
Q 3450 3153 3228 2886 
Q 3006 2619 2597 2516 
z
" transform="scale(0.015625)"/>
     </defs>
     <use xlink:href="#DejaVuSans-33"/>
    </g>
   </g>
   <g id="text_18">
    <!-- 4 -->
    <g transform="translate(346.706726 389.979191) scale(0.25 -0.25)">
     <use xlink:href="#DejaVuSans-34"/>
    </g>
   </g>
   <g id="text_19">
    <!-- 5 -->
    <g transform="translate(346.706726 240.968742) scale(0.25 -0.25)">
     <defs>
      <path id="DejaVuSans-35" d="M 691 4666 
L 3169 4666 
L 3169 4134 
L 1269 4134 
L 1269 2991 
Q 1406 3038 1543 3061 
Q 1681 3084 1819 3084 
Q 2600 3084 3056 2656 
Q 3513 2228 3513 1497 
Q 3513 744 3044 326 
Q 2575 -91 1722 -91 
Q 1428 -91 1123 -41 
Q 819 9 494 109 
L 494 744 
Q 775 591 1075 516 
Q 1375 441 1709 441 
Q 2250 441 2565 725 
Q 2881 1009 2881 1497 
Q 2881 1984 2565 2268 
Q 2250 2553 1709 2553 
Q 1456 2553 1204 2497 
Q 953 2441 691 2322 
L 691 4666 
z
" transform="scale(0.015625)"/>
     </defs>
     <use xlink:href="#DejaVuSans-35"/>
    </g>
   </g>
   <g id="text_20">
    <!-- 6 -->
    <g transform="translate(346.706726 97.217485) scale(0.25 -0.25)">
     <use xlink:href="#DejaVuSans-36"/>
    </g>
   </g>
   <g id="text_21">
    <!-- 7 -->
    <g transform="translate(346.706726 89.913051) scale(0.25 -0.25)">
     <defs>
      <path id="DejaVuSans-37" d="M 525 4666 
L 3525 4666 
L 3525 4397 
L 1831 0 
L 1172 0 
L 2766 4134 
L 525 4134 
L 525 4666 
z
" transform="scale(0.015625)"/>
     </defs>
     <use xlink:href="#DejaVuSans-37"/>
    </g>
   </g>
   <g id="text_22">
    <!-- 8 -->
    <g transform="translate(346.706726 79.686844) scale(0.25 -0.25)">
     <use xlink:href="#DejaVuSans-38"/>
    </g>
   </g>
   <g id="text_23">
    <!-- 9 -->
    <g transform="translate(346.706726 70.337169) scale(0.25 -0.25)">
     <defs>
      <path id="DejaVuSans-39" d="M 703 97 
L 703 672 
Q 941 559 1184 500 
Q 1428 441 1663 441 
Q 2288 441 2617 861 
Q 2947 1281 2994 2138 
Q 2813 1869 2534 1725 
Q 2256 1581 1919 1581 
Q 1219 1581 811 2004 
Q 403 2428 403 3163 
Q 403 3881 828 4315 
Q 1253 4750 1959 4750 
Q 2769 4750 3195 4129 
Q 3622 3509 3622 2328 
Q 3622 1225 3098 567 
Q 2575 -91 1691 -91 
Q 1453 -91 1209 -44 
Q 966 3 703 97 
z
M 1959 2075 
Q 2384 2075 2632 2365 
Q 2881 2656 2881 3163 
Q 2881 3666 2632 3958 
Q 2384 4250 1959 4250 
Q 1534 4250 1286 3958 
Q 1038 3666 1038 3163 
Q 1038 2656 1286 2365 
Q 1534 2075 1959 2075 
z
" transform="scale(0.015625)"/>
     </defs>
     <use xlink:href="#DejaVuSans-39"/>
    </g>
   </g>
   <g id="text_24">
    <!-- 10 -->
    <g transform="translate(346.706726 60.110961) scale(0.25 -0.25)">
     <use xlink:href="#DejaVuSans-31"/>
     <use xlink:href="#DejaVuSans-30" x="63.623047"/>
    </g>
   </g>
   <g id="text_25">
    <!-- 11 -->
    <g transform="translate(346.706726 49.884754) scale(0.25 -0.25)">
     <use xlink:href="#DejaVuSans-31"/>
     <use xlink:href="#DejaVuSans-31" x="63.623047"/>
    </g>
   </g>
   <g id="text_26">
    <!-- 12 -->
    <g transform="translate(346.706726 43.456852) scale(0.25 -0.25)">
     <use xlink:href="#DejaVuSans-31"/>
     <use xlink:href="#DejaVuSans-32" x="63.623047"/>
    </g>
   </g>
   <g id="text_27">
    <!-- 13 -->
    <g transform="translate(346.706726 37.028951) scale(0.25 -0.25)">
     <use xlink:href="#DejaVuSans-31"/>
     <use xlink:href="#DejaVuSans-33" x="63.623047"/>
    </g>
   </g>
   <g id="text_28">
    <!-- 14 -->
    <g transform="translate(346.706726 30.601049) scale(0.25 -0.25)">
     <use xlink:href="#DejaVuSans-31"/>
     <use xlink:href="#DejaVuSans-34" x="63.623047"/>
    </g>
   </g>
   <g id="text_29">
    <!-- 0.7230 -->
    <g style="fill: #ff0000" transform="translate(610.253295 30.308872) scale(0.25 -0.25)">
     <use xlink:href="#DejaVuSans-30"/>
     <use xlink:href="#DejaVuSans-2e" x="63.623047"/>
     <use xlink:href="#DejaVuSans-37" x="95.410156"/>
     <use xlink:href="#DejaVuSans-32" x="159.033203"/>
     <use xlink:href="#DejaVuSans-33" x="222.65625"/>
     <use xlink:href="#DejaVuSans-30" x="286.279297"/>
    </g>
   </g>
  </g>
 </g>
 <defs>
  <clipPath id="pbac54cdbc2">
   <rect x="42.495313" y="24.465325" width="649.317207" height="486.183113"/>
  </clipPath>
 </defs>
</svg>
