<?xml version="1.0" encoding="utf-8" standalone="no"?>
<!DOCTYPE svg PUBLIC "-//W3C//DTD SVG 1.1//EN"
  "http://www.w3.org/Graphics/SVG/1.1/DTD/svg11.dtd">
<svg xmlns:xlink="http://www.w3.org/1999/xlink" width="720pt" height="720pt" viewBox="0 0 720 720" xmlns="http://www.w3.org/2000/svg" version="1.1">
 <metadata>
  <rdf:RDF xmlns:dc="http://purl.org/dc/elements/1.1/" xmlns:cc="http://creativecommons.org/ns#" xmlns:rdf="http://www.w3.org/1999/02/22-rdf-syntax-ns#">
   <cc:Work>
    <dc:type rdf:resource="http://purl.org/dc/dcmitype/StillImage"/>
    <dc:date>2022-11-17T19:11:18.766370</dc:date>
    <dc:format>image/svg+xml</dc:format>
    <dc:creator>
     <cc:Agent>
      <dc:title>Matplotlib v3.6.1, https://matplotlib.org/</dc:title>
     </cc:Agent>
    </dc:creator>
   </cc:Work>
  </rdf:RDF>
 </metadata>
 <defs>
  <style type="text/css">*{stroke-linejoin: round; stroke-linecap: butt}</style>
 </defs>
 <g id="figure_1">
  <g id="patch_1">
   <path d="M 0 720 
L 720 720 
L 720 0 
L 0 0 
z
" style="fill: #ffffff"/>
  </g>
  <g id="axes_1">
   <g id="patch_2">
    <path d="M 27.978125 678.84375 
L 708.872825 678.84375 
L 708.872825 11.734976 
L 27.978125 11.734976 
z
" style="fill: #ffffff"/>
   </g>
   <g id="PolyCollection_1">
    <defs>
     <path id="m56e61643b1" d="M 254.73282 -49.174384 
L 363.773678 -49.174384 
L 363.773678 -49.976198 
L 363.773678 -50.778011 
L 363.773678 -51.579825 
L 363.773678 -52.381638 
L 363.773678 -53.183451 
L 363.773678 -53.985265 
L 363.773678 -54.787078 
L 363.773678 -55.588892 
L 363.773678 -56.390705 
L 363.773678 -57.192519 
L 363.773678 -57.994332 
L 363.773678 -58.796145 
L 363.773678 -59.597959 
L 363.773678 -60.399772 
L 363.773678 -61.201586 
L 363.773678 -62.003399 
L 363.773678 -62.805213 
L 363.773678 -63.607026 
L 363.773678 -64.408839 
L 363.773678 -65.210653 
L 363.773678 -66.012466 
L 363.773678 -66.81428 
L 363.773678 -67.616093 
L 363.773678 -68.417907 
L 363.773678 -69.21972 
L 363.773678 -70.021533 
L 363.773678 -70.823347 
L 363.773678 -71.62516 
L 363.773678 -72.426974 
L 363.773678 -73.228787 
L 363.773678 -74.030601 
L 363.773678 -74.832414 
L 363.773678 -75.634228 
L 363.773678 -76.436041 
L 363.773678 -77.237854 
L 363.773678 -78.039668 
L 363.773678 -78.841481 
L 363.773678 -79.643295 
L 363.773678 -80.445108 
L 363.773678 -81.246922 
L 363.773678 -82.048735 
L 363.773678 -82.850548 
L 363.773678 -83.652362 
L 363.773678 -84.454175 
L 363.773678 -85.255989 
L 363.773678 -86.057802 
L 363.773678 -86.859616 
L 363.773678 -87.661429 
L 363.773678 -88.463242 
L 363.773678 -89.265056 
L 363.773678 -90.066869 
L 363.773678 -90.868683 
L 363.773678 -91.670496 
L 363.773678 -92.47231 
L 363.773678 -93.274123 
L 363.773678 -94.075936 
L 363.773678 -94.87775 
L 363.773678 -95.679563 
L 363.773678 -96.481377 
L 363.773678 -97.28319 
L 363.773678 -98.085004 
L 363.773678 -98.886817 
L 363.773678 -99.68863 
L 363.773678 -100.490444 
L 363.773678 -101.292257 
L 363.773678 -102.094071 
L 363.773678 -102.895884 
L 363.773678 -103.697698 
L 363.773678 -104.499511 
L 363.773678 -105.301324 
L 363.773678 -106.103138 
L 363.773678 -106.904951 
L 363.773678 -107.706765 
L 363.773678 -108.508578 
L 363.773678 -109.310392 
L 363.773678 -110.112205 
L 363.773678 -110.914018 
L 363.773678 -111.715832 
L 363.773678 -112.517645 
L 363.773678 -113.319459 
L 363.773678 -114.121272 
L 363.773678 -114.923086 
L 363.773678 -115.724899 
L 363.773678 -116.526712 
L 363.773678 -117.328526 
L 363.773678 -118.130339 
L 363.773678 -118.932153 
L 363.773678 -119.733966 
L 363.773678 -120.53578 
L 363.773678 -121.337593 
L 363.773678 -122.139406 
L 363.773678 -122.94122 
L 363.773678 -123.743033 
L 363.773678 -124.544847 
L 363.773678 -125.34666 
L 363.773678 -126.148474 
L 363.773678 -126.950287 
L 363.773678 -127.7521 
L 363.773678 -128.553914 
L 363.773678 -129.355727 
L 363.773678 -130.157541 
L 363.773678 -130.959354 
L 363.773678 -131.761168 
L 363.773678 -132.562981 
L 363.773678 -133.364794 
L 363.773678 -134.166608 
L 363.773678 -134.968421 
L 363.773678 -135.770235 
L 363.773678 -136.572048 
L 363.773678 -137.373862 
L 363.773678 -138.175675 
L 363.773678 -138.977489 
L 363.773678 -139.779302 
L 363.773678 -140.581115 
L 363.773678 -141.382929 
L 363.773678 -142.184742 
L 363.773678 -142.986556 
L 363.773678 -143.788369 
L 363.773678 -144.590183 
L 363.773678 -145.391996 
L 363.773678 -146.193809 
L 363.773678 -146.995623 
L 363.773678 -147.797436 
L 363.773678 -148.59925 
L 363.773678 -149.401063 
L 363.773678 -150.202877 
L 363.773678 -151.00469 
L 363.773678 -151.806503 
L 363.773678 -152.608317 
L 363.773678 -153.41013 
L 363.773678 -154.211944 
L 363.773678 -155.013757 
L 363.773678 -155.815571 
L 363.773678 -156.617384 
L 363.773678 -157.419197 
L 363.773678 -158.221011 
L 512.883232 -158.221011 
L 512.883232 -158.221011 
L 508.477575 -157.419197 
L 508.294151 -156.617384 
L 506.885459 -155.815571 
L 503.7746 -155.013757 
L 503.050359 -154.211944 
L 499.001607 -153.41013 
L 496.819811 -152.608317 
L 496.719201 -151.806503 
L 496.106799 -151.00469 
L 495.85242 -150.202877 
L 495.847591 -149.401063 
L 495.015777 -148.59925 
L 494.646545 -147.797436 
L 493.17145 -146.995623 
L 493.087214 -146.193809 
L 492.818603 -145.391996 
L 492.07046 -144.590183 
L 490.455216 -143.788369 
L 489.187743 -142.986556 
L 488.812333 -142.184742 
L 488.649329 -141.382929 
L 488.027154 -140.581115 
L 487.71439 -139.779302 
L 483.985294 -138.977489 
L 483.874734 -138.175675 
L 483.562148 -137.373862 
L 482.694064 -136.572048 
L 481.39415 -135.770235 
L 480.669726 -134.968421 
L 480.524137 -134.166608 
L 479.930047 -133.364794 
L 479.380667 -132.562981 
L 478.957609 -131.761168 
L 478.569684 -130.959354 
L 477.749384 -130.157541 
L 477.658412 -129.355727 
L 477.510786 -128.553914 
L 477.455076 -127.7521 
L 477.40509 -126.950287 
L 477.283644 -126.148474 
L 477.191755 -125.34666 
L 477.093958 -124.544847 
L 476.474188 -123.743033 
L 476.241971 -122.94122 
L 476.238309 -122.139406 
L 474.849452 -121.337593 
L 472.556021 -120.53578 
L 469.860382 -119.733966 
L 467.063748 -118.932153 
L 466.782421 -118.130339 
L 466.122992 -117.328526 
L 465.300578 -116.526712 
L 464.02953 -115.724899 
L 463.660975 -114.923086 
L 462.724803 -114.121272 
L 462.292633 -113.319459 
L 461.91245 -112.517645 
L 460.873915 -111.715832 
L 460.199265 -110.914018 
L 459.723108 -110.112205 
L 458.815256 -109.310392 
L 458.302337 -108.508578 
L 457.555561 -107.706765 
L 456.158 -106.904951 
L 455.085679 -106.103138 
L 455.059802 -105.301324 
L 454.822013 -104.499511 
L 454.467916 -103.697698 
L 454.445548 -102.895884 
L 454.354148 -102.094071 
L 453.157865 -101.292257 
L 453.11174 -100.490444 
L 452.727473 -99.68863 
L 451.961511 -98.886817 
L 451.729782 -98.085004 
L 450.852331 -97.28319 
L 448.478999 -96.481377 
L 447.957781 -95.679563 
L 446.874436 -94.87775 
L 446.80734 -94.075936 
L 446.49748 -93.274123 
L 446.088614 -92.47231 
L 445.261839 -91.670496 
L 445.063668 -90.868683 
L 444.831235 -90.066869 
L 444.047984 -89.265056 
L 443.326176 -88.463242 
L 442.750364 -87.661429 
L 441.997673 -86.859616 
L 441.971078 -86.057802 
L 441.178928 -85.255989 
L 439.299601 -84.454175 
L 437.742219 -83.652362 
L 437.067697 -82.850548 
L 436.819249 -82.048735 
L 434.500063 -81.246922 
L 433.190529 -80.445108 
L 433.037969 -79.643295 
L 426.509748 -78.841481 
L 426.252129 -78.039668 
L 423.763498 -77.237854 
L 423.262136 -76.436041 
L 420.409895 -75.634228 
L 416.295787 -74.832414 
L 413.461503 -74.030601 
L 413.158147 -73.228787 
L 412.81103 -72.426974 
L 411.502089 -71.62516 
L 409.927303 -70.823347 
L 408.297438 -70.021533 
L 407.659397 -69.21972 
L 407.275927 -68.417907 
L 406.112361 -67.616093 
L 402.439799 -66.81428 
L 397.348829 -66.012466 
L 392.321906 -65.210653 
L 391.805197 -64.408839 
L 387.481868 -63.607026 
L 385.263168 -62.805213 
L 384.720606 -62.003399 
L 382.60747 -61.201586 
L 382.302523 -60.399772 
L 377.99922 -59.597959 
L 368.942228 -58.796145 
L 359.73721 -57.994332 
L 355.667565 -57.192519 
L 353.687949 -56.390705 
L 352.280719 -55.588892 
L 350.811341 -54.787078 
L 340.483069 -53.985265 
L 334.863232 -53.183451 
L 332.920464 -52.381638 
L 325.492923 -51.579825 
L 314.616266 -50.778011 
L 265.773689 -49.976198 
L 254.73282 -49.174384 
z
" style="stroke: #000000; stroke-opacity: 0.7"/>
    </defs>
    <g clip-path="url(#p4834a7e860)">
     <use xlink:href="#m56e61643b1" x="0" y="720" style="fill-opacity: 0.7; stroke: #000000; stroke-opacity: 0.7"/>
    </g>
   </g>
   <g id="PolyCollection_2">
    <defs>
     <path id="mf2a9323b53" d="M 398.950368 -167.040959 
L 363.773678 -167.040959 
L 363.773678 -167.842772 
L 363.773678 -168.644585 
L 363.773678 -169.446399 
L 468.482273 -169.446399 
L 468.482273 -169.446399 
L 427.34465 -168.644585 
L 425.38981 -167.842772 
L 398.950368 -167.040959 
z
" style="stroke: #7d008e; stroke-opacity: 0.7"/>
    </defs>
    <g clip-path="url(#p4834a7e860)">
     <use xlink:href="#mf2a9323b53" x="0" y="720" style="fill: #7d008e; fill-opacity: 0.7; stroke: #7d008e; stroke-opacity: 0.7"/>
    </g>
   </g>
   <g id="PolyCollection_3">
    <defs>
     <path id="m80589ad6b1" d="M 431.317274 -178.266347 
L 363.773678 -178.266347 
L 363.773678 -179.06816 
L 440.91665 -179.06816 
L 440.91665 -179.06816 
L 431.317274 -178.266347 
z
" style="stroke: #2d00a4; stroke-opacity: 0.7"/>
    </defs>
    <g clip-path="url(#p4834a7e860)">
     <use xlink:href="#m80589ad6b1" x="0" y="720" style="fill: #2d00a4; fill-opacity: 0.7; stroke: #2d00a4; stroke-opacity: 0.7"/>
    </g>
   </g>
   <g id="PolyCollection_4">
    <defs>
     <path id="m29ce247db1" d="M 430.24819 -187.888108 
L 363.773678 -187.888108 
L 363.773678 -188.689921 
L 363.773678 -189.491735 
L 363.773678 -190.293548 
L 487.423501 -190.293548 
L 487.423501 -190.293548 
L 472.286883 -189.491735 
L 462.015436 -188.689921 
L 430.24819 -187.888108 
z
" style="stroke: #0000dd; stroke-opacity: 0.7"/>
    </defs>
    <g clip-path="url(#p4834a7e860)">
     <use xlink:href="#m29ce247db1" x="0" y="720" style="fill: #0000dd; fill-opacity: 0.7; stroke: #0000dd; stroke-opacity: 0.7"/>
    </g>
   </g>
   <g id="PolyCollection_5">
    <defs>
     <path id="mbd86cdf1b6" d="M 323.583554 -199.113496 
L 363.773678 -199.113496 
L 363.773678 -199.915309 
L 363.773678 -200.717123 
L 363.773678 -201.518936 
L 363.773678 -202.320749 
L 363.773678 -203.122563 
L 363.773678 -203.924376 
L 363.773678 -204.72619 
L 363.773678 -205.528003 
L 363.773678 -206.329817 
L 363.773678 -207.13163 
L 363.773678 -207.933444 
L 363.773678 -208.735257 
L 363.773678 -209.53707 
L 363.773678 -210.338884 
L 363.773678 -211.140697 
L 363.773678 -211.942511 
L 363.773678 -212.744324 
L 363.773678 -213.546138 
L 475.936878 -213.546138 
L 475.936878 -213.546138 
L 466.250231 -212.744324 
L 454.558131 -211.942511 
L 452.110077 -211.140697 
L 447.325315 -210.338884 
L 439.871328 -209.53707 
L 432.545439 -208.735257 
L 428.720028 -207.933444 
L 425.612471 -207.13163 
L 421.572221 -206.329817 
L 412.760485 -205.528003 
L 412.303154 -204.72619 
L 412.244631 -203.924376 
L 403.238917 -203.122563 
L 402.381904 -202.320749 
L 397.390866 -201.518936 
L 393.164294 -200.717123 
L 324.999384 -199.915309 
L 323.583554 -199.113496 
z
" style="stroke: #0082dd; stroke-opacity: 0.7"/>
    </defs>
    <g clip-path="url(#p4834a7e860)">
     <use xlink:href="#mbd86cdf1b6" x="0" y="720" style="fill: #0082dd; fill-opacity: 0.7; stroke: #0082dd; stroke-opacity: 0.7"/>
    </g>
   </g>
   <g id="PolyCollection_6">
    <defs>
     <path id="m10edb9324c" d="M 640.999305 -222.366085 
L 363.773678 -222.366085 
L 363.773678 -223.167899 
L 363.773678 -223.969712 
L 363.773678 -224.771526 
L 363.773678 -225.573339 
L 363.773678 -226.375152 
L 363.773678 -227.176966 
L 363.773678 -227.978779 
L 363.773678 -228.780593 
L 363.773678 -229.582406 
L 363.773678 -230.38422 
L 363.773678 -231.186033 
L 363.773678 -231.987846 
L 363.773678 -232.78966 
L 363.773678 -233.591473 
L 363.773678 -234.393287 
L 363.773678 -235.1951 
L 363.773678 -235.996914 
L 363.773678 -236.798727 
L 363.773678 -237.60054 
L 363.773678 -238.402354 
L 363.773678 -239.204167 
L 363.773678 -240.005981 
L 363.773678 -240.807794 
L 363.773678 -241.609608 
L 363.773678 -242.411421 
L 363.773678 -243.213234 
L 363.773678 -244.015048 
L 363.773678 -244.816861 
L 363.773678 -245.618675 
L 363.773678 -246.420488 
L 363.773678 -247.222302 
L 363.773678 -248.024115 
L 363.773678 -248.825928 
L 363.773678 -249.627742 
L 363.773678 -250.429555 
L 363.773678 -251.231369 
L 363.773678 -252.033182 
L 363.773678 -252.834996 
L 363.773678 -253.636809 
L 363.773678 -254.438622 
L 363.773678 -255.240436 
L 363.773678 -256.042249 
L 363.773678 -256.844063 
L 363.773678 -257.645876 
L 363.773678 -258.44769 
L 363.773678 -259.249503 
L 363.773678 -260.051316 
L 363.773678 -260.85313 
L 363.773678 -261.654943 
L 363.773678 -262.456757 
L 363.773678 -263.25857 
L 363.773678 -264.060384 
L 363.773678 -264.862197 
L 363.773678 -265.66401 
L 363.773678 -266.465824 
L 363.773678 -267.267637 
L 363.773678 -268.069451 
L 363.773678 -268.871264 
L 363.773678 -269.673078 
L 363.773678 -270.474891 
L 363.773678 -271.276705 
L 363.773678 -272.078518 
L 363.773678 -272.880331 
L 363.773678 -273.682145 
L 363.773678 -274.483958 
L 363.773678 -275.285772 
L 363.773678 -276.087585 
L 363.773678 -276.889399 
L 363.773678 -277.691212 
L 363.773678 -278.493025 
L 363.773678 -279.294839 
L 363.773678 -280.096652 
L 363.773678 -280.898466 
L 363.773678 -281.700279 
L 363.773678 -282.502093 
L 363.773678 -283.303906 
L 363.773678 -284.105719 
L 363.773678 -284.907533 
L 363.773678 -285.709346 
L 363.773678 -286.51116 
L 363.773678 -287.312973 
L 363.773678 -288.114787 
L 363.773678 -288.9166 
L 363.773678 -289.718413 
L 363.773678 -290.520227 
L 363.773678 -291.32204 
L 363.773678 -292.123854 
L 363.773678 -292.925667 
L 363.773678 -293.727481 
L 363.773678 -294.529294 
L 363.773678 -295.331107 
L 363.773678 -296.132921 
L 363.773678 -296.934734 
L 363.773678 -297.736548 
L 363.773678 -298.538361 
L 363.773678 -299.340175 
L 363.773678 -300.141988 
L 363.773678 -300.943801 
L 363.773678 -301.745615 
L 363.773678 -302.547428 
L 363.773678 -303.349242 
L 363.773678 -304.151055 
L 363.773678 -304.952869 
L 363.773678 -305.754682 
L 363.773678 -306.556495 
L 363.773678 -307.358309 
L 363.773678 -308.160122 
L 363.773678 -308.961936 
L 363.773678 -309.763749 
L 363.773678 -310.565563 
L 363.773678 -311.367376 
L 363.773678 -312.169189 
L 363.773678 -312.971003 
L 363.773678 -313.772816 
L 363.773678 -314.57463 
L 363.773678 -315.376443 
L 363.773678 -316.178257 
L 363.773678 -316.98007 
L 363.773678 -317.781883 
L 363.773678 -318.583697 
L 363.773678 -319.38551 
L 363.773678 -320.187324 
L 363.773678 -320.989137 
L 363.773678 -321.790951 
L 363.773678 -322.592764 
L 363.773678 -323.394577 
L 363.773678 -324.196391 
L 363.773678 -324.998204 
L 363.773678 -325.800018 
L 363.773678 -326.601831 
L 363.773678 -327.403645 
L 363.773678 -328.205458 
L 363.773678 -329.007271 
L 363.773678 -329.809085 
L 363.773678 -330.610898 
L 363.773678 -331.412712 
L 363.773678 -332.214525 
L 363.773678 -333.016339 
L 363.773678 -333.818152 
L 363.773678 -334.619966 
L 363.773678 -335.421779 
L 363.773678 -336.223592 
L 363.773678 -337.025406 
L 363.773678 -337.827219 
L 363.773678 -338.629033 
L 363.773678 -339.430846 
L 363.773678 -340.23266 
L 363.773678 -341.034473 
L 363.773678 -341.836286 
L 363.773678 -342.6381 
L 363.773678 -343.439913 
L 363.773678 -344.241727 
L 363.773678 -345.04354 
L 363.773678 -345.845354 
L 363.773678 -346.647167 
L 363.773678 -347.44898 
L 363.773678 -348.250794 
L 363.773678 -349.052607 
L 363.773678 -349.854421 
L 363.773678 -350.656234 
L 363.773678 -351.458048 
L 363.773678 -352.259861 
L 363.773678 -353.061674 
L 363.773678 -353.863488 
L 363.773678 -354.665301 
L 363.773678 -355.467115 
L 363.773678 -356.268928 
L 363.773678 -357.070742 
L 363.773678 -357.872555 
L 363.773678 -358.674368 
L 363.773678 -359.476182 
L 363.773678 -360.277995 
L 363.773678 -361.079809 
L 363.773678 -361.881622 
L 363.773678 -362.683436 
L 363.773678 -363.485249 
L 363.773678 -364.287062 
L 363.773678 -365.088876 
L 363.773678 -365.890689 
L 363.773678 -366.692503 
L 363.773678 -367.494316 
L 363.773678 -368.29613 
L 363.773678 -369.097943 
L 363.773678 -369.899756 
L 363.773678 -370.70157 
L 363.773678 -371.503383 
L 363.773678 -372.305197 
L 363.773678 -373.10701 
L 363.773678 -373.908824 
L 363.773678 -374.710637 
L 363.773678 -375.51245 
L 363.773678 -376.314264 
L 363.773678 -377.116077 
L 363.773678 -377.917891 
L 363.773678 -378.719704 
L 363.773678 -379.521518 
L 363.773678 -380.323331 
L 363.773678 -381.125144 
L 363.773678 -381.926958 
L 363.773678 -382.728771 
L 363.773678 -383.530585 
L 363.773678 -384.332398 
L 363.773678 -385.134212 
L 363.773678 -385.936025 
L 363.773678 -386.737838 
L 363.773678 -387.539652 
L 363.773678 -388.341465 
L 363.773678 -389.143279 
L 363.773678 -389.945092 
L 363.773678 -390.746906 
L 363.773678 -391.548719 
L 363.773678 -392.350532 
L 363.773678 -393.152346 
L 363.773678 -393.954159 
L 363.773678 -394.755973 
L 363.773678 -395.557786 
L 363.773678 -396.3596 
L 363.773678 -397.161413 
L 363.773678 -397.963226 
L 363.773678 -398.76504 
L 363.773678 -399.566853 
L 363.773678 -400.368667 
L 363.773678 -401.17048 
L 363.773678 -401.972294 
L 363.773678 -402.774107 
L 363.773678 -403.575921 
L 363.773678 -404.377734 
L 363.773678 -405.179547 
L 363.773678 -405.981361 
L 363.773678 -406.783174 
L 363.773678 -407.584988 
L 363.773678 -408.386801 
L 363.773678 -409.188615 
L 363.773678 -409.990428 
L 363.773678 -410.792241 
L 363.773678 -411.594055 
L 363.773678 -412.395868 
L 363.773678 -413.197682 
L 363.773678 -413.999495 
L 363.773678 -414.801309 
L 363.773678 -415.603122 
L 363.773678 -416.404935 
L 363.773678 -417.206749 
L 363.773678 -418.008562 
L 363.773678 -418.810376 
L 363.773678 -419.612189 
L 363.773678 -420.414003 
L 363.773678 -421.215816 
L 363.773678 -422.017629 
L 363.773678 -422.819443 
L 363.773678 -423.621256 
L 363.773678 -424.42307 
L 363.773678 -425.224883 
L 363.773678 -426.026697 
L 363.773678 -426.82851 
L 363.773678 -427.630323 
L 363.773678 -428.432137 
L 363.773678 -429.23395 
L 363.773678 -430.035764 
L 363.773678 -430.837577 
L 363.773678 -431.639391 
L 363.773678 -432.441204 
L 363.773678 -433.243017 
L 363.773678 -434.044831 
L 363.773678 -434.846644 
L 363.773678 -435.648458 
L 363.773678 -436.450271 
L 363.773678 -437.252085 
L 363.773678 -438.053898 
L 363.773678 -438.855711 
L 363.773678 -439.657525 
L 363.773678 -440.459338 
L 363.773678 -441.261152 
L 363.773678 -442.062965 
L 363.773678 -442.864779 
L 363.773678 -443.666592 
L 363.773678 -444.468405 
L 363.773678 -445.270219 
L 363.773678 -446.072032 
L 363.773678 -446.873846 
L 363.773678 -447.675659 
L 363.773678 -448.477473 
L 363.773678 -449.279286 
L 363.773678 -450.081099 
L 363.773678 -450.882913 
L 363.773678 -451.684726 
L 363.773678 -452.48654 
L 363.773678 -453.288353 
L 363.773678 -454.090167 
L 363.773678 -454.89198 
L 363.773678 -455.693793 
L 363.773678 -456.495607 
L 363.773678 -457.29742 
L 363.773678 -458.099234 
L 363.773678 -458.901047 
L 363.773678 -459.702861 
L 363.773678 -460.504674 
L 363.773678 -461.306487 
L 363.773678 -462.108301 
L 363.773678 -462.910114 
L 363.773678 -463.711928 
L 363.773678 -464.513741 
L 363.773678 -465.315555 
L 363.773678 -466.117368 
L 363.773678 -466.919182 
L 363.773678 -467.720995 
L 363.773678 -468.522808 
L 363.773678 -469.324622 
L 363.773678 -470.126435 
L 363.773678 -470.928249 
L 363.773678 -471.730062 
L 363.773678 -472.531876 
L 363.773678 -473.333689 
L 363.773678 -474.135502 
L 363.773678 -474.937316 
L 363.773678 -475.739129 
L 363.773678 -476.540943 
L 363.773678 -477.342756 
L 363.773678 -478.14457 
L 363.773678 -478.946383 
L 363.773678 -479.748196 
L 363.773678 -480.55001 
L 363.773678 -481.351823 
L 363.773678 -482.153637 
L 363.773678 -482.95545 
L 363.773678 -483.757264 
L 363.773678 -484.559077 
L 363.773678 -485.36089 
L 363.773678 -486.162704 
L 363.773678 -486.964517 
L 363.773678 -487.766331 
L 363.773678 -488.568144 
L 363.773678 -489.369958 
L 363.773678 -490.171771 
L 363.773678 -490.973584 
L 363.773678 -491.775398 
L 363.773678 -492.577211 
L 363.773678 -493.379025 
L 363.773678 -494.180838 
L 363.773678 -494.982652 
L 363.773678 -495.784465 
L 363.773678 -496.586278 
L 363.773678 -497.388092 
L 363.773678 -498.189905 
L 363.773678 -498.991719 
L 363.773678 -499.793532 
L 363.773678 -500.595346 
L 363.773678 -501.397159 
L 363.773678 -502.198972 
L 363.773678 -503.000786 
L 363.773678 -503.802599 
L 363.773678 -504.604413 
L 363.773678 -505.406226 
L 363.773678 -506.20804 
L 363.773678 -507.009853 
L 363.773678 -507.811666 
L 363.773678 -508.61348 
L 363.773678 -509.415293 
L 363.773678 -510.217107 
L 363.773678 -511.01892 
L 363.773678 -511.820734 
L 363.773678 -512.622547 
L 363.773678 -513.42436 
L 363.773678 -514.226174 
L 363.773678 -515.027987 
L 363.773678 -515.829801 
L 363.773678 -516.631614 
L 363.773678 -517.433428 
L 363.773678 -518.235241 
L 363.773678 -519.037054 
L 363.773678 -519.838868 
L 363.773678 -520.640681 
L 363.773678 -521.442495 
L 363.773678 -522.244308 
L 363.773678 -523.046122 
L 363.773678 -523.847935 
L 363.773678 -524.649748 
L 363.773678 -525.451562 
L 363.773678 -526.253375 
L 363.773678 -527.055189 
L 363.773678 -527.857002 
L 363.773678 -528.658816 
L 363.773678 -529.460629 
L 363.773678 -530.262443 
L 363.773678 -531.064256 
L 363.773678 -531.866069 
L 363.773678 -532.667883 
L 363.773678 -533.469696 
L 363.773678 -534.27151 
L 363.773678 -535.073323 
L 363.773678 -535.875137 
L 363.773678 -536.67695 
L 363.773678 -537.478763 
L 363.773678 -538.280577 
L 363.773678 -539.08239 
L 363.773678 -539.884204 
L 363.773678 -540.686017 
L 363.773678 -541.487831 
L 363.773678 -542.289644 
L 363.773678 -543.091457 
L 363.773678 -543.893271 
L 363.773678 -544.695084 
L 363.773678 -545.496898 
L 363.773678 -546.298711 
L 363.773678 -547.100525 
L 363.773678 -547.902338 
L 363.773678 -548.704151 
L 363.773678 -549.505965 
L 363.773678 -550.307778 
L 363.773678 -551.109592 
L 363.773678 -551.911405 
L 363.773678 -552.713219 
L 363.773678 -553.515032 
L 363.773678 -554.316845 
L 363.773678 -555.118659 
L 363.773678 -555.920472 
L 363.773678 -556.722286 
L 363.773678 -557.524099 
L 363.773678 -558.325913 
L 363.773678 -559.127726 
L 363.773678 -559.929539 
L 363.773678 -560.731353 
L 363.773678 -561.533166 
L 363.773678 -562.33498 
L 363.773678 -563.136793 
L 363.773678 -563.938607 
L 363.773678 -564.74042 
L 363.773678 -565.542233 
L 363.773678 -566.344047 
L 363.773678 -567.14586 
L 363.773678 -567.947674 
L 363.773678 -568.749487 
L 363.773678 -569.551301 
L 363.773678 -570.353114 
L 363.773678 -571.154927 
L 363.773678 -571.956741 
L 363.773678 -572.758554 
L 363.773678 -573.560368 
L 363.773678 -574.362181 
L 363.773678 -575.163995 
L 363.773678 -575.965808 
L 363.773678 -576.767621 
L 363.773678 -577.569435 
L 363.773678 -578.371248 
L 363.773678 -579.173062 
L 363.773678 -579.974875 
L 363.773678 -580.776689 
L 363.773678 -581.578502 
L 363.773678 -582.380315 
L 363.773678 -583.182129 
L 363.773678 -583.983942 
L 363.773678 -584.785756 
L 363.773678 -585.587569 
L 363.773678 -586.389383 
L 363.773678 -587.191196 
L 363.773678 -587.993009 
L 363.773678 -588.794823 
L 363.773678 -589.596636 
L 363.773678 -590.39845 
L 363.773678 -591.200263 
L 363.773678 -592.002077 
L 363.773678 -592.80389 
L 363.773678 -593.605704 
L 363.773678 -594.407517 
L 363.773678 -595.20933 
L 363.773678 -596.011144 
L 363.773678 -596.812957 
L 363.773678 -597.614771 
L 363.773678 -598.416584 
L 363.773678 -599.218398 
L 687.247111 -599.218398 
L 687.247111 -599.218398 
L 687.17736 -598.416584 
L 686.788731 -597.614771 
L 686.764733 -596.812957 
L 686.653792 -596.011144 
L 686.586761 -595.20933 
L 686.577993 -594.407517 
L 686.552411 -593.605704 
L 686.519246 -592.80389 
L 686.385443 -592.002077 
L 686.25773 -591.200263 
L 686.042591 -590.39845 
L 686.028528 -589.596636 
L 685.983562 -588.794823 
L 685.963463 -587.993009 
L 685.956175 -587.191196 
L 685.879465 -586.389383 
L 685.844175 -585.587569 
L 685.839537 -584.785756 
L 685.783294 -583.983942 
L 685.772793 -583.182129 
L 685.769821 -582.380315 
L 685.683504 -581.578502 
L 685.650784 -580.776689 
L 685.612304 -579.974875 
L 685.599538 -579.173062 
L 685.570478 -578.371248 
L 685.539172 -577.569435 
L 685.50277 -576.767621 
L 685.496649 -575.965808 
L 685.470805 -575.163995 
L 685.444335 -574.362181 
L 685.419241 -573.560368 
L 685.371719 -572.758554 
L 685.360861 -571.956741 
L 685.340514 -571.154927 
L 685.309106 -570.353114 
L 685.271554 -569.551301 
L 685.270723 -568.749487 
L 685.244342 -567.947674 
L 685.233983 -567.14586 
L 685.118722 -566.344047 
L 685.113092 -565.542233 
L 685.095362 -564.74042 
L 685.084742 -563.938607 
L 685.076514 -563.136793 
L 685.073322 -562.33498 
L 685.051547 -561.533166 
L 685.044784 -560.731353 
L 685.033171 -559.929539 
L 684.981694 -559.127726 
L 684.971248 -558.325913 
L 684.948606 -557.524099 
L 684.933944 -556.722286 
L 684.909085 -555.920472 
L 684.904107 -555.118659 
L 684.902031 -554.316845 
L 684.879456 -553.515032 
L 684.84942 -552.713219 
L 684.847884 -551.911405 
L 684.837274 -551.109592 
L 684.817666 -550.307778 
L 684.810465 -549.505965 
L 684.800359 -548.704151 
L 684.795792 -547.902338 
L 684.755985 -547.100525 
L 684.739147 -546.298711 
L 684.71809 -545.496898 
L 684.717739 -544.695084 
L 684.687757 -543.893271 
L 684.6786 -543.091457 
L 684.66872 -542.289644 
L 684.652377 -541.487831 
L 684.651774 -540.686017 
L 684.642677 -539.884204 
L 684.632764 -539.08239 
L 684.581893 -538.280577 
L 684.54807 -537.478763 
L 684.528183 -536.67695 
L 684.521254 -535.875137 
L 684.52017 -535.073323 
L 684.516287 -534.27151 
L 684.504903 -533.469696 
L 684.495015 -532.667883 
L 684.4788 -531.866069 
L 684.468186 -531.064256 
L 684.46493 -530.262443 
L 684.460932 -529.460629 
L 684.442409 -528.658816 
L 684.438632 -527.857002 
L 684.43164 -527.055189 
L 684.431107 -526.253375 
L 684.427053 -525.451562 
L 684.423568 -524.649748 
L 684.403326 -523.847935 
L 684.3578 -523.046122 
L 684.349377 -522.244308 
L 684.337832 -521.442495 
L 684.337632 -520.640681 
L 684.331756 -519.838868 
L 684.321444 -519.037054 
L 684.310532 -518.235241 
L 684.297457 -517.433428 
L 684.251359 -516.631614 
L 684.230672 -515.829801 
L 684.21672 -515.027987 
L 684.196382 -514.226174 
L 684.157504 -513.42436 
L 684.118258 -512.622547 
L 684.112321 -511.820734 
L 684.099676 -511.01892 
L 684.08922 -510.217107 
L 684.060333 -509.415293 
L 684.004584 -508.61348 
L 683.947217 -507.811666 
L 683.941611 -507.009853 
L 683.910625 -506.20804 
L 683.892959 -505.406226 
L 683.843074 -504.604413 
L 683.803412 -503.802599 
L 683.803193 -503.000786 
L 683.793333 -502.198972 
L 683.785312 -501.397159 
L 683.767572 -500.595346 
L 683.731457 -499.793532 
L 683.701593 -498.991719 
L 683.699614 -498.189905 
L 683.688867 -497.388092 
L 683.672306 -496.586278 
L 683.670015 -495.784465 
L 683.667076 -494.982652 
L 683.655236 -494.180838 
L 683.629689 -493.379025 
L 683.599524 -492.577211 
L 683.569631 -491.775398 
L 683.569437 -490.973584 
L 683.557169 -490.171771 
L 683.521139 -489.369958 
L 683.516988 -488.568144 
L 683.488527 -487.766331 
L 683.487602 -486.964517 
L 683.482149 -486.162704 
L 683.440389 -485.36089 
L 683.409349 -484.559077 
L 683.404688 -483.757264 
L 683.36822 -482.95545 
L 683.344044 -482.153637 
L 683.320936 -481.351823 
L 683.288754 -480.55001 
L 683.261735 -479.748196 
L 683.258726 -478.946383 
L 683.237861 -478.14457 
L 683.19371 -477.342756 
L 683.187707 -476.540943 
L 683.180152 -475.739129 
L 683.171932 -474.937316 
L 683.150274 -474.135502 
L 683.137997 -473.333689 
L 683.103611 -472.531876 
L 683.069874 -471.730062 
L 683.060969 -470.928249 
L 683.019418 -470.126435 
L 683.011766 -469.324622 
L 682.998986 -468.522808 
L 682.992049 -467.720995 
L 682.940595 -466.919182 
L 682.934538 -466.117368 
L 682.912129 -465.315555 
L 682.897998 -464.513741 
L 682.894271 -463.711928 
L 682.850867 -462.910114 
L 682.836307 -462.108301 
L 682.791524 -461.306487 
L 682.777622 -460.504674 
L 682.772936 -459.702861 
L 682.658089 -458.901047 
L 682.656692 -458.099234 
L 682.509028 -457.29742 
L 682.500457 -456.495607 
L 682.474467 -455.693793 
L 682.413229 -454.89198 
L 682.404184 -454.090167 
L 682.378225 -453.288353 
L 682.366078 -452.48654 
L 682.316738 -451.684726 
L 682.30446 -450.882913 
L 682.261508 -450.081099 
L 682.213898 -449.279286 
L 682.210319 -448.477473 
L 682.207298 -447.675659 
L 682.206159 -446.873846 
L 682.200547 -446.072032 
L 682.193086 -445.270219 
L 682.134557 -444.468405 
L 682.116213 -443.666592 
L 682.088739 -442.864779 
L 682.048046 -442.062965 
L 682.003675 -441.261152 
L 681.989074 -440.459338 
L 681.980327 -439.657525 
L 681.978801 -438.855711 
L 681.962906 -438.053898 
L 681.937935 -437.252085 
L 681.927651 -436.450271 
L 681.927191 -435.648458 
L 681.910709 -434.846644 
L 681.903866 -434.044831 
L 681.87422 -433.243017 
L 681.858978 -432.441204 
L 681.823517 -431.639391 
L 681.802368 -430.837577 
L 681.796739 -430.035764 
L 681.794555 -429.23395 
L 681.755206 -428.432137 
L 681.75457 -427.630323 
L 681.684298 -426.82851 
L 681.67573 -426.026697 
L 681.665017 -425.224883 
L 681.634515 -424.42307 
L 681.602322 -423.621256 
L 681.571176 -422.819443 
L 681.570289 -422.017629 
L 681.566062 -421.215816 
L 681.544425 -420.414003 
L 681.543404 -419.612189 
L 681.463531 -418.810376 
L 681.44988 -418.008562 
L 681.445845 -417.206749 
L 681.411943 -416.404935 
L 681.387088 -415.603122 
L 681.371439 -414.801309 
L 681.31215 -413.999495 
L 681.278913 -413.197682 
L 681.275773 -412.395868 
L 681.269953 -411.594055 
L 681.258216 -410.792241 
L 681.232971 -409.990428 
L 681.112258 -409.188615 
L 681.043193 -408.386801 
L 681.026268 -407.584988 
L 681.024676 -406.783174 
L 680.940154 -405.981361 
L 680.929357 -405.179547 
L 680.876494 -404.377734 
L 680.863467 -403.575921 
L 680.861433 -402.774107 
L 680.861239 -401.972294 
L 680.832834 -401.17048 
L 680.772608 -400.368667 
L 680.699101 -399.566853 
L 680.669917 -398.76504 
L 680.666142 -397.963226 
L 680.659607 -397.161413 
L 680.653122 -396.3596 
L 680.384515 -395.557786 
L 680.360798 -394.755973 
L 680.250678 -393.954159 
L 680.232417 -393.152346 
L 680.182019 -392.350532 
L 680.172618 -391.548719 
L 680.140559 -390.746906 
L 680.102752 -389.945092 
L 680.060221 -389.143279 
L 679.98189 -388.341465 
L 679.972374 -387.539652 
L 679.972146 -386.737838 
L 679.952186 -385.936025 
L 679.871614 -385.134212 
L 679.822497 -384.332398 
L 679.781991 -383.530585 
L 679.768012 -382.728771 
L 679.726858 -381.926958 
L 679.702936 -381.125144 
L 679.697461 -380.323331 
L 679.665673 -379.521518 
L 679.638507 -378.719704 
L 679.636158 -377.917891 
L 679.635571 -377.116077 
L 679.633027 -376.314264 
L 679.592627 -375.51245 
L 679.578279 -374.710637 
L 679.525621 -373.908824 
L 679.485319 -373.10701 
L 679.470025 -372.305197 
L 679.466195 -371.503383 
L 679.426874 -370.70157 
L 679.411417 -369.899756 
L 679.386612 -369.097943 
L 679.381047 -368.29613 
L 679.365235 -367.494316 
L 679.326707 -366.692503 
L 679.314114 -365.890689 
L 679.306486 -365.088876 
L 679.300604 -364.287062 
L 679.291637 -363.485249 
L 679.281994 -362.683436 
L 679.275441 -361.881622 
L 679.266566 -361.079809 
L 679.218514 -360.277995 
L 679.176689 -359.476182 
L 679.142246 -358.674368 
L 679.112362 -357.872555 
L 679.069357 -357.070742 
L 679.066015 -356.268928 
L 679.059605 -355.467115 
L 679.010238 -354.665301 
L 679.00745 -353.863488 
L 678.992094 -353.061674 
L 678.968535 -352.259861 
L 678.928973 -351.458048 
L 678.865653 -350.656234 
L 678.827829 -349.854421 
L 678.759808 -349.052607 
L 678.727021 -348.250794 
L 678.682372 -347.44898 
L 678.676311 -346.647167 
L 678.667467 -345.845354 
L 678.655586 -345.04354 
L 678.633095 -344.241727 
L 678.584983 -343.439913 
L 678.561613 -342.6381 
L 678.536684 -341.836286 
L 678.526167 -341.034473 
L 678.51566 -340.23266 
L 678.487156 -339.430846 
L 678.429421 -338.629033 
L 678.36437 -337.827219 
L 678.244875 -337.025406 
L 678.051817 -336.223592 
L 678.051552 -335.421779 
L 678.031343 -334.619966 
L 677.91679 -333.818152 
L 677.824087 -333.016339 
L 677.771957 -332.214525 
L 677.76276 -331.412712 
L 677.762744 -330.610898 
L 677.743458 -329.809085 
L 677.741157 -329.007271 
L 677.734338 -328.205458 
L 677.629241 -327.403645 
L 677.50874 -326.601831 
L 677.506855 -325.800018 
L 677.497715 -324.998204 
L 677.452414 -324.196391 
L 677.437212 -323.394577 
L 677.399249 -322.592764 
L 677.334003 -321.790951 
L 677.330825 -320.989137 
L 677.299411 -320.187324 
L 677.27951 -319.38551 
L 677.257963 -318.583697 
L 677.220044 -317.781883 
L 677.215287 -316.98007 
L 677.208689 -316.178257 
L 677.107652 -315.376443 
L 677.084265 -314.57463 
L 677.084086 -313.772816 
L 677.046209 -312.971003 
L 677.033226 -312.169189 
L 677.011122 -311.367376 
L 677.007646 -310.565563 
L 676.908606 -309.763749 
L 676.8535 -308.961936 
L 676.821235 -308.160122 
L 676.411167 -307.358309 
L 676.401684 -306.556495 
L 676.268134 -305.754682 
L 676.239364 -304.952869 
L 676.180396 -304.151055 
L 676.155506 -303.349242 
L 676.119789 -302.547428 
L 676.115127 -301.745615 
L 676.02328 -300.943801 
L 675.991549 -300.141988 
L 675.979364 -299.340175 
L 675.880667 -298.538361 
L 675.797156 -297.736548 
L 675.756737 -296.934734 
L 675.70801 -296.132921 
L 675.705216 -295.331107 
L 675.531972 -294.529294 
L 675.500586 -293.727481 
L 675.456429 -292.925667 
L 675.443304 -292.123854 
L 675.399934 -291.32204 
L 675.350503 -290.520227 
L 675.256421 -289.718413 
L 675.019256 -288.9166 
L 674.930798 -288.114787 
L 674.773321 -287.312973 
L 674.711806 -286.51116 
L 674.631404 -285.709346 
L 674.556381 -284.907533 
L 674.534357 -284.105719 
L 674.07845 -283.303906 
L 673.892797 -282.502093 
L 673.85452 -281.700279 
L 673.814312 -280.898466 
L 673.64634 -280.096652 
L 673.330889 -279.294839 
L 673.292728 -278.493025 
L 673.235447 -277.691212 
L 673.03652 -276.889399 
L 673.000139 -276.087585 
L 672.814626 -275.285772 
L 672.330179 -274.483958 
L 672.309864 -273.682145 
L 672.230062 -272.880331 
L 672.130426 -272.078518 
L 672.10562 -271.276705 
L 672.102635 -270.474891 
L 671.993133 -269.673078 
L 671.966213 -268.871264 
L 671.900765 -268.069451 
L 671.860051 -267.267637 
L 671.803618 -266.465824 
L 671.729969 -265.66401 
L 671.375825 -264.862197 
L 671.337048 -264.060384 
L 671.105008 -263.25857 
L 671.014576 -262.456757 
L 670.904196 -261.654943 
L 670.776671 -260.85313 
L 670.570963 -260.051316 
L 670.447485 -259.249503 
L 670.443763 -258.44769 
L 670.347828 -257.645876 
L 670.335408 -256.844063 
L 670.126292 -256.042249 
L 670.070264 -255.240436 
L 670.040502 -254.438622 
L 669.701654 -253.636809 
L 669.519248 -252.834996 
L 669.471819 -252.033182 
L 669.313694 -251.231369 
L 668.929555 -250.429555 
L 668.899825 -249.627742 
L 668.859133 -248.825928 
L 668.485457 -248.024115 
L 668.398458 -247.222302 
L 667.443402 -246.420488 
L 666.996149 -245.618675 
L 666.421836 -244.816861 
L 666.303842 -244.015048 
L 666.210769 -243.213234 
L 666.180741 -242.411421 
L 665.938845 -241.609608 
L 665.463835 -240.807794 
L 665.194533 -240.005981 
L 664.713696 -239.204167 
L 664.652568 -238.402354 
L 664.467055 -237.60054 
L 663.898523 -236.798727 
L 663.547502 -235.996914 
L 663.327407 -235.1951 
L 663.227104 -234.393287 
L 663.170068 -233.591473 
L 662.73183 -232.78966 
L 660.910665 -231.987846 
L 660.417583 -231.186033 
L 659.399868 -230.38422 
L 657.857559 -229.582406 
L 657.268006 -228.780593 
L 655.986888 -227.978779 
L 654.900736 -227.176966 
L 654.327117 -226.375152 
L 654.219846 -225.573339 
L 650.971412 -224.771526 
L 650.837132 -223.969712 
L 648.974622 -223.167899 
L 640.999305 -222.366085 
z
" style="stroke: #00a4bb; stroke-opacity: 0.7"/>
    </defs>
    <g clip-path="url(#p4834a7e860)">
     <use xlink:href="#m10edb9324c" x="0" y="720" style="fill: #00a4bb; fill-opacity: 0.7; stroke: #00a4bb; stroke-opacity: 0.7"/>
    </g>
   </g>
   <g id="PolyCollection_7">
    <defs>
     <path id="mbf5ee19f6f" d="M 363.773678 -608.038345 
L 363.773678 -608.038345 
L 363.773678 -608.038345 
L 363.773678 -608.038345 
z
" style="stroke: #00aa88; stroke-opacity: 0.7"/>
    </defs>
    <g clip-path="url(#p4834a7e860)">
     <use xlink:href="#mbf5ee19f6f" x="0" y="720" style="fill: #00aa88; fill-opacity: 0.7; stroke: #00aa88; stroke-opacity: 0.7"/>
    </g>
   </g>
   <g id="PolyCollection_8">
    <defs>
     <path id="m193fd26206" d="M 374.356326 -616.858293 
L 363.773678 -616.858293 
L 363.773678 -617.660106 
L 363.773678 -618.46192 
L 363.773678 -619.263733 
L 463.11832 -619.263733 
L 463.11832 -619.263733 
L 456.848638 -618.46192 
L 428.762104 -617.660106 
L 374.356326 -616.858293 
z
" style="stroke: #00a400; stroke-opacity: 0.7"/>
    </defs>
    <g clip-path="url(#p4834a7e860)">
     <use xlink:href="#m193fd26206" x="0" y="720" style="fill: #00a400; fill-opacity: 0.7; stroke: #00a400; stroke-opacity: 0.7"/>
    </g>
   </g>
   <g id="PolyCollection_9">
    <defs>
     <path id="m6c984203de" d="M 365.667079 -628.083681 
L 363.773678 -628.083681 
L 363.773678 -628.885494 
L 363.773678 -629.687308 
L 363.773678 -630.489121 
L 363.773678 -631.290935 
L 363.773678 -632.092748 
L 363.773678 -632.894562 
L 363.773678 -633.696375 
L 363.773678 -634.498188 
L 363.773678 -635.300002 
L 363.773678 -636.101815 
L 457.418753 -636.101815 
L 457.418753 -636.101815 
L 452.687145 -635.300002 
L 437.214535 -634.498188 
L 435.405444 -633.696375 
L 432.991455 -632.894562 
L 424.64082 -632.092748 
L 422.134416 -631.290935 
L 421.853737 -630.489121 
L 417.466115 -629.687308 
L 370.316453 -628.885494 
L 365.667079 -628.083681 
z
" style="stroke: #00d200; stroke-opacity: 0.7"/>
    </defs>
    <g clip-path="url(#p4834a7e860)">
     <use xlink:href="#m6c984203de" x="0" y="720" style="fill: #00d200; fill-opacity: 0.7; stroke: #00d200; stroke-opacity: 0.7"/>
    </g>
   </g>
   <g id="PolyCollection_10">
    <defs>
     <path id="me966f574d1" d="M 363.773678 -644.921763 
L 363.773678 -644.921763 
L 363.773678 -644.921763 
L 363.773678 -644.921763 
z
" style="stroke: #00ff00; stroke-opacity: 0.7"/>
    </defs>
    <g clip-path="url(#p4834a7e860)">
     <use xlink:href="#me966f574d1" x="0" y="720" style="fill: #00ff00; fill-opacity: 0.7; stroke: #00ff00; stroke-opacity: 0.7"/>
    </g>
   </g>
   <g id="PolyCollection_11">
    <defs>
     <path id="m122d370e02" d="M 317.571399 -653.741711 
L 363.773678 -653.741711 
L 363.773678 -654.543524 
L 363.773678 -655.345338 
L 363.773678 -656.147151 
L 363.773678 -656.948964 
L 363.773678 -657.750778 
L 363.773678 -658.552591 
L 363.773678 -659.354405 
L 363.773678 -660.156218 
L 363.773678 -660.958032 
L 363.773678 -661.759845 
L 363.773678 -662.561659 
L 363.773678 -663.363472 
L 363.773678 -664.165285 
L 465.692512 -664.165285 
L 465.692512 -664.165285 
L 459.889412 -663.363472 
L 449.736601 -662.561659 
L 446.320254 -661.759845 
L 445.32383 -660.958032 
L 443.429454 -660.156218 
L 439.529904 -659.354405 
L 437.511163 -658.552591 
L 433.825556 -657.750778 
L 423.432327 -656.948964 
L 392.546487 -656.147151 
L 384.309503 -655.345338 
L 377.879407 -654.543524 
L 317.571399 -653.741711 
z
" style="stroke: #ccf900; stroke-opacity: 0.7"/>
    </defs>
    <g clip-path="url(#p4834a7e860)">
     <use xlink:href="#m122d370e02" x="0" y="720" style="fill: #ccf900; fill-opacity: 0.7; stroke: #ccf900; stroke-opacity: 0.7"/>
    </g>
   </g>
   <g id="PolyCollection_12">
    <defs>
     <path id="m595cb163a4" d="M 363.773678 -672.985233 
L 363.773678 -672.985233 
L 363.773678 -672.985233 
L 363.773678 -672.985233 
z
" style="stroke: #f9d700; stroke-opacity: 0.7"/>
    </defs>
    <g clip-path="url(#p4834a7e860)">
     <use xlink:href="#m595cb163a4" x="0" y="720" style="fill: #f9d700; fill-opacity: 0.7; stroke: #f9d700; stroke-opacity: 0.7"/>
    </g>
   </g>
   <g id="PolyCollection_13">
    <defs>
     <path id="m96bad24e62" d="M 363.773678 -681.805181 
L 363.773678 -681.805181 
L 363.773678 -681.805181 
L 363.773678 -681.805181 
z
" style="stroke: #ff9900; stroke-opacity: 0.7"/>
    </defs>
    <g clip-path="url(#p4834a7e860)">
     <use xlink:href="#m96bad24e62" x="0" y="720" style="fill: #ff9900; fill-opacity: 0.7; stroke: #ff9900; stroke-opacity: 0.7"/>
    </g>
   </g>
   <g id="PolyCollection_14">
    <defs>
     <path id="m13229b8d84" d="M 363.773678 -690.625129 
L 363.773678 -690.625129 
L 363.773678 -690.625129 
L 363.773678 -690.625129 
z
" style="stroke: #f40000; stroke-opacity: 0.7"/>
    </defs>
    <g clip-path="url(#p4834a7e860)">
     <use xlink:href="#m13229b8d84" x="0" y="720" style="fill: #f40000; fill-opacity: 0.7; stroke: #f40000; stroke-opacity: 0.7"/>
    </g>
   </g>
   <g id="PolyCollection_15">
    <defs>
     <path id="m96000466f8" d="M 363.773678 -699.445076 
L 363.773678 -699.445076 
L 363.773678 -699.445076 
L 363.773678 -699.445076 
z
" style="stroke: #d20000; stroke-opacity: 0.7"/>
    </defs>
    <g clip-path="url(#p4834a7e860)">
     <use xlink:href="#m96000466f8" x="0" y="720" style="fill: #d20000; fill-opacity: 0.7; stroke: #d20000; stroke-opacity: 0.7"/>
    </g>
   </g>
   <g id="matplotlib.axis_1">
    <g id="xtick_1">
     <g id="line2d_1">
      <defs>
       <path id="maf4f9db639" d="M 0 0 
L 0 3.5 
" style="stroke: #000000; stroke-width: 0.8"/>
      </defs>
      <g>
       <use xlink:href="#maf4f9db639" x="27.978125" y="678.84375" style="stroke: #000000; stroke-width: 0.8"/>
      </g>
     </g>
     <g id="text_1">
      <!-- −1.0 -->
      <g transform="translate(15.836719 693.442188) scale(0.1 -0.1)">
       <defs>
        <path id="DejaVuSans-2212" d="M 678 2272 
L 4684 2272 
L 4684 1741 
L 678 1741 
L 678 2272 
z
" transform="scale(0.015625)"/>
        <path id="DejaVuSans-31" d="M 794 531 
L 1825 531 
L 1825 4091 
L 703 3866 
L 703 4441 
L 1819 4666 
L 2450 4666 
L 2450 531 
L 3481 531 
L 3481 0 
L 794 0 
L 794 531 
z
" transform="scale(0.015625)"/>
        <path id="DejaVuSans-2e" d="M 684 794 
L 1344 794 
L 1344 0 
L 684 0 
L 684 794 
z
" transform="scale(0.015625)"/>
        <path id="DejaVuSans-30" d="M 2034 4250 
Q 1547 4250 1301 3770 
Q 1056 3291 1056 2328 
Q 1056 1369 1301 889 
Q 1547 409 2034 409 
Q 2525 409 2770 889 
Q 3016 1369 3016 2328 
Q 3016 3291 2770 3770 
Q 2525 4250 2034 4250 
z
M 2034 4750 
Q 2819 4750 3233 4129 
Q 3647 3509 3647 2328 
Q 3647 1150 3233 529 
Q 2819 -91 2034 -91 
Q 1250 -91 836 529 
Q 422 1150 422 2328 
Q 422 3509 836 4129 
Q 1250 4750 2034 4750 
z
" transform="scale(0.015625)"/>
       </defs>
       <use xlink:href="#DejaVuSans-2212"/>
       <use xlink:href="#DejaVuSans-31" x="83.789062"/>
       <use xlink:href="#DejaVuSans-2e" x="147.412109"/>
       <use xlink:href="#DejaVuSans-30" x="179.199219"/>
      </g>
     </g>
    </g>
    <g id="xtick_2">
     <g id="line2d_2">
      <g>
       <use xlink:href="#maf4f9db639" x="95.137236" y="678.84375" style="stroke: #000000; stroke-width: 0.8"/>
      </g>
     </g>
     <g id="text_2">
      <!-- −0.8 -->
      <g transform="translate(82.995829 693.442188) scale(0.1 -0.1)">
       <defs>
        <path id="DejaVuSans-38" d="M 2034 2216 
Q 1584 2216 1326 1975 
Q 1069 1734 1069 1313 
Q 1069 891 1326 650 
Q 1584 409 2034 409 
Q 2484 409 2743 651 
Q 3003 894 3003 1313 
Q 3003 1734 2745 1975 
Q 2488 2216 2034 2216 
z
M 1403 2484 
Q 997 2584 770 2862 
Q 544 3141 544 3541 
Q 544 4100 942 4425 
Q 1341 4750 2034 4750 
Q 2731 4750 3128 4425 
Q 3525 4100 3525 3541 
Q 3525 3141 3298 2862 
Q 3072 2584 2669 2484 
Q 3125 2378 3379 2068 
Q 3634 1759 3634 1313 
Q 3634 634 3220 271 
Q 2806 -91 2034 -91 
Q 1263 -91 848 271 
Q 434 634 434 1313 
Q 434 1759 690 2068 
Q 947 2378 1403 2484 
z
M 1172 3481 
Q 1172 3119 1398 2916 
Q 1625 2713 2034 2713 
Q 2441 2713 2670 2916 
Q 2900 3119 2900 3481 
Q 2900 3844 2670 4047 
Q 2441 4250 2034 4250 
Q 1625 4250 1398 4047 
Q 1172 3844 1172 3481 
z
" transform="scale(0.015625)"/>
       </defs>
       <use xlink:href="#DejaVuSans-2212"/>
       <use xlink:href="#DejaVuSans-30" x="83.789062"/>
       <use xlink:href="#DejaVuSans-2e" x="147.412109"/>
       <use xlink:href="#DejaVuSans-38" x="179.199219"/>
      </g>
     </g>
    </g>
    <g id="xtick_3">
     <g id="line2d_3">
      <g>
       <use xlink:href="#maf4f9db639" x="162.296346" y="678.84375" style="stroke: #000000; stroke-width: 0.8"/>
      </g>
     </g>
     <g id="text_3">
      <!-- −0.6 -->
      <g transform="translate(150.15494 693.442188) scale(0.1 -0.1)">
       <defs>
        <path id="DejaVuSans-36" d="M 2113 2584 
Q 1688 2584 1439 2293 
Q 1191 2003 1191 1497 
Q 1191 994 1439 701 
Q 1688 409 2113 409 
Q 2538 409 2786 701 
Q 3034 994 3034 1497 
Q 3034 2003 2786 2293 
Q 2538 2584 2113 2584 
z
M 3366 4563 
L 3366 3988 
Q 3128 4100 2886 4159 
Q 2644 4219 2406 4219 
Q 1781 4219 1451 3797 
Q 1122 3375 1075 2522 
Q 1259 2794 1537 2939 
Q 1816 3084 2150 3084 
Q 2853 3084 3261 2657 
Q 3669 2231 3669 1497 
Q 3669 778 3244 343 
Q 2819 -91 2113 -91 
Q 1303 -91 875 529 
Q 447 1150 447 2328 
Q 447 3434 972 4092 
Q 1497 4750 2381 4750 
Q 2619 4750 2861 4703 
Q 3103 4656 3366 4563 
z
" transform="scale(0.015625)"/>
       </defs>
       <use xlink:href="#DejaVuSans-2212"/>
       <use xlink:href="#DejaVuSans-30" x="83.789062"/>
       <use xlink:href="#DejaVuSans-2e" x="147.412109"/>
       <use xlink:href="#DejaVuSans-36" x="179.199219"/>
      </g>
     </g>
    </g>
    <g id="xtick_4">
     <g id="line2d_4">
      <g>
       <use xlink:href="#maf4f9db639" x="229.455457" y="678.84375" style="stroke: #000000; stroke-width: 0.8"/>
      </g>
     </g>
     <g id="text_4">
      <!-- −0.4 -->
      <g transform="translate(217.314051 693.442188) scale(0.1 -0.1)">
       <defs>
        <path id="DejaVuSans-34" d="M 2419 4116 
L 825 1625 
L 2419 1625 
L 2419 4116 
z
M 2253 4666 
L 3047 4666 
L 3047 1625 
L 3713 1625 
L 3713 1100 
L 3047 1100 
L 3047 0 
L 2419 0 
L 2419 1100 
L 313 1100 
L 313 1709 
L 2253 4666 
z
" transform="scale(0.015625)"/>
       </defs>
       <use xlink:href="#DejaVuSans-2212"/>
       <use xlink:href="#DejaVuSans-30" x="83.789062"/>
       <use xlink:href="#DejaVuSans-2e" x="147.412109"/>
       <use xlink:href="#DejaVuSans-34" x="179.199219"/>
      </g>
     </g>
    </g>
    <g id="xtick_5">
     <g id="line2d_5">
      <g>
       <use xlink:href="#maf4f9db639" x="296.614568" y="678.84375" style="stroke: #000000; stroke-width: 0.8"/>
      </g>
     </g>
     <g id="text_5">
      <!-- −0.2 -->
      <g transform="translate(284.473161 693.442188) scale(0.1 -0.1)">
       <defs>
        <path id="DejaVuSans-32" d="M 1228 531 
L 3431 531 
L 3431 0 
L 469 0 
L 469 531 
Q 828 903 1448 1529 
Q 2069 2156 2228 2338 
Q 2531 2678 2651 2914 
Q 2772 3150 2772 3378 
Q 2772 3750 2511 3984 
Q 2250 4219 1831 4219 
Q 1534 4219 1204 4116 
Q 875 4013 500 3803 
L 500 4441 
Q 881 4594 1212 4672 
Q 1544 4750 1819 4750 
Q 2544 4750 2975 4387 
Q 3406 4025 3406 3419 
Q 3406 3131 3298 2873 
Q 3191 2616 2906 2266 
Q 2828 2175 2409 1742 
Q 1991 1309 1228 531 
z
" transform="scale(0.015625)"/>
       </defs>
       <use xlink:href="#DejaVuSans-2212"/>
       <use xlink:href="#DejaVuSans-30" x="83.789062"/>
       <use xlink:href="#DejaVuSans-2e" x="147.412109"/>
       <use xlink:href="#DejaVuSans-32" x="179.199219"/>
      </g>
     </g>
    </g>
    <g id="xtick_6">
     <g id="line2d_6">
      <g>
       <use xlink:href="#maf4f9db639" x="363.773678" y="678.84375" style="stroke: #000000; stroke-width: 0.8"/>
      </g>
     </g>
     <g id="text_6">
      <!-- 0.0 -->
      <g transform="translate(355.822116 693.442188) scale(0.1 -0.1)">
       <use xlink:href="#DejaVuSans-30"/>
       <use xlink:href="#DejaVuSans-2e" x="63.623047"/>
       <use xlink:href="#DejaVuSans-30" x="95.410156"/>
      </g>
     </g>
    </g>
    <g id="xtick_7">
     <g id="line2d_7">
      <g>
       <use xlink:href="#maf4f9db639" x="430.932789" y="678.84375" style="stroke: #000000; stroke-width: 0.8"/>
      </g>
     </g>
     <g id="text_7">
      <!-- 0.2 -->
      <g transform="translate(422.981226 693.442188) scale(0.1 -0.1)">
       <use xlink:href="#DejaVuSans-30"/>
       <use xlink:href="#DejaVuSans-2e" x="63.623047"/>
       <use xlink:href="#DejaVuSans-32" x="95.410156"/>
      </g>
     </g>
    </g>
    <g id="xtick_8">
     <g id="line2d_8">
      <g>
       <use xlink:href="#maf4f9db639" x="498.0919" y="678.84375" style="stroke: #000000; stroke-width: 0.8"/>
      </g>
     </g>
     <g id="text_8">
      <!-- 0.4 -->
      <g transform="translate(490.140337 693.442188) scale(0.1 -0.1)">
       <use xlink:href="#DejaVuSans-30"/>
       <use xlink:href="#DejaVuSans-2e" x="63.623047"/>
       <use xlink:href="#DejaVuSans-34" x="95.410156"/>
      </g>
     </g>
    </g>
    <g id="xtick_9">
     <g id="line2d_9">
      <g>
       <use xlink:href="#maf4f9db639" x="565.25101" y="678.84375" style="stroke: #000000; stroke-width: 0.8"/>
      </g>
     </g>
     <g id="text_9">
      <!-- 0.6 -->
      <g transform="translate(557.299448 693.442188) scale(0.1 -0.1)">
       <use xlink:href="#DejaVuSans-30"/>
       <use xlink:href="#DejaVuSans-2e" x="63.623047"/>
       <use xlink:href="#DejaVuSans-36" x="95.410156"/>
      </g>
     </g>
    </g>
    <g id="xtick_10">
     <g id="line2d_10">
      <g>
       <use xlink:href="#maf4f9db639" x="632.410121" y="678.84375" style="stroke: #000000; stroke-width: 0.8"/>
      </g>
     </g>
     <g id="text_10">
      <!-- 0.8 -->
      <g transform="translate(624.458558 693.442188) scale(0.1 -0.1)">
       <use xlink:href="#DejaVuSans-30"/>
       <use xlink:href="#DejaVuSans-2e" x="63.623047"/>
       <use xlink:href="#DejaVuSans-38" x="95.410156"/>
      </g>
     </g>
    </g>
    <g id="xtick_11">
     <g id="line2d_11">
      <g>
       <use xlink:href="#maf4f9db639" x="699.569232" y="678.84375" style="stroke: #000000; stroke-width: 0.8"/>
      </g>
     </g>
     <g id="text_11">
      <!-- 1.0 -->
      <g transform="translate(691.617669 693.442188) scale(0.1 -0.1)">
       <use xlink:href="#DejaVuSans-31"/>
       <use xlink:href="#DejaVuSans-2e" x="63.623047"/>
       <use xlink:href="#DejaVuSans-30" x="95.410156"/>
      </g>
     </g>
    </g>
    <g id="text_12">
     <!-- Silhouette coefficient -->
     <g transform="translate(315.275475 707.120313) scale(0.1 -0.1)">
      <defs>
       <path id="DejaVuSans-53" d="M 3425 4513 
L 3425 3897 
Q 3066 4069 2747 4153 
Q 2428 4238 2131 4238 
Q 1616 4238 1336 4038 
Q 1056 3838 1056 3469 
Q 1056 3159 1242 3001 
Q 1428 2844 1947 2747 
L 2328 2669 
Q 3034 2534 3370 2195 
Q 3706 1856 3706 1288 
Q 3706 609 3251 259 
Q 2797 -91 1919 -91 
Q 1588 -91 1214 -16 
Q 841 59 441 206 
L 441 856 
Q 825 641 1194 531 
Q 1563 422 1919 422 
Q 2459 422 2753 634 
Q 3047 847 3047 1241 
Q 3047 1584 2836 1778 
Q 2625 1972 2144 2069 
L 1759 2144 
Q 1053 2284 737 2584 
Q 422 2884 422 3419 
Q 422 4038 858 4394 
Q 1294 4750 2059 4750 
Q 2388 4750 2728 4690 
Q 3069 4631 3425 4513 
z
" transform="scale(0.015625)"/>
       <path id="DejaVuSans-69" d="M 603 3500 
L 1178 3500 
L 1178 0 
L 603 0 
L 603 3500 
z
M 603 4863 
L 1178 4863 
L 1178 4134 
L 603 4134 
L 603 4863 
z
" transform="scale(0.015625)"/>
       <path id="DejaVuSans-6c" d="M 603 4863 
L 1178 4863 
L 1178 0 
L 603 0 
L 603 4863 
z
" transform="scale(0.015625)"/>
       <path id="DejaVuSans-68" d="M 3513 2113 
L 3513 0 
L 2938 0 
L 2938 2094 
Q 2938 2591 2744 2837 
Q 2550 3084 2163 3084 
Q 1697 3084 1428 2787 
Q 1159 2491 1159 1978 
L 1159 0 
L 581 0 
L 581 4863 
L 1159 4863 
L 1159 2956 
Q 1366 3272 1645 3428 
Q 1925 3584 2291 3584 
Q 2894 3584 3203 3211 
Q 3513 2838 3513 2113 
z
" transform="scale(0.015625)"/>
       <path id="DejaVuSans-6f" d="M 1959 3097 
Q 1497 3097 1228 2736 
Q 959 2375 959 1747 
Q 959 1119 1226 758 
Q 1494 397 1959 397 
Q 2419 397 2687 759 
Q 2956 1122 2956 1747 
Q 2956 2369 2687 2733 
Q 2419 3097 1959 3097 
z
M 1959 3584 
Q 2709 3584 3137 3096 
Q 3566 2609 3566 1747 
Q 3566 888 3137 398 
Q 2709 -91 1959 -91 
Q 1206 -91 779 398 
Q 353 888 353 1747 
Q 353 2609 779 3096 
Q 1206 3584 1959 3584 
z
" transform="scale(0.015625)"/>
       <path id="DejaVuSans-75" d="M 544 1381 
L 544 3500 
L 1119 3500 
L 1119 1403 
Q 1119 906 1312 657 
Q 1506 409 1894 409 
Q 2359 409 2629 706 
Q 2900 1003 2900 1516 
L 2900 3500 
L 3475 3500 
L 3475 0 
L 2900 0 
L 2900 538 
Q 2691 219 2414 64 
Q 2138 -91 1772 -91 
Q 1169 -91 856 284 
Q 544 659 544 1381 
z
M 1991 3584 
L 1991 3584 
z
" transform="scale(0.015625)"/>
       <path id="DejaVuSans-65" d="M 3597 1894 
L 3597 1613 
L 953 1613 
Q 991 1019 1311 708 
Q 1631 397 2203 397 
Q 2534 397 2845 478 
Q 3156 559 3463 722 
L 3463 178 
Q 3153 47 2828 -22 
Q 2503 -91 2169 -91 
Q 1331 -91 842 396 
Q 353 884 353 1716 
Q 353 2575 817 3079 
Q 1281 3584 2069 3584 
Q 2775 3584 3186 3129 
Q 3597 2675 3597 1894 
z
M 3022 2063 
Q 3016 2534 2758 2815 
Q 2500 3097 2075 3097 
Q 1594 3097 1305 2825 
Q 1016 2553 972 2059 
L 3022 2063 
z
" transform="scale(0.015625)"/>
       <path id="DejaVuSans-74" d="M 1172 4494 
L 1172 3500 
L 2356 3500 
L 2356 3053 
L 1172 3053 
L 1172 1153 
Q 1172 725 1289 603 
Q 1406 481 1766 481 
L 2356 481 
L 2356 0 
L 1766 0 
Q 1100 0 847 248 
Q 594 497 594 1153 
L 594 3053 
L 172 3053 
L 172 3500 
L 594 3500 
L 594 4494 
L 1172 4494 
z
" transform="scale(0.015625)"/>
       <path id="DejaVuSans-20" transform="scale(0.015625)"/>
       <path id="DejaVuSans-63" d="M 3122 3366 
L 3122 2828 
Q 2878 2963 2633 3030 
Q 2388 3097 2138 3097 
Q 1578 3097 1268 2742 
Q 959 2388 959 1747 
Q 959 1106 1268 751 
Q 1578 397 2138 397 
Q 2388 397 2633 464 
Q 2878 531 3122 666 
L 3122 134 
Q 2881 22 2623 -34 
Q 2366 -91 2075 -91 
Q 1284 -91 818 406 
Q 353 903 353 1747 
Q 353 2603 823 3093 
Q 1294 3584 2113 3584 
Q 2378 3584 2631 3529 
Q 2884 3475 3122 3366 
z
" transform="scale(0.015625)"/>
       <path id="DejaVuSans-66" d="M 2375 4863 
L 2375 4384 
L 1825 4384 
Q 1516 4384 1395 4259 
Q 1275 4134 1275 3809 
L 1275 3500 
L 2222 3500 
L 2222 3053 
L 1275 3053 
L 1275 0 
L 697 0 
L 697 3053 
L 147 3053 
L 147 3500 
L 697 3500 
L 697 3744 
Q 697 4328 969 4595 
Q 1241 4863 1831 4863 
L 2375 4863 
z
" transform="scale(0.015625)"/>
       <path id="DejaVuSans-6e" d="M 3513 2113 
L 3513 0 
L 2938 0 
L 2938 2094 
Q 2938 2591 2744 2837 
Q 2550 3084 2163 3084 
Q 1697 3084 1428 2787 
Q 1159 2491 1159 1978 
L 1159 0 
L 581 0 
L 581 3500 
L 1159 3500 
L 1159 2956 
Q 1366 3272 1645 3428 
Q 1925 3584 2291 3584 
Q 2894 3584 3203 3211 
Q 3513 2838 3513 2113 
z
" transform="scale(0.015625)"/>
      </defs>
      <use xlink:href="#DejaVuSans-53"/>
      <use xlink:href="#DejaVuSans-69" x="63.476562"/>
      <use xlink:href="#DejaVuSans-6c" x="91.259766"/>
      <use xlink:href="#DejaVuSans-68" x="119.042969"/>
      <use xlink:href="#DejaVuSans-6f" x="182.421875"/>
      <use xlink:href="#DejaVuSans-75" x="243.603516"/>
      <use xlink:href="#DejaVuSans-65" x="306.982422"/>
      <use xlink:href="#DejaVuSans-74" x="368.505859"/>
      <use xlink:href="#DejaVuSans-74" x="407.714844"/>
      <use xlink:href="#DejaVuSans-65" x="446.923828"/>
      <use xlink:href="#DejaVuSans-20" x="508.447266"/>
      <use xlink:href="#DejaVuSans-63" x="540.234375"/>
      <use xlink:href="#DejaVuSans-6f" x="595.214844"/>
      <use xlink:href="#DejaVuSans-65" x="656.396484"/>
      <use xlink:href="#DejaVuSans-66" x="717.919922"/>
      <use xlink:href="#DejaVuSans-66" x="753.125"/>
      <use xlink:href="#DejaVuSans-69" x="788.330078"/>
      <use xlink:href="#DejaVuSans-63" x="816.113281"/>
      <use xlink:href="#DejaVuSans-69" x="871.09375"/>
      <use xlink:href="#DejaVuSans-65" x="898.876953"/>
      <use xlink:href="#DejaVuSans-6e" x="960.400391"/>
      <use xlink:href="#DejaVuSans-74" x="1023.779297"/>
     </g>
    </g>
   </g>
   <g id="matplotlib.axis_2">
    <g id="text_13">
     <!-- Predicted label -->
     <g transform="translate(18.398438 382.441707) rotate(-90) scale(0.1 -0.1)">
      <defs>
       <path id="DejaVuSans-50" d="M 1259 4147 
L 1259 2394 
L 2053 2394 
Q 2494 2394 2734 2622 
Q 2975 2850 2975 3272 
Q 2975 3691 2734 3919 
Q 2494 4147 2053 4147 
L 1259 4147 
z
M 628 4666 
L 2053 4666 
Q 2838 4666 3239 4311 
Q 3641 3956 3641 3272 
Q 3641 2581 3239 2228 
Q 2838 1875 2053 1875 
L 1259 1875 
L 1259 0 
L 628 0 
L 628 4666 
z
" transform="scale(0.015625)"/>
       <path id="DejaVuSans-72" d="M 2631 2963 
Q 2534 3019 2420 3045 
Q 2306 3072 2169 3072 
Q 1681 3072 1420 2755 
Q 1159 2438 1159 1844 
L 1159 0 
L 581 0 
L 581 3500 
L 1159 3500 
L 1159 2956 
Q 1341 3275 1631 3429 
Q 1922 3584 2338 3584 
Q 2397 3584 2469 3576 
Q 2541 3569 2628 3553 
L 2631 2963 
z
" transform="scale(0.015625)"/>
       <path id="DejaVuSans-64" d="M 2906 2969 
L 2906 4863 
L 3481 4863 
L 3481 0 
L 2906 0 
L 2906 525 
Q 2725 213 2448 61 
Q 2172 -91 1784 -91 
Q 1150 -91 751 415 
Q 353 922 353 1747 
Q 353 2572 751 3078 
Q 1150 3584 1784 3584 
Q 2172 3584 2448 3432 
Q 2725 3281 2906 2969 
z
M 947 1747 
Q 947 1113 1208 752 
Q 1469 391 1925 391 
Q 2381 391 2643 752 
Q 2906 1113 2906 1747 
Q 2906 2381 2643 2742 
Q 2381 3103 1925 3103 
Q 1469 3103 1208 2742 
Q 947 2381 947 1747 
z
" transform="scale(0.015625)"/>
       <path id="DejaVuSans-61" d="M 2194 1759 
Q 1497 1759 1228 1600 
Q 959 1441 959 1056 
Q 959 750 1161 570 
Q 1363 391 1709 391 
Q 2188 391 2477 730 
Q 2766 1069 2766 1631 
L 2766 1759 
L 2194 1759 
z
M 3341 1997 
L 3341 0 
L 2766 0 
L 2766 531 
Q 2569 213 2275 61 
Q 1981 -91 1556 -91 
Q 1019 -91 701 211 
Q 384 513 384 1019 
Q 384 1609 779 1909 
Q 1175 2209 1959 2209 
L 2766 2209 
L 2766 2266 
Q 2766 2663 2505 2880 
Q 2244 3097 1772 3097 
Q 1472 3097 1187 3025 
Q 903 2953 641 2809 
L 641 3341 
Q 956 3463 1253 3523 
Q 1550 3584 1831 3584 
Q 2591 3584 2966 3190 
Q 3341 2797 3341 1997 
z
" transform="scale(0.015625)"/>
       <path id="DejaVuSans-62" d="M 3116 1747 
Q 3116 2381 2855 2742 
Q 2594 3103 2138 3103 
Q 1681 3103 1420 2742 
Q 1159 2381 1159 1747 
Q 1159 1113 1420 752 
Q 1681 391 2138 391 
Q 2594 391 2855 752 
Q 3116 1113 3116 1747 
z
M 1159 2969 
Q 1341 3281 1617 3432 
Q 1894 3584 2278 3584 
Q 2916 3584 3314 3078 
Q 3713 2572 3713 1747 
Q 3713 922 3314 415 
Q 2916 -91 2278 -91 
Q 1894 -91 1617 61 
Q 1341 213 1159 525 
L 1159 0 
L 581 0 
L 581 4863 
L 1159 4863 
L 1159 2969 
z
" transform="scale(0.015625)"/>
      </defs>
      <use xlink:href="#DejaVuSans-50"/>
      <use xlink:href="#DejaVuSans-72" x="58.552734"/>
      <use xlink:href="#DejaVuSans-65" x="97.416016"/>
      <use xlink:href="#DejaVuSans-64" x="158.939453"/>
      <use xlink:href="#DejaVuSans-69" x="222.416016"/>
      <use xlink:href="#DejaVuSans-63" x="250.199219"/>
      <use xlink:href="#DejaVuSans-74" x="305.179688"/>
      <use xlink:href="#DejaVuSans-65" x="344.388672"/>
      <use xlink:href="#DejaVuSans-64" x="405.912109"/>
      <use xlink:href="#DejaVuSans-20" x="469.388672"/>
      <use xlink:href="#DejaVuSans-6c" x="501.175781"/>
      <use xlink:href="#DejaVuSans-61" x="528.958984"/>
      <use xlink:href="#DejaVuSans-62" x="590.238281"/>
      <use xlink:href="#DejaVuSans-65" x="653.714844"/>
      <use xlink:href="#DejaVuSans-6c" x="715.238281"/>
     </g>
    </g>
   </g>
   <g id="line2d_12">
    <path d="M 606.557448 678.84375 
L 606.557448 11.734976 
" clip-path="url(#p4834a7e860)" style="fill: none; stroke: #ff0000; stroke-width: 1.5; stroke-linecap: square"/>
   </g>
   <g id="patch_3">
    <path d="M 27.978125 678.84375 
L 27.978125 11.734976 
" style="fill: none; stroke: #000000; stroke-width: 0.8; stroke-linejoin: miter; stroke-linecap: square"/>
   </g>
   <g id="patch_4">
    <path d="M 708.872825 678.84375 
L 708.872825 11.734976 
" style="fill: none; stroke: #000000; stroke-width: 0.8; stroke-linejoin: miter; stroke-linecap: square"/>
   </g>
   <g id="patch_5">
    <path d="M 27.978125 678.84375 
L 708.872825 678.84375 
" style="fill: none; stroke: #000000; stroke-width: 0.8; stroke-linejoin: miter; stroke-linecap: square"/>
   </g>
   <g id="patch_6">
    <path d="M 27.978125 11.734976 
L 708.872825 11.734976 
" style="fill: none; stroke: #000000; stroke-width: 0.8; stroke-linejoin: miter; stroke-linecap: square"/>
   </g>
   <g id="text_14">
    <!-- 0 -->
    <g transform="translate(346.983901 615.901396) scale(0.1 -0.1)">
     <use xlink:href="#DejaVuSans-30"/>
    </g>
   </g>
   <g id="text_15">
    <!-- 1 -->
    <g transform="translate(346.983901 551.355415) scale(0.1 -0.1)">
     <use xlink:href="#DejaVuSans-31"/>
    </g>
   </g>
   <g id="text_16">
    <!-- 2 -->
    <g transform="translate(346.983901 540.93184) scale(0.1 -0.1)">
     <use xlink:href="#DejaVuSans-32"/>
    </g>
   </g>
   <g id="text_17">
    <!-- 3 -->
    <g transform="translate(346.983901 530.508265) scale(0.1 -0.1)">
     <defs>
      <path id="DejaVuSans-33" d="M 2597 2516 
Q 3050 2419 3304 2112 
Q 3559 1806 3559 1356 
Q 3559 666 3084 287 
Q 2609 -91 1734 -91 
Q 1441 -91 1130 -33 
Q 819 25 488 141 
L 488 750 
Q 750 597 1062 519 
Q 1375 441 1716 441 
Q 2309 441 2620 675 
Q 2931 909 2931 1356 
Q 2931 1769 2642 2001 
Q 2353 2234 1838 2234 
L 1294 2234 
L 1294 2753 
L 1863 2753 
Q 2328 2753 2575 2939 
Q 2822 3125 2822 3475 
Q 2822 3834 2567 4026 
Q 2313 4219 1838 4219 
Q 1578 4219 1281 4162 
Q 984 4106 628 3988 
L 628 4550 
Q 988 4650 1302 4700 
Q 1616 4750 1894 4750 
Q 2613 4750 3031 4423 
Q 3450 4097 3450 3541 
Q 3450 3153 3228 2886 
Q 3006 2619 2597 2516 
z
" transform="scale(0.015625)"/>
     </defs>
     <use xlink:href="#DejaVuSans-33"/>
    </g>
   </g>
   <g id="text_18">
    <!-- 4 -->
    <g transform="translate(346.983901 513.269277) scale(0.1 -0.1)">
     <use xlink:href="#DejaVuSans-34"/>
    </g>
   </g>
   <g id="text_19">
    <!-- 5 -->
    <g transform="translate(346.983901 308.806852) scale(0.1 -0.1)">
     <defs>
      <path id="DejaVuSans-35" d="M 691 4666 
L 3169 4666 
L 3169 4134 
L 1269 4134 
L 1269 2991 
Q 1406 3038 1543 3061 
Q 1681 3084 1819 3084 
Q 2600 3084 3056 2656 
Q 3513 2228 3513 1497 
Q 3513 744 3044 326 
Q 2575 -91 1722 -91 
Q 1428 -91 1123 -41 
Q 819 9 494 109 
L 494 744 
Q 775 591 1075 516 
Q 1375 441 1709 441 
Q 2250 441 2565 725 
Q 2881 1009 2881 1497 
Q 2881 1984 2565 2268 
Q 2250 2553 1709 2553 
Q 1456 2553 1204 2497 
Q 953 2441 691 2322 
L 691 4666 
z
" transform="scale(0.015625)"/>
     </defs>
     <use xlink:href="#DejaVuSans-35"/>
    </g>
   </g>
   <g id="text_20">
    <!-- 6 -->
    <g transform="translate(346.983901 111.560748) scale(0.1 -0.1)">
     <use xlink:href="#DejaVuSans-36"/>
    </g>
   </g>
   <g id="text_21">
    <!-- 7 -->
    <g transform="translate(346.983901 101.53808) scale(0.1 -0.1)">
     <defs>
      <path id="DejaVuSans-37" d="M 525 4666 
L 3525 4666 
L 3525 4397 
L 1831 0 
L 1172 0 
L 2766 4134 
L 525 4134 
L 525 4666 
z
" transform="scale(0.015625)"/>
     </defs>
     <use xlink:href="#DejaVuSans-37"/>
    </g>
   </g>
   <g id="text_22">
    <!-- 8 -->
    <g transform="translate(346.983901 87.506345) scale(0.1 -0.1)">
     <use xlink:href="#DejaVuSans-38"/>
    </g>
   </g>
   <g id="text_23">
    <!-- 9 -->
    <g transform="translate(346.983901 74.67733) scale(0.1 -0.1)">
     <defs>
      <path id="DejaVuSans-39" d="M 703 97 
L 703 672 
Q 941 559 1184 500 
Q 1428 441 1663 441 
Q 2288 441 2617 861 
Q 2947 1281 2994 2138 
Q 2813 1869 2534 1725 
Q 2256 1581 1919 1581 
Q 1219 1581 811 2004 
Q 403 2428 403 3163 
Q 403 3881 828 4315 
Q 1253 4750 1959 4750 
Q 2769 4750 3195 4129 
Q 3622 3509 3622 2328 
Q 3622 1225 3098 567 
Q 2575 -91 1691 -91 
Q 1453 -91 1209 -44 
Q 966 3 703 97 
z
M 1959 2075 
Q 2384 2075 2632 2365 
Q 2881 2656 2881 3163 
Q 2881 3666 2632 3958 
Q 2384 4250 1959 4250 
Q 1534 4250 1286 3958 
Q 1038 3666 1038 3163 
Q 1038 2656 1286 2365 
Q 1534 2075 1959 2075 
z
" transform="scale(0.015625)"/>
     </defs>
     <use xlink:href="#DejaVuSans-39"/>
    </g>
   </g>
   <g id="text_24">
    <!-- 10 -->
    <g transform="translate(346.983901 60.645595) scale(0.1 -0.1)">
     <use xlink:href="#DejaVuSans-31"/>
     <use xlink:href="#DejaVuSans-30" x="63.623047"/>
    </g>
   </g>
   <g id="text_25">
    <!-- 11 -->
    <g transform="translate(346.983901 46.61386) scale(0.1 -0.1)">
     <use xlink:href="#DejaVuSans-31"/>
     <use xlink:href="#DejaVuSans-31" x="63.623047"/>
    </g>
   </g>
   <g id="text_26">
    <!-- 12 -->
    <g transform="translate(346.983901 37.793912) scale(0.1 -0.1)">
     <use xlink:href="#DejaVuSans-31"/>
     <use xlink:href="#DejaVuSans-32" x="63.623047"/>
    </g>
   </g>
   <g id="text_27">
    <!-- 13 -->
    <g transform="translate(346.983901 28.973965) scale(0.1 -0.1)">
     <use xlink:href="#DejaVuSans-31"/>
     <use xlink:href="#DejaVuSans-33" x="63.623047"/>
    </g>
   </g>
   <g id="text_28">
    <!-- 14 -->
    <g transform="translate(346.983901 20.154017) scale(0.1 -0.1)">
     <use xlink:href="#DejaVuSans-31"/>
     <use xlink:href="#DejaVuSans-34" x="63.623047"/>
    </g>
   </g>
   <g id="text_29">
    <!-- 0.7230 -->
    <g style="fill: #ff0000" transform="translate(623.347225 19.75311) scale(0.1 -0.1)">
     <use xlink:href="#DejaVuSans-30"/>
     <use xlink:href="#DejaVuSans-2e" x="63.623047"/>
     <use xlink:href="#DejaVuSans-37" x="95.410156"/>
     <use xlink:href="#DejaVuSans-32" x="159.033203"/>
     <use xlink:href="#DejaVuSans-33" x="222.65625"/>
     <use xlink:href="#DejaVuSans-30" x="286.279297"/>
    </g>
   </g>
  </g>
 </g>
 <defs>
  <clipPath id="p4834a7e860">
   <rect x="27.978125" y="11.734976" width="680.8947" height="667.108774"/>
  </clipPath>
 </defs>
</svg>
