<?xml version="1.0" encoding="utf-8" standalone="no"?>
<!DOCTYPE svg PUBLIC "-//W3C//DTD SVG 1.1//EN"
  "http://www.w3.org/Graphics/SVG/1.1/DTD/svg11.dtd">
<svg xmlns:xlink="http://www.w3.org/1999/xlink" width="720pt" height="432pt" viewBox="0 0 720 432" xmlns="http://www.w3.org/2000/svg" version="1.1">
 <metadata>
  <rdf:RDF xmlns:dc="http://purl.org/dc/elements/1.1/" xmlns:cc="http://creativecommons.org/ns#" xmlns:rdf="http://www.w3.org/1999/02/22-rdf-syntax-ns#">
   <cc:Work>
    <dc:type rdf:resource="http://purl.org/dc/dcmitype/StillImage"/>
    <dc:date>2022-11-03T14:04:21.629006</dc:date>
    <dc:format>image/svg+xml</dc:format>
    <dc:creator>
     <cc:Agent>
      <dc:title>Matplotlib v3.6.1, https://matplotlib.org/</dc:title>
     </cc:Agent>
    </dc:creator>
   </cc:Work>
  </rdf:RDF>
 </metadata>
 <defs>
  <style type="text/css">*{stroke-linejoin: round; stroke-linecap: butt}</style>
 </defs>
 <g id="figure_1">
  <g id="patch_1">
   <path d="M 0 432 
L 720 432 
L 720 0 
L 0 0 
z
" style="fill: #ffffff"/>
  </g>
  <g id="axes_1">
   <g id="patch_2">
    <path d="M 27.978125 390.84375 
L 708.872825 390.84375 
L 708.872825 14.400361 
L 27.978125 14.400361 
z
" style="fill: #ffffff"/>
   </g>
   <g id="PolyCollection_1">
    <defs>
     <path id="mfba0a39f97" d="M 254.73282 -45.68081 
L 363.773678 -45.68081 
L 363.773678 -46.133266 
L 363.773678 -46.585722 
L 363.773678 -47.038178 
L 363.773678 -47.490634 
L 363.773678 -47.94309 
L 363.773678 -48.395546 
L 363.773678 -48.848002 
L 363.773678 -49.300458 
L 363.773678 -49.752914 
L 363.773678 -50.20537 
L 363.773678 -50.657826 
L 363.773678 -51.110282 
L 363.773678 -51.562738 
L 363.773678 -52.015194 
L 363.773678 -52.46765 
L 363.773678 -52.920106 
L 363.773678 -53.372562 
L 363.773678 -53.825018 
L 363.773678 -54.277474 
L 363.773678 -54.72993 
L 363.773678 -55.182386 
L 363.773678 -55.634842 
L 363.773678 -56.087298 
L 363.773678 -56.539754 
L 363.773678 -56.99221 
L 363.773678 -57.444666 
L 363.773678 -57.897122 
L 363.773678 -58.349578 
L 363.773678 -58.802034 
L 363.773678 -59.25449 
L 363.773678 -59.706946 
L 363.773678 -60.159402 
L 363.773678 -60.611858 
L 363.773678 -61.064314 
L 363.773678 -61.51677 
L 363.773678 -61.969226 
L 363.773678 -62.421682 
L 363.773678 -62.874138 
L 363.773678 -63.326594 
L 363.773678 -63.77905 
L 363.773678 -64.231506 
L 363.773678 -64.683962 
L 363.773678 -65.136418 
L 363.773678 -65.588874 
L 363.773678 -66.04133 
L 363.773678 -66.493786 
L 363.773678 -66.946242 
L 363.773678 -67.398698 
L 363.773678 -67.851154 
L 363.773678 -68.30361 
L 363.773678 -68.756066 
L 363.773678 -69.208522 
L 363.773678 -69.660978 
L 363.773678 -70.113434 
L 363.773678 -70.56589 
L 363.773678 -71.018346 
L 363.773678 -71.470802 
L 363.773678 -71.923258 
L 363.773678 -72.375714 
L 363.773678 -72.82817 
L 363.773678 -73.280626 
L 363.773678 -73.733082 
L 363.773678 -74.185538 
L 363.773678 -74.637994 
L 363.773678 -75.09045 
L 363.773678 -75.542906 
L 363.773678 -75.995362 
L 363.773678 -76.447818 
L 363.773678 -76.900274 
L 363.773678 -77.35273 
L 363.773678 -77.805186 
L 363.773678 -78.257642 
L 363.773678 -78.710098 
L 363.773678 -79.162554 
L 363.773678 -79.61501 
L 363.773678 -80.067466 
L 363.773678 -80.519922 
L 363.773678 -80.972378 
L 363.773678 -81.424834 
L 363.773678 -81.87729 
L 363.773678 -82.329746 
L 363.773678 -82.782202 
L 363.773678 -83.234658 
L 363.773678 -83.687114 
L 363.773678 -84.13957 
L 363.773678 -84.592026 
L 363.773678 -85.044482 
L 363.773678 -85.496938 
L 363.773678 -85.949394 
L 363.773678 -86.40185 
L 363.773678 -86.854306 
L 363.773678 -87.306762 
L 363.773678 -87.759218 
L 363.773678 -88.211674 
L 363.773678 -88.66413 
L 363.773678 -89.116586 
L 363.773678 -89.569042 
L 363.773678 -90.021498 
L 363.773678 -90.473954 
L 363.773678 -90.92641 
L 363.773678 -91.378866 
L 363.773678 -91.831322 
L 363.773678 -92.283778 
L 363.773678 -92.736234 
L 363.773678 -93.18869 
L 363.773678 -93.641146 
L 363.773678 -94.093602 
L 363.773678 -94.546058 
L 363.773678 -94.998514 
L 363.773678 -95.45097 
L 363.773678 -95.903426 
L 363.773678 -96.355882 
L 363.773678 -96.808338 
L 363.773678 -97.260794 
L 363.773678 -97.71325 
L 363.773678 -98.165706 
L 363.773678 -98.618162 
L 363.773678 -99.070618 
L 363.773678 -99.523074 
L 363.773678 -99.97553 
L 363.773678 -100.427986 
L 363.773678 -100.880442 
L 363.773678 -101.332898 
L 363.773678 -101.785354 
L 363.773678 -102.23781 
L 363.773678 -102.690266 
L 363.773678 -103.142722 
L 363.773678 -103.595178 
L 363.773678 -104.047634 
L 363.773678 -104.50009 
L 363.773678 -104.952546 
L 363.773678 -105.405002 
L 363.773678 -105.857458 
L 363.773678 -106.309914 
L 363.773678 -106.76237 
L 363.773678 -107.214826 
L 512.883232 -107.214826 
L 512.883232 -107.214826 
L 508.477575 -106.76237 
L 508.294151 -106.309914 
L 506.885459 -105.857458 
L 503.7746 -105.405002 
L 503.050359 -104.952546 
L 499.001607 -104.50009 
L 496.819811 -104.047634 
L 496.719201 -103.595178 
L 496.106799 -103.142722 
L 495.85242 -102.690266 
L 495.847591 -102.23781 
L 495.015777 -101.785354 
L 494.646545 -101.332898 
L 493.17145 -100.880442 
L 493.087214 -100.427986 
L 492.818603 -99.97553 
L 492.07046 -99.523074 
L 490.455216 -99.070618 
L 489.187743 -98.618162 
L 488.812333 -98.165706 
L 488.649329 -97.71325 
L 488.027154 -97.260794 
L 487.71439 -96.808338 
L 483.985294 -96.355882 
L 483.874734 -95.903426 
L 483.562148 -95.45097 
L 482.694064 -94.998514 
L 481.39415 -94.546058 
L 480.669726 -94.093602 
L 480.524137 -93.641146 
L 479.930047 -93.18869 
L 479.380667 -92.736234 
L 478.957609 -92.283778 
L 478.569684 -91.831322 
L 477.749384 -91.378866 
L 477.658412 -90.92641 
L 477.510786 -90.473954 
L 477.455076 -90.021498 
L 477.40509 -89.569042 
L 477.283644 -89.116586 
L 477.191755 -88.66413 
L 477.093958 -88.211674 
L 476.474188 -87.759218 
L 476.241971 -87.306762 
L 476.238309 -86.854306 
L 474.849452 -86.40185 
L 472.556021 -85.949394 
L 469.860382 -85.496938 
L 467.063748 -85.044482 
L 466.782421 -84.592026 
L 466.122992 -84.13957 
L 465.300578 -83.687114 
L 464.02953 -83.234658 
L 463.660975 -82.782202 
L 462.724803 -82.329746 
L 462.292633 -81.87729 
L 461.91245 -81.424834 
L 460.873915 -80.972378 
L 460.199265 -80.519922 
L 459.723108 -80.067466 
L 458.815256 -79.61501 
L 458.302337 -79.162554 
L 457.555561 -78.710098 
L 456.158 -78.257642 
L 455.085679 -77.805186 
L 455.059802 -77.35273 
L 454.822013 -76.900274 
L 454.467916 -76.447818 
L 454.445548 -75.995362 
L 454.354148 -75.542906 
L 453.157865 -75.09045 
L 453.11174 -74.637994 
L 452.727473 -74.185538 
L 451.961511 -73.733082 
L 451.729782 -73.280626 
L 450.852331 -72.82817 
L 448.478999 -72.375714 
L 447.957781 -71.923258 
L 446.874436 -71.470802 
L 446.80734 -71.018346 
L 446.49748 -70.56589 
L 446.088614 -70.113434 
L 445.261839 -69.660978 
L 445.063668 -69.208522 
L 444.831235 -68.756066 
L 444.047984 -68.30361 
L 443.326176 -67.851154 
L 442.750364 -67.398698 
L 441.997673 -66.946242 
L 441.971078 -66.493786 
L 441.178928 -66.04133 
L 439.299601 -65.588874 
L 437.742219 -65.136418 
L 437.067697 -64.683962 
L 436.819249 -64.231506 
L 434.500063 -63.77905 
L 433.190529 -63.326594 
L 433.037969 -62.874138 
L 426.509748 -62.421682 
L 426.252129 -61.969226 
L 423.763498 -61.51677 
L 423.262136 -61.064314 
L 420.409895 -60.611858 
L 416.295787 -60.159402 
L 413.461503 -59.706946 
L 413.158147 -59.25449 
L 412.81103 -58.802034 
L 411.502089 -58.349578 
L 409.927303 -57.897122 
L 408.297438 -57.444666 
L 407.659397 -56.99221 
L 407.275927 -56.539754 
L 406.112361 -56.087298 
L 402.439799 -55.634842 
L 397.348829 -55.182386 
L 392.321906 -54.72993 
L 391.805197 -54.277474 
L 387.481868 -53.825018 
L 385.263168 -53.372562 
L 384.720606 -52.920106 
L 382.60747 -52.46765 
L 382.302523 -52.015194 
L 377.99922 -51.562738 
L 368.942228 -51.110282 
L 359.73721 -50.657826 
L 355.667565 -50.20537 
L 353.687949 -49.752914 
L 352.280719 -49.300458 
L 350.811341 -48.848002 
L 340.483069 -48.395546 
L 334.863232 -47.94309 
L 332.920464 -47.490634 
L 325.492923 -47.038178 
L 314.616266 -46.585722 
L 265.773689 -46.133266 
L 254.73282 -45.68081 
z
" style="stroke: #000000; stroke-opacity: 0.7"/>
    </defs>
    <g clip-path="url(#p5e4bce6f4d)">
     <use xlink:href="#mfba0a39f97" x="0" y="432" style="fill-opacity: 0.7; stroke: #000000; stroke-opacity: 0.7"/>
    </g>
   </g>
   <g id="PolyCollection_2">
    <defs>
     <path id="m0a65f73f10" d="M 398.950368 -112.191842 
L 363.773678 -112.191842 
L 363.773678 -112.644298 
L 363.773678 -113.096754 
L 363.773678 -113.54921 
L 468.482273 -113.54921 
L 468.482273 -113.54921 
L 427.34465 -113.096754 
L 425.38981 -112.644298 
L 398.950368 -112.191842 
z
" style="stroke: #7d008e; stroke-opacity: 0.7"/>
    </defs>
    <g clip-path="url(#p5e4bce6f4d)">
     <use xlink:href="#m0a65f73f10" x="0" y="432" style="fill: #7d008e; fill-opacity: 0.7; stroke: #7d008e; stroke-opacity: 0.7"/>
    </g>
   </g>
   <g id="PolyCollection_3">
    <defs>
     <path id="m4f829185b8" d="M 431.317274 -118.526225 
L 363.773678 -118.526225 
L 363.773678 -118.978681 
L 440.91665 -118.978681 
L 440.91665 -118.978681 
L 431.317274 -118.526225 
z
" style="stroke: #2d00a4; stroke-opacity: 0.7"/>
    </defs>
    <g clip-path="url(#p5e4bce6f4d)">
     <use xlink:href="#m4f829185b8" x="0" y="432" style="fill: #2d00a4; fill-opacity: 0.7; stroke: #2d00a4; stroke-opacity: 0.7"/>
    </g>
   </g>
   <g id="PolyCollection_4">
    <defs>
     <path id="mf8e24bf64f" d="M 430.24819 -123.955697 
L 363.773678 -123.955697 
L 363.773678 -124.408153 
L 363.773678 -124.860609 
L 363.773678 -125.313065 
L 487.423501 -125.313065 
L 487.423501 -125.313065 
L 472.286883 -124.860609 
L 462.015436 -124.408153 
L 430.24819 -123.955697 
z
" style="stroke: #0000dd; stroke-opacity: 0.7"/>
    </defs>
    <g clip-path="url(#p5e4bce6f4d)">
     <use xlink:href="#mf8e24bf64f" x="0" y="432" style="fill: #0000dd; fill-opacity: 0.7; stroke: #0000dd; stroke-opacity: 0.7"/>
    </g>
   </g>
   <g id="PolyCollection_5">
    <defs>
     <path id="m757e34679d" d="M 323.583554 -130.290081 
L 363.773678 -130.290081 
L 363.773678 -130.742537 
L 363.773678 -131.194993 
L 363.773678 -131.647449 
L 363.773678 -132.099905 
L 363.773678 -132.552361 
L 363.773678 -133.004817 
L 363.773678 -133.457273 
L 363.773678 -133.909729 
L 363.773678 -134.362185 
L 363.773678 -134.814641 
L 363.773678 -135.267097 
L 363.773678 -135.719553 
L 363.773678 -136.172009 
L 363.773678 -136.624465 
L 363.773678 -137.076921 
L 363.773678 -137.529377 
L 363.773678 -137.981833 
L 363.773678 -138.434289 
L 475.936878 -138.434289 
L 475.936878 -138.434289 
L 466.250231 -137.981833 
L 454.558131 -137.529377 
L 452.110077 -137.076921 
L 447.325315 -136.624465 
L 439.871328 -136.172009 
L 432.545439 -135.719553 
L 428.720028 -135.267097 
L 425.612471 -134.814641 
L 421.572221 -134.362185 
L 412.760485 -133.909729 
L 412.303154 -133.457273 
L 412.244631 -133.004817 
L 403.238917 -132.552361 
L 402.381904 -132.099905 
L 397.390866 -131.647449 
L 393.164294 -131.194993 
L 324.999384 -130.742537 
L 323.583554 -130.290081 
z
" style="stroke: #0082dd; stroke-opacity: 0.7"/>
    </defs>
    <g clip-path="url(#p5e4bce6f4d)">
     <use xlink:href="#m757e34679d" x="0" y="432" style="fill: #0082dd; fill-opacity: 0.7; stroke: #0082dd; stroke-opacity: 0.7"/>
    </g>
   </g>
   <g id="PolyCollection_6">
    <defs>
     <path id="medcdc6469c" d="M 640.999305 -143.411305 
L 363.773678 -143.411305 
L 363.773678 -143.863761 
L 363.773678 -144.316217 
L 363.773678 -144.768673 
L 363.773678 -145.221129 
L 363.773678 -145.673585 
L 363.773678 -146.126041 
L 363.773678 -146.578497 
L 363.773678 -147.030953 
L 363.773678 -147.483409 
L 363.773678 -147.935865 
L 363.773678 -148.388321 
L 363.773678 -148.840777 
L 363.773678 -149.293233 
L 363.773678 -149.745689 
L 363.773678 -150.198145 
L 363.773678 -150.650601 
L 363.773678 -151.103057 
L 363.773678 -151.555513 
L 363.773678 -152.007969 
L 363.773678 -152.460425 
L 363.773678 -152.912881 
L 363.773678 -153.365337 
L 363.773678 -153.817793 
L 363.773678 -154.270249 
L 363.773678 -154.722705 
L 363.773678 -155.175161 
L 363.773678 -155.627617 
L 363.773678 -156.080073 
L 363.773678 -156.532529 
L 363.773678 -156.984985 
L 363.773678 -157.437441 
L 363.773678 -157.889897 
L 363.773678 -158.342353 
L 363.773678 -158.794809 
L 363.773678 -159.247265 
L 363.773678 -159.699721 
L 363.773678 -160.152177 
L 363.773678 -160.604633 
L 363.773678 -161.057089 
L 363.773678 -161.509545 
L 363.773678 -161.962001 
L 363.773678 -162.414457 
L 363.773678 -162.866913 
L 363.773678 -163.319369 
L 363.773678 -163.771825 
L 363.773678 -164.224281 
L 363.773678 -164.676737 
L 363.773678 -165.129193 
L 363.773678 -165.581649 
L 363.773678 -166.034105 
L 363.773678 -166.486561 
L 363.773678 -166.939017 
L 363.773678 -167.391473 
L 363.773678 -167.843929 
L 363.773678 -168.296385 
L 363.773678 -168.748841 
L 363.773678 -169.201297 
L 363.773678 -169.653753 
L 363.773678 -170.106209 
L 363.773678 -170.558665 
L 363.773678 -171.011121 
L 363.773678 -171.463577 
L 363.773678 -171.916033 
L 363.773678 -172.368489 
L 363.773678 -172.820945 
L 363.773678 -173.273401 
L 363.773678 -173.725857 
L 363.773678 -174.178313 
L 363.773678 -174.630769 
L 363.773678 -175.083225 
L 363.773678 -175.535681 
L 363.773678 -175.988137 
L 363.773678 -176.440593 
L 363.773678 -176.893049 
L 363.773678 -177.345505 
L 363.773678 -177.797961 
L 363.773678 -178.250417 
L 363.773678 -178.702873 
L 363.773678 -179.155329 
L 363.773678 -179.607785 
L 363.773678 -180.060241 
L 363.773678 -180.512697 
L 363.773678 -180.965153 
L 363.773678 -181.417609 
L 363.773678 -181.870065 
L 363.773678 -182.322521 
L 363.773678 -182.774977 
L 363.773678 -183.227433 
L 363.773678 -183.679889 
L 363.773678 -184.132345 
L 363.773678 -184.584801 
L 363.773678 -185.037257 
L 363.773678 -185.489713 
L 363.773678 -185.942169 
L 363.773678 -186.394625 
L 363.773678 -186.847081 
L 363.773678 -187.299537 
L 363.773678 -187.751993 
L 363.773678 -188.204449 
L 363.773678 -188.656905 
L 363.773678 -189.109361 
L 363.773678 -189.561817 
L 363.773678 -190.014273 
L 363.773678 -190.466729 
L 363.773678 -190.919185 
L 363.773678 -191.371641 
L 363.773678 -191.824097 
L 363.773678 -192.276553 
L 363.773678 -192.729009 
L 363.773678 -193.181465 
L 363.773678 -193.633921 
L 363.773678 -194.086377 
L 363.773678 -194.538833 
L 363.773678 -194.991289 
L 363.773678 -195.443745 
L 363.773678 -195.896201 
L 363.773678 -196.348657 
L 363.773678 -196.801113 
L 363.773678 -197.253569 
L 363.773678 -197.706025 
L 363.773678 -198.158481 
L 363.773678 -198.610937 
L 363.773678 -199.063393 
L 363.773678 -199.515849 
L 363.773678 -199.968305 
L 363.773678 -200.420761 
L 363.773678 -200.873217 
L 363.773678 -201.325673 
L 363.773678 -201.778129 
L 363.773678 -202.230585 
L 363.773678 -202.683041 
L 363.773678 -203.135497 
L 363.773678 -203.587953 
L 363.773678 -204.040409 
L 363.773678 -204.492865 
L 363.773678 -204.945321 
L 363.773678 -205.397777 
L 363.773678 -205.850233 
L 363.773678 -206.302689 
L 363.773678 -206.755145 
L 363.773678 -207.207601 
L 363.773678 -207.660057 
L 363.773678 -208.112513 
L 363.773678 -208.564969 
L 363.773678 -209.017425 
L 363.773678 -209.469881 
L 363.773678 -209.922337 
L 363.773678 -210.374793 
L 363.773678 -210.827249 
L 363.773678 -211.279705 
L 363.773678 -211.732161 
L 363.773678 -212.184617 
L 363.773678 -212.637073 
L 363.773678 -213.089529 
L 363.773678 -213.541985 
L 363.773678 -213.994441 
L 363.773678 -214.446897 
L 363.773678 -214.899353 
L 363.773678 -215.351809 
L 363.773678 -215.804265 
L 363.773678 -216.256721 
L 363.773678 -216.709177 
L 363.773678 -217.161633 
L 363.773678 -217.614089 
L 363.773678 -218.066545 
L 363.773678 -218.519001 
L 363.773678 -218.971457 
L 363.773678 -219.423913 
L 363.773678 -219.876369 
L 363.773678 -220.328825 
L 363.773678 -220.781281 
L 363.773678 -221.233737 
L 363.773678 -221.686193 
L 363.773678 -222.138649 
L 363.773678 -222.591105 
L 363.773678 -223.043561 
L 363.773678 -223.496017 
L 363.773678 -223.948473 
L 363.773678 -224.400929 
L 363.773678 -224.853385 
L 363.773678 -225.305841 
L 363.773678 -225.758297 
L 363.773678 -226.210753 
L 363.773678 -226.663209 
L 363.773678 -227.115665 
L 363.773678 -227.568121 
L 363.773678 -228.020577 
L 363.773678 -228.473033 
L 363.773678 -228.925489 
L 363.773678 -229.377945 
L 363.773678 -229.830401 
L 363.773678 -230.282857 
L 363.773678 -230.735313 
L 363.773678 -231.187769 
L 363.773678 -231.640225 
L 363.773678 -232.092681 
L 363.773678 -232.545137 
L 363.773678 -232.997593 
L 363.773678 -233.450049 
L 363.773678 -233.902505 
L 363.773678 -234.354961 
L 363.773678 -234.807417 
L 363.773678 -235.259873 
L 363.773678 -235.712329 
L 363.773678 -236.164785 
L 363.773678 -236.617241 
L 363.773678 -237.069697 
L 363.773678 -237.522153 
L 363.773678 -237.974609 
L 363.773678 -238.427065 
L 363.773678 -238.879521 
L 363.773678 -239.331977 
L 363.773678 -239.784433 
L 363.773678 -240.236889 
L 363.773678 -240.689345 
L 363.773678 -241.141801 
L 363.773678 -241.594257 
L 363.773678 -242.046713 
L 363.773678 -242.499169 
L 363.773678 -242.951625 
L 363.773678 -243.404081 
L 363.773678 -243.856537 
L 363.773678 -244.308993 
L 363.773678 -244.761449 
L 363.773678 -245.213905 
L 363.773678 -245.666361 
L 363.773678 -246.118817 
L 363.773678 -246.571273 
L 363.773678 -247.023729 
L 363.773678 -247.476185 
L 363.773678 -247.928641 
L 363.773678 -248.381097 
L 363.773678 -248.833553 
L 363.773678 -249.286009 
L 363.773678 -249.738465 
L 363.773678 -250.190921 
L 363.773678 -250.643377 
L 363.773678 -251.095833 
L 363.773678 -251.548289 
L 363.773678 -252.000745 
L 363.773678 -252.453201 
L 363.773678 -252.905657 
L 363.773678 -253.358113 
L 363.773678 -253.810569 
L 363.773678 -254.263025 
L 363.773678 -254.715481 
L 363.773678 -255.167937 
L 363.773678 -255.620393 
L 363.773678 -256.072849 
L 363.773678 -256.525305 
L 363.773678 -256.977761 
L 363.773678 -257.430217 
L 363.773678 -257.882673 
L 363.773678 -258.335129 
L 363.773678 -258.787585 
L 363.773678 -259.240041 
L 363.773678 -259.692497 
L 363.773678 -260.144953 
L 363.773678 -260.597408 
L 363.773678 -261.049864 
L 363.773678 -261.50232 
L 363.773678 -261.954776 
L 363.773678 -262.407232 
L 363.773678 -262.859688 
L 363.773678 -263.312144 
L 363.773678 -263.7646 
L 363.773678 -264.217056 
L 363.773678 -264.669512 
L 363.773678 -265.121968 
L 363.773678 -265.574424 
L 363.773678 -266.02688 
L 363.773678 -266.479336 
L 363.773678 -266.931792 
L 363.773678 -267.384248 
L 363.773678 -267.836704 
L 363.773678 -268.28916 
L 363.773678 -268.741616 
L 363.773678 -269.194072 
L 363.773678 -269.646528 
L 363.773678 -270.098984 
L 363.773678 -270.55144 
L 363.773678 -271.003896 
L 363.773678 -271.456352 
L 363.773678 -271.908808 
L 363.773678 -272.361264 
L 363.773678 -272.81372 
L 363.773678 -273.266176 
L 363.773678 -273.718632 
L 363.773678 -274.171088 
L 363.773678 -274.623544 
L 363.773678 -275.076 
L 363.773678 -275.528456 
L 363.773678 -275.980912 
L 363.773678 -276.433368 
L 363.773678 -276.885824 
L 363.773678 -277.33828 
L 363.773678 -277.790736 
L 363.773678 -278.243192 
L 363.773678 -278.695648 
L 363.773678 -279.148104 
L 363.773678 -279.60056 
L 363.773678 -280.053016 
L 363.773678 -280.505472 
L 363.773678 -280.957928 
L 363.773678 -281.410384 
L 363.773678 -281.86284 
L 363.773678 -282.315296 
L 363.773678 -282.767752 
L 363.773678 -283.220208 
L 363.773678 -283.672664 
L 363.773678 -284.12512 
L 363.773678 -284.577576 
L 363.773678 -285.030032 
L 363.773678 -285.482488 
L 363.773678 -285.934944 
L 363.773678 -286.3874 
L 363.773678 -286.839856 
L 363.773678 -287.292312 
L 363.773678 -287.744768 
L 363.773678 -288.197224 
L 363.773678 -288.64968 
L 363.773678 -289.102136 
L 363.773678 -289.554592 
L 363.773678 -290.007048 
L 363.773678 -290.459504 
L 363.773678 -290.91196 
L 363.773678 -291.364416 
L 363.773678 -291.816872 
L 363.773678 -292.269328 
L 363.773678 -292.721784 
L 363.773678 -293.17424 
L 363.773678 -293.626696 
L 363.773678 -294.079152 
L 363.773678 -294.531608 
L 363.773678 -294.984064 
L 363.773678 -295.43652 
L 363.773678 -295.888976 
L 363.773678 -296.341432 
L 363.773678 -296.793888 
L 363.773678 -297.246344 
L 363.773678 -297.6988 
L 363.773678 -298.151256 
L 363.773678 -298.603712 
L 363.773678 -299.056168 
L 363.773678 -299.508624 
L 363.773678 -299.96108 
L 363.773678 -300.413536 
L 363.773678 -300.865992 
L 363.773678 -301.318448 
L 363.773678 -301.770904 
L 363.773678 -302.22336 
L 363.773678 -302.675816 
L 363.773678 -303.128272 
L 363.773678 -303.580728 
L 363.773678 -304.033184 
L 363.773678 -304.48564 
L 363.773678 -304.938096 
L 363.773678 -305.390552 
L 363.773678 -305.843008 
L 363.773678 -306.295464 
L 363.773678 -306.74792 
L 363.773678 -307.200376 
L 363.773678 -307.652832 
L 363.773678 -308.105288 
L 363.773678 -308.557744 
L 363.773678 -309.0102 
L 363.773678 -309.462656 
L 363.773678 -309.915112 
L 363.773678 -310.367568 
L 363.773678 -310.820024 
L 363.773678 -311.27248 
L 363.773678 -311.724936 
L 363.773678 -312.177392 
L 363.773678 -312.629848 
L 363.773678 -313.082304 
L 363.773678 -313.53476 
L 363.773678 -313.987216 
L 363.773678 -314.439672 
L 363.773678 -314.892128 
L 363.773678 -315.344584 
L 363.773678 -315.79704 
L 363.773678 -316.249496 
L 363.773678 -316.701952 
L 363.773678 -317.154408 
L 363.773678 -317.606864 
L 363.773678 -318.05932 
L 363.773678 -318.511776 
L 363.773678 -318.964232 
L 363.773678 -319.416688 
L 363.773678 -319.869144 
L 363.773678 -320.3216 
L 363.773678 -320.774056 
L 363.773678 -321.226512 
L 363.773678 -321.678968 
L 363.773678 -322.131424 
L 363.773678 -322.58388 
L 363.773678 -323.036336 
L 363.773678 -323.488792 
L 363.773678 -323.941248 
L 363.773678 -324.393704 
L 363.773678 -324.84616 
L 363.773678 -325.298616 
L 363.773678 -325.751072 
L 363.773678 -326.203528 
L 363.773678 -326.655984 
L 363.773678 -327.10844 
L 363.773678 -327.560896 
L 363.773678 -328.013352 
L 363.773678 -328.465808 
L 363.773678 -328.918264 
L 363.773678 -329.37072 
L 363.773678 -329.823176 
L 363.773678 -330.275632 
L 363.773678 -330.728088 
L 363.773678 -331.180544 
L 363.773678 -331.633 
L 363.773678 -332.085456 
L 363.773678 -332.537912 
L 363.773678 -332.990368 
L 363.773678 -333.442824 
L 363.773678 -333.89528 
L 363.773678 -334.347736 
L 363.773678 -334.800192 
L 363.773678 -335.252648 
L 363.773678 -335.705104 
L 363.773678 -336.15756 
L 363.773678 -336.610016 
L 363.773678 -337.062472 
L 363.773678 -337.514928 
L 363.773678 -337.967384 
L 363.773678 -338.41984 
L 363.773678 -338.872296 
L 363.773678 -339.324752 
L 363.773678 -339.777208 
L 363.773678 -340.229664 
L 363.773678 -340.68212 
L 363.773678 -341.134576 
L 363.773678 -341.587032 
L 363.773678 -342.039488 
L 363.773678 -342.491944 
L 363.773678 -342.9444 
L 363.773678 -343.396856 
L 363.773678 -343.849312 
L 363.773678 -344.301768 
L 363.773678 -344.754224 
L 363.773678 -345.20668 
L 363.773678 -345.659136 
L 363.773678 -346.111592 
L 363.773678 -346.564048 
L 363.773678 -347.016504 
L 363.773678 -347.46896 
L 363.773678 -347.921416 
L 363.773678 -348.373872 
L 363.773678 -348.826328 
L 363.773678 -349.278784 
L 363.773678 -349.73124 
L 363.773678 -350.183696 
L 363.773678 -350.636152 
L 363.773678 -351.088608 
L 363.773678 -351.541064 
L 363.773678 -351.99352 
L 363.773678 -352.445976 
L 363.773678 -352.898432 
L 363.773678 -353.350888 
L 363.773678 -353.803344 
L 363.773678 -354.2558 
L 363.773678 -354.708256 
L 363.773678 -355.160712 
L 363.773678 -355.613168 
L 363.773678 -356.065624 
L 687.247111 -356.065624 
L 687.247111 -356.065624 
L 687.17736 -355.613168 
L 686.788731 -355.160712 
L 686.764733 -354.708256 
L 686.653792 -354.2558 
L 686.586761 -353.803344 
L 686.577993 -353.350888 
L 686.552411 -352.898432 
L 686.519246 -352.445976 
L 686.385443 -351.99352 
L 686.25773 -351.541064 
L 686.042591 -351.088608 
L 686.028528 -350.636152 
L 685.983562 -350.183696 
L 685.963463 -349.73124 
L 685.956175 -349.278784 
L 685.879465 -348.826328 
L 685.844175 -348.373872 
L 685.839537 -347.921416 
L 685.783294 -347.46896 
L 685.772793 -347.016504 
L 685.769821 -346.564048 
L 685.683504 -346.111592 
L 685.650784 -345.659136 
L 685.612304 -345.20668 
L 685.599538 -344.754224 
L 685.570478 -344.301768 
L 685.539172 -343.849312 
L 685.50277 -343.396856 
L 685.496649 -342.9444 
L 685.470805 -342.491944 
L 685.444335 -342.039488 
L 685.419241 -341.587032 
L 685.371719 -341.134576 
L 685.360861 -340.68212 
L 685.340514 -340.229664 
L 685.309106 -339.777208 
L 685.271554 -339.324752 
L 685.270723 -338.872296 
L 685.244342 -338.41984 
L 685.233983 -337.967384 
L 685.118722 -337.514928 
L 685.113092 -337.062472 
L 685.095362 -336.610016 
L 685.084742 -336.15756 
L 685.076514 -335.705104 
L 685.073322 -335.252648 
L 685.051547 -334.800192 
L 685.044784 -334.347736 
L 685.033171 -333.89528 
L 684.981694 -333.442824 
L 684.971248 -332.990368 
L 684.948606 -332.537912 
L 684.933944 -332.085456 
L 684.909085 -331.633 
L 684.904107 -331.180544 
L 684.902031 -330.728088 
L 684.879456 -330.275632 
L 684.84942 -329.823176 
L 684.847884 -329.37072 
L 684.837274 -328.918264 
L 684.817666 -328.465808 
L 684.810465 -328.013352 
L 684.800359 -327.560896 
L 684.795792 -327.10844 
L 684.755985 -326.655984 
L 684.739147 -326.203528 
L 684.71809 -325.751072 
L 684.717739 -325.298616 
L 684.687757 -324.84616 
L 684.6786 -324.393704 
L 684.66872 -323.941248 
L 684.652377 -323.488792 
L 684.651774 -323.036336 
L 684.642677 -322.58388 
L 684.632764 -322.131424 
L 684.581893 -321.678968 
L 684.54807 -321.226512 
L 684.528183 -320.774056 
L 684.521254 -320.3216 
L 684.52017 -319.869144 
L 684.516287 -319.416688 
L 684.504903 -318.964232 
L 684.495015 -318.511776 
L 684.4788 -318.05932 
L 684.468186 -317.606864 
L 684.46493 -317.154408 
L 684.460932 -316.701952 
L 684.442409 -316.249496 
L 684.438632 -315.79704 
L 684.43164 -315.344584 
L 684.431107 -314.892128 
L 684.427053 -314.439672 
L 684.423568 -313.987216 
L 684.403326 -313.53476 
L 684.3578 -313.082304 
L 684.349377 -312.629848 
L 684.337832 -312.177392 
L 684.337632 -311.724936 
L 684.331756 -311.27248 
L 684.321444 -310.820024 
L 684.310532 -310.367568 
L 684.297457 -309.915112 
L 684.251359 -309.462656 
L 684.230672 -309.0102 
L 684.21672 -308.557744 
L 684.196382 -308.105288 
L 684.157504 -307.652832 
L 684.118258 -307.200376 
L 684.112321 -306.74792 
L 684.099676 -306.295464 
L 684.08922 -305.843008 
L 684.060333 -305.390552 
L 684.004584 -304.938096 
L 683.947217 -304.48564 
L 683.941611 -304.033184 
L 683.910625 -303.580728 
L 683.892959 -303.128272 
L 683.843074 -302.675816 
L 683.803412 -302.22336 
L 683.803193 -301.770904 
L 683.793333 -301.318448 
L 683.785312 -300.865992 
L 683.767572 -300.413536 
L 683.731457 -299.96108 
L 683.701593 -299.508624 
L 683.699614 -299.056168 
L 683.688867 -298.603712 
L 683.672306 -298.151256 
L 683.670015 -297.6988 
L 683.667076 -297.246344 
L 683.655236 -296.793888 
L 683.629689 -296.341432 
L 683.599524 -295.888976 
L 683.569631 -295.43652 
L 683.569437 -294.984064 
L 683.557169 -294.531608 
L 683.521139 -294.079152 
L 683.516988 -293.626696 
L 683.488527 -293.17424 
L 683.487602 -292.721784 
L 683.482149 -292.269328 
L 683.440389 -291.816872 
L 683.409349 -291.364416 
L 683.404688 -290.91196 
L 683.36822 -290.459504 
L 683.344044 -290.007048 
L 683.320936 -289.554592 
L 683.288754 -289.102136 
L 683.261735 -288.64968 
L 683.258726 -288.197224 
L 683.237861 -287.744768 
L 683.19371 -287.292312 
L 683.187707 -286.839856 
L 683.180152 -286.3874 
L 683.171932 -285.934944 
L 683.150274 -285.482488 
L 683.137997 -285.030032 
L 683.103611 -284.577576 
L 683.069874 -284.12512 
L 683.060969 -283.672664 
L 683.019418 -283.220208 
L 683.011766 -282.767752 
L 682.998986 -282.315296 
L 682.992049 -281.86284 
L 682.940595 -281.410384 
L 682.934538 -280.957928 
L 682.912129 -280.505472 
L 682.897998 -280.053016 
L 682.894271 -279.60056 
L 682.850867 -279.148104 
L 682.836307 -278.695648 
L 682.791524 -278.243192 
L 682.777622 -277.790736 
L 682.772936 -277.33828 
L 682.658089 -276.885824 
L 682.656692 -276.433368 
L 682.509028 -275.980912 
L 682.500457 -275.528456 
L 682.474467 -275.076 
L 682.413229 -274.623544 
L 682.404184 -274.171088 
L 682.378225 -273.718632 
L 682.366078 -273.266176 
L 682.316738 -272.81372 
L 682.30446 -272.361264 
L 682.261508 -271.908808 
L 682.213898 -271.456352 
L 682.210319 -271.003896 
L 682.207298 -270.55144 
L 682.206159 -270.098984 
L 682.200547 -269.646528 
L 682.193086 -269.194072 
L 682.134557 -268.741616 
L 682.116213 -268.28916 
L 682.088739 -267.836704 
L 682.048046 -267.384248 
L 682.003675 -266.931792 
L 681.989074 -266.479336 
L 681.980327 -266.02688 
L 681.978801 -265.574424 
L 681.962906 -265.121968 
L 681.937935 -264.669512 
L 681.927651 -264.217056 
L 681.927191 -263.7646 
L 681.910709 -263.312144 
L 681.903866 -262.859688 
L 681.87422 -262.407232 
L 681.858978 -261.954776 
L 681.823517 -261.50232 
L 681.802368 -261.049864 
L 681.796739 -260.597408 
L 681.794555 -260.144953 
L 681.755206 -259.692497 
L 681.75457 -259.240041 
L 681.684298 -258.787585 
L 681.67573 -258.335129 
L 681.665017 -257.882673 
L 681.634515 -257.430217 
L 681.602322 -256.977761 
L 681.571176 -256.525305 
L 681.570289 -256.072849 
L 681.566062 -255.620393 
L 681.544425 -255.167937 
L 681.543404 -254.715481 
L 681.463531 -254.263025 
L 681.44988 -253.810569 
L 681.445845 -253.358113 
L 681.411943 -252.905657 
L 681.387088 -252.453201 
L 681.371439 -252.000745 
L 681.31215 -251.548289 
L 681.278913 -251.095833 
L 681.275773 -250.643377 
L 681.269953 -250.190921 
L 681.258216 -249.738465 
L 681.232971 -249.286009 
L 681.112258 -248.833553 
L 681.043193 -248.381097 
L 681.026268 -247.928641 
L 681.024676 -247.476185 
L 680.940154 -247.023729 
L 680.929357 -246.571273 
L 680.876494 -246.118817 
L 680.863467 -245.666361 
L 680.861433 -245.213905 
L 680.861239 -244.761449 
L 680.832834 -244.308993 
L 680.772608 -243.856537 
L 680.699101 -243.404081 
L 680.669917 -242.951625 
L 680.666142 -242.499169 
L 680.659607 -242.046713 
L 680.653122 -241.594257 
L 680.384515 -241.141801 
L 680.360798 -240.689345 
L 680.250678 -240.236889 
L 680.232417 -239.784433 
L 680.182019 -239.331977 
L 680.172618 -238.879521 
L 680.140559 -238.427065 
L 680.102752 -237.974609 
L 680.060221 -237.522153 
L 679.98189 -237.069697 
L 679.972374 -236.617241 
L 679.972146 -236.164785 
L 679.952186 -235.712329 
L 679.871614 -235.259873 
L 679.822497 -234.807417 
L 679.781991 -234.354961 
L 679.768012 -233.902505 
L 679.726858 -233.450049 
L 679.702936 -232.997593 
L 679.697461 -232.545137 
L 679.665673 -232.092681 
L 679.638507 -231.640225 
L 679.636158 -231.187769 
L 679.635571 -230.735313 
L 679.633027 -230.282857 
L 679.592627 -229.830401 
L 679.578279 -229.377945 
L 679.525621 -228.925489 
L 679.485319 -228.473033 
L 679.470025 -228.020577 
L 679.466195 -227.568121 
L 679.426874 -227.115665 
L 679.411417 -226.663209 
L 679.386612 -226.210753 
L 679.381047 -225.758297 
L 679.365235 -225.305841 
L 679.326707 -224.853385 
L 679.314114 -224.400929 
L 679.306486 -223.948473 
L 679.300604 -223.496017 
L 679.291637 -223.043561 
L 679.281994 -222.591105 
L 679.275441 -222.138649 
L 679.266566 -221.686193 
L 679.218514 -221.233737 
L 679.176689 -220.781281 
L 679.142246 -220.328825 
L 679.112362 -219.876369 
L 679.069357 -219.423913 
L 679.066015 -218.971457 
L 679.059605 -218.519001 
L 679.010238 -218.066545 
L 679.00745 -217.614089 
L 678.992094 -217.161633 
L 678.968535 -216.709177 
L 678.928973 -216.256721 
L 678.865653 -215.804265 
L 678.827829 -215.351809 
L 678.759808 -214.899353 
L 678.727021 -214.446897 
L 678.682372 -213.994441 
L 678.676311 -213.541985 
L 678.667467 -213.089529 
L 678.655586 -212.637073 
L 678.633095 -212.184617 
L 678.584983 -211.732161 
L 678.561613 -211.279705 
L 678.536684 -210.827249 
L 678.526167 -210.374793 
L 678.51566 -209.922337 
L 678.487156 -209.469881 
L 678.429421 -209.017425 
L 678.36437 -208.564969 
L 678.244875 -208.112513 
L 678.051817 -207.660057 
L 678.051552 -207.207601 
L 678.031343 -206.755145 
L 677.91679 -206.302689 
L 677.824087 -205.850233 
L 677.771957 -205.397777 
L 677.76276 -204.945321 
L 677.762744 -204.492865 
L 677.743458 -204.040409 
L 677.741157 -203.587953 
L 677.734338 -203.135497 
L 677.629241 -202.683041 
L 677.50874 -202.230585 
L 677.506855 -201.778129 
L 677.497715 -201.325673 
L 677.452414 -200.873217 
L 677.437212 -200.420761 
L 677.399249 -199.968305 
L 677.334003 -199.515849 
L 677.330825 -199.063393 
L 677.299411 -198.610937 
L 677.27951 -198.158481 
L 677.257963 -197.706025 
L 677.220044 -197.253569 
L 677.215287 -196.801113 
L 677.208689 -196.348657 
L 677.107652 -195.896201 
L 677.084265 -195.443745 
L 677.084086 -194.991289 
L 677.046209 -194.538833 
L 677.033226 -194.086377 
L 677.011122 -193.633921 
L 677.007646 -193.181465 
L 676.908606 -192.729009 
L 676.8535 -192.276553 
L 676.821235 -191.824097 
L 676.411167 -191.371641 
L 676.401684 -190.919185 
L 676.268134 -190.466729 
L 676.239364 -190.014273 
L 676.180396 -189.561817 
L 676.155506 -189.109361 
L 676.119789 -188.656905 
L 676.115127 -188.204449 
L 676.02328 -187.751993 
L 675.991549 -187.299537 
L 675.979364 -186.847081 
L 675.880667 -186.394625 
L 675.797156 -185.942169 
L 675.756737 -185.489713 
L 675.70801 -185.037257 
L 675.705216 -184.584801 
L 675.531972 -184.132345 
L 675.500586 -183.679889 
L 675.456429 -183.227433 
L 675.443304 -182.774977 
L 675.399934 -182.322521 
L 675.350503 -181.870065 
L 675.256421 -181.417609 
L 675.019256 -180.965153 
L 674.930798 -180.512697 
L 674.773321 -180.060241 
L 674.711806 -179.607785 
L 674.631404 -179.155329 
L 674.556381 -178.702873 
L 674.534357 -178.250417 
L 674.07845 -177.797961 
L 673.892797 -177.345505 
L 673.85452 -176.893049 
L 673.814312 -176.440593 
L 673.64634 -175.988137 
L 673.330889 -175.535681 
L 673.292728 -175.083225 
L 673.235447 -174.630769 
L 673.03652 -174.178313 
L 673.000139 -173.725857 
L 672.814626 -173.273401 
L 672.330179 -172.820945 
L 672.309864 -172.368489 
L 672.230062 -171.916033 
L 672.130426 -171.463577 
L 672.10562 -171.011121 
L 672.102635 -170.558665 
L 671.993133 -170.106209 
L 671.966213 -169.653753 
L 671.900765 -169.201297 
L 671.860051 -168.748841 
L 671.803618 -168.296385 
L 671.729969 -167.843929 
L 671.375825 -167.391473 
L 671.337048 -166.939017 
L 671.105008 -166.486561 
L 671.014576 -166.034105 
L 670.904196 -165.581649 
L 670.776671 -165.129193 
L 670.570963 -164.676737 
L 670.447485 -164.224281 
L 670.443763 -163.771825 
L 670.347828 -163.319369 
L 670.335408 -162.866913 
L 670.126292 -162.414457 
L 670.070264 -161.962001 
L 670.040502 -161.509545 
L 669.701654 -161.057089 
L 669.519248 -160.604633 
L 669.471819 -160.152177 
L 669.313694 -159.699721 
L 668.929555 -159.247265 
L 668.899825 -158.794809 
L 668.859133 -158.342353 
L 668.485457 -157.889897 
L 668.398458 -157.437441 
L 667.443402 -156.984985 
L 666.996149 -156.532529 
L 666.421836 -156.080073 
L 666.303842 -155.627617 
L 666.210769 -155.175161 
L 666.180741 -154.722705 
L 665.938845 -154.270249 
L 665.463835 -153.817793 
L 665.194533 -153.365337 
L 664.713696 -152.912881 
L 664.652568 -152.460425 
L 664.467055 -152.007969 
L 663.898523 -151.555513 
L 663.547502 -151.103057 
L 663.327407 -150.650601 
L 663.227104 -150.198145 
L 663.170068 -149.745689 
L 662.73183 -149.293233 
L 660.910665 -148.840777 
L 660.417583 -148.388321 
L 659.399868 -147.935865 
L 657.857559 -147.483409 
L 657.268006 -147.030953 
L 655.986888 -146.578497 
L 654.900736 -146.126041 
L 654.327117 -145.673585 
L 654.219846 -145.221129 
L 650.971412 -144.768673 
L 650.837132 -144.316217 
L 648.974622 -143.863761 
L 640.999305 -143.411305 
z
" style="stroke: #00a4bb; stroke-opacity: 0.7"/>
    </defs>
    <g clip-path="url(#p5e4bce6f4d)">
     <use xlink:href="#medcdc6469c" x="0" y="432" style="fill: #00a4bb; fill-opacity: 0.7; stroke: #00a4bb; stroke-opacity: 0.7"/>
    </g>
   </g>
   <g id="PolyCollection_7">
    <defs>
     <path id="ma0f11ef21c" d="M 363.773678 -361.04264 
L 363.773678 -361.04264 
L 363.773678 -361.04264 
L 363.773678 -361.04264 
z
" style="stroke: #00aa88; stroke-opacity: 0.7"/>
    </defs>
    <g clip-path="url(#p5e4bce6f4d)">
     <use xlink:href="#ma0f11ef21c" x="0" y="432" style="fill: #00aa88; fill-opacity: 0.7; stroke: #00aa88; stroke-opacity: 0.7"/>
    </g>
   </g>
   <g id="PolyCollection_8">
    <defs>
     <path id="mcded1ab73b" d="M 374.356326 -366.019656 
L 363.773678 -366.019656 
L 363.773678 -366.472112 
L 363.773678 -366.924568 
L 363.773678 -367.377024 
L 463.11832 -367.377024 
L 463.11832 -367.377024 
L 456.848638 -366.924568 
L 428.762104 -366.472112 
L 374.356326 -366.019656 
z
" style="stroke: #00a400; stroke-opacity: 0.7"/>
    </defs>
    <g clip-path="url(#p5e4bce6f4d)">
     <use xlink:href="#mcded1ab73b" x="0" y="432" style="fill: #00a400; fill-opacity: 0.7; stroke: #00a400; stroke-opacity: 0.7"/>
    </g>
   </g>
   <g id="PolyCollection_9">
    <defs>
     <path id="me8cee18599" d="M 365.667079 -372.35404 
L 363.773678 -372.35404 
L 363.773678 -372.806496 
L 363.773678 -373.258952 
L 363.773678 -373.711408 
L 363.773678 -374.163864 
L 363.773678 -374.61632 
L 363.773678 -375.068776 
L 363.773678 -375.521232 
L 363.773678 -375.973688 
L 363.773678 -376.426144 
L 363.773678 -376.8786 
L 457.418753 -376.8786 
L 457.418753 -376.8786 
L 452.687145 -376.426144 
L 437.214535 -375.973688 
L 435.405444 -375.521232 
L 432.991455 -375.068776 
L 424.64082 -374.61632 
L 422.134416 -374.163864 
L 421.853737 -373.711408 
L 417.466115 -373.258952 
L 370.316453 -372.806496 
L 365.667079 -372.35404 
z
" style="stroke: #00d200; stroke-opacity: 0.7"/>
    </defs>
    <g clip-path="url(#p5e4bce6f4d)">
     <use xlink:href="#me8cee18599" x="0" y="432" style="fill: #00d200; fill-opacity: 0.7; stroke: #00d200; stroke-opacity: 0.7"/>
    </g>
   </g>
   <g id="PolyCollection_10">
    <defs>
     <path id="m972a6d2867" d="M 363.773678 -381.855616 
L 363.773678 -381.855616 
L 363.773678 -381.855616 
L 363.773678 -381.855616 
z
" style="stroke: #00ff00; stroke-opacity: 0.7"/>
    </defs>
    <g clip-path="url(#p5e4bce6f4d)">
     <use xlink:href="#m972a6d2867" x="0" y="432" style="fill: #00ff00; fill-opacity: 0.7; stroke: #00ff00; stroke-opacity: 0.7"/>
    </g>
   </g>
   <g id="PolyCollection_11">
    <defs>
     <path id="m27f00022ba" d="M 317.571399 -386.832632 
L 363.773678 -386.832632 
L 363.773678 -387.285088 
L 363.773678 -387.737544 
L 363.773678 -388.19 
L 363.773678 -388.642456 
L 363.773678 -389.094912 
L 363.773678 -389.547368 
L 363.773678 -389.999824 
L 363.773678 -390.45228 
L 363.773678 -390.904736 
L 363.773678 -391.357192 
L 363.773678 -391.809648 
L 363.773678 -392.262104 
L 363.773678 -392.71456 
L 465.692512 -392.71456 
L 465.692512 -392.71456 
L 459.889412 -392.262104 
L 449.736601 -391.809648 
L 446.320254 -391.357192 
L 445.32383 -390.904736 
L 443.429454 -390.45228 
L 439.529904 -389.999824 
L 437.511163 -389.547368 
L 433.825556 -389.094912 
L 423.432327 -388.642456 
L 392.546487 -388.19 
L 384.309503 -387.737544 
L 377.879407 -387.285088 
L 317.571399 -386.832632 
z
" style="stroke: #ccf900; stroke-opacity: 0.7"/>
    </defs>
    <g clip-path="url(#p5e4bce6f4d)">
     <use xlink:href="#m27f00022ba" x="0" y="432" style="fill: #ccf900; fill-opacity: 0.7; stroke: #ccf900; stroke-opacity: 0.7"/>
    </g>
   </g>
   <g id="PolyCollection_12">
    <defs>
     <path id="m38a1a3f577" d="M 363.773678 -397.691576 
L 363.773678 -397.691576 
L 363.773678 -397.691576 
L 363.773678 -397.691576 
z
" style="stroke: #f9d700; stroke-opacity: 0.7"/>
    </defs>
    <g clip-path="url(#p5e4bce6f4d)">
     <use xlink:href="#m38a1a3f577" x="0" y="432" style="fill: #f9d700; fill-opacity: 0.7; stroke: #f9d700; stroke-opacity: 0.7"/>
    </g>
   </g>
   <g id="PolyCollection_13">
    <defs>
     <path id="m6c1f9b2d59" d="M 363.773678 -402.668592 
L 363.773678 -402.668592 
L 363.773678 -402.668592 
L 363.773678 -402.668592 
z
" style="stroke: #ff9900; stroke-opacity: 0.7"/>
    </defs>
    <g clip-path="url(#p5e4bce6f4d)">
     <use xlink:href="#m6c1f9b2d59" x="0" y="432" style="fill: #ff9900; fill-opacity: 0.7; stroke: #ff9900; stroke-opacity: 0.7"/>
    </g>
   </g>
   <g id="PolyCollection_14">
    <defs>
     <path id="m5b9895d4a4" d="M 363.773678 -407.645607 
L 363.773678 -407.645607 
L 363.773678 -407.645607 
L 363.773678 -407.645607 
z
" style="stroke: #f40000; stroke-opacity: 0.7"/>
    </defs>
    <g clip-path="url(#p5e4bce6f4d)">
     <use xlink:href="#m5b9895d4a4" x="0" y="432" style="fill: #f40000; fill-opacity: 0.7; stroke: #f40000; stroke-opacity: 0.7"/>
    </g>
   </g>
   <g id="PolyCollection_15">
    <defs>
     <path id="mabf1ff8bf1" d="M 363.773678 -412.622623 
L 363.773678 -412.622623 
L 363.773678 -412.622623 
L 363.773678 -412.622623 
z
" style="stroke: #d20000; stroke-opacity: 0.7"/>
    </defs>
    <g clip-path="url(#p5e4bce6f4d)">
     <use xlink:href="#mabf1ff8bf1" x="0" y="432" style="fill: #d20000; fill-opacity: 0.7; stroke: #d20000; stroke-opacity: 0.7"/>
    </g>
   </g>
   <g id="matplotlib.axis_1">
    <g id="xtick_1">
     <g id="line2d_1">
      <defs>
       <path id="m4cd19109db" d="M 0 0 
L 0 3.5 
" style="stroke: #000000; stroke-width: 0.8"/>
      </defs>
      <g>
       <use xlink:href="#m4cd19109db" x="27.978125" y="390.84375" style="stroke: #000000; stroke-width: 0.8"/>
      </g>
     </g>
     <g id="text_1">
      <!-- −1.0 -->
      <g transform="translate(15.836719 405.442187) scale(0.1 -0.1)">
       <defs>
        <path id="DejaVuSans-2212" d="M 678 2272 
L 4684 2272 
L 4684 1741 
L 678 1741 
L 678 2272 
z
" transform="scale(0.015625)"/>
        <path id="DejaVuSans-31" d="M 794 531 
L 1825 531 
L 1825 4091 
L 703 3866 
L 703 4441 
L 1819 4666 
L 2450 4666 
L 2450 531 
L 3481 531 
L 3481 0 
L 794 0 
L 794 531 
z
" transform="scale(0.015625)"/>
        <path id="DejaVuSans-2e" d="M 684 794 
L 1344 794 
L 1344 0 
L 684 0 
L 684 794 
z
" transform="scale(0.015625)"/>
        <path id="DejaVuSans-30" d="M 2034 4250 
Q 1547 4250 1301 3770 
Q 1056 3291 1056 2328 
Q 1056 1369 1301 889 
Q 1547 409 2034 409 
Q 2525 409 2770 889 
Q 3016 1369 3016 2328 
Q 3016 3291 2770 3770 
Q 2525 4250 2034 4250 
z
M 2034 4750 
Q 2819 4750 3233 4129 
Q 3647 3509 3647 2328 
Q 3647 1150 3233 529 
Q 2819 -91 2034 -91 
Q 1250 -91 836 529 
Q 422 1150 422 2328 
Q 422 3509 836 4129 
Q 1250 4750 2034 4750 
z
" transform="scale(0.015625)"/>
       </defs>
       <use xlink:href="#DejaVuSans-2212"/>
       <use xlink:href="#DejaVuSans-31" x="83.789062"/>
       <use xlink:href="#DejaVuSans-2e" x="147.412109"/>
       <use xlink:href="#DejaVuSans-30" x="179.199219"/>
      </g>
     </g>
    </g>
    <g id="xtick_2">
     <g id="line2d_2">
      <g>
       <use xlink:href="#m4cd19109db" x="95.137236" y="390.84375" style="stroke: #000000; stroke-width: 0.8"/>
      </g>
     </g>
     <g id="text_2">
      <!-- −0.8 -->
      <g transform="translate(82.995829 405.442187) scale(0.1 -0.1)">
       <defs>
        <path id="DejaVuSans-38" d="M 2034 2216 
Q 1584 2216 1326 1975 
Q 1069 1734 1069 1313 
Q 1069 891 1326 650 
Q 1584 409 2034 409 
Q 2484 409 2743 651 
Q 3003 894 3003 1313 
Q 3003 1734 2745 1975 
Q 2488 2216 2034 2216 
z
M 1403 2484 
Q 997 2584 770 2862 
Q 544 3141 544 3541 
Q 544 4100 942 4425 
Q 1341 4750 2034 4750 
Q 2731 4750 3128 4425 
Q 3525 4100 3525 3541 
Q 3525 3141 3298 2862 
Q 3072 2584 2669 2484 
Q 3125 2378 3379 2068 
Q 3634 1759 3634 1313 
Q 3634 634 3220 271 
Q 2806 -91 2034 -91 
Q 1263 -91 848 271 
Q 434 634 434 1313 
Q 434 1759 690 2068 
Q 947 2378 1403 2484 
z
M 1172 3481 
Q 1172 3119 1398 2916 
Q 1625 2713 2034 2713 
Q 2441 2713 2670 2916 
Q 2900 3119 2900 3481 
Q 2900 3844 2670 4047 
Q 2441 4250 2034 4250 
Q 1625 4250 1398 4047 
Q 1172 3844 1172 3481 
z
" transform="scale(0.015625)"/>
       </defs>
       <use xlink:href="#DejaVuSans-2212"/>
       <use xlink:href="#DejaVuSans-30" x="83.789062"/>
       <use xlink:href="#DejaVuSans-2e" x="147.412109"/>
       <use xlink:href="#DejaVuSans-38" x="179.199219"/>
      </g>
     </g>
    </g>
    <g id="xtick_3">
     <g id="line2d_3">
      <g>
       <use xlink:href="#m4cd19109db" x="162.296346" y="390.84375" style="stroke: #000000; stroke-width: 0.8"/>
      </g>
     </g>
     <g id="text_3">
      <!-- −0.6 -->
      <g transform="translate(150.15494 405.442187) scale(0.1 -0.1)">
       <defs>
        <path id="DejaVuSans-36" d="M 2113 2584 
Q 1688 2584 1439 2293 
Q 1191 2003 1191 1497 
Q 1191 994 1439 701 
Q 1688 409 2113 409 
Q 2538 409 2786 701 
Q 3034 994 3034 1497 
Q 3034 2003 2786 2293 
Q 2538 2584 2113 2584 
z
M 3366 4563 
L 3366 3988 
Q 3128 4100 2886 4159 
Q 2644 4219 2406 4219 
Q 1781 4219 1451 3797 
Q 1122 3375 1075 2522 
Q 1259 2794 1537 2939 
Q 1816 3084 2150 3084 
Q 2853 3084 3261 2657 
Q 3669 2231 3669 1497 
Q 3669 778 3244 343 
Q 2819 -91 2113 -91 
Q 1303 -91 875 529 
Q 447 1150 447 2328 
Q 447 3434 972 4092 
Q 1497 4750 2381 4750 
Q 2619 4750 2861 4703 
Q 3103 4656 3366 4563 
z
" transform="scale(0.015625)"/>
       </defs>
       <use xlink:href="#DejaVuSans-2212"/>
       <use xlink:href="#DejaVuSans-30" x="83.789062"/>
       <use xlink:href="#DejaVuSans-2e" x="147.412109"/>
       <use xlink:href="#DejaVuSans-36" x="179.199219"/>
      </g>
     </g>
    </g>
    <g id="xtick_4">
     <g id="line2d_4">
      <g>
       <use xlink:href="#m4cd19109db" x="229.455457" y="390.84375" style="stroke: #000000; stroke-width: 0.8"/>
      </g>
     </g>
     <g id="text_4">
      <!-- −0.4 -->
      <g transform="translate(217.314051 405.442187) scale(0.1 -0.1)">
       <defs>
        <path id="DejaVuSans-34" d="M 2419 4116 
L 825 1625 
L 2419 1625 
L 2419 4116 
z
M 2253 4666 
L 3047 4666 
L 3047 1625 
L 3713 1625 
L 3713 1100 
L 3047 1100 
L 3047 0 
L 2419 0 
L 2419 1100 
L 313 1100 
L 313 1709 
L 2253 4666 
z
" transform="scale(0.015625)"/>
       </defs>
       <use xlink:href="#DejaVuSans-2212"/>
       <use xlink:href="#DejaVuSans-30" x="83.789062"/>
       <use xlink:href="#DejaVuSans-2e" x="147.412109"/>
       <use xlink:href="#DejaVuSans-34" x="179.199219"/>
      </g>
     </g>
    </g>
    <g id="xtick_5">
     <g id="line2d_5">
      <g>
       <use xlink:href="#m4cd19109db" x="296.614568" y="390.84375" style="stroke: #000000; stroke-width: 0.8"/>
      </g>
     </g>
     <g id="text_5">
      <!-- −0.2 -->
      <g transform="translate(284.473161 405.442187) scale(0.1 -0.1)">
       <defs>
        <path id="DejaVuSans-32" d="M 1228 531 
L 3431 531 
L 3431 0 
L 469 0 
L 469 531 
Q 828 903 1448 1529 
Q 2069 2156 2228 2338 
Q 2531 2678 2651 2914 
Q 2772 3150 2772 3378 
Q 2772 3750 2511 3984 
Q 2250 4219 1831 4219 
Q 1534 4219 1204 4116 
Q 875 4013 500 3803 
L 500 4441 
Q 881 4594 1212 4672 
Q 1544 4750 1819 4750 
Q 2544 4750 2975 4387 
Q 3406 4025 3406 3419 
Q 3406 3131 3298 2873 
Q 3191 2616 2906 2266 
Q 2828 2175 2409 1742 
Q 1991 1309 1228 531 
z
" transform="scale(0.015625)"/>
       </defs>
       <use xlink:href="#DejaVuSans-2212"/>
       <use xlink:href="#DejaVuSans-30" x="83.789062"/>
       <use xlink:href="#DejaVuSans-2e" x="147.412109"/>
       <use xlink:href="#DejaVuSans-32" x="179.199219"/>
      </g>
     </g>
    </g>
    <g id="xtick_6">
     <g id="line2d_6">
      <g>
       <use xlink:href="#m4cd19109db" x="363.773678" y="390.84375" style="stroke: #000000; stroke-width: 0.8"/>
      </g>
     </g>
     <g id="text_6">
      <!-- 0.0 -->
      <g transform="translate(355.822116 405.442187) scale(0.1 -0.1)">
       <use xlink:href="#DejaVuSans-30"/>
       <use xlink:href="#DejaVuSans-2e" x="63.623047"/>
       <use xlink:href="#DejaVuSans-30" x="95.410156"/>
      </g>
     </g>
    </g>
    <g id="xtick_7">
     <g id="line2d_7">
      <g>
       <use xlink:href="#m4cd19109db" x="430.932789" y="390.84375" style="stroke: #000000; stroke-width: 0.8"/>
      </g>
     </g>
     <g id="text_7">
      <!-- 0.2 -->
      <g transform="translate(422.981226 405.442187) scale(0.1 -0.1)">
       <use xlink:href="#DejaVuSans-30"/>
       <use xlink:href="#DejaVuSans-2e" x="63.623047"/>
       <use xlink:href="#DejaVuSans-32" x="95.410156"/>
      </g>
     </g>
    </g>
    <g id="xtick_8">
     <g id="line2d_8">
      <g>
       <use xlink:href="#m4cd19109db" x="498.0919" y="390.84375" style="stroke: #000000; stroke-width: 0.8"/>
      </g>
     </g>
     <g id="text_8">
      <!-- 0.4 -->
      <g transform="translate(490.140337 405.442187) scale(0.1 -0.1)">
       <use xlink:href="#DejaVuSans-30"/>
       <use xlink:href="#DejaVuSans-2e" x="63.623047"/>
       <use xlink:href="#DejaVuSans-34" x="95.410156"/>
      </g>
     </g>
    </g>
    <g id="xtick_9">
     <g id="line2d_9">
      <g>
       <use xlink:href="#m4cd19109db" x="565.25101" y="390.84375" style="stroke: #000000; stroke-width: 0.8"/>
      </g>
     </g>
     <g id="text_9">
      <!-- 0.6 -->
      <g transform="translate(557.299448 405.442187) scale(0.1 -0.1)">
       <use xlink:href="#DejaVuSans-30"/>
       <use xlink:href="#DejaVuSans-2e" x="63.623047"/>
       <use xlink:href="#DejaVuSans-36" x="95.410156"/>
      </g>
     </g>
    </g>
    <g id="xtick_10">
     <g id="line2d_10">
      <g>
       <use xlink:href="#m4cd19109db" x="632.410121" y="390.84375" style="stroke: #000000; stroke-width: 0.8"/>
      </g>
     </g>
     <g id="text_10">
      <!-- 0.8 -->
      <g transform="translate(624.458558 405.442187) scale(0.1 -0.1)">
       <use xlink:href="#DejaVuSans-30"/>
       <use xlink:href="#DejaVuSans-2e" x="63.623047"/>
       <use xlink:href="#DejaVuSans-38" x="95.410156"/>
      </g>
     </g>
    </g>
    <g id="xtick_11">
     <g id="line2d_11">
      <g>
       <use xlink:href="#m4cd19109db" x="699.569232" y="390.84375" style="stroke: #000000; stroke-width: 0.8"/>
      </g>
     </g>
     <g id="text_11">
      <!-- 1.0 -->
      <g transform="translate(691.617669 405.442187) scale(0.1 -0.1)">
       <use xlink:href="#DejaVuSans-31"/>
       <use xlink:href="#DejaVuSans-2e" x="63.623047"/>
       <use xlink:href="#DejaVuSans-30" x="95.410156"/>
      </g>
     </g>
    </g>
    <g id="text_12">
     <!-- Silhouette coefficient -->
     <g transform="translate(315.275475 419.120313) scale(0.1 -0.1)">
      <defs>
       <path id="DejaVuSans-53" d="M 3425 4513 
L 3425 3897 
Q 3066 4069 2747 4153 
Q 2428 4238 2131 4238 
Q 1616 4238 1336 4038 
Q 1056 3838 1056 3469 
Q 1056 3159 1242 3001 
Q 1428 2844 1947 2747 
L 2328 2669 
Q 3034 2534 3370 2195 
Q 3706 1856 3706 1288 
Q 3706 609 3251 259 
Q 2797 -91 1919 -91 
Q 1588 -91 1214 -16 
Q 841 59 441 206 
L 441 856 
Q 825 641 1194 531 
Q 1563 422 1919 422 
Q 2459 422 2753 634 
Q 3047 847 3047 1241 
Q 3047 1584 2836 1778 
Q 2625 1972 2144 2069 
L 1759 2144 
Q 1053 2284 737 2584 
Q 422 2884 422 3419 
Q 422 4038 858 4394 
Q 1294 4750 2059 4750 
Q 2388 4750 2728 4690 
Q 3069 4631 3425 4513 
z
" transform="scale(0.015625)"/>
       <path id="DejaVuSans-69" d="M 603 3500 
L 1178 3500 
L 1178 0 
L 603 0 
L 603 3500 
z
M 603 4863 
L 1178 4863 
L 1178 4134 
L 603 4134 
L 603 4863 
z
" transform="scale(0.015625)"/>
       <path id="DejaVuSans-6c" d="M 603 4863 
L 1178 4863 
L 1178 0 
L 603 0 
L 603 4863 
z
" transform="scale(0.015625)"/>
       <path id="DejaVuSans-68" d="M 3513 2113 
L 3513 0 
L 2938 0 
L 2938 2094 
Q 2938 2591 2744 2837 
Q 2550 3084 2163 3084 
Q 1697 3084 1428 2787 
Q 1159 2491 1159 1978 
L 1159 0 
L 581 0 
L 581 4863 
L 1159 4863 
L 1159 2956 
Q 1366 3272 1645 3428 
Q 1925 3584 2291 3584 
Q 2894 3584 3203 3211 
Q 3513 2838 3513 2113 
z
" transform="scale(0.015625)"/>
       <path id="DejaVuSans-6f" d="M 1959 3097 
Q 1497 3097 1228 2736 
Q 959 2375 959 1747 
Q 959 1119 1226 758 
Q 1494 397 1959 397 
Q 2419 397 2687 759 
Q 2956 1122 2956 1747 
Q 2956 2369 2687 2733 
Q 2419 3097 1959 3097 
z
M 1959 3584 
Q 2709 3584 3137 3096 
Q 3566 2609 3566 1747 
Q 3566 888 3137 398 
Q 2709 -91 1959 -91 
Q 1206 -91 779 398 
Q 353 888 353 1747 
Q 353 2609 779 3096 
Q 1206 3584 1959 3584 
z
" transform="scale(0.015625)"/>
       <path id="DejaVuSans-75" d="M 544 1381 
L 544 3500 
L 1119 3500 
L 1119 1403 
Q 1119 906 1312 657 
Q 1506 409 1894 409 
Q 2359 409 2629 706 
Q 2900 1003 2900 1516 
L 2900 3500 
L 3475 3500 
L 3475 0 
L 2900 0 
L 2900 538 
Q 2691 219 2414 64 
Q 2138 -91 1772 -91 
Q 1169 -91 856 284 
Q 544 659 544 1381 
z
M 1991 3584 
L 1991 3584 
z
" transform="scale(0.015625)"/>
       <path id="DejaVuSans-65" d="M 3597 1894 
L 3597 1613 
L 953 1613 
Q 991 1019 1311 708 
Q 1631 397 2203 397 
Q 2534 397 2845 478 
Q 3156 559 3463 722 
L 3463 178 
Q 3153 47 2828 -22 
Q 2503 -91 2169 -91 
Q 1331 -91 842 396 
Q 353 884 353 1716 
Q 353 2575 817 3079 
Q 1281 3584 2069 3584 
Q 2775 3584 3186 3129 
Q 3597 2675 3597 1894 
z
M 3022 2063 
Q 3016 2534 2758 2815 
Q 2500 3097 2075 3097 
Q 1594 3097 1305 2825 
Q 1016 2553 972 2059 
L 3022 2063 
z
" transform="scale(0.015625)"/>
       <path id="DejaVuSans-74" d="M 1172 4494 
L 1172 3500 
L 2356 3500 
L 2356 3053 
L 1172 3053 
L 1172 1153 
Q 1172 725 1289 603 
Q 1406 481 1766 481 
L 2356 481 
L 2356 0 
L 1766 0 
Q 1100 0 847 248 
Q 594 497 594 1153 
L 594 3053 
L 172 3053 
L 172 3500 
L 594 3500 
L 594 4494 
L 1172 4494 
z
" transform="scale(0.015625)"/>
       <path id="DejaVuSans-20" transform="scale(0.015625)"/>
       <path id="DejaVuSans-63" d="M 3122 3366 
L 3122 2828 
Q 2878 2963 2633 3030 
Q 2388 3097 2138 3097 
Q 1578 3097 1268 2742 
Q 959 2388 959 1747 
Q 959 1106 1268 751 
Q 1578 397 2138 397 
Q 2388 397 2633 464 
Q 2878 531 3122 666 
L 3122 134 
Q 2881 22 2623 -34 
Q 2366 -91 2075 -91 
Q 1284 -91 818 406 
Q 353 903 353 1747 
Q 353 2603 823 3093 
Q 1294 3584 2113 3584 
Q 2378 3584 2631 3529 
Q 2884 3475 3122 3366 
z
" transform="scale(0.015625)"/>
       <path id="DejaVuSans-66" d="M 2375 4863 
L 2375 4384 
L 1825 4384 
Q 1516 4384 1395 4259 
Q 1275 4134 1275 3809 
L 1275 3500 
L 2222 3500 
L 2222 3053 
L 1275 3053 
L 1275 0 
L 697 0 
L 697 3053 
L 147 3053 
L 147 3500 
L 697 3500 
L 697 3744 
Q 697 4328 969 4595 
Q 1241 4863 1831 4863 
L 2375 4863 
z
" transform="scale(0.015625)"/>
       <path id="DejaVuSans-6e" d="M 3513 2113 
L 3513 0 
L 2938 0 
L 2938 2094 
Q 2938 2591 2744 2837 
Q 2550 3084 2163 3084 
Q 1697 3084 1428 2787 
Q 1159 2491 1159 1978 
L 1159 0 
L 581 0 
L 581 3500 
L 1159 3500 
L 1159 2956 
Q 1366 3272 1645 3428 
Q 1925 3584 2291 3584 
Q 2894 3584 3203 3211 
Q 3513 2838 3513 2113 
z
" transform="scale(0.015625)"/>
      </defs>
      <use xlink:href="#DejaVuSans-53"/>
      <use xlink:href="#DejaVuSans-69" x="63.476562"/>
      <use xlink:href="#DejaVuSans-6c" x="91.259766"/>
      <use xlink:href="#DejaVuSans-68" x="119.042969"/>
      <use xlink:href="#DejaVuSans-6f" x="182.421875"/>
      <use xlink:href="#DejaVuSans-75" x="243.603516"/>
      <use xlink:href="#DejaVuSans-65" x="306.982422"/>
      <use xlink:href="#DejaVuSans-74" x="368.505859"/>
      <use xlink:href="#DejaVuSans-74" x="407.714844"/>
      <use xlink:href="#DejaVuSans-65" x="446.923828"/>
      <use xlink:href="#DejaVuSans-20" x="508.447266"/>
      <use xlink:href="#DejaVuSans-63" x="540.234375"/>
      <use xlink:href="#DejaVuSans-6f" x="595.214844"/>
      <use xlink:href="#DejaVuSans-65" x="656.396484"/>
      <use xlink:href="#DejaVuSans-66" x="717.919922"/>
      <use xlink:href="#DejaVuSans-66" x="753.125"/>
      <use xlink:href="#DejaVuSans-69" x="788.330078"/>
      <use xlink:href="#DejaVuSans-63" x="816.113281"/>
      <use xlink:href="#DejaVuSans-69" x="871.09375"/>
      <use xlink:href="#DejaVuSans-65" x="898.876953"/>
      <use xlink:href="#DejaVuSans-6e" x="960.400391"/>
      <use xlink:href="#DejaVuSans-74" x="1023.779297"/>
     </g>
    </g>
   </g>
   <g id="matplotlib.axis_2">
    <g id="text_13">
     <!-- Predicted label -->
     <g transform="translate(18.398438 239.774399) rotate(-90) scale(0.1 -0.1)">
      <defs>
       <path id="DejaVuSans-50" d="M 1259 4147 
L 1259 2394 
L 2053 2394 
Q 2494 2394 2734 2622 
Q 2975 2850 2975 3272 
Q 2975 3691 2734 3919 
Q 2494 4147 2053 4147 
L 1259 4147 
z
M 628 4666 
L 2053 4666 
Q 2838 4666 3239 4311 
Q 3641 3956 3641 3272 
Q 3641 2581 3239 2228 
Q 2838 1875 2053 1875 
L 1259 1875 
L 1259 0 
L 628 0 
L 628 4666 
z
" transform="scale(0.015625)"/>
       <path id="DejaVuSans-72" d="M 2631 2963 
Q 2534 3019 2420 3045 
Q 2306 3072 2169 3072 
Q 1681 3072 1420 2755 
Q 1159 2438 1159 1844 
L 1159 0 
L 581 0 
L 581 3500 
L 1159 3500 
L 1159 2956 
Q 1341 3275 1631 3429 
Q 1922 3584 2338 3584 
Q 2397 3584 2469 3576 
Q 2541 3569 2628 3553 
L 2631 2963 
z
" transform="scale(0.015625)"/>
       <path id="DejaVuSans-64" d="M 2906 2969 
L 2906 4863 
L 3481 4863 
L 3481 0 
L 2906 0 
L 2906 525 
Q 2725 213 2448 61 
Q 2172 -91 1784 -91 
Q 1150 -91 751 415 
Q 353 922 353 1747 
Q 353 2572 751 3078 
Q 1150 3584 1784 3584 
Q 2172 3584 2448 3432 
Q 2725 3281 2906 2969 
z
M 947 1747 
Q 947 1113 1208 752 
Q 1469 391 1925 391 
Q 2381 391 2643 752 
Q 2906 1113 2906 1747 
Q 2906 2381 2643 2742 
Q 2381 3103 1925 3103 
Q 1469 3103 1208 2742 
Q 947 2381 947 1747 
z
" transform="scale(0.015625)"/>
       <path id="DejaVuSans-61" d="M 2194 1759 
Q 1497 1759 1228 1600 
Q 959 1441 959 1056 
Q 959 750 1161 570 
Q 1363 391 1709 391 
Q 2188 391 2477 730 
Q 2766 1069 2766 1631 
L 2766 1759 
L 2194 1759 
z
M 3341 1997 
L 3341 0 
L 2766 0 
L 2766 531 
Q 2569 213 2275 61 
Q 1981 -91 1556 -91 
Q 1019 -91 701 211 
Q 384 513 384 1019 
Q 384 1609 779 1909 
Q 1175 2209 1959 2209 
L 2766 2209 
L 2766 2266 
Q 2766 2663 2505 2880 
Q 2244 3097 1772 3097 
Q 1472 3097 1187 3025 
Q 903 2953 641 2809 
L 641 3341 
Q 956 3463 1253 3523 
Q 1550 3584 1831 3584 
Q 2591 3584 2966 3190 
Q 3341 2797 3341 1997 
z
" transform="scale(0.015625)"/>
       <path id="DejaVuSans-62" d="M 3116 1747 
Q 3116 2381 2855 2742 
Q 2594 3103 2138 3103 
Q 1681 3103 1420 2742 
Q 1159 2381 1159 1747 
Q 1159 1113 1420 752 
Q 1681 391 2138 391 
Q 2594 391 2855 752 
Q 3116 1113 3116 1747 
z
M 1159 2969 
Q 1341 3281 1617 3432 
Q 1894 3584 2278 3584 
Q 2916 3584 3314 3078 
Q 3713 2572 3713 1747 
Q 3713 922 3314 415 
Q 2916 -91 2278 -91 
Q 1894 -91 1617 61 
Q 1341 213 1159 525 
L 1159 0 
L 581 0 
L 581 4863 
L 1159 4863 
L 1159 2969 
z
" transform="scale(0.015625)"/>
      </defs>
      <use xlink:href="#DejaVuSans-50"/>
      <use xlink:href="#DejaVuSans-72" x="58.552734"/>
      <use xlink:href="#DejaVuSans-65" x="97.416016"/>
      <use xlink:href="#DejaVuSans-64" x="158.939453"/>
      <use xlink:href="#DejaVuSans-69" x="222.416016"/>
      <use xlink:href="#DejaVuSans-63" x="250.199219"/>
      <use xlink:href="#DejaVuSans-74" x="305.179688"/>
      <use xlink:href="#DejaVuSans-65" x="344.388672"/>
      <use xlink:href="#DejaVuSans-64" x="405.912109"/>
      <use xlink:href="#DejaVuSans-20" x="469.388672"/>
      <use xlink:href="#DejaVuSans-6c" x="501.175781"/>
      <use xlink:href="#DejaVuSans-61" x="528.958984"/>
      <use xlink:href="#DejaVuSans-62" x="590.238281"/>
      <use xlink:href="#DejaVuSans-65" x="653.714844"/>
      <use xlink:href="#DejaVuSans-6c" x="715.238281"/>
     </g>
    </g>
   </g>
   <g id="line2d_12">
    <path d="M 606.557448 390.84375 
L 606.557448 14.400361 
" clip-path="url(#p5e4bce6f4d)" style="fill: none; stroke: #ff0000; stroke-width: 1.5; stroke-linecap: square"/>
   </g>
   <g id="patch_3">
    <path d="M 27.978125 390.84375 
L 27.978125 14.400361 
" style="fill: none; stroke: #000000; stroke-width: 0.8; stroke-linejoin: miter; stroke-linecap: square"/>
   </g>
   <g id="patch_4">
    <path d="M 708.872825 390.84375 
L 708.872825 14.400361 
" style="fill: none; stroke: #000000; stroke-width: 0.8; stroke-linejoin: miter; stroke-linecap: square"/>
   </g>
   <g id="patch_5">
    <path d="M 27.978125 390.84375 
L 708.872825 390.84375 
" style="fill: none; stroke: #000000; stroke-width: 0.8; stroke-linejoin: miter; stroke-linecap: square"/>
   </g>
   <g id="patch_6">
    <path d="M 27.978125 14.400361 
L 708.872825 14.400361 
" style="fill: none; stroke: #000000; stroke-width: 0.8; stroke-linejoin: miter; stroke-linecap: square"/>
   </g>
   <g id="text_14">
    <!-- 0 -->
    <g transform="translate(346.983901 355.325954) scale(0.1 -0.1)">
     <use xlink:href="#DejaVuSans-30"/>
    </g>
   </g>
   <g id="text_15">
    <!-- 1 -->
    <g transform="translate(346.983901 318.903246) scale(0.1 -0.1)">
     <use xlink:href="#DejaVuSans-31"/>
    </g>
   </g>
   <g id="text_16">
    <!-- 2 -->
    <g transform="translate(346.983901 313.021319) scale(0.1 -0.1)">
     <use xlink:href="#DejaVuSans-32"/>
    </g>
   </g>
   <g id="text_17">
    <!-- 3 -->
    <g transform="translate(346.983901 307.139391) scale(0.1 -0.1)">
     <defs>
      <path id="DejaVuSans-33" d="M 2597 2516 
Q 3050 2419 3304 2112 
Q 3559 1806 3559 1356 
Q 3559 666 3084 287 
Q 2609 -91 1734 -91 
Q 1441 -91 1130 -33 
Q 819 25 488 141 
L 488 750 
Q 750 597 1062 519 
Q 1375 441 1716 441 
Q 2309 441 2620 675 
Q 2931 909 2931 1356 
Q 2931 1769 2642 2001 
Q 2353 2234 1838 2234 
L 1294 2234 
L 1294 2753 
L 1863 2753 
Q 2328 2753 2575 2939 
Q 2822 3125 2822 3475 
Q 2822 3834 2567 4026 
Q 2313 4219 1838 4219 
Q 1578 4219 1281 4162 
Q 984 4106 628 3988 
L 628 4550 
Q 988 4650 1302 4700 
Q 1616 4750 1894 4750 
Q 2613 4750 3031 4423 
Q 3450 4097 3450 3541 
Q 3450 3153 3228 2886 
Q 3006 2619 2597 2516 
z
" transform="scale(0.015625)"/>
     </defs>
     <use xlink:href="#DejaVuSans-33"/>
    </g>
   </g>
   <g id="text_18">
    <!-- 4 -->
    <g transform="translate(346.983901 297.411587) scale(0.1 -0.1)">
     <use xlink:href="#DejaVuSans-34"/>
    </g>
   </g>
   <g id="text_19">
    <!-- 5 -->
    <g transform="translate(346.983901 182.035307) scale(0.1 -0.1)">
     <defs>
      <path id="DejaVuSans-35" d="M 691 4666 
L 3169 4666 
L 3169 4134 
L 1269 4134 
L 1269 2991 
Q 1406 3038 1543 3061 
Q 1681 3084 1819 3084 
Q 2600 3084 3056 2656 
Q 3513 2228 3513 1497 
Q 3513 744 3044 326 
Q 2575 -91 1722 -91 
Q 1428 -91 1123 -41 
Q 819 9 494 109 
L 494 744 
Q 775 591 1075 516 
Q 1375 441 1709 441 
Q 2250 441 2565 725 
Q 2881 1009 2881 1497 
Q 2881 1984 2565 2268 
Q 2250 2553 1709 2553 
Q 1456 2553 1204 2497 
Q 953 2441 691 2322 
L 691 4666 
z
" transform="scale(0.015625)"/>
     </defs>
     <use xlink:href="#DejaVuSans-35"/>
    </g>
   </g>
   <g id="text_20">
    <!-- 6 -->
    <g transform="translate(346.983901 70.731132) scale(0.1 -0.1)">
     <use xlink:href="#DejaVuSans-36"/>
    </g>
   </g>
   <g id="text_21">
    <!-- 7 -->
    <g transform="translate(346.983901 65.075432) scale(0.1 -0.1)">
     <defs>
      <path id="DejaVuSans-37" d="M 525 4666 
L 3525 4666 
L 3525 4397 
L 1831 0 
L 1172 0 
L 2766 4134 
L 525 4134 
L 525 4666 
z
" transform="scale(0.015625)"/>
     </defs>
     <use xlink:href="#DejaVuSans-37"/>
    </g>
   </g>
   <g id="text_22">
    <!-- 8 -->
    <g transform="translate(346.983901 57.157452) scale(0.1 -0.1)">
     <use xlink:href="#DejaVuSans-38"/>
    </g>
   </g>
   <g id="text_23">
    <!-- 9 -->
    <g transform="translate(346.983901 49.918156) scale(0.1 -0.1)">
     <defs>
      <path id="DejaVuSans-39" d="M 703 97 
L 703 672 
Q 941 559 1184 500 
Q 1428 441 1663 441 
Q 2288 441 2617 861 
Q 2947 1281 2994 2138 
Q 2813 1869 2534 1725 
Q 2256 1581 1919 1581 
Q 1219 1581 811 2004 
Q 403 2428 403 3163 
Q 403 3881 828 4315 
Q 1253 4750 1959 4750 
Q 2769 4750 3195 4129 
Q 3622 3509 3622 2328 
Q 3622 1225 3098 567 
Q 2575 -91 1691 -91 
Q 1453 -91 1209 -44 
Q 966 3 703 97 
z
M 1959 2075 
Q 2384 2075 2632 2365 
Q 2881 2656 2881 3163 
Q 2881 3666 2632 3958 
Q 2384 4250 1959 4250 
Q 1534 4250 1286 3958 
Q 1038 3666 1038 3163 
Q 1038 2656 1286 2365 
Q 1534 2075 1959 2075 
z
" transform="scale(0.015625)"/>
     </defs>
     <use xlink:href="#DejaVuSans-39"/>
    </g>
   </g>
   <g id="text_24">
    <!-- 10 -->
    <g transform="translate(346.983901 42.000176) scale(0.1 -0.1)">
     <use xlink:href="#DejaVuSans-31"/>
     <use xlink:href="#DejaVuSans-30" x="63.623047"/>
    </g>
   </g>
   <g id="text_25">
    <!-- 11 -->
    <g transform="translate(346.983901 34.082196) scale(0.1 -0.1)">
     <use xlink:href="#DejaVuSans-31"/>
     <use xlink:href="#DejaVuSans-31" x="63.623047"/>
    </g>
   </g>
   <g id="text_26">
    <!-- 12 -->
    <g transform="translate(346.983901 29.10518) scale(0.1 -0.1)">
     <use xlink:href="#DejaVuSans-31"/>
     <use xlink:href="#DejaVuSans-32" x="63.623047"/>
    </g>
   </g>
   <g id="text_27">
    <!-- 13 -->
    <g transform="translate(346.983901 24.128165) scale(0.1 -0.1)">
     <use xlink:href="#DejaVuSans-31"/>
     <use xlink:href="#DejaVuSans-33" x="63.623047"/>
    </g>
   </g>
   <g id="text_28">
    <!-- 14 -->
    <g transform="translate(346.983901 19.151149) scale(0.1 -0.1)">
     <use xlink:href="#DejaVuSans-31"/>
     <use xlink:href="#DejaVuSans-34" x="63.623047"/>
    </g>
   </g>
   <g id="text_29">
    <!-- 0.7230 -->
    <g style="fill: #ff0000" transform="translate(623.347225 18.924921) scale(0.1 -0.1)">
     <use xlink:href="#DejaVuSans-30"/>
     <use xlink:href="#DejaVuSans-2e" x="63.623047"/>
     <use xlink:href="#DejaVuSans-37" x="95.410156"/>
     <use xlink:href="#DejaVuSans-32" x="159.033203"/>
     <use xlink:href="#DejaVuSans-33" x="222.65625"/>
     <use xlink:href="#DejaVuSans-30" x="286.279297"/>
    </g>
   </g>
  </g>
 </g>
 <defs>
  <clipPath id="p5e4bce6f4d">
   <rect x="27.978125" y="14.400361" width="680.8947" height="376.443389"/>
  </clipPath>
 </defs>
</svg>
