<?xml version="1.0" encoding="utf-8" standalone="no"?>
<!DOCTYPE svg PUBLIC "-//W3C//DTD SVG 1.1//EN"
  "http://www.w3.org/Graphics/SVG/1.1/DTD/svg11.dtd">
<svg xmlns:xlink="http://www.w3.org/1999/xlink" width="720pt" height="432pt" viewBox="0 0 720 432" xmlns="http://www.w3.org/2000/svg" version="1.1">
 <metadata>
  <rdf:RDF xmlns:dc="http://purl.org/dc/elements/1.1/" xmlns:cc="http://creativecommons.org/ns#" xmlns:rdf="http://www.w3.org/1999/02/22-rdf-syntax-ns#">
   <cc:Work>
    <dc:type rdf:resource="http://purl.org/dc/dcmitype/StillImage"/>
    <dc:date>2022-11-03T12:28:05.895132</dc:date>
    <dc:format>image/svg+xml</dc:format>
    <dc:creator>
     <cc:Agent>
      <dc:title>Matplotlib v3.6.1, https://matplotlib.org/</dc:title>
     </cc:Agent>
    </dc:creator>
   </cc:Work>
  </rdf:RDF>
 </metadata>
 <defs>
  <style type="text/css">*{stroke-linejoin: round; stroke-linecap: butt}</style>
 </defs>
 <g id="figure_1">
  <g id="patch_1">
   <path d="M 0 432 
L 720 432 
L 720 0 
L 0 0 
z
" style="fill: #ffffff"/>
  </g>
  <g id="axes_1">
   <g id="patch_2">
    <path d="M 27.978125 390.84375 
L 709.2 390.84375 
L 709.2 14.447844 
L 27.978125 14.447844 
z
" style="fill: #ffffff"/>
   </g>
   <g id="PolyCollection_1">
    <defs>
     <path id="m0c1e36ee61" d="M 65.022378 -45.62651 
L 353.2515 -45.62651 
L 353.2515 -46.073536 
L 353.2515 -46.520562 
L 353.2515 -46.967588 
L 353.2515 -47.414614 
L 353.2515 -47.86164 
L 353.2515 -48.308666 
L 353.2515 -48.755692 
L 353.2515 -49.202718 
L 353.2515 -49.649744 
L 353.2515 -50.09677 
L 353.2515 -50.543796 
L 353.2515 -50.990822 
L 353.2515 -51.437848 
L 353.2515 -51.884874 
L 353.2515 -52.3319 
L 353.2515 -52.778926 
L 353.2515 -53.225952 
L 353.2515 -53.672978 
L 353.2515 -54.120004 
L 353.2515 -54.567031 
L 353.2515 -55.014057 
L 353.2515 -55.461083 
L 353.2515 -55.908109 
L 670.165944 -55.908109 
L 670.165944 -55.908109 
L 670.054857 -55.461083 
L 667.472044 -55.014057 
L 667.472044 -54.567031 
L 667.444152 -54.120004 
L 666.797198 -53.672978 
L 661.423202 -53.225952 
L 656.663451 -52.778926 
L 656.516498 -52.3319 
L 648.871105 -51.884874 
L 647.913273 -51.437848 
L 639.683896 -50.990822 
L 638.769897 -50.543796 
L 638.28 -50.09677 
L 123.348465 -49.649744 
L 121.62134 -49.202718 
L 117.704364 -48.755692 
L 113.218319 -48.308666 
L 106.929616 -47.86164 
L 104.657606 -47.414614 
L 100.75733 -46.967588 
L 96.852835 -46.520562 
L 71.307689 -46.073536 
L 65.022378 -45.62651 
z
" style="stroke: #000000; stroke-opacity: 0.7"/>
    </defs>
    <g clip-path="url(#p7373479b87)">
     <use xlink:href="#m0c1e36ee61" x="0" y="432" style="fill-opacity: 0.7; stroke: #000000; stroke-opacity: 0.7"/>
    </g>
   </g>
   <g id="PolyCollection_2">
    <defs>
     <path id="ma90e861bd4" d="M 112.896082 -60.825395 
L 353.2515 -60.825395 
L 353.2515 -61.272421 
L 353.2515 -61.719447 
L 353.2515 -62.166473 
L 353.2515 -62.613499 
L 353.2515 -63.060525 
L 353.2515 -63.507551 
L 353.2515 -63.954577 
L 353.2515 -64.401603 
L 353.2515 -64.848629 
L 353.2515 -65.295655 
L 353.2515 -65.742681 
L 353.2515 -66.189707 
L 353.2515 -66.636733 
L 353.2515 -67.083759 
L 353.2515 -67.530785 
L 353.2515 -67.977811 
L 353.2515 -68.424837 
L 353.2515 -68.871863 
L 353.2515 -69.318889 
L 353.2515 -69.765915 
L 353.2515 -70.212941 
L 353.2515 -70.659967 
L 353.2515 -71.106993 
L 353.2515 -71.554019 
L 353.2515 -72.001045 
L 353.2515 -72.448071 
L 353.2515 -72.895097 
L 353.2515 -73.342123 
L 353.2515 -73.789149 
L 353.2515 -74.236175 
L 353.2515 -74.683201 
L 353.2515 -75.130227 
L 353.2515 -75.577253 
L 353.2515 -76.024279 
L 353.2515 -76.471305 
L 353.2515 -76.918331 
L 353.2515 -77.365357 
L 353.2515 -77.812383 
L 353.2515 -78.259409 
L 353.2515 -78.706435 
L 353.2515 -79.153461 
L 353.2515 -79.600487 
L 353.2515 -80.047513 
L 353.2515 -80.494539 
L 353.2515 -80.941566 
L 353.2515 -81.388592 
L 353.2515 -81.835618 
L 353.2515 -82.282644 
L 353.2515 -82.72967 
L 353.2515 -83.176696 
L 353.2515 -83.623722 
L 353.2515 -84.070748 
L 353.2515 -84.517774 
L 353.2515 -84.9648 
L 353.2515 -85.411826 
L 353.2515 -85.858852 
L 353.2515 -86.305878 
L 353.2515 -86.752904 
L 353.2515 -87.19993 
L 353.2515 -87.646956 
L 353.2515 -88.093982 
L 353.2515 -88.541008 
L 353.2515 -88.988034 
L 353.2515 -89.43506 
L 353.2515 -89.882086 
L 353.2515 -90.329112 
L 353.2515 -90.776138 
L 353.2515 -91.223164 
L 353.2515 -91.67019 
L 353.2515 -92.117216 
L 353.2515 -92.564242 
L 353.2515 -93.011268 
L 353.2515 -93.458294 
L 353.2515 -93.90532 
L 353.2515 -94.352346 
L 353.2515 -94.799372 
L 353.2515 -95.246398 
L 353.2515 -95.693424 
L 353.2515 -96.14045 
L 353.2515 -96.587476 
L 353.2515 -97.034502 
L 353.2515 -97.481528 
L 353.2515 -97.928554 
L 353.2515 -98.37558 
L 353.2515 -98.822606 
L 353.2515 -99.269632 
L 353.2515 -99.716658 
L 353.2515 -100.163684 
L 353.2515 -100.61071 
L 353.2515 -101.057736 
L 353.2515 -101.504762 
L 353.2515 -101.951788 
L 353.2515 -102.398814 
L 678.111034 -102.398814 
L 678.111034 -102.398814 
L 677.728933 -101.951788 
L 677.305225 -101.504762 
L 677.246733 -101.057736 
L 677.097614 -100.61071 
L 676.990118 -100.163684 
L 676.977373 -99.716658 
L 676.972494 -99.269632 
L 676.950958 -98.822606 
L 676.921523 -98.37558 
L 676.910554 -97.928554 
L 676.903569 -97.481528 
L 676.89445 -97.034502 
L 676.871361 -96.587476 
L 676.815113 -96.14045 
L 676.714622 -95.693424 
L 676.695913 -95.246398 
L 676.670276 -94.799372 
L 676.66973 -94.352346 
L 676.618612 -93.90532 
L 676.566855 -93.458294 
L 676.55068 -93.011268 
L 676.522009 -92.564242 
L 676.516664 -92.117216 
L 676.516117 -91.67019 
L 676.502328 -91.223164 
L 676.481151 -90.776138 
L 676.475825 -90.329112 
L 676.455689 -89.882086 
L 676.429085 -89.43506 
L 676.377551 -88.988034 
L 676.364268 -88.541008 
L 676.35788 -88.093982 
L 676.290987 -87.646956 
L 676.280578 -87.19993 
L 676.25321 -86.752904 
L 676.243204 -86.305878 
L 676.205603 -85.858852 
L 676.145005 -85.411826 
L 676.121348 -84.9648 
L 676.120596 -84.517774 
L 676.093477 -84.070748 
L 676.075782 -83.623722 
L 676.072826 -83.176696 
L 676.06886 -82.72967 
L 676.056287 -82.282644 
L 676.037244 -81.835618 
L 676.025311 -81.388592 
L 676.008286 -80.941566 
L 676.006549 -80.494539 
L 675.968953 -80.047513 
L 675.959899 -79.600487 
L 675.952952 -79.153461 
L 675.931745 -78.706435 
L 675.923728 -78.259409 
L 675.882718 -77.812383 
L 675.881857 -77.365357 
L 675.879363 -76.918331 
L 675.853014 -76.471305 
L 675.839981 -76.024279 
L 675.805831 -75.577253 
L 675.774599 -75.130227 
L 675.772583 -74.683201 
L 675.764485 -74.236175 
L 675.665501 -73.789149 
L 675.624807 -73.342123 
L 675.620164 -72.895097 
L 675.573339 -72.448071 
L 675.517067 -72.001045 
L 675.473325 -71.554019 
L 675.470443 -71.106993 
L 675.46554 -70.659967 
L 675.388535 -70.212941 
L 675.337199 -69.765915 
L 675.315643 -69.318889 
L 675.266825 -68.871863 
L 675.032762 -68.424837 
L 674.902306 -67.977811 
L 674.872803 -67.530785 
L 673.966054 -67.083759 
L 672.490792 -66.636733 
L 671.023615 -66.189707 
L 668.869156 -65.742681 
L 667.909815 -65.295655 
L 661.521096 -64.848629 
L 648.642137 -64.401603 
L 446.697632 -63.954577 
L 398.566647 -63.507551 
L 368.020475 -63.060525 
L 240.24775 -62.613499 
L 230.486872 -62.166473 
L 179.935268 -61.719447 
L 146.784709 -61.272421 
L 112.896082 -60.825395 
z
" style="stroke: #7b008c; stroke-opacity: 0.7"/>
    </defs>
    <g clip-path="url(#p7373479b87)">
     <use xlink:href="#ma90e861bd4" x="0" y="432" style="fill: #7b008c; fill-opacity: 0.7; stroke: #7b008c; stroke-opacity: 0.7"/>
    </g>
   </g>
   <g id="PolyCollection_3">
    <defs>
     <path id="m3c3044bf71" d="M 68.108722 -107.316101 
L 353.2515 -107.316101 
L 353.2515 -107.763127 
L 353.2515 -108.210153 
L 353.2515 -108.657179 
L 353.2515 -109.104205 
L 353.2515 -109.551231 
L 353.2515 -109.998257 
L 353.2515 -110.445283 
L 353.2515 -110.892309 
L 353.2515 -111.339335 
L 353.2515 -111.786361 
L 353.2515 -112.233387 
L 353.2515 -112.680413 
L 353.2515 -113.127439 
L 353.2515 -113.574465 
L 353.2515 -114.021491 
L 353.2515 -114.468517 
L 353.2515 -114.915543 
L 353.2515 -115.362569 
L 353.2515 -115.809595 
L 353.2515 -116.256621 
L 353.2515 -116.703647 
L 353.2515 -117.150673 
L 353.2515 -117.597699 
L 353.2515 -118.044725 
L 353.2515 -118.491751 
L 353.2515 -118.938777 
L 353.2515 -119.385803 
L 353.2515 -119.832829 
L 677.677675 -119.832829 
L 677.677675 -119.832829 
L 677.541722 -119.385803 
L 677.316373 -118.938777 
L 676.915396 -118.491751 
L 676.542016 -118.044725 
L 675.560742 -117.597699 
L 632.340472 -117.150673 
L 617.901326 -116.703647 
L 612.436835 -116.256621 
L 594.710396 -115.809595 
L 575.844715 -115.362569 
L 563.478197 -114.915543 
L 548.118667 -114.468517 
L 546.05714 -114.021491 
L 537.96812 -113.574465 
L 504.281562 -113.127439 
L 499.832004 -112.680413 
L 486.414558 -112.233387 
L 458.456235 -111.786361 
L 412.774055 -111.339335 
L 350.407903 -110.892309 
L 296.755245 -110.445283 
L 249.758372 -109.998257 
L 197.258661 -109.551231 
L 197.143286 -109.104205 
L 142.057442 -108.657179 
L 135.348567 -108.210153 
L 132.426431 -107.763127 
L 68.108722 -107.316101 
z
" style="stroke: #4300a2; stroke-opacity: 0.7"/>
    </defs>
    <g clip-path="url(#p7373479b87)">
     <use xlink:href="#m3c3044bf71" x="0" y="432" style="fill: #4300a2; fill-opacity: 0.7; stroke: #4300a2; stroke-opacity: 0.7"/>
    </g>
   </g>
   <g id="PolyCollection_4">
    <defs>
     <path id="m71166f82ac" d="M 202.076978 -124.750115 
L 353.2515 -124.750115 
L 353.2515 -125.197141 
L 353.2515 -125.644167 
L 353.2515 -126.091193 
L 353.2515 -126.538219 
L 353.2515 -126.985245 
L 353.2515 -127.432271 
L 353.2515 -127.879297 
L 353.2515 -128.326323 
L 353.2515 -128.773349 
L 353.2515 -129.220375 
L 353.2515 -129.667401 
L 353.2515 -130.114427 
L 353.2515 -130.561453 
L 353.2515 -131.008479 
L 353.2515 -131.455505 
L 353.2515 -131.902531 
L 353.2515 -132.349557 
L 353.2515 -132.796583 
L 353.2515 -133.24361 
L 353.2515 -133.690636 
L 353.2515 -134.137662 
L 353.2515 -134.584688 
L 353.2515 -135.031714 
L 353.2515 -135.47874 
L 353.2515 -135.925766 
L 353.2515 -136.372792 
L 353.2515 -136.819818 
L 353.2515 -137.266844 
L 353.2515 -137.71387 
L 353.2515 -138.160896 
L 353.2515 -138.607922 
L 353.2515 -139.054948 
L 353.2515 -139.501974 
L 353.2515 -139.949 
L 353.2515 -140.396026 
L 353.2515 -140.843052 
L 353.2515 -141.290078 
L 353.2515 -141.737104 
L 353.2515 -142.18413 
L 353.2515 -142.631156 
L 353.2515 -143.078182 
L 353.2515 -143.525208 
L 353.2515 -143.972234 
L 353.2515 -144.41926 
L 353.2515 -144.866286 
L 353.2515 -145.313312 
L 353.2515 -145.760338 
L 353.2515 -146.207364 
L 353.2515 -146.65439 
L 353.2515 -147.101416 
L 353.2515 -147.548442 
L 353.2515 -147.995468 
L 353.2515 -148.442494 
L 353.2515 -148.88952 
L 353.2515 -149.336546 
L 353.2515 -149.783572 
L 353.2515 -150.230598 
L 353.2515 -150.677624 
L 353.2515 -151.12465 
L 353.2515 -151.571676 
L 353.2515 -152.018702 
L 353.2515 -152.465728 
L 353.2515 -152.912754 
L 353.2515 -153.35978 
L 353.2515 -153.806806 
L 353.2515 -154.253832 
L 353.2515 -154.700858 
L 353.2515 -155.147884 
L 353.2515 -155.59491 
L 353.2515 -156.041936 
L 353.2515 -156.488962 
L 353.2515 -156.935988 
L 353.2515 -157.383014 
L 353.2515 -157.83004 
L 353.2515 -158.277066 
L 353.2515 -158.724092 
L 353.2515 -159.171118 
L 353.2515 -159.618145 
L 353.2515 -160.065171 
L 353.2515 -160.512197 
L 353.2515 -160.959223 
L 353.2515 -161.406249 
L 353.2515 -161.853275 
L 353.2515 -162.300301 
L 353.2515 -162.747327 
L 353.2515 -163.194353 
L 353.2515 -163.641379 
L 353.2515 -164.088405 
L 353.2515 -164.535431 
L 678.283107 -164.535431 
L 678.283107 -164.535431 
L 677.686652 -164.088405 
L 677.63275 -163.641379 
L 677.629586 -163.194353 
L 677.411594 -162.747327 
L 677.296714 -162.300301 
L 670.79786 -161.853275 
L 670.607029 -161.406249 
L 670.344175 -160.959223 
L 670.154677 -160.512197 
L 669.881177 -160.065171 
L 669.715969 -159.618145 
L 668.687453 -159.171118 
L 667.491163 -158.724092 
L 667.197464 -158.277066 
L 666.990524 -157.83004 
L 666.535219 -157.383014 
L 666.384649 -156.935988 
L 666.27816 -156.488962 
L 666.022897 -156.041936 
L 665.689258 -155.59491 
L 665.298466 -155.147884 
L 665.004612 -154.700858 
L 664.832007 -154.253832 
L 664.703723 -153.806806 
L 664.398946 -153.35978 
L 664.204445 -152.912754 
L 664.196681 -152.465728 
L 664.017451 -152.018702 
L 662.911996 -151.571676 
L 662.407828 -151.12465 
L 661.901757 -150.677624 
L 661.516301 -150.230598 
L 661.411749 -149.783572 
L 661.248652 -149.336546 
L 660.866873 -148.88952 
L 660.164901 -148.442494 
L 659.695297 -147.995468 
L 658.612384 -147.548442 
L 658.313116 -147.101416 
L 657.353748 -146.65439 
L 657.286282 -146.207364 
L 656.97381 -145.760338 
L 655.664795 -145.313312 
L 655.150027 -144.866286 
L 654.908136 -144.41926 
L 654.744537 -143.972234 
L 653.709207 -143.525208 
L 652.34322 -143.078182 
L 651.520575 -142.631156 
L 649.379126 -142.18413 
L 648.940298 -141.737104 
L 648.646013 -141.290078 
L 648.589484 -140.843052 
L 648.440771 -140.396026 
L 647.279801 -139.949 
L 646.738423 -139.501974 
L 644.510308 -139.054948 
L 642.140161 -138.607922 
L 637.799641 -138.160896 
L 636.928774 -137.71387 
L 634.490073 -137.266844 
L 634.436796 -136.819818 
L 626.998252 -136.372792 
L 626.460773 -135.925766 
L 620.682238 -135.47874 
L 618.498157 -135.031714 
L 617.031883 -134.584688 
L 616.171122 -134.137662 
L 611.196254 -133.690636 
L 606.61675 -133.24361 
L 601.327991 -132.796583 
L 598.687992 -132.349557 
L 591.076825 -131.902531 
L 584.328342 -131.455505 
L 576.106994 -131.008479 
L 574.504314 -130.561453 
L 573.963042 -130.114427 
L 570.617973 -129.667401 
L 568.170191 -129.220375 
L 560.425763 -128.773349 
L 555.69404 -128.326323 
L 543.717542 -127.879297 
L 515.517659 -127.432271 
L 512.016504 -126.985245 
L 507.67293 -126.538219 
L 489.978212 -126.091193 
L 394.973076 -125.644167 
L 297.403167 -125.197141 
L 202.076978 -124.750115 
z
" style="stroke: #0000d1; stroke-opacity: 0.7"/>
    </defs>
    <g clip-path="url(#p7373479b87)">
     <use xlink:href="#m71166f82ac" x="0" y="432" style="fill: #0000d1; fill-opacity: 0.7; stroke: #0000d1; stroke-opacity: 0.7"/>
    </g>
   </g>
   <g id="PolyCollection_5">
    <defs>
     <path id="m08cde59166" d="M 151.642591 -169.452717 
L 353.2515 -169.452717 
L 353.2515 -169.899743 
L 353.2515 -170.346769 
L 353.2515 -170.793795 
L 353.2515 -171.240821 
L 353.2515 -171.687847 
L 353.2515 -172.134873 
L 353.2515 -172.581899 
L 353.2515 -173.028925 
L 353.2515 -173.475951 
L 353.2515 -173.922977 
L 353.2515 -174.370003 
L 353.2515 -174.817029 
L 353.2515 -175.264055 
L 353.2515 -175.711081 
L 353.2515 -176.158107 
L 353.2515 -176.605133 
L 353.2515 -177.052159 
L 353.2515 -177.499185 
L 353.2515 -177.946211 
L 353.2515 -178.393237 
L 677.410946 -178.393237 
L 677.410946 -178.393237 
L 674.975947 -177.946211 
L 667.758949 -177.499185 
L 666.514611 -177.052159 
L 665.323699 -176.605133 
L 664.814779 -176.158107 
L 659.034657 -175.711081 
L 653.780763 -175.264055 
L 648.621225 -174.817029 
L 643.188767 -174.370003 
L 638.867414 -173.922977 
L 638.201354 -173.475951 
L 633.292586 -173.028925 
L 631.542049 -172.581899 
L 629.960853 -172.134873 
L 622.533435 -171.687847 
L 622.514442 -171.240821 
L 615.863807 -170.793795 
L 588.203409 -170.346769 
L 306.412386 -169.899743 
L 151.642591 -169.452717 
z
" style="stroke: #0078dd; stroke-opacity: 0.7"/>
    </defs>
    <g clip-path="url(#p7373479b87)">
     <use xlink:href="#m08cde59166" x="0" y="432" style="fill: #0078dd; fill-opacity: 0.7; stroke: #0078dd; stroke-opacity: 0.7"/>
    </g>
   </g>
   <g id="PolyCollection_6">
    <defs>
     <path id="mbf0091b5f6" d="M 207.094008 -183.310523 
L 353.2515 -183.310523 
L 353.2515 -183.757549 
L 353.2515 -184.204575 
L 353.2515 -184.651601 
L 353.2515 -185.098627 
L 353.2515 -185.545653 
L 353.2515 -185.99268 
L 353.2515 -186.439706 
L 353.2515 -186.886732 
L 353.2515 -187.333758 
L 353.2515 -187.780784 
L 671.745378 -187.780784 
L 671.745378 -187.780784 
L 667.24758 -187.333758 
L 665.847684 -186.886732 
L 655.306908 -186.439706 
L 650.935043 -185.99268 
L 647.776358 -185.545653 
L 647.344583 -185.098627 
L 645.786323 -184.651601 
L 645.472503 -184.204575 
L 302.544269 -183.757549 
L 207.094008 -183.310523 
z
" style="stroke: #009ecf; stroke-opacity: 0.7"/>
    </defs>
    <g clip-path="url(#p7373479b87)">
     <use xlink:href="#mbf0091b5f6" x="0" y="432" style="fill: #009ecf; fill-opacity: 0.7; stroke: #009ecf; stroke-opacity: 0.7"/>
    </g>
   </g>
   <g id="PolyCollection_7">
    <defs>
     <path id="m9af04db15c" d="M 380.611836 -192.69807 
L 353.2515 -192.69807 
L 353.2515 -193.145096 
L 353.2515 -193.592122 
L 353.2515 -194.039148 
L 353.2515 -194.486174 
L 353.2515 -194.9332 
L 353.2515 -195.380226 
L 353.2515 -195.827252 
L 353.2515 -196.274278 
L 353.2515 -196.721304 
L 353.2515 -197.16833 
L 353.2515 -197.615356 
L 353.2515 -198.062382 
L 353.2515 -198.509408 
L 353.2515 -198.956434 
L 353.2515 -199.40346 
L 353.2515 -199.850486 
L 353.2515 -200.297512 
L 353.2515 -200.744538 
L 353.2515 -201.191564 
L 353.2515 -201.63859 
L 353.2515 -202.085616 
L 353.2515 -202.532642 
L 353.2515 -202.979668 
L 353.2515 -203.426694 
L 353.2515 -203.87372 
L 353.2515 -204.320746 
L 353.2515 -204.767772 
L 353.2515 -205.214798 
L 353.2515 -205.661824 
L 353.2515 -206.10885 
L 353.2515 -206.555876 
L 353.2515 -207.002902 
L 353.2515 -207.449928 
L 353.2515 -207.896954 
L 353.2515 -208.34398 
L 353.2515 -208.791006 
L 353.2515 -209.238032 
L 353.2515 -209.685058 
L 353.2515 -210.132084 
L 353.2515 -210.57911 
L 353.2515 -211.026136 
L 353.2515 -211.473162 
L 353.2515 -211.920188 
L 353.2515 -212.367215 
L 353.2515 -212.814241 
L 353.2515 -213.261267 
L 353.2515 -213.708293 
L 353.2515 -214.155319 
L 353.2515 -214.602345 
L 353.2515 -215.049371 
L 353.2515 -215.496397 
L 353.2515 -215.943423 
L 353.2515 -216.390449 
L 353.2515 -216.837475 
L 353.2515 -217.284501 
L 353.2515 -217.731527 
L 353.2515 -218.178553 
L 353.2515 -218.625579 
L 353.2515 -219.072605 
L 353.2515 -219.519631 
L 353.2515 -219.966657 
L 353.2515 -220.413683 
L 353.2515 -220.860709 
L 353.2515 -221.307735 
L 353.2515 -221.754761 
L 353.2515 -222.201787 
L 353.2515 -222.648813 
L 353.2515 -223.095839 
L 353.2515 -223.542865 
L 353.2515 -223.989891 
L 353.2515 -224.436917 
L 353.2515 -224.883943 
L 353.2515 -225.330969 
L 353.2515 -225.777995 
L 353.2515 -226.225021 
L 353.2515 -226.672047 
L 353.2515 -227.119073 
L 353.2515 -227.566099 
L 353.2515 -228.013125 
L 353.2515 -228.460151 
L 353.2515 -228.907177 
L 353.2515 -229.354203 
L 353.2515 -229.801229 
L 353.2515 -230.248255 
L 353.2515 -230.695281 
L 353.2515 -231.142307 
L 353.2515 -231.589333 
L 353.2515 -232.036359 
L 353.2515 -232.483385 
L 353.2515 -232.930411 
L 353.2515 -233.377437 
L 353.2515 -233.824463 
L 353.2515 -234.271489 
L 353.2515 -234.718515 
L 353.2515 -235.165541 
L 353.2515 -235.612567 
L 353.2515 -236.059593 
L 353.2515 -236.506619 
L 353.2515 -236.953645 
L 353.2515 -237.400671 
L 353.2515 -237.847697 
L 353.2515 -238.294724 
L 353.2515 -238.74175 
L 353.2515 -239.188776 
L 353.2515 -239.635802 
L 353.2515 -240.082828 
L 353.2515 -240.529854 
L 353.2515 -240.97688 
L 353.2515 -241.423906 
L 353.2515 -241.870932 
L 353.2515 -242.317958 
L 353.2515 -242.764984 
L 353.2515 -243.21201 
L 353.2515 -243.659036 
L 353.2515 -244.106062 
L 353.2515 -244.553088 
L 353.2515 -245.000114 
L 353.2515 -245.44714 
L 353.2515 -245.894166 
L 353.2515 -246.341192 
L 353.2515 -246.788218 
L 353.2515 -247.235244 
L 353.2515 -247.68227 
L 353.2515 -248.129296 
L 353.2515 -248.576322 
L 353.2515 -249.023348 
L 353.2515 -249.470374 
L 353.2515 -249.9174 
L 353.2515 -250.364426 
L 353.2515 -250.811452 
L 353.2515 -251.258478 
L 353.2515 -251.705504 
L 353.2515 -252.15253 
L 353.2515 -252.599556 
L 353.2515 -253.046582 
L 353.2515 -253.493608 
L 353.2515 -253.940634 
L 353.2515 -254.38766 
L 353.2515 -254.834686 
L 353.2515 -255.281712 
L 353.2515 -255.728738 
L 353.2515 -256.175764 
L 353.2515 -256.62279 
L 353.2515 -257.069816 
L 353.2515 -257.516842 
L 353.2515 -257.963868 
L 353.2515 -258.410894 
L 353.2515 -258.85792 
L 353.2515 -259.304946 
L 353.2515 -259.751972 
L 353.2515 -260.198998 
L 353.2515 -260.646024 
L 353.2515 -261.09305 
L 353.2515 -261.540076 
L 353.2515 -261.987102 
L 353.2515 -262.434128 
L 353.2515 -262.881154 
L 353.2515 -263.32818 
L 353.2515 -263.775206 
L 353.2515 -264.222232 
L 353.2515 -264.669259 
L 353.2515 -265.116285 
L 353.2515 -265.563311 
L 353.2515 -266.010337 
L 353.2515 -266.457363 
L 353.2515 -266.904389 
L 353.2515 -267.351415 
L 353.2515 -267.798441 
L 353.2515 -268.245467 
L 353.2515 -268.692493 
L 353.2515 -269.139519 
L 353.2515 -269.586545 
L 353.2515 -270.033571 
L 353.2515 -270.480597 
L 353.2515 -270.927623 
L 353.2515 -271.374649 
L 353.2515 -271.821675 
L 353.2515 -272.268701 
L 353.2515 -272.715727 
L 353.2515 -273.162753 
L 353.2515 -273.609779 
L 353.2515 -274.056805 
L 677.378106 -274.056805 
L 677.378106 -274.056805 
L 677.320672 -273.609779 
L 677.284602 -273.162753 
L 677.27397 -272.715727 
L 677.139381 -272.268701 
L 677.131598 -271.821675 
L 677.10175 -271.374649 
L 677.057236 -270.927623 
L 677.055577 -270.480597 
L 677.040601 -270.033571 
L 677.009728 -269.586545 
L 677.000837 -269.139519 
L 676.998923 -268.692493 
L 676.952575 -268.245467 
L 676.945679 -267.798441 
L 676.940634 -267.351415 
L 676.91493 -266.904389 
L 676.867796 -266.457363 
L 676.864082 -266.010337 
L 676.789821 -265.563311 
L 676.774448 -265.116285 
L 676.741454 -264.669259 
L 676.726247 -264.222232 
L 676.720737 -263.775206 
L 676.619201 -263.32818 
L 676.606826 -262.881154 
L 676.583069 -262.434128 
L 676.582524 -261.987102 
L 676.552104 -261.540076 
L 676.524298 -261.09305 
L 676.518476 -260.646024 
L 676.494443 -260.198998 
L 676.480047 -259.751972 
L 676.44957 -259.304946 
L 676.446032 -258.85792 
L 676.406296 -258.410894 
L 676.389479 -257.963868 
L 676.378912 -257.516842 
L 676.373889 -257.069816 
L 676.340123 -256.62279 
L 676.334854 -256.175764 
L 676.234209 -255.728738 
L 676.232507 -255.281712 
L 676.209665 -254.834686 
L 676.205188 -254.38766 
L 676.178334 -253.940634 
L 676.159855 -253.493608 
L 676.141269 -253.046582 
L 676.140228 -252.599556 
L 676.132642 -252.15253 
L 676.130283 -251.705504 
L 676.114467 -251.258478 
L 676.111412 -250.811452 
L 675.998096 -250.364426 
L 675.984677 -249.9174 
L 675.982105 -249.470374 
L 675.96811 -249.023348 
L 675.944883 -248.576322 
L 675.938397 -248.129296 
L 675.918238 -247.68227 
L 675.911868 -247.235244 
L 675.910032 -246.788218 
L 675.905367 -246.341192 
L 675.903828 -245.894166 
L 675.882043 -245.44714 
L 675.86617 -245.000114 
L 675.811394 -244.553088 
L 675.80438 -244.106062 
L 675.7842 -243.659036 
L 675.780376 -243.21201 
L 675.733392 -242.764984 
L 675.729022 -242.317958 
L 675.726118 -241.870932 
L 675.71167 -241.423906 
L 675.663997 -240.97688 
L 675.658724 -240.529854 
L 675.64925 -240.082828 
L 675.633517 -239.635802 
L 675.629267 -239.188776 
L 675.623941 -238.74175 
L 675.583412 -238.294724 
L 675.573629 -237.847697 
L 675.55886 -237.400671 
L 675.537519 -236.953645 
L 675.513558 -236.506619 
L 675.510917 -236.059593 
L 675.489186 -235.612567 
L 675.452688 -235.165541 
L 675.44669 -234.718515 
L 675.43711 -234.271489 
L 675.433892 -233.824463 
L 675.433371 -233.377437 
L 675.427343 -232.930411 
L 675.406598 -232.483385 
L 675.402093 -232.036359 
L 675.332406 -231.589333 
L 675.321908 -231.142307 
L 675.263689 -230.695281 
L 675.260998 -230.248255 
L 675.208032 -229.801229 
L 675.102206 -229.354203 
L 674.958519 -228.907177 
L 674.894269 -228.460151 
L 674.863596 -228.013125 
L 674.806089 -227.566099 
L 674.739826 -227.119073 
L 674.72238 -226.672047 
L 674.719809 -226.225021 
L 674.620058 -225.777995 
L 674.585927 -225.330969 
L 674.402414 -224.883943 
L 674.367645 -224.436917 
L 674.025003 -223.989891 
L 673.861229 -223.542865 
L 673.791925 -223.095839 
L 673.771899 -222.648813 
L 673.634181 -222.201787 
L 673.57835 -221.754761 
L 672.985813 -221.307735 
L 672.779728 -220.860709 
L 672.527383 -220.413683 
L 672.521882 -219.966657 
L 672.466212 -219.519631 
L 672.427629 -219.072605 
L 672.328002 -218.625579 
L 671.684297 -218.178553 
L 671.456972 -217.731527 
L 671.422878 -217.284501 
L 671.267298 -216.837475 
L 671.064656 -216.390449 
L 670.998655 -215.943423 
L 670.832875 -215.496397 
L 670.466997 -215.049371 
L 669.936935 -214.602345 
L 669.885515 -214.155319 
L 669.358692 -213.708293 
L 669.325376 -213.261267 
L 669.07675 -212.814241 
L 668.995904 -212.367215 
L 668.994781 -211.920188 
L 668.58175 -211.473162 
L 668.32383 -211.026136 
L 668.150677 -210.57911 
L 668.115266 -210.132084 
L 667.811261 -209.685058 
L 667.579345 -209.238032 
L 667.556531 -208.791006 
L 667.004347 -208.34398 
L 666.735547 -207.896954 
L 666.118211 -207.449928 
L 666.006716 -207.002902 
L 665.877803 -206.555876 
L 665.699273 -206.10885 
L 665.217221 -205.661824 
L 665.17024 -205.214798 
L 665.166537 -204.767772 
L 665.070719 -204.320746 
L 664.267898 -203.87372 
L 663.438506 -203.426694 
L 662.584884 -202.979668 
L 660.268032 -202.532642 
L 658.392011 -202.085616 
L 657.690029 -201.63859 
L 642.6514 -201.191564 
L 641.04721 -200.744538 
L 639.416796 -200.297512 
L 635.696912 -199.850486 
L 634.888472 -199.40346 
L 629.693073 -198.956434 
L 626.330288 -198.509408 
L 617.709681 -198.062382 
L 614.869577 -197.615356 
L 609.528496 -197.16833 
L 607.535573 -196.721304 
L 602.259616 -196.274278 
L 594.780911 -195.827252 
L 593.322874 -195.380226 
L 589.322907 -194.9332 
L 585.110694 -194.486174 
L 580.86219 -194.039148 
L 551.775252 -193.592122 
L 521.62346 -193.145096 
L 380.611836 -192.69807 
z
" style="stroke: #00aa98; stroke-opacity: 0.7"/>
    </defs>
    <g clip-path="url(#p7373479b87)">
     <use xlink:href="#m9af04db15c" x="0" y="432" style="fill: #00aa98; fill-opacity: 0.7; stroke: #00aa98; stroke-opacity: 0.7"/>
    </g>
   </g>
   <g id="PolyCollection_8">
    <defs>
     <path id="m0a72042d5a" d="M 677.783312 -278.974091 
L 353.2515 -278.974091 
L 353.2515 -279.421117 
L 353.2515 -279.868143 
L 353.2515 -280.315169 
L 353.2515 -280.762195 
L 353.2515 -281.209221 
L 353.2515 -281.656247 
L 353.2515 -282.103273 
L 678.502253 -282.103273 
L 678.502253 -282.103273 
L 678.467748 -281.656247 
L 678.465194 -281.209221 
L 678.365059 -280.762195 
L 678.320845 -280.315169 
L 678.289335 -279.868143 
L 678.214404 -279.421117 
L 677.783312 -278.974091 
z
" style="stroke: #009d1d; stroke-opacity: 0.7"/>
    </defs>
    <g clip-path="url(#p7373479b87)">
     <use xlink:href="#m0a72042d5a" x="0" y="432" style="fill: #009d1d; fill-opacity: 0.7; stroke: #009d1d; stroke-opacity: 0.7"/>
    </g>
   </g>
   <g id="PolyCollection_9">
    <defs>
     <path id="m630c73a1ac" d="M 484.259606 -287.020559 
L 353.2515 -287.020559 
L 353.2515 -287.467585 
L 353.2515 -287.914611 
L 353.2515 -288.361637 
L 353.2515 -288.808663 
L 353.2515 -289.255689 
L 659.219802 -289.255689 
L 659.219802 -289.255689 
L 644.63741 -288.808663 
L 632.815148 -288.361637 
L 596.626804 -287.914611 
L 582.724776 -287.467585 
L 484.259606 -287.020559 
z
" style="stroke: #00bc00; stroke-opacity: 0.7"/>
    </defs>
    <g clip-path="url(#p7373479b87)">
     <use xlink:href="#m630c73a1ac" x="0" y="432" style="fill: #00bc00; fill-opacity: 0.7; stroke: #00bc00; stroke-opacity: 0.7"/>
    </g>
   </g>
   <g id="PolyCollection_10">
    <defs>
     <path id="m220ef7b387" d="M 245.265432 -294.172976 
L 353.2515 -294.172976 
L 353.2515 -294.620002 
L 353.2515 -295.067028 
L 353.2515 -295.514054 
L 353.2515 -295.96108 
L 353.2515 -296.408106 
L 353.2515 -296.855132 
L 353.2515 -297.302158 
L 353.2515 -297.749184 
L 353.2515 -298.19621 
L 353.2515 -298.643236 
L 353.2515 -299.090262 
L 353.2515 -299.537288 
L 353.2515 -299.984314 
L 353.2515 -300.43134 
L 353.2515 -300.878366 
L 353.2515 -301.325392 
L 353.2515 -301.772418 
L 353.2515 -302.219444 
L 353.2515 -302.66647 
L 353.2515 -303.113496 
L 353.2515 -303.560522 
L 353.2515 -304.007548 
L 353.2515 -304.454574 
L 353.2515 -304.9016 
L 353.2515 -305.348626 
L 353.2515 -305.795652 
L 353.2515 -306.242678 
L 353.2515 -306.689704 
L 353.2515 -307.13673 
L 353.2515 -307.583756 
L 353.2515 -308.030782 
L 353.2515 -308.477808 
L 353.2515 -308.924834 
L 353.2515 -309.37186 
L 353.2515 -309.818886 
L 353.2515 -310.265912 
L 353.2515 -310.712938 
L 353.2515 -311.159964 
L 353.2515 -311.60699 
L 353.2515 -312.054016 
L 353.2515 -312.501042 
L 353.2515 -312.948068 
L 353.2515 -313.395094 
L 353.2515 -313.84212 
L 353.2515 -314.289146 
L 353.2515 -314.736172 
L 353.2515 -315.183198 
L 353.2515 -315.630224 
L 353.2515 -316.07725 
L 353.2515 -316.524276 
L 353.2515 -316.971302 
L 353.2515 -317.418329 
L 353.2515 -317.865355 
L 353.2515 -318.312381 
L 353.2515 -318.759407 
L 353.2515 -319.206433 
L 353.2515 -319.653459 
L 353.2515 -320.100485 
L 353.2515 -320.547511 
L 353.2515 -320.994537 
L 353.2515 -321.441563 
L 677.534787 -321.441563 
L 677.534787 -321.441563 
L 642.887491 -320.994537 
L 633.101417 -320.547511 
L 633.035215 -320.100485 
L 631.87916 -319.653459 
L 631.717387 -319.206433 
L 630.962485 -318.759407 
L 630.19879 -318.312381 
L 629.899331 -317.865355 
L 624.206677 -317.418329 
L 620.558692 -316.971302 
L 620.408519 -316.524276 
L 619.062806 -316.07725 
L 619.062806 -315.630224 
L 618.701272 -315.183198 
L 616.99318 -314.736172 
L 615.844194 -314.289146 
L 614.631505 -313.84212 
L 614.015574 -313.395094 
L 613.839706 -312.948068 
L 612.769366 -312.501042 
L 612.409392 -312.054016 
L 609.928073 -311.60699 
L 607.692817 -311.159964 
L 603.34072 -310.712938 
L 601.470555 -310.265912 
L 596.598934 -309.818886 
L 594.996928 -309.37186 
L 594.120319 -308.924834 
L 593.358115 -308.477808 
L 593.358115 -308.030782 
L 592.997595 -307.583756 
L 592.605102 -307.13673 
L 591.551055 -306.689704 
L 591.195662 -306.242678 
L 589.884272 -305.795652 
L 589.318079 -305.348626 
L 589.315827 -304.9016 
L 586.385969 -304.454574 
L 584.919258 -304.007548 
L 582.247669 -303.560522 
L 582.003081 -303.113496 
L 581.084026 -302.66647 
L 580.565121 -302.219444 
L 574.128586 -301.772418 
L 572.602826 -301.325392 
L 570.441501 -300.878366 
L 569.292534 -300.43134 
L 568.693656 -299.984314 
L 567.23737 -299.537288 
L 566.390679 -299.090262 
L 565.588093 -298.643236 
L 500.639258 -298.19621 
L 406.057977 -297.749184 
L 403.900371 -297.302158 
L 395.059501 -296.855132 
L 284.964329 -296.408106 
L 281.177825 -295.96108 
L 274.218169 -295.514054 
L 273.265179 -295.067028 
L 260.805345 -294.620002 
L 245.265432 -294.172976 
z
" style="stroke: #00e700; stroke-opacity: 0.7"/>
    </defs>
    <g clip-path="url(#p7373479b87)">
     <use xlink:href="#m220ef7b387" x="0" y="432" style="fill: #00e700; fill-opacity: 0.7; stroke: #00e700; stroke-opacity: 0.7"/>
    </g>
   </g>
   <g id="PolyCollection_11">
    <defs>
     <path id="m0d5572a2f6" d="M 421.330849 -326.358849 
L 353.2515 -326.358849 
L 353.2515 -326.805875 
L 353.2515 -327.252901 
L 353.2515 -327.699927 
L 353.2515 -328.146953 
L 353.2515 -328.593979 
L 353.2515 -329.041005 
L 353.2515 -329.488031 
L 353.2515 -329.935057 
L 353.2515 -330.382083 
L 353.2515 -330.829109 
L 353.2515 -331.276135 
L 353.2515 -331.723161 
L 353.2515 -332.170187 
L 353.2515 -332.617213 
L 353.2515 -333.064239 
L 353.2515 -333.511265 
L 353.2515 -333.958291 
L 353.2515 -334.405317 
L 353.2515 -334.852343 
L 353.2515 -335.299369 
L 353.2515 -335.746395 
L 353.2515 -336.193421 
L 353.2515 -336.640447 
L 353.2515 -337.087473 
L 353.2515 -337.534499 
L 353.2515 -337.981525 
L 353.2515 -338.428551 
L 353.2515 -338.875577 
L 353.2515 -339.322603 
L 353.2515 -339.769629 
L 353.2515 -340.216655 
L 353.2515 -340.663681 
L 353.2515 -341.110707 
L 353.2515 -341.557733 
L 353.2515 -342.004759 
L 353.2515 -342.451785 
L 353.2515 -342.898811 
L 353.2515 -343.345838 
L 353.2515 -343.792864 
L 353.2515 -344.23989 
L 353.2515 -344.686916 
L 353.2515 -345.133942 
L 353.2515 -345.580968 
L 353.2515 -346.027994 
L 353.2515 -346.47502 
L 353.2515 -346.922046 
L 353.2515 -347.369072 
L 353.2515 -347.816098 
L 353.2515 -348.263124 
L 353.2515 -348.71015 
L 353.2515 -349.157176 
L 353.2515 -349.604202 
L 353.2515 -350.051228 
L 353.2515 -350.498254 
L 678.349427 -350.498254 
L 678.349427 -350.498254 
L 678.339248 -350.051228 
L 678.338872 -349.604202 
L 678.324407 -349.157176 
L 678.323024 -348.71015 
L 678.322299 -348.263124 
L 678.311151 -347.816098 
L 678.308601 -347.369072 
L 678.306031 -346.922046 
L 678.303905 -346.47502 
L 678.296777 -346.027994 
L 678.28396 -345.580968 
L 678.274044 -345.133942 
L 678.271091 -344.686916 
L 678.267036 -344.23989 
L 678.263175 -343.792864 
L 678.238468 -343.345838 
L 678.235113 -342.898811 
L 678.235113 -342.451785 
L 678.231643 -342.004759 
L 678.220874 -341.557733 
L 678.219467 -341.110707 
L 678.201359 -340.663681 
L 678.198499 -340.216655 
L 678.197476 -339.769629 
L 678.183113 -339.322603 
L 678.174502 -338.875577 
L 678.144298 -338.428551 
L 678.135423 -337.981525 
L 678.120296 -337.534499 
L 678.104747 -337.087473 
L 678.101105 -336.640447 
L 678.075369 -336.193421 
L 678.022159 -335.746395 
L 677.982691 -335.299369 
L 677.9809 -334.852343 
L 677.979141 -334.405317 
L 677.769492 -333.958291 
L 677.53409 -333.511265 
L 676.006989 -333.064239 
L 675.57452 -332.617213 
L 673.951368 -332.170187 
L 673.430148 -331.723161 
L 672.29041 -331.276135 
L 666.116331 -330.829109 
L 650.125569 -330.382083 
L 648.936761 -329.935057 
L 645.08651 -329.488031 
L 625.017435 -329.041005 
L 557.907603 -328.593979 
L 543.637804 -328.146953 
L 510.201119 -327.699927 
L 502.53539 -327.252901 
L 476.283963 -326.805875 
L 421.330849 -326.358849 
z
" style="stroke: #67ff00; stroke-opacity: 0.7"/>
    </defs>
    <g clip-path="url(#p7373479b87)">
     <use xlink:href="#m0d5572a2f6" x="0" y="432" style="fill: #67ff00; fill-opacity: 0.7; stroke: #67ff00; stroke-opacity: 0.7"/>
    </g>
   </g>
   <g id="PolyCollection_12">
    <defs>
     <path id="md6a84ad2f5" d="M 293.523972 -355.41554 
L 353.2515 -355.41554 
L 353.2515 -355.862566 
L 353.2515 -356.309592 
L 353.2515 -356.756618 
L 353.2515 -357.203644 
L 353.2515 -357.65067 
L 353.2515 -358.097696 
L 353.2515 -358.544722 
L 353.2515 -358.991748 
L 353.2515 -359.438774 
L 353.2515 -359.8858 
L 353.2515 -360.332826 
L 353.2515 -360.779852 
L 353.2515 -361.226878 
L 353.2515 -361.673904 
L 353.2515 -362.12093 
L 353.2515 -362.567956 
L 353.2515 -363.014982 
L 353.2515 -363.462008 
L 353.2515 -363.909034 
L 353.2515 -364.35606 
L 353.2515 -364.803086 
L 353.2515 -365.250112 
L 353.2515 -365.697138 
L 353.2515 -366.144164 
L 353.2515 -366.59119 
L 353.2515 -367.038216 
L 353.2515 -367.485242 
L 353.2515 -367.932268 
L 353.2515 -368.379294 
L 353.2515 -368.82632 
L 353.2515 -369.273346 
L 353.2515 -369.720373 
L 353.2515 -370.167399 
L 353.2515 -370.614425 
L 353.2515 -371.061451 
L 353.2515 -371.508477 
L 353.2515 -371.955503 
L 353.2515 -372.402529 
L 353.2515 -372.849555 
L 353.2515 -373.296581 
L 353.2515 -373.743607 
L 353.2515 -374.190633 
L 353.2515 -374.637659 
L 353.2515 -375.084685 
L 353.2515 -375.531711 
L 353.2515 -375.978737 
L 353.2515 -376.425763 
L 353.2515 -376.872789 
L 353.2515 -377.319815 
L 353.2515 -377.766841 
L 353.2515 -378.213867 
L 353.2515 -378.660893 
L 353.2515 -379.107919 
L 353.2515 -379.554945 
L 353.2515 -380.001971 
L 353.2515 -380.448997 
L 353.2515 -380.896023 
L 353.2515 -381.343049 
L 353.2515 -381.790075 
L 678.379748 -381.790075 
L 678.379748 -381.790075 
L 678.349296 -381.343049 
L 678.339358 -380.896023 
L 678.330393 -380.448997 
L 678.309908 -380.001971 
L 678.285071 -379.554945 
L 678.268753 -379.107919 
L 678.235108 -378.660893 
L 678.229386 -378.213867 
L 678.217684 -377.766841 
L 678.201946 -377.319815 
L 678.153606 -376.872789 
L 678.146162 -376.425763 
L 678.146162 -375.978737 
L 678.108939 -375.531711 
L 678.100511 -375.084685 
L 678.099775 -374.637659 
L 678.053494 -374.190633 
L 677.988742 -373.743607 
L 677.986371 -373.296581 
L 677.96263 -372.849555 
L 677.877539 -372.402529 
L 677.858432 -371.955503 
L 677.350434 -371.508477 
L 677.114202 -371.061451 
L 676.379302 -370.614425 
L 664.880994 -370.167399 
L 663.230064 -369.720373 
L 663.178206 -369.273346 
L 662.845558 -368.82632 
L 661.718048 -368.379294 
L 657.513024 -367.932268 
L 655.788216 -367.485242 
L 654.241737 -367.038216 
L 653.609598 -366.59119 
L 652.197168 -366.144164 
L 647.084978 -365.697138 
L 646.06646 -365.250112 
L 644.475783 -364.803086 
L 643.739294 -364.35606 
L 639.758559 -363.909034 
L 635.692159 -363.462008 
L 622.137812 -363.014982 
L 615.927545 -362.567956 
L 615.425203 -362.12093 
L 615.084746 -361.673904 
L 612.131927 -361.226878 
L 611.314944 -360.779852 
L 608.807285 -360.332826 
L 607.577401 -359.8858 
L 606.854821 -359.438774 
L 603.175782 -358.991748 
L 596.589987 -358.544722 
L 593.631997 -358.097696 
L 580.851486 -357.65067 
L 572.018971 -357.203644 
L 531.127513 -356.756618 
L 490.677856 -356.309592 
L 403.228539 -355.862566 
L 293.523972 -355.41554 
z
" style="stroke: #e4f100; stroke-opacity: 0.7"/>
    </defs>
    <g clip-path="url(#p7373479b87)">
     <use xlink:href="#md6a84ad2f5" x="0" y="432" style="fill: #e4f100; fill-opacity: 0.7; stroke: #e4f100; stroke-opacity: 0.7"/>
    </g>
   </g>
   <g id="PolyCollection_13">
    <defs>
     <path id="m3c3bfdf2f1" d="M 102.204009 -386.707361 
L 353.2515 -386.707361 
L 353.2515 -387.154387 
L 353.2515 -387.601413 
L 353.2515 -388.048439 
L 353.2515 -388.495465 
L 353.2515 -388.942491 
L 353.2515 -389.389517 
L 353.2515 -389.836543 
L 353.2515 -390.283569 
L 353.2515 -390.730595 
L 353.2515 -391.177621 
L 353.2515 -391.624647 
L 353.2515 -392.071673 
L 353.2515 -392.518699 
L 660.503667 -392.518699 
L 660.503667 -392.518699 
L 658.431375 -392.071673 
L 602.8703 -391.624647 
L 574.910233 -391.177621 
L 574.323316 -390.730595 
L 567.748352 -390.283569 
L 494.777482 -389.836543 
L 468.642842 -389.389517 
L 350.929555 -388.942491 
L 306.588472 -388.495465 
L 249.480796 -388.048439 
L 103.804558 -387.601413 
L 102.204009 -387.154387 
L 102.204009 -386.707361 
z
" style="stroke: #ffc900; stroke-opacity: 0.7"/>
    </defs>
    <g clip-path="url(#p7373479b87)">
     <use xlink:href="#m3c3bfdf2f1" x="0" y="432" style="fill: #ffc900; fill-opacity: 0.7; stroke: #ffc900; stroke-opacity: 0.7"/>
    </g>
   </g>
   <g id="PolyCollection_14">
    <defs>
     <path id="md09b65a02a" d="M 516.880613 -397.435986 
L 353.2515 -397.435986 
L 353.2515 -397.883012 
L 353.2515 -398.330038 
L 674.633089 -398.330038 
L 674.633089 -398.330038 
L 600.056143 -397.883012 
L 516.880613 -397.435986 
z
" style="stroke: #ff6900; stroke-opacity: 0.7"/>
    </defs>
    <g clip-path="url(#p7373479b87)">
     <use xlink:href="#md09b65a02a" x="0" y="432" style="fill: #ff6900; fill-opacity: 0.7; stroke: #ff6900; stroke-opacity: 0.7"/>
    </g>
   </g>
   <g id="PolyCollection_15">
    <defs>
     <path id="m993955dc6f" d="M 677.853306 -403.247324 
L 353.2515 -403.247324 
L 353.2515 -403.69435 
L 353.2515 -404.141376 
L 353.2515 -404.588402 
L 353.2515 -405.035428 
L 353.2515 -405.482454 
L 353.2515 -405.92948 
L 353.2515 -406.376506 
L 353.2515 -406.823532 
L 678.409866 -406.823532 
L 678.409866 -406.823532 
L 678.269225 -406.376506 
L 678.268148 -405.92948 
L 678.249994 -405.482454 
L 678.242286 -405.035428 
L 678.070329 -404.588402 
L 677.920266 -404.141376 
L 677.905411 -403.69435 
L 677.853306 -403.247324 
z
" style="stroke: #ec0000; stroke-opacity: 0.7"/>
    </defs>
    <g clip-path="url(#p7373479b87)">
     <use xlink:href="#m993955dc6f" x="0" y="432" style="fill: #ec0000; fill-opacity: 0.7; stroke: #ec0000; stroke-opacity: 0.7"/>
    </g>
   </g>
   <g id="PolyCollection_16">
    <defs>
     <path id="mcab9d562ee" d="M 678.398254 -411.740818 
L 353.2515 -411.740818 
L 353.2515 -412.187844 
L 353.2515 -412.63487 
L 678.524875 -412.63487 
L 678.524875 -412.63487 
L 678.418054 -412.187844 
L 678.398254 -411.740818 
z
" style="stroke: #cf0000; stroke-opacity: 0.7"/>
    </defs>
    <g clip-path="url(#p7373479b87)">
     <use xlink:href="#mcab9d562ee" x="0" y="432" style="fill: #cf0000; fill-opacity: 0.7; stroke: #cf0000; stroke-opacity: 0.7"/>
    </g>
   </g>
   <g id="matplotlib.axis_1">
    <g id="xtick_1">
     <g id="line2d_1">
      <defs>
       <path id="mb2863b5929" d="M 0 0 
L 0 3.5 
" style="stroke: #000000; stroke-width: 0.8"/>
      </defs>
      <g>
       <use xlink:href="#mb2863b5929" x="27.978125" y="390.84375" style="stroke: #000000; stroke-width: 0.8"/>
      </g>
     </g>
     <g id="text_1">
      <!-- −1.0 -->
      <g transform="translate(15.836719 405.442187) scale(0.1 -0.1)">
       <defs>
        <path id="DejaVuSans-2212" d="M 678 2272 
L 4684 2272 
L 4684 1741 
L 678 1741 
L 678 2272 
z
" transform="scale(0.015625)"/>
        <path id="DejaVuSans-31" d="M 794 531 
L 1825 531 
L 1825 4091 
L 703 3866 
L 703 4441 
L 1819 4666 
L 2450 4666 
L 2450 531 
L 3481 531 
L 3481 0 
L 794 0 
L 794 531 
z
" transform="scale(0.015625)"/>
        <path id="DejaVuSans-2e" d="M 684 794 
L 1344 794 
L 1344 0 
L 684 0 
L 684 794 
z
" transform="scale(0.015625)"/>
        <path id="DejaVuSans-30" d="M 2034 4250 
Q 1547 4250 1301 3770 
Q 1056 3291 1056 2328 
Q 1056 1369 1301 889 
Q 1547 409 2034 409 
Q 2525 409 2770 889 
Q 3016 1369 3016 2328 
Q 3016 3291 2770 3770 
Q 2525 4250 2034 4250 
z
M 2034 4750 
Q 2819 4750 3233 4129 
Q 3647 3509 3647 2328 
Q 3647 1150 3233 529 
Q 2819 -91 2034 -91 
Q 1250 -91 836 529 
Q 422 1150 422 2328 
Q 422 3509 836 4129 
Q 1250 4750 2034 4750 
z
" transform="scale(0.015625)"/>
       </defs>
       <use xlink:href="#DejaVuSans-2212"/>
       <use xlink:href="#DejaVuSans-31" x="83.789062"/>
       <use xlink:href="#DejaVuSans-2e" x="147.412109"/>
       <use xlink:href="#DejaVuSans-30" x="179.199219"/>
      </g>
     </g>
    </g>
    <g id="xtick_2">
     <g id="line2d_2">
      <g>
       <use xlink:href="#mb2863b5929" x="93.0328" y="390.84375" style="stroke: #000000; stroke-width: 0.8"/>
      </g>
     </g>
     <g id="text_2">
      <!-- −0.8 -->
      <g transform="translate(80.891394 405.442187) scale(0.1 -0.1)">
       <defs>
        <path id="DejaVuSans-38" d="M 2034 2216 
Q 1584 2216 1326 1975 
Q 1069 1734 1069 1313 
Q 1069 891 1326 650 
Q 1584 409 2034 409 
Q 2484 409 2743 651 
Q 3003 894 3003 1313 
Q 3003 1734 2745 1975 
Q 2488 2216 2034 2216 
z
M 1403 2484 
Q 997 2584 770 2862 
Q 544 3141 544 3541 
Q 544 4100 942 4425 
Q 1341 4750 2034 4750 
Q 2731 4750 3128 4425 
Q 3525 4100 3525 3541 
Q 3525 3141 3298 2862 
Q 3072 2584 2669 2484 
Q 3125 2378 3379 2068 
Q 3634 1759 3634 1313 
Q 3634 634 3220 271 
Q 2806 -91 2034 -91 
Q 1263 -91 848 271 
Q 434 634 434 1313 
Q 434 1759 690 2068 
Q 947 2378 1403 2484 
z
M 1172 3481 
Q 1172 3119 1398 2916 
Q 1625 2713 2034 2713 
Q 2441 2713 2670 2916 
Q 2900 3119 2900 3481 
Q 2900 3844 2670 4047 
Q 2441 4250 2034 4250 
Q 1625 4250 1398 4047 
Q 1172 3844 1172 3481 
z
" transform="scale(0.015625)"/>
       </defs>
       <use xlink:href="#DejaVuSans-2212"/>
       <use xlink:href="#DejaVuSans-30" x="83.789062"/>
       <use xlink:href="#DejaVuSans-2e" x="147.412109"/>
       <use xlink:href="#DejaVuSans-38" x="179.199219"/>
      </g>
     </g>
    </g>
    <g id="xtick_3">
     <g id="line2d_3">
      <g>
       <use xlink:href="#mb2863b5929" x="158.087475" y="390.84375" style="stroke: #000000; stroke-width: 0.8"/>
      </g>
     </g>
     <g id="text_3">
      <!-- −0.6 -->
      <g transform="translate(145.946069 405.442187) scale(0.1 -0.1)">
       <defs>
        <path id="DejaVuSans-36" d="M 2113 2584 
Q 1688 2584 1439 2293 
Q 1191 2003 1191 1497 
Q 1191 994 1439 701 
Q 1688 409 2113 409 
Q 2538 409 2786 701 
Q 3034 994 3034 1497 
Q 3034 2003 2786 2293 
Q 2538 2584 2113 2584 
z
M 3366 4563 
L 3366 3988 
Q 3128 4100 2886 4159 
Q 2644 4219 2406 4219 
Q 1781 4219 1451 3797 
Q 1122 3375 1075 2522 
Q 1259 2794 1537 2939 
Q 1816 3084 2150 3084 
Q 2853 3084 3261 2657 
Q 3669 2231 3669 1497 
Q 3669 778 3244 343 
Q 2819 -91 2113 -91 
Q 1303 -91 875 529 
Q 447 1150 447 2328 
Q 447 3434 972 4092 
Q 1497 4750 2381 4750 
Q 2619 4750 2861 4703 
Q 3103 4656 3366 4563 
z
" transform="scale(0.015625)"/>
       </defs>
       <use xlink:href="#DejaVuSans-2212"/>
       <use xlink:href="#DejaVuSans-30" x="83.789062"/>
       <use xlink:href="#DejaVuSans-2e" x="147.412109"/>
       <use xlink:href="#DejaVuSans-36" x="179.199219"/>
      </g>
     </g>
    </g>
    <g id="xtick_4">
     <g id="line2d_4">
      <g>
       <use xlink:href="#mb2863b5929" x="223.14215" y="390.84375" style="stroke: #000000; stroke-width: 0.8"/>
      </g>
     </g>
     <g id="text_4">
      <!-- −0.4 -->
      <g transform="translate(211.000744 405.442187) scale(0.1 -0.1)">
       <defs>
        <path id="DejaVuSans-34" d="M 2419 4116 
L 825 1625 
L 2419 1625 
L 2419 4116 
z
M 2253 4666 
L 3047 4666 
L 3047 1625 
L 3713 1625 
L 3713 1100 
L 3047 1100 
L 3047 0 
L 2419 0 
L 2419 1100 
L 313 1100 
L 313 1709 
L 2253 4666 
z
" transform="scale(0.015625)"/>
       </defs>
       <use xlink:href="#DejaVuSans-2212"/>
       <use xlink:href="#DejaVuSans-30" x="83.789062"/>
       <use xlink:href="#DejaVuSans-2e" x="147.412109"/>
       <use xlink:href="#DejaVuSans-34" x="179.199219"/>
      </g>
     </g>
    </g>
    <g id="xtick_5">
     <g id="line2d_5">
      <g>
       <use xlink:href="#mb2863b5929" x="288.196825" y="390.84375" style="stroke: #000000; stroke-width: 0.8"/>
      </g>
     </g>
     <g id="text_5">
      <!-- −0.2 -->
      <g transform="translate(276.055419 405.442187) scale(0.1 -0.1)">
       <defs>
        <path id="DejaVuSans-32" d="M 1228 531 
L 3431 531 
L 3431 0 
L 469 0 
L 469 531 
Q 828 903 1448 1529 
Q 2069 2156 2228 2338 
Q 2531 2678 2651 2914 
Q 2772 3150 2772 3378 
Q 2772 3750 2511 3984 
Q 2250 4219 1831 4219 
Q 1534 4219 1204 4116 
Q 875 4013 500 3803 
L 500 4441 
Q 881 4594 1212 4672 
Q 1544 4750 1819 4750 
Q 2544 4750 2975 4387 
Q 3406 4025 3406 3419 
Q 3406 3131 3298 2873 
Q 3191 2616 2906 2266 
Q 2828 2175 2409 1742 
Q 1991 1309 1228 531 
z
" transform="scale(0.015625)"/>
       </defs>
       <use xlink:href="#DejaVuSans-2212"/>
       <use xlink:href="#DejaVuSans-30" x="83.789062"/>
       <use xlink:href="#DejaVuSans-2e" x="147.412109"/>
       <use xlink:href="#DejaVuSans-32" x="179.199219"/>
      </g>
     </g>
    </g>
    <g id="xtick_6">
     <g id="line2d_6">
      <g>
       <use xlink:href="#mb2863b5929" x="353.2515" y="390.84375" style="stroke: #000000; stroke-width: 0.8"/>
      </g>
     </g>
     <g id="text_6">
      <!-- 0.0 -->
      <g transform="translate(345.299938 405.442187) scale(0.1 -0.1)">
       <use xlink:href="#DejaVuSans-30"/>
       <use xlink:href="#DejaVuSans-2e" x="63.623047"/>
       <use xlink:href="#DejaVuSans-30" x="95.410156"/>
      </g>
     </g>
    </g>
    <g id="xtick_7">
     <g id="line2d_7">
      <g>
       <use xlink:href="#mb2863b5929" x="418.306175" y="390.84375" style="stroke: #000000; stroke-width: 0.8"/>
      </g>
     </g>
     <g id="text_7">
      <!-- 0.2 -->
      <g transform="translate(410.354613 405.442187) scale(0.1 -0.1)">
       <use xlink:href="#DejaVuSans-30"/>
       <use xlink:href="#DejaVuSans-2e" x="63.623047"/>
       <use xlink:href="#DejaVuSans-32" x="95.410156"/>
      </g>
     </g>
    </g>
    <g id="xtick_8">
     <g id="line2d_8">
      <g>
       <use xlink:href="#mb2863b5929" x="483.36085" y="390.84375" style="stroke: #000000; stroke-width: 0.8"/>
      </g>
     </g>
     <g id="text_8">
      <!-- 0.4 -->
      <g transform="translate(475.409288 405.442187) scale(0.1 -0.1)">
       <use xlink:href="#DejaVuSans-30"/>
       <use xlink:href="#DejaVuSans-2e" x="63.623047"/>
       <use xlink:href="#DejaVuSans-34" x="95.410156"/>
      </g>
     </g>
    </g>
    <g id="xtick_9">
     <g id="line2d_9">
      <g>
       <use xlink:href="#mb2863b5929" x="548.415525" y="390.84375" style="stroke: #000000; stroke-width: 0.8"/>
      </g>
     </g>
     <g id="text_9">
      <!-- 0.6 -->
      <g transform="translate(540.463963 405.442187) scale(0.1 -0.1)">
       <use xlink:href="#DejaVuSans-30"/>
       <use xlink:href="#DejaVuSans-2e" x="63.623047"/>
       <use xlink:href="#DejaVuSans-36" x="95.410156"/>
      </g>
     </g>
    </g>
    <g id="xtick_10">
     <g id="line2d_10">
      <g>
       <use xlink:href="#mb2863b5929" x="613.4702" y="390.84375" style="stroke: #000000; stroke-width: 0.8"/>
      </g>
     </g>
     <g id="text_10">
      <!-- 0.8 -->
      <g transform="translate(605.518638 405.442187) scale(0.1 -0.1)">
       <use xlink:href="#DejaVuSans-30"/>
       <use xlink:href="#DejaVuSans-2e" x="63.623047"/>
       <use xlink:href="#DejaVuSans-38" x="95.410156"/>
      </g>
     </g>
    </g>
    <g id="xtick_11">
     <g id="line2d_11">
      <g>
       <use xlink:href="#mb2863b5929" x="678.524875" y="390.84375" style="stroke: #000000; stroke-width: 0.8"/>
      </g>
     </g>
     <g id="text_11">
      <!-- 1.0 -->
      <g transform="translate(670.573313 405.442187) scale(0.1 -0.1)">
       <use xlink:href="#DejaVuSans-31"/>
       <use xlink:href="#DejaVuSans-2e" x="63.623047"/>
       <use xlink:href="#DejaVuSans-30" x="95.410156"/>
      </g>
     </g>
    </g>
    <g id="text_12">
     <!-- Silhouette coefficient -->
     <g transform="translate(315.439062 419.120313) scale(0.1 -0.1)">
      <defs>
       <path id="DejaVuSans-53" d="M 3425 4513 
L 3425 3897 
Q 3066 4069 2747 4153 
Q 2428 4238 2131 4238 
Q 1616 4238 1336 4038 
Q 1056 3838 1056 3469 
Q 1056 3159 1242 3001 
Q 1428 2844 1947 2747 
L 2328 2669 
Q 3034 2534 3370 2195 
Q 3706 1856 3706 1288 
Q 3706 609 3251 259 
Q 2797 -91 1919 -91 
Q 1588 -91 1214 -16 
Q 841 59 441 206 
L 441 856 
Q 825 641 1194 531 
Q 1563 422 1919 422 
Q 2459 422 2753 634 
Q 3047 847 3047 1241 
Q 3047 1584 2836 1778 
Q 2625 1972 2144 2069 
L 1759 2144 
Q 1053 2284 737 2584 
Q 422 2884 422 3419 
Q 422 4038 858 4394 
Q 1294 4750 2059 4750 
Q 2388 4750 2728 4690 
Q 3069 4631 3425 4513 
z
" transform="scale(0.015625)"/>
       <path id="DejaVuSans-69" d="M 603 3500 
L 1178 3500 
L 1178 0 
L 603 0 
L 603 3500 
z
M 603 4863 
L 1178 4863 
L 1178 4134 
L 603 4134 
L 603 4863 
z
" transform="scale(0.015625)"/>
       <path id="DejaVuSans-6c" d="M 603 4863 
L 1178 4863 
L 1178 0 
L 603 0 
L 603 4863 
z
" transform="scale(0.015625)"/>
       <path id="DejaVuSans-68" d="M 3513 2113 
L 3513 0 
L 2938 0 
L 2938 2094 
Q 2938 2591 2744 2837 
Q 2550 3084 2163 3084 
Q 1697 3084 1428 2787 
Q 1159 2491 1159 1978 
L 1159 0 
L 581 0 
L 581 4863 
L 1159 4863 
L 1159 2956 
Q 1366 3272 1645 3428 
Q 1925 3584 2291 3584 
Q 2894 3584 3203 3211 
Q 3513 2838 3513 2113 
z
" transform="scale(0.015625)"/>
       <path id="DejaVuSans-6f" d="M 1959 3097 
Q 1497 3097 1228 2736 
Q 959 2375 959 1747 
Q 959 1119 1226 758 
Q 1494 397 1959 397 
Q 2419 397 2687 759 
Q 2956 1122 2956 1747 
Q 2956 2369 2687 2733 
Q 2419 3097 1959 3097 
z
M 1959 3584 
Q 2709 3584 3137 3096 
Q 3566 2609 3566 1747 
Q 3566 888 3137 398 
Q 2709 -91 1959 -91 
Q 1206 -91 779 398 
Q 353 888 353 1747 
Q 353 2609 779 3096 
Q 1206 3584 1959 3584 
z
" transform="scale(0.015625)"/>
       <path id="DejaVuSans-75" d="M 544 1381 
L 544 3500 
L 1119 3500 
L 1119 1403 
Q 1119 906 1312 657 
Q 1506 409 1894 409 
Q 2359 409 2629 706 
Q 2900 1003 2900 1516 
L 2900 3500 
L 3475 3500 
L 3475 0 
L 2900 0 
L 2900 538 
Q 2691 219 2414 64 
Q 2138 -91 1772 -91 
Q 1169 -91 856 284 
Q 544 659 544 1381 
z
M 1991 3584 
L 1991 3584 
z
" transform="scale(0.015625)"/>
       <path id="DejaVuSans-65" d="M 3597 1894 
L 3597 1613 
L 953 1613 
Q 991 1019 1311 708 
Q 1631 397 2203 397 
Q 2534 397 2845 478 
Q 3156 559 3463 722 
L 3463 178 
Q 3153 47 2828 -22 
Q 2503 -91 2169 -91 
Q 1331 -91 842 396 
Q 353 884 353 1716 
Q 353 2575 817 3079 
Q 1281 3584 2069 3584 
Q 2775 3584 3186 3129 
Q 3597 2675 3597 1894 
z
M 3022 2063 
Q 3016 2534 2758 2815 
Q 2500 3097 2075 3097 
Q 1594 3097 1305 2825 
Q 1016 2553 972 2059 
L 3022 2063 
z
" transform="scale(0.015625)"/>
       <path id="DejaVuSans-74" d="M 1172 4494 
L 1172 3500 
L 2356 3500 
L 2356 3053 
L 1172 3053 
L 1172 1153 
Q 1172 725 1289 603 
Q 1406 481 1766 481 
L 2356 481 
L 2356 0 
L 1766 0 
Q 1100 0 847 248 
Q 594 497 594 1153 
L 594 3053 
L 172 3053 
L 172 3500 
L 594 3500 
L 594 4494 
L 1172 4494 
z
" transform="scale(0.015625)"/>
       <path id="DejaVuSans-20" transform="scale(0.015625)"/>
       <path id="DejaVuSans-63" d="M 3122 3366 
L 3122 2828 
Q 2878 2963 2633 3030 
Q 2388 3097 2138 3097 
Q 1578 3097 1268 2742 
Q 959 2388 959 1747 
Q 959 1106 1268 751 
Q 1578 397 2138 397 
Q 2388 397 2633 464 
Q 2878 531 3122 666 
L 3122 134 
Q 2881 22 2623 -34 
Q 2366 -91 2075 -91 
Q 1284 -91 818 406 
Q 353 903 353 1747 
Q 353 2603 823 3093 
Q 1294 3584 2113 3584 
Q 2378 3584 2631 3529 
Q 2884 3475 3122 3366 
z
" transform="scale(0.015625)"/>
       <path id="DejaVuSans-66" d="M 2375 4863 
L 2375 4384 
L 1825 4384 
Q 1516 4384 1395 4259 
Q 1275 4134 1275 3809 
L 1275 3500 
L 2222 3500 
L 2222 3053 
L 1275 3053 
L 1275 0 
L 697 0 
L 697 3053 
L 147 3053 
L 147 3500 
L 697 3500 
L 697 3744 
Q 697 4328 969 4595 
Q 1241 4863 1831 4863 
L 2375 4863 
z
" transform="scale(0.015625)"/>
       <path id="DejaVuSans-6e" d="M 3513 2113 
L 3513 0 
L 2938 0 
L 2938 2094 
Q 2938 2591 2744 2837 
Q 2550 3084 2163 3084 
Q 1697 3084 1428 2787 
Q 1159 2491 1159 1978 
L 1159 0 
L 581 0 
L 581 3500 
L 1159 3500 
L 1159 2956 
Q 1366 3272 1645 3428 
Q 1925 3584 2291 3584 
Q 2894 3584 3203 3211 
Q 3513 2838 3513 2113 
z
" transform="scale(0.015625)"/>
      </defs>
      <use xlink:href="#DejaVuSans-53"/>
      <use xlink:href="#DejaVuSans-69" x="63.476562"/>
      <use xlink:href="#DejaVuSans-6c" x="91.259766"/>
      <use xlink:href="#DejaVuSans-68" x="119.042969"/>
      <use xlink:href="#DejaVuSans-6f" x="182.421875"/>
      <use xlink:href="#DejaVuSans-75" x="243.603516"/>
      <use xlink:href="#DejaVuSans-65" x="306.982422"/>
      <use xlink:href="#DejaVuSans-74" x="368.505859"/>
      <use xlink:href="#DejaVuSans-74" x="407.714844"/>
      <use xlink:href="#DejaVuSans-65" x="446.923828"/>
      <use xlink:href="#DejaVuSans-20" x="508.447266"/>
      <use xlink:href="#DejaVuSans-63" x="540.234375"/>
      <use xlink:href="#DejaVuSans-6f" x="595.214844"/>
      <use xlink:href="#DejaVuSans-65" x="656.396484"/>
      <use xlink:href="#DejaVuSans-66" x="717.919922"/>
      <use xlink:href="#DejaVuSans-66" x="753.125"/>
      <use xlink:href="#DejaVuSans-69" x="788.330078"/>
      <use xlink:href="#DejaVuSans-63" x="816.113281"/>
      <use xlink:href="#DejaVuSans-69" x="871.09375"/>
      <use xlink:href="#DejaVuSans-65" x="898.876953"/>
      <use xlink:href="#DejaVuSans-6e" x="960.400391"/>
      <use xlink:href="#DejaVuSans-74" x="1023.779297"/>
     </g>
    </g>
   </g>
   <g id="matplotlib.axis_2">
    <g id="text_13">
     <!-- Predicted label -->
     <g transform="translate(18.398438 239.798141) rotate(-90) scale(0.1 -0.1)">
      <defs>
       <path id="DejaVuSans-50" d="M 1259 4147 
L 1259 2394 
L 2053 2394 
Q 2494 2394 2734 2622 
Q 2975 2850 2975 3272 
Q 2975 3691 2734 3919 
Q 2494 4147 2053 4147 
L 1259 4147 
z
M 628 4666 
L 2053 4666 
Q 2838 4666 3239 4311 
Q 3641 3956 3641 3272 
Q 3641 2581 3239 2228 
Q 2838 1875 2053 1875 
L 1259 1875 
L 1259 0 
L 628 0 
L 628 4666 
z
" transform="scale(0.015625)"/>
       <path id="DejaVuSans-72" d="M 2631 2963 
Q 2534 3019 2420 3045 
Q 2306 3072 2169 3072 
Q 1681 3072 1420 2755 
Q 1159 2438 1159 1844 
L 1159 0 
L 581 0 
L 581 3500 
L 1159 3500 
L 1159 2956 
Q 1341 3275 1631 3429 
Q 1922 3584 2338 3584 
Q 2397 3584 2469 3576 
Q 2541 3569 2628 3553 
L 2631 2963 
z
" transform="scale(0.015625)"/>
       <path id="DejaVuSans-64" d="M 2906 2969 
L 2906 4863 
L 3481 4863 
L 3481 0 
L 2906 0 
L 2906 525 
Q 2725 213 2448 61 
Q 2172 -91 1784 -91 
Q 1150 -91 751 415 
Q 353 922 353 1747 
Q 353 2572 751 3078 
Q 1150 3584 1784 3584 
Q 2172 3584 2448 3432 
Q 2725 3281 2906 2969 
z
M 947 1747 
Q 947 1113 1208 752 
Q 1469 391 1925 391 
Q 2381 391 2643 752 
Q 2906 1113 2906 1747 
Q 2906 2381 2643 2742 
Q 2381 3103 1925 3103 
Q 1469 3103 1208 2742 
Q 947 2381 947 1747 
z
" transform="scale(0.015625)"/>
       <path id="DejaVuSans-61" d="M 2194 1759 
Q 1497 1759 1228 1600 
Q 959 1441 959 1056 
Q 959 750 1161 570 
Q 1363 391 1709 391 
Q 2188 391 2477 730 
Q 2766 1069 2766 1631 
L 2766 1759 
L 2194 1759 
z
M 3341 1997 
L 3341 0 
L 2766 0 
L 2766 531 
Q 2569 213 2275 61 
Q 1981 -91 1556 -91 
Q 1019 -91 701 211 
Q 384 513 384 1019 
Q 384 1609 779 1909 
Q 1175 2209 1959 2209 
L 2766 2209 
L 2766 2266 
Q 2766 2663 2505 2880 
Q 2244 3097 1772 3097 
Q 1472 3097 1187 3025 
Q 903 2953 641 2809 
L 641 3341 
Q 956 3463 1253 3523 
Q 1550 3584 1831 3584 
Q 2591 3584 2966 3190 
Q 3341 2797 3341 1997 
z
" transform="scale(0.015625)"/>
       <path id="DejaVuSans-62" d="M 3116 1747 
Q 3116 2381 2855 2742 
Q 2594 3103 2138 3103 
Q 1681 3103 1420 2742 
Q 1159 2381 1159 1747 
Q 1159 1113 1420 752 
Q 1681 391 2138 391 
Q 2594 391 2855 752 
Q 3116 1113 3116 1747 
z
M 1159 2969 
Q 1341 3281 1617 3432 
Q 1894 3584 2278 3584 
Q 2916 3584 3314 3078 
Q 3713 2572 3713 1747 
Q 3713 922 3314 415 
Q 2916 -91 2278 -91 
Q 1894 -91 1617 61 
Q 1341 213 1159 525 
L 1159 0 
L 581 0 
L 581 4863 
L 1159 4863 
L 1159 2969 
z
" transform="scale(0.015625)"/>
      </defs>
      <use xlink:href="#DejaVuSans-50"/>
      <use xlink:href="#DejaVuSans-72" x="58.552734"/>
      <use xlink:href="#DejaVuSans-65" x="97.416016"/>
      <use xlink:href="#DejaVuSans-64" x="158.939453"/>
      <use xlink:href="#DejaVuSans-69" x="222.416016"/>
      <use xlink:href="#DejaVuSans-63" x="250.199219"/>
      <use xlink:href="#DejaVuSans-74" x="305.179688"/>
      <use xlink:href="#DejaVuSans-65" x="344.388672"/>
      <use xlink:href="#DejaVuSans-64" x="405.912109"/>
      <use xlink:href="#DejaVuSans-20" x="469.388672"/>
      <use xlink:href="#DejaVuSans-6c" x="501.175781"/>
      <use xlink:href="#DejaVuSans-61" x="528.958984"/>
      <use xlink:href="#DejaVuSans-62" x="590.238281"/>
      <use xlink:href="#DejaVuSans-65" x="653.714844"/>
      <use xlink:href="#DejaVuSans-6c" x="715.238281"/>
     </g>
    </g>
   </g>
   <g id="line2d_12">
    <path d="M 617.261843 390.84375 
L 617.261843 14.447844 
" clip-path="url(#p7373479b87)" style="fill: none; stroke: #ff0000; stroke-width: 1.5; stroke-linecap: square"/>
   </g>
   <g id="patch_3">
    <path d="M 27.978125 390.84375 
L 27.978125 14.447844 
" style="fill: none; stroke: #000000; stroke-width: 0.8; stroke-linejoin: miter; stroke-linecap: square"/>
   </g>
   <g id="patch_4">
    <path d="M 709.2 390.84375 
L 709.2 14.447844 
" style="fill: none; stroke: #000000; stroke-width: 0.8; stroke-linejoin: miter; stroke-linecap: square"/>
   </g>
   <g id="patch_5">
    <path d="M 27.978125 390.84375 
L 709.2 390.84375 
" style="fill: none; stroke: #000000; stroke-width: 0.8; stroke-linejoin: miter; stroke-linecap: square"/>
   </g>
   <g id="patch_6">
    <path d="M 27.978125 14.447844 
L 709.2 14.447844 
" style="fill: none; stroke: #000000; stroke-width: 0.8; stroke-linejoin: miter; stroke-linecap: square"/>
   </g>
   <g id="text_14">
    <!-- 0 -->
    <g transform="translate(336.987831 381.009178) scale(0.1 -0.1)">
     <use xlink:href="#DejaVuSans-30"/>
    </g>
   </g>
   <g id="text_15">
    <!-- 1 -->
    <g transform="translate(336.987831 350.164382) scale(0.1 -0.1)">
     <use xlink:href="#DejaVuSans-31"/>
    </g>
   </g>
   <g id="text_16">
    <!-- 2 -->
    <g transform="translate(336.987831 318.202022) scale(0.1 -0.1)">
     <use xlink:href="#DejaVuSans-32"/>
    </g>
   </g>
   <g id="text_17">
    <!-- 3 -->
    <g transform="translate(336.987831 287.133714) scale(0.1 -0.1)">
     <defs>
      <path id="DejaVuSans-33" d="M 2597 2516 
Q 3050 2419 3304 2112 
Q 3559 1806 3559 1356 
Q 3559 666 3084 287 
Q 2609 -91 1734 -91 
Q 1441 -91 1130 -33 
Q 819 25 488 141 
L 488 750 
Q 750 597 1062 519 
Q 1375 441 1716 441 
Q 2309 441 2620 675 
Q 2931 909 2931 1356 
Q 2931 1769 2642 2001 
Q 2353 2234 1838 2234 
L 1294 2234 
L 1294 2753 
L 1863 2753 
Q 2328 2753 2575 2939 
Q 2822 3125 2822 3475 
Q 2822 3834 2567 4026 
Q 2313 4219 1838 4219 
Q 1578 4219 1281 4162 
Q 984 4106 628 3988 
L 628 4550 
Q 988 4650 1302 4700 
Q 1616 4750 1894 4750 
Q 2613 4750 3031 4423 
Q 3450 4097 3450 3541 
Q 3450 3153 3228 2886 
Q 3006 2619 2597 2516 
z
" transform="scale(0.015625)"/>
     </defs>
     <use xlink:href="#DejaVuSans-33"/>
    </g>
   </g>
   <g id="text_18">
    <!-- 4 -->
    <g transform="translate(336.987831 257.85351) scale(0.1 -0.1)">
     <use xlink:href="#DejaVuSans-34"/>
    </g>
   </g>
   <g id="text_19">
    <!-- 5 -->
    <g transform="translate(336.987831 246.230833) scale(0.1 -0.1)">
     <defs>
      <path id="DejaVuSans-35" d="M 691 4666 
L 3169 4666 
L 3169 4134 
L 1269 4134 
L 1269 2991 
Q 1406 3038 1543 3061 
Q 1681 3084 1819 3084 
Q 2600 3084 3056 2656 
Q 3513 2228 3513 1497 
Q 3513 744 3044 326 
Q 2575 -91 1722 -91 
Q 1428 -91 1123 -41 
Q 819 9 494 109 
L 494 744 
Q 775 591 1075 516 
Q 1375 441 1709 441 
Q 2250 441 2565 725 
Q 2881 1009 2881 1497 
Q 2881 1984 2565 2268 
Q 2250 2553 1709 2553 
Q 1456 2553 1204 2497 
Q 953 2441 691 2322 
L 691 4666 
z
" transform="scale(0.015625)"/>
     </defs>
     <use xlink:href="#DejaVuSans-35"/>
    </g>
   </g>
   <g id="text_20">
    <!-- 6 -->
    <g transform="translate(336.987831 198.39905) scale(0.1 -0.1)">
     <use xlink:href="#DejaVuSans-36"/>
    </g>
   </g>
   <g id="text_21">
    <!-- 7 -->
    <g transform="translate(336.987831 151.237805) scale(0.1 -0.1)">
     <defs>
      <path id="DejaVuSans-37" d="M 525 4666 
L 3525 4666 
L 3525 4397 
L 1831 0 
L 1172 0 
L 2766 4134 
L 525 4134 
L 525 4666 
z
" transform="scale(0.015625)"/>
     </defs>
     <use xlink:href="#DejaVuSans-37"/>
    </g>
   </g>
   <g id="text_22">
    <!-- 8 -->
    <g transform="translate(336.987831 143.638363) scale(0.1 -0.1)">
     <use xlink:href="#DejaVuSans-38"/>
    </g>
   </g>
   <g id="text_23">
    <!-- 9 -->
    <g transform="translate(336.987831 123.969218) scale(0.1 -0.1)">
     <defs>
      <path id="DejaVuSans-39" d="M 703 97 
L 703 672 
Q 941 559 1184 500 
Q 1428 441 1663 441 
Q 2288 441 2617 861 
Q 2947 1281 2994 2138 
Q 2813 1869 2534 1725 
Q 2256 1581 1919 1581 
Q 1219 1581 811 2004 
Q 403 2428 403 3163 
Q 403 3881 828 4315 
Q 1253 4750 1959 4750 
Q 2769 4750 3195 4129 
Q 3622 3509 3622 2328 
Q 3622 1225 3098 567 
Q 2575 -91 1691 -91 
Q 1453 -91 1209 -44 
Q 966 3 703 97 
z
M 1959 2075 
Q 2384 2075 2632 2365 
Q 2881 2656 2881 3163 
Q 2881 3666 2632 3958 
Q 2384 4250 1959 4250 
Q 1534 4250 1286 3958 
Q 1038 3666 1038 3163 
Q 1038 2656 1286 2365 
Q 1534 2075 1959 2075 
z
" transform="scale(0.015625)"/>
     </defs>
     <use xlink:href="#DejaVuSans-39"/>
    </g>
   </g>
   <g id="text_24">
    <!-- 10 -->
    <g transform="translate(336.987831 93.347936) scale(0.1 -0.1)">
     <use xlink:href="#DejaVuSans-31"/>
     <use xlink:href="#DejaVuSans-30" x="63.623047"/>
    </g>
   </g>
   <g id="text_25">
    <!-- 11 -->
    <g transform="translate(336.987831 63.17368) scale(0.1 -0.1)">
     <use xlink:href="#DejaVuSans-31"/>
     <use xlink:href="#DejaVuSans-31" x="63.623047"/>
    </g>
   </g>
   <g id="text_26">
    <!-- 12 -->
    <g transform="translate(336.987831 42.163457) scale(0.1 -0.1)">
     <use xlink:href="#DejaVuSans-31"/>
     <use xlink:href="#DejaVuSans-32" x="63.623047"/>
    </g>
   </g>
   <g id="text_27">
    <!-- 13 -->
    <g transform="translate(336.987831 33.893475) scale(0.1 -0.1)">
     <use xlink:href="#DejaVuSans-31"/>
     <use xlink:href="#DejaVuSans-33" x="63.623047"/>
    </g>
   </g>
   <g id="text_28">
    <!-- 14 -->
    <g transform="translate(336.987831 26.741059) scale(0.1 -0.1)">
     <use xlink:href="#DejaVuSans-31"/>
     <use xlink:href="#DejaVuSans-34" x="63.623047"/>
    </g>
   </g>
   <g id="text_29">
    <!-- 15 -->
    <g transform="translate(336.987831 19.588643) scale(0.1 -0.1)">
     <use xlink:href="#DejaVuSans-31"/>
     <use xlink:href="#DejaVuSans-35" x="63.623047"/>
    </g>
   </g>
   <g id="text_30">
    <!-- 0.8117 -->
    <g style="fill: #ff0000" transform="translate(633.525511 18.918104) scale(0.1 -0.1)">
     <use xlink:href="#DejaVuSans-30"/>
     <use xlink:href="#DejaVuSans-2e" x="63.623047"/>
     <use xlink:href="#DejaVuSans-38" x="95.410156"/>
     <use xlink:href="#DejaVuSans-31" x="159.033203"/>
     <use xlink:href="#DejaVuSans-31" x="222.65625"/>
     <use xlink:href="#DejaVuSans-37" x="286.279297"/>
    </g>
   </g>
  </g>
 </g>
 <defs>
  <clipPath id="p7373479b87">
   <rect x="27.978125" y="14.447844" width="681.221875" height="376.395906"/>
  </clipPath>
 </defs>
</svg>
