<?xml version="1.0" encoding="utf-8" standalone="no"?>
<!DOCTYPE svg PUBLIC "-//W3C//DTD SVG 1.1//EN"
  "http://www.w3.org/Graphics/SVG/1.1/DTD/svg11.dtd">
<svg xmlns:xlink="http://www.w3.org/1999/xlink" width="720pt" height="720pt" viewBox="0 0 720 720" xmlns="http://www.w3.org/2000/svg" version="1.1">
 <metadata>
  <rdf:RDF xmlns:dc="http://purl.org/dc/elements/1.1/" xmlns:cc="http://creativecommons.org/ns#" xmlns:rdf="http://www.w3.org/1999/02/22-rdf-syntax-ns#">
   <cc:Work>
    <dc:type rdf:resource="http://purl.org/dc/dcmitype/StillImage"/>
    <dc:date>2022-11-17T19:06:50.491045</dc:date>
    <dc:format>image/svg+xml</dc:format>
    <dc:creator>
     <cc:Agent>
      <dc:title>Matplotlib v3.6.1, https://matplotlib.org/</dc:title>
     </cc:Agent>
    </dc:creator>
   </cc:Work>
  </rdf:RDF>
 </metadata>
 <defs>
  <style type="text/css">*{stroke-linejoin: round; stroke-linecap: butt}</style>
 </defs>
 <g id="figure_1">
  <g id="patch_1">
   <path d="M 0 720 
L 720 720 
L 720 0 
L 0 0 
z
" style="fill: #ffffff"/>
  </g>
  <g id="axes_1">
   <g id="patch_2">
    <path d="M 27.978125 678.84375 
L 709.2 678.84375 
L 709.2 11.814114 
L 27.978125 11.814114 
z
" style="fill: #ffffff"/>
   </g>
   <g id="PolyCollection_1">
    <defs>
     <path id="m6d46e6a151" d="M 65.022378 -49.078217 
L 353.2515 -49.078217 
L 353.2515 -49.870414 
L 353.2515 -50.662611 
L 353.2515 -51.454807 
L 353.2515 -52.247004 
L 353.2515 -53.039201 
L 353.2515 -53.831397 
L 353.2515 -54.623594 
L 353.2515 -55.415791 
L 353.2515 -56.207988 
L 353.2515 -57.000184 
L 353.2515 -57.792381 
L 353.2515 -58.584578 
L 353.2515 -59.376774 
L 353.2515 -60.168971 
L 353.2515 -60.961168 
L 353.2515 -61.753365 
L 353.2515 -62.545561 
L 353.2515 -63.337758 
L 353.2515 -64.129955 
L 353.2515 -64.922152 
L 353.2515 -65.714348 
L 353.2515 -66.506545 
L 353.2515 -67.298742 
L 670.165944 -67.298742 
L 670.165944 -67.298742 
L 670.054857 -66.506545 
L 667.472044 -65.714348 
L 667.472044 -64.922152 
L 667.444152 -64.129955 
L 666.797198 -63.337758 
L 661.423202 -62.545561 
L 656.663451 -61.753365 
L 656.516498 -60.961168 
L 648.871105 -60.168971 
L 647.913273 -59.376774 
L 639.683896 -58.584578 
L 638.769897 -57.792381 
L 638.28 -57.000184 
L 123.348465 -56.207988 
L 121.62134 -55.415791 
L 117.704364 -54.623594 
L 113.218319 -53.831397 
L 106.929616 -53.039201 
L 104.657606 -52.247004 
L 100.75733 -51.454807 
L 96.852835 -50.662611 
L 71.307689 -49.870414 
L 65.022378 -49.078217 
z
" style="stroke: #000000; stroke-opacity: 0.7"/>
    </defs>
    <g clip-path="url(#p31f458c143)">
     <use xlink:href="#m6d46e6a151" x="0" y="720" style="fill-opacity: 0.7; stroke: #000000; stroke-opacity: 0.7"/>
    </g>
   </g>
   <g id="PolyCollection_2">
    <defs>
     <path id="m96e95509db" d="M 112.896082 -76.012906 
L 353.2515 -76.012906 
L 353.2515 -76.805102 
L 353.2515 -77.597299 
L 353.2515 -78.389496 
L 353.2515 -79.181692 
L 353.2515 -79.973889 
L 353.2515 -80.766086 
L 353.2515 -81.558283 
L 353.2515 -82.350479 
L 353.2515 -83.142676 
L 353.2515 -83.934873 
L 353.2515 -84.727069 
L 353.2515 -85.519266 
L 353.2515 -86.311463 
L 353.2515 -87.10366 
L 353.2515 -87.895856 
L 353.2515 -88.688053 
L 353.2515 -89.48025 
L 353.2515 -90.272446 
L 353.2515 -91.064643 
L 353.2515 -91.85684 
L 353.2515 -92.649037 
L 353.2515 -93.441233 
L 353.2515 -94.23343 
L 353.2515 -95.025627 
L 353.2515 -95.817823 
L 353.2515 -96.61002 
L 353.2515 -97.402217 
L 353.2515 -98.194414 
L 353.2515 -98.98661 
L 353.2515 -99.778807 
L 353.2515 -100.571004 
L 353.2515 -101.3632 
L 353.2515 -102.155397 
L 353.2515 -102.947594 
L 353.2515 -103.739791 
L 353.2515 -104.531987 
L 353.2515 -105.324184 
L 353.2515 -106.116381 
L 353.2515 -106.908577 
L 353.2515 -107.700774 
L 353.2515 -108.492971 
L 353.2515 -109.285168 
L 353.2515 -110.077364 
L 353.2515 -110.869561 
L 353.2515 -111.661758 
L 353.2515 -112.453955 
L 353.2515 -113.246151 
L 353.2515 -114.038348 
L 353.2515 -114.830545 
L 353.2515 -115.622741 
L 353.2515 -116.414938 
L 353.2515 -117.207135 
L 353.2515 -117.999332 
L 353.2515 -118.791528 
L 353.2515 -119.583725 
L 353.2515 -120.375922 
L 353.2515 -121.168118 
L 353.2515 -121.960315 
L 353.2515 -122.752512 
L 353.2515 -123.544709 
L 353.2515 -124.336905 
L 353.2515 -125.129102 
L 353.2515 -125.921299 
L 353.2515 -126.713495 
L 353.2515 -127.505692 
L 353.2515 -128.297889 
L 353.2515 -129.090086 
L 353.2515 -129.882282 
L 353.2515 -130.674479 
L 353.2515 -131.466676 
L 353.2515 -132.258872 
L 353.2515 -133.051069 
L 353.2515 -133.843266 
L 353.2515 -134.635463 
L 353.2515 -135.427659 
L 353.2515 -136.219856 
L 353.2515 -137.012053 
L 353.2515 -137.804249 
L 353.2515 -138.596446 
L 353.2515 -139.388643 
L 353.2515 -140.18084 
L 353.2515 -140.973036 
L 353.2515 -141.765233 
L 353.2515 -142.55743 
L 353.2515 -143.349626 
L 353.2515 -144.141823 
L 353.2515 -144.93402 
L 353.2515 -145.726217 
L 353.2515 -146.518413 
L 353.2515 -147.31061 
L 353.2515 -148.102807 
L 353.2515 -148.895003 
L 353.2515 -149.6872 
L 678.111034 -149.6872 
L 678.111034 -149.6872 
L 677.728933 -148.895003 
L 677.305225 -148.102807 
L 677.246733 -147.31061 
L 677.097614 -146.518413 
L 676.990118 -145.726217 
L 676.977373 -144.93402 
L 676.972494 -144.141823 
L 676.950958 -143.349626 
L 676.921523 -142.55743 
L 676.910554 -141.765233 
L 676.903569 -140.973036 
L 676.89445 -140.18084 
L 676.871361 -139.388643 
L 676.815113 -138.596446 
L 676.714622 -137.804249 
L 676.695913 -137.012053 
L 676.670276 -136.219856 
L 676.66973 -135.427659 
L 676.618612 -134.635463 
L 676.566855 -133.843266 
L 676.55068 -133.051069 
L 676.522009 -132.258872 
L 676.516664 -131.466676 
L 676.516117 -130.674479 
L 676.502328 -129.882282 
L 676.481151 -129.090086 
L 676.475825 -128.297889 
L 676.455689 -127.505692 
L 676.429085 -126.713495 
L 676.377551 -125.921299 
L 676.364268 -125.129102 
L 676.35788 -124.336905 
L 676.290987 -123.544709 
L 676.280578 -122.752512 
L 676.25321 -121.960315 
L 676.243204 -121.168118 
L 676.205603 -120.375922 
L 676.145005 -119.583725 
L 676.121348 -118.791528 
L 676.120596 -117.999332 
L 676.093477 -117.207135 
L 676.075782 -116.414938 
L 676.072826 -115.622741 
L 676.06886 -114.830545 
L 676.056287 -114.038348 
L 676.037244 -113.246151 
L 676.025311 -112.453955 
L 676.008286 -111.661758 
L 676.006549 -110.869561 
L 675.968953 -110.077364 
L 675.959899 -109.285168 
L 675.952952 -108.492971 
L 675.931745 -107.700774 
L 675.923728 -106.908577 
L 675.882718 -106.116381 
L 675.881857 -105.324184 
L 675.879363 -104.531987 
L 675.853014 -103.739791 
L 675.839981 -102.947594 
L 675.805831 -102.155397 
L 675.774599 -101.3632 
L 675.772583 -100.571004 
L 675.764485 -99.778807 
L 675.665501 -98.98661 
L 675.624807 -98.194414 
L 675.620164 -97.402217 
L 675.573339 -96.61002 
L 675.517067 -95.817823 
L 675.473325 -95.025627 
L 675.470443 -94.23343 
L 675.46554 -93.441233 
L 675.388535 -92.649037 
L 675.337199 -91.85684 
L 675.315643 -91.064643 
L 675.266825 -90.272446 
L 675.032762 -89.48025 
L 674.902306 -88.688053 
L 674.872803 -87.895856 
L 673.966054 -87.10366 
L 672.490792 -86.311463 
L 671.023615 -85.519266 
L 668.869156 -84.727069 
L 667.909815 -83.934873 
L 661.521096 -83.142676 
L 648.642137 -82.350479 
L 446.697632 -81.558283 
L 398.566647 -80.766086 
L 368.020475 -79.973889 
L 240.24775 -79.181692 
L 230.486872 -78.389496 
L 179.935268 -77.597299 
L 146.784709 -76.805102 
L 112.896082 -76.012906 
z
" style="stroke: #7b008c; stroke-opacity: 0.7"/>
    </defs>
    <g clip-path="url(#p31f458c143)">
     <use xlink:href="#m96e95509db" x="0" y="720" style="fill: #7b008c; fill-opacity: 0.7; stroke: #7b008c; stroke-opacity: 0.7"/>
    </g>
   </g>
   <g id="PolyCollection_3">
    <defs>
     <path id="mb713d8cc80" d="M 68.108722 -158.401364 
L 353.2515 -158.401364 
L 353.2515 -159.193561 
L 353.2515 -159.985758 
L 353.2515 -160.777954 
L 353.2515 -161.570151 
L 353.2515 -162.362348 
L 353.2515 -163.154544 
L 353.2515 -163.946741 
L 353.2515 -164.738938 
L 353.2515 -165.531135 
L 353.2515 -166.323331 
L 353.2515 -167.115528 
L 353.2515 -167.907725 
L 353.2515 -168.699921 
L 353.2515 -169.492118 
L 353.2515 -170.284315 
L 353.2515 -171.076512 
L 353.2515 -171.868708 
L 353.2515 -172.660905 
L 353.2515 -173.453102 
L 353.2515 -174.245298 
L 353.2515 -175.037495 
L 353.2515 -175.829692 
L 353.2515 -176.621889 
L 353.2515 -177.414085 
L 353.2515 -178.206282 
L 353.2515 -178.998479 
L 353.2515 -179.790675 
L 353.2515 -180.582872 
L 677.677675 -180.582872 
L 677.677675 -180.582872 
L 677.541722 -179.790675 
L 677.316373 -178.998479 
L 676.915396 -178.206282 
L 676.542016 -177.414085 
L 675.560742 -176.621889 
L 632.340472 -175.829692 
L 617.901326 -175.037495 
L 612.436835 -174.245298 
L 594.710396 -173.453102 
L 575.844715 -172.660905 
L 563.478197 -171.868708 
L 548.118667 -171.076512 
L 546.05714 -170.284315 
L 537.96812 -169.492118 
L 504.281562 -168.699921 
L 499.832004 -167.907725 
L 486.414558 -167.115528 
L 458.456235 -166.323331 
L 412.774055 -165.531135 
L 350.407903 -164.738938 
L 296.755245 -163.946741 
L 249.758372 -163.154544 
L 197.258661 -162.362348 
L 197.143286 -161.570151 
L 142.057442 -160.777954 
L 135.348567 -159.985758 
L 132.426431 -159.193561 
L 68.108722 -158.401364 
z
" style="stroke: #4300a2; stroke-opacity: 0.7"/>
    </defs>
    <g clip-path="url(#p31f458c143)">
     <use xlink:href="#mb713d8cc80" x="0" y="720" style="fill: #4300a2; fill-opacity: 0.7; stroke: #4300a2; stroke-opacity: 0.7"/>
    </g>
   </g>
   <g id="PolyCollection_4">
    <defs>
     <path id="m7a7b892864" d="M 202.076978 -189.297036 
L 353.2515 -189.297036 
L 353.2515 -190.089233 
L 353.2515 -190.881429 
L 353.2515 -191.673626 
L 353.2515 -192.465823 
L 353.2515 -193.25802 
L 353.2515 -194.050216 
L 353.2515 -194.842413 
L 353.2515 -195.63461 
L 353.2515 -196.426806 
L 353.2515 -197.219003 
L 353.2515 -198.0112 
L 353.2515 -198.803397 
L 353.2515 -199.595593 
L 353.2515 -200.38779 
L 353.2515 -201.179987 
L 353.2515 -201.972184 
L 353.2515 -202.76438 
L 353.2515 -203.556577 
L 353.2515 -204.348774 
L 353.2515 -205.14097 
L 353.2515 -205.933167 
L 353.2515 -206.725364 
L 353.2515 -207.517561 
L 353.2515 -208.309757 
L 353.2515 -209.101954 
L 353.2515 -209.894151 
L 353.2515 -210.686347 
L 353.2515 -211.478544 
L 353.2515 -212.270741 
L 353.2515 -213.062938 
L 353.2515 -213.855134 
L 353.2515 -214.647331 
L 353.2515 -215.439528 
L 353.2515 -216.231724 
L 353.2515 -217.023921 
L 353.2515 -217.816118 
L 353.2515 -218.608315 
L 353.2515 -219.400511 
L 353.2515 -220.192708 
L 353.2515 -220.984905 
L 353.2515 -221.777101 
L 353.2515 -222.569298 
L 353.2515 -223.361495 
L 353.2515 -224.153692 
L 353.2515 -224.945888 
L 353.2515 -225.738085 
L 353.2515 -226.530282 
L 353.2515 -227.322478 
L 353.2515 -228.114675 
L 353.2515 -228.906872 
L 353.2515 -229.699069 
L 353.2515 -230.491265 
L 353.2515 -231.283462 
L 353.2515 -232.075659 
L 353.2515 -232.867855 
L 353.2515 -233.660052 
L 353.2515 -234.452249 
L 353.2515 -235.244446 
L 353.2515 -236.036642 
L 353.2515 -236.828839 
L 353.2515 -237.621036 
L 353.2515 -238.413232 
L 353.2515 -239.205429 
L 353.2515 -239.997626 
L 353.2515 -240.789823 
L 353.2515 -241.582019 
L 353.2515 -242.374216 
L 353.2515 -243.166413 
L 353.2515 -243.958609 
L 353.2515 -244.750806 
L 353.2515 -245.543003 
L 353.2515 -246.3352 
L 353.2515 -247.127396 
L 353.2515 -247.919593 
L 353.2515 -248.71179 
L 353.2515 -249.503987 
L 353.2515 -250.296183 
L 353.2515 -251.08838 
L 353.2515 -251.880577 
L 353.2515 -252.672773 
L 353.2515 -253.46497 
L 353.2515 -254.257167 
L 353.2515 -255.049364 
L 353.2515 -255.84156 
L 353.2515 -256.633757 
L 353.2515 -257.425954 
L 353.2515 -258.21815 
L 353.2515 -259.010347 
L 353.2515 -259.802544 
L 678.283107 -259.802544 
L 678.283107 -259.802544 
L 677.686652 -259.010347 
L 677.63275 -258.21815 
L 677.629586 -257.425954 
L 677.411594 -256.633757 
L 677.296714 -255.84156 
L 670.79786 -255.049364 
L 670.607029 -254.257167 
L 670.344175 -253.46497 
L 670.154677 -252.672773 
L 669.881177 -251.880577 
L 669.715969 -251.08838 
L 668.687453 -250.296183 
L 667.491163 -249.503987 
L 667.197464 -248.71179 
L 666.990524 -247.919593 
L 666.535219 -247.127396 
L 666.384649 -246.3352 
L 666.27816 -245.543003 
L 666.022897 -244.750806 
L 665.689258 -243.958609 
L 665.298466 -243.166413 
L 665.004612 -242.374216 
L 664.832007 -241.582019 
L 664.703723 -240.789823 
L 664.398946 -239.997626 
L 664.204445 -239.205429 
L 664.196681 -238.413232 
L 664.017451 -237.621036 
L 662.911996 -236.828839 
L 662.407828 -236.036642 
L 661.901757 -235.244446 
L 661.516301 -234.452249 
L 661.411749 -233.660052 
L 661.248652 -232.867855 
L 660.866873 -232.075659 
L 660.164901 -231.283462 
L 659.695297 -230.491265 
L 658.612384 -229.699069 
L 658.313116 -228.906872 
L 657.353748 -228.114675 
L 657.286282 -227.322478 
L 656.97381 -226.530282 
L 655.664795 -225.738085 
L 655.150027 -224.945888 
L 654.908136 -224.153692 
L 654.744537 -223.361495 
L 653.709207 -222.569298 
L 652.34322 -221.777101 
L 651.520575 -220.984905 
L 649.379126 -220.192708 
L 648.940298 -219.400511 
L 648.646013 -218.608315 
L 648.589484 -217.816118 
L 648.440771 -217.023921 
L 647.279801 -216.231724 
L 646.738423 -215.439528 
L 644.510308 -214.647331 
L 642.140161 -213.855134 
L 637.799641 -213.062938 
L 636.928774 -212.270741 
L 634.490073 -211.478544 
L 634.436796 -210.686347 
L 626.998252 -209.894151 
L 626.460773 -209.101954 
L 620.682238 -208.309757 
L 618.498157 -207.517561 
L 617.031883 -206.725364 
L 616.171122 -205.933167 
L 611.196254 -205.14097 
L 606.61675 -204.348774 
L 601.327991 -203.556577 
L 598.687992 -202.76438 
L 591.076825 -201.972184 
L 584.328342 -201.179987 
L 576.106994 -200.38779 
L 574.504314 -199.595593 
L 573.963042 -198.803397 
L 570.617973 -198.0112 
L 568.170191 -197.219003 
L 560.425763 -196.426806 
L 555.69404 -195.63461 
L 543.717542 -194.842413 
L 515.517659 -194.050216 
L 512.016504 -193.25802 
L 507.67293 -192.465823 
L 489.978212 -191.673626 
L 394.973076 -190.881429 
L 297.403167 -190.089233 
L 202.076978 -189.297036 
z
" style="stroke: #0000d1; stroke-opacity: 0.7"/>
    </defs>
    <g clip-path="url(#p31f458c143)">
     <use xlink:href="#m7a7b892864" x="0" y="720" style="fill: #0000d1; fill-opacity: 0.7; stroke: #0000d1; stroke-opacity: 0.7"/>
    </g>
   </g>
   <g id="PolyCollection_5">
    <defs>
     <path id="m76ec9dd31d" d="M 151.642591 -268.516708 
L 353.2515 -268.516708 
L 353.2515 -269.308904 
L 353.2515 -270.101101 
L 353.2515 -270.893298 
L 353.2515 -271.685495 
L 353.2515 -272.477691 
L 353.2515 -273.269888 
L 353.2515 -274.062085 
L 353.2515 -274.854281 
L 353.2515 -275.646478 
L 353.2515 -276.438675 
L 353.2515 -277.230872 
L 353.2515 -278.023068 
L 353.2515 -278.815265 
L 353.2515 -279.607462 
L 353.2515 -280.399658 
L 353.2515 -281.191855 
L 353.2515 -281.984052 
L 353.2515 -282.776249 
L 353.2515 -283.568445 
L 353.2515 -284.360642 
L 677.410946 -284.360642 
L 677.410946 -284.360642 
L 674.975947 -283.568445 
L 667.758949 -282.776249 
L 666.514611 -281.984052 
L 665.323699 -281.191855 
L 664.814779 -280.399658 
L 659.034657 -279.607462 
L 653.780763 -278.815265 
L 648.621225 -278.023068 
L 643.188767 -277.230872 
L 638.867414 -276.438675 
L 638.201354 -275.646478 
L 633.292586 -274.854281 
L 631.542049 -274.062085 
L 629.960853 -273.269888 
L 622.533435 -272.477691 
L 622.514442 -271.685495 
L 615.863807 -270.893298 
L 588.203409 -270.101101 
L 306.412386 -269.308904 
L 151.642591 -268.516708 
z
" style="stroke: #0078dd; stroke-opacity: 0.7"/>
    </defs>
    <g clip-path="url(#p31f458c143)">
     <use xlink:href="#m76ec9dd31d" x="0" y="720" style="fill: #0078dd; fill-opacity: 0.7; stroke: #0078dd; stroke-opacity: 0.7"/>
    </g>
   </g>
   <g id="PolyCollection_6">
    <defs>
     <path id="m3bcf4744a9" d="M 207.094008 -293.074806 
L 353.2515 -293.074806 
L 353.2515 -293.867003 
L 353.2515 -294.659199 
L 353.2515 -295.451396 
L 353.2515 -296.243593 
L 353.2515 -297.03579 
L 353.2515 -297.827986 
L 353.2515 -298.620183 
L 353.2515 -299.41238 
L 353.2515 -300.204576 
L 353.2515 -300.996773 
L 671.745378 -300.996773 
L 671.745378 -300.996773 
L 667.24758 -300.204576 
L 665.847684 -299.41238 
L 655.306908 -298.620183 
L 650.935043 -297.827986 
L 647.776358 -297.03579 
L 647.344583 -296.243593 
L 645.786323 -295.451396 
L 645.472503 -294.659199 
L 302.544269 -293.867003 
L 207.094008 -293.074806 
z
" style="stroke: #009ecf; stroke-opacity: 0.7"/>
    </defs>
    <g clip-path="url(#p31f458c143)">
     <use xlink:href="#m3bcf4744a9" x="0" y="720" style="fill: #009ecf; fill-opacity: 0.7; stroke: #009ecf; stroke-opacity: 0.7"/>
    </g>
   </g>
   <g id="PolyCollection_7">
    <defs>
     <path id="m2841ef768b" d="M 380.611836 -309.710937 
L 353.2515 -309.710937 
L 353.2515 -310.503134 
L 353.2515 -311.29533 
L 353.2515 -312.087527 
L 353.2515 -312.879724 
L 353.2515 -313.671921 
L 353.2515 -314.464117 
L 353.2515 -315.256314 
L 353.2515 -316.048511 
L 353.2515 -316.840707 
L 353.2515 -317.632904 
L 353.2515 -318.425101 
L 353.2515 -319.217298 
L 353.2515 -320.009494 
L 353.2515 -320.801691 
L 353.2515 -321.593888 
L 353.2515 -322.386084 
L 353.2515 -323.178281 
L 353.2515 -323.970478 
L 353.2515 -324.762675 
L 353.2515 -325.554871 
L 353.2515 -326.347068 
L 353.2515 -327.139265 
L 353.2515 -327.931461 
L 353.2515 -328.723658 
L 353.2515 -329.515855 
L 353.2515 -330.308052 
L 353.2515 -331.100248 
L 353.2515 -331.892445 
L 353.2515 -332.684642 
L 353.2515 -333.476838 
L 353.2515 -334.269035 
L 353.2515 -335.061232 
L 353.2515 -335.853429 
L 353.2515 -336.645625 
L 353.2515 -337.437822 
L 353.2515 -338.230019 
L 353.2515 -339.022216 
L 353.2515 -339.814412 
L 353.2515 -340.606609 
L 353.2515 -341.398806 
L 353.2515 -342.191002 
L 353.2515 -342.983199 
L 353.2515 -343.775396 
L 353.2515 -344.567593 
L 353.2515 -345.359789 
L 353.2515 -346.151986 
L 353.2515 -346.944183 
L 353.2515 -347.736379 
L 353.2515 -348.528576 
L 353.2515 -349.320773 
L 353.2515 -350.11297 
L 353.2515 -350.905166 
L 353.2515 -351.697363 
L 353.2515 -352.48956 
L 353.2515 -353.281756 
L 353.2515 -354.073953 
L 353.2515 -354.86615 
L 353.2515 -355.658347 
L 353.2515 -356.450543 
L 353.2515 -357.24274 
L 353.2515 -358.034937 
L 353.2515 -358.827133 
L 353.2515 -359.61933 
L 353.2515 -360.411527 
L 353.2515 -361.203724 
L 353.2515 -361.99592 
L 353.2515 -362.788117 
L 353.2515 -363.580314 
L 353.2515 -364.37251 
L 353.2515 -365.164707 
L 353.2515 -365.956904 
L 353.2515 -366.749101 
L 353.2515 -367.541297 
L 353.2515 -368.333494 
L 353.2515 -369.125691 
L 353.2515 -369.917887 
L 353.2515 -370.710084 
L 353.2515 -371.502281 
L 353.2515 -372.294478 
L 353.2515 -373.086674 
L 353.2515 -373.878871 
L 353.2515 -374.671068 
L 353.2515 -375.463264 
L 353.2515 -376.255461 
L 353.2515 -377.047658 
L 353.2515 -377.839855 
L 353.2515 -378.632051 
L 353.2515 -379.424248 
L 353.2515 -380.216445 
L 353.2515 -381.008642 
L 353.2515 -381.800838 
L 353.2515 -382.593035 
L 353.2515 -383.385232 
L 353.2515 -384.177428 
L 353.2515 -384.969625 
L 353.2515 -385.761822 
L 353.2515 -386.554019 
L 353.2515 -387.346215 
L 353.2515 -388.138412 
L 353.2515 -388.930609 
L 353.2515 -389.722805 
L 353.2515 -390.515002 
L 353.2515 -391.307199 
L 353.2515 -392.099396 
L 353.2515 -392.891592 
L 353.2515 -393.683789 
L 353.2515 -394.475986 
L 353.2515 -395.268182 
L 353.2515 -396.060379 
L 353.2515 -396.852576 
L 353.2515 -397.644773 
L 353.2515 -398.436969 
L 353.2515 -399.229166 
L 353.2515 -400.021363 
L 353.2515 -400.813559 
L 353.2515 -401.605756 
L 353.2515 -402.397953 
L 353.2515 -403.19015 
L 353.2515 -403.982346 
L 353.2515 -404.774543 
L 353.2515 -405.56674 
L 353.2515 -406.358936 
L 353.2515 -407.151133 
L 353.2515 -407.94333 
L 353.2515 -408.735527 
L 353.2515 -409.527723 
L 353.2515 -410.31992 
L 353.2515 -411.112117 
L 353.2515 -411.904313 
L 353.2515 -412.69651 
L 353.2515 -413.488707 
L 353.2515 -414.280904 
L 353.2515 -415.0731 
L 353.2515 -415.865297 
L 353.2515 -416.657494 
L 353.2515 -417.44969 
L 353.2515 -418.241887 
L 353.2515 -419.034084 
L 353.2515 -419.826281 
L 353.2515 -420.618477 
L 353.2515 -421.410674 
L 353.2515 -422.202871 
L 353.2515 -422.995067 
L 353.2515 -423.787264 
L 353.2515 -424.579461 
L 353.2515 -425.371658 
L 353.2515 -426.163854 
L 353.2515 -426.956051 
L 353.2515 -427.748248 
L 353.2515 -428.540445 
L 353.2515 -429.332641 
L 353.2515 -430.124838 
L 353.2515 -430.917035 
L 353.2515 -431.709231 
L 353.2515 -432.501428 
L 353.2515 -433.293625 
L 353.2515 -434.085822 
L 353.2515 -434.878018 
L 353.2515 -435.670215 
L 353.2515 -436.462412 
L 353.2515 -437.254608 
L 353.2515 -438.046805 
L 353.2515 -438.839002 
L 353.2515 -439.631199 
L 353.2515 -440.423395 
L 353.2515 -441.215592 
L 353.2515 -442.007789 
L 353.2515 -442.799985 
L 353.2515 -443.592182 
L 353.2515 -444.384379 
L 353.2515 -445.176576 
L 353.2515 -445.968772 
L 353.2515 -446.760969 
L 353.2515 -447.553166 
L 353.2515 -448.345362 
L 353.2515 -449.137559 
L 353.2515 -449.929756 
L 353.2515 -450.721953 
L 353.2515 -451.514149 
L 353.2515 -452.306346 
L 353.2515 -453.098543 
L 353.2515 -453.890739 
L 677.378106 -453.890739 
L 677.378106 -453.890739 
L 677.320672 -453.098543 
L 677.284602 -452.306346 
L 677.27397 -451.514149 
L 677.139381 -450.721953 
L 677.131598 -449.929756 
L 677.10175 -449.137559 
L 677.057236 -448.345362 
L 677.055577 -447.553166 
L 677.040601 -446.760969 
L 677.009728 -445.968772 
L 677.000837 -445.176576 
L 676.998923 -444.384379 
L 676.952575 -443.592182 
L 676.945679 -442.799985 
L 676.940634 -442.007789 
L 676.91493 -441.215592 
L 676.867796 -440.423395 
L 676.864082 -439.631199 
L 676.789821 -438.839002 
L 676.774448 -438.046805 
L 676.741454 -437.254608 
L 676.726247 -436.462412 
L 676.720737 -435.670215 
L 676.619201 -434.878018 
L 676.606826 -434.085822 
L 676.583069 -433.293625 
L 676.582524 -432.501428 
L 676.552104 -431.709231 
L 676.524298 -430.917035 
L 676.518476 -430.124838 
L 676.494443 -429.332641 
L 676.480047 -428.540445 
L 676.44957 -427.748248 
L 676.446032 -426.956051 
L 676.406296 -426.163854 
L 676.389479 -425.371658 
L 676.378912 -424.579461 
L 676.373889 -423.787264 
L 676.340123 -422.995067 
L 676.334854 -422.202871 
L 676.234209 -421.410674 
L 676.232507 -420.618477 
L 676.209665 -419.826281 
L 676.205188 -419.034084 
L 676.178334 -418.241887 
L 676.159855 -417.44969 
L 676.141269 -416.657494 
L 676.140228 -415.865297 
L 676.132642 -415.0731 
L 676.130283 -414.280904 
L 676.114467 -413.488707 
L 676.111412 -412.69651 
L 675.998096 -411.904313 
L 675.984677 -411.112117 
L 675.982105 -410.31992 
L 675.96811 -409.527723 
L 675.944883 -408.735527 
L 675.938397 -407.94333 
L 675.918238 -407.151133 
L 675.911868 -406.358936 
L 675.910032 -405.56674 
L 675.905367 -404.774543 
L 675.903828 -403.982346 
L 675.882043 -403.19015 
L 675.86617 -402.397953 
L 675.811394 -401.605756 
L 675.80438 -400.813559 
L 675.7842 -400.021363 
L 675.780376 -399.229166 
L 675.733392 -398.436969 
L 675.729022 -397.644773 
L 675.726118 -396.852576 
L 675.71167 -396.060379 
L 675.663997 -395.268182 
L 675.658724 -394.475986 
L 675.64925 -393.683789 
L 675.633517 -392.891592 
L 675.629267 -392.099396 
L 675.623941 -391.307199 
L 675.583412 -390.515002 
L 675.573629 -389.722805 
L 675.55886 -388.930609 
L 675.537519 -388.138412 
L 675.513558 -387.346215 
L 675.510917 -386.554019 
L 675.489186 -385.761822 
L 675.452688 -384.969625 
L 675.44669 -384.177428 
L 675.43711 -383.385232 
L 675.433892 -382.593035 
L 675.433371 -381.800838 
L 675.427343 -381.008642 
L 675.406598 -380.216445 
L 675.402093 -379.424248 
L 675.332406 -378.632051 
L 675.321908 -377.839855 
L 675.263689 -377.047658 
L 675.260998 -376.255461 
L 675.208032 -375.463264 
L 675.102206 -374.671068 
L 674.958519 -373.878871 
L 674.894269 -373.086674 
L 674.863596 -372.294478 
L 674.806089 -371.502281 
L 674.739826 -370.710084 
L 674.72238 -369.917887 
L 674.719809 -369.125691 
L 674.620058 -368.333494 
L 674.585927 -367.541297 
L 674.402414 -366.749101 
L 674.367645 -365.956904 
L 674.025003 -365.164707 
L 673.861229 -364.37251 
L 673.791925 -363.580314 
L 673.771899 -362.788117 
L 673.634181 -361.99592 
L 673.57835 -361.203724 
L 672.985813 -360.411527 
L 672.779728 -359.61933 
L 672.527383 -358.827133 
L 672.521882 -358.034937 
L 672.466212 -357.24274 
L 672.427629 -356.450543 
L 672.328002 -355.658347 
L 671.684297 -354.86615 
L 671.456972 -354.073953 
L 671.422878 -353.281756 
L 671.267298 -352.48956 
L 671.064656 -351.697363 
L 670.998655 -350.905166 
L 670.832875 -350.11297 
L 670.466997 -349.320773 
L 669.936935 -348.528576 
L 669.885515 -347.736379 
L 669.358692 -346.944183 
L 669.325376 -346.151986 
L 669.07675 -345.359789 
L 668.995904 -344.567593 
L 668.994781 -343.775396 
L 668.58175 -342.983199 
L 668.32383 -342.191002 
L 668.150677 -341.398806 
L 668.115266 -340.606609 
L 667.811261 -339.814412 
L 667.579345 -339.022216 
L 667.556531 -338.230019 
L 667.004347 -337.437822 
L 666.735547 -336.645625 
L 666.118211 -335.853429 
L 666.006716 -335.061232 
L 665.877803 -334.269035 
L 665.699273 -333.476838 
L 665.217221 -332.684642 
L 665.17024 -331.892445 
L 665.166537 -331.100248 
L 665.070719 -330.308052 
L 664.267898 -329.515855 
L 663.438506 -328.723658 
L 662.584884 -327.931461 
L 660.268032 -327.139265 
L 658.392011 -326.347068 
L 657.690029 -325.554871 
L 642.6514 -324.762675 
L 641.04721 -323.970478 
L 639.416796 -323.178281 
L 635.696912 -322.386084 
L 634.888472 -321.593888 
L 629.693073 -320.801691 
L 626.330288 -320.009494 
L 617.709681 -319.217298 
L 614.869577 -318.425101 
L 609.528496 -317.632904 
L 607.535573 -316.840707 
L 602.259616 -316.048511 
L 594.780911 -315.256314 
L 593.322874 -314.464117 
L 589.322907 -313.671921 
L 585.110694 -312.879724 
L 580.86219 -312.087527 
L 551.775252 -311.29533 
L 521.62346 -310.503134 
L 380.611836 -309.710937 
z
" style="stroke: #00aa98; stroke-opacity: 0.7"/>
    </defs>
    <g clip-path="url(#p31f458c143)">
     <use xlink:href="#m2841ef768b" x="0" y="720" style="fill: #00aa98; fill-opacity: 0.7; stroke: #00aa98; stroke-opacity: 0.7"/>
    </g>
   </g>
   <g id="PolyCollection_8">
    <defs>
     <path id="m0abe6e32ef" d="M 677.783312 -462.604903 
L 353.2515 -462.604903 
L 353.2515 -463.3971 
L 353.2515 -464.189297 
L 353.2515 -464.981493 
L 353.2515 -465.77369 
L 353.2515 -466.565887 
L 353.2515 -467.358084 
L 353.2515 -468.15028 
L 678.502253 -468.15028 
L 678.502253 -468.15028 
L 678.467748 -467.358084 
L 678.465194 -466.565887 
L 678.365059 -465.77369 
L 678.320845 -464.981493 
L 678.289335 -464.189297 
L 678.214404 -463.3971 
L 677.783312 -462.604903 
z
" style="stroke: #009d1d; stroke-opacity: 0.7"/>
    </defs>
    <g clip-path="url(#p31f458c143)">
     <use xlink:href="#m0abe6e32ef" x="0" y="720" style="fill: #009d1d; fill-opacity: 0.7; stroke: #009d1d; stroke-opacity: 0.7"/>
    </g>
   </g>
   <g id="PolyCollection_9">
    <defs>
     <path id="m4e2b6ddbc8" d="M 484.259606 -476.864444 
L 353.2515 -476.864444 
L 353.2515 -477.656641 
L 353.2515 -478.448838 
L 353.2515 -479.241034 
L 353.2515 -480.033231 
L 353.2515 -480.825428 
L 659.219802 -480.825428 
L 659.219802 -480.825428 
L 644.63741 -480.033231 
L 632.815148 -479.241034 
L 596.626804 -478.448838 
L 582.724776 -477.656641 
L 484.259606 -476.864444 
z
" style="stroke: #00bc00; stroke-opacity: 0.7"/>
    </defs>
    <g clip-path="url(#p31f458c143)">
     <use xlink:href="#m4e2b6ddbc8" x="0" y="720" style="fill: #00bc00; fill-opacity: 0.7; stroke: #00bc00; stroke-opacity: 0.7"/>
    </g>
   </g>
   <g id="PolyCollection_10">
    <defs>
     <path id="m4e7e11d06a" d="M 245.265432 -489.539592 
L 353.2515 -489.539592 
L 353.2515 -490.331788 
L 353.2515 -491.123985 
L 353.2515 -491.916182 
L 353.2515 -492.708379 
L 353.2515 -493.500575 
L 353.2515 -494.292772 
L 353.2515 -495.084969 
L 353.2515 -495.877165 
L 353.2515 -496.669362 
L 353.2515 -497.461559 
L 353.2515 -498.253756 
L 353.2515 -499.045952 
L 353.2515 -499.838149 
L 353.2515 -500.630346 
L 353.2515 -501.422542 
L 353.2515 -502.214739 
L 353.2515 -503.006936 
L 353.2515 -503.799133 
L 353.2515 -504.591329 
L 353.2515 -505.383526 
L 353.2515 -506.175723 
L 353.2515 -506.967919 
L 353.2515 -507.760116 
L 353.2515 -508.552313 
L 353.2515 -509.34451 
L 353.2515 -510.136706 
L 353.2515 -510.928903 
L 353.2515 -511.7211 
L 353.2515 -512.513296 
L 353.2515 -513.305493 
L 353.2515 -514.09769 
L 353.2515 -514.889887 
L 353.2515 -515.682083 
L 353.2515 -516.47428 
L 353.2515 -517.266477 
L 353.2515 -518.058674 
L 353.2515 -518.85087 
L 353.2515 -519.643067 
L 353.2515 -520.435264 
L 353.2515 -521.22746 
L 353.2515 -522.019657 
L 353.2515 -522.811854 
L 353.2515 -523.604051 
L 353.2515 -524.396247 
L 353.2515 -525.188444 
L 353.2515 -525.980641 
L 353.2515 -526.772837 
L 353.2515 -527.565034 
L 353.2515 -528.357231 
L 353.2515 -529.149428 
L 353.2515 -529.941624 
L 353.2515 -530.733821 
L 353.2515 -531.526018 
L 353.2515 -532.318214 
L 353.2515 -533.110411 
L 353.2515 -533.902608 
L 353.2515 -534.694805 
L 353.2515 -535.487001 
L 353.2515 -536.279198 
L 353.2515 -537.071395 
L 353.2515 -537.863591 
L 677.534787 -537.863591 
L 677.534787 -537.863591 
L 642.887491 -537.071395 
L 633.101417 -536.279198 
L 633.035215 -535.487001 
L 631.87916 -534.694805 
L 631.717387 -533.902608 
L 630.962485 -533.110411 
L 630.19879 -532.318214 
L 629.899331 -531.526018 
L 624.206677 -530.733821 
L 620.558692 -529.941624 
L 620.408519 -529.149428 
L 619.062806 -528.357231 
L 619.062806 -527.565034 
L 618.701272 -526.772837 
L 616.99318 -525.980641 
L 615.844194 -525.188444 
L 614.631505 -524.396247 
L 614.015574 -523.604051 
L 613.839706 -522.811854 
L 612.769366 -522.019657 
L 612.409392 -521.22746 
L 609.928073 -520.435264 
L 607.692817 -519.643067 
L 603.34072 -518.85087 
L 601.470555 -518.058674 
L 596.598934 -517.266477 
L 594.996928 -516.47428 
L 594.120319 -515.682083 
L 593.358115 -514.889887 
L 593.358115 -514.09769 
L 592.997595 -513.305493 
L 592.605102 -512.513296 
L 591.551055 -511.7211 
L 591.195662 -510.928903 
L 589.884272 -510.136706 
L 589.318079 -509.34451 
L 589.315827 -508.552313 
L 586.385969 -507.760116 
L 584.919258 -506.967919 
L 582.247669 -506.175723 
L 582.003081 -505.383526 
L 581.084026 -504.591329 
L 580.565121 -503.799133 
L 574.128586 -503.006936 
L 572.602826 -502.214739 
L 570.441501 -501.422542 
L 569.292534 -500.630346 
L 568.693656 -499.838149 
L 567.23737 -499.045952 
L 566.390679 -498.253756 
L 565.588093 -497.461559 
L 500.639258 -496.669362 
L 406.057977 -495.877165 
L 403.900371 -495.084969 
L 395.059501 -494.292772 
L 284.964329 -493.500575 
L 281.177825 -492.708379 
L 274.218169 -491.916182 
L 273.265179 -491.123985 
L 260.805345 -490.331788 
L 245.265432 -489.539592 
z
" style="stroke: #00e700; stroke-opacity: 0.7"/>
    </defs>
    <g clip-path="url(#p31f458c143)">
     <use xlink:href="#m4e7e11d06a" x="0" y="720" style="fill: #00e700; fill-opacity: 0.7; stroke: #00e700; stroke-opacity: 0.7"/>
    </g>
   </g>
   <g id="PolyCollection_11">
    <defs>
     <path id="m67137fe4c2" d="M 421.330849 -546.577755 
L 353.2515 -546.577755 
L 353.2515 -547.369952 
L 353.2515 -548.162149 
L 353.2515 -548.954345 
L 353.2515 -549.746542 
L 353.2515 -550.538739 
L 353.2515 -551.330936 
L 353.2515 -552.123132 
L 353.2515 -552.915329 
L 353.2515 -553.707526 
L 353.2515 -554.499722 
L 353.2515 -555.291919 
L 353.2515 -556.084116 
L 353.2515 -556.876313 
L 353.2515 -557.668509 
L 353.2515 -558.460706 
L 353.2515 -559.252903 
L 353.2515 -560.045099 
L 353.2515 -560.837296 
L 353.2515 -561.629493 
L 353.2515 -562.42169 
L 353.2515 -563.213886 
L 353.2515 -564.006083 
L 353.2515 -564.79828 
L 353.2515 -565.590477 
L 353.2515 -566.382673 
L 353.2515 -567.17487 
L 353.2515 -567.967067 
L 353.2515 -568.759263 
L 353.2515 -569.55146 
L 353.2515 -570.343657 
L 353.2515 -571.135854 
L 353.2515 -571.92805 
L 353.2515 -572.720247 
L 353.2515 -573.512444 
L 353.2515 -574.30464 
L 353.2515 -575.096837 
L 353.2515 -575.889034 
L 353.2515 -576.681231 
L 353.2515 -577.473427 
L 353.2515 -578.265624 
L 353.2515 -579.057821 
L 353.2515 -579.850017 
L 353.2515 -580.642214 
L 353.2515 -581.434411 
L 353.2515 -582.226608 
L 353.2515 -583.018804 
L 353.2515 -583.811001 
L 353.2515 -584.603198 
L 353.2515 -585.395394 
L 353.2515 -586.187591 
L 353.2515 -586.979788 
L 353.2515 -587.771985 
L 353.2515 -588.564181 
L 353.2515 -589.356378 
L 678.349427 -589.356378 
L 678.349427 -589.356378 
L 678.339248 -588.564181 
L 678.338872 -587.771985 
L 678.324407 -586.979788 
L 678.323024 -586.187591 
L 678.322299 -585.395394 
L 678.311151 -584.603198 
L 678.308601 -583.811001 
L 678.306031 -583.018804 
L 678.303905 -582.226608 
L 678.296777 -581.434411 
L 678.28396 -580.642214 
L 678.274044 -579.850017 
L 678.271091 -579.057821 
L 678.267036 -578.265624 
L 678.263175 -577.473427 
L 678.238468 -576.681231 
L 678.235113 -575.889034 
L 678.235113 -575.096837 
L 678.231643 -574.30464 
L 678.220874 -573.512444 
L 678.219467 -572.720247 
L 678.201359 -571.92805 
L 678.198499 -571.135854 
L 678.197476 -570.343657 
L 678.183113 -569.55146 
L 678.174502 -568.759263 
L 678.144298 -567.967067 
L 678.135423 -567.17487 
L 678.120296 -566.382673 
L 678.104747 -565.590477 
L 678.101105 -564.79828 
L 678.075369 -564.006083 
L 678.022159 -563.213886 
L 677.982691 -562.42169 
L 677.9809 -561.629493 
L 677.979141 -560.837296 
L 677.769492 -560.045099 
L 677.53409 -559.252903 
L 676.006989 -558.460706 
L 675.57452 -557.668509 
L 673.951368 -556.876313 
L 673.430148 -556.084116 
L 672.29041 -555.291919 
L 666.116331 -554.499722 
L 650.125569 -553.707526 
L 648.936761 -552.915329 
L 645.08651 -552.123132 
L 625.017435 -551.330936 
L 557.907603 -550.538739 
L 543.637804 -549.746542 
L 510.201119 -548.954345 
L 502.53539 -548.162149 
L 476.283963 -547.369952 
L 421.330849 -546.577755 
z
" style="stroke: #67ff00; stroke-opacity: 0.7"/>
    </defs>
    <g clip-path="url(#p31f458c143)">
     <use xlink:href="#m67137fe4c2" x="0" y="720" style="fill: #67ff00; fill-opacity: 0.7; stroke: #67ff00; stroke-opacity: 0.7"/>
    </g>
   </g>
   <g id="PolyCollection_12">
    <defs>
     <path id="m1f23e8fb95" d="M 293.523972 -598.070542 
L 353.2515 -598.070542 
L 353.2515 -598.862739 
L 353.2515 -599.654935 
L 353.2515 -600.447132 
L 353.2515 -601.239329 
L 353.2515 -602.031525 
L 353.2515 -602.823722 
L 353.2515 -603.615919 
L 353.2515 -604.408116 
L 353.2515 -605.200312 
L 353.2515 -605.992509 
L 353.2515 -606.784706 
L 353.2515 -607.576903 
L 353.2515 -608.369099 
L 353.2515 -609.161296 
L 353.2515 -609.953493 
L 353.2515 -610.745689 
L 353.2515 -611.537886 
L 353.2515 -612.330083 
L 353.2515 -613.12228 
L 353.2515 -613.914476 
L 353.2515 -614.706673 
L 353.2515 -615.49887 
L 353.2515 -616.291066 
L 353.2515 -617.083263 
L 353.2515 -617.87546 
L 353.2515 -618.667657 
L 353.2515 -619.459853 
L 353.2515 -620.25205 
L 353.2515 -621.044247 
L 353.2515 -621.836443 
L 353.2515 -622.62864 
L 353.2515 -623.420837 
L 353.2515 -624.213034 
L 353.2515 -625.00523 
L 353.2515 -625.797427 
L 353.2515 -626.589624 
L 353.2515 -627.38182 
L 353.2515 -628.174017 
L 353.2515 -628.966214 
L 353.2515 -629.758411 
L 353.2515 -630.550607 
L 353.2515 -631.342804 
L 353.2515 -632.135001 
L 353.2515 -632.927197 
L 353.2515 -633.719394 
L 353.2515 -634.511591 
L 353.2515 -635.303788 
L 353.2515 -636.095984 
L 353.2515 -636.888181 
L 353.2515 -637.680378 
L 353.2515 -638.472574 
L 353.2515 -639.264771 
L 353.2515 -640.056968 
L 353.2515 -640.849165 
L 353.2515 -641.641361 
L 353.2515 -642.433558 
L 353.2515 -643.225755 
L 353.2515 -644.017951 
L 353.2515 -644.810148 
L 678.379748 -644.810148 
L 678.379748 -644.810148 
L 678.349296 -644.017951 
L 678.339358 -643.225755 
L 678.330393 -642.433558 
L 678.309908 -641.641361 
L 678.285071 -640.849165 
L 678.268753 -640.056968 
L 678.235108 -639.264771 
L 678.229386 -638.472574 
L 678.217684 -637.680378 
L 678.201946 -636.888181 
L 678.153606 -636.095984 
L 678.146162 -635.303788 
L 678.146162 -634.511591 
L 678.108939 -633.719394 
L 678.100511 -632.927197 
L 678.099775 -632.135001 
L 678.053494 -631.342804 
L 677.988742 -630.550607 
L 677.986371 -629.758411 
L 677.96263 -628.966214 
L 677.877539 -628.174017 
L 677.858432 -627.38182 
L 677.350434 -626.589624 
L 677.114202 -625.797427 
L 676.379302 -625.00523 
L 664.880994 -624.213034 
L 663.230064 -623.420837 
L 663.178206 -622.62864 
L 662.845558 -621.836443 
L 661.718048 -621.044247 
L 657.513024 -620.25205 
L 655.788216 -619.459853 
L 654.241737 -618.667657 
L 653.609598 -617.87546 
L 652.197168 -617.083263 
L 647.084978 -616.291066 
L 646.06646 -615.49887 
L 644.475783 -614.706673 
L 643.739294 -613.914476 
L 639.758559 -613.12228 
L 635.692159 -612.330083 
L 622.137812 -611.537886 
L 615.927545 -610.745689 
L 615.425203 -609.953493 
L 615.084746 -609.161296 
L 612.131927 -608.369099 
L 611.314944 -607.576903 
L 608.807285 -606.784706 
L 607.577401 -605.992509 
L 606.854821 -605.200312 
L 603.175782 -604.408116 
L 596.589987 -603.615919 
L 593.631997 -602.823722 
L 580.851486 -602.031525 
L 572.018971 -601.239329 
L 531.127513 -600.447132 
L 490.677856 -599.654935 
L 403.228539 -598.862739 
L 293.523972 -598.070542 
z
" style="stroke: #e4f100; stroke-opacity: 0.7"/>
    </defs>
    <g clip-path="url(#p31f458c143)">
     <use xlink:href="#m1f23e8fb95" x="0" y="720" style="fill: #e4f100; fill-opacity: 0.7; stroke: #e4f100; stroke-opacity: 0.7"/>
    </g>
   </g>
   <g id="PolyCollection_13">
    <defs>
     <path id="mb335809112" d="M 102.204009 -653.524312 
L 353.2515 -653.524312 
L 353.2515 -654.316509 
L 353.2515 -655.108706 
L 353.2515 -655.900902 
L 353.2515 -656.693099 
L 353.2515 -657.485296 
L 353.2515 -658.277492 
L 353.2515 -659.069689 
L 353.2515 -659.861886 
L 353.2515 -660.654083 
L 353.2515 -661.446279 
L 353.2515 -662.238476 
L 353.2515 -663.030673 
L 353.2515 -663.822869 
L 660.503667 -663.822869 
L 660.503667 -663.822869 
L 658.431375 -663.030673 
L 602.8703 -662.238476 
L 574.910233 -661.446279 
L 574.323316 -660.654083 
L 567.748352 -659.861886 
L 494.777482 -659.069689 
L 468.642842 -658.277492 
L 350.929555 -657.485296 
L 306.588472 -656.693099 
L 249.480796 -655.900902 
L 103.804558 -655.108706 
L 102.204009 -654.316509 
L 102.204009 -653.524312 
z
" style="stroke: #ffc900; stroke-opacity: 0.7"/>
    </defs>
    <g clip-path="url(#p31f458c143)">
     <use xlink:href="#mb335809112" x="0" y="720" style="fill: #ffc900; fill-opacity: 0.7; stroke: #ffc900; stroke-opacity: 0.7"/>
    </g>
   </g>
   <g id="PolyCollection_14">
    <defs>
     <path id="m0b1943118a" d="M 516.880613 -672.537033 
L 353.2515 -672.537033 
L 353.2515 -673.32923 
L 353.2515 -674.121427 
L 674.633089 -674.121427 
L 674.633089 -674.121427 
L 600.056143 -673.32923 
L 516.880613 -672.537033 
z
" style="stroke: #ff6900; stroke-opacity: 0.7"/>
    </defs>
    <g clip-path="url(#p31f458c143)">
     <use xlink:href="#m0b1943118a" x="0" y="720" style="fill: #ff6900; fill-opacity: 0.7; stroke: #ff6900; stroke-opacity: 0.7"/>
    </g>
   </g>
   <g id="PolyCollection_15">
    <defs>
     <path id="mc82db38e3e" d="M 677.853306 -682.835591 
L 353.2515 -682.835591 
L 353.2515 -683.627787 
L 353.2515 -684.419984 
L 353.2515 -685.212181 
L 353.2515 -686.004377 
L 353.2515 -686.796574 
L 353.2515 -687.588771 
L 353.2515 -688.380968 
L 353.2515 -689.173164 
L 678.409866 -689.173164 
L 678.409866 -689.173164 
L 678.269225 -688.380968 
L 678.268148 -687.588771 
L 678.249994 -686.796574 
L 678.242286 -686.004377 
L 678.070329 -685.212181 
L 677.920266 -684.419984 
L 677.905411 -683.627787 
L 677.853306 -682.835591 
z
" style="stroke: #ec0000; stroke-opacity: 0.7"/>
    </defs>
    <g clip-path="url(#p31f458c143)">
     <use xlink:href="#mc82db38e3e" x="0" y="720" style="fill: #ec0000; fill-opacity: 0.7; stroke: #ec0000; stroke-opacity: 0.7"/>
    </g>
   </g>
   <g id="PolyCollection_16">
    <defs>
     <path id="mebc7bde715" d="M 678.398254 -697.887328 
L 353.2515 -697.887328 
L 353.2515 -698.679525 
L 353.2515 -699.471722 
L 678.524875 -699.471722 
L 678.524875 -699.471722 
L 678.418054 -698.679525 
L 678.398254 -697.887328 
z
" style="stroke: #cf0000; stroke-opacity: 0.7"/>
    </defs>
    <g clip-path="url(#p31f458c143)">
     <use xlink:href="#mebc7bde715" x="0" y="720" style="fill: #cf0000; fill-opacity: 0.7; stroke: #cf0000; stroke-opacity: 0.7"/>
    </g>
   </g>
   <g id="matplotlib.axis_1">
    <g id="xtick_1">
     <g id="line2d_1">
      <defs>
       <path id="m5c0c6f4f94" d="M 0 0 
L 0 3.5 
" style="stroke: #000000; stroke-width: 0.8"/>
      </defs>
      <g>
       <use xlink:href="#m5c0c6f4f94" x="27.978125" y="678.84375" style="stroke: #000000; stroke-width: 0.8"/>
      </g>
     </g>
     <g id="text_1">
      <!-- −1.0 -->
      <g transform="translate(15.836719 693.442188) scale(0.1 -0.1)">
       <defs>
        <path id="DejaVuSans-2212" d="M 678 2272 
L 4684 2272 
L 4684 1741 
L 678 1741 
L 678 2272 
z
" transform="scale(0.015625)"/>
        <path id="DejaVuSans-31" d="M 794 531 
L 1825 531 
L 1825 4091 
L 703 3866 
L 703 4441 
L 1819 4666 
L 2450 4666 
L 2450 531 
L 3481 531 
L 3481 0 
L 794 0 
L 794 531 
z
" transform="scale(0.015625)"/>
        <path id="DejaVuSans-2e" d="M 684 794 
L 1344 794 
L 1344 0 
L 684 0 
L 684 794 
z
" transform="scale(0.015625)"/>
        <path id="DejaVuSans-30" d="M 2034 4250 
Q 1547 4250 1301 3770 
Q 1056 3291 1056 2328 
Q 1056 1369 1301 889 
Q 1547 409 2034 409 
Q 2525 409 2770 889 
Q 3016 1369 3016 2328 
Q 3016 3291 2770 3770 
Q 2525 4250 2034 4250 
z
M 2034 4750 
Q 2819 4750 3233 4129 
Q 3647 3509 3647 2328 
Q 3647 1150 3233 529 
Q 2819 -91 2034 -91 
Q 1250 -91 836 529 
Q 422 1150 422 2328 
Q 422 3509 836 4129 
Q 1250 4750 2034 4750 
z
" transform="scale(0.015625)"/>
       </defs>
       <use xlink:href="#DejaVuSans-2212"/>
       <use xlink:href="#DejaVuSans-31" x="83.789062"/>
       <use xlink:href="#DejaVuSans-2e" x="147.412109"/>
       <use xlink:href="#DejaVuSans-30" x="179.199219"/>
      </g>
     </g>
    </g>
    <g id="xtick_2">
     <g id="line2d_2">
      <g>
       <use xlink:href="#m5c0c6f4f94" x="93.0328" y="678.84375" style="stroke: #000000; stroke-width: 0.8"/>
      </g>
     </g>
     <g id="text_2">
      <!-- −0.8 -->
      <g transform="translate(80.891394 693.442188) scale(0.1 -0.1)">
       <defs>
        <path id="DejaVuSans-38" d="M 2034 2216 
Q 1584 2216 1326 1975 
Q 1069 1734 1069 1313 
Q 1069 891 1326 650 
Q 1584 409 2034 409 
Q 2484 409 2743 651 
Q 3003 894 3003 1313 
Q 3003 1734 2745 1975 
Q 2488 2216 2034 2216 
z
M 1403 2484 
Q 997 2584 770 2862 
Q 544 3141 544 3541 
Q 544 4100 942 4425 
Q 1341 4750 2034 4750 
Q 2731 4750 3128 4425 
Q 3525 4100 3525 3541 
Q 3525 3141 3298 2862 
Q 3072 2584 2669 2484 
Q 3125 2378 3379 2068 
Q 3634 1759 3634 1313 
Q 3634 634 3220 271 
Q 2806 -91 2034 -91 
Q 1263 -91 848 271 
Q 434 634 434 1313 
Q 434 1759 690 2068 
Q 947 2378 1403 2484 
z
M 1172 3481 
Q 1172 3119 1398 2916 
Q 1625 2713 2034 2713 
Q 2441 2713 2670 2916 
Q 2900 3119 2900 3481 
Q 2900 3844 2670 4047 
Q 2441 4250 2034 4250 
Q 1625 4250 1398 4047 
Q 1172 3844 1172 3481 
z
" transform="scale(0.015625)"/>
       </defs>
       <use xlink:href="#DejaVuSans-2212"/>
       <use xlink:href="#DejaVuSans-30" x="83.789062"/>
       <use xlink:href="#DejaVuSans-2e" x="147.412109"/>
       <use xlink:href="#DejaVuSans-38" x="179.199219"/>
      </g>
     </g>
    </g>
    <g id="xtick_3">
     <g id="line2d_3">
      <g>
       <use xlink:href="#m5c0c6f4f94" x="158.087475" y="678.84375" style="stroke: #000000; stroke-width: 0.8"/>
      </g>
     </g>
     <g id="text_3">
      <!-- −0.6 -->
      <g transform="translate(145.946069 693.442188) scale(0.1 -0.1)">
       <defs>
        <path id="DejaVuSans-36" d="M 2113 2584 
Q 1688 2584 1439 2293 
Q 1191 2003 1191 1497 
Q 1191 994 1439 701 
Q 1688 409 2113 409 
Q 2538 409 2786 701 
Q 3034 994 3034 1497 
Q 3034 2003 2786 2293 
Q 2538 2584 2113 2584 
z
M 3366 4563 
L 3366 3988 
Q 3128 4100 2886 4159 
Q 2644 4219 2406 4219 
Q 1781 4219 1451 3797 
Q 1122 3375 1075 2522 
Q 1259 2794 1537 2939 
Q 1816 3084 2150 3084 
Q 2853 3084 3261 2657 
Q 3669 2231 3669 1497 
Q 3669 778 3244 343 
Q 2819 -91 2113 -91 
Q 1303 -91 875 529 
Q 447 1150 447 2328 
Q 447 3434 972 4092 
Q 1497 4750 2381 4750 
Q 2619 4750 2861 4703 
Q 3103 4656 3366 4563 
z
" transform="scale(0.015625)"/>
       </defs>
       <use xlink:href="#DejaVuSans-2212"/>
       <use xlink:href="#DejaVuSans-30" x="83.789062"/>
       <use xlink:href="#DejaVuSans-2e" x="147.412109"/>
       <use xlink:href="#DejaVuSans-36" x="179.199219"/>
      </g>
     </g>
    </g>
    <g id="xtick_4">
     <g id="line2d_4">
      <g>
       <use xlink:href="#m5c0c6f4f94" x="223.14215" y="678.84375" style="stroke: #000000; stroke-width: 0.8"/>
      </g>
     </g>
     <g id="text_4">
      <!-- −0.4 -->
      <g transform="translate(211.000744 693.442188) scale(0.1 -0.1)">
       <defs>
        <path id="DejaVuSans-34" d="M 2419 4116 
L 825 1625 
L 2419 1625 
L 2419 4116 
z
M 2253 4666 
L 3047 4666 
L 3047 1625 
L 3713 1625 
L 3713 1100 
L 3047 1100 
L 3047 0 
L 2419 0 
L 2419 1100 
L 313 1100 
L 313 1709 
L 2253 4666 
z
" transform="scale(0.015625)"/>
       </defs>
       <use xlink:href="#DejaVuSans-2212"/>
       <use xlink:href="#DejaVuSans-30" x="83.789062"/>
       <use xlink:href="#DejaVuSans-2e" x="147.412109"/>
       <use xlink:href="#DejaVuSans-34" x="179.199219"/>
      </g>
     </g>
    </g>
    <g id="xtick_5">
     <g id="line2d_5">
      <g>
       <use xlink:href="#m5c0c6f4f94" x="288.196825" y="678.84375" style="stroke: #000000; stroke-width: 0.8"/>
      </g>
     </g>
     <g id="text_5">
      <!-- −0.2 -->
      <g transform="translate(276.055419 693.442188) scale(0.1 -0.1)">
       <defs>
        <path id="DejaVuSans-32" d="M 1228 531 
L 3431 531 
L 3431 0 
L 469 0 
L 469 531 
Q 828 903 1448 1529 
Q 2069 2156 2228 2338 
Q 2531 2678 2651 2914 
Q 2772 3150 2772 3378 
Q 2772 3750 2511 3984 
Q 2250 4219 1831 4219 
Q 1534 4219 1204 4116 
Q 875 4013 500 3803 
L 500 4441 
Q 881 4594 1212 4672 
Q 1544 4750 1819 4750 
Q 2544 4750 2975 4387 
Q 3406 4025 3406 3419 
Q 3406 3131 3298 2873 
Q 3191 2616 2906 2266 
Q 2828 2175 2409 1742 
Q 1991 1309 1228 531 
z
" transform="scale(0.015625)"/>
       </defs>
       <use xlink:href="#DejaVuSans-2212"/>
       <use xlink:href="#DejaVuSans-30" x="83.789062"/>
       <use xlink:href="#DejaVuSans-2e" x="147.412109"/>
       <use xlink:href="#DejaVuSans-32" x="179.199219"/>
      </g>
     </g>
    </g>
    <g id="xtick_6">
     <g id="line2d_6">
      <g>
       <use xlink:href="#m5c0c6f4f94" x="353.2515" y="678.84375" style="stroke: #000000; stroke-width: 0.8"/>
      </g>
     </g>
     <g id="text_6">
      <!-- 0.0 -->
      <g transform="translate(345.299938 693.442188) scale(0.1 -0.1)">
       <use xlink:href="#DejaVuSans-30"/>
       <use xlink:href="#DejaVuSans-2e" x="63.623047"/>
       <use xlink:href="#DejaVuSans-30" x="95.410156"/>
      </g>
     </g>
    </g>
    <g id="xtick_7">
     <g id="line2d_7">
      <g>
       <use xlink:href="#m5c0c6f4f94" x="418.306175" y="678.84375" style="stroke: #000000; stroke-width: 0.8"/>
      </g>
     </g>
     <g id="text_7">
      <!-- 0.2 -->
      <g transform="translate(410.354613 693.442188) scale(0.1 -0.1)">
       <use xlink:href="#DejaVuSans-30"/>
       <use xlink:href="#DejaVuSans-2e" x="63.623047"/>
       <use xlink:href="#DejaVuSans-32" x="95.410156"/>
      </g>
     </g>
    </g>
    <g id="xtick_8">
     <g id="line2d_8">
      <g>
       <use xlink:href="#m5c0c6f4f94" x="483.36085" y="678.84375" style="stroke: #000000; stroke-width: 0.8"/>
      </g>
     </g>
     <g id="text_8">
      <!-- 0.4 -->
      <g transform="translate(475.409288 693.442188) scale(0.1 -0.1)">
       <use xlink:href="#DejaVuSans-30"/>
       <use xlink:href="#DejaVuSans-2e" x="63.623047"/>
       <use xlink:href="#DejaVuSans-34" x="95.410156"/>
      </g>
     </g>
    </g>
    <g id="xtick_9">
     <g id="line2d_9">
      <g>
       <use xlink:href="#m5c0c6f4f94" x="548.415525" y="678.84375" style="stroke: #000000; stroke-width: 0.8"/>
      </g>
     </g>
     <g id="text_9">
      <!-- 0.6 -->
      <g transform="translate(540.463963 693.442188) scale(0.1 -0.1)">
       <use xlink:href="#DejaVuSans-30"/>
       <use xlink:href="#DejaVuSans-2e" x="63.623047"/>
       <use xlink:href="#DejaVuSans-36" x="95.410156"/>
      </g>
     </g>
    </g>
    <g id="xtick_10">
     <g id="line2d_10">
      <g>
       <use xlink:href="#m5c0c6f4f94" x="613.4702" y="678.84375" style="stroke: #000000; stroke-width: 0.8"/>
      </g>
     </g>
     <g id="text_10">
      <!-- 0.8 -->
      <g transform="translate(605.518638 693.442188) scale(0.1 -0.1)">
       <use xlink:href="#DejaVuSans-30"/>
       <use xlink:href="#DejaVuSans-2e" x="63.623047"/>
       <use xlink:href="#DejaVuSans-38" x="95.410156"/>
      </g>
     </g>
    </g>
    <g id="xtick_11">
     <g id="line2d_11">
      <g>
       <use xlink:href="#m5c0c6f4f94" x="678.524875" y="678.84375" style="stroke: #000000; stroke-width: 0.8"/>
      </g>
     </g>
     <g id="text_11">
      <!-- 1.0 -->
      <g transform="translate(670.573313 693.442188) scale(0.1 -0.1)">
       <use xlink:href="#DejaVuSans-31"/>
       <use xlink:href="#DejaVuSans-2e" x="63.623047"/>
       <use xlink:href="#DejaVuSans-30" x="95.410156"/>
      </g>
     </g>
    </g>
    <g id="text_12">
     <!-- Silhouette coefficient -->
     <g transform="translate(315.439062 707.120313) scale(0.1 -0.1)">
      <defs>
       <path id="DejaVuSans-53" d="M 3425 4513 
L 3425 3897 
Q 3066 4069 2747 4153 
Q 2428 4238 2131 4238 
Q 1616 4238 1336 4038 
Q 1056 3838 1056 3469 
Q 1056 3159 1242 3001 
Q 1428 2844 1947 2747 
L 2328 2669 
Q 3034 2534 3370 2195 
Q 3706 1856 3706 1288 
Q 3706 609 3251 259 
Q 2797 -91 1919 -91 
Q 1588 -91 1214 -16 
Q 841 59 441 206 
L 441 856 
Q 825 641 1194 531 
Q 1563 422 1919 422 
Q 2459 422 2753 634 
Q 3047 847 3047 1241 
Q 3047 1584 2836 1778 
Q 2625 1972 2144 2069 
L 1759 2144 
Q 1053 2284 737 2584 
Q 422 2884 422 3419 
Q 422 4038 858 4394 
Q 1294 4750 2059 4750 
Q 2388 4750 2728 4690 
Q 3069 4631 3425 4513 
z
" transform="scale(0.015625)"/>
       <path id="DejaVuSans-69" d="M 603 3500 
L 1178 3500 
L 1178 0 
L 603 0 
L 603 3500 
z
M 603 4863 
L 1178 4863 
L 1178 4134 
L 603 4134 
L 603 4863 
z
" transform="scale(0.015625)"/>
       <path id="DejaVuSans-6c" d="M 603 4863 
L 1178 4863 
L 1178 0 
L 603 0 
L 603 4863 
z
" transform="scale(0.015625)"/>
       <path id="DejaVuSans-68" d="M 3513 2113 
L 3513 0 
L 2938 0 
L 2938 2094 
Q 2938 2591 2744 2837 
Q 2550 3084 2163 3084 
Q 1697 3084 1428 2787 
Q 1159 2491 1159 1978 
L 1159 0 
L 581 0 
L 581 4863 
L 1159 4863 
L 1159 2956 
Q 1366 3272 1645 3428 
Q 1925 3584 2291 3584 
Q 2894 3584 3203 3211 
Q 3513 2838 3513 2113 
z
" transform="scale(0.015625)"/>
       <path id="DejaVuSans-6f" d="M 1959 3097 
Q 1497 3097 1228 2736 
Q 959 2375 959 1747 
Q 959 1119 1226 758 
Q 1494 397 1959 397 
Q 2419 397 2687 759 
Q 2956 1122 2956 1747 
Q 2956 2369 2687 2733 
Q 2419 3097 1959 3097 
z
M 1959 3584 
Q 2709 3584 3137 3096 
Q 3566 2609 3566 1747 
Q 3566 888 3137 398 
Q 2709 -91 1959 -91 
Q 1206 -91 779 398 
Q 353 888 353 1747 
Q 353 2609 779 3096 
Q 1206 3584 1959 3584 
z
" transform="scale(0.015625)"/>
       <path id="DejaVuSans-75" d="M 544 1381 
L 544 3500 
L 1119 3500 
L 1119 1403 
Q 1119 906 1312 657 
Q 1506 409 1894 409 
Q 2359 409 2629 706 
Q 2900 1003 2900 1516 
L 2900 3500 
L 3475 3500 
L 3475 0 
L 2900 0 
L 2900 538 
Q 2691 219 2414 64 
Q 2138 -91 1772 -91 
Q 1169 -91 856 284 
Q 544 659 544 1381 
z
M 1991 3584 
L 1991 3584 
z
" transform="scale(0.015625)"/>
       <path id="DejaVuSans-65" d="M 3597 1894 
L 3597 1613 
L 953 1613 
Q 991 1019 1311 708 
Q 1631 397 2203 397 
Q 2534 397 2845 478 
Q 3156 559 3463 722 
L 3463 178 
Q 3153 47 2828 -22 
Q 2503 -91 2169 -91 
Q 1331 -91 842 396 
Q 353 884 353 1716 
Q 353 2575 817 3079 
Q 1281 3584 2069 3584 
Q 2775 3584 3186 3129 
Q 3597 2675 3597 1894 
z
M 3022 2063 
Q 3016 2534 2758 2815 
Q 2500 3097 2075 3097 
Q 1594 3097 1305 2825 
Q 1016 2553 972 2059 
L 3022 2063 
z
" transform="scale(0.015625)"/>
       <path id="DejaVuSans-74" d="M 1172 4494 
L 1172 3500 
L 2356 3500 
L 2356 3053 
L 1172 3053 
L 1172 1153 
Q 1172 725 1289 603 
Q 1406 481 1766 481 
L 2356 481 
L 2356 0 
L 1766 0 
Q 1100 0 847 248 
Q 594 497 594 1153 
L 594 3053 
L 172 3053 
L 172 3500 
L 594 3500 
L 594 4494 
L 1172 4494 
z
" transform="scale(0.015625)"/>
       <path id="DejaVuSans-20" transform="scale(0.015625)"/>
       <path id="DejaVuSans-63" d="M 3122 3366 
L 3122 2828 
Q 2878 2963 2633 3030 
Q 2388 3097 2138 3097 
Q 1578 3097 1268 2742 
Q 959 2388 959 1747 
Q 959 1106 1268 751 
Q 1578 397 2138 397 
Q 2388 397 2633 464 
Q 2878 531 3122 666 
L 3122 134 
Q 2881 22 2623 -34 
Q 2366 -91 2075 -91 
Q 1284 -91 818 406 
Q 353 903 353 1747 
Q 353 2603 823 3093 
Q 1294 3584 2113 3584 
Q 2378 3584 2631 3529 
Q 2884 3475 3122 3366 
z
" transform="scale(0.015625)"/>
       <path id="DejaVuSans-66" d="M 2375 4863 
L 2375 4384 
L 1825 4384 
Q 1516 4384 1395 4259 
Q 1275 4134 1275 3809 
L 1275 3500 
L 2222 3500 
L 2222 3053 
L 1275 3053 
L 1275 0 
L 697 0 
L 697 3053 
L 147 3053 
L 147 3500 
L 697 3500 
L 697 3744 
Q 697 4328 969 4595 
Q 1241 4863 1831 4863 
L 2375 4863 
z
" transform="scale(0.015625)"/>
       <path id="DejaVuSans-6e" d="M 3513 2113 
L 3513 0 
L 2938 0 
L 2938 2094 
Q 2938 2591 2744 2837 
Q 2550 3084 2163 3084 
Q 1697 3084 1428 2787 
Q 1159 2491 1159 1978 
L 1159 0 
L 581 0 
L 581 3500 
L 1159 3500 
L 1159 2956 
Q 1366 3272 1645 3428 
Q 1925 3584 2291 3584 
Q 2894 3584 3203 3211 
Q 3513 2838 3513 2113 
z
" transform="scale(0.015625)"/>
      </defs>
      <use xlink:href="#DejaVuSans-53"/>
      <use xlink:href="#DejaVuSans-69" x="63.476562"/>
      <use xlink:href="#DejaVuSans-6c" x="91.259766"/>
      <use xlink:href="#DejaVuSans-68" x="119.042969"/>
      <use xlink:href="#DejaVuSans-6f" x="182.421875"/>
      <use xlink:href="#DejaVuSans-75" x="243.603516"/>
      <use xlink:href="#DejaVuSans-65" x="306.982422"/>
      <use xlink:href="#DejaVuSans-74" x="368.505859"/>
      <use xlink:href="#DejaVuSans-74" x="407.714844"/>
      <use xlink:href="#DejaVuSans-65" x="446.923828"/>
      <use xlink:href="#DejaVuSans-20" x="508.447266"/>
      <use xlink:href="#DejaVuSans-63" x="540.234375"/>
      <use xlink:href="#DejaVuSans-6f" x="595.214844"/>
      <use xlink:href="#DejaVuSans-65" x="656.396484"/>
      <use xlink:href="#DejaVuSans-66" x="717.919922"/>
      <use xlink:href="#DejaVuSans-66" x="753.125"/>
      <use xlink:href="#DejaVuSans-69" x="788.330078"/>
      <use xlink:href="#DejaVuSans-63" x="816.113281"/>
      <use xlink:href="#DejaVuSans-69" x="871.09375"/>
      <use xlink:href="#DejaVuSans-65" x="898.876953"/>
      <use xlink:href="#DejaVuSans-6e" x="960.400391"/>
      <use xlink:href="#DejaVuSans-74" x="1023.779297"/>
     </g>
    </g>
   </g>
   <g id="matplotlib.axis_2">
    <g id="text_13">
     <!-- Predicted label -->
     <g transform="translate(18.398438 382.481276) rotate(-90) scale(0.1 -0.1)">
      <defs>
       <path id="DejaVuSans-50" d="M 1259 4147 
L 1259 2394 
L 2053 2394 
Q 2494 2394 2734 2622 
Q 2975 2850 2975 3272 
Q 2975 3691 2734 3919 
Q 2494 4147 2053 4147 
L 1259 4147 
z
M 628 4666 
L 2053 4666 
Q 2838 4666 3239 4311 
Q 3641 3956 3641 3272 
Q 3641 2581 3239 2228 
Q 2838 1875 2053 1875 
L 1259 1875 
L 1259 0 
L 628 0 
L 628 4666 
z
" transform="scale(0.015625)"/>
       <path id="DejaVuSans-72" d="M 2631 2963 
Q 2534 3019 2420 3045 
Q 2306 3072 2169 3072 
Q 1681 3072 1420 2755 
Q 1159 2438 1159 1844 
L 1159 0 
L 581 0 
L 581 3500 
L 1159 3500 
L 1159 2956 
Q 1341 3275 1631 3429 
Q 1922 3584 2338 3584 
Q 2397 3584 2469 3576 
Q 2541 3569 2628 3553 
L 2631 2963 
z
" transform="scale(0.015625)"/>
       <path id="DejaVuSans-64" d="M 2906 2969 
L 2906 4863 
L 3481 4863 
L 3481 0 
L 2906 0 
L 2906 525 
Q 2725 213 2448 61 
Q 2172 -91 1784 -91 
Q 1150 -91 751 415 
Q 353 922 353 1747 
Q 353 2572 751 3078 
Q 1150 3584 1784 3584 
Q 2172 3584 2448 3432 
Q 2725 3281 2906 2969 
z
M 947 1747 
Q 947 1113 1208 752 
Q 1469 391 1925 391 
Q 2381 391 2643 752 
Q 2906 1113 2906 1747 
Q 2906 2381 2643 2742 
Q 2381 3103 1925 3103 
Q 1469 3103 1208 2742 
Q 947 2381 947 1747 
z
" transform="scale(0.015625)"/>
       <path id="DejaVuSans-61" d="M 2194 1759 
Q 1497 1759 1228 1600 
Q 959 1441 959 1056 
Q 959 750 1161 570 
Q 1363 391 1709 391 
Q 2188 391 2477 730 
Q 2766 1069 2766 1631 
L 2766 1759 
L 2194 1759 
z
M 3341 1997 
L 3341 0 
L 2766 0 
L 2766 531 
Q 2569 213 2275 61 
Q 1981 -91 1556 -91 
Q 1019 -91 701 211 
Q 384 513 384 1019 
Q 384 1609 779 1909 
Q 1175 2209 1959 2209 
L 2766 2209 
L 2766 2266 
Q 2766 2663 2505 2880 
Q 2244 3097 1772 3097 
Q 1472 3097 1187 3025 
Q 903 2953 641 2809 
L 641 3341 
Q 956 3463 1253 3523 
Q 1550 3584 1831 3584 
Q 2591 3584 2966 3190 
Q 3341 2797 3341 1997 
z
" transform="scale(0.015625)"/>
       <path id="DejaVuSans-62" d="M 3116 1747 
Q 3116 2381 2855 2742 
Q 2594 3103 2138 3103 
Q 1681 3103 1420 2742 
Q 1159 2381 1159 1747 
Q 1159 1113 1420 752 
Q 1681 391 2138 391 
Q 2594 391 2855 752 
Q 3116 1113 3116 1747 
z
M 1159 2969 
Q 1341 3281 1617 3432 
Q 1894 3584 2278 3584 
Q 2916 3584 3314 3078 
Q 3713 2572 3713 1747 
Q 3713 922 3314 415 
Q 2916 -91 2278 -91 
Q 1894 -91 1617 61 
Q 1341 213 1159 525 
L 1159 0 
L 581 0 
L 581 4863 
L 1159 4863 
L 1159 2969 
z
" transform="scale(0.015625)"/>
      </defs>
      <use xlink:href="#DejaVuSans-50"/>
      <use xlink:href="#DejaVuSans-72" x="58.552734"/>
      <use xlink:href="#DejaVuSans-65" x="97.416016"/>
      <use xlink:href="#DejaVuSans-64" x="158.939453"/>
      <use xlink:href="#DejaVuSans-69" x="222.416016"/>
      <use xlink:href="#DejaVuSans-63" x="250.199219"/>
      <use xlink:href="#DejaVuSans-74" x="305.179688"/>
      <use xlink:href="#DejaVuSans-65" x="344.388672"/>
      <use xlink:href="#DejaVuSans-64" x="405.912109"/>
      <use xlink:href="#DejaVuSans-20" x="469.388672"/>
      <use xlink:href="#DejaVuSans-6c" x="501.175781"/>
      <use xlink:href="#DejaVuSans-61" x="528.958984"/>
      <use xlink:href="#DejaVuSans-62" x="590.238281"/>
      <use xlink:href="#DejaVuSans-65" x="653.714844"/>
      <use xlink:href="#DejaVuSans-6c" x="715.238281"/>
     </g>
    </g>
   </g>
   <g id="line2d_12">
    <path d="M 617.261843 678.84375 
L 617.261843 11.814114 
" clip-path="url(#p31f458c143)" style="fill: none; stroke: #ff0000; stroke-width: 1.5; stroke-linecap: square"/>
   </g>
   <g id="patch_3">
    <path d="M 27.978125 678.84375 
L 27.978125 11.814114 
" style="fill: none; stroke: #000000; stroke-width: 0.8; stroke-linejoin: miter; stroke-linecap: square"/>
   </g>
   <g id="patch_4">
    <path d="M 709.2 678.84375 
L 709.2 11.814114 
" style="fill: none; stroke: #000000; stroke-width: 0.8; stroke-linejoin: miter; stroke-linecap: square"/>
   </g>
   <g id="patch_5">
    <path d="M 27.978125 678.84375 
L 709.2 678.84375 
" style="fill: none; stroke: #000000; stroke-width: 0.8; stroke-linejoin: miter; stroke-linecap: square"/>
   </g>
   <g id="patch_6">
    <path d="M 27.978125 11.814114 
L 709.2 11.814114 
" style="fill: none; stroke: #000000; stroke-width: 0.8; stroke-linejoin: miter; stroke-linecap: square"/>
   </g>
   <g id="text_14">
    <!-- 0 -->
    <g transform="translate(336.987831 661.415422) scale(0.1 -0.1)">
     <use xlink:href="#DejaVuSans-30"/>
    </g>
   </g>
   <g id="text_15">
    <!-- 1 -->
    <g transform="translate(336.987831 606.753849) scale(0.1 -0.1)">
     <use xlink:href="#DejaVuSans-31"/>
    </g>
   </g>
   <g id="text_16">
    <!-- 2 -->
    <g transform="translate(336.987831 550.111784) scale(0.1 -0.1)">
     <use xlink:href="#DejaVuSans-32"/>
    </g>
   </g>
   <g id="text_17">
    <!-- 3 -->
    <g transform="translate(336.987831 495.054112) scale(0.1 -0.1)">
     <defs>
      <path id="DejaVuSans-33" d="M 2597 2516 
Q 3050 2419 3304 2112 
Q 3559 1806 3559 1356 
Q 3559 666 3084 287 
Q 2609 -91 1734 -91 
Q 1441 -91 1130 -33 
Q 819 25 488 141 
L 488 750 
Q 750 597 1062 519 
Q 1375 441 1716 441 
Q 2309 441 2620 675 
Q 2931 909 2931 1356 
Q 2931 1769 2642 2001 
Q 2353 2234 1838 2234 
L 1294 2234 
L 1294 2753 
L 1863 2753 
Q 2328 2753 2575 2939 
Q 2822 3125 2822 3475 
Q 2822 3834 2567 4026 
Q 2313 4219 1838 4219 
Q 1578 4219 1281 4162 
Q 984 4106 628 3988 
L 628 4550 
Q 988 4650 1302 4700 
Q 1616 4750 1894 4750 
Q 2613 4750 3031 4423 
Q 3450 4097 3450 3541 
Q 3450 3153 3228 2886 
Q 3006 2619 2597 2516 
z
" transform="scale(0.015625)"/>
     </defs>
     <use xlink:href="#DejaVuSans-33"/>
    </g>
   </g>
   <g id="text_18">
    <!-- 4 -->
    <g transform="translate(336.987831 443.165227) scale(0.1 -0.1)">
     <use xlink:href="#DejaVuSans-34"/>
    </g>
   </g>
   <g id="text_19">
    <!-- 5 -->
    <g transform="translate(336.987831 422.568112) scale(0.1 -0.1)">
     <defs>
      <path id="DejaVuSans-35" d="M 691 4666 
L 3169 4666 
L 3169 4134 
L 1269 4134 
L 1269 2991 
Q 1406 3038 1543 3061 
Q 1681 3084 1819 3084 
Q 2600 3084 3056 2656 
Q 3513 2228 3513 1497 
Q 3513 744 3044 326 
Q 2575 -91 1722 -91 
Q 1428 -91 1123 -41 
Q 819 9 494 109 
L 494 744 
Q 775 591 1075 516 
Q 1375 441 1709 441 
Q 2250 441 2565 725 
Q 2881 1009 2881 1497 
Q 2881 1984 2565 2268 
Q 2250 2553 1709 2553 
Q 1456 2553 1204 2497 
Q 953 2441 691 2322 
L 691 4666 
z
" transform="scale(0.015625)"/>
     </defs>
     <use xlink:href="#DejaVuSans-35"/>
    </g>
   </g>
   <g id="text_20">
    <!-- 6 -->
    <g transform="translate(336.987831 337.803063) scale(0.1 -0.1)">
     <use xlink:href="#DejaVuSans-36"/>
    </g>
   </g>
   <g id="text_21">
    <!-- 7 -->
    <g transform="translate(336.987831 254.22631) scale(0.1 -0.1)">
     <defs>
      <path id="DejaVuSans-37" d="M 525 4666 
L 3525 4666 
L 3525 4397 
L 1831 0 
L 1172 0 
L 2766 4134 
L 525 4134 
L 525 4666 
z
" transform="scale(0.015625)"/>
     </defs>
     <use xlink:href="#DejaVuSans-37"/>
    </g>
   </g>
   <g id="text_22">
    <!-- 8 -->
    <g transform="translate(336.987831 240.758966) scale(0.1 -0.1)">
     <use xlink:href="#DejaVuSans-38"/>
    </g>
   </g>
   <g id="text_23">
    <!-- 9 -->
    <g transform="translate(336.987831 205.90231) scale(0.1 -0.1)">
     <defs>
      <path id="DejaVuSans-39" d="M 703 97 
L 703 672 
Q 941 559 1184 500 
Q 1428 441 1663 441 
Q 2288 441 2617 861 
Q 2947 1281 2994 2138 
Q 2813 1869 2534 1725 
Q 2256 1581 1919 1581 
Q 1219 1581 811 2004 
Q 403 2428 403 3163 
Q 403 3881 828 4315 
Q 1253 4750 1959 4750 
Q 2769 4750 3195 4129 
Q 3622 3509 3622 2328 
Q 3622 1225 3098 567 
Q 2575 -91 1691 -91 
Q 1453 -91 1209 -44 
Q 966 3 703 97 
z
M 1959 2075 
Q 2384 2075 2632 2365 
Q 2881 2656 2881 3163 
Q 2881 3666 2632 3958 
Q 2384 4250 1959 4250 
Q 1534 4250 1286 3958 
Q 1038 3666 1038 3163 
Q 1038 2656 1286 2365 
Q 1534 2075 1959 2075 
z
" transform="scale(0.015625)"/>
     </defs>
     <use xlink:href="#DejaVuSans-39"/>
    </g>
   </g>
   <g id="text_24">
    <!-- 10 -->
    <g transform="translate(336.987831 151.636835) scale(0.1 -0.1)">
     <use xlink:href="#DejaVuSans-31"/>
     <use xlink:href="#DejaVuSans-30" x="63.623047"/>
    </g>
   </g>
   <g id="text_25">
    <!-- 11 -->
    <g transform="translate(336.987831 98.163557) scale(0.1 -0.1)">
     <use xlink:href="#DejaVuSans-31"/>
     <use xlink:href="#DejaVuSans-31" x="63.623047"/>
    </g>
   </g>
   <g id="text_26">
    <!-- 12 -->
    <g transform="translate(336.987831 60.930311) scale(0.1 -0.1)">
     <use xlink:href="#DejaVuSans-31"/>
     <use xlink:href="#DejaVuSans-32" x="63.623047"/>
    </g>
   </g>
   <g id="text_27">
    <!-- 13 -->
    <g transform="translate(336.987831 46.274672) scale(0.1 -0.1)">
     <use xlink:href="#DejaVuSans-31"/>
     <use xlink:href="#DejaVuSans-33" x="63.623047"/>
    </g>
   </g>
   <g id="text_28">
    <!-- 14 -->
    <g transform="translate(336.987831 33.599524) scale(0.1 -0.1)">
     <use xlink:href="#DejaVuSans-31"/>
     <use xlink:href="#DejaVuSans-34" x="63.623047"/>
    </g>
   </g>
   <g id="text_29">
    <!-- 15 -->
    <g transform="translate(336.987831 20.924377) scale(0.1 -0.1)">
     <use xlink:href="#DejaVuSans-31"/>
     <use xlink:href="#DejaVuSans-35" x="63.623047"/>
    </g>
   </g>
   <g id="text_30">
    <!-- 0.8117 -->
    <g style="fill: #ff0000" transform="translate(633.525511 19.736082) scale(0.1 -0.1)">
     <use xlink:href="#DejaVuSans-30"/>
     <use xlink:href="#DejaVuSans-2e" x="63.623047"/>
     <use xlink:href="#DejaVuSans-38" x="95.410156"/>
     <use xlink:href="#DejaVuSans-31" x="159.033203"/>
     <use xlink:href="#DejaVuSans-31" x="222.65625"/>
     <use xlink:href="#DejaVuSans-37" x="286.279297"/>
    </g>
   </g>
  </g>
 </g>
 <defs>
  <clipPath id="p31f458c143">
   <rect x="27.978125" y="11.814114" width="681.221875" height="667.029636"/>
  </clipPath>
 </defs>
</svg>
