<?xml version="1.0" encoding="utf-8" standalone="no"?>
<!DOCTYPE svg PUBLIC "-//W3C//DTD SVG 1.1//EN"
  "http://www.w3.org/Graphics/SVG/1.1/DTD/svg11.dtd">
<svg xmlns:xlink="http://www.w3.org/1999/xlink" width="720pt" height="576pt" viewBox="0 0 720 576" xmlns="http://www.w3.org/2000/svg" version="1.1">
 <metadata>
  <rdf:RDF xmlns:dc="http://purl.org/dc/elements/1.1/" xmlns:cc="http://creativecommons.org/ns#" xmlns:rdf="http://www.w3.org/1999/02/22-rdf-syntax-ns#">
   <cc:Work>
    <dc:type rdf:resource="http://purl.org/dc/dcmitype/StillImage"/>
    <dc:date>2022-11-21T18:18:01.873875</dc:date>
    <dc:format>image/svg+xml</dc:format>
    <dc:creator>
     <cc:Agent>
      <dc:title>Matplotlib v3.6.1, https://matplotlib.org/</dc:title>
     </cc:Agent>
    </dc:creator>
   </cc:Work>
  </rdf:RDF>
 </metadata>
 <defs>
  <style type="text/css">*{stroke-linejoin: round; stroke-linecap: butt}</style>
 </defs>
 <g id="figure_1">
  <g id="patch_1">
   <path d="M 0 576 
L 720 576 
L 720 0 
L 0 0 
z
" style="fill: #ffffff"/>
  </g>
  <g id="axes_1">
   <g id="patch_2">
    <path d="M 42.495313 510.648438 
L 683.709651 510.648438 
L 683.709651 24.528635 
L 42.495313 24.528635 
z
" style="fill: #ffffff"/>
   </g>
   <g id="PolyCollection_1">
    <defs>
     <path id="m7a35644f60" d="M 77.36399 -71.124957 
L 348.66568 -71.124957 
L 348.66568 -71.702296 
L 348.66568 -72.279636 
L 348.66568 -72.856975 
L 348.66568 -73.434315 
L 348.66568 -74.011654 
L 348.66568 -74.588993 
L 348.66568 -75.166333 
L 348.66568 -75.743672 
L 348.66568 -76.321012 
L 348.66568 -76.898351 
L 348.66568 -77.475691 
L 348.66568 -78.05303 
L 348.66568 -78.630369 
L 348.66568 -79.207709 
L 348.66568 -79.785048 
L 348.66568 -80.362388 
L 348.66568 -80.939727 
L 348.66568 -81.517067 
L 348.66568 -82.094406 
L 348.66568 -82.671745 
L 348.66568 -83.249085 
L 348.66568 -83.826424 
L 348.66568 -84.403764 
L 646.96803 -84.403764 
L 646.96803 -84.403764 
L 646.863466 -83.826424 
L 644.43234 -83.249085 
L 644.43234 -82.671745 
L 644.406085 -82.094406 
L 643.797127 -81.517067 
L 638.73874 -80.939727 
L 634.258525 -80.362388 
L 634.120203 -79.785048 
L 626.923817 -79.207709 
L 626.022237 -78.630369 
L 618.276164 -78.05303 
L 617.415843 -77.475691 
L 616.954717 -76.898351 
L 132.26464 -76.321012 
L 130.638947 -75.743672 
L 126.952012 -75.166333 
L 122.729428 -74.588993 
L 116.810055 -74.011654 
L 114.671478 -73.434315 
L 111.000262 -72.856975 
L 107.325074 -72.279636 
L 83.280171 -71.702296 
L 77.36399 -71.124957 
z
" style="stroke: #000000; stroke-opacity: 0.7"/>
    </defs>
    <g clip-path="url(#pbd2496f5b8)">
     <use xlink:href="#m7a35644f60" x="0" y="576" style="fill-opacity: 0.7; stroke: #000000; stroke-opacity: 0.7"/>
    </g>
   </g>
   <g id="PolyCollection_2">
    <defs>
     <path id="m92ba578b4e" d="M 122.426115 -90.754498 
L 348.66568 -90.754498 
L 348.66568 -91.331837 
L 348.66568 -91.909176 
L 348.66568 -92.486516 
L 348.66568 -93.063855 
L 348.66568 -93.641195 
L 348.66568 -94.218534 
L 348.66568 -94.795874 
L 348.66568 -95.373213 
L 348.66568 -95.950552 
L 348.66568 -96.527892 
L 348.66568 -97.105231 
L 348.66568 -97.682571 
L 348.66568 -98.25991 
L 348.66568 -98.83725 
L 348.66568 -99.414589 
L 348.66568 -99.991928 
L 348.66568 -100.569268 
L 348.66568 -101.146607 
L 348.66568 -101.723947 
L 348.66568 -102.301286 
L 348.66568 -102.878626 
L 348.66568 -103.455965 
L 348.66568 -104.033304 
L 348.66568 -104.610644 
L 348.66568 -105.187983 
L 348.66568 -105.765323 
L 348.66568 -106.342662 
L 348.66568 -106.920002 
L 348.66568 -107.497341 
L 348.66568 -108.074681 
L 348.66568 -108.65202 
L 348.66568 -109.229359 
L 348.66568 -109.806699 
L 348.66568 -110.384038 
L 348.66568 -110.961378 
L 348.66568 -111.538717 
L 348.66568 -112.116057 
L 348.66568 -112.693396 
L 348.66568 -113.270735 
L 348.66568 -113.848075 
L 348.66568 -114.425414 
L 348.66568 -115.002754 
L 348.66568 -115.580093 
L 348.66568 -116.157433 
L 348.66568 -116.734772 
L 348.66568 -117.312111 
L 348.66568 -117.889451 
L 348.66568 -118.46679 
L 348.66568 -119.04413 
L 348.66568 -119.621469 
L 348.66568 -120.198809 
L 348.66568 -120.776148 
L 348.66568 -121.353487 
L 348.66568 -121.930827 
L 348.66568 -122.508166 
L 348.66568 -123.085506 
L 348.66568 -123.662845 
L 348.66568 -124.240185 
L 348.66568 -124.817524 
L 348.66568 -125.394863 
L 348.66568 -125.972203 
L 348.66568 -126.549542 
L 348.66568 -127.126882 
L 348.66568 -127.704221 
L 348.66568 -128.281561 
L 348.66568 -128.8589 
L 348.66568 -129.43624 
L 348.66568 -130.013579 
L 348.66568 -130.590918 
L 348.66568 -131.168258 
L 348.66568 -131.745597 
L 348.66568 -132.322937 
L 348.66568 -132.900276 
L 348.66568 -133.477616 
L 348.66568 -134.054955 
L 348.66568 -134.632294 
L 348.66568 -135.209634 
L 348.66568 -135.786973 
L 348.66568 -136.364313 
L 348.66568 -136.941652 
L 348.66568 -137.518992 
L 348.66568 -138.096331 
L 348.66568 -138.67367 
L 348.66568 -139.25101 
L 348.66568 -139.828349 
L 348.66568 -140.405689 
L 348.66568 -140.983028 
L 348.66568 -141.560368 
L 348.66568 -142.137707 
L 348.66568 -142.715046 
L 348.66568 -143.292386 
L 348.66568 -143.869725 
L 348.66568 -144.447065 
L 654.446512 -144.447065 
L 654.446512 -144.447065 
L 654.086851 -143.869725 
L 653.688027 -143.292386 
L 653.63297 -142.715046 
L 653.492609 -142.137707 
L 653.391426 -141.560368 
L 653.379429 -140.983028 
L 653.374837 -140.405689 
L 653.354566 -139.828349 
L 653.326859 -139.25101 
L 653.316534 -138.67367 
L 653.30996 -138.096331 
L 653.301376 -137.518992 
L 653.279644 -136.941652 
L 653.226699 -136.364313 
L 653.13211 -135.786973 
L 653.114499 -135.209634 
L 653.090368 -134.632294 
L 653.089854 -134.054955 
L 653.041738 -133.477616 
L 652.993021 -132.900276 
L 652.977795 -132.322937 
L 652.950809 -131.745597 
L 652.945778 -131.168258 
L 652.945263 -130.590918 
L 652.932284 -130.013579 
L 652.91235 -129.43624 
L 652.907337 -128.8589 
L 652.888383 -128.281561 
L 652.863342 -127.704221 
L 652.814834 -127.126882 
L 652.802331 -126.549542 
L 652.796318 -125.972203 
L 652.733355 -125.394863 
L 652.723557 -124.817524 
L 652.697796 -124.240185 
L 652.688378 -123.662845 
L 652.652985 -123.085506 
L 652.595945 -122.508166 
L 652.573677 -121.930827 
L 652.57297 -121.353487 
L 652.547443 -120.776148 
L 652.530788 -120.198809 
L 652.528005 -119.621469 
L 652.524273 -119.04413 
L 652.512438 -118.46679 
L 652.494514 -117.889451 
L 652.483281 -117.312111 
L 652.467256 -116.734772 
L 652.465621 -116.157433 
L 652.430233 -115.580093 
L 652.421711 -115.002754 
L 652.415172 -114.425414 
L 652.39521 -113.848075 
L 652.387664 -113.270735 
L 652.349063 -112.693396 
L 652.348252 -112.116057 
L 652.345904 -111.538717 
L 652.321103 -110.961378 
L 652.308836 -110.384038 
L 652.276691 -109.806699 
L 652.247293 -109.229359 
L 652.245396 -108.65202 
L 652.237773 -108.074681 
L 652.144602 -107.497341 
L 652.106298 -106.920002 
L 652.101928 -106.342662 
L 652.057853 -105.765323 
L 652.004885 -105.187983 
L 651.963713 -104.610644 
L 651.961 -104.033304 
L 651.956385 -103.455965 
L 651.883902 -102.878626 
L 651.835582 -102.301286 
L 651.815291 -101.723947 
L 651.76934 -101.146607 
L 651.549023 -100.569268 
L 651.426229 -99.991928 
L 651.398459 -99.414589 
L 650.544963 -98.83725 
L 649.156341 -98.25991 
L 647.77533 -97.682571 
L 645.747401 -97.105231 
L 644.844401 -96.527892 
L 638.830885 -95.950552 
L 626.708296 -95.373213 
L 436.623807 -94.795874 
L 391.31951 -94.218534 
L 362.567287 -93.641195 
L 242.298537 -93.063855 
L 233.110907 -92.486516 
L 185.528152 -91.909176 
L 154.324495 -91.331837 
L 122.426115 -90.754498 
z
" style="stroke: #7b008c; stroke-opacity: 0.7"/>
    </defs>
    <g clip-path="url(#pbd2496f5b8)">
     <use xlink:href="#m92ba578b4e" x="0" y="576" style="fill: #7b008c; fill-opacity: 0.7; stroke: #7b008c; stroke-opacity: 0.7"/>
    </g>
   </g>
   <g id="PolyCollection_3">
    <defs>
     <path id="mebb1df95bd" d="M 80.269076 -150.797799 
L 348.66568 -150.797799 
L 348.66568 -151.375138 
L 348.66568 -151.952477 
L 348.66568 -152.529817 
L 348.66568 -153.107156 
L 348.66568 -153.684496 
L 348.66568 -154.261835 
L 348.66568 -154.839175 
L 348.66568 -155.416514 
L 348.66568 -155.993853 
L 348.66568 -156.571193 
L 348.66568 -157.148532 
L 348.66568 -157.725872 
L 348.66568 -158.303211 
L 348.66568 -158.880551 
L 348.66568 -159.45789 
L 348.66568 -160.035229 
L 348.66568 -160.612569 
L 348.66568 -161.189908 
L 348.66568 -161.767248 
L 348.66568 -162.344587 
L 348.66568 -162.921927 
L 348.66568 -163.499266 
L 348.66568 -164.076605 
L 348.66568 -164.653945 
L 348.66568 -165.231284 
L 348.66568 -165.808624 
L 348.66568 -166.385963 
L 348.66568 -166.963303 
L 654.038603 -166.963303 
L 654.038603 -166.963303 
L 653.910635 -166.385963 
L 653.69852 -165.808624 
L 653.321092 -165.231284 
L 652.969641 -164.653945 
L 652.045996 -164.076605 
L 611.364013 -163.499266 
L 597.772864 -162.921927 
L 592.629298 -162.344587 
L 575.943916 -161.767248 
L 558.186199 -161.189908 
L 546.545956 -160.612569 
L 532.088477 -160.035229 
L 530.148022 -159.45789 
L 522.534062 -158.880551 
L 490.825885 -158.303211 
L 486.637645 -157.725872 
L 474.008193 -157.148532 
L 447.691838 -156.571193 
L 404.69253 -155.993853 
L 345.989086 -155.416514 
L 295.487399 -154.839175 
L 251.250609 -154.261835 
L 201.834157 -153.684496 
L 201.725559 -153.107156 
L 149.874856 -152.529817 
L 143.559987 -151.952477 
L 140.809465 -151.375138 
L 80.269076 -150.797799 
z
" style="stroke: #4300a2; stroke-opacity: 0.7"/>
    </defs>
    <g clip-path="url(#pbd2496f5b8)">
     <use xlink:href="#mebb1df95bd" x="0" y="576" style="fill: #4300a2; fill-opacity: 0.7; stroke: #4300a2; stroke-opacity: 0.7"/>
    </g>
   </g>
   <g id="PolyCollection_4">
    <defs>
     <path id="mcfbca64c44" d="M 206.3695 -173.314036 
L 348.66568 -173.314036 
L 348.66568 -173.891376 
L 348.66568 -174.468715 
L 348.66568 -175.046055 
L 348.66568 -175.623394 
L 348.66568 -176.200734 
L 348.66568 -176.778073 
L 348.66568 -177.355412 
L 348.66568 -177.932752 
L 348.66568 -178.510091 
L 348.66568 -179.087431 
L 348.66568 -179.66477 
L 348.66568 -180.24211 
L 348.66568 -180.819449 
L 348.66568 -181.396788 
L 348.66568 -181.974128 
L 348.66568 -182.551467 
L 348.66568 -183.128807 
L 348.66568 -183.706146 
L 348.66568 -184.283486 
L 348.66568 -184.860825 
L 348.66568 -185.438164 
L 348.66568 -186.015504 
L 348.66568 -186.592843 
L 348.66568 -187.170183 
L 348.66568 -187.747522 
L 348.66568 -188.324862 
L 348.66568 -188.902201 
L 348.66568 -189.47954 
L 348.66568 -190.05688 
L 348.66568 -190.634219 
L 348.66568 -191.211559 
L 348.66568 -191.788898 
L 348.66568 -192.366238 
L 348.66568 -192.943577 
L 348.66568 -193.520917 
L 348.66568 -194.098256 
L 348.66568 -194.675595 
L 348.66568 -195.252935 
L 348.66568 -195.830274 
L 348.66568 -196.407614 
L 348.66568 -196.984953 
L 348.66568 -197.562293 
L 348.66568 -198.139632 
L 348.66568 -198.716971 
L 348.66568 -199.294311 
L 348.66568 -199.87165 
L 348.66568 -200.44899 
L 348.66568 -201.026329 
L 348.66568 -201.603669 
L 348.66568 -202.181008 
L 348.66568 -202.758347 
L 348.66568 -203.335687 
L 348.66568 -203.913026 
L 348.66568 -204.490366 
L 348.66568 -205.067705 
L 348.66568 -205.645045 
L 348.66568 -206.222384 
L 348.66568 -206.799723 
L 348.66568 -207.377063 
L 348.66568 -207.954402 
L 348.66568 -208.531742 
L 348.66568 -209.109081 
L 348.66568 -209.686421 
L 348.66568 -210.26376 
L 348.66568 -210.841099 
L 348.66568 -211.418439 
L 348.66568 -211.995778 
L 348.66568 -212.573118 
L 348.66568 -213.150457 
L 348.66568 -213.727797 
L 348.66568 -214.305136 
L 348.66568 -214.882476 
L 348.66568 -215.459815 
L 348.66568 -216.037154 
L 348.66568 -216.614494 
L 348.66568 -217.191833 
L 348.66568 -217.769173 
L 348.66568 -218.346512 
L 348.66568 -218.923852 
L 348.66568 -219.501191 
L 348.66568 -220.07853 
L 348.66568 -220.65587 
L 348.66568 -221.233209 
L 348.66568 -221.810549 
L 348.66568 -222.387888 
L 348.66568 -222.965228 
L 348.66568 -223.542567 
L 348.66568 -224.119906 
L 348.66568 -224.697246 
L 654.608479 -224.697246 
L 654.608479 -224.697246 
L 654.047053 -224.119906 
L 653.996317 -223.542567 
L 653.993339 -222.965228 
L 653.788149 -222.387888 
L 653.680016 -221.810549 
L 647.562833 -221.233209 
L 647.38321 -220.65587 
L 647.135793 -220.07853 
L 646.957424 -219.501191 
L 646.699987 -218.923852 
L 646.544481 -218.346512 
L 645.576369 -217.769173 
L 644.450336 -217.191833 
L 644.173886 -216.614494 
L 643.979099 -216.037154 
L 643.550533 -215.459815 
L 643.408806 -214.882476 
L 643.308572 -214.305136 
L 643.068299 -213.727797 
L 642.754255 -213.150457 
L 642.386414 -212.573118 
L 642.109818 -211.995778 
L 641.94735 -211.418439 
L 641.8266 -210.841099 
L 641.539722 -210.26376 
L 641.356644 -209.686421 
L 641.349336 -209.109081 
L 641.180631 -208.531742 
L 640.140099 -207.954402 
L 639.665541 -207.377063 
L 639.189191 -206.799723 
L 638.826372 -206.222384 
L 638.72796 -205.645045 
L 638.574441 -205.067705 
L 638.215084 -204.490366 
L 637.554338 -203.913026 
L 637.112314 -203.335687 
L 636.092999 -202.758347 
L 635.811307 -202.181008 
L 634.908282 -201.603669 
L 634.844778 -201.026329 
L 634.550657 -200.44899 
L 633.318519 -199.87165 
L 632.833984 -199.294311 
L 632.606298 -198.716971 
L 632.452308 -198.139632 
L 631.477781 -197.562293 
L 630.192018 -196.984953 
L 629.417686 -196.407614 
L 627.402002 -195.830274 
L 626.988946 -195.252935 
L 626.711944 -194.675595 
L 626.658735 -194.098256 
L 626.518756 -193.520917 
L 625.425968 -192.943577 
L 624.916385 -192.366238 
L 622.819125 -191.788898 
L 620.588175 -191.211559 
L 616.50257 -190.634219 
L 615.682848 -190.05688 
L 613.387369 -189.47954 
L 613.337221 -188.902201 
L 606.335537 -188.324862 
L 605.829623 -187.747522 
L 600.390456 -187.170183 
L 598.334644 -186.592843 
L 596.954483 -186.015504 
L 596.144274 -185.438164 
L 591.461576 -184.860825 
L 587.151021 -184.283486 
L 582.172866 -183.706146 
L 579.687912 -183.128807 
L 572.523742 -182.551467 
L 566.171591 -181.974128 
L 558.433076 -181.396788 
L 556.924519 -180.819449 
L 556.415036 -180.24211 
L 553.26642 -179.66477 
L 550.962394 -179.087431 
L 543.672789 -178.510091 
L 539.218956 -177.932752 
L 527.945826 -177.355412 
L 501.402097 -176.778073 
L 498.106561 -176.200734 
L 494.018081 -175.623394 
L 477.362557 -175.046055 
L 387.936986 -174.468715 
L 296.097268 -173.891376 
L 206.3695 -173.314036 
z
" style="stroke: #0000d1; stroke-opacity: 0.7"/>
    </defs>
    <g clip-path="url(#pbd2496f5b8)">
     <use xlink:href="#mcfbca64c44" x="0" y="576" style="fill: #0000d1; fill-opacity: 0.7; stroke: #0000d1; stroke-opacity: 0.7"/>
    </g>
   </g>
   <g id="PolyCollection_5">
    <defs>
     <path id="m8cf735a195" d="M 158.897078 -231.04798 
L 348.66568 -231.04798 
L 348.66568 -231.625319 
L 348.66568 -232.202658 
L 348.66568 -232.779998 
L 348.66568 -233.357337 
L 348.66568 -233.934677 
L 348.66568 -234.512016 
L 348.66568 -235.089356 
L 348.66568 -235.666695 
L 348.66568 -236.244035 
L 348.66568 -236.821374 
L 348.66568 -237.398713 
L 348.66568 -237.976053 
L 348.66568 -238.553392 
L 348.66568 -239.130732 
L 348.66568 -239.708071 
L 348.66568 -240.285411 
L 348.66568 -240.86275 
L 348.66568 -241.440089 
L 348.66568 -242.017429 
L 348.66568 -242.594768 
L 653.787539 -242.594768 
L 653.787539 -242.594768 
L 651.495545 -242.017429 
L 644.702395 -241.440089 
L 643.531136 -240.86275 
L 642.410165 -240.285411 
L 641.931134 -239.708071 
L 636.490472 -239.130732 
L 631.545135 -238.553392 
L 626.688612 -237.976053 
L 621.575197 -237.398713 
L 617.507634 -236.821374 
L 616.88069 -236.244035 
L 612.260209 -235.666695 
L 610.612481 -235.089356 
L 609.124147 -234.512016 
L 602.132934 -233.934677 
L 602.115057 -233.357337 
L 595.855007 -232.779998 
L 569.819079 -232.202658 
L 304.577384 -231.625319 
L 158.897078 -231.04798 
z
" style="stroke: #0078dd; stroke-opacity: 0.7"/>
    </defs>
    <g clip-path="url(#pbd2496f5b8)">
     <use xlink:href="#m8cf735a195" x="0" y="576" style="fill: #0078dd; fill-opacity: 0.7; stroke: #0078dd; stroke-opacity: 0.7"/>
    </g>
   </g>
   <g id="PolyCollection_6">
    <defs>
     <path id="m87a042c94d" d="M 211.091884 -248.945502 
L 348.66568 -248.945502 
L 348.66568 -249.522841 
L 348.66568 -250.100181 
L 348.66568 -250.67752 
L 348.66568 -251.25486 
L 348.66568 -251.832199 
L 348.66568 -252.409539 
L 348.66568 -252.986878 
L 348.66568 -253.564218 
L 348.66568 -254.141557 
L 348.66568 -254.718896 
L 648.454705 -254.718896 
L 648.454705 -254.718896 
L 644.221058 -254.141557 
L 642.903377 -253.564218 
L 632.981651 -252.986878 
L 628.866542 -252.409539 
L 625.893363 -251.832199 
L 625.486946 -251.25486 
L 624.020201 -250.67752 
L 623.724812 -250.100181 
L 300.936438 -249.522841 
L 211.091884 -248.945502 
z
" style="stroke: #009ecf; stroke-opacity: 0.7"/>
    </defs>
    <g clip-path="url(#pbd2496f5b8)">
     <use xlink:href="#m87a042c94d" x="0" y="576" style="fill: #009ecf; fill-opacity: 0.7; stroke: #009ecf; stroke-opacity: 0.7"/>
    </g>
   </g>
   <g id="PolyCollection_7">
    <defs>
     <path id="mdc6a147a85" d="M 374.419169 -261.06963 
L 348.66568 -261.06963 
L 348.66568 -261.64697 
L 348.66568 -262.224309 
L 348.66568 -262.801648 
L 348.66568 -263.378988 
L 348.66568 -263.956327 
L 348.66568 -264.533667 
L 348.66568 -265.111006 
L 348.66568 -265.688346 
L 348.66568 -266.265685 
L 348.66568 -266.843024 
L 348.66568 -267.420364 
L 348.66568 -267.997703 
L 348.66568 -268.575043 
L 348.66568 -269.152382 
L 348.66568 -269.729722 
L 348.66568 -270.307061 
L 348.66568 -270.8844 
L 348.66568 -271.46174 
L 348.66568 -272.039079 
L 348.66568 -272.616419 
L 348.66568 -273.193758 
L 348.66568 -273.771098 
L 348.66568 -274.348437 
L 348.66568 -274.925777 
L 348.66568 -275.503116 
L 348.66568 -276.080455 
L 348.66568 -276.657795 
L 348.66568 -277.235134 
L 348.66568 -277.812474 
L 348.66568 -278.389813 
L 348.66568 -278.967153 
L 348.66568 -279.544492 
L 348.66568 -280.121831 
L 348.66568 -280.699171 
L 348.66568 -281.27651 
L 348.66568 -281.85385 
L 348.66568 -282.431189 
L 348.66568 -283.008529 
L 348.66568 -283.585868 
L 348.66568 -284.163207 
L 348.66568 -284.740547 
L 348.66568 -285.317886 
L 348.66568 -285.895226 
L 348.66568 -286.472565 
L 348.66568 -287.049905 
L 348.66568 -287.627244 
L 348.66568 -288.204583 
L 348.66568 -288.781923 
L 348.66568 -289.359262 
L 348.66568 -289.936602 
L 348.66568 -290.513941 
L 348.66568 -291.091281 
L 348.66568 -291.66862 
L 348.66568 -292.245959 
L 348.66568 -292.823299 
L 348.66568 -293.400638 
L 348.66568 -293.977978 
L 348.66568 -294.555317 
L 348.66568 -295.132657 
L 348.66568 -295.709996 
L 348.66568 -296.287336 
L 348.66568 -296.864675 
L 348.66568 -297.442014 
L 348.66568 -298.019354 
L 348.66568 -298.596693 
L 348.66568 -299.174033 
L 348.66568 -299.751372 
L 348.66568 -300.328712 
L 348.66568 -300.906051 
L 348.66568 -301.48339 
L 348.66568 -302.06073 
L 348.66568 -302.638069 
L 348.66568 -303.215409 
L 348.66568 -303.792748 
L 348.66568 -304.370088 
L 348.66568 -304.947427 
L 348.66568 -305.524766 
L 348.66568 -306.102106 
L 348.66568 -306.679445 
L 348.66568 -307.256785 
L 348.66568 -307.834124 
L 348.66568 -308.411464 
L 348.66568 -308.988803 
L 348.66568 -309.566142 
L 348.66568 -310.143482 
L 348.66568 -310.720821 
L 348.66568 -311.298161 
L 348.66568 -311.8755 
L 348.66568 -312.45284 
L 348.66568 -313.030179 
L 348.66568 -313.607518 
L 348.66568 -314.184858 
L 348.66568 -314.762197 
L 348.66568 -315.339537 
L 348.66568 -315.916876 
L 348.66568 -316.494216 
L 348.66568 -317.071555 
L 348.66568 -317.648895 
L 348.66568 -318.226234 
L 348.66568 -318.803573 
L 348.66568 -319.380913 
L 348.66568 -319.958252 
L 348.66568 -320.535592 
L 348.66568 -321.112931 
L 348.66568 -321.690271 
L 348.66568 -322.26761 
L 348.66568 -322.844949 
L 348.66568 -323.422289 
L 348.66568 -323.999628 
L 348.66568 -324.576968 
L 348.66568 -325.154307 
L 348.66568 -325.731647 
L 348.66568 -326.308986 
L 348.66568 -326.886325 
L 348.66568 -327.463665 
L 348.66568 -328.041004 
L 348.66568 -328.618344 
L 348.66568 -329.195683 
L 348.66568 -329.773023 
L 348.66568 -330.350362 
L 348.66568 -330.927701 
L 348.66568 -331.505041 
L 348.66568 -332.08238 
L 348.66568 -332.65972 
L 348.66568 -333.237059 
L 348.66568 -333.814399 
L 348.66568 -334.391738 
L 348.66568 -334.969077 
L 348.66568 -335.546417 
L 348.66568 -336.123756 
L 348.66568 -336.701096 
L 348.66568 -337.278435 
L 348.66568 -337.855775 
L 348.66568 -338.433114 
L 348.66568 -339.010454 
L 348.66568 -339.587793 
L 348.66568 -340.165132 
L 348.66568 -340.742472 
L 348.66568 -341.319811 
L 348.66568 -341.897151 
L 348.66568 -342.47449 
L 348.66568 -343.05183 
L 348.66568 -343.629169 
L 348.66568 -344.206508 
L 348.66568 -344.783848 
L 348.66568 -345.361187 
L 348.66568 -345.938527 
L 348.66568 -346.515866 
L 348.66568 -347.093206 
L 348.66568 -347.670545 
L 348.66568 -348.247884 
L 348.66568 -348.825224 
L 348.66568 -349.402563 
L 348.66568 -349.979903 
L 348.66568 -350.557242 
L 348.66568 -351.134582 
L 348.66568 -351.711921 
L 348.66568 -352.28926 
L 348.66568 -352.8666 
L 348.66568 -353.443939 
L 348.66568 -354.021279 
L 348.66568 -354.598618 
L 348.66568 -355.175958 
L 348.66568 -355.753297 
L 348.66568 -356.330636 
L 348.66568 -356.907976 
L 348.66568 -357.485315 
L 348.66568 -358.062655 
L 348.66568 -358.639994 
L 348.66568 -359.217334 
L 348.66568 -359.794673 
L 348.66568 -360.372013 
L 348.66568 -360.949352 
L 348.66568 -361.526691 
L 348.66568 -362.104031 
L 348.66568 -362.68137 
L 348.66568 -363.25871 
L 348.66568 -363.836049 
L 348.66568 -364.413389 
L 348.66568 -364.990728 
L 348.66568 -365.568067 
L 348.66568 -366.145407 
L 653.756628 -366.145407 
L 653.756628 -366.145407 
L 653.702567 -365.568067 
L 653.668615 -364.990728 
L 653.658607 -364.413389 
L 653.531923 -363.836049 
L 653.524597 -363.25871 
L 653.496502 -362.68137 
L 653.454602 -362.104031 
L 653.45304 -361.526691 
L 653.438944 -360.949352 
L 653.409884 -360.372013 
L 653.401515 -359.794673 
L 653.399714 -359.217334 
L 653.356088 -358.639994 
L 653.349597 -358.062655 
L 653.344848 -357.485315 
L 653.320653 -356.907976 
L 653.276288 -356.330636 
L 653.272792 -355.753297 
L 653.202892 -355.175958 
L 653.188422 -354.598618 
L 653.157366 -354.021279 
L 653.143051 -353.443939 
L 653.137866 -352.8666 
L 653.042293 -352.28926 
L 653.030644 -351.711921 
L 653.008282 -351.134582 
L 653.007769 -350.557242 
L 652.979136 -349.979903 
L 652.952963 -349.402563 
L 652.947483 -348.825224 
L 652.924862 -348.247884 
L 652.911311 -347.670545 
L 652.882624 -347.093206 
L 652.879294 -346.515866 
L 652.841892 -345.938527 
L 652.826062 -345.361187 
L 652.816115 -344.783848 
L 652.811387 -344.206508 
L 652.779604 -343.629169 
L 652.774645 -343.05183 
L 652.67991 -342.47449 
L 652.678309 -341.897151 
L 652.656808 -341.319811 
L 652.652594 -340.742472 
L 652.627317 -340.165132 
L 652.609924 -339.587793 
L 652.592429 -339.010454 
L 652.591449 -338.433114 
L 652.584308 -337.855775 
L 652.582088 -337.278435 
L 652.567201 -336.701096 
L 652.564325 -336.123756 
L 652.457665 -335.546417 
L 652.445033 -334.969077 
L 652.442613 -334.391738 
L 652.429439 -333.814399 
L 652.407577 -333.237059 
L 652.401471 -332.65972 
L 652.382497 -332.08238 
L 652.376501 -331.505041 
L 652.374773 -330.927701 
L 652.370382 -330.350362 
L 652.368933 -329.773023 
L 652.348427 -329.195683 
L 652.333486 -328.618344 
L 652.281927 -328.041004 
L 652.275325 -327.463665 
L 652.25633 -326.886325 
L 652.252731 -326.308986 
L 652.208506 -325.731647 
L 652.204393 -325.154307 
L 652.201659 -324.576968 
L 652.18806 -323.999628 
L 652.143187 -323.422289 
L 652.138224 -322.844949 
L 652.129306 -322.26761 
L 652.114497 -321.690271 
L 652.110496 -321.112931 
L 652.105483 -320.535592 
L 652.067334 -319.958252 
L 652.058126 -319.380913 
L 652.044224 -318.803573 
L 652.024137 -318.226234 
L 652.001582 -317.648895 
L 651.999097 -317.071555 
L 651.978642 -316.494216 
L 651.944287 -315.916876 
L 651.938642 -315.339537 
L 651.929625 -314.762197 
L 651.926596 -314.184858 
L 651.926106 -313.607518 
L 651.920431 -313.030179 
L 651.900905 -312.45284 
L 651.896664 -311.8755 
L 651.83107 -311.298161 
L 651.821189 -310.720821 
L 651.766389 -310.143482 
L 651.763855 -309.566142 
L 651.714 -308.988803 
L 651.614389 -308.411464 
L 651.479141 -307.834124 
L 651.418665 -307.256785 
L 651.389792 -306.679445 
L 651.335663 -306.102106 
L 651.273291 -305.524766 
L 651.25687 -304.947427 
L 651.25445 -304.370088 
L 651.160557 -303.792748 
L 651.128431 -303.215409 
L 650.955695 -302.638069 
L 650.922969 -302.06073 
L 650.600449 -301.48339 
L 650.446294 -300.906051 
L 650.38106 -300.328712 
L 650.36221 -299.751372 
L 650.23258 -299.174033 
L 650.180028 -298.596693 
L 649.62229 -298.019354 
L 649.428308 -297.442014 
L 649.190783 -296.864675 
L 649.185605 -296.287336 
L 649.133205 -295.709996 
L 649.096887 -295.132657 
L 649.003112 -294.555317 
L 648.397211 -293.977978 
L 648.183237 -293.400638 
L 648.151144 -292.823299 
L 648.004702 -292.245959 
L 647.813961 -291.66862 
L 647.751836 -291.091281 
L 647.595792 -290.513941 
L 647.251402 -289.936602 
L 646.75247 -289.359262 
L 646.70407 -288.781923 
L 646.208187 -288.204583 
L 646.176827 -287.627244 
L 645.942803 -287.049905 
L 645.866705 -286.472565 
L 645.865648 -285.895226 
L 645.476874 -285.317886 
L 645.234101 -284.740547 
L 645.071118 -284.163207 
L 645.037786 -283.585868 
L 644.751635 -283.008529 
L 644.533339 -282.431189 
L 644.511865 -281.85385 
L 643.99211 -281.27651 
L 643.739097 -280.699171 
L 643.158016 -280.121831 
L 643.053069 -279.544492 
L 642.931727 -278.967153 
L 642.763682 -278.389813 
L 642.309941 -277.812474 
L 642.265718 -277.235134 
L 642.262233 -276.657795 
L 642.172042 -276.080455 
L 641.41637 -275.503116 
L 640.635687 -274.925777 
L 639.832198 -274.348437 
L 637.651413 -273.771098 
L 635.885569 -273.193758 
L 635.224813 -272.616419 
L 621.069389 -272.039079 
L 619.559412 -271.46174 
L 618.024751 -270.8844 
L 614.523332 -270.307061 
L 613.762371 -269.729722 
L 608.872093 -269.152382 
L 605.706801 -268.575043 
L 597.592474 -267.997703 
L 594.919168 -267.420364 
L 589.891763 -266.843024 
L 588.015883 -266.265685 
L 583.049777 -265.688346 
L 576.01029 -265.111006 
L 574.637883 -264.533667 
L 570.87283 -263.956327 
L 566.907996 -263.378988 
L 562.909003 -262.801648 
L 535.530314 -262.224309 
L 507.149309 -261.64697 
L 374.419169 -261.06963 
z
" style="stroke: #00aa98; stroke-opacity: 0.7"/>
    </defs>
    <g clip-path="url(#pbd2496f5b8)">
     <use xlink:href="#mdc6a147a85" x="0" y="576" style="fill: #00aa98; fill-opacity: 0.7; stroke: #00aa98; stroke-opacity: 0.7"/>
    </g>
   </g>
   <g id="PolyCollection_8">
    <defs>
     <path id="mfd168acea8" d="M 654.138036 -372.496141 
L 348.66568 -372.496141 
L 348.66568 -373.07348 
L 348.66568 -373.650819 
L 348.66568 -374.228159 
L 348.66568 -374.805498 
L 348.66568 -375.382838 
L 348.66568 -375.960177 
L 348.66568 -376.537517 
L 654.814755 -376.537517 
L 654.814755 -376.537517 
L 654.782276 -375.960177 
L 654.779872 -375.382838 
L 654.685618 -374.805498 
L 654.644001 -374.228159 
L 654.614341 -373.650819 
L 654.543811 -373.07348 
L 654.138036 -372.496141 
z
" style="stroke: #009d1d; stroke-opacity: 0.7"/>
    </defs>
    <g clip-path="url(#pbd2496f5b8)">
     <use xlink:href="#mfd168acea8" x="0" y="576" style="fill: #009d1d; fill-opacity: 0.7; stroke: #009d1d; stroke-opacity: 0.7"/>
    </g>
   </g>
   <g id="PolyCollection_9">
    <defs>
     <path id="m7c673cf30d" d="M 471.9798 -382.88825 
L 348.66568 -382.88825 
L 348.66568 -383.46559 
L 348.66568 -384.042929 
L 348.66568 -384.620269 
L 348.66568 -385.197608 
L 348.66568 -385.774948 
L 636.664745 -385.774948 
L 636.664745 -385.774948 
L 622.938763 -385.197608 
L 611.810811 -384.620269 
L 577.747776 -384.042929 
L 564.662201 -383.46559 
L 471.9798 -382.88825 
z
" style="stroke: #00bc00; stroke-opacity: 0.7"/>
    </defs>
    <g clip-path="url(#pbd2496f5b8)">
     <use xlink:href="#m7c673cf30d" x="0" y="576" style="fill: #00bc00; fill-opacity: 0.7; stroke: #00bc00; stroke-opacity: 0.7"/>
    </g>
   </g>
   <g id="PolyCollection_10">
    <defs>
     <path id="m208d5dcb27" d="M 247.021535 -392.125681 
L 348.66568 -392.125681 
L 348.66568 -392.703021 
L 348.66568 -393.28036 
L 348.66568 -393.8577 
L 348.66568 -394.435039 
L 348.66568 -395.012378 
L 348.66568 -395.589718 
L 348.66568 -396.167057 
L 348.66568 -396.744397 
L 348.66568 -397.321736 
L 348.66568 -397.899076 
L 348.66568 -398.476415 
L 348.66568 -399.053754 
L 348.66568 -399.631094 
L 348.66568 -400.208433 
L 348.66568 -400.785773 
L 348.66568 -401.363112 
L 348.66568 -401.940452 
L 348.66568 -402.517791 
L 348.66568 -403.095131 
L 348.66568 -403.67247 
L 348.66568 -404.249809 
L 348.66568 -404.827149 
L 348.66568 -405.404488 
L 348.66568 -405.981828 
L 348.66568 -406.559167 
L 348.66568 -407.136507 
L 348.66568 -407.713846 
L 348.66568 -408.291185 
L 348.66568 -408.868525 
L 348.66568 -409.445864 
L 348.66568 -410.023204 
L 348.66568 -410.600543 
L 348.66568 -411.177883 
L 348.66568 -411.755222 
L 348.66568 -412.332561 
L 348.66568 -412.909901 
L 348.66568 -413.48724 
L 348.66568 -414.06458 
L 348.66568 -414.641919 
L 348.66568 -415.219259 
L 348.66568 -415.796598 
L 348.66568 -416.373937 
L 348.66568 -416.951277 
L 348.66568 -417.528616 
L 348.66568 -418.105956 
L 348.66568 -418.683295 
L 348.66568 -419.260635 
L 348.66568 -419.837974 
L 348.66568 -420.415314 
L 348.66568 -420.992653 
L 348.66568 -421.569992 
L 348.66568 -422.147332 
L 348.66568 -422.724671 
L 348.66568 -423.302011 
L 348.66568 -423.87935 
L 348.66568 -424.45669 
L 348.66568 -425.034029 
L 348.66568 -425.611368 
L 348.66568 -426.188708 
L 348.66568 -426.766047 
L 348.66568 -427.343387 
L 653.904107 -427.343387 
L 653.904107 -427.343387 
L 621.291615 -426.766047 
L 612.080268 -426.188708 
L 612.017954 -425.611368 
L 610.929793 -425.034029 
L 610.777521 -424.45669 
L 610.066954 -423.87935 
L 609.34811 -423.302011 
L 609.066238 -422.724671 
L 603.707908 -422.147332 
L 600.274166 -421.569992 
L 600.132812 -420.992653 
L 598.866132 -420.415314 
L 598.866132 -419.837974 
L 598.52583 -419.260635 
L 596.918053 -418.683295 
L 595.836546 -418.105956 
L 594.695078 -417.528616 
L 594.115319 -416.951277 
L 593.94978 -416.373937 
L 592.9423 -415.796598 
L 592.603467 -415.219259 
L 590.267874 -414.641919 
L 588.163892 -414.06458 
L 584.067389 -413.48724 
L 582.307057 -412.909901 
L 577.721543 -412.332561 
L 576.213621 -411.755222 
L 575.388494 -411.177883 
L 574.671053 -410.600543 
L 574.671053 -410.023204 
L 574.331707 -409.445864 
L 573.962265 -408.868525 
L 572.970121 -408.291185 
L 572.6356 -407.713846 
L 571.401227 -407.136507 
L 570.868285 -406.559167 
L 570.866165 -405.981828 
L 568.108376 -405.404488 
L 566.727803 -404.827149 
L 564.213114 -404.249809 
L 563.982891 -403.67247 
L 563.117811 -403.095131 
L 562.62938 -402.517791 
L 556.570858 -401.940452 
L 555.134703 -401.363112 
L 553.100311 -400.785773 
L 552.018823 -400.208433 
L 551.455116 -399.631094 
L 550.084356 -399.053754 
L 549.287391 -398.476415 
L 548.53194 -397.899076 
L 487.39749 -397.321736 
L 398.370881 -396.744397 
L 396.33999 -396.167057 
L 388.018336 -395.589718 
L 284.388953 -395.012378 
L 280.824826 -394.435039 
L 274.273904 -393.8577 
L 273.376882 -393.28036 
L 261.648803 -392.703021 
L 247.021535 -392.125681 
z
" style="stroke: #00e700; stroke-opacity: 0.7"/>
    </defs>
    <g clip-path="url(#pbd2496f5b8)">
     <use xlink:href="#m208d5dcb27" x="0" y="576" style="fill: #00e700; fill-opacity: 0.7; stroke: #00e700; stroke-opacity: 0.7"/>
    </g>
   </g>
   <g id="PolyCollection_11">
    <defs>
     <path id="m6a03bf51fc" d="M 412.746792 -433.69412 
L 348.66568 -433.69412 
L 348.66568 -434.27146 
L 348.66568 -434.848799 
L 348.66568 -435.426139 
L 348.66568 -436.003478 
L 348.66568 -436.580818 
L 348.66568 -437.158157 
L 348.66568 -437.735496 
L 348.66568 -438.312836 
L 348.66568 -438.890175 
L 348.66568 -439.467515 
L 348.66568 -440.044854 
L 348.66568 -440.622194 
L 348.66568 -441.199533 
L 348.66568 -441.776873 
L 348.66568 -442.354212 
L 348.66568 -442.931551 
L 348.66568 -443.508891 
L 348.66568 -444.08623 
L 348.66568 -444.66357 
L 348.66568 -445.240909 
L 348.66568 -445.818249 
L 348.66568 -446.395588 
L 348.66568 -446.972927 
L 348.66568 -447.550267 
L 348.66568 -448.127606 
L 348.66568 -448.704946 
L 348.66568 -449.282285 
L 348.66568 -449.859625 
L 348.66568 -450.436964 
L 348.66568 -451.014303 
L 348.66568 -451.591643 
L 348.66568 -452.168982 
L 348.66568 -452.746322 
L 348.66568 -453.323661 
L 348.66568 -453.901001 
L 348.66568 -454.47834 
L 348.66568 -455.055679 
L 348.66568 -455.633019 
L 348.66568 -456.210358 
L 348.66568 -456.787698 
L 348.66568 -457.365037 
L 348.66568 -457.942377 
L 348.66568 -458.519716 
L 348.66568 -459.097055 
L 348.66568 -459.674395 
L 348.66568 -460.251734 
L 348.66568 -460.829074 
L 348.66568 -461.406413 
L 348.66568 -461.983753 
L 348.66568 -462.561092 
L 348.66568 -463.138432 
L 348.66568 -463.715771 
L 348.66568 -464.29311 
L 348.66568 -464.87045 
L 654.670904 -464.87045 
L 654.670904 -464.87045 
L 654.661322 -464.29311 
L 654.660969 -463.715771 
L 654.647353 -463.138432 
L 654.646051 -462.561092 
L 654.645369 -461.983753 
L 654.634876 -461.406413 
L 654.632476 -460.829074 
L 654.630057 -460.251734 
L 654.628055 -459.674395 
L 654.621346 -459.097055 
L 654.609282 -458.519716 
L 654.599948 -457.942377 
L 654.597169 -457.365037 
L 654.593351 -456.787698 
L 654.589717 -456.210358 
L 654.566462 -455.633019 
L 654.563304 -455.055679 
L 654.563304 -454.47834 
L 654.560037 -453.901001 
L 654.549901 -453.323661 
L 654.548577 -452.746322 
L 654.531532 -452.168982 
L 654.528839 -451.591643 
L 654.527877 -451.014303 
L 654.514357 -450.436964 
L 654.506252 -449.859625 
L 654.477822 -449.282285 
L 654.469469 -448.704946 
L 654.45523 -448.127606 
L 654.440594 -447.550267 
L 654.437165 -446.972927 
L 654.412941 -446.395588 
L 654.362856 -445.818249 
L 654.325706 -445.240909 
L 654.32402 -444.66357 
L 654.322365 -444.08623 
L 654.125028 -443.508891 
L 653.903451 -442.931551 
L 652.466036 -442.354212 
L 652.058964 -441.776873 
L 650.531139 -441.199533 
L 650.040529 -440.622194 
L 648.967727 -440.044854 
L 643.156246 -439.467515 
L 628.104608 -438.890175 
L 626.985617 -438.312836 
L 623.361487 -437.735496 
L 604.471051 -437.158157 
L 541.302518 -436.580818 
L 527.870771 -436.003478 
L 496.397792 -435.426139 
L 489.182265 -434.848799 
L 464.472559 -434.27146 
L 412.746792 -433.69412 
z
" style="stroke: #67ff00; stroke-opacity: 0.7"/>
    </defs>
    <g clip-path="url(#pbd2496f5b8)">
     <use xlink:href="#m6a03bf51fc" x="0" y="576" style="fill: #67ff00; fill-opacity: 0.7; stroke: #67ff00; stroke-opacity: 0.7"/>
    </g>
   </g>
   <g id="PolyCollection_12">
    <defs>
     <path id="m1b97ae6465" d="M 292.445895 -471.221184 
L 348.66568 -471.221184 
L 348.66568 -471.798523 
L 348.66568 -472.375862 
L 348.66568 -472.953202 
L 348.66568 -473.530541 
L 348.66568 -474.107881 
L 348.66568 -474.68522 
L 348.66568 -475.26256 
L 348.66568 -475.839899 
L 348.66568 -476.417238 
L 348.66568 -476.994578 
L 348.66568 -477.571917 
L 348.66568 -478.149257 
L 348.66568 -478.726596 
L 348.66568 -479.303936 
L 348.66568 -479.881275 
L 348.66568 -480.458614 
L 348.66568 -481.035954 
L 348.66568 -481.613293 
L 348.66568 -482.190633 
L 348.66568 -482.767972 
L 348.66568 -483.345312 
L 348.66568 -483.922651 
L 348.66568 -484.499991 
L 348.66568 -485.07733 
L 348.66568 -485.654669 
L 348.66568 -486.232009 
L 348.66568 -486.809348 
L 348.66568 -487.386688 
L 348.66568 -487.964027 
L 348.66568 -488.541367 
L 348.66568 -489.118706 
L 348.66568 -489.696045 
L 348.66568 -490.273385 
L 348.66568 -490.850724 
L 348.66568 -491.428064 
L 348.66568 -492.005403 
L 348.66568 -492.582743 
L 348.66568 -493.160082 
L 348.66568 -493.737421 
L 348.66568 -494.314761 
L 348.66568 -494.8921 
L 348.66568 -495.46944 
L 348.66568 -496.046779 
L 348.66568 -496.624119 
L 348.66568 -497.201458 
L 348.66568 -497.778797 
L 348.66568 -498.356137 
L 348.66568 -498.933476 
L 348.66568 -499.510816 
L 348.66568 -500.088155 
L 348.66568 -500.665495 
L 348.66568 -501.242834 
L 348.66568 -501.820173 
L 348.66568 -502.397513 
L 348.66568 -502.974852 
L 348.66568 -503.552192 
L 348.66568 -504.129531 
L 348.66568 -504.706871 
L 348.66568 -505.28421 
L 654.699444 -505.28421 
L 654.699444 -505.28421 
L 654.67078 -504.706871 
L 654.661427 -504.129531 
L 654.652988 -503.552192 
L 654.633705 -502.974852 
L 654.610327 -502.397513 
L 654.594968 -501.820173 
L 654.563299 -501.242834 
L 654.557913 -500.665495 
L 654.546898 -500.088155 
L 654.532085 -499.510816 
L 654.486583 -498.933476 
L 654.479577 -498.356137 
L 654.479577 -497.778797 
L 654.444539 -497.201458 
L 654.436607 -496.624119 
L 654.435913 -496.046779 
L 654.392351 -495.46944 
L 654.331401 -494.8921 
L 654.32917 -494.314761 
L 654.306823 -493.737421 
L 654.226729 -493.160082 
L 654.208745 -492.582743 
L 653.730581 -492.005403 
L 653.508223 -491.428064 
L 652.816483 -490.850724 
L 641.993459 -490.273385 
L 640.439487 -489.696045 
L 640.390675 -489.118706 
L 640.077562 -488.541367 
L 639.016271 -487.964027 
L 635.058204 -487.386688 
L 633.434693 -486.809348 
L 631.979036 -486.232009 
L 631.384022 -485.654669 
L 630.054543 -485.07733 
L 625.242587 -484.499991 
L 624.283886 -483.922651 
L 622.786628 -483.345312 
L 622.093392 -482.767972 
L 618.346443 -482.190633 
L 614.518858 -481.613293 
L 601.760545 -481.035954 
L 595.915002 -480.458614 
L 595.442162 -479.881275 
L 595.121699 -479.303936 
L 592.342297 -478.726596 
L 591.573295 -478.149257 
L 589.212908 -477.571917 
L 588.055254 -476.994578 
L 587.375111 -476.417238 
L 583.912138 -475.839899 
L 577.713121 -475.26256 
L 574.928851 -474.68522 
L 562.898928 -474.107881 
L 554.585139 -473.530541 
L 516.095198 -472.953202 
L 478.021112 -472.375862 
L 395.707613 -471.798523 
L 292.445895 -471.221184 
z
" style="stroke: #e4f100; stroke-opacity: 0.7"/>
    </defs>
    <g clip-path="url(#pbd2496f5b8)">
     <use xlink:href="#m1b97ae6465" x="0" y="576" style="fill: #e4f100; fill-opacity: 0.7; stroke: #e4f100; stroke-opacity: 0.7"/>
    </g>
   </g>
   <g id="PolyCollection_13">
    <defs>
     <path id="m1d9ae41a2b" d="M 112.361978 -511.634944 
L 348.66568 -511.634944 
L 348.66568 -512.212283 
L 348.66568 -512.789623 
L 348.66568 -513.366962 
L 348.66568 -513.944302 
L 348.66568 -514.521641 
L 348.66568 -515.09898 
L 348.66568 -515.67632 
L 348.66568 -516.253659 
L 348.66568 -516.830999 
L 348.66568 -517.408338 
L 348.66568 -517.985678 
L 348.66568 -518.563017 
L 348.66568 -519.140356 
L 637.873209 -519.140356 
L 637.873209 -519.140356 
L 635.922621 -518.563017 
L 583.624597 -517.985678 
L 557.306599 -517.408338 
L 556.754151 -516.830999 
L 550.565329 -516.253659 
L 481.879971 -515.67632 
L 457.280194 -515.09898 
L 346.480101 -514.521641 
L 304.743129 -513.944302 
L 250.989335 -513.366962 
L 113.868528 -512.789623 
L 112.361978 -512.212283 
L 112.361978 -511.634944 
z
" style="stroke: #ffc900; stroke-opacity: 0.7"/>
    </defs>
    <g clip-path="url(#pbd2496f5b8)">
     <use xlink:href="#m1d9ae41a2b" x="0" y="576" style="fill: #ffc900; fill-opacity: 0.7; stroke: #ffc900; stroke-opacity: 0.7"/>
    </g>
   </g>
   <g id="PolyCollection_14">
    <defs>
     <path id="m91f70a30e7" d="M 502.685005 -525.49109 
L 348.66568 -525.49109 
L 348.66568 -526.06843 
L 348.66568 -526.645769 
L 651.172823 -526.645769 
L 651.172823 -526.645769 
L 580.975713 -526.06843 
L 502.685005 -525.49109 
z
" style="stroke: #ff6900; stroke-opacity: 0.7"/>
    </defs>
    <g clip-path="url(#pbd2496f5b8)">
     <use xlink:href="#m91f70a30e7" x="0" y="576" style="fill: #ff6900; fill-opacity: 0.7; stroke: #ff6900; stroke-opacity: 0.7"/>
    </g>
   </g>
   <g id="PolyCollection_15">
    <defs>
     <path id="m632abe8b36" d="M 654.203919 -532.996503 
L 348.66568 -532.996503 
L 348.66568 -533.573842 
L 348.66568 -534.151182 
L 348.66568 -534.728521 
L 348.66568 -535.305861 
L 348.66568 -535.8832 
L 348.66568 -536.460539 
L 348.66568 -537.037879 
L 348.66568 -537.615218 
L 654.727794 -537.615218 
L 654.727794 -537.615218 
L 654.595412 -537.037879 
L 654.594399 -536.460539 
L 654.577311 -535.8832 
L 654.570055 -535.305861 
L 654.408197 -534.728521 
L 654.266947 -534.151182 
L 654.252964 -533.573842 
L 654.203919 -532.996503 
z
" style="stroke: #ec0000; stroke-opacity: 0.7"/>
    </defs>
    <g clip-path="url(#pbd2496f5b8)">
     <use xlink:href="#m632abe8b36" x="0" y="576" style="fill: #ec0000; fill-opacity: 0.7; stroke: #ec0000; stroke-opacity: 0.7"/>
    </g>
   </g>
   <g id="PolyCollection_16">
    <defs>
     <path id="mb2f339d97a" d="M 654.716863 -543.965952 
L 348.66568 -543.965952 
L 348.66568 -544.543291 
L 348.66568 -545.120631 
L 654.836048 -545.120631 
L 654.836048 -545.120631 
L 654.7355 -544.543291 
L 654.716863 -543.965952 
z
" style="stroke: #cf0000; stroke-opacity: 0.7"/>
    </defs>
    <g clip-path="url(#pbd2496f5b8)">
     <use xlink:href="#mb2f339d97a" x="0" y="576" style="fill: #cf0000; fill-opacity: 0.7; stroke: #cf0000; stroke-opacity: 0.7"/>
    </g>
   </g>
   <g id="matplotlib.axis_1">
    <g id="xtick_1">
     <g id="line2d_1">
      <defs>
       <path id="m18b23689a5" d="M 0 0 
L 0 3.5 
" style="stroke: #000000; stroke-width: 0.8"/>
      </defs>
      <g>
       <use xlink:href="#m18b23689a5" x="42.495313" y="510.648438" style="stroke: #000000; stroke-width: 0.8"/>
      </g>
     </g>
     <g id="text_1">
      <!-- −1.0 -->
      <g transform="translate(18.2125 532.845312) scale(0.2 -0.2)">
       <defs>
        <path id="DejaVuSans-2212" d="M 678 2272 
L 4684 2272 
L 4684 1741 
L 678 1741 
L 678 2272 
z
" transform="scale(0.015625)"/>
        <path id="DejaVuSans-31" d="M 794 531 
L 1825 531 
L 1825 4091 
L 703 3866 
L 703 4441 
L 1819 4666 
L 2450 4666 
L 2450 531 
L 3481 531 
L 3481 0 
L 794 0 
L 794 531 
z
" transform="scale(0.015625)"/>
        <path id="DejaVuSans-2e" d="M 684 794 
L 1344 794 
L 1344 0 
L 684 0 
L 684 794 
z
" transform="scale(0.015625)"/>
        <path id="DejaVuSans-30" d="M 2034 4250 
Q 1547 4250 1301 3770 
Q 1056 3291 1056 2328 
Q 1056 1369 1301 889 
Q 1547 409 2034 409 
Q 2525 409 2770 889 
Q 3016 1369 3016 2328 
Q 3016 3291 2770 3770 
Q 2525 4250 2034 4250 
z
M 2034 4750 
Q 2819 4750 3233 4129 
Q 3647 3509 3647 2328 
Q 3647 1150 3233 529 
Q 2819 -91 2034 -91 
Q 1250 -91 836 529 
Q 422 1150 422 2328 
Q 422 3509 836 4129 
Q 1250 4750 2034 4750 
z
" transform="scale(0.015625)"/>
       </defs>
       <use xlink:href="#DejaVuSans-2212"/>
       <use xlink:href="#DejaVuSans-31" x="83.789062"/>
       <use xlink:href="#DejaVuSans-2e" x="147.412109"/>
       <use xlink:href="#DejaVuSans-30" x="179.199219"/>
      </g>
     </g>
    </g>
    <g id="xtick_2">
     <g id="line2d_2">
      <g>
       <use xlink:href="#m18b23689a5" x="103.729386" y="510.648438" style="stroke: #000000; stroke-width: 0.8"/>
      </g>
     </g>
     <g id="text_2">
      <!-- −0.8 -->
      <g transform="translate(79.446574 532.845312) scale(0.2 -0.2)">
       <defs>
        <path id="DejaVuSans-38" d="M 2034 2216 
Q 1584 2216 1326 1975 
Q 1069 1734 1069 1313 
Q 1069 891 1326 650 
Q 1584 409 2034 409 
Q 2484 409 2743 651 
Q 3003 894 3003 1313 
Q 3003 1734 2745 1975 
Q 2488 2216 2034 2216 
z
M 1403 2484 
Q 997 2584 770 2862 
Q 544 3141 544 3541 
Q 544 4100 942 4425 
Q 1341 4750 2034 4750 
Q 2731 4750 3128 4425 
Q 3525 4100 3525 3541 
Q 3525 3141 3298 2862 
Q 3072 2584 2669 2484 
Q 3125 2378 3379 2068 
Q 3634 1759 3634 1313 
Q 3634 634 3220 271 
Q 2806 -91 2034 -91 
Q 1263 -91 848 271 
Q 434 634 434 1313 
Q 434 1759 690 2068 
Q 947 2378 1403 2484 
z
M 1172 3481 
Q 1172 3119 1398 2916 
Q 1625 2713 2034 2713 
Q 2441 2713 2670 2916 
Q 2900 3119 2900 3481 
Q 2900 3844 2670 4047 
Q 2441 4250 2034 4250 
Q 1625 4250 1398 4047 
Q 1172 3844 1172 3481 
z
" transform="scale(0.015625)"/>
       </defs>
       <use xlink:href="#DejaVuSans-2212"/>
       <use xlink:href="#DejaVuSans-30" x="83.789062"/>
       <use xlink:href="#DejaVuSans-2e" x="147.412109"/>
       <use xlink:href="#DejaVuSans-38" x="179.199219"/>
      </g>
     </g>
    </g>
    <g id="xtick_3">
     <g id="line2d_3">
      <g>
       <use xlink:href="#m18b23689a5" x="164.96346" y="510.648438" style="stroke: #000000; stroke-width: 0.8"/>
      </g>
     </g>
     <g id="text_3">
      <!-- −0.6 -->
      <g transform="translate(140.680647 532.845312) scale(0.2 -0.2)">
       <defs>
        <path id="DejaVuSans-36" d="M 2113 2584 
Q 1688 2584 1439 2293 
Q 1191 2003 1191 1497 
Q 1191 994 1439 701 
Q 1688 409 2113 409 
Q 2538 409 2786 701 
Q 3034 994 3034 1497 
Q 3034 2003 2786 2293 
Q 2538 2584 2113 2584 
z
M 3366 4563 
L 3366 3988 
Q 3128 4100 2886 4159 
Q 2644 4219 2406 4219 
Q 1781 4219 1451 3797 
Q 1122 3375 1075 2522 
Q 1259 2794 1537 2939 
Q 1816 3084 2150 3084 
Q 2853 3084 3261 2657 
Q 3669 2231 3669 1497 
Q 3669 778 3244 343 
Q 2819 -91 2113 -91 
Q 1303 -91 875 529 
Q 447 1150 447 2328 
Q 447 3434 972 4092 
Q 1497 4750 2381 4750 
Q 2619 4750 2861 4703 
Q 3103 4656 3366 4563 
z
" transform="scale(0.015625)"/>
       </defs>
       <use xlink:href="#DejaVuSans-2212"/>
       <use xlink:href="#DejaVuSans-30" x="83.789062"/>
       <use xlink:href="#DejaVuSans-2e" x="147.412109"/>
       <use xlink:href="#DejaVuSans-36" x="179.199219"/>
      </g>
     </g>
    </g>
    <g id="xtick_4">
     <g id="line2d_4">
      <g>
       <use xlink:href="#m18b23689a5" x="226.197533" y="510.648438" style="stroke: #000000; stroke-width: 0.8"/>
      </g>
     </g>
     <g id="text_4">
      <!-- −0.4 -->
      <g transform="translate(201.914721 532.845312) scale(0.2 -0.2)">
       <defs>
        <path id="DejaVuSans-34" d="M 2419 4116 
L 825 1625 
L 2419 1625 
L 2419 4116 
z
M 2253 4666 
L 3047 4666 
L 3047 1625 
L 3713 1625 
L 3713 1100 
L 3047 1100 
L 3047 0 
L 2419 0 
L 2419 1100 
L 313 1100 
L 313 1709 
L 2253 4666 
z
" transform="scale(0.015625)"/>
       </defs>
       <use xlink:href="#DejaVuSans-2212"/>
       <use xlink:href="#DejaVuSans-30" x="83.789062"/>
       <use xlink:href="#DejaVuSans-2e" x="147.412109"/>
       <use xlink:href="#DejaVuSans-34" x="179.199219"/>
      </g>
     </g>
    </g>
    <g id="xtick_5">
     <g id="line2d_5">
      <g>
       <use xlink:href="#m18b23689a5" x="287.431607" y="510.648438" style="stroke: #000000; stroke-width: 0.8"/>
      </g>
     </g>
     <g id="text_5">
      <!-- −0.2 -->
      <g transform="translate(263.148794 532.845312) scale(0.2 -0.2)">
       <defs>
        <path id="DejaVuSans-32" d="M 1228 531 
L 3431 531 
L 3431 0 
L 469 0 
L 469 531 
Q 828 903 1448 1529 
Q 2069 2156 2228 2338 
Q 2531 2678 2651 2914 
Q 2772 3150 2772 3378 
Q 2772 3750 2511 3984 
Q 2250 4219 1831 4219 
Q 1534 4219 1204 4116 
Q 875 4013 500 3803 
L 500 4441 
Q 881 4594 1212 4672 
Q 1544 4750 1819 4750 
Q 2544 4750 2975 4387 
Q 3406 4025 3406 3419 
Q 3406 3131 3298 2873 
Q 3191 2616 2906 2266 
Q 2828 2175 2409 1742 
Q 1991 1309 1228 531 
z
" transform="scale(0.015625)"/>
       </defs>
       <use xlink:href="#DejaVuSans-2212"/>
       <use xlink:href="#DejaVuSans-30" x="83.789062"/>
       <use xlink:href="#DejaVuSans-2e" x="147.412109"/>
       <use xlink:href="#DejaVuSans-32" x="179.199219"/>
      </g>
     </g>
    </g>
    <g id="xtick_6">
     <g id="line2d_6">
      <g>
       <use xlink:href="#m18b23689a5" x="348.66568" y="510.648438" style="stroke: #000000; stroke-width: 0.8"/>
      </g>
     </g>
     <g id="text_6">
      <!-- 0.0 -->
      <g transform="translate(332.762555 532.845312) scale(0.2 -0.2)">
       <use xlink:href="#DejaVuSans-30"/>
       <use xlink:href="#DejaVuSans-2e" x="63.623047"/>
       <use xlink:href="#DejaVuSans-30" x="95.410156"/>
      </g>
     </g>
    </g>
    <g id="xtick_7">
     <g id="line2d_7">
      <g>
       <use xlink:href="#m18b23689a5" x="409.899754" y="510.648438" style="stroke: #000000; stroke-width: 0.8"/>
      </g>
     </g>
     <g id="text_7">
      <!-- 0.2 -->
      <g transform="translate(393.996629 532.845312) scale(0.2 -0.2)">
       <use xlink:href="#DejaVuSans-30"/>
       <use xlink:href="#DejaVuSans-2e" x="63.623047"/>
       <use xlink:href="#DejaVuSans-32" x="95.410156"/>
      </g>
     </g>
    </g>
    <g id="xtick_8">
     <g id="line2d_8">
      <g>
       <use xlink:href="#m18b23689a5" x="471.133827" y="510.648438" style="stroke: #000000; stroke-width: 0.8"/>
      </g>
     </g>
     <g id="text_8">
      <!-- 0.4 -->
      <g transform="translate(455.230702 532.845312) scale(0.2 -0.2)">
       <use xlink:href="#DejaVuSans-30"/>
       <use xlink:href="#DejaVuSans-2e" x="63.623047"/>
       <use xlink:href="#DejaVuSans-34" x="95.410156"/>
      </g>
     </g>
    </g>
    <g id="xtick_9">
     <g id="line2d_9">
      <g>
       <use xlink:href="#m18b23689a5" x="532.367901" y="510.648438" style="stroke: #000000; stroke-width: 0.8"/>
      </g>
     </g>
     <g id="text_9">
      <!-- 0.6 -->
      <g transform="translate(516.464776 532.845312) scale(0.2 -0.2)">
       <use xlink:href="#DejaVuSans-30"/>
       <use xlink:href="#DejaVuSans-2e" x="63.623047"/>
       <use xlink:href="#DejaVuSans-36" x="95.410156"/>
      </g>
     </g>
    </g>
    <g id="xtick_10">
     <g id="line2d_10">
      <g>
       <use xlink:href="#m18b23689a5" x="593.601975" y="510.648438" style="stroke: #000000; stroke-width: 0.8"/>
      </g>
     </g>
     <g id="text_10">
      <!-- 0.8 -->
      <g transform="translate(577.69885 532.845312) scale(0.2 -0.2)">
       <use xlink:href="#DejaVuSans-30"/>
       <use xlink:href="#DejaVuSans-2e" x="63.623047"/>
       <use xlink:href="#DejaVuSans-38" x="95.410156"/>
      </g>
     </g>
    </g>
    <g id="xtick_11">
     <g id="line2d_11">
      <g>
       <use xlink:href="#m18b23689a5" x="654.836048" y="510.648438" style="stroke: #000000; stroke-width: 0.8"/>
      </g>
     </g>
     <g id="text_11">
      <!-- 1.0 -->
      <g transform="translate(638.932923 532.845312) scale(0.2 -0.2)">
       <use xlink:href="#DejaVuSans-31"/>
       <use xlink:href="#DejaVuSans-2e" x="63.623047"/>
       <use xlink:href="#DejaVuSans-30" x="95.410156"/>
      </g>
     </g>
    </g>
    <g id="text_12">
     <!-- Silhouette coefficient -->
     <g transform="translate(230.227482 560.000781) scale(0.25 -0.25)">
      <defs>
       <path id="DejaVuSans-53" d="M 3425 4513 
L 3425 3897 
Q 3066 4069 2747 4153 
Q 2428 4238 2131 4238 
Q 1616 4238 1336 4038 
Q 1056 3838 1056 3469 
Q 1056 3159 1242 3001 
Q 1428 2844 1947 2747 
L 2328 2669 
Q 3034 2534 3370 2195 
Q 3706 1856 3706 1288 
Q 3706 609 3251 259 
Q 2797 -91 1919 -91 
Q 1588 -91 1214 -16 
Q 841 59 441 206 
L 441 856 
Q 825 641 1194 531 
Q 1563 422 1919 422 
Q 2459 422 2753 634 
Q 3047 847 3047 1241 
Q 3047 1584 2836 1778 
Q 2625 1972 2144 2069 
L 1759 2144 
Q 1053 2284 737 2584 
Q 422 2884 422 3419 
Q 422 4038 858 4394 
Q 1294 4750 2059 4750 
Q 2388 4750 2728 4690 
Q 3069 4631 3425 4513 
z
" transform="scale(0.015625)"/>
       <path id="DejaVuSans-69" d="M 603 3500 
L 1178 3500 
L 1178 0 
L 603 0 
L 603 3500 
z
M 603 4863 
L 1178 4863 
L 1178 4134 
L 603 4134 
L 603 4863 
z
" transform="scale(0.015625)"/>
       <path id="DejaVuSans-6c" d="M 603 4863 
L 1178 4863 
L 1178 0 
L 603 0 
L 603 4863 
z
" transform="scale(0.015625)"/>
       <path id="DejaVuSans-68" d="M 3513 2113 
L 3513 0 
L 2938 0 
L 2938 2094 
Q 2938 2591 2744 2837 
Q 2550 3084 2163 3084 
Q 1697 3084 1428 2787 
Q 1159 2491 1159 1978 
L 1159 0 
L 581 0 
L 581 4863 
L 1159 4863 
L 1159 2956 
Q 1366 3272 1645 3428 
Q 1925 3584 2291 3584 
Q 2894 3584 3203 3211 
Q 3513 2838 3513 2113 
z
" transform="scale(0.015625)"/>
       <path id="DejaVuSans-6f" d="M 1959 3097 
Q 1497 3097 1228 2736 
Q 959 2375 959 1747 
Q 959 1119 1226 758 
Q 1494 397 1959 397 
Q 2419 397 2687 759 
Q 2956 1122 2956 1747 
Q 2956 2369 2687 2733 
Q 2419 3097 1959 3097 
z
M 1959 3584 
Q 2709 3584 3137 3096 
Q 3566 2609 3566 1747 
Q 3566 888 3137 398 
Q 2709 -91 1959 -91 
Q 1206 -91 779 398 
Q 353 888 353 1747 
Q 353 2609 779 3096 
Q 1206 3584 1959 3584 
z
" transform="scale(0.015625)"/>
       <path id="DejaVuSans-75" d="M 544 1381 
L 544 3500 
L 1119 3500 
L 1119 1403 
Q 1119 906 1312 657 
Q 1506 409 1894 409 
Q 2359 409 2629 706 
Q 2900 1003 2900 1516 
L 2900 3500 
L 3475 3500 
L 3475 0 
L 2900 0 
L 2900 538 
Q 2691 219 2414 64 
Q 2138 -91 1772 -91 
Q 1169 -91 856 284 
Q 544 659 544 1381 
z
M 1991 3584 
L 1991 3584 
z
" transform="scale(0.015625)"/>
       <path id="DejaVuSans-65" d="M 3597 1894 
L 3597 1613 
L 953 1613 
Q 991 1019 1311 708 
Q 1631 397 2203 397 
Q 2534 397 2845 478 
Q 3156 559 3463 722 
L 3463 178 
Q 3153 47 2828 -22 
Q 2503 -91 2169 -91 
Q 1331 -91 842 396 
Q 353 884 353 1716 
Q 353 2575 817 3079 
Q 1281 3584 2069 3584 
Q 2775 3584 3186 3129 
Q 3597 2675 3597 1894 
z
M 3022 2063 
Q 3016 2534 2758 2815 
Q 2500 3097 2075 3097 
Q 1594 3097 1305 2825 
Q 1016 2553 972 2059 
L 3022 2063 
z
" transform="scale(0.015625)"/>
       <path id="DejaVuSans-74" d="M 1172 4494 
L 1172 3500 
L 2356 3500 
L 2356 3053 
L 1172 3053 
L 1172 1153 
Q 1172 725 1289 603 
Q 1406 481 1766 481 
L 2356 481 
L 2356 0 
L 1766 0 
Q 1100 0 847 248 
Q 594 497 594 1153 
L 594 3053 
L 172 3053 
L 172 3500 
L 594 3500 
L 594 4494 
L 1172 4494 
z
" transform="scale(0.015625)"/>
       <path id="DejaVuSans-20" transform="scale(0.015625)"/>
       <path id="DejaVuSans-63" d="M 3122 3366 
L 3122 2828 
Q 2878 2963 2633 3030 
Q 2388 3097 2138 3097 
Q 1578 3097 1268 2742 
Q 959 2388 959 1747 
Q 959 1106 1268 751 
Q 1578 397 2138 397 
Q 2388 397 2633 464 
Q 2878 531 3122 666 
L 3122 134 
Q 2881 22 2623 -34 
Q 2366 -91 2075 -91 
Q 1284 -91 818 406 
Q 353 903 353 1747 
Q 353 2603 823 3093 
Q 1294 3584 2113 3584 
Q 2378 3584 2631 3529 
Q 2884 3475 3122 3366 
z
" transform="scale(0.015625)"/>
       <path id="DejaVuSans-66" d="M 2375 4863 
L 2375 4384 
L 1825 4384 
Q 1516 4384 1395 4259 
Q 1275 4134 1275 3809 
L 1275 3500 
L 2222 3500 
L 2222 3053 
L 1275 3053 
L 1275 0 
L 697 0 
L 697 3053 
L 147 3053 
L 147 3500 
L 697 3500 
L 697 3744 
Q 697 4328 969 4595 
Q 1241 4863 1831 4863 
L 2375 4863 
z
" transform="scale(0.015625)"/>
       <path id="DejaVuSans-6e" d="M 3513 2113 
L 3513 0 
L 2938 0 
L 2938 2094 
Q 2938 2591 2744 2837 
Q 2550 3084 2163 3084 
Q 1697 3084 1428 2787 
Q 1159 2491 1159 1978 
L 1159 0 
L 581 0 
L 581 3500 
L 1159 3500 
L 1159 2956 
Q 1366 3272 1645 3428 
Q 1925 3584 2291 3584 
Q 2894 3584 3203 3211 
Q 3513 2838 3513 2113 
z
" transform="scale(0.015625)"/>
      </defs>
      <use xlink:href="#DejaVuSans-53"/>
      <use xlink:href="#DejaVuSans-69" x="63.476562"/>
      <use xlink:href="#DejaVuSans-6c" x="91.259766"/>
      <use xlink:href="#DejaVuSans-68" x="119.042969"/>
      <use xlink:href="#DejaVuSans-6f" x="182.421875"/>
      <use xlink:href="#DejaVuSans-75" x="243.603516"/>
      <use xlink:href="#DejaVuSans-65" x="306.982422"/>
      <use xlink:href="#DejaVuSans-74" x="368.505859"/>
      <use xlink:href="#DejaVuSans-74" x="407.714844"/>
      <use xlink:href="#DejaVuSans-65" x="446.923828"/>
      <use xlink:href="#DejaVuSans-20" x="508.447266"/>
      <use xlink:href="#DejaVuSans-63" x="540.234375"/>
      <use xlink:href="#DejaVuSans-6f" x="595.214844"/>
      <use xlink:href="#DejaVuSans-65" x="656.396484"/>
      <use xlink:href="#DejaVuSans-66" x="717.919922"/>
      <use xlink:href="#DejaVuSans-66" x="753.125"/>
      <use xlink:href="#DejaVuSans-69" x="788.330078"/>
      <use xlink:href="#DejaVuSans-63" x="816.113281"/>
      <use xlink:href="#DejaVuSans-69" x="871.09375"/>
      <use xlink:href="#DejaVuSans-65" x="898.876953"/>
      <use xlink:href="#DejaVuSans-6e" x="960.400391"/>
      <use xlink:href="#DejaVuSans-74" x="1023.779297"/>
     </g>
    </g>
   </g>
   <g id="matplotlib.axis_2">
    <g id="text_13">
     <!-- Predicted label -->
     <g transform="translate(29.796094 360.469396) rotate(-90) scale(0.25 -0.25)">
      <defs>
       <path id="DejaVuSans-50" d="M 1259 4147 
L 1259 2394 
L 2053 2394 
Q 2494 2394 2734 2622 
Q 2975 2850 2975 3272 
Q 2975 3691 2734 3919 
Q 2494 4147 2053 4147 
L 1259 4147 
z
M 628 4666 
L 2053 4666 
Q 2838 4666 3239 4311 
Q 3641 3956 3641 3272 
Q 3641 2581 3239 2228 
Q 2838 1875 2053 1875 
L 1259 1875 
L 1259 0 
L 628 0 
L 628 4666 
z
" transform="scale(0.015625)"/>
       <path id="DejaVuSans-72" d="M 2631 2963 
Q 2534 3019 2420 3045 
Q 2306 3072 2169 3072 
Q 1681 3072 1420 2755 
Q 1159 2438 1159 1844 
L 1159 0 
L 581 0 
L 581 3500 
L 1159 3500 
L 1159 2956 
Q 1341 3275 1631 3429 
Q 1922 3584 2338 3584 
Q 2397 3584 2469 3576 
Q 2541 3569 2628 3553 
L 2631 2963 
z
" transform="scale(0.015625)"/>
       <path id="DejaVuSans-64" d="M 2906 2969 
L 2906 4863 
L 3481 4863 
L 3481 0 
L 2906 0 
L 2906 525 
Q 2725 213 2448 61 
Q 2172 -91 1784 -91 
Q 1150 -91 751 415 
Q 353 922 353 1747 
Q 353 2572 751 3078 
Q 1150 3584 1784 3584 
Q 2172 3584 2448 3432 
Q 2725 3281 2906 2969 
z
M 947 1747 
Q 947 1113 1208 752 
Q 1469 391 1925 391 
Q 2381 391 2643 752 
Q 2906 1113 2906 1747 
Q 2906 2381 2643 2742 
Q 2381 3103 1925 3103 
Q 1469 3103 1208 2742 
Q 947 2381 947 1747 
z
" transform="scale(0.015625)"/>
       <path id="DejaVuSans-61" d="M 2194 1759 
Q 1497 1759 1228 1600 
Q 959 1441 959 1056 
Q 959 750 1161 570 
Q 1363 391 1709 391 
Q 2188 391 2477 730 
Q 2766 1069 2766 1631 
L 2766 1759 
L 2194 1759 
z
M 3341 1997 
L 3341 0 
L 2766 0 
L 2766 531 
Q 2569 213 2275 61 
Q 1981 -91 1556 -91 
Q 1019 -91 701 211 
Q 384 513 384 1019 
Q 384 1609 779 1909 
Q 1175 2209 1959 2209 
L 2766 2209 
L 2766 2266 
Q 2766 2663 2505 2880 
Q 2244 3097 1772 3097 
Q 1472 3097 1187 3025 
Q 903 2953 641 2809 
L 641 3341 
Q 956 3463 1253 3523 
Q 1550 3584 1831 3584 
Q 2591 3584 2966 3190 
Q 3341 2797 3341 1997 
z
" transform="scale(0.015625)"/>
       <path id="DejaVuSans-62" d="M 3116 1747 
Q 3116 2381 2855 2742 
Q 2594 3103 2138 3103 
Q 1681 3103 1420 2742 
Q 1159 2381 1159 1747 
Q 1159 1113 1420 752 
Q 1681 391 2138 391 
Q 2594 391 2855 752 
Q 3116 1113 3116 1747 
z
M 1159 2969 
Q 1341 3281 1617 3432 
Q 1894 3584 2278 3584 
Q 2916 3584 3314 3078 
Q 3713 2572 3713 1747 
Q 3713 922 3314 415 
Q 2916 -91 2278 -91 
Q 1894 -91 1617 61 
Q 1341 213 1159 525 
L 1159 0 
L 581 0 
L 581 4863 
L 1159 4863 
L 1159 2969 
z
" transform="scale(0.015625)"/>
      </defs>
      <use xlink:href="#DejaVuSans-50"/>
      <use xlink:href="#DejaVuSans-72" x="58.552734"/>
      <use xlink:href="#DejaVuSans-65" x="97.416016"/>
      <use xlink:href="#DejaVuSans-64" x="158.939453"/>
      <use xlink:href="#DejaVuSans-69" x="222.416016"/>
      <use xlink:href="#DejaVuSans-63" x="250.199219"/>
      <use xlink:href="#DejaVuSans-74" x="305.179688"/>
      <use xlink:href="#DejaVuSans-65" x="344.388672"/>
      <use xlink:href="#DejaVuSans-64" x="405.912109"/>
      <use xlink:href="#DejaVuSans-20" x="469.388672"/>
      <use xlink:href="#DejaVuSans-6c" x="501.175781"/>
      <use xlink:href="#DejaVuSans-61" x="528.958984"/>
      <use xlink:href="#DejaVuSans-62" x="590.238281"/>
      <use xlink:href="#DejaVuSans-65" x="653.714844"/>
      <use xlink:href="#DejaVuSans-6c" x="715.238281"/>
     </g>
    </g>
   </g>
   <g id="line2d_12">
    <path d="M 597.170937 510.648438 
L 597.170937 24.528635 
" clip-path="url(#pbd2496f5b8)" style="fill: none; stroke: #ff0000; stroke-width: 4; stroke-linecap: square"/>
   </g>
   <g id="patch_3">
    <path d="M 42.495313 510.648438 
L 42.495313 24.528635 
" style="fill: none; stroke: #000000; stroke-width: 0.8; stroke-linejoin: miter; stroke-linecap: square"/>
   </g>
   <g id="patch_4">
    <path d="M 683.709651 510.648438 
L 683.709651 24.528635 
" style="fill: none; stroke: #000000; stroke-width: 0.8; stroke-linejoin: miter; stroke-linecap: square"/>
   </g>
   <g id="patch_5">
    <path d="M 42.495313 510.648438 
L 683.709651 510.648438 
" style="fill: none; stroke: #000000; stroke-width: 0.8; stroke-linejoin: miter; stroke-linecap: square"/>
   </g>
   <g id="patch_6">
    <path d="M 42.495313 24.528635 
L 683.709651 24.528635 
" style="fill: none; stroke: #000000; stroke-width: 0.8; stroke-linejoin: miter; stroke-linecap: square"/>
   </g>
   <g id="text_14">
    <!-- 0 -->
    <g transform="translate(333.357162 497.94697) scale(0.25 -0.25)">
     <use xlink:href="#DejaVuSans-30"/>
    </g>
   </g>
   <g id="text_15">
    <!-- 1 -->
    <g transform="translate(333.357162 458.110549) scale(0.25 -0.25)">
     <use xlink:href="#DejaVuSans-31"/>
    </g>
   </g>
   <g id="text_16">
    <!-- 2 -->
    <g transform="translate(333.357162 416.83078) scale(0.25 -0.25)">
     <use xlink:href="#DejaVuSans-32"/>
    </g>
   </g>
   <g id="text_17">
    <!-- 3 -->
    <g transform="translate(333.357162 376.705689) scale(0.25 -0.25)">
     <defs>
      <path id="DejaVuSans-33" d="M 2597 2516 
Q 3050 2419 3304 2112 
Q 3559 1806 3559 1356 
Q 3559 666 3084 287 
Q 2609 -91 1734 -91 
Q 1441 -91 1130 -33 
Q 819 25 488 141 
L 488 750 
Q 750 597 1062 519 
Q 1375 441 1716 441 
Q 2309 441 2620 675 
Q 2931 909 2931 1356 
Q 2931 1769 2642 2001 
Q 2353 2234 1838 2234 
L 1294 2234 
L 1294 2753 
L 1863 2753 
Q 2328 2753 2575 2939 
Q 2822 3125 2822 3475 
Q 2822 3834 2567 4026 
Q 2313 4219 1838 4219 
Q 1578 4219 1281 4162 
Q 984 4106 628 3988 
L 628 4550 
Q 988 4650 1302 4700 
Q 1616 4750 1894 4750 
Q 2613 4750 3031 4423 
Q 3450 4097 3450 3541 
Q 3450 3153 3228 2886 
Q 3006 2619 2597 2516 
z
" transform="scale(0.015625)"/>
     </defs>
     <use xlink:href="#DejaVuSans-33"/>
    </g>
   </g>
   <g id="text_18">
    <!-- 4 -->
    <g transform="translate(333.357162 338.889956) scale(0.25 -0.25)">
     <use xlink:href="#DejaVuSans-34"/>
    </g>
   </g>
   <g id="text_19">
    <!-- 5 -->
    <g transform="translate(333.357162 323.879131) scale(0.25 -0.25)">
     <defs>
      <path id="DejaVuSans-35" d="M 691 4666 
L 3169 4666 
L 3169 4134 
L 1269 4134 
L 1269 2991 
Q 1406 3038 1543 3061 
Q 1681 3084 1819 3084 
Q 2600 3084 3056 2656 
Q 3513 2228 3513 1497 
Q 3513 744 3044 326 
Q 2575 -91 1722 -91 
Q 1428 -91 1123 -41 
Q 819 9 494 109 
L 494 744 
Q 775 591 1075 516 
Q 1375 441 1709 441 
Q 2250 441 2565 725 
Q 2881 1009 2881 1497 
Q 2881 1984 2565 2268 
Q 2250 2553 1709 2553 
Q 1456 2553 1204 2497 
Q 953 2441 691 2322 
L 691 4666 
z
" transform="scale(0.015625)"/>
     </defs>
     <use xlink:href="#DejaVuSans-35"/>
    </g>
   </g>
   <g id="text_20">
    <!-- 6 -->
    <g transform="translate(333.357162 262.103812) scale(0.25 -0.25)">
     <use xlink:href="#DejaVuSans-36"/>
    </g>
   </g>
   <g id="text_21">
    <!-- 7 -->
    <g transform="translate(333.357162 201.194502) scale(0.25 -0.25)">
     <defs>
      <path id="DejaVuSans-37" d="M 525 4666 
L 3525 4666 
L 3525 4397 
L 1831 0 
L 1172 0 
L 2766 4134 
L 525 4134 
L 525 4666 
z
" transform="scale(0.015625)"/>
     </defs>
     <use xlink:href="#DejaVuSans-37"/>
    </g>
   </g>
   <g id="text_22">
    <!-- 8 -->
    <g transform="translate(333.357162 191.379731) scale(0.25 -0.25)">
     <use xlink:href="#DejaVuSans-38"/>
    </g>
   </g>
   <g id="text_23">
    <!-- 9 -->
    <g transform="translate(333.357162 165.976796) scale(0.25 -0.25)">
     <defs>
      <path id="DejaVuSans-39" d="M 703 97 
L 703 672 
Q 941 559 1184 500 
Q 1428 441 1663 441 
Q 2288 441 2617 861 
Q 2947 1281 2994 2138 
Q 2813 1869 2534 1725 
Q 2256 1581 1919 1581 
Q 1219 1581 811 2004 
Q 403 2428 403 3163 
Q 403 3881 828 4315 
Q 1253 4750 1959 4750 
Q 2769 4750 3195 4129 
Q 3622 3509 3622 2328 
Q 3622 1225 3098 567 
Q 2575 -91 1691 -91 
Q 1453 -91 1209 -44 
Q 966 3 703 97 
z
M 1959 2075 
Q 2384 2075 2632 2365 
Q 2881 2656 2881 3163 
Q 2881 3666 2632 3958 
Q 2384 4250 1959 4250 
Q 1534 4250 1286 3958 
Q 1038 3666 1038 3163 
Q 1038 2656 1286 2365 
Q 1534 2075 1959 2075 
z
" transform="scale(0.015625)"/>
     </defs>
     <use xlink:href="#DejaVuSans-39"/>
    </g>
   </g>
   <g id="text_24">
    <!-- 10 -->
    <g transform="translate(333.357162 126.429045) scale(0.25 -0.25)">
     <use xlink:href="#DejaVuSans-31"/>
     <use xlink:href="#DejaVuSans-30" x="63.623047"/>
    </g>
   </g>
   <g id="text_25">
    <!-- 11 -->
    <g transform="translate(333.357162 87.458633) scale(0.25 -0.25)">
     <use xlink:href="#DejaVuSans-31"/>
     <use xlink:href="#DejaVuSans-31" x="63.623047"/>
    </g>
   </g>
   <g id="text_26">
    <!-- 12 -->
    <g transform="translate(333.357162 60.32368) scale(0.25 -0.25)">
     <use xlink:href="#DejaVuSans-31"/>
     <use xlink:href="#DejaVuSans-32" x="63.623047"/>
    </g>
   </g>
   <g id="text_27">
    <!-- 13 -->
    <g transform="translate(333.357162 49.642901) scale(0.25 -0.25)">
     <use xlink:href="#DejaVuSans-31"/>
     <use xlink:href="#DejaVuSans-33" x="63.623047"/>
    </g>
   </g>
   <g id="text_28">
    <!-- 14 -->
    <g transform="translate(333.357162 40.40547) scale(0.25 -0.25)">
     <use xlink:href="#DejaVuSans-31"/>
     <use xlink:href="#DejaVuSans-34" x="63.623047"/>
    </g>
   </g>
   <g id="text_29">
    <!-- 15 -->
    <g transform="translate(333.357162 31.168039) scale(0.25 -0.25)">
     <use xlink:href="#DejaVuSans-31"/>
     <use xlink:href="#DejaVuSans-35" x="63.623047"/>
    </g>
   </g>
   <g id="text_30">
    <!-- 0.8117 -->
    <g style="fill: #ff0000" transform="translate(612.479456 30.30203) scale(0.25 -0.25)">
     <use xlink:href="#DejaVuSans-30"/>
     <use xlink:href="#DejaVuSans-2e" x="63.623047"/>
     <use xlink:href="#DejaVuSans-38" x="95.410156"/>
     <use xlink:href="#DejaVuSans-31" x="159.033203"/>
     <use xlink:href="#DejaVuSans-31" x="222.65625"/>
     <use xlink:href="#DejaVuSans-37" x="286.279297"/>
    </g>
   </g>
  </g>
 </g>
 <defs>
  <clipPath id="pbd2496f5b8">
   <rect x="42.495313" y="24.528635" width="641.214339" height="486.119802"/>
  </clipPath>
 </defs>
</svg>
